<?xml version="1.0" encoding="UTF-8" standalone="no"?><svg xmlns="http://www.w3.org/2000/svg" xmlns:xlink="http://www.w3.org/1999/xlink" contentScriptType="application/ecmascript" contentStyleType="text/css" height="489px" preserveAspectRatio="none" style="width:235px;height:489px;" version="1.1" viewBox="0 0 235 489" width="235px" zoomAndPan="magnify"><defs><filter height="300%" id="f11uqzg6xuetig" width="300%" x="-1" y="-1"><feGaussianBlur result="blurOut" stdDeviation="2.0"/><feColorMatrix in="blurOut" result="blurOut2" type="matrix" values="0 0 0 0 0 0 0 0 0 0 0 0 0 0 0 0 0 0 .4 0"/><feOffset dx="4.0" dy="4.0" in="blurOut2" result="blurOut3"/><feBlend in="SourceGraphic" in2="blurOut3" mode="normal"/></filter></defs><g><!--MD5=[364aec0fc02518cb9ab31cd04b585b1a]
class FarmaciaDB--><rect codeLine="3" fill="#FEFECE" filter="url(#f11uqzg6xuetig)" height="60.8047" id="FarmaciaDB" style="stroke:#A80036;stroke-width:1.5;" width="214" x="7" y="238"/><ellipse cx="74.25" cy="254" fill="#ADD1B2" rx="11" ry="11" style="stroke:#A80036;stroke-width:1.0;"/><path d="M76.5938,249.6719 C75.6563,249.2344 75.0625,249.0938 74.1875,249.0938 C71.5625,249.0938 69.5625,251.1719 69.5625,253.8906 L69.5625,255.0156 C69.5625,257.5938 71.6719,259.4844 74.5625,259.4844 C75.7813,259.4844 76.9375,259.1875 77.6875,258.6406 C78.2656,258.2344 78.5938,257.7813 78.5938,257.3906 C78.5938,256.9375 78.2031,256.5469 77.7344,256.5469 C77.5156,256.5469 77.3125,256.625 77.125,256.8125 C76.6719,257.2969 76.6719,257.2969 76.4844,257.3906 C76.0625,257.6563 75.375,257.7813 74.6094,257.7813 C72.5625,257.7813 71.2656,256.6875 71.2656,254.9844 L71.2656,253.8906 C71.2656,252.1094 72.5156,250.7969 74.25,250.7969 C74.8281,250.7969 75.4375,250.9531 75.9063,251.2031 C76.3906,251.4844 76.5625,251.7031 76.6563,252.1094 C76.7188,252.5156 76.75,252.6406 76.8906,252.7656 C77.0313,252.9063 77.2656,253.0156 77.4844,253.0156 C77.75,253.0156 78.0156,252.875 78.1875,252.6563 C78.2969,252.5 78.3281,252.3125 78.3281,251.8906 L78.3281,250.4688 C78.3281,250.0313 78.3125,249.9063 78.2188,249.75 C78.0625,249.4844 77.7813,249.3438 77.4844,249.3438 C77.1875,249.3438 76.9844,249.4375 76.7656,249.75 L76.5938,249.6719 Z " fill="#000000"/><text fill="#000000" font-family="sans-serif" font-size="12" lengthAdjust="spacing" textLength="71" x="94.75" y="258.1543">FarmaciaDB</text><line style="stroke:#A80036;stroke-width:1.5;" x1="8" x2="220" y1="270" y2="270"/><line style="stroke:#A80036;stroke-width:1.5;" x1="8" x2="220" y1="278" y2="278"/><text fill="#000000" font-family="sans-serif" font-size="11" lengthAdjust="spacing" textLength="202" x="13" y="292.2104">+getFarmaciaProximaByCliente(nif)</text><!--MD5=[6613c9cd406ef433ff06f5e98b28abd9]
class Farmacia--><rect codeLine="7" fill="#FEFECE" filter="url(#f11uqzg6xuetig)" height="99.2188" id="Farmacia" style="stroke:#A80036;stroke-width:1.5;" width="175" x="26.5" y="376"/><ellipse cx="82.75" cy="392" fill="#ADD1B2" rx="11" ry="11" style="stroke:#A80036;stroke-width:1.0;"/><path d="M85.0938,387.6719 C84.1563,387.2344 83.5625,387.0938 82.6875,387.0938 C80.0625,387.0938 78.0625,389.1719 78.0625,391.8906 L78.0625,393.0156 C78.0625,395.5938 80.1719,397.4844 83.0625,397.4844 C84.2813,397.4844 85.4375,397.1875 86.1875,396.6406 C86.7656,396.2344 87.0938,395.7813 87.0938,395.3906 C87.0938,394.9375 86.7031,394.5469 86.2344,394.5469 C86.0156,394.5469 85.8125,394.625 85.625,394.8125 C85.1719,395.2969 85.1719,395.2969 84.9844,395.3906 C84.5625,395.6563 83.875,395.7813 83.1094,395.7813 C81.0625,395.7813 79.7656,394.6875 79.7656,392.9844 L79.7656,391.8906 C79.7656,390.1094 81.0156,388.7969 82.75,388.7969 C83.3281,388.7969 83.9375,388.9531 84.4063,389.2031 C84.8906,389.4844 85.0625,389.7031 85.1563,390.1094 C85.2188,390.5156 85.25,390.6406 85.3906,390.7656 C85.5313,390.9063 85.7656,391.0156 85.9844,391.0156 C86.25,391.0156 86.5156,390.875 86.6875,390.6563 C86.7969,390.5 86.8281,390.3125 86.8281,389.8906 L86.8281,388.4688 C86.8281,388.0313 86.8125,387.9063 86.7188,387.75 C86.5625,387.4844 86.2813,387.3438 85.9844,387.3438 C85.6875,387.3438 85.4844,387.4375 85.2656,387.75 L85.0938,387.6719 Z " fill="#000000"/><text fill="#000000" font-family="sans-serif" font-size="12" lengthAdjust="spacing" textLength="54" x="103.25" y="396.1543">Farmacia</text><line style="stroke:#A80036;stroke-width:1.5;" x1="27.5" x2="200.5" y1="408" y2="408"/><text fill="#000000" font-family="sans-serif" font-size="11" lengthAdjust="spacing" textLength="63" x="32.5" y="422.2104">-Integer nif</text><text fill="#000000" font-family="sans-serif" font-size="11" lengthAdjust="spacing" textLength="73" x="32.5" y="435.0151">-String email</text><text fill="#000000" font-family="sans-serif" font-size="11" lengthAdjust="spacing" textLength="84" x="32.5" y="447.8198">-String morada</text><line style="stroke:#A80036;stroke-width:1.5;" x1="27.5" x2="200.5" y1="454.4141" y2="454.4141"/><text fill="#000000" font-family="sans-serif" font-size="11" lengthAdjust="spacing" textLength="163" x="32.5" y="468.6245">+Farmacia(nif,email,morada)</text><!--MD5=[79e34f5fc5afe5d8697a84a65bb14793]
class PedirItemFarmaciaController--><rect codeLine="14" fill="#FEFECE" filter="url(#f11uqzg6xuetig)" height="60.8047" id="PedirItemFarmaciaController" style="stroke:#A80036;stroke-width:1.5;" width="214" x="7" y="116"/><ellipse cx="27.85" cy="132" fill="#ADD1B2" rx="11" ry="11" style="stroke:#A80036;stroke-width:1.0;"/><path d="M30.1938,127.6719 C29.2563,127.2344 28.6625,127.0938 27.7875,127.0938 C25.1625,127.0938 23.1625,129.1719 23.1625,131.8906 L23.1625,133.0156 C23.1625,135.5938 25.2719,137.4844 28.1625,137.4844 C29.3813,137.4844 30.5375,137.1875 31.2875,136.6406 C31.8656,136.2344 32.1938,135.7813 32.1938,135.3906 C32.1938,134.9375 31.8031,134.5469 31.3344,134.5469 C31.1156,134.5469 30.9125,134.625 30.725,134.8125 C30.2719,135.2969 30.2719,135.2969 30.0844,135.3906 C29.6625,135.6563 28.975,135.7813 28.2094,135.7813 C26.1625,135.7813 24.8656,134.6875 24.8656,132.9844 L24.8656,131.8906 C24.8656,130.1094 26.1156,128.7969 27.85,128.7969 C28.4281,128.7969 29.0375,128.9531 29.5063,129.2031 C29.9906,129.4844 30.1625,129.7031 30.2563,130.1094 C30.3188,130.5156 30.35,130.6406 30.4906,130.7656 C30.6313,130.9063 30.8656,131.0156 31.0844,131.0156 C31.35,131.0156 31.6156,130.875 31.7875,130.6563 C31.8969,130.5 31.9281,130.3125 31.9281,129.8906 L31.9281,128.4688 C31.9281,128.0313 31.9125,127.9063 31.8188,127.75 C31.6625,127.4844 31.3813,127.3438 31.0844,127.3438 C30.7875,127.3438 30.5844,127.4375 30.3656,127.75 L30.1938,127.6719 Z " fill="#000000"/><text fill="#000000" font-family="sans-serif" font-size="12" lengthAdjust="spacing" textLength="169" x="43.15" y="136.1543">PedirItemFarmaciaController</text><line style="stroke:#A80036;stroke-width:1.5;" x1="8" x2="220" y1="148" y2="148"/><line style="stroke:#A80036;stroke-width:1.5;" x1="8" x2="220" y1="156" y2="156"/><text fill="#000000" font-family="sans-serif" font-size="11" lengthAdjust="spacing" textLength="202" x="13" y="170.2104">+getFarmaciaProximaByCliente(nif)</text><!--MD5=[4effe6cda46b430ff3120c2f16d34d95]
class RealizarEncomendaUI--><rect codeLine="18" fill="#FEFECE" filter="url(#f11uqzg6xuetig)" height="48" id="RealizarEncomendaUI" style="stroke:#A80036;stroke-width:1.5;" width="161" x="33.5" y="7"/><ellipse cx="48.5" cy="23" fill="#ADD1B2" rx="11" ry="11" style="stroke:#A80036;stroke-width:1.0;"/><path d="M50.8438,18.6719 C49.9063,18.2344 49.3125,18.0938 48.4375,18.0938 C45.8125,18.0938 43.8125,20.1719 43.8125,22.8906 L43.8125,24.0156 C43.8125,26.5938 45.9219,28.4844 48.8125,28.4844 C50.0313,28.4844 51.1875,28.1875 51.9375,27.6406 C52.5156,27.2344 52.8438,26.7813 52.8438,26.3906 C52.8438,25.9375 52.4531,25.5469 51.9844,25.5469 C51.7656,25.5469 51.5625,25.625 51.375,25.8125 C50.9219,26.2969 50.9219,26.2969 50.7344,26.3906 C50.3125,26.6563 49.625,26.7813 48.8594,26.7813 C46.8125,26.7813 45.5156,25.6875 45.5156,23.9844 L45.5156,22.8906 C45.5156,21.1094 46.7656,19.7969 48.5,19.7969 C49.0781,19.7969 49.6875,19.9531 50.1563,20.2031 C50.6406,20.4844 50.8125,20.7031 50.9063,21.1094 C50.9688,21.5156 51,21.6406 51.1406,21.7656 C51.2813,21.9063 51.5156,22.0156 51.7344,22.0156 C52,22.0156 52.2656,21.875 52.4375,21.6563 C52.5469,21.5 52.5781,21.3125 52.5781,20.8906 L52.5781,19.4688 C52.5781,19.0313 52.5625,18.9063 52.4688,18.75 C52.3125,18.4844 52.0313,18.3438 51.7344,18.3438 C51.4375,18.3438 51.2344,18.4375 51.0156,18.75 L50.8438,18.6719 Z " fill="#000000"/><text fill="#000000" font-family="sans-serif" font-size="12" lengthAdjust="spacing" textLength="129" x="62.5" y="27.1543">RealizarEncomendaUI</text><line style="stroke:#A80036;stroke-width:1.5;" x1="34.5" x2="193.5" y1="39" y2="39"/><line style="stroke:#A80036;stroke-width:1.5;" x1="34.5" x2="193.5" y1="47" y2="47"/><!--MD5=[80fce00e5be2d62d908c91420fdf5b9a]
link RealizarEncomendaUI to PedirItemFarmaciaController--><path codeLine="21" d="M114,55.242 C114,71.112 114,92.427 114,110.359 " fill="none" id="RealizarEncomendaUI-to-PedirItemFarmaciaController" style="stroke:#A80036;stroke-width:1.0;stroke-dasharray:7.0,7.0;"/><polygon fill="#A80036" points="114,115.805,118,106.805,114,110.805,110,106.805,114,115.805" style="stroke:#A80036;stroke-width:1.0;"/><!--MD5=[0eb90b374fa07c99e027518ea92009ab]
link PedirItemFarmaciaController to FarmaciaDB--><path codeLine="22" d="M114,177.163 C114,193.894 114,214.896 114,232.438 " fill="none" id="PedirItemFarmaciaController-to-FarmaciaDB" style="stroke:#A80036;stroke-width:1.0;stroke-dasharray:7.0,7.0;"/><polygon fill="#A80036" points="114,237.762,118,228.762,114,232.762,110,228.762,114,237.762" style="stroke:#A80036;stroke-width:1.0;"/><!--MD5=[3c539b0dd2212e8322efef71ee8cdfc2]
link FarmaciaDB to Farmacia--><path codeLine="24" d="M114,299.019 C114,319.274 114,346.737 114,370.807 " fill="none" id="FarmaciaDB-to-Farmacia" style="stroke:#A80036;stroke-width:1.0;"/><polygon fill="#A80036" points="114,375.8881,118,366.8881,114,370.8881,110,366.8881,114,375.8881" style="stroke:#A80036;stroke-width:1.0;"/><text fill="#000000" font-family="sans-serif" font-size="13" lengthAdjust="spacing" textLength="97" x="115" y="342.0669">tem registadas</text><text fill="#000000" font-family="sans-serif" font-size="13" lengthAdjust="spacing" textLength="8" x="105.175" y="318.9612">1</text><text fill="#000000" font-family="sans-serif" font-size="13" lengthAdjust="spacing" textLength="7" x="106.5078" y="364.9175">*</text><!--MD5=[ac8e5fdf11ebca1fa2ec3a4d02b4d9de]
@startuml
skinparam classAttributeIconSize 0

class FarmaciaDB {
    +getFarmaciaProximaByCliente(nif)
}

class Farmacia {
  -Integer nif
  -String email
  -String morada
  +Farmacia(nif,email,morada)
}

class PedirItemFarmaciaController {
    +getFarmaciaProximaByCliente(nif)
}

class RealizarEncomendaUI {
}

RealizarEncomendaUI ..> PedirItemFarmaciaController
PedirItemFarmaciaController ..> FarmaciaDB

FarmaciaDB "1" - -> "*" Farmacia : tem registadas
@enduml

PlantUML version 1.2021.01beta3(Unknown compile time)
(GPL source distribution)
Java Runtime: Java(TM) SE Runtime Environment
JVM: Java HotSpot(TM) 64-Bit Server VM
Default Encoding: UTF-8
Language: en
Country: US
--></g></svg>