<?xml version="1.0" encoding="UTF-8" standalone="no"?><svg xmlns="http://www.w3.org/2000/svg" xmlns:xlink="http://www.w3.org/1999/xlink" contentScriptType="application/ecmascript" contentStyleType="text/css" height="836px" preserveAspectRatio="none" style="width:948px;height:836px;" version="1.1" viewBox="0 0 948 836" width="948px" zoomAndPan="magnify"><defs><filter height="300%" id="febu0kibjmy0k" width="300%" x="-1" y="-1"><feGaussianBlur result="blurOut" stdDeviation="2.0"/><feColorMatrix in="blurOut" result="blurOut2" type="matrix" values="0 0 0 0 0 0 0 0 0 0 0 0 0 0 0 0 0 0 .4 0"/><feOffset dx="4.0" dy="4.0" in="blurOut2" result="blurOut3"/><feBlend in="SourceGraphic" in2="blurOut3" mode="normal"/></filter></defs><g><!--MD5=[fdc0efc5253b4b251338dbb2cf88d917]
class VeiculoDB--><rect codeLine="3" fill="#FEFECE" filter="url(#febu0kibjmy0k)" height="60.8047" id="VeiculoDB" style="stroke:#A80036;stroke-width:1.5;" width="276" x="46.5" y="418"/><ellipse cx="149.75" cy="434" fill="#ADD1B2" rx="11" ry="11" style="stroke:#A80036;stroke-width:1.0;"/><path d="M152.0938,429.6719 C151.1563,429.2344 150.5625,429.0938 149.6875,429.0938 C147.0625,429.0938 145.0625,431.1719 145.0625,433.8906 L145.0625,435.0156 C145.0625,437.5938 147.1719,439.4844 150.0625,439.4844 C151.2813,439.4844 152.4375,439.1875 153.1875,438.6406 C153.7656,438.2344 154.0938,437.7813 154.0938,437.3906 C154.0938,436.9375 153.7031,436.5469 153.2344,436.5469 C153.0156,436.5469 152.8125,436.625 152.625,436.8125 C152.1719,437.2969 152.1719,437.2969 151.9844,437.3906 C151.5625,437.6563 150.875,437.7813 150.1094,437.7813 C148.0625,437.7813 146.7656,436.6875 146.7656,434.9844 L146.7656,433.8906 C146.7656,432.1094 148.0156,430.7969 149.75,430.7969 C150.3281,430.7969 150.9375,430.9531 151.4063,431.2031 C151.8906,431.4844 152.0625,431.7031 152.1563,432.1094 C152.2188,432.5156 152.25,432.6406 152.3906,432.7656 C152.5313,432.9063 152.7656,433.0156 152.9844,433.0156 C153.25,433.0156 153.5156,432.875 153.6875,432.6563 C153.7969,432.5 153.8281,432.3125 153.8281,431.8906 L153.8281,430.4688 C153.8281,430.0313 153.8125,429.9063 153.7188,429.75 C153.5625,429.4844 153.2813,429.3438 152.9844,429.3438 C152.6875,429.3438 152.4844,429.4375 152.2656,429.75 L152.0938,429.6719 Z " fill="#000000"/><text fill="#000000" font-family="sans-serif" font-size="12" lengthAdjust="spacing" textLength="61" x="170.25" y="438.1543">VeiculoDB</text><line style="stroke:#A80036;stroke-width:1.5;" x1="47.5" x2="321.5" y1="450" y2="450"/><line style="stroke:#A80036;stroke-width:1.5;" x1="47.5" x2="321.5" y1="458" y2="458"/><text fill="#000000" font-family="sans-serif" font-size="11" lengthAdjust="spacing" textLength="264" x="52.5" y="472.2104">+getListaVeiculoEntrega(pesoMaximoEntrega)</text><!--MD5=[598a246086efa0137d5aa96a640f0789]
class EntregaDB--><rect codeLine="7" fill="#FEFECE" filter="url(#febu0kibjmy0k)" height="73.6094" id="EntregaDB" style="stroke:#A80036;stroke-width:1.5;" width="481" x="218" y="288.5"/><ellipse cx="422.75" cy="304.5" fill="#ADD1B2" rx="11" ry="11" style="stroke:#A80036;stroke-width:1.0;"/><path d="M425.0938,300.1719 C424.1563,299.7344 423.5625,299.5938 422.6875,299.5938 C420.0625,299.5938 418.0625,301.6719 418.0625,304.3906 L418.0625,305.5156 C418.0625,308.0938 420.1719,309.9844 423.0625,309.9844 C424.2813,309.9844 425.4375,309.6875 426.1875,309.1406 C426.7656,308.7344 427.0938,308.2813 427.0938,307.8906 C427.0938,307.4375 426.7031,307.0469 426.2344,307.0469 C426.0156,307.0469 425.8125,307.125 425.625,307.3125 C425.1719,307.7969 425.1719,307.7969 424.9844,307.8906 C424.5625,308.1563 423.875,308.2813 423.1094,308.2813 C421.0625,308.2813 419.7656,307.1875 419.7656,305.4844 L419.7656,304.3906 C419.7656,302.6094 421.0156,301.2969 422.75,301.2969 C423.3281,301.2969 423.9375,301.4531 424.4063,301.7031 C424.8906,301.9844 425.0625,302.2031 425.1563,302.6094 C425.2188,303.0156 425.25,303.1406 425.3906,303.2656 C425.5313,303.4063 425.7656,303.5156 425.9844,303.5156 C426.25,303.5156 426.5156,303.375 426.6875,303.1563 C426.7969,303 426.8281,302.8125 426.8281,302.3906 L426.8281,300.9688 C426.8281,300.5313 426.8125,300.4063 426.7188,300.25 C426.5625,299.9844 426.2813,299.8438 425.9844,299.8438 C425.6875,299.8438 425.4844,299.9375 425.2656,300.25 L425.0938,300.1719 Z " fill="#000000"/><text fill="#000000" font-family="sans-serif" font-size="12" lengthAdjust="spacing" textLength="63" x="443.25" y="308.6543">EntregaDB</text><line style="stroke:#A80036;stroke-width:1.5;" x1="219" x2="698" y1="320.5" y2="320.5"/><line style="stroke:#A80036;stroke-width:1.5;" x1="219" x2="698" y1="328.5" y2="328.5"/><text fill="#000000" font-family="sans-serif" font-size="11" lengthAdjust="spacing" textLength="469" x="224" y="342.7104">+generateGraphScooter(listEnderecosScooter, listEnderecos, est, v, pesoEntrega)</text><text fill="#000000" font-family="sans-serif" font-size="11" lengthAdjust="spacing" textLength="438" x="224" y="355.5151">+getPath(graphScooter, listEnderecos, finalShortPathScooter, endereco, 0, v)</text><!--MD5=[0b96431f48c75c7948e638dd0365dea1]
class RegistarEntregaController--><rect codeLine="12" fill="#FEFECE" filter="url(#febu0kibjmy0k)" height="86.4141" id="RegistarEntregaController" style="stroke:#A80036;stroke-width:1.5;" width="481" x="7" y="116"/><ellipse cx="166.25" cy="132" fill="#ADD1B2" rx="11" ry="11" style="stroke:#A80036;stroke-width:1.0;"/><path d="M168.5938,127.6719 C167.6563,127.2344 167.0625,127.0938 166.1875,127.0938 C163.5625,127.0938 161.5625,129.1719 161.5625,131.8906 L161.5625,133.0156 C161.5625,135.5938 163.6719,137.4844 166.5625,137.4844 C167.7813,137.4844 168.9375,137.1875 169.6875,136.6406 C170.2656,136.2344 170.5938,135.7813 170.5938,135.3906 C170.5938,134.9375 170.2031,134.5469 169.7344,134.5469 C169.5156,134.5469 169.3125,134.625 169.125,134.8125 C168.6719,135.2969 168.6719,135.2969 168.4844,135.3906 C168.0625,135.6563 167.375,135.7813 166.6094,135.7813 C164.5625,135.7813 163.2656,134.6875 163.2656,132.9844 L163.2656,131.8906 C163.2656,130.1094 164.5156,128.7969 166.25,128.7969 C166.8281,128.7969 167.4375,128.9531 167.9063,129.2031 C168.3906,129.4844 168.5625,129.7031 168.6563,130.1094 C168.7188,130.5156 168.75,130.6406 168.8906,130.7656 C169.0313,130.9063 169.2656,131.0156 169.4844,131.0156 C169.75,131.0156 170.0156,130.875 170.1875,130.6563 C170.2969,130.5 170.3281,130.3125 170.3281,129.8906 L170.3281,128.4688 C170.3281,128.0313 170.3125,127.9063 170.2188,127.75 C170.0625,127.4844 169.7813,127.3438 169.4844,127.3438 C169.1875,127.3438 168.9844,127.4375 168.7656,127.75 L168.5938,127.6719 Z " fill="#000000"/><text fill="#000000" font-family="sans-serif" font-size="12" lengthAdjust="spacing" textLength="154" x="186.75" y="136.1543">RegistarEntregaController</text><line style="stroke:#A80036;stroke-width:1.5;" x1="8" x2="487" y1="148" y2="148"/><line style="stroke:#A80036;stroke-width:1.5;" x1="8" x2="487" y1="156" y2="156"/><text fill="#000000" font-family="sans-serif" font-size="11" lengthAdjust="spacing" textLength="264" x="13" y="170.2104">+getListaVeiculoEntrega(pesoMaximoEntrega)</text><text fill="#000000" font-family="sans-serif" font-size="11" lengthAdjust="spacing" textLength="469" x="13" y="183.0151">+generateGraphScooter(listEnderecosScooter, listEnderecos, est, v, pesoEntrega)</text><text fill="#000000" font-family="sans-serif" font-size="11" lengthAdjust="spacing" textLength="438" x="13" y="195.8198">+getPath(graphScooter, listEnderecos, finalShortPathScooter, endereco, 0, v)</text><!--MD5=[7a561ec8a1cf4ba3fadee4d155dd8051]
class RegistarEntregaUI--><rect codeLine="18" fill="#FEFECE" filter="url(#febu0kibjmy0k)" height="48" id="RegistarEntregaUI" style="stroke:#A80036;stroke-width:1.5;" width="139" x="178" y="7"/><ellipse cx="193" cy="23" fill="#ADD1B2" rx="11" ry="11" style="stroke:#A80036;stroke-width:1.0;"/><path d="M195.3438,18.6719 C194.4063,18.2344 193.8125,18.0938 192.9375,18.0938 C190.3125,18.0938 188.3125,20.1719 188.3125,22.8906 L188.3125,24.0156 C188.3125,26.5938 190.4219,28.4844 193.3125,28.4844 C194.5313,28.4844 195.6875,28.1875 196.4375,27.6406 C197.0156,27.2344 197.3438,26.7813 197.3438,26.3906 C197.3438,25.9375 196.9531,25.5469 196.4844,25.5469 C196.2656,25.5469 196.0625,25.625 195.875,25.8125 C195.4219,26.2969 195.4219,26.2969 195.2344,26.3906 C194.8125,26.6563 194.125,26.7813 193.3594,26.7813 C191.3125,26.7813 190.0156,25.6875 190.0156,23.9844 L190.0156,22.8906 C190.0156,21.1094 191.2656,19.7969 193,19.7969 C193.5781,19.7969 194.1875,19.9531 194.6563,20.2031 C195.1406,20.4844 195.3125,20.7031 195.4063,21.1094 C195.4688,21.5156 195.5,21.6406 195.6406,21.7656 C195.7813,21.9063 196.0156,22.0156 196.2344,22.0156 C196.5,22.0156 196.7656,21.875 196.9375,21.6563 C197.0469,21.5 197.0781,21.3125 197.0781,20.8906 L197.0781,19.4688 C197.0781,19.0313 197.0625,18.9063 196.9688,18.75 C196.8125,18.4844 196.5313,18.3438 196.2344,18.3438 C195.9375,18.3438 195.7344,18.4375 195.5156,18.75 L195.3438,18.6719 Z " fill="#000000"/><text fill="#000000" font-family="sans-serif" font-size="12" lengthAdjust="spacing" textLength="107" x="207" y="27.1543">RegistarEntregaUI</text><line style="stroke:#A80036;stroke-width:1.5;" x1="179" x2="316" y1="39" y2="39"/><line style="stroke:#A80036;stroke-width:1.5;" x1="179" x2="316" y1="47" y2="47"/><!--MD5=[3179f819b5ca0f9c8a1bd58e9144681b]
class Entrega--><rect codeLine="22" fill="#FEFECE" filter="url(#febu0kibjmy0k)" height="99.2188" id="Entrega" style="stroke:#A80036;stroke-width:1.5;" width="133" x="392" y="509"/><ellipse cx="431.75" cy="525" fill="#ADD1B2" rx="11" ry="11" style="stroke:#A80036;stroke-width:1.0;"/><path d="M434.0938,520.6719 C433.1563,520.2344 432.5625,520.0938 431.6875,520.0938 C429.0625,520.0938 427.0625,522.1719 427.0625,524.8906 L427.0625,526.0156 C427.0625,528.5938 429.1719,530.4844 432.0625,530.4844 C433.2813,530.4844 434.4375,530.1875 435.1875,529.6406 C435.7656,529.2344 436.0938,528.7813 436.0938,528.3906 C436.0938,527.9375 435.7031,527.5469 435.2344,527.5469 C435.0156,527.5469 434.8125,527.625 434.625,527.8125 C434.1719,528.2969 434.1719,528.2969 433.9844,528.3906 C433.5625,528.6563 432.875,528.7813 432.1094,528.7813 C430.0625,528.7813 428.7656,527.6875 428.7656,525.9844 L428.7656,524.8906 C428.7656,523.1094 430.0156,521.7969 431.75,521.7969 C432.3281,521.7969 432.9375,521.9531 433.4063,522.2031 C433.8906,522.4844 434.0625,522.7031 434.1563,523.1094 C434.2188,523.5156 434.25,523.6406 434.3906,523.7656 C434.5313,523.9063 434.7656,524.0156 434.9844,524.0156 C435.25,524.0156 435.5156,523.875 435.6875,523.6563 C435.7969,523.5 435.8281,523.3125 435.8281,522.8906 L435.8281,521.4688 C435.8281,521.0313 435.8125,520.9063 435.7188,520.75 C435.5625,520.4844 435.2813,520.3438 434.9844,520.3438 C434.6875,520.3438 434.4844,520.4375 434.2656,520.75 L434.0938,520.6719 Z " fill="#000000"/><text fill="#000000" font-family="sans-serif" font-size="12" lengthAdjust="spacing" textLength="46" x="451.25" y="529.1543">Entrega</text><line style="stroke:#A80036;stroke-width:1.5;" x1="393" x2="524" y1="541" y2="541"/><text fill="#000000" font-family="sans-serif" font-size="11" lengthAdjust="spacing" textLength="103" x="398" y="555.2104">-Integer idEntrega</text><text fill="#000000" font-family="sans-serif" font-size="11" lengthAdjust="spacing" textLength="95" x="398" y="568.0151">-String dataInicio</text><text fill="#000000" font-family="sans-serif" font-size="11" lengthAdjust="spacing" textLength="86" x="398" y="580.8198">-String dataFim</text><text fill="#000000" font-family="sans-serif" font-size="11" lengthAdjust="spacing" textLength="121" x="398" y="593.6245">-Double pesoEntrega</text><line style="stroke:#A80036;stroke-width:1.5;" x1="393" x2="524" y1="600.2188" y2="600.2188"/><!--MD5=[3f1202280bfe3359d2f91fb9b6e32986]
class Estafeta--><rect codeLine="29" fill="#FEFECE" filter="url(#febu0kibjmy0k)" height="124.8281" id="Estafeta" style="stroke:#A80036;stroke-width:1.5;" width="200" x="734.5" y="263"/><ellipse cx="806.25" cy="279" fill="#ADD1B2" rx="11" ry="11" style="stroke:#A80036;stroke-width:1.0;"/><path d="M808.5938,274.6719 C807.6563,274.2344 807.0625,274.0938 806.1875,274.0938 C803.5625,274.0938 801.5625,276.1719 801.5625,278.8906 L801.5625,280.0156 C801.5625,282.5938 803.6719,284.4844 806.5625,284.4844 C807.7813,284.4844 808.9375,284.1875 809.6875,283.6406 C810.2656,283.2344 810.5938,282.7813 810.5938,282.3906 C810.5938,281.9375 810.2031,281.5469 809.7344,281.5469 C809.5156,281.5469 809.3125,281.625 809.125,281.8125 C808.6719,282.2969 808.6719,282.2969 808.4844,282.3906 C808.0625,282.6563 807.375,282.7813 806.6094,282.7813 C804.5625,282.7813 803.2656,281.6875 803.2656,279.9844 L803.2656,278.8906 C803.2656,277.1094 804.5156,275.7969 806.25,275.7969 C806.8281,275.7969 807.4375,275.9531 807.9063,276.2031 C808.3906,276.4844 808.5625,276.7031 808.6563,277.1094 C808.7188,277.5156 808.75,277.6406 808.8906,277.7656 C809.0313,277.9063 809.2656,278.0156 809.4844,278.0156 C809.75,278.0156 810.0156,277.875 810.1875,277.6563 C810.2969,277.5 810.3281,277.3125 810.3281,276.8906 L810.3281,275.4688 C810.3281,275.0313 810.3125,274.9063 810.2188,274.75 C810.0625,274.4844 809.7813,274.3438 809.4844,274.3438 C809.1875,274.3438 808.9844,274.4375 808.7656,274.75 L808.5938,274.6719 Z " fill="#000000"/><text fill="#000000" font-family="sans-serif" font-size="12" lengthAdjust="spacing" textLength="48" x="826.75" y="283.1543">Estafeta</text><line style="stroke:#A80036;stroke-width:1.5;" x1="735.5" x2="933.5" y1="295" y2="295"/><text fill="#000000" font-family="sans-serif" font-size="11" lengthAdjust="spacing" textLength="66" x="740.5" y="309.2104">-Integer NIF</text><text fill="#000000" font-family="sans-serif" font-size="11" lengthAdjust="spacing" textLength="74" x="740.5" y="322.0151">-String nome</text><text fill="#000000" font-family="sans-serif" font-size="11" lengthAdjust="spacing" textLength="73" x="740.5" y="334.8198">-String email</text><text fill="#000000" font-family="sans-serif" font-size="11" lengthAdjust="spacing" textLength="188" x="740.5" y="347.6245">-Integer numeroSegurancaSocial</text><text fill="#000000" font-family="sans-serif" font-size="11" lengthAdjust="spacing" textLength="94" x="740.5" y="360.4292">-String password</text><text fill="#000000" font-family="sans-serif" font-size="11" lengthAdjust="spacing" textLength="124" x="740.5" y="373.2339">-Double pesoEstafeta</text><line style="stroke:#A80036;stroke-width:1.5;" x1="735.5" x2="933.5" y1="379.8281" y2="379.8281"/><!--MD5=[8505c5852735283b5a8424161266bb9f]
class Veiculo--><rect codeLine="39" fill="#FEFECE" filter="url(#febu0kibjmy0k)" height="137.6328" id="Veiculo" style="stroke:#A80036;stroke-width:1.5;" width="179" x="193" y="685"/><ellipse cx="256.25" cy="701" fill="#ADD1B2" rx="11" ry="11" style="stroke:#A80036;stroke-width:1.0;"/><path d="M258.5938,696.6719 C257.6563,696.2344 257.0625,696.0938 256.1875,696.0938 C253.5625,696.0938 251.5625,698.1719 251.5625,700.8906 L251.5625,702.0156 C251.5625,704.5938 253.6719,706.4844 256.5625,706.4844 C257.7813,706.4844 258.9375,706.1875 259.6875,705.6406 C260.2656,705.2344 260.5938,704.7813 260.5938,704.3906 C260.5938,703.9375 260.2031,703.5469 259.7344,703.5469 C259.5156,703.5469 259.3125,703.625 259.125,703.8125 C258.6719,704.2969 258.6719,704.2969 258.4844,704.3906 C258.0625,704.6563 257.375,704.7813 256.6094,704.7813 C254.5625,704.7813 253.2656,703.6875 253.2656,701.9844 L253.2656,700.8906 C253.2656,699.1094 254.5156,697.7969 256.25,697.7969 C256.8281,697.7969 257.4375,697.9531 257.9063,698.2031 C258.3906,698.4844 258.5625,698.7031 258.6563,699.1094 C258.7188,699.5156 258.75,699.6406 258.8906,699.7656 C259.0313,699.9063 259.2656,700.0156 259.4844,700.0156 C259.75,700.0156 260.0156,699.875 260.1875,699.6563 C260.2969,699.5 260.3281,699.3125 260.3281,698.8906 L260.3281,697.4688 C260.3281,697.0313 260.3125,696.9063 260.2188,696.75 C260.0625,696.4844 259.7813,696.3438 259.4844,696.3438 C259.1875,696.3438 258.9844,696.4375 258.7656,696.75 L258.5938,696.6719 Z " fill="#000000"/><text fill="#000000" font-family="sans-serif" font-size="12" lengthAdjust="spacing" textLength="44" x="276.75" y="705.1543">Veiculo</text><line style="stroke:#A80036;stroke-width:1.5;" x1="194" x2="371" y1="717" y2="717"/><text fill="#000000" font-family="sans-serif" font-size="11" lengthAdjust="spacing" textLength="101" x="199" y="731.2104">-Integer idVeiculo</text><text fill="#000000" font-family="sans-serif" font-size="11" lengthAdjust="spacing" textLength="95" x="199" y="744.0151">-String descricao</text><text fill="#000000" font-family="sans-serif" font-size="11" lengthAdjust="spacing" textLength="167" x="199" y="756.8198">-Double percentagemBateria</text><text fill="#000000" font-family="sans-serif" font-size="11" lengthAdjust="spacing" textLength="121" x="199" y="769.6245">-Double pesoMaximo</text><text fill="#000000" font-family="sans-serif" font-size="11" lengthAdjust="spacing" textLength="119" x="199" y="782.4292">-Double pesoVeiculo</text><text fill="#000000" font-family="sans-serif" font-size="11" lengthAdjust="spacing" textLength="98" x="199" y="795.2339">-Double potencia</text><text fill="#000000" font-family="sans-serif" font-size="11" lengthAdjust="spacing" textLength="113" x="199" y="808.0386">-Double areaFrontal</text><line style="stroke:#A80036;stroke-width:1.5;" x1="194" x2="371" y1="814.6328" y2="814.6328"/><!--MD5=[328dae9b2f192140d45e51cd90ecd75a]
link Estafeta to Entrega--><path codeLine="50" d="M734.233,388.1 C667.99,428.798 583.013,481.004 525.016,516.635 " fill="none" id="Estafeta-Entrega" style="stroke:#A80036;stroke-width:1.0;"/><polygon fill="#000000" points="681.2398,451.1837,690.485,448.953,687.4082,443.9448,681.2398,451.1837" style="stroke:#000000;stroke-width:1.0;"/><text fill="#000000" font-family="sans-serif" font-size="13" lengthAdjust="spacing" textLength="42" x="694.5" y="453.0669">realiza</text><text fill="#000000" font-family="sans-serif" font-size="13" lengthAdjust="spacing" textLength="8" x="718.5759" y="389.2245">1</text><text fill="#000000" font-family="sans-serif" font-size="13" lengthAdjust="spacing" textLength="7" x="533.1116" y="507.9891">*</text><!--MD5=[cd2aeefe8c457d184a69396a9f9cb06a]
link Entrega to Veiculo--><path codeLine="51" d="M414.088,608.328 C393.008,631.504 367.465,659.587 344.512,684.822 " fill="none" id="Entrega-Veiculo" style="stroke:#A80036;stroke-width:1.0;"/><polygon fill="#000000" points="394.8643,642.8676,386.6041,647.5813,390.9523,651.5363,394.8643,642.8676" style="stroke:#000000;stroke-width:1.0;"/><text fill="#000000" font-family="sans-serif" font-size="13" lengthAdjust="spacing" textLength="42" x="400.5" y="651.0669">realiza</text><text fill="#000000" font-family="sans-serif" font-size="13" lengthAdjust="spacing" textLength="7" x="400.3504" y="628.4506">*</text><text fill="#000000" font-family="sans-serif" font-size="13" lengthAdjust="spacing" textLength="8" x="342.4945" y="674.0073">1</text><!--MD5=[6355171bb87232b3a58c2e48ef243e25]
link VeiculoDB to Veiculo--><path codeLine="52" d="M194.075,479.153 C209.367,526.511 239.697,620.44 260.533,684.971 " fill="none" id="VeiculoDB-Veiculo" style="stroke:#A80036;stroke-width:1.0;"/><polygon fill="#000000" points="243.0364,563.3245,243.0538,553.814,237.4603,555.6201,243.0364,563.3245" style="stroke:#000000;stroke-width:1.0;"/><text fill="#000000" font-family="sans-serif" font-size="13" lengthAdjust="spacing" textLength="97" x="250.5" y="563.0669">tem registadas</text><text fill="#000000" font-family="sans-serif" font-size="13" lengthAdjust="spacing" textLength="8" x="187.1726" y="498.7636">1</text><text fill="#000000" font-family="sans-serif" font-size="13" lengthAdjust="spacing" textLength="7" x="250.9067" y="674.1716">*</text><!--MD5=[4c7211caded616e3e77a70a7b669ae10]
link EntregaDB to Entrega--><path codeLine="53" d="M458.5,362.594 C458.5,401.93 458.5,465.084 458.5,508.793 " fill="none" id="EntregaDB-Entrega" style="stroke:#A80036;stroke-width:1.0;"/><polygon fill="#000000" points="463.5,453.5664,466.4389,444.5213,460.5611,444.5213,463.5,453.5664" style="stroke:#000000;stroke-width:1.0;"/><text fill="#000000" font-family="sans-serif" font-size="13" lengthAdjust="spacing" textLength="97" x="472.5" y="453.0669">tem registadas</text><text fill="#000000" font-family="sans-serif" font-size="13" lengthAdjust="spacing" textLength="8" x="449.8375" y="382.0901">1</text><text fill="#000000" font-family="sans-serif" font-size="13" lengthAdjust="spacing" textLength="7" x="451.0078" y="497.8091">*</text><!--MD5=[1593fa6ac82b73031c98001dcbb43056]
link RegistarEntregaUI to RegistarEntregaController--><path codeLine="55" d="M247.5,55.11 C247.5,70.631 247.5,91.639 247.5,110.625 " fill="none" id="RegistarEntregaUI-to-RegistarEntregaController" style="stroke:#A80036;stroke-width:1.0;stroke-dasharray:7.0,7.0;"/><polygon fill="#A80036" points="247.5,115.921,251.5,106.921,247.5,110.921,243.5,106.921,247.5,115.921" style="stroke:#A80036;stroke-width:1.0;"/><!--MD5=[e3047c0947376f82d5af689ab4f30ae6]
link RegistarEntregaController to VeiculoDB--><path codeLine="57" d="M224.199,202.387 C215.282,220.532 205.952,242.281 200.5,263 C187.126,313.825 184.308,374.966 184.018,412.528 " fill="none" id="RegistarEntregaController-to-VeiculoDB" style="stroke:#A80036;stroke-width:1.0;stroke-dasharray:7.0,7.0;"/><polygon fill="#A80036" points="183.993,417.895,188.0341,408.9134,184.0159,412.8951,180.0342,408.8768,183.993,417.895" style="stroke:#A80036;stroke-width:1.0;"/><!--MD5=[51c8078cdce16ec2931503df013aa567]
link RegistarEntregaController to EntregaDB--><path codeLine="58" d="M301.564,202.149 C334.283,227.658 375.742,259.98 407.83,284.996 " fill="none" id="RegistarEntregaController-to-EntregaDB" style="stroke:#A80036;stroke-width:1.0;stroke-dasharray:7.0,7.0;"/><polygon fill="#A80036" points="412.093,288.32,407.455,279.6315,408.1499,285.2456,402.5359,285.9404,412.093,288.32" style="stroke:#A80036;stroke-width:1.0;"/><!--MD5=[50b056dbf15db167cbe7cb0968054692]
@startuml
skinparam classAttributeIconSize 0

class VeiculoDB {
  +getListaVeiculoEntrega(pesoMaximoEntrega)
}

class EntregaDB {
  +generateGraphScooter(listEnderecosScooter, listEnderecos, est, v, pesoEntrega)
  +getPath(graphScooter, listEnderecos, finalShortPathScooter, endereco, 0, v)
}

class RegistarEntregaController {
    +getListaVeiculoEntrega(pesoMaximoEntrega)
    +generateGraphScooter(listEnderecosScooter, listEnderecos, est, v, pesoEntrega)
    +getPath(graphScooter, listEnderecos, finalShortPathScooter, endereco, 0, v)
}

class RegistarEntregaUI {
}


class Entrega {
  -Integer idEntrega
  -String dataInicio
  -String dataFim
  -Double pesoEntrega
}

class Estafeta {
  -Integer NIF
  -String nome
  -String email
  -Integer numeroSegurancaSocial
  -String password
  -Double pesoEstafeta
}


class Veiculo {
  -Integer idVeiculo
  -String descricao
  -Double percentagemBateria
  -Double pesoMaximo
  -Double pesoVeiculo
  -Double potencia
  -Double areaFrontal
}


Estafeta "1" - - "*" Entrega: realiza >
Entrega "*" - - "1" Veiculo: realiza <
VeiculoDB "1" - - "*" Veiculo: tem registadas >
EntregaDB "1" - - "*" Entrega: tem registadas >

RegistarEntregaUI ..> RegistarEntregaController 

RegistarEntregaController ..> VeiculoDB
RegistarEntregaController ..> EntregaDB
@enduml

PlantUML version 1.2021.01beta3(Unknown compile time)
(GPL source distribution)
Java Runtime: Java(TM) SE Runtime Environment
JVM: Java HotSpot(TM) 64-Bit Server VM
Default Encoding: UTF-8
Language: en
Country: US
--></g></svg>