<?xml version="1.0" encoding="UTF-8" standalone="no"?><svg xmlns="http://www.w3.org/2000/svg" xmlns:xlink="http://www.w3.org/1999/xlink" contentScriptType="application/ecmascript" contentStyleType="text/css" height="397px" preserveAspectRatio="none" style="width:726px;height:397px;" version="1.1" viewBox="0 0 726 397" width="726px" zoomAndPan="magnify"><defs><filter height="300%" id="f1pcpih40p1gib" width="300%" x="-1" y="-1"><feGaussianBlur result="blurOut" stdDeviation="2.0"/><feColorMatrix in="blurOut" result="blurOut2" type="matrix" values="0 0 0 0 0 0 0 0 0 0 0 0 0 0 0 0 0 0 .4 0"/><feOffset dx="4.0" dy="4.0" in="blurOut2" result="blurOut3"/><feBlend in="SourceGraphic" in2="blurOut3" mode="normal"/></filter></defs><g><rect fill="#FFFFFF" filter="url(#f1pcpih40p1gib)" height="196.7969" style="stroke:#A80036;stroke-width:1.0;" width="10" x="54" y="98.2969"/><rect fill="#FFFFFF" filter="url(#f1pcpih40p1gib)" height="29.1328" style="stroke:#A80036;stroke-width:1.0;" width="10" x="333" y="119.4297"/><rect fill="#FFFFFF" filter="url(#f1pcpih40p1gib)" height="117.3984" style="stroke:#A80036;stroke-width:1.0;" width="10" x="333" y="177.6953"/><rect fill="#FFFFFF" filter="url(#f1pcpih40p1gib)" height="59.1328" style="stroke:#A80036;stroke-width:1.0;" width="10" x="489" y="206.8281"/><rect fill="#FFFFFF" filter="url(#f1pcpih40p1gib)" height="30" style="stroke:#A80036;stroke-width:1.0;" width="10" x="649" y="235.9609"/><line style="stroke:#A80036;stroke-width:1.0;stroke-dasharray:5.0,5.0;" x1="59" x2="59" y1="88.2969" y2="313.0938"/><line style="stroke:#A80036;stroke-width:1.0;stroke-dasharray:5.0,5.0;" x1="338" x2="338" y1="88.2969" y2="313.0938"/><line style="stroke:#A80036;stroke-width:1.0;stroke-dasharray:5.0,5.0;" x1="494" x2="494" y1="88.2969" y2="313.0938"/><line style="stroke:#A80036;stroke-width:1.0;stroke-dasharray:5.0,5.0;" x1="654" x2="654" y1="88.2969" y2="313.0938"/><text fill="#000000" font-family="sans-serif" font-size="14" lengthAdjust="spacing" textLength="102" x="5" y="84.9951">Administrador</text><ellipse cx="59" cy="15" fill="#FEFECE" filter="url(#f1pcpih40p1gib)" rx="8" ry="8" style="stroke:#A80036;stroke-width:2.0;"/><path d="M59,23 L59,50 M46,31 L72,31 M59,50 L46,65 M59,50 L72,65 " fill="none" filter="url(#f1pcpih40p1gib)" style="stroke:#A80036;stroke-width:2.0;"/><text fill="#000000" font-family="sans-serif" font-size="14" lengthAdjust="spacing" textLength="102" x="5" y="325.0889">Administrador</text><ellipse cx="59" cy="338.3906" fill="#FEFECE" filter="url(#f1pcpih40p1gib)" rx="8" ry="8" style="stroke:#A80036;stroke-width:2.0;"/><path d="M59,346.3906 L59,373.3906 M46,354.3906 L72,354.3906 M59,373.3906 L46,388.3906 M59,373.3906 L72,388.3906 " fill="none" filter="url(#f1pcpih40p1gib)" style="stroke:#A80036;stroke-width:2.0;"/><rect fill="#FEFECE" filter="url(#f1pcpih40p1gib)" height="30.2969" style="stroke:#A80036;stroke-width:1.5;" width="112" x="280" y="53"/><text fill="#000000" font-family="sans-serif" font-size="14" lengthAdjust="spacing" textLength="98" x="287" y="72.9951">:LerFicheiroUI</text><rect fill="#FEFECE" filter="url(#f1pcpih40p1gib)" height="30.2969" style="stroke:#A80036;stroke-width:1.5;" width="112" x="280" y="312.0938"/><text fill="#000000" font-family="sans-serif" font-size="14" lengthAdjust="spacing" textLength="98" x="287" y="332.0889">:LerFicheiroUI</text><rect fill="#FEFECE" filter="url(#f1pcpih40p1gib)" height="30.2969" style="stroke:#A80036;stroke-width:1.5;" width="172" x="406" y="53"/><text fill="#000000" font-family="sans-serif" font-size="14" lengthAdjust="spacing" textLength="158" x="413" y="72.9951">:LerFicheiroController</text><rect fill="#FEFECE" filter="url(#f1pcpih40p1gib)" height="30.2969" style="stroke:#A80036;stroke-width:1.5;" width="172" x="406" y="312.0938"/><text fill="#000000" font-family="sans-serif" font-size="14" lengthAdjust="spacing" textLength="158" x="413" y="332.0889">:LerFicheiroController</text><rect fill="#FEFECE" filter="url(#f1pcpih40p1gib)" height="30.2969" style="stroke:#A80036;stroke-width:1.5;" width="120" x="592" y="53"/><text fill="#000000" font-family="sans-serif" font-size="14" lengthAdjust="spacing" textLength="106" x="599" y="72.9951">:LerFicheiroDB</text><rect fill="#FEFECE" filter="url(#f1pcpih40p1gib)" height="30.2969" style="stroke:#A80036;stroke-width:1.5;" width="120" x="592" y="312.0938"/><text fill="#000000" font-family="sans-serif" font-size="14" lengthAdjust="spacing" textLength="106" x="599" y="332.0889">:LerFicheiroDB</text><rect fill="#FFFFFF" filter="url(#f1pcpih40p1gib)" height="196.7969" style="stroke:#A80036;stroke-width:1.0;" width="10" x="54" y="98.2969"/><rect fill="#FFFFFF" filter="url(#f1pcpih40p1gib)" height="29.1328" style="stroke:#A80036;stroke-width:1.0;" width="10" x="333" y="119.4297"/><rect fill="#FFFFFF" filter="url(#f1pcpih40p1gib)" height="117.3984" style="stroke:#A80036;stroke-width:1.0;" width="10" x="333" y="177.6953"/><rect fill="#FFFFFF" filter="url(#f1pcpih40p1gib)" height="59.1328" style="stroke:#A80036;stroke-width:1.0;" width="10" x="489" y="206.8281"/><rect fill="#FFFFFF" filter="url(#f1pcpih40p1gib)" height="30" style="stroke:#A80036;stroke-width:1.0;" width="10" x="649" y="235.9609"/><polygon fill="#A80036" points="321,115.4297,331,119.4297,321,123.4297,325,119.4297" style="stroke:#A80036;stroke-width:1.0;"/><line style="stroke:#A80036;stroke-width:1.0;" x1="64" x2="327" y1="119.4297" y2="119.4297"/><text fill="#000000" font-family="sans-serif" font-size="13" font-weight="bold" lengthAdjust="spacing" textLength="9" x="71" y="114.3638">1</text><text fill="#000000" font-family="sans-serif" font-size="13" lengthAdjust="spacing" textLength="222" x="84" y="114.3638">inicia a leitura do ficheiro de dados</text><polygon fill="#A80036" points="75,144.5625,65,148.5625,75,152.5625,71,148.5625" style="stroke:#A80036;stroke-width:1.0;"/><line style="stroke:#A80036;stroke-width:1.0;stroke-dasharray:2.0,2.0;" x1="69" x2="337" y1="148.5625" y2="148.5625"/><text fill="#000000" font-family="sans-serif" font-size="13" font-weight="bold" lengthAdjust="spacing" textLength="9" x="81" y="143.4966">2</text><text fill="#000000" font-family="sans-serif" font-size="13" lengthAdjust="spacing" textLength="232" x="94" y="143.4966">solicita o nome do ficheiro de leitura</text><polygon fill="#A80036" points="321,173.6953,331,177.6953,321,181.6953,325,177.6953" style="stroke:#A80036;stroke-width:1.0;"/><line style="stroke:#A80036;stroke-width:1.0;" x1="64" x2="327" y1="177.6953" y2="177.6953"/><text fill="#000000" font-family="sans-serif" font-size="13" font-weight="bold" lengthAdjust="spacing" textLength="8" x="71" y="172.6294">3</text><text fill="#000000" font-family="sans-serif" font-size="13" lengthAdjust="spacing" textLength="185" x="83" y="172.6294">introduz os dados solicitados</text><polygon fill="#A80036" points="477,202.8281,487,206.8281,477,210.8281,481,206.8281" style="stroke:#A80036;stroke-width:1.0;"/><line style="stroke:#A80036;stroke-width:1.0;" x1="343" x2="483" y1="206.8281" y2="206.8281"/><text fill="#000000" font-family="sans-serif" font-size="13" font-weight="bold" lengthAdjust="spacing" textLength="9" x="350" y="201.7622">4</text><text fill="#000000" font-family="sans-serif" font-size="13" lengthAdjust="spacing" textLength="94" x="363" y="201.7622">lerFicheiro(file)</text><polygon fill="#A80036" points="637,231.9609,647,235.9609,637,239.9609,641,235.9609" style="stroke:#A80036;stroke-width:1.0;"/><line style="stroke:#A80036;stroke-width:1.0;" x1="499" x2="643" y1="235.9609" y2="235.9609"/><text fill="#000000" font-family="sans-serif" font-size="13" font-weight="bold" lengthAdjust="spacing" textLength="9" x="506" y="230.895">5</text><text fill="#000000" font-family="sans-serif" font-size="13" lengthAdjust="spacing" textLength="94" x="519" y="230.895">lerFicheiro(file)</text><polygon fill="#A80036" points="70,291.0938,60,295.0938,70,299.0938,66,295.0938" style="stroke:#A80036;stroke-width:1.0;"/><line style="stroke:#A80036;stroke-width:1.0;stroke-dasharray:2.0,2.0;" x1="64" x2="337" y1="295.0938" y2="295.0938"/><text fill="#000000" font-family="sans-serif" font-size="13" font-weight="bold" lengthAdjust="spacing" textLength="9" x="76" y="290.0278">6</text><text fill="#000000" font-family="sans-serif" font-size="13" lengthAdjust="spacing" textLength="154" x="89" y="290.0278">operação bem sucedida</text><!--MD5=[3625fe49fc8bc3ae590331268f34559f]
@startuml
autonumber
actor "Administrador" as ADM
participant ":LerFicheiroUI" as UI
participant ":LerFicheiroController" as CTRL
participant ":LerFicheiroDB" as DB

activate ADM
ADM -> UI : inicia a leitura do ficheiro de dados
activate UI
UI - -> ADM : solicita o nome do ficheiro de leitura
deactivate UI

ADM -> UI : introduz os dados solicitados
activate UI

UI -> CTRL : lerFicheiro(file)
activate CTRL
CTRL -> DB: lerFicheiro(file)
activate DB
deactivate DB
deactivate CTRL
deactivate CTRL

UI - -> ADM : operação bem sucedida
deactivate UI
deactivate ADM
@enduml

PlantUML version 1.2021.01beta3(Unknown compile time)
(GPL source distribution)
Java Runtime: Java(TM) SE Runtime Environment
JVM: Java HotSpot(TM) 64-Bit Server VM
Default Encoding: UTF-8
Language: en
Country: US
--></g></svg>