<?xml version="1.0" encoding="UTF-8" standalone="no"?><svg xmlns="http://www.w3.org/2000/svg" xmlns:xlink="http://www.w3.org/1999/xlink" contentScriptType="application/ecmascript" contentStyleType="text/css" height="339px" preserveAspectRatio="none" style="width:862px;height:339px;" version="1.1" viewBox="0 0 862 339" width="862px" zoomAndPan="magnify"><defs><filter height="300%" id="f1wp31xzy3g9w9" width="300%" x="-1" y="-1"><feGaussianBlur result="blurOut" stdDeviation="2.0"/><feColorMatrix in="blurOut" result="blurOut2" type="matrix" values="0 0 0 0 0 0 0 0 0 0 0 0 0 0 0 0 0 0 .4 0"/><feOffset dx="4.0" dy="4.0" in="blurOut2" result="blurOut3"/><feBlend in="SourceGraphic" in2="blurOut3" mode="normal"/></filter></defs><g><rect fill="#FFFFFF" filter="url(#f1wp31xzy3g9w9)" height="138.5313" style="stroke:#A80036;stroke-width:1.0;" width="10" x="29" y="98.2969"/><rect fill="#FFFFFF" filter="url(#f1wp31xzy3g9w9)" height="117.3984" style="stroke:#A80036;stroke-width:1.0;" width="10" x="272" y="119.4297"/><rect fill="#FFFFFF" filter="url(#f1wp31xzy3g9w9)" height="59.1328" style="stroke:#A80036;stroke-width:1.0;" width="10" x="533" y="148.5625"/><rect fill="#FFFFFF" filter="url(#f1wp31xzy3g9w9)" height="30" style="stroke:#A80036;stroke-width:1.0;" width="10" x="793" y="177.6953"/><line style="stroke:#A80036;stroke-width:1.0;stroke-dasharray:5.0,5.0;" x1="34" x2="34" y1="88.2969" y2="254.8281"/><line style="stroke:#A80036;stroke-width:1.0;stroke-dasharray:5.0,5.0;" x1="276.5" x2="276.5" y1="88.2969" y2="254.8281"/><line style="stroke:#A80036;stroke-width:1.0;stroke-dasharray:5.0,5.0;" x1="537.5" x2="537.5" y1="88.2969" y2="254.8281"/><line style="stroke:#A80036;stroke-width:1.0;stroke-dasharray:5.0,5.0;" x1="798" x2="798" y1="88.2969" y2="254.8281"/><text fill="#000000" font-family="sans-serif" font-size="14" lengthAdjust="spacing" textLength="52" x="5" y="84.9951">Cliente</text><ellipse cx="34" cy="15" fill="#FEFECE" filter="url(#f1wp31xzy3g9w9)" rx="8" ry="8" style="stroke:#A80036;stroke-width:2.0;"/><path d="M34,23 L34,50 M21,31 L47,31 M34,50 L21,65 M34,50 L47,65 " fill="none" filter="url(#f1wp31xzy3g9w9)" style="stroke:#A80036;stroke-width:2.0;"/><text fill="#000000" font-family="sans-serif" font-size="14" lengthAdjust="spacing" textLength="52" x="5" y="266.8232">Cliente</text><ellipse cx="34" cy="280.125" fill="#FEFECE" filter="url(#f1wp31xzy3g9w9)" rx="8" ry="8" style="stroke:#A80036;stroke-width:2.0;"/><path d="M34,288.125 L34,315.125 M21,296.125 L47,296.125 M34,315.125 L21,330.125 M34,315.125 L47,330.125 " fill="none" filter="url(#f1wp31xzy3g9w9)" style="stroke:#A80036;stroke-width:2.0;"/><rect fill="#FEFECE" filter="url(#f1wp31xzy3g9w9)" height="30.2969" style="stroke:#A80036;stroke-width:1.5;" width="173" x="188.5" y="53"/><text fill="#000000" font-family="sans-serif" font-size="14" lengthAdjust="spacing" textLength="159" x="195.5" y="72.9951">:RealizarEncomendaUI</text><rect fill="#FEFECE" filter="url(#f1wp31xzy3g9w9)" height="30.2969" style="stroke:#A80036;stroke-width:1.5;" width="173" x="188.5" y="253.8281"/><text fill="#000000" font-family="sans-serif" font-size="14" lengthAdjust="spacing" textLength="159" x="195.5" y="273.8232">:RealizarEncomendaUI</text><rect fill="#FEFECE" filter="url(#f1wp31xzy3g9w9)" height="30.2969" style="stroke:#A80036;stroke-width:1.5;" width="227" x="422.5" y="53"/><text fill="#000000" font-family="sans-serif" font-size="14" lengthAdjust="spacing" textLength="213" x="429.5" y="72.9951">:PedirItemFarmaciaController</text><rect fill="#FEFECE" filter="url(#f1wp31xzy3g9w9)" height="30.2969" style="stroke:#A80036;stroke-width:1.5;" width="227" x="422.5" y="253.8281"/><text fill="#000000" font-family="sans-serif" font-size="14" lengthAdjust="spacing" textLength="213" x="429.5" y="273.8232">:PedirItemFarmaciaController</text><rect fill="#FEFECE" filter="url(#f1wp31xzy3g9w9)" height="30.2969" style="stroke:#A80036;stroke-width:1.5;" width="104" x="744" y="53"/><text fill="#000000" font-family="sans-serif" font-size="14" lengthAdjust="spacing" textLength="90" x="751" y="72.9951">:FarmaciaDB</text><rect fill="#FEFECE" filter="url(#f1wp31xzy3g9w9)" height="30.2969" style="stroke:#A80036;stroke-width:1.5;" width="104" x="744" y="253.8281"/><text fill="#000000" font-family="sans-serif" font-size="14" lengthAdjust="spacing" textLength="90" x="751" y="273.8232">:FarmaciaDB</text><rect fill="#FFFFFF" filter="url(#f1wp31xzy3g9w9)" height="138.5313" style="stroke:#A80036;stroke-width:1.0;" width="10" x="29" y="98.2969"/><rect fill="#FFFFFF" filter="url(#f1wp31xzy3g9w9)" height="117.3984" style="stroke:#A80036;stroke-width:1.0;" width="10" x="272" y="119.4297"/><rect fill="#FFFFFF" filter="url(#f1wp31xzy3g9w9)" height="59.1328" style="stroke:#A80036;stroke-width:1.0;" width="10" x="533" y="148.5625"/><rect fill="#FFFFFF" filter="url(#f1wp31xzy3g9w9)" height="30" style="stroke:#A80036;stroke-width:1.0;" width="10" x="793" y="177.6953"/><polygon fill="#A80036" points="260,115.4297,270,119.4297,260,123.4297,264,119.4297" style="stroke:#A80036;stroke-width:1.0;"/><line style="stroke:#A80036;stroke-width:1.0;" x1="39" x2="266" y1="119.4297" y2="119.4297"/><text fill="#000000" font-family="sans-serif" font-size="13" font-weight="bold" lengthAdjust="spacing" textLength="9" x="46" y="114.3638">1</text><text fill="#000000" font-family="sans-serif" font-size="13" lengthAdjust="spacing" textLength="201" x="59" y="114.3638">pretende realizar a encomenda</text><polygon fill="#A80036" points="521,144.5625,531,148.5625,521,152.5625,525,148.5625" style="stroke:#A80036;stroke-width:1.0;"/><line style="stroke:#A80036;stroke-width:1.0;" x1="282" x2="527" y1="148.5625" y2="148.5625"/><text fill="#000000" font-family="sans-serif" font-size="13" font-weight="bold" lengthAdjust="spacing" textLength="9" x="289" y="143.4966">2</text><text fill="#000000" font-family="sans-serif" font-size="13" lengthAdjust="spacing" textLength="219" x="302" y="143.4966">getFarmaciaProximaByCliente(nif)</text><polygon fill="#A80036" points="781,173.6953,791,177.6953,781,181.6953,785,177.6953" style="stroke:#A80036;stroke-width:1.0;"/><line style="stroke:#A80036;stroke-width:1.0;" x1="543" x2="787" y1="177.6953" y2="177.6953"/><text fill="#000000" font-family="sans-serif" font-size="13" font-weight="bold" lengthAdjust="spacing" textLength="8" x="550" y="172.6294">3</text><text fill="#000000" font-family="sans-serif" font-size="13" lengthAdjust="spacing" textLength="219" x="562" y="172.6294">getFarmaciaProximaByCliente(nif)</text><polygon fill="#A80036" points="45,232.8281,35,236.8281,45,240.8281,41,236.8281" style="stroke:#A80036;stroke-width:1.0;"/><line style="stroke:#A80036;stroke-width:1.0;stroke-dasharray:2.0,2.0;" x1="39" x2="276" y1="236.8281" y2="236.8281"/><text fill="#000000" font-family="sans-serif" font-size="13" font-weight="bold" lengthAdjust="spacing" textLength="9" x="51" y="231.7622">4</text><text fill="#000000" font-family="sans-serif" font-size="13" lengthAdjust="spacing" textLength="154" x="64" y="231.7622">operação bem sucedida</text><!--MD5=[cbe1720e8088f07c3f616b7c5a06a7d9]
@startuml
autonumber

actor "Cliente" as CLI
participant ":RealizarEncomendaUI" as UI
participant ":PedirItemFarmaciaController" as CTL
participant ":FarmaciaDB" as FDB

activate CLI
CLI -> UI : pretende realizar a encomenda
activate UI
UI -> CTL : getFarmaciaProximaByCliente(nif)
activate CTL

CTL -> FDB : getFarmaciaProximaByCliente(nif)
activate FDB

deactivate FDB

deactivate CTL

UI - -> CLI : operação bem sucedida
deactivate UI

deactivate CLI
@enduml

PlantUML version 1.2021.01beta3(Unknown compile time)
(GPL source distribution)
Java Runtime: Java(TM) SE Runtime Environment
JVM: Java HotSpot(TM) 64-Bit Server VM
Default Encoding: UTF-8
Language: en
Country: US
--></g></svg>