<?xml version="1.0" encoding="UTF-8" standalone="no"?><svg xmlns="http://www.w3.org/2000/svg" xmlns:xlink="http://www.w3.org/1999/xlink" contentScriptType="application/ecmascript" contentStyleType="text/css" height="250px" preserveAspectRatio="none" style="width:336px;height:250px;" version="1.1" viewBox="0 0 336 250" width="336px" zoomAndPan="magnify"><defs><filter height="300%" id="f8n2nxae3gi1l" width="300%" x="-1" y="-1"><feGaussianBlur result="blurOut" stdDeviation="2.0"/><feColorMatrix in="blurOut" result="blurOut2" type="matrix" values="0 0 0 0 0 0 0 0 0 0 0 0 0 0 0 0 0 0 .4 0"/><feOffset dx="4.0" dy="4.0" in="blurOut2" result="blurOut3"/><feBlend in="SourceGraphic" in2="blurOut3" mode="normal"/></filter></defs><g><rect fill="#FFFFFF" filter="url(#f8n2nxae3gi1l)" height="50.2656" style="stroke:#A80036;stroke-width:1.0;" width="10" x="37" y="98.2969"/><rect fill="#FFFFFF" filter="url(#f8n2nxae3gi1l)" height="29.1328" style="stroke:#A80036;stroke-width:1.0;" width="10" x="281" y="119.4297"/><line style="stroke:#A80036;stroke-width:1.0;stroke-dasharray:5.0,5.0;" x1="42" x2="42" y1="88.2969" y2="166.5625"/><line style="stroke:#A80036;stroke-width:1.0;stroke-dasharray:5.0,5.0;" x1="285.5" x2="285.5" y1="88.2969" y2="166.5625"/><text fill="#000000" font-family="sans-serif" font-size="14" lengthAdjust="spacing" textLength="68" x="5" y="84.9951">Utilizador</text><ellipse cx="42" cy="15" fill="#FEFECE" filter="url(#f8n2nxae3gi1l)" rx="8" ry="8" style="stroke:#A80036;stroke-width:2.0;"/><path d="M42,23 L42,50 M29,31 L55,31 M42,50 L29,65 M42,50 L55,65 " fill="none" filter="url(#f8n2nxae3gi1l)" style="stroke:#A80036;stroke-width:2.0;"/><text fill="#000000" font-family="sans-serif" font-size="14" lengthAdjust="spacing" textLength="68" x="5" y="178.5576">Utilizador</text><ellipse cx="42" cy="191.8594" fill="#FEFECE" filter="url(#f8n2nxae3gi1l)" rx="8" ry="8" style="stroke:#A80036;stroke-width:2.0;"/><path d="M42,199.8594 L42,226.8594 M29,207.8594 L55,207.8594 M42,226.8594 L29,241.8594 M42,226.8594 L55,241.8594 " fill="none" filter="url(#f8n2nxae3gi1l)" style="stroke:#A80036;stroke-width:2.0;"/><rect fill="#FEFECE" filter="url(#f8n2nxae3gi1l)" height="30.2969" style="stroke:#A80036;stroke-width:1.5;" width="77" x="245.5" y="53"/><text fill="#000000" font-family="sans-serif" font-size="14" lengthAdjust="spacing" textLength="63" x="252.5" y="72.9951">:Sistema</text><rect fill="#FEFECE" filter="url(#f8n2nxae3gi1l)" height="30.2969" style="stroke:#A80036;stroke-width:1.5;" width="77" x="245.5" y="165.5625"/><text fill="#000000" font-family="sans-serif" font-size="14" lengthAdjust="spacing" textLength="63" x="252.5" y="185.5576">:Sistema</text><rect fill="#FFFFFF" filter="url(#f8n2nxae3gi1l)" height="50.2656" style="stroke:#A80036;stroke-width:1.0;" width="10" x="37" y="98.2969"/><rect fill="#FFFFFF" filter="url(#f8n2nxae3gi1l)" height="29.1328" style="stroke:#A80036;stroke-width:1.0;" width="10" x="281" y="119.4297"/><polygon fill="#A80036" points="269,115.4297,279,119.4297,269,123.4297,273,119.4297" style="stroke:#A80036;stroke-width:1.0;"/><line style="stroke:#A80036;stroke-width:1.0;" x1="47" x2="275" y1="119.4297" y2="119.4297"/><text fill="#000000" font-family="sans-serif" font-size="13" font-weight="bold" lengthAdjust="spacing" textLength="9" x="54" y="114.3638">1</text><text fill="#000000" font-family="sans-serif" font-size="13" lengthAdjust="spacing" textLength="108" x="67" y="114.3638">inicia a aplicação</text><polygon fill="#A80036" points="53,144.5625,43,148.5625,53,152.5625,49,148.5625" style="stroke:#A80036;stroke-width:1.0;"/><line style="stroke:#A80036;stroke-width:1.0;stroke-dasharray:2.0,2.0;" x1="47" x2="285" y1="148.5625" y2="148.5625"/><text fill="#000000" font-family="sans-serif" font-size="13" font-weight="bold" lengthAdjust="spacing" textLength="9" x="59" y="143.4966">2</text><text fill="#000000" font-family="sans-serif" font-size="13" lengthAdjust="spacing" textLength="197" x="72" y="143.4966">leitura de dados bem sucedida</text><!--MD5=[243f62435269b63f4af59960048f0af2]
@startuml
autonumber
actor "Utilizador" as UTIL

activate UTIL
UTIL -> ":Sistema" : inicia a aplicação
activate ":Sistema"
":Sistema" - -> UTIL: leitura de dados bem sucedida
deactivate ":Sistema"
deactivate UTIL
@enduml

PlantUML version 1.2021.01beta7(Unknown compile time)
(GPL source distribution)
Java Runtime: Java(TM) SE Runtime Environment
JVM: Java HotSpot(TM) 64-Bit Server VM
Default Encoding: UTF-8
Language: en
Country: US
--></g></svg>