<?xml version="1.0" encoding="UTF-8" standalone="no"?><svg xmlns="http://www.w3.org/2000/svg" xmlns:xlink="http://www.w3.org/1999/xlink" contentScriptType="application/ecmascript" contentStyleType="text/css" height="265px" preserveAspectRatio="none" style="width:481px;height:265px;" version="1.1" viewBox="0 0 481 265" width="481px" zoomAndPan="magnify"><defs><filter height="300%" id="f10d5tnwzzwzt9" width="300%" x="-1" y="-1"><feGaussianBlur result="blurOut" stdDeviation="2.0"/><feColorMatrix in="blurOut" result="blurOut2" type="matrix" values="0 0 0 0 0 0 0 0 0 0 0 0 0 0 0 0 0 0 .4 0"/><feOffset dx="4.0" dy="4.0" in="blurOut2" result="blurOut3"/><feBlend in="SourceGraphic" in2="blurOut3" mode="normal"/></filter></defs><g><rect fill="#FFFFFF" filter="url(#f10d5tnwzzwzt9)" height="65.3984" style="stroke:#A80036;stroke-width:1.0;" width="10" x="29" y="98.2969"/><rect fill="#FFFFFF" filter="url(#f10d5tnwzzwzt9)" height="44.2656" style="stroke:#A80036;stroke-width:1.0;" width="10" x="426" y="119.4297"/><line style="stroke:#A80036;stroke-width:1.0;stroke-dasharray:5.0,5.0;" x1="34" x2="34" y1="88.2969" y2="181.6953"/><line style="stroke:#A80036;stroke-width:1.0;stroke-dasharray:5.0,5.0;" x1="430.5" x2="430.5" y1="88.2969" y2="181.6953"/><text fill="#000000" font-family="sans-serif" font-size="14" lengthAdjust="spacing" textLength="52" x="5" y="84.9951">Cliente</text><ellipse cx="34" cy="15" fill="#FEFECE" filter="url(#f10d5tnwzzwzt9)" rx="8" ry="8" style="stroke:#A80036;stroke-width:2.0;"/><path d="M34,23 L34,50 M21,31 L47,31 M34,50 L21,65 M34,50 L47,65 " fill="none" filter="url(#f10d5tnwzzwzt9)" style="stroke:#A80036;stroke-width:2.0;"/><text fill="#000000" font-family="sans-serif" font-size="14" lengthAdjust="spacing" textLength="52" x="5" y="193.6904">Cliente</text><ellipse cx="34" cy="206.9922" fill="#FEFECE" filter="url(#f10d5tnwzzwzt9)" rx="8" ry="8" style="stroke:#A80036;stroke-width:2.0;"/><path d="M34,214.9922 L34,241.9922 M21,222.9922 L47,222.9922 M34,241.9922 L21,256.9922 M34,241.9922 L47,256.9922 " fill="none" filter="url(#f10d5tnwzzwzt9)" style="stroke:#A80036;stroke-width:2.0;"/><rect fill="#FEFECE" filter="url(#f10d5tnwzzwzt9)" height="30.2969" style="stroke:#A80036;stroke-width:1.5;" width="77" x="390.5" y="53"/><text fill="#000000" font-family="sans-serif" font-size="14" lengthAdjust="spacing" textLength="63" x="397.5" y="72.9951">:Sistema</text><rect fill="#FEFECE" filter="url(#f10d5tnwzzwzt9)" height="30.2969" style="stroke:#A80036;stroke-width:1.5;" width="77" x="390.5" y="180.6953"/><text fill="#000000" font-family="sans-serif" font-size="14" lengthAdjust="spacing" textLength="63" x="397.5" y="200.6904">:Sistema</text><rect fill="#FFFFFF" filter="url(#f10d5tnwzzwzt9)" height="65.3984" style="stroke:#A80036;stroke-width:1.0;" width="10" x="29" y="98.2969"/><rect fill="#FFFFFF" filter="url(#f10d5tnwzzwzt9)" height="44.2656" style="stroke:#A80036;stroke-width:1.0;" width="10" x="426" y="119.4297"/><polygon fill="#A80036" points="414,115.4297,424,119.4297,414,123.4297,418,119.4297" style="stroke:#A80036;stroke-width:1.0;"/><line style="stroke:#A80036;stroke-width:1.0;" x1="39" x2="420" y1="119.4297" y2="119.4297"/><text fill="#000000" font-family="sans-serif" font-size="13" font-weight="bold" lengthAdjust="spacing" textLength="9" x="46" y="114.3638">1</text><text fill="#000000" font-family="sans-serif" font-size="13" lengthAdjust="spacing" textLength="201" x="59" y="114.3638">Pretende realizar a encomenda</text><polygon fill="#A80036" points="45,159.6953,35,163.6953,45,167.6953,41,163.6953" style="stroke:#A80036;stroke-width:1.0;"/><line style="stroke:#A80036;stroke-width:1.0;stroke-dasharray:2.0,2.0;" x1="39" x2="430" y1="163.6953" y2="163.6953"/><text fill="#000000" font-family="sans-serif" font-size="13" font-weight="bold" lengthAdjust="spacing" textLength="9" x="51" y="151.063">2</text><text fill="#000000" font-family="sans-serif" font-size="13" lengthAdjust="spacing" textLength="346" x="64" y="143.4966">seleciona a farmacia mais perto da morada do cliente</text><text fill="#000000" font-family="sans-serif" font-size="13" lengthAdjust="spacing" textLength="304" x="68" y="158.6294">e continua o processo de realizar a encomenda</text><!--MD5=[2abaf125747eadc4677bb902401b9f37]
@startuml
autonumber
actor "Cliente" as UNR

activate UNR
UNR -> ":Sistema" : Pretende realizar a encomenda
activate ":Sistema"

":Sistema" - -> UNR : seleciona a farmacia mais perto da morada do cliente \n e continua o processo de realizar a encomenda
deactivate ":Sistema"

deactivate UNR
@enduml

PlantUML version 1.2021.01beta3(Unknown compile time)
(GPL source distribution)
Java Runtime: Java(TM) SE Runtime Environment
JVM: Java HotSpot(TM) 64-Bit Server VM
Default Encoding: UTF-8
Language: en
Country: US
--></g></svg>