<?xml version="1.0" encoding="UTF-8" standalone="no"?><svg xmlns="http://www.w3.org/2000/svg" xmlns:xlink="http://www.w3.org/1999/xlink" contentScriptType="application/ecmascript" contentStyleType="text/css" height="393px" preserveAspectRatio="none" style="width:1082px;height:393px;" version="1.1" viewBox="0 0 1082 393" width="1082px" zoomAndPan="magnify"><defs><filter height="300%" id="f1myjt0qplus35" width="300%" x="-1" y="-1"><feGaussianBlur result="blurOut" stdDeviation="2.0"/><feColorMatrix in="blurOut" result="blurOut2" type="matrix" values="0 0 0 0 0 0 0 0 0 0 0 0 0 0 0 0 0 0 .4 0"/><feOffset dx="4.0" dy="4.0" in="blurOut2" result="blurOut3"/><feBlend in="SourceGraphic" in2="blurOut3" mode="normal"/></filter></defs><g><rect fill="#FFFFFF" filter="url(#f1myjt0qplus35)" height="192.7969" style="stroke:#A80036;stroke-width:1.0;" width="10" x="33.5" y="98.2969"/><rect fill="#FFFFFF" filter="url(#f1myjt0qplus35)" height="171.6641" style="stroke:#A80036;stroke-width:1.0;" width="10" x="464.5" y="119.4297"/><rect fill="#FFFFFF" filter="url(#f1myjt0qplus35)" height="106.3984" style="stroke:#A80036;stroke-width:1.0;" width="10" x="672.5" y="148.5625"/><rect fill="#FFFFFF" filter="url(#f1myjt0qplus35)" height="77.2656" style="stroke:#A80036;stroke-width:1.0;" width="10" x="879.5" y="177.6953"/><line style="stroke:#A80036;stroke-width:1.0;stroke-dasharray:5.0,5.0;" x1="38" x2="38" y1="88.2969" y2="309.0938"/><line style="stroke:#A80036;stroke-width:1.0;stroke-dasharray:5.0,5.0;" x1="469" x2="469" y1="88.2969" y2="309.0938"/><line style="stroke:#A80036;stroke-width:1.0;stroke-dasharray:5.0,5.0;" x1="677" x2="677" y1="88.2969" y2="309.0938"/><line style="stroke:#A80036;stroke-width:1.0;stroke-dasharray:5.0,5.0;" x1="884" x2="884" y1="88.2969" y2="309.0938"/><text fill="#000000" font-family="sans-serif" font-size="14" lengthAdjust="spacing" textLength="61" x="5" y="84.9951">Estafeta</text><ellipse cx="38.5" cy="15" fill="#FEFECE" filter="url(#f1myjt0qplus35)" rx="8" ry="8" style="stroke:#A80036;stroke-width:2.0;"/><path d="M38.5,23 L38.5,50 M25.5,31 L51.5,31 M38.5,50 L25.5,65 M38.5,50 L51.5,65 " fill="none" filter="url(#f1myjt0qplus35)" style="stroke:#A80036;stroke-width:2.0;"/><text fill="#000000" font-family="sans-serif" font-size="14" lengthAdjust="spacing" textLength="61" x="5" y="321.0889">Estafeta</text><ellipse cx="38.5" cy="334.3906" fill="#FEFECE" filter="url(#f1myjt0qplus35)" rx="8" ry="8" style="stroke:#A80036;stroke-width:2.0;"/><path d="M38.5,342.3906 L38.5,369.3906 M25.5,350.3906 L51.5,350.3906 M38.5,369.3906 L25.5,384.3906 M38.5,369.3906 L51.5,384.3906 " fill="none" filter="url(#f1myjt0qplus35)" style="stroke:#A80036;stroke-width:2.0;"/><rect fill="#FEFECE" filter="url(#f1myjt0qplus35)" height="30.2969" style="stroke:#A80036;stroke-width:1.5;" width="149" x="393" y="53"/><text fill="#000000" font-family="sans-serif" font-size="14" lengthAdjust="spacing" textLength="135" x="400" y="72.9951">:RegistarEntregaUI</text><rect fill="#FEFECE" filter="url(#f1myjt0qplus35)" height="30.2969" style="stroke:#A80036;stroke-width:1.5;" width="149" x="393" y="308.0938"/><text fill="#000000" font-family="sans-serif" font-size="14" lengthAdjust="spacing" textLength="135" x="400" y="328.0889">:RegistarEntregaUI</text><rect fill="#FEFECE" filter="url(#f1myjt0qplus35)" height="30.2969" style="stroke:#A80036;stroke-width:1.5;" width="209" x="571" y="53"/><text fill="#000000" font-family="sans-serif" font-size="14" lengthAdjust="spacing" textLength="195" x="578" y="72.9951">:RegistarEntregaController</text><rect fill="#FEFECE" filter="url(#f1myjt0qplus35)" height="30.2969" style="stroke:#A80036;stroke-width:1.5;" width="209" x="571" y="308.0938"/><text fill="#000000" font-family="sans-serif" font-size="14" lengthAdjust="spacing" textLength="195" x="578" y="328.0889">:RegistarEntregaController</text><rect fill="#FEFECE" filter="url(#f1myjt0qplus35)" height="30.2969" style="stroke:#A80036;stroke-width:1.5;" width="97" x="834" y="53"/><text fill="#000000" font-family="sans-serif" font-size="14" lengthAdjust="spacing" textLength="83" x="841" y="72.9951">:EntregaDB</text><rect fill="#FEFECE" filter="url(#f1myjt0qplus35)" height="30.2969" style="stroke:#A80036;stroke-width:1.5;" width="97" x="834" y="308.0938"/><text fill="#000000" font-family="sans-serif" font-size="14" lengthAdjust="spacing" textLength="83" x="841" y="328.0889">:EntregaDB</text><rect fill="#FFFFFF" filter="url(#f1myjt0qplus35)" height="192.7969" style="stroke:#A80036;stroke-width:1.0;" width="10" x="33.5" y="98.2969"/><rect fill="#FFFFFF" filter="url(#f1myjt0qplus35)" height="171.6641" style="stroke:#A80036;stroke-width:1.0;" width="10" x="464.5" y="119.4297"/><rect fill="#FFFFFF" filter="url(#f1myjt0qplus35)" height="106.3984" style="stroke:#A80036;stroke-width:1.0;" width="10" x="672.5" y="148.5625"/><rect fill="#FFFFFF" filter="url(#f1myjt0qplus35)" height="77.2656" style="stroke:#A80036;stroke-width:1.0;" width="10" x="879.5" y="177.6953"/><polygon fill="#A80036" points="452.5,115.4297,462.5,119.4297,452.5,123.4297,456.5,119.4297" style="stroke:#A80036;stroke-width:1.0;"/><line style="stroke:#A80036;stroke-width:1.0;" x1="43.5" x2="458.5" y1="119.4297" y2="119.4297"/><text fill="#000000" font-family="sans-serif" font-size="13" font-weight="bold" lengthAdjust="spacing" textLength="9" x="50.5" y="114.3638">1</text><text fill="#000000" font-family="sans-serif" font-size="13" lengthAdjust="spacing" textLength="389" x="63.5" y="114.3638">envia uma nota a um cliente quando a sua entrega começar</text><polygon fill="#A80036" points="660.5,144.5625,670.5,148.5625,660.5,152.5625,664.5,148.5625" style="stroke:#A80036;stroke-width:1.0;"/><line style="stroke:#A80036;stroke-width:1.0;" x1="474.5" x2="666.5" y1="148.5625" y2="148.5625"/><text fill="#000000" font-family="sans-serif" font-size="13" font-weight="bold" lengthAdjust="spacing" textLength="9" x="481.5" y="143.4966">2</text><text fill="#000000" font-family="sans-serif" font-size="13" lengthAdjust="spacing" textLength="166" x="494.5" y="143.4966">enviarNotaCliente(cliente)</text><polygon fill="#A80036" points="867.5,173.6953,877.5,177.6953,867.5,181.6953,871.5,177.6953" style="stroke:#A80036;stroke-width:1.0;"/><line style="stroke:#A80036;stroke-width:1.0;" x1="682.5" x2="873.5" y1="177.6953" y2="177.6953"/><text fill="#000000" font-family="sans-serif" font-size="13" font-weight="bold" lengthAdjust="spacing" textLength="8" x="689.5" y="172.6294">3</text><text fill="#000000" font-family="sans-serif" font-size="13" lengthAdjust="spacing" textLength="166" x="701.5" y="172.6294">enviarNotaCliente(cliente)</text><line style="stroke:#A80036;stroke-width:1.0;" x1="889.5" x2="931.5" y1="206.8281" y2="206.8281"/><line style="stroke:#A80036;stroke-width:1.0;" x1="931.5" x2="931.5" y1="206.8281" y2="219.8281"/><line style="stroke:#A80036;stroke-width:1.0;" x1="890.5" x2="931.5" y1="219.8281" y2="219.8281"/><polygon fill="#A80036" points="900.5,215.8281,890.5,219.8281,900.5,223.8281,896.5,219.8281" style="stroke:#A80036;stroke-width:1.0;"/><text fill="#000000" font-family="sans-serif" font-size="13" font-weight="bold" lengthAdjust="spacing" textLength="9" x="896.5" y="201.7622">4</text><text fill="#000000" font-family="sans-serif" font-size="13" lengthAdjust="spacing" textLength="120" x="909.5" y="201.7622">validaNota(cliente)</text><line style="stroke:#A80036;stroke-width:1.0;" x1="889.5" x2="931.5" y1="253.9609" y2="253.9609"/><line style="stroke:#A80036;stroke-width:1.0;" x1="931.5" x2="931.5" y1="253.9609" y2="266.9609"/><line style="stroke:#A80036;stroke-width:1.0;" x1="884.5" x2="931.5" y1="266.9609" y2="266.9609"/><polygon fill="#A80036" points="894.5,262.9609,884.5,266.9609,894.5,270.9609,890.5,266.9609" style="stroke:#A80036;stroke-width:1.0;"/><text fill="#000000" font-family="sans-serif" font-size="13" font-weight="bold" lengthAdjust="spacing" textLength="9" x="896.5" y="248.895">5</text><text fill="#000000" font-family="sans-serif" font-size="13" lengthAdjust="spacing" textLength="166" x="909.5" y="248.895">enviarNotaCliente(cliente)</text><polygon fill="#A80036" points="49.5,287.0938,39.5,291.0938,49.5,295.0938,45.5,291.0938" style="stroke:#A80036;stroke-width:1.0;"/><line style="stroke:#A80036;stroke-width:1.0;stroke-dasharray:2.0,2.0;" x1="43.5" x2="468.5" y1="291.0938" y2="291.0938"/><text fill="#000000" font-family="sans-serif" font-size="13" font-weight="bold" lengthAdjust="spacing" textLength="9" x="55.5" y="286.0278">6</text><text fill="#000000" font-family="sans-serif" font-size="13" lengthAdjust="spacing" textLength="154" x="68.5" y="286.0278">operação bem sucedida</text><!--MD5=[447c08a9b86dbb6532d85939e71281dc]
@startuml
autonumber

actor "Estafeta" as EST
participant ":RegistarEntregaUI" as UI
participant ":RegistarEntregaController" as CTL
participant ":EntregaDB" as PDB

activate EST
EST -> UI : envia uma nota a um cliente quando a sua entrega começar
activate UI
UI -> CTL : enviarNotaCliente(cliente)
activate CTL


CTL -> PDB : enviarNotaCliente(cliente)
activate PDB

PDB -> PDB : validaNota(cliente)

PDB -> PDB : enviarNotaCliente(cliente)

deactivate PDB

deactivate CTL

UI - -> EST : operação bem sucedida
deactivate UI

deactivate EST
@enduml

PlantUML version 1.2020.27beta8(Unknown compile time)
(GPL source distribution)
Java Runtime: Java(TM) SE Runtime Environment
JVM: Java HotSpot(TM) 64-Bit Server VM
Default Encoding: UTF-8
Language: en
Country: US
--></g></svg>