<?xml version="1.0" encoding="UTF-8" standalone="no"?><svg xmlns="http://www.w3.org/2000/svg" xmlns:xlink="http://www.w3.org/1999/xlink" contentScriptType="application/ecmascript" contentStyleType="text/css" height="336px" preserveAspectRatio="none" style="width:395px;height:336px;" version="1.1" viewBox="0 0 395 336" width="395px" zoomAndPan="magnify"><defs><filter height="300%" id="fp760vqkuxqun" width="300%" x="-1" y="-1"><feGaussianBlur result="blurOut" stdDeviation="2.0"/><feColorMatrix in="blurOut" result="blurOut2" type="matrix" values="0 0 0 0 0 0 0 0 0 0 0 0 0 0 0 0 0 0 .4 0"/><feOffset dx="4.0" dy="4.0" in="blurOut2" result="blurOut3"/><feBlend in="SourceGraphic" in2="blurOut3" mode="normal"/></filter></defs><g><!--MD5=[6702278d4dc2e5fb5cb52bce102fc058]
class EmailDB--><rect codeLine="3" fill="#FEFECE" filter="url(#fp760vqkuxqun)" height="86.4141" id="EmailDB" style="stroke:#A80036;stroke-width:1.5;" width="374" x="7" y="236"/><ellipse cx="165.75" cy="252" fill="#ADD1B2" rx="11" ry="11" style="stroke:#A80036;stroke-width:1.0;"/><path d="M168.0938,247.6719 C167.1563,247.2344 166.5625,247.0938 165.6875,247.0938 C163.0625,247.0938 161.0625,249.1719 161.0625,251.8906 L161.0625,253.0156 C161.0625,255.5938 163.1719,257.4844 166.0625,257.4844 C167.2813,257.4844 168.4375,257.1875 169.1875,256.6406 C169.7656,256.2344 170.0938,255.7813 170.0938,255.3906 C170.0938,254.9375 169.7031,254.5469 169.2344,254.5469 C169.0156,254.5469 168.8125,254.625 168.625,254.8125 C168.1719,255.2969 168.1719,255.2969 167.9844,255.3906 C167.5625,255.6563 166.875,255.7813 166.1094,255.7813 C164.0625,255.7813 162.7656,254.6875 162.7656,252.9844 L162.7656,251.8906 C162.7656,250.1094 164.0156,248.7969 165.75,248.7969 C166.3281,248.7969 166.9375,248.9531 167.4063,249.2031 C167.8906,249.4844 168.0625,249.7031 168.1563,250.1094 C168.2188,250.5156 168.25,250.6406 168.3906,250.7656 C168.5313,250.9063 168.7656,251.0156 168.9844,251.0156 C169.25,251.0156 169.5156,250.875 169.6875,250.6563 C169.7969,250.5 169.8281,250.3125 169.8281,249.8906 L169.8281,248.4688 C169.8281,248.0313 169.8125,247.9063 169.7188,247.75 C169.5625,247.4844 169.2813,247.3438 168.9844,247.3438 C168.6875,247.3438 168.4844,247.4375 168.2656,247.75 L168.0938,247.6719 Z " fill="#000000"/><text fill="#000000" font-family="sans-serif" font-size="12" lengthAdjust="spacing" textLength="48" x="186.25" y="256.1543">EmailDB</text><line style="stroke:#A80036;stroke-width:1.5;" x1="8" x2="380" y1="268" y2="268"/><line style="stroke:#A80036;stroke-width:1.5;" x1="8" x2="380" y1="276" y2="276"/><text fill="#000000" font-family="sans-serif" font-size="11" lengthAdjust="spacing" textLength="362" x="13" y="290.2104">+sendEmail(emailFarmacia, emailCliente, assunto, mensagem)</text><text fill="#000000" font-family="sans-serif" font-size="11" lengthAdjust="spacing" textLength="172" x="13" y="303.0151">+validaNota(farmacia, cliente)</text><text fill="#000000" font-family="sans-serif" font-size="11" lengthAdjust="spacing" textLength="215" x="13" y="315.8198">+enviarNotaCliente(farmacia, cliente)</text><!--MD5=[0b96431f48c75c7948e638dd0365dea1]
class RegistarEntregaController--><rect codeLine="9" fill="#FEFECE" filter="url(#fp760vqkuxqun)" height="60.8047" id="RegistarEntregaController" style="stroke:#A80036;stroke-width:1.5;" width="227" x="80.5" y="115"/><ellipse cx="113.95" cy="131" fill="#ADD1B2" rx="11" ry="11" style="stroke:#A80036;stroke-width:1.0;"/><path d="M116.2938,126.6719 C115.3563,126.2344 114.7625,126.0938 113.8875,126.0938 C111.2625,126.0938 109.2625,128.1719 109.2625,130.8906 L109.2625,132.0156 C109.2625,134.5938 111.3719,136.4844 114.2625,136.4844 C115.4813,136.4844 116.6375,136.1875 117.3875,135.6406 C117.9656,135.2344 118.2938,134.7813 118.2938,134.3906 C118.2938,133.9375 117.9031,133.5469 117.4344,133.5469 C117.2156,133.5469 117.0125,133.625 116.825,133.8125 C116.3719,134.2969 116.3719,134.2969 116.1844,134.3906 C115.7625,134.6563 115.075,134.7813 114.3094,134.7813 C112.2625,134.7813 110.9656,133.6875 110.9656,131.9844 L110.9656,130.8906 C110.9656,129.1094 112.2156,127.7969 113.95,127.7969 C114.5281,127.7969 115.1375,127.9531 115.6063,128.2031 C116.0906,128.4844 116.2625,128.7031 116.3563,129.1094 C116.4188,129.5156 116.45,129.6406 116.5906,129.7656 C116.7313,129.9063 116.9656,130.0156 117.1844,130.0156 C117.45,130.0156 117.7156,129.875 117.8875,129.6563 C117.9969,129.5 118.0281,129.3125 118.0281,128.8906 L118.0281,127.4688 C118.0281,127.0313 118.0125,126.9063 117.9188,126.75 C117.7625,126.4844 117.4813,126.3438 117.1844,126.3438 C116.8875,126.3438 116.6844,126.4375 116.4656,126.75 L116.2938,126.6719 Z " fill="#000000"/><text fill="#000000" font-family="sans-serif" font-size="12" lengthAdjust="spacing" textLength="154" x="132.05" y="135.1543">RegistarEntregaController</text><line style="stroke:#A80036;stroke-width:1.5;" x1="81.5" x2="306.5" y1="147" y2="147"/><line style="stroke:#A80036;stroke-width:1.5;" x1="81.5" x2="306.5" y1="155" y2="155"/><text fill="#000000" font-family="sans-serif" font-size="11" lengthAdjust="spacing" textLength="215" x="86.5" y="169.2104">+enviarNotaCliente(farmacia, cliente)</text><!--MD5=[7a561ec8a1cf4ba3fadee4d155dd8051]
class RegistarEntregaUI--><rect codeLine="13" fill="#FEFECE" filter="url(#fp760vqkuxqun)" height="48" id="RegistarEntregaUI" style="stroke:#A80036;stroke-width:1.5;" width="139" x="124.5" y="7"/><ellipse cx="139.5" cy="23" fill="#ADD1B2" rx="11" ry="11" style="stroke:#A80036;stroke-width:1.0;"/><path d="M141.8438,18.6719 C140.9063,18.2344 140.3125,18.0938 139.4375,18.0938 C136.8125,18.0938 134.8125,20.1719 134.8125,22.8906 L134.8125,24.0156 C134.8125,26.5938 136.9219,28.4844 139.8125,28.4844 C141.0313,28.4844 142.1875,28.1875 142.9375,27.6406 C143.5156,27.2344 143.8438,26.7813 143.8438,26.3906 C143.8438,25.9375 143.4531,25.5469 142.9844,25.5469 C142.7656,25.5469 142.5625,25.625 142.375,25.8125 C141.9219,26.2969 141.9219,26.2969 141.7344,26.3906 C141.3125,26.6563 140.625,26.7813 139.8594,26.7813 C137.8125,26.7813 136.5156,25.6875 136.5156,23.9844 L136.5156,22.8906 C136.5156,21.1094 137.7656,19.7969 139.5,19.7969 C140.0781,19.7969 140.6875,19.9531 141.1563,20.2031 C141.6406,20.4844 141.8125,20.7031 141.9063,21.1094 C141.9688,21.5156 142,21.6406 142.1406,21.7656 C142.2813,21.9063 142.5156,22.0156 142.7344,22.0156 C143,22.0156 143.2656,21.875 143.4375,21.6563 C143.5469,21.5 143.5781,21.3125 143.5781,20.8906 L143.5781,19.4688 C143.5781,19.0313 143.5625,18.9063 143.4688,18.75 C143.3125,18.4844 143.0313,18.3438 142.7344,18.3438 C142.4375,18.3438 142.2344,18.4375 142.0156,18.75 L141.8438,18.6719 Z " fill="#000000"/><text fill="#000000" font-family="sans-serif" font-size="12" lengthAdjust="spacing" textLength="107" x="153.5" y="27.1543">RegistarEntregaUI</text><line style="stroke:#A80036;stroke-width:1.5;" x1="125.5" x2="262.5" y1="39" y2="39"/><line style="stroke:#A80036;stroke-width:1.5;" x1="125.5" x2="262.5" y1="47" y2="47"/><!--MD5=[1593fa6ac82b73031c98001dcbb43056]
link RegistarEntregaUI to RegistarEntregaController--><path codeLine="18" d="M194,55.038 C194,70.65 194,91.582 194,109.273 " fill="none" id="RegistarEntregaUI-to-RegistarEntregaController" style="stroke:#A80036;stroke-width:1.0;stroke-dasharray:7.0,7.0;"/><polygon fill="#A80036" points="194,114.65,198,105.65,194,109.65,190,105.65,194,114.65" style="stroke:#A80036;stroke-width:1.0;"/><!--MD5=[781d7f760d350ac41da7095c4f5049b5]
link RegistarEntregaController to EmailDB--><path codeLine="19" d="M194,176.011 C194,192.139 194,212.496 194,230.7741 " fill="none" id="RegistarEntregaController-to-EmailDB" style="stroke:#A80036;stroke-width:1.0;stroke-dasharray:7.0,7.0;"/><polygon fill="#A80036" points="194,235.8691,198,226.8691,194,230.8691,190,226.8691,194,235.8691" style="stroke:#A80036;stroke-width:1.0;"/><!--MD5=[37468f3b50895ea44f63d86131fc702d]
@startuml
skinparam classAttributeIconSize 0

class EmailDB {
  +sendEmail(emailFarmacia, emailCliente, assunto, mensagem)
  +validaNota(farmacia, cliente)
  +enviarNotaCliente(farmacia, cliente)
}

class RegistarEntregaController {
    +enviarNotaCliente(farmacia, cliente)
}

class RegistarEntregaUI {
}



RegistarEntregaUI ..> RegistarEntregaController
RegistarEntregaController ..> EmailDB
@enduml

PlantUML version 1.2021.01beta3(Unknown compile time)
(GPL source distribution)
Java Runtime: Java(TM) SE Runtime Environment
JVM: Java HotSpot(TM) 64-Bit Server VM
Default Encoding: UTF-8
Language: en
Country: US
--></g></svg>