<?xml version="1.0" encoding="UTF-8" standalone="no"?><svg xmlns="http://www.w3.org/2000/svg" xmlns:xlink="http://www.w3.org/1999/xlink" contentScriptType="application/ecmascript" contentStyleType="text/css" height="1080px" preserveAspectRatio="none" style="width:774px;height:1080px;" version="1.1" viewBox="0 0 774 1080" width="774px" zoomAndPan="magnify"><defs><filter height="300%" id="fwa0my5ebneqi" width="300%" x="-1" y="-1"><feGaussianBlur result="blurOut" stdDeviation="2.0"/><feColorMatrix in="blurOut" result="blurOut2" type="matrix" values="0 0 0 0 0 0 0 0 0 0 0 0 0 0 0 0 0 0 .4 0"/><feOffset dx="4.0" dy="4.0" in="blurOut2" result="blurOut3"/><feBlend in="SourceGraphic" in2="blurOut3" mode="normal"/></filter></defs><g><!--MD5=[598a246086efa0137d5aa96a640f0789]
class EntregaDB--><rect codeLine="3" fill="#FEFECE" filter="url(#fwa0my5ebneqi)" height="73.6094" id="EntregaDB" style="stroke:#A80036;stroke-width:1.5;" width="171" x="305.6896" y="343.5"/><ellipse cx="355.4396" cy="359.5" fill="#ADD1B2" rx="11" ry="11" style="stroke:#A80036;stroke-width:1.0;"/><path d="M357.7834,355.1719 C356.8459,354.7344 356.2521,354.5938 355.3771,354.5938 C352.7521,354.5938 350.7521,356.6719 350.7521,359.3906 L350.7521,360.5156 C350.7521,363.0938 352.8615,364.9844 355.7521,364.9844 C356.9709,364.9844 358.1271,364.6875 358.8771,364.1406 C359.4552,363.7344 359.7834,363.2813 359.7834,362.8906 C359.7834,362.4375 359.3927,362.0469 358.924,362.0469 C358.7052,362.0469 358.5021,362.125 358.3146,362.3125 C357.8615,362.7969 357.8615,362.7969 357.674,362.8906 C357.2521,363.1563 356.5646,363.2813 355.799,363.2813 C353.7521,363.2813 352.4552,362.1875 352.4552,360.4844 L352.4552,359.3906 C352.4552,357.6094 353.7052,356.2969 355.4396,356.2969 C356.0177,356.2969 356.6271,356.4531 357.0959,356.7031 C357.5802,356.9844 357.7521,357.2031 357.8459,357.6094 C357.9084,358.0156 357.9396,358.1406 358.0802,358.2656 C358.2209,358.4063 358.4552,358.5156 358.674,358.5156 C358.9396,358.5156 359.2052,358.375 359.3771,358.1563 C359.4865,358 359.5177,357.8125 359.5177,357.3906 L359.5177,355.9688 C359.5177,355.5313 359.5021,355.4063 359.4084,355.25 C359.2521,354.9844 358.9709,354.8438 358.674,354.8438 C358.3771,354.8438 358.174,354.9375 357.9552,355.25 L357.7834,355.1719 Z " fill="#000000"/><text fill="#000000" font-family="sans-serif" font-size="12" lengthAdjust="spacing" textLength="63" x="375.9396" y="363.6543">EntregaDB</text><line style="stroke:#A80036;stroke-width:1.5;" x1="306.6896" x2="475.6896" y1="375.5" y2="375.5"/><line style="stroke:#A80036;stroke-width:1.5;" x1="306.6896" x2="475.6896" y1="383.5" y2="383.5"/><text fill="#000000" font-family="sans-serif" font-size="11" lengthAdjust="spacing" textLength="159" x="311.6896" y="397.7104">+enviarNotaCliente(cliente)</text><text fill="#000000" font-family="sans-serif" font-size="11" lengthAdjust="spacing" textLength="116" x="311.6896" y="410.5151">+validaNota(cliente)</text><!--MD5=[0b96431f48c75c7948e638dd0365dea1]
class RegistarEntregaController--><rect codeLine="8" fill="#FEFECE" filter="url(#fwa0my5ebneqi)" height="60.8047" id="RegistarEntregaController" style="stroke:#A80036;stroke-width:1.5;" width="186" x="298.1896" y="148"/><ellipse cx="313.1896" cy="164" fill="#ADD1B2" rx="11" ry="11" style="stroke:#A80036;stroke-width:1.0;"/><path d="M315.5334,159.6719 C314.5959,159.2344 314.0021,159.0938 313.1271,159.0938 C310.5021,159.0938 308.5021,161.1719 308.5021,163.8906 L308.5021,165.0156 C308.5021,167.5938 310.6115,169.4844 313.5021,169.4844 C314.7209,169.4844 315.8771,169.1875 316.6271,168.6406 C317.2052,168.2344 317.5334,167.7813 317.5334,167.3906 C317.5334,166.9375 317.1427,166.5469 316.674,166.5469 C316.4552,166.5469 316.2521,166.625 316.0646,166.8125 C315.6115,167.2969 315.6115,167.2969 315.424,167.3906 C315.0021,167.6563 314.3146,167.7813 313.549,167.7813 C311.5021,167.7813 310.2052,166.6875 310.2052,164.9844 L310.2052,163.8906 C310.2052,162.1094 311.4552,160.7969 313.1896,160.7969 C313.7677,160.7969 314.3771,160.9531 314.8459,161.2031 C315.3302,161.4844 315.5021,161.7031 315.5959,162.1094 C315.6584,162.5156 315.6896,162.6406 315.8302,162.7656 C315.9709,162.9063 316.2052,163.0156 316.424,163.0156 C316.6896,163.0156 316.9552,162.875 317.1271,162.6563 C317.2365,162.5 317.2677,162.3125 317.2677,161.8906 L317.2677,160.4688 C317.2677,160.0313 317.2521,159.9063 317.1584,159.75 C317.0021,159.4844 316.7209,159.3438 316.424,159.3438 C316.1271,159.3438 315.924,159.4375 315.7052,159.75 L315.5334,159.6719 Z " fill="#000000"/><text fill="#000000" font-family="sans-serif" font-size="12" lengthAdjust="spacing" textLength="154" x="327.1896" y="168.1543">RegistarEntregaController</text><line style="stroke:#A80036;stroke-width:1.5;" x1="299.1896" x2="483.1896" y1="180" y2="180"/><line style="stroke:#A80036;stroke-width:1.5;" x1="299.1896" x2="483.1896" y1="188" y2="188"/><text fill="#000000" font-family="sans-serif" font-size="11" lengthAdjust="spacing" textLength="159" x="304.1896" y="202.2104">+enviarNotaCliente(cliente)</text><!--MD5=[7a561ec8a1cf4ba3fadee4d155dd8051]
class RegistarEntregaUI--><rect codeLine="12" fill="#FEFECE" filter="url(#fwa0my5ebneqi)" height="48" id="RegistarEntregaUI" style="stroke:#A80036;stroke-width:1.5;" width="139" x="321.6896" y="7"/><ellipse cx="336.6896" cy="23" fill="#ADD1B2" rx="11" ry="11" style="stroke:#A80036;stroke-width:1.0;"/><path d="M339.0334,18.6719 C338.0959,18.2344 337.5021,18.0938 336.6271,18.0938 C334.0021,18.0938 332.0021,20.1719 332.0021,22.8906 L332.0021,24.0156 C332.0021,26.5938 334.1115,28.4844 337.0021,28.4844 C338.2209,28.4844 339.3771,28.1875 340.1271,27.6406 C340.7052,27.2344 341.0334,26.7813 341.0334,26.3906 C341.0334,25.9375 340.6427,25.5469 340.174,25.5469 C339.9552,25.5469 339.7521,25.625 339.5646,25.8125 C339.1115,26.2969 339.1115,26.2969 338.924,26.3906 C338.5021,26.6563 337.8146,26.7813 337.049,26.7813 C335.0021,26.7813 333.7052,25.6875 333.7052,23.9844 L333.7052,22.8906 C333.7052,21.1094 334.9552,19.7969 336.6896,19.7969 C337.2677,19.7969 337.8771,19.9531 338.3459,20.2031 C338.8302,20.4844 339.0021,20.7031 339.0959,21.1094 C339.1584,21.5156 339.1896,21.6406 339.3302,21.7656 C339.4709,21.9063 339.7052,22.0156 339.924,22.0156 C340.1896,22.0156 340.4552,21.875 340.6271,21.6563 C340.7365,21.5 340.7677,21.3125 340.7677,20.8906 L340.7677,19.4688 C340.7677,19.0313 340.7521,18.9063 340.6584,18.75 C340.5021,18.4844 340.2209,18.3438 339.924,18.3438 C339.6271,18.3438 339.424,18.4375 339.2052,18.75 L339.0334,18.6719 Z " fill="#000000"/><text fill="#000000" font-family="sans-serif" font-size="12" lengthAdjust="spacing" textLength="107" x="350.6896" y="27.1543">RegistarEntregaUI</text><line style="stroke:#A80036;stroke-width:1.5;" x1="322.6896" x2="459.6896" y1="39" y2="39"/><line style="stroke:#A80036;stroke-width:1.5;" x1="322.6896" x2="459.6896" y1="47" y2="47"/><!--MD5=[a13ca1da61a66d544daddca6fa0a1a30]
class Cartao--><rect codeLine="16" fill="#FEFECE" filter="url(#fwa0my5ebneqi)" height="86.4141" id="Cartao" style="stroke:#A80036;stroke-width:1.5;" width="108" x="37.1896" y="337.5"/><ellipse cx="68.8396" cy="353.5" fill="#ADD1B2" rx="11" ry="11" style="stroke:#A80036;stroke-width:1.0;"/><path d="M71.1834,349.1719 C70.2459,348.7344 69.6521,348.5938 68.7771,348.5938 C66.1521,348.5938 64.1521,350.6719 64.1521,353.3906 L64.1521,354.5156 C64.1521,357.0938 66.2615,358.9844 69.1521,358.9844 C70.3709,358.9844 71.5271,358.6875 72.2771,358.1406 C72.8552,357.7344 73.1834,357.2813 73.1834,356.8906 C73.1834,356.4375 72.7927,356.0469 72.324,356.0469 C72.1052,356.0469 71.9021,356.125 71.7146,356.3125 C71.2615,356.7969 71.2615,356.7969 71.074,356.8906 C70.6521,357.1563 69.9646,357.2813 69.199,357.2813 C67.1521,357.2813 65.8552,356.1875 65.8552,354.4844 L65.8552,353.3906 C65.8552,351.6094 67.1052,350.2969 68.8396,350.2969 C69.4177,350.2969 70.0271,350.4531 70.4959,350.7031 C70.9802,350.9844 71.1521,351.2031 71.2459,351.6094 C71.3084,352.0156 71.3396,352.1406 71.4802,352.2656 C71.6209,352.4063 71.8552,352.5156 72.074,352.5156 C72.3396,352.5156 72.6052,352.375 72.7771,352.1563 C72.8865,352 72.9177,351.8125 72.9177,351.3906 L72.9177,349.9688 C72.9177,349.5313 72.9021,349.4063 72.8084,349.25 C72.6521,348.9844 72.3709,348.8438 72.074,348.8438 C71.7771,348.8438 71.574,348.9375 71.3552,349.25 L71.1834,349.1719 Z " fill="#000000"/><text fill="#000000" font-family="sans-serif" font-size="12" lengthAdjust="spacing" textLength="39" x="86.5396" y="357.6543">Cartao</text><line style="stroke:#A80036;stroke-width:1.5;" x1="38.1896" x2="144.1896" y1="369.5" y2="369.5"/><text fill="#000000" font-family="sans-serif" font-size="11" lengthAdjust="spacing" textLength="85" x="43.1896" y="383.7104">-numeroCartao</text><text fill="#000000" font-family="sans-serif" font-size="11" lengthAdjust="spacing" textLength="96" x="43.1896" y="396.5151">-dataDeValidade</text><text fill="#000000" font-family="sans-serif" font-size="11" lengthAdjust="spacing" textLength="28" x="43.1896" y="409.3198">-CCV</text><line style="stroke:#A80036;stroke-width:1.5;" x1="38.1896" x2="144.1896" y1="415.9141" y2="415.9141"/><!--MD5=[3179f819b5ca0f9c8a1bd58e9144681b]
class Entrega--><rect codeLine="22" fill="#FEFECE" filter="url(#fwa0my5ebneqi)" height="86.4141" id="Entrega" style="stroke:#A80036;stroke-width:1.5;" width="78" x="413.1896" y="577"/><ellipse cx="428.1896" cy="593" fill="#ADD1B2" rx="11" ry="11" style="stroke:#A80036;stroke-width:1.0;"/><path d="M430.5334,588.6719 C429.5959,588.2344 429.0021,588.0938 428.1271,588.0938 C425.5021,588.0938 423.5021,590.1719 423.5021,592.8906 L423.5021,594.0156 C423.5021,596.5938 425.6115,598.4844 428.5021,598.4844 C429.7209,598.4844 430.8771,598.1875 431.6271,597.6406 C432.2052,597.2344 432.5334,596.7813 432.5334,596.3906 C432.5334,595.9375 432.1427,595.5469 431.674,595.5469 C431.4552,595.5469 431.2521,595.625 431.0646,595.8125 C430.6115,596.2969 430.6115,596.2969 430.424,596.3906 C430.0021,596.6563 429.3146,596.7813 428.549,596.7813 C426.5021,596.7813 425.2052,595.6875 425.2052,593.9844 L425.2052,592.8906 C425.2052,591.1094 426.4552,589.7969 428.1896,589.7969 C428.7677,589.7969 429.3771,589.9531 429.8459,590.2031 C430.3302,590.4844 430.5021,590.7031 430.5959,591.1094 C430.6584,591.5156 430.6896,591.6406 430.8302,591.7656 C430.9709,591.9063 431.2052,592.0156 431.424,592.0156 C431.6896,592.0156 431.9552,591.875 432.1271,591.6563 C432.2365,591.5 432.2677,591.3125 432.2677,590.8906 L432.2677,589.4688 C432.2677,589.0313 432.2521,588.9063 432.1584,588.75 C432.0021,588.4844 431.7209,588.3438 431.424,588.3438 C431.1271,588.3438 430.924,588.4375 430.7052,588.75 L430.5334,588.6719 Z " fill="#000000"/><text fill="#000000" font-family="sans-serif" font-size="12" lengthAdjust="spacing" textLength="46" x="442.1896" y="597.1543">Entrega</text><line style="stroke:#A80036;stroke-width:1.5;" x1="414.1896" x2="490.1896" y1="609" y2="609"/><text fill="#000000" font-family="sans-serif" font-size="11" lengthAdjust="spacing" textLength="58" x="419.1896" y="623.2104">-idEntrega</text><text fill="#000000" font-family="sans-serif" font-size="11" lengthAdjust="spacing" textLength="58" x="419.1896" y="636.0151">-dataInicio</text><text fill="#000000" font-family="sans-serif" font-size="11" lengthAdjust="spacing" textLength="49" x="419.1896" y="648.8198">-dataFim</text><line style="stroke:#A80036;stroke-width:1.5;" x1="414.1896" x2="490.1896" y1="655.4141" y2="655.4141"/><!--MD5=[c55f92ccbf0646788158d42f3399cc78]
class Encomenda--><rect codeLine="28" fill="#FEFECE" filter="url(#fwa0my5ebneqi)" height="112.0234" id="Encomenda" style="stroke:#A80036;stroke-width:1.5;" width="111" x="106.6896" y="759"/><ellipse cx="125.7396" cy="775" fill="#ADD1B2" rx="11" ry="11" style="stroke:#A80036;stroke-width:1.0;"/><path d="M128.0834,770.6719 C127.1459,770.2344 126.5521,770.0938 125.6771,770.0938 C123.0521,770.0938 121.0521,772.1719 121.0521,774.8906 L121.0521,776.0156 C121.0521,778.5938 123.1615,780.4844 126.0521,780.4844 C127.2709,780.4844 128.4271,780.1875 129.1771,779.6406 C129.7552,779.2344 130.0834,778.7813 130.0834,778.3906 C130.0834,777.9375 129.6927,777.5469 129.224,777.5469 C129.0052,777.5469 128.8021,777.625 128.6146,777.8125 C128.1615,778.2969 128.1615,778.2969 127.974,778.3906 C127.5521,778.6563 126.8646,778.7813 126.099,778.7813 C124.0521,778.7813 122.7552,777.6875 122.7552,775.9844 L122.7552,774.8906 C122.7552,773.1094 124.0052,771.7969 125.7396,771.7969 C126.3177,771.7969 126.9271,771.9531 127.3959,772.2031 C127.8802,772.4844 128.0521,772.7031 128.1459,773.1094 C128.2084,773.5156 128.2396,773.6406 128.3802,773.7656 C128.5209,773.9063 128.7552,774.0156 128.974,774.0156 C129.2396,774.0156 129.5052,773.875 129.6771,773.6563 C129.7865,773.5 129.8177,773.3125 129.8177,772.8906 L129.8177,771.4688 C129.8177,771.0313 129.8021,770.9063 129.7084,770.75 C129.5521,770.4844 129.2709,770.3438 128.974,770.3438 C128.6771,770.3438 128.474,770.4375 128.2552,770.75 L128.0834,770.6719 Z " fill="#000000"/><text fill="#000000" font-family="sans-serif" font-size="12" lengthAdjust="spacing" textLength="70" x="140.6396" y="779.1543">Encomenda</text><line style="stroke:#A80036;stroke-width:1.5;" x1="107.6896" x2="216.6896" y1="791" y2="791"/><text fill="#000000" font-family="sans-serif" font-size="11" lengthAdjust="spacing" textLength="81" x="112.6896" y="805.2104">-idEncomenda</text><text fill="#000000" font-family="sans-serif" font-size="11" lengthAdjust="spacing" textLength="67" x="112.6896" y="818.0151">-dataPedida</text><text fill="#000000" font-family="sans-serif" font-size="11" lengthAdjust="spacing" textLength="36" x="112.6896" y="830.8198">-preco</text><text fill="#000000" font-family="sans-serif" font-size="11" lengthAdjust="spacing" textLength="99" x="112.6896" y="843.6245">-pesoEncomenda</text><text fill="#000000" font-family="sans-serif" font-size="11" lengthAdjust="spacing" textLength="29" x="112.6896" y="856.4292">-taxa</text><line style="stroke:#A80036;stroke-width:1.5;" x1="107.6896" x2="216.6896" y1="863.0234" y2="863.0234"/><!--MD5=[533e824b6b94274ee39bf5a43d7cce2a]
class EstadoEncomenda--><rect codeLine="36" fill="#FEFECE" filter="url(#fwa0my5ebneqi)" height="73.6094" id="EstadoEncomenda" style="stroke:#A80036;stroke-width:1.5;" width="145" x="15.6897" y="979.5"/><ellipse cx="31.5897" cy="995.5" fill="#ADD1B2" rx="11" ry="11" style="stroke:#A80036;stroke-width:1.0;"/><path d="M33.9334,991.1719 C32.9959,990.7344 32.4022,990.5938 31.5272,990.5938 C28.9022,990.5938 26.9022,992.6719 26.9022,995.3906 L26.9022,996.5156 C26.9022,999.0938 29.0115,1000.9844 31.9022,1000.9844 C33.1209,1000.9844 34.2772,1000.6875 35.0272,1000.1406 C35.6053,999.7344 35.9334,999.2813 35.9334,998.8906 C35.9334,998.4375 35.5428,998.0469 35.074,998.0469 C34.8553,998.0469 34.6522,998.125 34.4647,998.3125 C34.0115,998.7969 34.0115,998.7969 33.824,998.8906 C33.4022,999.1563 32.7147,999.2813 31.949,999.2813 C29.9022,999.2813 28.6053,998.1875 28.6053,996.4844 L28.6053,995.3906 C28.6053,993.6094 29.8553,992.2969 31.5897,992.2969 C32.1678,992.2969 32.7772,992.4531 33.2459,992.7031 C33.7303,992.9844 33.9022,993.2031 33.9959,993.6094 C34.0584,994.0156 34.0897,994.1406 34.2303,994.2656 C34.3709,994.4063 34.6053,994.5156 34.824,994.5156 C35.0897,994.5156 35.3553,994.375 35.5272,994.1563 C35.6365,994 35.6678,993.8125 35.6678,993.3906 L35.6678,991.9688 C35.6678,991.5313 35.6522,991.4063 35.5584,991.25 C35.4022,990.9844 35.1209,990.8438 34.824,990.8438 C34.5272,990.8438 34.324,990.9375 34.1053,991.25 L33.9334,991.1719 Z " fill="#000000"/><text fill="#000000" font-family="sans-serif" font-size="12" lengthAdjust="spacing" textLength="111" x="45.7897" y="999.6543">EstadoEncomenda</text><line style="stroke:#A80036;stroke-width:1.5;" x1="16.6897" x2="159.6897" y1="1011.5" y2="1011.5"/><text fill="#000000" font-family="sans-serif" font-size="11" lengthAdjust="spacing" textLength="133" x="21.6897" y="1025.7104">-id_estado_encomenda</text><text fill="#000000" font-family="sans-serif" font-size="11" lengthAdjust="spacing" textLength="69" x="21.6897" y="1038.5151">-designacao</text><line style="stroke:#A80036;stroke-width:1.5;" x1="16.6897" x2="159.6897" y1="1045.1094" y2="1045.1094"/><!--MD5=[d4dacc50d49878ba7c621dfc80a2e1ce]
class Produto--><rect codeLine="41" fill="#FEFECE" filter="url(#fwa0my5ebneqi)" height="99.2188" id="Produto" style="stroke:#A80036;stroke-width:1.5;" width="81" x="195.6896" y="967"/><ellipse cx="212.0396" cy="983" fill="#ADD1B2" rx="11" ry="11" style="stroke:#A80036;stroke-width:1.0;"/><path d="M214.3834,978.6719 C213.4459,978.2344 212.8521,978.0938 211.9771,978.0938 C209.3521,978.0938 207.3521,980.1719 207.3521,982.8906 L207.3521,984.0156 C207.3521,986.5938 209.4615,988.4844 212.3521,988.4844 C213.5709,988.4844 214.7271,988.1875 215.4771,987.6406 C216.0552,987.2344 216.3834,986.7813 216.3834,986.3906 C216.3834,985.9375 215.9927,985.5469 215.524,985.5469 C215.3052,985.5469 215.1021,985.625 214.9146,985.8125 C214.4615,986.2969 214.4615,986.2969 214.274,986.3906 C213.8521,986.6563 213.1646,986.7813 212.399,986.7813 C210.3521,986.7813 209.0552,985.6875 209.0552,983.9844 L209.0552,982.8906 C209.0552,981.1094 210.3052,979.7969 212.0396,979.7969 C212.6177,979.7969 213.2271,979.9531 213.6959,980.2031 C214.1802,980.4844 214.3521,980.7031 214.4459,981.1094 C214.5084,981.5156 214.5396,981.6406 214.6802,981.7656 C214.8209,981.9063 215.0552,982.0156 215.274,982.0156 C215.5396,982.0156 215.8052,981.875 215.9771,981.6563 C216.0865,981.5 216.1177,981.3125 216.1177,980.8906 L216.1177,979.4688 C216.1177,979.0313 216.1021,978.9063 216.0084,978.75 C215.8521,978.4844 215.5709,978.3438 215.274,978.3438 C214.9771,978.3438 214.774,978.4375 214.5552,978.75 L214.3834,978.6719 Z " fill="#000000"/><text fill="#000000" font-family="sans-serif" font-size="12" lengthAdjust="spacing" textLength="46" x="226.3396" y="987.1543">Produto</text><line style="stroke:#A80036;stroke-width:1.5;" x1="196.6896" x2="275.6896" y1="999" y2="999"/><text fill="#000000" font-family="sans-serif" font-size="11" lengthAdjust="spacing" textLength="56" x="201.6896" y="1013.2104">-idProduto</text><text fill="#000000" font-family="sans-serif" font-size="11" lengthAdjust="spacing" textLength="69" x="201.6896" y="1026.0151">-designacao</text><text fill="#000000" font-family="sans-serif" font-size="11" lengthAdjust="spacing" textLength="32" x="201.6896" y="1038.8198">-peso</text><text fill="#000000" font-family="sans-serif" font-size="11" lengthAdjust="spacing" textLength="65" x="201.6896" y="1051.6245">-precoBase</text><line style="stroke:#A80036;stroke-width:1.5;" x1="196.6896" x2="275.6896" y1="1058.2188" y2="1058.2188"/><!--MD5=[3f1202280bfe3359d2f91fb9b6e32986]
class Estafeta--><rect codeLine="48" fill="#FEFECE" filter="url(#fwa0my5ebneqi)" height="124.8281" id="Estafeta" style="stroke:#A80036;stroke-width:1.5;" width="155" x="511.6896" y="318"/><ellipse cx="560.9396" cy="334" fill="#ADD1B2" rx="11" ry="11" style="stroke:#A80036;stroke-width:1.0;"/><path d="M563.2834,329.6719 C562.3459,329.2344 561.7521,329.0938 560.8771,329.0938 C558.2521,329.0938 556.2521,331.1719 556.2521,333.8906 L556.2521,335.0156 C556.2521,337.5938 558.3615,339.4844 561.2521,339.4844 C562.4709,339.4844 563.6271,339.1875 564.3771,338.6406 C564.9552,338.2344 565.2834,337.7813 565.2834,337.3906 C565.2834,336.9375 564.8927,336.5469 564.424,336.5469 C564.2052,336.5469 564.0021,336.625 563.8146,336.8125 C563.3615,337.2969 563.3615,337.2969 563.174,337.3906 C562.7521,337.6563 562.0646,337.7813 561.299,337.7813 C559.2521,337.7813 557.9552,336.6875 557.9552,334.9844 L557.9552,333.8906 C557.9552,332.1094 559.2052,330.7969 560.9396,330.7969 C561.5177,330.7969 562.1271,330.9531 562.5959,331.2031 C563.0802,331.4844 563.2521,331.7031 563.3459,332.1094 C563.4084,332.5156 563.4396,332.6406 563.5802,332.7656 C563.7209,332.9063 563.9552,333.0156 564.174,333.0156 C564.4396,333.0156 564.7052,332.875 564.8771,332.6563 C564.9865,332.5 565.0177,332.3125 565.0177,331.8906 L565.0177,330.4688 C565.0177,330.0313 565.0021,329.9063 564.9084,329.75 C564.7521,329.4844 564.4709,329.3438 564.174,329.3438 C563.8771,329.3438 563.674,329.4375 563.4552,329.75 L563.2834,329.6719 Z " fill="#000000"/><text fill="#000000" font-family="sans-serif" font-size="12" lengthAdjust="spacing" textLength="48" x="581.4396" y="338.1543">Estafeta</text><line style="stroke:#A80036;stroke-width:1.5;" x1="512.6896" x2="665.6896" y1="350" y2="350"/><text fill="#000000" font-family="sans-serif" font-size="11" lengthAdjust="spacing" textLength="21" x="517.6896" y="364.2104">-NIF</text><text fill="#000000" font-family="sans-serif" font-size="11" lengthAdjust="spacing" textLength="37" x="517.6896" y="377.0151">-nome</text><text fill="#000000" font-family="sans-serif" font-size="11" lengthAdjust="spacing" textLength="36" x="517.6896" y="389.8198">-email</text><text fill="#000000" font-family="sans-serif" font-size="11" lengthAdjust="spacing" textLength="143" x="517.6896" y="402.6245">-numeroSegurancaSocial</text><text fill="#000000" font-family="sans-serif" font-size="11" lengthAdjust="spacing" textLength="57" x="517.6896" y="415.4292">-password</text><text fill="#000000" font-family="sans-serif" font-size="11" lengthAdjust="spacing" textLength="79" x="517.6896" y="428.2339">-pesoEstafeta</text><line style="stroke:#A80036;stroke-width:1.5;" x1="512.6896" x2="665.6896" y1="434.8281" y2="434.8281"/><!--MD5=[36c1942e8942a3e4f47e6de3733e3d18]
class Endereco--><rect codeLine="58" fill="#FEFECE" filter="url(#fwa0my5ebneqi)" height="99.2188" id="Endereco" style="stroke:#A80036;stroke-width:1.5;" width="90" x="180.1896" y="331"/><ellipse cx="195.1896" cy="347" fill="#ADD1B2" rx="11" ry="11" style="stroke:#A80036;stroke-width:1.0;"/><path d="M197.5334,342.6719 C196.5959,342.2344 196.0021,342.0938 195.1271,342.0938 C192.5021,342.0938 190.5021,344.1719 190.5021,346.8906 L190.5021,348.0156 C190.5021,350.5938 192.6115,352.4844 195.5021,352.4844 C196.7209,352.4844 197.8771,352.1875 198.6271,351.6406 C199.2052,351.2344 199.5334,350.7813 199.5334,350.3906 C199.5334,349.9375 199.1427,349.5469 198.674,349.5469 C198.4552,349.5469 198.2521,349.625 198.0646,349.8125 C197.6115,350.2969 197.6115,350.2969 197.424,350.3906 C197.0021,350.6563 196.3146,350.7813 195.549,350.7813 C193.5021,350.7813 192.2052,349.6875 192.2052,347.9844 L192.2052,346.8906 C192.2052,345.1094 193.4552,343.7969 195.1896,343.7969 C195.7677,343.7969 196.3771,343.9531 196.8459,344.2031 C197.3302,344.4844 197.5021,344.7031 197.5959,345.1094 C197.6584,345.5156 197.6896,345.6406 197.8302,345.7656 C197.9709,345.9063 198.2052,346.0156 198.424,346.0156 C198.6896,346.0156 198.9552,345.875 199.1271,345.6563 C199.2365,345.5 199.2677,345.3125 199.2677,344.8906 L199.2677,343.4688 C199.2677,343.0313 199.2521,342.9063 199.1584,342.75 C199.0021,342.4844 198.7209,342.3438 198.424,342.3438 C198.1271,342.3438 197.924,342.4375 197.7052,342.75 L197.5334,342.6719 Z " fill="#000000"/><text fill="#000000" font-family="sans-serif" font-size="12" lengthAdjust="spacing" textLength="58" x="209.1896" y="351.1543">Endereco</text><line style="stroke:#A80036;stroke-width:1.5;" x1="181.1896" x2="269.1896" y1="363" y2="363"/><text fill="#000000" font-family="sans-serif" font-size="11" lengthAdjust="spacing" textLength="47" x="186.1896" y="377.2104">-morada</text><text fill="#000000" font-family="sans-serif" font-size="11" lengthAdjust="spacing" textLength="47" x="186.1896" y="390.0151">-latitude</text><text fill="#000000" font-family="sans-serif" font-size="11" lengthAdjust="spacing" textLength="57" x="186.1896" y="402.8198">-longitude</text><text fill="#000000" font-family="sans-serif" font-size="11" lengthAdjust="spacing" textLength="47" x="186.1896" y="415.6245">-altitude</text><line style="stroke:#A80036;stroke-width:1.5;" x1="181.1896" x2="269.1896" y1="422.2188" y2="422.2188"/><!--MD5=[8505c5852735283b5a8424161266bb9f]
class Veiculo--><rect codeLine="65" fill="#FEFECE" filter="url(#fwa0my5ebneqi)" height="150.4375" id="Veiculo" style="stroke:#A80036;stroke-width:1.5;" width="134" x="430.1896" y="740"/><ellipse cx="471.2896" cy="756" fill="#ADD1B2" rx="11" ry="11" style="stroke:#A80036;stroke-width:1.0;"/><path d="M473.6334,751.6719 C472.6959,751.2344 472.1021,751.0938 471.2271,751.0938 C468.6021,751.0938 466.6021,753.1719 466.6021,755.8906 L466.6021,757.0156 C466.6021,759.5938 468.7115,761.4844 471.6021,761.4844 C472.8209,761.4844 473.9771,761.1875 474.7271,760.6406 C475.3052,760.2344 475.6334,759.7813 475.6334,759.3906 C475.6334,758.9375 475.2427,758.5469 474.774,758.5469 C474.5552,758.5469 474.3521,758.625 474.1646,758.8125 C473.7115,759.2969 473.7115,759.2969 473.524,759.3906 C473.1021,759.6563 472.4146,759.7813 471.649,759.7813 C469.6021,759.7813 468.3052,758.6875 468.3052,756.9844 L468.3052,755.8906 C468.3052,754.1094 469.5552,752.7969 471.2896,752.7969 C471.8677,752.7969 472.4771,752.9531 472.9459,753.2031 C473.4302,753.4844 473.6021,753.7031 473.6959,754.1094 C473.7584,754.5156 473.7896,754.6406 473.9302,754.7656 C474.0709,754.9063 474.3052,755.0156 474.524,755.0156 C474.7896,755.0156 475.0552,754.875 475.2271,754.6563 C475.3365,754.5 475.3677,754.3125 475.3677,753.8906 L475.3677,752.4688 C475.3677,752.0313 475.3521,751.9063 475.2584,751.75 C475.1021,751.4844 474.8209,751.3438 474.524,751.3438 C474.2271,751.3438 474.024,751.4375 473.8052,751.75 L473.6334,751.6719 Z " fill="#000000"/><text fill="#000000" font-family="sans-serif" font-size="12" lengthAdjust="spacing" textLength="44" x="491.0896" y="760.1543">Veiculo</text><line style="stroke:#A80036;stroke-width:1.5;" x1="431.1896" x2="563.1896" y1="772" y2="772"/><text fill="#000000" font-family="sans-serif" font-size="11" lengthAdjust="spacing" textLength="56" x="436.1896" y="786.2104">-idVeiculo</text><text fill="#000000" font-family="sans-serif" font-size="11" lengthAdjust="spacing" textLength="58" x="436.1896" y="799.0151">-descricao</text><text fill="#000000" font-family="sans-serif" font-size="11" lengthAdjust="spacing" textLength="25" x="436.1896" y="811.8198">-tipo</text><text fill="#000000" font-family="sans-serif" font-size="11" lengthAdjust="spacing" textLength="122" x="436.1896" y="824.6245">-percentagemBateria</text><text fill="#000000" font-family="sans-serif" font-size="11" lengthAdjust="spacing" textLength="76" x="436.1896" y="837.4292">-pesoMaximo</text><text fill="#000000" font-family="sans-serif" font-size="11" lengthAdjust="spacing" textLength="74" x="436.1896" y="850.2339">-pesoVeiculo</text><text fill="#000000" font-family="sans-serif" font-size="11" lengthAdjust="spacing" textLength="53" x="436.1896" y="863.0386">-potencia</text><text fill="#000000" font-family="sans-serif" font-size="11" lengthAdjust="spacing" textLength="68" x="436.1896" y="875.8433">-areaFrontal</text><line style="stroke:#A80036;stroke-width:1.5;" x1="431.1896" x2="563.1896" y1="882.4375" y2="882.4375"/><!--MD5=[1a083dbe42a284ae0ea7f6f701783206]
class Parque--><rect codeLine="76" fill="#FEFECE" filter="url(#fwa0my5ebneqi)" height="73.6094" id="Parque" style="stroke:#A80036;stroke-width:1.5;" width="104" x="656.1896" y="473"/><ellipse cx="685.1396" cy="489" fill="#ADD1B2" rx="11" ry="11" style="stroke:#A80036;stroke-width:1.0;"/><path d="M687.4834,484.6719 C686.5459,484.2344 685.9521,484.0938 685.0771,484.0938 C682.4521,484.0938 680.4521,486.1719 680.4521,488.8906 L680.4521,490.0156 C680.4521,492.5938 682.5615,494.4844 685.4521,494.4844 C686.6709,494.4844 687.8271,494.1875 688.5771,493.6406 C689.1552,493.2344 689.4834,492.7813 689.4834,492.3906 C689.4834,491.9375 689.0927,491.5469 688.624,491.5469 C688.4052,491.5469 688.2021,491.625 688.0146,491.8125 C687.5615,492.2969 687.5615,492.2969 687.374,492.3906 C686.9521,492.6563 686.2646,492.7813 685.499,492.7813 C683.4521,492.7813 682.1552,491.6875 682.1552,489.9844 L682.1552,488.8906 C682.1552,487.1094 683.4052,485.7969 685.1396,485.7969 C685.7177,485.7969 686.3271,485.9531 686.7959,486.2031 C687.2802,486.4844 687.4521,486.7031 687.5459,487.1094 C687.6084,487.5156 687.6396,487.6406 687.7802,487.7656 C687.9209,487.9063 688.1552,488.0156 688.374,488.0156 C688.6396,488.0156 688.9052,487.875 689.0771,487.6563 C689.1865,487.5 689.2177,487.3125 689.2177,486.8906 L689.2177,485.4688 C689.2177,485.0313 689.2021,484.9063 689.1084,484.75 C688.9521,484.4844 688.6709,484.3438 688.374,484.3438 C688.0771,484.3438 687.874,484.4375 687.6552,484.75 L687.4834,484.6719 Z " fill="#000000"/><text fill="#000000" font-family="sans-serif" font-size="12" lengthAdjust="spacing" textLength="41" x="702.2396" y="493.1543">Parque</text><line style="stroke:#A80036;stroke-width:1.5;" x1="657.1896" x2="759.1896" y1="505" y2="505"/><text fill="#000000" font-family="sans-serif" font-size="11" lengthAdjust="spacing" textLength="92" x="662.1896" y="519.2104">-numeroMaximo</text><text fill="#000000" font-family="sans-serif" font-size="11" lengthAdjust="spacing" textLength="25" x="662.1896" y="532.0151">-tipo</text><line style="stroke:#A80036;stroke-width:1.5;" x1="657.1896" x2="759.1896" y1="538.6094" y2="538.6094"/><!--MD5=[20a748d5ee336a9a91751b0a3d4f0beb]
class Cliente--><rect codeLine="81" fill="#FEFECE" filter="url(#fwa0my5ebneqi)" height="124.8281" id="Cliente" style="stroke:#A80036;stroke-width:1.5;" width="155" x="13.6897" y="116"/><ellipse cx="66.4397" cy="132" fill="#ADD1B2" rx="11" ry="11" style="stroke:#A80036;stroke-width:1.0;"/><path d="M68.7834,127.6719 C67.8459,127.2344 67.2522,127.0938 66.3772,127.0938 C63.7522,127.0938 61.7522,129.1719 61.7522,131.8906 L61.7522,133.0156 C61.7522,135.5938 63.8615,137.4844 66.7522,137.4844 C67.9709,137.4844 69.1272,137.1875 69.8772,136.6406 C70.4553,136.2344 70.7834,135.7813 70.7834,135.3906 C70.7834,134.9375 70.3928,134.5469 69.924,134.5469 C69.7053,134.5469 69.5022,134.625 69.3147,134.8125 C68.8615,135.2969 68.8615,135.2969 68.674,135.3906 C68.2522,135.6563 67.5647,135.7813 66.799,135.7813 C64.7522,135.7813 63.4553,134.6875 63.4553,132.9844 L63.4553,131.8906 C63.4553,130.1094 64.7053,128.7969 66.4397,128.7969 C67.0178,128.7969 67.6272,128.9531 68.0959,129.2031 C68.5803,129.4844 68.7522,129.7031 68.8459,130.1094 C68.9084,130.5156 68.9397,130.6406 69.0803,130.7656 C69.2209,130.9063 69.4553,131.0156 69.674,131.0156 C69.9397,131.0156 70.2053,130.875 70.3772,130.6563 C70.4865,130.5 70.5178,130.3125 70.5178,129.8906 L70.5178,128.4688 C70.5178,128.0313 70.5022,127.9063 70.4084,127.75 C70.2522,127.4844 69.9709,127.3438 69.674,127.3438 C69.3772,127.3438 69.174,127.4375 68.9553,127.75 L68.7834,127.6719 Z " fill="#000000"/><text fill="#000000" font-family="sans-serif" font-size="12" lengthAdjust="spacing" textLength="41" x="86.9397" y="136.1543">Cliente</text><line style="stroke:#A80036;stroke-width:1.5;" x1="14.6897" x2="167.6897" y1="148" y2="148"/><text fill="#000000" font-family="sans-serif" font-size="11" lengthAdjust="spacing" textLength="21" x="19.6897" y="162.2104">-NIF</text><text fill="#000000" font-family="sans-serif" font-size="11" lengthAdjust="spacing" textLength="37" x="19.6897" y="175.0151">-nome</text><text fill="#000000" font-family="sans-serif" font-size="11" lengthAdjust="spacing" textLength="36" x="19.6897" y="187.8198">-email</text><text fill="#000000" font-family="sans-serif" font-size="11" lengthAdjust="spacing" textLength="143" x="19.6897" y="200.6245">-numeroSegurancaSocial</text><text fill="#000000" font-family="sans-serif" font-size="11" lengthAdjust="spacing" textLength="57" x="19.6897" y="213.4292">-password</text><text fill="#000000" font-family="sans-serif" font-size="11" lengthAdjust="spacing" textLength="49" x="19.6897" y="226.2339">-creditos</text><line style="stroke:#A80036;stroke-width:1.5;" x1="14.6897" x2="167.6897" y1="232.8281" y2="232.8281"/><!--MD5=[6613c9cd406ef433ff06f5e98b28abd9]
class Farmacia--><rect codeLine="90" fill="#FEFECE" filter="url(#fwa0my5ebneqi)" height="73.6094" id="Farmacia" style="stroke:#A80036;stroke-width:1.5;" width="86" x="546.1896" y="141.5"/><ellipse cx="561.1896" cy="157.5" fill="#ADD1B2" rx="11" ry="11" style="stroke:#A80036;stroke-width:1.0;"/><path d="M563.5334,153.1719 C562.5959,152.7344 562.0021,152.5938 561.1271,152.5938 C558.5021,152.5938 556.5021,154.6719 556.5021,157.3906 L556.5021,158.5156 C556.5021,161.0938 558.6115,162.9844 561.5021,162.9844 C562.7209,162.9844 563.8771,162.6875 564.6271,162.1406 C565.2052,161.7344 565.5334,161.2813 565.5334,160.8906 C565.5334,160.4375 565.1427,160.0469 564.674,160.0469 C564.4552,160.0469 564.2521,160.125 564.0646,160.3125 C563.6115,160.7969 563.6115,160.7969 563.424,160.8906 C563.0021,161.1563 562.3146,161.2813 561.549,161.2813 C559.5021,161.2813 558.2052,160.1875 558.2052,158.4844 L558.2052,157.3906 C558.2052,155.6094 559.4552,154.2969 561.1896,154.2969 C561.7677,154.2969 562.3771,154.4531 562.8459,154.7031 C563.3302,154.9844 563.5021,155.2031 563.5959,155.6094 C563.6584,156.0156 563.6896,156.1406 563.8302,156.2656 C563.9709,156.4063 564.2052,156.5156 564.424,156.5156 C564.6896,156.5156 564.9552,156.375 565.1271,156.1563 C565.2365,156 565.2677,155.8125 565.2677,155.3906 L565.2677,153.9688 C565.2677,153.5313 565.2521,153.4063 565.1584,153.25 C565.0021,152.9844 564.7209,152.8438 564.424,152.8438 C564.1271,152.8438 563.924,152.9375 563.7052,153.25 L563.5334,153.1719 Z " fill="#000000"/><text fill="#000000" font-family="sans-serif" font-size="12" lengthAdjust="spacing" textLength="54" x="575.1896" y="161.6543">Farmacia</text><line style="stroke:#A80036;stroke-width:1.5;" x1="547.1896" x2="631.1896" y1="173.5" y2="173.5"/><text fill="#000000" font-family="sans-serif" font-size="11" lengthAdjust="spacing" textLength="21" x="552.1896" y="187.7104">-NIF</text><text fill="#000000" font-family="sans-serif" font-size="11" lengthAdjust="spacing" textLength="36" x="552.1896" y="200.5151">-email</text><line style="stroke:#A80036;stroke-width:1.5;" x1="547.1896" x2="631.1896" y1="207.1094" y2="207.1094"/><!--MD5=[055d9a59c94791d1e5417ead9eff8d01]
link Encomenda to EstadoEncomenda--><path codeLine="95" d="M141.7726,871.042 C128.9816,905.527 112.8566,949 101.6532,979.203 " fill="none" id="Encomenda-EstadoEncomenda" style="stroke:#A80036;stroke-width:1.0;"/><polygon fill="#000000" points="126.4508,933.2543,132.3519,925.7959,126.8409,923.7517,126.4508,933.2543" style="stroke:#000000;stroke-width:1.0;"/><text fill="#000000" font-family="sans-serif" font-size="13" lengthAdjust="spacing" textLength="26" x="137.1896" y="933.0669">tem</text><text fill="#000000" font-family="sans-serif" font-size="13" lengthAdjust="spacing" textLength="8" x="130.6442" y="891.2572">1</text><text fill="#000000" font-family="sans-serif" font-size="13" lengthAdjust="spacing" textLength="8" x="95.3389" y="968.337">1</text><!--MD5=[39609d66ce6d06d1779a14455c909f6f]
link Entrega to Encomenda--><path codeLine="96" d="M413.0786,647.029 C362.7556,680.52 275.0156,738.912 217.7736,777.008 " fill="none" id="Entrega-Encomenda" style="stroke:#A80036;stroke-width:1.0;"/><polygon fill="#000000" points="343.0272,704.3366,352.1854,701.7719,348.9288,696.8786,343.0272,704.3366" style="stroke:#000000;stroke-width:1.0;"/><text fill="#000000" font-family="sans-serif" font-size="13" lengthAdjust="spacing" textLength="41" x="356.1896" y="706.0669">possui</text><text fill="#000000" font-family="sans-serif" font-size="13" lengthAdjust="spacing" textLength="8" x="397.13" y="647.6706">1</text><text fill="#000000" font-family="sans-serif" font-size="13" lengthAdjust="spacing" textLength="7" x="225.713" y="767.9693">*</text><!--MD5=[328dae9b2f192140d45e51cd90ecd75a]
link Estafeta to Entrega--><path codeLine="97" d="M575.9466,443.067 C567.0156,475.769 552.9926,515.58 532.1896,547 C521.3586,563.359 505.9536,578.411 491.5496,590.476 " fill="none" id="Estafeta-Entrega" style="stroke:#A80036;stroke-width:1.0;"/><polygon fill="#000000" points="569.7053,514.4055,576.75,508.0162,571.649,505.0957,569.7053,514.4055" style="stroke:#000000;stroke-width:1.0;"/><text fill="#000000" font-family="sans-serif" font-size="13" lengthAdjust="spacing" textLength="42" x="581.1896" y="514.5669">realiza</text><text fill="#000000" font-family="sans-serif" font-size="13" lengthAdjust="spacing" textLength="8" x="566.0607" y="462.8141">1</text><text fill="#000000" font-family="sans-serif" font-size="13" lengthAdjust="spacing" textLength="7" x="499.1841" y="580.9229">*</text><!--MD5=[43a7c1a046aa41d1c9842e3954366be4]
link Cliente to Endereco--><path codeLine="98" d="M134.8826,241.3 C141.7406,251.191 148.7026,261.346 155.1896,271 C168.2546,290.444 182.3176,312.093 194.3866,330.907 " fill="none" id="Cliente-Endereco" style="stroke:#A80036;stroke-width:1.0;"/><polygon fill="#000000" points="172.9556,283.7317,170.4002,274.5708,165.5036,277.8224,172.9556,283.7317" style="stroke:#000000;stroke-width:1.0;"/><text fill="#000000" font-family="sans-serif" font-size="13" lengthAdjust="spacing" textLength="26" x="179.1896" y="284.0669">tem</text><text fill="#000000" font-family="sans-serif" font-size="13" lengthAdjust="spacing" textLength="8" x="131.224" y="261.0726">1</text><text fill="#000000" font-family="sans-serif" font-size="13" lengthAdjust="spacing" textLength="8" x="181.4924" y="319.9391">1</text><!--MD5=[beec9e5f2ed2709028dd31c1dc478e7b]
link Cliente to Encomenda--><path codeLine="99" d="M51.1146,241.095 C38.2658,264.245 25.6879,291.411 19.1897,318 C6,371.967 9.0279,388.382 19.1897,443 C40.9699,560.066 98.3262,687.817 133.4246,758.701 " fill="none" id="Cliente-Encomenda" style="stroke:#A80036;stroke-width:1.0;"/><polygon fill="#000000" points="50.9749,515.0044,52.4568,505.61,46.6519,506.5331,50.9749,515.0044" style="stroke:#000000;stroke-width:1.0;"/><text fill="#000000" font-family="sans-serif" font-size="13" lengthAdjust="spacing" textLength="90" x="59.1896" y="514.5669">realiza e paga</text><text fill="#000000" font-family="sans-serif" font-size="13" lengthAdjust="spacing" textLength="8" x="38.2939" y="260.8452">1</text><text fill="#000000" font-family="sans-serif" font-size="13" lengthAdjust="spacing" textLength="7" x="122.4923" y="747.9991">*</text><!--MD5=[cd2aeefe8c457d184a69396a9f9cb06a]
link Entrega to Veiculo--><path codeLine="100" d="M462.0646,663.355 C467.2916,685.769 473.8606,713.946 479.9006,739.849 " fill="none" id="Entrega-Veiculo" style="stroke:#A80036;stroke-width:1.0;"/><polygon fill="#000000" points="476.0542,696.697,475.246,706.1732,480.9703,704.8385,476.0542,696.697" style="stroke:#000000;stroke-width:1.0;"/><text fill="#000000" font-family="sans-serif" font-size="13" lengthAdjust="spacing" textLength="42" x="486.1896" y="706.0669">realiza</text><text fill="#000000" font-family="sans-serif" font-size="13" lengthAdjust="spacing" textLength="7" x="456.0806" y="683.5045">*</text><text fill="#000000" font-family="sans-serif" font-size="13" lengthAdjust="spacing" textLength="8" x="469.8715" y="729.0237">1</text><!--MD5=[60097591193c89dbde5dfd99b98b5263]
link Encomenda to Produto--><path codeLine="101" d="M182.6066,871.042 C193.7296,901.029 207.3736,937.812 218.1096,966.7566 " fill="none" id="Encomenda-Produto" style="stroke:#A80036;stroke-width:1.0;"/><polygon fill="#000000" points="212.9285,933.2543,212.5383,923.7517,207.0274,925.7959,212.9285,933.2543" style="stroke:#000000;stroke-width:1.0;"/><text fill="#000000" font-family="sans-serif" font-size="13" lengthAdjust="spacing" textLength="26" x="220.1896" y="933.0669">tem</text><text fill="#000000" font-family="sans-serif" font-size="13" lengthAdjust="spacing" textLength="8" x="176.71" y="891.2572">1</text><text fill="#000000" font-family="sans-serif" font-size="13" lengthAdjust="spacing" textLength="7" x="208.0749" y="955.7681">*</text><!--MD5=[639e2fc5a451b1bb392d1ae296701488]
link Parque to Veiculo--><path codeLine="102" d="M682.9476,547.248 C649.9676,594.608 591.4146,678.691 548.8436,739.824 " fill="none" id="Parque-Veiculo" style="stroke:#A80036;stroke-width:1.0;"/><polygon fill="#000000" points="660.3323,624.1696,667.913,618.4264,663.0895,615.0674,660.3323,624.1696" style="stroke:#000000;stroke-width:1.0;"/><text fill="#000000" font-family="sans-serif" font-size="13" lengthAdjust="spacing" textLength="41" x="672.1896" y="624.5669">possui</text><text fill="#000000" font-family="sans-serif" font-size="13" lengthAdjust="spacing" textLength="8" x="670.1044" y="566.7696">1</text><text fill="#000000" font-family="sans-serif" font-size="13" lengthAdjust="spacing" textLength="7" x="546.4333" y="728.9963">*</text><!--MD5=[0b9a64f88a8f68498a0520ea68e94a71]
link Cliente to Cartao--><path codeLine="103" d="M91.1896,241.139 C91.1896,272.357 91.1896,309.455 91.1896,337.375 " fill="none" id="Cliente-Cartao" style="stroke:#A80036;stroke-width:1.0;"/><polygon fill="#000000" points="96.1896,284.5664,99.1285,275.5213,93.2507,275.5213,96.1896,284.5664" style="stroke:#000000;stroke-width:1.0;"/><text fill="#000000" font-family="sans-serif" font-size="13" lengthAdjust="spacing" textLength="41" x="105.1896" y="284.0669">possui</text><text fill="#000000" font-family="sans-serif" font-size="13" lengthAdjust="spacing" textLength="8" x="82.7521" y="260.894">1</text><text fill="#000000" font-family="sans-serif" font-size="13" lengthAdjust="spacing" textLength="8" x="82.5521" y="326.3511">1</text><!--MD5=[4f96609c99ecadb81dc825d0ae539cef]
link Farmacia to Parque--><path codeLine="104" d="M621.0986,215.535 C642.6386,241.996 669.6906,279.84 684.1896,318 C703.7166,369.392 708.0576,433.602 708.6666,472.938 " fill="none" id="Farmacia-Parque" style="stroke:#A80036;stroke-width:1.0;"/><polygon fill="#000000" points="674.8,284.3,674.6691,274.7903,669.1045,276.6834,674.8,284.3" style="stroke:#000000;stroke-width:1.0;"/><text fill="#000000" font-family="sans-serif" font-size="13" lengthAdjust="spacing" textLength="41" x="682.1896" y="284.0669">possui</text><text fill="#000000" font-family="sans-serif" font-size="13" lengthAdjust="spacing" textLength="8" x="617.8955" y="235.3013">1</text><text fill="#000000" font-family="sans-serif" font-size="13" lengthAdjust="spacing" textLength="8" x="700.0171" y="461.837">1</text><!--MD5=[06143d4fc5f7e61d4193d2b4f541983b]
link Farmacia to Estafeta--><path codeLine="105" d="M589.1896,215.718 C589.1896,244.085 589.1896,284.205 589.1896,317.635 " fill="none" id="Farmacia-Estafeta" style="stroke:#A80036;stroke-width:1.0;"/><polygon fill="#000000" points="594.1896,284.5664,597.1285,275.5213,591.2507,275.5213,594.1896,284.5664" style="stroke:#000000;stroke-width:1.0;"/><text fill="#000000" font-family="sans-serif" font-size="13" lengthAdjust="spacing" textLength="26" x="603.1896" y="284.0669">tem</text><text fill="#000000" font-family="sans-serif" font-size="13" lengthAdjust="spacing" textLength="8" x="580.5271" y="235.2347">1</text><text fill="#000000" font-family="sans-serif" font-size="13" lengthAdjust="spacing" textLength="7" x="581.8068" y="307.0224">*</text><!--MD5=[e9cb6b9ea8421b6538fc03abcb01a9a8]
link Farmacia to Endereco--><path codeLine="106" d="M545.8586,213.161 C532.0586,222.942 516.4126,233.105 501.1896,241 C411.8296,287.343 373.4706,264.519 288.1896,318 C282.1036,321.817 276.1286,326.305 270.4296,331.089 " fill="none" id="Farmacia-Endereco" style="stroke:#A80036;stroke-width:1.0;"/><polygon fill="#000000" points="416.5932,281.5344,426.065,280.676,423.7514,275.2726,416.5932,281.5344" style="stroke:#000000;stroke-width:1.0;"/><text fill="#000000" font-family="sans-serif" font-size="13" lengthAdjust="spacing" textLength="41" x="430.1896" y="284.0669">possui</text><text fill="#000000" font-family="sans-serif" font-size="13" lengthAdjust="spacing" textLength="8" x="530.3152" y="214.5984">1</text><text fill="#000000" font-family="sans-serif" font-size="13" lengthAdjust="spacing" textLength="8" x="277.6617" y="319.7908">1</text><!--MD5=[1593fa6ac82b73031c98001dcbb43056]
link RegistarEntregaUI to RegistarEntregaController--><path codeLine="110" d="M391.1896,55.05 C391.1896,78.568 391.1896,115.349 391.1896,142.466 " fill="none" id="RegistarEntregaUI-to-RegistarEntregaController" style="stroke:#A80036;stroke-width:1.0;stroke-dasharray:7.0,7.0;"/><polygon fill="#A80036" points="391.1896,147.754,395.1896,138.754,391.1896,142.754,387.1896,138.754,391.1896,147.754" style="stroke:#A80036;stroke-width:1.0;"/><!--MD5=[51c8078cdce16ec2931503df013aa567]
link RegistarEntregaController to EntregaDB--><path codeLine="111" d="M391.1896,209.011 C391.1896,243.223 391.1896,299.833 391.1896,338.354 " fill="none" id="RegistarEntregaController-to-EntregaDB" style="stroke:#A80036;stroke-width:1.0;stroke-dasharray:7.0,7.0;"/><polygon fill="#A80036" points="391.1896,343.43,395.1896,334.43,391.1896,338.43,387.1896,334.43,391.1896,343.43" style="stroke:#A80036;stroke-width:1.0;"/><!--MD5=[4c7211caded616e3e77a70a7b669ae10]
link EntregaDB to Entrega--><path codeLine="113" d="M398.5596,417.551 C405.6576,451.223 417.0746,502.788 429.1896,547 C431.4006,555.07 433.9376,563.587 436.5006,571.827 " fill="none" id="EntregaDB-to-Entrega" style="stroke:#A80036;stroke-width:1.0;"/><polygon fill="#A80036" points="438.0966,576.916,439.2179,567.1312,436.5993,572.1455,431.585,569.5269,438.0966,576.916" style="stroke:#A80036;stroke-width:1.0;"/><text fill="#000000" font-family="sans-serif" font-size="13" lengthAdjust="spacing" textLength="97" x="430.1896" y="514.5669">tem registados</text><text fill="#000000" font-family="sans-serif" font-size="13" lengthAdjust="spacing" textLength="8" x="391.1178" y="437.04">1</text><text fill="#000000" font-family="sans-serif" font-size="13" lengthAdjust="spacing" textLength="7" x="428.2927" y="565.8987">*</text><!--MD5=[9fb6e527a0e3ee859f5ffdb92aca6ed3]
@startuml
skinparam classAttributeIconSize 0

class EntregaDB {
  +enviarNotaCliente(cliente)
  +validaNota(cliente)
}

class RegistarEntregaController {
    +enviarNotaCliente(cliente)
}

class RegistarEntregaUI {
}


class Cartao {
  -numeroCartao
  -dataDeValidade
  -CCV
}

class Entrega {
  -idEntrega
  -dataInicio
  -dataFim
}

class Encomenda {
  -idEncomenda
  -dataPedida
  -preco
  -pesoEncomenda
  -taxa
}

class EstadoEncomenda {
  -id_estado_encomenda
  -designacao
}

class Produto {
  -idProduto
  -designacao
  -peso
  -precoBase
}

class Estafeta {
  -NIF
  -nome
  -email
  -numeroSegurancaSocial
  -password
  -pesoEstafeta
}


class Endereco {
  -morada
  -latitude
  -longitude
  -altitude
}

class Veiculo {
  -idVeiculo
  -descricao
  -tipo
  -percentagemBateria
  -pesoMaximo
  -pesoVeiculo
  -potencia
  -areaFrontal
}

class Parque {
  -numeroMaximo
  -tipo
}

class Cliente {
  -NIF
  -nome
  -email
  -numeroSegurancaSocial
  -password
  -creditos
}

class Farmacia {
  -NIF
  -email
}

Encomenda "1" - - "1" EstadoEncomenda : tem >
Entrega "1" - - "*" Encomenda : possui >
Estafeta "1" - - "*" Entrega: realiza >
Cliente "1" - - "1" Endereco: tem >
Cliente "1" - - "*" Encomenda: realiza e paga >
Entrega "*" - - "1" Veiculo: realiza <
Encomenda "1" - - "*" Produto: tem >
Parque "1" - - "*" Veiculo: possui >
Cliente "1" - - "1" Cartao: possui >
Farmacia "1" - - "1" Parque: possui >
Farmacia "1" - - "*" Estafeta: tem >
Farmacia "1" - - "1" Endereco: possui >



RegistarEntregaUI ..> RegistarEntregaController
RegistarEntregaController ..> EntregaDB

EntregaDB "1" - -> "*" Entrega : tem registados
@enduml

PlantUML version 1.2020.27beta8(Unknown compile time)
(GPL source distribution)
Java Runtime: Java(TM) SE Runtime Environment
JVM: Java HotSpot(TM) 64-Bit Server VM
Default Encoding: UTF-8
Language: en
Country: US
--></g></svg>