<?xml version="1.0" encoding="UTF-8" standalone="no"?><svg xmlns="http://www.w3.org/2000/svg" xmlns:xlink="http://www.w3.org/1999/xlink" contentScriptType="application/ecmascript" contentStyleType="text/css" height="189px" preserveAspectRatio="none" style="width:165px;height:189px;" version="1.1" viewBox="0 0 165 189" width="165px" zoomAndPan="magnify"><defs><filter height="300%" id="fe0cwjgo6637a" width="300%" x="-1" y="-1"><feGaussianBlur result="blurOut" stdDeviation="2.0"/><feColorMatrix in="blurOut" result="blurOut2" type="matrix" values="0 0 0 0 0 0 0 0 0 0 0 0 0 0 0 0 0 0 .4 0"/><feOffset dx="4.0" dy="4.0" in="blurOut2" result="blurOut3"/><feBlend in="SourceGraphic" in2="blurOut3" mode="normal"/></filter></defs><g><!--MD5=[84718776d214be480e4c259efcb737fc]
class Main--><rect codeLine="3" fill="#FEFECE" filter="url(#fe0cwjgo6637a)" height="48" id="Main" style="stroke:#A80036;stroke-width:1.5;" width="59" x="49.5" y="7"/><ellipse cx="64.5" cy="23" fill="#ADD1B2" rx="11" ry="11" style="stroke:#A80036;stroke-width:1.0;"/><path d="M66.8438,18.6719 C65.9063,18.2344 65.3125,18.0938 64.4375,18.0938 C61.8125,18.0938 59.8125,20.1719 59.8125,22.8906 L59.8125,24.0156 C59.8125,26.5938 61.9219,28.4844 64.8125,28.4844 C66.0313,28.4844 67.1875,28.1875 67.9375,27.6406 C68.5156,27.2344 68.8438,26.7813 68.8438,26.3906 C68.8438,25.9375 68.4531,25.5469 67.9844,25.5469 C67.7656,25.5469 67.5625,25.625 67.375,25.8125 C66.9219,26.2969 66.9219,26.2969 66.7344,26.3906 C66.3125,26.6563 65.625,26.7813 64.8594,26.7813 C62.8125,26.7813 61.5156,25.6875 61.5156,23.9844 L61.5156,22.8906 C61.5156,21.1094 62.7656,19.7969 64.5,19.7969 C65.0781,19.7969 65.6875,19.9531 66.1563,20.2031 C66.6406,20.4844 66.8125,20.7031 66.9063,21.1094 C66.9688,21.5156 67,21.6406 67.1406,21.7656 C67.2813,21.9063 67.5156,22.0156 67.7344,22.0156 C68,22.0156 68.2656,21.875 68.4375,21.6563 C68.5469,21.5 68.5781,21.3125 68.5781,20.8906 L68.5781,19.4688 C68.5781,19.0313 68.5625,18.9063 68.4688,18.75 C68.3125,18.4844 68.0313,18.3438 67.7344,18.3438 C67.4375,18.3438 67.2344,18.4375 67.0156,18.75 L66.8438,18.6719 Z " fill="#000000"/><text fill="#000000" font-family="sans-serif" font-size="12" lengthAdjust="spacing" textLength="27" x="78.5" y="27.1543">Main</text><line style="stroke:#A80036;stroke-width:1.5;" x1="50.5" x2="107.5" y1="39" y2="39"/><line style="stroke:#A80036;stroke-width:1.5;" x1="50.5" x2="107.5" y1="47" y2="47"/><!--MD5=[6b9d41c4d2109889341963a046548f85]
class LerFicheiro--><rect codeLine="6" fill="#FEFECE" filter="url(#fe0cwjgo6637a)" height="60.8047" id="LerFicheiro" style="stroke:#A80036;stroke-width:1.5;" width="144" x="7" y="115"/><ellipse cx="42.25" cy="131" fill="#ADD1B2" rx="11" ry="11" style="stroke:#A80036;stroke-width:1.0;"/><path d="M44.5938,126.6719 C43.6563,126.2344 43.0625,126.0938 42.1875,126.0938 C39.5625,126.0938 37.5625,128.1719 37.5625,130.8906 L37.5625,132.0156 C37.5625,134.5938 39.6719,136.4844 42.5625,136.4844 C43.7813,136.4844 44.9375,136.1875 45.6875,135.6406 C46.2656,135.2344 46.5938,134.7813 46.5938,134.3906 C46.5938,133.9375 46.2031,133.5469 45.7344,133.5469 C45.5156,133.5469 45.3125,133.625 45.125,133.8125 C44.6719,134.2969 44.6719,134.2969 44.4844,134.3906 C44.0625,134.6563 43.375,134.7813 42.6094,134.7813 C40.5625,134.7813 39.2656,133.6875 39.2656,131.9844 L39.2656,130.8906 C39.2656,129.1094 40.5156,127.7969 42.25,127.7969 C42.8281,127.7969 43.4375,127.9531 43.9063,128.2031 C44.3906,128.4844 44.5625,128.7031 44.6563,129.1094 C44.7188,129.5156 44.75,129.6406 44.8906,129.7656 C45.0313,129.9063 45.2656,130.0156 45.4844,130.0156 C45.75,130.0156 46.0156,129.875 46.1875,129.6563 C46.2969,129.5 46.3281,129.3125 46.3281,128.8906 L46.3281,127.4688 C46.3281,127.0313 46.3125,126.9063 46.2188,126.75 C46.0625,126.4844 45.7813,126.3438 45.4844,126.3438 C45.1875,126.3438 44.9844,126.4375 44.7656,126.75 L44.5938,126.6719 Z " fill="#000000"/><text fill="#000000" font-family="sans-serif" font-size="12" lengthAdjust="spacing" textLength="67" x="60.75" y="135.1543">LerFicheiro</text><line style="stroke:#A80036;stroke-width:1.5;" x1="8" x2="150" y1="147" y2="147"/><line style="stroke:#A80036;stroke-width:1.5;" x1="8" x2="150" y1="155" y2="155"/><text fill="#000000" font-family="sans-serif" font-size="11" lengthAdjust="spacing" textLength="132" x="13" y="169.2104">+read(String fileName)</text><!--MD5=[b53edab4853a771fddc1a9607edd18db]
link Main to LerFicheiro--><path codeLine="10" d="M79,55.038 C79,70.65 79,91.582 79,109.2729 " fill="none" id="Main-to-LerFicheiro" style="stroke:#A80036;stroke-width:1.0;stroke-dasharray:7.0,7.0;"/><polygon fill="#A80036" points="79,114.6497,83,105.6497,79,109.6497,75,105.6497,79,114.6497" style="stroke:#A80036;stroke-width:1.0;"/><!--MD5=[9e11ea7497b84b3db3eec7e92a64b4ca]
@startuml
skinparam classAttributeIconSize 0

class Main {
}

class LerFicheiro {
  +read(String fileName)
}

Main ..> LerFicheiro
@enduml

PlantUML version 1.2021.01beta7(Unknown compile time)
(GPL source distribution)
Java Runtime: Java(TM) SE Runtime Environment
JVM: Java HotSpot(TM) 64-Bit Server VM
Default Encoding: UTF-8
Language: en
Country: US
--></g></svg>