<?xml version="1.0" encoding="UTF-8" standalone="no"?><svg xmlns="http://www.w3.org/2000/svg" xmlns:xlink="http://www.w3.org/1999/xlink" contentScriptType="application/ecmascript" contentStyleType="text/css" height="341px" preserveAspectRatio="none" style="width:498px;height:341px;" version="1.1" viewBox="0 0 498 341" width="498px" zoomAndPan="magnify"><defs><filter height="300%" id="fndcfzsek423f" width="300%" x="-1" y="-1"><feGaussianBlur result="blurOut" stdDeviation="2.0"/><feColorMatrix in="blurOut" result="blurOut2" type="matrix" values="0 0 0 0 0 0 0 0 0 0 0 0 0 0 0 0 0 0 .4 0"/><feOffset dx="4.0" dy="4.0" in="blurOut2" result="blurOut3"/><feBlend in="SourceGraphic" in2="blurOut3" mode="normal"/></filter></defs><g><rect fill="#FFFFFF" filter="url(#fndcfzsek423f)" height="140.5313" style="stroke:#A80036;stroke-width:1.0;" width="10" x="37" y="98.2969"/><rect fill="#FFFFFF" filter="url(#fndcfzsek423f)" height="119.3984" style="stroke:#A80036;stroke-width:1.0;" width="10" x="280" y="119.4297"/><rect fill="#FFFFFF" filter="url(#fndcfzsek423f)" height="30" style="stroke:#A80036;stroke-width:1.0;" width="10" x="418" y="172.6953"/><rect fill="#FFFFFF" filter="url(#fndcfzsek423f)" height="76.2656" style="stroke:#000000;stroke-width:2.0;" width="237.5" x="247" y="134.4297"/><line style="stroke:#A80036;stroke-width:1.0;stroke-dasharray:5.0,5.0;" x1="42" x2="42" y1="88.2969" y2="256.8281"/><line style="stroke:#A80036;stroke-width:1.0;stroke-dasharray:5.0,5.0;" x1="285" x2="285" y1="88.2969" y2="256.8281"/><line style="stroke:#A80036;stroke-width:1.0;stroke-dasharray:5.0,5.0;" x1="422.5" x2="422.5" y1="88.2969" y2="256.8281"/><text fill="#000000" font-family="sans-serif" font-size="14" lengthAdjust="spacing" textLength="68" x="5" y="84.9951">Utilizador</text><ellipse cx="42" cy="15" fill="#FEFECE" filter="url(#fndcfzsek423f)" rx="8" ry="8" style="stroke:#A80036;stroke-width:2.0;"/><path d="M42,23 L42,50 M29,31 L55,31 M42,50 L29,65 M42,50 L55,65 " fill="none" filter="url(#fndcfzsek423f)" style="stroke:#A80036;stroke-width:2.0;"/><text fill="#000000" font-family="sans-serif" font-size="14" lengthAdjust="spacing" textLength="68" x="5" y="268.8232">Utilizador</text><ellipse cx="42" cy="282.125" fill="#FEFECE" filter="url(#fndcfzsek423f)" rx="8" ry="8" style="stroke:#A80036;stroke-width:2.0;"/><path d="M42,290.125 L42,317.125 M29,298.125 L55,298.125 M42,317.125 L29,332.125 M42,317.125 L55,332.125 " fill="none" filter="url(#fndcfzsek423f)" style="stroke:#A80036;stroke-width:2.0;"/><rect fill="#FEFECE" filter="url(#fndcfzsek423f)" height="30.2969" style="stroke:#A80036;stroke-width:1.5;" width="52" x="257" y="53"/><text fill="#000000" font-family="sans-serif" font-size="14" lengthAdjust="spacing" textLength="38" x="264" y="72.9951">:Main</text><rect fill="#FEFECE" filter="url(#fndcfzsek423f)" height="30.2969" style="stroke:#A80036;stroke-width:1.5;" width="52" x="257" y="255.8281"/><text fill="#000000" font-family="sans-serif" font-size="14" lengthAdjust="spacing" textLength="38" x="264" y="275.8232">:Main</text><rect fill="#FEFECE" filter="url(#fndcfzsek423f)" height="30.2969" style="stroke:#A80036;stroke-width:1.5;" width="99" x="371.5" y="53"/><text fill="#000000" font-family="sans-serif" font-size="14" lengthAdjust="spacing" textLength="85" x="378.5" y="72.9951">:LerFicheiro</text><rect fill="#FEFECE" filter="url(#fndcfzsek423f)" height="30.2969" style="stroke:#A80036;stroke-width:1.5;" width="99" x="371.5" y="255.8281"/><text fill="#000000" font-family="sans-serif" font-size="14" lengthAdjust="spacing" textLength="85" x="378.5" y="275.8232">:LerFicheiro</text><rect fill="#FFFFFF" filter="url(#fndcfzsek423f)" height="140.5313" style="stroke:#A80036;stroke-width:1.0;" width="10" x="37" y="98.2969"/><rect fill="#FFFFFF" filter="url(#fndcfzsek423f)" height="119.3984" style="stroke:#A80036;stroke-width:1.0;" width="10" x="280" y="119.4297"/><rect fill="#FFFFFF" filter="url(#fndcfzsek423f)" height="30" style="stroke:#A80036;stroke-width:1.0;" width="10" x="418" y="172.6953"/><polygon fill="#A80036" points="268,115.4297,278,119.4297,268,123.4297,272,119.4297" style="stroke:#A80036;stroke-width:1.0;"/><line style="stroke:#A80036;stroke-width:1.0;" x1="47" x2="274" y1="119.4297" y2="119.4297"/><text fill="#000000" font-family="sans-serif" font-size="13" font-weight="bold" lengthAdjust="spacing" textLength="9" x="54" y="114.3638">1</text><text fill="#000000" font-family="sans-serif" font-size="13" lengthAdjust="spacing" textLength="108" x="67" y="114.3638">inicia a aplicação</text><path d="M247,134.4297 L325,134.4297 L325,141.4297 L315,151.4297 L247,151.4297 L247,134.4297 " fill="#EEEEEE" style="stroke:#000000;stroke-width:1.0;"/><rect fill="none" height="76.2656" style="stroke:#000000;stroke-width:2.0;" width="237.5" x="247" y="134.4297"/><text fill="#000000" font-family="sans-serif" font-size="13" font-weight="bold" lengthAdjust="spacing" textLength="33" x="262" y="147.4966">loop</text><polygon fill="#A80036" points="406,168.6953,416,172.6953,406,176.6953,410,172.6953" style="stroke:#A80036;stroke-width:1.0;"/><line style="stroke:#A80036;stroke-width:1.0;" x1="290" x2="412" y1="172.6953" y2="172.6953"/><text fill="#000000" font-family="sans-serif" font-size="13" font-weight="bold" lengthAdjust="spacing" textLength="9" x="297" y="167.6294">2</text><text fill="#000000" font-family="sans-serif" font-size="13" lengthAdjust="spacing" textLength="96" x="310" y="167.6294">read(fileName)</text><polygon fill="#A80036" points="53,234.8281,43,238.8281,53,242.8281,49,238.8281" style="stroke:#A80036;stroke-width:1.0;"/><line style="stroke:#A80036;stroke-width:1.0;stroke-dasharray:2.0,2.0;" x1="47" x2="284" y1="238.8281" y2="238.8281"/><text fill="#000000" font-family="sans-serif" font-size="13" font-weight="bold" lengthAdjust="spacing" textLength="8" x="59" y="233.7622">3</text><text fill="#000000" font-family="sans-serif" font-size="13" lengthAdjust="spacing" textLength="197" x="71" y="233.7622">leitura de dados bem sucedida</text><!--MD5=[e0dbc8be0c4bb5c8e2d59bd2b0fb7e80]
@startuml
autonumber
actor "Utilizador" as UTIL
participant ":Main" as MAIN
participant ":LerFicheiro" as LF

activate UTIL
UTIL -> MAIN : inicia a aplicação
activate MAIN
loop
MAIN -> LF : read(fileName)
activate LF
deactivate LF
end

MAIN - -> UTIL : leitura de dados bem sucedida
deactivate MAIN
deactivate UTIL
@enduml

PlantUML version 1.2021.01beta7(Unknown compile time)
(GPL source distribution)
Java Runtime: Java(TM) SE Runtime Environment
JVM: Java HotSpot(TM) 64-Bit Server VM
Default Encoding: UTF-8
Language: en
Country: US
--></g></svg>