<?xml version="1.0" encoding="UTF-8" standalone="no"?><svg xmlns="http://www.w3.org/2000/svg" xmlns:xlink="http://www.w3.org/1999/xlink" contentScriptType="application/ecmascript" contentStyleType="text/css" height="1135px" preserveAspectRatio="none" style="width:1875px;height:1135px;" version="1.1" viewBox="0 0 1875 1135" width="1875px" zoomAndPan="magnify"><defs><filter height="300%" id="f13vii1zu5zxfx" width="300%" x="-1" y="-1"><feGaussianBlur result="blurOut" stdDeviation="2.0"/><feColorMatrix in="blurOut" result="blurOut2" type="matrix" values="0 0 0 0 0 0 0 0 0 0 0 0 0 0 0 0 0 0 .4 0"/><feOffset dx="4.0" dy="4.0" in="blurOut2" result="blurOut3"/><feBlend in="SourceGraphic" in2="blurOut3" mode="normal"/></filter></defs><g><rect fill="#FFFFFF" filter="url(#f13vii1zu5zxfx)" height="935.3438" style="stroke:#A80036;stroke-width:1.0;" width="10" x="54" y="98.2969"/><rect fill="#FFFFFF" filter="url(#f13vii1zu5zxfx)" height="59.3984" style="stroke:#A80036;stroke-width:1.0;" width="10" x="418" y="119.4297"/><rect fill="#FFFFFF" filter="url(#f13vii1zu5zxfx)" height="339.8203" style="stroke:#A80036;stroke-width:1.0;" width="10" x="418" y="207.9609"/><rect fill="#FFFFFF" filter="url(#f13vii1zu5zxfx)" height="456.7266" style="stroke:#A80036;stroke-width:1.0;" width="10" x="418" y="576.9141"/><rect fill="#FFFFFF" filter="url(#f13vii1zu5zxfx)" height="58.2656" style="stroke:#A80036;stroke-width:1.0;" width="10" x="791" y="237.0938"/><rect fill="#FFFFFF" filter="url(#f13vii1zu5zxfx)" height="58.2656" style="stroke:#A80036;stroke-width:1.0;" width="10" x="791" y="340.6563"/><rect fill="#FFFFFF" filter="url(#f13vii1zu5zxfx)" height="58.2656" style="stroke:#A80036;stroke-width:1.0;" width="10" x="791" y="444.2188"/><rect fill="#FFFFFF" filter="url(#f13vii1zu5zxfx)" height="106.3984" style="stroke:#A80036;stroke-width:1.0;" width="10" x="791" y="606.0469"/><rect fill="#FFFFFF" filter="url(#f13vii1zu5zxfx)" height="106.3984" style="stroke:#A80036;stroke-width:1.0;" width="10" x="791" y="748.5781"/><rect fill="#FFFFFF" filter="url(#f13vii1zu5zxfx)" height="106.3984" style="stroke:#A80036;stroke-width:1.0;" width="10" x="791" y="891.1094"/><rect fill="#FFFFFF" filter="url(#f13vii1zu5zxfx)" height="29.1328" style="stroke:#A80036;stroke-width:1.0;" width="10" x="994" y="266.2266"/><rect fill="#FFFFFF" filter="url(#f13vii1zu5zxfx)" height="77.2656" style="stroke:#A80036;stroke-width:1.0;" width="10" x="994" y="635.1797"/><rect fill="#FFFFFF" filter="url(#f13vii1zu5zxfx)" height="29.1328" style="stroke:#A80036;stroke-width:1.0;" width="10" x="1178" y="473.3516"/><rect fill="#FFFFFF" filter="url(#f13vii1zu5zxfx)" height="77.2656" style="stroke:#A80036;stroke-width:1.0;" width="10" x="1178" y="920.2422"/><rect fill="#FFFFFF" filter="url(#f13vii1zu5zxfx)" height="29.1328" style="stroke:#A80036;stroke-width:1.0;" width="10" x="1362" y="369.7891"/><rect fill="#FFFFFF" filter="url(#f13vii1zu5zxfx)" height="77.2656" style="stroke:#A80036;stroke-width:1.0;" width="10" x="1362" y="777.7109"/><line style="stroke:#A80036;stroke-width:1.0;stroke-dasharray:5.0,5.0;" x1="59" x2="59" y1="88.2969" y2="1051.6406"/><line style="stroke:#A80036;stroke-width:1.0;stroke-dasharray:5.0,5.0;" x1="423" x2="423" y1="88.2969" y2="1051.6406"/><line style="stroke:#A80036;stroke-width:1.0;stroke-dasharray:5.0,5.0;" x1="796" x2="796" y1="88.2969" y2="1051.6406"/><line style="stroke:#A80036;stroke-width:1.0;stroke-dasharray:5.0,5.0;" x1="998.5" x2="998.5" y1="88.2969" y2="1051.6406"/><line style="stroke:#A80036;stroke-width:1.0;stroke-dasharray:5.0,5.0;" x1="1183" x2="1183" y1="88.2969" y2="1051.6406"/><line style="stroke:#A80036;stroke-width:1.0;stroke-dasharray:5.0,5.0;" x1="1366.5" x2="1366.5" y1="88.2969" y2="1051.6406"/><line style="stroke:#A80036;stroke-width:1.0;stroke-dasharray:5.0,5.0;" x1="1544.5" x2="1544.5" y1="306.875" y2="1051.6406"/><line style="stroke:#A80036;stroke-width:1.0;stroke-dasharray:5.0,5.0;" x1="1676.5" x2="1676.5" y1="514" y2="1051.6406"/><line style="stroke:#A80036;stroke-width:1.0;stroke-dasharray:5.0,5.0;" x1="1806.5" x2="1806.5" y1="410.4375" y2="1051.6406"/><text fill="#000000" font-family="sans-serif" font-size="14" lengthAdjust="spacing" textLength="102" x="5" y="84.9951">Administrador</text><ellipse cx="59" cy="15" fill="#FEFECE" filter="url(#f13vii1zu5zxfx)" rx="8" ry="8" style="stroke:#A80036;stroke-width:2.0;"/><path d="M59,23 L59,50 M46,31 L72,31 M59,50 L46,65 M59,50 L72,65 " fill="none" filter="url(#f13vii1zu5zxfx)" style="stroke:#A80036;stroke-width:2.0;"/><text fill="#000000" font-family="sans-serif" font-size="14" lengthAdjust="spacing" textLength="102" x="5" y="1063.6357">Administrador</text><ellipse cx="59" cy="1076.9375" fill="#FEFECE" filter="url(#f13vii1zu5zxfx)" rx="8" ry="8" style="stroke:#A80036;stroke-width:2.0;"/><path d="M59,1084.9375 L59,1111.9375 M46,1092.9375 L72,1092.9375 M59,1111.9375 L46,1126.9375 M59,1111.9375 L72,1126.9375 " fill="none" filter="url(#f13vii1zu5zxfx)" style="stroke:#A80036;stroke-width:2.0;"/><rect fill="#FEFECE" filter="url(#f13vii1zu5zxfx)" height="30.2969" style="stroke:#A80036;stroke-width:1.5;" width="156" x="343" y="53"/><text fill="#000000" font-family="sans-serif" font-size="14" lengthAdjust="spacing" textLength="142" x="350" y="72.9951">:RegistarFarmaciaUI</text><rect fill="#FEFECE" filter="url(#f13vii1zu5zxfx)" height="30.2969" style="stroke:#A80036;stroke-width:1.5;" width="156" x="343" y="1050.6406"/><text fill="#000000" font-family="sans-serif" font-size="14" lengthAdjust="spacing" textLength="142" x="350" y="1070.6357">:RegistarFarmaciaUI</text><rect fill="#FEFECE" filter="url(#f13vii1zu5zxfx)" height="30.2969" style="stroke:#A80036;stroke-width:1.5;" width="216" x="686" y="53"/><text fill="#000000" font-family="sans-serif" font-size="14" lengthAdjust="spacing" textLength="202" x="693" y="72.9951">:RegistarFarmaciaController</text><rect fill="#FEFECE" filter="url(#f13vii1zu5zxfx)" height="30.2969" style="stroke:#A80036;stroke-width:1.5;" width="216" x="686" y="1050.6406"/><text fill="#000000" font-family="sans-serif" font-size="14" lengthAdjust="spacing" textLength="202" x="693" y="1070.6357">:RegistarFarmaciaController</text><rect fill="#FEFECE" filter="url(#f13vii1zu5zxfx)" height="30.2969" style="stroke:#A80036;stroke-width:1.5;" width="99" x="947.5" y="53"/><text fill="#000000" font-family="sans-serif" font-size="14" lengthAdjust="spacing" textLength="85" x="954.5" y="72.9951">FarmaciaDB</text><rect fill="#FEFECE" filter="url(#f13vii1zu5zxfx)" height="30.2969" style="stroke:#A80036;stroke-width:1.5;" width="99" x="947.5" y="1050.6406"/><text fill="#000000" font-family="sans-serif" font-size="14" lengthAdjust="spacing" textLength="85" x="954.5" y="1070.6357">FarmaciaDB</text><rect fill="#FEFECE" filter="url(#f13vii1zu5zxfx)" height="30.2969" style="stroke:#A80036;stroke-width:1.5;" width="84" x="1139" y="53"/><text fill="#000000" font-family="sans-serif" font-size="14" lengthAdjust="spacing" textLength="70" x="1146" y="72.9951">ParqueDB</text><rect fill="#FEFECE" filter="url(#f13vii1zu5zxfx)" height="30.2969" style="stroke:#A80036;stroke-width:1.5;" width="84" x="1139" y="1050.6406"/><text fill="#000000" font-family="sans-serif" font-size="14" lengthAdjust="spacing" textLength="70" x="1146" y="1070.6357">ParqueDB</text><rect fill="#FEFECE" filter="url(#f13vii1zu5zxfx)" height="30.2969" style="stroke:#A80036;stroke-width:1.5;" width="103" x="1313.5" y="53"/><text fill="#000000" font-family="sans-serif" font-size="14" lengthAdjust="spacing" textLength="89" x="1320.5" y="72.9951">EnderecoDB</text><rect fill="#FEFECE" filter="url(#f13vii1zu5zxfx)" height="30.2969" style="stroke:#A80036;stroke-width:1.5;" width="103" x="1313.5" y="1050.6406"/><text fill="#000000" font-family="sans-serif" font-size="14" lengthAdjust="spacing" textLength="89" x="1320.5" y="1070.6357">EnderecoDB</text><rect fill="#FEFECE" filter="url(#f13vii1zu5zxfx)" height="30.2969" style="stroke:#A80036;stroke-width:1.5;" width="117" x="1484.5" y="1050.6406"/><text fill="#000000" font-family="sans-serif" font-size="14" lengthAdjust="spacing" textLength="103" x="1491.5" y="1070.6357">farm:Farmacia</text><rect fill="#FEFECE" filter="url(#f13vii1zu5zxfx)" height="30.2969" style="stroke:#A80036;stroke-width:1.5;" width="118" x="1615.5" y="1050.6406"/><text fill="#000000" font-family="sans-serif" font-size="14" lengthAdjust="spacing" textLength="104" x="1622.5" y="1070.6357">parque:Parque</text><rect fill="#FEFECE" filter="url(#f13vii1zu5zxfx)" height="30.2969" style="stroke:#A80036;stroke-width:1.5;" width="114" x="1747.5" y="1050.6406"/><text fill="#000000" font-family="sans-serif" font-size="14" lengthAdjust="spacing" textLength="100" x="1754.5" y="1070.6357">end:Endereco</text><rect fill="#FFFFFF" filter="url(#f13vii1zu5zxfx)" height="935.3438" style="stroke:#A80036;stroke-width:1.0;" width="10" x="54" y="98.2969"/><rect fill="#FFFFFF" filter="url(#f13vii1zu5zxfx)" height="59.3984" style="stroke:#A80036;stroke-width:1.0;" width="10" x="418" y="119.4297"/><rect fill="#FFFFFF" filter="url(#f13vii1zu5zxfx)" height="339.8203" style="stroke:#A80036;stroke-width:1.0;" width="10" x="418" y="207.9609"/><rect fill="#FFFFFF" filter="url(#f13vii1zu5zxfx)" height="456.7266" style="stroke:#A80036;stroke-width:1.0;" width="10" x="418" y="576.9141"/><rect fill="#FFFFFF" filter="url(#f13vii1zu5zxfx)" height="58.2656" style="stroke:#A80036;stroke-width:1.0;" width="10" x="791" y="237.0938"/><rect fill="#FFFFFF" filter="url(#f13vii1zu5zxfx)" height="58.2656" style="stroke:#A80036;stroke-width:1.0;" width="10" x="791" y="340.6563"/><rect fill="#FFFFFF" filter="url(#f13vii1zu5zxfx)" height="58.2656" style="stroke:#A80036;stroke-width:1.0;" width="10" x="791" y="444.2188"/><rect fill="#FFFFFF" filter="url(#f13vii1zu5zxfx)" height="106.3984" style="stroke:#A80036;stroke-width:1.0;" width="10" x="791" y="606.0469"/><rect fill="#FFFFFF" filter="url(#f13vii1zu5zxfx)" height="106.3984" style="stroke:#A80036;stroke-width:1.0;" width="10" x="791" y="748.5781"/><rect fill="#FFFFFF" filter="url(#f13vii1zu5zxfx)" height="106.3984" style="stroke:#A80036;stroke-width:1.0;" width="10" x="791" y="891.1094"/><rect fill="#FFFFFF" filter="url(#f13vii1zu5zxfx)" height="29.1328" style="stroke:#A80036;stroke-width:1.0;" width="10" x="994" y="266.2266"/><rect fill="#FFFFFF" filter="url(#f13vii1zu5zxfx)" height="77.2656" style="stroke:#A80036;stroke-width:1.0;" width="10" x="994" y="635.1797"/><rect fill="#FFFFFF" filter="url(#f13vii1zu5zxfx)" height="29.1328" style="stroke:#A80036;stroke-width:1.0;" width="10" x="1178" y="473.3516"/><rect fill="#FFFFFF" filter="url(#f13vii1zu5zxfx)" height="77.2656" style="stroke:#A80036;stroke-width:1.0;" width="10" x="1178" y="920.2422"/><rect fill="#FFFFFF" filter="url(#f13vii1zu5zxfx)" height="29.1328" style="stroke:#A80036;stroke-width:1.0;" width="10" x="1362" y="369.7891"/><rect fill="#FFFFFF" filter="url(#f13vii1zu5zxfx)" height="77.2656" style="stroke:#A80036;stroke-width:1.0;" width="10" x="1362" y="777.7109"/><polygon fill="#A80036" points="406,115.4297,416,119.4297,406,123.4297,410,119.4297" style="stroke:#A80036;stroke-width:1.0;"/><line style="stroke:#A80036;stroke-width:1.0;" x1="64" x2="412" y1="119.4297" y2="119.4297"/><text fill="#000000" font-family="sans-serif" font-size="13" font-weight="bold" lengthAdjust="spacing" textLength="9" x="71" y="114.3638">1</text><text fill="#000000" font-family="sans-serif" font-size="13" lengthAdjust="spacing" textLength="244" x="84" y="114.3638">inicia a criação de uma nova farmácia</text><polygon fill="#A80036" points="75,174.8281,65,178.8281,75,182.8281,71,178.8281" style="stroke:#A80036;stroke-width:1.0;"/><line style="stroke:#A80036;stroke-width:1.0;stroke-dasharray:2.0,2.0;" x1="69" x2="422" y1="178.8281" y2="178.8281"/><text fill="#000000" font-family="sans-serif" font-size="13" font-weight="bold" lengthAdjust="spacing" textLength="9" x="81" y="158.6294">2</text><text fill="#000000" font-family="sans-serif" font-size="13" lengthAdjust="spacing" textLength="317" x="94" y="143.4966">solicita dados da farmácia (NIF), dados do parque</text><text fill="#000000" font-family="sans-serif" font-size="13" lengthAdjust="spacing" textLength="234" x="98" y="158.6294">(morada, latitude, longitude, altitude</text><text fill="#000000" font-family="sans-serif" font-size="13" lengthAdjust="spacing" textLength="243" x="94" y="173.7622">e limite(número máximo de scooters)</text><polygon fill="#A80036" points="406,203.9609,416,207.9609,406,211.9609,410,207.9609" style="stroke:#A80036;stroke-width:1.0;"/><line style="stroke:#A80036;stroke-width:1.0;" x1="64" x2="412" y1="207.9609" y2="207.9609"/><text fill="#000000" font-family="sans-serif" font-size="13" font-weight="bold" lengthAdjust="spacing" textLength="8" x="71" y="202.895">3</text><text fill="#000000" font-family="sans-serif" font-size="13" lengthAdjust="spacing" textLength="185" x="83" y="202.895">introduz os dados solicitados</text><polygon fill="#A80036" points="779,233.0938,789,237.0938,779,241.0938,783,237.0938" style="stroke:#A80036;stroke-width:1.0;"/><line style="stroke:#A80036;stroke-width:1.0;" x1="428" x2="785" y1="237.0938" y2="237.0938"/><text fill="#000000" font-family="sans-serif" font-size="13" font-weight="bold" lengthAdjust="spacing" textLength="9" x="435" y="232.0278">4</text><text fill="#000000" font-family="sans-serif" font-size="13" lengthAdjust="spacing" textLength="120" x="448" y="232.0278">novaFarmacia(NIF)</text><polygon fill="#A80036" points="982,262.2266,992,266.2266,982,270.2266,986,266.2266" style="stroke:#A80036;stroke-width:1.0;"/><line style="stroke:#A80036;stroke-width:1.0;" x1="801" x2="988" y1="266.2266" y2="266.2266"/><text fill="#000000" font-family="sans-serif" font-size="13" font-weight="bold" lengthAdjust="spacing" textLength="9" x="808" y="261.1606">5</text><text fill="#000000" font-family="sans-serif" font-size="13" lengthAdjust="spacing" textLength="161" x="821" y="261.1606">farm=novaFarmacia(NIF)</text><polygon fill="#A80036" points="1472.5,291.3594,1482.5,295.3594,1472.5,299.3594,1476.5,295.3594" style="stroke:#A80036;stroke-width:1.0;"/><line style="stroke:#A80036;stroke-width:1.0;stroke-dasharray:2.0,2.0;" x1="999" x2="1478.5" y1="295.3594" y2="295.3594"/><text fill="#000000" font-family="sans-serif" font-size="13" font-weight="bold" lengthAdjust="spacing" textLength="9" x="1006" y="290.2935">6</text><text fill="#000000" font-family="sans-serif" font-size="13" lengthAdjust="spacing" textLength="70" x="1019" y="290.2935">create(NIF)</text><rect fill="#FEFECE" filter="url(#f13vii1zu5zxfx)" height="30.2969" style="stroke:#A80036;stroke-width:1.5;" width="117" x="1484.5" y="274.2266"/><text fill="#000000" font-family="sans-serif" font-size="14" lengthAdjust="spacing" textLength="103" x="1491.5" y="294.2217">farm:Farmacia</text><polygon fill="#A80036" points="779,336.6563,789,340.6563,779,344.6563,783,340.6563" style="stroke:#A80036;stroke-width:1.0;"/><line style="stroke:#A80036;stroke-width:1.0;" x1="428" x2="785" y1="340.6563" y2="340.6563"/><text fill="#000000" font-family="sans-serif" font-size="13" font-weight="bold" lengthAdjust="spacing" textLength="9" x="435" y="335.5903">7</text><text fill="#000000" font-family="sans-serif" font-size="13" lengthAdjust="spacing" textLength="331" x="448" y="335.5903">novoEndereco(morada, latitude, longitude, altitude)</text><polygon fill="#A80036" points="1350,365.7891,1360,369.7891,1350,373.7891,1354,369.7891" style="stroke:#A80036;stroke-width:1.0;"/><line style="stroke:#A80036;stroke-width:1.0;" x1="801" x2="1356" y1="369.7891" y2="369.7891"/><text fill="#000000" font-family="sans-serif" font-size="13" font-weight="bold" lengthAdjust="spacing" textLength="9" x="808" y="364.7231">8</text><text fill="#000000" font-family="sans-serif" font-size="13" lengthAdjust="spacing" textLength="357" x="821" y="364.7231">end=novoEndereco(morada, latitude, logitude, altitude)</text><polygon fill="#A80036" points="1735.5,394.9219,1745.5,398.9219,1735.5,402.9219,1739.5,398.9219" style="stroke:#A80036;stroke-width:1.0;"/><line style="stroke:#A80036;stroke-width:1.0;stroke-dasharray:2.0,2.0;" x1="1367" x2="1741.5" y1="398.9219" y2="398.9219"/><text fill="#000000" font-family="sans-serif" font-size="13" font-weight="bold" lengthAdjust="spacing" textLength="9" x="1374" y="393.856">9</text><text fill="#000000" font-family="sans-serif" font-size="13" lengthAdjust="spacing" textLength="272" x="1387" y="393.856">create(morada, latitude, logitude, altitude)</text><rect fill="#FEFECE" filter="url(#f13vii1zu5zxfx)" height="30.2969" style="stroke:#A80036;stroke-width:1.5;" width="114" x="1747.5" y="377.7891"/><text fill="#000000" font-family="sans-serif" font-size="14" lengthAdjust="spacing" textLength="100" x="1754.5" y="397.7842">end:Endereco</text><polygon fill="#A80036" points="779,440.2188,789,444.2188,779,448.2188,783,444.2188" style="stroke:#A80036;stroke-width:1.0;"/><line style="stroke:#A80036;stroke-width:1.0;" x1="428" x2="785" y1="444.2188" y2="444.2188"/><text fill="#000000" font-family="sans-serif" font-size="13" font-weight="bold" lengthAdjust="spacing" textLength="19" x="435" y="439.1528">10</text><text fill="#000000" font-family="sans-serif" font-size="13" lengthAdjust="spacing" textLength="272" x="458" y="439.1528">novoParque(NIF, morada, numeroMaximo)</text><polygon fill="#A80036" points="1166,469.3516,1176,473.3516,1166,477.3516,1170,473.3516" style="stroke:#A80036;stroke-width:1.0;"/><line style="stroke:#A80036;stroke-width:1.0;" x1="801" x2="1172" y1="473.3516" y2="473.3516"/><text fill="#000000" font-family="sans-serif" font-size="13" font-weight="bold" lengthAdjust="spacing" textLength="18" x="808" y="468.2856">11</text><text fill="#000000" font-family="sans-serif" font-size="13" lengthAdjust="spacing" textLength="327" x="830" y="468.2856">parque=novoParque(NIF, morada, numeroMaximo)</text><polygon fill="#A80036" points="1603.5,498.4844,1613.5,502.4844,1603.5,506.4844,1607.5,502.4844" style="stroke:#A80036;stroke-width:1.0;"/><line style="stroke:#A80036;stroke-width:1.0;stroke-dasharray:2.0,2.0;" x1="1183" x2="1609.5" y1="502.4844" y2="502.4844"/><text fill="#000000" font-family="sans-serif" font-size="13" font-weight="bold" lengthAdjust="spacing" textLength="18" x="1190" y="497.4185">12</text><text fill="#000000" font-family="sans-serif" font-size="13" lengthAdjust="spacing" textLength="236" x="1212" y="497.4185">create(NIF, morada, numeroMaximo)</text><rect fill="#FEFECE" filter="url(#f13vii1zu5zxfx)" height="30.2969" style="stroke:#A80036;stroke-width:1.5;" width="118" x="1615.5" y="481.3516"/><text fill="#000000" font-family="sans-serif" font-size="14" lengthAdjust="spacing" textLength="104" x="1622.5" y="501.3467">parque:Parque</text><polygon fill="#A80036" points="75,543.7813,65,547.7813,75,551.7813,71,547.7813" style="stroke:#A80036;stroke-width:1.0;"/><line style="stroke:#A80036;stroke-width:1.0;stroke-dasharray:2.0,2.0;" x1="69" x2="422" y1="547.7813" y2="547.7813"/><text fill="#000000" font-family="sans-serif" font-size="13" font-weight="bold" lengthAdjust="spacing" textLength="17" x="81" y="542.7153">13</text><text fill="#000000" font-family="sans-serif" font-size="13" lengthAdjust="spacing" textLength="252" x="102" y="542.7153">apresenta dados e solicita confirmação</text><polygon fill="#A80036" points="406,572.9141,416,576.9141,406,580.9141,410,576.9141" style="stroke:#A80036;stroke-width:1.0;"/><line style="stroke:#A80036;stroke-width:1.0;" x1="64" x2="412" y1="576.9141" y2="576.9141"/><text fill="#000000" font-family="sans-serif" font-size="13" font-weight="bold" lengthAdjust="spacing" textLength="18" x="71" y="571.8481">14</text><text fill="#000000" font-family="sans-serif" font-size="13" lengthAdjust="spacing" textLength="57" x="93" y="571.8481">confirma</text><polygon fill="#A80036" points="779,602.0469,789,606.0469,779,610.0469,783,606.0469" style="stroke:#A80036;stroke-width:1.0;"/><line style="stroke:#A80036;stroke-width:1.0;" x1="428" x2="785" y1="606.0469" y2="606.0469"/><text fill="#000000" font-family="sans-serif" font-size="13" font-weight="bold" lengthAdjust="spacing" textLength="18" x="435" y="600.981">15</text><text fill="#000000" font-family="sans-serif" font-size="13" lengthAdjust="spacing" textLength="144" x="457" y="600.981">registaFarmacia(farm)</text><polygon fill="#A80036" points="982,631.1797,992,635.1797,982,639.1797,986,635.1797" style="stroke:#A80036;stroke-width:1.0;"/><line style="stroke:#A80036;stroke-width:1.0;" x1="801" x2="988" y1="635.1797" y2="635.1797"/><text fill="#000000" font-family="sans-serif" font-size="13" font-weight="bold" lengthAdjust="spacing" textLength="18" x="808" y="630.1138">16</text><text fill="#000000" font-family="sans-serif" font-size="13" lengthAdjust="spacing" textLength="144" x="830" y="630.1138">registaFarmacia(farm)</text><line style="stroke:#A80036;stroke-width:1.0;" x1="1004" x2="1046" y1="664.3125" y2="664.3125"/><line style="stroke:#A80036;stroke-width:1.0;" x1="1046" x2="1046" y1="664.3125" y2="677.3125"/><line style="stroke:#A80036;stroke-width:1.0;" x1="1005" x2="1046" y1="677.3125" y2="677.3125"/><polygon fill="#A80036" points="1015,673.3125,1005,677.3125,1015,681.3125,1011,677.3125" style="stroke:#A80036;stroke-width:1.0;"/><text fill="#000000" font-family="sans-serif" font-size="13" font-weight="bold" lengthAdjust="spacing" textLength="18" x="1011" y="659.2466">17</text><text fill="#000000" font-family="sans-serif" font-size="13" lengthAdjust="spacing" textLength="138" x="1033" y="659.2466">validaFarmacia(farm)</text><line style="stroke:#A80036;stroke-width:1.0;" x1="1004" x2="1046" y1="711.4453" y2="711.4453"/><line style="stroke:#A80036;stroke-width:1.0;" x1="1046" x2="1046" y1="711.4453" y2="724.4453"/><line style="stroke:#A80036;stroke-width:1.0;" x1="999" x2="1046" y1="724.4453" y2="724.4453"/><polygon fill="#A80036" points="1009,720.4453,999,724.4453,1009,728.4453,1005,724.4453" style="stroke:#A80036;stroke-width:1.0;"/><text fill="#000000" font-family="sans-serif" font-size="13" font-weight="bold" lengthAdjust="spacing" textLength="18" x="1011" y="706.3794">18</text><text fill="#000000" font-family="sans-serif" font-size="13" lengthAdjust="spacing" textLength="124" x="1033" y="706.3794">addFarmacia(farm)</text><polygon fill="#A80036" points="779,744.5781,789,748.5781,779,752.5781,783,748.5781" style="stroke:#A80036;stroke-width:1.0;"/><line style="stroke:#A80036;stroke-width:1.0;" x1="428" x2="785" y1="748.5781" y2="748.5781"/><text fill="#000000" font-family="sans-serif" font-size="13" font-weight="bold" lengthAdjust="spacing" textLength="18" x="435" y="743.5122">19</text><text fill="#000000" font-family="sans-serif" font-size="13" lengthAdjust="spacing" textLength="138" x="457" y="743.5122">registaEndereco(end)</text><polygon fill="#A80036" points="1350,773.7109,1360,777.7109,1350,781.7109,1354,777.7109" style="stroke:#A80036;stroke-width:1.0;"/><line style="stroke:#A80036;stroke-width:1.0;" x1="801" x2="1356" y1="777.7109" y2="777.7109"/><text fill="#000000" font-family="sans-serif" font-size="13" font-weight="bold" lengthAdjust="spacing" textLength="19" x="808" y="772.645">20</text><text fill="#000000" font-family="sans-serif" font-size="13" lengthAdjust="spacing" textLength="138" x="831" y="772.645">registaEndereco(end)</text><line style="stroke:#A80036;stroke-width:1.0;" x1="1372" x2="1414" y1="806.8438" y2="806.8438"/><line style="stroke:#A80036;stroke-width:1.0;" x1="1414" x2="1414" y1="806.8438" y2="819.8438"/><line style="stroke:#A80036;stroke-width:1.0;" x1="1373" x2="1414" y1="819.8438" y2="819.8438"/><polygon fill="#A80036" points="1383,815.8438,1373,819.8438,1383,823.8438,1379,819.8438" style="stroke:#A80036;stroke-width:1.0;"/><text fill="#000000" font-family="sans-serif" font-size="13" font-weight="bold" lengthAdjust="spacing" textLength="18" x="1379" y="801.7778">21</text><text fill="#000000" font-family="sans-serif" font-size="13" lengthAdjust="spacing" textLength="132" x="1401" y="801.7778">validaEndereco(end)</text><line style="stroke:#A80036;stroke-width:1.0;" x1="1372" x2="1414" y1="853.9766" y2="853.9766"/><line style="stroke:#A80036;stroke-width:1.0;" x1="1414" x2="1414" y1="853.9766" y2="866.9766"/><line style="stroke:#A80036;stroke-width:1.0;" x1="1367" x2="1414" y1="866.9766" y2="866.9766"/><polygon fill="#A80036" points="1377,862.9766,1367,866.9766,1377,870.9766,1373,866.9766" style="stroke:#A80036;stroke-width:1.0;"/><text fill="#000000" font-family="sans-serif" font-size="13" font-weight="bold" lengthAdjust="spacing" textLength="18" x="1379" y="848.9106">22</text><text fill="#000000" font-family="sans-serif" font-size="13" lengthAdjust="spacing" textLength="118" x="1401" y="848.9106">addEndereco(end)</text><polygon fill="#A80036" points="779,887.1094,789,891.1094,779,895.1094,783,891.1094" style="stroke:#A80036;stroke-width:1.0;"/><line style="stroke:#A80036;stroke-width:1.0;" x1="428" x2="785" y1="891.1094" y2="891.1094"/><text fill="#000000" font-family="sans-serif" font-size="13" font-weight="bold" lengthAdjust="spacing" textLength="17" x="435" y="886.0435">23</text><text fill="#000000" font-family="sans-serif" font-size="13" lengthAdjust="spacing" textLength="144" x="456" y="886.0435">registaParque(parque)</text><polygon fill="#A80036" points="1166,916.2422,1176,920.2422,1166,924.2422,1170,920.2422" style="stroke:#A80036;stroke-width:1.0;"/><line style="stroke:#A80036;stroke-width:1.0;" x1="801" x2="1172" y1="920.2422" y2="920.2422"/><text fill="#000000" font-family="sans-serif" font-size="13" font-weight="bold" lengthAdjust="spacing" textLength="18" x="808" y="915.1763">24</text><text fill="#000000" font-family="sans-serif" font-size="13" lengthAdjust="spacing" textLength="144" x="830" y="915.1763">registaParque(parque)</text><line style="stroke:#A80036;stroke-width:1.0;" x1="1188" x2="1230" y1="949.375" y2="949.375"/><line style="stroke:#A80036;stroke-width:1.0;" x1="1230" x2="1230" y1="949.375" y2="962.375"/><line style="stroke:#A80036;stroke-width:1.0;" x1="1189" x2="1230" y1="962.375" y2="962.375"/><polygon fill="#A80036" points="1199,958.375,1189,962.375,1199,966.375,1195,962.375" style="stroke:#A80036;stroke-width:1.0;"/><text fill="#000000" font-family="sans-serif" font-size="13" font-weight="bold" lengthAdjust="spacing" textLength="18" x="1195" y="944.3091">25</text><text fill="#000000" font-family="sans-serif" font-size="13" lengthAdjust="spacing" textLength="138" x="1217" y="944.3091">validaParque(parque)</text><line style="stroke:#A80036;stroke-width:1.0;" x1="1188" x2="1230" y1="996.5078" y2="996.5078"/><line style="stroke:#A80036;stroke-width:1.0;" x1="1230" x2="1230" y1="996.5078" y2="1009.5078"/><line style="stroke:#A80036;stroke-width:1.0;" x1="1183" x2="1230" y1="1009.5078" y2="1009.5078"/><polygon fill="#A80036" points="1193,1005.5078,1183,1009.5078,1193,1013.5078,1189,1009.5078" style="stroke:#A80036;stroke-width:1.0;"/><text fill="#000000" font-family="sans-serif" font-size="13" font-weight="bold" lengthAdjust="spacing" textLength="18" x="1195" y="991.4419">26</text><text fill="#000000" font-family="sans-serif" font-size="13" lengthAdjust="spacing" textLength="124" x="1217" y="991.4419">addParque(parque)</text><polygon fill="#A80036" points="70,1029.6406,60,1033.6406,70,1037.6406,66,1033.6406" style="stroke:#A80036;stroke-width:1.0;"/><line style="stroke:#A80036;stroke-width:1.0;stroke-dasharray:2.0,2.0;" x1="64" x2="422" y1="1033.6406" y2="1033.6406"/><text fill="#000000" font-family="sans-serif" font-size="13" font-weight="bold" lengthAdjust="spacing" textLength="18" x="76" y="1028.5747">27</text><text fill="#000000" font-family="sans-serif" font-size="13" lengthAdjust="spacing" textLength="154" x="98" y="1028.5747">operação bem sucedida</text><!--MD5=[4a9ec21b0f85fb14df628a826aa9cf32]
@startuml
autonumber
actor "Administrador" as ADM

participant ":RegistarFarmaciaUI" as UI
participant ":RegistarFarmaciaController" as CTRL
participant "FarmaciaDB" as DB
participant "ParqueDB" as PDB
participant "EnderecoDB" as EDB
participant "farm:Farmacia" as FARMACIA
participant "parque:Parque" as PQ
participant "end:Endereco" as END

activate ADM
ADM -> UI : inicia a criação de uma nova farmácia
activate UI
UI - -> ADM : solicita dados da farmácia (NIF), dados do parque\n (morada, latitude, longitude, altitude \ne limite(número máximo de scooters)
deactivate UI

ADM -> UI : introduz os dados solicitados
activate UI
UI -> CTRL : novaFarmacia(NIF)
activate CTRL

CTRL -> DB: farm=novaFarmacia(NIF)
activate DB
DB - -> FARMACIA ** : create(NIF)
deactivate DB
deactivate CTRL

UI -> CTRL : novoEndereco(morada, latitude, longitude, altitude)
activate CTRL
CTRL -> EDB: end=novoEndereco(morada, latitude, logitude, altitude)
activate EDB
EDB - -> END ** : create(morada, latitude, logitude, altitude)
deactivate EDB
deactivate CTRL

UI -> CTRL : novoParque(NIF, morada, numeroMaximo)
activate CTRL
CTRL -> PDB: parque=novoParque(NIF, morada, numeroMaximo)
activate PDB
PDB - -> PQ ** : create(NIF, morada, numeroMaximo)
deactivate PDB

deactivate CTRL
UI - -> ADM : apresenta dados e solicita confirmação
deactivate UI

ADM -> UI : confirma
activate UI

UI -> CTRL: registaFarmacia(farm)
activate CTRL
CTRL ->DB: registaFarmacia(farm)
activate DB
DB -> DB: validaFarmacia(farm)
DB -> DB: addFarmacia(farm)

deactivate DB
deactivate CTRL

UI -> CTRL: registaEndereco(end)
activate CTRL
CTRL ->EDB: registaEndereco(end)
activate EDB
EDB -> EDB: validaEndereco(end)
EDB -> EDB: addEndereco(end)

deactivate EDB
deactivate CTRL

UI -> CTRL: registaParque(parque)
activate CTRL
CTRL ->PDB: registaParque(parque)
activate PDB
PDB -> PDB: validaParque(parque)
PDB -> PDB: addParque(parque)

deactivate PDB
deactivate CTRL

UI - -> ADM : operação bem sucedida
deactivate UI

deactivate ADM
@enduml

PlantUML version 1.2020.27beta8(Unknown compile time)
(GPL source distribution)
Java Runtime: Java(TM) SE Runtime Environment
JVM: Java HotSpot(TM) 64-Bit Server VM
Default Encoding: UTF-8
Language: en
Country: US
--></g></svg>