<?xml version="1.0" encoding="UTF-8" standalone="no"?><svg xmlns="http://www.w3.org/2000/svg" xmlns:xlink="http://www.w3.org/1999/xlink" contentScriptType="application/ecmascript" contentStyleType="text/css" height="1051px" preserveAspectRatio="none" style="width:1387px;height:1051px;" version="1.1" viewBox="0 0 1387 1051" width="1387px" zoomAndPan="magnify"><defs><filter height="300%" id="f1x7tyf90yl9ab" width="300%" x="-1" y="-1"><feGaussianBlur result="blurOut" stdDeviation="2.0"/><feColorMatrix in="blurOut" result="blurOut2" type="matrix" values="0 0 0 0 0 0 0 0 0 0 0 0 0 0 0 0 0 0 .4 0"/><feOffset dx="4.0" dy="4.0" in="blurOut2" result="blurOut3"/><feBlend in="SourceGraphic" in2="blurOut3" mode="normal"/></filter></defs><g><!--MD5=[6613c9cd406ef433ff06f5e98b28abd9]
class Farmacia--><rect codeLine="3" fill="#FEFECE" filter="url(#f1x7tyf90yl9ab)" height="99.2188" id="Farmacia" style="stroke:#A80036;stroke-width:1.5;" width="233" x="144.5" y="560"/><ellipse cx="228.25" cy="576" fill="#ADD1B2" rx="11" ry="11" style="stroke:#A80036;stroke-width:1.0;"/><path d="M231.2188,581.6406 Q230.6406,581.9375 230,582.0781 Q229.3594,582.2344 228.6563,582.2344 Q226.1563,582.2344 224.8281,580.5938 Q223.5156,578.9375 223.5156,575.8125 Q223.5156,572.6875 224.8281,571.0313 Q226.1563,569.375 228.6563,569.375 Q229.3594,569.375 230,569.5313 Q230.6563,569.6875 231.2188,569.9844 L231.2188,572.7031 Q230.5938,572.125 230,571.8594 Q229.4063,571.5781 228.7813,571.5781 Q227.4375,571.5781 226.75,572.6563 Q226.0625,573.7188 226.0625,575.8125 Q226.0625,577.9063 226.75,578.9844 Q227.4375,580.0469 228.7813,580.0469 Q229.4063,580.0469 230,579.7813 Q230.5938,579.5 231.2188,578.9219 L231.2188,581.6406 Z " fill="#000000"/><text fill="#000000" font-family="sans-serif" font-size="12" lengthAdjust="spacingAndGlyphs" textLength="57" x="248.75" y="580.1543">Farmacia</text><line style="stroke:#A80036;stroke-width:1.5;" x1="145.5" x2="376.5" y1="592" y2="592"/><text fill="#000000" font-family="sans-serif" font-size="11" lengthAdjust="spacingAndGlyphs" textLength="65" x="150.5" y="606.2104">-Integer NIF</text><text fill="#000000" font-family="sans-serif" font-size="11" lengthAdjust="spacingAndGlyphs" textLength="73" x="150.5" y="619.0151">-String email</text><text fill="#000000" font-family="sans-serif" font-size="11" lengthAdjust="spacingAndGlyphs" textLength="86" x="150.5" y="631.8198">-String morada</text><line style="stroke:#A80036;stroke-width:1.5;" x1="145.5" x2="376.5" y1="638.4141" y2="638.4141"/><text fill="#000000" font-family="sans-serif" font-size="11" lengthAdjust="spacingAndGlyphs" textLength="221" x="150.5" y="652.6245">+Farmacia(Integer NIF, email, morada)</text><!--MD5=[36c1942e8942a3e4f47e6de3733e3d18]
class Endereco--><rect codeLine="10" fill="#FEFECE" filter="url(#f1x7tyf90yl9ab)" height="112.0234" id="Endereco" style="stroke:#A80036;stroke-width:1.5;" width="453" x="310.5" y="925"/><ellipse cx="502.75" cy="941" fill="#ADD1B2" rx="11" ry="11" style="stroke:#A80036;stroke-width:1.0;"/><path d="M505.7188,946.6406 Q505.1406,946.9375 504.5,947.0781 Q503.8594,947.2344 503.1563,947.2344 Q500.6563,947.2344 499.3281,945.5938 Q498.0156,943.9375 498.0156,940.8125 Q498.0156,937.6875 499.3281,936.0313 Q500.6563,934.375 503.1563,934.375 Q503.8594,934.375 504.5,934.5313 Q505.1563,934.6875 505.7188,934.9844 L505.7188,937.7031 Q505.0938,937.125 504.5,936.8594 Q503.9063,936.5781 503.2813,936.5781 Q501.9375,936.5781 501.25,937.6563 Q500.5625,938.7188 500.5625,940.8125 Q500.5625,942.9063 501.25,943.9844 Q501.9375,945.0469 503.2813,945.0469 Q503.9063,945.0469 504.5,944.7813 Q505.0938,944.5 505.7188,943.9219 L505.7188,946.6406 Z " fill="#000000"/><text fill="#000000" font-family="sans-serif" font-size="12" lengthAdjust="spacingAndGlyphs" textLength="60" x="523.25" y="945.1543">Endereco</text><line style="stroke:#A80036;stroke-width:1.5;" x1="311.5" x2="762.5" y1="957" y2="957"/><text fill="#000000" font-family="sans-serif" font-size="11" lengthAdjust="spacingAndGlyphs" textLength="86" x="316.5" y="971.2104">-String morada</text><text fill="#000000" font-family="sans-serif" font-size="11" lengthAdjust="spacingAndGlyphs" textLength="89" x="316.5" y="984.0151">-Double latitude</text><text fill="#000000" font-family="sans-serif" font-size="11" lengthAdjust="spacingAndGlyphs" textLength="99" x="316.5" y="996.8198">-Double longitude</text><text fill="#000000" font-family="sans-serif" font-size="11" lengthAdjust="spacingAndGlyphs" textLength="89" x="316.5" y="1009.6245">-Double altitude</text><line style="stroke:#A80036;stroke-width:1.5;" x1="311.5" x2="762.5" y1="1016.2188" y2="1016.2188"/><text fill="#000000" font-family="sans-serif" font-size="11" lengthAdjust="spacingAndGlyphs" textLength="441" x="316.5" y="1030.4292">+Endereco(String morada, Double latitude, Double longitude, Double altitude)</text><!--MD5=[1a083dbe42a284ae0ea7f6f701783206]
class Parque--><rect codeLine="18" fill="#FEFECE" filter="url(#f1x7tyf90yl9ab)" height="112.0234" id="Parque" style="stroke:#A80036;stroke-width:1.5;" width="434" x="320" y="736"/><ellipse cx="510.25" cy="752" fill="#ADD1B2" rx="11" ry="11" style="stroke:#A80036;stroke-width:1.0;"/><path d="M513.2188,757.6406 Q512.6406,757.9375 512,758.0781 Q511.3594,758.2344 510.6563,758.2344 Q508.1563,758.2344 506.8281,756.5938 Q505.5156,754.9375 505.5156,751.8125 Q505.5156,748.6875 506.8281,747.0313 Q508.1563,745.375 510.6563,745.375 Q511.3594,745.375 512,745.5313 Q512.6563,745.6875 513.2188,745.9844 L513.2188,748.7031 Q512.5938,748.125 512,747.8594 Q511.4063,747.5781 510.7813,747.5781 Q509.4375,747.5781 508.75,748.6563 Q508.0625,749.7188 508.0625,751.8125 Q508.0625,753.9063 508.75,754.9844 Q509.4375,756.0469 510.7813,756.0469 Q511.4063,756.0469 512,755.7813 Q512.5938,755.5 513.2188,754.9219 L513.2188,757.6406 Z " fill="#000000"/><text fill="#000000" font-family="sans-serif" font-size="12" lengthAdjust="spacingAndGlyphs" textLength="45" x="530.75" y="756.1543">Parque</text><line style="stroke:#A80036;stroke-width:1.5;" x1="321" x2="753" y1="768" y2="768"/><text fill="#000000" font-family="sans-serif" font-size="11" lengthAdjust="spacingAndGlyphs" textLength="65" x="326" y="782.2104">-Integer NIF</text><text fill="#000000" font-family="sans-serif" font-size="11" lengthAdjust="spacingAndGlyphs" textLength="135" x="326" y="795.0151">-Integer numeroMaximo</text><text fill="#000000" font-family="sans-serif" font-size="11" lengthAdjust="spacingAndGlyphs" textLength="63" x="326" y="807.8198">-String tipo</text><text fill="#000000" font-family="sans-serif" font-size="11" lengthAdjust="spacingAndGlyphs" textLength="94" x="326" y="820.6245">-Integer maxCap</text><line style="stroke:#A80036;stroke-width:1.5;" x1="321" x2="753" y1="827.2188" y2="827.2188"/><text fill="#000000" font-family="sans-serif" font-size="11" lengthAdjust="spacingAndGlyphs" textLength="422" x="326" y="841.4292">+Parque(Integer NIF, Integer numeroMaximo, String tipo, Integer maxCap)</text><!--MD5=[364aec0fc02518cb9ab31cd04b585b1a]
class FarmaciaDB--><rect codeLine="26" fill="#FEFECE" filter="url(#f1x7tyf90yl9ab)" height="99.2188" id="FarmaciaDB" style="stroke:#A80036;stroke-width:1.5;" width="272" x="59" y="302"/><ellipse cx="153.75" cy="318" fill="#ADD1B2" rx="11" ry="11" style="stroke:#A80036;stroke-width:1.0;"/><path d="M156.7188,323.6406 Q156.1406,323.9375 155.5,324.0781 Q154.8594,324.2344 154.1563,324.2344 Q151.6563,324.2344 150.3281,322.5938 Q149.0156,320.9375 149.0156,317.8125 Q149.0156,314.6875 150.3281,313.0313 Q151.6563,311.375 154.1563,311.375 Q154.8594,311.375 155.5,311.5313 Q156.1563,311.6875 156.7188,311.9844 L156.7188,314.7031 Q156.0938,314.125 155.5,313.8594 Q154.9063,313.5781 154.2813,313.5781 Q152.9375,313.5781 152.25,314.6563 Q151.5625,315.7188 151.5625,317.8125 Q151.5625,319.9063 152.25,320.9844 Q152.9375,322.0469 154.2813,322.0469 Q154.9063,322.0469 155.5,321.7813 Q156.0938,321.5 156.7188,320.9219 L156.7188,323.6406 Z " fill="#000000"/><text fill="#000000" font-family="sans-serif" font-size="12" lengthAdjust="spacingAndGlyphs" textLength="74" x="174.25" y="322.1543">FarmaciaDB</text><line style="stroke:#A80036;stroke-width:1.5;" x1="60" x2="330" y1="334" y2="334"/><line style="stroke:#A80036;stroke-width:1.5;" x1="60" x2="330" y1="342" y2="342"/><text fill="#000000" font-family="sans-serif" font-size="11" lengthAdjust="spacingAndGlyphs" textLength="260" x="65" y="356.2104">+Farmacia novaFarmacia(NIF, email, morada)</text><text fill="#000000" font-family="sans-serif" font-size="11" lengthAdjust="spacingAndGlyphs" textLength="192" x="65" y="369.0151">+registaFarmacia(Farmacia farm)</text><text fill="#000000" font-family="sans-serif" font-size="11" lengthAdjust="spacingAndGlyphs" textLength="185" x="65" y="381.8198">+validaFarmacia(Farmacia farm)</text><text fill="#000000" font-family="sans-serif" font-size="11" lengthAdjust="spacingAndGlyphs" textLength="168" x="65" y="394.6245">-addFarmacia(Farmacia farm)</text><!--MD5=[a8381305e32feabadf74eb10f0c047ba]
class EnderecoDB--><rect codeLine="33" fill="#FEFECE" filter="url(#f1x7tyf90yl9ab)" height="99.2188" id="EnderecoDB" style="stroke:#A80036;stroke-width:1.5;" width="537" x="836.5" y="431"/><ellipse cx="1062.25" cy="447" fill="#ADD1B2" rx="11" ry="11" style="stroke:#A80036;stroke-width:1.0;"/><path d="M1065.2188,452.6406 Q1064.6406,452.9375 1064,453.0781 Q1063.3594,453.2344 1062.6563,453.2344 Q1060.1563,453.2344 1058.8281,451.5938 Q1057.5156,449.9375 1057.5156,446.8125 Q1057.5156,443.6875 1058.8281,442.0313 Q1060.1563,440.375 1062.6563,440.375 Q1063.3594,440.375 1064,440.5313 Q1064.6563,440.6875 1065.2188,440.9844 L1065.2188,443.7031 Q1064.5938,443.125 1064,442.8594 Q1063.4063,442.5781 1062.7813,442.5781 Q1061.4375,442.5781 1060.75,443.6563 Q1060.0625,444.7188 1060.0625,446.8125 Q1060.0625,448.9063 1060.75,449.9844 Q1061.4375,451.0469 1062.7813,451.0469 Q1063.4063,451.0469 1064,450.7813 Q1064.5938,450.5 1065.2188,449.9219 L1065.2188,452.6406 Z " fill="#000000"/><text fill="#000000" font-family="sans-serif" font-size="12" lengthAdjust="spacingAndGlyphs" textLength="77" x="1082.75" y="451.1543">EnderecoDB</text><line style="stroke:#A80036;stroke-width:1.5;" x1="837.5" x2="1372.5" y1="463" y2="463"/><line style="stroke:#A80036;stroke-width:1.5;" x1="837.5" x2="1372.5" y1="471" y2="471"/><text fill="#000000" font-family="sans-serif" font-size="11" lengthAdjust="spacingAndGlyphs" textLength="525" x="842.5" y="485.2104">+Endereco novoEndereco(String morada, Double latitude, Double longitude, Double altitude)</text><text fill="#000000" font-family="sans-serif" font-size="11" lengthAdjust="spacingAndGlyphs" textLength="188" x="842.5" y="498.0151">+registaEndereco(Endereco end)</text><text fill="#000000" font-family="sans-serif" font-size="11" lengthAdjust="spacingAndGlyphs" textLength="181" x="842.5" y="510.8198">+validaEndereco(Endereco end)</text><text fill="#000000" font-family="sans-serif" font-size="11" lengthAdjust="spacingAndGlyphs" textLength="164" x="842.5" y="523.6245">-addEndereco(Endereco end)</text><!--MD5=[021650fd5270df78a3629eada2205323]
class ParqueDB--><rect codeLine="40" fill="#FEFECE" filter="url(#f1x7tyf90yl9ab)" height="99.2188" id="ParqueDB" style="stroke:#A80036;stroke-width:1.5;" width="505" x="284.5" y="431"/><ellipse cx="501.75" cy="447" fill="#ADD1B2" rx="11" ry="11" style="stroke:#A80036;stroke-width:1.0;"/><path d="M504.7188,452.6406 Q504.1406,452.9375 503.5,453.0781 Q502.8594,453.2344 502.1563,453.2344 Q499.6563,453.2344 498.3281,451.5938 Q497.0156,449.9375 497.0156,446.8125 Q497.0156,443.6875 498.3281,442.0313 Q499.6563,440.375 502.1563,440.375 Q502.8594,440.375 503.5,440.5313 Q504.1563,440.6875 504.7188,440.9844 L504.7188,443.7031 Q504.0938,443.125 503.5,442.8594 Q502.9063,442.5781 502.2813,442.5781 Q500.9375,442.5781 500.25,443.6563 Q499.5625,444.7188 499.5625,446.8125 Q499.5625,448.9063 500.25,449.9844 Q500.9375,451.0469 502.2813,451.0469 Q502.9063,451.0469 503.5,450.7813 Q504.0938,450.5 504.7188,449.9219 L504.7188,452.6406 Z " fill="#000000"/><text fill="#000000" font-family="sans-serif" font-size="12" lengthAdjust="spacingAndGlyphs" textLength="62" x="522.25" y="451.1543">ParqueDB</text><line style="stroke:#A80036;stroke-width:1.5;" x1="285.5" x2="788.5" y1="463" y2="463"/><line style="stroke:#A80036;stroke-width:1.5;" x1="285.5" x2="788.5" y1="471" y2="471"/><text fill="#000000" font-family="sans-serif" font-size="11" lengthAdjust="spacingAndGlyphs" textLength="493" x="290.5" y="485.2104">+Parque novoParque(Integer NIF, Integer numeroMaximo, String tipo, Integer maxCap)</text><text fill="#000000" font-family="sans-serif" font-size="11" lengthAdjust="spacingAndGlyphs" textLength="221" x="290.5" y="498.0151">+registaParques(List&lt;Parque&gt; lparks)</text><text fill="#000000" font-family="sans-serif" font-size="11" lengthAdjust="spacingAndGlyphs" textLength="174" x="290.5" y="510.8198">+validaParque(Parque parque)</text><text fill="#000000" font-family="sans-serif" font-size="11" lengthAdjust="spacingAndGlyphs" textLength="157" x="290.5" y="523.6245">-addParque(Parque parque)</text><!--MD5=[292cbfdf48ee96a1c6d5c40c7ba01c14]
class RegistarFarmaciaController--><rect codeLine="47" fill="#FEFECE" filter="url(#f1x7tyf90yl9ab)" height="124.8281" id="RegistarFarmaciaController" style="stroke:#A80036;stroke-width:1.5;" width="461" x="229.5" y="116"/><ellipse cx="370.75" cy="132" fill="#ADD1B2" rx="11" ry="11" style="stroke:#A80036;stroke-width:1.0;"/><path d="M373.7188,137.6406 Q373.1406,137.9375 372.5,138.0781 Q371.8594,138.2344 371.1563,138.2344 Q368.6563,138.2344 367.3281,136.5938 Q366.0156,134.9375 366.0156,131.8125 Q366.0156,128.6875 367.3281,127.0313 Q368.6563,125.375 371.1563,125.375 Q371.8594,125.375 372.5,125.5313 Q373.1563,125.6875 373.7188,125.9844 L373.7188,128.7031 Q373.0938,128.125 372.5,127.8594 Q371.9063,127.5781 371.2813,127.5781 Q369.9375,127.5781 369.25,128.6563 Q368.5625,129.7188 368.5625,131.8125 Q368.5625,133.9063 369.25,134.9844 Q369.9375,136.0469 371.2813,136.0469 Q371.9063,136.0469 372.5,135.7813 Q373.0938,135.5 373.7188,134.9219 L373.7188,137.6406 Z " fill="#000000"/><text fill="#000000" font-family="sans-serif" font-size="12" lengthAdjust="spacingAndGlyphs" textLength="170" x="391.25" y="136.1543">RegistarFarmaciaController</text><line style="stroke:#A80036;stroke-width:1.5;" x1="230.5" x2="689.5" y1="148" y2="148"/><line style="stroke:#A80036;stroke-width:1.5;" x1="230.5" x2="689.5" y1="156" y2="156"/><text fill="#000000" font-family="sans-serif" font-size="11" lengthAdjust="spacingAndGlyphs" textLength="449" x="235.5" y="170.2104">+novoParque(Integer NIF, Integer numeroMaximo, String tipo, Integer maxCap)</text><text fill="#000000" font-family="sans-serif" font-size="11" lengthAdjust="spacingAndGlyphs" textLength="204" x="235.5" y="183.0151">+novaFarmacia(NIF, email, morada)</text><text fill="#000000" font-family="sans-serif" font-size="11" lengthAdjust="spacingAndGlyphs" textLength="301" x="235.5" y="195.8198">+novoEndereco(morada, latitude, longitude, altitude)</text><text fill="#000000" font-family="sans-serif" font-size="11" lengthAdjust="spacingAndGlyphs" textLength="131" x="235.5" y="208.6245">+registaEndereco(end)</text><text fill="#000000" font-family="sans-serif" font-size="11" lengthAdjust="spacingAndGlyphs" textLength="136" x="235.5" y="221.4292">+registaFarmacia(farm)</text><text fill="#000000" font-family="sans-serif" font-size="11" lengthAdjust="spacingAndGlyphs" textLength="139" x="235.5" y="234.2339">+registaParques(lparks)</text><!--MD5=[16f25527ba70f62c202fb8dd84cb3d2e]
class RegistarFarmaciaUI--><rect codeLine="56" fill="#FEFECE" filter="url(#f1x7tyf90yl9ab)" height="48" id="RegistarFarmaciaUI" style="stroke:#A80036;stroke-width:1.5;" width="153" x="383.5" y="7"/><ellipse cx="398.5" cy="23" fill="#ADD1B2" rx="11" ry="11" style="stroke:#A80036;stroke-width:1.0;"/><path d="M401.4688,28.6406 Q400.8906,28.9375 400.25,29.0781 Q399.6094,29.2344 398.9063,29.2344 Q396.4063,29.2344 395.0781,27.5938 Q393.7656,25.9375 393.7656,22.8125 Q393.7656,19.6875 395.0781,18.0313 Q396.4063,16.375 398.9063,16.375 Q399.6094,16.375 400.25,16.5313 Q400.9063,16.6875 401.4688,16.9844 L401.4688,19.7031 Q400.8438,19.125 400.25,18.8594 Q399.6563,18.5781 399.0313,18.5781 Q397.6875,18.5781 397,19.6563 Q396.3125,20.7188 396.3125,22.8125 Q396.3125,24.9063 397,25.9844 Q397.6875,27.0469 399.0313,27.0469 Q399.6563,27.0469 400.25,26.7813 Q400.8438,26.5 401.4688,25.9219 L401.4688,28.6406 Z " fill="#000000"/><text fill="#000000" font-family="sans-serif" font-size="12" lengthAdjust="spacingAndGlyphs" textLength="121" x="412.5" y="27.1543">RegistarFarmaciaUI</text><line style="stroke:#A80036;stroke-width:1.5;" x1="384.5" x2="535.5" y1="39" y2="39"/><line style="stroke:#A80036;stroke-width:1.5;" x1="384.5" x2="535.5" y1="47" y2="47"/><!--MD5=[f96a217cc99f82e5dda83e4db29e3f0d]
link RegistarFarmaciaUI to RegistarFarmaciaController--><path codeLine="60" d="M460,55.0267 C460,70.3035 460,90.9083 460,110.9053 " fill="none" id="RegistarFarmaciaUI-to-RegistarFarmaciaController" style="stroke:#A80036;stroke-width:1.0;stroke-dasharray:7.0,7.0;"/><polygon fill="#A80036" points="460,115.9726,464,106.9726,460,110.9726,456,106.9726,460,115.9726" style="stroke:#A80036;stroke-width:1.0;"/><!--MD5=[cf385d46b982f44bba418de29d938ed9]
link RegistarFarmaciaController to ParqueDB--><path codeLine="61" d="M475.9544,241.0746 C489.8661,295.6372 509.8417,373.9829 523.1075,426.0124 " fill="none" id="RegistarFarmaciaController-to-ParqueDB" style="stroke:#A80036;stroke-width:1.0;stroke-dasharray:7.0,7.0;"/><polygon fill="#A80036" points="524.3699,430.9637,526.0224,421.2545,523.1346,426.1187,518.2704,423.2309,524.3699,430.9637" style="stroke:#A80036;stroke-width:1.0;"/><!--MD5=[cedf4e2fac6be50e74b26344cb9b6128]
link RegistarFarmaciaController to EnderecoDB--><path codeLine="62" d="M690.9852,218.213 C741.2063,231.3778 793.0273,248.6077 839,271 C920.895,310.8893 1001.1109,379.251 1051.6728,426.999 " fill="none" id="RegistarFarmaciaController-to-EnderecoDB" style="stroke:#A80036;stroke-width:1.0;stroke-dasharray:7.0,7.0;"/><polygon fill="#A80036" points="1055.5636,430.688,1051.7847,421.5929,1051.9352,427.2478,1046.2804,427.3983,1055.5636,430.688" style="stroke:#A80036;stroke-width:1.0;"/><!--MD5=[ee0f888f82e00ad1821accfbab9741d8]
link RegistarFarmaciaController to FarmaciaDB--><path codeLine="63" d="M363.9542,241.2016 C334.9906,260.1099 303.507,280.6634 275.6527,298.8475 " fill="none" id="RegistarFarmaciaController-to-FarmaciaDB" style="stroke:#A80036;stroke-width:1.0;stroke-dasharray:7.0,7.0;"/><polygon fill="#A80036" points="271.2144,301.745,280.9372,300.1744,275.4012,299.0117,276.5639,293.4756,271.2144,301.745" style="stroke:#A80036;stroke-width:1.0;"/><!--MD5=[aa9f67082c51c82a1ba912278ea26989]
link RegistarFarmaciaController to Parque--><path codeLine="64" d="M592.1793,241.0814 C665.2695,283.4828 749.4838,347.1129 791,431 C847.6869,545.5408 722.7229,664.0497 628.7233,732.7473 " fill="none" id="RegistarFarmaciaController-to-Parque" style="stroke:#A80036;stroke-width:1.0;stroke-dasharray:7.0,7.0;"/><polygon fill="#A80036" points="624.5522,735.7779,634.1844,733.7237,628.5972,732.8389,629.482,727.2517,624.5522,735.7779" style="stroke:#A80036;stroke-width:1.0;"/><!--MD5=[1108c8e87a0035f633b3288171c413ba]
link RegistarFarmaciaController to Endereco--><path codeLine="65" d="M229.3424,225.4765 C117.0746,255.1977 6,298.0972 6,351.5 C6,351.5 6,351.5 6,792 C6,859.9361 162.217,909.7783 305.1879,941.1683 " fill="none" id="RegistarFarmaciaController-to-Endereco" style="stroke:#A80036;stroke-width:1.0;stroke-dasharray:7.0,7.0;"/><polygon fill="#A80036" points="310.268,942.2771,302.3281,936.4498,305.383,941.2108,300.622,944.2658,310.268,942.2771" style="stroke:#A80036;stroke-width:1.0;"/><!--MD5=[45e10d883f52dd70f1944020196c5274]
link RegistarFarmaciaController to Farmacia--><path codeLine="66" d="M441.2366,241.1316 C423.853,290.011 393.7084,356.8168 348,401 C325.1233,423.1134 301.7581,405.3002 283,431 C257.1906,466.3605 253.0527,516.5297 254.5899,554.6805 " fill="none" id="RegistarFarmaciaController-to-Farmacia" style="stroke:#A80036;stroke-width:1.0;stroke-dasharray:7.0,7.0;"/><polygon fill="#A80036" points="254.8298,559.7441,258.3992,550.5648,254.5931,554.7497,250.4082,550.9436,254.8298,559.7441" style="stroke:#A80036;stroke-width:1.0;"/><!--MD5=[e5dbbc54f46538fc7b7077d28b1f914b]
link ParqueDB to Parque--><path codeLine="68" d="M537,530.2025 C537,584.6416 537,671.9984 537,730.6602 " fill="none" id="ParqueDB-to-Parque" style="stroke:#A80036;stroke-width:1.0;"/><polygon fill="#A80036" points="537,735.8915,541,726.8915,537,730.8915,533,726.8915,537,735.8915" style="stroke:#A80036;stroke-width:1.0;"/><text fill="#000000" font-family="sans-serif" font-size="13" lengthAdjust="spacingAndGlyphs" textLength="41" x="538" y="614.0669">possui</text><text fill="#000000" font-family="sans-serif" font-size="13" lengthAdjust="spacingAndGlyphs" textLength="8" x="528.4375" y="550.3075">1</text><text fill="#000000" font-family="sans-serif" font-size="13" lengthAdjust="spacingAndGlyphs" textLength="7" x="529.5516" y="724.8156">*</text><!--MD5=[c023e2c3fa599b931e4bde319636976a]
link EnderecoDB to Endereco--><path codeLine="69" d="M1068.5189,530.0189 C1011.366,605.2595 894.5232,749.9675 772,848 C737.2649,875.7921 695.9917,901.2547 657.8001,922.2961 " fill="none" id="EnderecoDB-to-Endereco" style="stroke:#A80036;stroke-width:1.0;"/><polygon fill="#A80036" points="653.1585,924.8401,662.9733,924.0221,657.5431,922.4369,659.1283,917.0067,653.1585,924.8401" style="stroke:#A80036;stroke-width:1.0;"/><text fill="#000000" font-family="sans-serif" font-size="13" lengthAdjust="spacingAndGlyphs" textLength="41" x="937" y="702.0669">possui</text><text fill="#000000" font-family="sans-serif" font-size="13" lengthAdjust="spacingAndGlyphs" textLength="8" x="1054.5732" y="550.4541">1</text><text fill="#000000" font-family="sans-serif" font-size="13" lengthAdjust="spacingAndGlyphs" textLength="7" x="660.5929" y="913.7576">*</text><!--MD5=[3c539b0dd2212e8322efef71ee8cdfc2]
link FarmaciaDB to Farmacia--><path codeLine="70" d="M184.6421,401.2501 C179.2286,438.0036 176.5487,488.6246 192,530 C195.2907,538.8118 200.0473,547.2939 205.5473,555.2226 " fill="none" id="FarmaciaDB-to-Farmacia" style="stroke:#A80036;stroke-width:1.0;"/><polygon fill="#A80036" points="208.6747,559.5691,206.665,549.9275,205.7544,555.5105,200.1713,554.5999,208.6747,559.5691" style="stroke:#A80036;stroke-width:1.0;"/><text fill="#000000" font-family="sans-serif" font-size="13" lengthAdjust="spacingAndGlyphs" textLength="41" x="193" y="485.0669">possui</text><text fill="#000000" font-family="sans-serif" font-size="13" lengthAdjust="spacingAndGlyphs" textLength="8" x="174.623" y="421.3617">1</text><text fill="#000000" font-family="sans-serif" font-size="13" lengthAdjust="spacingAndGlyphs" textLength="7" x="194.1732" y="548.9129">*</text><!--MD5=[4f96609c99ecadb81dc825d0ae539cef]
link Farmacia to Parque--><path codeLine="71" d="M336.0536,659.1279 C370.5668,681.949 411.765,709.1906 447.8477,733.0497 " fill="none" id="Farmacia-to-Parque" style="stroke:#A80036;stroke-width:1.0;"/><polygon fill="#A80036" points="452.2219,735.942,446.9208,727.6415,448.0512,733.1843,442.5084,734.3147,452.2219,735.942" style="stroke:#A80036;stroke-width:1.0;"/><text fill="#000000" font-family="sans-serif" font-size="13" lengthAdjust="spacingAndGlyphs" textLength="26" x="400" y="702.0669">tem</text><text fill="#000000" font-family="sans-serif" font-size="13" lengthAdjust="spacingAndGlyphs" textLength="8" x="338.0455" y="679.2224">1</text><text fill="#000000" font-family="sans-serif" font-size="13" lengthAdjust="spacingAndGlyphs" textLength="8" x="432.8472" y="724.8725">1</text><!--MD5=[65c0b4ced80642714d633a5480d06ed6]
link Parque to Endereco--><path codeLine="72" d="M537,848.1945 C537,870.6524 537,896.5847 537,919.5409 " fill="none" id="Parque-to-Endereco" style="stroke:#A80036;stroke-width:1.0;"/><polygon fill="#A80036" points="537,924.6956,541,915.6956,537,919.6956,533,915.6956,537,924.6956" style="stroke:#A80036;stroke-width:1.0;"/><text fill="#000000" font-family="sans-serif" font-size="13" lengthAdjust="spacingAndGlyphs" textLength="26" x="538" y="891.0669">tem</text><text fill="#000000" font-family="sans-serif" font-size="13" lengthAdjust="spacingAndGlyphs" textLength="8" x="528.5125" y="868.0308">1</text><text fill="#000000" font-family="sans-serif" font-size="13" lengthAdjust="spacingAndGlyphs" textLength="8" x="528.5125" y="913.993">1</text><!--MD5=[3acfc65d9cde0b010adfd116c99c2b8e]
@startuml
skinparam classAttributeIconSize 0

class Farmacia {
  -Integer NIF
  -String email
  -String morada
  +Farmacia(Integer NIF, email, morada)
}

class Endereco {
  -String morada
  -Double latitude
  -Double longitude
  -Double altitude 
  +Endereco(String morada, Double latitude, Double longitude, Double altitude)
}

class Parque {
  -Integer NIF
  -Integer numeroMaximo
  -String tipo
  -Integer maxCap
  +Parque(Integer NIF, Integer numeroMaximo, String tipo, Integer maxCap)
}

class FarmaciaDB {
  +Farmacia novaFarmacia(NIF, email, morada)
  +registaFarmacia(Farmacia farm)
  +validaFarmacia(Farmacia farm)
  -addFarmacia(Farmacia farm)
}

class EnderecoDB {
  +Endereco novoEndereco(String morada, Double latitude, Double longitude, Double altitude)
  +registaEndereco(Endereco end)
  +validaEndereco(Endereco end)
  -addEndereco(Endereco end)
}

class ParqueDB {
  +Parque novoParque(Integer NIF, Integer numeroMaximo, String tipo, Integer maxCap)
  +registaParques(List<Parque> lparks)
  +validaParque(Parque parque)
  -addParque(Parque parque)
}

class RegistarFarmaciaController {
  +novoParque(Integer NIF, Integer numeroMaximo, String tipo, Integer maxCap)
  +novaFarmacia(NIF, email, morada)
  +novoEndereco(morada, latitude, longitude, altitude)
  +registaEndereco(end)
  +registaFarmacia(farm)
  +registaParques(lparks)
}

class RegistarFarmaciaUI {
  
}

RegistarFarmaciaUI ..> RegistarFarmaciaController
RegistarFarmaciaController ..> ParqueDB
RegistarFarmaciaController ..> EnderecoDB
RegistarFarmaciaController ..> FarmaciaDB
RegistarFarmaciaController ..> Parque
RegistarFarmaciaController ..> Endereco
RegistarFarmaciaController ..> Farmacia

ParqueDB "1" - -> "*" Parque : possui
EnderecoDB "1" - -> "*" Endereco : possui
FarmaciaDB "1" - -> "*" Farmacia : possui
Farmacia "1" - -> "1" Parque : tem
Parque "1" - -> "1" Endereco : tem
@enduml

PlantUML version 1.2020.22(Sun Dec 06 09:36:27 UTC 2020)
(GPL source distribution)
Java Runtime: OpenJDK Runtime Environment
JVM: OpenJDK 64-Bit Server VM
Default Encoding: UTF-8
Language: en
Country: US
--></g></svg>