<?xml version="1.0" encoding="UTF-8" standalone="no"?><svg xmlns="http://www.w3.org/2000/svg" xmlns:xlink="http://www.w3.org/1999/xlink" contentScriptType="application/ecmascript" contentStyleType="text/css" height="315px" preserveAspectRatio="none" style="width:739px;height:315px;" version="1.1" viewBox="0 0 739 315" width="739px" zoomAndPan="magnify"><defs><filter height="300%" id="f17hk4grwi3vgh" width="300%" x="-1" y="-1"><feGaussianBlur result="blurOut" stdDeviation="2.0"/><feColorMatrix in="blurOut" result="blurOut2" type="matrix" values="0 0 0 0 0 0 0 0 0 0 0 0 0 0 0 0 0 0 .4 0"/><feOffset dx="4.0" dy="4.0" in="blurOut2" result="blurOut3"/><feBlend in="SourceGraphic" in2="blurOut3" mode="normal"/></filter></defs><g><!--MD5=[6613c9cd406ef433ff06f5e98b28abd9]
class Farmacia--><rect codeLine="5" fill="#FEFECE" filter="url(#f17hk4grwi3vgh)" height="78.4141" id="Farmacia" style="stroke:#A80036;stroke-width:1.5;" width="89" x="7" y="153"/><ellipse cx="22" cy="169" fill="#ADD1B2" rx="11" ry="11" style="stroke:#A80036;stroke-width:1.0;"/><path d="M24.9688,174.6406 Q24.3906,174.9375 23.75,175.0781 Q23.1094,175.2344 22.4063,175.2344 Q19.9063,175.2344 18.5781,173.5938 Q17.2656,171.9375 17.2656,168.8125 Q17.2656,165.6875 18.5781,164.0313 Q19.9063,162.375 22.4063,162.375 Q23.1094,162.375 23.75,162.5313 Q24.4063,162.6875 24.9688,162.9844 L24.9688,165.7031 Q24.3438,165.125 23.75,164.8594 Q23.1563,164.5781 22.5313,164.5781 Q21.1875,164.5781 20.5,165.6563 Q19.8125,166.7188 19.8125,168.8125 Q19.8125,170.9063 20.5,171.9844 Q21.1875,173.0469 22.5313,173.0469 Q23.1563,173.0469 23.75,172.7813 Q24.3438,172.5 24.9688,171.9219 L24.9688,174.6406 Z " fill="#000000"/><text fill="#000000" font-family="sans-serif" font-size="12" lengthAdjust="spacingAndGlyphs" textLength="57" x="36" y="173.1543">Farmacia</text><line style="stroke:#A80036;stroke-width:1.5;" x1="8" x2="95" y1="185" y2="185"/><text fill="#000000" font-family="sans-serif" font-size="11" lengthAdjust="spacingAndGlyphs" textLength="21" x="13" y="199.2104">-NIF</text><text fill="#000000" font-family="sans-serif" font-size="11" lengthAdjust="spacingAndGlyphs" textLength="35" x="13" y="212.0151">-email</text><text fill="#000000" font-family="sans-serif" font-size="11" lengthAdjust="spacingAndGlyphs" textLength="48" x="13" y="224.8198">-morada</text><!--MD5=[5dd1d6732c071e710b9290b531f2fa3b]
class Utilizador--><rect codeLine="11" fill="#FEFECE" filter="url(#f17hk4grwi3vgh)" height="104.0234" id="Utilizador" style="stroke:#A80036;stroke-width:1.5;" width="155" x="570" y="7"/><ellipse cx="614.75" cy="23" fill="#ADD1B2" rx="11" ry="11" style="stroke:#A80036;stroke-width:1.0;"/><path d="M617.7188,28.6406 Q617.1406,28.9375 616.5,29.0781 Q615.8594,29.2344 615.1563,29.2344 Q612.6563,29.2344 611.3281,27.5938 Q610.0156,25.9375 610.0156,22.8125 Q610.0156,19.6875 611.3281,18.0313 Q612.6563,16.375 615.1563,16.375 Q615.8594,16.375 616.5,16.5313 Q617.1563,16.6875 617.7188,16.9844 L617.7188,19.7031 Q617.0938,19.125 616.5,18.8594 Q615.9063,18.5781 615.2813,18.5781 Q613.9375,18.5781 613.25,19.6563 Q612.5625,20.7188 612.5625,22.8125 Q612.5625,24.9063 613.25,25.9844 Q613.9375,27.0469 615.2813,27.0469 Q615.9063,27.0469 616.5,26.7813 Q617.0938,26.5 617.7188,25.9219 L617.7188,28.6406 Z " fill="#000000"/><text fill="#000000" font-family="sans-serif" font-size="12" lengthAdjust="spacingAndGlyphs" textLength="57" x="635.25" y="27.1543">Utilizador</text><line style="stroke:#A80036;stroke-width:1.5;" x1="571" x2="724" y1="39" y2="39"/><text fill="#000000" font-family="sans-serif" font-size="11" lengthAdjust="spacingAndGlyphs" textLength="21" x="576" y="53.2104">-NIF</text><text fill="#000000" font-family="sans-serif" font-size="11" lengthAdjust="spacingAndGlyphs" textLength="36" x="576" y="66.0151">-nome</text><text fill="#000000" font-family="sans-serif" font-size="11" lengthAdjust="spacingAndGlyphs" textLength="35" x="576" y="78.8198">-email</text><text fill="#000000" font-family="sans-serif" font-size="11" lengthAdjust="spacingAndGlyphs" textLength="143" x="576" y="91.6245">-numeroSegurancaSocial</text><text fill="#000000" font-family="sans-serif" font-size="11" lengthAdjust="spacingAndGlyphs" textLength="60" x="576" y="104.4292">-password</text><!--MD5=[fdcda49d453d44c676d62f3f6af62207]
class Administrador--><rect codeLine="19" fill="#FEFECE" filter="url(#f17hk4grwi3vgh)" height="104.0234" id="Administrador" style="stroke:#A80036;stroke-width:1.5;" width="155" x="197" y="7"/><ellipse cx="228.2" cy="23" fill="#ADD1B2" rx="11" ry="11" style="stroke:#A80036;stroke-width:1.0;"/><path d="M231.1688,28.6406 Q230.5906,28.9375 229.95,29.0781 Q229.3094,29.2344 228.6063,29.2344 Q226.1063,29.2344 224.7781,27.5938 Q223.4656,25.9375 223.4656,22.8125 Q223.4656,19.6875 224.7781,18.0313 Q226.1063,16.375 228.6063,16.375 Q229.3094,16.375 229.95,16.5313 Q230.6063,16.6875 231.1688,16.9844 L231.1688,19.7031 Q230.5438,19.125 229.95,18.8594 Q229.3563,18.5781 228.7313,18.5781 Q227.3875,18.5781 226.7,19.6563 Q226.0125,20.7188 226.0125,22.8125 Q226.0125,24.9063 226.7,25.9844 Q227.3875,27.0469 228.7313,27.0469 Q229.3563,27.0469 229.95,26.7813 Q230.5438,26.5 231.1688,25.9219 L231.1688,28.6406 Z " fill="#000000"/><text fill="#000000" font-family="sans-serif" font-size="12" lengthAdjust="spacingAndGlyphs" textLength="87" x="245.8" y="27.1543">Administrador</text><line style="stroke:#A80036;stroke-width:1.5;" x1="198" x2="351" y1="39" y2="39"/><text fill="#000000" font-family="sans-serif" font-size="11" lengthAdjust="spacingAndGlyphs" textLength="21" x="203" y="53.2104">-NIF</text><text fill="#000000" font-family="sans-serif" font-size="11" lengthAdjust="spacingAndGlyphs" textLength="36" x="203" y="66.0151">-nome</text><text fill="#000000" font-family="sans-serif" font-size="11" lengthAdjust="spacingAndGlyphs" textLength="35" x="203" y="78.8198">-email</text><text fill="#000000" font-family="sans-serif" font-size="11" lengthAdjust="spacingAndGlyphs" textLength="143" x="203" y="91.6245">-numeroSegurancaSocial</text><text fill="#000000" font-family="sans-serif" font-size="11" lengthAdjust="spacingAndGlyphs" textLength="60" x="203" y="104.4292">-password</text><!--MD5=[36c1942e8942a3e4f47e6de3733e3d18]
class Endereco--><rect codeLine="27" fill="#FEFECE" filter="url(#f17hk4grwi3vgh)" height="91.2188" id="Endereco" style="stroke:#A80036;stroke-width:1.5;" width="92" x="228.5" y="146.5"/><ellipse cx="243.5" cy="162.5" fill="#ADD1B2" rx="11" ry="11" style="stroke:#A80036;stroke-width:1.0;"/><path d="M246.4688,168.1406 Q245.8906,168.4375 245.25,168.5781 Q244.6094,168.7344 243.9063,168.7344 Q241.4063,168.7344 240.0781,167.0938 Q238.7656,165.4375 238.7656,162.3125 Q238.7656,159.1875 240.0781,157.5313 Q241.4063,155.875 243.9063,155.875 Q244.6094,155.875 245.25,156.0313 Q245.9063,156.1875 246.4688,156.4844 L246.4688,159.2031 Q245.8438,158.625 245.25,158.3594 Q244.6563,158.0781 244.0313,158.0781 Q242.6875,158.0781 242,159.1563 Q241.3125,160.2188 241.3125,162.3125 Q241.3125,164.4063 242,165.4844 Q242.6875,166.5469 244.0313,166.5469 Q244.6563,166.5469 245.25,166.2813 Q245.8438,166 246.4688,165.4219 L246.4688,168.1406 Z " fill="#000000"/><text fill="#000000" font-family="sans-serif" font-size="12" lengthAdjust="spacingAndGlyphs" textLength="60" x="257.5" y="166.6543">Endereco</text><line style="stroke:#A80036;stroke-width:1.5;" x1="229.5" x2="319.5" y1="178.5" y2="178.5"/><text fill="#000000" font-family="sans-serif" font-size="11" lengthAdjust="spacingAndGlyphs" textLength="48" x="234.5" y="192.7104">-morada</text><text fill="#000000" font-family="sans-serif" font-size="11" lengthAdjust="spacingAndGlyphs" textLength="46" x="234.5" y="205.5151">-latitude</text><text fill="#000000" font-family="sans-serif" font-size="11" lengthAdjust="spacingAndGlyphs" textLength="56" x="234.5" y="218.3198">-longitude</text><text fill="#000000" font-family="sans-serif" font-size="11" lengthAdjust="spacingAndGlyphs" textLength="46" x="234.5" y="231.1245">-altitude</text><!--MD5=[1a083dbe42a284ae0ea7f6f701783206]
class Parque--><rect codeLine="34" fill="#FEFECE" filter="url(#f17hk4grwi3vgh)" height="78.4141" id="Parque" style="stroke:#A80036;stroke-width:1.5;" width="103" x="596" y="198"/><ellipse cx="622.7" cy="214" fill="#ADD1B2" rx="11" ry="11" style="stroke:#A80036;stroke-width:1.0;"/><path d="M625.6688,219.6406 Q625.0906,219.9375 624.45,220.0781 Q623.8094,220.2344 623.1063,220.2344 Q620.6063,220.2344 619.2781,218.5938 Q617.9656,216.9375 617.9656,213.8125 Q617.9656,210.6875 619.2781,209.0313 Q620.6063,207.375 623.1063,207.375 Q623.8094,207.375 624.45,207.5313 Q625.1063,207.6875 625.6688,207.9844 L625.6688,210.7031 Q625.0438,210.125 624.45,209.8594 Q623.8563,209.5781 623.2313,209.5781 Q621.8875,209.5781 621.2,210.6563 Q620.5125,211.7188 620.5125,213.8125 Q620.5125,215.9063 621.2,216.9844 Q621.8875,218.0469 623.2313,218.0469 Q623.8563,218.0469 624.45,217.7813 Q625.0438,217.5 625.6688,216.9219 L625.6688,219.6406 Z " fill="#000000"/><text fill="#000000" font-family="sans-serif" font-size="12" lengthAdjust="spacingAndGlyphs" textLength="45" x="639.3" y="218.1543">Parque</text><line style="stroke:#A80036;stroke-width:1.5;" x1="597" x2="698" y1="230" y2="230"/><text fill="#000000" font-family="sans-serif" font-size="11" lengthAdjust="spacingAndGlyphs" textLength="91" x="602" y="244.2104">-numeroMaximo</text><text fill="#000000" font-family="sans-serif" font-size="11" lengthAdjust="spacingAndGlyphs" textLength="25" x="602" y="257.0151">-tipo</text><text fill="#000000" font-family="sans-serif" font-size="11" lengthAdjust="spacingAndGlyphs" textLength="50" x="602" y="269.8198">-maxCap</text><!--MD5=[b4161b205744775e44f73e41ced309e0]
link Administrador to Utilizador--><path codeLine="40" d="M352.239,59 C416.0776,59 506.0498,59 569.8611,59 " fill="none" id="Administrador-Utilizador" style="stroke:#A80036;stroke-width:1.0;"/><polygon fill="#000000" points="429,50.5664,419.9549,47.6275,419.9549,53.5053,429,50.5664" style="stroke:#000000;stroke-width:1.0;"/><text fill="#000000" font-family="sans-serif" font-size="13" lengthAdjust="spacingAndGlyphs" textLength="69" x="433" y="55.0669">atua como</text><text fill="#000000" font-family="sans-serif" font-size="13" lengthAdjust="spacingAndGlyphs" textLength="8" x="360.0297" y="71.787">1</text><text fill="#000000" font-family="sans-serif" font-size="13" lengthAdjust="spacingAndGlyphs" textLength="8" x="554.0799" y="71.787">1</text><!--MD5=[6ba179a0a54b0b32b52757b8e4d27c6d]
link Administrador to Parque--><path codeLine="41" d="M352.239,96.098 C425.3651,130.9946 532.7822,182.2553 595.8896,212.3709 " fill="none" id="Administrador-Parque" style="stroke:#A80036;stroke-width:1.0;"/><polygon fill="#000000" points="391.5125,105.7198,384.6151,99.1719,382.0836,104.4766,391.5125,105.7198" style="stroke:#000000;stroke-width:1.0;"/><text fill="#000000" font-family="sans-serif" font-size="13" lengthAdjust="spacingAndGlyphs" textLength="143" x="396" y="108.0669">define numeroMaximo</text><text fill="#000000" font-family="sans-serif" font-size="13" lengthAdjust="spacingAndGlyphs" textLength="8" x="360.0297" y="112.4209">1</text><text fill="#000000" font-family="sans-serif" font-size="13" lengthAdjust="spacingAndGlyphs" textLength="8" x="580.0694" y="222.0092">1</text><!--MD5=[4f96609c99ecadb81dc825d0ae539cef]
link Farmacia to Parque--><path codeLine="42" d="M96.1661,224.2888 C123.7492,242.1951 160.7026,262.6793 197,272 C337.9473,308.1934 511.1701,273.5576 595.8885,251.7359 " fill="none" id="Farmacia-Parque" style="stroke:#A80036;stroke-width:1.0;"/><polygon fill="#000000" points="256.4925,263.8406,247.6222,260.4101,247.2998,266.2791,256.4925,263.8406" style="stroke:#000000;stroke-width:1.0;"/><text fill="#000000" font-family="sans-serif" font-size="13" lengthAdjust="spacingAndGlyphs" textLength="41" x="260.5" y="268.0669">possui</text><text fill="#000000" font-family="sans-serif" font-size="13" lengthAdjust="spacingAndGlyphs" textLength="8" x="103.9223" y="242.6746">1</text><text fill="#000000" font-family="sans-serif" font-size="13" lengthAdjust="spacingAndGlyphs" textLength="7" x="581.1384" y="266.9099">*</text><!--MD5=[e9cb6b9ea8421b6538fc03abcb01a9a8]
link Farmacia to Endereco--><path codeLine="43" d="M96.0914,192 C134.4767,192 189.6505,192 228.4528,192 " fill="none" id="Farmacia-Endereco" style="stroke:#A80036;stroke-width:1.0;"/><polygon fill="#000000" points="136,183.5664,126.9549,180.6275,126.9549,186.5053,136,183.5664" style="stroke:#000000;stroke-width:1.0;"/><text fill="#000000" font-family="sans-serif" font-size="13" lengthAdjust="spacingAndGlyphs" textLength="26" x="140" y="188.0669">tem</text><text fill="#000000" font-family="sans-serif" font-size="13" lengthAdjust="spacingAndGlyphs" textLength="8" x="104.1394" y="205.2858">1</text><text fill="#000000" font-family="sans-serif" font-size="13" lengthAdjust="spacingAndGlyphs" textLength="8" x="212.4765" y="205.2554">1</text><!--MD5=[1eb578f81baca05fae5600e8efb79c07]
link Farmacia to Administrador--><path codeLine="44" d="M96.0914,165.4051 C124.8168,148.2729 162.9441,125.5333 196.5764,105.4746 " fill="none" id="Farmacia-Administrador" style="stroke:#A80036;stroke-width:1.0;"/><polygon fill="#000000" points="135.2942,115.0053,126.0205,117.1143,129.0313,122.1625,135.2942,115.0053" style="stroke:#000000;stroke-width:1.0;"/><text fill="#000000" font-family="sans-serif" font-size="13" lengthAdjust="spacingAndGlyphs" textLength="26" x="140" y="122.0669">tem</text><text fill="#000000" font-family="sans-serif" font-size="13" lengthAdjust="spacingAndGlyphs" textLength="8" x="104.1394" y="174.2861">1</text><text fill="#000000" font-family="sans-serif" font-size="13" lengthAdjust="spacingAndGlyphs" textLength="8" x="181.0241" y="122.5223">1</text><!--MD5=[dbe86e275c4ae6c0bc5ceaeeb00097a7]
@startuml
skinparam classAttributeIconSize 0
hide methods
left to right direction

class Farmacia {
  -NIF
  -email
  -morada
}

class Utilizador {
  -NIF
  -nome
  -email
  -numeroSegurancaSocial
  -password
}

class Administrador {
  -NIF
  -nome
  -email
  -numeroSegurancaSocial
  -password
}

class Endereco {
  -morada
  -latitude
  -longitude
  -altitude
}

class Parque {
  -numeroMaximo
  -tipo
  -maxCap
}

Administrador "1" - - "1" Utilizador: atua como >
Administrador "1" - - "1" Parque: define numeroMaximo >
Farmacia "1" - - "*" Parque: possui >
Farmacia "1" - - "1" Endereco: tem >
Farmacia "1" - - "1" Administrador: tem >
@enduml

PlantUML version 1.2020.22(Sun Dec 06 09:36:27 UTC 2020)
(GPL source distribution)
Java Runtime: OpenJDK Runtime Environment
JVM: OpenJDK 64-Bit Server VM
Default Encoding: UTF-8
Language: en
Country: US
--></g></svg>