<?xml version="1.0" encoding="UTF-8" standalone="no"?><svg xmlns="http://www.w3.org/2000/svg" xmlns:xlink="http://www.w3.org/1999/xlink" contentScriptType="application/ecmascript" contentStyleType="text/css" height="229px" preserveAspectRatio="none" style="width:897px;height:229px;" version="1.1" viewBox="0 0 897 229" width="897px" zoomAndPan="magnify"><defs><filter height="300%" id="frwfkgri8rmbk" width="300%" x="-1" y="-1"><feGaussianBlur result="blurOut" stdDeviation="2.0"/><feColorMatrix in="blurOut" result="blurOut2" type="matrix" values="0 0 0 0 0 0 0 0 0 0 0 0 0 0 0 0 0 0 .4 0"/><feOffset dx="4.0" dy="4.0" in="blurOut2" result="blurOut3"/><feBlend in="SourceGraphic" in2="blurOut3" mode="normal"/></filter></defs><g><!--MD5=[6613c9cd406ef433ff06f5e98b28abd9]
class Farmacia--><rect codeLine="5" fill="#FEFECE" filter="url(#frwfkgri8rmbk)" height="52.8047" id="Farmacia" style="stroke:#A80036;stroke-width:1.5;" width="86" x="7" y="65.5"/><ellipse cx="22" cy="81.5" fill="#ADD1B2" rx="11" ry="11" style="stroke:#A80036;stroke-width:1.0;"/><path d="M24.3438,77.1719 C23.4063,76.7344 22.8125,76.5938 21.9375,76.5938 C19.3125,76.5938 17.3125,78.6719 17.3125,81.3906 L17.3125,82.5156 C17.3125,85.0938 19.4219,86.9844 22.3125,86.9844 C23.5313,86.9844 24.6875,86.6875 25.4375,86.1406 C26.0156,85.7344 26.3438,85.2813 26.3438,84.8906 C26.3438,84.4375 25.9531,84.0469 25.4844,84.0469 C25.2656,84.0469 25.0625,84.125 24.875,84.3125 C24.4219,84.7969 24.4219,84.7969 24.2344,84.8906 C23.8125,85.1563 23.125,85.2813 22.3594,85.2813 C20.3125,85.2813 19.0156,84.1875 19.0156,82.4844 L19.0156,81.3906 C19.0156,79.6094 20.2656,78.2969 22,78.2969 C22.5781,78.2969 23.1875,78.4531 23.6563,78.7031 C24.1406,78.9844 24.3125,79.2031 24.4063,79.6094 C24.4688,80.0156 24.5,80.1406 24.6406,80.2656 C24.7813,80.4063 25.0156,80.5156 25.2344,80.5156 C25.5,80.5156 25.7656,80.375 25.9375,80.1563 C26.0469,80 26.0781,79.8125 26.0781,79.3906 L26.0781,77.9688 C26.0781,77.5313 26.0625,77.4063 25.9688,77.25 C25.8125,76.9844 25.5313,76.8438 25.2344,76.8438 C24.9375,76.8438 24.7344,76.9375 24.5156,77.25 L24.3438,77.1719 Z " fill="#000000"/><text fill="#000000" font-family="sans-serif" font-size="12" lengthAdjust="spacing" textLength="54" x="36" y="85.6543">Farmacia</text><line style="stroke:#A80036;stroke-width:1.5;" x1="8" x2="92" y1="97.5" y2="97.5"/><text fill="#000000" font-family="sans-serif" font-size="11" lengthAdjust="spacing" textLength="21" x="13" y="111.7104">-NIF</text><!--MD5=[3f1202280bfe3359d2f91fb9b6e32986]
class Estafeta--><rect codeLine="9" fill="#FEFECE" filter="url(#frwfkgri8rmbk)" height="104.0234" id="Estafeta" style="stroke:#A80036;stroke-width:1.5;" width="155" x="429" y="7"/><ellipse cx="478.25" cy="23" fill="#ADD1B2" rx="11" ry="11" style="stroke:#A80036;stroke-width:1.0;"/><path d="M480.5938,18.6719 C479.6563,18.2344 479.0625,18.0938 478.1875,18.0938 C475.5625,18.0938 473.5625,20.1719 473.5625,22.8906 L473.5625,24.0156 C473.5625,26.5938 475.6719,28.4844 478.5625,28.4844 C479.7813,28.4844 480.9375,28.1875 481.6875,27.6406 C482.2656,27.2344 482.5938,26.7813 482.5938,26.3906 C482.5938,25.9375 482.2031,25.5469 481.7344,25.5469 C481.5156,25.5469 481.3125,25.625 481.125,25.8125 C480.6719,26.2969 480.6719,26.2969 480.4844,26.3906 C480.0625,26.6563 479.375,26.7813 478.6094,26.7813 C476.5625,26.7813 475.2656,25.6875 475.2656,23.9844 L475.2656,22.8906 C475.2656,21.1094 476.5156,19.7969 478.25,19.7969 C478.8281,19.7969 479.4375,19.9531 479.9063,20.2031 C480.3906,20.4844 480.5625,20.7031 480.6563,21.1094 C480.7188,21.5156 480.75,21.6406 480.8906,21.7656 C481.0313,21.9063 481.2656,22.0156 481.4844,22.0156 C481.75,22.0156 482.0156,21.875 482.1875,21.6563 C482.2969,21.5 482.3281,21.3125 482.3281,20.8906 L482.3281,19.4688 C482.3281,19.0313 482.3125,18.9063 482.2188,18.75 C482.0625,18.4844 481.7813,18.3438 481.4844,18.3438 C481.1875,18.3438 480.9844,18.4375 480.7656,18.75 L480.5938,18.6719 Z " fill="#000000"/><text fill="#000000" font-family="sans-serif" font-size="12" lengthAdjust="spacing" textLength="48" x="498.75" y="27.1543">Estafeta</text><line style="stroke:#A80036;stroke-width:1.5;" x1="430" x2="583" y1="39" y2="39"/><text fill="#000000" font-family="sans-serif" font-size="11" lengthAdjust="spacing" textLength="21" x="435" y="53.2104">-NIF</text><text fill="#000000" font-family="sans-serif" font-size="11" lengthAdjust="spacing" textLength="37" x="435" y="66.0151">-nome</text><text fill="#000000" font-family="sans-serif" font-size="11" lengthAdjust="spacing" textLength="36" x="435" y="78.8198">-email</text><text fill="#000000" font-family="sans-serif" font-size="11" lengthAdjust="spacing" textLength="143" x="435" y="91.6245">-numeroSegurancaSocial</text><text fill="#000000" font-family="sans-serif" font-size="11" lengthAdjust="spacing" textLength="57" x="435" y="104.4292">-password</text><!--MD5=[b1b5bcb3873f5e6d986aef558b6021e9]
class EstadoEstafeta--><rect codeLine="17" fill="#FEFECE" filter="url(#frwfkgri8rmbk)" height="65.6094" id="EstadoEstafeta" style="stroke:#A80036;stroke-width:1.5;" width="125" x="743" y="10"/><ellipse cx="759.8" cy="26" fill="#ADD1B2" rx="11" ry="11" style="stroke:#A80036;stroke-width:1.0;"/><path d="M762.1438,21.6719 C761.2063,21.2344 760.6125,21.0938 759.7375,21.0938 C757.1125,21.0938 755.1125,23.1719 755.1125,25.8906 L755.1125,27.0156 C755.1125,29.5938 757.2219,31.4844 760.1125,31.4844 C761.3313,31.4844 762.4875,31.1875 763.2375,30.6406 C763.8156,30.2344 764.1438,29.7813 764.1438,29.3906 C764.1438,28.9375 763.7531,28.5469 763.2844,28.5469 C763.0656,28.5469 762.8625,28.625 762.675,28.8125 C762.2219,29.2969 762.2219,29.2969 762.0344,29.3906 C761.6125,29.6563 760.925,29.7813 760.1594,29.7813 C758.1125,29.7813 756.8156,28.6875 756.8156,26.9844 L756.8156,25.8906 C756.8156,24.1094 758.0656,22.7969 759.8,22.7969 C760.3781,22.7969 760.9875,22.9531 761.4563,23.2031 C761.9406,23.4844 762.1125,23.7031 762.2063,24.1094 C762.2688,24.5156 762.3,24.6406 762.4406,24.7656 C762.5813,24.9063 762.8156,25.0156 763.0344,25.0156 C763.3,25.0156 763.5656,24.875 763.7375,24.6563 C763.8469,24.5 763.8781,24.3125 763.8781,23.8906 L763.8781,22.4688 C763.8781,22.0313 763.8625,21.9063 763.7688,21.75 C763.6125,21.4844 763.3313,21.3438 763.0344,21.3438 C762.7375,21.3438 762.5344,21.4375 762.3156,21.75 L762.1438,21.6719 Z " fill="#000000"/><text fill="#000000" font-family="sans-serif" font-size="12" lengthAdjust="spacing" textLength="89" x="774.2" y="30.1543">EstadoEstafeta</text><line style="stroke:#A80036;stroke-width:1.5;" x1="744" x2="867" y1="42" y2="42"/><text fill="#000000" font-family="sans-serif" font-size="11" lengthAdjust="spacing" textLength="113" x="749" y="56.2104">-id_estado_estafeta</text><text fill="#000000" font-family="sans-serif" font-size="11" lengthAdjust="spacing" textLength="69" x="749" y="69.0151">-designacao</text><!--MD5=[5dd1d6732c071e710b9290b531f2fa3b]
class Utilizador--><rect codeLine="22" fill="#FEFECE" filter="url(#frwfkgri8rmbk)" height="104.0234" id="Utilizador" style="stroke:#A80036;stroke-width:1.5;" width="155" x="728" y="111"/><ellipse cx="772.75" cy="127" fill="#ADD1B2" rx="11" ry="11" style="stroke:#A80036;stroke-width:1.0;"/><path d="M775.0938,122.6719 C774.1563,122.2344 773.5625,122.0938 772.6875,122.0938 C770.0625,122.0938 768.0625,124.1719 768.0625,126.8906 L768.0625,128.0156 C768.0625,130.5938 770.1719,132.4844 773.0625,132.4844 C774.2813,132.4844 775.4375,132.1875 776.1875,131.6406 C776.7656,131.2344 777.0938,130.7813 777.0938,130.3906 C777.0938,129.9375 776.7031,129.5469 776.2344,129.5469 C776.0156,129.5469 775.8125,129.625 775.625,129.8125 C775.1719,130.2969 775.1719,130.2969 774.9844,130.3906 C774.5625,130.6563 773.875,130.7813 773.1094,130.7813 C771.0625,130.7813 769.7656,129.6875 769.7656,127.9844 L769.7656,126.8906 C769.7656,125.1094 771.0156,123.7969 772.75,123.7969 C773.3281,123.7969 773.9375,123.9531 774.4063,124.2031 C774.8906,124.4844 775.0625,124.7031 775.1563,125.1094 C775.2188,125.5156 775.25,125.6406 775.3906,125.7656 C775.5313,125.9063 775.7656,126.0156 775.9844,126.0156 C776.25,126.0156 776.5156,125.875 776.6875,125.6563 C776.7969,125.5 776.8281,125.3125 776.8281,124.8906 L776.8281,123.4688 C776.8281,123.0313 776.8125,122.9063 776.7188,122.75 C776.5625,122.4844 776.2813,122.3438 775.9844,122.3438 C775.6875,122.3438 775.4844,122.4375 775.2656,122.75 L775.0938,122.6719 Z " fill="#000000"/><text fill="#000000" font-family="sans-serif" font-size="12" lengthAdjust="spacing" textLength="57" x="793.25" y="131.1543">Utilizador</text><line style="stroke:#A80036;stroke-width:1.5;" x1="729" x2="882" y1="143" y2="143"/><text fill="#000000" font-family="sans-serif" font-size="11" lengthAdjust="spacing" textLength="21" x="734" y="157.2104">-NIF</text><text fill="#000000" font-family="sans-serif" font-size="11" lengthAdjust="spacing" textLength="37" x="734" y="170.0151">-nome</text><text fill="#000000" font-family="sans-serif" font-size="11" lengthAdjust="spacing" textLength="36" x="734" y="182.8198">-email</text><text fill="#000000" font-family="sans-serif" font-size="11" lengthAdjust="spacing" textLength="143" x="734" y="195.6245">-numeroSegurancaSocial</text><text fill="#000000" font-family="sans-serif" font-size="11" lengthAdjust="spacing" textLength="57" x="734" y="208.4292">-password</text><!--MD5=[fdcda49d453d44c676d62f3f6af62207]
class Administrador--><rect fill="#FEFECE" filter="url(#frwfkgri8rmbk)" height="40" id="Administrador" style="stroke:#A80036;stroke-width:1.5;" width="116" x="194" y="129"/><ellipse cx="209" cy="145" fill="#ADD1B2" rx="11" ry="11" style="stroke:#A80036;stroke-width:1.0;"/><path d="M211.3438,140.6719 C210.4063,140.2344 209.8125,140.0938 208.9375,140.0938 C206.3125,140.0938 204.3125,142.1719 204.3125,144.8906 L204.3125,146.0156 C204.3125,148.5938 206.4219,150.4844 209.3125,150.4844 C210.5313,150.4844 211.6875,150.1875 212.4375,149.6406 C213.0156,149.2344 213.3438,148.7813 213.3438,148.3906 C213.3438,147.9375 212.9531,147.5469 212.4844,147.5469 C212.2656,147.5469 212.0625,147.625 211.875,147.8125 C211.4219,148.2969 211.4219,148.2969 211.2344,148.3906 C210.8125,148.6563 210.125,148.7813 209.3594,148.7813 C207.3125,148.7813 206.0156,147.6875 206.0156,145.9844 L206.0156,144.8906 C206.0156,143.1094 207.2656,141.7969 209,141.7969 C209.5781,141.7969 210.1875,141.9531 210.6563,142.2031 C211.1406,142.4844 211.3125,142.7031 211.4063,143.1094 C211.4688,143.5156 211.5,143.6406 211.6406,143.7656 C211.7813,143.9063 212.0156,144.0156 212.2344,144.0156 C212.5,144.0156 212.7656,143.875 212.9375,143.6563 C213.0469,143.5 213.0781,143.3125 213.0781,142.8906 L213.0781,141.4688 C213.0781,141.0313 213.0625,140.9063 212.9688,140.75 C212.8125,140.4844 212.5313,140.3438 212.2344,140.3438 C211.9375,140.3438 211.7344,140.4375 211.5156,140.75 L211.3438,140.6719 Z " fill="#000000"/><text fill="#000000" font-family="sans-serif" font-size="12" lengthAdjust="spacing" textLength="84" x="223" y="149.1543">Administrador</text><line style="stroke:#A80036;stroke-width:1.5;" x1="195" x2="309" y1="161" y2="161"/><!--MD5=[b39feb7ad9ed03cb1a05d76e3f369af6]
link Estafeta to EstadoEstafeta--><path codeLine="30" d="M584.371,54.859 C633.699,52.201 696.893,48.797 742.909,46.318 " fill="none" id="Estafeta-EstadoEstafeta" style="stroke:#A80036;stroke-width:1.0;"/><polygon fill="#000000" points="645.4928,41.2974,636.3027,38.8493,636.6189,44.7187,645.4928,41.2974" style="stroke:#000000;stroke-width:1.0;"/><text fill="#000000" font-family="sans-serif" font-size="13" lengthAdjust="spacing" textLength="26" x="649.5" y="46.0669">tem</text><text fill="#000000" font-family="sans-serif" font-size="13" lengthAdjust="spacing" textLength="8" x="591.9185" y="67.2406">1</text><text fill="#000000" font-family="sans-serif" font-size="13" lengthAdjust="spacing" textLength="8" x="726.7932" y="59.7352">1</text><!--MD5=[aa5a8ec5fd097e3d415964f18fa48efb]
link Estafeta to Utilizador--><path codeLine="31" d="M584.371,85.918 C628.543,101.385 683.833,120.7464 727.951,136.195 " fill="none" id="Estafeta-Utilizador" style="stroke:#A80036;stroke-width:1.0;"/><polygon fill="#000000" points="623.719,92.2189,616.1535,86.4558,614.2109,92.0033,623.719,92.2189" style="stroke:#000000;stroke-width:1.0;"/><text fill="#000000" font-family="sans-serif" font-size="13" lengthAdjust="spacing" textLength="69" x="628" y="95.0669">atua como</text><text fill="#000000" font-family="sans-serif" font-size="13" lengthAdjust="spacing" textLength="8" x="591.9185" y="101.1628">1</text><text fill="#000000" font-family="sans-serif" font-size="13" lengthAdjust="spacing" textLength="8" x="711.9235" y="146.3669">1</text><!--MD5=[b4161b205744775e44f73e41ced309e0]
link Administrador to Utilizador--><path codeLine="32" d="M310.201,150.4521 C409.949,152.9842 615.744,158.2084 727.765,161.0521 " fill="none" id="Administrador-Utilizador" style="stroke:#A80036;stroke-width:1.0;"/><polygon fill="#000000" points="474.4984,144.6933,465.5308,141.5258,465.3816,147.4017,474.4984,144.6933" style="stroke:#000000;stroke-width:1.0;"/><text fill="#000000" font-family="sans-serif" font-size="13" lengthAdjust="spacing" textLength="69" x="478.5" y="149.0669">atua como</text><text fill="#000000" font-family="sans-serif" font-size="13" lengthAdjust="spacing" textLength="8" x="318.1705" y="163.6745">1</text><text fill="#000000" font-family="sans-serif" font-size="13" lengthAdjust="spacing" textLength="8" x="711.9746" y="173.6534">1</text><!--MD5=[4fe240217702a86376bae6ca4f1a3aaa]
link Administrador to Estafeta--><path codeLine="33" d="M310.179,131.6453 C337.259,123.1583 369.959,112.522 399,102 C408.749,98.468 418.931,94.597 428.969,90.67 " fill="none" id="Administrador-Estafeta" style="stroke:#A80036;stroke-width:1.0;"/><polygon fill="#000000" points="349.7267,91.936,340.2177,92.1072,342.1344,97.6637,349.7267,91.936" style="stroke:#000000;stroke-width:1.0;"/><text fill="#000000" font-family="sans-serif" font-size="13" lengthAdjust="spacing" textLength="44" x="354" y="98.0669">regista</text><text fill="#000000" font-family="sans-serif" font-size="13" lengthAdjust="spacing" textLength="8" x="318.1457" y="142.4581">1</text><text fill="#000000" font-family="sans-serif" font-size="13" lengthAdjust="spacing" textLength="7" x="413.9925" y="106.5981">*</text><!--MD5=[06143d4fc5f7e61d4193d2b4f541983b]
link Farmacia to Estafeta--><path codeLine="34" d="M93.3501,88.925 C169.929,83.365 332.414,71.567 428.919,64.56 " fill="none" id="Farmacia-Estafeta" style="stroke:#A80036;stroke-width:1.0;"/><polygon fill="#000000" points="241.4869,65.2043,232.2527,62.9281,232.6784,68.7906,241.4869,65.2043" style="stroke:#000000;stroke-width:1.0;"/><text fill="#000000" font-family="sans-serif" font-size="13" lengthAdjust="spacing" textLength="26" x="245.5" y="70.0669">tem</text><text fill="#000000" font-family="sans-serif" font-size="13" lengthAdjust="spacing" textLength="8" x="100.8965" y="101.7233">1</text><text fill="#000000" font-family="sans-serif" font-size="13" lengthAdjust="spacing" textLength="7" x="413.9376" y="77.9179">*</text><!--MD5=[1eb578f81baca05fae5600e8efb79c07]
link Farmacia to Administrador--><path codeLine="35" d="M93.4149,104.088 C122.654,112.421 161.858,123.5944 193.847,132.7114 " fill="none" id="Farmacia-Administrador" style="stroke:#A80036;stroke-width:1.0;"/><polygon fill="#000000" points="132.8085,106.9368,124.9153,101.6313,123.3043,107.2841,132.8085,106.9368" style="stroke:#000000;stroke-width:1.0;"/><text fill="#000000" font-family="sans-serif" font-size="13" lengthAdjust="spacing" textLength="26" x="137" y="110.0669">tem</text><text fill="#000000" font-family="sans-serif" font-size="13" lengthAdjust="spacing" textLength="8" x="100.9716" y="119.3029">1</text><text fill="#000000" font-family="sans-serif" font-size="13" lengthAdjust="spacing" textLength="8" x="177.8836" y="143.6608">1</text><!--MD5=[90e6c2f39519d120fb23adade6f15915]
@startuml
skinparam classAttributeIconSize 0
hide methods
left to right direction

class Farmacia {
  -NIF
}

class Estafeta {
  -NIF
  -nome
  -email
  -numeroSegurancaSocial
  -password
}

class EstadoEstafeta {
  -id_estado_estafeta
  -designacao
}

class Utilizador {
  -NIF
  -nome
  -email
  -numeroSegurancaSocial
  -password
}

Estafeta "1" - - "1" EstadoEstafeta: tem >
Estafeta "1" - - "1" Utilizador: atua como >
Administrador "1" - - "1" Utilizador: atua como >
Administrador "1" - - "*" Estafeta: regista >
Farmacia "1" - - "*" Estafeta: tem >
Farmacia "1" - - "1" Administrador: tem >
@enduml

PlantUML version 1.2020.27beta7(Unknown compile time)
(GPL source distribution)
Java Runtime: Java(TM) SE Runtime Environment
JVM: Java HotSpot(TM) 64-Bit Server VM
Default Encoding: UTF-8
Language: en
Country: US
--></g></svg>