<?xml version="1.0" encoding="UTF-8" standalone="no"?><svg xmlns="http://www.w3.org/2000/svg" xmlns:xlink="http://www.w3.org/1999/xlink" contentScriptType="application/ecmascript" contentStyleType="text/css" height="577px" preserveAspectRatio="none" style="width:545px;height:577px;" version="1.1" viewBox="0 0 545 577" width="545px" zoomAndPan="magnify"><defs><filter height="300%" id="fcpltcgm1yma7" width="300%" x="-1" y="-1"><feGaussianBlur result="blurOut" stdDeviation="2.0"/><feColorMatrix in="blurOut" result="blurOut2" type="matrix" values="0 0 0 0 0 0 0 0 0 0 0 0 0 0 0 0 0 0 .4 0"/><feOffset dx="4.0" dy="4.0" in="blurOut2" result="blurOut3"/><feBlend in="SourceGraphic" in2="blurOut3" mode="normal"/></filter></defs><g><!--MD5=[380d12a68ed0046a60f31008a02875d0]
class AplicacaoPOT--><rect codeLine="3" fill="#FEFECE" filter="url(#fcpltcgm1yma7)" height="73.6094" id="AplicacaoPOT" style="stroke:#A80036;stroke-width:1.5;" width="130" x="7" y="275.5"/><ellipse cx="29.65" cy="291.5" fill="#ADD1B2" rx="11" ry="11" style="stroke:#A80036;stroke-width:1.0;"/><path d="M31.9938,287.1719 C31.0563,286.7344 30.4625,286.5938 29.5875,286.5938 C26.9625,286.5938 24.9625,288.6719 24.9625,291.3906 L24.9625,292.5156 C24.9625,295.0938 27.0719,296.9844 29.9625,296.9844 C31.1813,296.9844 32.3375,296.6875 33.0875,296.1406 C33.6656,295.7344 33.9938,295.2813 33.9938,294.8906 C33.9938,294.4375 33.6031,294.0469 33.1344,294.0469 C32.9156,294.0469 32.7125,294.125 32.525,294.3125 C32.0719,294.7969 32.0719,294.7969 31.8844,294.8906 C31.4625,295.1563 30.775,295.2813 30.0094,295.2813 C27.9625,295.2813 26.6656,294.1875 26.6656,292.4844 L26.6656,291.3906 C26.6656,289.6094 27.9156,288.2969 29.65,288.2969 C30.2281,288.2969 30.8375,288.4531 31.3063,288.7031 C31.7906,288.9844 31.9625,289.2031 32.0563,289.6094 C32.1188,290.0156 32.15,290.1406 32.2906,290.2656 C32.4313,290.4063 32.6656,290.5156 32.8844,290.5156 C33.15,290.5156 33.4156,290.375 33.5875,290.1563 C33.6969,290 33.7281,289.8125 33.7281,289.3906 L33.7281,287.9688 C33.7281,287.5313 33.7125,287.4063 33.6188,287.25 C33.4625,286.9844 33.1813,286.8438 32.8844,286.8438 C32.5875,286.8438 32.3844,286.9375 32.1656,287.25 L31.9938,287.1719 Z " fill="#000000"/><text fill="#000000" font-family="sans-serif" font-size="12" lengthAdjust="spacing" textLength="81" x="45.35" y="295.6543">AplicacaoPOT</text><line style="stroke:#A80036;stroke-width:1.5;" x1="8" x2="136" y1="307.5" y2="307.5"/><line style="stroke:#A80036;stroke-width:1.5;" x1="8" x2="136" y1="315.5" y2="315.5"/><text fill="#000000" font-family="sans-serif" font-size="11" lengthAdjust="spacing" textLength="118" x="13" y="329.7104">+static getInstance()</text><text fill="#000000" font-family="sans-serif" font-size="11" lengthAdjust="spacing" textLength="107" x="13" y="342.5151">+getSessaoAtual()</text><!--MD5=[3f1202280bfe3359d2f91fb9b6e32986]
class Estafeta--><rect codeLine="9" fill="#FEFECE" filter="url(#fcpltcgm1yma7)" height="124.8281" id="Estafeta" style="stroke:#A80036;stroke-width:1.5;" width="209" x="148.5" y="439"/><ellipse cx="224.75" cy="455" fill="#ADD1B2" rx="11" ry="11" style="stroke:#A80036;stroke-width:1.0;"/><path d="M227.0938,450.6719 C226.1563,450.2344 225.5625,450.0938 224.6875,450.0938 C222.0625,450.0938 220.0625,452.1719 220.0625,454.8906 L220.0625,456.0156 C220.0625,458.5938 222.1719,460.4844 225.0625,460.4844 C226.2813,460.4844 227.4375,460.1875 228.1875,459.6406 C228.7656,459.2344 229.0938,458.7813 229.0938,458.3906 C229.0938,457.9375 228.7031,457.5469 228.2344,457.5469 C228.0156,457.5469 227.8125,457.625 227.625,457.8125 C227.1719,458.2969 227.1719,458.2969 226.9844,458.3906 C226.5625,458.6563 225.875,458.7813 225.1094,458.7813 C223.0625,458.7813 221.7656,457.6875 221.7656,455.9844 L221.7656,454.8906 C221.7656,453.1094 223.0156,451.7969 224.75,451.7969 C225.3281,451.7969 225.9375,451.9531 226.4063,452.2031 C226.8906,452.4844 227.0625,452.7031 227.1563,453.1094 C227.2188,453.5156 227.25,453.6406 227.3906,453.7656 C227.5313,453.9063 227.7656,454.0156 227.9844,454.0156 C228.25,454.0156 228.5156,453.875 228.6875,453.6563 C228.7969,453.5 228.8281,453.3125 228.8281,452.8906 L228.8281,451.4688 C228.8281,451.0313 228.8125,450.9063 228.7188,450.75 C228.5625,450.4844 228.2813,450.3438 227.9844,450.3438 C227.6875,450.3438 227.4844,450.4375 227.2656,450.75 L227.0938,450.6719 Z " fill="#000000"/><text fill="#000000" font-family="sans-serif" font-size="12" lengthAdjust="spacing" textLength="48" x="245.25" y="459.1543">Estafeta</text><line style="stroke:#A80036;stroke-width:1.5;" x1="149.5" x2="356.5" y1="471" y2="471"/><text fill="#000000" font-family="sans-serif" font-size="11" lengthAdjust="spacing" textLength="55" x="154.5" y="485.2104">-String nif</text><text fill="#000000" font-family="sans-serif" font-size="11" lengthAdjust="spacing" textLength="74" x="154.5" y="498.0151">-String nome</text><text fill="#000000" font-family="sans-serif" font-size="11" lengthAdjust="spacing" textLength="73" x="154.5" y="510.8198">-String email</text><text fill="#000000" font-family="sans-serif" font-size="11" lengthAdjust="spacing" textLength="68" x="154.5" y="523.6245">-Integer nss</text><text fill="#000000" font-family="sans-serif" font-size="11" lengthAdjust="spacing" textLength="64" x="154.5" y="536.4292">-String pwd</text><line style="stroke:#A80036;stroke-width:1.5;" x1="149.5" x2="356.5" y1="543.0234" y2="543.0234"/><text fill="#000000" font-family="sans-serif" font-size="11" lengthAdjust="spacing" textLength="197" x="154.5" y="557.2339">+Estafeta(nif,nome,email,nss,pwd)</text><!--MD5=[4ac2c1498d2c03198090a24b8c54d335]
class EstafetaDB--><rect codeLine="18" fill="#FEFECE" filter="url(#fcpltcgm1yma7)" height="99.2188" id="EstafetaDB" style="stroke:#A80036;stroke-width:1.5;" width="288" x="243" y="263"/><ellipse cx="350.25" cy="279" fill="#ADD1B2" rx="11" ry="11" style="stroke:#A80036;stroke-width:1.0;"/><path d="M352.5938,274.6719 C351.6563,274.2344 351.0625,274.0938 350.1875,274.0938 C347.5625,274.0938 345.5625,276.1719 345.5625,278.8906 L345.5625,280.0156 C345.5625,282.5938 347.6719,284.4844 350.5625,284.4844 C351.7813,284.4844 352.9375,284.1875 353.6875,283.6406 C354.2656,283.2344 354.5938,282.7813 354.5938,282.3906 C354.5938,281.9375 354.2031,281.5469 353.7344,281.5469 C353.5156,281.5469 353.3125,281.625 353.125,281.8125 C352.6719,282.2969 352.6719,282.2969 352.4844,282.3906 C352.0625,282.6563 351.375,282.7813 350.6094,282.7813 C348.5625,282.7813 347.2656,281.6875 347.2656,279.9844 L347.2656,278.8906 C347.2656,277.1094 348.5156,275.7969 350.25,275.7969 C350.8281,275.7969 351.4375,275.9531 351.9063,276.2031 C352.3906,276.4844 352.5625,276.7031 352.6563,277.1094 C352.7188,277.5156 352.75,277.6406 352.8906,277.7656 C353.0313,277.9063 353.2656,278.0156 353.4844,278.0156 C353.75,278.0156 354.0156,277.875 354.1875,277.6563 C354.2969,277.5 354.3281,277.3125 354.3281,276.8906 L354.3281,275.4688 C354.3281,275.0313 354.3125,274.9063 354.2188,274.75 C354.0625,274.4844 353.7813,274.3438 353.4844,274.3438 C353.1875,274.3438 352.9844,274.4375 352.7656,274.75 L352.5938,274.6719 Z " fill="#000000"/><text fill="#000000" font-family="sans-serif" font-size="12" lengthAdjust="spacing" textLength="65" x="370.75" y="283.1543">EstafetaDB</text><line style="stroke:#A80036;stroke-width:1.5;" x1="244" x2="530" y1="295" y2="295"/><line style="stroke:#A80036;stroke-width:1.5;" x1="244" x2="530" y1="303" y2="303"/><text fill="#000000" font-family="sans-serif" font-size="11" lengthAdjust="spacing" textLength="276" x="249" y="317.2104">+Estafeta novoEstafeta(nif,nome,email,nss,pwd)</text><text fill="#000000" font-family="sans-serif" font-size="11" lengthAdjust="spacing" textLength="167" x="249" y="330.0151">+validaEstafeta(Estafeta est)</text><text fill="#000000" font-family="sans-serif" font-size="11" lengthAdjust="spacing" textLength="172" x="249" y="342.8198">+registaEstafeta(Estafeta est)</text><text fill="#000000" font-family="sans-serif" font-size="11" lengthAdjust="spacing" textLength="149" x="249" y="355.6245">-addEstafeta(Estafeta est)</text><!--MD5=[dd5ad71b12dabe0adbc098c60a8c9669]
class RegistarOrganizacaoController--><rect codeLine="25" fill="#FEFECE" filter="url(#fcpltcgm1yma7)" height="86.4141" id="RegistarOrganizacaoController" style="stroke:#A80036;stroke-width:1.5;" width="237" x="71.5" y="116"/><ellipse cx="95.95" cy="132" fill="#ADD1B2" rx="11" ry="11" style="stroke:#A80036;stroke-width:1.0;"/><path d="M98.2938,127.6719 C97.3563,127.2344 96.7625,127.0938 95.8875,127.0938 C93.2625,127.0938 91.2625,129.1719 91.2625,131.8906 L91.2625,133.0156 C91.2625,135.5938 93.3719,137.4844 96.2625,137.4844 C97.4813,137.4844 98.6375,137.1875 99.3875,136.6406 C99.9656,136.2344 100.2938,135.7813 100.2938,135.3906 C100.2938,134.9375 99.9031,134.5469 99.4344,134.5469 C99.2156,134.5469 99.0125,134.625 98.825,134.8125 C98.3719,135.2969 98.3719,135.2969 98.1844,135.3906 C97.7625,135.6563 97.075,135.7813 96.3094,135.7813 C94.2625,135.7813 92.9656,134.6875 92.9656,132.9844 L92.9656,131.8906 C92.9656,130.1094 94.2156,128.7969 95.95,128.7969 C96.5281,128.7969 97.1375,128.9531 97.6063,129.2031 C98.0906,129.4844 98.2625,129.7031 98.3563,130.1094 C98.4188,130.5156 98.45,130.6406 98.5906,130.7656 C98.7313,130.9063 98.9656,131.0156 99.1844,131.0156 C99.45,131.0156 99.7156,130.875 99.8875,130.6563 C99.9969,130.5 100.0281,130.3125 100.0281,129.8906 L100.0281,128.4688 C100.0281,128.0313 100.0125,127.9063 99.9188,127.75 C99.7625,127.4844 99.4813,127.3438 99.1844,127.3438 C98.8875,127.3438 98.6844,127.4375 98.4656,127.75 L98.2938,127.6719 Z " fill="#000000"/><text fill="#000000" font-family="sans-serif" font-size="12" lengthAdjust="spacing" textLength="184" x="112.05" y="136.1543">RegistarOrganizacaoController</text><line style="stroke:#A80036;stroke-width:1.5;" x1="72.5" x2="307.5" y1="148" y2="148"/><line style="stroke:#A80036;stroke-width:1.5;" x1="72.5" x2="307.5" y1="156" y2="156"/><text fill="#000000" font-family="sans-serif" font-size="11" lengthAdjust="spacing" textLength="225" x="77.5" y="170.2104">+novaEstafeta(nif,nome,email,nss,pwd)</text><text fill="#000000" font-family="sans-serif" font-size="11" lengthAdjust="spacing" textLength="103" x="77.5" y="183.0151">+registaEstafeta()</text><text fill="#000000" font-family="sans-serif" font-size="11" lengthAdjust="spacing" textLength="115" x="77.5" y="195.8198">+getListaEstafetas()</text><!--MD5=[26c5f3be5170126d62449270b7dc8f97]
class RegistarOrganizacaoUI--><rect codeLine="31" fill="#FEFECE" filter="url(#fcpltcgm1yma7)" height="48" id="RegistarOrganizacaoUI" style="stroke:#A80036;stroke-width:1.5;" width="169" x="105.5" y="7"/><ellipse cx="120.5" cy="23" fill="#ADD1B2" rx="11" ry="11" style="stroke:#A80036;stroke-width:1.0;"/><path d="M122.8438,18.6719 C121.9063,18.2344 121.3125,18.0938 120.4375,18.0938 C117.8125,18.0938 115.8125,20.1719 115.8125,22.8906 L115.8125,24.0156 C115.8125,26.5938 117.9219,28.4844 120.8125,28.4844 C122.0313,28.4844 123.1875,28.1875 123.9375,27.6406 C124.5156,27.2344 124.8438,26.7813 124.8438,26.3906 C124.8438,25.9375 124.4531,25.5469 123.9844,25.5469 C123.7656,25.5469 123.5625,25.625 123.375,25.8125 C122.9219,26.2969 122.9219,26.2969 122.7344,26.3906 C122.3125,26.6563 121.625,26.7813 120.8594,26.7813 C118.8125,26.7813 117.5156,25.6875 117.5156,23.9844 L117.5156,22.8906 C117.5156,21.1094 118.7656,19.7969 120.5,19.7969 C121.0781,19.7969 121.6875,19.9531 122.1563,20.2031 C122.6406,20.4844 122.8125,20.7031 122.9063,21.1094 C122.9688,21.5156 123,21.6406 123.1406,21.7656 C123.2813,21.9063 123.5156,22.0156 123.7344,22.0156 C124,22.0156 124.2656,21.875 124.4375,21.6563 C124.5469,21.5 124.5781,21.3125 124.5781,20.8906 L124.5781,19.4688 C124.5781,19.0313 124.5625,18.9063 124.4688,18.75 C124.3125,18.4844 124.0313,18.3438 123.7344,18.3438 C123.4375,18.3438 123.2344,18.4375 123.0156,18.75 L122.8438,18.6719 Z " fill="#000000"/><text fill="#000000" font-family="sans-serif" font-size="12" lengthAdjust="spacing" textLength="137" x="134.5" y="27.1543">RegistarOrganizacaoUI</text><line style="stroke:#A80036;stroke-width:1.5;" x1="106.5" x2="273.5" y1="39" y2="39"/><line style="stroke:#A80036;stroke-width:1.5;" x1="106.5" x2="273.5" y1="47" y2="47"/><!--MD5=[5968e6aa320025ed2619ac26e0f01233]
link RegistarOrganizacaoUI to RegistarOrganizacaoController--><path codeLine="34" d="M190,55.11 C190,70.631 190,91.639 190,110.625 " fill="none" id="RegistarOrganizacaoUI-to-RegistarOrganizacaoController" style="stroke:#A80036;stroke-width:1.0;stroke-dasharray:7.0,7.0;"/><polygon fill="#A80036" points="190,115.921,194,106.921,190,110.921,186,106.921,190,115.921" style="stroke:#A80036;stroke-width:1.0;"/><!--MD5=[ced493231ad6cc8951f9de3d20826405]
link RegistarOrganizacaoController to EstafetaDB--><path codeLine="35" d="M244.614,202 C267.865,219.881 295.216,240.915 319.7,259.744 " fill="none" id="RegistarOrganizacaoController-to-EstafetaDB" style="stroke:#A80036;stroke-width:1.0;stroke-dasharray:7.0,7.0;"/><polygon fill="#A80036" points="323.919,262.988,319.2245,254.3299,319.956,259.9393,314.3466,260.6708,323.919,262.988" style="stroke:#A80036;stroke-width:1.0;"/><!--MD5=[1578b36ca5bda246865ae8854b77f819]
link RegistarOrganizacaoController to Estafeta--><path codeLine="36" d="M196.965,202.232 C203.795,243.143 214.66,306.905 225,362 C229.396,385.424 234.488,411.016 239.115,433.757 " fill="none" id="RegistarOrganizacaoController-to-Estafeta" style="stroke:#A80036;stroke-width:1.0;stroke-dasharray:7.0,7.0;"/><polygon fill="#A80036" points="240.156,438.866,242.2777,429.2484,239.1573,433.9668,234.4389,430.8463,240.156,438.866" style="stroke:#A80036;stroke-width:1.0;"/><!--MD5=[90e5bb0fe5a19b1a279437b2c248b23f]
link RegistarOrganizacaoController to AplicacaoPOT--><path codeLine="37" d="M157.13,202.201 C140.316,223.789 119.954,249.932 103.3605,271.236 " fill="none" id="RegistarOrganizacaoController-to-AplicacaoPOT" style="stroke:#A80036;stroke-width:1.0;stroke-dasharray:7.0,7.0;"/><polygon fill="#A80036" points="100.0941,275.43,108.7805,270.7881,103.1668,271.4855,102.4693,265.8718,100.0941,275.43" style="stroke:#A80036;stroke-width:1.0;"/><!--MD5=[a3e63c72779e49a48819b249af53bae4]
link EstafetaDB to Estafeta--><path codeLine="39" d="M352.143,362.144 C336.309,384.241 317.336,410.717 300.246,434.567 " fill="none" id="EstafetaDB-to-Estafeta" style="stroke:#A80036;stroke-width:1.0;"/><polygon fill="#A80036" points="297.3,438.678,305.794,433.6929,300.2127,434.614,299.2916,429.0326,297.3,438.678" style="stroke:#A80036;stroke-width:1.0;"/><text fill="#000000" font-family="sans-serif" font-size="13" lengthAdjust="spacing" textLength="97" x="329" y="405.0669">tem registadas</text><text fill="#000000" font-family="sans-serif" font-size="13" lengthAdjust="spacing" textLength="8" x="338.6787" y="382.2407">1</text><text fill="#000000" font-family="sans-serif" font-size="13" lengthAdjust="spacing" textLength="7" x="294.7625" y="428.0701">*</text><!--MD5=[e355368d4719bea7fc188c413f2423ec]
@startuml
skinparam classAttributeIconSize 0

class AplicacaoPOT
{
  +static getInstance()
  +getSessaoAtual()
}

class Estafeta {
  -String nif
  -String nome
  -String email
  -Integer nss
  -String pwd
  +Estafeta(nif,nome,email,nss,pwd)
}

class EstafetaDB {
  +Estafeta novoEstafeta(nif,nome,email,nss,pwd)
  +validaEstafeta(Estafeta est)
  +registaEstafeta(Estafeta est)
  -addEstafeta(Estafeta est)
}

class RegistarOrganizacaoController {
    +novaEstafeta(nif,nome,email,nss,pwd)
    +registaEstafeta()
    +getListaEstafetas()
}

class RegistarOrganizacaoUI {
}

RegistarOrganizacaoUI ..> RegistarOrganizacaoController
RegistarOrganizacaoController ..> EstafetaDB
RegistarOrganizacaoController ..> Estafeta
RegistarOrganizacaoController ..> AplicacaoPOT

EstafetaDB "1" - -> "*" Estafeta : tem registadas
@enduml

PlantUML version 1.2020.27beta7(Unknown compile time)
(GPL source distribution)
Java Runtime: Java(TM) SE Runtime Environment
JVM: Java HotSpot(TM) 64-Bit Server VM
Default Encoding: UTF-8
Language: en
Country: US
--></g></svg>