<?xml version="1.0" encoding="UTF-8" standalone="no"?><svg xmlns="http://www.w3.org/2000/svg" xmlns:xlink="http://www.w3.org/1999/xlink" contentScriptType="application/ecmascript" contentStyleType="text/css" height="242px" preserveAspectRatio="none" style="width:897px;height:242px;" version="1.1" viewBox="0 0 897 242" width="897px" zoomAndPan="magnify"><defs><filter height="300%" id="fwxgbrblm0uue" width="300%" x="-1" y="-1"><feGaussianBlur result="blurOut" stdDeviation="2.0"/><feColorMatrix in="blurOut" result="blurOut2" type="matrix" values="0 0 0 0 0 0 0 0 0 0 0 0 0 0 0 0 0 0 .4 0"/><feOffset dx="4.0" dy="4.0" in="blurOut2" result="blurOut3"/><feBlend in="SourceGraphic" in2="blurOut3" mode="normal"/></filter></defs><g><!--MD5=[6613c9cd406ef433ff06f5e98b28abd9]
class Farmacia--><rect codeLine="5" fill="#FEFECE" filter="url(#fwxgbrblm0uue)" height="52.8047" id="Farmacia" style="stroke:#A80036;stroke-width:1.5;" width="86" x="7" y="72"/><ellipse cx="22" cy="88" fill="#ADD1B2" rx="11" ry="11" style="stroke:#A80036;stroke-width:1.0;"/><path d="M24.3438,83.6719 C23.4063,83.2344 22.8125,83.0938 21.9375,83.0938 C19.3125,83.0938 17.3125,85.1719 17.3125,87.8906 L17.3125,89.0156 C17.3125,91.5938 19.4219,93.4844 22.3125,93.4844 C23.5313,93.4844 24.6875,93.1875 25.4375,92.6406 C26.0156,92.2344 26.3438,91.7813 26.3438,91.3906 C26.3438,90.9375 25.9531,90.5469 25.4844,90.5469 C25.2656,90.5469 25.0625,90.625 24.875,90.8125 C24.4219,91.2969 24.4219,91.2969 24.2344,91.3906 C23.8125,91.6563 23.125,91.7813 22.3594,91.7813 C20.3125,91.7813 19.0156,90.6875 19.0156,88.9844 L19.0156,87.8906 C19.0156,86.1094 20.2656,84.7969 22,84.7969 C22.5781,84.7969 23.1875,84.9531 23.6563,85.2031 C24.1406,85.4844 24.3125,85.7031 24.4063,86.1094 C24.4688,86.5156 24.5,86.6406 24.6406,86.7656 C24.7813,86.9063 25.0156,87.0156 25.2344,87.0156 C25.5,87.0156 25.7656,86.875 25.9375,86.6563 C26.0469,86.5 26.0781,86.3125 26.0781,85.8906 L26.0781,84.4688 C26.0781,84.0313 26.0625,83.9063 25.9688,83.75 C25.8125,83.4844 25.5313,83.3438 25.2344,83.3438 C24.9375,83.3438 24.7344,83.4375 24.5156,83.75 L24.3438,83.6719 Z " fill="#000000"/><text fill="#000000" font-family="sans-serif" font-size="12" lengthAdjust="spacing" textLength="54" x="36" y="92.1543">Farmacia</text><line style="stroke:#A80036;stroke-width:1.5;" x1="8" x2="92" y1="104" y2="104"/><text fill="#000000" font-family="sans-serif" font-size="11" lengthAdjust="spacing" textLength="21" x="13" y="118.2104">-NIF</text><!--MD5=[3f1202280bfe3359d2f91fb9b6e32986]
class Estafeta--><rect codeLine="9" fill="#FEFECE" filter="url(#fwxgbrblm0uue)" height="116.8281" id="Estafeta" style="stroke:#A80036;stroke-width:1.5;" width="155" x="429" y="7"/><ellipse cx="478.25" cy="23" fill="#ADD1B2" rx="11" ry="11" style="stroke:#A80036;stroke-width:1.0;"/><path d="M480.5938,18.6719 C479.6563,18.2344 479.0625,18.0938 478.1875,18.0938 C475.5625,18.0938 473.5625,20.1719 473.5625,22.8906 L473.5625,24.0156 C473.5625,26.5938 475.6719,28.4844 478.5625,28.4844 C479.7813,28.4844 480.9375,28.1875 481.6875,27.6406 C482.2656,27.2344 482.5938,26.7813 482.5938,26.3906 C482.5938,25.9375 482.2031,25.5469 481.7344,25.5469 C481.5156,25.5469 481.3125,25.625 481.125,25.8125 C480.6719,26.2969 480.6719,26.2969 480.4844,26.3906 C480.0625,26.6563 479.375,26.7813 478.6094,26.7813 C476.5625,26.7813 475.2656,25.6875 475.2656,23.9844 L475.2656,22.8906 C475.2656,21.1094 476.5156,19.7969 478.25,19.7969 C478.8281,19.7969 479.4375,19.9531 479.9063,20.2031 C480.3906,20.4844 480.5625,20.7031 480.6563,21.1094 C480.7188,21.5156 480.75,21.6406 480.8906,21.7656 C481.0313,21.9063 481.2656,22.0156 481.4844,22.0156 C481.75,22.0156 482.0156,21.875 482.1875,21.6563 C482.2969,21.5 482.3281,21.3125 482.3281,20.8906 L482.3281,19.4688 C482.3281,19.0313 482.3125,18.9063 482.2188,18.75 C482.0625,18.4844 481.7813,18.3438 481.4844,18.3438 C481.1875,18.3438 480.9844,18.4375 480.7656,18.75 L480.5938,18.6719 Z " fill="#000000"/><text fill="#000000" font-family="sans-serif" font-size="12" lengthAdjust="spacing" textLength="48" x="498.75" y="27.1543">Estafeta</text><line style="stroke:#A80036;stroke-width:1.5;" x1="430" x2="583" y1="39" y2="39"/><text fill="#000000" font-family="sans-serif" font-size="11" lengthAdjust="spacing" textLength="21" x="435" y="53.2104">-NIF</text><text fill="#000000" font-family="sans-serif" font-size="11" lengthAdjust="spacing" textLength="37" x="435" y="66.0151">-nome</text><text fill="#000000" font-family="sans-serif" font-size="11" lengthAdjust="spacing" textLength="36" x="435" y="78.8198">-email</text><text fill="#000000" font-family="sans-serif" font-size="11" lengthAdjust="spacing" textLength="79" x="435" y="91.6245">-pesoEstafeta</text><text fill="#000000" font-family="sans-serif" font-size="11" lengthAdjust="spacing" textLength="143" x="435" y="104.4292">-numeroSegurancaSocial</text><text fill="#000000" font-family="sans-serif" font-size="11" lengthAdjust="spacing" textLength="57" x="435" y="117.2339">-password</text><!--MD5=[b1b5bcb3873f5e6d986aef558b6021e9]
class EstadoEstafeta--><rect codeLine="18" fill="#FEFECE" filter="url(#fwxgbrblm0uue)" height="65.6094" id="EstadoEstafeta" style="stroke:#A80036;stroke-width:1.5;" width="125" x="743" y="23.5"/><ellipse cx="759.8" cy="39.5" fill="#ADD1B2" rx="11" ry="11" style="stroke:#A80036;stroke-width:1.0;"/><path d="M762.1438,35.1719 C761.2063,34.7344 760.6125,34.5938 759.7375,34.5938 C757.1125,34.5938 755.1125,36.6719 755.1125,39.3906 L755.1125,40.5156 C755.1125,43.0938 757.2219,44.9844 760.1125,44.9844 C761.3313,44.9844 762.4875,44.6875 763.2375,44.1406 C763.8156,43.7344 764.1438,43.2813 764.1438,42.8906 C764.1438,42.4375 763.7531,42.0469 763.2844,42.0469 C763.0656,42.0469 762.8625,42.125 762.675,42.3125 C762.2219,42.7969 762.2219,42.7969 762.0344,42.8906 C761.6125,43.1563 760.925,43.2813 760.1594,43.2813 C758.1125,43.2813 756.8156,42.1875 756.8156,40.4844 L756.8156,39.3906 C756.8156,37.6094 758.0656,36.2969 759.8,36.2969 C760.3781,36.2969 760.9875,36.4531 761.4563,36.7031 C761.9406,36.9844 762.1125,37.2031 762.2063,37.6094 C762.2688,38.0156 762.3,38.1406 762.4406,38.2656 C762.5813,38.4063 762.8156,38.5156 763.0344,38.5156 C763.3,38.5156 763.5656,38.375 763.7375,38.1563 C763.8469,38 763.8781,37.8125 763.8781,37.3906 L763.8781,35.9688 C763.8781,35.5313 763.8625,35.4063 763.7688,35.25 C763.6125,34.9844 763.3313,34.8438 763.0344,34.8438 C762.7375,34.8438 762.5344,34.9375 762.3156,35.25 L762.1438,35.1719 Z " fill="#000000"/><text fill="#000000" font-family="sans-serif" font-size="12" lengthAdjust="spacing" textLength="89" x="774.2" y="43.6543">EstadoEstafeta</text><line style="stroke:#A80036;stroke-width:1.5;" x1="744" x2="867" y1="55.5" y2="55.5"/><text fill="#000000" font-family="sans-serif" font-size="11" lengthAdjust="spacing" textLength="113" x="749" y="69.7104">-id_estado_estafeta</text><text fill="#000000" font-family="sans-serif" font-size="11" lengthAdjust="spacing" textLength="69" x="749" y="82.5151">-designacao</text><!--MD5=[5dd1d6732c071e710b9290b531f2fa3b]
class Utilizador--><rect codeLine="23" fill="#FEFECE" filter="url(#fwxgbrblm0uue)" height="104.0234" id="Utilizador" style="stroke:#A80036;stroke-width:1.5;" width="155" x="728" y="124.5"/><ellipse cx="772.75" cy="140.5" fill="#ADD1B2" rx="11" ry="11" style="stroke:#A80036;stroke-width:1.0;"/><path d="M775.0938,136.1719 C774.1563,135.7344 773.5625,135.5938 772.6875,135.5938 C770.0625,135.5938 768.0625,137.6719 768.0625,140.3906 L768.0625,141.5156 C768.0625,144.0938 770.1719,145.9844 773.0625,145.9844 C774.2813,145.9844 775.4375,145.6875 776.1875,145.1406 C776.7656,144.7344 777.0938,144.2813 777.0938,143.8906 C777.0938,143.4375 776.7031,143.0469 776.2344,143.0469 C776.0156,143.0469 775.8125,143.125 775.625,143.3125 C775.1719,143.7969 775.1719,143.7969 774.9844,143.8906 C774.5625,144.1563 773.875,144.2813 773.1094,144.2813 C771.0625,144.2813 769.7656,143.1875 769.7656,141.4844 L769.7656,140.3906 C769.7656,138.6094 771.0156,137.2969 772.75,137.2969 C773.3281,137.2969 773.9375,137.4531 774.4063,137.7031 C774.8906,137.9844 775.0625,138.2031 775.1563,138.6094 C775.2188,139.0156 775.25,139.1406 775.3906,139.2656 C775.5313,139.4063 775.7656,139.5156 775.9844,139.5156 C776.25,139.5156 776.5156,139.375 776.6875,139.1563 C776.7969,139 776.8281,138.8125 776.8281,138.3906 L776.8281,136.9688 C776.8281,136.5313 776.8125,136.4063 776.7188,136.25 C776.5625,135.9844 776.2813,135.8438 775.9844,135.8438 C775.6875,135.8438 775.4844,135.9375 775.2656,136.25 L775.0938,136.1719 Z " fill="#000000"/><text fill="#000000" font-family="sans-serif" font-size="12" lengthAdjust="spacing" textLength="57" x="793.25" y="144.6543">Utilizador</text><line style="stroke:#A80036;stroke-width:1.5;" x1="729" x2="882" y1="156.5" y2="156.5"/><text fill="#000000" font-family="sans-serif" font-size="11" lengthAdjust="spacing" textLength="21" x="734" y="170.7104">-NIF</text><text fill="#000000" font-family="sans-serif" font-size="11" lengthAdjust="spacing" textLength="37" x="734" y="183.5151">-nome</text><text fill="#000000" font-family="sans-serif" font-size="11" lengthAdjust="spacing" textLength="36" x="734" y="196.3198">-email</text><text fill="#000000" font-family="sans-serif" font-size="11" lengthAdjust="spacing" textLength="143" x="734" y="209.1245">-numeroSegurancaSocial</text><text fill="#000000" font-family="sans-serif" font-size="11" lengthAdjust="spacing" textLength="57" x="734" y="221.9292">-password</text><!--MD5=[fdcda49d453d44c676d62f3f6af62207]
class Administrador--><rect fill="#FEFECE" filter="url(#fwxgbrblm0uue)" height="40" id="Administrador" style="stroke:#A80036;stroke-width:1.5;" width="116" x="194" y="135.5"/><ellipse cx="209" cy="151.5" fill="#ADD1B2" rx="11" ry="11" style="stroke:#A80036;stroke-width:1.0;"/><path d="M211.3438,147.1719 C210.4063,146.7344 209.8125,146.5938 208.9375,146.5938 C206.3125,146.5938 204.3125,148.6719 204.3125,151.3906 L204.3125,152.5156 C204.3125,155.0938 206.4219,156.9844 209.3125,156.9844 C210.5313,156.9844 211.6875,156.6875 212.4375,156.1406 C213.0156,155.7344 213.3438,155.2813 213.3438,154.8906 C213.3438,154.4375 212.9531,154.0469 212.4844,154.0469 C212.2656,154.0469 212.0625,154.125 211.875,154.3125 C211.4219,154.7969 211.4219,154.7969 211.2344,154.8906 C210.8125,155.1563 210.125,155.2813 209.3594,155.2813 C207.3125,155.2813 206.0156,154.1875 206.0156,152.4844 L206.0156,151.3906 C206.0156,149.6094 207.2656,148.2969 209,148.2969 C209.5781,148.2969 210.1875,148.4531 210.6563,148.7031 C211.1406,148.9844 211.3125,149.2031 211.4063,149.6094 C211.4688,150.0156 211.5,150.1406 211.6406,150.2656 C211.7813,150.4063 212.0156,150.5156 212.2344,150.5156 C212.5,150.5156 212.7656,150.375 212.9375,150.1563 C213.0469,150 213.0781,149.8125 213.0781,149.3906 L213.0781,147.9688 C213.0781,147.5313 213.0625,147.4063 212.9688,147.25 C212.8125,146.9844 212.5313,146.8438 212.2344,146.8438 C211.9375,146.8438 211.7344,146.9375 211.5156,147.25 L211.3438,147.1719 Z " fill="#000000"/><text fill="#000000" font-family="sans-serif" font-size="12" lengthAdjust="spacing" textLength="84" x="223" y="155.6543">Administrador</text><line style="stroke:#A80036;stroke-width:1.5;" x1="195" x2="309" y1="167.5" y2="167.5"/><!--MD5=[b39feb7ad9ed03cb1a05d76e3f369af6]
link Estafeta to EstadoEstafeta--><path codeLine="31" d="M584.371,63.171 C633.699,61.676 696.893,59.761 742.909,58.366 " fill="none" id="Estafeta-EstadoEstafeta" style="stroke:#A80036;stroke-width:1.0;"/><polygon fill="#000000" points="645.4977,50.9149,636.3677,48.2514,636.5458,54.1265,645.4977,50.9149" style="stroke:#000000;stroke-width:1.0;"/><text fill="#000000" font-family="sans-serif" font-size="13" lengthAdjust="spacing" textLength="26" x="649.5" y="55.5669">tem</text><text fill="#000000" font-family="sans-serif" font-size="13" lengthAdjust="spacing" textLength="8" x="591.9185" y="75.7286">1</text><text fill="#000000" font-family="sans-serif" font-size="13" lengthAdjust="spacing" textLength="8" x="726.7932" y="71.6063">1</text><!--MD5=[aa5a8ec5fd097e3d415964f18fa48efb]
link Estafeta to Utilizador--><path codeLine="32" d="M584.371,94.23 C628.543,110.738 683.833,131.4024 727.951,147.8908 " fill="none" id="Estafeta-Utilizador" style="stroke:#A80036;stroke-width:1.0;"/><polygon fill="#000000" points="623.6836,100.8168,616.2398,94.8973,614.182,100.4032,623.6836,100.8168" style="stroke:#000000;stroke-width:1.0;"/><text fill="#000000" font-family="sans-serif" font-size="13" lengthAdjust="spacing" textLength="69" x="628" y="103.5669">atua como</text><text fill="#000000" font-family="sans-serif" font-size="13" lengthAdjust="spacing" textLength="8" x="591.9185" y="109.6509">1</text><text fill="#000000" font-family="sans-serif" font-size="13" lengthAdjust="spacing" textLength="8" x="711.9235" y="157.8851">1</text><!--MD5=[b4161b205744775e44f73e41ced309e0]
link Administrador to Utilizador--><path codeLine="33" d="M310.201,157.6781 C409.949,161.4763 615.744,169.3126 727.765,173.5781 " fill="none" id="Administrador-Utilizador" style="stroke:#A80036;stroke-width:1.0;"/><polygon fill="#000000" points="474.4964,153.2567,465.5697,149.9757,465.346,155.8493,474.4964,153.2567" style="stroke:#000000;stroke-width:1.0;"/><text fill="#000000" font-family="sans-serif" font-size="13" lengthAdjust="spacing" textLength="69" x="478.5" y="157.5669">atua como</text><text fill="#000000" font-family="sans-serif" font-size="13" lengthAdjust="spacing" textLength="8" x="318.1705" y="170.9935">1</text><text fill="#000000" font-family="sans-serif" font-size="13" lengthAdjust="spacing" textLength="8" x="711.9746" y="186.0866">1</text><!--MD5=[4fe240217702a86376bae6ca4f1a3aaa]
link Administrador to Estafeta--><path codeLine="34" d="M310.179,138.1453 C337.259,129.6583 369.959,119.022 399,108.5 C408.749,104.968 418.931,101.097 428.969,97.17 " fill="none" id="Administrador-Estafeta" style="stroke:#A80036;stroke-width:1.0;"/><polygon fill="#000000" points="349.7267,98.436,340.2177,98.6072,342.1344,104.1637,349.7267,98.436" style="stroke:#000000;stroke-width:1.0;"/><text fill="#000000" font-family="sans-serif" font-size="13" lengthAdjust="spacing" textLength="44" x="354" y="104.5669">regista</text><text fill="#000000" font-family="sans-serif" font-size="13" lengthAdjust="spacing" textLength="8" x="318.1457" y="148.9581">1</text><text fill="#000000" font-family="sans-serif" font-size="13" lengthAdjust="spacing" textLength="7" x="413.9925" y="113.1077">*</text><!--MD5=[06143d4fc5f7e61d4193d2b4f541983b]
link Farmacia to Estafeta--><path codeLine="35" d="M93.3501,95.425 C169.929,89.865 332.414,78.067 428.919,71.06 " fill="none" id="Farmacia-Estafeta" style="stroke:#A80036;stroke-width:1.0;"/><polygon fill="#000000" points="241.4869,70.7043,232.2527,68.4281,232.6784,74.2906,241.4869,70.7043" style="stroke:#000000;stroke-width:1.0;"/><text fill="#000000" font-family="sans-serif" font-size="13" lengthAdjust="spacing" textLength="26" x="245.5" y="75.5669">tem</text><text fill="#000000" font-family="sans-serif" font-size="13" lengthAdjust="spacing" textLength="8" x="100.8965" y="108.2233">1</text><text fill="#000000" font-family="sans-serif" font-size="13" lengthAdjust="spacing" textLength="7" x="413.9376" y="84.4275">*</text><!--MD5=[1eb578f81baca05fae5600e8efb79c07]
link Farmacia to Administrador--><path codeLine="36" d="M93.4149,110.588 C122.654,118.921 161.858,130.0944 193.847,139.2114 " fill="none" id="Farmacia-Administrador" style="stroke:#A80036;stroke-width:1.0;"/><polygon fill="#000000" points="132.8085,112.4368,124.9153,107.1313,123.3043,112.7841,132.8085,112.4368" style="stroke:#000000;stroke-width:1.0;"/><text fill="#000000" font-family="sans-serif" font-size="13" lengthAdjust="spacing" textLength="26" x="137" y="115.5669">tem</text><text fill="#000000" font-family="sans-serif" font-size="13" lengthAdjust="spacing" textLength="8" x="100.9716" y="125.8029">1</text><text fill="#000000" font-family="sans-serif" font-size="13" lengthAdjust="spacing" textLength="8" x="177.8836" y="150.1608">1</text><!--MD5=[a4cfa135633b4ef532ecc724ce35a6c8]
@startuml
skinparam classAttributeIconSize 0
hide methods
left to right direction

class Farmacia {
  -NIF
}

class Estafeta {
  -NIF
  -nome
  -email
  -pesoEstafeta
  -numeroSegurancaSocial
  -password
}

class EstadoEstafeta {
  -id_estado_estafeta
  -designacao
}

class Utilizador {
  -NIF
  -nome
  -email
  -numeroSegurancaSocial
  -password
}

Estafeta "1" - - "1" EstadoEstafeta: tem >
Estafeta "1" - - "1" Utilizador: atua como >
Administrador "1" - - "1" Utilizador: atua como >
Administrador "1" - - "*" Estafeta: regista >
Farmacia "1" - - "*" Estafeta: tem >
Farmacia "1" - - "1" Administrador: tem >
@enduml

PlantUML version 1.2020.27beta8(Unknown compile time)
(GPL source distribution)
Java Runtime: Java(TM) SE Runtime Environment
JVM: Java HotSpot(TM) 64-Bit Server VM
Default Encoding: UTF-8
Language: en
Country: US
--></g></svg>