<?xml version="1.0" encoding="UTF-8" standalone="no"?><svg xmlns="http://www.w3.org/2000/svg" xmlns:xlink="http://www.w3.org/1999/xlink" contentScriptType="application/ecmascript" contentStyleType="text/css" height="226px" preserveAspectRatio="none" style="width:833px;height:226px;" version="1.1" viewBox="0 0 833 226" width="833px" zoomAndPan="magnify"><defs><filter height="300%" id="fgkyf71aw53ty" width="300%" x="-1" y="-1"><feGaussianBlur result="blurOut" stdDeviation="2.0"/><feColorMatrix in="blurOut" result="blurOut2" type="matrix" values="0 0 0 0 0 0 0 0 0 0 0 0 0 0 0 0 0 0 .4 0"/><feOffset dx="4.0" dy="4.0" in="blurOut2" result="blurOut3"/><feBlend in="SourceGraphic" in2="blurOut3" mode="normal"/></filter></defs><g><!--MD5=[6613c9cd406ef433ff06f5e98b28abd9]
class Farmacia--><rect codeLine="5" fill="#FEFECE" filter="url(#fgkyf71aw53ty)" height="65.6094" id="Farmacia" style="stroke:#A80036;stroke-width:1.5;" width="86" x="7" y="62"/><ellipse cx="22" cy="78" fill="#ADD1B2" rx="11" ry="11" style="stroke:#A80036;stroke-width:1.0;"/><path d="M24.3438,73.6719 C23.4063,73.2344 22.8125,73.0938 21.9375,73.0938 C19.3125,73.0938 17.3125,75.1719 17.3125,77.8906 L17.3125,79.0156 C17.3125,81.5938 19.4219,83.4844 22.3125,83.4844 C23.5313,83.4844 24.6875,83.1875 25.4375,82.6406 C26.0156,82.2344 26.3438,81.7813 26.3438,81.3906 C26.3438,80.9375 25.9531,80.5469 25.4844,80.5469 C25.2656,80.5469 25.0625,80.625 24.875,80.8125 C24.4219,81.2969 24.4219,81.2969 24.2344,81.3906 C23.8125,81.6563 23.125,81.7813 22.3594,81.7813 C20.3125,81.7813 19.0156,80.6875 19.0156,78.9844 L19.0156,77.8906 C19.0156,76.1094 20.2656,74.7969 22,74.7969 C22.5781,74.7969 23.1875,74.9531 23.6563,75.2031 C24.1406,75.4844 24.3125,75.7031 24.4063,76.1094 C24.4688,76.5156 24.5,76.6406 24.6406,76.7656 C24.7813,76.9063 25.0156,77.0156 25.2344,77.0156 C25.5,77.0156 25.7656,76.875 25.9375,76.6563 C26.0469,76.5 26.0781,76.3125 26.0781,75.8906 L26.0781,74.4688 C26.0781,74.0313 26.0625,73.9063 25.9688,73.75 C25.8125,73.4844 25.5313,73.3438 25.2344,73.3438 C24.9375,73.3438 24.7344,73.4375 24.5156,73.75 L24.3438,73.6719 Z " fill="#000000"/><text fill="#000000" font-family="sans-serif" font-size="12" lengthAdjust="spacing" textLength="54" x="36" y="82.1543">Farmacia</text><line style="stroke:#A80036;stroke-width:1.5;" x1="8" x2="92" y1="94" y2="94"/><text fill="#000000" font-family="sans-serif" font-size="11" lengthAdjust="spacing" textLength="21" x="13" y="108.2104">-NIF</text><text fill="#000000" font-family="sans-serif" font-size="11" lengthAdjust="spacing" textLength="36" x="13" y="121.0151">-email</text><!--MD5=[3f1202280bfe3359d2f91fb9b6e32986]
class Estafeta--><rect codeLine="10" fill="#FEFECE" filter="url(#fgkyf71aw53ty)" height="52.8047" id="Estafeta" style="stroke:#A80036;stroke-width:1.5;" width="91" x="429" y="45.5"/><ellipse cx="448.95" cy="61.5" fill="#ADD1B2" rx="11" ry="11" style="stroke:#A80036;stroke-width:1.0;"/><path d="M451.2938,57.1719 C450.3563,56.7344 449.7625,56.5938 448.8875,56.5938 C446.2625,56.5938 444.2625,58.6719 444.2625,61.3906 L444.2625,62.5156 C444.2625,65.0938 446.3719,66.9844 449.2625,66.9844 C450.4813,66.9844 451.6375,66.6875 452.3875,66.1406 C452.9656,65.7344 453.2938,65.2813 453.2938,64.8906 C453.2938,64.4375 452.9031,64.0469 452.4344,64.0469 C452.2156,64.0469 452.0125,64.125 451.825,64.3125 C451.3719,64.7969 451.3719,64.7969 451.1844,64.8906 C450.7625,65.1563 450.075,65.2813 449.3094,65.2813 C447.2625,65.2813 445.9656,64.1875 445.9656,62.4844 L445.9656,61.3906 C445.9656,59.6094 447.2156,58.2969 448.95,58.2969 C449.5281,58.2969 450.1375,58.4531 450.6063,58.7031 C451.0906,58.9844 451.2625,59.2031 451.3563,59.6094 C451.4188,60.0156 451.45,60.1406 451.5906,60.2656 C451.7313,60.4063 451.9656,60.5156 452.1844,60.5156 C452.45,60.5156 452.7156,60.375 452.8875,60.1563 C452.9969,60 453.0281,59.8125 453.0281,59.3906 L453.0281,57.9688 C453.0281,57.5313 453.0125,57.4063 452.9188,57.25 C452.7625,56.9844 452.4813,56.8438 452.1844,56.8438 C451.8875,56.8438 451.6844,56.9375 451.4656,57.25 L451.2938,57.1719 Z " fill="#000000"/><text fill="#000000" font-family="sans-serif" font-size="12" lengthAdjust="spacing" textLength="48" x="464.05" y="65.6543">Estafeta</text><line style="stroke:#A80036;stroke-width:1.5;" x1="430" x2="519" y1="77.5" y2="77.5"/><text fill="#000000" font-family="sans-serif" font-size="11" lengthAdjust="spacing" textLength="79" x="435" y="91.7104">-pesoEstafeta</text><!--MD5=[b1b5bcb3873f5e6d986aef558b6021e9]
class EstadoEstafeta--><rect codeLine="14" fill="#FEFECE" filter="url(#fgkyf71aw53ty)" height="65.6094" id="EstadoEstafeta" style="stroke:#A80036;stroke-width:1.5;" width="121" x="681" y="7"/><ellipse cx="696" cy="23" fill="#ADD1B2" rx="11" ry="11" style="stroke:#A80036;stroke-width:1.0;"/><path d="M698.3438,18.6719 C697.4063,18.2344 696.8125,18.0938 695.9375,18.0938 C693.3125,18.0938 691.3125,20.1719 691.3125,22.8906 L691.3125,24.0156 C691.3125,26.5938 693.4219,28.4844 696.3125,28.4844 C697.5313,28.4844 698.6875,28.1875 699.4375,27.6406 C700.0156,27.2344 700.3438,26.7813 700.3438,26.3906 C700.3438,25.9375 699.9531,25.5469 699.4844,25.5469 C699.2656,25.5469 699.0625,25.625 698.875,25.8125 C698.4219,26.2969 698.4219,26.2969 698.2344,26.3906 C697.8125,26.6563 697.125,26.7813 696.3594,26.7813 C694.3125,26.7813 693.0156,25.6875 693.0156,23.9844 L693.0156,22.8906 C693.0156,21.1094 694.2656,19.7969 696,19.7969 C696.5781,19.7969 697.1875,19.9531 697.6563,20.2031 C698.1406,20.4844 698.3125,20.7031 698.4063,21.1094 C698.4688,21.5156 698.5,21.6406 698.6406,21.7656 C698.7813,21.9063 699.0156,22.0156 699.2344,22.0156 C699.5,22.0156 699.7656,21.875 699.9375,21.6563 C700.0469,21.5 700.0781,21.3125 700.0781,20.8906 L700.0781,19.4688 C700.0781,19.0313 700.0625,18.9063 699.9688,18.75 C699.8125,18.4844 699.5313,18.3438 699.2344,18.3438 C698.9375,18.3438 698.7344,18.4375 698.5156,18.75 L698.3438,18.6719 Z " fill="#000000"/><text fill="#000000" font-family="sans-serif" font-size="12" lengthAdjust="spacing" textLength="89" x="710" y="27.1543">EstadoEstafeta</text><line style="stroke:#A80036;stroke-width:1.5;" x1="682" x2="801" y1="39" y2="39"/><text fill="#000000" font-family="sans-serif" font-size="11" lengthAdjust="spacing" textLength="14" x="687" y="53.2104">-id</text><text fill="#000000" font-family="sans-serif" font-size="11" lengthAdjust="spacing" textLength="69" x="687" y="66.0151">-designacao</text><!--MD5=[5dd1d6732c071e710b9290b531f2fa3b]
class Utilizador--><rect codeLine="19" fill="#FEFECE" filter="url(#fgkyf71aw53ty)" height="104.0234" id="Utilizador" style="stroke:#A80036;stroke-width:1.5;" width="155" x="664" y="108"/><ellipse cx="708.75" cy="124" fill="#ADD1B2" rx="11" ry="11" style="stroke:#A80036;stroke-width:1.0;"/><path d="M711.0938,119.6719 C710.1563,119.2344 709.5625,119.0938 708.6875,119.0938 C706.0625,119.0938 704.0625,121.1719 704.0625,123.8906 L704.0625,125.0156 C704.0625,127.5938 706.1719,129.4844 709.0625,129.4844 C710.2813,129.4844 711.4375,129.1875 712.1875,128.6406 C712.7656,128.2344 713.0938,127.7813 713.0938,127.3906 C713.0938,126.9375 712.7031,126.5469 712.2344,126.5469 C712.0156,126.5469 711.8125,126.625 711.625,126.8125 C711.1719,127.2969 711.1719,127.2969 710.9844,127.3906 C710.5625,127.6563 709.875,127.7813 709.1094,127.7813 C707.0625,127.7813 705.7656,126.6875 705.7656,124.9844 L705.7656,123.8906 C705.7656,122.1094 707.0156,120.7969 708.75,120.7969 C709.3281,120.7969 709.9375,120.9531 710.4063,121.2031 C710.8906,121.4844 711.0625,121.7031 711.1563,122.1094 C711.2188,122.5156 711.25,122.6406 711.3906,122.7656 C711.5313,122.9063 711.7656,123.0156 711.9844,123.0156 C712.25,123.0156 712.5156,122.875 712.6875,122.6563 C712.7969,122.5 712.8281,122.3125 712.8281,121.8906 L712.8281,120.4688 C712.8281,120.0313 712.8125,119.9063 712.7188,119.75 C712.5625,119.4844 712.2813,119.3438 711.9844,119.3438 C711.6875,119.3438 711.4844,119.4375 711.2656,119.75 L711.0938,119.6719 Z " fill="#000000"/><text fill="#000000" font-family="sans-serif" font-size="12" lengthAdjust="spacing" textLength="57" x="729.25" y="128.1543">Utilizador</text><line style="stroke:#A80036;stroke-width:1.5;" x1="665" x2="818" y1="140" y2="140"/><text fill="#000000" font-family="sans-serif" font-size="11" lengthAdjust="spacing" textLength="21" x="670" y="154.2104">-NIF</text><text fill="#000000" font-family="sans-serif" font-size="11" lengthAdjust="spacing" textLength="37" x="670" y="167.0151">-nome</text><text fill="#000000" font-family="sans-serif" font-size="11" lengthAdjust="spacing" textLength="36" x="670" y="179.8198">-email</text><text fill="#000000" font-family="sans-serif" font-size="11" lengthAdjust="spacing" textLength="143" x="670" y="192.6245">-numeroSegurancaSocial</text><text fill="#000000" font-family="sans-serif" font-size="11" lengthAdjust="spacing" textLength="57" x="670" y="205.4292">-password</text><!--MD5=[fdcda49d453d44c676d62f3f6af62207]
class Administrador--><rect fill="#FEFECE" filter="url(#fgkyf71aw53ty)" height="40" id="Administrador" style="stroke:#A80036;stroke-width:1.5;" width="116" x="194" y="132"/><ellipse cx="209" cy="148" fill="#ADD1B2" rx="11" ry="11" style="stroke:#A80036;stroke-width:1.0;"/><path d="M211.3438,143.6719 C210.4063,143.2344 209.8125,143.0938 208.9375,143.0938 C206.3125,143.0938 204.3125,145.1719 204.3125,147.8906 L204.3125,149.0156 C204.3125,151.5938 206.4219,153.4844 209.3125,153.4844 C210.5313,153.4844 211.6875,153.1875 212.4375,152.6406 C213.0156,152.2344 213.3438,151.7813 213.3438,151.3906 C213.3438,150.9375 212.9531,150.5469 212.4844,150.5469 C212.2656,150.5469 212.0625,150.625 211.875,150.8125 C211.4219,151.2969 211.4219,151.2969 211.2344,151.3906 C210.8125,151.6563 210.125,151.7813 209.3594,151.7813 C207.3125,151.7813 206.0156,150.6875 206.0156,148.9844 L206.0156,147.8906 C206.0156,146.1094 207.2656,144.7969 209,144.7969 C209.5781,144.7969 210.1875,144.9531 210.6563,145.2031 C211.1406,145.4844 211.3125,145.7031 211.4063,146.1094 C211.4688,146.5156 211.5,146.6406 211.6406,146.7656 C211.7813,146.9063 212.0156,147.0156 212.2344,147.0156 C212.5,147.0156 212.7656,146.875 212.9375,146.6563 C213.0469,146.5 213.0781,146.3125 213.0781,145.8906 L213.0781,144.4688 C213.0781,144.0313 213.0625,143.9063 212.9688,143.75 C212.8125,143.4844 212.5313,143.3438 212.2344,143.3438 C211.9375,143.3438 211.7344,143.4375 211.5156,143.75 L211.3438,143.6719 Z " fill="#000000"/><text fill="#000000" font-family="sans-serif" font-size="12" lengthAdjust="spacing" textLength="84" x="223" y="152.1543">Administrador</text><line style="stroke:#A80036;stroke-width:1.5;" x1="195" x2="309" y1="164" y2="164"/><!--MD5=[b39feb7ad9ed03cb1a05d76e3f369af6]
link Estafeta to EstadoEstafeta--><path codeLine="27" d="M520.154,66.608 C564.258,61.282 631.996,53.102 680.724,47.218 " fill="none" id="Estafeta-EstadoEstafeta" style="stroke:#A80036;stroke-width:1.0;"/><polygon fill="#000000" points="581.4639,43.967,572.1318,42.1336,572.8364,47.9691,581.4639,43.967" style="stroke:#000000;stroke-width:1.0;"/><text fill="#000000" font-family="sans-serif" font-size="13" lengthAdjust="spacing" textLength="26" x="585.5" y="49.0669">tem</text><text fill="#000000" font-family="sans-serif" font-size="13" lengthAdjust="spacing" textLength="8" x="528.0676" y="79.037">1</text><text fill="#000000" font-family="sans-serif" font-size="13" lengthAdjust="spacing" textLength="8" x="664.8294" y="61.1105">1</text><!--MD5=[aa5a8ec5fd097e3d415964f18fa48efb]
link Estafeta to Utilizador--><path codeLine="28" d="M520.154,86.828 C559.391,99.858 617.332,119.0989 663.952,134.5804 " fill="none" id="Estafeta-Utilizador" style="stroke:#A80036;stroke-width:1.0;"/><polygon fill="#000000" points="559.7452,91.1422,552.0873,85.5024,550.2348,91.0807,559.7452,91.1422" style="stroke:#000000;stroke-width:1.0;"/><text fill="#000000" font-family="sans-serif" font-size="13" lengthAdjust="spacing" textLength="69" x="564" y="94.0669">atua como</text><text fill="#000000" font-family="sans-serif" font-size="13" lengthAdjust="spacing" textLength="8" x="528.0676" y="102.4796">1</text><text fill="#000000" font-family="sans-serif" font-size="13" lengthAdjust="spacing" textLength="8" x="647.9246" y="144.8887">1</text><!--MD5=[b4161b205744775e44f73e41ced309e0]
link Administrador to Utilizador--><path codeLine="29" d="M310.356,152.9412 C398.071,154.3807 565.664,157.1309 663.757,158.7406 " fill="none" id="Administrador-Utilizador" style="stroke:#A80036;stroke-width:1.0;"/><polygon fill="#000000" points="442.4993,145.6484,433.5037,142.5615,433.4072,148.4386,442.4993,145.6484" style="stroke:#000000;stroke-width:1.0;"/><text fill="#000000" font-family="sans-serif" font-size="13" lengthAdjust="spacing" textLength="69" x="446.5" y="150.0669">atua como</text><text fill="#000000" font-family="sans-serif" font-size="13" lengthAdjust="spacing" textLength="8" x="317.9556" y="166.045">1</text><text fill="#000000" font-family="sans-serif" font-size="13" lengthAdjust="spacing" textLength="8" x="647.9659" y="171.4075">1</text><!--MD5=[4fe240217702a86376bae6ca4f1a3aaa]
link Administrador to Estafeta--><path codeLine="30" d="M310.34,135.077 C337.454,126.6846 370.137,116.0029 399,105 C408.781,101.271 419.133,96.941 428.908,92.668 " fill="none" id="Administrador-Estafeta" style="stroke:#A80036;stroke-width:1.0;"/><polygon fill="#000000" points="349.7079,94.8825,340.2014,95.1615,342.181,100.696,349.7079,94.8825" style="stroke:#000000;stroke-width:1.0;"/><text fill="#000000" font-family="sans-serif" font-size="13" lengthAdjust="spacing" textLength="44" x="354" y="101.0669">regista</text><text fill="#000000" font-family="sans-serif" font-size="13" lengthAdjust="spacing" textLength="8" x="317.9377" y="146.0036">1</text><text fill="#000000" font-family="sans-serif" font-size="13" lengthAdjust="spacing" textLength="7" x="414.084" y="109.2503">*</text><!--MD5=[06143d4fc5f7e61d4193d2b4f541983b]
link Farmacia to Estafeta--><path codeLine="31" d="M93.2594,92.643 C103.0257,92.101 113.375,91.528 123,91 C232.984,84.964 362.387,77.98 428.959,74.395 " fill="none" id="Farmacia-Estafeta" style="stroke:#A80036;stroke-width:1.0;"/><polygon fill="#000000" points="241.4926,71.295,232.3014,68.8514,232.6204,74.7206,241.4926,71.295" style="stroke:#000000;stroke-width:1.0;"/><text fill="#000000" font-family="sans-serif" font-size="13" lengthAdjust="spacing" textLength="26" x="245.5" y="76.0669">tem</text><text fill="#000000" font-family="sans-serif" font-size="13" lengthAdjust="spacing" textLength="8" x="101.0867" y="88.1207">1</text><text fill="#000000" font-family="sans-serif" font-size="13" lengthAdjust="spacing" textLength="7" x="414.1431" y="88.0651">*</text><!--MD5=[1eb578f81baca05fae5600e8efb79c07]
link Farmacia to Administrador--><path codeLine="32" d="M93.4149,107.088 C122.654,115.4215 161.858,126.5944 193.847,135.7114 " fill="none" id="Farmacia-Administrador" style="stroke:#A80036;stroke-width:1.0;"/><polygon fill="#000000" points="132.8085,108.9368,124.9153,103.6313,123.3043,109.2841,132.8085,108.9368" style="stroke:#000000;stroke-width:1.0;"/><text fill="#000000" font-family="sans-serif" font-size="13" lengthAdjust="spacing" textLength="26" x="137" y="112.0669">tem</text><text fill="#000000" font-family="sans-serif" font-size="13" lengthAdjust="spacing" textLength="8" x="100.9716" y="122.3184">1</text><text fill="#000000" font-family="sans-serif" font-size="13" lengthAdjust="spacing" textLength="8" x="177.8836" y="146.6608">1</text><!--MD5=[07177fe36370b163422223424cd03ad6]
@startuml
skinparam classAttributeIconSize 0
hide methods
left to right direction

class Farmacia {
  -NIF
  -email
}

class Estafeta {
  -pesoEstafeta
}

class EstadoEstafeta {
  -id
  -designacao
}

class Utilizador {
  -NIF
  -nome
  -email
  -numeroSegurancaSocial
  -password
}

Estafeta "1" - - "1" EstadoEstafeta: tem >
Estafeta "1" - - "1" Utilizador: atua como >
Administrador "1" - - "1" Utilizador: atua como >
Administrador "1" - - "*" Estafeta: regista >
Farmacia "1" - - "*" Estafeta: tem >
Farmacia "1" - - "1" Administrador: tem >
@enduml

PlantUML version 1.2021.01beta7(Unknown compile time)
(GPL source distribution)
Java Runtime: Java(TM) SE Runtime Environment
JVM: Java HotSpot(TM) 64-Bit Server VM
Default Encoding: UTF-8
Language: en
Country: US
--></g></svg>