<?xml version="1.0" encoding="UTF-8" standalone="no"?><svg xmlns="http://www.w3.org/2000/svg" xmlns:xlink="http://www.w3.org/1999/xlink" contentScriptType="application/ecmascript" contentStyleType="text/css" height="310px" preserveAspectRatio="none" style="width:179px;height:310px;" version="1.1" viewBox="0 0 179 310" width="179px" zoomAndPan="magnify"><defs><filter height="300%" id="f7o556t9250qt" width="300%" x="-1" y="-1"><feGaussianBlur result="blurOut" stdDeviation="2.0"/><feColorMatrix in="blurOut" result="blurOut2" type="matrix" values="0 0 0 0 0 0 0 0 0 0 0 0 0 0 0 0 0 0 .4 0"/><feOffset dx="4.0" dy="4.0" in="blurOut2" result="blurOut3"/><feBlend in="SourceGraphic" in2="blurOut3" mode="normal"/></filter></defs><g><!--MD5=[a1e428ed5bd82ee9bd1973db4ed024ec]
class LerFicheiroDB--><rect codeLine="3" fill="#FEFECE" filter="url(#f7o556t9250qt)" height="60.8047" id="LerFicheiroDB" style="stroke:#A80036;stroke-width:1.5;" width="143" x="14.5" y="236"/><ellipse cx="41.65" cy="252" fill="#ADD1B2" rx="11" ry="11" style="stroke:#A80036;stroke-width:1.0;"/><path d="M43.9938,247.6719 C43.0563,247.2344 42.4625,247.0938 41.5875,247.0938 C38.9625,247.0938 36.9625,249.1719 36.9625,251.8906 L36.9625,253.0156 C36.9625,255.5938 39.0719,257.4844 41.9625,257.4844 C43.1813,257.4844 44.3375,257.1875 45.0875,256.6406 C45.6656,256.2344 45.9938,255.7813 45.9938,255.3906 C45.9938,254.9375 45.6031,254.5469 45.1344,254.5469 C44.9156,254.5469 44.7125,254.625 44.525,254.8125 C44.0719,255.2969 44.0719,255.2969 43.8844,255.3906 C43.4625,255.6563 42.775,255.7813 42.0094,255.7813 C39.9625,255.7813 38.6656,254.6875 38.6656,252.9844 L38.6656,251.8906 C38.6656,250.1094 39.9156,248.7969 41.65,248.7969 C42.2281,248.7969 42.8375,248.9531 43.3063,249.2031 C43.7906,249.4844 43.9625,249.7031 44.0563,250.1094 C44.1188,250.5156 44.15,250.6406 44.2906,250.7656 C44.4313,250.9063 44.6656,251.0156 44.8844,251.0156 C45.15,251.0156 45.4156,250.875 45.5875,250.6563 C45.6969,250.5 45.7281,250.3125 45.7281,249.8906 L45.7281,248.4688 C45.7281,248.0313 45.7125,247.9063 45.6188,247.75 C45.4625,247.4844 45.1813,247.3438 44.8844,247.3438 C44.5875,247.3438 44.3844,247.4375 44.1656,247.75 L43.9938,247.6719 Z " fill="#000000"/><text fill="#000000" font-family="sans-serif" font-size="12" lengthAdjust="spacing" textLength="84" x="58.35" y="256.1543">LerFicheiroDB</text><line style="stroke:#A80036;stroke-width:1.5;" x1="15.5" x2="156.5" y1="268" y2="268"/><line style="stroke:#A80036;stroke-width:1.5;" x1="15.5" x2="156.5" y1="276" y2="276"/><text fill="#000000" font-family="sans-serif" font-size="11" lengthAdjust="spacing" textLength="131" x="20.5" y="290.2104">+lerFicheiro(String file)</text><!--MD5=[c566c16f67e570a1ee4baea732496217]
class LerFicheiroController--><rect codeLine="7" fill="#FEFECE" filter="url(#f7o556t9250qt)" height="60.8047" id="LerFicheiroController" style="stroke:#A80036;stroke-width:1.5;" width="158" x="7" y="115"/><ellipse cx="22" cy="131" fill="#ADD1B2" rx="11" ry="11" style="stroke:#A80036;stroke-width:1.0;"/><path d="M24.3438,126.6719 C23.4063,126.2344 22.8125,126.0938 21.9375,126.0938 C19.3125,126.0938 17.3125,128.1719 17.3125,130.8906 L17.3125,132.0156 C17.3125,134.5938 19.4219,136.4844 22.3125,136.4844 C23.5313,136.4844 24.6875,136.1875 25.4375,135.6406 C26.0156,135.2344 26.3438,134.7813 26.3438,134.3906 C26.3438,133.9375 25.9531,133.5469 25.4844,133.5469 C25.2656,133.5469 25.0625,133.625 24.875,133.8125 C24.4219,134.2969 24.4219,134.2969 24.2344,134.3906 C23.8125,134.6563 23.125,134.7813 22.3594,134.7813 C20.3125,134.7813 19.0156,133.6875 19.0156,131.9844 L19.0156,130.8906 C19.0156,129.1094 20.2656,127.7969 22,127.7969 C22.5781,127.7969 23.1875,127.9531 23.6563,128.2031 C24.1406,128.4844 24.3125,128.7031 24.4063,129.1094 C24.4688,129.5156 24.5,129.6406 24.6406,129.7656 C24.7813,129.9063 25.0156,130.0156 25.2344,130.0156 C25.5,130.0156 25.7656,129.875 25.9375,129.6563 C26.0469,129.5 26.0781,129.3125 26.0781,128.8906 L26.0781,127.4688 C26.0781,127.0313 26.0625,126.9063 25.9688,126.75 C25.8125,126.4844 25.5313,126.3438 25.2344,126.3438 C24.9375,126.3438 24.7344,126.4375 24.5156,126.75 L24.3438,126.6719 Z " fill="#000000"/><text fill="#000000" font-family="sans-serif" font-size="12" lengthAdjust="spacing" textLength="126" x="36" y="135.1543">LerFicheiroController</text><line style="stroke:#A80036;stroke-width:1.5;" x1="8" x2="164" y1="147" y2="147"/><line style="stroke:#A80036;stroke-width:1.5;" x1="8" x2="164" y1="155" y2="155"/><text fill="#000000" font-family="sans-serif" font-size="11" lengthAdjust="spacing" textLength="131" x="13" y="169.2104">+lerFicheiro(String file)</text><!--MD5=[73d35e31a785c5ba964277e94bd01d57]
class LerFicheiroUI--><rect codeLine="11" fill="#FEFECE" filter="url(#f7o556t9250qt)" height="48" id="LerFicheiroUI" style="stroke:#A80036;stroke-width:1.5;" width="111" x="30.5" y="7"/><ellipse cx="45.5" cy="23" fill="#ADD1B2" rx="11" ry="11" style="stroke:#A80036;stroke-width:1.0;"/><path d="M47.8438,18.6719 C46.9063,18.2344 46.3125,18.0938 45.4375,18.0938 C42.8125,18.0938 40.8125,20.1719 40.8125,22.8906 L40.8125,24.0156 C40.8125,26.5938 42.9219,28.4844 45.8125,28.4844 C47.0313,28.4844 48.1875,28.1875 48.9375,27.6406 C49.5156,27.2344 49.8438,26.7813 49.8438,26.3906 C49.8438,25.9375 49.4531,25.5469 48.9844,25.5469 C48.7656,25.5469 48.5625,25.625 48.375,25.8125 C47.9219,26.2969 47.9219,26.2969 47.7344,26.3906 C47.3125,26.6563 46.625,26.7813 45.8594,26.7813 C43.8125,26.7813 42.5156,25.6875 42.5156,23.9844 L42.5156,22.8906 C42.5156,21.1094 43.7656,19.7969 45.5,19.7969 C46.0781,19.7969 46.6875,19.9531 47.1563,20.2031 C47.6406,20.4844 47.8125,20.7031 47.9063,21.1094 C47.9688,21.5156 48,21.6406 48.1406,21.7656 C48.2813,21.9063 48.5156,22.0156 48.7344,22.0156 C49,22.0156 49.2656,21.875 49.4375,21.6563 C49.5469,21.5 49.5781,21.3125 49.5781,20.8906 L49.5781,19.4688 C49.5781,19.0313 49.5625,18.9063 49.4688,18.75 C49.3125,18.4844 49.0313,18.3438 48.7344,18.3438 C48.4375,18.3438 48.2344,18.4375 48.0156,18.75 L47.8438,18.6719 Z " fill="#000000"/><text fill="#000000" font-family="sans-serif" font-size="12" lengthAdjust="spacing" textLength="79" x="59.5" y="27.1543">LerFicheiroUI</text><line style="stroke:#A80036;stroke-width:1.5;" x1="31.5" x2="140.5" y1="39" y2="39"/><line style="stroke:#A80036;stroke-width:1.5;" x1="31.5" x2="140.5" y1="47" y2="47"/><!--MD5=[a613427cf72195cd040ecd9bd8ee5d76]
link LerFicheiroUI to LerFicheiroController--><path codeLine="14" d="M86,55.038 C86,70.65 86,91.582 86,109.273 " fill="none" id="LerFicheiroUI-to-LerFicheiroController" style="stroke:#A80036;stroke-width:1.0;stroke-dasharray:7.0,7.0;"/><polygon fill="#A80036" points="86,114.65,90,105.65,86,109.65,82,105.65,86,114.65" style="stroke:#A80036;stroke-width:1.0;"/><!--MD5=[7ddc5beb01b34cb5636237774c386fb2]
link LerFicheiroController to LerFicheiroDB--><path codeLine="15" d="M86,176.222 C86,192.692 86,213.2642 86,230.5082 " fill="none" id="LerFicheiroController-to-LerFicheiroDB" style="stroke:#A80036;stroke-width:1.0;stroke-dasharray:7.0,7.0;"/><polygon fill="#A80036" points="86,235.7447,90,226.7447,86,230.7447,82,226.7447,86,235.7447" style="stroke:#A80036;stroke-width:1.0;"/><!--MD5=[5e2e44dc84fe3da04255849edd9a4c9e]
@startuml
skinparam classAttributeIconSize 0

class LerFicheiroDB {
  +lerFicheiro(String file)
}

class LerFicheiroController {
  +lerFicheiro(String file)
}

class LerFicheiroUI {
}

LerFicheiroUI ..> LerFicheiroController
LerFicheiroController ..> LerFicheiroDB
@enduml

PlantUML version 1.2021.01beta3(Unknown compile time)
(GPL source distribution)
Java Runtime: Java(TM) SE Runtime Environment
JVM: Java HotSpot(TM) 64-Bit Server VM
Default Encoding: UTF-8
Language: en
Country: US
--></g></svg>