<?xml version="1.0" encoding="UTF-8" standalone="no"?><svg xmlns="http://www.w3.org/2000/svg" xmlns:xlink="http://www.w3.org/1999/xlink" contentScriptType="application/ecmascript" contentStyleType="text/css" height="1005px" preserveAspectRatio="none" style="width:1027px;height:1005px;" version="1.1" viewBox="0 0 1027 1005" width="1027.5px" zoomAndPan="magnify"><defs><filter height="300%" id="f1f6flq88w39vu" width="300%" x="-1" y="-1"><feGaussianBlur result="blurOut" stdDeviation="2.5"/><feColorMatrix in="blurOut" result="blurOut2" type="matrix" values="0 0 0 0 0 0 0 0 0 0 0 0 0 0 0 0 0 0 .4 0"/><feOffset dx="5.0" dy="5.0" in="blurOut2" result="blurOut3"/><feBlend in="SourceGraphic" in2="blurOut3" mode="normal"/></filter></defs><g><!--MD5=[fdc0efc5253b4b251338dbb2cf88d917]
class VeiculoDB--><rect codeLine="3" fill="#FEFECE" filter="url(#f1f6flq88w39vu)" height="77.2949" id="VeiculoDB" style="stroke:#A80036;stroke-width:1.875;" width="370" x="76.875" y="466.25"/><ellipse cx="220.9375" cy="486.25" fill="#ADD1B2" rx="13.75" ry="13.75" style="stroke:#A80036;stroke-width:1.25;"/><path d="M223.4375,481.875 Q223.6914,481.25 223.9844,480.9375 Q224.2773,480.625 224.6094,480.625 Q225.1953,480.625 225.5664,480.9766 Q225.9375,481.3281 225.9375,482.1484 L225.9375,484.1016 Q225.9375,484.9219 225.5859,485.2734 Q225.2344,485.625 224.6875,485.625 Q224.1992,485.625 223.8867,485.4102 Q223.5742,485.1953 223.4375,484.6289 Q223.3789,484.2383 223.1641,484.0234 Q222.7734,483.6133 222.0703,483.3789 Q221.3672,483.125 220.6641,483.125 Q219.7852,483.125 219.043,483.4766 Q218.3203,483.8281 217.7539,484.6094 Q217.1875,485.3906 217.1875,486.4648 L217.1875,487.6172 Q217.1875,488.9063 218.2422,489.7656 Q219.2969,490.625 221.1719,490.625 Q222.2852,490.625 223.0664,490.3711 Q223.5156,490.2344 224.0234,489.7852 Q224.3555,489.5313 224.5313,489.4531 Q224.707,489.375 224.9219,489.375 Q225.332,489.375 225.625,489.707 Q225.9375,490.0195 225.9375,490.4688 Q225.9375,490.8984 225.5078,491.4063 Q224.8828,492.1484 223.8867,492.5586 Q222.5781,493.125 220.9766,493.125 Q219.1016,493.125 217.5977,492.3828 Q216.3867,491.7969 215.5273,490.5273 Q214.6875,489.2578 214.6875,487.7539 L214.6875,486.3867 Q214.6875,484.8242 215.4297,483.457 Q216.1914,482.0898 217.5,481.3672 Q218.8281,480.625 220.3125,480.625 Q221.2109,480.625 221.9922,480.9375 Q222.7734,481.25 223.4375,481.875 Z " fill="#000000"/><text fill="#000000" font-family="sans-serif" font-size="15" lengthAdjust="spacing" textLength="71.25" x="246.5625" y="492.3877">VeiculoDB</text><line style="stroke:#A80036;stroke-width:1.875;" x1="78.125" x2="445.625" y1="506.25" y2="506.25"/><line style="stroke:#A80036;stroke-width:1.875;" x1="78.125" x2="445.625" y1="516.25" y2="516.25"/><text fill="#000000" font-family="sans-serif" font-size="13.75" lengthAdjust="spacing" textLength="355" x="84.375" y="535.5237">+getListaVeiculoEntrega(pesoMaximoEntrega, nifFarmacia)</text><!--MD5=[598a246086efa0137d5aa96a640f0789]
class EntregaDB--><rect codeLine="7" fill="#FEFECE" filter="url(#f1f6flq88w39vu)" height="94.5898" id="EntregaDB" style="stroke:#A80036;stroke-width:1.875;" width="513.75" x="307.5" y="333.75"/><ellipse cx="521.5625" cy="353.75" fill="#ADD1B2" rx="13.75" ry="13.75" style="stroke:#A80036;stroke-width:1.25;"/><path d="M524.0625,349.375 Q524.3164,348.75 524.6094,348.4375 Q524.9023,348.125 525.2344,348.125 Q525.8203,348.125 526.1914,348.4766 Q526.5625,348.8281 526.5625,349.6484 L526.5625,351.6016 Q526.5625,352.4219 526.2109,352.7734 Q525.8594,353.125 525.3125,353.125 Q524.8242,353.125 524.5117,352.9102 Q524.1992,352.6953 524.0625,352.1289 Q524.0039,351.7383 523.7891,351.5234 Q523.3984,351.1133 522.6953,350.8789 Q521.9922,350.625 521.2891,350.625 Q520.4102,350.625 519.668,350.9766 Q518.9453,351.3281 518.3789,352.1094 Q517.8125,352.8906 517.8125,353.9648 L517.8125,355.1172 Q517.8125,356.4063 518.8672,357.2656 Q519.9219,358.125 521.7969,358.125 Q522.9102,358.125 523.6914,357.8711 Q524.1406,357.7344 524.6484,357.2852 Q524.9805,357.0313 525.1563,356.9531 Q525.332,356.875 525.5469,356.875 Q525.957,356.875 526.25,357.207 Q526.5625,357.5195 526.5625,357.9688 Q526.5625,358.3984 526.1328,358.9063 Q525.5078,359.6484 524.5117,360.0586 Q523.2031,360.625 521.6016,360.625 Q519.7266,360.625 518.2227,359.8828 Q517.0117,359.2969 516.1523,358.0273 Q515.3125,356.7578 515.3125,355.2539 L515.3125,353.8867 Q515.3125,352.3242 516.0547,350.957 Q516.8164,349.5898 518.125,348.8672 Q519.4531,348.125 520.9375,348.125 Q521.8359,348.125 522.6172,348.4375 Q523.3984,348.75 524.0625,349.375 Z " fill="#000000"/><text fill="#000000" font-family="sans-serif" font-size="15" lengthAdjust="spacing" textLength="75" x="547.1875" y="359.8877">EntregaDB</text><line style="stroke:#A80036;stroke-width:1.875;" x1="308.75" x2="820" y1="373.75" y2="373.75"/><line style="stroke:#A80036;stroke-width:1.875;" x1="308.75" x2="820" y1="383.75" y2="383.75"/><text fill="#000000" font-family="sans-serif" font-size="13.75" lengthAdjust="spacing" textLength="498.75" x="315" y="403.0237">+generateGraphScooter(listEnderecosScooter, listEnderecos, est, v, pesoEntrega)</text><text fill="#000000" font-family="sans-serif" font-size="13.75" lengthAdjust="spacing" textLength="467.5" x="315" y="420.3186">+getPath(graphScooter, listEnderecos, finalShortPathScooter, endereco, 0, v)</text><!--MD5=[0b96431f48c75c7948e638dd0365dea1]
class RegistarEntregaController--><rect codeLine="12" fill="#FEFECE" filter="url(#f1f6flq88w39vu)" height="111.8848" id="RegistarEntregaController" style="stroke:#A80036;stroke-width:1.875;" width="513.75" x="8.75" y="145"/><ellipse cx="170.3125" cy="165" fill="#ADD1B2" rx="13.75" ry="13.75" style="stroke:#A80036;stroke-width:1.25;"/><path d="M172.8125,160.625 Q173.0664,160 173.3594,159.6875 Q173.6523,159.375 173.9844,159.375 Q174.5703,159.375 174.9414,159.7266 Q175.3125,160.0781 175.3125,160.8984 L175.3125,162.8516 Q175.3125,163.6719 174.9609,164.0234 Q174.6094,164.375 174.0625,164.375 Q173.5742,164.375 173.2617,164.1602 Q172.9492,163.9453 172.8125,163.3789 Q172.7539,162.9883 172.5391,162.7734 Q172.1484,162.3633 171.4453,162.1289 Q170.7422,161.875 170.0391,161.875 Q169.1602,161.875 168.418,162.2266 Q167.6953,162.5781 167.1289,163.3594 Q166.5625,164.1406 166.5625,165.2148 L166.5625,166.3672 Q166.5625,167.6563 167.6172,168.5156 Q168.6719,169.375 170.5469,169.375 Q171.6602,169.375 172.4414,169.1211 Q172.8906,168.9844 173.3984,168.5352 Q173.7305,168.2813 173.9063,168.2031 Q174.082,168.125 174.2969,168.125 Q174.707,168.125 175,168.457 Q175.3125,168.7695 175.3125,169.2188 Q175.3125,169.6484 174.8828,170.1563 Q174.2578,170.8984 173.2617,171.3086 Q171.9531,171.875 170.3516,171.875 Q168.4766,171.875 166.9727,171.1328 Q165.7617,170.5469 164.9023,169.2773 Q164.0625,168.0078 164.0625,166.5039 L164.0625,165.1367 Q164.0625,163.5742 164.8047,162.207 Q165.5664,160.8398 166.875,160.1172 Q168.2031,159.375 169.6875,159.375 Q170.5859,159.375 171.3672,159.6875 Q172.1484,160 172.8125,160.625 Z " fill="#000000"/><text fill="#000000" font-family="sans-serif" font-size="15" lengthAdjust="spacing" textLength="180" x="195.9375" y="171.1377">RegistarEntregaController</text><line style="stroke:#A80036;stroke-width:1.875;" x1="10" x2="521.25" y1="185" y2="185"/><line style="stroke:#A80036;stroke-width:1.875;" x1="10" x2="521.25" y1="195" y2="195"/><text fill="#000000" font-family="sans-serif" font-size="13.75" lengthAdjust="spacing" textLength="355" x="16.25" y="214.2737">+getListaVeiculoEntrega(pesoMaximoEntrega, nifFarmacia)</text><text fill="#000000" font-family="sans-serif" font-size="13.75" lengthAdjust="spacing" textLength="498.75" x="16.25" y="231.5686">+generateGraphScooter(listEnderecosScooter, listEnderecos, est, v, pesoEntrega)</text><text fill="#000000" font-family="sans-serif" font-size="13.75" lengthAdjust="spacing" textLength="467.5" x="16.25" y="248.8635">+getPath(graphScooter, listEnderecos, finalShortPathScooter, endereco, 0, v)</text><!--MD5=[7a561ec8a1cf4ba3fadee4d155dd8051]
class RegistarEntregaUI--><rect codeLine="18" fill="#FEFECE" filter="url(#f1f6flq88w39vu)" height="60" id="RegistarEntregaUI" style="stroke:#A80036;stroke-width:1.875;" width="167.5" x="181.875" y="8.75"/><ellipse cx="200.625" cy="28.75" fill="#ADD1B2" rx="13.75" ry="13.75" style="stroke:#A80036;stroke-width:1.25;"/><path d="M203.125,24.375 Q203.3789,23.75 203.6719,23.4375 Q203.9648,23.125 204.2969,23.125 Q204.8828,23.125 205.2539,23.4766 Q205.625,23.8281 205.625,24.6484 L205.625,26.6016 Q205.625,27.4219 205.2734,27.7734 Q204.9219,28.125 204.375,28.125 Q203.8867,28.125 203.5742,27.9102 Q203.2617,27.6953 203.125,27.1289 Q203.0664,26.7383 202.8516,26.5234 Q202.4609,26.1133 201.7578,25.8789 Q201.0547,25.625 200.3516,25.625 Q199.4727,25.625 198.7305,25.9766 Q198.0078,26.3281 197.4414,27.1094 Q196.875,27.8906 196.875,28.9648 L196.875,30.1172 Q196.875,31.4063 197.9297,32.2656 Q198.9844,33.125 200.8594,33.125 Q201.9727,33.125 202.7539,32.8711 Q203.2031,32.7344 203.7109,32.2852 Q204.043,32.0313 204.2188,31.9531 Q204.3945,31.875 204.6094,31.875 Q205.0195,31.875 205.3125,32.207 Q205.625,32.5195 205.625,32.9688 Q205.625,33.3984 205.1953,33.9063 Q204.5703,34.6484 203.5742,35.0586 Q202.2656,35.625 200.6641,35.625 Q198.7891,35.625 197.2852,34.8828 Q196.0742,34.2969 195.2148,33.0273 Q194.375,31.7578 194.375,30.2539 L194.375,28.8867 Q194.375,27.3242 195.1172,25.957 Q195.8789,24.5898 197.1875,23.8672 Q198.5156,23.125 200,23.125 Q200.8984,23.125 201.6797,23.4375 Q202.4609,23.75 203.125,24.375 Z " fill="#000000"/><text fill="#000000" font-family="sans-serif" font-size="15" lengthAdjust="spacing" textLength="127.5" x="218.125" y="34.8877">RegistarEntregaUI</text><line style="stroke:#A80036;stroke-width:1.875;" x1="183.125" x2="348.125" y1="48.75" y2="48.75"/><line style="stroke:#A80036;stroke-width:1.875;" x1="183.125" x2="348.125" y1="58.75" y2="58.75"/><!--MD5=[3179f819b5ca0f9c8a1bd58e9144681b]
class Entrega--><rect codeLine="22" fill="#FEFECE" filter="url(#f1f6flq88w39vu)" height="129.1797" id="Entrega" style="stroke:#A80036;stroke-width:1.875;" width="141.25" x="493.75" y="581.25"/><ellipse cx="533.875" cy="601.25" fill="#ADD1B2" rx="13.75" ry="13.75" style="stroke:#A80036;stroke-width:1.25;"/><path d="M536.375,596.875 Q536.6289,596.25 536.9219,595.9375 Q537.2148,595.625 537.5469,595.625 Q538.1328,595.625 538.5039,595.9766 Q538.875,596.3281 538.875,597.1484 L538.875,599.1016 Q538.875,599.9219 538.5234,600.2734 Q538.1719,600.625 537.625,600.625 Q537.1367,600.625 536.8242,600.4102 Q536.5117,600.1953 536.375,599.6289 Q536.3164,599.2383 536.1016,599.0234 Q535.7109,598.6133 535.0078,598.3789 Q534.3047,598.125 533.6016,598.125 Q532.7227,598.125 531.9805,598.4766 Q531.2578,598.8281 530.6914,599.6094 Q530.125,600.3906 530.125,601.4648 L530.125,602.6172 Q530.125,603.9063 531.1797,604.7656 Q532.2344,605.625 534.1094,605.625 Q535.2227,605.625 536.0039,605.3711 Q536.4531,605.2344 536.9609,604.7852 Q537.293,604.5313 537.4688,604.4531 Q537.6445,604.375 537.8594,604.375 Q538.2695,604.375 538.5625,604.707 Q538.875,605.0195 538.875,605.4688 Q538.875,605.8984 538.4453,606.4063 Q537.8203,607.1484 536.8242,607.5586 Q535.5156,608.125 533.9141,608.125 Q532.0391,608.125 530.5352,607.3828 Q529.3242,606.7969 528.4648,605.5273 Q527.625,604.2578 527.625,602.7539 L527.625,601.3867 Q527.625,599.8242 528.3672,598.457 Q529.1289,597.0898 530.4375,596.3672 Q531.7656,595.625 533.25,595.625 Q534.1484,595.625 534.9297,595.9375 Q535.7109,596.25 536.375,596.875 Z " fill="#000000"/><text fill="#000000" font-family="sans-serif" font-size="15" lengthAdjust="spacing" textLength="53.75" x="556.125" y="607.3877">Entrega</text><line style="stroke:#A80036;stroke-width:1.875;" x1="495" x2="633.75" y1="621.25" y2="621.25"/><text fill="#000000" font-family="sans-serif" font-size="13.75" lengthAdjust="spacing" textLength="106.25" x="501.25" y="640.5237">-Integer idEntrega</text><text fill="#000000" font-family="sans-serif" font-size="13.75" lengthAdjust="spacing" textLength="100" x="501.25" y="657.8186">-String dataInicio</text><text fill="#000000" font-family="sans-serif" font-size="13.75" lengthAdjust="spacing" textLength="90" x="501.25" y="675.1135">-String dataFim</text><text fill="#000000" font-family="sans-serif" font-size="13.75" lengthAdjust="spacing" textLength="126.25" x="501.25" y="692.4084">-Double pesoEntrega</text><line style="stroke:#A80036;stroke-width:1.875;" x1="495" x2="633.75" y1="700.4297" y2="700.4297"/><!--MD5=[3f1202280bfe3359d2f91fb9b6e32986]
class Estafeta--><rect codeLine="29" fill="#FEFECE" filter="url(#f1f6flq88w39vu)" height="77.2949" id="Estafeta" style="stroke:#A80036;stroke-width:1.875;" width="145" x="865.625" y="342.5"/><ellipse cx="906.3125" cy="362.5" fill="#ADD1B2" rx="13.75" ry="13.75" style="stroke:#A80036;stroke-width:1.25;"/><path d="M908.8125,358.125 Q909.0664,357.5 909.3594,357.1875 Q909.6523,356.875 909.9844,356.875 Q910.5703,356.875 910.9414,357.2266 Q911.3125,357.5781 911.3125,358.3984 L911.3125,360.3516 Q911.3125,361.1719 910.9609,361.5234 Q910.6094,361.875 910.0625,361.875 Q909.5742,361.875 909.2617,361.6602 Q908.9492,361.4453 908.8125,360.8789 Q908.7539,360.4883 908.5391,360.2734 Q908.1484,359.8633 907.4453,359.6289 Q906.7422,359.375 906.0391,359.375 Q905.1602,359.375 904.418,359.7266 Q903.6953,360.0781 903.1289,360.8594 Q902.5625,361.6406 902.5625,362.7148 L902.5625,363.8672 Q902.5625,365.1563 903.6172,366.0156 Q904.6719,366.875 906.5469,366.875 Q907.6602,366.875 908.4414,366.6211 Q908.8906,366.4844 909.3984,366.0352 Q909.7305,365.7813 909.9063,365.7031 Q910.082,365.625 910.2969,365.625 Q910.707,365.625 911,365.957 Q911.3125,366.2695 911.3125,366.7188 Q911.3125,367.1484 910.8828,367.6563 Q910.2578,368.3984 909.2617,368.8086 Q907.9531,369.375 906.3516,369.375 Q904.4766,369.375 902.9727,368.6328 Q901.7617,368.0469 900.9023,366.7773 Q900.0625,365.5078 900.0625,364.0039 L900.0625,362.6367 Q900.0625,361.0742 900.8047,359.707 Q901.5664,358.3398 902.875,357.6172 Q904.2031,356.875 905.6875,356.875 Q906.5859,356.875 907.3672,357.1875 Q908.1484,357.5 908.8125,358.125 Z " fill="#000000"/><text fill="#000000" font-family="sans-serif" font-size="15" lengthAdjust="spacing" textLength="56.25" x="928.6875" y="368.6377">Estafeta</text><line style="stroke:#A80036;stroke-width:1.875;" x1="866.875" x2="1009.375" y1="382.5" y2="382.5"/><text fill="#000000" font-family="sans-serif" font-size="13.75" lengthAdjust="spacing" textLength="130" x="873.125" y="401.7737">-Double pesoEstafeta</text><line style="stroke:#A80036;stroke-width:1.875;" x1="866.875" x2="1009.375" y1="409.7949" y2="409.7949"/><!--MD5=[8505c5852735283b5a8424161266bb9f]
class Veiculo--><rect codeLine="34" fill="#FEFECE" filter="url(#f1f6flq88w39vu)" height="181.0645" id="Veiculo" style="stroke:#A80036;stroke-width:1.875;" width="186.25" x="246.25" y="807.5"/><ellipse cx="309.0625" cy="827.5" fill="#ADD1B2" rx="13.75" ry="13.75" style="stroke:#A80036;stroke-width:1.25;"/><path d="M311.5625,823.125 Q311.8164,822.5 312.1094,822.1875 Q312.4023,821.875 312.7344,821.875 Q313.3203,821.875 313.6914,822.2266 Q314.0625,822.5781 314.0625,823.3984 L314.0625,825.3516 Q314.0625,826.1719 313.7109,826.5234 Q313.3594,826.875 312.8125,826.875 Q312.3242,826.875 312.0117,826.6602 Q311.6992,826.4453 311.5625,825.8789 Q311.5039,825.4883 311.2891,825.2734 Q310.8984,824.8633 310.1953,824.6289 Q309.4922,824.375 308.7891,824.375 Q307.9102,824.375 307.168,824.7266 Q306.4453,825.0781 305.8789,825.8594 Q305.3125,826.6406 305.3125,827.7148 L305.3125,828.8672 Q305.3125,830.1563 306.3672,831.0156 Q307.4219,831.875 309.2969,831.875 Q310.4102,831.875 311.1914,831.6211 Q311.6406,831.4844 312.1484,831.0352 Q312.4805,830.7813 312.6563,830.7031 Q312.832,830.625 313.0469,830.625 Q313.457,830.625 313.75,830.957 Q314.0625,831.2695 314.0625,831.7188 Q314.0625,832.1484 313.6328,832.6563 Q313.0078,833.3984 312.0117,833.8086 Q310.7031,834.375 309.1016,834.375 Q307.2266,834.375 305.7227,833.6328 Q304.5117,833.0469 303.6523,831.7773 Q302.8125,830.5078 302.8125,829.0039 L302.8125,827.6367 Q302.8125,826.0742 303.5547,824.707 Q304.3164,823.3398 305.625,822.6172 Q306.9531,821.875 308.4375,821.875 Q309.3359,821.875 310.1172,822.1875 Q310.8984,822.5 311.5625,823.125 Z " fill="#000000"/><text fill="#000000" font-family="sans-serif" font-size="15" lengthAdjust="spacing" textLength="50" x="334.6875" y="833.6377">Veiculo</text><line style="stroke:#A80036;stroke-width:1.875;" x1="247.5" x2="431.25" y1="847.5" y2="847.5"/><text fill="#000000" font-family="sans-serif" font-size="13.75" lengthAdjust="spacing" textLength="105" x="253.75" y="866.7737">-Integer idVeiculo</text><text fill="#000000" font-family="sans-serif" font-size="13.75" lengthAdjust="spacing" textLength="103.75" x="253.75" y="884.0686">-String descricao</text><text fill="#000000" font-family="sans-serif" font-size="13.75" lengthAdjust="spacing" textLength="171.25" x="253.75" y="901.3635">-Double percentagemBateria</text><text fill="#000000" font-family="sans-serif" font-size="13.75" lengthAdjust="spacing" textLength="125" x="253.75" y="918.6584">-Double pesoMaximo</text><text fill="#000000" font-family="sans-serif" font-size="13.75" lengthAdjust="spacing" textLength="125" x="253.75" y="935.9534">-Double pesoVeiculo</text><text fill="#000000" font-family="sans-serif" font-size="13.75" lengthAdjust="spacing" textLength="101.25" x="253.75" y="953.2483">-Double potencia</text><text fill="#000000" font-family="sans-serif" font-size="13.75" lengthAdjust="spacing" textLength="118.75" x="253.75" y="970.5432">-Double areaFrontal</text><line style="stroke:#A80036;stroke-width:1.875;" x1="247.5" x2="431.25" y1="978.5645" y2="978.5645"/><!--MD5=[328dae9b2f192140d45e51cd90ecd75a]
link Estafeta to Entrega--><path codeLine="45" d="M884.575,420.025 C818.975,465.9875 707.6375,544 635.0625,594.85 " fill="none" id="Estafeta-Entrega" style="stroke:#A80036;stroke-width:1.25;"/><polygon fill="#000000" points="818.0064,508.8062,829.3741,505.3269,825.158,499.3096,818.0064,508.8062" style="stroke:#000000;stroke-width:1.25;"/><text fill="#000000" font-family="sans-serif" font-size="16.25" lengthAdjust="spacing" textLength="47.5" x="834.375" y="511.8689">realiza</text><text fill="#000000" font-family="sans-serif" font-size="16.25" lengthAdjust="spacing" textLength="8.75" x="864.421" y="446.5599">1</text><text fill="#000000" font-family="sans-serif" font-size="16.25" lengthAdjust="spacing" textLength="6.25" x="644.9811" y="583.5529">*</text><!--MD5=[cd2aeefe8c457d184a69396a9f9cb06a]
link Entrega to Veiculo--><path codeLine="46" d="M507.3125,710.2875 C480.875,739.65 449.0125,775.0625 420.1625,807.1125 " fill="none" id="Entrega-Veiculo" style="stroke:#A80036;stroke-width:1.25;"/><polygon fill="#000000" points="483.5562,754.3243,473.2618,760.2703,478.7228,765.1856,483.5562,754.3243" style="stroke:#000000;stroke-width:1.25;"/><text fill="#000000" font-family="sans-serif" font-size="16.25" lengthAdjust="spacing" textLength="47.5" x="490.625" y="765.6189">realiza</text><text fill="#000000" font-family="sans-serif" font-size="16.25" lengthAdjust="spacing" textLength="6.25" x="492.9748" y="737.1898">*</text><text fill="#000000" font-family="sans-serif" font-size="16.25" lengthAdjust="spacing" textLength="8.75" x="418.9344" y="794.0687">1</text><!--MD5=[6355171bb87232b3a58c2e48ef243e25]
link VeiculoDB to Veiculo--><path codeLine="47" d="M269.375,544.0625 C281.3375,604.375 305.075,724.0125 321.575,807.1625 " fill="none" id="VeiculoDB-Veiculo" style="stroke:#A80036;stroke-width:1.25;"/><polygon fill="#000000" points="310.5913,651.9752,311.9944,640.1701,304.7876,641.6,310.5913,651.9752" style="stroke:#000000;stroke-width:1.25;"/><text fill="#000000" font-family="sans-serif" font-size="16.25" lengthAdjust="spacing" textLength="107.5" x="320.625" y="652.4939">tem registadas</text><text fill="#000000" font-family="sans-serif" font-size="16.25" lengthAdjust="spacing" textLength="8.75" x="261.2207" y="570.3454">1</text><text fill="#000000" font-family="sans-serif" font-size="16.25" lengthAdjust="spacing" textLength="6.25" x="313.1671" y="793.6519">*</text><!--MD5=[4c7211caded616e3e77a70a7b669ae10]
link EntregaDB to Entrega--><path codeLine="48" d="M564.375,429.3125 C564.375,471.6875 564.375,534.4375 564.375,581.2375 " fill="none" id="EntregaDB-Entrega" style="stroke:#A80036;stroke-width:1.25;"/><polygon fill="#000000" points="570.625,511.4697,574.2987,500.1634,566.9513,500.1634,570.625,511.4697" style="stroke:#000000;stroke-width:1.25;"/><text fill="#000000" font-family="sans-serif" font-size="16.25" lengthAdjust="spacing" textLength="107.5" x="581.875" y="511.8689">tem registadas</text><text fill="#000000" font-family="sans-serif" font-size="16.25" lengthAdjust="spacing" textLength="8.75" x="554.9551" y="455.1373">1</text><text fill="#000000" font-family="sans-serif" font-size="16.25" lengthAdjust="spacing" textLength="6.25" x="557.6855" y="567.6463">*</text><!--MD5=[1593fa6ac82b73031c98001dcbb43056]
link RegistarEntregaUI to RegistarEntregaController--><path codeLine="50" d="M265.625,68.975 C265.625,88.2375 265.625,114.275 265.625,138.0625 " fill="none" id="RegistarEntregaUI-to-RegistarEntregaController" style="stroke:#A80036;stroke-width:1.25;stroke-dasharray:7.0,7.0;"/><polygon fill="#A80036" points="265.625,144.7,270.625,133.45,265.625,138.45,260.625,133.45,265.625,144.7" style="stroke:#A80036;stroke-width:1.25;"/><!--MD5=[e3047c0947376f82d5af689ab4f30ae6]
link RegistarEntregaController to VeiculoDB--><path codeLine="52" d="M264.9375,257.75 C264.2125,315.8625 263.0875,406.1375 262.425,459.6625 " fill="none" id="RegistarEntregaController-to-VeiculoDB" style="stroke:#A80036;stroke-width:1.25;stroke-dasharray:7.0,7.0;"/><polygon fill="#A80036" points="262.35,466,267.4782,454.8079,262.4214,459.7504,257.4789,454.6936,262.35,466" style="stroke:#A80036;stroke-width:1.25;"/><!--MD5=[51c8078cdce16ec2931503df013aa567]
link RegistarEntregaController to EntregaDB--><path codeLine="53" d="M358.5125,257.6875 C397.5375,280.875 442.575,307.6375 480.575,330.2125 " fill="none" id="RegistarEntregaController-to-EntregaDB" style="stroke:#A80036;stroke-width:1.25;stroke-dasharray:7.0,7.0;"/><polygon fill="#A80036" points="486.125,333.5125,478.9866,323.4823,480.7453,330.3311,473.8964,332.0898,486.125,333.5125" style="stroke:#A80036;stroke-width:1.25;"/><!--MD5=[2c16c9184c5a6638ac4b4257260ebbd2]
@startuml
skinparam classAttributeIconSize 0

class VeiculoDB {
  +getListaVeiculoEntrega(pesoMaximoEntrega, nifFarmacia)
}

class EntregaDB {
  +generateGraphScooter(listEnderecosScooter, listEnderecos, est, v, pesoEntrega)
  +getPath(graphScooter, listEnderecos, finalShortPathScooter, endereco, 0, v)
}

class RegistarEntregaController {
    +getListaVeiculoEntrega(pesoMaximoEntrega, nifFarmacia)
    +generateGraphScooter(listEnderecosScooter, listEnderecos, est, v, pesoEntrega)
    +getPath(graphScooter, listEnderecos, finalShortPathScooter, endereco, 0, v)
}

class RegistarEntregaUI {
}


class Entrega {
  -Integer idEntrega
  -String dataInicio
  -String dataFim
  -Double pesoEntrega
}

class Estafeta {
  -Double pesoEstafeta
}


class Veiculo {
  -Integer idVeiculo
  -String descricao
  -Double percentagemBateria
  -Double pesoMaximo
  -Double pesoVeiculo
  -Double potencia
  -Double areaFrontal
}


Estafeta "1" - - "*" Entrega: realiza >
Entrega "*" - - "1" Veiculo: realiza <
VeiculoDB "1" - - "*" Veiculo: tem registadas >
EntregaDB "1" - - "*" Entrega: tem registadas >

RegistarEntregaUI ..> RegistarEntregaController 

RegistarEntregaController ..> VeiculoDB
RegistarEntregaController ..> EntregaDB


@enduml

PlantUML version 1.2021.00(Sun Jan 10 10:25:05 GMT 2021)
(GPL source distribution)
Java Runtime: OpenJDK Runtime Environment
JVM: OpenJDK 64-Bit Server VM
Default Encoding: Cp1252
Language: pt
Country: PT
--></g></svg>