<?xml version="1.0" encoding="UTF-8" standalone="no"?><svg xmlns="http://www.w3.org/2000/svg" xmlns:xlink="http://www.w3.org/1999/xlink" contentScriptType="application/ecmascript" contentStyleType="text/css" height="150px" preserveAspectRatio="none" style="width:632px;height:150px;" version="1.1" viewBox="0 0 632 150" width="632px" zoomAndPan="magnify"><defs><filter height="300%" id="f111uynsv4002p" width="300%" x="-1" y="-1"><feGaussianBlur result="blurOut" stdDeviation="2.0"/><feColorMatrix in="blurOut" result="blurOut2" type="matrix" values="0 0 0 0 0 0 0 0 0 0 0 0 0 0 0 0 0 0 .4 0"/><feOffset dx="4.0" dy="4.0" in="blurOut2" result="blurOut3"/><feBlend in="SourceGraphic" in2="blurOut3" mode="normal"/></filter></defs><g><!--MD5=[3179f819b5ca0f9c8a1bd58e9144681b]
class Entrega--><rect codeLine="5" fill="#FEFECE" filter="url(#f111uynsv4002p)" height="91.2188" id="Entrega" style="stroke:#A80036;stroke-width:1.5;" width="88" x="279" y="26.5"/><ellipse cx="298.5" cy="42.5" fill="#ADD1B2" rx="11" ry="11" style="stroke:#A80036;stroke-width:1.0;"/><path d="M300.8438,38.1719 C299.9063,37.7344 299.3125,37.5938 298.4375,37.5938 C295.8125,37.5938 293.8125,39.6719 293.8125,42.3906 L293.8125,43.5156 C293.8125,46.0938 295.9219,47.9844 298.8125,47.9844 C300.0313,47.9844 301.1875,47.6875 301.9375,47.1406 C302.5156,46.7344 302.8438,46.2813 302.8438,45.8906 C302.8438,45.4375 302.4531,45.0469 301.9844,45.0469 C301.7656,45.0469 301.5625,45.125 301.375,45.3125 C300.9219,45.7969 300.9219,45.7969 300.7344,45.8906 C300.3125,46.1563 299.625,46.2813 298.8594,46.2813 C296.8125,46.2813 295.5156,45.1875 295.5156,43.4844 L295.5156,42.3906 C295.5156,40.6094 296.7656,39.2969 298.5,39.2969 C299.0781,39.2969 299.6875,39.4531 300.1563,39.7031 C300.6406,39.9844 300.8125,40.2031 300.9063,40.6094 C300.9688,41.0156 301,41.1406 301.1406,41.2656 C301.2813,41.4063 301.5156,41.5156 301.7344,41.5156 C302,41.5156 302.2656,41.375 302.4375,41.1563 C302.5469,41 302.5781,40.8125 302.5781,40.3906 L302.5781,38.9688 C302.5781,38.5313 302.5625,38.4063 302.4688,38.25 C302.3125,37.9844 302.0313,37.8438 301.7344,37.8438 C301.4375,37.8438 301.2344,37.9375 301.0156,38.25 L300.8438,38.1719 Z " fill="#000000"/><text fill="#000000" font-family="sans-serif" font-size="12" lengthAdjust="spacing" textLength="46" x="313.5" y="46.6543">Entrega</text><line style="stroke:#A80036;stroke-width:1.5;" x1="280" x2="366" y1="58.5" y2="58.5"/><text fill="#000000" font-family="sans-serif" font-size="11" lengthAdjust="spacing" textLength="58" x="285" y="72.7104">-idEntrega</text><text fill="#000000" font-family="sans-serif" font-size="11" lengthAdjust="spacing" textLength="58" x="285" y="85.5151">-dataInicio</text><text fill="#000000" font-family="sans-serif" font-size="11" lengthAdjust="spacing" textLength="49" x="285" y="98.3198">-dataFim</text><text fill="#000000" font-family="sans-serif" font-size="11" lengthAdjust="spacing" textLength="76" x="285" y="111.1245">-pesoEntrega</text><!--MD5=[3f1202280bfe3359d2f91fb9b6e32986]
class Estafeta--><rect codeLine="12" fill="#FEFECE" filter="url(#f111uynsv4002p)" height="116.8281" id="Estafeta" style="stroke:#A80036;stroke-width:1.5;" width="155" x="7" y="13.5"/><ellipse cx="56.25" cy="29.5" fill="#ADD1B2" rx="11" ry="11" style="stroke:#A80036;stroke-width:1.0;"/><path d="M58.5938,25.1719 C57.6563,24.7344 57.0625,24.5938 56.1875,24.5938 C53.5625,24.5938 51.5625,26.6719 51.5625,29.3906 L51.5625,30.5156 C51.5625,33.0938 53.6719,34.9844 56.5625,34.9844 C57.7813,34.9844 58.9375,34.6875 59.6875,34.1406 C60.2656,33.7344 60.5938,33.2813 60.5938,32.8906 C60.5938,32.4375 60.2031,32.0469 59.7344,32.0469 C59.5156,32.0469 59.3125,32.125 59.125,32.3125 C58.6719,32.7969 58.6719,32.7969 58.4844,32.8906 C58.0625,33.1563 57.375,33.2813 56.6094,33.2813 C54.5625,33.2813 53.2656,32.1875 53.2656,30.4844 L53.2656,29.3906 C53.2656,27.6094 54.5156,26.2969 56.25,26.2969 C56.8281,26.2969 57.4375,26.4531 57.9063,26.7031 C58.3906,26.9844 58.5625,27.2031 58.6563,27.6094 C58.7188,28.0156 58.75,28.1406 58.8906,28.2656 C59.0313,28.4063 59.2656,28.5156 59.4844,28.5156 C59.75,28.5156 60.0156,28.375 60.1875,28.1563 C60.2969,28 60.3281,27.8125 60.3281,27.3906 L60.3281,25.9688 C60.3281,25.5313 60.3125,25.4063 60.2188,25.25 C60.0625,24.9844 59.7813,24.8438 59.4844,24.8438 C59.1875,24.8438 58.9844,24.9375 58.7656,25.25 L58.5938,25.1719 Z " fill="#000000"/><text fill="#000000" font-family="sans-serif" font-size="12" lengthAdjust="spacing" textLength="48" x="76.75" y="33.6543">Estafeta</text><line style="stroke:#A80036;stroke-width:1.5;" x1="8" x2="161" y1="45.5" y2="45.5"/><text fill="#000000" font-family="sans-serif" font-size="11" lengthAdjust="spacing" textLength="21" x="13" y="59.7104">-NIF</text><text fill="#000000" font-family="sans-serif" font-size="11" lengthAdjust="spacing" textLength="37" x="13" y="72.5151">-nome</text><text fill="#000000" font-family="sans-serif" font-size="11" lengthAdjust="spacing" textLength="36" x="13" y="85.3198">-email</text><text fill="#000000" font-family="sans-serif" font-size="11" lengthAdjust="spacing" textLength="143" x="13" y="98.1245">-numeroSegurancaSocial</text><text fill="#000000" font-family="sans-serif" font-size="11" lengthAdjust="spacing" textLength="57" x="13" y="110.9292">-password</text><text fill="#000000" font-family="sans-serif" font-size="11" lengthAdjust="spacing" textLength="79" x="13" y="123.7339">-pesoEstafeta</text><!--MD5=[8505c5852735283b5a8424161266bb9f]
class Veiculo--><rect codeLine="22" fill="#FEFECE" filter="url(#f111uynsv4002p)" height="129.6328" id="Veiculo" style="stroke:#A80036;stroke-width:1.5;" width="134" x="484" y="7"/><ellipse cx="525.1" cy="23" fill="#ADD1B2" rx="11" ry="11" style="stroke:#A80036;stroke-width:1.0;"/><path d="M527.4438,18.6719 C526.5063,18.2344 525.9125,18.0938 525.0375,18.0938 C522.4125,18.0938 520.4125,20.1719 520.4125,22.8906 L520.4125,24.0156 C520.4125,26.5938 522.5219,28.4844 525.4125,28.4844 C526.6313,28.4844 527.7875,28.1875 528.5375,27.6406 C529.1156,27.2344 529.4438,26.7813 529.4438,26.3906 C529.4438,25.9375 529.0531,25.5469 528.5844,25.5469 C528.3656,25.5469 528.1625,25.625 527.975,25.8125 C527.5219,26.2969 527.5219,26.2969 527.3344,26.3906 C526.9125,26.6563 526.225,26.7813 525.4594,26.7813 C523.4125,26.7813 522.1156,25.6875 522.1156,23.9844 L522.1156,22.8906 C522.1156,21.1094 523.3656,19.7969 525.1,19.7969 C525.6781,19.7969 526.2875,19.9531 526.7563,20.2031 C527.2406,20.4844 527.4125,20.7031 527.5063,21.1094 C527.5688,21.5156 527.6,21.6406 527.7406,21.7656 C527.8813,21.9063 528.1156,22.0156 528.3344,22.0156 C528.6,22.0156 528.8656,21.875 529.0375,21.6563 C529.1469,21.5 529.1781,21.3125 529.1781,20.8906 L529.1781,19.4688 C529.1781,19.0313 529.1625,18.9063 529.0688,18.75 C528.9125,18.4844 528.6313,18.3438 528.3344,18.3438 C528.0375,18.3438 527.8344,18.4375 527.6156,18.75 L527.4438,18.6719 Z " fill="#000000"/><text fill="#000000" font-family="sans-serif" font-size="12" lengthAdjust="spacing" textLength="44" x="544.9" y="27.1543">Veiculo</text><line style="stroke:#A80036;stroke-width:1.5;" x1="485" x2="617" y1="39" y2="39"/><text fill="#000000" font-family="sans-serif" font-size="11" lengthAdjust="spacing" textLength="56" x="490" y="53.2104">-idVeiculo</text><text fill="#000000" font-family="sans-serif" font-size="11" lengthAdjust="spacing" textLength="58" x="490" y="66.0151">-descricao</text><text fill="#000000" font-family="sans-serif" font-size="11" lengthAdjust="spacing" textLength="122" x="490" y="78.8198">-percentagemBateria</text><text fill="#000000" font-family="sans-serif" font-size="11" lengthAdjust="spacing" textLength="76" x="490" y="91.6245">-pesoMaximo</text><text fill="#000000" font-family="sans-serif" font-size="11" lengthAdjust="spacing" textLength="74" x="490" y="104.4292">-pesoVeiculo</text><text fill="#000000" font-family="sans-serif" font-size="11" lengthAdjust="spacing" textLength="53" x="490" y="117.2339">-potencia</text><text fill="#000000" font-family="sans-serif" font-size="11" lengthAdjust="spacing" textLength="68" x="490" y="130.0386">-areaFrontal</text><!--MD5=[328dae9b2f192140d45e51cd90ecd75a]
link Estafeta to Entrega--><path codeLine="32" d="M162.285,72 C200.859,72 246.174,72 278.663,72 " fill="none" id="Estafeta-Entrega" style="stroke:#A80036;stroke-width:1.0;"/><polygon fill="#000000" points="202,63.5664,192.9549,60.6275,192.9549,66.5053,202,63.5664" style="stroke:#000000;stroke-width:1.0;"/><text fill="#000000" font-family="sans-serif" font-size="13" lengthAdjust="spacing" textLength="42" x="206" y="68.0669">realiza</text><text fill="#000000" font-family="sans-serif" font-size="13" lengthAdjust="spacing" textLength="8" x="170.0801" y="84.7963">1</text><text fill="#000000" font-family="sans-serif" font-size="13" lengthAdjust="spacing" textLength="7" x="264.039" y="85.2554">*</text><!--MD5=[cd2aeefe8c457d184a69396a9f9cb06a]
link Entrega to Veiculo--><path codeLine="33" d="M367.041,72 C400.083,72 446.282,72 483.988,72 " fill="none" id="Entrega-Veiculo" style="stroke:#A80036;stroke-width:1.0;"/><polygon fill="#000000" points="397,63.5664,406.0451,66.5053,406.0451,60.6275,397,63.5664" style="stroke:#000000;stroke-width:1.0;"/><text fill="#000000" font-family="sans-serif" font-size="13" lengthAdjust="spacing" textLength="42" x="411" y="68.0669">realiza</text><text fill="#000000" font-family="sans-serif" font-size="13" lengthAdjust="spacing" textLength="7" x="374.915" y="85.302">*</text><text fill="#000000" font-family="sans-serif" font-size="13" lengthAdjust="spacing" textLength="8" x="468.2211" y="84.9146">1</text><!--MD5=[44f6e32f413bd987fa5da95b65e193ef]
@startuml
skinparam classAttributeIconSize 0
hide methods
left to right direction

class Entrega {
  -idEntrega
  -dataInicio
  -dataFim
  -pesoEntrega
}

class Estafeta {
  -NIF
  -nome
  -email
  -numeroSegurancaSocial
  -password
  -pesoEstafeta
}


class Veiculo {
  -idVeiculo
  -descricao
  -percentagemBateria
  -pesoMaximo
  -pesoVeiculo
  -potencia
  -areaFrontal
}

Estafeta "1" - - "*" Entrega: realiza >
Entrega "*" - - "1" Veiculo: realiza <
@enduml

PlantUML version 1.2021.01beta3(Unknown compile time)
(GPL source distribution)
Java Runtime: Java(TM) SE Runtime Environment
JVM: Java HotSpot(TM) 64-Bit Server VM
Default Encoding: UTF-8
Language: en
Country: US
--></g></svg>