<?xml version="1.0" encoding="UTF-8" standalone="no"?><svg xmlns="http://www.w3.org/2000/svg" xmlns:xlink="http://www.w3.org/1999/xlink" contentScriptType="application/ecmascript" contentStyleType="text/css" height="250px" preserveAspectRatio="none" style="width:420px;height:250px;" version="1.1" viewBox="0 0 420 250" width="420px" zoomAndPan="magnify"><defs><filter height="300%" id="f1cztzwgueembx" width="300%" x="-1" y="-1"><feGaussianBlur result="blurOut" stdDeviation="2.0"/><feColorMatrix in="blurOut" result="blurOut2" type="matrix" values="0 0 0 0 0 0 0 0 0 0 0 0 0 0 0 0 0 0 .4 0"/><feOffset dx="4.0" dy="4.0" in="blurOut2" result="blurOut3"/><feBlend in="SourceGraphic" in2="blurOut3" mode="normal"/></filter></defs><g><rect fill="#FFFFFF" filter="url(#f1cztzwgueembx)" height="50.2656" style="stroke:#A80036;stroke-width:1.0;" width="10" x="33.5" y="98.2969"/><rect fill="#FFFFFF" filter="url(#f1cztzwgueembx)" height="29.1328" style="stroke:#A80036;stroke-width:1.0;" width="10" x="364.5" y="119.4297"/><line style="stroke:#A80036;stroke-width:1.0;stroke-dasharray:5.0,5.0;" x1="38" x2="38" y1="88.2969" y2="166.5625"/><line style="stroke:#A80036;stroke-width:1.0;stroke-dasharray:5.0,5.0;" x1="369" x2="369" y1="88.2969" y2="166.5625"/><text fill="#000000" font-family="sans-serif" font-size="14" lengthAdjust="spacing" textLength="61" x="5" y="84.9951">Estafeta</text><ellipse cx="38.5" cy="15" fill="#FEFECE" filter="url(#f1cztzwgueembx)" rx="8" ry="8" style="stroke:#A80036;stroke-width:2.0;"/><path d="M38.5,23 L38.5,50 M25.5,31 L51.5,31 M38.5,50 L25.5,65 M38.5,50 L51.5,65 " fill="none" filter="url(#f1cztzwgueembx)" style="stroke:#A80036;stroke-width:2.0;"/><text fill="#000000" font-family="sans-serif" font-size="14" lengthAdjust="spacing" textLength="61" x="5" y="178.5576">Estafeta</text><ellipse cx="38.5" cy="191.8594" fill="#FEFECE" filter="url(#f1cztzwgueembx)" rx="8" ry="8" style="stroke:#A80036;stroke-width:2.0;"/><path d="M38.5,199.8594 L38.5,226.8594 M25.5,207.8594 L51.5,207.8594 M38.5,226.8594 L25.5,241.8594 M38.5,226.8594 L51.5,241.8594 " fill="none" filter="url(#f1cztzwgueembx)" style="stroke:#A80036;stroke-width:2.0;"/><rect fill="#FEFECE" filter="url(#f1cztzwgueembx)" height="30.2969" style="stroke:#A80036;stroke-width:1.5;" width="77" x="329" y="53"/><text fill="#000000" font-family="sans-serif" font-size="14" lengthAdjust="spacing" textLength="63" x="336" y="72.9951">:Sistema</text><rect fill="#FEFECE" filter="url(#f1cztzwgueembx)" height="30.2969" style="stroke:#A80036;stroke-width:1.5;" width="77" x="329" y="165.5625"/><text fill="#000000" font-family="sans-serif" font-size="14" lengthAdjust="spacing" textLength="63" x="336" y="185.5576">:Sistema</text><rect fill="#FFFFFF" filter="url(#f1cztzwgueembx)" height="50.2656" style="stroke:#A80036;stroke-width:1.0;" width="10" x="33.5" y="98.2969"/><rect fill="#FFFFFF" filter="url(#f1cztzwgueembx)" height="29.1328" style="stroke:#A80036;stroke-width:1.0;" width="10" x="364.5" y="119.4297"/><polygon fill="#A80036" points="352.5,115.4297,362.5,119.4297,352.5,123.4297,356.5,119.4297" style="stroke:#A80036;stroke-width:1.0;"/><line style="stroke:#A80036;stroke-width:1.0;" x1="43.5" x2="358.5" y1="119.4297" y2="119.4297"/><text fill="#000000" font-family="sans-serif" font-size="13" font-weight="bold" lengthAdjust="spacing" textLength="9" x="50.5" y="114.3638">1</text><text fill="#000000" font-family="sans-serif" font-size="13" lengthAdjust="spacing" textLength="289" x="63.5" y="114.3638">Pretende saber qual a entrega mais eficiente</text><polygon fill="#A80036" points="49.5,144.5625,39.5,148.5625,49.5,152.5625,45.5,148.5625" style="stroke:#A80036;stroke-width:1.0;"/><line style="stroke:#A80036;stroke-width:1.0;stroke-dasharray:2.0,2.0;" x1="43.5" x2="368.5" y1="148.5625" y2="148.5625"/><text fill="#000000" font-family="sans-serif" font-size="13" font-weight="bold" lengthAdjust="spacing" textLength="9" x="55.5" y="143.4966">2</text><text fill="#000000" font-family="sans-serif" font-size="13" lengthAdjust="spacing" textLength="127" x="68.5" y="143.4966">apresenta os dados</text><!--MD5=[26ff0c1752b3c74647aead91e4650a4c]
@startuml
autonumber
actor "Estafeta" as UNR

activate UNR
UNR -> ":Sistema" : Pretende saber qual a entrega mais eficiente
activate ":Sistema"

":Sistema" - -> UNR : apresenta os dados
deactivate ":Sistema"

deactivate UNR
@enduml

PlantUML version 1.2021.01beta3(Unknown compile time)
(GPL source distribution)
Java Runtime: Java(TM) SE Runtime Environment
JVM: Java HotSpot(TM) 64-Bit Server VM
Default Encoding: UTF-8
Language: en
Country: US
--></g></svg>