<?xml version="1.0" encoding="UTF-8" standalone="no"?><svg xmlns="http://www.w3.org/2000/svg" xmlns:xlink="http://www.w3.org/1999/xlink" contentScriptType="application/ecmascript" contentStyleType="text/css" height="196.25px" preserveAspectRatio="none" style="width:646px;height:196px;" version="1.1" viewBox="0 0 646 196" width="646.25px" zoomAndPan="magnify"><defs><filter height="300%" id="fv4bqzhq09no5" width="300%" x="-1" y="-1"><feGaussianBlur result="blurOut" stdDeviation="2.5"/><feColorMatrix in="blurOut" result="blurOut2" type="matrix" values="0 0 0 0 0 0 0 0 0 0 0 0 0 0 0 0 0 0 .4 0"/><feOffset dx="5.0" dy="5.0" in="blurOut2" result="blurOut3"/><feBlend in="SourceGraphic" in2="blurOut3" mode="normal"/></filter></defs><g><!--MD5=[3179f819b5ca0f9c8a1bd58e9144681b]
class Entrega--><rect codeLine="5" fill="#FEFECE" filter="url(#fv4bqzhq09no5)" height="119.1797" id="Entrega" style="stroke:#A80036;stroke-width:1.875;" width="96.25" x="250" y="35"/><ellipse cx="269.875" cy="55" fill="#ADD1B2" rx="13.75" ry="13.75" style="stroke:#A80036;stroke-width:1.25;"/><path d="M272.375,50.625 Q272.6289,50 272.9219,49.6875 Q273.2148,49.375 273.5469,49.375 Q274.1328,49.375 274.5039,49.7266 Q274.875,50.0781 274.875,50.8984 L274.875,52.8516 Q274.875,53.6719 274.5234,54.0234 Q274.1719,54.375 273.625,54.375 Q273.1367,54.375 272.8242,54.1602 Q272.5117,53.9453 272.375,53.3789 Q272.3164,52.9883 272.1016,52.7734 Q271.7109,52.3633 271.0078,52.1289 Q270.3047,51.875 269.6016,51.875 Q268.7227,51.875 267.9805,52.2266 Q267.2578,52.5781 266.6914,53.3594 Q266.125,54.1406 266.125,55.2148 L266.125,56.3672 Q266.125,57.6563 267.1797,58.5156 Q268.2344,59.375 270.1094,59.375 Q271.2227,59.375 272.0039,59.1211 Q272.4531,58.9844 272.9609,58.5352 Q273.293,58.2813 273.4688,58.2031 Q273.6445,58.125 273.8594,58.125 Q274.2695,58.125 274.5625,58.457 Q274.875,58.7695 274.875,59.2188 Q274.875,59.6484 274.4453,60.1563 Q273.8203,60.8984 272.8242,61.3086 Q271.5156,61.875 269.9141,61.875 Q268.0391,61.875 266.5352,61.1328 Q265.3242,60.5469 264.4648,59.2773 Q263.625,58.0078 263.625,56.5039 L263.625,55.1367 Q263.625,53.5742 264.3672,52.207 Q265.1289,50.8398 266.4375,50.1172 Q267.7656,49.375 269.25,49.375 Q270.1484,49.375 270.9297,49.6875 Q271.7109,50 272.375,50.625 Z " fill="#000000"/><text fill="#000000" font-family="sans-serif" font-size="15" lengthAdjust="spacing" textLength="53.75" x="287.625" y="61.1377">Entrega</text><line style="stroke:#A80036;stroke-width:1.875;" x1="251.25" x2="345" y1="75" y2="75"/><text fill="#000000" font-family="sans-serif" font-size="13.75" lengthAdjust="spacing" textLength="61.25" x="257.5" y="94.2737">-idEntrega</text><text fill="#000000" font-family="sans-serif" font-size="13.75" lengthAdjust="spacing" textLength="61.25" x="257.5" y="111.5686">-dataInicio</text><text fill="#000000" font-family="sans-serif" font-size="13.75" lengthAdjust="spacing" textLength="51.25" x="257.5" y="128.8635">-dataFim</text><text fill="#000000" font-family="sans-serif" font-size="13.75" lengthAdjust="spacing" textLength="81.25" x="257.5" y="146.1584">-pesoEntrega</text><!--MD5=[3f1202280bfe3359d2f91fb9b6e32986]
class Estafeta--><rect codeLine="12" fill="#FEFECE" filter="url(#fv4bqzhq09no5)" height="67.2949" id="Estafeta" style="stroke:#A80036;stroke-width:1.875;" width="100" x="8.75" y="60.625"/><ellipse cx="29.1875" cy="80.625" fill="#ADD1B2" rx="13.75" ry="13.75" style="stroke:#A80036;stroke-width:1.25;"/><path d="M31.6875,76.25 Q31.9414,75.625 32.2344,75.3125 Q32.5273,75 32.8594,75 Q33.4453,75 33.8164,75.3516 Q34.1875,75.7031 34.1875,76.5234 L34.1875,78.4766 Q34.1875,79.2969 33.8359,79.6484 Q33.4844,80 32.9375,80 Q32.4492,80 32.1367,79.7852 Q31.8242,79.5703 31.6875,79.0039 Q31.6289,78.6133 31.4141,78.3984 Q31.0234,77.9883 30.3203,77.7539 Q29.6172,77.5 28.9141,77.5 Q28.0352,77.5 27.293,77.8516 Q26.5703,78.2031 26.0039,78.9844 Q25.4375,79.7656 25.4375,80.8398 L25.4375,81.9922 Q25.4375,83.2813 26.4922,84.1406 Q27.5469,85 29.4219,85 Q30.5352,85 31.3164,84.7461 Q31.7656,84.6094 32.2734,84.1602 Q32.6055,83.9063 32.7813,83.8281 Q32.957,83.75 33.1719,83.75 Q33.582,83.75 33.875,84.082 Q34.1875,84.3945 34.1875,84.8438 Q34.1875,85.2734 33.7578,85.7813 Q33.1328,86.5234 32.1367,86.9336 Q30.8281,87.5 29.2266,87.5 Q27.3516,87.5 25.8477,86.7578 Q24.6367,86.1719 23.7773,84.9023 Q22.9375,83.6328 22.9375,82.1289 L22.9375,80.7617 Q22.9375,79.1992 23.6797,77.832 Q24.4414,76.4648 25.75,75.7422 Q27.0781,75 28.5625,75 Q29.4609,75 30.2422,75.3125 Q31.0234,75.625 31.6875,76.25 Z " fill="#000000"/><text fill="#000000" font-family="sans-serif" font-size="15" lengthAdjust="spacing" textLength="56.25" x="47.0625" y="86.7627">Estafeta</text><line style="stroke:#A80036;stroke-width:1.875;" x1="10" x2="107.5" y1="100.625" y2="100.625"/><text fill="#000000" font-family="sans-serif" font-size="13.75" lengthAdjust="spacing" textLength="85" x="16.25" y="119.8987">-pesoEstafeta</text><!--MD5=[8505c5852735283b5a8424161266bb9f]
class Veiculo--><rect codeLine="17" fill="#FEFECE" filter="url(#fv4bqzhq09no5)" height="171.0645" id="Veiculo" style="stroke:#A80036;stroke-width:1.875;" width="141.25" x="487.5" y="8.75"/><ellipse cx="529.3125" cy="28.75" fill="#ADD1B2" rx="13.75" ry="13.75" style="stroke:#A80036;stroke-width:1.25;"/><path d="M531.8125,24.375 Q532.0664,23.75 532.3594,23.4375 Q532.6523,23.125 532.9844,23.125 Q533.5703,23.125 533.9414,23.4766 Q534.3125,23.8281 534.3125,24.6484 L534.3125,26.6016 Q534.3125,27.4219 533.9609,27.7734 Q533.6094,28.125 533.0625,28.125 Q532.5742,28.125 532.2617,27.9102 Q531.9492,27.6953 531.8125,27.1289 Q531.7539,26.7383 531.5391,26.5234 Q531.1484,26.1133 530.4453,25.8789 Q529.7422,25.625 529.0391,25.625 Q528.1602,25.625 527.418,25.9766 Q526.6953,26.3281 526.1289,27.1094 Q525.5625,27.8906 525.5625,28.9648 L525.5625,30.1172 Q525.5625,31.4063 526.6172,32.2656 Q527.6719,33.125 529.5469,33.125 Q530.6602,33.125 531.4414,32.8711 Q531.8906,32.7344 532.3984,32.2852 Q532.7305,32.0313 532.9063,31.9531 Q533.082,31.875 533.2969,31.875 Q533.707,31.875 534,32.207 Q534.3125,32.5195 534.3125,32.9688 Q534.3125,33.3984 533.8828,33.9063 Q533.2578,34.6484 532.2617,35.0586 Q530.9531,35.625 529.3516,35.625 Q527.4766,35.625 525.9727,34.8828 Q524.7617,34.2969 523.9023,33.0273 Q523.0625,31.7578 523.0625,30.2539 L523.0625,28.8867 Q523.0625,27.3242 523.8047,25.957 Q524.5664,24.5898 525.875,23.8672 Q527.2031,23.125 528.6875,23.125 Q529.5859,23.125 530.3672,23.4375 Q531.1484,23.75 531.8125,24.375 Z " fill="#000000"/><text fill="#000000" font-family="sans-serif" font-size="15" lengthAdjust="spacing" textLength="50" x="551.9375" y="34.8877">Veiculo</text><line style="stroke:#A80036;stroke-width:1.875;" x1="488.75" x2="627.5" y1="48.75" y2="48.75"/><text fill="#000000" font-family="sans-serif" font-size="13.75" lengthAdjust="spacing" textLength="60" x="495" y="68.0237">-idVeiculo</text><text fill="#000000" font-family="sans-serif" font-size="13.75" lengthAdjust="spacing" textLength="65" x="495" y="85.3186">-descricao</text><text fill="#000000" font-family="sans-serif" font-size="13.75" lengthAdjust="spacing" textLength="126.25" x="495" y="102.6135">-percentagemBateria</text><text fill="#000000" font-family="sans-serif" font-size="13.75" lengthAdjust="spacing" textLength="80" x="495" y="119.9084">-pesoMaximo</text><text fill="#000000" font-family="sans-serif" font-size="13.75" lengthAdjust="spacing" textLength="80" x="495" y="137.2034">-pesoVeiculo</text><text fill="#000000" font-family="sans-serif" font-size="13.75" lengthAdjust="spacing" textLength="56.25" x="495" y="154.4983">-potencia</text><text fill="#000000" font-family="sans-serif" font-size="13.75" lengthAdjust="spacing" textLength="73.75" x="495" y="171.7932">-areaFrontal</text><!--MD5=[328dae9b2f192140d45e51cd90ecd75a]
link Estafeta to Entrega--><path codeLine="27" d="M109.075,94.375 C150.4125,94.375 209.1375,94.375 249.875,94.375 " fill="none" id="Estafeta-Entrega" style="stroke:#A80036;stroke-width:1.25;"/><polygon fill="#000000" points="158.75,83.3447,147.4436,79.6711,147.4436,87.0184,158.75,83.3447" style="stroke:#000000;stroke-width:1.25;"/><text fill="#000000" font-family="sans-serif" font-size="16.25" lengthAdjust="spacing" textLength="47.5" x="163.75" y="89.9939">realiza</text><text fill="#000000" font-family="sans-serif" font-size="16.25" lengthAdjust="spacing" textLength="8.75" x="118.8184" y="113.0826">1</text><text fill="#000000" font-family="sans-serif" font-size="16.25" lengthAdjust="spacing" textLength="6.25" x="233.8316" y="113.1511">*</text><!--MD5=[cd2aeefe8c457d184a69396a9f9cb06a]
link Entrega to Veiculo--><path codeLine="28" d="M346.6,94.375 C385.95,94.375 442.55,94.375 487.125,94.375 " fill="none" id="Entrega-Veiculo" style="stroke:#A80036;stroke-width:1.25;"/><polygon fill="#000000" points="383.75,83.3447,395.0564,87.0184,395.0564,79.6711,383.75,83.3447" style="stroke:#000000;stroke-width:1.25;"/><text fill="#000000" font-family="sans-serif" font-size="16.25" lengthAdjust="spacing" textLength="47.5" x="401.25" y="89.9939">realiza</text><text fill="#000000" font-family="sans-serif" font-size="16.25" lengthAdjust="spacing" textLength="6.25" x="356.1138" y="113.0885">*</text><text fill="#000000" font-family="sans-serif" font-size="16.25" lengthAdjust="spacing" textLength="8.75" x="468.7176" y="112.5652">1</text><!--MD5=[29fd415463e9f7d104d0c250aa902c53]
@startuml
skinparam classAttributeIconSize 0
hide methods
left to right direction

class Entrega {
  -idEntrega
  -dataInicio
  -dataFim
  -pesoEntrega
}

class Estafeta {
  -pesoEstafeta
}


class Veiculo {
  -idVeiculo
  -descricao
  -percentagemBateria
  -pesoMaximo
  -pesoVeiculo
  -potencia
  -areaFrontal
}

Estafeta "1" - - "*" Entrega: realiza >
Entrega "*" - - "1" Veiculo: realiza <

@enduml

PlantUML version 1.2021.00(Sun Jan 10 10:25:05 GMT 2021)
(GPL source distribution)
Java Runtime: OpenJDK Runtime Environment
JVM: OpenJDK 64-Bit Server VM
Default Encoding: Cp1252
Language: pt
Country: PT
--></g></svg>