<?xml version="1.0" encoding="UTF-8" standalone="no"?><svg xmlns="http://www.w3.org/2000/svg" xmlns:xlink="http://www.w3.org/1999/xlink" contentScriptType="application/ecmascript" contentStyleType="text/css" height="786px" preserveAspectRatio="none" style="width:785px;height:786px;" version="1.1" viewBox="0 0 785 786" width="785px" zoomAndPan="magnify"><defs><filter height="300%" id="f11ozl4jtq2lu2" width="300%" x="-1" y="-1"><feGaussianBlur result="blurOut" stdDeviation="2.0"/><feColorMatrix in="blurOut" result="blurOut2" type="matrix" values="0 0 0 0 0 0 0 0 0 0 0 0 0 0 0 0 0 0 .4 0"/><feOffset dx="4.0" dy="4.0" in="blurOut2" result="blurOut3"/><feBlend in="SourceGraphic" in2="blurOut3" mode="normal"/></filter></defs><g><!--MD5=[380d12a68ed0046a60f31008a02875d0]
class AplicacaoPOT--><rect codeLine="3" fill="#FEFECE" filter="url(#f11ozl4jtq2lu2)" height="73.6094" id="AplicacaoPOT" style="stroke:#A80036;stroke-width:1.5;" width="130" x="7" y="276"/><ellipse cx="29.65" cy="292" fill="#ADD1B2" rx="11" ry="11" style="stroke:#A80036;stroke-width:1.0;"/><path d="M31.9938,287.6719 C31.0563,287.2344 30.4625,287.0938 29.5875,287.0938 C26.9625,287.0938 24.9625,289.1719 24.9625,291.8906 L24.9625,293.0156 C24.9625,295.5938 27.0719,297.4844 29.9625,297.4844 C31.1813,297.4844 32.3375,297.1875 33.0875,296.6406 C33.6656,296.2344 33.9938,295.7813 33.9938,295.3906 C33.9938,294.9375 33.6031,294.5469 33.1344,294.5469 C32.9156,294.5469 32.7125,294.625 32.525,294.8125 C32.0719,295.2969 32.0719,295.2969 31.8844,295.3906 C31.4625,295.6563 30.775,295.7813 30.0094,295.7813 C27.9625,295.7813 26.6656,294.6875 26.6656,292.9844 L26.6656,291.8906 C26.6656,290.1094 27.9156,288.7969 29.65,288.7969 C30.2281,288.7969 30.8375,288.9531 31.3063,289.2031 C31.7906,289.4844 31.9625,289.7031 32.0563,290.1094 C32.1188,290.5156 32.15,290.6406 32.2906,290.7656 C32.4313,290.9063 32.6656,291.0156 32.8844,291.0156 C33.15,291.0156 33.4156,290.875 33.5875,290.6563 C33.6969,290.5 33.7281,290.3125 33.7281,289.8906 L33.7281,288.4688 C33.7281,288.0313 33.7125,287.9063 33.6188,287.75 C33.4625,287.4844 33.1813,287.3438 32.8844,287.3438 C32.5875,287.3438 32.3844,287.4375 32.1656,287.75 L31.9938,287.6719 Z " fill="#000000"/><text fill="#000000" font-family="sans-serif" font-size="12" lengthAdjust="spacing" textLength="81" x="45.35" y="296.1543">AplicacaoPOT</text><line style="stroke:#A80036;stroke-width:1.5;" x1="8" x2="136" y1="308" y2="308"/><line style="stroke:#A80036;stroke-width:1.5;" x1="8" x2="136" y1="316" y2="316"/><text fill="#000000" font-family="sans-serif" font-size="11" lengthAdjust="spacing" textLength="118" x="13" y="330.2104">+static getInstance()</text><text fill="#000000" font-family="sans-serif" font-size="11" lengthAdjust="spacing" textLength="107" x="13" y="343.0151">+getSessaoAtual()</text><!--MD5=[1a083dbe42a284ae0ea7f6f701783206]
class Parque--><rect codeLine="9" fill="#FEFECE" filter="url(#f11ozl4jtq2lu2)" height="73.6094" id="Parque" style="stroke:#A80036;stroke-width:1.5;" width="149" x="243.5" y="535"/><ellipse cx="293.25" cy="551" fill="#ADD1B2" rx="11" ry="11" style="stroke:#A80036;stroke-width:1.0;"/><path d="M295.5938,546.6719 C294.6563,546.2344 294.0625,546.0938 293.1875,546.0938 C290.5625,546.0938 288.5625,548.1719 288.5625,550.8906 L288.5625,552.0156 C288.5625,554.5938 290.6719,556.4844 293.5625,556.4844 C294.7813,556.4844 295.9375,556.1875 296.6875,555.6406 C297.2656,555.2344 297.5938,554.7813 297.5938,554.3906 C297.5938,553.9375 297.2031,553.5469 296.7344,553.5469 C296.5156,553.5469 296.3125,553.625 296.125,553.8125 C295.6719,554.2969 295.6719,554.2969 295.4844,554.3906 C295.0625,554.6563 294.375,554.7813 293.6094,554.7813 C291.5625,554.7813 290.2656,553.6875 290.2656,551.9844 L290.2656,550.8906 C290.2656,549.1094 291.5156,547.7969 293.25,547.7969 C293.8281,547.7969 294.4375,547.9531 294.9063,548.2031 C295.3906,548.4844 295.5625,548.7031 295.6563,549.1094 C295.7188,549.5156 295.75,549.6406 295.8906,549.7656 C296.0313,549.9063 296.2656,550.0156 296.4844,550.0156 C296.75,550.0156 297.0156,549.875 297.1875,549.6563 C297.2969,549.5 297.3281,549.3125 297.3281,548.8906 L297.3281,547.4688 C297.3281,547.0313 297.3125,546.9063 297.2188,546.75 C297.0625,546.4844 296.7813,546.3438 296.4844,546.3438 C296.1875,546.3438 295.9844,546.4375 295.7656,546.75 L295.5938,546.6719 Z " fill="#000000"/><text fill="#000000" font-family="sans-serif" font-size="12" lengthAdjust="spacing" textLength="41" x="313.75" y="555.1543">Parque</text><line style="stroke:#A80036;stroke-width:1.5;" x1="244.5" x2="391.5" y1="567" y2="567"/><text fill="#000000" font-family="sans-serif" font-size="11" lengthAdjust="spacing" textLength="137" x="249.5" y="581.2104">-Integer numeroMaximo</text><line style="stroke:#A80036;stroke-width:1.5;" x1="244.5" x2="391.5" y1="587.8047" y2="587.8047"/><text fill="#000000" font-family="sans-serif" font-size="11" lengthAdjust="spacing" textLength="85" x="249.5" y="602.0151">+getNumMax()</text><!--MD5=[d6f7ff8a01a1f4d455865514bc16ec87]
class Estacionamento--><rect codeLine="14" fill="#FEFECE" filter="url(#f11ozl4jtq2lu2)" height="86.4141" id="Estacionamento" style="stroke:#A80036;stroke-width:1.5;" width="281" x="177.5" y="686"/><ellipse cx="266.25" cy="702" fill="#ADD1B2" rx="11" ry="11" style="stroke:#A80036;stroke-width:1.0;"/><path d="M268.5938,697.6719 C267.6563,697.2344 267.0625,697.0938 266.1875,697.0938 C263.5625,697.0938 261.5625,699.1719 261.5625,701.8906 L261.5625,703.0156 C261.5625,705.5938 263.6719,707.4844 266.5625,707.4844 C267.7813,707.4844 268.9375,707.1875 269.6875,706.6406 C270.2656,706.2344 270.5938,705.7813 270.5938,705.3906 C270.5938,704.9375 270.2031,704.5469 269.7344,704.5469 C269.5156,704.5469 269.3125,704.625 269.125,704.8125 C268.6719,705.2969 268.6719,705.2969 268.4844,705.3906 C268.0625,705.6563 267.375,705.7813 266.6094,705.7813 C264.5625,705.7813 263.2656,704.6875 263.2656,702.9844 L263.2656,701.8906 C263.2656,700.1094 264.5156,698.7969 266.25,698.7969 C266.8281,698.7969 267.4375,698.9531 267.9063,699.2031 C268.3906,699.4844 268.5625,699.7031 268.6563,700.1094 C268.7188,700.5156 268.75,700.6406 268.8906,700.7656 C269.0313,700.9063 269.2656,701.0156 269.4844,701.0156 C269.75,701.0156 270.0156,700.875 270.1875,700.6563 C270.2969,700.5 270.3281,700.3125 270.3281,699.8906 L270.3281,698.4688 C270.3281,698.0313 270.3125,697.9063 270.2188,697.75 C270.0625,697.4844 269.7813,697.3438 269.4844,697.3438 C269.1875,697.3438 268.9844,697.4375 268.7656,697.75 L268.5938,697.6719 Z " fill="#000000"/><text fill="#000000" font-family="sans-serif" font-size="12" lengthAdjust="spacing" textLength="95" x="286.75" y="706.1543">Estacionamento</text><line style="stroke:#A80036;stroke-width:1.5;" x1="178.5" x2="457.5" y1="718" y2="718"/><text fill="#000000" font-family="sans-serif" font-size="11" lengthAdjust="spacing" textLength="118" x="183.5" y="732.2104">-Integer numeroLote</text><text fill="#000000" font-family="sans-serif" font-size="11" lengthAdjust="spacing" textLength="110" x="183.5" y="745.0151">-Integer carregador</text><line style="stroke:#A80036;stroke-width:1.5;" x1="178.5" x2="457.5" y1="751.6094" y2="751.6094"/><text fill="#000000" font-family="sans-serif" font-size="11" lengthAdjust="spacing" textLength="269" x="183.5" y="765.8198">+Estacionamento(NIF, numeroLote, carregador)</text><!--MD5=[021650fd5270df78a3629eada2205323]
class ParqueDB--><rect codeLine="20" fill="#FEFECE" filter="url(#f11ozl4jtq2lu2)" height="60.8047" id="ParqueDB" style="stroke:#A80036;stroke-width:1.5;" width="136" x="314" y="282.5"/><ellipse cx="349.7" cy="298.5" fill="#ADD1B2" rx="11" ry="11" style="stroke:#A80036;stroke-width:1.0;"/><path d="M352.0438,294.1719 C351.1063,293.7344 350.5125,293.5938 349.6375,293.5938 C347.0125,293.5938 345.0125,295.6719 345.0125,298.3906 L345.0125,299.5156 C345.0125,302.0938 347.1219,303.9844 350.0125,303.9844 C351.2313,303.9844 352.3875,303.6875 353.1375,303.1406 C353.7156,302.7344 354.0438,302.2813 354.0438,301.8906 C354.0438,301.4375 353.6531,301.0469 353.1844,301.0469 C352.9656,301.0469 352.7625,301.125 352.575,301.3125 C352.1219,301.7969 352.1219,301.7969 351.9344,301.8906 C351.5125,302.1563 350.825,302.2813 350.0594,302.2813 C348.0125,302.2813 346.7156,301.1875 346.7156,299.4844 L346.7156,298.3906 C346.7156,296.6094 347.9656,295.2969 349.7,295.2969 C350.2781,295.2969 350.8875,295.4531 351.3563,295.7031 C351.8406,295.9844 352.0125,296.2031 352.1063,296.6094 C352.1688,297.0156 352.2,297.1406 352.3406,297.2656 C352.4813,297.4063 352.7156,297.5156 352.9344,297.5156 C353.2,297.5156 353.4656,297.375 353.6375,297.1563 C353.7469,297 353.7781,296.8125 353.7781,296.3906 L353.7781,294.9688 C353.7781,294.5313 353.7625,294.4063 353.6688,294.25 C353.5125,293.9844 353.2313,293.8438 352.9344,293.8438 C352.6375,293.8438 352.4344,293.9375 352.2156,294.25 L352.0438,294.1719 Z " fill="#000000"/><text fill="#000000" font-family="sans-serif" font-size="12" lengthAdjust="spacing" textLength="58" x="368.3" y="302.6543">ParqueDB</text><line style="stroke:#A80036;stroke-width:1.5;" x1="315" x2="449" y1="314.5" y2="314.5"/><line style="stroke:#A80036;stroke-width:1.5;" x1="315" x2="449" y1="322.5" y2="322.5"/><text fill="#000000" font-family="sans-serif" font-size="11" lengthAdjust="spacing" textLength="124" x="320" y="336.7104">+getParqueByNIF(NIF)</text><!--MD5=[67caa5cdd3931e42111d92995d697358]
class EstacionamentoDB--><rect codeLine="24" fill="#FEFECE" filter="url(#f11ozl4jtq2lu2)" height="124.8281" id="EstacionamentoDB" style="stroke:#A80036;stroke-width:1.5;" width="404" x="367" y="380"/><ellipse cx="508.75" cy="396" fill="#ADD1B2" rx="11" ry="11" style="stroke:#A80036;stroke-width:1.0;"/><path d="M511.0938,391.6719 C510.1563,391.2344 509.5625,391.0938 508.6875,391.0938 C506.0625,391.0938 504.0625,393.1719 504.0625,395.8906 L504.0625,397.0156 C504.0625,399.5938 506.1719,401.4844 509.0625,401.4844 C510.2813,401.4844 511.4375,401.1875 512.1875,400.6406 C512.7656,400.2344 513.0938,399.7813 513.0938,399.3906 C513.0938,398.9375 512.7031,398.5469 512.2344,398.5469 C512.0156,398.5469 511.8125,398.625 511.625,398.8125 C511.1719,399.2969 511.1719,399.2969 510.9844,399.3906 C510.5625,399.6563 509.875,399.7813 509.1094,399.7813 C507.0625,399.7813 505.7656,398.6875 505.7656,396.9844 L505.7656,395.8906 C505.7656,394.1094 507.0156,392.7969 508.75,392.7969 C509.3281,392.7969 509.9375,392.9531 510.4063,393.2031 C510.8906,393.4844 511.0625,393.7031 511.1563,394.1094 C511.2188,394.5156 511.25,394.6406 511.3906,394.7656 C511.5313,394.9063 511.7656,395.0156 511.9844,395.0156 C512.25,395.0156 512.5156,394.875 512.6875,394.6563 C512.7969,394.5 512.8281,394.3125 512.8281,393.8906 L512.8281,392.4688 C512.8281,392.0313 512.8125,391.9063 512.7188,391.75 C512.5625,391.4844 512.2813,391.3438 511.9844,391.3438 C511.6875,391.3438 511.4844,391.4375 511.2656,391.75 L511.0938,391.6719 Z " fill="#000000"/><text fill="#000000" font-family="sans-serif" font-size="12" lengthAdjust="spacing" textLength="112" x="529.25" y="400.1543">EstacionamentoDB</text><line style="stroke:#A80036;stroke-width:1.5;" x1="368" x2="770" y1="412" y2="412"/><line style="stroke:#A80036;stroke-width:1.5;" x1="368" x2="770" y1="420" y2="420"/><text fill="#000000" font-family="sans-serif" font-size="11" lengthAdjust="spacing" textLength="392" x="373" y="434.2104">+Estacionamento novoEstacionamento(NIF, numeroLote, carregador)</text><text fill="#000000" font-family="sans-serif" font-size="11" lengthAdjust="spacing" textLength="173" x="373" y="447.0151">+validaEstacionamento(estac)</text><text fill="#000000" font-family="sans-serif" font-size="11" lengthAdjust="spacing" textLength="160" x="373" y="459.8198">+addEstacionamento(estac)</text><text fill="#000000" font-family="sans-serif" font-size="11" lengthAdjust="spacing" textLength="133" x="373" y="472.6245">+getEstacionamentos()</text><text fill="#000000" font-family="sans-serif" font-size="11" lengthAdjust="spacing" textLength="168" x="373" y="485.4292">+addEstacionamentos(lEstac)</text><text fill="#000000" font-family="sans-serif" font-size="11" lengthAdjust="spacing" textLength="207" x="373" y="498.2339">+validaListaEstacionamentos(lEstac)</text><!--MD5=[9c16e9b92917ab2a8af978968f613c8b]
class InserirEstacionamentosController--><rect codeLine="33" fill="#FEFECE" filter="url(#f11ozl4jtq2lu2)" height="99.2188" id="InserirEstacionamentosController" style="stroke:#A80036;stroke-width:1.5;" width="309" x="106.5" y="116"/><ellipse cx="157.25" cy="132" fill="#ADD1B2" rx="11" ry="11" style="stroke:#A80036;stroke-width:1.0;"/><path d="M159.5938,127.6719 C158.6563,127.2344 158.0625,127.0938 157.1875,127.0938 C154.5625,127.0938 152.5625,129.1719 152.5625,131.8906 L152.5625,133.0156 C152.5625,135.5938 154.6719,137.4844 157.5625,137.4844 C158.7813,137.4844 159.9375,137.1875 160.6875,136.6406 C161.2656,136.2344 161.5938,135.7813 161.5938,135.3906 C161.5938,134.9375 161.2031,134.5469 160.7344,134.5469 C160.5156,134.5469 160.3125,134.625 160.125,134.8125 C159.6719,135.2969 159.6719,135.2969 159.4844,135.3906 C159.0625,135.6563 158.375,135.7813 157.6094,135.7813 C155.5625,135.7813 154.2656,134.6875 154.2656,132.9844 L154.2656,131.8906 C154.2656,130.1094 155.5156,128.7969 157.25,128.7969 C157.8281,128.7969 158.4375,128.9531 158.9063,129.2031 C159.3906,129.4844 159.5625,129.7031 159.6563,130.1094 C159.7188,130.5156 159.75,130.6406 159.8906,130.7656 C160.0313,130.9063 160.2656,131.0156 160.4844,131.0156 C160.75,131.0156 161.0156,130.875 161.1875,130.6563 C161.2969,130.5 161.3281,130.3125 161.3281,129.8906 L161.3281,128.4688 C161.3281,128.0313 161.3125,127.9063 161.2188,127.75 C161.0625,127.4844 160.7813,127.3438 160.4844,127.3438 C160.1875,127.3438 159.9844,127.4375 159.7656,127.75 L159.5938,127.6719 Z " fill="#000000"/><text fill="#000000" font-family="sans-serif" font-size="12" lengthAdjust="spacing" textLength="199" x="177.75" y="136.1543">InserirEstacionamentosController</text><line style="stroke:#A80036;stroke-width:1.5;" x1="107.5" x2="414.5" y1="148" y2="148"/><line style="stroke:#A80036;stroke-width:1.5;" x1="107.5" x2="414.5" y1="156" y2="156"/><text fill="#000000" font-family="sans-serif" font-size="11" lengthAdjust="spacing" textLength="173" x="112.5" y="170.2104">+getParqueNumMaxByNIF(NIF)</text><text fill="#000000" font-family="sans-serif" font-size="11" lengthAdjust="spacing" textLength="297" x="112.5" y="183.0151">+novoEstacionamento(NIF, numeroLote, carregador)</text><text fill="#000000" font-family="sans-serif" font-size="11" lengthAdjust="spacing" textLength="185" x="112.5" y="195.8198">+getListaListaEstacionamentos()</text><text fill="#000000" font-family="sans-serif" font-size="11" lengthAdjust="spacing" textLength="168" x="112.5" y="208.6245">+addEstacionamentos(lEstac)</text><!--MD5=[964b8215c4b7eb2c036f528cdffb241a]
class InserirEstacionamentosUI--><rect codeLine="40" fill="#FEFECE" filter="url(#f11ozl4jtq2lu2)" height="48" id="InserirEstacionamentosUI" style="stroke:#A80036;stroke-width:1.5;" width="184" x="169" y="7"/><ellipse cx="184" cy="23" fill="#ADD1B2" rx="11" ry="11" style="stroke:#A80036;stroke-width:1.0;"/><path d="M186.3438,18.6719 C185.4063,18.2344 184.8125,18.0938 183.9375,18.0938 C181.3125,18.0938 179.3125,20.1719 179.3125,22.8906 L179.3125,24.0156 C179.3125,26.5938 181.4219,28.4844 184.3125,28.4844 C185.5313,28.4844 186.6875,28.1875 187.4375,27.6406 C188.0156,27.2344 188.3438,26.7813 188.3438,26.3906 C188.3438,25.9375 187.9531,25.5469 187.4844,25.5469 C187.2656,25.5469 187.0625,25.625 186.875,25.8125 C186.4219,26.2969 186.4219,26.2969 186.2344,26.3906 C185.8125,26.6563 185.125,26.7813 184.3594,26.7813 C182.3125,26.7813 181.0156,25.6875 181.0156,23.9844 L181.0156,22.8906 C181.0156,21.1094 182.2656,19.7969 184,19.7969 C184.5781,19.7969 185.1875,19.9531 185.6563,20.2031 C186.1406,20.4844 186.3125,20.7031 186.4063,21.1094 C186.4688,21.5156 186.5,21.6406 186.6406,21.7656 C186.7813,21.9063 187.0156,22.0156 187.2344,22.0156 C187.5,22.0156 187.7656,21.875 187.9375,21.6563 C188.0469,21.5 188.0781,21.3125 188.0781,20.8906 L188.0781,19.4688 C188.0781,19.0313 188.0625,18.9063 187.9688,18.75 C187.8125,18.4844 187.5313,18.3438 187.2344,18.3438 C186.9375,18.3438 186.7344,18.4375 186.5156,18.75 L186.3438,18.6719 Z " fill="#000000"/><text fill="#000000" font-family="sans-serif" font-size="12" lengthAdjust="spacing" textLength="152" x="198" y="27.1543">InserirEstacionamentosUI</text><line style="stroke:#A80036;stroke-width:1.5;" x1="170" x2="352" y1="39" y2="39"/><line style="stroke:#A80036;stroke-width:1.5;" x1="170" x2="352" y1="47" y2="47"/><!--MD5=[be5b0d7457389e975a960bfedff56805]
link InserirEstacionamentosUI to InserirEstacionamentosController--><path codeLine="43" d="M261,55.08 C261,70.396 261,91.166 261,110.495 " fill="none" id="InserirEstacionamentosUI-to-InserirEstacionamentosController" style="stroke:#A80036;stroke-width:1.0;stroke-dasharray:7.0,7.0;"/><polygon fill="#A80036" points="261,115.903,265,106.903,261,110.903,257,106.903,261,115.903" style="stroke:#A80036;stroke-width:1.0;"/><!--MD5=[84dda13e7be9a23fc5c2b11d0d0a5e1f]
link InserirEstacionamentosController to ParqueDB--><path codeLine="44" d="M301.628,215.354 C318.734,235.924 338.224,259.361 353.727,278.003 " fill="none" id="InserirEstacionamentosController-to-ParqueDB" style="stroke:#A80036;stroke-width:1.0;stroke-dasharray:7.0,7.0;"/><polygon fill="#A80036" points="357.174,282.147,354.4946,272.6696,353.9769,278.3027,348.3438,277.785,357.174,282.147" style="stroke:#A80036;stroke-width:1.0;"/><!--MD5=[6aacb0eebbddabdf2b0ce6933554a71e]
link InserirEstacionamentosController to Parque--><path codeLine="45" d="M258.562,215.142 C256.538,281.803 257.543,404.706 285,505 C287.269,513.288 290.615,521.764 294.317,529.761 " fill="none" id="InserirEstacionamentosController-to-Parque" style="stroke:#A80036;stroke-width:1.0;stroke-dasharray:7.0,7.0;"/><polygon fill="#A80036" points="296.662,534.672,296.3946,524.8268,294.508,530.1598,289.175,528.2732,296.662,534.672" style="stroke:#A80036;stroke-width:1.0;"/><!--MD5=[4ab45715b48701652735422bad5ef05b]
link InserirEstacionamentosController to EstacionamentoDB--><path codeLine="46" d="M378.198,215.135 C409.279,231.521 441.302,251.89 467,276 C496.678,303.843 521.026,342.171 538.482,374.93 " fill="none" id="InserirEstacionamentosController-to-EstacionamentoDB" style="stroke:#A80036;stroke-width:1.0;stroke-dasharray:7.0,7.0;"/><polygon fill="#A80036" points="541.007,379.721,540.35,369.8941,538.676,375.2976,533.2725,373.6236,541.007,379.721" style="stroke:#A80036;stroke-width:1.0;"/><!--MD5=[f117891f5ecaa8c44ea8c4e23636cbc2]
link InserirEstacionamentosController to Estacionamento--><path codeLine="47" d="M244.794,215.221 C219.787,298.447 179.306,472.26 226,609 C235.216,635.987 253.31,661.604 271.031,682.1092 " fill="none" id="InserirEstacionamentosController-to-Estacionamento" style="stroke:#A80036;stroke-width:1.0;stroke-dasharray:7.0,7.0;"/><polygon fill="#A80036" points="274.333,685.8777,271.4091,676.4729,271.0374,682.1175,265.3928,681.7458,274.333,685.8777" style="stroke:#A80036;stroke-width:1.0;"/><!--MD5=[c7a70bfdf63a9f8a00c9d495ff8b6f50]
link InserirEstacionamentosController to AplicacaoPOT--><path codeLine="48" d="M197.803,215.152 C173.557,233.817 146.212,254.868 123.225,272.565 " fill="none" id="InserirEstacionamentosController-to-AplicacaoPOT" style="stroke:#A80036;stroke-width:1.0;stroke-dasharray:7.0,7.0;"/><polygon fill="#A80036" points="118.985,275.829,128.5569,273.5096,122.9473,272.7794,123.6775,267.1699,118.985,275.829" style="stroke:#A80036;stroke-width:1.0;"/><!--MD5=[e5dbbc54f46538fc7b7077d28b1f914b]
link ParqueDB to Parque--><path codeLine="50" d="M335.409,343.549 C323.605,353.56 312.453,365.849 306,380 C284.231,427.736 293.884,489.255 304.477,529.39 " fill="none" id="ParqueDB-to-Parque" style="stroke:#A80036;stroke-width:1.0;"/><polygon fill="#A80036" points="305.907,534.663,307.4121,524.9298,304.5984,529.8373,299.691,527.0236,305.907,534.663" style="stroke:#A80036;stroke-width:1.0;"/><text fill="#000000" font-family="sans-serif" font-size="13" lengthAdjust="spacing" textLength="41" x="307" y="447.0669">possui</text><text fill="#000000" font-family="sans-serif" font-size="13" lengthAdjust="spacing" textLength="8" x="316.9746" y="363.4973">1</text><text fill="#000000" font-family="sans-serif" font-size="13" lengthAdjust="spacing" textLength="7" x="296.227" y="524.0685">*</text><!--MD5=[3f261229c7309ba030e97986da9f3259]
link Parque to Estacionamento--><path codeLine="51" d="M318,609.341 C318,630.637 318,657.774 318,680.7203 " fill="none" id="Parque-to-Estacionamento" style="stroke:#A80036;stroke-width:1.0;"/><polygon fill="#A80036" points="318,685.8503,322,676.8503,318,680.8503,314,676.8503,318,685.8503" style="stroke:#A80036;stroke-width:1.0;"/><text fill="#000000" font-family="sans-serif" font-size="13" lengthAdjust="spacing" textLength="26" x="319" y="652.0669">tem</text><text fill="#000000" font-family="sans-serif" font-size="13" lengthAdjust="spacing" textLength="8" x="309.3625" y="628.5961">1</text><text fill="#000000" font-family="sans-serif" font-size="13" lengthAdjust="spacing" textLength="7" x="310.4422" y="674.8221">*</text><!--MD5=[b6dc8f9fc22080dad3f837ef42baa519]
link EstacionamentoDB to Estacionamento--><path codeLine="52" d="M514.537,505.232 C467.697,558.324 401.172,633.727 358.8,681.7542 " fill="none" id="EstacionamentoDB-to-Estacionamento" style="stroke:#A80036;stroke-width:1.0;"/><polygon fill="#A80036" points="355.285,685.7386,364.2391,681.6369,358.5933,681.9896,358.2407,676.3437,355.285,685.7386" style="stroke:#A80036;stroke-width:1.0;"/><text fill="#000000" font-family="sans-serif" font-size="13" lengthAdjust="spacing" textLength="41" x="487" y="576.5669">possui</text><text fill="#000000" font-family="sans-serif" font-size="13" lengthAdjust="spacing" textLength="8" x="500.1426" y="524.9972">1</text><text fill="#000000" font-family="sans-serif" font-size="13" lengthAdjust="spacing" textLength="7" x="353.4583" y="675.0116">*</text><!--MD5=[9e69ece4b6a9215a5b14cf397f98de23]
@startuml
skinparam classAttributeIconSize 0

class AplicacaoPOT
{
  +static getInstance()
  +getSessaoAtual()
}

class Parque {
  -Integer numeroMaximo
  +getNumMax()
}

class Estacionamento {
  -Integer numeroLote
  -Integer carregador
  +Estacionamento(NIF, numeroLote, carregador)
}

class ParqueDB {
  +getParqueByNIF(NIF)
}

class EstacionamentoDB {
  +Estacionamento novoEstacionamento(NIF, numeroLote, carregador)
  +validaEstacionamento(estac)
  +addEstacionamento(estac)
  +getEstacionamentos()
  +addEstacionamentos(lEstac)
  +validaListaEstacionamentos(lEstac)
}

class InserirEstacionamentosController {
    +getParqueNumMaxByNIF(NIF)
    +novoEstacionamento(NIF, numeroLote, carregador)
    +getListaListaEstacionamentos()
    +addEstacionamentos(lEstac)
}

class InserirEstacionamentosUI {
}

InserirEstacionamentosUI ..> InserirEstacionamentosController
InserirEstacionamentosController ..> ParqueDB
InserirEstacionamentosController ..> Parque
InserirEstacionamentosController ..> EstacionamentoDB
InserirEstacionamentosController ..> Estacionamento
InserirEstacionamentosController ..> AplicacaoPOT

ParqueDB "1" - -> "*" Parque : possui
Parque "1" - -> "*" Estacionamento : tem
EstacionamentoDB "1" - -> "*" Estacionamento : possui
@enduml

PlantUML version 1.2020.27beta7(Unknown compile time)
(GPL source distribution)
Java Runtime: Java(TM) SE Runtime Environment
JVM: Java HotSpot(TM) 64-Bit Server VM
Default Encoding: UTF-8
Language: en
Country: US
--></g></svg>