<?xml version="1.0" encoding="UTF-8" standalone="no"?><svg xmlns="http://www.w3.org/2000/svg" xmlns:xlink="http://www.w3.org/1999/xlink" contentScriptType="application/ecmascript" contentStyleType="text/css" height="734px" preserveAspectRatio="none" style="width:614px;height:734px;" version="1.1" viewBox="0 0 614 734" width="614px" zoomAndPan="magnify"><defs><filter height="300%" id="f1bw2pwnf8fslc" width="300%" x="-1" y="-1"><feGaussianBlur result="blurOut" stdDeviation="2.0"/><feColorMatrix in="blurOut" result="blurOut2" type="matrix" values="0 0 0 0 0 0 0 0 0 0 0 0 0 0 0 0 0 0 .4 0"/><feOffset dx="4.0" dy="4.0" in="blurOut2" result="blurOut3"/><feBlend in="SourceGraphic" in2="blurOut3" mode="normal"/></filter></defs><g><!--MD5=[1a083dbe42a284ae0ea7f6f701783206]
class Parque--><rect codeLine="3" fill="#FEFECE" filter="url(#f1bw2pwnf8fslc)" height="73.6094" id="Parque" style="stroke:#A80036;stroke-width:1.5;" width="149" x="73" y="470"/><ellipse cx="122.75" cy="486" fill="#ADD1B2" rx="11" ry="11" style="stroke:#A80036;stroke-width:1.0;"/><path d="M125.0938,481.6719 C124.1563,481.2344 123.5625,481.0938 122.6875,481.0938 C120.0625,481.0938 118.0625,483.1719 118.0625,485.8906 L118.0625,487.0156 C118.0625,489.5938 120.1719,491.4844 123.0625,491.4844 C124.2813,491.4844 125.4375,491.1875 126.1875,490.6406 C126.7656,490.2344 127.0938,489.7813 127.0938,489.3906 C127.0938,488.9375 126.7031,488.5469 126.2344,488.5469 C126.0156,488.5469 125.8125,488.625 125.625,488.8125 C125.1719,489.2969 125.1719,489.2969 124.9844,489.3906 C124.5625,489.6563 123.875,489.7813 123.1094,489.7813 C121.0625,489.7813 119.7656,488.6875 119.7656,486.9844 L119.7656,485.8906 C119.7656,484.1094 121.0156,482.7969 122.75,482.7969 C123.3281,482.7969 123.9375,482.9531 124.4063,483.2031 C124.8906,483.4844 125.0625,483.7031 125.1563,484.1094 C125.2188,484.5156 125.25,484.6406 125.3906,484.7656 C125.5313,484.9063 125.7656,485.0156 125.9844,485.0156 C126.25,485.0156 126.5156,484.875 126.6875,484.6563 C126.7969,484.5 126.8281,484.3125 126.8281,483.8906 L126.8281,482.4688 C126.8281,482.0313 126.8125,481.9063 126.7188,481.75 C126.5625,481.4844 126.2813,481.3438 125.9844,481.3438 C125.6875,481.3438 125.4844,481.4375 125.2656,481.75 L125.0938,481.6719 Z " fill="#000000"/><text fill="#000000" font-family="sans-serif" font-size="12" lengthAdjust="spacing" textLength="41" x="143.25" y="490.1543">Parque</text><line style="stroke:#A80036;stroke-width:1.5;" x1="74" x2="221" y1="502" y2="502"/><text fill="#000000" font-family="sans-serif" font-size="11" lengthAdjust="spacing" textLength="137" x="79" y="516.2104">-Integer numeroMaximo</text><line style="stroke:#A80036;stroke-width:1.5;" x1="74" x2="221" y1="522.8047" y2="522.8047"/><text fill="#000000" font-family="sans-serif" font-size="11" lengthAdjust="spacing" textLength="85" x="79" y="537.0151">+getNumMax()</text><!--MD5=[d6f7ff8a01a1f4d455865514bc16ec87]
class Estacionamento--><rect codeLine="8" fill="#FEFECE" filter="url(#f1bw2pwnf8fslc)" height="99.2188" id="Estacionamento" style="stroke:#A80036;stroke-width:1.5;" width="281" x="7" y="621"/><ellipse cx="95.75" cy="637" fill="#ADD1B2" rx="11" ry="11" style="stroke:#A80036;stroke-width:1.0;"/><path d="M98.0938,632.6719 C97.1563,632.2344 96.5625,632.0938 95.6875,632.0938 C93.0625,632.0938 91.0625,634.1719 91.0625,636.8906 L91.0625,638.0156 C91.0625,640.5938 93.1719,642.4844 96.0625,642.4844 C97.2813,642.4844 98.4375,642.1875 99.1875,641.6406 C99.7656,641.2344 100.0938,640.7813 100.0938,640.3906 C100.0938,639.9375 99.7031,639.5469 99.2344,639.5469 C99.0156,639.5469 98.8125,639.625 98.625,639.8125 C98.1719,640.2969 98.1719,640.2969 97.9844,640.3906 C97.5625,640.6563 96.875,640.7813 96.1094,640.7813 C94.0625,640.7813 92.7656,639.6875 92.7656,637.9844 L92.7656,636.8906 C92.7656,635.1094 94.0156,633.7969 95.75,633.7969 C96.3281,633.7969 96.9375,633.9531 97.4063,634.2031 C97.8906,634.4844 98.0625,634.7031 98.1563,635.1094 C98.2188,635.5156 98.25,635.6406 98.3906,635.7656 C98.5313,635.9063 98.7656,636.0156 98.9844,636.0156 C99.25,636.0156 99.5156,635.875 99.6875,635.6563 C99.7969,635.5 99.8281,635.3125 99.8281,634.8906 L99.8281,633.4688 C99.8281,633.0313 99.8125,632.9063 99.7188,632.75 C99.5625,632.4844 99.2813,632.3438 98.9844,632.3438 C98.6875,632.3438 98.4844,632.4375 98.2656,632.75 L98.0938,632.6719 Z " fill="#000000"/><text fill="#000000" font-family="sans-serif" font-size="12" lengthAdjust="spacing" textLength="95" x="116.25" y="641.1543">Estacionamento</text><line style="stroke:#A80036;stroke-width:1.5;" x1="8" x2="287" y1="653" y2="653"/><text fill="#000000" font-family="sans-serif" font-size="11" lengthAdjust="spacing" textLength="118" x="13" y="667.2104">-Integer numeroLote</text><text fill="#000000" font-family="sans-serif" font-size="11" lengthAdjust="spacing" textLength="110" x="13" y="680.0151">-Integer carregador</text><text fill="#000000" font-family="sans-serif" font-size="11" lengthAdjust="spacing" textLength="66" x="13" y="692.8198">-Integer NIF</text><line style="stroke:#A80036;stroke-width:1.5;" x1="8" x2="287" y1="699.4141" y2="699.4141"/><text fill="#000000" font-family="sans-serif" font-size="11" lengthAdjust="spacing" textLength="269" x="13" y="713.6245">+Estacionamento(numeroLote, carregador, NIF)</text><!--MD5=[021650fd5270df78a3629eada2205323]
class ParqueDB--><rect codeLine="15" fill="#FEFECE" filter="url(#f1bw2pwnf8fslc)" height="60.8047" id="ParqueDB" style="stroke:#A80036;stroke-width:1.5;" width="185" x="144" y="263"/><ellipse cx="203.25" cy="279" fill="#ADD1B2" rx="11" ry="11" style="stroke:#A80036;stroke-width:1.0;"/><path d="M205.5938,274.6719 C204.6563,274.2344 204.0625,274.0938 203.1875,274.0938 C200.5625,274.0938 198.5625,276.1719 198.5625,278.8906 L198.5625,280.0156 C198.5625,282.5938 200.6719,284.4844 203.5625,284.4844 C204.7813,284.4844 205.9375,284.1875 206.6875,283.6406 C207.2656,283.2344 207.5938,282.7813 207.5938,282.3906 C207.5938,281.9375 207.2031,281.5469 206.7344,281.5469 C206.5156,281.5469 206.3125,281.625 206.125,281.8125 C205.6719,282.2969 205.6719,282.2969 205.4844,282.3906 C205.0625,282.6563 204.375,282.7813 203.6094,282.7813 C201.5625,282.7813 200.2656,281.6875 200.2656,279.9844 L200.2656,278.8906 C200.2656,277.1094 201.5156,275.7969 203.25,275.7969 C203.8281,275.7969 204.4375,275.9531 204.9063,276.2031 C205.3906,276.4844 205.5625,276.7031 205.6563,277.1094 C205.7188,277.5156 205.75,277.6406 205.8906,277.7656 C206.0313,277.9063 206.2656,278.0156 206.4844,278.0156 C206.75,278.0156 207.0156,277.875 207.1875,277.6563 C207.2969,277.5 207.3281,277.3125 207.3281,276.8906 L207.3281,275.4688 C207.3281,275.0313 207.3125,274.9063 207.2188,274.75 C207.0625,274.4844 206.7813,274.3438 206.4844,274.3438 C206.1875,274.3438 205.9844,274.4375 205.7656,274.75 L205.5938,274.6719 Z " fill="#000000"/><text fill="#000000" font-family="sans-serif" font-size="12" lengthAdjust="spacing" textLength="58" x="223.75" y="283.1543">ParqueDB</text><line style="stroke:#A80036;stroke-width:1.5;" x1="145" x2="328" y1="295" y2="295"/><line style="stroke:#A80036;stroke-width:1.5;" x1="145" x2="328" y1="303" y2="303"/><text fill="#000000" font-family="sans-serif" font-size="11" lengthAdjust="spacing" textLength="173" x="150" y="317.2104">+getNumMaxParqueByNIF(NIF)</text><!--MD5=[67caa5cdd3931e42111d92995d697358]
class EstacionamentoDB--><rect codeLine="19" fill="#FEFECE" filter="url(#f1bw2pwnf8fslc)" height="86.4141" id="EstacionamentoDB" style="stroke:#A80036;stroke-width:1.5;" width="404" x="196.5" y="354"/><ellipse cx="338.25" cy="370" fill="#ADD1B2" rx="11" ry="11" style="stroke:#A80036;stroke-width:1.0;"/><path d="M340.5938,365.6719 C339.6563,365.2344 339.0625,365.0938 338.1875,365.0938 C335.5625,365.0938 333.5625,367.1719 333.5625,369.8906 L333.5625,371.0156 C333.5625,373.5938 335.6719,375.4844 338.5625,375.4844 C339.7813,375.4844 340.9375,375.1875 341.6875,374.6406 C342.2656,374.2344 342.5938,373.7813 342.5938,373.3906 C342.5938,372.9375 342.2031,372.5469 341.7344,372.5469 C341.5156,372.5469 341.3125,372.625 341.125,372.8125 C340.6719,373.2969 340.6719,373.2969 340.4844,373.3906 C340.0625,373.6563 339.375,373.7813 338.6094,373.7813 C336.5625,373.7813 335.2656,372.6875 335.2656,370.9844 L335.2656,369.8906 C335.2656,368.1094 336.5156,366.7969 338.25,366.7969 C338.8281,366.7969 339.4375,366.9531 339.9063,367.2031 C340.3906,367.4844 340.5625,367.7031 340.6563,368.1094 C340.7188,368.5156 340.75,368.6406 340.8906,368.7656 C341.0313,368.9063 341.2656,369.0156 341.4844,369.0156 C341.75,369.0156 342.0156,368.875 342.1875,368.6563 C342.2969,368.5 342.3281,368.3125 342.3281,367.8906 L342.3281,366.4688 C342.3281,366.0313 342.3125,365.9063 342.2188,365.75 C342.0625,365.4844 341.7813,365.3438 341.4844,365.3438 C341.1875,365.3438 340.9844,365.4375 340.7656,365.75 L340.5938,365.6719 Z " fill="#000000"/><text fill="#000000" font-family="sans-serif" font-size="12" lengthAdjust="spacing" textLength="112" x="358.75" y="374.1543">EstacionamentoDB</text><line style="stroke:#A80036;stroke-width:1.5;" x1="197.5" x2="599.5" y1="386" y2="386"/><line style="stroke:#A80036;stroke-width:1.5;" x1="197.5" x2="599.5" y1="394" y2="394"/><text fill="#000000" font-family="sans-serif" font-size="11" lengthAdjust="spacing" textLength="392" x="202.5" y="408.2104">+Estacionamento novoEstacionamento(numeroLote, carregador, NIF)</text><text fill="#000000" font-family="sans-serif" font-size="11" lengthAdjust="spacing" textLength="178" x="202.5" y="421.0151">+registaEstacionamento(estac)</text><text fill="#000000" font-family="sans-serif" font-size="11" lengthAdjust="spacing" textLength="173" x="202.5" y="433.8198">+validaEstacionamento(estac)</text><!--MD5=[9c16e9b92917ab2a8af978968f613c8b]
class InserirEstacionamentosController--><rect codeLine="25" fill="#FEFECE" filter="url(#f1bw2pwnf8fslc)" height="86.4141" id="InserirEstacionamentosController" style="stroke:#A80036;stroke-width:1.5;" width="309" x="9" y="116"/><ellipse cx="59.75" cy="132" fill="#ADD1B2" rx="11" ry="11" style="stroke:#A80036;stroke-width:1.0;"/><path d="M62.0938,127.6719 C61.1563,127.2344 60.5625,127.0938 59.6875,127.0938 C57.0625,127.0938 55.0625,129.1719 55.0625,131.8906 L55.0625,133.0156 C55.0625,135.5938 57.1719,137.4844 60.0625,137.4844 C61.2813,137.4844 62.4375,137.1875 63.1875,136.6406 C63.7656,136.2344 64.0938,135.7813 64.0938,135.3906 C64.0938,134.9375 63.7031,134.5469 63.2344,134.5469 C63.0156,134.5469 62.8125,134.625 62.625,134.8125 C62.1719,135.2969 62.1719,135.2969 61.9844,135.3906 C61.5625,135.6563 60.875,135.7813 60.1094,135.7813 C58.0625,135.7813 56.7656,134.6875 56.7656,132.9844 L56.7656,131.8906 C56.7656,130.1094 58.0156,128.7969 59.75,128.7969 C60.3281,128.7969 60.9375,128.9531 61.4063,129.2031 C61.8906,129.4844 62.0625,129.7031 62.1563,130.1094 C62.2188,130.5156 62.25,130.6406 62.3906,130.7656 C62.5313,130.9063 62.7656,131.0156 62.9844,131.0156 C63.25,131.0156 63.5156,130.875 63.6875,130.6563 C63.7969,130.5 63.8281,130.3125 63.8281,129.8906 L63.8281,128.4688 C63.8281,128.0313 63.8125,127.9063 63.7188,127.75 C63.5625,127.4844 63.2813,127.3438 62.9844,127.3438 C62.6875,127.3438 62.4844,127.4375 62.2656,127.75 L62.0938,127.6719 Z " fill="#000000"/><text fill="#000000" font-family="sans-serif" font-size="12" lengthAdjust="spacing" textLength="199" x="80.25" y="136.1543">InserirEstacionamentosController</text><line style="stroke:#A80036;stroke-width:1.5;" x1="10" x2="317" y1="148" y2="148"/><line style="stroke:#A80036;stroke-width:1.5;" x1="10" x2="317" y1="156" y2="156"/><text fill="#000000" font-family="sans-serif" font-size="11" lengthAdjust="spacing" textLength="173" x="15" y="170.2104">+getNumMaxParqueByNIF(NIF)</text><text fill="#000000" font-family="sans-serif" font-size="11" lengthAdjust="spacing" textLength="297" x="15" y="183.0151">+novoEstacionamento(numeroLote, carregador, NIF)</text><text fill="#000000" font-family="sans-serif" font-size="11" lengthAdjust="spacing" textLength="186" x="15" y="195.8198">+registaEstacionamentos(lEstac)</text><!--MD5=[964b8215c4b7eb2c036f528cdffb241a]
class InserirEstacionamentosUI--><rect codeLine="31" fill="#FEFECE" filter="url(#f1bw2pwnf8fslc)" height="48" id="InserirEstacionamentosUI" style="stroke:#A80036;stroke-width:1.5;" width="184" x="71.5" y="7"/><ellipse cx="86.5" cy="23" fill="#ADD1B2" rx="11" ry="11" style="stroke:#A80036;stroke-width:1.0;"/><path d="M88.8438,18.6719 C87.9063,18.2344 87.3125,18.0938 86.4375,18.0938 C83.8125,18.0938 81.8125,20.1719 81.8125,22.8906 L81.8125,24.0156 C81.8125,26.5938 83.9219,28.4844 86.8125,28.4844 C88.0313,28.4844 89.1875,28.1875 89.9375,27.6406 C90.5156,27.2344 90.8438,26.7813 90.8438,26.3906 C90.8438,25.9375 90.4531,25.5469 89.9844,25.5469 C89.7656,25.5469 89.5625,25.625 89.375,25.8125 C88.9219,26.2969 88.9219,26.2969 88.7344,26.3906 C88.3125,26.6563 87.625,26.7813 86.8594,26.7813 C84.8125,26.7813 83.5156,25.6875 83.5156,23.9844 L83.5156,22.8906 C83.5156,21.1094 84.7656,19.7969 86.5,19.7969 C87.0781,19.7969 87.6875,19.9531 88.1563,20.2031 C88.6406,20.4844 88.8125,20.7031 88.9063,21.1094 C88.9688,21.5156 89,21.6406 89.1406,21.7656 C89.2813,21.9063 89.5156,22.0156 89.7344,22.0156 C90,22.0156 90.2656,21.875 90.4375,21.6563 C90.5469,21.5 90.5781,21.3125 90.5781,20.8906 L90.5781,19.4688 C90.5781,19.0313 90.5625,18.9063 90.4688,18.75 C90.3125,18.4844 90.0313,18.3438 89.7344,18.3438 C89.4375,18.3438 89.2344,18.4375 89.0156,18.75 L88.8438,18.6719 Z " fill="#000000"/><text fill="#000000" font-family="sans-serif" font-size="12" lengthAdjust="spacing" textLength="152" x="100.5" y="27.1543">InserirEstacionamentosUI</text><line style="stroke:#A80036;stroke-width:1.5;" x1="72.5" x2="254.5" y1="39" y2="39"/><line style="stroke:#A80036;stroke-width:1.5;" x1="72.5" x2="254.5" y1="47" y2="47"/><!--MD5=[be5b0d7457389e975a960bfedff56805]
link InserirEstacionamentosUI to InserirEstacionamentosController--><path codeLine="34" d="M163.5,55.11 C163.5,70.631 163.5,91.639 163.5,110.625 " fill="none" id="InserirEstacionamentosUI-to-InserirEstacionamentosController" style="stroke:#A80036;stroke-width:1.0;stroke-dasharray:7.0,7.0;"/><polygon fill="#A80036" points="163.5,115.921,167.5,106.921,163.5,110.921,159.5,106.921,163.5,115.921" style="stroke:#A80036;stroke-width:1.0;"/><!--MD5=[84dda13e7be9a23fc5c2b11d0d0a5e1f]
link InserirEstacionamentosController to ParqueDB--><path codeLine="35" d="M186.798,202.288 C196.715,220.287 208.134,241.014 217.524,258.058 " fill="none" id="InserirEstacionamentosController-to-ParqueDB" style="stroke:#A80036;stroke-width:1.0;stroke-dasharray:7.0,7.0;"/><polygon fill="#A80036" points="220.116,262.762,219.277,252.9489,217.7034,258.3825,212.2698,256.809,220.116,262.762" style="stroke:#A80036;stroke-width:1.0;"/><!--MD5=[6aacb0eebbddabdf2b0ce6933554a71e]
link InserirEstacionamentosController to Parque--><path codeLine="36" d="M145.969,202.036 C125.37,257.065 96.2929,356.36 115.5,440 C117.412,448.325 120.519,456.819 124.063,464.821 " fill="none" id="InserirEstacionamentosController-to-Parque" style="stroke:#A80036;stroke-width:1.0;stroke-dasharray:7.0,7.0;"/><polygon fill="#A80036" points="126.32,469.734,126.1974,459.8859,124.2326,465.1906,118.9279,463.2258,126.32,469.734" style="stroke:#A80036;stroke-width:1.0;"/><!--MD5=[4ab45715b48701652735422bad5ef05b]
link InserirEstacionamentosController to EstacionamentoDB--><path codeLine="37" d="M266.924,202.259 C295.647,217.927 324.858,238.096 346.5,263 C367.627,287.312 380.703,321.2 388.458,348.684 " fill="none" id="InserirEstacionamentosController-to-EstacionamentoDB" style="stroke:#A80036;stroke-width:1.0;stroke-dasharray:7.0,7.0;"/><polygon fill="#A80036" points="389.845,353.738,391.3211,344.0004,388.522,348.9162,383.6062,346.1171,389.845,353.738" style="stroke:#A80036;stroke-width:1.0;"/><!--MD5=[f117891f5ecaa8c44ea8c4e23636cbc2]
link InserirEstacionamentosController to Estacionamento--><path codeLine="38" d="M135.236,202.112 C91.2097,273.152 15.273,421.085 55.5,544 C64.1261,570.357 80.6278,595.757 97.3018,616.728 " fill="none" id="InserirEstacionamentosController-to-Estacionamento" style="stroke:#A80036;stroke-width:1.0;stroke-dasharray:7.0,7.0;"/><polygon fill="#A80036" points="100.6366,620.8623,98.1003,611.3456,97.4978,616.9703,91.8731,616.3677,100.6366,620.8623" style="stroke:#A80036;stroke-width:1.0;"/><!--MD5=[e5dbbc54f46538fc7b7077d28b1f914b]
link ParqueDB to Parque--><path codeLine="40" d="M164.456,324.021 C152.864,332.01 142.417,341.897 135.5,354 C116.3,387.596 122.939,432.385 132.169,464.63 " fill="none" id="ParqueDB-to-Parque" style="stroke:#A80036;stroke-width:1.0;"/><polygon fill="#A80036" points="133.669,469.694,134.9484,459.9286,132.249,464.8999,127.2778,462.2005,133.669,469.694" style="stroke:#A80036;stroke-width:1.0;"/><text fill="#000000" font-family="sans-serif" font-size="13" lengthAdjust="spacing" textLength="41" x="136.5" y="401.5669">possui</text><text fill="#000000" font-family="sans-serif" font-size="13" lengthAdjust="spacing" textLength="8" x="140.7719" y="343.9636">1</text><text fill="#000000" font-family="sans-serif" font-size="13" lengthAdjust="spacing" textLength="7" x="123.5819" y="458.8264">*</text><!--MD5=[3f261229c7309ba030e97986da9f3259]
link Parque to Estacionamento--><path codeLine="41" d="M147.5,544.244 C147.5,565.254 147.5,592.109 147.5,615.561 " fill="none" id="Parque-to-Estacionamento" style="stroke:#A80036;stroke-width:1.0;"/><polygon fill="#A80036" points="147.5,620.8197,151.5,611.8197,147.5,615.8197,143.5,611.8197,147.5,620.8197" style="stroke:#A80036;stroke-width:1.0;"/><text fill="#000000" font-family="sans-serif" font-size="13" lengthAdjust="spacing" textLength="26" x="148.5" y="587.0669">tem</text><text fill="#000000" font-family="sans-serif" font-size="13" lengthAdjust="spacing" textLength="8" x="138.8375" y="563.765">1</text><text fill="#000000" font-family="sans-serif" font-size="13" lengthAdjust="spacing" textLength="7" x="140.0078" y="609.8399">*</text><!--MD5=[b6dc8f9fc22080dad3f837ef42baa519]
link EstacionamentoDB to Estacionamento--><path codeLine="42" d="M359.557,440.124 C315.539,487.737 243.822,565.311 196.154,616.873 " fill="none" id="EstacionamentoDB-to-Estacionamento" style="stroke:#A80036;stroke-width:1.0;"/><polygon fill="#A80036" points="192.478,620.8486,201.5248,616.9555,195.8722,617.1772,195.6505,611.5247,192.478,620.8486" style="stroke:#A80036;stroke-width:1.0;"/><text fill="#000000" font-family="sans-serif" font-size="13" lengthAdjust="spacing" textLength="41" x="331.5" y="511.5669">possui</text><text fill="#000000" font-family="sans-serif" font-size="13" lengthAdjust="spacing" textLength="8" x="344.4446" y="460.5522">1</text><text fill="#000000" font-family="sans-serif" font-size="13" lengthAdjust="spacing" textLength="7" x="191.3108" y="609.873">*</text><!--MD5=[d493cded545ee333b0f379da116f1078]
@startuml
skinparam classAttributeIconSize 0

class Parque {
  -Integer numeroMaximo
  +getNumMax()
}

class Estacionamento {
  -Integer numeroLote
  -Integer carregador
  -Integer NIF
  +Estacionamento(numeroLote, carregador, NIF)
}

class ParqueDB {
  +getNumMaxParqueByNIF(NIF)
}

class EstacionamentoDB {
  +Estacionamento novoEstacionamento(numeroLote, carregador, NIF)
  +registaEstacionamento(estac)
  +validaEstacionamento(estac)
}

class InserirEstacionamentosController {
    +getNumMaxParqueByNIF(NIF)
    +novoEstacionamento(numeroLote, carregador, NIF)
    +registaEstacionamentos(lEstac)
}

class InserirEstacionamentosUI {
}

InserirEstacionamentosUI ..> InserirEstacionamentosController
InserirEstacionamentosController ..> ParqueDB
InserirEstacionamentosController ..> Parque
InserirEstacionamentosController ..> EstacionamentoDB
InserirEstacionamentosController ..> Estacionamento

ParqueDB "1" - -> "*" Parque : possui
Parque "1" - -> "*" Estacionamento : tem
EstacionamentoDB "1" - -> "*" Estacionamento : possui
@enduml

PlantUML version 1.2020.27beta8(Unknown compile time)
(GPL source distribution)
Java Runtime: Java(TM) SE Runtime Environment
JVM: Java HotSpot(TM) 64-Bit Server VM
Default Encoding: UTF-8
Language: en
Country: US
--></g></svg>