<?xml version="1.0" encoding="UTF-8" standalone="no"?><svg xmlns="http://www.w3.org/2000/svg" xmlns:xlink="http://www.w3.org/1999/xlink" contentScriptType="application/ecmascript" contentStyleType="text/css" height="910px" preserveAspectRatio="none" style="width:1017px;height:910px;" version="1.1" viewBox="0 0 1017 910" width="1017px" zoomAndPan="magnify"><defs><filter height="300%" id="fytf1t7r0k3dk" width="300%" x="-1" y="-1"><feGaussianBlur result="blurOut" stdDeviation="2.0"/><feColorMatrix in="blurOut" result="blurOut2" type="matrix" values="0 0 0 0 0 0 0 0 0 0 0 0 0 0 0 0 0 0 .4 0"/><feOffset dx="4.0" dy="4.0" in="blurOut2" result="blurOut3"/><feBlend in="SourceGraphic" in2="blurOut3" mode="normal"/></filter></defs><g><!--MD5=[6613c9cd406ef433ff06f5e98b28abd9]
class Farmacia--><rect codeLine="3" fill="#FEFECE" filter="url(#fytf1t7r0k3dk)" height="86.4141" id="Farmacia" style="stroke:#A80036;stroke-width:1.5;" width="96" x="359.0205" y="496"/><ellipse cx="378.5205" cy="512" fill="#ADD1B2" rx="11" ry="11" style="stroke:#A80036;stroke-width:1.0;"/><path d="M380.8642,507.6719 C379.9267,507.2344 379.333,507.0938 378.458,507.0938 C375.833,507.0938 373.833,509.1719 373.833,511.8906 L373.833,513.0156 C373.833,515.5938 375.9424,517.4844 378.833,517.4844 C380.0517,517.4844 381.208,517.1875 381.958,516.6406 C382.5361,516.2344 382.8642,515.7813 382.8642,515.3906 C382.8642,514.9375 382.4736,514.5469 382.0049,514.5469 C381.7861,514.5469 381.583,514.625 381.3955,514.8125 C380.9424,515.2969 380.9424,515.2969 380.7549,515.3906 C380.333,515.6563 379.6455,515.7813 378.8799,515.7813 C376.833,515.7813 375.5361,514.6875 375.5361,512.9844 L375.5361,511.8906 C375.5361,510.1094 376.7861,508.7969 378.5205,508.7969 C379.0986,508.7969 379.708,508.9531 380.1767,509.2031 C380.6611,509.4844 380.833,509.7031 380.9267,510.1094 C380.9892,510.5156 381.0205,510.6406 381.1611,510.7656 C381.3017,510.9063 381.5361,511.0156 381.7549,511.0156 C382.0205,511.0156 382.2861,510.875 382.458,510.6563 C382.5674,510.5 382.5986,510.3125 382.5986,509.8906 L382.5986,508.4688 C382.5986,508.0313 382.583,507.9063 382.4892,507.75 C382.333,507.4844 382.0517,507.3438 381.7549,507.3438 C381.458,507.3438 381.2549,507.4375 381.0361,507.75 L380.8642,507.6719 Z " fill="#000000"/><text fill="#000000" font-family="sans-serif" font-size="12" lengthAdjust="spacing" textLength="54" x="393.5205" y="516.1543">Farmacia</text><line style="stroke:#A80036;stroke-width:1.5;" x1="360.0205" x2="454.0205" y1="528" y2="528"/><text fill="#000000" font-family="sans-serif" font-size="11" lengthAdjust="spacing" textLength="63" x="365.0205" y="542.2104">-Integer nif</text><text fill="#000000" font-family="sans-serif" font-size="11" lengthAdjust="spacing" textLength="73" x="365.0205" y="555.0151">-String email</text><text fill="#000000" font-family="sans-serif" font-size="11" lengthAdjust="spacing" textLength="84" x="365.0205" y="567.8198">-String morada</text><line style="stroke:#A80036;stroke-width:1.5;" x1="360.0205" x2="454.0205" y1="574.4141" y2="574.4141"/><!--MD5=[1a083dbe42a284ae0ea7f6f701783206]
class Parque--><rect codeLine="9" fill="#FEFECE" filter="url(#fytf1t7r0k3dk)" height="60.8047" id="Parque" style="stroke:#A80036;stroke-width:1.5;" width="149" x="228.5205" y="659"/><ellipse cx="278.2705" cy="675" fill="#ADD1B2" rx="11" ry="11" style="stroke:#A80036;stroke-width:1.0;"/><path d="M280.6142,670.6719 C279.6767,670.2344 279.083,670.0938 278.208,670.0938 C275.583,670.0938 273.583,672.1719 273.583,674.8906 L273.583,676.0156 C273.583,678.5938 275.6924,680.4844 278.583,680.4844 C279.8017,680.4844 280.958,680.1875 281.708,679.6406 C282.2861,679.2344 282.6142,678.7813 282.6142,678.3906 C282.6142,677.9375 282.2236,677.5469 281.7549,677.5469 C281.5361,677.5469 281.333,677.625 281.1455,677.8125 C280.6924,678.2969 280.6924,678.2969 280.5049,678.3906 C280.083,678.6563 279.3955,678.7813 278.6299,678.7813 C276.583,678.7813 275.2861,677.6875 275.2861,675.9844 L275.2861,674.8906 C275.2861,673.1094 276.5361,671.7969 278.2705,671.7969 C278.8486,671.7969 279.458,671.9531 279.9267,672.2031 C280.4111,672.4844 280.583,672.7031 280.6767,673.1094 C280.7392,673.5156 280.7705,673.6406 280.9111,673.7656 C281.0517,673.9063 281.2861,674.0156 281.5049,674.0156 C281.7705,674.0156 282.0361,673.875 282.208,673.6563 C282.3174,673.5 282.3486,673.3125 282.3486,672.8906 L282.3486,671.4688 C282.3486,671.0313 282.333,670.9063 282.2392,670.75 C282.083,670.4844 281.8017,670.3438 281.5049,670.3438 C281.208,670.3438 281.0049,670.4375 280.7861,670.75 L280.6142,670.6719 Z " fill="#000000"/><text fill="#000000" font-family="sans-serif" font-size="12" lengthAdjust="spacing" textLength="41" x="298.7705" y="679.1543">Parque</text><line style="stroke:#A80036;stroke-width:1.5;" x1="229.5205" x2="376.5205" y1="691" y2="691"/><text fill="#000000" font-family="sans-serif" font-size="11" lengthAdjust="spacing" textLength="137" x="234.5205" y="705.2104">-Integer numeroMaximo</text><line style="stroke:#A80036;stroke-width:1.5;" x1="229.5205" x2="376.5205" y1="711.8047" y2="711.8047"/><!--MD5=[d6f7ff8a01a1f4d455865514bc16ec87]
class Estacionamento--><rect codeLine="13" fill="#FEFECE" filter="url(#fytf1t7r0k3dk)" height="99.2188" id="Estacionamento" style="stroke:#A80036;stroke-width:1.5;" width="313" x="387.5205" y="797"/><ellipse cx="492.2705" cy="813" fill="#ADD1B2" rx="11" ry="11" style="stroke:#A80036;stroke-width:1.0;"/><path d="M494.6142,808.6719 C493.6767,808.2344 493.083,808.0938 492.208,808.0938 C489.583,808.0938 487.583,810.1719 487.583,812.8906 L487.583,814.0156 C487.583,816.5938 489.6924,818.4844 492.583,818.4844 C493.8017,818.4844 494.958,818.1875 495.708,817.6406 C496.2861,817.2344 496.6142,816.7813 496.6142,816.3906 C496.6142,815.9375 496.2236,815.5469 495.7549,815.5469 C495.5361,815.5469 495.333,815.625 495.1455,815.8125 C494.6924,816.2969 494.6924,816.2969 494.5049,816.3906 C494.083,816.6563 493.3955,816.7813 492.6299,816.7813 C490.583,816.7813 489.2861,815.6875 489.2861,813.9844 L489.2861,812.8906 C489.2861,811.1094 490.5361,809.7969 492.2705,809.7969 C492.8486,809.7969 493.458,809.9531 493.9267,810.2031 C494.4111,810.4844 494.583,810.7031 494.6767,811.1094 C494.7392,811.5156 494.7705,811.6406 494.9111,811.7656 C495.0517,811.9063 495.2861,812.0156 495.5049,812.0156 C495.7705,812.0156 496.0361,811.875 496.208,811.6563 C496.3174,811.5 496.3486,811.3125 496.3486,810.8906 L496.3486,809.4688 C496.3486,809.0313 496.333,808.9063 496.2392,808.75 C496.083,808.4844 495.8017,808.3438 495.5049,808.3438 C495.208,808.3438 495.0049,808.4375 494.7861,808.75 L494.6142,808.6719 Z " fill="#000000"/><text fill="#000000" font-family="sans-serif" font-size="12" lengthAdjust="spacing" textLength="95" x="512.7705" y="817.1543">Estacionamento</text><line style="stroke:#A80036;stroke-width:1.5;" x1="388.5205" x2="699.5205" y1="829" y2="829"/><text fill="#000000" font-family="sans-serif" font-size="11" lengthAdjust="spacing" textLength="118" x="393.5205" y="843.2104">-Integer numeroLote</text><text fill="#000000" font-family="sans-serif" font-size="11" lengthAdjust="spacing" textLength="110" x="393.5205" y="856.0151">-Integer carregador</text><text fill="#000000" font-family="sans-serif" font-size="11" lengthAdjust="spacing" textLength="98" x="393.5205" y="868.8198">-Integer idParque</text><line style="stroke:#A80036;stroke-width:1.5;" x1="388.5205" x2="699.5205" y1="875.4141" y2="875.4141"/><text fill="#000000" font-family="sans-serif" font-size="11" lengthAdjust="spacing" textLength="301" x="393.5205" y="889.6245">+Estacionamento(numeroLote, carregador, idParque)</text><!--MD5=[364aec0fc02518cb9ab31cd04b585b1a]
class FarmaciaDB--><rect codeLine="20" fill="#FEFECE" filter="url(#fytf1t7r0k3dk)" height="60.8047" id="FarmaciaDB" style="stroke:#A80036;stroke-width:1.5;" width="145" x="274.5205" y="289"/><ellipse cx="308.4205" cy="305" fill="#ADD1B2" rx="11" ry="11" style="stroke:#A80036;stroke-width:1.0;"/><path d="M310.7642,300.6719 C309.8267,300.2344 309.233,300.0938 308.358,300.0938 C305.733,300.0938 303.733,302.1719 303.733,304.8906 L303.733,306.0156 C303.733,308.5938 305.8424,310.4844 308.733,310.4844 C309.9517,310.4844 311.108,310.1875 311.858,309.6406 C312.4361,309.2344 312.7642,308.7813 312.7642,308.3906 C312.7642,307.9375 312.3736,307.5469 311.9049,307.5469 C311.6861,307.5469 311.483,307.625 311.2955,307.8125 C310.8424,308.2969 310.8424,308.2969 310.6549,308.3906 C310.233,308.6563 309.5455,308.7813 308.7799,308.7813 C306.733,308.7813 305.4361,307.6875 305.4361,305.9844 L305.4361,304.8906 C305.4361,303.1094 306.6861,301.7969 308.4205,301.7969 C308.9986,301.7969 309.608,301.9531 310.0767,302.2031 C310.5611,302.4844 310.733,302.7031 310.8267,303.1094 C310.8892,303.5156 310.9205,303.6406 311.0611,303.7656 C311.2017,303.9063 311.4361,304.0156 311.6549,304.0156 C311.9205,304.0156 312.1861,303.875 312.358,303.6563 C312.4674,303.5 312.4986,303.3125 312.4986,302.8906 L312.4986,301.4688 C312.4986,301.0313 312.483,300.9063 312.3892,300.75 C312.233,300.4844 311.9517,300.3438 311.6549,300.3438 C311.358,300.3438 311.1549,300.4375 310.9361,300.75 L310.7642,300.6719 Z " fill="#000000"/><text fill="#000000" font-family="sans-serif" font-size="12" lengthAdjust="spacing" textLength="71" x="326.6205" y="309.1543">FarmaciaDB</text><line style="stroke:#A80036;stroke-width:1.5;" x1="275.5205" x2="418.5205" y1="321" y2="321"/><line style="stroke:#A80036;stroke-width:1.5;" x1="275.5205" x2="418.5205" y1="329" y2="329"/><text fill="#000000" font-family="sans-serif" font-size="11" lengthAdjust="spacing" textLength="133" x="280.5205" y="343.2104">+getFarmaciaByNIF(nif)</text><!--MD5=[021650fd5270df78a3629eada2205323]
class ParqueDB--><rect codeLine="24" fill="#FEFECE" filter="url(#fytf1t7r0k3dk)" height="73.6094" id="ParqueDB" style="stroke:#A80036;stroke-width:1.5;" width="297" x="69.5203" y="386"/><ellipse cx="184.7703" cy="402" fill="#ADD1B2" rx="11" ry="11" style="stroke:#A80036;stroke-width:1.0;"/><path d="M187.1141,397.6719 C186.1766,397.2344 185.5828,397.0938 184.7078,397.0938 C182.0828,397.0938 180.0828,399.1719 180.0828,401.8906 L180.0828,403.0156 C180.0828,405.5938 182.1922,407.4844 185.0828,407.4844 C186.3016,407.4844 187.4578,407.1875 188.2078,406.6406 C188.7859,406.2344 189.1141,405.7813 189.1141,405.3906 C189.1141,404.9375 188.7234,404.5469 188.2547,404.5469 C188.0359,404.5469 187.8328,404.625 187.6453,404.8125 C187.1922,405.2969 187.1922,405.2969 187.0047,405.3906 C186.5828,405.6563 185.8953,405.7813 185.1297,405.7813 C183.0828,405.7813 181.7859,404.6875 181.7859,402.9844 L181.7859,401.8906 C181.7859,400.1094 183.0359,398.7969 184.7703,398.7969 C185.3484,398.7969 185.9578,398.9531 186.4266,399.2031 C186.9109,399.4844 187.0828,399.7031 187.1766,400.1094 C187.2391,400.5156 187.2703,400.6406 187.4109,400.7656 C187.5516,400.9063 187.7859,401.0156 188.0047,401.0156 C188.2703,401.0156 188.5359,400.875 188.7078,400.6563 C188.8172,400.5 188.8484,400.3125 188.8484,399.8906 L188.8484,398.4688 C188.8484,398.0313 188.8328,397.9063 188.7391,397.75 C188.5828,397.4844 188.3016,397.3438 188.0047,397.3438 C187.7078,397.3438 187.5047,397.4375 187.2859,397.75 L187.1141,397.6719 Z " fill="#000000"/><text fill="#000000" font-family="sans-serif" font-size="12" lengthAdjust="spacing" textLength="58" x="205.2703" y="406.1543">ParqueDB</text><line style="stroke:#A80036;stroke-width:1.5;" x1="70.5203" x2="365.5203" y1="418" y2="418"/><line style="stroke:#A80036;stroke-width:1.5;" x1="70.5203" x2="365.5203" y1="426" y2="426"/><text fill="#000000" font-family="sans-serif" font-size="11" lengthAdjust="spacing" textLength="192" x="75.5203" y="440.2104">+getLstParquesByFarmaciaNif(nif)</text><text fill="#000000" font-family="sans-serif" font-size="11" lengthAdjust="spacing" textLength="285" x="75.5203" y="453.0151">+getNumMaxByFarmaciaNifParqueId(nif, idParque)</text><!--MD5=[67caa5cdd3931e42111d92995d697358]
class EstacionamentoDB--><rect codeLine="29" fill="#FEFECE" filter="url(#fytf1t7r0k3dk)" height="86.4141" id="EstacionamentoDB" style="stroke:#A80036;stroke-width:1.5;" width="436" x="567.0205" y="380"/><ellipse cx="724.7705" cy="396" fill="#ADD1B2" rx="11" ry="11" style="stroke:#A80036;stroke-width:1.0;"/><path d="M727.1143,391.6719 C726.1768,391.2344 725.583,391.0938 724.708,391.0938 C722.083,391.0938 720.083,393.1719 720.083,395.8906 L720.083,397.0156 C720.083,399.5938 722.1924,401.4844 725.083,401.4844 C726.3018,401.4844 727.458,401.1875 728.208,400.6406 C728.7861,400.2344 729.1143,399.7813 729.1143,399.3906 C729.1143,398.9375 728.7236,398.5469 728.2549,398.5469 C728.0361,398.5469 727.833,398.625 727.6455,398.8125 C727.1924,399.2969 727.1924,399.2969 727.0049,399.3906 C726.583,399.6563 725.8955,399.7813 725.1299,399.7813 C723.083,399.7813 721.7861,398.6875 721.7861,396.9844 L721.7861,395.8906 C721.7861,394.1094 723.0361,392.7969 724.7705,392.7969 C725.3486,392.7969 725.958,392.9531 726.4268,393.2031 C726.9111,393.4844 727.083,393.7031 727.1768,394.1094 C727.2393,394.5156 727.2705,394.6406 727.4111,394.7656 C727.5518,394.9063 727.7861,395.0156 728.0049,395.0156 C728.2705,395.0156 728.5361,394.875 728.708,394.6563 C728.8174,394.5 728.8486,394.3125 728.8486,393.8906 L728.8486,392.4688 C728.8486,392.0313 728.833,391.9063 728.7393,391.75 C728.583,391.4844 728.3018,391.3438 728.0049,391.3438 C727.708,391.3438 727.5049,391.4375 727.2861,391.75 L727.1143,391.6719 Z " fill="#000000"/><text fill="#000000" font-family="sans-serif" font-size="12" lengthAdjust="spacing" textLength="112" x="745.2705" y="400.1543">EstacionamentoDB</text><line style="stroke:#A80036;stroke-width:1.5;" x1="568.0205" x2="1002.0205" y1="412" y2="412"/><line style="stroke:#A80036;stroke-width:1.5;" x1="568.0205" x2="1002.0205" y1="420" y2="420"/><text fill="#000000" font-family="sans-serif" font-size="11" lengthAdjust="spacing" textLength="424" x="573.0205" y="434.2104">+Estacionamento novoEstacionamento(numeroLote, carregador, idParque)</text><text fill="#000000" font-family="sans-serif" font-size="11" lengthAdjust="spacing" textLength="178" x="573.0205" y="447.0151">+registaEstacionamento(estac)</text><text fill="#000000" font-family="sans-serif" font-size="11" lengthAdjust="spacing" textLength="173" x="573.0205" y="459.8198">+validaEstacionamento(estac)</text><!--MD5=[9c16e9b92917ab2a8af978968f613c8b]
class InserirEstacionamentosController--><rect codeLine="35" fill="#FEFECE" filter="url(#fytf1t7r0k3dk)" height="112.0234" id="InserirEstacionamentosController" style="stroke:#A80036;stroke-width:1.5;" width="341" x="260.5205" y="116"/><ellipse cx="327.2705" cy="132" fill="#ADD1B2" rx="11" ry="11" style="stroke:#A80036;stroke-width:1.0;"/><path d="M329.6142,127.6719 C328.6767,127.2344 328.083,127.0938 327.208,127.0938 C324.583,127.0938 322.583,129.1719 322.583,131.8906 L322.583,133.0156 C322.583,135.5938 324.6924,137.4844 327.583,137.4844 C328.8017,137.4844 329.958,137.1875 330.708,136.6406 C331.2861,136.2344 331.6142,135.7813 331.6142,135.3906 C331.6142,134.9375 331.2236,134.5469 330.7549,134.5469 C330.5361,134.5469 330.333,134.625 330.1455,134.8125 C329.6924,135.2969 329.6924,135.2969 329.5049,135.3906 C329.083,135.6563 328.3955,135.7813 327.6299,135.7813 C325.583,135.7813 324.2861,134.6875 324.2861,132.9844 L324.2861,131.8906 C324.2861,130.1094 325.5361,128.7969 327.2705,128.7969 C327.8486,128.7969 328.458,128.9531 328.9267,129.2031 C329.4111,129.4844 329.583,129.7031 329.6767,130.1094 C329.7392,130.5156 329.7705,130.6406 329.9111,130.7656 C330.0517,130.9063 330.2861,131.0156 330.5049,131.0156 C330.7705,131.0156 331.0361,130.875 331.208,130.6563 C331.3174,130.5 331.3486,130.3125 331.3486,129.8906 L331.3486,128.4688 C331.3486,128.0313 331.333,127.9063 331.2392,127.75 C331.083,127.4844 330.8017,127.3438 330.5049,127.3438 C330.208,127.3438 330.0049,127.4375 329.7861,127.75 L329.6142,127.6719 Z " fill="#000000"/><text fill="#000000" font-family="sans-serif" font-size="12" lengthAdjust="spacing" textLength="199" x="347.7705" y="136.1543">InserirEstacionamentosController</text><line style="stroke:#A80036;stroke-width:1.5;" x1="261.5205" x2="600.5205" y1="148" y2="148"/><line style="stroke:#A80036;stroke-width:1.5;" x1="261.5205" x2="600.5205" y1="156" y2="156"/><text fill="#000000" font-family="sans-serif" font-size="11" lengthAdjust="spacing" textLength="133" x="266.5205" y="170.2104">+getFarmaciaByNIF(nif)</text><text fill="#000000" font-family="sans-serif" font-size="11" lengthAdjust="spacing" textLength="202" x="266.5205" y="183.0151">+getListaParquesByFarmaciaNif(nif)</text><text fill="#000000" font-family="sans-serif" font-size="11" lengthAdjust="spacing" textLength="285" x="266.5205" y="195.8198">+getNumMaxByFarmaciaNifParqueId(nif, idParque)</text><text fill="#000000" font-family="sans-serif" font-size="11" lengthAdjust="spacing" textLength="329" x="266.5205" y="208.6245">+novoEstacionamento(numeroLote, carregador, idParque)</text><text fill="#000000" font-family="sans-serif" font-size="11" lengthAdjust="spacing" textLength="186" x="266.5205" y="221.4292">+registaEstacionamentos(lEstac)</text><!--MD5=[964b8215c4b7eb2c036f528cdffb241a]
class InserirEstacionamentosUI--><rect codeLine="43" fill="#FEFECE" filter="url(#fytf1t7r0k3dk)" height="48" id="InserirEstacionamentosUI" style="stroke:#A80036;stroke-width:1.5;" width="184" x="339.0205" y="7"/><ellipse cx="354.0205" cy="23" fill="#ADD1B2" rx="11" ry="11" style="stroke:#A80036;stroke-width:1.0;"/><path d="M356.3642,18.6719 C355.4267,18.2344 354.833,18.0938 353.958,18.0938 C351.333,18.0938 349.333,20.1719 349.333,22.8906 L349.333,24.0156 C349.333,26.5938 351.4424,28.4844 354.333,28.4844 C355.5517,28.4844 356.708,28.1875 357.458,27.6406 C358.0361,27.2344 358.3642,26.7813 358.3642,26.3906 C358.3642,25.9375 357.9736,25.5469 357.5049,25.5469 C357.2861,25.5469 357.083,25.625 356.8955,25.8125 C356.4424,26.2969 356.4424,26.2969 356.2549,26.3906 C355.833,26.6563 355.1455,26.7813 354.3799,26.7813 C352.333,26.7813 351.0361,25.6875 351.0361,23.9844 L351.0361,22.8906 C351.0361,21.1094 352.2861,19.7969 354.0205,19.7969 C354.5986,19.7969 355.208,19.9531 355.6767,20.2031 C356.1611,20.4844 356.333,20.7031 356.4267,21.1094 C356.4892,21.5156 356.5205,21.6406 356.6611,21.7656 C356.8017,21.9063 357.0361,22.0156 357.2549,22.0156 C357.5205,22.0156 357.7861,21.875 357.958,21.6563 C358.0674,21.5 358.0986,21.3125 358.0986,20.8906 L358.0986,19.4688 C358.0986,19.0313 358.083,18.9063 357.9892,18.75 C357.833,18.4844 357.5517,18.3438 357.2549,18.3438 C356.958,18.3438 356.7549,18.4375 356.5361,18.75 L356.3642,18.6719 Z " fill="#000000"/><text fill="#000000" font-family="sans-serif" font-size="12" lengthAdjust="spacing" textLength="152" x="368.0205" y="27.1543">InserirEstacionamentosUI</text><line style="stroke:#A80036;stroke-width:1.5;" x1="340.0205" x2="522.0205" y1="39" y2="39"/><line style="stroke:#A80036;stroke-width:1.5;" x1="340.0205" x2="522.0205" y1="47" y2="47"/><!--MD5=[be5b0d7457389e975a960bfedff56805]
link InserirEstacionamentosUI to InserirEstacionamentosController--><path codeLine="46" d="M431.0205,55.265 C431.0205,70.448 431.0205,91.017 431.0205,110.605 " fill="none" id="InserirEstacionamentosUI-to-InserirEstacionamentosController" style="stroke:#A80036;stroke-width:1.0;stroke-dasharray:7.0,7.0;"/><polygon fill="#A80036" points="431.0205,115.828,435.0205,106.828,431.0205,110.828,427.0205,106.828,431.0205,115.828" style="stroke:#A80036;stroke-width:1.0;"/><!--MD5=[76bbfb8fa90baf11c51b343749abfa06]
link InserirEstacionamentosController to FarmaciaDB--><path codeLine="47" d="M399.2635,228.007 C388.3915,246.838 376.5455,267.359 366.8855,284.091 " fill="none" id="InserirEstacionamentosController-to-FarmaciaDB" style="stroke:#A80036;stroke-width:1.0;stroke-dasharray:7.0,7.0;"/><polygon fill="#A80036" points="364.2215,288.705,372.1857,282.9109,366.7216,284.3749,365.2575,278.9108,364.2215,288.705" style="stroke:#A80036;stroke-width:1.0;"/><!--MD5=[db1ea3b1b3ff3f051b59450f0b94f900]
link InserirEstacionamentosController to Farmacia--><path codeLine="48" d="M441.5595,228.076 C450.9955,287.576 460.7175,384.769 442.0205,466 C440.1095,474.3 437.1085,482.752 433.6475,490.808 " fill="none" id="InserirEstacionamentosController-to-Farmacia" style="stroke:#A80036;stroke-width:1.0;stroke-dasharray:7.0,7.0;"/><polygon fill="#A80036" points="431.4395,495.768,438.7554,489.1742,433.4739,491.2006,431.4475,485.9191,431.4395,495.768" style="stroke:#A80036;stroke-width:1.0;"/><!--MD5=[84dda13e7be9a23fc5c2b11d0d0a5e1f]
link InserirEstacionamentosController to ParqueDB--><path codeLine="49" d="M322.6785,228.295 C298.2575,244.995 274.4415,265.307 257.0205,289 C237.2275,315.919 227.4315,352.766 222.6115,380.85 " fill="none" id="InserirEstacionamentosController-to-ParqueDB" style="stroke:#A80036;stroke-width:1.0;stroke-dasharray:7.0,7.0;"/><polygon fill="#A80036" points="221.7685,385.988,227.1736,377.7548,222.5784,381.054,219.2792,376.4589,221.7685,385.988" style="stroke:#A80036;stroke-width:1.0;"/><!--MD5=[6aacb0eebbddabdf2b0ce6933554a71e]
link InserirEstacionamentosController to Parque--><path codeLine="50" d="M260.0705,226.058 C187.1585,258.193 109.4592,307.38 68.0203,380 C6,488.687 157.9075,602.169 245.8005,656.193 " fill="none" id="InserirEstacionamentosController-to-Parque" style="stroke:#A80036;stroke-width:1.0;stroke-dasharray:7.0,7.0;"/><polygon fill="#A80036" points="250.1965,658.878,244.602,650.7724,245.9298,656.2712,240.431,657.599,250.1965,658.878" style="stroke:#A80036;stroke-width:1.0;"/><!--MD5=[4ab45715b48701652735422bad5ef05b]
link InserirEstacionamentosController to EstacionamentoDB--><path codeLine="51" d="M524.2065,228.159 C539.6815,237.838 555.4315,248.014 570.0205,258 C625.3755,295.89 685.9195,342.577 728.6135,376.435 " fill="none" id="InserirEstacionamentosController-to-EstacionamentoDB" style="stroke:#A80036;stroke-width:1.0;stroke-dasharray:7.0,7.0;"/><polygon fill="#A80036" points="732.6885,379.671,728.1287,370.9413,728.7732,376.5613,723.1532,377.2058,732.6885,379.671" style="stroke:#A80036;stroke-width:1.0;"/><!--MD5=[f117891f5ecaa8c44ea8c4e23636cbc2]
link InserirEstacionamentosController to Estacionamento--><path codeLine="52" d="M500.6545,228.027 C523.9085,252.664 544.0205,283.958 544.0205,318.5 C544.0205,318.5 544.0205,318.5 544.0205,690.5 C544.0205,724.205 544.0205,762.034 544.0205,791.882 " fill="none" id="InserirEstacionamentosController-to-Estacionamento" style="stroke:#A80036;stroke-width:1.0;stroke-dasharray:7.0,7.0;"/><polygon fill="#A80036" points="544.0205,796.9796,548.0205,787.9796,544.0205,791.9796,540.0205,787.9796,544.0205,796.9796" style="stroke:#A80036;stroke-width:1.0;"/><!--MD5=[3c539b0dd2212e8322efef71ee8cdfc2]
link FarmaciaDB to Farmacia--><path codeLine="54" d="M358.1685,350.277 C361.5315,359.718 365.1005,370.24 368.0205,380 C379.0495,416.871 389.3825,459.237 396.6385,490.812 " fill="none" id="FarmaciaDB-to-Farmacia" style="stroke:#A80036;stroke-width:1.0;"/><polygon fill="#A80036" points="397.7765,495.784,399.6702,486.1189,396.6622,490.9097,391.8714,487.9018,397.7765,495.784" style="stroke:#A80036;stroke-width:1.0;"/><text fill="#000000" font-family="sans-serif" font-size="13" lengthAdjust="spacing" textLength="41" x="392.0205" y="427.5669">possui</text><text fill="#000000" font-family="sans-serif" font-size="13" lengthAdjust="spacing" textLength="8" x="351.5758" y="369.912">1</text><text fill="#000000" font-family="sans-serif" font-size="13" lengthAdjust="spacing" textLength="7" x="388.8251" y="485.0635">*</text><!--MD5=[4f96609c99ecadb81dc825d0ae539cef]
link Farmacia to Parque--><path codeLine="55" d="M377.4965,582.157 C361.3945,605.148 341.7325,633.223 326.6555,654.752 " fill="none" id="Farmacia-to-Parque" style="stroke:#A80036;stroke-width:1.0;"/><polygon fill="#A80036" points="323.7035,658.967,332.1417,653.888,326.5709,654.8709,325.588,649.3001,323.7035,658.967" style="stroke:#A80036;stroke-width:1.0;"/><text fill="#000000" font-family="sans-serif" font-size="13" lengthAdjust="spacing" textLength="41" x="356.0205" y="625.0669">possui</text><text fill="#000000" font-family="sans-serif" font-size="13" lengthAdjust="spacing" textLength="8" x="363.9441" y="602.5907">1</text><text fill="#000000" font-family="sans-serif" font-size="13" lengthAdjust="spacing" textLength="7" x="320.4623" y="647.7501">*</text><!--MD5=[e5dbbc54f46538fc7b7077d28b1f914b]
link ParqueDB to Parque--><path codeLine="56" d="M229.6605,460.223 C246.0575,511.244 275.7485,603.637 291.8735,653.813 " fill="none" id="ParqueDB-to-Parque" style="stroke:#A80036;stroke-width:1.0;"/><polygon fill="#A80036" points="293.4855,658.83,294.5395,649.0377,291.9555,654.0699,286.9233,651.4858,293.4855,658.83" style="stroke:#A80036;stroke-width:1.0;"/><text fill="#000000" font-family="sans-serif" font-size="13" lengthAdjust="spacing" textLength="41" x="269.0205" y="543.5669">possui</text><text fill="#000000" font-family="sans-serif" font-size="13" lengthAdjust="spacing" textLength="8" x="222.9259" y="479.7405">1</text><text fill="#000000" font-family="sans-serif" font-size="13" lengthAdjust="spacing" textLength="7" x="283.797" y="648.0582">*</text><!--MD5=[3f261229c7309ba030e97986da9f3259]
link Parque to Estacionamento--><path codeLine="57" d="M348.9175,720.019 C381.3335,740.867 425.6225,769.352 463.8115,793.913 " fill="none" id="Parque-to-Estacionamento" style="stroke:#A80036;stroke-width:1.0;"/><polygon fill="#A80036" points="468.4365,796.8881,463.031,788.6552,464.2313,794.1832,458.7033,795.3835,468.4365,796.8881" style="stroke:#A80036;stroke-width:1.0;"/><text fill="#000000" font-family="sans-serif" font-size="13" lengthAdjust="spacing" textLength="26" x="418.0205" y="763.0669">tem</text><text fill="#000000" font-family="sans-serif" font-size="13" lengthAdjust="spacing" textLength="8" x="349.5588" y="739.9612">1</text><text fill="#000000" font-family="sans-serif" font-size="13" lengthAdjust="spacing" textLength="7" x="450.3153" y="785.9175">*</text><!--MD5=[b6dc8f9fc22080dad3f837ef42baa519]
link EstacionamentoDB to Estacionamento--><path codeLine="58" d="M760.8085,466.345 C716.5995,543.665 622.9085,707.527 574.4585,792.264 " fill="none" id="EstacionamentoDB-to-Estacionamento" style="stroke:#A80036;stroke-width:1.0;"/><polygon fill="#A80036" points="571.9015,796.736,579.8403,790.9072,574.3827,792.395,572.8948,786.9374,571.9015,796.736" style="stroke:#A80036;stroke-width:1.0;"/><text fill="#000000" font-family="sans-serif" font-size="13" lengthAdjust="spacing" textLength="41" x="676.0205" y="625.0669">possui</text><text fill="#000000" font-family="sans-serif" font-size="13" lengthAdjust="spacing" textLength="8" x="748.3122" y="486.4929">1</text><text fill="#000000" font-family="sans-serif" font-size="13" lengthAdjust="spacing" textLength="7" x="568.1777" y="786.1023">*</text><!--MD5=[e03774b26623999de3508d459de456ee]
@startuml
skinparam classAttributeIconSize 0

class Farmacia {
  - Integer nif
  - String email
  - String morada
}

class Parque {
  -Integer numeroMaximo
}

class Estacionamento {
  -Integer numeroLote
  -Integer carregador
  -Integer idParque
  +Estacionamento(numeroLote, carregador, idParque)
}

class FarmaciaDB {
  +getFarmaciaByNIF(nif)
}

class ParqueDB {
  +getLstParquesByFarmaciaNif(nif)
  +getNumMaxByFarmaciaNifParqueId(nif, idParque)
}

class EstacionamentoDB {
  +Estacionamento novoEstacionamento(numeroLote, carregador, idParque)
  +registaEstacionamento(estac)
  +validaEstacionamento(estac)
}

class InserirEstacionamentosController {
    +getFarmaciaByNIF(nif)
    +getListaParquesByFarmaciaNif(nif)
    +getNumMaxByFarmaciaNifParqueId(nif, idParque)
    +novoEstacionamento(numeroLote, carregador, idParque)
    +registaEstacionamentos(lEstac)
}

class InserirEstacionamentosUI {
}

InserirEstacionamentosUI ..> InserirEstacionamentosController
InserirEstacionamentosController ..> FarmaciaDB
InserirEstacionamentosController ..> Farmacia
InserirEstacionamentosController ..> ParqueDB
InserirEstacionamentosController ..> Parque
InserirEstacionamentosController ..> EstacionamentoDB
InserirEstacionamentosController ..> Estacionamento

FarmaciaDB "1" - -> "*" Farmacia : possui
Farmacia "1" - -> "*" Parque : possui
ParqueDB "1" - -> "*" Parque : possui
Parque "1" - -> "*" Estacionamento : tem
EstacionamentoDB "1" - -> "*" Estacionamento : possui
@enduml

PlantUML version 1.2021.01beta3(Unknown compile time)
(GPL source distribution)
Java Runtime: Java(TM) SE Runtime Environment
JVM: Java HotSpot(TM) 64-Bit Server VM
Default Encoding: UTF-8
Language: en
Country: US
--></g></svg>