<?xml version="1.0" encoding="UTF-8" standalone="no"?><svg xmlns="http://www.w3.org/2000/svg" xmlns:xlink="http://www.w3.org/1999/xlink" contentScriptType="application/ecmascript" contentStyleType="text/css" height="276px" preserveAspectRatio="none" style="width:965px;height:276px;" version="1.1" viewBox="0 0 965 276" width="965px" zoomAndPan="magnify"><defs><filter height="300%" id="fasdh22zb2net" width="300%" x="-1" y="-1"><feGaussianBlur result="blurOut" stdDeviation="2.0"/><feColorMatrix in="blurOut" result="blurOut2" type="matrix" values="0 0 0 0 0 0 0 0 0 0 0 0 0 0 0 0 0 0 .4 0"/><feOffset dx="4.0" dy="4.0" in="blurOut2" result="blurOut3"/><feBlend in="SourceGraphic" in2="blurOut3" mode="normal"/></filter></defs><g><!--MD5=[6613c9cd406ef433ff06f5e98b28abd9]
class Farmacia--><rect codeLine="5" fill="#FEFECE" filter="url(#fasdh22zb2net)" height="52.8047" id="Farmacia" style="stroke:#A80036;stroke-width:1.5;" width="86" x="7" y="107.5"/><ellipse cx="22" cy="123.5" fill="#ADD1B2" rx="11" ry="11" style="stroke:#A80036;stroke-width:1.0;"/><path d="M24.3438,119.1719 C23.4063,118.7344 22.8125,118.5938 21.9375,118.5938 C19.3125,118.5938 17.3125,120.6719 17.3125,123.3906 L17.3125,124.5156 C17.3125,127.0938 19.4219,128.9844 22.3125,128.9844 C23.5313,128.9844 24.6875,128.6875 25.4375,128.1406 C26.0156,127.7344 26.3438,127.2813 26.3438,126.8906 C26.3438,126.4375 25.9531,126.0469 25.4844,126.0469 C25.2656,126.0469 25.0625,126.125 24.875,126.3125 C24.4219,126.7969 24.4219,126.7969 24.2344,126.8906 C23.8125,127.1563 23.125,127.2813 22.3594,127.2813 C20.3125,127.2813 19.0156,126.1875 19.0156,124.4844 L19.0156,123.3906 C19.0156,121.6094 20.2656,120.2969 22,120.2969 C22.5781,120.2969 23.1875,120.4531 23.6563,120.7031 C24.1406,120.9844 24.3125,121.2031 24.4063,121.6094 C24.4688,122.0156 24.5,122.1406 24.6406,122.2656 C24.7813,122.4063 25.0156,122.5156 25.2344,122.5156 C25.5,122.5156 25.7656,122.375 25.9375,122.1563 C26.0469,122 26.0781,121.8125 26.0781,121.3906 L26.0781,119.9688 C26.0781,119.5313 26.0625,119.4063 25.9688,119.25 C25.8125,118.9844 25.5313,118.8438 25.2344,118.8438 C24.9375,118.8438 24.7344,118.9375 24.5156,119.25 L24.3438,119.1719 Z " fill="#000000"/><text fill="#000000" font-family="sans-serif" font-size="12" lengthAdjust="spacing" textLength="54" x="36" y="127.6543">Farmacia</text><line style="stroke:#A80036;stroke-width:1.5;" x1="8" x2="92" y1="139.5" y2="139.5"/><text fill="#000000" font-family="sans-serif" font-size="11" lengthAdjust="spacing" textLength="21" x="13" y="153.7104">-NIF</text><!--MD5=[5dd1d6732c071e710b9290b531f2fa3b]
class Utilizador--><rect codeLine="9" fill="#FEFECE" filter="url(#fasdh22zb2net)" height="104.0234" id="Utilizador" style="stroke:#A80036;stroke-width:1.5;" width="155" x="568" y="7"/><ellipse cx="612.75" cy="23" fill="#ADD1B2" rx="11" ry="11" style="stroke:#A80036;stroke-width:1.0;"/><path d="M615.0938,18.6719 C614.1563,18.2344 613.5625,18.0938 612.6875,18.0938 C610.0625,18.0938 608.0625,20.1719 608.0625,22.8906 L608.0625,24.0156 C608.0625,26.5938 610.1719,28.4844 613.0625,28.4844 C614.2813,28.4844 615.4375,28.1875 616.1875,27.6406 C616.7656,27.2344 617.0938,26.7813 617.0938,26.3906 C617.0938,25.9375 616.7031,25.5469 616.2344,25.5469 C616.0156,25.5469 615.8125,25.625 615.625,25.8125 C615.1719,26.2969 615.1719,26.2969 614.9844,26.3906 C614.5625,26.6563 613.875,26.7813 613.1094,26.7813 C611.0625,26.7813 609.7656,25.6875 609.7656,23.9844 L609.7656,22.8906 C609.7656,21.1094 611.0156,19.7969 612.75,19.7969 C613.3281,19.7969 613.9375,19.9531 614.4063,20.2031 C614.8906,20.4844 615.0625,20.7031 615.1563,21.1094 C615.2188,21.5156 615.25,21.6406 615.3906,21.7656 C615.5313,21.9063 615.7656,22.0156 615.9844,22.0156 C616.25,22.0156 616.5156,21.875 616.6875,21.6563 C616.7969,21.5 616.8281,21.3125 616.8281,20.8906 L616.8281,19.4688 C616.8281,19.0313 616.8125,18.9063 616.7188,18.75 C616.5625,18.4844 616.2813,18.3438 615.9844,18.3438 C615.6875,18.3438 615.4844,18.4375 615.2656,18.75 L615.0938,18.6719 Z " fill="#000000"/><text fill="#000000" font-family="sans-serif" font-size="12" lengthAdjust="spacing" textLength="57" x="633.25" y="27.1543">Utilizador</text><line style="stroke:#A80036;stroke-width:1.5;" x1="569" x2="722" y1="39" y2="39"/><text fill="#000000" font-family="sans-serif" font-size="11" lengthAdjust="spacing" textLength="21" x="574" y="53.2104">-NIF</text><text fill="#000000" font-family="sans-serif" font-size="11" lengthAdjust="spacing" textLength="37" x="574" y="66.0151">-nome</text><text fill="#000000" font-family="sans-serif" font-size="11" lengthAdjust="spacing" textLength="36" x="574" y="78.8198">-email</text><text fill="#000000" font-family="sans-serif" font-size="11" lengthAdjust="spacing" textLength="143" x="574" y="91.6245">-numeroSegurancaSocial</text><text fill="#000000" font-family="sans-serif" font-size="11" lengthAdjust="spacing" textLength="57" x="574" y="104.4292">-password</text><!--MD5=[fdcda49d453d44c676d62f3f6af62207]
class Administrador--><rect codeLine="17" fill="#FEFECE" filter="url(#fasdh22zb2net)" height="104.0234" id="Administrador" style="stroke:#A80036;stroke-width:1.5;" width="155" x="194" y="18"/><ellipse cx="226.55" cy="34" fill="#ADD1B2" rx="11" ry="11" style="stroke:#A80036;stroke-width:1.0;"/><path d="M228.8938,29.6719 C227.9563,29.2344 227.3625,29.0938 226.4875,29.0938 C223.8625,29.0938 221.8625,31.1719 221.8625,33.8906 L221.8625,35.0156 C221.8625,37.5938 223.9719,39.4844 226.8625,39.4844 C228.0813,39.4844 229.2375,39.1875 229.9875,38.6406 C230.5656,38.2344 230.8938,37.7813 230.8938,37.3906 C230.8938,36.9375 230.5031,36.5469 230.0344,36.5469 C229.8156,36.5469 229.6125,36.625 229.425,36.8125 C228.9719,37.2969 228.9719,37.2969 228.7844,37.3906 C228.3625,37.6563 227.675,37.7813 226.9094,37.7813 C224.8625,37.7813 223.5656,36.6875 223.5656,34.9844 L223.5656,33.8906 C223.5656,32.1094 224.8156,30.7969 226.55,30.7969 C227.1281,30.7969 227.7375,30.9531 228.2063,31.2031 C228.6906,31.4844 228.8625,31.7031 228.9563,32.1094 C229.0188,32.5156 229.05,32.6406 229.1906,32.7656 C229.3313,32.9063 229.5656,33.0156 229.7844,33.0156 C230.05,33.0156 230.3156,32.875 230.4875,32.6563 C230.5969,32.5 230.6281,32.3125 230.6281,31.8906 L230.6281,30.4688 C230.6281,30.0313 230.6125,29.9063 230.5188,29.75 C230.3625,29.4844 230.0813,29.3438 229.7844,29.3438 C229.4875,29.3438 229.2844,29.4375 229.0656,29.75 L228.8938,29.6719 Z " fill="#000000"/><text fill="#000000" font-family="sans-serif" font-size="12" lengthAdjust="spacing" textLength="84" x="244.45" y="38.1543">Administrador</text><line style="stroke:#A80036;stroke-width:1.5;" x1="195" x2="348" y1="50" y2="50"/><text fill="#000000" font-family="sans-serif" font-size="11" lengthAdjust="spacing" textLength="21" x="200" y="64.2104">-NIF</text><text fill="#000000" font-family="sans-serif" font-size="11" lengthAdjust="spacing" textLength="37" x="200" y="77.0151">-nome</text><text fill="#000000" font-family="sans-serif" font-size="11" lengthAdjust="spacing" textLength="36" x="200" y="89.8198">-email</text><text fill="#000000" font-family="sans-serif" font-size="11" lengthAdjust="spacing" textLength="143" x="200" y="102.6245">-numeroSegurancaSocial</text><text fill="#000000" font-family="sans-serif" font-size="11" lengthAdjust="spacing" textLength="57" x="200" y="115.4292">-password</text><!--MD5=[36c1942e8942a3e4f47e6de3733e3d18]
class Endereco--><rect codeLine="25" fill="#FEFECE" filter="url(#fasdh22zb2net)" height="91.2188" id="Endereco" style="stroke:#A80036;stroke-width:1.5;" width="90" x="842.5" y="70.5"/><ellipse cx="857.5" cy="86.5" fill="#ADD1B2" rx="11" ry="11" style="stroke:#A80036;stroke-width:1.0;"/><path d="M859.8438,82.1719 C858.9063,81.7344 858.3125,81.5938 857.4375,81.5938 C854.8125,81.5938 852.8125,83.6719 852.8125,86.3906 L852.8125,87.5156 C852.8125,90.0938 854.9219,91.9844 857.8125,91.9844 C859.0313,91.9844 860.1875,91.6875 860.9375,91.1406 C861.5156,90.7344 861.8438,90.2813 861.8438,89.8906 C861.8438,89.4375 861.4531,89.0469 860.9844,89.0469 C860.7656,89.0469 860.5625,89.125 860.375,89.3125 C859.9219,89.7969 859.9219,89.7969 859.7344,89.8906 C859.3125,90.1563 858.625,90.2813 857.8594,90.2813 C855.8125,90.2813 854.5156,89.1875 854.5156,87.4844 L854.5156,86.3906 C854.5156,84.6094 855.7656,83.2969 857.5,83.2969 C858.0781,83.2969 858.6875,83.4531 859.1563,83.7031 C859.6406,83.9844 859.8125,84.2031 859.9063,84.6094 C859.9688,85.0156 860,85.1406 860.1406,85.2656 C860.2813,85.4063 860.5156,85.5156 860.7344,85.5156 C861,85.5156 861.2656,85.375 861.4375,85.1563 C861.5469,85 861.5781,84.8125 861.5781,84.3906 L861.5781,82.9688 C861.5781,82.5313 861.5625,82.4063 861.4688,82.25 C861.3125,81.9844 861.0313,81.8438 860.7344,81.8438 C860.4375,81.8438 860.2344,81.9375 860.0156,82.25 L859.8438,82.1719 Z " fill="#000000"/><text fill="#000000" font-family="sans-serif" font-size="12" lengthAdjust="spacing" textLength="58" x="871.5" y="90.6543">Endereco</text><line style="stroke:#A80036;stroke-width:1.5;" x1="843.5" x2="931.5" y1="102.5" y2="102.5"/><text fill="#000000" font-family="sans-serif" font-size="11" lengthAdjust="spacing" textLength="47" x="848.5" y="116.7104">-morada</text><text fill="#000000" font-family="sans-serif" font-size="11" lengthAdjust="spacing" textLength="47" x="848.5" y="129.5151">-latitude</text><text fill="#000000" font-family="sans-serif" font-size="11" lengthAdjust="spacing" textLength="57" x="848.5" y="142.3198">-longitude</text><text fill="#000000" font-family="sans-serif" font-size="11" lengthAdjust="spacing" textLength="47" x="848.5" y="155.1245">-altitude</text><!--MD5=[1a083dbe42a284ae0ea7f6f701783206]
class Parque--><rect codeLine="32" fill="#FEFECE" filter="url(#fasdh22zb2net)" height="52.8047" id="Parque" style="stroke:#A80036;stroke-width:1.5;" width="104" x="593.5" y="146.5"/><ellipse cx="622.45" cy="162.5" fill="#ADD1B2" rx="11" ry="11" style="stroke:#A80036;stroke-width:1.0;"/><path d="M624.7938,158.1719 C623.8563,157.7344 623.2625,157.5938 622.3875,157.5938 C619.7625,157.5938 617.7625,159.6719 617.7625,162.3906 L617.7625,163.5156 C617.7625,166.0938 619.8719,167.9844 622.7625,167.9844 C623.9813,167.9844 625.1375,167.6875 625.8875,167.1406 C626.4656,166.7344 626.7938,166.2813 626.7938,165.8906 C626.7938,165.4375 626.4031,165.0469 625.9344,165.0469 C625.7156,165.0469 625.5125,165.125 625.325,165.3125 C624.8719,165.7969 624.8719,165.7969 624.6844,165.8906 C624.2625,166.1563 623.575,166.2813 622.8094,166.2813 C620.7625,166.2813 619.4656,165.1875 619.4656,163.4844 L619.4656,162.3906 C619.4656,160.6094 620.7156,159.2969 622.45,159.2969 C623.0281,159.2969 623.6375,159.4531 624.1063,159.7031 C624.5906,159.9844 624.7625,160.2031 624.8563,160.6094 C624.9188,161.0156 624.95,161.1406 625.0906,161.2656 C625.2313,161.4063 625.4656,161.5156 625.6844,161.5156 C625.95,161.5156 626.2156,161.375 626.3875,161.1563 C626.4969,161 626.5281,160.8125 626.5281,160.3906 L626.5281,158.9688 C626.5281,158.5313 626.5125,158.4063 626.4188,158.25 C626.2625,157.9844 625.9813,157.8438 625.6844,157.8438 C625.3875,157.8438 625.1844,157.9375 624.9656,158.25 L624.7938,158.1719 Z " fill="#000000"/><text fill="#000000" font-family="sans-serif" font-size="12" lengthAdjust="spacing" textLength="41" x="639.55" y="166.6543">Parque</text><line style="stroke:#A80036;stroke-width:1.5;" x1="594.5" x2="696.5" y1="178.5" y2="178.5"/><text fill="#000000" font-family="sans-serif" font-size="11" lengthAdjust="spacing" textLength="92" x="599.5" y="192.7104">-numeroMaximo</text><!--MD5=[d6f7ff8a01a1f4d455865514bc16ec87]
class Estacionamento--><rect codeLine="36" fill="#FEFECE" filter="url(#fasdh22zb2net)" height="65.6094" id="Estacionamento" style="stroke:#A80036;stroke-width:1.5;" width="127" x="824" y="197"/><ellipse cx="839" cy="213" fill="#ADD1B2" rx="11" ry="11" style="stroke:#A80036;stroke-width:1.0;"/><path d="M841.3438,208.6719 C840.4063,208.2344 839.8125,208.0938 838.9375,208.0938 C836.3125,208.0938 834.3125,210.1719 834.3125,212.8906 L834.3125,214.0156 C834.3125,216.5938 836.4219,218.4844 839.3125,218.4844 C840.5313,218.4844 841.6875,218.1875 842.4375,217.6406 C843.0156,217.2344 843.3438,216.7813 843.3438,216.3906 C843.3438,215.9375 842.9531,215.5469 842.4844,215.5469 C842.2656,215.5469 842.0625,215.625 841.875,215.8125 C841.4219,216.2969 841.4219,216.2969 841.2344,216.3906 C840.8125,216.6563 840.125,216.7813 839.3594,216.7813 C837.3125,216.7813 836.0156,215.6875 836.0156,213.9844 L836.0156,212.8906 C836.0156,211.1094 837.2656,209.7969 839,209.7969 C839.5781,209.7969 840.1875,209.9531 840.6563,210.2031 C841.1406,210.4844 841.3125,210.7031 841.4063,211.1094 C841.4688,211.5156 841.5,211.6406 841.6406,211.7656 C841.7813,211.9063 842.0156,212.0156 842.2344,212.0156 C842.5,212.0156 842.7656,211.875 842.9375,211.6563 C843.0469,211.5 843.0781,211.3125 843.0781,210.8906 L843.0781,209.4688 C843.0781,209.0313 843.0625,208.9063 842.9688,208.75 C842.8125,208.4844 842.5313,208.3438 842.2344,208.3438 C841.9375,208.3438 841.7344,208.4375 841.5156,208.75 L841.3438,208.6719 Z " fill="#000000"/><text fill="#000000" font-family="sans-serif" font-size="12" lengthAdjust="spacing" textLength="95" x="853" y="217.1543">Estacionamento</text><line style="stroke:#A80036;stroke-width:1.5;" x1="825" x2="950" y1="229" y2="229"/><text fill="#000000" font-family="sans-serif" font-size="11" lengthAdjust="spacing" textLength="73" x="830" y="243.2104">-numeroLote</text><text fill="#000000" font-family="sans-serif" font-size="11" lengthAdjust="spacing" textLength="65" x="830" y="256.0151">-carregador</text><!--MD5=[b4161b205744775e44f73e41ced309e0]
link Administrador to Utilizador--><path codeLine="41" d="M349.128,67.734 C413.148,65.841 503.979,63.155 567.972,61.263 " fill="none" id="Administrador-Utilizador" style="stroke:#A80036;stroke-width:1.0;"/><polygon fill="#000000" points="426.4978,53.4186,417.3698,50.7483,417.5435,56.6236,426.4978,53.4186" style="stroke:#000000;stroke-width:1.0;"/><text fill="#000000" font-family="sans-serif" font-size="13" lengthAdjust="spacing" textLength="69" x="430.5" y="58.0669">atua como</text><text fill="#000000" font-family="sans-serif" font-size="13" lengthAdjust="spacing" textLength="8" x="356.9082" y="80.305">1</text><text fill="#000000" font-family="sans-serif" font-size="13" lengthAdjust="spacing" textLength="8" x="551.9466" y="74.2963">1</text><!--MD5=[6ba179a0a54b0b32b52757b8e4d27c6d]
link Administrador to Parque--><path codeLine="42" d="M349.128,91.217 C422.187,111.446 530.164,141.342 593.322,158.83 " fill="none" id="Administrador-Parque" style="stroke:#A80036;stroke-width:1.0;"/><polygon fill="#000000" points="388.8187,92.9006,380.8858,87.6546,379.3174,93.3194,388.8187,92.9006" style="stroke:#000000;stroke-width:1.0;"/><text fill="#000000" font-family="sans-serif" font-size="13" lengthAdjust="spacing" textLength="144" x="393" y="96.0669">define numeroMaximo</text><text fill="#000000" font-family="sans-serif" font-size="13" lengthAdjust="spacing" textLength="8" x="356.9082" y="106.0262">1</text><text fill="#000000" font-family="sans-serif" font-size="13" lengthAdjust="spacing" textLength="8" x="577.422" y="169.982">1</text><!--MD5=[4f96609c99ecadb81dc825d0ae539cef]
link Farmacia to Parque--><path codeLine="43" d="M93.0577,142.172 C121.452,147.342 159.839,153.659 194,157 C338.29,171.1112 509.656,173.1781 593.355,173.2427 " fill="none" id="Farmacia-Parque" style="stroke:#A80036;stroke-width:1.0;"/><polygon fill="#000000" points="253.4904,148.8763,244.6449,145.3824,244.2805,151.2489,253.4904,148.8763" style="stroke:#000000;stroke-width:1.0;"/><text fill="#000000" font-family="sans-serif" font-size="13" lengthAdjust="spacing" textLength="41" x="257.5" y="153.0669">possui</text><text fill="#000000" font-family="sans-serif" font-size="13" lengthAdjust="spacing" textLength="8" x="101.1457" y="156.9607">1</text><text fill="#000000" font-family="sans-serif" font-size="13" lengthAdjust="spacing" textLength="8" x="577.4596" y="186.4215">1</text><!--MD5=[65c0b4ced80642714d633a5480d06ed6]
link Parque to Endereco--><path codeLine="44" d="M697.692,160.842 C740.644,150.641 801.36,136.221 842.24,126.512 " fill="none" id="Parque-Endereco" style="stroke:#A80036;stroke-width:1.0;"/><polygon fill="#000000" points="762.8647,129.411,753.3853,128.6417,754.7435,134.3605,762.8647,129.411" style="stroke:#000000;stroke-width:1.0;"/><text fill="#000000" font-family="sans-serif" font-size="13" lengthAdjust="spacing" textLength="26" x="767" y="135.0669">tem</text><text fill="#000000" font-family="sans-serif" font-size="13" lengthAdjust="spacing" textLength="8" x="705.594" y="172.2769">1</text><text fill="#000000" font-family="sans-serif" font-size="13" lengthAdjust="spacing" textLength="8" x="826.3892" y="141.4427">1</text><!--MD5=[1eb578f81baca05fae5600e8efb79c07]
link Farmacia to Administrador--><path codeLine="45" d="M93.0621,121.736 C121.569,113.424 160.071,102.198 193.925,92.327 " fill="none" id="Farmacia-Administrador" style="stroke:#A80036;stroke-width:1.0;"/><polygon fill="#000000" points="132.8001,92.1668,123.294,91.8773,124.9393,97.5201,132.8001,92.1668" style="stroke:#000000;stroke-width:1.0;"/><text fill="#000000" font-family="sans-serif" font-size="13" lengthAdjust="spacing" textLength="26" x="137" y="98.0669">tem</text><text fill="#000000" font-family="sans-serif" font-size="13" lengthAdjust="spacing" textLength="8" x="100.8568" y="133.041">1</text><text fill="#000000" font-family="sans-serif" font-size="13" lengthAdjust="spacing" textLength="8" x="177.895" y="107.3354">1</text><!--MD5=[3f261229c7309ba030e97986da9f3259]
link Parque to Estacionamento--><path codeLine="46" d="M697.692,185.158 C734.586,193.9205 784.588,205.7959 823.866,215.1245 " fill="none" id="Parque-Estacionamento" style="stroke:#A80036;stroke-width:1.0;"/><polygon fill="#000000" points="762.8647,191.7218,754.7435,186.7723,753.3853,192.4911,762.8647,191.7218" style="stroke:#000000;stroke-width:1.0;"/><text fill="#000000" font-family="sans-serif" font-size="13" lengthAdjust="spacing" textLength="26" x="767" y="195.0669">tem</text><text fill="#000000" font-family="sans-serif" font-size="13" lengthAdjust="spacing" textLength="8" x="705.594" y="200.0124">1</text><text fill="#000000" font-family="sans-serif" font-size="13" lengthAdjust="spacing" textLength="7" x="809.1036" y="226.3689">*</text><!--MD5=[bd1a3737342bdb071d826807efe55e7e]
@startuml
skinparam classAttributeIconSize 0
hide methods
left to right direction

class Farmacia {
  -NIF
}

class Utilizador {
  -NIF
  -nome
  -email
  -numeroSegurancaSocial
  -password
}

class Administrador {
  -NIF
  -nome
  -email
  -numeroSegurancaSocial
  -password
}

class Endereco {
  -morada
  -latitude
  -longitude
  -altitude
}

class Parque {
  -numeroMaximo
}

class Estacionamento {
  -numeroLote
  -carregador
}

Administrador "1" - - "1" Utilizador: atua como >
Administrador "1" - - "1" Parque: define numeroMaximo >
Farmacia "1" - - "1" Parque: possui >
Parque "1" - - "1" Endereco: tem >
Farmacia "1" - - "1" Administrador: tem >
Parque "1" - - "*" Estacionamento: tem >
@enduml

PlantUML version 1.2020.27beta7(Unknown compile time)
(GPL source distribution)
Java Runtime: Java(TM) SE Runtime Environment
JVM: Java HotSpot(TM) 64-Bit Server VM
Default Encoding: UTF-8
Language: en
Country: US
--></g></svg>