<?xml version="1.0" encoding="UTF-8" standalone="no"?><svg xmlns="http://www.w3.org/2000/svg" xmlns:xlink="http://www.w3.org/1999/xlink" contentScriptType="application/ecmascript" contentStyleType="text/css" height="219px" preserveAspectRatio="none" style="width:965px;height:219px;" version="1.1" viewBox="0 0 965 219" width="965px" zoomAndPan="magnify"><defs><filter height="300%" id="f47mcy2it4dq8" width="300%" x="-1" y="-1"><feGaussianBlur result="blurOut" stdDeviation="2.0"/><feColorMatrix in="blurOut" result="blurOut2" type="matrix" values="0 0 0 0 0 0 0 0 0 0 0 0 0 0 0 0 0 0 .4 0"/><feOffset dx="4.0" dy="4.0" in="blurOut2" result="blurOut3"/><feBlend in="SourceGraphic" in2="blurOut3" mode="normal"/></filter></defs><g><!--MD5=[6613c9cd406ef433ff06f5e98b28abd9]
class Farmacia--><rect codeLine="5" fill="#FEFECE" filter="url(#f47mcy2it4dq8)" height="78.4141" id="Farmacia" style="stroke:#A80036;stroke-width:1.5;" width="86" x="7" y="95"/><ellipse cx="22" cy="111" fill="#ADD1B2" rx="11" ry="11" style="stroke:#A80036;stroke-width:1.0;"/><path d="M24.3438,106.6719 C23.4063,106.2344 22.8125,106.0938 21.9375,106.0938 C19.3125,106.0938 17.3125,108.1719 17.3125,110.8906 L17.3125,112.0156 C17.3125,114.5938 19.4219,116.4844 22.3125,116.4844 C23.5313,116.4844 24.6875,116.1875 25.4375,115.6406 C26.0156,115.2344 26.3438,114.7813 26.3438,114.3906 C26.3438,113.9375 25.9531,113.5469 25.4844,113.5469 C25.2656,113.5469 25.0625,113.625 24.875,113.8125 C24.4219,114.2969 24.4219,114.2969 24.2344,114.3906 C23.8125,114.6563 23.125,114.7813 22.3594,114.7813 C20.3125,114.7813 19.0156,113.6875 19.0156,111.9844 L19.0156,110.8906 C19.0156,109.1094 20.2656,107.7969 22,107.7969 C22.5781,107.7969 23.1875,107.9531 23.6563,108.2031 C24.1406,108.4844 24.3125,108.7031 24.4063,109.1094 C24.4688,109.5156 24.5,109.6406 24.6406,109.7656 C24.7813,109.9063 25.0156,110.0156 25.2344,110.0156 C25.5,110.0156 25.7656,109.875 25.9375,109.6563 C26.0469,109.5 26.0781,109.3125 26.0781,108.8906 L26.0781,107.4688 C26.0781,107.0313 26.0625,106.9063 25.9688,106.75 C25.8125,106.4844 25.5313,106.3438 25.2344,106.3438 C24.9375,106.3438 24.7344,106.4375 24.5156,106.75 L24.3438,106.6719 Z " fill="#000000"/><text fill="#000000" font-family="sans-serif" font-size="12" lengthAdjust="spacing" textLength="54" x="36" y="115.1543">Farmacia</text><line style="stroke:#A80036;stroke-width:1.5;" x1="8" x2="92" y1="127" y2="127"/><text fill="#000000" font-family="sans-serif" font-size="11" lengthAdjust="spacing" textLength="21" x="13" y="141.2104">-NIF</text><text fill="#000000" font-family="sans-serif" font-size="11" lengthAdjust="spacing" textLength="36" x="13" y="154.0151">-email</text><text fill="#000000" font-family="sans-serif" font-size="11" lengthAdjust="spacing" textLength="47" x="13" y="166.8198">-morada</text><!--MD5=[d6f7ff8a01a1f4d455865514bc16ec87]
class Estacionamento--><rect codeLine="11" fill="#FEFECE" filter="url(#f47mcy2it4dq8)" height="65.6094" id="Estacionamento" style="stroke:#A80036;stroke-width:1.5;" width="127" x="824" y="140"/><ellipse cx="839" cy="156" fill="#ADD1B2" rx="11" ry="11" style="stroke:#A80036;stroke-width:1.0;"/><path d="M841.3438,151.6719 C840.4063,151.2344 839.8125,151.0938 838.9375,151.0938 C836.3125,151.0938 834.3125,153.1719 834.3125,155.8906 L834.3125,157.0156 C834.3125,159.5938 836.4219,161.4844 839.3125,161.4844 C840.5313,161.4844 841.6875,161.1875 842.4375,160.6406 C843.0156,160.2344 843.3438,159.7813 843.3438,159.3906 C843.3438,158.9375 842.9531,158.5469 842.4844,158.5469 C842.2656,158.5469 842.0625,158.625 841.875,158.8125 C841.4219,159.2969 841.4219,159.2969 841.2344,159.3906 C840.8125,159.6563 840.125,159.7813 839.3594,159.7813 C837.3125,159.7813 836.0156,158.6875 836.0156,156.9844 L836.0156,155.8906 C836.0156,154.1094 837.2656,152.7969 839,152.7969 C839.5781,152.7969 840.1875,152.9531 840.6563,153.2031 C841.1406,153.4844 841.3125,153.7031 841.4063,154.1094 C841.4688,154.5156 841.5,154.6406 841.6406,154.7656 C841.7813,154.9063 842.0156,155.0156 842.2344,155.0156 C842.5,155.0156 842.7656,154.875 842.9375,154.6563 C843.0469,154.5 843.0781,154.3125 843.0781,153.8906 L843.0781,152.4688 C843.0781,152.0313 843.0625,151.9063 842.9688,151.75 C842.8125,151.4844 842.5313,151.3438 842.2344,151.3438 C841.9375,151.3438 841.7344,151.4375 841.5156,151.75 L841.3438,151.6719 Z " fill="#000000"/><text fill="#000000" font-family="sans-serif" font-size="12" lengthAdjust="spacing" textLength="95" x="853" y="160.1543">Estacionamento</text><line style="stroke:#A80036;stroke-width:1.5;" x1="825" x2="950" y1="172" y2="172"/><text fill="#000000" font-family="sans-serif" font-size="11" lengthAdjust="spacing" textLength="73" x="830" y="186.2104">-numeroLote</text><text fill="#000000" font-family="sans-serif" font-size="11" lengthAdjust="spacing" textLength="65" x="830" y="199.0151">-carregador</text><!--MD5=[5dd1d6732c071e710b9290b531f2fa3b]
class Utilizador--><rect codeLine="16" fill="#FEFECE" filter="url(#f47mcy2it4dq8)" height="104.0234" id="Utilizador" style="stroke:#A80036;stroke-width:1.5;" width="155" x="568" y="7"/><ellipse cx="612.75" cy="23" fill="#ADD1B2" rx="11" ry="11" style="stroke:#A80036;stroke-width:1.0;"/><path d="M615.0938,18.6719 C614.1563,18.2344 613.5625,18.0938 612.6875,18.0938 C610.0625,18.0938 608.0625,20.1719 608.0625,22.8906 L608.0625,24.0156 C608.0625,26.5938 610.1719,28.4844 613.0625,28.4844 C614.2813,28.4844 615.4375,28.1875 616.1875,27.6406 C616.7656,27.2344 617.0938,26.7813 617.0938,26.3906 C617.0938,25.9375 616.7031,25.5469 616.2344,25.5469 C616.0156,25.5469 615.8125,25.625 615.625,25.8125 C615.1719,26.2969 615.1719,26.2969 614.9844,26.3906 C614.5625,26.6563 613.875,26.7813 613.1094,26.7813 C611.0625,26.7813 609.7656,25.6875 609.7656,23.9844 L609.7656,22.8906 C609.7656,21.1094 611.0156,19.7969 612.75,19.7969 C613.3281,19.7969 613.9375,19.9531 614.4063,20.2031 C614.8906,20.4844 615.0625,20.7031 615.1563,21.1094 C615.2188,21.5156 615.25,21.6406 615.3906,21.7656 C615.5313,21.9063 615.7656,22.0156 615.9844,22.0156 C616.25,22.0156 616.5156,21.875 616.6875,21.6563 C616.7969,21.5 616.8281,21.3125 616.8281,20.8906 L616.8281,19.4688 C616.8281,19.0313 616.8125,18.9063 616.7188,18.75 C616.5625,18.4844 616.2813,18.3438 615.9844,18.3438 C615.6875,18.3438 615.4844,18.4375 615.2656,18.75 L615.0938,18.6719 Z " fill="#000000"/><text fill="#000000" font-family="sans-serif" font-size="12" lengthAdjust="spacing" textLength="57" x="633.25" y="27.1543">Utilizador</text><line style="stroke:#A80036;stroke-width:1.5;" x1="569" x2="722" y1="39" y2="39"/><text fill="#000000" font-family="sans-serif" font-size="11" lengthAdjust="spacing" textLength="21" x="574" y="53.2104">-NIF</text><text fill="#000000" font-family="sans-serif" font-size="11" lengthAdjust="spacing" textLength="37" x="574" y="66.0151">-nome</text><text fill="#000000" font-family="sans-serif" font-size="11" lengthAdjust="spacing" textLength="36" x="574" y="78.8198">-email</text><text fill="#000000" font-family="sans-serif" font-size="11" lengthAdjust="spacing" textLength="143" x="574" y="91.6245">-numeroSegurancaSocial</text><text fill="#000000" font-family="sans-serif" font-size="11" lengthAdjust="spacing" textLength="57" x="574" y="104.4292">-password</text><!--MD5=[fdcda49d453d44c676d62f3f6af62207]
class Administrador--><rect codeLine="24" fill="#FEFECE" filter="url(#f47mcy2it4dq8)" height="104.0234" id="Administrador" style="stroke:#A80036;stroke-width:1.5;" width="155" x="194" y="18"/><ellipse cx="226.55" cy="34" fill="#ADD1B2" rx="11" ry="11" style="stroke:#A80036;stroke-width:1.0;"/><path d="M228.8938,29.6719 C227.9563,29.2344 227.3625,29.0938 226.4875,29.0938 C223.8625,29.0938 221.8625,31.1719 221.8625,33.8906 L221.8625,35.0156 C221.8625,37.5938 223.9719,39.4844 226.8625,39.4844 C228.0813,39.4844 229.2375,39.1875 229.9875,38.6406 C230.5656,38.2344 230.8938,37.7813 230.8938,37.3906 C230.8938,36.9375 230.5031,36.5469 230.0344,36.5469 C229.8156,36.5469 229.6125,36.625 229.425,36.8125 C228.9719,37.2969 228.9719,37.2969 228.7844,37.3906 C228.3625,37.6563 227.675,37.7813 226.9094,37.7813 C224.8625,37.7813 223.5656,36.6875 223.5656,34.9844 L223.5656,33.8906 C223.5656,32.1094 224.8156,30.7969 226.55,30.7969 C227.1281,30.7969 227.7375,30.9531 228.2063,31.2031 C228.6906,31.4844 228.8625,31.7031 228.9563,32.1094 C229.0188,32.5156 229.05,32.6406 229.1906,32.7656 C229.3313,32.9063 229.5656,33.0156 229.7844,33.0156 C230.05,33.0156 230.3156,32.875 230.4875,32.6563 C230.5969,32.5 230.6281,32.3125 230.6281,31.8906 L230.6281,30.4688 C230.6281,30.0313 230.6125,29.9063 230.5188,29.75 C230.3625,29.4844 230.0813,29.3438 229.7844,29.3438 C229.4875,29.3438 229.2844,29.4375 229.0656,29.75 L228.8938,29.6719 Z " fill="#000000"/><text fill="#000000" font-family="sans-serif" font-size="12" lengthAdjust="spacing" textLength="84" x="244.45" y="38.1543">Administrador</text><line style="stroke:#A80036;stroke-width:1.5;" x1="195" x2="348" y1="50" y2="50"/><text fill="#000000" font-family="sans-serif" font-size="11" lengthAdjust="spacing" textLength="21" x="200" y="64.2104">-NIF</text><text fill="#000000" font-family="sans-serif" font-size="11" lengthAdjust="spacing" textLength="37" x="200" y="77.0151">-nome</text><text fill="#000000" font-family="sans-serif" font-size="11" lengthAdjust="spacing" textLength="36" x="200" y="89.8198">-email</text><text fill="#000000" font-family="sans-serif" font-size="11" lengthAdjust="spacing" textLength="143" x="200" y="102.6245">-numeroSegurancaSocial</text><text fill="#000000" font-family="sans-serif" font-size="11" lengthAdjust="spacing" textLength="57" x="200" y="115.4292">-password</text><!--MD5=[1a083dbe42a284ae0ea7f6f701783206]
class Parque--><rect codeLine="32" fill="#FEFECE" filter="url(#f47mcy2it4dq8)" height="52.8047" id="Parque" style="stroke:#A80036;stroke-width:1.5;" width="104" x="593.5" y="146.5"/><ellipse cx="622.45" cy="162.5" fill="#ADD1B2" rx="11" ry="11" style="stroke:#A80036;stroke-width:1.0;"/><path d="M624.7938,158.1719 C623.8563,157.7344 623.2625,157.5938 622.3875,157.5938 C619.7625,157.5938 617.7625,159.6719 617.7625,162.3906 L617.7625,163.5156 C617.7625,166.0938 619.8719,167.9844 622.7625,167.9844 C623.9813,167.9844 625.1375,167.6875 625.8875,167.1406 C626.4656,166.7344 626.7938,166.2813 626.7938,165.8906 C626.7938,165.4375 626.4031,165.0469 625.9344,165.0469 C625.7156,165.0469 625.5125,165.125 625.325,165.3125 C624.8719,165.7969 624.8719,165.7969 624.6844,165.8906 C624.2625,166.1563 623.575,166.2813 622.8094,166.2813 C620.7625,166.2813 619.4656,165.1875 619.4656,163.4844 L619.4656,162.3906 C619.4656,160.6094 620.7156,159.2969 622.45,159.2969 C623.0281,159.2969 623.6375,159.4531 624.1063,159.7031 C624.5906,159.9844 624.7625,160.2031 624.8563,160.6094 C624.9188,161.0156 624.95,161.1406 625.0906,161.2656 C625.2313,161.4063 625.4656,161.5156 625.6844,161.5156 C625.95,161.5156 626.2156,161.375 626.3875,161.1563 C626.4969,161 626.5281,160.8125 626.5281,160.3906 L626.5281,158.9688 C626.5281,158.5313 626.5125,158.4063 626.4188,158.25 C626.2625,157.9844 625.9813,157.8438 625.6844,157.8438 C625.3875,157.8438 625.1844,157.9375 624.9656,158.25 L624.7938,158.1719 Z " fill="#000000"/><text fill="#000000" font-family="sans-serif" font-size="12" lengthAdjust="spacing" textLength="41" x="639.55" y="166.6543">Parque</text><line style="stroke:#A80036;stroke-width:1.5;" x1="594.5" x2="696.5" y1="178.5" y2="178.5"/><text fill="#000000" font-family="sans-serif" font-size="11" lengthAdjust="spacing" textLength="92" x="599.5" y="192.7104">-numeroMaximo</text><!--MD5=[b4161b205744775e44f73e41ced309e0]
link Administrador to Utilizador--><path codeLine="36" d="M349.128,67.734 C413.148,65.841 503.979,63.155 567.972,61.263 " fill="none" id="Administrador-Utilizador" style="stroke:#A80036;stroke-width:1.0;"/><polygon fill="#000000" points="426.4978,53.4186,417.3698,50.7483,417.5435,56.6236,426.4978,53.4186" style="stroke:#000000;stroke-width:1.0;"/><text fill="#000000" font-family="sans-serif" font-size="13" lengthAdjust="spacing" textLength="69" x="430.5" y="58.0669">atua como</text><text fill="#000000" font-family="sans-serif" font-size="13" lengthAdjust="spacing" textLength="8" x="356.9082" y="80.305">1</text><text fill="#000000" font-family="sans-serif" font-size="13" lengthAdjust="spacing" textLength="8" x="551.9466" y="74.2963">1</text><!--MD5=[6ba179a0a54b0b32b52757b8e4d27c6d]
link Administrador to Parque--><path codeLine="37" d="M349.128,91.217 C422.187,111.4456 530.164,141.3425 593.322,158.8297 " fill="none" id="Administrador-Parque" style="stroke:#A80036;stroke-width:1.0;"/><polygon fill="#000000" points="388.8187,92.9006,380.8858,87.6546,379.3174,93.3194,388.8187,92.9006" style="stroke:#000000;stroke-width:1.0;"/><text fill="#000000" font-family="sans-serif" font-size="13" lengthAdjust="spacing" textLength="144" x="393" y="96.0669">define numeroMaximo</text><text fill="#000000" font-family="sans-serif" font-size="13" lengthAdjust="spacing" textLength="8" x="356.9082" y="106.0262">1</text><text fill="#000000" font-family="sans-serif" font-size="13" lengthAdjust="spacing" textLength="8" x="577.422" y="169.9817">1</text><!--MD5=[4f96609c99ecadb81dc825d0ae539cef]
link Farmacia to Parque--><path codeLine="38" d="M93.0577,142.1723 C121.452,147.342 159.839,153.6592 194,157 C338.29,171.1112 509.656,173.1781 593.355,173.2427 " fill="none" id="Farmacia-Parque" style="stroke:#A80036;stroke-width:1.0;"/><polygon fill="#000000" points="253.4904,148.8763,244.6449,145.3824,244.2805,151.2489,253.4904,148.8763" style="stroke:#000000;stroke-width:1.0;"/><text fill="#000000" font-family="sans-serif" font-size="13" lengthAdjust="spacing" textLength="41" x="257.5" y="153.0669">possui</text><text fill="#000000" font-family="sans-serif" font-size="13" lengthAdjust="spacing" textLength="8" x="101.1457" y="156.9087">1</text><text fill="#000000" font-family="sans-serif" font-size="13" lengthAdjust="spacing" textLength="8" x="577.4596" y="186.4215">1</text><!--MD5=[3f261229c7309ba030e97986da9f3259]
link Parque to Estacionamento--><path codeLine="39" d="M697.692,173 C734.586,173 784.588,173 823.866,173 " fill="none" id="Parque-Estacionamento" style="stroke:#A80036;stroke-width:1.0;"/><polygon fill="#000000" points="763,164.5664,753.9549,161.6275,753.9549,167.5053,763,164.5664" style="stroke:#000000;stroke-width:1.0;"/><text fill="#000000" font-family="sans-serif" font-size="13" lengthAdjust="spacing" textLength="26" x="767" y="169.0669">tem</text><text fill="#000000" font-family="sans-serif" font-size="13" lengthAdjust="spacing" textLength="8" x="705.594" y="186.1447">1</text><text fill="#000000" font-family="sans-serif" font-size="13" lengthAdjust="spacing" textLength="7" x="809.1036" y="185.9643">*</text><!--MD5=[1eb578f81baca05fae5600e8efb79c07]
link Farmacia to Administrador--><path codeLine="40" d="M93.0621,121.7359 C121.569,113.4241 160.071,102.198 193.925,92.327 " fill="none" id="Farmacia-Administrador" style="stroke:#A80036;stroke-width:1.0;"/><polygon fill="#000000" points="132.8001,92.1668,123.294,91.8773,124.9393,97.5201,132.8001,92.1668" style="stroke:#000000;stroke-width:1.0;"/><text fill="#000000" font-family="sans-serif" font-size="13" lengthAdjust="spacing" textLength="26" x="137" y="98.0669">tem</text><text fill="#000000" font-family="sans-serif" font-size="13" lengthAdjust="spacing" textLength="8" x="100.8568" y="132.9904">1</text><text fill="#000000" font-family="sans-serif" font-size="13" lengthAdjust="spacing" textLength="8" x="177.895" y="107.3354">1</text><!--MD5=[daf6fea77636f4e7d711375a7783ef84]
@startuml
skinparam classAttributeIconSize 0
hide methods
left to right direction

class Farmacia {
  -NIF
  -email
  -morada
}

class Estacionamento {
  -numeroLote
  -carregador
}

class Utilizador {
  -NIF
  -nome
  -email
  -numeroSegurancaSocial
  -password
}

class Administrador {
  -NIF
  -nome
  -email
  -numeroSegurancaSocial
  -password
}

class Parque {
  -numeroMaximo
}

Administrador "1" - - "1" Utilizador: atua como >
Administrador "1" - - "1" Parque: define numeroMaximo >
Farmacia "1" - - "1" Parque: possui >
Parque "1" - - "*" Estacionamento: tem >
Farmacia "1" - - "1" Administrador: tem >
@enduml

PlantUML version 1.2021.01beta3(Unknown compile time)
(GPL source distribution)
Java Runtime: Java(TM) SE Runtime Environment
JVM: Java HotSpot(TM) 64-Bit Server VM
Default Encoding: UTF-8
Language: en
Country: US
--></g></svg>