<?xml version="1.0" encoding="UTF-8" standalone="no"?><svg xmlns="http://www.w3.org/2000/svg" xmlns:xlink="http://www.w3.org/1999/xlink" contentScriptType="application/ecmascript" contentStyleType="text/css" height="1014px" preserveAspectRatio="none" style="width:2102px;height:1014px;" version="1.1" viewBox="0 0 2102 1014" width="2102px" zoomAndPan="magnify"><defs><filter height="300%" id="f561bdjjoxxz" width="300%" x="-1" y="-1"><feGaussianBlur result="blurOut" stdDeviation="2.0"/><feColorMatrix in="blurOut" result="blurOut2" type="matrix" values="0 0 0 0 0 0 0 0 0 0 0 0 0 0 0 0 0 0 .4 0"/><feOffset dx="4.0" dy="4.0" in="blurOut2" result="blurOut3"/><feBlend in="SourceGraphic" in2="blurOut3" mode="normal"/></filter></defs><g><rect fill="#FFFFFF" filter="url(#f561bdjjoxxz)" height="814.3516" style="stroke:#A80036;stroke-width:1.0;" width="10" x="69" y="98.2969"/><rect fill="#FFFFFF" filter="url(#f561bdjjoxxz)" height="29.1328" style="stroke:#A80036;stroke-width:1.0;" width="10" x="556" y="119.4297"/><rect fill="#FFFFFF" filter="url(#f561bdjjoxxz)" height="205.6641" style="stroke:#A80036;stroke-width:1.0;" width="10" x="556" y="177.6953"/><rect fill="#FFFFFF" filter="url(#f561bdjjoxxz)" height="141.5313" style="stroke:#A80036;stroke-width:1.0;" width="10" x="556" y="412.4922"/><rect fill="#FFFFFF" filter="url(#f561bdjjoxxz)" height="139.6953" style="stroke:#A80036;stroke-width:1.0;" width="10" x="556" y="583.1563"/><rect fill="#FFFFFF" filter="url(#f561bdjjoxxz)" height="160.6641" style="stroke:#A80036;stroke-width:1.0;" width="10" x="556" y="751.9844"/><rect fill="#FFFFFF" filter="url(#f561bdjjoxxz)" height="147.3984" style="stroke:#A80036;stroke-width:1.0;" width="10" x="996" y="206.8281"/><rect fill="#FFFFFF" filter="url(#f561bdjjoxxz)" height="59.1328" style="stroke:#A80036;stroke-width:1.0;" width="10" x="996" y="441.625"/><rect fill="#FFFFFF" filter="url(#f561bdjjoxxz)" height="58.2656" style="stroke:#A80036;stroke-width:1.0;" width="10" x="996" y="612.2891"/><rect fill="#FFFFFF" filter="url(#f561bdjjoxxz)" height="88.3984" style="stroke:#A80036;stroke-width:1.0;" width="10" x="996" y="781.1172"/><rect fill="#FFFFFF" filter="url(#f561bdjjoxxz)" height="30" style="stroke:#A80036;stroke-width:1.0;" width="10" x="1254" y="235.9609"/><rect fill="#FFFFFF" filter="url(#f561bdjjoxxz)" height="30" style="stroke:#A80036;stroke-width:1.0;" width="10" x="1435" y="324.2266"/><rect fill="#FFFFFF" filter="url(#f561bdjjoxxz)" height="30" style="stroke:#A80036;stroke-width:1.0;" width="10" x="1435" y="470.7578"/><rect fill="#FFFFFF" filter="url(#f561bdjjoxxz)" height="29.1328" style="stroke:#A80036;stroke-width:1.0;" width="10" x="1572" y="641.4219"/><rect fill="#FFFFFF" filter="url(#f561bdjjoxxz)" height="35.1328" style="stroke:#A80036;stroke-width:1.0;" width="10" x="1572" y="834.3828"/><rect fill="#FFFFFF" filter="url(#f561bdjjoxxz)" height="178.9609" style="stroke:#000000;stroke-width:2.0;" width="2078" x="10" y="515.7578"/><rect fill="#FFFFFF" filter="url(#f561bdjjoxxz)" height="88.3984" style="stroke:#000000;stroke-width:2.0;" width="951.5" x="858.5" y="796.1172"/><line style="stroke:#A80036;stroke-width:1.0;stroke-dasharray:5.0,5.0;" x1="74" x2="74" y1="88.2969" y2="930.6484"/><line style="stroke:#A80036;stroke-width:1.0;stroke-dasharray:5.0,5.0;" x1="560.5" x2="560.5" y1="88.2969" y2="930.6484"/><line style="stroke:#A80036;stroke-width:1.0;stroke-dasharray:5.0,5.0;" x1="1000.5" x2="1000.5" y1="88.2969" y2="930.6484"/><line style="stroke:#A80036;stroke-width:1.0;stroke-dasharray:5.0,5.0;" x1="1259" x2="1259" y1="88.2969" y2="930.6484"/><line style="stroke:#A80036;stroke-width:1.0;stroke-dasharray:5.0,5.0;" x1="1439.5" x2="1439.5" y1="88.2969" y2="930.6484"/><line style="stroke:#A80036;stroke-width:1.0;stroke-dasharray:5.0,5.0;" x1="1576.5" x2="1576.5" y1="88.2969" y2="930.6484"/><line style="stroke:#A80036;stroke-width:1.0;stroke-dasharray:5.0,5.0;" x1="1988" x2="1988" y1="682.0703" y2="930.6484"/><text fill="#000000" font-family="sans-serif" font-size="14" lengthAdjust="spacing" textLength="102" x="20" y="84.9951">Administrador</text><ellipse cx="74" cy="15" fill="#FEFECE" filter="url(#f561bdjjoxxz)" rx="8" ry="8" style="stroke:#A80036;stroke-width:2.0;"/><path d="M74,23 L74,50 M61,31 L87,31 M74,50 L61,65 M74,50 L87,65 " fill="none" filter="url(#f561bdjjoxxz)" style="stroke:#A80036;stroke-width:2.0;"/><text fill="#000000" font-family="sans-serif" font-size="14" lengthAdjust="spacing" textLength="102" x="20" y="942.6436">Administrador</text><ellipse cx="74" cy="955.9453" fill="#FEFECE" filter="url(#f561bdjjoxxz)" rx="8" ry="8" style="stroke:#A80036;stroke-width:2.0;"/><path d="M74,963.9453 L74,990.9453 M61,971.9453 L87,971.9453 M74,990.9453 L61,1005.9453 M74,990.9453 L87,1005.9453 " fill="none" filter="url(#f561bdjjoxxz)" style="stroke:#A80036;stroke-width:2.0;"/><rect fill="#FEFECE" filter="url(#f561bdjjoxxz)" height="30.2969" style="stroke:#A80036;stroke-width:1.5;" width="201" x="458.5" y="53"/><text fill="#000000" font-family="sans-serif" font-size="14" lengthAdjust="spacing" textLength="187" x="465.5" y="72.9951">:InserirEstacionamentosUI</text><rect fill="#FEFECE" filter="url(#f561bdjjoxxz)" height="30.2969" style="stroke:#A80036;stroke-width:1.5;" width="201" x="458.5" y="929.6484"/><text fill="#000000" font-family="sans-serif" font-size="14" lengthAdjust="spacing" textLength="187" x="465.5" y="949.6436">:InserirEstacionamentosUI</text><rect fill="#FEFECE" filter="url(#f561bdjjoxxz)" height="30.2969" style="stroke:#A80036;stroke-width:1.5;" width="261" x="868.5" y="53"/><text fill="#000000" font-family="sans-serif" font-size="14" lengthAdjust="spacing" textLength="247" x="875.5" y="72.9951">:InserirEstacionamentosController</text><rect fill="#FEFECE" filter="url(#f561bdjjoxxz)" height="30.2969" style="stroke:#A80036;stroke-width:1.5;" width="261" x="868.5" y="929.6484"/><text fill="#000000" font-family="sans-serif" font-size="14" lengthAdjust="spacing" textLength="247" x="875.5" y="949.6436">:InserirEstacionamentosController</text><rect fill="#FEFECE" filter="url(#f561bdjjoxxz)" height="30.2969" style="stroke:#A80036;stroke-width:1.5;" width="104" x="1205" y="53"/><text fill="#000000" font-family="sans-serif" font-size="14" lengthAdjust="spacing" textLength="90" x="1212" y="72.9951">:FarmaciaDB</text><rect fill="#FEFECE" filter="url(#f561bdjjoxxz)" height="30.2969" style="stroke:#A80036;stroke-width:1.5;" width="104" x="1205" y="929.6484"/><text fill="#000000" font-family="sans-serif" font-size="14" lengthAdjust="spacing" textLength="90" x="1212" y="949.6436">:FarmaciaDB</text><rect fill="#FEFECE" filter="url(#f561bdjjoxxz)" height="30.2969" style="stroke:#A80036;stroke-width:1.5;" width="89" x="1393.5" y="53"/><text fill="#000000" font-family="sans-serif" font-size="14" lengthAdjust="spacing" textLength="75" x="1400.5" y="72.9951">:ParqueDB</text><rect fill="#FEFECE" filter="url(#f561bdjjoxxz)" height="30.2969" style="stroke:#A80036;stroke-width:1.5;" width="89" x="1393.5" y="929.6484"/><text fill="#000000" font-family="sans-serif" font-size="14" lengthAdjust="spacing" textLength="75" x="1400.5" y="949.6436">:ParqueDB</text><rect fill="#FEFECE" filter="url(#f561bdjjoxxz)" height="30.2969" style="stroke:#A80036;stroke-width:1.5;" width="157" x="1496.5" y="53"/><text fill="#000000" font-family="sans-serif" font-size="14" lengthAdjust="spacing" textLength="143" x="1503.5" y="72.9951">:EstacionamentoDB</text><rect fill="#FEFECE" filter="url(#f561bdjjoxxz)" height="30.2969" style="stroke:#A80036;stroke-width:1.5;" width="157" x="1496.5" y="929.6484"/><text fill="#000000" font-family="sans-serif" font-size="14" lengthAdjust="spacing" textLength="143" x="1503.5" y="949.6436">:EstacionamentoDB</text><rect fill="#FEFECE" filter="url(#f561bdjjoxxz)" height="30.2969" style="stroke:#A80036;stroke-width:1.5;" width="175" x="1899" y="929.6484"/><text fill="#000000" font-family="sans-serif" font-size="14" lengthAdjust="spacing" textLength="161" x="1906" y="949.6436">estac:Estacionamento</text><rect fill="#FFFFFF" filter="url(#f561bdjjoxxz)" height="814.3516" style="stroke:#A80036;stroke-width:1.0;" width="10" x="69" y="98.2969"/><rect fill="#FFFFFF" filter="url(#f561bdjjoxxz)" height="29.1328" style="stroke:#A80036;stroke-width:1.0;" width="10" x="556" y="119.4297"/><rect fill="#FFFFFF" filter="url(#f561bdjjoxxz)" height="205.6641" style="stroke:#A80036;stroke-width:1.0;" width="10" x="556" y="177.6953"/><rect fill="#FFFFFF" filter="url(#f561bdjjoxxz)" height="141.5313" style="stroke:#A80036;stroke-width:1.0;" width="10" x="556" y="412.4922"/><rect fill="#FFFFFF" filter="url(#f561bdjjoxxz)" height="139.6953" style="stroke:#A80036;stroke-width:1.0;" width="10" x="556" y="583.1563"/><rect fill="#FFFFFF" filter="url(#f561bdjjoxxz)" height="160.6641" style="stroke:#A80036;stroke-width:1.0;" width="10" x="556" y="751.9844"/><rect fill="#FFFFFF" filter="url(#f561bdjjoxxz)" height="147.3984" style="stroke:#A80036;stroke-width:1.0;" width="10" x="996" y="206.8281"/><rect fill="#FFFFFF" filter="url(#f561bdjjoxxz)" height="59.1328" style="stroke:#A80036;stroke-width:1.0;" width="10" x="996" y="441.625"/><rect fill="#FFFFFF" filter="url(#f561bdjjoxxz)" height="58.2656" style="stroke:#A80036;stroke-width:1.0;" width="10" x="996" y="612.2891"/><rect fill="#FFFFFF" filter="url(#f561bdjjoxxz)" height="88.3984" style="stroke:#A80036;stroke-width:1.0;" width="10" x="996" y="781.1172"/><rect fill="#FFFFFF" filter="url(#f561bdjjoxxz)" height="30" style="stroke:#A80036;stroke-width:1.0;" width="10" x="1254" y="235.9609"/><rect fill="#FFFFFF" filter="url(#f561bdjjoxxz)" height="30" style="stroke:#A80036;stroke-width:1.0;" width="10" x="1435" y="324.2266"/><rect fill="#FFFFFF" filter="url(#f561bdjjoxxz)" height="30" style="stroke:#A80036;stroke-width:1.0;" width="10" x="1435" y="470.7578"/><rect fill="#FFFFFF" filter="url(#f561bdjjoxxz)" height="29.1328" style="stroke:#A80036;stroke-width:1.0;" width="10" x="1572" y="641.4219"/><rect fill="#FFFFFF" filter="url(#f561bdjjoxxz)" height="35.1328" style="stroke:#A80036;stroke-width:1.0;" width="10" x="1572" y="834.3828"/><polygon fill="#A80036" points="544,115.4297,554,119.4297,544,123.4297,548,119.4297" style="stroke:#A80036;stroke-width:1.0;"/><line style="stroke:#A80036;stroke-width:1.0;" x1="79" x2="550" y1="119.4297" y2="119.4297"/><text fill="#000000" font-family="sans-serif" font-size="13" font-weight="bold" lengthAdjust="spacing" textLength="9" x="86" y="114.3638">1</text><text fill="#000000" font-family="sans-serif" font-size="13" lengthAdjust="spacing" textLength="189" x="99" y="114.3638">inserção de estacionamentos</text><polygon fill="#A80036" points="90,144.5625,80,148.5625,90,152.5625,86,148.5625" style="stroke:#A80036;stroke-width:1.0;"/><line style="stroke:#A80036;stroke-width:1.0;stroke-dasharray:2.0,2.0;" x1="84" x2="560" y1="148.5625" y2="148.5625"/><text fill="#000000" font-family="sans-serif" font-size="13" font-weight="bold" lengthAdjust="spacing" textLength="9" x="96" y="143.4966">2</text><text fill="#000000" font-family="sans-serif" font-size="13" lengthAdjust="spacing" textLength="270" x="109" y="143.4966">solicita dados do parque (NIF da farmácia)</text><polygon fill="#A80036" points="544,173.6953,554,177.6953,544,181.6953,548,177.6953" style="stroke:#A80036;stroke-width:1.0;"/><line style="stroke:#A80036;stroke-width:1.0;" x1="79" x2="550" y1="177.6953" y2="177.6953"/><text fill="#000000" font-family="sans-serif" font-size="13" font-weight="bold" lengthAdjust="spacing" textLength="8" x="86" y="172.6294">3</text><text fill="#000000" font-family="sans-serif" font-size="13" lengthAdjust="spacing" textLength="185" x="98" y="172.6294">introduz os dados solicitados</text><polygon fill="#A80036" points="984,202.8281,994,206.8281,984,210.8281,988,206.8281" style="stroke:#A80036;stroke-width:1.0;"/><line style="stroke:#A80036;stroke-width:1.0;" x1="566" x2="990" y1="206.8281" y2="206.8281"/><text fill="#000000" font-family="sans-serif" font-size="13" font-weight="bold" lengthAdjust="spacing" textLength="9" x="573" y="201.7622">4</text><text fill="#000000" font-family="sans-serif" font-size="13" lengthAdjust="spacing" textLength="216" x="586" y="201.7622">farmacia = getFarmaciaByNIF(nif)</text><polygon fill="#A80036" points="1242,231.9609,1252,235.9609,1242,239.9609,1246,235.9609" style="stroke:#A80036;stroke-width:1.0;"/><line style="stroke:#A80036;stroke-width:1.0;" x1="1006" x2="1248" y1="235.9609" y2="235.9609"/><text fill="#000000" font-family="sans-serif" font-size="13" font-weight="bold" lengthAdjust="spacing" textLength="9" x="1013" y="230.895">5</text><text fill="#000000" font-family="sans-serif" font-size="13" lengthAdjust="spacing" textLength="216" x="1026" y="230.895">farmacia = getFarmaciaByNIF(nif)</text><polygon fill="#A80036" points="984,291.0938,994,295.0938,984,299.0938,988,295.0938" style="stroke:#A80036;stroke-width:1.0;"/><line style="stroke:#A80036;stroke-width:1.0;" x1="566" x2="990" y1="295.0938" y2="295.0938"/><text fill="#000000" font-family="sans-serif" font-size="13" font-weight="bold" lengthAdjust="spacing" textLength="9" x="573" y="290.0278">6</text><text fill="#000000" font-family="sans-serif" font-size="13" lengthAdjust="spacing" textLength="306" x="586" y="290.0278">lstParques = getListaParquesByFarmaciaNif(nif)</text><polygon fill="#A80036" points="1423,320.2266,1433,324.2266,1423,328.2266,1427,324.2266" style="stroke:#A80036;stroke-width:1.0;"/><line style="stroke:#A80036;stroke-width:1.0;" x1="1006" x2="1429" y1="324.2266" y2="324.2266"/><text fill="#000000" font-family="sans-serif" font-size="13" font-weight="bold" lengthAdjust="spacing" textLength="9" x="1013" y="319.1606">7</text><text fill="#000000" font-family="sans-serif" font-size="13" lengthAdjust="spacing" textLength="295" x="1026" y="319.1606">lstParques = getLstParquesByFarmaciaNif(nif)</text><polygon fill="#A80036" points="90,379.3594,80,383.3594,90,387.3594,86,383.3594" style="stroke:#A80036;stroke-width:1.0;"/><line style="stroke:#A80036;stroke-width:1.0;stroke-dasharray:2.0,2.0;" x1="84" x2="560" y1="383.3594" y2="383.3594"/><text fill="#000000" font-family="sans-serif" font-size="13" font-weight="bold" lengthAdjust="spacing" textLength="9" x="96" y="378.2935">8</text><text fill="#000000" font-family="sans-serif" font-size="13" lengthAdjust="spacing" textLength="250" x="109" y="378.2935">solicita dados do parque (id do parque)</text><polygon fill="#A80036" points="544,408.4922,554,412.4922,544,416.4922,548,412.4922" style="stroke:#A80036;stroke-width:1.0;"/><line style="stroke:#A80036;stroke-width:1.0;" x1="79" x2="550" y1="412.4922" y2="412.4922"/><text fill="#000000" font-family="sans-serif" font-size="13" font-weight="bold" lengthAdjust="spacing" textLength="9" x="86" y="407.4263">9</text><text fill="#000000" font-family="sans-serif" font-size="13" lengthAdjust="spacing" textLength="185" x="99" y="407.4263">introduz os dados solicitados</text><polygon fill="#A80036" points="984,437.625,994,441.625,984,445.625,988,441.625" style="stroke:#A80036;stroke-width:1.0;"/><line style="stroke:#A80036;stroke-width:1.0;" x1="566" x2="990" y1="441.625" y2="441.625"/><text fill="#000000" font-family="sans-serif" font-size="13" font-weight="bold" lengthAdjust="spacing" textLength="19" x="573" y="436.5591">10</text><text fill="#000000" font-family="sans-serif" font-size="13" lengthAdjust="spacing" textLength="388" x="596" y="436.5591">numMax = getNumMaxByFarmaciaNifParqueId(nif, idParque)</text><polygon fill="#A80036" points="1423,466.7578,1433,470.7578,1423,474.7578,1427,470.7578" style="stroke:#A80036;stroke-width:1.0;"/><line style="stroke:#A80036;stroke-width:1.0;" x1="1006" x2="1429" y1="470.7578" y2="470.7578"/><text fill="#000000" font-family="sans-serif" font-size="13" font-weight="bold" lengthAdjust="spacing" textLength="18" x="1013" y="465.6919">11</text><text fill="#000000" font-family="sans-serif" font-size="13" lengthAdjust="spacing" textLength="388" x="1035" y="465.6919">numMax = getNumMaxByFarmaciaNifParqueId(nif, idParque)</text><path d="M10,515.7578 L88,515.7578 L88,522.7578 L78,532.7578 L10,532.7578 L10,515.7578 " fill="#EEEEEE" style="stroke:#000000;stroke-width:1.0;"/><rect fill="none" height="178.9609" style="stroke:#000000;stroke-width:2.0;" width="2078" x="10" y="515.7578"/><text fill="#000000" font-family="sans-serif" font-size="13" font-weight="bold" lengthAdjust="spacing" textLength="33" x="25" y="528.8247">loop</text><polygon fill="#A80036" points="90,550.0234,80,554.0234,90,558.0234,86,554.0234" style="stroke:#A80036;stroke-width:1.0;"/><line style="stroke:#A80036;stroke-width:1.0;stroke-dasharray:2.0,2.0;" x1="84" x2="560" y1="554.0234" y2="554.0234"/><text fill="#000000" font-family="sans-serif" font-size="13" font-weight="bold" lengthAdjust="spacing" textLength="18" x="96" y="548.9575">12</text><text fill="#000000" font-family="sans-serif" font-size="13" lengthAdjust="spacing" textLength="431" x="118" y="548.9575">solicita dados dos estacionamentos (disponibilidade do carregador)</text><polygon fill="#A80036" points="544,579.1563,554,583.1563,544,587.1563,548,583.1563" style="stroke:#A80036;stroke-width:1.0;"/><line style="stroke:#A80036;stroke-width:1.0;stroke-dasharray:2.0,2.0;" x1="79" x2="550" y1="583.1563" y2="583.1563"/><text fill="#000000" font-family="sans-serif" font-size="13" font-weight="bold" lengthAdjust="spacing" textLength="17" x="86" y="578.0903">13</text><text fill="#000000" font-family="sans-serif" font-size="13" lengthAdjust="spacing" textLength="185" x="107" y="578.0903">introduz os dados solicitados</text><polygon fill="#A80036" points="984,608.2891,994,612.2891,984,616.2891,988,612.2891" style="stroke:#A80036;stroke-width:1.0;"/><line style="stroke:#A80036;stroke-width:1.0;" x1="566" x2="990" y1="612.2891" y2="612.2891"/><text fill="#000000" font-family="sans-serif" font-size="13" font-weight="bold" lengthAdjust="spacing" textLength="18" x="573" y="607.2231">14</text><text fill="#000000" font-family="sans-serif" font-size="13" lengthAdjust="spacing" textLength="366" x="595" y="607.2231">novoEstacionamento(numeroLote, carregador, idParque)</text><polygon fill="#A80036" points="1560,637.4219,1570,641.4219,1560,645.4219,1564,641.4219" style="stroke:#A80036;stroke-width:1.0;"/><line style="stroke:#A80036;stroke-width:1.0;" x1="1006" x2="1566" y1="641.4219" y2="641.4219"/><text fill="#000000" font-family="sans-serif" font-size="13" font-weight="bold" lengthAdjust="spacing" textLength="18" x="1013" y="636.356">15</text><text fill="#000000" font-family="sans-serif" font-size="13" lengthAdjust="spacing" textLength="419" x="1035" y="636.356">estac = novoEstacionamento(numeroLote, carregador, idParque)</text><polygon fill="#A80036" points="1887,666.5547,1897,670.5547,1887,674.5547,1891,670.5547" style="stroke:#A80036;stroke-width:1.0;"/><line style="stroke:#A80036;stroke-width:1.0;stroke-dasharray:2.0,2.0;" x1="1577" x2="1893" y1="670.5547" y2="670.5547"/><text fill="#000000" font-family="sans-serif" font-size="13" font-weight="bold" lengthAdjust="spacing" textLength="18" x="1584" y="665.4888">16</text><text fill="#000000" font-family="sans-serif" font-size="13" lengthAdjust="spacing" textLength="271" x="1606" y="665.4888">create(numeroLote, carregador, idParque)</text><rect fill="#FEFECE" filter="url(#f561bdjjoxxz)" height="30.2969" style="stroke:#A80036;stroke-width:1.5;" width="175" x="1899" y="649.4219"/><text fill="#000000" font-family="sans-serif" font-size="14" lengthAdjust="spacing" textLength="161" x="1906" y="669.417">estac:Estacionamento</text><polygon fill="#A80036" points="90,718.8516,80,722.8516,90,726.8516,86,722.8516" style="stroke:#A80036;stroke-width:1.0;"/><line style="stroke:#A80036;stroke-width:1.0;stroke-dasharray:2.0,2.0;" x1="84" x2="560" y1="722.8516" y2="722.8516"/><text fill="#000000" font-family="sans-serif" font-size="13" font-weight="bold" lengthAdjust="spacing" textLength="18" x="96" y="717.7856">17</text><text fill="#000000" font-family="sans-serif" font-size="13" lengthAdjust="spacing" textLength="394" x="118" y="717.7856">apresenta dados dos estacionamentos e solicita confirmação</text><polygon fill="#A80036" points="544,747.9844,554,751.9844,544,755.9844,548,751.9844" style="stroke:#A80036;stroke-width:1.0;"/><line style="stroke:#A80036;stroke-width:1.0;" x1="79" x2="550" y1="751.9844" y2="751.9844"/><text fill="#000000" font-family="sans-serif" font-size="13" font-weight="bold" lengthAdjust="spacing" textLength="18" x="86" y="746.9185">18</text><text fill="#000000" font-family="sans-serif" font-size="13" lengthAdjust="spacing" textLength="57" x="108" y="746.9185">confirma</text><polygon fill="#A80036" points="984,777.1172,994,781.1172,984,785.1172,988,781.1172" style="stroke:#A80036;stroke-width:1.0;"/><line style="stroke:#A80036;stroke-width:1.0;" x1="566" x2="990" y1="781.1172" y2="781.1172"/><text fill="#000000" font-family="sans-serif" font-size="13" font-weight="bold" lengthAdjust="spacing" textLength="18" x="573" y="776.0513">19</text><text fill="#000000" font-family="sans-serif" font-size="13" lengthAdjust="spacing" textLength="203" x="595" y="776.0513">registaEstacionamentos(lEstac)</text><path d="M858.5,796.1172 L936.5,796.1172 L936.5,803.1172 L926.5,813.1172 L858.5,813.1172 L858.5,796.1172 " fill="#EEEEEE" style="stroke:#000000;stroke-width:1.0;"/><rect fill="none" height="88.3984" style="stroke:#000000;stroke-width:2.0;" width="951.5" x="858.5" y="796.1172"/><text fill="#000000" font-family="sans-serif" font-size="13" font-weight="bold" lengthAdjust="spacing" textLength="33" x="873.5" y="809.1841">loop</text><polygon fill="#A80036" points="1560,830.3828,1570,834.3828,1560,838.3828,1564,834.3828" style="stroke:#A80036;stroke-width:1.0;"/><line style="stroke:#A80036;stroke-width:1.0;" x1="1006" x2="1566" y1="834.3828" y2="834.3828"/><text fill="#000000" font-family="sans-serif" font-size="13" font-weight="bold" lengthAdjust="spacing" textLength="19" x="1013" y="829.3169">20</text><text fill="#000000" font-family="sans-serif" font-size="13" lengthAdjust="spacing" textLength="193" x="1036" y="829.3169">registaEstacionamento(estac)</text><line style="stroke:#A80036;stroke-width:1.0;" x1="1582" x2="1624" y1="868.5156" y2="868.5156"/><line style="stroke:#A80036;stroke-width:1.0;" x1="1624" x2="1624" y1="868.5156" y2="881.5156"/><line style="stroke:#A80036;stroke-width:1.0;" x1="1577" x2="1624" y1="881.5156" y2="881.5156"/><polygon fill="#A80036" points="1587,877.5156,1577,881.5156,1587,885.5156,1583,881.5156" style="stroke:#A80036;stroke-width:1.0;"/><text fill="#000000" font-family="sans-serif" font-size="13" font-weight="bold" lengthAdjust="spacing" textLength="18" x="1589" y="863.4497">21</text><text fill="#000000" font-family="sans-serif" font-size="13" lengthAdjust="spacing" textLength="187" x="1611" y="863.4497">validaEstacionamento(estac)</text><polygon fill="#A80036" points="85,908.6484,75,912.6484,85,916.6484,81,912.6484" style="stroke:#A80036;stroke-width:1.0;"/><line style="stroke:#A80036;stroke-width:1.0;stroke-dasharray:2.0,2.0;" x1="79" x2="560" y1="912.6484" y2="912.6484"/><text fill="#000000" font-family="sans-serif" font-size="13" font-weight="bold" lengthAdjust="spacing" textLength="18" x="91" y="907.5825">22</text><text fill="#000000" font-family="sans-serif" font-size="13" lengthAdjust="spacing" textLength="190" x="113" y="907.5825">informa sucesso da operação</text><!--MD5=[592b609470ef4633bff27dea1563172f]
@startuml
autonumber

actor "Administrador" as ADM
participant ":InserirEstacionamentosUI" as UI
participant ":InserirEstacionamentosController" as CTL
participant ":FarmaciaDB" as FDB
participant ":ParqueDB" as PDB
participant ":EstacionamentoDB" as EDB
participant "estac:Estacionamento" as ESTAC

activate ADM
ADM -> UI : inserção de estacionamentos
activate UI
UI - -> ADM : solicita dados do parque (NIF da farmácia)
deactivate UI

ADM -> UI : introduz os dados solicitados

activate UI
UI -> CTL : farmacia = getFarmaciaByNIF(nif)
activate CTL
CTL -> FDB : farmacia = getFarmaciaByNIF(nif)
activate FDB
deactivate FDB

UI -> CTL : lstParques = getListaParquesByFarmaciaNif(nif)
CTL -> PDB : lstParques = getLstParquesByFarmaciaNif(nif)
activate PDB
deactivate PDB
deactivate CTL
UI - -> ADM : solicita dados do parque (id do parque)
deactivate UI

ADM -> UI : introduz os dados solicitados
activate UI

UI -> CTL : numMax = getNumMaxByFarmaciaNifParqueId(nif, idParque)
activate CTL
CTL -> PDB : numMax = getNumMaxByFarmaciaNifParqueId(nif, idParque)
activate PDB
deactivate PDB
deactivate CTL

loop
UI - -> ADM : solicita dados dos estacionamentos (disponibilidade do carregador)
deactivate UI

ADM - -> UI : introduz os dados solicitados
activate UI

UI -> CTL : novoEstacionamento(numeroLote, carregador, idParque)
activate CTL

CTL -> EDB: estac = novoEstacionamento(numeroLote, carregador, idParque)
activate EDB

EDB - -> ESTAC ** : create(numeroLote, carregador, idParque)

deactivate EDB
deactivate CTL
end

UI - -> ADM : apresenta dados dos estacionamentos e solicita confirmação
deactivate UI
ADM -> UI : confirma
activate UI
UI -> CTL : registaEstacionamentos(lEstac)

loop
activate CTL
CTL -> EDB :registaEstacionamento(estac)
activate EDB

EDB -> EDB : validaEstacionamento(estac)
deactivate EDB
deactivate CTL
end
UI - -> ADM: informa sucesso da operação

deactivate UI
deactivate ADM
@enduml

PlantUML version 1.2021.01beta3(Unknown compile time)
(GPL source distribution)
Java Runtime: Java(TM) SE Runtime Environment
JVM: Java HotSpot(TM) 64-Bit Server VM
Default Encoding: UTF-8
Language: en
Country: US
--></g></svg>