<?xml version="1.0" encoding="UTF-8" standalone="no"?><svg xmlns="http://www.w3.org/2000/svg" xmlns:xlink="http://www.w3.org/1999/xlink" contentScriptType="application/ecmascript" contentStyleType="text/css" height="1085px" preserveAspectRatio="none" style="width:2047px;height:1085px;" version="1.1" viewBox="0 0 2047 1085" width="2047px" zoomAndPan="magnify"><defs><filter height="300%" id="f1v0ifuczkqsgt" width="300%" x="-1" y="-1"><feGaussianBlur result="blurOut" stdDeviation="2.0"/><feColorMatrix in="blurOut" result="blurOut2" type="matrix" values="0 0 0 0 0 0 0 0 0 0 0 0 0 0 0 0 0 0 .4 0"/><feOffset dx="4.0" dy="4.0" in="blurOut2" result="blurOut3"/><feBlend in="SourceGraphic" in2="blurOut3" mode="normal"/></filter></defs><g><rect fill="#FFFFFF" filter="url(#f1v0ifuczkqsgt)" height="885.3516" style="stroke:#A80036;stroke-width:1.0;" width="10" x="54" y="98.2969"/><rect fill="#FFFFFF" filter="url(#f1v0ifuczkqsgt)" height="29.1328" style="stroke:#A80036;stroke-width:1.0;" width="10" x="532" y="119.4297"/><rect fill="#FFFFFF" filter="url(#f1v0ifuczkqsgt)" height="294.7969" style="stroke:#A80036;stroke-width:1.0;" width="10" x="532" y="177.6953"/><rect fill="#FFFFFF" filter="url(#f1v0ifuczkqsgt)" height="323.3594" style="stroke:#A80036;stroke-width:1.0;" width="10" x="532" y="501.625"/><rect fill="#FFFFFF" filter="url(#f1v0ifuczkqsgt)" height="129.5313" style="stroke:#A80036;stroke-width:1.0;" width="10" x="532" y="854.1172"/><rect fill="#FFFFFF" filter="url(#f1v0ifuczkqsgt)" height="236.5313" style="stroke:#A80036;stroke-width:1.0;" width="10" x="912" y="206.8281"/><rect fill="#FFFFFF" filter="url(#f1v0ifuczkqsgt)" height="138.6953" style="stroke:#A80036;stroke-width:1.0;" width="10" x="912" y="554.8906"/><rect fill="#FFFFFF" filter="url(#f1v0ifuczkqsgt)" height="59.1328" style="stroke:#A80036;stroke-width:1.0;" width="10" x="912" y="736.7188"/><rect fill="#FFFFFF" filter="url(#f1v0ifuczkqsgt)" height="64.2656" style="stroke:#A80036;stroke-width:1.0;" width="10" x="912" y="883.25"/><rect fill="#FFFFFF" filter="url(#f1v0ifuczkqsgt)" height="30" style="stroke:#A80036;stroke-width:1.0;" width="10" x="1115" y="235.9609"/><rect fill="#FFFFFF" filter="url(#f1v0ifuczkqsgt)" height="30" style="stroke:#A80036;stroke-width:1.0;" width="10" x="1243.5" y="295.0938"/><rect fill="#FFFFFF" filter="url(#f1v0ifuczkqsgt)" height="30" style="stroke:#A80036;stroke-width:1.0;" width="10" x="1358" y="354.2266"/><rect fill="#FFFFFF" filter="url(#f1v0ifuczkqsgt)" height="29.1328" style="stroke:#A80036;stroke-width:1.0;" width="10" x="1495" y="584.0234"/><rect fill="#FFFFFF" filter="url(#f1v0ifuczkqsgt)" height="35.1328" style="stroke:#A80036;stroke-width:1.0;" width="10" x="1495" y="658.4531"/><rect fill="#FFFFFF" filter="url(#f1v0ifuczkqsgt)" height="30" style="stroke:#A80036;stroke-width:1.0;" width="10" x="1495" y="765.8516"/><rect fill="#FFFFFF" filter="url(#f1v0ifuczkqsgt)" height="35.1328" style="stroke:#A80036;stroke-width:1.0;" width="10" x="1495" y="912.3828"/><rect fill="#FFFFFF" filter="url(#f1v0ifuczkqsgt)" height="30" style="stroke:#A80036;stroke-width:1.0;" width="10" x="1768" y="413.3594"/><rect fill="#FFFFFF" filter="url(#f1v0ifuczkqsgt)" height="191.9609" style="stroke:#000000;stroke-width:2.0;" width="1608.5" x="424.5" y="516.625"/><line style="stroke:#A80036;stroke-width:1.0;stroke-dasharray:5.0,5.0;" x1="59" x2="59" y1="88.2969" y2="1001.6484"/><line style="stroke:#A80036;stroke-width:1.0;stroke-dasharray:5.0,5.0;" x1="536.5" x2="536.5" y1="88.2969" y2="1001.6484"/><line style="stroke:#A80036;stroke-width:1.0;stroke-dasharray:5.0,5.0;" x1="916.5" x2="916.5" y1="88.2969" y2="1001.6484"/><line style="stroke:#A80036;stroke-width:1.0;stroke-dasharray:5.0,5.0;" x1="1119.5" x2="1119.5" y1="88.2969" y2="1001.6484"/><line style="stroke:#A80036;stroke-width:1.0;stroke-dasharray:5.0,5.0;" x1="1248.5" x2="1248.5" y1="88.2969" y2="1001.6484"/><line style="stroke:#A80036;stroke-width:1.0;stroke-dasharray:5.0,5.0;" x1="1362.5" x2="1362.5" y1="88.2969" y2="1001.6484"/><line style="stroke:#A80036;stroke-width:1.0;stroke-dasharray:5.0,5.0;" x1="1499.5" x2="1499.5" y1="88.2969" y2="1001.6484"/><line style="stroke:#A80036;stroke-width:1.0;stroke-dasharray:5.0,5.0;" x1="1773" x2="1773" y1="88.2969" y2="1001.6484"/><line style="stroke:#A80036;stroke-width:1.0;stroke-dasharray:5.0,5.0;" x1="1933" x2="1933" y1="624.6719" y2="1001.6484"/><text fill="#000000" font-family="sans-serif" font-size="14" lengthAdjust="spacing" textLength="102" x="5" y="84.9951">Administrador</text><ellipse cx="59" cy="15" fill="#FEFECE" filter="url(#f1v0ifuczkqsgt)" rx="8" ry="8" style="stroke:#A80036;stroke-width:2.0;"/><path d="M59,23 L59,50 M46,31 L72,31 M59,50 L46,65 M59,50 L72,65 " fill="none" filter="url(#f1v0ifuczkqsgt)" style="stroke:#A80036;stroke-width:2.0;"/><text fill="#000000" font-family="sans-serif" font-size="14" lengthAdjust="spacing" textLength="102" x="5" y="1013.6436">Administrador</text><ellipse cx="59" cy="1026.9453" fill="#FEFECE" filter="url(#f1v0ifuczkqsgt)" rx="8" ry="8" style="stroke:#A80036;stroke-width:2.0;"/><path d="M59,1034.9453 L59,1061.9453 M46,1042.9453 L72,1042.9453 M59,1061.9453 L46,1076.9453 M59,1061.9453 L72,1076.9453 " fill="none" filter="url(#f1v0ifuczkqsgt)" style="stroke:#A80036;stroke-width:2.0;"/><rect fill="#FEFECE" filter="url(#f1v0ifuczkqsgt)" height="30.2969" style="stroke:#A80036;stroke-width:1.5;" width="201" x="434.5" y="53"/><text fill="#000000" font-family="sans-serif" font-size="14" lengthAdjust="spacing" textLength="187" x="441.5" y="72.9951">:InserirEstacionamentosUI</text><rect fill="#FEFECE" filter="url(#f1v0ifuczkqsgt)" height="30.2969" style="stroke:#A80036;stroke-width:1.5;" width="201" x="434.5" y="1000.6484"/><text fill="#000000" font-family="sans-serif" font-size="14" lengthAdjust="spacing" textLength="187" x="441.5" y="1020.6436">:InserirEstacionamentosUI</text><rect fill="#FEFECE" filter="url(#f1v0ifuczkqsgt)" height="30.2969" style="stroke:#A80036;stroke-width:1.5;" width="261" x="784.5" y="53"/><text fill="#000000" font-family="sans-serif" font-size="14" lengthAdjust="spacing" textLength="247" x="791.5" y="72.9951">:InserirEstacionamentosController</text><rect fill="#FEFECE" filter="url(#f1v0ifuczkqsgt)" height="30.2969" style="stroke:#A80036;stroke-width:1.5;" width="261" x="784.5" y="1000.6484"/><text fill="#000000" font-family="sans-serif" font-size="14" lengthAdjust="spacing" textLength="247" x="791.5" y="1020.6436">:InserirEstacionamentosController</text><rect fill="#FEFECE" filter="url(#f1v0ifuczkqsgt)" height="30.2969" style="stroke:#A80036;stroke-width:1.5;" width="117" x="1059.5" y="53"/><text fill="#000000" font-family="sans-serif" font-size="14" lengthAdjust="spacing" textLength="103" x="1066.5" y="72.9951">:AplicacaoPOT</text><rect fill="#FEFECE" filter="url(#f1v0ifuczkqsgt)" height="30.2969" style="stroke:#A80036;stroke-width:1.5;" width="117" x="1059.5" y="1000.6484"/><text fill="#000000" font-family="sans-serif" font-size="14" lengthAdjust="spacing" textLength="103" x="1066.5" y="1020.6436">:AplicacaoPOT</text><rect fill="#FEFECE" filter="url(#f1v0ifuczkqsgt)" height="46.5938" style="stroke:#A80036;stroke-width:1.5;" width="112" x="1190.5" y="36.7031"/><text fill="#000000" font-family="sans-serif" font-size="14" lengthAdjust="spacing" textLength="33" x="1230" y="56.6982">app:</text><text fill="#000000" font-family="sans-serif" font-size="14" lengthAdjust="spacing" textLength="98" x="1197.5" y="72.9951">AplicacaoPOT</text><rect fill="#FEFECE" filter="url(#f1v0ifuczkqsgt)" height="46.5938" style="stroke:#A80036;stroke-width:1.5;" width="112" x="1190.5" y="1000.6484"/><text fill="#000000" font-family="sans-serif" font-size="14" lengthAdjust="spacing" textLength="33" x="1230" y="1020.6436">app:</text><text fill="#000000" font-family="sans-serif" font-size="14" lengthAdjust="spacing" textLength="98" x="1197.5" y="1036.9404">AplicacaoPOT</text><rect fill="#FEFECE" filter="url(#f1v0ifuczkqsgt)" height="30.2969" style="stroke:#A80036;stroke-width:1.5;" width="89" x="1316.5" y="53"/><text fill="#000000" font-family="sans-serif" font-size="14" lengthAdjust="spacing" textLength="75" x="1323.5" y="72.9951">:ParqueDB</text><rect fill="#FEFECE" filter="url(#f1v0ifuczkqsgt)" height="30.2969" style="stroke:#A80036;stroke-width:1.5;" width="89" x="1316.5" y="1000.6484"/><text fill="#000000" font-family="sans-serif" font-size="14" lengthAdjust="spacing" textLength="75" x="1323.5" y="1020.6436">:ParqueDB</text><rect fill="#FEFECE" filter="url(#f1v0ifuczkqsgt)" height="30.2969" style="stroke:#A80036;stroke-width:1.5;" width="157" x="1419.5" y="53"/><text fill="#000000" font-family="sans-serif" font-size="14" lengthAdjust="spacing" textLength="143" x="1426.5" y="72.9951">:EstacionamentoDB</text><rect fill="#FEFECE" filter="url(#f1v0ifuczkqsgt)" height="30.2969" style="stroke:#A80036;stroke-width:1.5;" width="157" x="1419.5" y="1000.6484"/><text fill="#000000" font-family="sans-serif" font-size="14" lengthAdjust="spacing" textLength="143" x="1426.5" y="1020.6436">:EstacionamentoDB</text><rect fill="#FEFECE" filter="url(#f1v0ifuczkqsgt)" height="30.2969" style="stroke:#A80036;stroke-width:1.5;" width="118" x="1712" y="53"/><text fill="#000000" font-family="sans-serif" font-size="14" lengthAdjust="spacing" textLength="104" x="1719" y="72.9951">parque:Parque</text><rect fill="#FEFECE" filter="url(#f1v0ifuczkqsgt)" height="30.2969" style="stroke:#A80036;stroke-width:1.5;" width="118" x="1712" y="1000.6484"/><text fill="#000000" font-family="sans-serif" font-size="14" lengthAdjust="spacing" textLength="104" x="1719" y="1020.6436">parque:Parque</text><rect fill="#FEFECE" filter="url(#f1v0ifuczkqsgt)" height="30.2969" style="stroke:#A80036;stroke-width:1.5;" width="175" x="1844" y="1000.6484"/><text fill="#000000" font-family="sans-serif" font-size="14" lengthAdjust="spacing" textLength="161" x="1851" y="1020.6436">estac:Estacionamento</text><rect fill="#FFFFFF" filter="url(#f1v0ifuczkqsgt)" height="885.3516" style="stroke:#A80036;stroke-width:1.0;" width="10" x="54" y="98.2969"/><rect fill="#FFFFFF" filter="url(#f1v0ifuczkqsgt)" height="29.1328" style="stroke:#A80036;stroke-width:1.0;" width="10" x="532" y="119.4297"/><rect fill="#FFFFFF" filter="url(#f1v0ifuczkqsgt)" height="294.7969" style="stroke:#A80036;stroke-width:1.0;" width="10" x="532" y="177.6953"/><rect fill="#FFFFFF" filter="url(#f1v0ifuczkqsgt)" height="323.3594" style="stroke:#A80036;stroke-width:1.0;" width="10" x="532" y="501.625"/><rect fill="#FFFFFF" filter="url(#f1v0ifuczkqsgt)" height="129.5313" style="stroke:#A80036;stroke-width:1.0;" width="10" x="532" y="854.1172"/><rect fill="#FFFFFF" filter="url(#f1v0ifuczkqsgt)" height="236.5313" style="stroke:#A80036;stroke-width:1.0;" width="10" x="912" y="206.8281"/><rect fill="#FFFFFF" filter="url(#f1v0ifuczkqsgt)" height="138.6953" style="stroke:#A80036;stroke-width:1.0;" width="10" x="912" y="554.8906"/><rect fill="#FFFFFF" filter="url(#f1v0ifuczkqsgt)" height="59.1328" style="stroke:#A80036;stroke-width:1.0;" width="10" x="912" y="736.7188"/><rect fill="#FFFFFF" filter="url(#f1v0ifuczkqsgt)" height="64.2656" style="stroke:#A80036;stroke-width:1.0;" width="10" x="912" y="883.25"/><rect fill="#FFFFFF" filter="url(#f1v0ifuczkqsgt)" height="30" style="stroke:#A80036;stroke-width:1.0;" width="10" x="1115" y="235.9609"/><rect fill="#FFFFFF" filter="url(#f1v0ifuczkqsgt)" height="30" style="stroke:#A80036;stroke-width:1.0;" width="10" x="1243.5" y="295.0938"/><rect fill="#FFFFFF" filter="url(#f1v0ifuczkqsgt)" height="30" style="stroke:#A80036;stroke-width:1.0;" width="10" x="1358" y="354.2266"/><rect fill="#FFFFFF" filter="url(#f1v0ifuczkqsgt)" height="29.1328" style="stroke:#A80036;stroke-width:1.0;" width="10" x="1495" y="584.0234"/><rect fill="#FFFFFF" filter="url(#f1v0ifuczkqsgt)" height="35.1328" style="stroke:#A80036;stroke-width:1.0;" width="10" x="1495" y="658.4531"/><rect fill="#FFFFFF" filter="url(#f1v0ifuczkqsgt)" height="30" style="stroke:#A80036;stroke-width:1.0;" width="10" x="1495" y="765.8516"/><rect fill="#FFFFFF" filter="url(#f1v0ifuczkqsgt)" height="35.1328" style="stroke:#A80036;stroke-width:1.0;" width="10" x="1495" y="912.3828"/><rect fill="#FFFFFF" filter="url(#f1v0ifuczkqsgt)" height="30" style="stroke:#A80036;stroke-width:1.0;" width="10" x="1768" y="413.3594"/><polygon fill="#A80036" points="520,115.4297,530,119.4297,520,123.4297,524,119.4297" style="stroke:#A80036;stroke-width:1.0;"/><line style="stroke:#A80036;stroke-width:1.0;" x1="64" x2="526" y1="119.4297" y2="119.4297"/><text fill="#000000" font-family="sans-serif" font-size="13" font-weight="bold" lengthAdjust="spacing" textLength="9" x="71" y="114.3638">1</text><text fill="#000000" font-family="sans-serif" font-size="13" lengthAdjust="spacing" textLength="189" x="84" y="114.3638">inserção de estacionamentos</text><polygon fill="#A80036" points="75,144.5625,65,148.5625,75,152.5625,71,148.5625" style="stroke:#A80036;stroke-width:1.0;"/><line style="stroke:#A80036;stroke-width:1.0;stroke-dasharray:2.0,2.0;" x1="69" x2="536" y1="148.5625" y2="148.5625"/><text fill="#000000" font-family="sans-serif" font-size="13" font-weight="bold" lengthAdjust="spacing" textLength="9" x="81" y="143.4966">2</text><text fill="#000000" font-family="sans-serif" font-size="13" lengthAdjust="spacing" textLength="270" x="94" y="143.4966">solicita dados do parque (NIF da farmácia)</text><polygon fill="#A80036" points="520,173.6953,530,177.6953,520,181.6953,524,177.6953" style="stroke:#A80036;stroke-width:1.0;"/><line style="stroke:#A80036;stroke-width:1.0;" x1="64" x2="526" y1="177.6953" y2="177.6953"/><text fill="#000000" font-family="sans-serif" font-size="13" font-weight="bold" lengthAdjust="spacing" textLength="8" x="71" y="172.6294">3</text><text fill="#000000" font-family="sans-serif" font-size="13" lengthAdjust="spacing" textLength="185" x="83" y="172.6294">introduz os dados solicitados</text><polygon fill="#A80036" points="900,202.8281,910,206.8281,900,210.8281,904,206.8281" style="stroke:#A80036;stroke-width:1.0;"/><line style="stroke:#A80036;stroke-width:1.0;" x1="542" x2="906" y1="206.8281" y2="206.8281"/><text fill="#000000" font-family="sans-serif" font-size="13" font-weight="bold" lengthAdjust="spacing" textLength="9" x="549" y="201.7622">4</text><text fill="#000000" font-family="sans-serif" font-size="13" lengthAdjust="spacing" textLength="259" x="562" y="201.7622">numMax = getParqueNumMaxByNIF(NIF)</text><polygon fill="#A80036" points="1103,231.9609,1113,235.9609,1103,239.9609,1107,235.9609" style="stroke:#A80036;stroke-width:1.0;"/><line style="stroke:#A80036;stroke-width:1.0;" x1="922" x2="1109" y1="235.9609" y2="235.9609"/><text fill="#000000" font-family="sans-serif" font-size="13" font-weight="bold" lengthAdjust="spacing" textLength="9" x="929" y="230.895">5</text><text fill="#000000" font-family="sans-serif" font-size="13" lengthAdjust="spacing" textLength="127" x="942" y="230.895">app = getInstance()</text><polygon fill="#A80036" points="1231.5,291.0938,1241.5,295.0938,1231.5,299.0938,1235.5,295.0938" style="stroke:#A80036;stroke-width:1.0;"/><line style="stroke:#A80036;stroke-width:1.0;" x1="922" x2="1237.5" y1="295.0938" y2="295.0938"/><text fill="#000000" font-family="sans-serif" font-size="13" font-weight="bold" lengthAdjust="spacing" textLength="9" x="929" y="290.0278">6</text><text fill="#000000" font-family="sans-serif" font-size="13" lengthAdjust="spacing" textLength="173" x="942" y="290.0278">sessao = getSessaoAtual()</text><polygon fill="#A80036" points="1346,350.2266,1356,354.2266,1346,358.2266,1350,354.2266" style="stroke:#A80036;stroke-width:1.0;"/><line style="stroke:#A80036;stroke-width:1.0;" x1="922" x2="1352" y1="354.2266" y2="354.2266"/><text fill="#000000" font-family="sans-serif" font-size="13" font-weight="bold" lengthAdjust="spacing" textLength="9" x="929" y="349.1606">7</text><text fill="#000000" font-family="sans-serif" font-size="13" lengthAdjust="spacing" textLength="193" x="942" y="349.1606">parque = getParqueByNIF(NIF)</text><polygon fill="#A80036" points="1756,409.3594,1766,413.3594,1756,417.3594,1760,413.3594" style="stroke:#A80036;stroke-width:1.0;"/><line style="stroke:#A80036;stroke-width:1.0;" x1="922" x2="1762" y1="413.3594" y2="413.3594"/><text fill="#000000" font-family="sans-serif" font-size="13" font-weight="bold" lengthAdjust="spacing" textLength="9" x="929" y="408.2935">8</text><text fill="#000000" font-family="sans-serif" font-size="13" lengthAdjust="spacing" textLength="160" x="942" y="408.2935">numMax = getNumMax()</text><polygon fill="#A80036" points="75,468.4922,65,472.4922,75,476.4922,71,472.4922" style="stroke:#A80036;stroke-width:1.0;"/><line style="stroke:#A80036;stroke-width:1.0;stroke-dasharray:2.0,2.0;" x1="69" x2="536" y1="472.4922" y2="472.4922"/><text fill="#000000" font-family="sans-serif" font-size="13" font-weight="bold" lengthAdjust="spacing" textLength="9" x="81" y="467.4263">9</text><text fill="#000000" font-family="sans-serif" font-size="13" lengthAdjust="spacing" textLength="431" x="94" y="467.4263">solicita dados dos estacionamentos (disponibilidade do carregador)</text><polygon fill="#A80036" points="520,497.625,530,501.625,520,505.625,524,501.625" style="stroke:#A80036;stroke-width:1.0;"/><line style="stroke:#A80036;stroke-width:1.0;stroke-dasharray:2.0,2.0;" x1="64" x2="526" y1="501.625" y2="501.625"/><text fill="#000000" font-family="sans-serif" font-size="13" font-weight="bold" lengthAdjust="spacing" textLength="19" x="71" y="496.5591">10</text><text fill="#000000" font-family="sans-serif" font-size="13" lengthAdjust="spacing" textLength="185" x="94" y="496.5591">introduz os dados solicitados</text><path d="M424.5,516.625 L502.5,516.625 L502.5,523.625 L492.5,533.625 L424.5,533.625 L424.5,516.625 " fill="#EEEEEE" style="stroke:#000000;stroke-width:1.0;"/><rect fill="none" height="191.9609" style="stroke:#000000;stroke-width:2.0;" width="1608.5" x="424.5" y="516.625"/><text fill="#000000" font-family="sans-serif" font-size="13" font-weight="bold" lengthAdjust="spacing" textLength="33" x="439.5" y="529.6919">loop</text><polygon fill="#A80036" points="900,550.8906,910,554.8906,900,558.8906,904,554.8906" style="stroke:#A80036;stroke-width:1.0;"/><line style="stroke:#A80036;stroke-width:1.0;" x1="542" x2="906" y1="554.8906" y2="554.8906"/><text fill="#000000" font-family="sans-serif" font-size="13" font-weight="bold" lengthAdjust="spacing" textLength="18" x="549" y="549.8247">11</text><text fill="#000000" font-family="sans-serif" font-size="13" lengthAdjust="spacing" textLength="329" x="571" y="549.8247">novoEstacionamento(NIF, numeroLote, carregador)</text><polygon fill="#A80036" points="1483,580.0234,1493,584.0234,1483,588.0234,1487,584.0234" style="stroke:#A80036;stroke-width:1.0;"/><line style="stroke:#A80036;stroke-width:1.0;" x1="922" x2="1489" y1="584.0234" y2="584.0234"/><text fill="#000000" font-family="sans-serif" font-size="13" font-weight="bold" lengthAdjust="spacing" textLength="18" x="929" y="578.9575">12</text><text fill="#000000" font-family="sans-serif" font-size="13" lengthAdjust="spacing" textLength="390" x="951" y="578.9575">estac = novoEstacionameento(NIF, numeroLote, carregador)</text><polygon fill="#A80036" points="1832,609.1563,1842,613.1563,1832,617.1563,1836,613.1563" style="stroke:#A80036;stroke-width:1.0;"/><line style="stroke:#A80036;stroke-width:1.0;stroke-dasharray:2.0,2.0;" x1="1500" x2="1838" y1="613.1563" y2="613.1563"/><text fill="#000000" font-family="sans-serif" font-size="13" font-weight="bold" lengthAdjust="spacing" textLength="17" x="1507" y="608.0903">13</text><text fill="#000000" font-family="sans-serif" font-size="13" lengthAdjust="spacing" textLength="234" x="1528" y="608.0903">create(NIF, numeroLote, carregador)</text><rect fill="#FEFECE" filter="url(#f1v0ifuczkqsgt)" height="30.2969" style="stroke:#A80036;stroke-width:1.5;" width="175" x="1844" y="592.0234"/><text fill="#000000" font-family="sans-serif" font-size="14" lengthAdjust="spacing" textLength="161" x="1851" y="612.0186">estac:Estacionamento</text><polygon fill="#A80036" points="1483,654.4531,1493,658.4531,1483,662.4531,1487,658.4531" style="stroke:#A80036;stroke-width:1.0;"/><line style="stroke:#A80036;stroke-width:1.0;" x1="922" x2="1489" y1="658.4531" y2="658.4531"/><text fill="#000000" font-family="sans-serif" font-size="13" font-weight="bold" lengthAdjust="spacing" textLength="18" x="929" y="653.3872">14</text><text fill="#000000" font-family="sans-serif" font-size="13" lengthAdjust="spacing" textLength="187" x="951" y="653.3872">validaEstacionamento(estac)</text><line style="stroke:#A80036;stroke-width:1.0;" x1="1505" x2="1547" y1="692.5859" y2="692.5859"/><line style="stroke:#A80036;stroke-width:1.0;" x1="1547" x2="1547" y1="692.5859" y2="705.5859"/><line style="stroke:#A80036;stroke-width:1.0;" x1="1500" x2="1547" y1="705.5859" y2="705.5859"/><polygon fill="#A80036" points="1510,701.5859,1500,705.5859,1510,709.5859,1506,705.5859" style="stroke:#A80036;stroke-width:1.0;"/><text fill="#000000" font-family="sans-serif" font-size="13" font-weight="bold" lengthAdjust="spacing" textLength="18" x="1512" y="687.52">15</text><text fill="#000000" font-family="sans-serif" font-size="13" lengthAdjust="spacing" textLength="173" x="1534" y="687.52">addEstacionamento(estac)</text><polygon fill="#A80036" points="900,732.7188,910,736.7188,900,740.7188,904,736.7188" style="stroke:#A80036;stroke-width:1.0;"/><line style="stroke:#A80036;stroke-width:1.0;stroke-dasharray:2.0,2.0;" x1="542" x2="906" y1="736.7188" y2="736.7188"/><text fill="#000000" font-family="sans-serif" font-size="13" font-weight="bold" lengthAdjust="spacing" textLength="18" x="549" y="731.6528">16</text><text fill="#000000" font-family="sans-serif" font-size="13" lengthAdjust="spacing" textLength="228" x="571" y="731.6528">lEstac = getListaEstacionamentos()</text><polygon fill="#A80036" points="1483,761.8516,1493,765.8516,1483,769.8516,1487,765.8516" style="stroke:#A80036;stroke-width:1.0;"/><line style="stroke:#A80036;stroke-width:1.0;stroke-dasharray:2.0,2.0;" x1="922" x2="1489" y1="765.8516" y2="765.8516"/><text fill="#000000" font-family="sans-serif" font-size="13" font-weight="bold" lengthAdjust="spacing" textLength="18" x="929" y="760.7856">17</text><text fill="#000000" font-family="sans-serif" font-size="13" lengthAdjust="spacing" textLength="194" x="951" y="760.7856">lEstac= getEstacionamentos()</text><polygon fill="#A80036" points="75,820.9844,65,824.9844,75,828.9844,71,824.9844" style="stroke:#A80036;stroke-width:1.0;"/><line style="stroke:#A80036;stroke-width:1.0;stroke-dasharray:2.0,2.0;" x1="69" x2="536" y1="824.9844" y2="824.9844"/><text fill="#000000" font-family="sans-serif" font-size="13" font-weight="bold" lengthAdjust="spacing" textLength="18" x="81" y="819.9185">18</text><text fill="#000000" font-family="sans-serif" font-size="13" lengthAdjust="spacing" textLength="394" x="103" y="819.9185">apresenta dados dos estacionamentos e solicita confirmação</text><polygon fill="#A80036" points="520,850.1172,530,854.1172,520,858.1172,524,854.1172" style="stroke:#A80036;stroke-width:1.0;"/><line style="stroke:#A80036;stroke-width:1.0;" x1="64" x2="526" y1="854.1172" y2="854.1172"/><text fill="#000000" font-family="sans-serif" font-size="13" font-weight="bold" lengthAdjust="spacing" textLength="18" x="71" y="849.0513">19</text><text fill="#000000" font-family="sans-serif" font-size="13" lengthAdjust="spacing" textLength="57" x="93" y="849.0513">confirma</text><polygon fill="#A80036" points="900,879.25,910,883.25,900,887.25,904,883.25" style="stroke:#A80036;stroke-width:1.0;"/><line style="stroke:#A80036;stroke-width:1.0;" x1="542" x2="906" y1="883.25" y2="883.25"/><text fill="#000000" font-family="sans-serif" font-size="13" font-weight="bold" lengthAdjust="spacing" textLength="19" x="549" y="878.1841">20</text><text fill="#000000" font-family="sans-serif" font-size="13" lengthAdjust="spacing" textLength="183" x="572" y="878.1841">addEstacionamentos(lEstac)</text><polygon fill="#A80036" points="1483,908.3828,1493,912.3828,1483,916.3828,1487,912.3828" style="stroke:#A80036;stroke-width:1.0;"/><line style="stroke:#A80036;stroke-width:1.0;" x1="922" x2="1489" y1="912.3828" y2="912.3828"/><text fill="#000000" font-family="sans-serif" font-size="13" font-weight="bold" lengthAdjust="spacing" textLength="18" x="929" y="907.3169">21</text><text fill="#000000" font-family="sans-serif" font-size="13" lengthAdjust="spacing" textLength="183" x="951" y="907.3169">addEstacionamentos(lEstac)</text><line style="stroke:#A80036;stroke-width:1.0;" x1="1505" x2="1547" y1="946.5156" y2="946.5156"/><line style="stroke:#A80036;stroke-width:1.0;" x1="1547" x2="1547" y1="946.5156" y2="959.5156"/><line style="stroke:#A80036;stroke-width:1.0;" x1="1500" x2="1547" y1="959.5156" y2="959.5156"/><polygon fill="#A80036" points="1510,955.5156,1500,959.5156,1510,963.5156,1506,959.5156" style="stroke:#A80036;stroke-width:1.0;"/><text fill="#000000" font-family="sans-serif" font-size="13" font-weight="bold" lengthAdjust="spacing" textLength="18" x="1512" y="941.4497">22</text><text fill="#000000" font-family="sans-serif" font-size="13" lengthAdjust="spacing" textLength="227" x="1534" y="941.4497">validaListaEstacionamentos(lEstac)</text><polygon fill="#A80036" points="70,979.6484,60,983.6484,70,987.6484,66,983.6484" style="stroke:#A80036;stroke-width:1.0;"/><line style="stroke:#A80036;stroke-width:1.0;stroke-dasharray:2.0,2.0;" x1="64" x2="536" y1="983.6484" y2="983.6484"/><text fill="#000000" font-family="sans-serif" font-size="13" font-weight="bold" lengthAdjust="spacing" textLength="17" x="76" y="978.5825">23</text><text fill="#000000" font-family="sans-serif" font-size="13" lengthAdjust="spacing" textLength="190" x="97" y="978.5825">informa sucesso da operação</text><!--MD5=[57e635010666832519f2e715ea29a028]
@startuml
autonumber

actor "Administrador" as ADM
participant ":InserirEstacionamentosUI" as UI
participant ":InserirEstacionamentosController" as CTL
participant ":AplicacaoPOT" as _APP
participant "app:\nAplicacaoPOT" as APP
participant ":ParqueDB" as PDB
participant ":EstacionamentoDB" as EDB
participant "parque:Parque" as PARK
participant "estac:Estacionamento" as ESTAC

activate ADM
ADM -> UI : inserção de estacionamentos
activate UI
UI - -> ADM : solicita dados do parque (NIF da farmácia)
deactivate UI

ADM -> UI : introduz os dados solicitados

activate UI
UI -> CTL : numMax = getParqueNumMaxByNIF(NIF)
activate CTL
CTL -> _APP : app = getInstance()
activate _APP
deactivate _APP
CTL -> APP : sessao = getSessaoAtual()
activate APP
deactivate APP

CTL -> PDB : parque = getParqueByNIF(NIF)
activate PDB
deactivate PDB

CTL -> PARK : numMax = getNumMax()
activate PARK
deactivate PARK
deactivate CTL

UI - -> ADM : solicita dados dos estacionamentos (disponibilidade do carregador)
deactivate UI

ADM - -> UI : introduz os dados solicitados
activate UI

loop
UI -> CTL : novoEstacionamento(NIF, numeroLote, carregador)
activate CTL

CTL -> EDB: estac = novoEstacionameento(NIF, numeroLote, carregador)
activate EDB

EDB - -> ESTAC ** : create(NIF, numeroLote, carregador)

deactivate EDB

CTL -> EDB : validaEstacionamento(estac)
activate EDB
EDB -> EDB : addEstacionamento(estac)
deactivate EDB

deactivate CTL
end

UI - -> CTL : lEstac = getListaEstacionamentos()
activate CTL
CTL - -> EDB : lEstac= getEstacionamentos()
activate EDB
deactivate EDB
deactivate CTL

UI - -> ADM : apresenta dados dos estacionamentos e solicita confirmação
deactivate UI
ADM -> UI : confirma
activate UI
UI -> CTL : addEstacionamentos(lEstac)

activate CTL
CTL -> EDB :addEstacionamentos(lEstac)
activate EDB

EDB -> EDB : validaListaEstacionamentos(lEstac)
deactivate EDB
deactivate CTL
UI - -> ADM: informa sucesso da operação

deactivate UI
deactivate ADM
@enduml

PlantUML version 1.2020.27beta7(Unknown compile time)
(GPL source distribution)
Java Runtime: Java(TM) SE Runtime Environment
JVM: Java HotSpot(TM) 64-Bit Server VM
Default Encoding: UTF-8
Language: en
Country: US
--></g></svg>