<?xml version="1.0" encoding="UTF-8" standalone="no"?><svg xmlns="http://www.w3.org/2000/svg" xmlns:xlink="http://www.w3.org/1999/xlink" contentScriptType="application/ecmascript" contentStyleType="text/css" height="780px" preserveAspectRatio="none" style="width:1995px;height:780px;" version="1.1" viewBox="0 0 1995 780" width="1995px" zoomAndPan="magnify"><defs><filter height="300%" id="fhwij3ja2m896" width="300%" x="-1" y="-1"><feGaussianBlur result="blurOut" stdDeviation="2.0"/><feColorMatrix in="blurOut" result="blurOut2" type="matrix" values="0 0 0 0 0 0 0 0 0 0 0 0 0 0 0 0 0 0 .4 0"/><feOffset dx="4.0" dy="4.0" in="blurOut2" result="blurOut3"/><feBlend in="SourceGraphic" in2="blurOut3" mode="normal"/></filter></defs><g><rect fill="#FFFFFF" filter="url(#fhwij3ja2m896)" height="579.5547" style="stroke:#A80036;stroke-width:1.0;" width="10" x="69" y="98.2969"/><rect fill="#FFFFFF" filter="url(#fhwij3ja2m896)" height="29.1328" style="stroke:#A80036;stroke-width:1.0;" width="10" x="547" y="119.4297"/><rect fill="#FFFFFF" filter="url(#fhwij3ja2m896)" height="141.5313" style="stroke:#A80036;stroke-width:1.0;" width="10" x="547" y="177.6953"/><rect fill="#FFFFFF" filter="url(#fhwij3ja2m896)" height="139.6953" style="stroke:#A80036;stroke-width:1.0;" width="10" x="547" y="348.3594"/><rect fill="#FFFFFF" filter="url(#fhwij3ja2m896)" height="160.6641" style="stroke:#A80036;stroke-width:1.0;" width="10" x="547" y="517.1875"/><rect fill="#FFFFFF" filter="url(#fhwij3ja2m896)" height="59.1328" style="stroke:#A80036;stroke-width:1.0;" width="10" x="918" y="206.8281"/><rect fill="#FFFFFF" filter="url(#fhwij3ja2m896)" height="58.2656" style="stroke:#A80036;stroke-width:1.0;" width="10" x="918" y="377.4922"/><rect fill="#FFFFFF" filter="url(#fhwij3ja2m896)" height="88.3984" style="stroke:#A80036;stroke-width:1.0;" width="10" x="918" y="546.3203"/><rect fill="#FFFFFF" filter="url(#fhwij3ja2m896)" height="30" style="stroke:#A80036;stroke-width:1.0;" width="10" x="1364" y="235.9609"/><rect fill="#FFFFFF" filter="url(#fhwij3ja2m896)" height="29.1328" style="stroke:#A80036;stroke-width:1.0;" width="10" x="1501" y="406.625"/><rect fill="#FFFFFF" filter="url(#fhwij3ja2m896)" height="35.1328" style="stroke:#A80036;stroke-width:1.0;" width="10" x="1501" y="599.5859"/><rect fill="#FFFFFF" filter="url(#fhwij3ja2m896)" height="178.9609" style="stroke:#000000;stroke-width:2.0;" width="1971" x="10" y="280.9609"/><rect fill="#FFFFFF" filter="url(#fhwij3ja2m896)" height="88.3984" style="stroke:#000000;stroke-width:2.0;" width="958.5" x="780.5" y="561.3203"/><line style="stroke:#A80036;stroke-width:1.0;stroke-dasharray:5.0,5.0;" x1="74" x2="74" y1="88.2969" y2="695.8516"/><line style="stroke:#A80036;stroke-width:1.0;stroke-dasharray:5.0,5.0;" x1="551.5" x2="551.5" y1="88.2969" y2="695.8516"/><line style="stroke:#A80036;stroke-width:1.0;stroke-dasharray:5.0,5.0;" x1="922.5" x2="922.5" y1="88.2969" y2="695.8516"/><line style="stroke:#A80036;stroke-width:1.0;stroke-dasharray:5.0,5.0;" x1="1125.5" x2="1125.5" y1="88.2969" y2="695.8516"/><line style="stroke:#A80036;stroke-width:1.0;stroke-dasharray:5.0,5.0;" x1="1254.5" x2="1254.5" y1="88.2969" y2="695.8516"/><line style="stroke:#A80036;stroke-width:1.0;stroke-dasharray:5.0,5.0;" x1="1368.5" x2="1368.5" y1="88.2969" y2="695.8516"/><line style="stroke:#A80036;stroke-width:1.0;stroke-dasharray:5.0,5.0;" x1="1505.5" x2="1505.5" y1="88.2969" y2="695.8516"/><line style="stroke:#A80036;stroke-width:1.0;stroke-dasharray:5.0,5.0;" x1="1881" x2="1881" y1="447.2734" y2="695.8516"/><text fill="#000000" font-family="sans-serif" font-size="14" lengthAdjust="spacing" textLength="102" x="20" y="84.9951">Administrador</text><ellipse cx="74" cy="15" fill="#FEFECE" filter="url(#fhwij3ja2m896)" rx="8" ry="8" style="stroke:#A80036;stroke-width:2.0;"/><path d="M74,23 L74,50 M61,31 L87,31 M74,50 L61,65 M74,50 L87,65 " fill="none" filter="url(#fhwij3ja2m896)" style="stroke:#A80036;stroke-width:2.0;"/><text fill="#000000" font-family="sans-serif" font-size="14" lengthAdjust="spacing" textLength="102" x="20" y="707.8467">Administrador</text><ellipse cx="74" cy="721.1484" fill="#FEFECE" filter="url(#fhwij3ja2m896)" rx="8" ry="8" style="stroke:#A80036;stroke-width:2.0;"/><path d="M74,729.1484 L74,756.1484 M61,737.1484 L87,737.1484 M74,756.1484 L61,771.1484 M74,756.1484 L87,771.1484 " fill="none" filter="url(#fhwij3ja2m896)" style="stroke:#A80036;stroke-width:2.0;"/><rect fill="#FEFECE" filter="url(#fhwij3ja2m896)" height="30.2969" style="stroke:#A80036;stroke-width:1.5;" width="201" x="449.5" y="53"/><text fill="#000000" font-family="sans-serif" font-size="14" lengthAdjust="spacing" textLength="187" x="456.5" y="72.9951">:InserirEstacionamentosUI</text><rect fill="#FEFECE" filter="url(#fhwij3ja2m896)" height="30.2969" style="stroke:#A80036;stroke-width:1.5;" width="201" x="449.5" y="694.8516"/><text fill="#000000" font-family="sans-serif" font-size="14" lengthAdjust="spacing" textLength="187" x="456.5" y="714.8467">:InserirEstacionamentosUI</text><rect fill="#FEFECE" filter="url(#fhwij3ja2m896)" height="30.2969" style="stroke:#A80036;stroke-width:1.5;" width="261" x="790.5" y="53"/><text fill="#000000" font-family="sans-serif" font-size="14" lengthAdjust="spacing" textLength="247" x="797.5" y="72.9951">:InserirEstacionamentosController</text><rect fill="#FEFECE" filter="url(#fhwij3ja2m896)" height="30.2969" style="stroke:#A80036;stroke-width:1.5;" width="261" x="790.5" y="694.8516"/><text fill="#000000" font-family="sans-serif" font-size="14" lengthAdjust="spacing" textLength="247" x="797.5" y="714.8467">:InserirEstacionamentosController</text><rect fill="#FEFECE" filter="url(#fhwij3ja2m896)" height="30.2969" style="stroke:#A80036;stroke-width:1.5;" width="117" x="1065.5" y="53"/><text fill="#000000" font-family="sans-serif" font-size="14" lengthAdjust="spacing" textLength="103" x="1072.5" y="72.9951">:AplicacaoPOT</text><rect fill="#FEFECE" filter="url(#fhwij3ja2m896)" height="30.2969" style="stroke:#A80036;stroke-width:1.5;" width="117" x="1065.5" y="694.8516"/><text fill="#000000" font-family="sans-serif" font-size="14" lengthAdjust="spacing" textLength="103" x="1072.5" y="714.8467">:AplicacaoPOT</text><rect fill="#FEFECE" filter="url(#fhwij3ja2m896)" height="46.5938" style="stroke:#A80036;stroke-width:1.5;" width="112" x="1196.5" y="36.7031"/><text fill="#000000" font-family="sans-serif" font-size="14" lengthAdjust="spacing" textLength="33" x="1236" y="56.6982">app:</text><text fill="#000000" font-family="sans-serif" font-size="14" lengthAdjust="spacing" textLength="98" x="1203.5" y="72.9951">AplicacaoPOT</text><rect fill="#FEFECE" filter="url(#fhwij3ja2m896)" height="46.5938" style="stroke:#A80036;stroke-width:1.5;" width="112" x="1196.5" y="694.8516"/><text fill="#000000" font-family="sans-serif" font-size="14" lengthAdjust="spacing" textLength="33" x="1236" y="714.8467">app:</text><text fill="#000000" font-family="sans-serif" font-size="14" lengthAdjust="spacing" textLength="98" x="1203.5" y="731.1436">AplicacaoPOT</text><rect fill="#FEFECE" filter="url(#fhwij3ja2m896)" height="30.2969" style="stroke:#A80036;stroke-width:1.5;" width="89" x="1322.5" y="53"/><text fill="#000000" font-family="sans-serif" font-size="14" lengthAdjust="spacing" textLength="75" x="1329.5" y="72.9951">:ParqueDB</text><rect fill="#FEFECE" filter="url(#fhwij3ja2m896)" height="30.2969" style="stroke:#A80036;stroke-width:1.5;" width="89" x="1322.5" y="694.8516"/><text fill="#000000" font-family="sans-serif" font-size="14" lengthAdjust="spacing" textLength="75" x="1329.5" y="714.8467">:ParqueDB</text><rect fill="#FEFECE" filter="url(#fhwij3ja2m896)" height="30.2969" style="stroke:#A80036;stroke-width:1.5;" width="157" x="1425.5" y="53"/><text fill="#000000" font-family="sans-serif" font-size="14" lengthAdjust="spacing" textLength="143" x="1432.5" y="72.9951">:EstacionamentoDB</text><rect fill="#FEFECE" filter="url(#fhwij3ja2m896)" height="30.2969" style="stroke:#A80036;stroke-width:1.5;" width="157" x="1425.5" y="694.8516"/><text fill="#000000" font-family="sans-serif" font-size="14" lengthAdjust="spacing" textLength="143" x="1432.5" y="714.8467">:EstacionamentoDB</text><rect fill="#FEFECE" filter="url(#fhwij3ja2m896)" height="30.2969" style="stroke:#A80036;stroke-width:1.5;" width="175" x="1792" y="694.8516"/><text fill="#000000" font-family="sans-serif" font-size="14" lengthAdjust="spacing" textLength="161" x="1799" y="714.8467">estac:Estacionamento</text><rect fill="#FFFFFF" filter="url(#fhwij3ja2m896)" height="579.5547" style="stroke:#A80036;stroke-width:1.0;" width="10" x="69" y="98.2969"/><rect fill="#FFFFFF" filter="url(#fhwij3ja2m896)" height="29.1328" style="stroke:#A80036;stroke-width:1.0;" width="10" x="547" y="119.4297"/><rect fill="#FFFFFF" filter="url(#fhwij3ja2m896)" height="141.5313" style="stroke:#A80036;stroke-width:1.0;" width="10" x="547" y="177.6953"/><rect fill="#FFFFFF" filter="url(#fhwij3ja2m896)" height="139.6953" style="stroke:#A80036;stroke-width:1.0;" width="10" x="547" y="348.3594"/><rect fill="#FFFFFF" filter="url(#fhwij3ja2m896)" height="160.6641" style="stroke:#A80036;stroke-width:1.0;" width="10" x="547" y="517.1875"/><rect fill="#FFFFFF" filter="url(#fhwij3ja2m896)" height="59.1328" style="stroke:#A80036;stroke-width:1.0;" width="10" x="918" y="206.8281"/><rect fill="#FFFFFF" filter="url(#fhwij3ja2m896)" height="58.2656" style="stroke:#A80036;stroke-width:1.0;" width="10" x="918" y="377.4922"/><rect fill="#FFFFFF" filter="url(#fhwij3ja2m896)" height="88.3984" style="stroke:#A80036;stroke-width:1.0;" width="10" x="918" y="546.3203"/><rect fill="#FFFFFF" filter="url(#fhwij3ja2m896)" height="30" style="stroke:#A80036;stroke-width:1.0;" width="10" x="1364" y="235.9609"/><rect fill="#FFFFFF" filter="url(#fhwij3ja2m896)" height="29.1328" style="stroke:#A80036;stroke-width:1.0;" width="10" x="1501" y="406.625"/><rect fill="#FFFFFF" filter="url(#fhwij3ja2m896)" height="35.1328" style="stroke:#A80036;stroke-width:1.0;" width="10" x="1501" y="599.5859"/><polygon fill="#A80036" points="535,115.4297,545,119.4297,535,123.4297,539,119.4297" style="stroke:#A80036;stroke-width:1.0;"/><line style="stroke:#A80036;stroke-width:1.0;" x1="79" x2="541" y1="119.4297" y2="119.4297"/><text fill="#000000" font-family="sans-serif" font-size="13" font-weight="bold" lengthAdjust="spacing" textLength="9" x="86" y="114.3638">1</text><text fill="#000000" font-family="sans-serif" font-size="13" lengthAdjust="spacing" textLength="189" x="99" y="114.3638">inserção de estacionamentos</text><polygon fill="#A80036" points="90,144.5625,80,148.5625,90,152.5625,86,148.5625" style="stroke:#A80036;stroke-width:1.0;"/><line style="stroke:#A80036;stroke-width:1.0;stroke-dasharray:2.0,2.0;" x1="84" x2="551" y1="148.5625" y2="148.5625"/><text fill="#000000" font-family="sans-serif" font-size="13" font-weight="bold" lengthAdjust="spacing" textLength="9" x="96" y="143.4966">2</text><text fill="#000000" font-family="sans-serif" font-size="13" lengthAdjust="spacing" textLength="270" x="109" y="143.4966">solicita dados do parque (NIF da farmácia)</text><polygon fill="#A80036" points="535,173.6953,545,177.6953,535,181.6953,539,177.6953" style="stroke:#A80036;stroke-width:1.0;"/><line style="stroke:#A80036;stroke-width:1.0;" x1="79" x2="541" y1="177.6953" y2="177.6953"/><text fill="#000000" font-family="sans-serif" font-size="13" font-weight="bold" lengthAdjust="spacing" textLength="8" x="86" y="172.6294">3</text><text fill="#000000" font-family="sans-serif" font-size="13" lengthAdjust="spacing" textLength="185" x="98" y="172.6294">introduz os dados solicitados</text><polygon fill="#A80036" points="906,202.8281,916,206.8281,906,210.8281,910,206.8281" style="stroke:#A80036;stroke-width:1.0;"/><line style="stroke:#A80036;stroke-width:1.0;" x1="557" x2="912" y1="206.8281" y2="206.8281"/><text fill="#000000" font-family="sans-serif" font-size="13" font-weight="bold" lengthAdjust="spacing" textLength="9" x="564" y="201.7622">4</text><text fill="#000000" font-family="sans-serif" font-size="13" lengthAdjust="spacing" textLength="259" x="577" y="201.7622">numMax = getNumMaxParqueByNIF(NIF)</text><polygon fill="#A80036" points="1352,231.9609,1362,235.9609,1352,239.9609,1356,235.9609" style="stroke:#A80036;stroke-width:1.0;"/><line style="stroke:#A80036;stroke-width:1.0;" x1="928" x2="1358" y1="235.9609" y2="235.9609"/><text fill="#000000" font-family="sans-serif" font-size="13" font-weight="bold" lengthAdjust="spacing" textLength="9" x="935" y="230.895">5</text><text fill="#000000" font-family="sans-serif" font-size="13" lengthAdjust="spacing" textLength="259" x="948" y="230.895">numMax = getNumMaxParqueByNIF(NIF)</text><path d="M10,280.9609 L88,280.9609 L88,287.9609 L78,297.9609 L10,297.9609 L10,280.9609 " fill="#EEEEEE" style="stroke:#000000;stroke-width:1.0;"/><rect fill="none" height="178.9609" style="stroke:#000000;stroke-width:2.0;" width="1971" x="10" y="280.9609"/><text fill="#000000" font-family="sans-serif" font-size="13" font-weight="bold" lengthAdjust="spacing" textLength="33" x="25" y="294.0278">loop</text><polygon fill="#A80036" points="90,315.2266,80,319.2266,90,323.2266,86,319.2266" style="stroke:#A80036;stroke-width:1.0;"/><line style="stroke:#A80036;stroke-width:1.0;stroke-dasharray:2.0,2.0;" x1="84" x2="551" y1="319.2266" y2="319.2266"/><text fill="#000000" font-family="sans-serif" font-size="13" font-weight="bold" lengthAdjust="spacing" textLength="9" x="96" y="314.1606">6</text><text fill="#000000" font-family="sans-serif" font-size="13" lengthAdjust="spacing" textLength="431" x="109" y="314.1606">solicita dados dos estacionamentos (disponibilidade do carregador)</text><polygon fill="#A80036" points="535,344.3594,545,348.3594,535,352.3594,539,348.3594" style="stroke:#A80036;stroke-width:1.0;"/><line style="stroke:#A80036;stroke-width:1.0;stroke-dasharray:2.0,2.0;" x1="79" x2="541" y1="348.3594" y2="348.3594"/><text fill="#000000" font-family="sans-serif" font-size="13" font-weight="bold" lengthAdjust="spacing" textLength="9" x="86" y="343.2935">7</text><text fill="#000000" font-family="sans-serif" font-size="13" lengthAdjust="spacing" textLength="185" x="99" y="343.2935">introduz os dados solicitados</text><polygon fill="#A80036" points="906,373.4922,916,377.4922,906,381.4922,910,377.4922" style="stroke:#A80036;stroke-width:1.0;"/><line style="stroke:#A80036;stroke-width:1.0;" x1="557" x2="912" y1="377.4922" y2="377.4922"/><text fill="#000000" font-family="sans-serif" font-size="13" font-weight="bold" lengthAdjust="spacing" textLength="9" x="564" y="372.4263">8</text><text fill="#000000" font-family="sans-serif" font-size="13" lengthAdjust="spacing" textLength="329" x="577" y="372.4263">novoEstacionamento(numeroLote, carregador, NIF)</text><polygon fill="#A80036" points="1489,402.625,1499,406.625,1489,410.625,1493,406.625" style="stroke:#A80036;stroke-width:1.0;"/><line style="stroke:#A80036;stroke-width:1.0;" x1="928" x2="1495" y1="406.625" y2="406.625"/><text fill="#000000" font-family="sans-serif" font-size="13" font-weight="bold" lengthAdjust="spacing" textLength="9" x="935" y="401.5591">9</text><text fill="#000000" font-family="sans-serif" font-size="13" lengthAdjust="spacing" textLength="382" x="948" y="401.5591">estac = novoEstacionamento(numeroLote, carregador, NIF)</text><polygon fill="#A80036" points="1780,431.7578,1790,435.7578,1780,439.7578,1784,435.7578" style="stroke:#A80036;stroke-width:1.0;"/><line style="stroke:#A80036;stroke-width:1.0;stroke-dasharray:2.0,2.0;" x1="1506" x2="1786" y1="435.7578" y2="435.7578"/><text fill="#000000" font-family="sans-serif" font-size="13" font-weight="bold" lengthAdjust="spacing" textLength="19" x="1513" y="430.6919">10</text><text fill="#000000" font-family="sans-serif" font-size="13" lengthAdjust="spacing" textLength="234" x="1536" y="430.6919">create(numeroLote, carregador, NIF)</text><rect fill="#FEFECE" filter="url(#fhwij3ja2m896)" height="30.2969" style="stroke:#A80036;stroke-width:1.5;" width="175" x="1792" y="414.625"/><text fill="#000000" font-family="sans-serif" font-size="14" lengthAdjust="spacing" textLength="161" x="1799" y="434.6201">estac:Estacionamento</text><polygon fill="#A80036" points="90,484.0547,80,488.0547,90,492.0547,86,488.0547" style="stroke:#A80036;stroke-width:1.0;"/><line style="stroke:#A80036;stroke-width:1.0;stroke-dasharray:2.0,2.0;" x1="84" x2="551" y1="488.0547" y2="488.0547"/><text fill="#000000" font-family="sans-serif" font-size="13" font-weight="bold" lengthAdjust="spacing" textLength="18" x="96" y="482.9888">11</text><text fill="#000000" font-family="sans-serif" font-size="13" lengthAdjust="spacing" textLength="394" x="118" y="482.9888">apresenta dados dos estacionamentos e solicita confirmação</text><polygon fill="#A80036" points="535,513.1875,545,517.1875,535,521.1875,539,517.1875" style="stroke:#A80036;stroke-width:1.0;"/><line style="stroke:#A80036;stroke-width:1.0;" x1="79" x2="541" y1="517.1875" y2="517.1875"/><text fill="#000000" font-family="sans-serif" font-size="13" font-weight="bold" lengthAdjust="spacing" textLength="18" x="86" y="512.1216">12</text><text fill="#000000" font-family="sans-serif" font-size="13" lengthAdjust="spacing" textLength="57" x="108" y="512.1216">confirma</text><polygon fill="#A80036" points="906,542.3203,916,546.3203,906,550.3203,910,546.3203" style="stroke:#A80036;stroke-width:1.0;"/><line style="stroke:#A80036;stroke-width:1.0;" x1="557" x2="912" y1="546.3203" y2="546.3203"/><text fill="#000000" font-family="sans-serif" font-size="13" font-weight="bold" lengthAdjust="spacing" textLength="17" x="564" y="541.2544">13</text><text fill="#000000" font-family="sans-serif" font-size="13" lengthAdjust="spacing" textLength="203" x="585" y="541.2544">registaEstacionamentos(lEstac)</text><path d="M780.5,561.3203 L858.5,561.3203 L858.5,568.3203 L848.5,578.3203 L780.5,578.3203 L780.5,561.3203 " fill="#EEEEEE" style="stroke:#000000;stroke-width:1.0;"/><rect fill="none" height="88.3984" style="stroke:#000000;stroke-width:2.0;" width="958.5" x="780.5" y="561.3203"/><text fill="#000000" font-family="sans-serif" font-size="13" font-weight="bold" lengthAdjust="spacing" textLength="33" x="795.5" y="574.3872">loop</text><polygon fill="#A80036" points="1489,595.5859,1499,599.5859,1489,603.5859,1493,599.5859" style="stroke:#A80036;stroke-width:1.0;"/><line style="stroke:#A80036;stroke-width:1.0;" x1="928" x2="1495" y1="599.5859" y2="599.5859"/><text fill="#000000" font-family="sans-serif" font-size="13" font-weight="bold" lengthAdjust="spacing" textLength="18" x="935" y="594.52">14</text><text fill="#000000" font-family="sans-serif" font-size="13" lengthAdjust="spacing" textLength="193" x="957" y="594.52">registaEstacionamento(estac)</text><line style="stroke:#A80036;stroke-width:1.0;" x1="1511" x2="1553" y1="633.7188" y2="633.7188"/><line style="stroke:#A80036;stroke-width:1.0;" x1="1553" x2="1553" y1="633.7188" y2="646.7188"/><line style="stroke:#A80036;stroke-width:1.0;" x1="1506" x2="1553" y1="646.7188" y2="646.7188"/><polygon fill="#A80036" points="1516,642.7188,1506,646.7188,1516,650.7188,1512,646.7188" style="stroke:#A80036;stroke-width:1.0;"/><text fill="#000000" font-family="sans-serif" font-size="13" font-weight="bold" lengthAdjust="spacing" textLength="18" x="1518" y="628.6528">15</text><text fill="#000000" font-family="sans-serif" font-size="13" lengthAdjust="spacing" textLength="187" x="1540" y="628.6528">validaEstacionamento(estac)</text><polygon fill="#A80036" points="85,673.8516,75,677.8516,85,681.8516,81,677.8516" style="stroke:#A80036;stroke-width:1.0;"/><line style="stroke:#A80036;stroke-width:1.0;stroke-dasharray:2.0,2.0;" x1="79" x2="551" y1="677.8516" y2="677.8516"/><text fill="#000000" font-family="sans-serif" font-size="13" font-weight="bold" lengthAdjust="spacing" textLength="18" x="91" y="672.7856">16</text><text fill="#000000" font-family="sans-serif" font-size="13" lengthAdjust="spacing" textLength="190" x="113" y="672.7856">informa sucesso da operação</text><!--MD5=[c41c06c2b3542ed9b877b5bd7f074eb6]
@startuml
autonumber

actor "Administrador" as ADM
participant ":InserirEstacionamentosUI" as UI
participant ":InserirEstacionamentosController" as CTL
participant ":AplicacaoPOT" as _APP
participant "app:\nAplicacaoPOT" as APP
participant ":ParqueDB" as PDB
participant ":EstacionamentoDB" as EDB
participant "estac:Estacionamento" as ESTAC

activate ADM
ADM -> UI : inserção de estacionamentos
activate UI
UI - -> ADM : solicita dados do parque (NIF da farmácia)
deactivate UI

ADM -> UI : introduz os dados solicitados

activate UI
UI -> CTL : numMax = getNumMaxParqueByNIF(NIF)
activate CTL
CTL -> PDB : numMax = getNumMaxParqueByNIF(NIF)
activate PDB
deactivate PDB
deactivate CTL

loop
UI - -> ADM : solicita dados dos estacionamentos (disponibilidade do carregador)
deactivate UI

ADM - -> UI : introduz os dados solicitados
activate UI

UI -> CTL : novoEstacionamento(numeroLote, carregador, NIF)
activate CTL

CTL -> EDB: estac = novoEstacionamento(numeroLote, carregador, NIF)
activate EDB

EDB - -> ESTAC ** : create(numeroLote, carregador, NIF)

deactivate EDB
deactivate CTL
end

UI - -> ADM : apresenta dados dos estacionamentos e solicita confirmação
deactivate UI
ADM -> UI : confirma
activate UI
UI -> CTL : registaEstacionamentos(lEstac)

loop
activate CTL
CTL -> EDB :registaEstacionamento(estac)
activate EDB

EDB -> EDB : validaEstacionamento(estac)
deactivate EDB
deactivate CTL
end
UI - -> ADM: informa sucesso da operação

deactivate UI
deactivate ADM
@enduml

PlantUML version 1.2020.27beta8(Unknown compile time)
(GPL source distribution)
Java Runtime: Java(TM) SE Runtime Environment
JVM: Java HotSpot(TM) 64-Bit Server VM
Default Encoding: UTF-8
Language: en
Country: US
--></g></svg>