<?xml version="1.0" encoding="UTF-8" standalone="no"?><svg xmlns="http://www.w3.org/2000/svg" xmlns:xlink="http://www.w3.org/1999/xlink" contentScriptType="application/ecmascript" contentStyleType="text/css" height="382px" preserveAspectRatio="none" style="width:584px;height:382px;" version="1.1" viewBox="0 0 584 382" width="584px" zoomAndPan="magnify"><defs><filter height="300%" id="ffmda8ol9t9pp" width="300%" x="-1" y="-1"><feGaussianBlur result="blurOut" stdDeviation="2.0"/><feColorMatrix in="blurOut" result="blurOut2" type="matrix" values="0 0 0 0 0 0 0 0 0 0 0 0 0 0 0 0 0 0 .4 0"/><feOffset dx="4.0" dy="4.0" in="blurOut2" result="blurOut3"/><feBlend in="SourceGraphic" in2="blurOut3" mode="normal"/></filter></defs><g><rect fill="#FFFFFF" filter="url(#ffmda8ol9t9pp)" height="181.9297" style="stroke:#A80036;stroke-width:1.0;" width="10" x="54" y="98.2969"/><rect fill="#FFFFFF" filter="url(#ffmda8ol9t9pp)" height="44.2656" style="stroke:#A80036;stroke-width:1.0;" width="10" x="529" y="119.4297"/><rect fill="#FFFFFF" filter="url(#ffmda8ol9t9pp)" height="29.1328" style="stroke:#A80036;stroke-width:1.0;" width="10" x="529" y="192.8281"/><rect fill="#FFFFFF" filter="url(#ffmda8ol9t9pp)" height="29.1328" style="stroke:#A80036;stroke-width:1.0;" width="10" x="529" y="251.0938"/><line style="stroke:#A80036;stroke-width:1.0;stroke-dasharray:5.0,5.0;" x1="59" x2="59" y1="88.2969" y2="298.2266"/><line style="stroke:#A80036;stroke-width:1.0;stroke-dasharray:5.0,5.0;" x1="533.5" x2="533.5" y1="88.2969" y2="298.2266"/><text fill="#000000" font-family="sans-serif" font-size="14" lengthAdjust="spacing" textLength="102" x="5" y="84.9951">Administrador</text><ellipse cx="59" cy="15" fill="#FEFECE" filter="url(#ffmda8ol9t9pp)" rx="8" ry="8" style="stroke:#A80036;stroke-width:2.0;"/><path d="M59,23 L59,50 M46,31 L72,31 M59,50 L46,65 M59,50 L72,65 " fill="none" filter="url(#ffmda8ol9t9pp)" style="stroke:#A80036;stroke-width:2.0;"/><text fill="#000000" font-family="sans-serif" font-size="14" lengthAdjust="spacing" textLength="102" x="5" y="310.2217">Administrador</text><ellipse cx="59" cy="323.5234" fill="#FEFECE" filter="url(#ffmda8ol9t9pp)" rx="8" ry="8" style="stroke:#A80036;stroke-width:2.0;"/><path d="M59,331.5234 L59,358.5234 M46,339.5234 L72,339.5234 M59,358.5234 L46,373.5234 M59,358.5234 L72,373.5234 " fill="none" filter="url(#ffmda8ol9t9pp)" style="stroke:#A80036;stroke-width:2.0;"/><rect fill="#FEFECE" filter="url(#ffmda8ol9t9pp)" height="30.2969" style="stroke:#A80036;stroke-width:1.5;" width="77" x="493.5" y="53"/><text fill="#000000" font-family="sans-serif" font-size="14" lengthAdjust="spacing" textLength="63" x="500.5" y="72.9951">:Sistema</text><rect fill="#FEFECE" filter="url(#ffmda8ol9t9pp)" height="30.2969" style="stroke:#A80036;stroke-width:1.5;" width="77" x="493.5" y="297.2266"/><text fill="#000000" font-family="sans-serif" font-size="14" lengthAdjust="spacing" textLength="63" x="500.5" y="317.2217">:Sistema</text><rect fill="#FFFFFF" filter="url(#ffmda8ol9t9pp)" height="181.9297" style="stroke:#A80036;stroke-width:1.0;" width="10" x="54" y="98.2969"/><rect fill="#FFFFFF" filter="url(#ffmda8ol9t9pp)" height="44.2656" style="stroke:#A80036;stroke-width:1.0;" width="10" x="529" y="119.4297"/><rect fill="#FFFFFF" filter="url(#ffmda8ol9t9pp)" height="29.1328" style="stroke:#A80036;stroke-width:1.0;" width="10" x="529" y="192.8281"/><rect fill="#FFFFFF" filter="url(#ffmda8ol9t9pp)" height="29.1328" style="stroke:#A80036;stroke-width:1.0;" width="10" x="529" y="251.0938"/><polygon fill="#A80036" points="517,115.4297,527,119.4297,517,123.4297,521,119.4297" style="stroke:#A80036;stroke-width:1.0;"/><line style="stroke:#A80036;stroke-width:1.0;" x1="64" x2="523" y1="119.4297" y2="119.4297"/><text fill="#000000" font-family="sans-serif" font-size="13" font-weight="bold" lengthAdjust="spacing" textLength="9" x="71" y="114.3638">1</text><text fill="#000000" font-family="sans-serif" font-size="13" lengthAdjust="spacing" textLength="424" x="84" y="114.3638">Pretende inserir estacionamentos de um parque de uma farmácia</text><polygon fill="#A80036" points="75,159.6953,65,163.6953,75,167.6953,71,163.6953" style="stroke:#A80036;stroke-width:1.0;"/><line style="stroke:#A80036;stroke-width:1.0;stroke-dasharray:2.0,2.0;" x1="69" x2="533" y1="163.6953" y2="163.6953"/><text fill="#000000" font-family="sans-serif" font-size="13" font-weight="bold" lengthAdjust="spacing" textLength="9" x="81" y="151.063">2</text><text fill="#000000" font-family="sans-serif" font-size="13" lengthAdjust="spacing" textLength="424" x="94" y="143.4966">solicita dados do parque (NIF da farmácia) e dos estacionamentos</text><text fill="#000000" font-family="sans-serif" font-size="13" lengthAdjust="spacing" textLength="198" x="94" y="158.6294">(disponibilidade do carregador)</text><polygon fill="#A80036" points="517,188.8281,527,192.8281,517,196.8281,521,192.8281" style="stroke:#A80036;stroke-width:1.0;"/><line style="stroke:#A80036;stroke-width:1.0;" x1="64" x2="523" y1="192.8281" y2="192.8281"/><text fill="#000000" font-family="sans-serif" font-size="13" font-weight="bold" lengthAdjust="spacing" textLength="8" x="71" y="187.7622">3</text><text fill="#000000" font-family="sans-serif" font-size="13" lengthAdjust="spacing" textLength="185" x="83" y="187.7622">introduz os dados solicitados</text><polygon fill="#A80036" points="75,217.9609,65,221.9609,75,225.9609,71,221.9609" style="stroke:#A80036;stroke-width:1.0;"/><line style="stroke:#A80036;stroke-width:1.0;stroke-dasharray:2.0,2.0;" x1="69" x2="533" y1="221.9609" y2="221.9609"/><text fill="#000000" font-family="sans-serif" font-size="13" font-weight="bold" lengthAdjust="spacing" textLength="9" x="81" y="216.895">4</text><text fill="#000000" font-family="sans-serif" font-size="13" lengthAdjust="spacing" textLength="252" x="94" y="216.895">apresenta dados e solicita confirmação</text><polygon fill="#A80036" points="517,247.0938,527,251.0938,517,255.0938,521,251.0938" style="stroke:#A80036;stroke-width:1.0;"/><line style="stroke:#A80036;stroke-width:1.0;" x1="64" x2="523" y1="251.0938" y2="251.0938"/><text fill="#000000" font-family="sans-serif" font-size="13" font-weight="bold" lengthAdjust="spacing" textLength="9" x="71" y="246.0278">5</text><text fill="#000000" font-family="sans-serif" font-size="13" lengthAdjust="spacing" textLength="57" x="84" y="246.0278">confirma</text><polygon fill="#A80036" points="70,276.2266,60,280.2266,70,284.2266,66,280.2266" style="stroke:#A80036;stroke-width:1.0;"/><line style="stroke:#A80036;stroke-width:1.0;stroke-dasharray:2.0,2.0;" x1="64" x2="533" y1="280.2266" y2="280.2266"/><text fill="#000000" font-family="sans-serif" font-size="13" font-weight="bold" lengthAdjust="spacing" textLength="9" x="76" y="275.1606">6</text><text fill="#000000" font-family="sans-serif" font-size="13" lengthAdjust="spacing" textLength="154" x="89" y="275.1606">operação bem sucedida</text><!--MD5=[ed682b7a800bb81111812be54747a9c0]
@startuml
autonumber
actor "Administrador" as ADM

activate ADM
ADM -> ":Sistema" : Pretende inserir estacionamentos de um parque de uma farmácia
activate ":Sistema"

":Sistema" - -> ADM : solicita dados do parque (NIF da farmácia) e dos estacionamentos \n(disponibilidade do carregador)
deactivate ":Sistema"

ADM -> ":Sistema" : introduz os dados solicitados
activate ":Sistema"

":Sistema" - -> ADM : apresenta dados e solicita confirmação
deactivate ":Sistema"

ADM -> ":Sistema" : confirma
activate ":Sistema"
":Sistema" - -> ADM : operação bem sucedida
deactivate ":Sistema"

deactivate ADM
@enduml

PlantUML version 1.2020.27beta7(Unknown compile time)
(GPL source distribution)
Java Runtime: Java(TM) SE Runtime Environment
JVM: Java HotSpot(TM) 64-Bit Server VM
Default Encoding: UTF-8
Language: en
Country: US
--></g></svg>