<?xml version="1.0" encoding="UTF-8" standalone="no"?><svg xmlns="http://www.w3.org/2000/svg" xmlns:xlink="http://www.w3.org/1999/xlink" contentScriptType="application/ecmascript" contentStyleType="text/css" height="515px" preserveAspectRatio="none" style="width:300px;height:515px;" version="1.1" viewBox="0 0 300 515" width="300px" zoomAndPan="magnify"><defs><filter height="300%" id="f1j81t9q7y0t9o" width="300%" x="-1" y="-1"><feGaussianBlur result="blurOut" stdDeviation="2.0"/><feColorMatrix in="blurOut" result="blurOut2" type="matrix" values="0 0 0 0 0 0 0 0 0 0 0 0 0 0 0 0 0 0 .4 0"/><feOffset dx="4.0" dy="4.0" in="blurOut2" result="blurOut3"/><feBlend in="SourceGraphic" in2="blurOut3" mode="normal"/></filter></defs><g><!--MD5=[364aec0fc02518cb9ab31cd04b585b1a]
class FarmaciaDB--><rect codeLine="3" fill="#FEFECE" filter="url(#f1j81t9q7y0t9o)" height="73.6094" id="FarmaciaDB" style="stroke:#A80036;stroke-width:1.5;" width="279" x="7" y="251"/><ellipse cx="106.75" cy="267" fill="#ADD1B2" rx="11" ry="11" style="stroke:#A80036;stroke-width:1.0;"/><path d="M109.0938,262.6719 C108.1563,262.2344 107.5625,262.0938 106.6875,262.0938 C104.0625,262.0938 102.0625,264.1719 102.0625,266.8906 L102.0625,268.0156 C102.0625,270.5938 104.1719,272.4844 107.0625,272.4844 C108.2813,272.4844 109.4375,272.1875 110.1875,271.6406 C110.7656,271.2344 111.0938,270.7813 111.0938,270.3906 C111.0938,269.9375 110.7031,269.5469 110.2344,269.5469 C110.0156,269.5469 109.8125,269.625 109.625,269.8125 C109.1719,270.2969 109.1719,270.2969 108.9844,270.3906 C108.5625,270.6563 107.875,270.7813 107.1094,270.7813 C105.0625,270.7813 103.7656,269.6875 103.7656,267.9844 L103.7656,266.8906 C103.7656,265.1094 105.0156,263.7969 106.75,263.7969 C107.3281,263.7969 107.9375,263.9531 108.4063,264.2031 C108.8906,264.4844 109.0625,264.7031 109.1563,265.1094 C109.2188,265.5156 109.25,265.6406 109.3906,265.7656 C109.5313,265.9063 109.7656,266.0156 109.9844,266.0156 C110.25,266.0156 110.5156,265.875 110.6875,265.6563 C110.7969,265.5 110.8281,265.3125 110.8281,264.8906 L110.8281,263.4688 C110.8281,263.0313 110.8125,262.9063 110.7188,262.75 C110.5625,262.4844 110.2813,262.3438 109.9844,262.3438 C109.6875,262.3438 109.4844,262.4375 109.2656,262.75 L109.0938,262.6719 Z " fill="#000000"/><text fill="#000000" font-family="sans-serif" font-size="12" lengthAdjust="spacing" textLength="71" x="127.25" y="271.1543">FarmaciaDB</text><line style="stroke:#A80036;stroke-width:1.5;" x1="8" x2="285" y1="283" y2="283"/><line style="stroke:#A80036;stroke-width:1.5;" x1="8" x2="285" y1="291" y2="291"/><text fill="#000000" font-family="sans-serif" font-size="11" lengthAdjust="spacing" textLength="101" x="13" y="305.2104">+generateGrafo()</text><text fill="#000000" font-family="sans-serif" font-size="11" lengthAdjust="spacing" textLength="267" x="13" y="318.0151">+getFarmaciaProxima(graph, enderecoCliente)</text><!--MD5=[6613c9cd406ef433ff06f5e98b28abd9]
class Farmacia--><rect codeLine="8" fill="#FEFECE" filter="url(#f1j81t9q7y0t9o)" height="99.2188" id="Farmacia" style="stroke:#A80036;stroke-width:1.5;" width="175" x="59" y="402"/><ellipse cx="115.25" cy="418" fill="#ADD1B2" rx="11" ry="11" style="stroke:#A80036;stroke-width:1.0;"/><path d="M117.5938,413.6719 C116.6563,413.2344 116.0625,413.0938 115.1875,413.0938 C112.5625,413.0938 110.5625,415.1719 110.5625,417.8906 L110.5625,419.0156 C110.5625,421.5938 112.6719,423.4844 115.5625,423.4844 C116.7813,423.4844 117.9375,423.1875 118.6875,422.6406 C119.2656,422.2344 119.5938,421.7813 119.5938,421.3906 C119.5938,420.9375 119.2031,420.5469 118.7344,420.5469 C118.5156,420.5469 118.3125,420.625 118.125,420.8125 C117.6719,421.2969 117.6719,421.2969 117.4844,421.3906 C117.0625,421.6563 116.375,421.7813 115.6094,421.7813 C113.5625,421.7813 112.2656,420.6875 112.2656,418.9844 L112.2656,417.8906 C112.2656,416.1094 113.5156,414.7969 115.25,414.7969 C115.8281,414.7969 116.4375,414.9531 116.9063,415.2031 C117.3906,415.4844 117.5625,415.7031 117.6563,416.1094 C117.7188,416.5156 117.75,416.6406 117.8906,416.7656 C118.0313,416.9063 118.2656,417.0156 118.4844,417.0156 C118.75,417.0156 119.0156,416.875 119.1875,416.6563 C119.2969,416.5 119.3281,416.3125 119.3281,415.8906 L119.3281,414.4688 C119.3281,414.0313 119.3125,413.9063 119.2188,413.75 C119.0625,413.4844 118.7813,413.3438 118.4844,413.3438 C118.1875,413.3438 117.9844,413.4375 117.7656,413.75 L117.5938,413.6719 Z " fill="#000000"/><text fill="#000000" font-family="sans-serif" font-size="12" lengthAdjust="spacing" textLength="54" x="135.75" y="422.1543">Farmacia</text><line style="stroke:#A80036;stroke-width:1.5;" x1="60" x2="233" y1="434" y2="434"/><text fill="#000000" font-family="sans-serif" font-size="11" lengthAdjust="spacing" textLength="63" x="65" y="448.2104">-Integer nif</text><text fill="#000000" font-family="sans-serif" font-size="11" lengthAdjust="spacing" textLength="73" x="65" y="461.0151">-String email</text><text fill="#000000" font-family="sans-serif" font-size="11" lengthAdjust="spacing" textLength="84" x="65" y="473.8198">-String morada</text><line style="stroke:#A80036;stroke-width:1.5;" x1="60" x2="233" y1="480.4141" y2="480.4141"/><text fill="#000000" font-family="sans-serif" font-size="11" lengthAdjust="spacing" textLength="163" x="65" y="494.6245">+Farmacia(nif,email,morada)</text><!--MD5=[79e34f5fc5afe5d8697a84a65bb14793]
class PedirItemFarmaciaController--><rect codeLine="15" fill="#FEFECE" filter="url(#f1j81t9q7y0t9o)" height="73.6094" id="PedirItemFarmaciaController" style="stroke:#A80036;stroke-width:1.5;" width="201" x="46" y="116"/><ellipse cx="61" cy="132" fill="#ADD1B2" rx="11" ry="11" style="stroke:#A80036;stroke-width:1.0;"/><path d="M63.3438,127.6719 C62.4063,127.2344 61.8125,127.0938 60.9375,127.0938 C58.3125,127.0938 56.3125,129.1719 56.3125,131.8906 L56.3125,133.0156 C56.3125,135.5938 58.4219,137.4844 61.3125,137.4844 C62.5313,137.4844 63.6875,137.1875 64.4375,136.6406 C65.0156,136.2344 65.3438,135.7813 65.3438,135.3906 C65.3438,134.9375 64.9531,134.5469 64.4844,134.5469 C64.2656,134.5469 64.0625,134.625 63.875,134.8125 C63.4219,135.2969 63.4219,135.2969 63.2344,135.3906 C62.8125,135.6563 62.125,135.7813 61.3594,135.7813 C59.3125,135.7813 58.0156,134.6875 58.0156,132.9844 L58.0156,131.8906 C58.0156,130.1094 59.2656,128.7969 61,128.7969 C61.5781,128.7969 62.1875,128.9531 62.6563,129.2031 C63.1406,129.4844 63.3125,129.7031 63.4063,130.1094 C63.4688,130.5156 63.5,130.6406 63.6406,130.7656 C63.7813,130.9063 64.0156,131.0156 64.2344,131.0156 C64.5,131.0156 64.7656,130.875 64.9375,130.6563 C65.0469,130.5 65.0781,130.3125 65.0781,129.8906 L65.0781,128.4688 C65.0781,128.0313 65.0625,127.9063 64.9688,127.75 C64.8125,127.4844 64.5313,127.3438 64.2344,127.3438 C63.9375,127.3438 63.7344,127.4375 63.5156,127.75 L63.3438,127.6719 Z " fill="#000000"/><text fill="#000000" font-family="sans-serif" font-size="12" lengthAdjust="spacing" textLength="169" x="75" y="136.1543">PedirItemFarmaciaController</text><line style="stroke:#A80036;stroke-width:1.5;" x1="47" x2="246" y1="148" y2="148"/><line style="stroke:#A80036;stroke-width:1.5;" x1="47" x2="246" y1="156" y2="156"/><text fill="#000000" font-family="sans-serif" font-size="11" lengthAdjust="spacing" textLength="101" x="52" y="170.2104">+generateGrafo()</text><text fill="#000000" font-family="sans-serif" font-size="11" lengthAdjust="spacing" textLength="189" x="52" y="183.0151">+getFarmaciaProxima(graph,end)</text><!--MD5=[4effe6cda46b430ff3120c2f16d34d95]
class RealizarEncomendaUI--><rect codeLine="20" fill="#FEFECE" filter="url(#f1j81t9q7y0t9o)" height="48" id="RealizarEncomendaUI" style="stroke:#A80036;stroke-width:1.5;" width="161" x="66" y="7"/><ellipse cx="81" cy="23" fill="#ADD1B2" rx="11" ry="11" style="stroke:#A80036;stroke-width:1.0;"/><path d="M83.3438,18.6719 C82.4063,18.2344 81.8125,18.0938 80.9375,18.0938 C78.3125,18.0938 76.3125,20.1719 76.3125,22.8906 L76.3125,24.0156 C76.3125,26.5938 78.4219,28.4844 81.3125,28.4844 C82.5313,28.4844 83.6875,28.1875 84.4375,27.6406 C85.0156,27.2344 85.3438,26.7813 85.3438,26.3906 C85.3438,25.9375 84.9531,25.5469 84.4844,25.5469 C84.2656,25.5469 84.0625,25.625 83.875,25.8125 C83.4219,26.2969 83.4219,26.2969 83.2344,26.3906 C82.8125,26.6563 82.125,26.7813 81.3594,26.7813 C79.3125,26.7813 78.0156,25.6875 78.0156,23.9844 L78.0156,22.8906 C78.0156,21.1094 79.2656,19.7969 81,19.7969 C81.5781,19.7969 82.1875,19.9531 82.6563,20.2031 C83.1406,20.4844 83.3125,20.7031 83.4063,21.1094 C83.4688,21.5156 83.5,21.6406 83.6406,21.7656 C83.7813,21.9063 84.0156,22.0156 84.2344,22.0156 C84.5,22.0156 84.7656,21.875 84.9375,21.6563 C85.0469,21.5 85.0781,21.3125 85.0781,20.8906 L85.0781,19.4688 C85.0781,19.0313 85.0625,18.9063 84.9688,18.75 C84.8125,18.4844 84.5313,18.3438 84.2344,18.3438 C83.9375,18.3438 83.7344,18.4375 83.5156,18.75 L83.3438,18.6719 Z " fill="#000000"/><text fill="#000000" font-family="sans-serif" font-size="12" lengthAdjust="spacing" textLength="129" x="95" y="27.1543">RealizarEncomendaUI</text><line style="stroke:#A80036;stroke-width:1.5;" x1="67" x2="226" y1="39" y2="39"/><line style="stroke:#A80036;stroke-width:1.5;" x1="67" x2="226" y1="47" y2="47"/><!--MD5=[80fce00e5be2d62d908c91420fdf5b9a]
link RealizarEncomendaUI to PedirItemFarmaciaController--><path codeLine="23" d="M146.5,55.137 C146.5,70.825 146.5,92.003 146.5,110.555 " fill="none" id="RealizarEncomendaUI-to-PedirItemFarmaciaController" style="stroke:#A80036;stroke-width:1.0;stroke-dasharray:7.0,7.0;"/><polygon fill="#A80036" points="146.5,115.711,150.5,106.711,146.5,110.711,142.5,106.711,146.5,115.711" style="stroke:#A80036;stroke-width:1.0;"/><!--MD5=[0eb90b374fa07c99e027518ea92009ab]
link PedirItemFarmaciaController to FarmaciaDB--><path codeLine="24" d="M146.5,190.343 C146.5,207.35 146.5,227.696 146.5,245.324 " fill="none" id="PedirItemFarmaciaController-to-FarmaciaDB" style="stroke:#A80036;stroke-width:1.0;stroke-dasharray:7.0,7.0;"/><polygon fill="#A80036" points="146.5,250.701,150.5,241.701,146.5,245.701,142.5,241.701,146.5,250.701" style="stroke:#A80036;stroke-width:1.0;"/><!--MD5=[3c539b0dd2212e8322efef71ee8cdfc2]
link FarmaciaDB to Farmacia--><path codeLine="26" d="M146.5,325.244 C146.5,346.254 146.5,373.109 146.5,396.561 " fill="none" id="FarmaciaDB-to-Farmacia" style="stroke:#A80036;stroke-width:1.0;"/><polygon fill="#A80036" points="146.5,401.8197,150.5,392.8197,146.5,396.8197,142.5,392.8197,146.5,401.8197" style="stroke:#A80036;stroke-width:1.0;"/><text fill="#000000" font-family="sans-serif" font-size="13" lengthAdjust="spacing" textLength="97" x="147.5" y="368.0669">tem registadas</text><text fill="#000000" font-family="sans-serif" font-size="13" lengthAdjust="spacing" textLength="8" x="137.8375" y="344.765">1</text><text fill="#000000" font-family="sans-serif" font-size="13" lengthAdjust="spacing" textLength="7" x="139.0078" y="390.8399">*</text><!--MD5=[02fb4d7804b31a2bd1fccf307e4e8d6d]
@startuml
skinparam classAttributeIconSize 0

class FarmaciaDB {
    +generateGrafo()
    +getFarmaciaProxima(graph, enderecoCliente)
}

class Farmacia {
  -Integer nif
  -String email
  -String morada
  +Farmacia(nif,email,morada)
}

class PedirItemFarmaciaController {
    +generateGrafo()
    +getFarmaciaProxima(graph,end)
}

class RealizarEncomendaUI {
}

RealizarEncomendaUI ..> PedirItemFarmaciaController
PedirItemFarmaciaController ..> FarmaciaDB

FarmaciaDB "1" - -> "*" Farmacia : tem registadas
@enduml

PlantUML version 1.2021.01beta3(Unknown compile time)
(GPL source distribution)
Java Runtime: Java(TM) SE Runtime Environment
JVM: Java HotSpot(TM) 64-Bit Server VM
Default Encoding: UTF-8
Language: en
Country: US
--></g></svg>