<?xml version="1.0" encoding="UTF-8" standalone="no"?><svg xmlns="http://www.w3.org/2000/svg" xmlns:xlink="http://www.w3.org/1999/xlink" contentScriptType="application/ecmascript" contentStyleType="text/css" height="352px" preserveAspectRatio="none" style="width:557px;height:352px;" version="1.1" viewBox="0 0 557 352" width="557px" zoomAndPan="magnify"><defs><filter height="300%" id="f1bfkrzx8gpxmn" width="300%" x="-1" y="-1"><feGaussianBlur result="blurOut" stdDeviation="2.0"/><feColorMatrix in="blurOut" result="blurOut2" type="matrix" values="0 0 0 0 0 0 0 0 0 0 0 0 0 0 0 0 0 0 .4 0"/><feOffset dx="4.0" dy="4.0" in="blurOut2" result="blurOut3"/><feBlend in="SourceGraphic" in2="blurOut3" mode="normal"/></filter></defs><g><!--MD5=[3179f819b5ca0f9c8a1bd58e9144681b]
class Entrega--><rect codeLine="5" fill="#FEFECE" filter="url(#f1bfkrzx8gpxmn)" height="78.4141" id="Entrega" style="stroke:#A80036;stroke-width:1.5;" width="78" x="7" y="20"/><ellipse cx="22" cy="36" fill="#ADD1B2" rx="11" ry="11" style="stroke:#A80036;stroke-width:1.0;"/><path d="M24.3438,31.6719 C23.4063,31.2344 22.8125,31.0938 21.9375,31.0938 C19.3125,31.0938 17.3125,33.1719 17.3125,35.8906 L17.3125,37.0156 C17.3125,39.5938 19.4219,41.4844 22.3125,41.4844 C23.5313,41.4844 24.6875,41.1875 25.4375,40.6406 C26.0156,40.2344 26.3438,39.7813 26.3438,39.3906 C26.3438,38.9375 25.9531,38.5469 25.4844,38.5469 C25.2656,38.5469 25.0625,38.625 24.875,38.8125 C24.4219,39.2969 24.4219,39.2969 24.2344,39.3906 C23.8125,39.6563 23.125,39.7813 22.3594,39.7813 C20.3125,39.7813 19.0156,38.6875 19.0156,36.9844 L19.0156,35.8906 C19.0156,34.1094 20.2656,32.7969 22,32.7969 C22.5781,32.7969 23.1875,32.9531 23.6563,33.2031 C24.1406,33.4844 24.3125,33.7031 24.4063,34.1094 C24.4688,34.5156 24.5,34.6406 24.6406,34.7656 C24.7813,34.9063 25.0156,35.0156 25.2344,35.0156 C25.5,35.0156 25.7656,34.875 25.9375,34.6563 C26.0469,34.5 26.0781,34.3125 26.0781,33.8906 L26.0781,32.4688 C26.0781,32.0313 26.0625,31.9063 25.9688,31.75 C25.8125,31.4844 25.5313,31.3438 25.2344,31.3438 C24.9375,31.3438 24.7344,31.4375 24.5156,31.75 L24.3438,31.6719 Z " fill="#000000"/><text fill="#000000" font-family="sans-serif" font-size="12" lengthAdjust="spacing" textLength="46" x="36" y="40.1543">Entrega</text><line style="stroke:#A80036;stroke-width:1.5;" x1="8" x2="84" y1="52" y2="52"/><text fill="#000000" font-family="sans-serif" font-size="11" lengthAdjust="spacing" textLength="58" x="13" y="66.2104">-idEntrega</text><text fill="#000000" font-family="sans-serif" font-size="11" lengthAdjust="spacing" textLength="58" x="13" y="79.0151">-dataInicio</text><text fill="#000000" font-family="sans-serif" font-size="11" lengthAdjust="spacing" textLength="49" x="13" y="91.8198">-dataFim</text><!--MD5=[c55f92ccbf0646788158d42f3399cc78]
class Encomenda--><rect codeLine="11" fill="#FEFECE" filter="url(#f1bfkrzx8gpxmn)" height="104.0234" id="Encomenda" style="stroke:#A80036;stroke-width:1.5;" width="111" x="250" y="7"/><ellipse cx="269.05" cy="23" fill="#ADD1B2" rx="11" ry="11" style="stroke:#A80036;stroke-width:1.0;"/><path d="M271.3938,18.6719 C270.4563,18.2344 269.8625,18.0938 268.9875,18.0938 C266.3625,18.0938 264.3625,20.1719 264.3625,22.8906 L264.3625,24.0156 C264.3625,26.5938 266.4719,28.4844 269.3625,28.4844 C270.5813,28.4844 271.7375,28.1875 272.4875,27.6406 C273.0656,27.2344 273.3938,26.7813 273.3938,26.3906 C273.3938,25.9375 273.0031,25.5469 272.5344,25.5469 C272.3156,25.5469 272.1125,25.625 271.925,25.8125 C271.4719,26.2969 271.4719,26.2969 271.2844,26.3906 C270.8625,26.6563 270.175,26.7813 269.4094,26.7813 C267.3625,26.7813 266.0656,25.6875 266.0656,23.9844 L266.0656,22.8906 C266.0656,21.1094 267.3156,19.7969 269.05,19.7969 C269.6281,19.7969 270.2375,19.9531 270.7063,20.2031 C271.1906,20.4844 271.3625,20.7031 271.4563,21.1094 C271.5188,21.5156 271.55,21.6406 271.6906,21.7656 C271.8313,21.9063 272.0656,22.0156 272.2844,22.0156 C272.55,22.0156 272.8156,21.875 272.9875,21.6563 C273.0969,21.5 273.1281,21.3125 273.1281,20.8906 L273.1281,19.4688 C273.1281,19.0313 273.1125,18.9063 273.0188,18.75 C272.8625,18.4844 272.5813,18.3438 272.2844,18.3438 C271.9875,18.3438 271.7844,18.4375 271.5656,18.75 L271.3938,18.6719 Z " fill="#000000"/><text fill="#000000" font-family="sans-serif" font-size="12" lengthAdjust="spacing" textLength="70" x="283.95" y="27.1543">Encomenda</text><line style="stroke:#A80036;stroke-width:1.5;" x1="251" x2="360" y1="39" y2="39"/><text fill="#000000" font-family="sans-serif" font-size="11" lengthAdjust="spacing" textLength="81" x="256" y="53.2104">-idEncomenda</text><text fill="#000000" font-family="sans-serif" font-size="11" lengthAdjust="spacing" textLength="67" x="256" y="66.0151">-dataPedida</text><text fill="#000000" font-family="sans-serif" font-size="11" lengthAdjust="spacing" textLength="36" x="256" y="78.8198">-preco</text><text fill="#000000" font-family="sans-serif" font-size="11" lengthAdjust="spacing" textLength="99" x="256" y="91.6245">-pesoEncomenda</text><text fill="#000000" font-family="sans-serif" font-size="11" lengthAdjust="spacing" textLength="29" x="256" y="104.4292">-taxa</text><!--MD5=[6613c9cd406ef433ff06f5e98b28abd9]
class Farmacia--><rect codeLine="19" fill="#FEFECE" filter="url(#f1bfkrzx8gpxmn)" height="65.6094" id="Farmacia" style="stroke:#A80036;stroke-width:1.5;" width="86" x="262.5" y="146"/><ellipse cx="277.5" cy="162" fill="#ADD1B2" rx="11" ry="11" style="stroke:#A80036;stroke-width:1.0;"/><path d="M279.8438,157.6719 C278.9063,157.2344 278.3125,157.0938 277.4375,157.0938 C274.8125,157.0938 272.8125,159.1719 272.8125,161.8906 L272.8125,163.0156 C272.8125,165.5938 274.9219,167.4844 277.8125,167.4844 C279.0313,167.4844 280.1875,167.1875 280.9375,166.6406 C281.5156,166.2344 281.8438,165.7813 281.8438,165.3906 C281.8438,164.9375 281.4531,164.5469 280.9844,164.5469 C280.7656,164.5469 280.5625,164.625 280.375,164.8125 C279.9219,165.2969 279.9219,165.2969 279.7344,165.3906 C279.3125,165.6563 278.625,165.7813 277.8594,165.7813 C275.8125,165.7813 274.5156,164.6875 274.5156,162.9844 L274.5156,161.8906 C274.5156,160.1094 275.7656,158.7969 277.5,158.7969 C278.0781,158.7969 278.6875,158.9531 279.1563,159.2031 C279.6406,159.4844 279.8125,159.7031 279.9063,160.1094 C279.9688,160.5156 280,160.6406 280.1406,160.7656 C280.2813,160.9063 280.5156,161.0156 280.7344,161.0156 C281,161.0156 281.2656,160.875 281.4375,160.6563 C281.5469,160.5 281.5781,160.3125 281.5781,159.8906 L281.5781,158.4688 C281.5781,158.0313 281.5625,157.9063 281.4688,157.75 C281.3125,157.4844 281.0313,157.3438 280.7344,157.3438 C280.4375,157.3438 280.2344,157.4375 280.0156,157.75 L279.8438,157.6719 Z " fill="#000000"/><text fill="#000000" font-family="sans-serif" font-size="12" lengthAdjust="spacing" textLength="54" x="291.5" y="166.1543">Farmacia</text><line style="stroke:#A80036;stroke-width:1.5;" x1="263.5" x2="347.5" y1="178" y2="178"/><text fill="#000000" font-family="sans-serif" font-size="11" lengthAdjust="spacing" textLength="21" x="268.5" y="192.2104">-NIF</text><text fill="#000000" font-family="sans-serif" font-size="11" lengthAdjust="spacing" textLength="36" x="268.5" y="205.0151">-email</text><!--MD5=[36c1942e8942a3e4f47e6de3733e3d18]
class Endereco--><rect codeLine="24" fill="#FEFECE" filter="url(#f1bfkrzx8gpxmn)" height="91.2188" id="Endereco" style="stroke:#A80036;stroke-width:1.5;" width="90" x="260.5" y="247.5"/><ellipse cx="275.5" cy="263.5" fill="#ADD1B2" rx="11" ry="11" style="stroke:#A80036;stroke-width:1.0;"/><path d="M277.8438,259.1719 C276.9063,258.7344 276.3125,258.5938 275.4375,258.5938 C272.8125,258.5938 270.8125,260.6719 270.8125,263.3906 L270.8125,264.5156 C270.8125,267.0938 272.9219,268.9844 275.8125,268.9844 C277.0313,268.9844 278.1875,268.6875 278.9375,268.1406 C279.5156,267.7344 279.8438,267.2813 279.8438,266.8906 C279.8438,266.4375 279.4531,266.0469 278.9844,266.0469 C278.7656,266.0469 278.5625,266.125 278.375,266.3125 C277.9219,266.7969 277.9219,266.7969 277.7344,266.8906 C277.3125,267.1563 276.625,267.2813 275.8594,267.2813 C273.8125,267.2813 272.5156,266.1875 272.5156,264.4844 L272.5156,263.3906 C272.5156,261.6094 273.7656,260.2969 275.5,260.2969 C276.0781,260.2969 276.6875,260.4531 277.1563,260.7031 C277.6406,260.9844 277.8125,261.2031 277.9063,261.6094 C277.9688,262.0156 278,262.1406 278.1406,262.2656 C278.2813,262.4063 278.5156,262.5156 278.7344,262.5156 C279,262.5156 279.2656,262.375 279.4375,262.1563 C279.5469,262 279.5781,261.8125 279.5781,261.3906 L279.5781,259.9688 C279.5781,259.5313 279.5625,259.4063 279.4688,259.25 C279.3125,258.9844 279.0313,258.8438 278.7344,258.8438 C278.4375,258.8438 278.2344,258.9375 278.0156,259.25 L277.8438,259.1719 Z " fill="#000000"/><text fill="#000000" font-family="sans-serif" font-size="12" lengthAdjust="spacing" textLength="58" x="289.5" y="267.6543">Endereco</text><line style="stroke:#A80036;stroke-width:1.5;" x1="261.5" x2="349.5" y1="279.5" y2="279.5"/><text fill="#000000" font-family="sans-serif" font-size="11" lengthAdjust="spacing" textLength="47" x="266.5" y="293.7104">-morada</text><text fill="#000000" font-family="sans-serif" font-size="11" lengthAdjust="spacing" textLength="47" x="266.5" y="306.5151">-latitude</text><text fill="#000000" font-family="sans-serif" font-size="11" lengthAdjust="spacing" textLength="57" x="266.5" y="319.3198">-longitude</text><text fill="#000000" font-family="sans-serif" font-size="11" lengthAdjust="spacing" textLength="47" x="266.5" y="332.1245">-altitude</text><!--MD5=[20a748d5ee336a9a91751b0a3d4f0beb]
class Cliente--><rect codeLine="31" fill="#FEFECE" filter="url(#f1bfkrzx8gpxmn)" height="52.8047" id="Cliente" style="stroke:#A80036;stroke-width:1.5;" width="73" x="9.5" y="199.5"/><ellipse cx="24.5" cy="215.5" fill="#ADD1B2" rx="11" ry="11" style="stroke:#A80036;stroke-width:1.0;"/><path d="M26.8438,211.1719 C25.9063,210.7344 25.3125,210.5938 24.4375,210.5938 C21.8125,210.5938 19.8125,212.6719 19.8125,215.3906 L19.8125,216.5156 C19.8125,219.0938 21.9219,220.9844 24.8125,220.9844 C26.0313,220.9844 27.1875,220.6875 27.9375,220.1406 C28.5156,219.7344 28.8438,219.2813 28.8438,218.8906 C28.8438,218.4375 28.4531,218.0469 27.9844,218.0469 C27.7656,218.0469 27.5625,218.125 27.375,218.3125 C26.9219,218.7969 26.9219,218.7969 26.7344,218.8906 C26.3125,219.1563 25.625,219.2813 24.8594,219.2813 C22.8125,219.2813 21.5156,218.1875 21.5156,216.4844 L21.5156,215.3906 C21.5156,213.6094 22.7656,212.2969 24.5,212.2969 C25.0781,212.2969 25.6875,212.4531 26.1563,212.7031 C26.6406,212.9844 26.8125,213.2031 26.9063,213.6094 C26.9688,214.0156 27,214.1406 27.1406,214.2656 C27.2813,214.4063 27.5156,214.5156 27.7344,214.5156 C28,214.5156 28.2656,214.375 28.4375,214.1563 C28.5469,214 28.5781,213.8125 28.5781,213.3906 L28.5781,211.9688 C28.5781,211.5313 28.5625,211.4063 28.4688,211.25 C28.3125,210.9844 28.0313,210.8438 27.7344,210.8438 C27.4375,210.8438 27.2344,210.9375 27.0156,211.25 L26.8438,211.1719 Z " fill="#000000"/><text fill="#000000" font-family="sans-serif" font-size="12" lengthAdjust="spacing" textLength="41" x="38.5" y="219.6543">Cliente</text><line style="stroke:#A80036;stroke-width:1.5;" x1="10.5" x2="81.5" y1="231.5" y2="231.5"/><text fill="#000000" font-family="sans-serif" font-size="11" lengthAdjust="spacing" textLength="49" x="15.5" y="245.7104">-creditos</text><!--MD5=[d4dacc50d49878ba7c621dfc80a2e1ce]
class Produto--><rect codeLine="35" fill="#FEFECE" filter="url(#f1bfkrzx8gpxmn)" height="91.2188" id="Produto" style="stroke:#A80036;stroke-width:1.5;" width="81" x="462" y="89.5"/><ellipse cx="478.35" cy="105.5" fill="#ADD1B2" rx="11" ry="11" style="stroke:#A80036;stroke-width:1.0;"/><path d="M480.6938,101.1719 C479.7563,100.7344 479.1625,100.5938 478.2875,100.5938 C475.6625,100.5938 473.6625,102.6719 473.6625,105.3906 L473.6625,106.5156 C473.6625,109.0938 475.7719,110.9844 478.6625,110.9844 C479.8813,110.9844 481.0375,110.6875 481.7875,110.1406 C482.3656,109.7344 482.6938,109.2813 482.6938,108.8906 C482.6938,108.4375 482.3031,108.0469 481.8344,108.0469 C481.6156,108.0469 481.4125,108.125 481.225,108.3125 C480.7719,108.7969 480.7719,108.7969 480.5844,108.8906 C480.1625,109.1563 479.475,109.2813 478.7094,109.2813 C476.6625,109.2813 475.3656,108.1875 475.3656,106.4844 L475.3656,105.3906 C475.3656,103.6094 476.6156,102.2969 478.35,102.2969 C478.9281,102.2969 479.5375,102.4531 480.0063,102.7031 C480.4906,102.9844 480.6625,103.2031 480.7563,103.6094 C480.8188,104.0156 480.85,104.1406 480.9906,104.2656 C481.1313,104.4063 481.3656,104.5156 481.5844,104.5156 C481.85,104.5156 482.1156,104.375 482.2875,104.1563 C482.3969,104 482.4281,103.8125 482.4281,103.3906 L482.4281,101.9688 C482.4281,101.5313 482.4125,101.4063 482.3188,101.25 C482.1625,100.9844 481.8813,100.8438 481.5844,100.8438 C481.2875,100.8438 481.0844,100.9375 480.8656,101.25 L480.6938,101.1719 Z " fill="#000000"/><text fill="#000000" font-family="sans-serif" font-size="12" lengthAdjust="spacing" textLength="46" x="492.65" y="109.6543">Produto</text><line style="stroke:#A80036;stroke-width:1.5;" x1="463" x2="542" y1="121.5" y2="121.5"/><text fill="#000000" font-family="sans-serif" font-size="11" lengthAdjust="spacing" textLength="56" x="468" y="135.7104">-idProduto</text><text fill="#000000" font-family="sans-serif" font-size="11" lengthAdjust="spacing" textLength="69" x="468" y="148.5151">-designacao</text><text fill="#000000" font-family="sans-serif" font-size="11" lengthAdjust="spacing" textLength="32" x="468" y="161.3198">-peso</text><text fill="#000000" font-family="sans-serif" font-size="11" lengthAdjust="spacing" textLength="65" x="468" y="174.1245">-precoBase</text><!--MD5=[43a7c1a046aa41d1c9842e3954366be4]
link Cliente to Endereco--><path codeLine="43" d="M82.5339,235.246 C128.891,247.3075 209.997,268.4109 260.28,281.4942 " fill="none" id="Cliente-Endereco" style="stroke:#A80036;stroke-width:1.0;"/><polygon fill="#000000" points="156.8389,235.8254,148.8253,230.7036,147.3452,236.392,156.8389,235.8254" style="stroke:#000000;stroke-width:1.0;"/><text fill="#000000" font-family="sans-serif" font-size="13" lengthAdjust="spacing" textLength="26" x="161" y="239.0669">tem</text><text fill="#000000" font-family="sans-serif" font-size="13" lengthAdjust="spacing" textLength="8" x="90.514" y="250.6421">1</text><text fill="#000000" font-family="sans-serif" font-size="13" lengthAdjust="spacing" textLength="8" x="244.4356" y="292.9158">1</text><!--MD5=[beec9e5f2ed2709028dd31c1dc478e7b]
link Cliente to Encomenda--><path codeLine="44" d="M82.5339,202.955 C125.718,174.948 199.056,127.385 249.542,94.643 " fill="none" id="Cliente-Encomenda" style="stroke:#A80036;stroke-width:1.0;"/><polygon fill="#000000" points="124.195,106.8458,115.007,109.3017,118.2053,114.2332,124.195,106.8458" style="stroke:#000000;stroke-width:1.0;"/><text fill="#000000" font-family="sans-serif" font-size="13" lengthAdjust="spacing" textLength="90" x="129" y="114.0669">realiza e paga</text><text fill="#000000" font-family="sans-serif" font-size="13" lengthAdjust="spacing" textLength="8" x="90.514" y="211.9938">1</text><text fill="#000000" font-family="sans-serif" font-size="13" lengthAdjust="spacing" textLength="7" x="234.9239" y="112.2446">*</text><!--MD5=[39609d66ce6d06d1779a14455c909f6f]
link Entrega to Encomenda--><path codeLine="45" d="M85.2723,59 C128.844,59 200.369,59 249.813,59 " fill="none" id="Entrega-Encomenda" style="stroke:#A80036;stroke-width:1.0;"/><polygon fill="#000000" points="149.5,50.5664,140.4549,47.6275,140.4549,53.5053,149.5,50.5664" style="stroke:#000000;stroke-width:1.0;"/><text fill="#000000" font-family="sans-serif" font-size="13" lengthAdjust="spacing" textLength="41" x="153.5" y="55.0669">possui</text><text fill="#000000" font-family="sans-serif" font-size="13" lengthAdjust="spacing" textLength="8" x="92.9802" y="72.3778">1</text><text fill="#000000" font-family="sans-serif" font-size="13" lengthAdjust="spacing" textLength="7" x="234.8597" y="72.0821">*</text><!--MD5=[db4a5ac14aaeb2d946b80db0d46ff947]
link Farmacia to Produto--><path codeLine="46" d="M348.636,169.674 C373.002,164.262 404.241,157.292 432,151 C441.66,148.81 452.07,146.427 461.817,144.184 " fill="none" id="Farmacia-Produto" style="stroke:#A80036;stroke-width:1.0;"/><polygon fill="#000000" points="400.8778,141.4678,391.408,140.588,392.6995,146.3223,400.8778,141.4678" style="stroke:#000000;stroke-width:1.0;"/><text fill="#000000" font-family="sans-serif" font-size="13" lengthAdjust="spacing" textLength="26" x="405" y="147.0669">tem</text><text fill="#000000" font-family="sans-serif" font-size="13" lengthAdjust="spacing" textLength="8" x="356.4429" y="181.4818">1</text><text fill="#000000" font-family="sans-serif" font-size="13" lengthAdjust="spacing" textLength="7" x="446.9469" y="159.2151">*</text><!--MD5=[60097591193c89dbde5dfd99b98b5263]
link Encomenda to Produto--><path codeLine="47" d="M361.078,80.271 C393.076,92.743 432.781,108.217 461.798,119.527 " fill="none" id="Encomenda-Produto" style="stroke:#A80036;stroke-width:1.0;"/><polygon fill="#000000" points="400.6587,86.3821,393.2983,80.3592,391.1638,85.8357,400.6587,86.3821" style="stroke:#000000;stroke-width:1.0;"/><text fill="#000000" font-family="sans-serif" font-size="13" lengthAdjust="spacing" textLength="26" x="405" y="89.0669">tem</text><text fill="#000000" font-family="sans-serif" font-size="13" lengthAdjust="spacing" textLength="8" x="369.0838" y="96.2113">1</text><text fill="#000000" font-family="sans-serif" font-size="13" lengthAdjust="spacing" textLength="7" x="446.9245" y="130.1661">*</text><!--MD5=[7af76c1e006fc88cf205b3cc240bf6aa]
@startuml
skinparam classAttributeIconSize 0
hide methods
left to right direction

class Entrega {
  -idEntrega
  -dataInicio
  -dataFim
}

class Encomenda {
  -idEncomenda
  -dataPedida
  -preco
  -pesoEncomenda
  -taxa
}

class Farmacia {
  -NIF
  -email
}

class Endereco {
  -morada
  -latitude
  -longitude
  -altitude
}

class Cliente {
  -creditos
}

class Produto {
  -idProduto
  -designacao
  -peso
  -precoBase
}


Cliente "1" - - "1" Endereco: tem >
Cliente "1" - - "*" Encomenda: realiza e paga >
Entrega "1" - - "*" Encomenda : possui >
Farmacia "1" - - "*" Produto: tem >
Encomenda "1" - - "*" Produto: tem >
@enduml

PlantUML version 1.2021.01beta3(Unknown compile time)
(GPL source distribution)
Java Runtime: Java(TM) SE Runtime Environment
JVM: Java HotSpot(TM) 64-Bit Server VM
Default Encoding: UTF-8
Language: en
Country: US
--></g></svg>