<?xml version="1.0" encoding="UTF-8" standalone="no"?><svg xmlns="http://www.w3.org/2000/svg" xmlns:xlink="http://www.w3.org/1999/xlink" contentScriptType="application/ecmascript" contentStyleType="text/css" height="427px" preserveAspectRatio="none" style="width:929px;height:427px;" version="1.1" viewBox="0 0 929 427" width="929px" zoomAndPan="magnify"><defs><filter height="300%" id="f1x407k7yi5224" width="300%" x="-1" y="-1"><feGaussianBlur result="blurOut" stdDeviation="2.0"/><feColorMatrix in="blurOut" result="blurOut2" type="matrix" values="0 0 0 0 0 0 0 0 0 0 0 0 0 0 0 0 0 0 .4 0"/><feOffset dx="4.0" dy="4.0" in="blurOut2" result="blurOut3"/><feBlend in="SourceGraphic" in2="blurOut3" mode="normal"/></filter></defs><g><rect fill="#FFFFFF" filter="url(#f1x407k7yi5224)" height="226.7969" style="stroke:#A80036;stroke-width:1.0;" width="10" x="29" y="98.2969"/><rect fill="#FFFFFF" filter="url(#f1x407k7yi5224)" height="205.6641" style="stroke:#A80036;stroke-width:1.0;" width="10" x="272" y="119.4297"/><rect fill="#FFFFFF" filter="url(#f1x407k7yi5224)" height="59.1328" style="stroke:#A80036;stroke-width:1.0;" width="10" x="526" y="148.5625"/><rect fill="#FFFFFF" filter="url(#f1x407k7yi5224)" height="59.1328" style="stroke:#A80036;stroke-width:1.0;" width="10" x="526" y="236.8281"/><rect fill="#FFFFFF" filter="url(#f1x407k7yi5224)" height="30" style="stroke:#A80036;stroke-width:1.0;" width="10" x="860" y="177.6953"/><rect fill="#FFFFFF" filter="url(#f1x407k7yi5224)" height="30" style="stroke:#A80036;stroke-width:1.0;" width="10" x="860" y="265.9609"/><line style="stroke:#A80036;stroke-width:1.0;stroke-dasharray:5.0,5.0;" x1="34" x2="34" y1="88.2969" y2="343.0938"/><line style="stroke:#A80036;stroke-width:1.0;stroke-dasharray:5.0,5.0;" x1="276.5" x2="276.5" y1="88.2969" y2="343.0938"/><line style="stroke:#A80036;stroke-width:1.0;stroke-dasharray:5.0,5.0;" x1="530.5" x2="530.5" y1="88.2969" y2="343.0938"/><line style="stroke:#A80036;stroke-width:1.0;stroke-dasharray:5.0,5.0;" x1="865" x2="865" y1="88.2969" y2="343.0938"/><text fill="#000000" font-family="sans-serif" font-size="14" lengthAdjust="spacing" textLength="52" x="5" y="84.9951">Cliente</text><ellipse cx="34" cy="15" fill="#FEFECE" filter="url(#f1x407k7yi5224)" rx="8" ry="8" style="stroke:#A80036;stroke-width:2.0;"/><path d="M34,23 L34,50 M21,31 L47,31 M34,50 L21,65 M34,50 L47,65 " fill="none" filter="url(#f1x407k7yi5224)" style="stroke:#A80036;stroke-width:2.0;"/><text fill="#000000" font-family="sans-serif" font-size="14" lengthAdjust="spacing" textLength="52" x="5" y="355.0889">Cliente</text><ellipse cx="34" cy="368.3906" fill="#FEFECE" filter="url(#f1x407k7yi5224)" rx="8" ry="8" style="stroke:#A80036;stroke-width:2.0;"/><path d="M34,376.3906 L34,403.3906 M21,384.3906 L47,384.3906 M34,403.3906 L21,418.3906 M34,403.3906 L47,418.3906 " fill="none" filter="url(#f1x407k7yi5224)" style="stroke:#A80036;stroke-width:2.0;"/><rect fill="#FEFECE" filter="url(#f1x407k7yi5224)" height="30.2969" style="stroke:#A80036;stroke-width:1.5;" width="173" x="188.5" y="53"/><text fill="#000000" font-family="sans-serif" font-size="14" lengthAdjust="spacing" textLength="159" x="195.5" y="72.9951">:RealizarEncomendaUI</text><rect fill="#FEFECE" filter="url(#f1x407k7yi5224)" height="30.2969" style="stroke:#A80036;stroke-width:1.5;" width="173" x="188.5" y="342.0938"/><text fill="#000000" font-family="sans-serif" font-size="14" lengthAdjust="spacing" textLength="159" x="195.5" y="362.0889">:RealizarEncomendaUI</text><rect fill="#FEFECE" filter="url(#f1x407k7yi5224)" height="30.2969" style="stroke:#A80036;stroke-width:1.5;" width="227" x="415.5" y="53"/><text fill="#000000" font-family="sans-serif" font-size="14" lengthAdjust="spacing" textLength="213" x="422.5" y="72.9951">:PedirItemFarmaciaController</text><rect fill="#FEFECE" filter="url(#f1x407k7yi5224)" height="30.2969" style="stroke:#A80036;stroke-width:1.5;" width="227" x="415.5" y="342.0938"/><text fill="#000000" font-family="sans-serif" font-size="14" lengthAdjust="spacing" textLength="213" x="422.5" y="362.0889">:PedirItemFarmaciaController</text><rect fill="#FEFECE" filter="url(#f1x407k7yi5224)" height="30.2969" style="stroke:#A80036;stroke-width:1.5;" width="104" x="811" y="53"/><text fill="#000000" font-family="sans-serif" font-size="14" lengthAdjust="spacing" textLength="90" x="818" y="72.9951">:FarmaciaDB</text><rect fill="#FEFECE" filter="url(#f1x407k7yi5224)" height="30.2969" style="stroke:#A80036;stroke-width:1.5;" width="104" x="811" y="342.0938"/><text fill="#000000" font-family="sans-serif" font-size="14" lengthAdjust="spacing" textLength="90" x="818" y="362.0889">:FarmaciaDB</text><rect fill="#FFFFFF" filter="url(#f1x407k7yi5224)" height="226.7969" style="stroke:#A80036;stroke-width:1.0;" width="10" x="29" y="98.2969"/><rect fill="#FFFFFF" filter="url(#f1x407k7yi5224)" height="205.6641" style="stroke:#A80036;stroke-width:1.0;" width="10" x="272" y="119.4297"/><rect fill="#FFFFFF" filter="url(#f1x407k7yi5224)" height="59.1328" style="stroke:#A80036;stroke-width:1.0;" width="10" x="526" y="148.5625"/><rect fill="#FFFFFF" filter="url(#f1x407k7yi5224)" height="59.1328" style="stroke:#A80036;stroke-width:1.0;" width="10" x="526" y="236.8281"/><rect fill="#FFFFFF" filter="url(#f1x407k7yi5224)" height="30" style="stroke:#A80036;stroke-width:1.0;" width="10" x="860" y="177.6953"/><rect fill="#FFFFFF" filter="url(#f1x407k7yi5224)" height="30" style="stroke:#A80036;stroke-width:1.0;" width="10" x="860" y="265.9609"/><polygon fill="#A80036" points="260,115.4297,270,119.4297,260,123.4297,264,119.4297" style="stroke:#A80036;stroke-width:1.0;"/><line style="stroke:#A80036;stroke-width:1.0;" x1="39" x2="266" y1="119.4297" y2="119.4297"/><text fill="#000000" font-family="sans-serif" font-size="13" font-weight="bold" lengthAdjust="spacing" textLength="9" x="46" y="114.3638">1</text><text fill="#000000" font-family="sans-serif" font-size="13" lengthAdjust="spacing" textLength="201" x="59" y="114.3638">pretende realizar a encomenda</text><polygon fill="#A80036" points="514,144.5625,524,148.5625,514,152.5625,518,148.5625" style="stroke:#A80036;stroke-width:1.0;"/><line style="stroke:#A80036;stroke-width:1.0;" x1="282" x2="520" y1="148.5625" y2="148.5625"/><text fill="#000000" font-family="sans-serif" font-size="13" font-weight="bold" lengthAdjust="spacing" textLength="9" x="289" y="143.4966">2</text><text fill="#000000" font-family="sans-serif" font-size="13" lengthAdjust="spacing" textLength="159" x="302" y="143.4966">graph = generateGrafo()</text><polygon fill="#A80036" points="848,173.6953,858,177.6953,848,181.6953,852,177.6953" style="stroke:#A80036;stroke-width:1.0;"/><line style="stroke:#A80036;stroke-width:1.0;" x1="536" x2="854" y1="177.6953" y2="177.6953"/><text fill="#000000" font-family="sans-serif" font-size="13" font-weight="bold" lengthAdjust="spacing" textLength="8" x="543" y="172.6294">3</text><text fill="#000000" font-family="sans-serif" font-size="13" lengthAdjust="spacing" textLength="104" x="555" y="172.6294">generateGrafo()</text><polygon fill="#A80036" points="514,232.8281,524,236.8281,514,240.8281,518,236.8281" style="stroke:#A80036;stroke-width:1.0;"/><line style="stroke:#A80036;stroke-width:1.0;" x1="282" x2="520" y1="236.8281" y2="236.8281"/><text fill="#000000" font-family="sans-serif" font-size="13" font-weight="bold" lengthAdjust="spacing" textLength="9" x="289" y="231.7622">4</text><text fill="#000000" font-family="sans-serif" font-size="13" lengthAdjust="spacing" textLength="212" x="302" y="231.7622">getFarmaciaProxima(graph, end)</text><polygon fill="#A80036" points="848,261.9609,858,265.9609,848,269.9609,852,265.9609" style="stroke:#A80036;stroke-width:1.0;"/><line style="stroke:#A80036;stroke-width:1.0;" x1="536" x2="854" y1="265.9609" y2="265.9609"/><text fill="#000000" font-family="sans-serif" font-size="13" font-weight="bold" lengthAdjust="spacing" textLength="9" x="543" y="260.895">5</text><text fill="#000000" font-family="sans-serif" font-size="13" lengthAdjust="spacing" textLength="292" x="556" y="260.895">getFarmaciaProxima(graph, enderecoCliente)</text><polygon fill="#A80036" points="45,321.0938,35,325.0938,45,329.0938,41,325.0938" style="stroke:#A80036;stroke-width:1.0;"/><line style="stroke:#A80036;stroke-width:1.0;stroke-dasharray:2.0,2.0;" x1="39" x2="276" y1="325.0938" y2="325.0938"/><text fill="#000000" font-family="sans-serif" font-size="13" font-weight="bold" lengthAdjust="spacing" textLength="9" x="51" y="320.0278">6</text><text fill="#000000" font-family="sans-serif" font-size="13" lengthAdjust="spacing" textLength="154" x="64" y="320.0278">operação bem sucedida</text><!--MD5=[b0ab3b3a01296cc82cf9b279fb69d3cf]
@startuml
autonumber

actor "Cliente" as CLI
participant ":RealizarEncomendaUI" as UI
participant ":PedirItemFarmaciaController" as CTL
participant ":FarmaciaDB" as FDB

activate CLI
CLI -> UI : pretende realizar a encomenda
activate UI

UI -> CTL : graph = generateGrafo()
activate CTL

CTL -> FDB : generateGrafo()
activate FDB

deactivate FDB
deactivate CTL

UI -> CTL : getFarmaciaProxima(graph, end)
activate CTL

CTL -> FDB : getFarmaciaProxima(graph, enderecoCliente)
activate FDB

deactivate FDB

deactivate CTL

UI - -> CLI : operação bem sucedida
deactivate UI

deactivate CLI
@enduml

PlantUML version 1.2021.01beta3(Unknown compile time)
(GPL source distribution)
Java Runtime: Java(TM) SE Runtime Environment
JVM: Java HotSpot(TM) 64-Bit Server VM
Default Encoding: UTF-8
Language: en
Country: US
--></g></svg>