<?xml version="1.0" encoding="UTF-8" standalone="no"?><svg xmlns="http://www.w3.org/2000/svg" xmlns:xlink="http://www.w3.org/1999/xlink" contentScriptType="application/ecmascript" contentStyleType="text/css" height="885px" preserveAspectRatio="none" style="width:1788px;height:885px;" version="1.1" viewBox="0 0 1788 885" width="1788px" zoomAndPan="magnify"><defs><filter height="300%" id="fpkai0svmj5j6" width="300%" x="-1" y="-1"><feGaussianBlur result="blurOut" stdDeviation="2.0"/><feColorMatrix in="blurOut" result="blurOut2" type="matrix" values="0 0 0 0 0 0 0 0 0 0 0 0 0 0 0 0 0 0 .4 0"/><feOffset dx="4.0" dy="4.0" in="blurOut2" result="blurOut3"/><feBlend in="SourceGraphic" in2="blurOut3" mode="normal"/></filter></defs><g><rect fill="#FFFFFF" filter="url(#fpkai0svmj5j6)" height="684.5547" style="stroke:#A80036;stroke-width:1.0;" width="10" x="54" y="98.2969"/><rect fill="#FFFFFF" filter="url(#fpkai0svmj5j6)" height="241.6641" style="stroke:#A80036;stroke-width:1.0;" width="10" x="473" y="119.4297"/><rect fill="#FFFFFF" filter="url(#fpkai0svmj5j6)" height="191.8281" style="stroke:#A80036;stroke-width:1.0;" width="10" x="473" y="390.2266"/><rect fill="#FFFFFF" filter="url(#fpkai0svmj5j6)" height="171.6641" style="stroke:#A80036;stroke-width:1.0;" width="10" x="473" y="611.1875"/><rect fill="#FFFFFF" filter="url(#fpkai0svmj5j6)" height="143.2656" style="stroke:#A80036;stroke-width:1.0;" width="10" x="764" y="148.5625"/><rect fill="#FFFFFF" filter="url(#fpkai0svmj5j6)" height="133.5625" style="stroke:#A80036;stroke-width:1.0;" width="10" x="764" y="419.3594"/><rect fill="#FFFFFF" filter="url(#fpkai0svmj5j6)" height="106.3984" style="stroke:#A80036;stroke-width:1.0;" width="10" x="764" y="640.3203"/><rect fill="#FFFFFF" filter="url(#fpkai0svmj5j6)" height="29.1328" style="stroke:#A80036;stroke-width:1.0;" width="10" x="1128" y="448.4922"/><rect fill="#FFFFFF" filter="url(#fpkai0svmj5j6)" height="30" style="stroke:#A80036;stroke-width:1.0;" width="10" x="1128" y="522.9219"/><rect fill="#FFFFFF" filter="url(#fpkai0svmj5j6)" height="77.2656" style="stroke:#A80036;stroke-width:1.0;" width="10" x="1128" y="669.4531"/><rect fill="#FFFFFF" filter="url(#fpkai0svmj5j6)" height="30" style="stroke:#A80036;stroke-width:1.0;" width="10" x="1584" y="177.6953"/><rect fill="#FFFFFF" filter="url(#fpkai0svmj5j6)" height="30" style="stroke:#A80036;stroke-width:1.0;" width="10" x="1712.5" y="261.8281"/><line style="stroke:#A80036;stroke-width:1.0;stroke-dasharray:5.0,5.0;" x1="59" x2="59" y1="88.2969" y2="800.8516"/><line style="stroke:#A80036;stroke-width:1.0;stroke-dasharray:5.0,5.0;" x1="478" x2="478" y1="88.2969" y2="800.8516"/><line style="stroke:#A80036;stroke-width:1.0;stroke-dasharray:5.0,5.0;" x1="769" x2="769" y1="88.2969" y2="800.8516"/><line style="stroke:#A80036;stroke-width:1.0;stroke-dasharray:5.0,5.0;" x1="1132.5" x2="1132.5" y1="88.2969" y2="800.8516"/><line style="stroke:#A80036;stroke-width:1.0;stroke-dasharray:5.0,5.0;" x1="1467" x2="1467" y1="489.1406" y2="800.8516"/><line style="stroke:#A80036;stroke-width:1.0;stroke-dasharray:5.0,5.0;" x1="1589" x2="1589" y1="88.2969" y2="800.8516"/><line style="stroke:#A80036;stroke-width:1.0;stroke-dasharray:5.0,5.0;" x1="1717" x2="1717" y1="88.2969" y2="800.8516"/><text fill="#000000" font-family="sans-serif" font-size="14" lengthAdjust="spacing" textLength="102" x="5" y="84.9951">Administrador</text><ellipse cx="59" cy="15" fill="#FEFECE" filter="url(#fpkai0svmj5j6)" rx="8" ry="8" style="stroke:#A80036;stroke-width:2.0;"/><path d="M59,23 L59,50 M46,31 L72,31 M59,50 L46,65 M59,50 L72,65 " fill="none" filter="url(#fpkai0svmj5j6)" style="stroke:#A80036;stroke-width:2.0;"/><text fill="#000000" font-family="sans-serif" font-size="14" lengthAdjust="spacing" textLength="102" x="5" y="812.8467">Administrador</text><ellipse cx="59" cy="826.1484" fill="#FEFECE" filter="url(#fpkai0svmj5j6)" rx="8" ry="8" style="stroke:#A80036;stroke-width:2.0;"/><path d="M59,834.1484 L59,861.1484 M46,842.1484 L72,842.1484 M59,861.1484 L46,876.1484 M59,861.1484 L72,876.1484 " fill="none" filter="url(#fpkai0svmj5j6)" style="stroke:#A80036;stroke-width:2.0;"/><rect fill="#FEFECE" filter="url(#fpkai0svmj5j6)" height="46.5938" style="stroke:#A80036;stroke-width:1.5;" width="88" x="432" y="36.7031"/><text fill="#000000" font-family="sans-serif" font-size="14" lengthAdjust="spacing" textLength="65" x="443.5" y="56.6982">:Registar</text><text fill="#000000" font-family="sans-serif" font-size="14" lengthAdjust="spacing" textLength="74" x="439" y="72.9951">EstafetaUI</text><rect fill="#FEFECE" filter="url(#fpkai0svmj5j6)" height="46.5938" style="stroke:#A80036;stroke-width:1.5;" width="88" x="432" y="799.8516"/><text fill="#000000" font-family="sans-serif" font-size="14" lengthAdjust="spacing" textLength="65" x="443.5" y="819.8467">:Registar</text><text fill="#000000" font-family="sans-serif" font-size="14" lengthAdjust="spacing" textLength="74" x="439" y="836.1436">EstafetaUI</text><rect fill="#FEFECE" filter="url(#fpkai0svmj5j6)" height="46.5938" style="stroke:#A80036;stroke-width:1.5;" width="140" x="697" y="36.7031"/><text fill="#000000" font-family="sans-serif" font-size="14" lengthAdjust="spacing" textLength="126" x="704" y="56.6982">:RegistarEstafeta</text><text fill="#000000" font-family="sans-serif" font-size="14" lengthAdjust="spacing" textLength="73" x="730.5" y="72.9951">Controller</text><rect fill="#FEFECE" filter="url(#fpkai0svmj5j6)" height="46.5938" style="stroke:#A80036;stroke-width:1.5;" width="140" x="697" y="799.8516"/><text fill="#000000" font-family="sans-serif" font-size="14" lengthAdjust="spacing" textLength="126" x="704" y="819.8467">:RegistarEstafeta</text><text fill="#000000" font-family="sans-serif" font-size="14" lengthAdjust="spacing" textLength="73" x="730.5" y="836.1436">Controller</text><rect fill="#FEFECE" filter="url(#fpkai0svmj5j6)" height="30.2969" style="stroke:#A80036;stroke-width:1.5;" width="101" x="1080.5" y="53"/><text fill="#000000" font-family="sans-serif" font-size="14" lengthAdjust="spacing" textLength="87" x="1087.5" y="72.9951">:EstafetaDB</text><rect fill="#FEFECE" filter="url(#fpkai0svmj5j6)" height="30.2969" style="stroke:#A80036;stroke-width:1.5;" width="101" x="1080.5" y="799.8516"/><text fill="#000000" font-family="sans-serif" font-size="14" lengthAdjust="spacing" textLength="87" x="1087.5" y="819.8467">:EstafetaDB</text><rect fill="#FEFECE" filter="url(#fpkai0svmj5j6)" height="30.2969" style="stroke:#A80036;stroke-width:1.5;" width="103" x="1414" y="799.8516"/><text fill="#000000" font-family="sans-serif" font-size="14" lengthAdjust="spacing" textLength="89" x="1421" y="819.8467">est:Estafeta</text><rect fill="#FEFECE" filter="url(#fpkai0svmj5j6)" height="30.2969" style="stroke:#A80036;stroke-width:1.5;" width="112" x="1531" y="53"/><text fill="#000000" font-family="sans-serif" font-size="14" lengthAdjust="spacing" textLength="98" x="1538" y="72.9951">AplicacaoPOT</text><rect fill="#FEFECE" filter="url(#fpkai0svmj5j6)" height="30.2969" style="stroke:#A80036;stroke-width:1.5;" width="112" x="1531" y="799.8516"/><text fill="#000000" font-family="sans-serif" font-size="14" lengthAdjust="spacing" textLength="98" x="1538" y="819.8467">AplicacaoPOT</text><rect fill="#FEFECE" filter="url(#fpkai0svmj5j6)" height="46.5938" style="stroke:#A80036;stroke-width:1.5;" width="117" x="1657" y="36.7031"/><text fill="#000000" font-family="sans-serif" font-size="14" lengthAdjust="spacing" textLength="28" x="1701.5" y="56.6982">app</text><text fill="#000000" font-family="sans-serif" font-size="14" lengthAdjust="spacing" textLength="103" x="1664" y="72.9951">:AplicacaoPOT</text><rect fill="#FEFECE" filter="url(#fpkai0svmj5j6)" height="46.5938" style="stroke:#A80036;stroke-width:1.5;" width="117" x="1657" y="799.8516"/><text fill="#000000" font-family="sans-serif" font-size="14" lengthAdjust="spacing" textLength="28" x="1701.5" y="819.8467">app</text><text fill="#000000" font-family="sans-serif" font-size="14" lengthAdjust="spacing" textLength="103" x="1664" y="836.1436">:AplicacaoPOT</text><rect fill="#FFFFFF" filter="url(#fpkai0svmj5j6)" height="684.5547" style="stroke:#A80036;stroke-width:1.0;" width="10" x="54" y="98.2969"/><rect fill="#FFFFFF" filter="url(#fpkai0svmj5j6)" height="241.6641" style="stroke:#A80036;stroke-width:1.0;" width="10" x="473" y="119.4297"/><rect fill="#FFFFFF" filter="url(#fpkai0svmj5j6)" height="191.8281" style="stroke:#A80036;stroke-width:1.0;" width="10" x="473" y="390.2266"/><rect fill="#FFFFFF" filter="url(#fpkai0svmj5j6)" height="171.6641" style="stroke:#A80036;stroke-width:1.0;" width="10" x="473" y="611.1875"/><rect fill="#FFFFFF" filter="url(#fpkai0svmj5j6)" height="143.2656" style="stroke:#A80036;stroke-width:1.0;" width="10" x="764" y="148.5625"/><rect fill="#FFFFFF" filter="url(#fpkai0svmj5j6)" height="133.5625" style="stroke:#A80036;stroke-width:1.0;" width="10" x="764" y="419.3594"/><rect fill="#FFFFFF" filter="url(#fpkai0svmj5j6)" height="106.3984" style="stroke:#A80036;stroke-width:1.0;" width="10" x="764" y="640.3203"/><rect fill="#FFFFFF" filter="url(#fpkai0svmj5j6)" height="29.1328" style="stroke:#A80036;stroke-width:1.0;" width="10" x="1128" y="448.4922"/><rect fill="#FFFFFF" filter="url(#fpkai0svmj5j6)" height="30" style="stroke:#A80036;stroke-width:1.0;" width="10" x="1128" y="522.9219"/><rect fill="#FFFFFF" filter="url(#fpkai0svmj5j6)" height="77.2656" style="stroke:#A80036;stroke-width:1.0;" width="10" x="1128" y="669.4531"/><rect fill="#FFFFFF" filter="url(#fpkai0svmj5j6)" height="30" style="stroke:#A80036;stroke-width:1.0;" width="10" x="1584" y="177.6953"/><rect fill="#FFFFFF" filter="url(#fpkai0svmj5j6)" height="30" style="stroke:#A80036;stroke-width:1.0;" width="10" x="1712.5" y="261.8281"/><polygon fill="#A80036" points="461,115.4297,471,119.4297,461,123.4297,465,119.4297" style="stroke:#A80036;stroke-width:1.0;"/><line style="stroke:#A80036;stroke-width:1.0;" x1="64" x2="467" y1="119.4297" y2="119.4297"/><text fill="#000000" font-family="sans-serif" font-size="13" font-weight="bold" lengthAdjust="spacing" textLength="9" x="71" y="114.3638">1</text><text fill="#000000" font-family="sans-serif" font-size="13" lengthAdjust="spacing" textLength="107" x="84" y="114.3638">registar estafeta</text><polygon fill="#A80036" points="752,144.5625,762,148.5625,752,152.5625,756,148.5625" style="stroke:#A80036;stroke-width:1.0;"/><line style="stroke:#A80036;stroke-width:1.0;" x1="483" x2="758" y1="148.5625" y2="148.5625"/><text fill="#000000" font-family="sans-serif" font-size="13" font-weight="bold" lengthAdjust="spacing" textLength="9" x="490" y="143.4966">2</text><text fill="#000000" font-family="sans-serif" font-size="13" lengthAdjust="spacing" textLength="122" x="503" y="143.4966">getListaEstafetas()</text><polygon fill="#A80036" points="1572,173.6953,1582,177.6953,1572,181.6953,1576,177.6953" style="stroke:#A80036;stroke-width:1.0;"/><line style="stroke:#A80036;stroke-width:1.0;" x1="774" x2="1578" y1="177.6953" y2="177.6953"/><text fill="#000000" font-family="sans-serif" font-size="13" font-weight="bold" lengthAdjust="spacing" textLength="8" x="781" y="172.6294">3</text><text fill="#000000" font-family="sans-serif" font-size="13" lengthAdjust="spacing" textLength="127" x="793" y="172.6294">app = getInstance()</text><polygon fill="#A80036" points="1700.5,257.8281,1710.5,261.8281,1700.5,265.8281,1704.5,261.8281" style="stroke:#A80036;stroke-width:1.0;"/><line style="stroke:#A80036;stroke-width:1.0;" x1="774" x2="1706.5" y1="261.8281" y2="261.8281"/><text fill="#000000" font-family="sans-serif" font-size="13" font-weight="bold" lengthAdjust="spacing" textLength="9" x="781" y="256.7622">4</text><text fill="#000000" font-family="sans-serif" font-size="13" lengthAdjust="spacing" textLength="173" x="794" y="256.7622">sessao = getSessaoAtual()</text><polygon fill="#A80036" points="75,357.0938,65,361.0938,75,365.0938,71,361.0938" style="stroke:#A80036;stroke-width:1.0;"/><line style="stroke:#A80036;stroke-width:1.0;stroke-dasharray:2.0,2.0;" x1="69" x2="477" y1="361.0938" y2="361.0938"/><text fill="#000000" font-family="sans-serif" font-size="13" font-weight="bold" lengthAdjust="spacing" textLength="9" x="81" y="348.4614">5</text><text fill="#000000" font-family="sans-serif" font-size="13" lengthAdjust="spacing" textLength="145" x="94" y="340.895">solicita dados estafeta</text><text fill="#000000" font-family="sans-serif" font-size="13" lengthAdjust="spacing" textLength="372" x="94" y="356.0278">(nif,nome,email,peso,número segurança social,password)</text><polygon fill="#A80036" points="461,386.2266,471,390.2266,461,394.2266,465,390.2266" style="stroke:#A80036;stroke-width:1.0;"/><line style="stroke:#A80036;stroke-width:1.0;" x1="64" x2="467" y1="390.2266" y2="390.2266"/><text fill="#000000" font-family="sans-serif" font-size="13" font-weight="bold" lengthAdjust="spacing" textLength="9" x="71" y="385.1606">6</text><text fill="#000000" font-family="sans-serif" font-size="13" lengthAdjust="spacing" textLength="185" x="84" y="385.1606">introduz os dados solicitados</text><polygon fill="#A80036" points="752,415.3594,762,419.3594,752,423.3594,756,419.3594" style="stroke:#A80036;stroke-width:1.0;"/><line style="stroke:#A80036;stroke-width:1.0;" x1="483" x2="758" y1="419.3594" y2="419.3594"/><text fill="#000000" font-family="sans-serif" font-size="13" font-weight="bold" lengthAdjust="spacing" textLength="9" x="490" y="414.2935">7</text><text fill="#000000" font-family="sans-serif" font-size="13" lengthAdjust="spacing" textLength="249" x="503" y="414.2935">novoEstafeta(nif,nome,email,nss,pwd)</text><polygon fill="#A80036" points="1116,444.4922,1126,448.4922,1116,452.4922,1120,448.4922" style="stroke:#A80036;stroke-width:1.0;"/><line style="stroke:#A80036;stroke-width:1.0;" x1="774" x2="1122" y1="448.4922" y2="448.4922"/><text fill="#000000" font-family="sans-serif" font-size="13" font-weight="bold" lengthAdjust="spacing" textLength="9" x="781" y="443.4263">8</text><text fill="#000000" font-family="sans-serif" font-size="13" lengthAdjust="spacing" textLength="322" x="794" y="443.4263">est = novoEstafeta(nif,nome,email,peso,nss,pwd)</text><polygon fill="#A80036" points="1402,473.625,1412,477.625,1402,481.625,1406,477.625" style="stroke:#A80036;stroke-width:1.0;"/><line style="stroke:#A80036;stroke-width:1.0;stroke-dasharray:2.0,2.0;" x1="1133" x2="1408" y1="477.625" y2="477.625"/><text fill="#000000" font-family="sans-serif" font-size="13" font-weight="bold" lengthAdjust="spacing" textLength="9" x="1140" y="472.5591">9</text><text fill="#000000" font-family="sans-serif" font-size="13" lengthAdjust="spacing" textLength="239" x="1153" y="472.5591">create(nif,nome,email,peso,nss,pwd)</text><rect fill="#FEFECE" filter="url(#fpkai0svmj5j6)" height="30.2969" style="stroke:#A80036;stroke-width:1.5;" width="103" x="1414" y="456.4922"/><text fill="#000000" font-family="sans-serif" font-size="14" lengthAdjust="spacing" textLength="89" x="1421" y="476.4873">est:Estafeta</text><polygon fill="#A80036" points="1116,518.9219,1126,522.9219,1116,526.9219,1120,522.9219" style="stroke:#A80036;stroke-width:1.0;"/><line style="stroke:#A80036;stroke-width:1.0;" x1="774" x2="1122" y1="522.9219" y2="522.9219"/><text fill="#000000" font-family="sans-serif" font-size="13" font-weight="bold" lengthAdjust="spacing" textLength="19" x="781" y="517.856">10</text><text fill="#000000" font-family="sans-serif" font-size="13" lengthAdjust="spacing" textLength="122" x="804" y="517.856">validaEstafeta(est)</text><polygon fill="#A80036" points="75,578.0547,65,582.0547,75,586.0547,71,582.0547" style="stroke:#A80036;stroke-width:1.0;"/><line style="stroke:#A80036;stroke-width:1.0;stroke-dasharray:2.0,2.0;" x1="69" x2="477" y1="582.0547" y2="582.0547"/><text fill="#000000" font-family="sans-serif" font-size="13" font-weight="bold" lengthAdjust="spacing" textLength="18" x="81" y="576.9888">11</text><text fill="#000000" font-family="sans-serif" font-size="13" lengthAdjust="spacing" textLength="252" x="103" y="576.9888">apresenta dados e solicita confirmação</text><polygon fill="#A80036" points="461,607.1875,471,611.1875,461,615.1875,465,611.1875" style="stroke:#A80036;stroke-width:1.0;"/><line style="stroke:#A80036;stroke-width:1.0;" x1="64" x2="467" y1="611.1875" y2="611.1875"/><text fill="#000000" font-family="sans-serif" font-size="13" font-weight="bold" lengthAdjust="spacing" textLength="18" x="71" y="606.1216">12</text><text fill="#000000" font-family="sans-serif" font-size="13" lengthAdjust="spacing" textLength="57" x="93" y="606.1216">confirma</text><polygon fill="#A80036" points="752,636.3203,762,640.3203,752,644.3203,756,640.3203" style="stroke:#A80036;stroke-width:1.0;"/><line style="stroke:#A80036;stroke-width:1.0;" x1="483" x2="758" y1="640.3203" y2="640.3203"/><text fill="#000000" font-family="sans-serif" font-size="13" font-weight="bold" lengthAdjust="spacing" textLength="17" x="490" y="635.2544">13</text><text fill="#000000" font-family="sans-serif" font-size="13" lengthAdjust="spacing" textLength="128" x="511" y="635.2544">registaEstafeta(est)</text><polygon fill="#A80036" points="1116,665.4531,1126,669.4531,1116,673.4531,1120,669.4531" style="stroke:#A80036;stroke-width:1.0;"/><line style="stroke:#A80036;stroke-width:1.0;" x1="774" x2="1122" y1="669.4531" y2="669.4531"/><text fill="#000000" font-family="sans-serif" font-size="13" font-weight="bold" lengthAdjust="spacing" textLength="18" x="781" y="664.3872">14</text><text fill="#000000" font-family="sans-serif" font-size="13" lengthAdjust="spacing" textLength="128" x="803" y="664.3872">registaEstafeta(est)</text><line style="stroke:#A80036;stroke-width:1.0;" x1="1138" x2="1180" y1="698.5859" y2="698.5859"/><line style="stroke:#A80036;stroke-width:1.0;" x1="1180" x2="1180" y1="698.5859" y2="711.5859"/><line style="stroke:#A80036;stroke-width:1.0;" x1="1139" x2="1180" y1="711.5859" y2="711.5859"/><polygon fill="#A80036" points="1149,707.5859,1139,711.5859,1149,715.5859,1145,711.5859" style="stroke:#A80036;stroke-width:1.0;"/><text fill="#000000" font-family="sans-serif" font-size="13" font-weight="bold" lengthAdjust="spacing" textLength="18" x="1145" y="693.52">15</text><text fill="#000000" font-family="sans-serif" font-size="13" lengthAdjust="spacing" textLength="122" x="1167" y="693.52">validaEstafeta(est)</text><line style="stroke:#A80036;stroke-width:1.0;" x1="1138" x2="1180" y1="745.7188" y2="745.7188"/><line style="stroke:#A80036;stroke-width:1.0;" x1="1180" x2="1180" y1="745.7188" y2="758.7188"/><line style="stroke:#A80036;stroke-width:1.0;" x1="1133" x2="1180" y1="758.7188" y2="758.7188"/><polygon fill="#A80036" points="1143,754.7188,1133,758.7188,1143,762.7188,1139,758.7188" style="stroke:#A80036;stroke-width:1.0;"/><text fill="#000000" font-family="sans-serif" font-size="13" font-weight="bold" lengthAdjust="spacing" textLength="18" x="1145" y="740.6528">16</text><text fill="#000000" font-family="sans-serif" font-size="13" lengthAdjust="spacing" textLength="108" x="1167" y="740.6528">addEstafeta(est)</text><polygon fill="#A80036" points="70,778.8516,60,782.8516,70,786.8516,66,782.8516" style="stroke:#A80036;stroke-width:1.0;"/><line style="stroke:#A80036;stroke-width:1.0;stroke-dasharray:2.0,2.0;" x1="64" x2="477" y1="782.8516" y2="782.8516"/><text fill="#000000" font-family="sans-serif" font-size="13" font-weight="bold" lengthAdjust="spacing" textLength="18" x="76" y="777.7856">17</text><text fill="#000000" font-family="sans-serif" font-size="13" lengthAdjust="spacing" textLength="154" x="98" y="777.7856">operação bem sucedida</text><!--MD5=[5be13ec7357479fea6fb4b20091090bf]
@startuml
autonumber

actor "Administrador" as ADM
participant ":Registar\nEstafetaUI" as UI
participant ":RegistarEstafeta\nController" as CTRL
participant ":EstafetaDB" as ESTS
participant "est:Estafeta" as EST
participant "AplicacaoPOT" as _APP
participant "app\n:AplicacaoPOT" as APP

activate ADM
ADM -> UI : registar estafeta
activate UI

UI -> CTRL : getListaEstafetas()
activate CTRL

CTRL -> _APP: app = getInstance()
activate _APP
|||
deactivate _APP

CTRL -> APP: sessao = getSessaoAtual()
activate APP
|||
deactivate APP

deactivate CTRL

UI - -> ADM : solicita dados estafeta \n(nif,nome,email,peso,número segurança social,password)
deactivate UI

ADM -> UI : introduz os dados solicitados
activate UI

UI -> CTRL : novoEstafeta(nif,nome,email,nss,pwd)
activate CTRL

CTRL -> ESTS: est = novoEstafeta(nif,nome,email,peso,nss,pwd)
activate ESTS

ESTS - -> EST ** : create(nif,nome,email,peso,nss,pwd)

deactivate ESTS

CTRL -> ESTS : validaEstafeta(est)
activate ESTS
deactivate ESTS

deactivate CTRL
UI - -> ADM : apresenta dados e solicita confirmação
deactivate UI

ADM -> UI : confirma
activate UI

UI -> CTRL: registaEstafeta(est)
activate CTRL
CTRL -> ESTS: registaEstafeta(est)
activate ESTS

ESTS -> ESTS: validaEstafeta(est)

ESTS -> ESTS: addEstafeta(est)

deactivate ESTS
deactivate CTRL
UI - -> ADM : operação bem sucedida
deactivate UI

deactivate ADM
@enduml

PlantUML version 1.2020.27beta8(Unknown compile time)
(GPL source distribution)
Java Runtime: Java(TM) SE Runtime Environment
JVM: Java HotSpot(TM) 64-Bit Server VM
Default Encoding: UTF-8
Language: en
Country: US
--></g></svg>