<?xml version="1.0" encoding="UTF-8" standalone="no"?><svg xmlns="http://www.w3.org/2000/svg" xmlns:xlink="http://www.w3.org/1999/xlink" contentScriptType="application/ecmascript" contentStyleType="text/css" height="590px" preserveAspectRatio="none" style="width:576px;height:590px;" version="1.1" viewBox="0 0 576 590" width="576px" zoomAndPan="magnify"><defs><filter height="300%" id="fko1too99df12" width="300%" x="-1" y="-1"><feGaussianBlur result="blurOut" stdDeviation="2.0"/><feColorMatrix in="blurOut" result="blurOut2" type="matrix" values="0 0 0 0 0 0 0 0 0 0 0 0 0 0 0 0 0 0 .4 0"/><feOffset dx="4.0" dy="4.0" in="blurOut2" result="blurOut3"/><feBlend in="SourceGraphic" in2="blurOut3" mode="normal"/></filter></defs><g><!--MD5=[380d12a68ed0046a60f31008a02875d0]
class AplicacaoPOT--><rect codeLine="3" fill="#FEFECE" filter="url(#fko1too99df12)" height="73.6094" id="AplicacaoPOT" style="stroke:#A80036;stroke-width:1.5;" width="130" x="7" y="275.5"/><ellipse cx="29.65" cy="291.5" fill="#ADD1B2" rx="11" ry="11" style="stroke:#A80036;stroke-width:1.0;"/><path d="M31.9938,287.1719 C31.0563,286.7344 30.4625,286.5938 29.5875,286.5938 C26.9625,286.5938 24.9625,288.6719 24.9625,291.3906 L24.9625,292.5156 C24.9625,295.0938 27.0719,296.9844 29.9625,296.9844 C31.1813,296.9844 32.3375,296.6875 33.0875,296.1406 C33.6656,295.7344 33.9938,295.2813 33.9938,294.8906 C33.9938,294.4375 33.6031,294.0469 33.1344,294.0469 C32.9156,294.0469 32.7125,294.125 32.525,294.3125 C32.0719,294.7969 32.0719,294.7969 31.8844,294.8906 C31.4625,295.1563 30.775,295.2813 30.0094,295.2813 C27.9625,295.2813 26.6656,294.1875 26.6656,292.4844 L26.6656,291.3906 C26.6656,289.6094 27.9156,288.2969 29.65,288.2969 C30.2281,288.2969 30.8375,288.4531 31.3063,288.7031 C31.7906,288.9844 31.9625,289.2031 32.0563,289.6094 C32.1188,290.0156 32.15,290.1406 32.2906,290.2656 C32.4313,290.4063 32.6656,290.5156 32.8844,290.5156 C33.15,290.5156 33.4156,290.375 33.5875,290.1563 C33.6969,290 33.7281,289.8125 33.7281,289.3906 L33.7281,287.9688 C33.7281,287.5313 33.7125,287.4063 33.6188,287.25 C33.4625,286.9844 33.1813,286.8438 32.8844,286.8438 C32.5875,286.8438 32.3844,286.9375 32.1656,287.25 L31.9938,287.1719 Z " fill="#000000"/><text fill="#000000" font-family="sans-serif" font-size="12" lengthAdjust="spacing" textLength="81" x="45.35" y="295.6543">AplicacaoPOT</text><line style="stroke:#A80036;stroke-width:1.5;" x1="8" x2="136" y1="307.5" y2="307.5"/><line style="stroke:#A80036;stroke-width:1.5;" x1="8" x2="136" y1="315.5" y2="315.5"/><text fill="#000000" font-family="sans-serif" font-size="11" lengthAdjust="spacing" textLength="118" x="13" y="329.7104">+static getInstance()</text><text fill="#000000" font-family="sans-serif" font-size="11" lengthAdjust="spacing" textLength="107" x="13" y="342.5151">+getSessaoAtual()</text><!--MD5=[3f1202280bfe3359d2f91fb9b6e32986]
class Estafeta--><rect codeLine="9" fill="#FEFECE" filter="url(#fko1too99df12)" height="137.6328" id="Estafeta" style="stroke:#A80036;stroke-width:1.5;" width="240" x="137" y="439"/><ellipse cx="228.75" cy="455" fill="#ADD1B2" rx="11" ry="11" style="stroke:#A80036;stroke-width:1.0;"/><path d="M231.0938,450.6719 C230.1563,450.2344 229.5625,450.0938 228.6875,450.0938 C226.0625,450.0938 224.0625,452.1719 224.0625,454.8906 L224.0625,456.0156 C224.0625,458.5938 226.1719,460.4844 229.0625,460.4844 C230.2813,460.4844 231.4375,460.1875 232.1875,459.6406 C232.7656,459.2344 233.0938,458.7813 233.0938,458.3906 C233.0938,457.9375 232.7031,457.5469 232.2344,457.5469 C232.0156,457.5469 231.8125,457.625 231.625,457.8125 C231.1719,458.2969 231.1719,458.2969 230.9844,458.3906 C230.5625,458.6563 229.875,458.7813 229.1094,458.7813 C227.0625,458.7813 225.7656,457.6875 225.7656,455.9844 L225.7656,454.8906 C225.7656,453.1094 227.0156,451.7969 228.75,451.7969 C229.3281,451.7969 229.9375,451.9531 230.4063,452.2031 C230.8906,452.4844 231.0625,452.7031 231.1563,453.1094 C231.2188,453.5156 231.25,453.6406 231.3906,453.7656 C231.5313,453.9063 231.7656,454.0156 231.9844,454.0156 C232.25,454.0156 232.5156,453.875 232.6875,453.6563 C232.7969,453.5 232.8281,453.3125 232.8281,452.8906 L232.8281,451.4688 C232.8281,451.0313 232.8125,450.9063 232.7188,450.75 C232.5625,450.4844 232.2813,450.3438 231.9844,450.3438 C231.6875,450.3438 231.4844,450.4375 231.2656,450.75 L231.0938,450.6719 Z " fill="#000000"/><text fill="#000000" font-family="sans-serif" font-size="12" lengthAdjust="spacing" textLength="48" x="249.25" y="459.1543">Estafeta</text><line style="stroke:#A80036;stroke-width:1.5;" x1="138" x2="376" y1="471" y2="471"/><text fill="#000000" font-family="sans-serif" font-size="11" lengthAdjust="spacing" textLength="55" x="143" y="485.2104">-String nif</text><text fill="#000000" font-family="sans-serif" font-size="11" lengthAdjust="spacing" textLength="74" x="143" y="498.0151">-String nome</text><text fill="#000000" font-family="sans-serif" font-size="11" lengthAdjust="spacing" textLength="73" x="143" y="510.8198">-String email</text><text fill="#000000" font-family="sans-serif" font-size="11" lengthAdjust="spacing" textLength="77" x="143" y="523.6245">-Double peso</text><text fill="#000000" font-family="sans-serif" font-size="11" lengthAdjust="spacing" textLength="68" x="143" y="536.4292">-Integer nss</text><text fill="#000000" font-family="sans-serif" font-size="11" lengthAdjust="spacing" textLength="64" x="143" y="549.2339">-String pwd</text><line style="stroke:#A80036;stroke-width:1.5;" x1="138" x2="376" y1="555.8281" y2="555.8281"/><text fill="#000000" font-family="sans-serif" font-size="11" lengthAdjust="spacing" textLength="228" x="143" y="570.0386">+Estafeta(nif,nome,email,peso,nss,pwd)</text><!--MD5=[4ac2c1498d2c03198090a24b8c54d335]
class EstafetaDB--><rect codeLine="19" fill="#FEFECE" filter="url(#fko1too99df12)" height="99.2188" id="EstafetaDB" style="stroke:#A80036;stroke-width:1.5;" width="319" x="243.5" y="263"/><ellipse cx="366.25" cy="279" fill="#ADD1B2" rx="11" ry="11" style="stroke:#A80036;stroke-width:1.0;"/><path d="M368.5938,274.6719 C367.6563,274.2344 367.0625,274.0938 366.1875,274.0938 C363.5625,274.0938 361.5625,276.1719 361.5625,278.8906 L361.5625,280.0156 C361.5625,282.5938 363.6719,284.4844 366.5625,284.4844 C367.7813,284.4844 368.9375,284.1875 369.6875,283.6406 C370.2656,283.2344 370.5938,282.7813 370.5938,282.3906 C370.5938,281.9375 370.2031,281.5469 369.7344,281.5469 C369.5156,281.5469 369.3125,281.625 369.125,281.8125 C368.6719,282.2969 368.6719,282.2969 368.4844,282.3906 C368.0625,282.6563 367.375,282.7813 366.6094,282.7813 C364.5625,282.7813 363.2656,281.6875 363.2656,279.9844 L363.2656,278.8906 C363.2656,277.1094 364.5156,275.7969 366.25,275.7969 C366.8281,275.7969 367.4375,275.9531 367.9063,276.2031 C368.3906,276.4844 368.5625,276.7031 368.6563,277.1094 C368.7188,277.5156 368.75,277.6406 368.8906,277.7656 C369.0313,277.9063 369.2656,278.0156 369.4844,278.0156 C369.75,278.0156 370.0156,277.875 370.1875,277.6563 C370.2969,277.5 370.3281,277.3125 370.3281,276.8906 L370.3281,275.4688 C370.3281,275.0313 370.3125,274.9063 370.2188,274.75 C370.0625,274.4844 369.7813,274.3438 369.4844,274.3438 C369.1875,274.3438 368.9844,274.4375 368.7656,274.75 L368.5938,274.6719 Z " fill="#000000"/><text fill="#000000" font-family="sans-serif" font-size="12" lengthAdjust="spacing" textLength="65" x="386.75" y="283.1543">EstafetaDB</text><line style="stroke:#A80036;stroke-width:1.5;" x1="244.5" x2="561.5" y1="295" y2="295"/><line style="stroke:#A80036;stroke-width:1.5;" x1="244.5" x2="561.5" y1="303" y2="303"/><text fill="#000000" font-family="sans-serif" font-size="11" lengthAdjust="spacing" textLength="307" x="249.5" y="317.2104">+Estafeta novoEstafeta(nif,nome,email,peso,nss,pwd)</text><text fill="#000000" font-family="sans-serif" font-size="11" lengthAdjust="spacing" textLength="167" x="249.5" y="330.0151">+validaEstafeta(Estafeta est)</text><text fill="#000000" font-family="sans-serif" font-size="11" lengthAdjust="spacing" textLength="172" x="249.5" y="342.8198">+registaEstafeta(Estafeta est)</text><text fill="#000000" font-family="sans-serif" font-size="11" lengthAdjust="spacing" textLength="149" x="249.5" y="355.6245">-addEstafeta(Estafeta est)</text><!--MD5=[dd5ad71b12dabe0adbc098c60a8c9669]
class RegistarOrganizacaoController--><rect codeLine="26" fill="#FEFECE" filter="url(#fko1too99df12)" height="86.4141" id="RegistarOrganizacaoController" style="stroke:#A80036;stroke-width:1.5;" width="268" x="56" y="116"/><ellipse cx="94.4" cy="132" fill="#ADD1B2" rx="11" ry="11" style="stroke:#A80036;stroke-width:1.0;"/><path d="M96.7438,127.6719 C95.8063,127.2344 95.2125,127.0938 94.3375,127.0938 C91.7125,127.0938 89.7125,129.1719 89.7125,131.8906 L89.7125,133.0156 C89.7125,135.5938 91.8219,137.4844 94.7125,137.4844 C95.9313,137.4844 97.0875,137.1875 97.8375,136.6406 C98.4156,136.2344 98.7438,135.7813 98.7438,135.3906 C98.7438,134.9375 98.3531,134.5469 97.8844,134.5469 C97.6656,134.5469 97.4625,134.625 97.275,134.8125 C96.8219,135.2969 96.8219,135.2969 96.6344,135.3906 C96.2125,135.6563 95.525,135.7813 94.7594,135.7813 C92.7125,135.7813 91.4156,134.6875 91.4156,132.9844 L91.4156,131.8906 C91.4156,130.1094 92.6656,128.7969 94.4,128.7969 C94.9781,128.7969 95.5875,128.9531 96.0563,129.2031 C96.5406,129.4844 96.7125,129.7031 96.8063,130.1094 C96.8688,130.5156 96.9,130.6406 97.0406,130.7656 C97.1813,130.9063 97.4156,131.0156 97.6344,131.0156 C97.9,131.0156 98.1656,130.875 98.3375,130.6563 C98.4469,130.5 98.4781,130.3125 98.4781,129.8906 L98.4781,128.4688 C98.4781,128.0313 98.4625,127.9063 98.3688,127.75 C98.2125,127.4844 97.9313,127.3438 97.6344,127.3438 C97.3375,127.3438 97.1344,127.4375 96.9156,127.75 L96.7438,127.6719 Z " fill="#000000"/><text fill="#000000" font-family="sans-serif" font-size="12" lengthAdjust="spacing" textLength="184" x="113.6" y="136.1543">RegistarOrganizacaoController</text><line style="stroke:#A80036;stroke-width:1.5;" x1="57" x2="323" y1="148" y2="148"/><line style="stroke:#A80036;stroke-width:1.5;" x1="57" x2="323" y1="156" y2="156"/><text fill="#000000" font-family="sans-serif" font-size="11" lengthAdjust="spacing" textLength="256" x="62" y="170.2104">+novaEstafeta(nif,nome,email,peso,nss,pwd)</text><text fill="#000000" font-family="sans-serif" font-size="11" lengthAdjust="spacing" textLength="103" x="62" y="183.0151">+registaEstafeta()</text><text fill="#000000" font-family="sans-serif" font-size="11" lengthAdjust="spacing" textLength="115" x="62" y="195.8198">+getListaEstafetas()</text><!--MD5=[26c5f3be5170126d62449270b7dc8f97]
class RegistarOrganizacaoUI--><rect codeLine="32" fill="#FEFECE" filter="url(#fko1too99df12)" height="48" id="RegistarOrganizacaoUI" style="stroke:#A80036;stroke-width:1.5;" width="169" x="105.5" y="7"/><ellipse cx="120.5" cy="23" fill="#ADD1B2" rx="11" ry="11" style="stroke:#A80036;stroke-width:1.0;"/><path d="M122.8438,18.6719 C121.9063,18.2344 121.3125,18.0938 120.4375,18.0938 C117.8125,18.0938 115.8125,20.1719 115.8125,22.8906 L115.8125,24.0156 C115.8125,26.5938 117.9219,28.4844 120.8125,28.4844 C122.0313,28.4844 123.1875,28.1875 123.9375,27.6406 C124.5156,27.2344 124.8438,26.7813 124.8438,26.3906 C124.8438,25.9375 124.4531,25.5469 123.9844,25.5469 C123.7656,25.5469 123.5625,25.625 123.375,25.8125 C122.9219,26.2969 122.9219,26.2969 122.7344,26.3906 C122.3125,26.6563 121.625,26.7813 120.8594,26.7813 C118.8125,26.7813 117.5156,25.6875 117.5156,23.9844 L117.5156,22.8906 C117.5156,21.1094 118.7656,19.7969 120.5,19.7969 C121.0781,19.7969 121.6875,19.9531 122.1563,20.2031 C122.6406,20.4844 122.8125,20.7031 122.9063,21.1094 C122.9688,21.5156 123,21.6406 123.1406,21.7656 C123.2813,21.9063 123.5156,22.0156 123.7344,22.0156 C124,22.0156 124.2656,21.875 124.4375,21.6563 C124.5469,21.5 124.5781,21.3125 124.5781,20.8906 L124.5781,19.4688 C124.5781,19.0313 124.5625,18.9063 124.4688,18.75 C124.3125,18.4844 124.0313,18.3438 123.7344,18.3438 C123.4375,18.3438 123.2344,18.4375 123.0156,18.75 L122.8438,18.6719 Z " fill="#000000"/><text fill="#000000" font-family="sans-serif" font-size="12" lengthAdjust="spacing" textLength="137" x="134.5" y="27.1543">RegistarOrganizacaoUI</text><line style="stroke:#A80036;stroke-width:1.5;" x1="106.5" x2="273.5" y1="39" y2="39"/><line style="stroke:#A80036;stroke-width:1.5;" x1="106.5" x2="273.5" y1="47" y2="47"/><!--MD5=[5968e6aa320025ed2619ac26e0f01233]
link RegistarOrganizacaoUI to RegistarOrganizacaoController--><path codeLine="35" d="M190,55.11 C190,70.631 190,91.639 190,110.625 " fill="none" id="RegistarOrganizacaoUI-to-RegistarOrganizacaoController" style="stroke:#A80036;stroke-width:1.0;stroke-dasharray:7.0,7.0;"/><polygon fill="#A80036" points="190,115.921,194,106.921,190,110.921,186,106.921,190,115.921" style="stroke:#A80036;stroke-width:1.0;"/><!--MD5=[ced493231ad6cc8951f9de3d20826405]
link RegistarOrganizacaoController to EstafetaDB--><path codeLine="36" d="M249.05,202 C274.292,219.955 304.006,241.089 330.562,259.977 " fill="none" id="RegistarOrganizacaoController-to-EstafetaDB" style="stroke:#A80036;stroke-width:1.0;stroke-dasharray:7.0,7.0;"/><polygon fill="#A80036" points="334.795,262.988,329.7783,254.5126,330.7202,260.0905,325.1423,261.0323,334.795,262.988" style="stroke:#A80036;stroke-width:1.0;"/><!--MD5=[1578b36ca5bda246865ae8854b77f819]
link RegistarOrganizacaoController to Estafeta--><path codeLine="37" d="M197.096,202.249 C204.072,243.172 215.212,306.942 226,362 C230.579,385.368 235.896,410.781 240.821,433.71 " fill="none" id="RegistarOrganizacaoController-to-Estafeta" style="stroke:#A80036;stroke-width:1.0;stroke-dasharray:7.0,7.0;"/><polygon fill="#A80036" points="241.931,438.868,243.9464,429.2276,240.8783,433.9801,236.1258,430.9119,241.931,438.868" style="stroke:#A80036;stroke-width:1.0;"/><!--MD5=[90e5bb0fe5a19b1a279437b2c248b23f]
link RegistarOrganizacaoController to AplicacaoPOT--><path codeLine="38" d="M157.13,202.201 C140.316,223.789 119.954,249.932 103.3605,271.236 " fill="none" id="RegistarOrganizacaoController-to-AplicacaoPOT" style="stroke:#A80036;stroke-width:1.0;stroke-dasharray:7.0,7.0;"/><polygon fill="#A80036" points="100.0941,275.43,108.7805,270.7881,103.1668,271.4855,102.4693,265.8718,100.0941,275.43" style="stroke:#A80036;stroke-width:1.0;"/><!--MD5=[a3e63c72779e49a48819b249af53bae4]
link EstafetaDB to Estafeta--><path codeLine="40" d="M366.158,362.328 C349.628,384.236 329.789,410.53 311.584,434.657 " fill="none" id="EstafetaDB-to-Estafeta" style="stroke:#A80036;stroke-width:1.0;"/><polygon fill="#A80036" points="308.442,438.822,317.0557,434.0466,311.4534,434.8306,310.6694,429.2283,308.442,438.822" style="stroke:#A80036;stroke-width:1.0;"/><text fill="#000000" font-family="sans-serif" font-size="13" lengthAdjust="spacing" textLength="97" x="345" y="405.0669">tem registadas</text><text fill="#000000" font-family="sans-serif" font-size="13" lengthAdjust="spacing" textLength="8" x="352.4146" y="382.4506">1</text><text fill="#000000" font-family="sans-serif" font-size="13" lengthAdjust="spacing" textLength="7" x="306.386" y="428.0073">*</text><!--MD5=[921e7b5ca5658b4078220ffc91a2e895]
@startuml
skinparam classAttributeIconSize 0

class AplicacaoPOT
{
  +static getInstance()
  +getSessaoAtual()
}

class Estafeta {
  -String nif
  -String nome
  -String email
  -Double peso
  -Integer nss
  -String pwd
  +Estafeta(nif,nome,email,peso,nss,pwd)
}

class EstafetaDB {
  +Estafeta novoEstafeta(nif,nome,email,peso,nss,pwd)
  +validaEstafeta(Estafeta est)
  +registaEstafeta(Estafeta est)
  -addEstafeta(Estafeta est)
}

class RegistarOrganizacaoController {
    +novaEstafeta(nif,nome,email,peso,nss,pwd)
    +registaEstafeta()
    +getListaEstafetas()
}

class RegistarOrganizacaoUI {
}

RegistarOrganizacaoUI ..> RegistarOrganizacaoController
RegistarOrganizacaoController ..> EstafetaDB
RegistarOrganizacaoController ..> Estafeta
RegistarOrganizacaoController ..> AplicacaoPOT

EstafetaDB "1" - -> "*" Estafeta : tem registadas
@enduml

PlantUML version 1.2020.27beta8(Unknown compile time)
(GPL source distribution)
Java Runtime: Java(TM) SE Runtime Environment
JVM: Java HotSpot(TM) 64-Bit Server VM
Default Encoding: UTF-8
Language: en
Country: US
--></g></svg>