<?xml version="1.0" encoding="UTF-8" standalone="no"?><svg xmlns="http://www.w3.org/2000/svg" xmlns:xlink="http://www.w3.org/1999/xlink" contentScriptType="application/ecmascript" contentStyleType="text/css" height="1357px" preserveAspectRatio="none" style="width:2084px;height:1357px;" version="1.1" viewBox="0 0 2084 1357" width="2084px" zoomAndPan="magnify"><defs><filter height="300%" id="fu5cml9k0cqoi" width="300%" x="-1" y="-1"><feGaussianBlur result="blurOut" stdDeviation="2.0"/><feColorMatrix in="blurOut" result="blurOut2" type="matrix" values="0 0 0 0 0 0 0 0 0 0 0 0 0 0 0 0 0 0 .4 0"/><feOffset dx="4.0" dy="4.0" in="blurOut2" result="blurOut3"/><feBlend in="SourceGraphic" in2="blurOut3" mode="normal"/></filter></defs><g><rect fill="#FFFFFF" filter="url(#fu5cml9k0cqoi)" height="1156.4531" style="stroke:#A80036;stroke-width:1.0;" width="10" x="33.5" y="98.2969"/><rect fill="#FFFFFF" filter="url(#fu5cml9k0cqoi)" height="458.0625" style="stroke:#A80036;stroke-width:1.0;" width="10" x="547.5" y="119.4297"/><rect fill="#FFFFFF" filter="url(#fu5cml9k0cqoi)" height="293.9297" style="stroke:#A80036;stroke-width:1.0;" width="10" x="547.5" y="606.625"/><rect fill="#FFFFFF" filter="url(#fu5cml9k0cqoi)" height="325.0625" style="stroke:#A80036;stroke-width:1.0;" width="10" x="547.5" y="929.6875"/><rect fill="#FFFFFF" filter="url(#fu5cml9k0cqoi)" height="311.5313" style="stroke:#A80036;stroke-width:1.0;" width="10" x="944.5" y="148.5625"/><rect fill="#FFFFFF" filter="url(#fu5cml9k0cqoi)" height="59.1328" style="stroke:#A80036;stroke-width:1.0;" width="10" x="944.5" y="489.2266"/><rect fill="#FFFFFF" filter="url(#fu5cml9k0cqoi)" height="59.1328" style="stroke:#A80036;stroke-width:1.0;" width="10" x="944.5" y="635.7578"/><rect fill="#FFFFFF" filter="url(#fu5cml9k0cqoi)" height="59.1328" style="stroke:#A80036;stroke-width:1.0;" width="10" x="944.5" y="724.0234"/><rect fill="#FFFFFF" filter="url(#fu5cml9k0cqoi)" height="59.1328" style="stroke:#A80036;stroke-width:1.0;" width="10" x="944.5" y="812.2891"/><rect fill="#FFFFFF" filter="url(#fu5cml9k0cqoi)" height="59.1328" style="stroke:#A80036;stroke-width:1.0;" width="10" x="944.5" y="958.8203"/><rect fill="#FFFFFF" filter="url(#fu5cml9k0cqoi)" height="59.1328" style="stroke:#A80036;stroke-width:1.0;" width="10" x="944.5" y="1071.2188"/><rect fill="#FFFFFF" filter="url(#fu5cml9k0cqoi)" height="59.1328" style="stroke:#A80036;stroke-width:1.0;" width="10" x="944.5" y="1166.4844"/><rect fill="#FFFFFF" filter="url(#fu5cml9k0cqoi)" height="30" style="stroke:#A80036;stroke-width:1.0;" width="10" x="1119" y="177.6953"/><rect fill="#FFFFFF" filter="url(#fu5cml9k0cqoi)" height="30" style="stroke:#A80036;stroke-width:1.0;" width="10" x="1247.5" y="261.8281"/><rect fill="#FFFFFF" filter="url(#fu5cml9k0cqoi)" height="30" style="stroke:#A80036;stroke-width:1.0;" width="10" x="1388" y="345.9609"/><rect fill="#FFFFFF" filter="url(#fu5cml9k0cqoi)" height="30" style="stroke:#A80036;stroke-width:1.0;" width="10" x="1520.5" y="430.0938"/><rect fill="#FFFFFF" filter="url(#fu5cml9k0cqoi)" height="30" style="stroke:#A80036;stroke-width:1.0;" width="10" x="1633.5" y="518.3594"/><rect fill="#FFFFFF" filter="url(#fu5cml9k0cqoi)" height="30" style="stroke:#A80036;stroke-width:1.0;" width="10" x="1633.5" y="753.1563"/><rect fill="#FFFFFF" filter="url(#fu5cml9k0cqoi)" height="30" style="stroke:#A80036;stroke-width:1.0;" width="10" x="1633.5" y="1195.6172"/><rect fill="#FFFFFF" filter="url(#fu5cml9k0cqoi)" height="30" style="stroke:#A80036;stroke-width:1.0;" width="10" x="1758" y="664.8906"/><rect fill="#FFFFFF" filter="url(#fu5cml9k0cqoi)" height="30" style="stroke:#A80036;stroke-width:1.0;" width="10" x="1882.5" y="841.4219"/><rect fill="#FFFFFF" filter="url(#fu5cml9k0cqoi)" height="30" style="stroke:#A80036;stroke-width:1.0;" width="10" x="1999" y="987.9531"/><rect fill="#FFFFFF" filter="url(#fu5cml9k0cqoi)" height="30" style="stroke:#A80036;stroke-width:1.0;" width="10" x="1999" y="1100.3516"/><rect fill="#FFFFFF" filter="url(#fu5cml9k0cqoi)" height="105.3984" style="stroke:#000000;stroke-width:2.0;" width="1604" x="466" y="1032.9531"/><line style="stroke:#A80036;stroke-width:1.0;stroke-dasharray:5.0,5.0;" x1="38" x2="38" y1="88.2969" y2="1272.75"/><line style="stroke:#A80036;stroke-width:1.0;stroke-dasharray:5.0,5.0;" x1="552" x2="552" y1="88.2969" y2="1272.75"/><line style="stroke:#A80036;stroke-width:1.0;stroke-dasharray:5.0,5.0;" x1="949" x2="949" y1="88.2969" y2="1272.75"/><line style="stroke:#A80036;stroke-width:1.0;stroke-dasharray:5.0,5.0;" x1="1124" x2="1124" y1="88.2969" y2="1272.75"/><line style="stroke:#A80036;stroke-width:1.0;stroke-dasharray:5.0,5.0;" x1="1252" x2="1252" y1="88.2969" y2="1272.75"/><line style="stroke:#A80036;stroke-width:1.0;stroke-dasharray:5.0,5.0;" x1="1393" x2="1393" y1="88.2969" y2="1272.75"/><line style="stroke:#A80036;stroke-width:1.0;stroke-dasharray:5.0,5.0;" x1="1525" x2="1525" y1="88.2969" y2="1272.75"/><line style="stroke:#A80036;stroke-width:1.0;stroke-dasharray:5.0,5.0;" x1="1638" x2="1638" y1="88.2969" y2="1272.75"/><line style="stroke:#A80036;stroke-width:1.0;stroke-dasharray:5.0,5.0;" x1="1763" x2="1763" y1="88.2969" y2="1272.75"/><line style="stroke:#A80036;stroke-width:1.0;stroke-dasharray:5.0,5.0;" x1="1887" x2="1887" y1="88.2969" y2="1272.75"/><line style="stroke:#A80036;stroke-width:1.0;stroke-dasharray:5.0,5.0;" x1="2004" x2="2004" y1="88.2969" y2="1272.75"/><text fill="#000000" font-family="sans-serif" font-size="14" lengthAdjust="spacing" textLength="61" x="5" y="84.9951">Estafeta</text><ellipse cx="38.5" cy="15" fill="#FEFECE" filter="url(#fu5cml9k0cqoi)" rx="8" ry="8" style="stroke:#A80036;stroke-width:2.0;"/><path d="M38.5,23 L38.5,50 M25.5,31 L51.5,31 M38.5,50 L25.5,65 M38.5,50 L51.5,65 " fill="none" filter="url(#fu5cml9k0cqoi)" style="stroke:#A80036;stroke-width:2.0;"/><text fill="#000000" font-family="sans-serif" font-size="14" lengthAdjust="spacing" textLength="61" x="5" y="1284.7451">Estafeta</text><ellipse cx="38.5" cy="1298.0469" fill="#FEFECE" filter="url(#fu5cml9k0cqoi)" rx="8" ry="8" style="stroke:#A80036;stroke-width:2.0;"/><path d="M38.5,1306.0469 L38.5,1333.0469 M25.5,1314.0469 L51.5,1314.0469 M38.5,1333.0469 L25.5,1348.0469 M38.5,1333.0469 L51.5,1348.0469 " fill="none" filter="url(#fu5cml9k0cqoi)" style="stroke:#A80036;stroke-width:2.0;"/><rect fill="#FEFECE" filter="url(#fu5cml9k0cqoi)" height="30.2969" style="stroke:#A80036;stroke-width:1.5;" width="149" x="476" y="53"/><text fill="#000000" font-family="sans-serif" font-size="14" lengthAdjust="spacing" textLength="135" x="483" y="72.9951">:RegistarEntregaUI</text><rect fill="#FEFECE" filter="url(#fu5cml9k0cqoi)" height="30.2969" style="stroke:#A80036;stroke-width:1.5;" width="149" x="476" y="1271.75"/><text fill="#000000" font-family="sans-serif" font-size="14" lengthAdjust="spacing" textLength="135" x="483" y="1291.7451">:RegistarEntregaUI</text><rect fill="#FEFECE" filter="url(#fu5cml9k0cqoi)" height="30.2969" style="stroke:#A80036;stroke-width:1.5;" width="209" x="843" y="53"/><text fill="#000000" font-family="sans-serif" font-size="14" lengthAdjust="spacing" textLength="195" x="850" y="72.9951">:RegistarEntregaController</text><rect fill="#FEFECE" filter="url(#fu5cml9k0cqoi)" height="30.2969" style="stroke:#A80036;stroke-width:1.5;" width="209" x="843" y="1271.75"/><text fill="#000000" font-family="sans-serif" font-size="14" lengthAdjust="spacing" textLength="195" x="850" y="1291.7451">:RegistarEntregaController</text><rect fill="#FEFECE" filter="url(#fu5cml9k0cqoi)" height="30.2969" style="stroke:#A80036;stroke-width:1.5;" width="112" x="1066" y="53"/><text fill="#000000" font-family="sans-serif" font-size="14" lengthAdjust="spacing" textLength="98" x="1073" y="72.9951">AplicacaoPOT</text><rect fill="#FEFECE" filter="url(#fu5cml9k0cqoi)" height="30.2969" style="stroke:#A80036;stroke-width:1.5;" width="112" x="1066" y="1271.75"/><text fill="#000000" font-family="sans-serif" font-size="14" lengthAdjust="spacing" textLength="98" x="1073" y="1291.7451">AplicacaoPOT</text><rect fill="#FEFECE" filter="url(#fu5cml9k0cqoi)" height="46.5938" style="stroke:#A80036;stroke-width:1.5;" width="117" x="1192" y="36.7031"/><text fill="#000000" font-family="sans-serif" font-size="14" lengthAdjust="spacing" textLength="28" x="1236.5" y="56.6982">app</text><text fill="#000000" font-family="sans-serif" font-size="14" lengthAdjust="spacing" textLength="103" x="1199" y="72.9951">:AplicacaoPOT</text><rect fill="#FEFECE" filter="url(#fu5cml9k0cqoi)" height="46.5938" style="stroke:#A80036;stroke-width:1.5;" width="117" x="1192" y="1271.75"/><text fill="#000000" font-family="sans-serif" font-size="14" lengthAdjust="spacing" textLength="28" x="1236.5" y="1291.7451">app</text><text fill="#000000" font-family="sans-serif" font-size="14" lengthAdjust="spacing" textLength="103" x="1199" y="1308.042">:AplicacaoPOT</text><rect fill="#FEFECE" filter="url(#fu5cml9k0cqoi)" height="46.5938" style="stroke:#A80036;stroke-width:1.5;" width="136" x="1323" y="36.7031"/><text fill="#000000" font-family="sans-serif" font-size="14" lengthAdjust="spacing" textLength="47" x="1367.5" y="56.6982">sessao</text><text fill="#000000" font-family="sans-serif" font-size="14" lengthAdjust="spacing" textLength="122" x="1330" y="72.9951">:SessaoUtilizador</text><rect fill="#FEFECE" filter="url(#fu5cml9k0cqoi)" height="46.5938" style="stroke:#A80036;stroke-width:1.5;" width="136" x="1323" y="1271.75"/><text fill="#000000" font-family="sans-serif" font-size="14" lengthAdjust="spacing" textLength="47" x="1367.5" y="1291.7451">sessao</text><text fill="#000000" font-family="sans-serif" font-size="14" lengthAdjust="spacing" textLength="122" x="1330" y="1308.042">:SessaoUtilizador</text><rect fill="#FEFECE" filter="url(#fu5cml9k0cqoi)" height="30.2969" style="stroke:#A80036;stroke-width:1.5;" width="101" x="1473" y="53"/><text fill="#000000" font-family="sans-serif" font-size="14" lengthAdjust="spacing" textLength="87" x="1480" y="72.9951">:EstafetaDB</text><rect fill="#FEFECE" filter="url(#fu5cml9k0cqoi)" height="30.2969" style="stroke:#A80036;stroke-width:1.5;" width="101" x="1473" y="1271.75"/><text fill="#000000" font-family="sans-serif" font-size="14" lengthAdjust="spacing" textLength="87" x="1480" y="1291.7451">:EstafetaDB</text><rect fill="#FEFECE" filter="url(#fu5cml9k0cqoi)" height="30.2969" style="stroke:#A80036;stroke-width:1.5;" width="97" x="1588" y="53"/><text fill="#000000" font-family="sans-serif" font-size="14" lengthAdjust="spacing" textLength="83" x="1595" y="72.9951">:EntregaDB</text><rect fill="#FEFECE" filter="url(#fu5cml9k0cqoi)" height="30.2969" style="stroke:#A80036;stroke-width:1.5;" width="97" x="1588" y="1271.75"/><text fill="#000000" font-family="sans-serif" font-size="14" lengthAdjust="spacing" textLength="83" x="1595" y="1291.7451">:EntregaDB</text><rect fill="#FEFECE" filter="url(#fu5cml9k0cqoi)" height="30.2969" style="stroke:#A80036;stroke-width:1.5;" width="124" x="1699" y="53"/><text fill="#000000" font-family="sans-serif" font-size="14" lengthAdjust="spacing" textLength="110" x="1706" y="72.9951">:EncomendaDB</text><rect fill="#FEFECE" filter="url(#fu5cml9k0cqoi)" height="30.2969" style="stroke:#A80036;stroke-width:1.5;" width="124" x="1699" y="1271.75"/><text fill="#000000" font-family="sans-serif" font-size="14" lengthAdjust="spacing" textLength="110" x="1706" y="1291.7451">:EncomendaDB</text><rect fill="#FEFECE" filter="url(#fu5cml9k0cqoi)" height="30.2969" style="stroke:#A80036;stroke-width:1.5;" width="97" x="1837" y="53"/><text fill="#000000" font-family="sans-serif" font-size="14" lengthAdjust="spacing" textLength="83" x="1844" y="72.9951">:ScooterDB</text><rect fill="#FEFECE" filter="url(#fu5cml9k0cqoi)" height="30.2969" style="stroke:#A80036;stroke-width:1.5;" width="97" x="1837" y="1271.75"/><text fill="#000000" font-family="sans-serif" font-size="14" lengthAdjust="spacing" textLength="83" x="1844" y="1291.7451">:ScooterDB</text><rect fill="#FEFECE" filter="url(#fu5cml9k0cqoi)" height="30.2969" style="stroke:#A80036;stroke-width:1.5;" width="108" x="1948" y="53"/><text fill="#000000" font-family="sans-serif" font-size="14" lengthAdjust="spacing" textLength="94" x="1955" y="72.9951">:EnderecoDB</text><rect fill="#FEFECE" filter="url(#fu5cml9k0cqoi)" height="30.2969" style="stroke:#A80036;stroke-width:1.5;" width="108" x="1948" y="1271.75"/><text fill="#000000" font-family="sans-serif" font-size="14" lengthAdjust="spacing" textLength="94" x="1955" y="1291.7451">:EnderecoDB</text><rect fill="#FFFFFF" filter="url(#fu5cml9k0cqoi)" height="1156.4531" style="stroke:#A80036;stroke-width:1.0;" width="10" x="33.5" y="98.2969"/><rect fill="#FFFFFF" filter="url(#fu5cml9k0cqoi)" height="458.0625" style="stroke:#A80036;stroke-width:1.0;" width="10" x="547.5" y="119.4297"/><rect fill="#FFFFFF" filter="url(#fu5cml9k0cqoi)" height="293.9297" style="stroke:#A80036;stroke-width:1.0;" width="10" x="547.5" y="606.625"/><rect fill="#FFFFFF" filter="url(#fu5cml9k0cqoi)" height="325.0625" style="stroke:#A80036;stroke-width:1.0;" width="10" x="547.5" y="929.6875"/><rect fill="#FFFFFF" filter="url(#fu5cml9k0cqoi)" height="311.5313" style="stroke:#A80036;stroke-width:1.0;" width="10" x="944.5" y="148.5625"/><rect fill="#FFFFFF" filter="url(#fu5cml9k0cqoi)" height="59.1328" style="stroke:#A80036;stroke-width:1.0;" width="10" x="944.5" y="489.2266"/><rect fill="#FFFFFF" filter="url(#fu5cml9k0cqoi)" height="59.1328" style="stroke:#A80036;stroke-width:1.0;" width="10" x="944.5" y="635.7578"/><rect fill="#FFFFFF" filter="url(#fu5cml9k0cqoi)" height="59.1328" style="stroke:#A80036;stroke-width:1.0;" width="10" x="944.5" y="724.0234"/><rect fill="#FFFFFF" filter="url(#fu5cml9k0cqoi)" height="59.1328" style="stroke:#A80036;stroke-width:1.0;" width="10" x="944.5" y="812.2891"/><rect fill="#FFFFFF" filter="url(#fu5cml9k0cqoi)" height="59.1328" style="stroke:#A80036;stroke-width:1.0;" width="10" x="944.5" y="958.8203"/><rect fill="#FFFFFF" filter="url(#fu5cml9k0cqoi)" height="59.1328" style="stroke:#A80036;stroke-width:1.0;" width="10" x="944.5" y="1071.2188"/><rect fill="#FFFFFF" filter="url(#fu5cml9k0cqoi)" height="59.1328" style="stroke:#A80036;stroke-width:1.0;" width="10" x="944.5" y="1166.4844"/><rect fill="#FFFFFF" filter="url(#fu5cml9k0cqoi)" height="30" style="stroke:#A80036;stroke-width:1.0;" width="10" x="1119" y="177.6953"/><rect fill="#FFFFFF" filter="url(#fu5cml9k0cqoi)" height="30" style="stroke:#A80036;stroke-width:1.0;" width="10" x="1247.5" y="261.8281"/><rect fill="#FFFFFF" filter="url(#fu5cml9k0cqoi)" height="30" style="stroke:#A80036;stroke-width:1.0;" width="10" x="1388" y="345.9609"/><rect fill="#FFFFFF" filter="url(#fu5cml9k0cqoi)" height="30" style="stroke:#A80036;stroke-width:1.0;" width="10" x="1520.5" y="430.0938"/><rect fill="#FFFFFF" filter="url(#fu5cml9k0cqoi)" height="30" style="stroke:#A80036;stroke-width:1.0;" width="10" x="1633.5" y="518.3594"/><rect fill="#FFFFFF" filter="url(#fu5cml9k0cqoi)" height="30" style="stroke:#A80036;stroke-width:1.0;" width="10" x="1633.5" y="753.1563"/><rect fill="#FFFFFF" filter="url(#fu5cml9k0cqoi)" height="30" style="stroke:#A80036;stroke-width:1.0;" width="10" x="1633.5" y="1195.6172"/><rect fill="#FFFFFF" filter="url(#fu5cml9k0cqoi)" height="30" style="stroke:#A80036;stroke-width:1.0;" width="10" x="1758" y="664.8906"/><rect fill="#FFFFFF" filter="url(#fu5cml9k0cqoi)" height="30" style="stroke:#A80036;stroke-width:1.0;" width="10" x="1882.5" y="841.4219"/><rect fill="#FFFFFF" filter="url(#fu5cml9k0cqoi)" height="30" style="stroke:#A80036;stroke-width:1.0;" width="10" x="1999" y="987.9531"/><rect fill="#FFFFFF" filter="url(#fu5cml9k0cqoi)" height="30" style="stroke:#A80036;stroke-width:1.0;" width="10" x="1999" y="1100.3516"/><polygon fill="#A80036" points="535.5,115.4297,545.5,119.4297,535.5,123.4297,539.5,119.4297" style="stroke:#A80036;stroke-width:1.0;"/><line style="stroke:#A80036;stroke-width:1.0;" x1="43.5" x2="541.5" y1="119.4297" y2="119.4297"/><text fill="#000000" font-family="sans-serif" font-size="13" font-weight="bold" lengthAdjust="spacing" textLength="9" x="50.5" y="114.3638">1</text><text fill="#000000" font-family="sans-serif" font-size="13" lengthAdjust="spacing" textLength="86" x="63.5" y="114.3638">inicia entrega</text><polygon fill="#A80036" points="932.5,144.5625,942.5,148.5625,932.5,152.5625,936.5,148.5625" style="stroke:#A80036;stroke-width:1.0;"/><line style="stroke:#A80036;stroke-width:1.0;" x1="557.5" x2="938.5" y1="148.5625" y2="148.5625"/><text fill="#000000" font-family="sans-serif" font-size="13" font-weight="bold" lengthAdjust="spacing" textLength="9" x="564.5" y="143.4966">2</text><text fill="#000000" font-family="sans-serif" font-size="13" lengthAdjust="spacing" textLength="85" x="577.5" y="143.4966">getEstafeta()</text><polygon fill="#A80036" points="1107,173.6953,1117,177.6953,1107,181.6953,1111,177.6953" style="stroke:#A80036;stroke-width:1.0;"/><line style="stroke:#A80036;stroke-width:1.0;" x1="954.5" x2="1113" y1="177.6953" y2="177.6953"/><text fill="#000000" font-family="sans-serif" font-size="13" font-weight="bold" lengthAdjust="spacing" textLength="8" x="961.5" y="172.6294">3</text><text fill="#000000" font-family="sans-serif" font-size="13" lengthAdjust="spacing" textLength="127" x="973.5" y="172.6294">app = getInstance()</text><polygon fill="#A80036" points="1235.5,257.8281,1245.5,261.8281,1235.5,265.8281,1239.5,261.8281" style="stroke:#A80036;stroke-width:1.0;"/><line style="stroke:#A80036;stroke-width:1.0;" x1="954.5" x2="1241.5" y1="261.8281" y2="261.8281"/><text fill="#000000" font-family="sans-serif" font-size="13" font-weight="bold" lengthAdjust="spacing" textLength="9" x="961.5" y="256.7622">4</text><text fill="#000000" font-family="sans-serif" font-size="13" lengthAdjust="spacing" textLength="173" x="974.5" y="256.7622">sessao = getSessaoAtual()</text><polygon fill="#A80036" points="1376,341.9609,1386,345.9609,1376,349.9609,1380,345.9609" style="stroke:#A80036;stroke-width:1.0;"/><line style="stroke:#A80036;stroke-width:1.0;" x1="954.5" x2="1382" y1="345.9609" y2="345.9609"/><text fill="#000000" font-family="sans-serif" font-size="13" font-weight="bold" lengthAdjust="spacing" textLength="9" x="961.5" y="340.895">5</text><text fill="#000000" font-family="sans-serif" font-size="13" lengthAdjust="spacing" textLength="178" x="974.5" y="340.895">email = getEmailUtilizador()</text><polygon fill="#A80036" points="1508.5,426.0938,1518.5,430.0938,1508.5,434.0938,1512.5,430.0938" style="stroke:#A80036;stroke-width:1.0;"/><line style="stroke:#A80036;stroke-width:1.0;" x1="954.5" x2="1514.5" y1="430.0938" y2="430.0938"/><text fill="#000000" font-family="sans-serif" font-size="13" font-weight="bold" lengthAdjust="spacing" textLength="9" x="961.5" y="425.0278">6</text><text fill="#000000" font-family="sans-serif" font-size="13" lengthAdjust="spacing" textLength="201" x="974.5" y="425.0278">est=getEstafetaByEmail(email)</text><polygon fill="#A80036" points="932.5,485.2266,942.5,489.2266,932.5,493.2266,936.5,489.2266" style="stroke:#A80036;stroke-width:1.0;"/><line style="stroke:#A80036;stroke-width:1.0;" x1="557.5" x2="938.5" y1="489.2266" y2="489.2266"/><text fill="#000000" font-family="sans-serif" font-size="13" font-weight="bold" lengthAdjust="spacing" textLength="9" x="564.5" y="484.1606">7</text><text fill="#000000" font-family="sans-serif" font-size="13" lengthAdjust="spacing" textLength="268" x="577.5" y="484.1606">getListaEntregaByNifEstafeta(nifEstafeta)</text><polygon fill="#A80036" points="1621.5,514.3594,1631.5,518.3594,1621.5,522.3594,1625.5,518.3594" style="stroke:#A80036;stroke-width:1.0;"/><line style="stroke:#A80036;stroke-width:1.0;" x1="954.5" x2="1627.5" y1="518.3594" y2="518.3594"/><text fill="#000000" font-family="sans-serif" font-size="13" font-weight="bold" lengthAdjust="spacing" textLength="9" x="961.5" y="513.2935">8</text><text fill="#000000" font-family="sans-serif" font-size="13" lengthAdjust="spacing" textLength="361" x="974.5" y="513.2935">listaEntregas=getListaEntregaByNifEstafeta(nifEstafeta)</text><polygon fill="#A80036" points="54.5,573.4922,44.5,577.4922,54.5,581.4922,50.5,577.4922" style="stroke:#A80036;stroke-width:1.0;"/><line style="stroke:#A80036;stroke-width:1.0;stroke-dasharray:2.0,2.0;" x1="48.5" x2="551.5" y1="577.4922" y2="577.4922"/><text fill="#000000" font-family="sans-serif" font-size="13" font-weight="bold" lengthAdjust="spacing" textLength="9" x="60.5" y="572.4263">9</text><text fill="#000000" font-family="sans-serif" font-size="13" lengthAdjust="spacing" textLength="467" x="73.5" y="572.4263">mostra a lista de entregas do estafeta e solicita escolha de uma entrega</text><polygon fill="#A80036" points="535.5,602.625,545.5,606.625,535.5,610.625,539.5,606.625" style="stroke:#A80036;stroke-width:1.0;"/><line style="stroke:#A80036;stroke-width:1.0;" x1="43.5" x2="541.5" y1="606.625" y2="606.625"/><text fill="#000000" font-family="sans-serif" font-size="13" font-weight="bold" lengthAdjust="spacing" textLength="19" x="50.5" y="601.5591">10</text><text fill="#000000" font-family="sans-serif" font-size="13" lengthAdjust="spacing" textLength="166" x="73.5" y="601.5591">introduz dados solicitados</text><polygon fill="#A80036" points="932.5,631.7578,942.5,635.7578,932.5,639.7578,936.5,635.7578" style="stroke:#A80036;stroke-width:1.0;"/><line style="stroke:#A80036;stroke-width:1.0;" x1="557.5" x2="938.5" y1="635.7578" y2="635.7578"/><text fill="#000000" font-family="sans-serif" font-size="13" font-weight="bold" lengthAdjust="spacing" textLength="18" x="564.5" y="630.6919">11</text><text fill="#000000" font-family="sans-serif" font-size="13" lengthAdjust="spacing" textLength="225" x="586.5" y="630.6919">getListaEncomendaById(idEntrega)</text><polygon fill="#A80036" points="1746,660.8906,1756,664.8906,1746,668.8906,1750,664.8906" style="stroke:#A80036;stroke-width:1.0;"/><line style="stroke:#A80036;stroke-width:1.0;" x1="954.5" x2="1752" y1="664.8906" y2="664.8906"/><text fill="#000000" font-family="sans-serif" font-size="13" font-weight="bold" lengthAdjust="spacing" textLength="18" x="961.5" y="659.8247">12</text><text fill="#000000" font-family="sans-serif" font-size="13" lengthAdjust="spacing" textLength="344" x="983.5" y="659.8247">listaEncomendas=getListaEncomendaById(idEntrega)</text><polygon fill="#A80036" points="932.5,720.0234,942.5,724.0234,932.5,728.0234,936.5,724.0234" style="stroke:#A80036;stroke-width:1.0;"/><line style="stroke:#A80036;stroke-width:1.0;" x1="557.5" x2="938.5" y1="724.0234" y2="724.0234"/><text fill="#000000" font-family="sans-serif" font-size="13" font-weight="bold" lengthAdjust="spacing" textLength="17" x="564.5" y="718.9575">13</text><text fill="#000000" font-family="sans-serif" font-size="13" lengthAdjust="spacing" textLength="189" x="585.5" y="718.9575">getEntregaById(int idEntrega)</text><polygon fill="#A80036" points="1621.5,749.1563,1631.5,753.1563,1621.5,757.1563,1625.5,753.1563" style="stroke:#A80036;stroke-width:1.0;"/><line style="stroke:#A80036;stroke-width:1.0;" x1="954.5" x2="1627.5" y1="753.1563" y2="753.1563"/><text fill="#000000" font-family="sans-serif" font-size="13" font-weight="bold" lengthAdjust="spacing" textLength="18" x="961.5" y="748.0903">14</text><text fill="#000000" font-family="sans-serif" font-size="13" lengthAdjust="spacing" textLength="225" x="983.5" y="748.0903">entr=getEntregaById(int idEntrega)</text><polygon fill="#A80036" points="932.5,808.2891,942.5,812.2891,932.5,816.2891,936.5,812.2891" style="stroke:#A80036;stroke-width:1.0;"/><line style="stroke:#A80036;stroke-width:1.0;" x1="557.5" x2="938.5" y1="812.2891" y2="812.2891"/><text fill="#000000" font-family="sans-serif" font-size="13" font-weight="bold" lengthAdjust="spacing" textLength="18" x="564.5" y="807.2231">15</text><text fill="#000000" font-family="sans-serif" font-size="13" lengthAdjust="spacing" textLength="167" x="586.5" y="807.2231">getScooterById(idScooter)</text><polygon fill="#A80036" points="1870.5,837.4219,1880.5,841.4219,1870.5,845.4219,1874.5,841.4219" style="stroke:#A80036;stroke-width:1.0;"/><line style="stroke:#A80036;stroke-width:1.0;" x1="954.5" x2="1876.5" y1="841.4219" y2="841.4219"/><text fill="#000000" font-family="sans-serif" font-size="13" font-weight="bold" lengthAdjust="spacing" textLength="18" x="961.5" y="836.356">16</text><text fill="#000000" font-family="sans-serif" font-size="13" lengthAdjust="spacing" textLength="225" x="983.5" y="836.356">scooter=getScooterById(idScooter)</text><polygon fill="#A80036" points="54.5,896.5547,44.5,900.5547,54.5,904.5547,50.5,900.5547" style="stroke:#A80036;stroke-width:1.0;"/><line style="stroke:#A80036;stroke-width:1.0;stroke-dasharray:2.0,2.0;" x1="48.5" x2="551.5" y1="900.5547" y2="900.5547"/><text fill="#000000" font-family="sans-serif" font-size="13" font-weight="bold" lengthAdjust="spacing" textLength="18" x="60.5" y="895.4888">17</text><text fill="#000000" font-family="sans-serif" font-size="13" lengthAdjust="spacing" textLength="252" x="82.5" y="895.4888">apresenta dados e solicita confirmação</text><polygon fill="#A80036" points="535.5,925.6875,545.5,929.6875,535.5,933.6875,539.5,929.6875" style="stroke:#A80036;stroke-width:1.0;"/><line style="stroke:#A80036;stroke-width:1.0;" x1="43.5" x2="541.5" y1="929.6875" y2="929.6875"/><text fill="#000000" font-family="sans-serif" font-size="13" font-weight="bold" lengthAdjust="spacing" textLength="18" x="50.5" y="924.6216">18</text><text fill="#000000" font-family="sans-serif" font-size="13" lengthAdjust="spacing" textLength="119" x="72.5" y="924.6216">confirma os dados</text><polygon fill="#A80036" points="932.5,954.8203,942.5,958.8203,932.5,962.8203,936.5,958.8203" style="stroke:#A80036;stroke-width:1.0;"/><line style="stroke:#A80036;stroke-width:1.0;" x1="557.5" x2="938.5" y1="958.8203" y2="958.8203"/><text fill="#000000" font-family="sans-serif" font-size="13" font-weight="bold" lengthAdjust="spacing" textLength="18" x="564.5" y="953.7544">19</text><text fill="#000000" font-family="sans-serif" font-size="13" lengthAdjust="spacing" textLength="136" x="586.5" y="953.7544">getEnderecoParque()</text><polygon fill="#A80036" points="1987,983.9531,1997,987.9531,1987,991.9531,1991,987.9531" style="stroke:#A80036;stroke-width:1.0;"/><line style="stroke:#A80036;stroke-width:1.0;" x1="954.5" x2="1993" y1="987.9531" y2="987.9531"/><text fill="#000000" font-family="sans-serif" font-size="13" font-weight="bold" lengthAdjust="spacing" textLength="19" x="961.5" y="982.8872">20</text><text fill="#000000" font-family="sans-serif" font-size="13" lengthAdjust="spacing" textLength="191" x="984.5" y="982.8872">origem=getEnderecoParque()</text><path d="M466,1032.9531 L544,1032.9531 L544,1039.9531 L534,1049.9531 L466,1049.9531 L466,1032.9531 " fill="#EEEEEE" style="stroke:#000000;stroke-width:1.0;"/><rect fill="none" height="105.3984" style="stroke:#000000;stroke-width:2.0;" width="1604" x="466" y="1032.9531"/><text fill="#000000" font-family="sans-serif" font-size="13" font-weight="bold" lengthAdjust="spacing" textLength="33" x="481" y="1046.02">loop</text><polygon fill="#A80036" points="932.5,1067.2188,942.5,1071.2188,932.5,1075.2188,936.5,1071.2188" style="stroke:#A80036;stroke-width:1.0;"/><line style="stroke:#A80036;stroke-width:1.0;" x1="557.5" x2="938.5" y1="1071.2188" y2="1071.2188"/><text fill="#000000" font-family="sans-serif" font-size="13" font-weight="bold" lengthAdjust="spacing" textLength="18" x="564.5" y="1066.1528">21</text><text fill="#000000" font-family="sans-serif" font-size="13" lengthAdjust="spacing" textLength="204" x="586.5" y="1066.1528">getEnderecoByNifCliente(int nif)</text><polygon fill="#A80036" points="1987,1096.3516,1997,1100.3516,1987,1104.3516,1991,1100.3516" style="stroke:#A80036;stroke-width:1.0;"/><line style="stroke:#A80036;stroke-width:1.0;" x1="954.5" x2="1993" y1="1100.3516" y2="1100.3516"/><text fill="#000000" font-family="sans-serif" font-size="13" font-weight="bold" lengthAdjust="spacing" textLength="18" x="961.5" y="1095.2856">22</text><text fill="#000000" font-family="sans-serif" font-size="13" lengthAdjust="spacing" textLength="254" x="983.5" y="1095.2856">endereco=getEnderecoByNifCliente(nif)</text><polygon fill="#A80036" points="932.5,1162.4844,942.5,1166.4844,932.5,1170.4844,936.5,1166.4844" style="stroke:#A80036;stroke-width:1.0;"/><line style="stroke:#A80036;stroke-width:1.0;" x1="557.5" x2="938.5" y1="1166.4844" y2="1166.4844"/><text fill="#000000" font-family="sans-serif" font-size="13" font-weight="bold" lengthAdjust="spacing" textLength="17" x="564.5" y="1161.4185">23</text><text fill="#000000" font-family="sans-serif" font-size="13" lengthAdjust="spacing" textLength="347" x="585.5" y="1161.4185">generateGraph(listEnderecos, est, scooter, pesoTotal)</text><polygon fill="#A80036" points="1621.5,1191.6172,1631.5,1195.6172,1621.5,1199.6172,1625.5,1195.6172" style="stroke:#A80036;stroke-width:1.0;"/><line style="stroke:#A80036;stroke-width:1.0;" x1="954.5" x2="1627.5" y1="1195.6172" y2="1195.6172"/><text fill="#000000" font-family="sans-serif" font-size="13" font-weight="bold" lengthAdjust="spacing" textLength="18" x="961.5" y="1190.5513">24</text><text fill="#000000" font-family="sans-serif" font-size="13" lengthAdjust="spacing" textLength="347" x="983.5" y="1190.5513">generateGraph(listEnderecos, est, scooter, pesoTotal)</text><polygon fill="#A80036" points="49.5,1250.75,39.5,1254.75,49.5,1258.75,45.5,1254.75" style="stroke:#A80036;stroke-width:1.0;"/><line style="stroke:#A80036;stroke-width:1.0;stroke-dasharray:2.0,2.0;" x1="43.5" x2="551.5" y1="1254.75" y2="1254.75"/><text fill="#000000" font-family="sans-serif" font-size="13" font-weight="bold" lengthAdjust="spacing" textLength="18" x="55.5" y="1249.6841">25</text><text fill="#000000" font-family="sans-serif" font-size="13" lengthAdjust="spacing" textLength="208" x="77.5" y="1249.6841">informa operação bem sucedida</text><!--MD5=[c06d8269d6ca3ff27d0ded762e6ab9a5]
@startuml
autonumber
actor "Estafeta" as EST

participant ":RegistarEntregaUI" as UI
participant ":RegistarEntregaController" as CTRL
participant "AplicacaoPOT" as _APP
participant "app\n:AplicacaoPOT" as APP
participant "sessao\n:SessaoUtilizador" as SESSAO

participant ":EstafetaDB" as ESTDB
participant ":EntregaDB" as ENTRDB

participant ":EncomendaDB" as RENC
participant ":ScooterDB" as RS
participant ":EnderecoDB" as END

activate EST
EST -> UI : inicia entrega
activate UI
UI -> CTRL : getEstafeta()
activate CTRL
CTRL -> _APP: app = getInstance()
activate _APP
|||
deactivate _APP
CTRL -> APP: sessao = getSessaoAtual()
activate APP
|||
deactivate APP

CTRL -> SESSAO: email = getEmailUtilizador()
activate SESSAO
|||
deactivate SESSAO
CTRL -> ESTDB : est=getEstafetaByEmail(email)
activate ESTDB
deactivate ESTDB
deactivate CTRL
UI -> CTRL : getListaEntregaByNifEstafeta(nifEstafeta)
activate CTRL
CTRL -> ENTRDB : listaEntregas=getListaEntregaByNifEstafeta(nifEstafeta)
activate ENTRDB
deactivate ENTRDB
deactivate CTRL
UI - -> EST : mostra a lista de entregas do estafeta e solicita escolha de uma entrega
deactivate UI

EST -> UI : introduz dados solicitados
activate UI
UI -> CTRL : getListaEncomendaById(idEntrega)
activate CTRL
CTRL -> RENC : listaEncomendas=getListaEncomendaById(idEntrega)
activate RENC
deactivate RENC
deactivate CTRL
UI -> CTRL : getEntregaById(int idEntrega)
activate CTRL
CTRL -> ENTRDB : entr=getEntregaById(int idEntrega)
activate ENTRDB
deactivate ENTRDB
deactivate CTRL
UI -> CTRL : getScooterById(idScooter)
activate CTRL
CTRL -> RS : scooter=getScooterById(idScooter)
activate RS
deactivate RS
deactivate CTRL


UI - -> EST : apresenta dados e solicita confirmação
deactivate UI

EST -> UI : confirma os dados
activate UI
UI -> CTRL : getEnderecoParque()
activate CTRL
CTRL-> END : origem=getEnderecoParque()
activate END
deactivate END
deactivate CTRL
loop
UI -> CTRL : getEnderecoByNifCliente(int nif)
activate CTRL
CTRL -> END : endereco=getEnderecoByNifCliente(nif)
activate END
deactivate END
deactivate CTRL
end loop

UI -> CTRL : generateGraph(listEnderecos, est, scooter, pesoTotal)
activate CTRL
CTRL -> ENTRDB : generateGraph(listEnderecos, est, scooter, pesoTotal)
activate ENTRDB
deactivate ENTRDB
deactivate CTRL
UI - -> EST : informa operação bem sucedida
deactivate CTRL
deactivate UI

deactivate EST
@enduml

PlantUML version 1.2020.27beta8(Unknown compile time)
(GPL source distribution)
Java Runtime: Java(TM) SE Runtime Environment
JVM: Java HotSpot(TM) 64-Bit Server VM
Default Encoding: UTF-8
Language: en
Country: US
--></g></svg>