<?xml version="1.0" encoding="UTF-8" standalone="no"?><svg xmlns="http://www.w3.org/2000/svg" xmlns:xlink="http://www.w3.org/1999/xlink" contentScriptType="application/ecmascript" contentStyleType="text/css" height="309px" preserveAspectRatio="none" style="width:506px;height:309px;" version="1.1" viewBox="0 0 506 309" width="506px" zoomAndPan="magnify"><defs><filter height="300%" id="f30n6uuccnrtm" width="300%" x="-1" y="-1"><feGaussianBlur result="blurOut" stdDeviation="2.0"/><feColorMatrix in="blurOut" result="blurOut2" type="matrix" values="0 0 0 0 0 0 0 0 0 0 0 0 0 0 0 0 0 0 .4 0"/><feOffset dx="4.0" dy="4.0" in="blurOut2" result="blurOut3"/><feBlend in="SourceGraphic" in2="blurOut3" mode="normal"/></filter></defs><g><rect fill="#FFFFFF" filter="url(#f30n6uuccnrtm)" height="108.5313" style="stroke:#A80036;stroke-width:1.0;" width="10" x="33.5" y="98.2969"/><rect fill="#FFFFFF" filter="url(#f30n6uuccnrtm)" height="29.1328" style="stroke:#A80036;stroke-width:1.0;" width="10" x="450.5" y="119.4297"/><rect fill="#FFFFFF" filter="url(#f30n6uuccnrtm)" height="29.1328" style="stroke:#A80036;stroke-width:1.0;" width="10" x="450.5" y="177.6953"/><line style="stroke:#A80036;stroke-width:1.0;stroke-dasharray:5.0,5.0;" x1="38" x2="38" y1="88.2969" y2="224.8281"/><line style="stroke:#A80036;stroke-width:1.0;stroke-dasharray:5.0,5.0;" x1="455" x2="455" y1="88.2969" y2="224.8281"/><text fill="#000000" font-family="sans-serif" font-size="14" lengthAdjust="spacing" textLength="61" x="5" y="84.9951">Estafeta</text><ellipse cx="38.5" cy="15" fill="#FEFECE" filter="url(#f30n6uuccnrtm)" rx="8" ry="8" style="stroke:#A80036;stroke-width:2.0;"/><path d="M38.5,23 L38.5,50 M25.5,31 L51.5,31 M38.5,50 L25.5,65 M38.5,50 L51.5,65 " fill="none" filter="url(#f30n6uuccnrtm)" style="stroke:#A80036;stroke-width:2.0;"/><text fill="#000000" font-family="sans-serif" font-size="14" lengthAdjust="spacing" textLength="61" x="5" y="236.8232">Estafeta</text><ellipse cx="38.5" cy="250.125" fill="#FEFECE" filter="url(#f30n6uuccnrtm)" rx="8" ry="8" style="stroke:#A80036;stroke-width:2.0;"/><path d="M38.5,258.125 L38.5,285.125 M25.5,266.125 L51.5,266.125 M38.5,285.125 L25.5,300.125 M38.5,285.125 L51.5,300.125 " fill="none" filter="url(#f30n6uuccnrtm)" style="stroke:#A80036;stroke-width:2.0;"/><rect fill="#FEFECE" filter="url(#f30n6uuccnrtm)" height="30.2969" style="stroke:#A80036;stroke-width:1.5;" width="77" x="415" y="53"/><text fill="#000000" font-family="sans-serif" font-size="14" lengthAdjust="spacing" textLength="63" x="422" y="72.9951">:Sistema</text><rect fill="#FEFECE" filter="url(#f30n6uuccnrtm)" height="30.2969" style="stroke:#A80036;stroke-width:1.5;" width="77" x="415" y="223.8281"/><text fill="#000000" font-family="sans-serif" font-size="14" lengthAdjust="spacing" textLength="63" x="422" y="243.8232">:Sistema</text><rect fill="#FFFFFF" filter="url(#f30n6uuccnrtm)" height="108.5313" style="stroke:#A80036;stroke-width:1.0;" width="10" x="33.5" y="98.2969"/><rect fill="#FFFFFF" filter="url(#f30n6uuccnrtm)" height="29.1328" style="stroke:#A80036;stroke-width:1.0;" width="10" x="450.5" y="119.4297"/><rect fill="#FFFFFF" filter="url(#f30n6uuccnrtm)" height="29.1328" style="stroke:#A80036;stroke-width:1.0;" width="10" x="450.5" y="177.6953"/><polygon fill="#A80036" points="438.5,115.4297,448.5,119.4297,438.5,123.4297,442.5,119.4297" style="stroke:#A80036;stroke-width:1.0;"/><line style="stroke:#A80036;stroke-width:1.0;" x1="43.5" x2="444.5" y1="119.4297" y2="119.4297"/><text fill="#000000" font-family="sans-serif" font-size="13" font-weight="bold" lengthAdjust="spacing" textLength="9" x="50.5" y="114.3638">1</text><text fill="#000000" font-family="sans-serif" font-size="13" lengthAdjust="spacing" textLength="86" x="63.5" y="114.3638">inicia entrega</text><polygon fill="#A80036" points="54.5,144.5625,44.5,148.5625,54.5,152.5625,50.5,148.5625" style="stroke:#A80036;stroke-width:1.0;"/><line style="stroke:#A80036;stroke-width:1.0;stroke-dasharray:2.0,2.0;" x1="48.5" x2="454.5" y1="148.5625" y2="148.5625"/><text fill="#000000" font-family="sans-serif" font-size="13" font-weight="bold" lengthAdjust="spacing" textLength="9" x="60.5" y="143.4966">2</text><text fill="#000000" font-family="sans-serif" font-size="13" lengthAdjust="spacing" textLength="178" x="73.5" y="143.4966">solicita o id de uma entrega</text><polygon fill="#A80036" points="438.5,173.6953,448.5,177.6953,438.5,181.6953,442.5,177.6953" style="stroke:#A80036;stroke-width:1.0;"/><line style="stroke:#A80036;stroke-width:1.0;" x1="43.5" x2="444.5" y1="177.6953" y2="177.6953"/><text fill="#000000" font-family="sans-serif" font-size="13" font-weight="bold" lengthAdjust="spacing" textLength="8" x="50.5" y="172.6294">3</text><text fill="#000000" font-family="sans-serif" font-size="13" lengthAdjust="spacing" textLength="185" x="62.5" y="172.6294">introduz os dados solicitados</text><polygon fill="#A80036" points="49.5,202.8281,39.5,206.8281,49.5,210.8281,45.5,206.8281" style="stroke:#A80036;stroke-width:1.0;"/><line style="stroke:#A80036;stroke-width:1.0;stroke-dasharray:2.0,2.0;" x1="43.5" x2="454.5" y1="206.8281" y2="206.8281"/><text fill="#000000" font-family="sans-serif" font-size="13" font-weight="bold" lengthAdjust="spacing" textLength="9" x="55.5" y="201.7622">4</text><text fill="#000000" font-family="sans-serif" font-size="13" lengthAdjust="spacing" textLength="370" x="68.5" y="201.7622">apresenta a energia minima percorrida durante a entrega</text><!--MD5=[3a1868599e1fb8d29dd3ac9956ec80de]
@startuml
autonumber
actor "Estafeta" as EST

activate EST
EST -> ":Sistema" : inicia entrega 
activate ":Sistema"
":Sistema" - -> EST : solicita o id de uma entrega
deactivate ":Sistema"

EST -> ":Sistema" : introduz os dados solicitados
activate ":Sistema"
":Sistema" - -> EST : apresenta a energia minima percorrida durante a entrega
deactivate ":Sistema"

deactivate EST
@enduml

PlantUML version 1.2020.27beta7(Unknown compile time)
(GPL source distribution)
Java Runtime: Java(TM) SE Runtime Environment
JVM: Java HotSpot(TM) 64-Bit Server VM
Default Encoding: UTF-8
Language: en
Country: US
--></g></svg>