<?xml version="1.0" encoding="UTF-8" standalone="no"?><svg xmlns="http://www.w3.org/2000/svg" xmlns:xlink="http://www.w3.org/1999/xlink" contentScriptType="application/ecmascript" contentStyleType="text/css" height="1222px" preserveAspectRatio="none" style="width:1452px;height:1222px;" version="1.1" viewBox="0 0 1452 1222" width="1452px" zoomAndPan="magnify"><defs><filter height="300%" id="fmeqxujz0yajv" width="300%" x="-1" y="-1"><feGaussianBlur result="blurOut" stdDeviation="2.0"/><feColorMatrix in="blurOut" result="blurOut2" type="matrix" values="0 0 0 0 0 0 0 0 0 0 0 0 0 0 0 0 0 0 .4 0"/><feOffset dx="4.0" dy="4.0" in="blurOut2" result="blurOut3"/><feBlend in="SourceGraphic" in2="blurOut3" mode="normal"/></filter></defs><g><!--MD5=[380d12a68ed0046a60f31008a02875d0]
class AplicacaoPOT--><rect codeLine="3" fill="#FEFECE" filter="url(#fmeqxujz0yajv)" height="73.6094" id="AplicacaoPOT" style="stroke:#A80036;stroke-width:1.5;" width="130" x="7" y="251"/><ellipse cx="29.65" cy="267" fill="#ADD1B2" rx="11" ry="11" style="stroke:#A80036;stroke-width:1.0;"/><path d="M31.9938,262.6719 C31.0563,262.2344 30.4625,262.0938 29.5875,262.0938 C26.9625,262.0938 24.9625,264.1719 24.9625,266.8906 L24.9625,268.0156 C24.9625,270.5938 27.0719,272.4844 29.9625,272.4844 C31.1813,272.4844 32.3375,272.1875 33.0875,271.6406 C33.6656,271.2344 33.9938,270.7813 33.9938,270.3906 C33.9938,269.9375 33.6031,269.5469 33.1344,269.5469 C32.9156,269.5469 32.7125,269.625 32.525,269.8125 C32.0719,270.2969 32.0719,270.2969 31.8844,270.3906 C31.4625,270.6563 30.775,270.7813 30.0094,270.7813 C27.9625,270.7813 26.6656,269.6875 26.6656,267.9844 L26.6656,266.8906 C26.6656,265.1094 27.9156,263.7969 29.65,263.7969 C30.2281,263.7969 30.8375,263.9531 31.3063,264.2031 C31.7906,264.4844 31.9625,264.7031 32.0563,265.1094 C32.1188,265.5156 32.15,265.6406 32.2906,265.7656 C32.4313,265.9063 32.6656,266.0156 32.8844,266.0156 C33.15,266.0156 33.4156,265.875 33.5875,265.6563 C33.6969,265.5 33.7281,265.3125 33.7281,264.8906 L33.7281,263.4688 C33.7281,263.0313 33.7125,262.9063 33.6188,262.75 C33.4625,262.4844 33.1813,262.3438 32.8844,262.3438 C32.5875,262.3438 32.3844,262.4375 32.1656,262.75 L31.9938,262.6719 Z " fill="#000000"/><text fill="#000000" font-family="sans-serif" font-size="12" lengthAdjust="spacing" textLength="81" x="45.35" y="271.1543">AplicacaoPOT</text><line style="stroke:#A80036;stroke-width:1.5;" x1="8" x2="136" y1="283" y2="283"/><line style="stroke:#A80036;stroke-width:1.5;" x1="8" x2="136" y1="291" y2="291"/><text fill="#000000" font-family="sans-serif" font-size="11" lengthAdjust="spacing" textLength="118" x="13" y="305.2104">+static getInstance()</text><text fill="#000000" font-family="sans-serif" font-size="11" lengthAdjust="spacing" textLength="107" x="13" y="318.0151">+getSessaoAtual()</text><!--MD5=[1e13576e8c070e32200b62ceaa1f39ec]
class SessaoUtilizador--><rect codeLine="8" fill="#FEFECE" filter="url(#fmeqxujz0yajv)" height="60.8047" id="SessaoUtilizador" style="stroke:#A80036;stroke-width:1.5;" width="134" x="172" y="257.5"/><ellipse cx="187" cy="273.5" fill="#ADD1B2" rx="11" ry="11" style="stroke:#A80036;stroke-width:1.0;"/><path d="M189.3438,269.1719 C188.4063,268.7344 187.8125,268.5938 186.9375,268.5938 C184.3125,268.5938 182.3125,270.6719 182.3125,273.3906 L182.3125,274.5156 C182.3125,277.0938 184.4219,278.9844 187.3125,278.9844 C188.5313,278.9844 189.6875,278.6875 190.4375,278.1406 C191.0156,277.7344 191.3438,277.2813 191.3438,276.8906 C191.3438,276.4375 190.9531,276.0469 190.4844,276.0469 C190.2656,276.0469 190.0625,276.125 189.875,276.3125 C189.4219,276.7969 189.4219,276.7969 189.2344,276.8906 C188.8125,277.1563 188.125,277.2813 187.3594,277.2813 C185.3125,277.2813 184.0156,276.1875 184.0156,274.4844 L184.0156,273.3906 C184.0156,271.6094 185.2656,270.2969 187,270.2969 C187.5781,270.2969 188.1875,270.4531 188.6563,270.7031 C189.1406,270.9844 189.3125,271.2031 189.4063,271.6094 C189.4688,272.0156 189.5,272.1406 189.6406,272.2656 C189.7813,272.4063 190.0156,272.5156 190.2344,272.5156 C190.5,272.5156 190.7656,272.375 190.9375,272.1563 C191.0469,272 191.0781,271.8125 191.0781,271.3906 L191.0781,269.9688 C191.0781,269.5313 191.0625,269.4063 190.9688,269.25 C190.8125,268.9844 190.5313,268.8438 190.2344,268.8438 C189.9375,268.8438 189.7344,268.9375 189.5156,269.25 L189.3438,269.1719 Z " fill="#000000"/><text fill="#000000" font-family="sans-serif" font-size="12" lengthAdjust="spacing" textLength="102" x="201" y="277.6543">SessaoUtilizador</text><line style="stroke:#A80036;stroke-width:1.5;" x1="173" x2="305" y1="289.5" y2="289.5"/><line style="stroke:#A80036;stroke-width:1.5;" x1="173" x2="305" y1="297.5" y2="297.5"/><text fill="#000000" font-family="sans-serif" font-size="11" lengthAdjust="spacing" textLength="120" x="178" y="311.7104">+getEmailUtilizador()</text><!--MD5=[a8381305e32feabadf74eb10f0c047ba]
class EnderecoDB--><rect codeLine="12" fill="#FEFECE" filter="url(#fmeqxujz0yajv)" height="73.6094" id="EnderecoDB" style="stroke:#A80036;stroke-width:1.5;" width="187" x="219.5" y="355"/><ellipse cx="271.25" cy="371" fill="#ADD1B2" rx="11" ry="11" style="stroke:#A80036;stroke-width:1.0;"/><path d="M273.5938,366.6719 C272.6563,366.2344 272.0625,366.0938 271.1875,366.0938 C268.5625,366.0938 266.5625,368.1719 266.5625,370.8906 L266.5625,372.0156 C266.5625,374.5938 268.6719,376.4844 271.5625,376.4844 C272.7813,376.4844 273.9375,376.1875 274.6875,375.6406 C275.2656,375.2344 275.5938,374.7813 275.5938,374.3906 C275.5938,373.9375 275.2031,373.5469 274.7344,373.5469 C274.5156,373.5469 274.3125,373.625 274.125,373.8125 C273.6719,374.2969 273.6719,374.2969 273.4844,374.3906 C273.0625,374.6563 272.375,374.7813 271.6094,374.7813 C269.5625,374.7813 268.2656,373.6875 268.2656,371.9844 L268.2656,370.8906 C268.2656,369.1094 269.5156,367.7969 271.25,367.7969 C271.8281,367.7969 272.4375,367.9531 272.9063,368.2031 C273.3906,368.4844 273.5625,368.7031 273.6563,369.1094 C273.7188,369.5156 273.75,369.6406 273.8906,369.7656 C274.0313,369.9063 274.2656,370.0156 274.4844,370.0156 C274.75,370.0156 275.0156,369.875 275.1875,369.6563 C275.2969,369.5 275.3281,369.3125 275.3281,368.8906 L275.3281,367.4688 C275.3281,367.0313 275.3125,366.9063 275.2188,366.75 C275.0625,366.4844 274.7813,366.3438 274.4844,366.3438 C274.1875,366.3438 273.9844,366.4375 273.7656,366.75 L273.5938,366.6719 Z " fill="#000000"/><text fill="#000000" font-family="sans-serif" font-size="12" lengthAdjust="spacing" textLength="75" x="291.75" y="375.1543">EnderecoDB</text><line style="stroke:#A80036;stroke-width:1.5;" x1="220.5" x2="405.5" y1="387" y2="387"/><line style="stroke:#A80036;stroke-width:1.5;" x1="220.5" x2="405.5" y1="395" y2="395"/><text fill="#000000" font-family="sans-serif" font-size="11" lengthAdjust="spacing" textLength="129" x="225.5" y="409.2104">+getEnderecoParque()</text><text fill="#000000" font-family="sans-serif" font-size="11" lengthAdjust="spacing" textLength="175" x="225.5" y="422.0151">+getEnderecoByNifCliente(nif)</text><!--MD5=[48d7298b3bd1f8b3e8f77915e881d788]
class ScooterDB--><rect codeLine="17" fill="#FEFECE" filter="url(#fmeqxujz0yajv)" height="60.8047" id="ScooterDB" style="stroke:#A80036;stroke-width:1.5;" width="171" x="466.5" y="614"/><ellipse cx="515.25" cy="630" fill="#ADD1B2" rx="11" ry="11" style="stroke:#A80036;stroke-width:1.0;"/><path d="M517.5938,625.6719 C516.6563,625.2344 516.0625,625.0938 515.1875,625.0938 C512.5625,625.0938 510.5625,627.1719 510.5625,629.8906 L510.5625,631.0156 C510.5625,633.5938 512.6719,635.4844 515.5625,635.4844 C516.7813,635.4844 517.9375,635.1875 518.6875,634.6406 C519.2656,634.2344 519.5938,633.7813 519.5938,633.3906 C519.5938,632.9375 519.2031,632.5469 518.7344,632.5469 C518.5156,632.5469 518.3125,632.625 518.125,632.8125 C517.6719,633.2969 517.6719,633.2969 517.4844,633.3906 C517.0625,633.6563 516.375,633.7813 515.6094,633.7813 C513.5625,633.7813 512.2656,632.6875 512.2656,630.9844 L512.2656,629.8906 C512.2656,628.1094 513.5156,626.7969 515.25,626.7969 C515.8281,626.7969 516.4375,626.9531 516.9063,627.2031 C517.3906,627.4844 517.5625,627.7031 517.6563,628.1094 C517.7188,628.5156 517.75,628.6406 517.8906,628.7656 C518.0313,628.9063 518.2656,629.0156 518.4844,629.0156 C518.75,629.0156 519.0156,628.875 519.1875,628.6563 C519.2969,628.5 519.3281,628.3125 519.3281,627.8906 L519.3281,626.4688 C519.3281,626.0313 519.3125,625.9063 519.2188,625.75 C519.0625,625.4844 518.7813,625.3438 518.4844,625.3438 C518.1875,625.3438 517.9844,625.4375 517.7656,625.75 L517.5938,625.6719 Z " fill="#000000"/><text fill="#000000" font-family="sans-serif" font-size="12" lengthAdjust="spacing" textLength="65" x="535.75" y="634.1543">ScooterDB</text><line style="stroke:#A80036;stroke-width:1.5;" x1="467.5" x2="636.5" y1="646" y2="646"/><line style="stroke:#A80036;stroke-width:1.5;" x1="467.5" x2="636.5" y1="654" y2="654"/><text fill="#000000" font-family="sans-serif" font-size="11" lengthAdjust="spacing" textLength="159" x="472.5" y="668.2104">+getScooterById(idScooter)</text><!--MD5=[eedb9d86e2ada2a30e84607ee2eb675b]
class EncomendaDB--><rect codeLine="21" fill="#FEFECE" filter="url(#fmeqxujz0yajv)" height="60.8047" id="EncomendaDB" style="stroke:#A80036;stroke-width:1.5;" width="220" x="896" y="361.5"/><ellipse cx="958.25" cy="377.5" fill="#ADD1B2" rx="11" ry="11" style="stroke:#A80036;stroke-width:1.0;"/><path d="M960.5938,373.1719 C959.6563,372.7344 959.0625,372.5938 958.1875,372.5938 C955.5625,372.5938 953.5625,374.6719 953.5625,377.3906 L953.5625,378.5156 C953.5625,381.0938 955.6719,382.9844 958.5625,382.9844 C959.7813,382.9844 960.9375,382.6875 961.6875,382.1406 C962.2656,381.7344 962.5938,381.2813 962.5938,380.8906 C962.5938,380.4375 962.2031,380.0469 961.7344,380.0469 C961.5156,380.0469 961.3125,380.125 961.125,380.3125 C960.6719,380.7969 960.6719,380.7969 960.4844,380.8906 C960.0625,381.1563 959.375,381.2813 958.6094,381.2813 C956.5625,381.2813 955.2656,380.1875 955.2656,378.4844 L955.2656,377.3906 C955.2656,375.6094 956.5156,374.2969 958.25,374.2969 C958.8281,374.2969 959.4375,374.4531 959.9063,374.7031 C960.3906,374.9844 960.5625,375.2031 960.6563,375.6094 C960.7188,376.0156 960.75,376.1406 960.8906,376.2656 C961.0313,376.4063 961.2656,376.5156 961.4844,376.5156 C961.75,376.5156 962.0156,376.375 962.1875,376.1563 C962.2969,376 962.3281,375.8125 962.3281,375.3906 L962.3281,373.9688 C962.3281,373.5313 962.3125,373.4063 962.2188,373.25 C962.0625,372.9844 961.7813,372.8438 961.4844,372.8438 C961.1875,372.8438 960.9844,372.9375 960.7656,373.25 L960.5938,373.1719 Z " fill="#000000"/><text fill="#000000" font-family="sans-serif" font-size="12" lengthAdjust="spacing" textLength="87" x="978.75" y="381.6543">EncomendaDB</text><line style="stroke:#A80036;stroke-width:1.5;" x1="897" x2="1115" y1="393.5" y2="393.5"/><line style="stroke:#A80036;stroke-width:1.5;" x1="897" x2="1115" y1="401.5" y2="401.5"/><text fill="#000000" font-family="sans-serif" font-size="11" lengthAdjust="spacing" textLength="208" x="902" y="415.7104">+getListaEncomendaById(idEntrega)</text><!--MD5=[3179f819b5ca0f9c8a1bd58e9144681b]
class Entrega--><rect codeLine="25" fill="#FEFECE" filter="url(#fmeqxujz0yajv)" height="99.2188" id="Entrega" style="stroke:#A80036;stroke-width:1.5;" width="302" x="727" y="718"/><ellipse cx="850.75" cy="734" fill="#ADD1B2" rx="11" ry="11" style="stroke:#A80036;stroke-width:1.0;"/><path d="M853.0938,729.6719 C852.1563,729.2344 851.5625,729.0938 850.6875,729.0938 C848.0625,729.0938 846.0625,731.1719 846.0625,733.8906 L846.0625,735.0156 C846.0625,737.5938 848.1719,739.4844 851.0625,739.4844 C852.2813,739.4844 853.4375,739.1875 854.1875,738.6406 C854.7656,738.2344 855.0938,737.7813 855.0938,737.3906 C855.0938,736.9375 854.7031,736.5469 854.2344,736.5469 C854.0156,736.5469 853.8125,736.625 853.625,736.8125 C853.1719,737.2969 853.1719,737.2969 852.9844,737.3906 C852.5625,737.6563 851.875,737.7813 851.1094,737.7813 C849.0625,737.7813 847.7656,736.6875 847.7656,734.9844 L847.7656,733.8906 C847.7656,732.1094 849.0156,730.7969 850.75,730.7969 C851.3281,730.7969 851.9375,730.9531 852.4063,731.2031 C852.8906,731.4844 853.0625,731.7031 853.1563,732.1094 C853.2188,732.5156 853.25,732.6406 853.3906,732.7656 C853.5313,732.9063 853.7656,733.0156 853.9844,733.0156 C854.25,733.0156 854.5156,732.875 854.6875,732.6563 C854.7969,732.5 854.8281,732.3125 854.8281,731.8906 L854.8281,730.4688 C854.8281,730.0313 854.8125,729.9063 854.7188,729.75 C854.5625,729.4844 854.2813,729.3438 853.9844,729.3438 C853.6875,729.3438 853.4844,729.4375 853.2656,729.75 L853.0938,729.6719 Z " fill="#000000"/><text fill="#000000" font-family="sans-serif" font-size="12" lengthAdjust="spacing" textLength="46" x="871.25" y="738.1543">Entrega</text><line style="stroke:#A80036;stroke-width:1.5;" x1="728" x2="1028" y1="750" y2="750"/><text fill="#000000" font-family="sans-serif" font-size="11" lengthAdjust="spacing" textLength="103" x="733" y="764.2104">-Integer idEntrega</text><text fill="#000000" font-family="sans-serif" font-size="11" lengthAdjust="spacing" textLength="95" x="733" y="777.0151">-String dataInicio</text><text fill="#000000" font-family="sans-serif" font-size="11" lengthAdjust="spacing" textLength="86" x="733" y="789.8198">-String dataFim</text><line style="stroke:#A80036;stroke-width:1.5;" x1="728" x2="1028" y1="796.4141" y2="796.4141"/><text fill="#000000" font-family="sans-serif" font-size="11" lengthAdjust="spacing" textLength="290" x="733" y="810.6245">+addPesoEncomenda(pesoEncomenda, pesoTotal)</text><!--MD5=[598a246086efa0137d5aa96a640f0789]
class EntregaDB--><rect codeLine="32" fill="#FEFECE" filter="url(#fmeqxujz0yajv)" height="86.4141" id="EntregaDB" style="stroke:#A80036;stroke-width:1.5;" width="329" x="717.5" y="478.5"/><ellipse cx="846.25" cy="494.5" fill="#ADD1B2" rx="11" ry="11" style="stroke:#A80036;stroke-width:1.0;"/><path d="M848.5938,490.1719 C847.6563,489.7344 847.0625,489.5938 846.1875,489.5938 C843.5625,489.5938 841.5625,491.6719 841.5625,494.3906 L841.5625,495.5156 C841.5625,498.0938 843.6719,499.9844 846.5625,499.9844 C847.7813,499.9844 848.9375,499.6875 849.6875,499.1406 C850.2656,498.7344 850.5938,498.2813 850.5938,497.8906 C850.5938,497.4375 850.2031,497.0469 849.7344,497.0469 C849.5156,497.0469 849.3125,497.125 849.125,497.3125 C848.6719,497.7969 848.6719,497.7969 848.4844,497.8906 C848.0625,498.1563 847.375,498.2813 846.6094,498.2813 C844.5625,498.2813 843.2656,497.1875 843.2656,495.4844 L843.2656,494.3906 C843.2656,492.6094 844.5156,491.2969 846.25,491.2969 C846.8281,491.2969 847.4375,491.4531 847.9063,491.7031 C848.3906,491.9844 848.5625,492.2031 848.6563,492.6094 C848.7188,493.0156 848.75,493.1406 848.8906,493.2656 C849.0313,493.4063 849.2656,493.5156 849.4844,493.5156 C849.75,493.5156 850.0156,493.375 850.1875,493.1563 C850.2969,493 850.3281,492.8125 850.3281,492.3906 L850.3281,490.9688 C850.3281,490.5313 850.3125,490.4063 850.2188,490.25 C850.0625,489.9844 849.7813,489.8438 849.4844,489.8438 C849.1875,489.8438 848.9844,489.9375 848.7656,490.25 L848.5938,490.1719 Z " fill="#000000"/><text fill="#000000" font-family="sans-serif" font-size="12" lengthAdjust="spacing" textLength="63" x="866.75" y="498.6543">EntregaDB</text><line style="stroke:#A80036;stroke-width:1.5;" x1="718.5" x2="1045.5" y1="510.5" y2="510.5"/><line style="stroke:#A80036;stroke-width:1.5;" x1="718.5" x2="1045.5" y1="518.5" y2="518.5"/><text fill="#000000" font-family="sans-serif" font-size="11" lengthAdjust="spacing" textLength="244" x="723.5" y="532.7104">+getListaEntregaByNifEstafeta(nifEstafeta)</text><text fill="#000000" font-family="sans-serif" font-size="11" lengthAdjust="spacing" textLength="177" x="723.5" y="545.5151">+getEntregaById(int idEntrega)</text><text fill="#000000" font-family="sans-serif" font-size="11" lengthAdjust="spacing" textLength="317" x="723.5" y="558.3198">+generateGraph(listEnderecos, est, scooter, pesoTotal)</text><!--MD5=[4ac2c1498d2c03198090a24b8c54d335]
class EstafetaDB--><rect codeLine="38" fill="#FEFECE" filter="url(#fmeqxujz0yajv)" height="60.8047" id="EstafetaDB" style="stroke:#A80036;stroke-width:1.5;" width="173" x="483.5" y="257.5"/><ellipse cx="533.25" cy="273.5" fill="#ADD1B2" rx="11" ry="11" style="stroke:#A80036;stroke-width:1.0;"/><path d="M535.5938,269.1719 C534.6563,268.7344 534.0625,268.5938 533.1875,268.5938 C530.5625,268.5938 528.5625,270.6719 528.5625,273.3906 L528.5625,274.5156 C528.5625,277.0938 530.6719,278.9844 533.5625,278.9844 C534.7813,278.9844 535.9375,278.6875 536.6875,278.1406 C537.2656,277.7344 537.5938,277.2813 537.5938,276.8906 C537.5938,276.4375 537.2031,276.0469 536.7344,276.0469 C536.5156,276.0469 536.3125,276.125 536.125,276.3125 C535.6719,276.7969 535.6719,276.7969 535.4844,276.8906 C535.0625,277.1563 534.375,277.2813 533.6094,277.2813 C531.5625,277.2813 530.2656,276.1875 530.2656,274.4844 L530.2656,273.3906 C530.2656,271.6094 531.5156,270.2969 533.25,270.2969 C533.8281,270.2969 534.4375,270.4531 534.9063,270.7031 C535.3906,270.9844 535.5625,271.2031 535.6563,271.6094 C535.7188,272.0156 535.75,272.1406 535.8906,272.2656 C536.0313,272.4063 536.2656,272.5156 536.4844,272.5156 C536.75,272.5156 537.0156,272.375 537.1875,272.1563 C537.2969,272 537.3281,271.8125 537.3281,271.3906 L537.3281,269.9688 C537.3281,269.5313 537.3125,269.4063 537.2188,269.25 C537.0625,268.9844 536.7813,268.8438 536.4844,268.8438 C536.1875,268.8438 535.9844,268.9375 535.7656,269.25 L535.5938,269.1719 Z " fill="#000000"/><text fill="#000000" font-family="sans-serif" font-size="12" lengthAdjust="spacing" textLength="65" x="553.75" y="277.6543">EstafetaDB</text><line style="stroke:#A80036;stroke-width:1.5;" x1="484.5" x2="655.5" y1="289.5" y2="289.5"/><line style="stroke:#A80036;stroke-width:1.5;" x1="484.5" x2="655.5" y1="297.5" y2="297.5"/><text fill="#000000" font-family="sans-serif" font-size="11" lengthAdjust="spacing" textLength="161" x="489.5" y="311.7104">+getEstafetaByEmail(email)</text><!--MD5=[19833fe0d0b0ef0c9c5e7594e33b0f6b]
class IniciarEntregaController--><rect codeLine="42" fill="#FEFECE" filter="url(#fmeqxujz0yajv)" height="73.6094" id="IniciarEntregaController" style="stroke:#A80036;stroke-width:1.5;" width="172" x="344" y="116"/><ellipse cx="359" cy="132" fill="#ADD1B2" rx="11" ry="11" style="stroke:#A80036;stroke-width:1.0;"/><path d="M361.3438,127.6719 C360.4063,127.2344 359.8125,127.0938 358.9375,127.0938 C356.3125,127.0938 354.3125,129.1719 354.3125,131.8906 L354.3125,133.0156 C354.3125,135.5938 356.4219,137.4844 359.3125,137.4844 C360.5313,137.4844 361.6875,137.1875 362.4375,136.6406 C363.0156,136.2344 363.3438,135.7813 363.3438,135.3906 C363.3438,134.9375 362.9531,134.5469 362.4844,134.5469 C362.2656,134.5469 362.0625,134.625 361.875,134.8125 C361.4219,135.2969 361.4219,135.2969 361.2344,135.3906 C360.8125,135.6563 360.125,135.7813 359.3594,135.7813 C357.3125,135.7813 356.0156,134.6875 356.0156,132.9844 L356.0156,131.8906 C356.0156,130.1094 357.2656,128.7969 359,128.7969 C359.5781,128.7969 360.1875,128.9531 360.6563,129.2031 C361.1406,129.4844 361.3125,129.7031 361.4063,130.1094 C361.4688,130.5156 361.5,130.6406 361.6406,130.7656 C361.7813,130.9063 362.0156,131.0156 362.2344,131.0156 C362.5,131.0156 362.7656,130.875 362.9375,130.6563 C363.0469,130.5 363.0781,130.3125 363.0781,129.8906 L363.0781,128.4688 C363.0781,128.0313 363.0625,127.9063 362.9688,127.75 C362.8125,127.4844 362.5313,127.3438 362.2344,127.3438 C361.9375,127.3438 361.7344,127.4375 361.5156,127.75 L361.3438,127.6719 Z " fill="#000000"/><text fill="#000000" font-family="sans-serif" font-size="12" lengthAdjust="spacing" textLength="140" x="373" y="136.1543">IniciarEntregaController</text><line style="stroke:#A80036;stroke-width:1.5;" x1="345" x2="515" y1="148" y2="148"/><line style="stroke:#A80036;stroke-width:1.5;" x1="345" x2="515" y1="156" y2="156"/><text fill="#000000" font-family="sans-serif" font-size="11" lengthAdjust="spacing" textLength="83" x="350" y="170.2104">+getEstafeta()</text><text fill="#000000" font-family="sans-serif" font-size="11" lengthAdjust="spacing" textLength="146" x="350" y="183.0151">+calculatePath(idEntrega)</text><!--MD5=[faed70f1496af0dbeb2f76658d58e8b7]
class IniciarEntregaUI--><rect codeLine="47" fill="#FEFECE" filter="url(#fmeqxujz0yajv)" height="48" id="IniciarEntregaUI" style="stroke:#A80036;stroke-width:1.5;" width="125" x="367.5" y="7"/><ellipse cx="382.5" cy="23" fill="#ADD1B2" rx="11" ry="11" style="stroke:#A80036;stroke-width:1.0;"/><path d="M384.8438,18.6719 C383.9063,18.2344 383.3125,18.0938 382.4375,18.0938 C379.8125,18.0938 377.8125,20.1719 377.8125,22.8906 L377.8125,24.0156 C377.8125,26.5938 379.9219,28.4844 382.8125,28.4844 C384.0313,28.4844 385.1875,28.1875 385.9375,27.6406 C386.5156,27.2344 386.8438,26.7813 386.8438,26.3906 C386.8438,25.9375 386.4531,25.5469 385.9844,25.5469 C385.7656,25.5469 385.5625,25.625 385.375,25.8125 C384.9219,26.2969 384.9219,26.2969 384.7344,26.3906 C384.3125,26.6563 383.625,26.7813 382.8594,26.7813 C380.8125,26.7813 379.5156,25.6875 379.5156,23.9844 L379.5156,22.8906 C379.5156,21.1094 380.7656,19.7969 382.5,19.7969 C383.0781,19.7969 383.6875,19.9531 384.1563,20.2031 C384.6406,20.4844 384.8125,20.7031 384.9063,21.1094 C384.9688,21.5156 385,21.6406 385.1406,21.7656 C385.2813,21.9063 385.5156,22.0156 385.7344,22.0156 C386,22.0156 386.2656,21.875 386.4375,21.6563 C386.5469,21.5 386.5781,21.3125 386.5781,20.8906 L386.5781,19.4688 C386.5781,19.0313 386.5625,18.9063 386.4688,18.75 C386.3125,18.4844 386.0313,18.3438 385.7344,18.3438 C385.4375,18.3438 385.2344,18.4375 385.0156,18.75 L384.8438,18.6719 Z " fill="#000000"/><text fill="#000000" font-family="sans-serif" font-size="12" lengthAdjust="spacing" textLength="93" x="396.5" y="27.1543">IniciarEntregaUI</text><line style="stroke:#A80036;stroke-width:1.5;" x1="368.5" x2="491.5" y1="39" y2="39"/><line style="stroke:#A80036;stroke-width:1.5;" x1="368.5" x2="491.5" y1="47" y2="47"/><!--MD5=[c55f92ccbf0646788158d42f3399cc78]
class Encomenda--><rect codeLine="50" fill="#FEFECE" filter="url(#fmeqxujz0yajv)" height="112.0234" id="Encomenda" style="stroke:#A80036;stroke-width:1.5;" width="156" x="1022" y="913.5"/><ellipse cx="1061.3" cy="929.5" fill="#ADD1B2" rx="11" ry="11" style="stroke:#A80036;stroke-width:1.0;"/><path d="M1063.6438,925.1719 C1062.7063,924.7344 1062.1125,924.5938 1061.2375,924.5938 C1058.6125,924.5938 1056.6125,926.6719 1056.6125,929.3906 L1056.6125,930.5156 C1056.6125,933.0938 1058.7219,934.9844 1061.6125,934.9844 C1062.8313,934.9844 1063.9875,934.6875 1064.7375,934.1406 C1065.3156,933.7344 1065.6438,933.2813 1065.6438,932.8906 C1065.6438,932.4375 1065.2531,932.0469 1064.7844,932.0469 C1064.5656,932.0469 1064.3625,932.125 1064.175,932.3125 C1063.7219,932.7969 1063.7219,932.7969 1063.5344,932.8906 C1063.1125,933.1563 1062.425,933.2813 1061.6594,933.2813 C1059.6125,933.2813 1058.3156,932.1875 1058.3156,930.4844 L1058.3156,929.3906 C1058.3156,927.6094 1059.5656,926.2969 1061.3,926.2969 C1061.8781,926.2969 1062.4875,926.4531 1062.9563,926.7031 C1063.4406,926.9844 1063.6125,927.2031 1063.7063,927.6094 C1063.7688,928.0156 1063.8,928.1406 1063.9406,928.2656 C1064.0813,928.4063 1064.3156,928.5156 1064.5344,928.5156 C1064.8,928.5156 1065.0656,928.375 1065.2375,928.1563 C1065.3469,928 1065.3781,927.8125 1065.3781,927.3906 L1065.3781,925.9688 C1065.3781,925.5313 1065.3625,925.4063 1065.2688,925.25 C1065.1125,924.9844 1064.8313,924.8438 1064.5344,924.8438 C1064.2375,924.8438 1064.0344,924.9375 1063.8156,925.25 L1063.6438,925.1719 Z " fill="#000000"/><text fill="#000000" font-family="sans-serif" font-size="12" lengthAdjust="spacing" textLength="70" x="1080.7" y="933.6543">Encomenda</text><line style="stroke:#A80036;stroke-width:1.5;" x1="1023" x2="1177" y1="945.5" y2="945.5"/><text fill="#000000" font-family="sans-serif" font-size="11" lengthAdjust="spacing" textLength="126" x="1028" y="959.7104">-Integer idEncomenda</text><text fill="#000000" font-family="sans-serif" font-size="11" lengthAdjust="spacing" textLength="104" x="1028" y="972.5151">-String dataPedida</text><text fill="#000000" font-family="sans-serif" font-size="11" lengthAdjust="spacing" textLength="81" x="1028" y="985.3198">-Double preco</text><text fill="#000000" font-family="sans-serif" font-size="11" lengthAdjust="spacing" textLength="144" x="1028" y="998.1245">-Double pesoEncomenda</text><text fill="#000000" font-family="sans-serif" font-size="11" lengthAdjust="spacing" textLength="74" x="1028" y="1010.9292">-Double taxa</text><line style="stroke:#A80036;stroke-width:1.5;" x1="1023" x2="1177" y1="1017.5234" y2="1017.5234"/><!--MD5=[3f1202280bfe3359d2f91fb9b6e32986]
class Estafeta--><rect codeLine="58" fill="#FEFECE" filter="url(#fmeqxujz0yajv)" height="124.8281" id="Estafeta" style="stroke:#A80036;stroke-width:1.5;" width="200" x="482" y="459"/><ellipse cx="553.75" cy="475" fill="#ADD1B2" rx="11" ry="11" style="stroke:#A80036;stroke-width:1.0;"/><path d="M556.0938,470.6719 C555.1563,470.2344 554.5625,470.0938 553.6875,470.0938 C551.0625,470.0938 549.0625,472.1719 549.0625,474.8906 L549.0625,476.0156 C549.0625,478.5938 551.1719,480.4844 554.0625,480.4844 C555.2813,480.4844 556.4375,480.1875 557.1875,479.6406 C557.7656,479.2344 558.0938,478.7813 558.0938,478.3906 C558.0938,477.9375 557.7031,477.5469 557.2344,477.5469 C557.0156,477.5469 556.8125,477.625 556.625,477.8125 C556.1719,478.2969 556.1719,478.2969 555.9844,478.3906 C555.5625,478.6563 554.875,478.7813 554.1094,478.7813 C552.0625,478.7813 550.7656,477.6875 550.7656,475.9844 L550.7656,474.8906 C550.7656,473.1094 552.0156,471.7969 553.75,471.7969 C554.3281,471.7969 554.9375,471.9531 555.4063,472.2031 C555.8906,472.4844 556.0625,472.7031 556.1563,473.1094 C556.2188,473.5156 556.25,473.6406 556.3906,473.7656 C556.5313,473.9063 556.7656,474.0156 556.9844,474.0156 C557.25,474.0156 557.5156,473.875 557.6875,473.6563 C557.7969,473.5 557.8281,473.3125 557.8281,472.8906 L557.8281,471.4688 C557.8281,471.0313 557.8125,470.9063 557.7188,470.75 C557.5625,470.4844 557.2813,470.3438 556.9844,470.3438 C556.6875,470.3438 556.4844,470.4375 556.2656,470.75 L556.0938,470.6719 Z " fill="#000000"/><text fill="#000000" font-family="sans-serif" font-size="12" lengthAdjust="spacing" textLength="48" x="574.25" y="479.1543">Estafeta</text><line style="stroke:#A80036;stroke-width:1.5;" x1="483" x2="681" y1="491" y2="491"/><text fill="#000000" font-family="sans-serif" font-size="11" lengthAdjust="spacing" textLength="66" x="488" y="505.2104">-Integer NIF</text><text fill="#000000" font-family="sans-serif" font-size="11" lengthAdjust="spacing" textLength="74" x="488" y="518.0151">-String nome</text><text fill="#000000" font-family="sans-serif" font-size="11" lengthAdjust="spacing" textLength="73" x="488" y="530.8198">-String email</text><text fill="#000000" font-family="sans-serif" font-size="11" lengthAdjust="spacing" textLength="188" x="488" y="543.6245">-Integer numeroSegurancaSocial</text><text fill="#000000" font-family="sans-serif" font-size="11" lengthAdjust="spacing" textLength="94" x="488" y="556.4292">-String password</text><text fill="#000000" font-family="sans-serif" font-size="11" lengthAdjust="spacing" textLength="124" x="488" y="569.2339">-Double pesoEstafeta</text><line style="stroke:#A80036;stroke-width:1.5;" x1="483" x2="681" y1="575.8281" y2="575.8281"/><!--MD5=[f4402668d5d5bb8485350c0fdb60ac8e]
class Scooter--><rect codeLine="67" fill="#FEFECE" filter="url(#fmeqxujz0yajv)" height="124.8281" id="Scooter" style="stroke:#A80036;stroke-width:1.5;" width="179" x="573.5" y="907"/><ellipse cx="634.75" cy="923" fill="#ADD1B2" rx="11" ry="11" style="stroke:#A80036;stroke-width:1.0;"/><path d="M637.0938,918.6719 C636.1563,918.2344 635.5625,918.0938 634.6875,918.0938 C632.0625,918.0938 630.0625,920.1719 630.0625,922.8906 L630.0625,924.0156 C630.0625,926.5938 632.1719,928.4844 635.0625,928.4844 C636.2813,928.4844 637.4375,928.1875 638.1875,927.6406 C638.7656,927.2344 639.0938,926.7813 639.0938,926.3906 C639.0938,925.9375 638.7031,925.5469 638.2344,925.5469 C638.0156,925.5469 637.8125,925.625 637.625,925.8125 C637.1719,926.2969 637.1719,926.2969 636.9844,926.3906 C636.5625,926.6563 635.875,926.7813 635.1094,926.7813 C633.0625,926.7813 631.7656,925.6875 631.7656,923.9844 L631.7656,922.8906 C631.7656,921.1094 633.0156,919.7969 634.75,919.7969 C635.3281,919.7969 635.9375,919.9531 636.4063,920.2031 C636.8906,920.4844 637.0625,920.7031 637.1563,921.1094 C637.2188,921.5156 637.25,921.6406 637.3906,921.7656 C637.5313,921.9063 637.7656,922.0156 637.9844,922.0156 C638.25,922.0156 638.5156,921.875 638.6875,921.6563 C638.7969,921.5 638.8281,921.3125 638.8281,920.8906 L638.8281,919.4688 C638.8281,919.0313 638.8125,918.9063 638.7188,918.75 C638.5625,918.4844 638.2813,918.3438 637.9844,918.3438 C637.6875,918.3438 637.4844,918.4375 637.2656,918.75 L637.0938,918.6719 Z " fill="#000000"/><text fill="#000000" font-family="sans-serif" font-size="12" lengthAdjust="spacing" textLength="48" x="655.25" y="927.1543">Scooter</text><line style="stroke:#A80036;stroke-width:1.5;" x1="574.5" x2="751.5" y1="939" y2="939"/><text fill="#000000" font-family="sans-serif" font-size="11" lengthAdjust="spacing" textLength="103" x="579.5" y="953.2104">-Integer idScooter</text><text fill="#000000" font-family="sans-serif" font-size="11" lengthAdjust="spacing" textLength="167" x="579.5" y="966.0151">-Double percentagemBateria</text><text fill="#000000" font-family="sans-serif" font-size="11" lengthAdjust="spacing" textLength="121" x="579.5" y="978.8198">-Double pesoMaximo</text><text fill="#000000" font-family="sans-serif" font-size="11" lengthAdjust="spacing" textLength="121" x="579.5" y="991.6245">-Double pesoScooter</text><text fill="#000000" font-family="sans-serif" font-size="11" lengthAdjust="spacing" textLength="98" x="579.5" y="1004.4292">-Double potencia</text><text fill="#000000" font-family="sans-serif" font-size="11" lengthAdjust="spacing" textLength="113" x="579.5" y="1017.2339">-Double areaFrontal</text><line style="stroke:#A80036;stroke-width:1.5;" x1="574.5" x2="751.5" y1="1023.8281" y2="1023.8281"/><!--MD5=[36c1942e8942a3e4f47e6de3733e3d18]
class Endereco--><rect codeLine="76" fill="#FEFECE" filter="url(#fmeqxujz0yajv)" height="112.0234" id="Endereco" style="stroke:#A80036;stroke-width:1.5;" width="316" x="222" y="913.5"/><ellipse cx="346.75" cy="929.5" fill="#ADD1B2" rx="11" ry="11" style="stroke:#A80036;stroke-width:1.0;"/><path d="M349.0938,925.1719 C348.1563,924.7344 347.5625,924.5938 346.6875,924.5938 C344.0625,924.5938 342.0625,926.6719 342.0625,929.3906 L342.0625,930.5156 C342.0625,933.0938 344.1719,934.9844 347.0625,934.9844 C348.2813,934.9844 349.4375,934.6875 350.1875,934.1406 C350.7656,933.7344 351.0938,933.2813 351.0938,932.8906 C351.0938,932.4375 350.7031,932.0469 350.2344,932.0469 C350.0156,932.0469 349.8125,932.125 349.625,932.3125 C349.1719,932.7969 349.1719,932.7969 348.9844,932.8906 C348.5625,933.1563 347.875,933.2813 347.1094,933.2813 C345.0625,933.2813 343.7656,932.1875 343.7656,930.4844 L343.7656,929.3906 C343.7656,927.6094 345.0156,926.2969 346.75,926.2969 C347.3281,926.2969 347.9375,926.4531 348.4063,926.7031 C348.8906,926.9844 349.0625,927.2031 349.1563,927.6094 C349.2188,928.0156 349.25,928.1406 349.3906,928.2656 C349.5313,928.4063 349.7656,928.5156 349.9844,928.5156 C350.25,928.5156 350.5156,928.375 350.6875,928.1563 C350.7969,928 350.8281,927.8125 350.8281,927.3906 L350.8281,925.9688 C350.8281,925.5313 350.8125,925.4063 350.7188,925.25 C350.5625,924.9844 350.2813,924.8438 349.9844,924.8438 C349.6875,924.8438 349.4844,924.9375 349.2656,925.25 L349.0938,925.1719 Z " fill="#000000"/><text fill="#000000" font-family="sans-serif" font-size="12" lengthAdjust="spacing" textLength="58" x="367.25" y="933.6543">Endereco</text><line style="stroke:#A80036;stroke-width:1.5;" x1="223" x2="537" y1="945.5" y2="945.5"/><text fill="#000000" font-family="sans-serif" font-size="11" lengthAdjust="spacing" textLength="84" x="228" y="959.7104">-String morada</text><text fill="#000000" font-family="sans-serif" font-size="11" lengthAdjust="spacing" textLength="92" x="228" y="972.5151">-Double latitude</text><text fill="#000000" font-family="sans-serif" font-size="11" lengthAdjust="spacing" textLength="102" x="228" y="985.3198">-Double longitude</text><text fill="#000000" font-family="sans-serif" font-size="11" lengthAdjust="spacing" textLength="92" x="228" y="998.1245">-Double altitude</text><line style="stroke:#A80036;stroke-width:1.5;" x1="223" x2="537" y1="1004.7188" y2="1004.7188"/><text fill="#000000" font-family="sans-serif" font-size="11" lengthAdjust="spacing" textLength="304" x="228" y="1018.9292">+addListaEndereco(enderecoCliente, listaEnderecos)</text><!--MD5=[1a083dbe42a284ae0ea7f6f701783206]
class Parque--><rect codeLine="84" fill="#FEFECE" filter="url(#fmeqxujz0yajv)" height="60.8047" id="Parque" style="stroke:#A80036;stroke-width:1.5;" width="149" x="373.5" y="737"/><ellipse cx="423.25" cy="753" fill="#ADD1B2" rx="11" ry="11" style="stroke:#A80036;stroke-width:1.0;"/><path d="M425.5938,748.6719 C424.6563,748.2344 424.0625,748.0938 423.1875,748.0938 C420.5625,748.0938 418.5625,750.1719 418.5625,752.8906 L418.5625,754.0156 C418.5625,756.5938 420.6719,758.4844 423.5625,758.4844 C424.7813,758.4844 425.9375,758.1875 426.6875,757.6406 C427.2656,757.2344 427.5938,756.7813 427.5938,756.3906 C427.5938,755.9375 427.2031,755.5469 426.7344,755.5469 C426.5156,755.5469 426.3125,755.625 426.125,755.8125 C425.6719,756.2969 425.6719,756.2969 425.4844,756.3906 C425.0625,756.6563 424.375,756.7813 423.6094,756.7813 C421.5625,756.7813 420.2656,755.6875 420.2656,753.9844 L420.2656,752.8906 C420.2656,751.1094 421.5156,749.7969 423.25,749.7969 C423.8281,749.7969 424.4375,749.9531 424.9063,750.2031 C425.3906,750.4844 425.5625,750.7031 425.6563,751.1094 C425.7188,751.5156 425.75,751.6406 425.8906,751.7656 C426.0313,751.9063 426.2656,752.0156 426.4844,752.0156 C426.75,752.0156 427.0156,751.875 427.1875,751.6563 C427.2969,751.5 427.3281,751.3125 427.3281,750.8906 L427.3281,749.4688 C427.3281,749.0313 427.3125,748.9063 427.2188,748.75 C427.0625,748.4844 426.7813,748.3438 426.4844,748.3438 C426.1875,748.3438 425.9844,748.4375 425.7656,748.75 L425.5938,748.6719 Z " fill="#000000"/><text fill="#000000" font-family="sans-serif" font-size="12" lengthAdjust="spacing" textLength="41" x="443.75" y="757.1543">Parque</text><line style="stroke:#A80036;stroke-width:1.5;" x1="374.5" x2="521.5" y1="769" y2="769"/><text fill="#000000" font-family="sans-serif" font-size="11" lengthAdjust="spacing" textLength="137" x="379.5" y="783.2104">-Integer numeroMaximo</text><line style="stroke:#A80036;stroke-width:1.5;" x1="374.5" x2="521.5" y1="789.8047" y2="789.8047"/><!--MD5=[20a748d5ee336a9a91751b0a3d4f0beb]
class Cliente--><rect codeLine="88" fill="#FEFECE" filter="url(#fmeqxujz0yajv)" height="124.8281" id="Cliente" style="stroke:#A80036;stroke-width:1.5;" width="200" x="1153" y="705"/><ellipse cx="1228.25" cy="721" fill="#ADD1B2" rx="11" ry="11" style="stroke:#A80036;stroke-width:1.0;"/><path d="M1230.5938,716.6719 C1229.6563,716.2344 1229.0625,716.0938 1228.1875,716.0938 C1225.5625,716.0938 1223.5625,718.1719 1223.5625,720.8906 L1223.5625,722.0156 C1223.5625,724.5938 1225.6719,726.4844 1228.5625,726.4844 C1229.7813,726.4844 1230.9375,726.1875 1231.6875,725.6406 C1232.2656,725.2344 1232.5938,724.7813 1232.5938,724.3906 C1232.5938,723.9375 1232.2031,723.5469 1231.7344,723.5469 C1231.5156,723.5469 1231.3125,723.625 1231.125,723.8125 C1230.6719,724.2969 1230.6719,724.2969 1230.4844,724.3906 C1230.0625,724.6563 1229.375,724.7813 1228.6094,724.7813 C1226.5625,724.7813 1225.2656,723.6875 1225.2656,721.9844 L1225.2656,720.8906 C1225.2656,719.1094 1226.5156,717.7969 1228.25,717.7969 C1228.8281,717.7969 1229.4375,717.9531 1229.9063,718.2031 C1230.3906,718.4844 1230.5625,718.7031 1230.6563,719.1094 C1230.7188,719.5156 1230.75,719.6406 1230.8906,719.7656 C1231.0313,719.9063 1231.2656,720.0156 1231.4844,720.0156 C1231.75,720.0156 1232.0156,719.875 1232.1875,719.6563 C1232.2969,719.5 1232.3281,719.3125 1232.3281,718.8906 L1232.3281,717.4688 C1232.3281,717.0313 1232.3125,716.9063 1232.2188,716.75 C1232.0625,716.4844 1231.7813,716.3438 1231.4844,716.3438 C1231.1875,716.3438 1230.9844,716.4375 1230.7656,716.75 L1230.5938,716.6719 Z " fill="#000000"/><text fill="#000000" font-family="sans-serif" font-size="12" lengthAdjust="spacing" textLength="41" x="1248.75" y="725.1543">Cliente</text><line style="stroke:#A80036;stroke-width:1.5;" x1="1154" x2="1352" y1="737" y2="737"/><text fill="#000000" font-family="sans-serif" font-size="11" lengthAdjust="spacing" textLength="66" x="1159" y="751.2104">-Integer NIF</text><text fill="#000000" font-family="sans-serif" font-size="11" lengthAdjust="spacing" textLength="74" x="1159" y="764.0151">-String nome</text><text fill="#000000" font-family="sans-serif" font-size="11" lengthAdjust="spacing" textLength="73" x="1159" y="776.8198">-String email</text><text fill="#000000" font-family="sans-serif" font-size="11" lengthAdjust="spacing" textLength="188" x="1159" y="789.6245">-Integer numeroSegurancaSocial</text><text fill="#000000" font-family="sans-serif" font-size="11" lengthAdjust="spacing" textLength="94" x="1159" y="802.4292">-String password</text><text fill="#000000" font-family="sans-serif" font-size="11" lengthAdjust="spacing" textLength="94" x="1159" y="815.2339">-Integer creditos</text><line style="stroke:#A80036;stroke-width:1.5;" x1="1154" x2="1352" y1="821.8281" y2="821.8281"/><!--MD5=[a13ca1da61a66d544daddca6fa0a1a30]
class Cartao--><rect codeLine="98" fill="#FEFECE" filter="url(#fmeqxujz0yajv)" height="86.4141" id="Cartao" style="stroke:#A80036;stroke-width:1.5;" width="108" x="1330" y="926.5"/><ellipse cx="1361.65" cy="942.5" fill="#ADD1B2" rx="11" ry="11" style="stroke:#A80036;stroke-width:1.0;"/><path d="M1363.9938,938.1719 C1363.0563,937.7344 1362.4625,937.5938 1361.5875,937.5938 C1358.9625,937.5938 1356.9625,939.6719 1356.9625,942.3906 L1356.9625,943.5156 C1356.9625,946.0938 1359.0719,947.9844 1361.9625,947.9844 C1363.1813,947.9844 1364.3375,947.6875 1365.0875,947.1406 C1365.6656,946.7344 1365.9938,946.2813 1365.9938,945.8906 C1365.9938,945.4375 1365.6031,945.0469 1365.1344,945.0469 C1364.9156,945.0469 1364.7125,945.125 1364.525,945.3125 C1364.0719,945.7969 1364.0719,945.7969 1363.8844,945.8906 C1363.4625,946.1563 1362.775,946.2813 1362.0094,946.2813 C1359.9625,946.2813 1358.6656,945.1875 1358.6656,943.4844 L1358.6656,942.3906 C1358.6656,940.6094 1359.9156,939.2969 1361.65,939.2969 C1362.2281,939.2969 1362.8375,939.4531 1363.3063,939.7031 C1363.7906,939.9844 1363.9625,940.2031 1364.0563,940.6094 C1364.1188,941.0156 1364.15,941.1406 1364.2906,941.2656 C1364.4313,941.4063 1364.6656,941.5156 1364.8844,941.5156 C1365.15,941.5156 1365.4156,941.375 1365.5875,941.1563 C1365.6969,941 1365.7281,940.8125 1365.7281,940.3906 L1365.7281,938.9688 C1365.7281,938.5313 1365.7125,938.4063 1365.6188,938.25 C1365.4625,937.9844 1365.1813,937.8438 1364.8844,937.8438 C1364.5875,937.8438 1364.3844,937.9375 1364.1656,938.25 L1363.9938,938.1719 Z " fill="#000000"/><text fill="#000000" font-family="sans-serif" font-size="12" lengthAdjust="spacing" textLength="39" x="1379.35" y="946.6543">Cartao</text><line style="stroke:#A80036;stroke-width:1.5;" x1="1331" x2="1437" y1="958.5" y2="958.5"/><text fill="#000000" font-family="sans-serif" font-size="11" lengthAdjust="spacing" textLength="85" x="1336" y="972.7104">-numeroCartao</text><text fill="#000000" font-family="sans-serif" font-size="11" lengthAdjust="spacing" textLength="96" x="1336" y="985.5151">-dataDeValidade</text><text fill="#000000" font-family="sans-serif" font-size="11" lengthAdjust="spacing" textLength="28" x="1336" y="998.3198">-CCV</text><line style="stroke:#A80036;stroke-width:1.5;" x1="1331" x2="1437" y1="1004.9141" y2="1004.9141"/><!--MD5=[533e824b6b94274ee39bf5a43d7cce2a]
class EstadoEncomenda--><rect codeLine="104" fill="#FEFECE" filter="url(#fmeqxujz0yajv)" height="73.6094" id="EstadoEncomenda" style="stroke:#A80036;stroke-width:1.5;" width="145" x="953.5" y="1121.5"/><ellipse cx="969.4" cy="1137.5" fill="#ADD1B2" rx="11" ry="11" style="stroke:#A80036;stroke-width:1.0;"/><path d="M971.7438,1133.1719 C970.8063,1132.7344 970.2125,1132.5938 969.3375,1132.5938 C966.7125,1132.5938 964.7125,1134.6719 964.7125,1137.3906 L964.7125,1138.5156 C964.7125,1141.0938 966.8219,1142.9844 969.7125,1142.9844 C970.9313,1142.9844 972.0875,1142.6875 972.8375,1142.1406 C973.4156,1141.7344 973.7438,1141.2813 973.7438,1140.8906 C973.7438,1140.4375 973.3531,1140.0469 972.8844,1140.0469 C972.6656,1140.0469 972.4625,1140.125 972.275,1140.3125 C971.8219,1140.7969 971.8219,1140.7969 971.6344,1140.8906 C971.2125,1141.1563 970.525,1141.2813 969.7594,1141.2813 C967.7125,1141.2813 966.4156,1140.1875 966.4156,1138.4844 L966.4156,1137.3906 C966.4156,1135.6094 967.6656,1134.2969 969.4,1134.2969 C969.9781,1134.2969 970.5875,1134.4531 971.0563,1134.7031 C971.5406,1134.9844 971.7125,1135.2031 971.8063,1135.6094 C971.8688,1136.0156 971.9,1136.1406 972.0406,1136.2656 C972.1813,1136.4063 972.4156,1136.5156 972.6344,1136.5156 C972.9,1136.5156 973.1656,1136.375 973.3375,1136.1563 C973.4469,1136 973.4781,1135.8125 973.4781,1135.3906 L973.4781,1133.9688 C973.4781,1133.5313 973.4625,1133.4063 973.3688,1133.25 C973.2125,1132.9844 972.9313,1132.8438 972.6344,1132.8438 C972.3375,1132.8438 972.1344,1132.9375 971.9156,1133.25 L971.7438,1133.1719 Z " fill="#000000"/><text fill="#000000" font-family="sans-serif" font-size="12" lengthAdjust="spacing" textLength="111" x="983.6" y="1141.6543">EstadoEncomenda</text><line style="stroke:#A80036;stroke-width:1.5;" x1="954.5" x2="1097.5" y1="1153.5" y2="1153.5"/><text fill="#000000" font-family="sans-serif" font-size="11" lengthAdjust="spacing" textLength="133" x="959.5" y="1167.7104">-id_estado_encomenda</text><text fill="#000000" font-family="sans-serif" font-size="11" lengthAdjust="spacing" textLength="69" x="959.5" y="1180.5151">-designacao</text><line style="stroke:#A80036;stroke-width:1.5;" x1="954.5" x2="1097.5" y1="1187.1094" y2="1187.1094"/><!--MD5=[d4dacc50d49878ba7c621dfc80a2e1ce]
class Produto--><rect codeLine="109" fill="#FEFECE" filter="url(#fmeqxujz0yajv)" height="99.2188" id="Produto" style="stroke:#A80036;stroke-width:1.5;" width="81" x="1133.5" y="1109"/><ellipse cx="1149.85" cy="1125" fill="#ADD1B2" rx="11" ry="11" style="stroke:#A80036;stroke-width:1.0;"/><path d="M1152.1938,1120.6719 C1151.2563,1120.2344 1150.6625,1120.0938 1149.7875,1120.0938 C1147.1625,1120.0938 1145.1625,1122.1719 1145.1625,1124.8906 L1145.1625,1126.0156 C1145.1625,1128.5938 1147.2719,1130.4844 1150.1625,1130.4844 C1151.3813,1130.4844 1152.5375,1130.1875 1153.2875,1129.6406 C1153.8656,1129.2344 1154.1938,1128.7813 1154.1938,1128.3906 C1154.1938,1127.9375 1153.8031,1127.5469 1153.3344,1127.5469 C1153.1156,1127.5469 1152.9125,1127.625 1152.725,1127.8125 C1152.2719,1128.2969 1152.2719,1128.2969 1152.0844,1128.3906 C1151.6625,1128.6563 1150.975,1128.7813 1150.2094,1128.7813 C1148.1625,1128.7813 1146.8656,1127.6875 1146.8656,1125.9844 L1146.8656,1124.8906 C1146.8656,1123.1094 1148.1156,1121.7969 1149.85,1121.7969 C1150.4281,1121.7969 1151.0375,1121.9531 1151.5063,1122.2031 C1151.9906,1122.4844 1152.1625,1122.7031 1152.2563,1123.1094 C1152.3188,1123.5156 1152.35,1123.6406 1152.4906,1123.7656 C1152.6313,1123.9063 1152.8656,1124.0156 1153.0844,1124.0156 C1153.35,1124.0156 1153.6156,1123.875 1153.7875,1123.6563 C1153.8969,1123.5 1153.9281,1123.3125 1153.9281,1122.8906 L1153.9281,1121.4688 C1153.9281,1121.0313 1153.9125,1120.9063 1153.8188,1120.75 C1153.6625,1120.4844 1153.3813,1120.3438 1153.0844,1120.3438 C1152.7875,1120.3438 1152.5844,1120.4375 1152.3656,1120.75 L1152.1938,1120.6719 Z " fill="#000000"/><text fill="#000000" font-family="sans-serif" font-size="12" lengthAdjust="spacing" textLength="46" x="1164.15" y="1129.1543">Produto</text><line style="stroke:#A80036;stroke-width:1.5;" x1="1134.5" x2="1213.5" y1="1141" y2="1141"/><text fill="#000000" font-family="sans-serif" font-size="11" lengthAdjust="spacing" textLength="56" x="1139.5" y="1155.2104">-idProduto</text><text fill="#000000" font-family="sans-serif" font-size="11" lengthAdjust="spacing" textLength="69" x="1139.5" y="1168.0151">-designacao</text><text fill="#000000" font-family="sans-serif" font-size="11" lengthAdjust="spacing" textLength="32" x="1139.5" y="1180.8198">-peso</text><text fill="#000000" font-family="sans-serif" font-size="11" lengthAdjust="spacing" textLength="65" x="1139.5" y="1193.6245">-precoBase</text><line style="stroke:#A80036;stroke-width:1.5;" x1="1134.5" x2="1213.5" y1="1200.2188" y2="1200.2188"/><!--MD5=[6af3a5e7d8ae03b4afed09b9952bb816]
link IniciarEntregaUI to IniciarEntregaController--><path codeLine="116" d="M430,55.14 C430,70.83 430,92 430,110.55 " fill="none" id="IniciarEntregaUI-to-IniciarEntregaController" style="stroke:#A80036;stroke-width:1.0;stroke-dasharray:7.0,7.0;"/><polygon fill="#A80036" points="430,115.71,434,106.71,430,110.71,426,106.71,430,115.71" style="stroke:#A80036;stroke-width:1.0;"/><!--MD5=[77823d11e5c345d9fdec5f272ba43763]
link IniciarEntregaController to EstafetaDB--><path codeLine="118" d="M468.256,190.34 C489.139,210.182 514.804,234.564 535.133,253.876 " fill="none" id="IniciarEntregaController-to-EstafetaDB" style="stroke:#A80036;stroke-width:1.0;stroke-dasharray:7.0,7.0;"/><polygon fill="#A80036" points="538.864,257.421,535.0956,248.3216,535.2396,253.9766,529.5846,254.1206,538.864,257.421" style="stroke:#A80036;stroke-width:1.0;"/><!--MD5=[512376957d718326176963b6d07bfab9]
link IniciarEntregaController to EnderecoDB--><path codeLine="119" d="M412.103,190.25 C390.813,233.378 355.366,305.181 333.138,350.209 " fill="none" id="IniciarEntregaController-to-EnderecoDB" style="stroke:#A80036;stroke-width:1.0;stroke-dasharray:7.0,7.0;"/><polygon fill="#A80036" points="330.895,354.751,338.4647,348.4503,333.1076,350.2672,331.2907,344.9101,330.895,354.751" style="stroke:#A80036;stroke-width:1.0;"/><!--MD5=[bb851df602f30980c12a7969554fdf39]
link IniciarEntregaController to ScooterDB--><path codeLine="120" d="M422.999,190.19 C409.888,268.248 389.257,455.726 464,584 C470.012,594.318 478.612,603.222 488.107,610.769 " fill="none" id="IniciarEntregaController-to-ScooterDB" style="stroke:#A80036;stroke-width:1.0;stroke-dasharray:7.0,7.0;"/><polygon fill="#A80036" points="492.226,613.92,487.5068,605.2754,488.2543,610.8826,482.647,611.6301,492.226,613.92" style="stroke:#A80036;stroke-width:1.0;"/><!--MD5=[22c56d9dbc09ea1c216c39fea23d44fd]
link IniciarEntregaController to EntregaDB--><path codeLine="121" d="M516.188,175.89 C565.69,191.34 627.133,215.671 674,251 C755.875,312.719 822.302,414.549 856.618,473.784 " fill="none" id="IniciarEntregaController-to-EntregaDB" style="stroke:#A80036;stroke-width:1.0;stroke-dasharray:7.0,7.0;"/><polygon fill="#A80036" points="859.235,478.326,858.209,468.5307,856.7394,473.9933,851.2768,472.5237,859.235,478.326" style="stroke:#A80036;stroke-width:1.0;"/><!--MD5=[62ebfbd9579120f83caae090d1b7a216]
link IniciarEntregaController to EncomendaDB--><path codeLine="122" d="M516.21,155.14 C597.308,159.28 720.244,173.62 816,220 C883.822,252.852 945.269,317.362 978.956,357.075 " fill="none" id="IniciarEntregaController-to-EncomendaDB" style="stroke:#A80036;stroke-width:1.0;stroke-dasharray:7.0,7.0;"/><polygon fill="#A80036" points="982.526,361.315,979.787,351.8547,979.3047,357.4909,973.6685,357.0087,982.526,361.315" style="stroke:#A80036;stroke-width:1.0;"/><!--MD5=[b6f4cc89b72257035a0432594cf5e691]
link IniciarEntregaController to AplicacaoPOT--><path codeLine="123" d="M343.907,182.38 C289.148,200.9 216.954,226.16 154,251 C150.05,252.559 146.009,254.194 141.943,255.873 " fill="none" id="IniciarEntregaController-to-AplicacaoPOT" style="stroke:#A80036;stroke-width:1.0;stroke-dasharray:7.0,7.0;"/><polygon fill="#A80036" points="137.16,257.862,147.006,258.0997,141.7767,255.9422,143.9343,250.7129,137.16,257.862" style="stroke:#A80036;stroke-width:1.0;"/><!--MD5=[2969567573402783d990b08175b6013d]
link IniciarEntregaController to SessaoUtilizador--><path codeLine="124" d="M376.491,190.1 C362.31,199.75 347.04,210.221 333,220 C317.066,231.097 299.728,243.392 284.332,254.388 " fill="none" id="IniciarEntregaController-to-SessaoUtilizador" style="stroke:#A80036;stroke-width:1.0;stroke-dasharray:7.0,7.0;"/><polygon fill="#A80036" points="280.044,257.453,289.6919,255.4736,284.1117,254.5455,285.0398,248.9653,280.044,257.453" style="stroke:#A80036;stroke-width:1.0;"/><!--MD5=[4c7211caded616e3e77a70a7b669ae10]
link EntregaDB to Entrega--><path codeLine="126" d="M881.308,564.723 C880.636,605.7 879.614,668.059 878.884,712.6 " fill="none" id="EntregaDB-to-Entrega" style="stroke:#A80036;stroke-width:1.0;"/><polygon fill="#A80036" points="878.801,717.668,882.9496,708.7355,878.8839,712.6687,874.9507,708.6029,878.801,717.668" style="stroke:#A80036;stroke-width:1.0;"/><text fill="#000000" font-family="sans-serif" font-size="13" lengthAdjust="spacing" textLength="97" x="882" y="649.0669">tem registadas</text><text fill="#000000" font-family="sans-serif" font-size="13" lengthAdjust="spacing" textLength="8" x="872.5602" y="584.8515">1</text><text fill="#000000" font-family="sans-serif" font-size="13" lengthAdjust="spacing" textLength="7" x="871.4383" y="707.0251">*</text><!--MD5=[a3e63c72779e49a48819b249af53bae4]
link EstafetaDB to Estafeta--><path codeLine="127" d="M571.544,318.791 C573.3,352.656 576.221,409.009 578.53,453.556 " fill="none" id="EstafetaDB-to-Estafeta" style="stroke:#A80036;stroke-width:1.0;"/><polygon fill="#A80036" points="578.794,458.652,582.3207,449.4562,578.5341,453.6588,574.3315,449.8721,578.794,458.652" style="stroke:#A80036;stroke-width:1.0;"/><text fill="#000000" font-family="sans-serif" font-size="13" lengthAdjust="spacing" textLength="97" x="579" y="396.5669">tem registadas</text><text fill="#000000" font-family="sans-serif" font-size="13" lengthAdjust="spacing" textLength="8" x="563.0605" y="338.4287">1</text><text fill="#000000" font-family="sans-serif" font-size="13" lengthAdjust="spacing" textLength="7" x="571.0605" y="448.0412">*</text><!--MD5=[7177515c401312a3f4890a50ab42ecc9]
link EncomendaDB to Encomenda--><path codeLine="128" d="M1039.34,422.613 C1048.99,433.093 1058.41,445.629 1064,459 C1127.39,610.723 1117.84,809.968 1107.75,908.286 " fill="none" id="EncomendaDB-to-Encomenda" style="stroke:#A80036;stroke-width:1.0;"/><polygon fill="#A80036" points="1107.21,913.465,1112.1221,904.9286,1107.7287,908.492,1104.1653,904.0986,1107.21,913.465" style="stroke:#A80036;stroke-width:1.0;"/><text fill="#000000" font-family="sans-serif" font-size="13" lengthAdjust="spacing" textLength="97" x="1113" y="649.0669">tem registadas</text><text fill="#000000" font-family="sans-serif" font-size="13" lengthAdjust="spacing" textLength="8" x="1037.3914" y="442.5745">1</text><text fill="#000000" font-family="sans-serif" font-size="13" lengthAdjust="spacing" textLength="7" x="1100.6853" y="902.3985">*</text><!--MD5=[c023e2c3fa599b931e4bde319636976a]
link EnderecoDB to Endereco--><path codeLine="129" d="M315.647,429.076 C321.342,503.981 335.889,681.748 356,830 C359.491,855.737 364.228,884.012 368.571,908.267 " fill="none" id="EnderecoDB-to-Endereco" style="stroke:#A80036;stroke-width:1.0;"/><polygon fill="#A80036" points="369.491,913.38,371.8331,903.8137,368.6051,908.4591,363.9597,905.2311,369.491,913.38" style="stroke:#A80036;stroke-width:1.0;"/><text fill="#000000" font-family="sans-serif" font-size="13" lengthAdjust="spacing" textLength="97" x="339" y="649.0669">tem registadas</text><text fill="#000000" font-family="sans-serif" font-size="13" lengthAdjust="spacing" textLength="8" x="307.4229" y="448.5691">1</text><text fill="#000000" font-family="sans-serif" font-size="13" lengthAdjust="spacing" textLength="7" x="360.6961" y="902.3026">*</text><!--MD5=[44650545f701211ba2acbe8172184bfb]
link ScooterDB to Scooter--><path codeLine="130" d="M560.693,675.08 C571.585,711.671 591.122,775.776 610,830 C618.219,853.607 627.828,879.231 636.589,901.944 " fill="none" id="ScooterDB-to-Scooter" style="stroke:#A80036;stroke-width:1.0;"/><polygon fill="#A80036" points="638.445,906.745,638.9302,896.9081,636.6419,902.0814,631.4685,899.7931,638.445,906.745" style="stroke:#A80036;stroke-width:1.0;"/><text fill="#000000" font-family="sans-serif" font-size="13" lengthAdjust="spacing" textLength="97" x="611" y="772.0669">tem registadas</text><text fill="#000000" font-family="sans-serif" font-size="13" lengthAdjust="spacing" textLength="8" x="553.6609" y="695.0347">1</text><text fill="#000000" font-family="sans-serif" font-size="13" lengthAdjust="spacing" textLength="7" x="628.3765" y="896.1444">*</text><!--MD5=[0b9a64f88a8f68498a0520ea68e94a71]
link Cliente to Cartao--><path codeLine="132" d="M1322.02,830.072 C1330.46,839.546 1338.41,849.641 1345,860 C1357.89,880.267 1367.27,905.374 1373.59,926.33 " fill="none" id="Cliente-Cartao" style="stroke:#A80036;stroke-width:1.0;"/><polygon fill="#000000" points="1362.3612,872.9737,1360.6803,863.6129,1355.4992,866.3887,1362.3612,872.9737" style="stroke:#000000;stroke-width:1.0;"/><text fill="#000000" font-family="sans-serif" font-size="13" lengthAdjust="spacing" textLength="26" x="1369" y="873.0669">tem</text><text fill="#000000" font-family="sans-serif" font-size="13" lengthAdjust="spacing" textLength="8" x="1321.1316" y="849.8197">1</text><text fill="#000000" font-family="sans-serif" font-size="13" lengthAdjust="spacing" textLength="8" x="1363.2934" y="915.299">1</text><!--MD5=[1dbffbca5cb534c4a76478e59708cd36]
link Parque to Scooter--><path codeLine="133" d="M460.322,798.349 C471.1,821.792 488.538,854.181 511,877 C516.435,882.522 541.078,897.838 568.991,914.396 " fill="none" id="Parque-to-Scooter" style="stroke:#A80036;stroke-width:1.0;"/><polygon fill="#A80036" points="573.497,917.063,567.7899,909.0363,569.1944,914.516,563.7146,915.9205,573.497,917.063" style="stroke:#A80036;stroke-width:1.0;"/><polygon fill="#000000" points="519.4176,872.2161,515.3803,863.605,511.0899,867.6226,519.4176,872.2161" style="stroke:#000000;stroke-width:1.0;"/><text fill="#000000" font-family="sans-serif" font-size="13" lengthAdjust="spacing" textLength="41" x="525" y="873.0669">possui</text><text fill="#000000" font-family="sans-serif" font-size="13" lengthAdjust="spacing" textLength="8" x="453.9084" y="817.7574">1</text><text fill="#000000" font-family="sans-serif" font-size="13" lengthAdjust="spacing" textLength="7" x="558.5046" y="908.9922">*</text><!--MD5=[65c0b4ced80642714d633a5480d06ed6]
link Parque to Endereco--><path codeLine="134" d="M437.503,798.128 C431.198,816.02 423.056,839.292 416,860 C410.663,875.663 404.984,892.632 399.752,908.395 " fill="none" id="Parque-to-Endereco" style="stroke:#A80036;stroke-width:1.0;"/><polygon fill="#A80036" points="398.143,913.246,404.7733,905.9632,399.7173,908.5003,397.1801,903.4443,398.143,913.246" style="stroke:#A80036;stroke-width:1.0;"/><polygon fill="#000000" points="419.3805,873.2969,425.0907,865.6913,419.5297,863.7875,419.3805,873.2969" style="stroke:#000000;stroke-width:1.0;"/><text fill="#000000" font-family="sans-serif" font-size="13" lengthAdjust="spacing" textLength="26" x="430" y="873.0669">tem</text><text fill="#000000" font-family="sans-serif" font-size="13" lengthAdjust="spacing" textLength="8" x="426.513" y="818.0926">1</text><text fill="#000000" font-family="sans-serif" font-size="13" lengthAdjust="spacing" textLength="8" x="391.8667" y="902.5495">1</text><!--MD5=[39609d66ce6d06d1779a14455c909f6f]
link Entrega to Encomenda--><path codeLine="135" d="M932.023,817.17 C962.98,845.058 1002.047,880.254 1034.71,909.684 " fill="none" id="Entrega-to-Encomenda" style="stroke:#A80036;stroke-width:1.0;"/><polygon fill="#A80036" points="1038.67,913.244,1034.6562,904.2501,1034.9535,909.8992,1029.3045,910.1965,1038.67,913.244" style="stroke:#A80036;stroke-width:1.0;"/><polygon fill="#000000" points="1004.7147,871.9131,999.9619,863.6754,996.0275,868.0423,1004.7147,871.9131" style="stroke:#000000;stroke-width:1.0;"/><text fill="#000000" font-family="sans-serif" font-size="13" lengthAdjust="spacing" textLength="41" x="1010" y="873.0669">possui</text><text fill="#000000" font-family="sans-serif" font-size="13" lengthAdjust="spacing" textLength="8" x="931.0575" y="837.2704">1</text><text fill="#000000" font-family="sans-serif" font-size="13" lengthAdjust="spacing" textLength="7" x="1023.7688" y="902.5473">*</text><!--MD5=[328dae9b2f192140d45e51cd90ecd75a]
link Estafeta to Entrega--><path codeLine="136" d="M656.693,584.072 C705.502,624.305 768.541,676.27 814.847,714.441 " fill="none" id="Estafeta-to-Entrega" style="stroke:#A80036;stroke-width:1.0;"/><polygon fill="#A80036" points="818.712,717.627,814.3107,708.8163,814.8535,714.4471,809.2228,714.9899,818.712,717.627" style="stroke:#A80036;stroke-width:1.0;"/><polygon fill="#000000" points="774.8582,647.7468,769.748,639.7257,766.0093,644.2612,774.8582,647.7468" style="stroke:#000000;stroke-width:1.0;"/><text fill="#000000" font-family="sans-serif" font-size="13" lengthAdjust="spacing" textLength="42" x="780" y="649.0669">realiza</text><text fill="#000000" font-family="sans-serif" font-size="13" lengthAdjust="spacing" textLength="8" x="656.425" y="603.8197">1</text><text fill="#000000" font-family="sans-serif" font-size="13" lengthAdjust="spacing" textLength="7" x="803.2749" y="706.9786">*</text><!--MD5=[f440ac15537f19f21c80dc932ffd2bf8]
link Entrega to Scooter--><path codeLine="137" d="M825.68,817.17 C797.963,842.953 763.532,874.982 733.492,902.926 " fill="none" id="Entrega-to-Scooter" style="stroke:#A80036;stroke-width:1.0;"/><polygon fill="#A80036" points="729.473,906.665,738.7866,903.4624,733.1334,903.2589,733.3369,897.6057,729.473,906.665" style="stroke:#A80036;stroke-width:1.0;"/><polygon fill="#000000" points="785.6609,865.1609,777.0365,869.1697,781.0399,873.4734,785.6609,865.1609" style="stroke:#000000;stroke-width:1.0;"/><text fill="#000000" font-family="sans-serif" font-size="13" lengthAdjust="spacing" textLength="42" x="791" y="873.0669">realiza</text><text fill="#000000" font-family="sans-serif" font-size="13" lengthAdjust="spacing" textLength="7" x="810.8303" y="837.2704">*</text><text fill="#000000" font-family="sans-serif" font-size="13" lengthAdjust="spacing" textLength="8" x="728.306" y="896.0557">1</text><!--MD5=[43a7c1a046aa41d1c9842e3954366be4]
link Cliente to Endereco--><path codeLine="138" d="M1163.04,830.193 C1131.77,848.552 1095.59,866.542 1060,877 C844.706,940.263 776.021,862.901 556,907 C548.651,908.473 541.192,910.183 533.702,912.074 " fill="none" id="Cliente-to-Endereco" style="stroke:#A80036;stroke-width:1.0;"/><polygon fill="#A80036" points="528.513,913.412,538.2267,915.0378,533.3546,912.1634,536.229,907.2912,528.513,913.412" style="stroke:#A80036;stroke-width:1.0;"/><polygon fill="#000000" points="1106.0418,869.2115,1115.3905,870.9589,1114.6321,865.1301,1106.0418,869.2115" style="stroke:#000000;stroke-width:1.0;"/><text fill="#000000" font-family="sans-serif" font-size="13" lengthAdjust="spacing" textLength="26" x="1120" y="873.0669">tem</text><text fill="#000000" font-family="sans-serif" font-size="13" lengthAdjust="spacing" textLength="8" x="1144.7631" y="849.9539">1</text><text fill="#000000" font-family="sans-serif" font-size="13" lengthAdjust="spacing" textLength="8" x="539.0287" y="902.3387">1</text><!--MD5=[beec9e5f2ed2709028dd31c1dc478e7b]
link Cliente to Encomenda--><path codeLine="139" d="M1227.79,830.239 C1219.99,846.171 1210.61,862.813 1200,877 C1191.53,888.33 1181.52,899.384 1171.17,909.667 " fill="none" id="Cliente-to-Encomenda" style="stroke:#A80036;stroke-width:1.0;"/><polygon fill="#A80036" points="1167.34,913.42,1176.5669,909.9756,1170.9104,909.9196,1170.9664,904.2631,1167.34,913.42" style="stroke:#A80036;stroke-width:1.0;"/><polygon fill="#000000" points="1214.0977,872.6378,1221.7411,866.9785,1216.9549,863.5666,1214.0977,872.6378" style="stroke:#000000;stroke-width:1.0;"/><text fill="#000000" font-family="sans-serif" font-size="13" lengthAdjust="spacing" textLength="90" x="1226" y="873.0669">realiza e paga</text><text fill="#000000" font-family="sans-serif" font-size="13" lengthAdjust="spacing" textLength="8" x="1216.5952" y="850.0049">1</text><text fill="#000000" font-family="sans-serif" font-size="13" lengthAdjust="spacing" textLength="7" x="1168.5195" y="902.3477">*</text><!--MD5=[055d9a59c94791d1e5417ead9eff8d01]
link Encomenda to EstadoEncomenda--><path codeLine="140" d="M1078.2,1025.595 C1065.96,1056.515 1051.04,1094.217 1040.29,1121.3822 " fill="none" id="Encomenda-EstadoEncomenda" style="stroke:#A80036;stroke-width:1.0;"/><polygon fill="#000000" points="1066.16,1075.2155,1072.2213,1067.8867,1066.7559,1065.7237,1066.16,1075.2155" style="stroke:#000000;stroke-width:1.0;"/><text fill="#000000" font-family="sans-serif" font-size="13" lengthAdjust="spacing" textLength="26" x="1077" y="1075.0669">tem</text><text fill="#000000" font-family="sans-serif" font-size="13" lengthAdjust="spacing" textLength="8" x="1067.0556" y="1045.4192">1</text><text fill="#000000" font-family="sans-serif" font-size="13" lengthAdjust="spacing" textLength="8" x="1034.1229" y="1110.5479">1</text><!--MD5=[60097591193c89dbde5dfd99b98b5263]
link Encomenda to Produto--><path codeLine="141" d="M1121.8,1025.595 C1132.25,1051.99 1144.65,1083.327 1154.74,1108.8333 " fill="none" id="Encomenda-Produto" style="stroke:#A80036;stroke-width:1.0;"/><polygon fill="#000000" points="1148.8398,1075.2156,1148.2443,1065.7237,1142.7788,1067.8866,1148.8398,1075.2156" style="stroke:#000000;stroke-width:1.0;"/><text fill="#000000" font-family="sans-serif" font-size="13" lengthAdjust="spacing" textLength="26" x="1156" y="1075.0669">tem</text><text fill="#000000" font-family="sans-serif" font-size="13" lengthAdjust="spacing" textLength="8" x="1115.9694" y="1045.4192">1</text><text fill="#000000" font-family="sans-serif" font-size="13" lengthAdjust="spacing" textLength="7" x="1144.5394" y="1097.8547">*</text><!--MD5=[ffadc5828e7f8df7592c5af7befc6b1c]
@startuml
skinparam classAttributeIconSize 0

class AplicacaoPOT{
  +static getInstance()
  +getSessaoAtual()
}

class SessaoUtilizador{
  +getEmailUtilizador()
}

class EnderecoDB {
  +getEnderecoParque()
  +getEnderecoByNifCliente(nif)
}

class ScooterDB {
  +getScooterById(idScooter)
}

class EncomendaDB {
  +getListaEncomendaById(idEntrega)
}

class Entrega {
  -Integer idEntrega
  -String dataInicio
  -String dataFim
  +addPesoEncomenda(pesoEncomenda, pesoTotal)
}

class EntregaDB {
  +getListaEntregaByNifEstafeta(nifEstafeta)
  +getEntregaById(int idEntrega)
  +generateGraph(listEnderecos, est, scooter, pesoTotal)
}

class EstafetaDB {
  +getEstafetaByEmail(email)
}

class IniciarEntregaController {
  +getEstafeta()
  +calculatePath(idEntrega)
}

class IniciarEntregaUI {
}

class Encomenda {
  -Integer idEncomenda
  -String dataPedida
  -Double preco
  -Double pesoEncomenda
  -Double taxa
}

class Estafeta {
  -Integer NIF
  -String nome
  -String email
  -Integer numeroSegurancaSocial
  -String password
  -Double pesoEstafeta
}

class Scooter {
  -Integer idScooter
  -Double percentagemBateria
  -Double pesoMaximo
  -Double pesoScooter
  -Double potencia
  -Double areaFrontal
}

class Endereco {
  -String morada
  -Double latitude
  -Double longitude
  -Double altitude
  +addListaEndereco(enderecoCliente, listaEnderecos)
}

class Parque {
  -Integer numeroMaximo
}

class Cliente {
  -Integer NIF
  -String nome
  -String email
  -Integer numeroSegurancaSocial
  -String password
  -Integer creditos
}


class Cartao {
  -numeroCartao
  -dataDeValidade
  -CCV
}

class EstadoEncomenda {
  -id_estado_encomenda
  -designacao
}

class Produto {
  -idProduto
  -designacao
  -peso
  -precoBase
}

IniciarEntregaUI ..> IniciarEntregaController

IniciarEntregaController ..> EstafetaDB
IniciarEntregaController ..> EnderecoDB
IniciarEntregaController ..> ScooterDB
IniciarEntregaController ..> EntregaDB
IniciarEntregaController ..> EncomendaDB
IniciarEntregaController ..> AplicacaoPOT
IniciarEntregaController ..> SessaoUtilizador

EntregaDB "1" - -> "*" Entrega : tem registadas
EstafetaDB "1" - -> "*" Estafeta : tem registadas
EncomendaDB "1" - -> "*" Encomenda : tem registadas
EnderecoDB "1" - -> "*" Endereco : tem registadas
ScooterDB "1" - -> "*" Scooter : tem registadas

Cliente "1" - - "1" Cartao : tem >
Parque "1" - -> "*" Scooter: possui >
Parque "1" - -> "1" Endereco: tem >
Entrega "1" - -> "*" Encomenda : possui >
Estafeta "1" - -> "*" Entrega: realiza >
Entrega "*" - -> "1" Scooter: realiza <
Cliente "1" - -> "1" Endereco: tem >
Cliente "1" - -> "*" Encomenda: realiza e paga >
Encomenda "1" - - "1" EstadoEncomenda : tem >
Encomenda "1" - - "*" Produto: tem >
@enduml

PlantUML version 1.2020.27beta8(Unknown compile time)
(GPL source distribution)
Java Runtime: Java(TM) SE Runtime Environment
JVM: Java HotSpot(TM) 64-Bit Server VM
Default Encoding: UTF-8
Language: en
Country: US
--></g></svg>