<?xml version="1.0" encoding="UTF-8" standalone="no"?><svg xmlns="http://www.w3.org/2000/svg" xmlns:xlink="http://www.w3.org/1999/xlink" contentScriptType="application/ecmascript" contentStyleType="text/css" height="1164px" preserveAspectRatio="none" style="width:1321px;height:1164px;" version="1.1" viewBox="0 0 1321 1164" width="1321px" zoomAndPan="magnify"><defs><filter height="300%" id="f1xfo3edb20czy" width="300%" x="-1" y="-1"><feGaussianBlur result="blurOut" stdDeviation="2.0"/><feColorMatrix in="blurOut" result="blurOut2" type="matrix" values="0 0 0 0 0 0 0 0 0 0 0 0 0 0 0 0 0 0 .4 0"/><feOffset dx="4.0" dy="4.0" in="blurOut2" result="blurOut3"/><feBlend in="SourceGraphic" in2="blurOut3" mode="normal"/></filter></defs><g><!--MD5=[380d12a68ed0046a60f31008a02875d0]
class AplicacaoPOT--><rect codeLine="3" fill="#FEFECE" filter="url(#f1xfo3edb20czy)" height="73.6094" id="AplicacaoPOT" style="stroke:#A80036;stroke-width:1.5;" width="130" x="7" y="251"/><ellipse cx="29.65" cy="267" fill="#ADD1B2" rx="11" ry="11" style="stroke:#A80036;stroke-width:1.0;"/><path d="M31.9938,262.6719 C31.0563,262.2344 30.4625,262.0938 29.5875,262.0938 C26.9625,262.0938 24.9625,264.1719 24.9625,266.8906 L24.9625,268.0156 C24.9625,270.5938 27.0719,272.4844 29.9625,272.4844 C31.1813,272.4844 32.3375,272.1875 33.0875,271.6406 C33.6656,271.2344 33.9938,270.7813 33.9938,270.3906 C33.9938,269.9375 33.6031,269.5469 33.1344,269.5469 C32.9156,269.5469 32.7125,269.625 32.525,269.8125 C32.0719,270.2969 32.0719,270.2969 31.8844,270.3906 C31.4625,270.6563 30.775,270.7813 30.0094,270.7813 C27.9625,270.7813 26.6656,269.6875 26.6656,267.9844 L26.6656,266.8906 C26.6656,265.1094 27.9156,263.7969 29.65,263.7969 C30.2281,263.7969 30.8375,263.9531 31.3063,264.2031 C31.7906,264.4844 31.9625,264.7031 32.0563,265.1094 C32.1188,265.5156 32.15,265.6406 32.2906,265.7656 C32.4313,265.9063 32.6656,266.0156 32.8844,266.0156 C33.15,266.0156 33.4156,265.875 33.5875,265.6563 C33.6969,265.5 33.7281,265.3125 33.7281,264.8906 L33.7281,263.4688 C33.7281,263.0313 33.7125,262.9063 33.6188,262.75 C33.4625,262.4844 33.1813,262.3438 32.8844,262.3438 C32.5875,262.3438 32.3844,262.4375 32.1656,262.75 L31.9938,262.6719 Z " fill="#000000"/><text fill="#000000" font-family="sans-serif" font-size="12" lengthAdjust="spacing" textLength="81" x="45.35" y="271.1543">AplicacaoPOT</text><line style="stroke:#A80036;stroke-width:1.5;" x1="8" x2="136" y1="283" y2="283"/><line style="stroke:#A80036;stroke-width:1.5;" x1="8" x2="136" y1="291" y2="291"/><text fill="#000000" font-family="sans-serif" font-size="11" lengthAdjust="spacing" textLength="118" x="13" y="305.2104">+static getInstance()</text><text fill="#000000" font-family="sans-serif" font-size="11" lengthAdjust="spacing" textLength="107" x="13" y="318.0151">+getSessaoAtual()</text><!--MD5=[1e13576e8c070e32200b62ceaa1f39ec]
class SessaoUtilizador--><rect codeLine="8" fill="#FEFECE" filter="url(#f1xfo3edb20czy)" height="60.8047" id="SessaoUtilizador" style="stroke:#A80036;stroke-width:1.5;" width="134" x="172" y="257.5"/><ellipse cx="187" cy="273.5" fill="#ADD1B2" rx="11" ry="11" style="stroke:#A80036;stroke-width:1.0;"/><path d="M189.3438,269.1719 C188.4063,268.7344 187.8125,268.5938 186.9375,268.5938 C184.3125,268.5938 182.3125,270.6719 182.3125,273.3906 L182.3125,274.5156 C182.3125,277.0938 184.4219,278.9844 187.3125,278.9844 C188.5313,278.9844 189.6875,278.6875 190.4375,278.1406 C191.0156,277.7344 191.3438,277.2813 191.3438,276.8906 C191.3438,276.4375 190.9531,276.0469 190.4844,276.0469 C190.2656,276.0469 190.0625,276.125 189.875,276.3125 C189.4219,276.7969 189.4219,276.7969 189.2344,276.8906 C188.8125,277.1563 188.125,277.2813 187.3594,277.2813 C185.3125,277.2813 184.0156,276.1875 184.0156,274.4844 L184.0156,273.3906 C184.0156,271.6094 185.2656,270.2969 187,270.2969 C187.5781,270.2969 188.1875,270.4531 188.6563,270.7031 C189.1406,270.9844 189.3125,271.2031 189.4063,271.6094 C189.4688,272.0156 189.5,272.1406 189.6406,272.2656 C189.7813,272.4063 190.0156,272.5156 190.2344,272.5156 C190.5,272.5156 190.7656,272.375 190.9375,272.1563 C191.0469,272 191.0781,271.8125 191.0781,271.3906 L191.0781,269.9688 C191.0781,269.5313 191.0625,269.4063 190.9688,269.25 C190.8125,268.9844 190.5313,268.8438 190.2344,268.8438 C189.9375,268.8438 189.7344,268.9375 189.5156,269.25 L189.3438,269.1719 Z " fill="#000000"/><text fill="#000000" font-family="sans-serif" font-size="12" lengthAdjust="spacing" textLength="102" x="201" y="277.6543">SessaoUtilizador</text><line style="stroke:#A80036;stroke-width:1.5;" x1="173" x2="305" y1="289.5" y2="289.5"/><line style="stroke:#A80036;stroke-width:1.5;" x1="173" x2="305" y1="297.5" y2="297.5"/><text fill="#000000" font-family="sans-serif" font-size="11" lengthAdjust="spacing" textLength="120" x="178" y="311.7104">+getEmailUtilizador()</text><!--MD5=[021650fd5270df78a3629eada2205323]
class ParqueDB--><rect codeLine="12" fill="#FEFECE" filter="url(#f1xfo3edb20czy)" height="60.8047" id="ParqueDB" style="stroke:#A80036;stroke-width:1.5;" width="102" x="621" y="257.5"/><ellipse cx="641.4" cy="273.5" fill="#ADD1B2" rx="11" ry="11" style="stroke:#A80036;stroke-width:1.0;"/><path d="M643.7438,269.1719 C642.8063,268.7344 642.2125,268.5938 641.3375,268.5938 C638.7125,268.5938 636.7125,270.6719 636.7125,273.3906 L636.7125,274.5156 C636.7125,277.0938 638.8219,278.9844 641.7125,278.9844 C642.9313,278.9844 644.0875,278.6875 644.8375,278.1406 C645.4156,277.7344 645.7438,277.2813 645.7438,276.8906 C645.7438,276.4375 645.3531,276.0469 644.8844,276.0469 C644.6656,276.0469 644.4625,276.125 644.275,276.3125 C643.8219,276.7969 643.8219,276.7969 643.6344,276.8906 C643.2125,277.1563 642.525,277.2813 641.7594,277.2813 C639.7125,277.2813 638.4156,276.1875 638.4156,274.4844 L638.4156,273.3906 C638.4156,271.6094 639.6656,270.2969 641.4,270.2969 C641.9781,270.2969 642.5875,270.4531 643.0563,270.7031 C643.5406,270.9844 643.7125,271.2031 643.8063,271.6094 C643.8688,272.0156 643.9,272.1406 644.0406,272.2656 C644.1813,272.4063 644.4156,272.5156 644.6344,272.5156 C644.9,272.5156 645.1656,272.375 645.3375,272.1563 C645.4469,272 645.4781,271.8125 645.4781,271.3906 L645.4781,269.9688 C645.4781,269.5313 645.4625,269.4063 645.3688,269.25 C645.2125,268.9844 644.9313,268.8438 644.6344,268.8438 C644.3375,268.8438 644.1344,268.9375 643.9156,269.25 L643.7438,269.1719 Z " fill="#000000"/><text fill="#000000" font-family="sans-serif" font-size="12" lengthAdjust="spacing" textLength="58" x="656.6" y="277.6543">ParqueDB</text><line style="stroke:#A80036;stroke-width:1.5;" x1="622" x2="722" y1="289.5" y2="289.5"/><line style="stroke:#A80036;stroke-width:1.5;" x1="622" x2="722" y1="297.5" y2="297.5"/><text fill="#000000" font-family="sans-serif" font-size="11" lengthAdjust="spacing" textLength="90" x="627" y="311.7104">+getEndereco()</text><!--MD5=[eedb9d86e2ada2a30e84607ee2eb675b]
class EncomendaDB--><rect codeLine="16" fill="#FEFECE" filter="url(#f1xfo3edb20czy)" height="73.6094" id="EncomendaDB" style="stroke:#A80036;stroke-width:1.5;" width="219" x="1063.5" y="361"/><ellipse cx="1125.25" cy="377" fill="#ADD1B2" rx="11" ry="11" style="stroke:#A80036;stroke-width:1.0;"/><path d="M1127.5938,372.6719 C1126.6563,372.2344 1126.0625,372.0938 1125.1875,372.0938 C1122.5625,372.0938 1120.5625,374.1719 1120.5625,376.8906 L1120.5625,378.0156 C1120.5625,380.5938 1122.6719,382.4844 1125.5625,382.4844 C1126.7813,382.4844 1127.9375,382.1875 1128.6875,381.6406 C1129.2656,381.2344 1129.5938,380.7813 1129.5938,380.3906 C1129.5938,379.9375 1129.2031,379.5469 1128.7344,379.5469 C1128.5156,379.5469 1128.3125,379.625 1128.125,379.8125 C1127.6719,380.2969 1127.6719,380.2969 1127.4844,380.3906 C1127.0625,380.6563 1126.375,380.7813 1125.6094,380.7813 C1123.5625,380.7813 1122.2656,379.6875 1122.2656,377.9844 L1122.2656,376.8906 C1122.2656,375.1094 1123.5156,373.7969 1125.25,373.7969 C1125.8281,373.7969 1126.4375,373.9531 1126.9063,374.2031 C1127.3906,374.4844 1127.5625,374.7031 1127.6563,375.1094 C1127.7188,375.5156 1127.75,375.6406 1127.8906,375.7656 C1128.0313,375.9063 1128.2656,376.0156 1128.4844,376.0156 C1128.75,376.0156 1129.0156,375.875 1129.1875,375.6563 C1129.2969,375.5 1129.3281,375.3125 1129.3281,374.8906 L1129.3281,373.4688 C1129.3281,373.0313 1129.3125,372.9063 1129.2188,372.75 C1129.0625,372.4844 1128.7813,372.3438 1128.4844,372.3438 C1128.1875,372.3438 1127.9844,372.4375 1127.7656,372.75 L1127.5938,372.6719 Z " fill="#000000"/><text fill="#000000" font-family="sans-serif" font-size="12" lengthAdjust="spacing" textLength="87" x="1145.75" y="381.1543">EncomendaDB</text><line style="stroke:#A80036;stroke-width:1.5;" x1="1064.5" x2="1281.5" y1="393" y2="393"/><line style="stroke:#A80036;stroke-width:1.5;" x1="1064.5" x2="1281.5" y1="401" y2="401"/><text fill="#000000" font-family="sans-serif" font-size="11" lengthAdjust="spacing" textLength="203" x="1069.5" y="415.2104">+getIdEncomenda(listaEncomenda)</text><text fill="#000000" font-family="sans-serif" font-size="11" lengthAdjust="spacing" textLength="207" x="1069.5" y="428.0151">+getPesoEncomenda(idEncomenda)</text><!--MD5=[3179f819b5ca0f9c8a1bd58e9144681b]
class Entrega--><rect codeLine="21" fill="#FEFECE" filter="url(#f1xfo3edb20czy)" height="99.2188" id="Entrega" style="stroke:#A80036;stroke-width:1.5;" width="302" x="61" y="679.5"/><ellipse cx="184.75" cy="695.5" fill="#ADD1B2" rx="11" ry="11" style="stroke:#A80036;stroke-width:1.0;"/><path d="M187.0938,691.1719 C186.1563,690.7344 185.5625,690.5938 184.6875,690.5938 C182.0625,690.5938 180.0625,692.6719 180.0625,695.3906 L180.0625,696.5156 C180.0625,699.0938 182.1719,700.9844 185.0625,700.9844 C186.2813,700.9844 187.4375,700.6875 188.1875,700.1406 C188.7656,699.7344 189.0938,699.2813 189.0938,698.8906 C189.0938,698.4375 188.7031,698.0469 188.2344,698.0469 C188.0156,698.0469 187.8125,698.125 187.625,698.3125 C187.1719,698.7969 187.1719,698.7969 186.9844,698.8906 C186.5625,699.1563 185.875,699.2813 185.1094,699.2813 C183.0625,699.2813 181.7656,698.1875 181.7656,696.4844 L181.7656,695.3906 C181.7656,693.6094 183.0156,692.2969 184.75,692.2969 C185.3281,692.2969 185.9375,692.4531 186.4063,692.7031 C186.8906,692.9844 187.0625,693.2031 187.1563,693.6094 C187.2188,694.0156 187.25,694.1406 187.3906,694.2656 C187.5313,694.4063 187.7656,694.5156 187.9844,694.5156 C188.25,694.5156 188.5156,694.375 188.6875,694.1563 C188.7969,694 188.8281,693.8125 188.8281,693.3906 L188.8281,691.9688 C188.8281,691.5313 188.8125,691.4063 188.7188,691.25 C188.5625,690.9844 188.2813,690.8438 187.9844,690.8438 C187.6875,690.8438 187.4844,690.9375 187.2656,691.25 L187.0938,691.1719 Z " fill="#000000"/><text fill="#000000" font-family="sans-serif" font-size="12" lengthAdjust="spacing" textLength="46" x="205.25" y="699.6543">Entrega</text><line style="stroke:#A80036;stroke-width:1.5;" x1="62" x2="362" y1="711.5" y2="711.5"/><text fill="#000000" font-family="sans-serif" font-size="11" lengthAdjust="spacing" textLength="103" x="67" y="725.7104">-Integer idEntrega</text><text fill="#000000" font-family="sans-serif" font-size="11" lengthAdjust="spacing" textLength="95" x="67" y="738.5151">-String dataInicio</text><text fill="#000000" font-family="sans-serif" font-size="11" lengthAdjust="spacing" textLength="86" x="67" y="751.3198">-String dataFim</text><line style="stroke:#A80036;stroke-width:1.5;" x1="62" x2="362" y1="757.9141" y2="757.9141"/><text fill="#000000" font-family="sans-serif" font-size="11" lengthAdjust="spacing" textLength="290" x="67" y="772.1245">+addPesoEncomenda(pesoEncomenda, pesoTotal)</text><!--MD5=[598a246086efa0137d5aa96a640f0789]
class EntregaDB--><rect codeLine="28" fill="#FEFECE" filter="url(#f1xfo3edb20czy)" height="86.4141" id="EntregaDB" style="stroke:#A80036;stroke-width:1.5;" width="371" x="40.5" y="355"/><ellipse cx="190.25" cy="371" fill="#ADD1B2" rx="11" ry="11" style="stroke:#A80036;stroke-width:1.0;"/><path d="M192.5938,366.6719 C191.6563,366.2344 191.0625,366.0938 190.1875,366.0938 C187.5625,366.0938 185.5625,368.1719 185.5625,370.8906 L185.5625,372.0156 C185.5625,374.5938 187.6719,376.4844 190.5625,376.4844 C191.7813,376.4844 192.9375,376.1875 193.6875,375.6406 C194.2656,375.2344 194.5938,374.7813 194.5938,374.3906 C194.5938,373.9375 194.2031,373.5469 193.7344,373.5469 C193.5156,373.5469 193.3125,373.625 193.125,373.8125 C192.6719,374.2969 192.6719,374.2969 192.4844,374.3906 C192.0625,374.6563 191.375,374.7813 190.6094,374.7813 C188.5625,374.7813 187.2656,373.6875 187.2656,371.9844 L187.2656,370.8906 C187.2656,369.1094 188.5156,367.7969 190.25,367.7969 C190.8281,367.7969 191.4375,367.9531 191.9063,368.2031 C192.3906,368.4844 192.5625,368.7031 192.6563,369.1094 C192.7188,369.5156 192.75,369.6406 192.8906,369.7656 C193.0313,369.9063 193.2656,370.0156 193.4844,370.0156 C193.75,370.0156 194.0156,369.875 194.1875,369.6563 C194.2969,369.5 194.3281,369.3125 194.3281,368.8906 L194.3281,367.4688 C194.3281,367.0313 194.3125,366.9063 194.2188,366.75 C194.0625,366.4844 193.7813,366.3438 193.4844,366.3438 C193.1875,366.3438 192.9844,366.4375 192.7656,366.75 L192.5938,366.6719 Z " fill="#000000"/><text fill="#000000" font-family="sans-serif" font-size="12" lengthAdjust="spacing" textLength="63" x="210.75" y="375.1543">EntregaDB</text><line style="stroke:#A80036;stroke-width:1.5;" x1="41.5" x2="410.5" y1="387" y2="387"/><line style="stroke:#A80036;stroke-width:1.5;" x1="41.5" x2="410.5" y1="395" y2="395"/><text fill="#000000" font-family="sans-serif" font-size="11" lengthAdjust="spacing" textLength="183" x="46.5" y="409.2104">+getListaEncomenda(idEntrega)</text><text fill="#000000" font-family="sans-serif" font-size="11" lengthAdjust="spacing" textLength="134" x="46.5" y="422.0151">+getScooter(idEntrega)</text><text fill="#000000" font-family="sans-serif" font-size="11" lengthAdjust="spacing" textLength="359" x="46.5" y="434.8198">+calculatePath(origem, listaEnderecos, est, pesoTotal, scooter)</text><!--MD5=[4ac2c1498d2c03198090a24b8c54d335]
class EstafetaDB--><rect codeLine="34" fill="#FEFECE" filter="url(#f1xfo3edb20czy)" height="60.8047" id="EstafetaDB" style="stroke:#A80036;stroke-width:1.5;" width="173" x="412.5" y="257.5"/><ellipse cx="462.25" cy="273.5" fill="#ADD1B2" rx="11" ry="11" style="stroke:#A80036;stroke-width:1.0;"/><path d="M464.5938,269.1719 C463.6563,268.7344 463.0625,268.5938 462.1875,268.5938 C459.5625,268.5938 457.5625,270.6719 457.5625,273.3906 L457.5625,274.5156 C457.5625,277.0938 459.6719,278.9844 462.5625,278.9844 C463.7813,278.9844 464.9375,278.6875 465.6875,278.1406 C466.2656,277.7344 466.5938,277.2813 466.5938,276.8906 C466.5938,276.4375 466.2031,276.0469 465.7344,276.0469 C465.5156,276.0469 465.3125,276.125 465.125,276.3125 C464.6719,276.7969 464.6719,276.7969 464.4844,276.8906 C464.0625,277.1563 463.375,277.2813 462.6094,277.2813 C460.5625,277.2813 459.2656,276.1875 459.2656,274.4844 L459.2656,273.3906 C459.2656,271.6094 460.5156,270.2969 462.25,270.2969 C462.8281,270.2969 463.4375,270.4531 463.9063,270.7031 C464.3906,270.9844 464.5625,271.2031 464.6563,271.6094 C464.7188,272.0156 464.75,272.1406 464.8906,272.2656 C465.0313,272.4063 465.2656,272.5156 465.4844,272.5156 C465.75,272.5156 466.0156,272.375 466.1875,272.1563 C466.2969,272 466.3281,271.8125 466.3281,271.3906 L466.3281,269.9688 C466.3281,269.5313 466.3125,269.4063 466.2188,269.25 C466.0625,268.9844 465.7813,268.8438 465.4844,268.8438 C465.1875,268.8438 464.9844,268.9375 464.7656,269.25 L464.5938,269.1719 Z " fill="#000000"/><text fill="#000000" font-family="sans-serif" font-size="12" lengthAdjust="spacing" textLength="65" x="482.75" y="277.6543">EstafetaDB</text><line style="stroke:#A80036;stroke-width:1.5;" x1="413.5" x2="584.5" y1="289.5" y2="289.5"/><line style="stroke:#A80036;stroke-width:1.5;" x1="413.5" x2="584.5" y1="297.5" y2="297.5"/><text fill="#000000" font-family="sans-serif" font-size="11" lengthAdjust="spacing" textLength="161" x="418.5" y="311.7104">+getEstafetaByEmail(email)</text><!--MD5=[19833fe0d0b0ef0c9c5e7594e33b0f6b]
class IniciarEntregaController--><rect codeLine="38" fill="#FEFECE" filter="url(#f1xfo3edb20czy)" height="73.6094" id="IniciarEntregaController" style="stroke:#A80036;stroke-width:1.5;" width="172" x="413" y="116"/><ellipse cx="428" cy="132" fill="#ADD1B2" rx="11" ry="11" style="stroke:#A80036;stroke-width:1.0;"/><path d="M430.3438,127.6719 C429.4063,127.2344 428.8125,127.0938 427.9375,127.0938 C425.3125,127.0938 423.3125,129.1719 423.3125,131.8906 L423.3125,133.0156 C423.3125,135.5938 425.4219,137.4844 428.3125,137.4844 C429.5313,137.4844 430.6875,137.1875 431.4375,136.6406 C432.0156,136.2344 432.3438,135.7813 432.3438,135.3906 C432.3438,134.9375 431.9531,134.5469 431.4844,134.5469 C431.2656,134.5469 431.0625,134.625 430.875,134.8125 C430.4219,135.2969 430.4219,135.2969 430.2344,135.3906 C429.8125,135.6563 429.125,135.7813 428.3594,135.7813 C426.3125,135.7813 425.0156,134.6875 425.0156,132.9844 L425.0156,131.8906 C425.0156,130.1094 426.2656,128.7969 428,128.7969 C428.5781,128.7969 429.1875,128.9531 429.6563,129.2031 C430.1406,129.4844 430.3125,129.7031 430.4063,130.1094 C430.4688,130.5156 430.5,130.6406 430.6406,130.7656 C430.7813,130.9063 431.0156,131.0156 431.2344,131.0156 C431.5,131.0156 431.7656,130.875 431.9375,130.6563 C432.0469,130.5 432.0781,130.3125 432.0781,129.8906 L432.0781,128.4688 C432.0781,128.0313 432.0625,127.9063 431.9688,127.75 C431.8125,127.4844 431.5313,127.3438 431.2344,127.3438 C430.9375,127.3438 430.7344,127.4375 430.5156,127.75 L430.3438,127.6719 Z " fill="#000000"/><text fill="#000000" font-family="sans-serif" font-size="12" lengthAdjust="spacing" textLength="140" x="442" y="136.1543">IniciarEntregaController</text><line style="stroke:#A80036;stroke-width:1.5;" x1="414" x2="584" y1="148" y2="148"/><line style="stroke:#A80036;stroke-width:1.5;" x1="414" x2="584" y1="156" y2="156"/><text fill="#000000" font-family="sans-serif" font-size="11" lengthAdjust="spacing" textLength="83" x="419" y="170.2104">+getEstafeta()</text><text fill="#000000" font-family="sans-serif" font-size="11" lengthAdjust="spacing" textLength="146" x="419" y="183.0151">+calculatePath(idEntrega)</text><!--MD5=[faed70f1496af0dbeb2f76658d58e8b7]
class IniciarEntregaUI--><rect codeLine="43" fill="#FEFECE" filter="url(#f1xfo3edb20czy)" height="48" id="IniciarEntregaUI" style="stroke:#A80036;stroke-width:1.5;" width="125" x="436.5" y="7"/><ellipse cx="451.5" cy="23" fill="#ADD1B2" rx="11" ry="11" style="stroke:#A80036;stroke-width:1.0;"/><path d="M453.8438,18.6719 C452.9063,18.2344 452.3125,18.0938 451.4375,18.0938 C448.8125,18.0938 446.8125,20.1719 446.8125,22.8906 L446.8125,24.0156 C446.8125,26.5938 448.9219,28.4844 451.8125,28.4844 C453.0313,28.4844 454.1875,28.1875 454.9375,27.6406 C455.5156,27.2344 455.8438,26.7813 455.8438,26.3906 C455.8438,25.9375 455.4531,25.5469 454.9844,25.5469 C454.7656,25.5469 454.5625,25.625 454.375,25.8125 C453.9219,26.2969 453.9219,26.2969 453.7344,26.3906 C453.3125,26.6563 452.625,26.7813 451.8594,26.7813 C449.8125,26.7813 448.5156,25.6875 448.5156,23.9844 L448.5156,22.8906 C448.5156,21.1094 449.7656,19.7969 451.5,19.7969 C452.0781,19.7969 452.6875,19.9531 453.1563,20.2031 C453.6406,20.4844 453.8125,20.7031 453.9063,21.1094 C453.9688,21.5156 454,21.6406 454.1406,21.7656 C454.2813,21.9063 454.5156,22.0156 454.7344,22.0156 C455,22.0156 455.2656,21.875 455.4375,21.6563 C455.5469,21.5 455.5781,21.3125 455.5781,20.8906 L455.5781,19.4688 C455.5781,19.0313 455.5625,18.9063 455.4688,18.75 C455.3125,18.4844 455.0313,18.3438 454.7344,18.3438 C454.4375,18.3438 454.2344,18.4375 454.0156,18.75 L453.8438,18.6719 Z " fill="#000000"/><text fill="#000000" font-family="sans-serif" font-size="12" lengthAdjust="spacing" textLength="93" x="465.5" y="27.1543">IniciarEntregaUI</text><line style="stroke:#A80036;stroke-width:1.5;" x1="437.5" x2="560.5" y1="39" y2="39"/><line style="stroke:#A80036;stroke-width:1.5;" x1="437.5" x2="560.5" y1="47" y2="47"/><!--MD5=[c55f92ccbf0646788158d42f3399cc78]
class Encomenda--><rect codeLine="46" fill="#FEFECE" filter="url(#f1xfo3edb20czy)" height="112.0234" id="Encomenda" style="stroke:#A80036;stroke-width:1.5;" width="156" x="832" y="862"/><ellipse cx="871.3" cy="878" fill="#ADD1B2" rx="11" ry="11" style="stroke:#A80036;stroke-width:1.0;"/><path d="M873.6438,873.6719 C872.7063,873.2344 872.1125,873.0938 871.2375,873.0938 C868.6125,873.0938 866.6125,875.1719 866.6125,877.8906 L866.6125,879.0156 C866.6125,881.5938 868.7219,883.4844 871.6125,883.4844 C872.8313,883.4844 873.9875,883.1875 874.7375,882.6406 C875.3156,882.2344 875.6438,881.7813 875.6438,881.3906 C875.6438,880.9375 875.2531,880.5469 874.7844,880.5469 C874.5656,880.5469 874.3625,880.625 874.175,880.8125 C873.7219,881.2969 873.7219,881.2969 873.5344,881.3906 C873.1125,881.6563 872.425,881.7813 871.6594,881.7813 C869.6125,881.7813 868.3156,880.6875 868.3156,878.9844 L868.3156,877.8906 C868.3156,876.1094 869.5656,874.7969 871.3,874.7969 C871.8781,874.7969 872.4875,874.9531 872.9563,875.2031 C873.4406,875.4844 873.6125,875.7031 873.7063,876.1094 C873.7688,876.5156 873.8,876.6406 873.9406,876.7656 C874.0813,876.9063 874.3156,877.0156 874.5344,877.0156 C874.8,877.0156 875.0656,876.875 875.2375,876.6563 C875.3469,876.5 875.3781,876.3125 875.3781,875.8906 L875.3781,874.4688 C875.3781,874.0313 875.3625,873.9063 875.2688,873.75 C875.1125,873.4844 874.8313,873.3438 874.5344,873.3438 C874.2375,873.3438 874.0344,873.4375 873.8156,873.75 L873.6438,873.6719 Z " fill="#000000"/><text fill="#000000" font-family="sans-serif" font-size="12" lengthAdjust="spacing" textLength="70" x="890.7" y="882.1543">Encomenda</text><line style="stroke:#A80036;stroke-width:1.5;" x1="833" x2="987" y1="894" y2="894"/><text fill="#000000" font-family="sans-serif" font-size="11" lengthAdjust="spacing" textLength="126" x="838" y="908.2104">-Integer idEncomenda</text><text fill="#000000" font-family="sans-serif" font-size="11" lengthAdjust="spacing" textLength="104" x="838" y="921.0151">-String dataPedida</text><text fill="#000000" font-family="sans-serif" font-size="11" lengthAdjust="spacing" textLength="81" x="838" y="933.8198">-Double preco</text><text fill="#000000" font-family="sans-serif" font-size="11" lengthAdjust="spacing" textLength="144" x="838" y="946.6245">-Double pesoEncomenda</text><text fill="#000000" font-family="sans-serif" font-size="11" lengthAdjust="spacing" textLength="74" x="838" y="959.4292">-Double taxa</text><line style="stroke:#A80036;stroke-width:1.5;" x1="833" x2="987" y1="966.0234" y2="966.0234"/><!--MD5=[3f1202280bfe3359d2f91fb9b6e32986]
class Estafeta--><rect codeLine="54" fill="#FEFECE" filter="url(#f1xfo3edb20czy)" height="124.8281" id="Estafeta" style="stroke:#A80036;stroke-width:1.5;" width="200" x="357" y="471"/><ellipse cx="428.75" cy="487" fill="#ADD1B2" rx="11" ry="11" style="stroke:#A80036;stroke-width:1.0;"/><path d="M431.0938,482.6719 C430.1563,482.2344 429.5625,482.0938 428.6875,482.0938 C426.0625,482.0938 424.0625,484.1719 424.0625,486.8906 L424.0625,488.0156 C424.0625,490.5938 426.1719,492.4844 429.0625,492.4844 C430.2813,492.4844 431.4375,492.1875 432.1875,491.6406 C432.7656,491.2344 433.0938,490.7813 433.0938,490.3906 C433.0938,489.9375 432.7031,489.5469 432.2344,489.5469 C432.0156,489.5469 431.8125,489.625 431.625,489.8125 C431.1719,490.2969 431.1719,490.2969 430.9844,490.3906 C430.5625,490.6563 429.875,490.7813 429.1094,490.7813 C427.0625,490.7813 425.7656,489.6875 425.7656,487.9844 L425.7656,486.8906 C425.7656,485.1094 427.0156,483.7969 428.75,483.7969 C429.3281,483.7969 429.9375,483.9531 430.4063,484.2031 C430.8906,484.4844 431.0625,484.7031 431.1563,485.1094 C431.2188,485.5156 431.25,485.6406 431.3906,485.7656 C431.5313,485.9063 431.7656,486.0156 431.9844,486.0156 C432.25,486.0156 432.5156,485.875 432.6875,485.6563 C432.7969,485.5 432.8281,485.3125 432.8281,484.8906 L432.8281,483.4688 C432.8281,483.0313 432.8125,482.9063 432.7188,482.75 C432.5625,482.4844 432.2813,482.3438 431.9844,482.3438 C431.6875,482.3438 431.4844,482.4375 431.2656,482.75 L431.0938,482.6719 Z " fill="#000000"/><text fill="#000000" font-family="sans-serif" font-size="12" lengthAdjust="spacing" textLength="48" x="449.25" y="491.1543">Estafeta</text><line style="stroke:#A80036;stroke-width:1.5;" x1="358" x2="556" y1="503" y2="503"/><text fill="#000000" font-family="sans-serif" font-size="11" lengthAdjust="spacing" textLength="66" x="363" y="517.2104">-Integer NIF</text><text fill="#000000" font-family="sans-serif" font-size="11" lengthAdjust="spacing" textLength="74" x="363" y="530.0151">-String nome</text><text fill="#000000" font-family="sans-serif" font-size="11" lengthAdjust="spacing" textLength="73" x="363" y="542.8198">-String email</text><text fill="#000000" font-family="sans-serif" font-size="11" lengthAdjust="spacing" textLength="188" x="363" y="555.6245">-Integer numeroSegurancaSocial</text><text fill="#000000" font-family="sans-serif" font-size="11" lengthAdjust="spacing" textLength="94" x="363" y="568.4292">-String password</text><text fill="#000000" font-family="sans-serif" font-size="11" lengthAdjust="spacing" textLength="124" x="363" y="581.2339">-Double pesoEstafeta</text><line style="stroke:#A80036;stroke-width:1.5;" x1="358" x2="556" y1="587.8281" y2="587.8281"/><!--MD5=[f4402668d5d5bb8485350c0fdb60ac8e]
class Scooter--><rect codeLine="63" fill="#FEFECE" filter="url(#f1xfo3edb20czy)" height="112.0234" id="Scooter" style="stroke:#A80036;stroke-width:1.5;" width="179" x="239.5" y="862"/><ellipse cx="300.75" cy="878" fill="#ADD1B2" rx="11" ry="11" style="stroke:#A80036;stroke-width:1.0;"/><path d="M303.0938,873.6719 C302.1563,873.2344 301.5625,873.0938 300.6875,873.0938 C298.0625,873.0938 296.0625,875.1719 296.0625,877.8906 L296.0625,879.0156 C296.0625,881.5938 298.1719,883.4844 301.0625,883.4844 C302.2813,883.4844 303.4375,883.1875 304.1875,882.6406 C304.7656,882.2344 305.0938,881.7813 305.0938,881.3906 C305.0938,880.9375 304.7031,880.5469 304.2344,880.5469 C304.0156,880.5469 303.8125,880.625 303.625,880.8125 C303.1719,881.2969 303.1719,881.2969 302.9844,881.3906 C302.5625,881.6563 301.875,881.7813 301.1094,881.7813 C299.0625,881.7813 297.7656,880.6875 297.7656,878.9844 L297.7656,877.8906 C297.7656,876.1094 299.0156,874.7969 300.75,874.7969 C301.3281,874.7969 301.9375,874.9531 302.4063,875.2031 C302.8906,875.4844 303.0625,875.7031 303.1563,876.1094 C303.2188,876.5156 303.25,876.6406 303.3906,876.7656 C303.5313,876.9063 303.7656,877.0156 303.9844,877.0156 C304.25,877.0156 304.5156,876.875 304.6875,876.6563 C304.7969,876.5 304.8281,876.3125 304.8281,875.8906 L304.8281,874.4688 C304.8281,874.0313 304.8125,873.9063 304.7188,873.75 C304.5625,873.4844 304.2813,873.3438 303.9844,873.3438 C303.6875,873.3438 303.4844,873.4375 303.2656,873.75 L303.0938,873.6719 Z " fill="#000000"/><text fill="#000000" font-family="sans-serif" font-size="12" lengthAdjust="spacing" textLength="48" x="321.25" y="882.1543">Scooter</text><line style="stroke:#A80036;stroke-width:1.5;" x1="240.5" x2="417.5" y1="894" y2="894"/><text fill="#000000" font-family="sans-serif" font-size="11" lengthAdjust="spacing" textLength="103" x="245.5" y="908.2104">-Integer idScooter</text><text fill="#000000" font-family="sans-serif" font-size="11" lengthAdjust="spacing" textLength="167" x="245.5" y="921.0151">-Double percentagemBateria</text><text fill="#000000" font-family="sans-serif" font-size="11" lengthAdjust="spacing" textLength="121" x="245.5" y="933.8198">-Double pesoMaximo</text><text fill="#000000" font-family="sans-serif" font-size="11" lengthAdjust="spacing" textLength="121" x="245.5" y="946.6245">-Double pesoScooter</text><text fill="#000000" font-family="sans-serif" font-size="11" lengthAdjust="spacing" textLength="98" x="245.5" y="959.4292">-Double potencia</text><line style="stroke:#A80036;stroke-width:1.5;" x1="240.5" x2="417.5" y1="966.0234" y2="966.0234"/><!--MD5=[36c1942e8942a3e4f47e6de3733e3d18]
class Endereco--><rect codeLine="71" fill="#FEFECE" filter="url(#f1xfo3edb20czy)" height="112.0234" id="Endereco" style="stroke:#A80036;stroke-width:1.5;" width="316" x="524" y="673"/><ellipse cx="648.75" cy="689" fill="#ADD1B2" rx="11" ry="11" style="stroke:#A80036;stroke-width:1.0;"/><path d="M651.0938,684.6719 C650.1563,684.2344 649.5625,684.0938 648.6875,684.0938 C646.0625,684.0938 644.0625,686.1719 644.0625,688.8906 L644.0625,690.0156 C644.0625,692.5938 646.1719,694.4844 649.0625,694.4844 C650.2813,694.4844 651.4375,694.1875 652.1875,693.6406 C652.7656,693.2344 653.0938,692.7813 653.0938,692.3906 C653.0938,691.9375 652.7031,691.5469 652.2344,691.5469 C652.0156,691.5469 651.8125,691.625 651.625,691.8125 C651.1719,692.2969 651.1719,692.2969 650.9844,692.3906 C650.5625,692.6563 649.875,692.7813 649.1094,692.7813 C647.0625,692.7813 645.7656,691.6875 645.7656,689.9844 L645.7656,688.8906 C645.7656,687.1094 647.0156,685.7969 648.75,685.7969 C649.3281,685.7969 649.9375,685.9531 650.4063,686.2031 C650.8906,686.4844 651.0625,686.7031 651.1563,687.1094 C651.2188,687.5156 651.25,687.6406 651.3906,687.7656 C651.5313,687.9063 651.7656,688.0156 651.9844,688.0156 C652.25,688.0156 652.5156,687.875 652.6875,687.6563 C652.7969,687.5 652.8281,687.3125 652.8281,686.8906 L652.8281,685.4688 C652.8281,685.0313 652.8125,684.9063 652.7188,684.75 C652.5625,684.4844 652.2813,684.3438 651.9844,684.3438 C651.6875,684.3438 651.4844,684.4375 651.2656,684.75 L651.0938,684.6719 Z " fill="#000000"/><text fill="#000000" font-family="sans-serif" font-size="12" lengthAdjust="spacing" textLength="58" x="669.25" y="693.1543">Endereco</text><line style="stroke:#A80036;stroke-width:1.5;" x1="525" x2="839" y1="705" y2="705"/><text fill="#000000" font-family="sans-serif" font-size="11" lengthAdjust="spacing" textLength="84" x="530" y="719.2104">-String morada</text><text fill="#000000" font-family="sans-serif" font-size="11" lengthAdjust="spacing" textLength="92" x="530" y="732.0151">-Double latitude</text><text fill="#000000" font-family="sans-serif" font-size="11" lengthAdjust="spacing" textLength="102" x="530" y="744.8198">-Double longitude</text><text fill="#000000" font-family="sans-serif" font-size="11" lengthAdjust="spacing" textLength="92" x="530" y="757.6245">-Double altitude</text><line style="stroke:#A80036;stroke-width:1.5;" x1="525" x2="839" y1="764.2188" y2="764.2188"/><text fill="#000000" font-family="sans-serif" font-size="11" lengthAdjust="spacing" textLength="304" x="530" y="778.4292">+addListaEndereco(enderecoCliente, listaEnderecos)</text><!--MD5=[1a083dbe42a284ae0ea7f6f701783206]
class Parque--><rect codeLine="79" fill="#FEFECE" filter="url(#f1xfo3edb20czy)" height="60.8047" id="Parque" style="stroke:#A80036;stroke-width:1.5;" width="149" x="597.5" y="503"/><ellipse cx="647.25" cy="519" fill="#ADD1B2" rx="11" ry="11" style="stroke:#A80036;stroke-width:1.0;"/><path d="M649.5938,514.6719 C648.6563,514.2344 648.0625,514.0938 647.1875,514.0938 C644.5625,514.0938 642.5625,516.1719 642.5625,518.8906 L642.5625,520.0156 C642.5625,522.5938 644.6719,524.4844 647.5625,524.4844 C648.7813,524.4844 649.9375,524.1875 650.6875,523.6406 C651.2656,523.2344 651.5938,522.7813 651.5938,522.3906 C651.5938,521.9375 651.2031,521.5469 650.7344,521.5469 C650.5156,521.5469 650.3125,521.625 650.125,521.8125 C649.6719,522.2969 649.6719,522.2969 649.4844,522.3906 C649.0625,522.6563 648.375,522.7813 647.6094,522.7813 C645.5625,522.7813 644.2656,521.6875 644.2656,519.9844 L644.2656,518.8906 C644.2656,517.1094 645.5156,515.7969 647.25,515.7969 C647.8281,515.7969 648.4375,515.9531 648.9063,516.2031 C649.3906,516.4844 649.5625,516.7031 649.6563,517.1094 C649.7188,517.5156 649.75,517.6406 649.8906,517.7656 C650.0313,517.9063 650.2656,518.0156 650.4844,518.0156 C650.75,518.0156 651.0156,517.875 651.1875,517.6563 C651.2969,517.5 651.3281,517.3125 651.3281,516.8906 L651.3281,515.4688 C651.3281,515.0313 651.3125,514.9063 651.2188,514.75 C651.0625,514.4844 650.7813,514.3438 650.4844,514.3438 C650.1875,514.3438 649.9844,514.4375 649.7656,514.75 L649.5938,514.6719 Z " fill="#000000"/><text fill="#000000" font-family="sans-serif" font-size="12" lengthAdjust="spacing" textLength="41" x="667.75" y="523.1543">Parque</text><line style="stroke:#A80036;stroke-width:1.5;" x1="598.5" x2="745.5" y1="535" y2="535"/><text fill="#000000" font-family="sans-serif" font-size="11" lengthAdjust="spacing" textLength="137" x="603.5" y="549.2104">-Integer numeroMaximo</text><line style="stroke:#A80036;stroke-width:1.5;" x1="598.5" x2="745.5" y1="555.8047" y2="555.8047"/><!--MD5=[20a748d5ee336a9a91751b0a3d4f0beb]
class Cliente--><rect codeLine="83" fill="#FEFECE" filter="url(#f1xfo3edb20czy)" height="112.0234" id="Cliente" style="stroke:#A80036;stroke-width:1.5;" width="200" x="808" y="477.5"/><ellipse cx="883.25" cy="493.5" fill="#ADD1B2" rx="11" ry="11" style="stroke:#A80036;stroke-width:1.0;"/><path d="M885.5938,489.1719 C884.6563,488.7344 884.0625,488.5938 883.1875,488.5938 C880.5625,488.5938 878.5625,490.6719 878.5625,493.3906 L878.5625,494.5156 C878.5625,497.0938 880.6719,498.9844 883.5625,498.9844 C884.7813,498.9844 885.9375,498.6875 886.6875,498.1406 C887.2656,497.7344 887.5938,497.2813 887.5938,496.8906 C887.5938,496.4375 887.2031,496.0469 886.7344,496.0469 C886.5156,496.0469 886.3125,496.125 886.125,496.3125 C885.6719,496.7969 885.6719,496.7969 885.4844,496.8906 C885.0625,497.1563 884.375,497.2813 883.6094,497.2813 C881.5625,497.2813 880.2656,496.1875 880.2656,494.4844 L880.2656,493.3906 C880.2656,491.6094 881.5156,490.2969 883.25,490.2969 C883.8281,490.2969 884.4375,490.4531 884.9063,490.7031 C885.3906,490.9844 885.5625,491.2031 885.6563,491.6094 C885.7188,492.0156 885.75,492.1406 885.8906,492.2656 C886.0313,492.4063 886.2656,492.5156 886.4844,492.5156 C886.75,492.5156 887.0156,492.375 887.1875,492.1563 C887.2969,492 887.3281,491.8125 887.3281,491.3906 L887.3281,489.9688 C887.3281,489.5313 887.3125,489.4063 887.2188,489.25 C887.0625,488.9844 886.7813,488.8438 886.4844,488.8438 C886.1875,488.8438 885.9844,488.9375 885.7656,489.25 L885.5938,489.1719 Z " fill="#000000"/><text fill="#000000" font-family="sans-serif" font-size="12" lengthAdjust="spacing" textLength="41" x="903.75" y="497.6543">Cliente</text><line style="stroke:#A80036;stroke-width:1.5;" x1="809" x2="1007" y1="509.5" y2="509.5"/><text fill="#000000" font-family="sans-serif" font-size="11" lengthAdjust="spacing" textLength="66" x="814" y="523.7104">-Integer NIF</text><text fill="#000000" font-family="sans-serif" font-size="11" lengthAdjust="spacing" textLength="74" x="814" y="536.5151">-String nome</text><text fill="#000000" font-family="sans-serif" font-size="11" lengthAdjust="spacing" textLength="73" x="814" y="549.3198">-String email</text><text fill="#000000" font-family="sans-serif" font-size="11" lengthAdjust="spacing" textLength="188" x="814" y="562.1245">-Integer numeroSegurancaSocial</text><text fill="#000000" font-family="sans-serif" font-size="11" lengthAdjust="spacing" textLength="94" x="814" y="574.9292">-String password</text><line style="stroke:#A80036;stroke-width:1.5;" x1="809" x2="1007" y1="581.5234" y2="581.5234"/><!--MD5=[3b6b8abd81b442aa81592fe2bb0f51b5]
class ClienteDB--><rect codeLine="91" fill="#FEFECE" filter="url(#f1xfo3edb20czy)" height="73.6094" id="ClienteDB" style="stroke:#A80036;stroke-width:1.5;" width="181" x="796.5" y="251"/><ellipse cx="853.75" cy="267" fill="#ADD1B2" rx="11" ry="11" style="stroke:#A80036;stroke-width:1.0;"/><path d="M856.0938,262.6719 C855.1563,262.2344 854.5625,262.0938 853.6875,262.0938 C851.0625,262.0938 849.0625,264.1719 849.0625,266.8906 L849.0625,268.0156 C849.0625,270.5938 851.1719,272.4844 854.0625,272.4844 C855.2813,272.4844 856.4375,272.1875 857.1875,271.6406 C857.7656,271.2344 858.0938,270.7813 858.0938,270.3906 C858.0938,269.9375 857.7031,269.5469 857.2344,269.5469 C857.0156,269.5469 856.8125,269.625 856.625,269.8125 C856.1719,270.2969 856.1719,270.2969 855.9844,270.3906 C855.5625,270.6563 854.875,270.7813 854.1094,270.7813 C852.0625,270.7813 850.7656,269.6875 850.7656,267.9844 L850.7656,266.8906 C850.7656,265.1094 852.0156,263.7969 853.75,263.7969 C854.3281,263.7969 854.9375,263.9531 855.4063,264.2031 C855.8906,264.4844 856.0625,264.7031 856.1563,265.1094 C856.2188,265.5156 856.25,265.6406 856.3906,265.7656 C856.5313,265.9063 856.7656,266.0156 856.9844,266.0156 C857.25,266.0156 857.5156,265.875 857.6875,265.6563 C857.7969,265.5 857.8281,265.3125 857.8281,264.8906 L857.8281,263.4688 C857.8281,263.0313 857.8125,262.9063 857.7188,262.75 C857.5625,262.4844 857.2813,262.3438 856.9844,262.3438 C856.6875,262.3438 856.4844,262.4375 856.2656,262.75 L856.0938,262.6719 Z " fill="#000000"/><text fill="#000000" font-family="sans-serif" font-size="12" lengthAdjust="spacing" textLength="58" x="874.25" y="271.1543">ClienteDB</text><line style="stroke:#A80036;stroke-width:1.5;" x1="797.5" x2="976.5" y1="283" y2="283"/><line style="stroke:#A80036;stroke-width:1.5;" x1="797.5" x2="976.5" y1="291" y2="291"/><text fill="#000000" font-family="sans-serif" font-size="11" lengthAdjust="spacing" textLength="169" x="802.5" y="305.2104">+getClienteNif(idEncomenda)</text><text fill="#000000" font-family="sans-serif" font-size="11" lengthAdjust="spacing" textLength="159" x="802.5" y="318.0151">+getEnderecoNif(clienteNif)</text><!--MD5=[a13ca1da61a66d544daddca6fa0a1a30]
class Cartao--><rect codeLine="96" fill="#FEFECE" filter="url(#f1xfo3edb20czy)" height="86.4141" id="Cartao" style="stroke:#A80036;stroke-width:1.5;" width="108" x="1050" y="686"/><ellipse cx="1081.65" cy="702" fill="#ADD1B2" rx="11" ry="11" style="stroke:#A80036;stroke-width:1.0;"/><path d="M1083.9938,697.6719 C1083.0563,697.2344 1082.4625,697.0938 1081.5875,697.0938 C1078.9625,697.0938 1076.9625,699.1719 1076.9625,701.8906 L1076.9625,703.0156 C1076.9625,705.5938 1079.0719,707.4844 1081.9625,707.4844 C1083.1813,707.4844 1084.3375,707.1875 1085.0875,706.6406 C1085.6656,706.2344 1085.9938,705.7813 1085.9938,705.3906 C1085.9938,704.9375 1085.6031,704.5469 1085.1344,704.5469 C1084.9156,704.5469 1084.7125,704.625 1084.525,704.8125 C1084.0719,705.2969 1084.0719,705.2969 1083.8844,705.3906 C1083.4625,705.6563 1082.775,705.7813 1082.0094,705.7813 C1079.9625,705.7813 1078.6656,704.6875 1078.6656,702.9844 L1078.6656,701.8906 C1078.6656,700.1094 1079.9156,698.7969 1081.65,698.7969 C1082.2281,698.7969 1082.8375,698.9531 1083.3063,699.2031 C1083.7906,699.4844 1083.9625,699.7031 1084.0563,700.1094 C1084.1188,700.5156 1084.15,700.6406 1084.2906,700.7656 C1084.4313,700.9063 1084.6656,701.0156 1084.8844,701.0156 C1085.15,701.0156 1085.4156,700.875 1085.5875,700.6563 C1085.6969,700.5 1085.7281,700.3125 1085.7281,699.8906 L1085.7281,698.4688 C1085.7281,698.0313 1085.7125,697.9063 1085.6188,697.75 C1085.4625,697.4844 1085.1813,697.3438 1084.8844,697.3438 C1084.5875,697.3438 1084.3844,697.4375 1084.1656,697.75 L1083.9938,697.6719 Z " fill="#000000"/><text fill="#000000" font-family="sans-serif" font-size="12" lengthAdjust="spacing" textLength="39" x="1099.35" y="706.1543">Cartao</text><line style="stroke:#A80036;stroke-width:1.5;" x1="1051" x2="1157" y1="718" y2="718"/><text fill="#000000" font-family="sans-serif" font-size="11" lengthAdjust="spacing" textLength="85" x="1056" y="732.2104">-numeroCartao</text><text fill="#000000" font-family="sans-serif" font-size="11" lengthAdjust="spacing" textLength="96" x="1056" y="745.0151">-dataDeValidade</text><text fill="#000000" font-family="sans-serif" font-size="11" lengthAdjust="spacing" textLength="28" x="1056" y="757.8198">-CCV</text><line style="stroke:#A80036;stroke-width:1.5;" x1="1051" x2="1157" y1="764.4141" y2="764.4141"/><!--MD5=[533e824b6b94274ee39bf5a43d7cce2a]
class EstadoEncomenda--><rect codeLine="102" fill="#FEFECE" filter="url(#f1xfo3edb20czy)" height="73.6094" id="EstadoEncomenda" style="stroke:#A80036;stroke-width:1.5;" width="145" x="763.5" y="1063.5"/><ellipse cx="779.4" cy="1079.5" fill="#ADD1B2" rx="11" ry="11" style="stroke:#A80036;stroke-width:1.0;"/><path d="M781.7438,1075.1719 C780.8063,1074.7344 780.2125,1074.5938 779.3375,1074.5938 C776.7125,1074.5938 774.7125,1076.6719 774.7125,1079.3906 L774.7125,1080.5156 C774.7125,1083.0938 776.8219,1084.9844 779.7125,1084.9844 C780.9313,1084.9844 782.0875,1084.6875 782.8375,1084.1406 C783.4156,1083.7344 783.7438,1083.2813 783.7438,1082.8906 C783.7438,1082.4375 783.3531,1082.0469 782.8844,1082.0469 C782.6656,1082.0469 782.4625,1082.125 782.275,1082.3125 C781.8219,1082.7969 781.8219,1082.7969 781.6344,1082.8906 C781.2125,1083.1563 780.525,1083.2813 779.7594,1083.2813 C777.7125,1083.2813 776.4156,1082.1875 776.4156,1080.4844 L776.4156,1079.3906 C776.4156,1077.6094 777.6656,1076.2969 779.4,1076.2969 C779.9781,1076.2969 780.5875,1076.4531 781.0563,1076.7031 C781.5406,1076.9844 781.7125,1077.2031 781.8063,1077.6094 C781.8688,1078.0156 781.9,1078.1406 782.0406,1078.2656 C782.1813,1078.4063 782.4156,1078.5156 782.6344,1078.5156 C782.9,1078.5156 783.1656,1078.375 783.3375,1078.1563 C783.4469,1078 783.4781,1077.8125 783.4781,1077.3906 L783.4781,1075.9688 C783.4781,1075.5313 783.4625,1075.4063 783.3688,1075.25 C783.2125,1074.9844 782.9313,1074.8438 782.6344,1074.8438 C782.3375,1074.8438 782.1344,1074.9375 781.9156,1075.25 L781.7438,1075.1719 Z " fill="#000000"/><text fill="#000000" font-family="sans-serif" font-size="12" lengthAdjust="spacing" textLength="111" x="793.6" y="1083.6543">EstadoEncomenda</text><line style="stroke:#A80036;stroke-width:1.5;" x1="764.5" x2="907.5" y1="1095.5" y2="1095.5"/><text fill="#000000" font-family="sans-serif" font-size="11" lengthAdjust="spacing" textLength="133" x="769.5" y="1109.7104">-id_estado_encomenda</text><text fill="#000000" font-family="sans-serif" font-size="11" lengthAdjust="spacing" textLength="69" x="769.5" y="1122.5151">-designacao</text><line style="stroke:#A80036;stroke-width:1.5;" x1="764.5" x2="907.5" y1="1129.1094" y2="1129.1094"/><!--MD5=[d4dacc50d49878ba7c621dfc80a2e1ce]
class Produto--><rect codeLine="107" fill="#FEFECE" filter="url(#f1xfo3edb20czy)" height="99.2188" id="Produto" style="stroke:#A80036;stroke-width:1.5;" width="81" x="943.5" y="1051"/><ellipse cx="959.85" cy="1067" fill="#ADD1B2" rx="11" ry="11" style="stroke:#A80036;stroke-width:1.0;"/><path d="M962.1938,1062.6719 C961.2563,1062.2344 960.6625,1062.0938 959.7875,1062.0938 C957.1625,1062.0938 955.1625,1064.1719 955.1625,1066.8906 L955.1625,1068.0156 C955.1625,1070.5938 957.2719,1072.4844 960.1625,1072.4844 C961.3813,1072.4844 962.5375,1072.1875 963.2875,1071.6406 C963.8656,1071.2344 964.1938,1070.7813 964.1938,1070.3906 C964.1938,1069.9375 963.8031,1069.5469 963.3344,1069.5469 C963.1156,1069.5469 962.9125,1069.625 962.725,1069.8125 C962.2719,1070.2969 962.2719,1070.2969 962.0844,1070.3906 C961.6625,1070.6563 960.975,1070.7813 960.2094,1070.7813 C958.1625,1070.7813 956.8656,1069.6875 956.8656,1067.9844 L956.8656,1066.8906 C956.8656,1065.1094 958.1156,1063.7969 959.85,1063.7969 C960.4281,1063.7969 961.0375,1063.9531 961.5063,1064.2031 C961.9906,1064.4844 962.1625,1064.7031 962.2563,1065.1094 C962.3188,1065.5156 962.35,1065.6406 962.4906,1065.7656 C962.6313,1065.9063 962.8656,1066.0156 963.0844,1066.0156 C963.35,1066.0156 963.6156,1065.875 963.7875,1065.6563 C963.8969,1065.5 963.9281,1065.3125 963.9281,1064.8906 L963.9281,1063.4688 C963.9281,1063.0313 963.9125,1062.9063 963.8188,1062.75 C963.6625,1062.4844 963.3813,1062.3438 963.0844,1062.3438 C962.7875,1062.3438 962.5844,1062.4375 962.3656,1062.75 L962.1938,1062.6719 Z " fill="#000000"/><text fill="#000000" font-family="sans-serif" font-size="12" lengthAdjust="spacing" textLength="46" x="974.15" y="1071.1543">Produto</text><line style="stroke:#A80036;stroke-width:1.5;" x1="944.5" x2="1023.5" y1="1083" y2="1083"/><text fill="#000000" font-family="sans-serif" font-size="11" lengthAdjust="spacing" textLength="56" x="949.5" y="1097.2104">-idProduto</text><text fill="#000000" font-family="sans-serif" font-size="11" lengthAdjust="spacing" textLength="69" x="949.5" y="1110.0151">-designacao</text><text fill="#000000" font-family="sans-serif" font-size="11" lengthAdjust="spacing" textLength="32" x="949.5" y="1122.8198">-peso</text><text fill="#000000" font-family="sans-serif" font-size="11" lengthAdjust="spacing" textLength="65" x="949.5" y="1135.6245">-precoBase</text><line style="stroke:#A80036;stroke-width:1.5;" x1="944.5" x2="1023.5" y1="1142.2188" y2="1142.2188"/><!--MD5=[6af3a5e7d8ae03b4afed09b9952bb816]
link IniciarEntregaUI to IniciarEntregaController--><path codeLine="114" d="M499,55.14 C499,70.83 499,92 499,110.55 " fill="none" id="IniciarEntregaUI-to-IniciarEntregaController" style="stroke:#A80036;stroke-width:1.0;stroke-dasharray:7.0,7.0;"/><polygon fill="#A80036" points="499,115.71,503,106.71,499,110.71,495,106.71,499,115.71" style="stroke:#A80036;stroke-width:1.0;"/><!--MD5=[77823d11e5c345d9fdec5f272ba43763]
link IniciarEntregaController to EstafetaDB--><path codeLine="116" d="M499,190.343 C499,209.606 499,233.151 499,252.181 " fill="none" id="IniciarEntregaController-to-EstafetaDB" style="stroke:#A80036;stroke-width:1.0;stroke-dasharray:7.0,7.0;"/><polygon fill="#A80036" points="499,257.421,503,248.421,499,252.421,495,248.421,499,257.421" style="stroke:#A80036;stroke-width:1.0;"/><!--MD5=[3ed317d31344e1cfa439ac8411eeaf6e]
link IniciarEntregaController to ParqueDB--><path codeLine="117" d="M546.273,190.343 C572.293,210.347 604.321,234.969 629.538,254.356 " fill="none" id="IniciarEntregaController-to-ParqueDB" style="stroke:#A80036;stroke-width:1.0;stroke-dasharray:7.0,7.0;"/><polygon fill="#A80036" points="633.525,257.421,628.8271,248.7648,629.5608,254.3739,623.9517,255.1076,633.525,257.421" style="stroke:#A80036;stroke-width:1.0;"/><!--MD5=[62bac61856972c18b6e13112afacf9a1]
link IniciarEntregaController to ClienteDB--><path codeLine="118" d="M585.11,183.517 C646.252,204.476 728.359,232.621 791.51,254.268 " fill="none" id="IniciarEntregaController-to-ClienteDB" style="stroke:#A80036;stroke-width:1.0;stroke-dasharray:7.0,7.0;"/><polygon fill="#A80036" points="796.406,255.946,789.1894,249.2437,791.6762,254.3246,786.5952,256.8114,796.406,255.946" style="stroke:#A80036;stroke-width:1.0;"/><!--MD5=[22c56d9dbc09ea1c216c39fea23d44fd]
link IniciarEntregaController to EntregaDB--><path codeLine="119" d="M459.066,190.403 C439.54,208.416 415.817,230.618 395,251 C362.212,283.103 357.534,294.783 323,325 C312.668,334.04 301.277,343.165 290.045,351.74 " fill="none" id="IniciarEntregaController-to-EntregaDB" style="stroke:#A80036;stroke-width:1.0;stroke-dasharray:7.0,7.0;"/><polygon fill="#A80036" points="285.916,354.873,295.5042,352.622,289.9,351.8518,290.6702,346.2476,285.916,354.873" style="stroke:#A80036;stroke-width:1.0;"/><!--MD5=[62ebfbd9579120f83caae090d1b7a216]
link IniciarEntregaController to EncomendaDB--><path codeLine="120" d="M585.436,158.109 C687.654,165.794 860.842,187.834 995,251 C1049.95,276.872 1102.38,323.474 1135.93,357.079 " fill="none" id="IniciarEntregaController-to-EncomendaDB" style="stroke:#A80036;stroke-width:1.0;stroke-dasharray:7.0,7.0;"/><polygon fill="#A80036" points="1139.52,360.699,1136.0328,351.4882,1136.0031,357.145,1130.3463,357.1153,1139.52,360.699" style="stroke:#A80036;stroke-width:1.0;"/><!--MD5=[b6f4cc89b72257035a0432594cf5e691]
link IniciarEntregaController to AplicacaoPOT--><path codeLine="121" d="M412.888,174.649 C342.455,192.385 240.692,219.954 154,251 C150.002,252.432 145.924,253.968 141.828,255.569 " fill="none" id="IniciarEntregaController-to-AplicacaoPOT" style="stroke:#A80036;stroke-width:1.0;stroke-dasharray:7.0,7.0;"/><polygon fill="#A80036" points="137.016,257.478,146.8567,257.8786,141.6639,255.6349,143.9077,250.442,137.016,257.478" style="stroke:#A80036;stroke-width:1.0;"/><!--MD5=[2969567573402783d990b08175b6013d]
link IniciarEntregaController to SessaoUtilizador--><path codeLine="122" d="M412.756,183.749 C386.542,193.987 358.056,206.35 333,220 C314.984,229.815 296.344,242.495 280.461,254.178 " fill="none" id="IniciarEntregaController-to-SessaoUtilizador" style="stroke:#A80036;stroke-width:1.0;stroke-dasharray:7.0,7.0;"/><polygon fill="#A80036" points="276.057,257.444,285.6689,255.2967,280.0734,254.466,280.9041,248.8705,276.057,257.444" style="stroke:#A80036;stroke-width:1.0;"/><!--MD5=[4c7211caded616e3e77a70a7b669ae10]
link EntregaDB to Entrega--><path codeLine="124" d="M224.213,441.002 C221.684,500.431 217.061,609.07 214.285,674.293 " fill="none" id="EntregaDB-to-Entrega" style="stroke:#A80036;stroke-width:1.0;"/><polygon fill="#A80036" points="214.072,679.3,218.4516,670.4785,214.2849,674.3045,210.4589,670.1378,214.072,679.3" style="stroke:#A80036;stroke-width:1.0;"/><text fill="#000000" font-family="sans-serif" font-size="13" lengthAdjust="spacing" textLength="97" x="224" y="538.0669">tem registadas</text><text fill="#000000" font-family="sans-serif" font-size="13" lengthAdjust="spacing" textLength="8" x="215.2545" y="461.41">1</text><text fill="#000000" font-family="sans-serif" font-size="13" lengthAdjust="spacing" textLength="7" x="206.8712" y="668.3171">*</text><!--MD5=[a3e63c72779e49a48819b249af53bae4]
link EstafetaDB to Estafeta--><path codeLine="125" d="M493.85,318.858 C487.594,355.127 476.852,417.407 468.574,465.395 " fill="none" id="EstafetaDB-to-Estafeta" style="stroke:#A80036;stroke-width:1.0;"/><polygon fill="#A80036" points="467.68,470.582,473.1518,462.393,468.53,465.6548,465.2682,461.033,467.68,470.582" style="stroke:#A80036;stroke-width:1.0;"/><text fill="#000000" font-family="sans-serif" font-size="13" lengthAdjust="spacing" textLength="97" x="488" y="402.5669">tem registadas</text><text fill="#000000" font-family="sans-serif" font-size="13" lengthAdjust="spacing" textLength="8" x="484.1058" y="338.2682">1</text><text fill="#000000" font-family="sans-serif" font-size="13" lengthAdjust="spacing" textLength="7" x="461.4653" y="459.9636">*</text><!--MD5=[7177515c401312a3f4890a50ab42ecc9]
link EncomendaDB to Encomenda--><path codeLine="126" d="M1184.92,435.099 C1206.52,507.661 1243.87,673.747 1175,785 C1135.59,848.654 1055.24,882.605 993.296,900.048 " fill="none" id="EncomendaDB-to-Encomenda" style="stroke:#A80036;stroke-width:1.0;"/><polygon fill="#A80036" points="988.116,901.48,997.8566,902.9366,992.9351,900.1474,995.7244,895.226,988.116,901.48" style="stroke:#A80036;stroke-width:1.0;"/><text fill="#000000" font-family="sans-serif" font-size="13" lengthAdjust="spacing" textLength="97" x="1216" y="639.0669">tem registadas</text><text fill="#000000" font-family="sans-serif" font-size="13" lengthAdjust="spacing" textLength="8" x="1178.2318" y="454.596">1</text><text fill="#000000" font-family="sans-serif" font-size="13" lengthAdjust="spacing" textLength="7" x="995.895" y="896.2627">*</text><!--MD5=[e5dbbc54f46538fc7b7077d28b1f914b]
link ParqueDB to Parque--><path codeLine="127" d="M672,318.858 C672,364.072 672,449.708 672,497.688 " fill="none" id="ParqueDB-to-Parque" style="stroke:#A80036;stroke-width:1.0;"/><polygon fill="#A80036" points="672,502.779,676,493.779,672,497.779,668,493.779,672,502.779" style="stroke:#A80036;stroke-width:1.0;"/><text fill="#000000" font-family="sans-serif" font-size="13" lengthAdjust="spacing" textLength="97" x="673" y="402.5669">tem registadas</text><text fill="#000000" font-family="sans-serif" font-size="13" lengthAdjust="spacing" textLength="8" x="663.2375" y="338.2682">1</text><text fill="#000000" font-family="sans-serif" font-size="13" lengthAdjust="spacing" textLength="7" x="664.2781" y="491.9967">*</text><!--MD5=[1ac7a80d7d1bce9ba8d5537593646246]
link ClienteDB to Cliente--><path codeLine="128" d="M890.121,325.191 C893.455,363.844 898.795,425.761 902.772,471.878 " fill="none" id="ClienteDB-to-Cliente" style="stroke:#A80036;stroke-width:1.0;"/><polygon fill="#A80036" points="903.225,477.137,906.4362,467.8263,902.795,472.1555,898.4658,468.5143,903.225,477.137" style="stroke:#A80036;stroke-width:1.0;"/><text fill="#000000" font-family="sans-serif" font-size="13" lengthAdjust="spacing" textLength="97" x="901" y="402.5669">tem registadas</text><text fill="#000000" font-family="sans-serif" font-size="13" lengthAdjust="spacing" textLength="8" x="881.9754" y="344.7032">1</text><text fill="#000000" font-family="sans-serif" font-size="13" lengthAdjust="spacing" textLength="7" x="895.2165" y="466.4273">*</text><!--MD5=[0b9a64f88a8f68498a0520ea68e94a71]
link Cliente to Cartao--><path codeLine="130" d="M963.903,589.69 C994.906,620.298 1032.85,657.756 1061.42,685.968 " fill="none" id="Cliente-Cartao" style="stroke:#A80036;stroke-width:1.0;"/><polygon fill="#000000" points="1026.5581,638.0793,1022.1863,629.6331,1018.0567,633.8158,1026.5581,638.0793" style="stroke:#000000;stroke-width:1.0;"/><text fill="#000000" font-family="sans-serif" font-size="13" lengthAdjust="spacing" textLength="26" x="1032" y="639.0669">tem</text><text fill="#000000" font-family="sans-serif" font-size="13" lengthAdjust="spacing" textLength="8" x="962.2287" y="609.5258">1</text><text fill="#000000" font-family="sans-serif" font-size="13" lengthAdjust="spacing" textLength="8" x="1045.9963" y="674.9589">1</text><!--MD5=[1dbffbca5cb534c4a76478e59708cd36]
link Parque to Scooter--><path codeLine="131" d="M624.675,564.262 C608.601,574.354 590.528,585.682 574,596 C518.97,630.353 488.105,620.498 450,673 C407.261,731.887 446.138,768.285 411,832 C406.064,840.949 399.942,849.636 393.283,857.823 " fill="none" id="Parque-to-Scooter" style="stroke:#A80036;stroke-width:1.0;"/><polygon fill="#A80036" points="389.973,861.801,398.805,857.4426,393.1717,857.958,392.6562,852.3247,389.973,861.801" style="stroke:#A80036;stroke-width:1.0;"/><polygon fill="#000000" points="451.9048,732.9932,459.8122,727.7089,455.196,724.0702,451.9048,732.9932" style="stroke:#000000;stroke-width:1.0;"/><text fill="#000000" font-family="sans-serif" font-size="13" lengthAdjust="spacing" textLength="41" x="464" y="733.5669">possui</text><text fill="#000000" font-family="sans-serif" font-size="13" lengthAdjust="spacing" textLength="8" x="606.5704" y="583.894">1</text><text fill="#000000" font-family="sans-serif" font-size="13" lengthAdjust="spacing" textLength="7" x="389.9775" y="851.1112">*</text><!--MD5=[65c0b4ced80642714d633a5480d06ed6]
link Parque to Endereco--><path codeLine="132" d="M673.541,564.31 C674.961,591.794 677.112,633.413 678.889,667.806 " fill="none" id="Parque-to-Endereco" style="stroke:#A80036;stroke-width:1.0;"/><polygon fill="#A80036" points="679.149,672.826,682.6782,663.6312,678.8904,667.8327,674.6889,664.0449,679.149,672.826" style="stroke:#A80036;stroke-width:1.0;"/><polygon fill="#000000" points="683.258,639.5597,685.7263,630.375,679.8562,630.6784,683.258,639.5597" style="stroke:#000000;stroke-width:1.0;"/><text fill="#000000" font-family="sans-serif" font-size="13" lengthAdjust="spacing" textLength="26" x="692" y="639.0669">tem</text><text fill="#000000" font-family="sans-serif" font-size="13" lengthAdjust="spacing" textLength="8" x="665.0569" y="583.9515">1</text><text fill="#000000" font-family="sans-serif" font-size="13" lengthAdjust="spacing" textLength="8" x="670.2712" y="661.7417">1</text><!--MD5=[39609d66ce6d06d1779a14455c909f6f]
link Entrega to Encomenda--><path codeLine="133" d="M363.331,777.336 C372.341,779.975 381.282,782.548 390,785 C543.203,828.084 723.547,872.459 826.553,897.209 " fill="none" id="Entrega-to-Encomenda" style="stroke:#A80036;stroke-width:1.0;"/><polygon fill="#A80036" points="831.704,898.445,823.8861,892.455,826.8421,897.2781,822.019,900.2341,831.704,898.445" style="stroke:#A80036;stroke-width:1.0;"/><polygon fill="#000000" points="570.8405,824.819,562.8202,819.7078,561.3476,825.3982,570.8405,824.819" style="stroke:#000000;stroke-width:1.0;"/><text fill="#000000" font-family="sans-serif" font-size="13" lengthAdjust="spacing" textLength="41" x="575" y="828.0669">possui</text><text fill="#000000" font-family="sans-serif" font-size="13" lengthAdjust="spacing" textLength="8" x="370.8548" y="776.3788">1</text><text fill="#000000" font-family="sans-serif" font-size="13" lengthAdjust="spacing" textLength="7" x="816.9078" y="892.9384">*</text><!--MD5=[328dae9b2f192140d45e51cd90ecd75a]
link Estafeta to Entrega--><path codeLine="134" d="M378.807,596.257 C346.239,621.978 308.843,651.514 277.723,676.092 " fill="none" id="Estafeta-to-Entrega" style="stroke:#A80036;stroke-width:1.0;"/><polygon fill="#A80036" points="273.571,679.372,283.1133,676.9341,277.4952,676.2735,278.1558,670.6553,273.571,679.372" style="stroke:#A80036;stroke-width:1.0;"/><polygon fill="#000000" points="336.0762,637.6654,344.996,634.3656,341.3529,629.7529,336.0762,637.6654" style="stroke:#000000;stroke-width:1.0;"/><text fill="#000000" font-family="sans-serif" font-size="13" lengthAdjust="spacing" textLength="42" x="349" y="639.0669">realiza</text><text fill="#000000" font-family="sans-serif" font-size="13" lengthAdjust="spacing" textLength="8" x="361.8171" y="616.0249">1</text><text fill="#000000" font-family="sans-serif" font-size="13" lengthAdjust="spacing" textLength="7" x="274.7372" y="668.3992">*</text><!--MD5=[f440ac15537f19f21c80dc932ffd2bf8]
link Entrega to Scooter--><path codeLine="135" d="M221.495,778.522 C226.272,796.172 233.195,815.759 243,832 C248.408,840.958 254.97,849.649 262.032,857.839 " fill="none" id="Entrega-to-Scooter" style="stroke:#A80036;stroke-width:1.0;"/><polygon fill="#A80036" points="265.536,861.818,262.5907,852.4198,262.2319,858.0653,256.5864,857.7065,265.536,861.818" style="stroke:#A80036;stroke-width:1.0;"/><polygon fill="#000000" points="245.7246,819.1142,247.2239,828.5058,252.4578,825.8309,245.7246,819.1142" style="stroke:#000000;stroke-width:1.0;"/><text fill="#000000" font-family="sans-serif" font-size="13" lengthAdjust="spacing" textLength="42" x="257" y="828.0669">realiza</text><text fill="#000000" font-family="sans-serif" font-size="13" lengthAdjust="spacing" textLength="7" x="215.3755" y="798.9577">*</text><text fill="#000000" font-family="sans-serif" font-size="13" lengthAdjust="spacing" textLength="8" x="249.3138" y="851.1303">1</text><!--MD5=[43a7c1a046aa41d1c9842e3954366be4]
link Cliente to Endereco--><path codeLine="136" d="M843.54,589.69 C814.447,614.599 780.055,644.046 750.497,669.353 " fill="none" id="Cliente-to-Endereco" style="stroke:#A80036;stroke-width:1.0;"/><polygon fill="#A80036" points="746.546,672.736,755.9844,669.9223,750.3445,669.4846,750.7822,663.8447,746.546,672.736" style="stroke:#A80036;stroke-width:1.0;"/><polygon fill="#000000" points="796.2019,637.8183,804.9841,634.168,801.1613,629.7031,796.2019,637.8183" style="stroke:#000000;stroke-width:1.0;"/><text fill="#000000" font-family="sans-serif" font-size="13" lengthAdjust="spacing" textLength="26" x="809" y="639.0669">tem</text><text fill="#000000" font-family="sans-serif" font-size="13" lengthAdjust="spacing" textLength="8" x="827.1964" y="609.5258">1</text><text fill="#000000" font-family="sans-serif" font-size="13" lengthAdjust="spacing" textLength="8" x="745.925" y="662.0383">1</text><!--MD5=[beec9e5f2ed2709028dd31c1dc478e7b]
link Cliente to Encomenda--><path codeLine="137" d="M908.289,589.71 C908.659,660.626 909.301,783.28 909.684,856.613 " fill="none" id="Cliente-to-Encomenda" style="stroke:#A80036;stroke-width:1.0;"/><polygon fill="#A80036" points="909.711,861.806,913.6621,852.7844,909.6839,856.8061,905.6622,852.8278,909.711,861.806" style="stroke:#A80036;stroke-width:1.0;"/><polygon fill="#000000" points="915.0261,734.0663,917.9177,725.006,912.04,725.0367,915.0261,734.0663" style="stroke:#000000;stroke-width:1.0;"/><text fill="#000000" font-family="sans-serif" font-size="13" lengthAdjust="spacing" textLength="90" x="924" y="733.5669">realiza e paga</text><text fill="#000000" font-family="sans-serif" font-size="13" lengthAdjust="spacing" textLength="8" x="899.8367" y="609.5482">1</text><text fill="#000000" font-family="sans-serif" font-size="13" lengthAdjust="spacing" textLength="7" x="902.2492" y="851.1169">*</text><!--MD5=[055d9a59c94791d1e5417ead9eff8d01]
link Encomenda to EstadoEncomenda--><path codeLine="138" d="M887.395,974.137 C875.494,1003.166 861.239,1037.937 850.764,1063.4881 " fill="none" id="Encomenda-EstadoEncomenda" style="stroke:#A80036;stroke-width:1.0;"/><polygon fill="#000000" points="876.1034,1017.1927,882.2537,1009.9385,876.8151,1007.7088,876.1034,1017.1927" style="stroke:#000000;stroke-width:1.0;"/><text fill="#000000" font-family="sans-serif" font-size="13" lengthAdjust="spacing" textLength="26" x="887" y="1017.0669">tem</text><text fill="#000000" font-family="sans-serif" font-size="13" lengthAdjust="spacing" textLength="8" x="876.1525" y="993.9663">1</text><text fill="#000000" font-family="sans-serif" font-size="13" lengthAdjust="spacing" textLength="8" x="844.7486" y="1052.3962">1</text><!--MD5=[60097591193c89dbde5dfd99b98b5263]
link Encomenda to Produto--><path codeLine="139" d="M932.605,974.137 C942.635,998.604 954.339,1027.151 964.042,1050.8176 " fill="none" id="Encomenda-Produto" style="stroke:#A80036;stroke-width:1.0;"/><polygon fill="#000000" points="958.8967,1017.1927,958.1848,1007.7088,952.7463,1009.9385,958.8967,1017.1927" style="stroke:#000000;stroke-width:1.0;"/><text fill="#000000" font-family="sans-serif" font-size="13" lengthAdjust="spacing" textLength="26" x="966" y="1017.0669">tem</text><text fill="#000000" font-family="sans-serif" font-size="13" lengthAdjust="spacing" textLength="8" x="926.8725" y="993.9663">1</text><text fill="#000000" font-family="sans-serif" font-size="13" lengthAdjust="spacing" textLength="7" x="953.7432" y="1039.8376">*</text><!--MD5=[f97b781ba46309d0ca887fa6407211d9]
@startuml
skinparam classAttributeIconSize 0

class AplicacaoPOT{
  +static getInstance()
  +getSessaoAtual()
}

class SessaoUtilizador{
  +getEmailUtilizador()
}

class ParqueDB {
  +getEndereco()
}

class EncomendaDB {
  +getIdEncomenda(listaEncomenda)
  +getPesoEncomenda(idEncomenda)
}

class Entrega {
  -Integer idEntrega
  -String dataInicio
  -String dataFim
  +addPesoEncomenda(pesoEncomenda, pesoTotal)
}

class EntregaDB {
  +getListaEncomenda(idEntrega)
  +getScooter(idEntrega)
  +calculatePath(origem, listaEnderecos, est, pesoTotal, scooter)
}

class EstafetaDB {
  +getEstafetaByEmail(email)
}

class IniciarEntregaController {
  +getEstafeta()
  +calculatePath(idEntrega)
}

class IniciarEntregaUI {
}

class Encomenda {
  -Integer idEncomenda
  -String dataPedida
  -Double preco
  -Double pesoEncomenda
  -Double taxa
}

class Estafeta {
  -Integer NIF
  -String nome
  -String email
  -Integer numeroSegurancaSocial
  -String password
  -Double pesoEstafeta
}

class Scooter {
  -Integer idScooter
  -Double percentagemBateria
  -Double pesoMaximo
  -Double pesoScooter
  -Double potencia
}

class Endereco {
  -String morada
  -Double latitude
  -Double longitude
  -Double altitude
  +addListaEndereco(enderecoCliente, listaEnderecos)
}

class Parque {
  -Integer numeroMaximo
}

class Cliente {
  -Integer NIF
  -String nome
  -String email
  -Integer numeroSegurancaSocial
  -String password
}

class ClienteDB {
  +getClienteNif(idEncomenda)
  +getEnderecoNif(clienteNif)
}

class Cartao {
  -numeroCartao
  -dataDeValidade
  -CCV
}

class EstadoEncomenda {
  -id_estado_encomenda
  -designacao
}

class Produto {
  -idProduto
  -designacao
  -peso
  -precoBase
}

IniciarEntregaUI ..> IniciarEntregaController

IniciarEntregaController ..> EstafetaDB
IniciarEntregaController ..> ParqueDB
IniciarEntregaController ..> ClienteDB
IniciarEntregaController ..> EntregaDB
IniciarEntregaController ..> EncomendaDB
IniciarEntregaController ..> AplicacaoPOT
IniciarEntregaController ..> SessaoUtilizador

EntregaDB "1" - -> "*" Entrega : tem registadas
EstafetaDB "1" - -> "*" Estafeta : tem registadas
EncomendaDB "1" - -> "*" Encomenda : tem registadas
ParqueDB "1" - -> "*" Parque : tem registadas
ClienteDB "1" - -> "*" Cliente : tem registadas

Cliente "1" - - "1" Cartao : tem >
Parque "1" - -> "*" Scooter: possui >
Parque "1" - -> "1" Endereco: tem >
Entrega "1" - -> "*" Encomenda : possui >
Estafeta "1" - -> "*" Entrega: realiza >
Entrega "*" - -> "1" Scooter: realiza <
Cliente "1" - -> "1" Endereco: tem >
Cliente "1" - -> "*" Encomenda: realiza e paga >
Encomenda "1" - - "1" EstadoEncomenda : tem >
Encomenda "1" - - "*" Produto: tem >
@enduml

PlantUML version 1.2020.27beta7(Unknown compile time)
(GPL source distribution)
Java Runtime: Java(TM) SE Runtime Environment
JVM: Java HotSpot(TM) 64-Bit Server VM
Default Encoding: UTF-8
Language: en
Country: US
--></g></svg>