<?xml version="1.0" encoding="UTF-8" standalone="no"?><svg xmlns="http://www.w3.org/2000/svg" xmlns:xlink="http://www.w3.org/1999/xlink" contentScriptType="application/ecmascript" contentStyleType="text/css" height="504px" preserveAspectRatio="none" style="width:993px;height:504px;" version="1.1" viewBox="0 0 993 504" width="993px" zoomAndPan="magnify"><defs><filter height="300%" id="f10kuhc7n7hv8l" width="300%" x="-1" y="-1"><feGaussianBlur result="blurOut" stdDeviation="2.0"/><feColorMatrix in="blurOut" result="blurOut2" type="matrix" values="0 0 0 0 0 0 0 0 0 0 0 0 0 0 0 0 0 0 .4 0"/><feOffset dx="4.0" dy="4.0" in="blurOut2" result="blurOut3"/><feBlend in="SourceGraphic" in2="blurOut3" mode="normal"/></filter></defs><g><!--MD5=[3179f819b5ca0f9c8a1bd58e9144681b]
class Entrega--><rect codeLine="5" fill="#FEFECE" filter="url(#f10kuhc7n7hv8l)" height="78.4141" id="Entrega" style="stroke:#A80036;stroke-width:1.5;" width="78" x="317.5" y="379"/><ellipse cx="332.5" cy="395" fill="#ADD1B2" rx="11" ry="11" style="stroke:#A80036;stroke-width:1.0;"/><path d="M334.8438,390.6719 C333.9063,390.2344 333.3125,390.0938 332.4375,390.0938 C329.8125,390.0938 327.8125,392.1719 327.8125,394.8906 L327.8125,396.0156 C327.8125,398.5938 329.9219,400.4844 332.8125,400.4844 C334.0313,400.4844 335.1875,400.1875 335.9375,399.6406 C336.5156,399.2344 336.8438,398.7813 336.8438,398.3906 C336.8438,397.9375 336.4531,397.5469 335.9844,397.5469 C335.7656,397.5469 335.5625,397.625 335.375,397.8125 C334.9219,398.2969 334.9219,398.2969 334.7344,398.3906 C334.3125,398.6563 333.625,398.7813 332.8594,398.7813 C330.8125,398.7813 329.5156,397.6875 329.5156,395.9844 L329.5156,394.8906 C329.5156,393.1094 330.7656,391.7969 332.5,391.7969 C333.0781,391.7969 333.6875,391.9531 334.1563,392.2031 C334.6406,392.4844 334.8125,392.7031 334.9063,393.1094 C334.9688,393.5156 335,393.6406 335.1406,393.7656 C335.2813,393.9063 335.5156,394.0156 335.7344,394.0156 C336,394.0156 336.2656,393.875 336.4375,393.6563 C336.5469,393.5 336.5781,393.3125 336.5781,392.8906 L336.5781,391.4688 C336.5781,391.0313 336.5625,390.9063 336.4688,390.75 C336.3125,390.4844 336.0313,390.3438 335.7344,390.3438 C335.4375,390.3438 335.2344,390.4375 335.0156,390.75 L334.8438,390.6719 Z " fill="#000000"/><text fill="#000000" font-family="sans-serif" font-size="12" lengthAdjust="spacing" textLength="46" x="346.5" y="399.1543">Entrega</text><line style="stroke:#A80036;stroke-width:1.5;" x1="318.5" x2="394.5" y1="411" y2="411"/><text fill="#000000" font-family="sans-serif" font-size="11" lengthAdjust="spacing" textLength="58" x="323.5" y="425.2104">-idEntrega</text><text fill="#000000" font-family="sans-serif" font-size="11" lengthAdjust="spacing" textLength="58" x="323.5" y="438.0151">-dataInicio</text><text fill="#000000" font-family="sans-serif" font-size="11" lengthAdjust="spacing" textLength="49" x="323.5" y="450.8198">-dataFim</text><!--MD5=[c55f92ccbf0646788158d42f3399cc78]
class Encomenda--><rect codeLine="11" fill="#FEFECE" filter="url(#f10kuhc7n7hv8l)" height="104.0234" id="Encomenda" style="stroke:#A80036;stroke-width:1.5;" width="111" x="610.5" y="247"/><ellipse cx="629.55" cy="263" fill="#ADD1B2" rx="11" ry="11" style="stroke:#A80036;stroke-width:1.0;"/><path d="M631.8938,258.6719 C630.9563,258.2344 630.3625,258.0938 629.4875,258.0938 C626.8625,258.0938 624.8625,260.1719 624.8625,262.8906 L624.8625,264.0156 C624.8625,266.5938 626.9719,268.4844 629.8625,268.4844 C631.0813,268.4844 632.2375,268.1875 632.9875,267.6406 C633.5656,267.2344 633.8938,266.7813 633.8938,266.3906 C633.8938,265.9375 633.5031,265.5469 633.0344,265.5469 C632.8156,265.5469 632.6125,265.625 632.425,265.8125 C631.9719,266.2969 631.9719,266.2969 631.7844,266.3906 C631.3625,266.6563 630.675,266.7813 629.9094,266.7813 C627.8625,266.7813 626.5656,265.6875 626.5656,263.9844 L626.5656,262.8906 C626.5656,261.1094 627.8156,259.7969 629.55,259.7969 C630.1281,259.7969 630.7375,259.9531 631.2063,260.2031 C631.6906,260.4844 631.8625,260.7031 631.9563,261.1094 C632.0188,261.5156 632.05,261.6406 632.1906,261.7656 C632.3313,261.9063 632.5656,262.0156 632.7844,262.0156 C633.05,262.0156 633.3156,261.875 633.4875,261.6563 C633.5969,261.5 633.6281,261.3125 633.6281,260.8906 L633.6281,259.4688 C633.6281,259.0313 633.6125,258.9063 633.5188,258.75 C633.3625,258.4844 633.0813,258.3438 632.7844,258.3438 C632.4875,258.3438 632.2844,258.4375 632.0656,258.75 L631.8938,258.6719 Z " fill="#000000"/><text fill="#000000" font-family="sans-serif" font-size="12" lengthAdjust="spacing" textLength="70" x="644.45" y="267.1543">Encomenda</text><line style="stroke:#A80036;stroke-width:1.5;" x1="611.5" x2="720.5" y1="279" y2="279"/><text fill="#000000" font-family="sans-serif" font-size="11" lengthAdjust="spacing" textLength="81" x="616.5" y="293.2104">-idEncomenda</text><text fill="#000000" font-family="sans-serif" font-size="11" lengthAdjust="spacing" textLength="67" x="616.5" y="306.0151">-dataPedida</text><text fill="#000000" font-family="sans-serif" font-size="11" lengthAdjust="spacing" textLength="36" x="616.5" y="318.8198">-preco</text><text fill="#000000" font-family="sans-serif" font-size="11" lengthAdjust="spacing" textLength="99" x="616.5" y="331.6245">-pesoEncomenda</text><text fill="#000000" font-family="sans-serif" font-size="11" lengthAdjust="spacing" textLength="29" x="616.5" y="344.4292">-taxa</text><!--MD5=[3f1202280bfe3359d2f91fb9b6e32986]
class Estafeta--><rect codeLine="20" fill="#FEFECE" filter="url(#f10kuhc7n7hv8l)" height="116.8281" id="Estafeta" style="stroke:#A80036;stroke-width:1.5;" width="155" x="7" y="359.5"/><ellipse cx="56.25" cy="375.5" fill="#ADD1B2" rx="11" ry="11" style="stroke:#A80036;stroke-width:1.0;"/><path d="M58.5938,371.1719 C57.6563,370.7344 57.0625,370.5938 56.1875,370.5938 C53.5625,370.5938 51.5625,372.6719 51.5625,375.3906 L51.5625,376.5156 C51.5625,379.0938 53.6719,380.9844 56.5625,380.9844 C57.7813,380.9844 58.9375,380.6875 59.6875,380.1406 C60.2656,379.7344 60.5938,379.2813 60.5938,378.8906 C60.5938,378.4375 60.2031,378.0469 59.7344,378.0469 C59.5156,378.0469 59.3125,378.125 59.125,378.3125 C58.6719,378.7969 58.6719,378.7969 58.4844,378.8906 C58.0625,379.1563 57.375,379.2813 56.6094,379.2813 C54.5625,379.2813 53.2656,378.1875 53.2656,376.4844 L53.2656,375.3906 C53.2656,373.6094 54.5156,372.2969 56.25,372.2969 C56.8281,372.2969 57.4375,372.4531 57.9063,372.7031 C58.3906,372.9844 58.5625,373.2031 58.6563,373.6094 C58.7188,374.0156 58.75,374.1406 58.8906,374.2656 C59.0313,374.4063 59.2656,374.5156 59.4844,374.5156 C59.75,374.5156 60.0156,374.375 60.1875,374.1563 C60.2969,374 60.3281,373.8125 60.3281,373.3906 L60.3281,371.9688 C60.3281,371.5313 60.3125,371.4063 60.2188,371.25 C60.0625,370.9844 59.7813,370.8438 59.4844,370.8438 C59.1875,370.8438 58.9844,370.9375 58.7656,371.25 L58.5938,371.1719 Z " fill="#000000"/><text fill="#000000" font-family="sans-serif" font-size="12" lengthAdjust="spacing" textLength="48" x="76.75" y="379.6543">Estafeta</text><line style="stroke:#A80036;stroke-width:1.5;" x1="8" x2="161" y1="391.5" y2="391.5"/><text fill="#000000" font-family="sans-serif" font-size="11" lengthAdjust="spacing" textLength="21" x="13" y="405.7104">-NIF</text><text fill="#000000" font-family="sans-serif" font-size="11" lengthAdjust="spacing" textLength="37" x="13" y="418.5151">-nome</text><text fill="#000000" font-family="sans-serif" font-size="11" lengthAdjust="spacing" textLength="36" x="13" y="431.3198">-email</text><text fill="#000000" font-family="sans-serif" font-size="11" lengthAdjust="spacing" textLength="143" x="13" y="444.1245">-numeroSegurancaSocial</text><text fill="#000000" font-family="sans-serif" font-size="11" lengthAdjust="spacing" textLength="57" x="13" y="456.9292">-password</text><text fill="#000000" font-family="sans-serif" font-size="11" lengthAdjust="spacing" textLength="79" x="13" y="469.7339">-pesoEstafeta</text><!--MD5=[36c1942e8942a3e4f47e6de3733e3d18]
class Endereco--><rect codeLine="29" fill="#FEFECE" filter="url(#f10kuhc7n7hv8l)" height="91.2188" id="Endereco" style="stroke:#A80036;stroke-width:1.5;" width="90" x="621" y="120.5"/><ellipse cx="636" cy="136.5" fill="#ADD1B2" rx="11" ry="11" style="stroke:#A80036;stroke-width:1.0;"/><path d="M638.3438,132.1719 C637.4063,131.7344 636.8125,131.5938 635.9375,131.5938 C633.3125,131.5938 631.3125,133.6719 631.3125,136.3906 L631.3125,137.5156 C631.3125,140.0938 633.4219,141.9844 636.3125,141.9844 C637.5313,141.9844 638.6875,141.6875 639.4375,141.1406 C640.0156,140.7344 640.3438,140.2813 640.3438,139.8906 C640.3438,139.4375 639.9531,139.0469 639.4844,139.0469 C639.2656,139.0469 639.0625,139.125 638.875,139.3125 C638.4219,139.7969 638.4219,139.7969 638.2344,139.8906 C637.8125,140.1563 637.125,140.2813 636.3594,140.2813 C634.3125,140.2813 633.0156,139.1875 633.0156,137.4844 L633.0156,136.3906 C633.0156,134.6094 634.2656,133.2969 636,133.2969 C636.5781,133.2969 637.1875,133.4531 637.6563,133.7031 C638.1406,133.9844 638.3125,134.2031 638.4063,134.6094 C638.4688,135.0156 638.5,135.1406 638.6406,135.2656 C638.7813,135.4063 639.0156,135.5156 639.2344,135.5156 C639.5,135.5156 639.7656,135.375 639.9375,135.1563 C640.0469,135 640.0781,134.8125 640.0781,134.3906 L640.0781,132.9688 C640.0781,132.5313 640.0625,132.4063 639.9688,132.25 C639.8125,131.9844 639.5313,131.8438 639.2344,131.8438 C638.9375,131.8438 638.7344,131.9375 638.5156,132.25 L638.3438,132.1719 Z " fill="#000000"/><text fill="#000000" font-family="sans-serif" font-size="12" lengthAdjust="spacing" textLength="58" x="650" y="140.6543">Endereco</text><line style="stroke:#A80036;stroke-width:1.5;" x1="622" x2="710" y1="152.5" y2="152.5"/><text fill="#000000" font-family="sans-serif" font-size="11" lengthAdjust="spacing" textLength="47" x="627" y="166.7104">-morada</text><text fill="#000000" font-family="sans-serif" font-size="11" lengthAdjust="spacing" textLength="47" x="627" y="179.5151">-latitude</text><text fill="#000000" font-family="sans-serif" font-size="11" lengthAdjust="spacing" textLength="57" x="627" y="192.3198">-longitude</text><text fill="#000000" font-family="sans-serif" font-size="11" lengthAdjust="spacing" textLength="47" x="627" y="205.1245">-altitude</text><!--MD5=[f4402668d5d5bb8485350c0fdb60ac8e]
class Scooter--><rect codeLine="36" fill="#FEFECE" filter="url(#f10kuhc7n7hv8l)" height="104.0234" id="Scooter" style="stroke:#A80036;stroke-width:1.5;" width="134" x="599" y="386"/><ellipse cx="638.3" cy="402" fill="#ADD1B2" rx="11" ry="11" style="stroke:#A80036;stroke-width:1.0;"/><path d="M640.6438,397.6719 C639.7063,397.2344 639.1125,397.0938 638.2375,397.0938 C635.6125,397.0938 633.6125,399.1719 633.6125,401.8906 L633.6125,403.0156 C633.6125,405.5938 635.7219,407.4844 638.6125,407.4844 C639.8313,407.4844 640.9875,407.1875 641.7375,406.6406 C642.3156,406.2344 642.6438,405.7813 642.6438,405.3906 C642.6438,404.9375 642.2531,404.5469 641.7844,404.5469 C641.5656,404.5469 641.3625,404.625 641.175,404.8125 C640.7219,405.2969 640.7219,405.2969 640.5344,405.3906 C640.1125,405.6563 639.425,405.7813 638.6594,405.7813 C636.6125,405.7813 635.3156,404.6875 635.3156,402.9844 L635.3156,401.8906 C635.3156,400.1094 636.5656,398.7969 638.3,398.7969 C638.8781,398.7969 639.4875,398.9531 639.9563,399.2031 C640.4406,399.4844 640.6125,399.7031 640.7063,400.1094 C640.7688,400.5156 640.8,400.6406 640.9406,400.7656 C641.0813,400.9063 641.3156,401.0156 641.5344,401.0156 C641.8,401.0156 642.0656,400.875 642.2375,400.6563 C642.3469,400.5 642.3781,400.3125 642.3781,399.8906 L642.3781,398.4688 C642.3781,398.0313 642.3625,397.9063 642.2688,397.75 C642.1125,397.4844 641.8313,397.3438 641.5344,397.3438 C641.2375,397.3438 641.0344,397.4375 640.8156,397.75 L640.6438,397.6719 Z " fill="#000000"/><text fill="#000000" font-family="sans-serif" font-size="12" lengthAdjust="spacing" textLength="48" x="657.7" y="406.1543">Scooter</text><line style="stroke:#A80036;stroke-width:1.5;" x1="600" x2="732" y1="418" y2="418"/><text fill="#000000" font-family="sans-serif" font-size="11" lengthAdjust="spacing" textLength="58" x="605" y="432.2104">-idScooter</text><text fill="#000000" font-family="sans-serif" font-size="11" lengthAdjust="spacing" textLength="122" x="605" y="445.0151">-percentagemBateria</text><text fill="#000000" font-family="sans-serif" font-size="11" lengthAdjust="spacing" textLength="76" x="605" y="457.8198">-pesoMaximo</text><text fill="#000000" font-family="sans-serif" font-size="11" lengthAdjust="spacing" textLength="76" x="605" y="470.6245">-pesoScooter</text><text fill="#000000" font-family="sans-serif" font-size="11" lengthAdjust="spacing" textLength="53" x="605" y="483.4292">-potencia</text><!--MD5=[1a083dbe42a284ae0ea7f6f701783206]
class Parque--><rect codeLine="44" fill="#FEFECE" filter="url(#f10kuhc7n7hv8l)" height="52.8047" id="Parque" style="stroke:#A80036;stroke-width:1.5;" width="104" x="304.5" y="269.5"/><ellipse cx="333.45" cy="285.5" fill="#ADD1B2" rx="11" ry="11" style="stroke:#A80036;stroke-width:1.0;"/><path d="M335.7938,281.1719 C334.8563,280.7344 334.2625,280.5938 333.3875,280.5938 C330.7625,280.5938 328.7625,282.6719 328.7625,285.3906 L328.7625,286.5156 C328.7625,289.0938 330.8719,290.9844 333.7625,290.9844 C334.9813,290.9844 336.1375,290.6875 336.8875,290.1406 C337.4656,289.7344 337.7938,289.2813 337.7938,288.8906 C337.7938,288.4375 337.4031,288.0469 336.9344,288.0469 C336.7156,288.0469 336.5125,288.125 336.325,288.3125 C335.8719,288.7969 335.8719,288.7969 335.6844,288.8906 C335.2625,289.1563 334.575,289.2813 333.8094,289.2813 C331.7625,289.2813 330.4656,288.1875 330.4656,286.4844 L330.4656,285.3906 C330.4656,283.6094 331.7156,282.2969 333.45,282.2969 C334.0281,282.2969 334.6375,282.4531 335.1063,282.7031 C335.5906,282.9844 335.7625,283.2031 335.8563,283.6094 C335.9188,284.0156 335.95,284.1406 336.0906,284.2656 C336.2313,284.4063 336.4656,284.5156 336.6844,284.5156 C336.95,284.5156 337.2156,284.375 337.3875,284.1563 C337.4969,284 337.5281,283.8125 337.5281,283.3906 L337.5281,281.9688 C337.5281,281.5313 337.5125,281.4063 337.4188,281.25 C337.2625,280.9844 336.9813,280.8438 336.6844,280.8438 C336.3875,280.8438 336.1844,280.9375 335.9656,281.25 L335.7938,281.1719 Z " fill="#000000"/><text fill="#000000" font-family="sans-serif" font-size="12" lengthAdjust="spacing" textLength="41" x="350.55" y="289.6543">Parque</text><line style="stroke:#A80036;stroke-width:1.5;" x1="305.5" x2="407.5" y1="301.5" y2="301.5"/><text fill="#000000" font-family="sans-serif" font-size="11" lengthAdjust="spacing" textLength="92" x="310.5" y="315.7104">-numeroMaximo</text><!--MD5=[20a748d5ee336a9a91751b0a3d4f0beb]
class Cliente--><rect codeLine="48" fill="#FEFECE" filter="url(#f10kuhc7n7hv8l)" height="104.0234" id="Cliente" style="stroke:#A80036;stroke-width:1.5;" width="155" x="279" y="101"/><ellipse cx="331.75" cy="117" fill="#ADD1B2" rx="11" ry="11" style="stroke:#A80036;stroke-width:1.0;"/><path d="M334.0938,112.6719 C333.1563,112.2344 332.5625,112.0938 331.6875,112.0938 C329.0625,112.0938 327.0625,114.1719 327.0625,116.8906 L327.0625,118.0156 C327.0625,120.5938 329.1719,122.4844 332.0625,122.4844 C333.2813,122.4844 334.4375,122.1875 335.1875,121.6406 C335.7656,121.2344 336.0938,120.7813 336.0938,120.3906 C336.0938,119.9375 335.7031,119.5469 335.2344,119.5469 C335.0156,119.5469 334.8125,119.625 334.625,119.8125 C334.1719,120.2969 334.1719,120.2969 333.9844,120.3906 C333.5625,120.6563 332.875,120.7813 332.1094,120.7813 C330.0625,120.7813 328.7656,119.6875 328.7656,117.9844 L328.7656,116.8906 C328.7656,115.1094 330.0156,113.7969 331.75,113.7969 C332.3281,113.7969 332.9375,113.9531 333.4063,114.2031 C333.8906,114.4844 334.0625,114.7031 334.1563,115.1094 C334.2188,115.5156 334.25,115.6406 334.3906,115.7656 C334.5313,115.9063 334.7656,116.0156 334.9844,116.0156 C335.25,116.0156 335.5156,115.875 335.6875,115.6563 C335.7969,115.5 335.8281,115.3125 335.8281,114.8906 L335.8281,113.4688 C335.8281,113.0313 335.8125,112.9063 335.7188,112.75 C335.5625,112.4844 335.2813,112.3438 334.9844,112.3438 C334.6875,112.3438 334.4844,112.4375 334.2656,112.75 L334.0938,112.6719 Z " fill="#000000"/><text fill="#000000" font-family="sans-serif" font-size="12" lengthAdjust="spacing" textLength="41" x="352.25" y="121.1543">Cliente</text><line style="stroke:#A80036;stroke-width:1.5;" x1="280" x2="433" y1="133" y2="133"/><text fill="#000000" font-family="sans-serif" font-size="11" lengthAdjust="spacing" textLength="21" x="285" y="147.2104">-NIF</text><text fill="#000000" font-family="sans-serif" font-size="11" lengthAdjust="spacing" textLength="37" x="285" y="160.0151">-nome</text><text fill="#000000" font-family="sans-serif" font-size="11" lengthAdjust="spacing" textLength="36" x="285" y="172.8198">-email</text><text fill="#000000" font-family="sans-serif" font-size="11" lengthAdjust="spacing" textLength="143" x="285" y="185.6245">-numeroSegurancaSocial</text><text fill="#000000" font-family="sans-serif" font-size="11" lengthAdjust="spacing" textLength="57" x="285" y="198.4292">-password</text><!--MD5=[a13ca1da61a66d544daddca6fa0a1a30]
class Cartao--><rect codeLine="56" fill="#FEFECE" filter="url(#f10kuhc7n7hv8l)" height="78.4141" id="Cartao" style="stroke:#A80036;stroke-width:1.5;" width="108" x="612" y="7"/><ellipse cx="643.65" cy="23" fill="#ADD1B2" rx="11" ry="11" style="stroke:#A80036;stroke-width:1.0;"/><path d="M645.9938,18.6719 C645.0563,18.2344 644.4625,18.0938 643.5875,18.0938 C640.9625,18.0938 638.9625,20.1719 638.9625,22.8906 L638.9625,24.0156 C638.9625,26.5938 641.0719,28.4844 643.9625,28.4844 C645.1813,28.4844 646.3375,28.1875 647.0875,27.6406 C647.6656,27.2344 647.9938,26.7813 647.9938,26.3906 C647.9938,25.9375 647.6031,25.5469 647.1344,25.5469 C646.9156,25.5469 646.7125,25.625 646.525,25.8125 C646.0719,26.2969 646.0719,26.2969 645.8844,26.3906 C645.4625,26.6563 644.775,26.7813 644.0094,26.7813 C641.9625,26.7813 640.6656,25.6875 640.6656,23.9844 L640.6656,22.8906 C640.6656,21.1094 641.9156,19.7969 643.65,19.7969 C644.2281,19.7969 644.8375,19.9531 645.3063,20.2031 C645.7906,20.4844 645.9625,20.7031 646.0563,21.1094 C646.1188,21.5156 646.15,21.6406 646.2906,21.7656 C646.4313,21.9063 646.6656,22.0156 646.8844,22.0156 C647.15,22.0156 647.4156,21.875 647.5875,21.6563 C647.6969,21.5 647.7281,21.3125 647.7281,20.8906 L647.7281,19.4688 C647.7281,19.0313 647.7125,18.9063 647.6188,18.75 C647.4625,18.4844 647.1813,18.3438 646.8844,18.3438 C646.5875,18.3438 646.3844,18.4375 646.1656,18.75 L645.9938,18.6719 Z " fill="#000000"/><text fill="#000000" font-family="sans-serif" font-size="12" lengthAdjust="spacing" textLength="39" x="661.35" y="27.1543">Cartao</text><line style="stroke:#A80036;stroke-width:1.5;" x1="613" x2="719" y1="39" y2="39"/><text fill="#000000" font-family="sans-serif" font-size="11" lengthAdjust="spacing" textLength="85" x="618" y="53.2104">-numeroCartao</text><text fill="#000000" font-family="sans-serif" font-size="11" lengthAdjust="spacing" textLength="96" x="618" y="66.0151">-dataDeValidade</text><text fill="#000000" font-family="sans-serif" font-size="11" lengthAdjust="spacing" textLength="28" x="618" y="78.8198">-CCV</text><!--MD5=[533e824b6b94274ee39bf5a43d7cce2a]
class EstadoEncomenda--><rect codeLine="62" fill="#FEFECE" filter="url(#f10kuhc7n7hv8l)" height="65.6094" id="EstadoEncomenda" style="stroke:#A80036;stroke-width:1.5;" width="145" x="834" y="209"/><ellipse cx="849.9" cy="225" fill="#ADD1B2" rx="11" ry="11" style="stroke:#A80036;stroke-width:1.0;"/><path d="M852.2438,220.6719 C851.3063,220.2344 850.7125,220.0938 849.8375,220.0938 C847.2125,220.0938 845.2125,222.1719 845.2125,224.8906 L845.2125,226.0156 C845.2125,228.5938 847.3219,230.4844 850.2125,230.4844 C851.4313,230.4844 852.5875,230.1875 853.3375,229.6406 C853.9156,229.2344 854.2438,228.7813 854.2438,228.3906 C854.2438,227.9375 853.8531,227.5469 853.3844,227.5469 C853.1656,227.5469 852.9625,227.625 852.775,227.8125 C852.3219,228.2969 852.3219,228.2969 852.1344,228.3906 C851.7125,228.6563 851.025,228.7813 850.2594,228.7813 C848.2125,228.7813 846.9156,227.6875 846.9156,225.9844 L846.9156,224.8906 C846.9156,223.1094 848.1656,221.7969 849.9,221.7969 C850.4781,221.7969 851.0875,221.9531 851.5563,222.2031 C852.0406,222.4844 852.2125,222.7031 852.3063,223.1094 C852.3688,223.5156 852.4,223.6406 852.5406,223.7656 C852.6813,223.9063 852.9156,224.0156 853.1344,224.0156 C853.4,224.0156 853.6656,223.875 853.8375,223.6563 C853.9469,223.5 853.9781,223.3125 853.9781,222.8906 L853.9781,221.4688 C853.9781,221.0313 853.9625,220.9063 853.8688,220.75 C853.7125,220.4844 853.4313,220.3438 853.1344,220.3438 C852.8375,220.3438 852.6344,220.4375 852.4156,220.75 L852.2438,220.6719 Z " fill="#000000"/><text fill="#000000" font-family="sans-serif" font-size="12" lengthAdjust="spacing" textLength="111" x="864.1" y="229.1543">EstadoEncomenda</text><line style="stroke:#A80036;stroke-width:1.5;" x1="835" x2="978" y1="241" y2="241"/><text fill="#000000" font-family="sans-serif" font-size="11" lengthAdjust="spacing" textLength="133" x="840" y="255.2104">-id_estado_encomenda</text><text fill="#000000" font-family="sans-serif" font-size="11" lengthAdjust="spacing" textLength="69" x="840" y="268.0151">-designacao</text><!--MD5=[d4dacc50d49878ba7c621dfc80a2e1ce]
class Produto--><rect codeLine="67" fill="#FEFECE" filter="url(#f10kuhc7n7hv8l)" height="91.2188" id="Produto" style="stroke:#A80036;stroke-width:1.5;" width="81" x="866" y="310.5"/><ellipse cx="882.35" cy="326.5" fill="#ADD1B2" rx="11" ry="11" style="stroke:#A80036;stroke-width:1.0;"/><path d="M884.6938,322.1719 C883.7563,321.7344 883.1625,321.5938 882.2875,321.5938 C879.6625,321.5938 877.6625,323.6719 877.6625,326.3906 L877.6625,327.5156 C877.6625,330.0938 879.7719,331.9844 882.6625,331.9844 C883.8813,331.9844 885.0375,331.6875 885.7875,331.1406 C886.3656,330.7344 886.6938,330.2813 886.6938,329.8906 C886.6938,329.4375 886.3031,329.0469 885.8344,329.0469 C885.6156,329.0469 885.4125,329.125 885.225,329.3125 C884.7719,329.7969 884.7719,329.7969 884.5844,329.8906 C884.1625,330.1563 883.475,330.2813 882.7094,330.2813 C880.6625,330.2813 879.3656,329.1875 879.3656,327.4844 L879.3656,326.3906 C879.3656,324.6094 880.6156,323.2969 882.35,323.2969 C882.9281,323.2969 883.5375,323.4531 884.0063,323.7031 C884.4906,323.9844 884.6625,324.2031 884.7563,324.6094 C884.8188,325.0156 884.85,325.1406 884.9906,325.2656 C885.1313,325.4063 885.3656,325.5156 885.5844,325.5156 C885.85,325.5156 886.1156,325.375 886.2875,325.1563 C886.3969,325 886.4281,324.8125 886.4281,324.3906 L886.4281,322.9688 C886.4281,322.5313 886.4125,322.4063 886.3188,322.25 C886.1625,321.9844 885.8813,321.8438 885.5844,321.8438 C885.2875,321.8438 885.0844,321.9375 884.8656,322.25 L884.6938,322.1719 Z " fill="#000000"/><text fill="#000000" font-family="sans-serif" font-size="12" lengthAdjust="spacing" textLength="46" x="896.65" y="330.6543">Produto</text><line style="stroke:#A80036;stroke-width:1.5;" x1="867" x2="946" y1="342.5" y2="342.5"/><text fill="#000000" font-family="sans-serif" font-size="11" lengthAdjust="spacing" textLength="56" x="872" y="356.7104">-idProduto</text><text fill="#000000" font-family="sans-serif" font-size="11" lengthAdjust="spacing" textLength="69" x="872" y="369.5151">-designacao</text><text fill="#000000" font-family="sans-serif" font-size="11" lengthAdjust="spacing" textLength="32" x="872" y="382.3198">-peso</text><text fill="#000000" font-family="sans-serif" font-size="11" lengthAdjust="spacing" textLength="65" x="872" y="395.1245">-precoBase</text><!--MD5=[055d9a59c94791d1e5417ead9eff8d01]
link Encomenda to EstadoEncomenda--><path codeLine="74" d="M721.717,285.923 C754.998,277.969 797.876,267.721 833.844,259.125 " fill="none" id="Encomenda-EstadoEncomenda" style="stroke:#A80036;stroke-width:1.0;"/><polygon fill="#000000" points="772.863,257.4042,763.3826,256.6483,764.7489,262.3651,772.863,257.4042" style="stroke:#000000;stroke-width:1.0;"/><text fill="#000000" font-family="sans-serif" font-size="13" lengthAdjust="spacing" textLength="26" x="777" y="263.0669">tem</text><text fill="#000000" font-family="sans-serif" font-size="13" lengthAdjust="spacing" textLength="8" x="729.3682" y="297.2823">1</text><text fill="#000000" font-family="sans-serif" font-size="13" lengthAdjust="spacing" textLength="8" x="817.9389" y="273.7583">1</text><!--MD5=[0b9a64f88a8f68498a0520ea68e94a71]
link Cliente to Cartao--><path codeLine="75" d="M434.302,126.275 C489.626,107.025 562.858,81.542 611.831,64.501 " fill="none" id="Cliente-Cartao" style="stroke:#A80036;stroke-width:1.0;"/><polygon fill="#000000" points="505.7223,69.9232,496.2138,70.1201,498.1454,75.6715,505.7223,69.9232" style="stroke:#000000;stroke-width:1.0;"/><text fill="#000000" font-family="sans-serif" font-size="13" lengthAdjust="spacing" textLength="26" x="510" y="76.0669">tem</text><text fill="#000000" font-family="sans-serif" font-size="13" lengthAdjust="spacing" textLength="8" x="442.0988" y="136.5147">1</text><text fill="#000000" font-family="sans-serif" font-size="13" lengthAdjust="spacing" textLength="8" x="596.0145" y="80.0429">1</text><!--MD5=[39609d66ce6d06d1779a14455c909f6f]
link Entrega to Encomenda--><path codeLine="76" d="M395.666,418.1737 C439.526,416.9805 512.694,410.6485 569,384 C586.103,375.905 602.432,363.815 616.615,351.275 " fill="none" id="Entrega-Encomenda" style="stroke:#A80036;stroke-width:1.0;"/><polygon fill="#000000" points="498.2855,374.1175,488.7768,373.9258,490.4801,379.5514,498.2855,374.1175" style="stroke:#000000;stroke-width:1.0;"/><text fill="#000000" font-family="sans-serif" font-size="13" lengthAdjust="spacing" textLength="41" x="502.5" y="380.0669">possui</text><text fill="#000000" font-family="sans-serif" font-size="13" lengthAdjust="spacing" textLength="8" x="403.6247" y="431.6295">1</text><text fill="#000000" font-family="sans-serif" font-size="13" lengthAdjust="spacing" textLength="7" x="602.8391" y="371.0076">*</text><!--MD5=[328dae9b2f192140d45e51cd90ecd75a]
link Estafeta to Entrega--><path codeLine="77" d="M162.149,418 C212.818,418 277.068,418 317.241,418 " fill="none" id="Estafeta-Entrega" style="stroke:#A80036;stroke-width:1.0;"/><polygon fill="#000000" points="202,409.5664,192.9549,406.6275,192.9549,412.5053,202,409.5664" style="stroke:#000000;stroke-width:1.0;"/><text fill="#000000" font-family="sans-serif" font-size="13" lengthAdjust="spacing" textLength="42" x="206" y="414.0669">realiza</text><text fill="#000000" font-family="sans-serif" font-size="13" lengthAdjust="spacing" textLength="8" x="169.9312" y="430.7963">1</text><text fill="#000000" font-family="sans-serif" font-size="13" lengthAdjust="spacing" textLength="7" x="302.6246" y="431.3778">*</text><!--MD5=[43a7c1a046aa41d1c9842e3954366be4]
link Cliente to Endereco--><path codeLine="78" d="M434.302,156.247 C493.183,158.736 572.351,162.083 620.967,164.138 " fill="none" id="Cliente-Endereco" style="stroke:#A80036;stroke-width:1.0;"/><polygon fill="#000000" points="505.9955,148.7776,497.0827,145.4593,496.8344,151.3319,505.9955,148.7776" style="stroke:#000000;stroke-width:1.0;"/><text fill="#000000" font-family="sans-serif" font-size="13" lengthAdjust="spacing" textLength="26" x="510" y="153.0669">tem</text><text fill="#000000" font-family="sans-serif" font-size="13" lengthAdjust="spacing" textLength="8" x="442.0988" y="169.3434">1</text><text fill="#000000" font-family="sans-serif" font-size="13" lengthAdjust="spacing" textLength="8" x="605.1524" y="177.0966">1</text><!--MD5=[beec9e5f2ed2709028dd31c1dc478e7b]
link Cliente to Encomenda--><path codeLine="79" d="M434.324,186.67 C474.662,204.651 524.769,227.463 569,249 C582.516,255.581 596.96,262.932 610.431,269.929 " fill="none" id="Cliente-Encomenda" style="stroke:#A80036;stroke-width:1.0;"/><polygon fill="#000000" points="473.5203,193.7035,466.5992,187.1805,464.0869,192.4944,473.5203,193.7035" style="stroke:#000000;stroke-width:1.0;"/><text fill="#000000" font-family="sans-serif" font-size="13" lengthAdjust="spacing" textLength="90" x="478" y="196.0669">realiza e paga</text><text fill="#000000" font-family="sans-serif" font-size="13" lengthAdjust="spacing" textLength="8" x="442.1229" y="202.6661">1</text><text fill="#000000" font-family="sans-serif" font-size="13" lengthAdjust="spacing" textLength="7" x="595.4936" y="279.1046">*</text><!--MD5=[f440ac15537f19f21c80dc932ffd2bf8]
link Entrega to Scooter--><path codeLine="80" d="M395.63,428.2945 C415.79,433.212 441.053,438.5504 464,441 C510.403,445.9536 522.339,441.7289 569,441 C578.67,440.8489 588.886,440.6123 598.905,440.3367 " fill="none" id="Entrega-Scooter" style="stroke:#A80036;stroke-width:1.0;"/><polygon fill="#000000" points="488.0088,432.2707,496.8642,435.7394,497.2118,429.8718,488.0088,432.2707" style="stroke:#000000;stroke-width:1.0;"/><text fill="#000000" font-family="sans-serif" font-size="13" lengthAdjust="spacing" textLength="42" x="502" y="437.0669">realiza</text><text fill="#000000" font-family="sans-serif" font-size="13" lengthAdjust="spacing" textLength="7" x="403.4899" y="443.6163">*</text><text fill="#000000" font-family="sans-serif" font-size="13" lengthAdjust="spacing" textLength="8" x="583.129" y="453.4855">1</text><!--MD5=[60097591193c89dbde5dfd99b98b5263]
link Encomenda to Produto--><path codeLine="81" d="M721.717,312.077 C765.725,322.595 826.513,337.123 865.916,346.54 " fill="none" id="Encomenda-Produto" style="stroke:#A80036;stroke-width:1.0;"/><polygon fill="#000000" points="772.863,314.7287,764.7489,309.7677,763.3826,315.4846,772.863,314.7287" style="stroke:#000000;stroke-width:1.0;"/><text fill="#000000" font-family="sans-serif" font-size="13" lengthAdjust="spacing" textLength="26" x="777" y="318.0669">tem</text><text fill="#000000" font-family="sans-serif" font-size="13" lengthAdjust="spacing" textLength="8" x="729.3682" y="326.7873">1</text><text fill="#000000" font-family="sans-serif" font-size="13" lengthAdjust="spacing" textLength="7" x="851.0635" y="358.2501">*</text><!--MD5=[1dbffbca5cb534c4a76478e59708cd36]
link Parque to Scooter--><path codeLine="82" d="M408.502,309.899 C461.635,324.777 540.973,348.231 569,363 C581.256,369.458 593.524,377.522 604.997,385.946 " fill="none" id="Parque-Scooter" style="stroke:#A80036;stroke-width:1.0;"/><polygon fill="#000000" points="498.163,318.3711,490.7883,312.3656,488.6668,317.8472,498.163,318.3711" style="stroke:#000000;stroke-width:1.0;"/><text fill="#000000" font-family="sans-serif" font-size="13" lengthAdjust="spacing" textLength="41" x="502.5" y="321.0669">possui</text><text fill="#000000" font-family="sans-serif" font-size="13" lengthAdjust="spacing" textLength="8" x="416.3773" y="324.9982">1</text><text fill="#000000" font-family="sans-serif" font-size="13" lengthAdjust="spacing" textLength="7" x="589.3294" y="375.0177">*</text><!--MD5=[65c0b4ced80642714d633a5480d06ed6]
link Parque to Endereco--><path codeLine="83" d="M408.873,300.533 C454.036,302.108 520.015,298.36 569,270 C588.232,258.866 584.311,246.675 599,230 C605.752,222.335 613.253,214.502 620.707,207.065 " fill="none" id="Parque-Endereco" style="stroke:#A80036;stroke-width:1.0;"/><polygon fill="#000000" points="505.5745,259.548,496.1128,260.5105,498.4856,265.8882,505.5745,259.548" style="stroke:#000000;stroke-width:1.0;"/><text fill="#000000" font-family="sans-serif" font-size="13" lengthAdjust="spacing" textLength="26" x="510" y="266.0669">tem</text><text fill="#000000" font-family="sans-serif" font-size="13" lengthAdjust="spacing" textLength="8" x="416.4481" y="314.2389">1</text><text fill="#000000" font-family="sans-serif" font-size="13" lengthAdjust="spacing" textLength="8" x="604.8509" y="226.8651">1</text><!--MD5=[9e2e9557bfe6d1a5db7f3c8ac89e6856]
@startuml
skinparam classAttributeIconSize 0
hide methods
left to right direction

class Entrega {
  -idEntrega
  -dataInicio
  -dataFim
}

class Encomenda {
  -idEncomenda
  -dataPedida
  -preco
  -pesoEncomenda
  -taxa
}


class Estafeta {
  -NIF
  -nome
  -email
  -numeroSegurancaSocial
  -password
  -pesoEstafeta
}

class Endereco {
  -morada
  -latitude
  -longitude
  -altitude
}

class Scooter {
  -idScooter
  -percentagemBateria
  -pesoMaximo
  -pesoScooter
  -potencia
}

class Parque {
  -numeroMaximo
}

class Cliente {
  -NIF
  -nome
  -email
  -numeroSegurancaSocial
  -password
}

class Cartao {
  -numeroCartao
  -dataDeValidade
  -CCV
}

class EstadoEncomenda {
  -id_estado_encomenda
  -designacao
}

class Produto {
  -idProduto
  -designacao
  -peso
  -precoBase
}

Encomenda "1" - - "1" EstadoEncomenda : tem >
Cliente "1" - - "1" Cartao : tem >
Entrega "1" - - "*" Encomenda : possui >
Estafeta "1" - - "*" Entrega: realiza >
Cliente "1" - - "1" Endereco: tem >
Cliente "1" - - "*" Encomenda: realiza e paga >
Entrega "*" - - "1" Scooter: realiza <
Encomenda "1" - - "*" Produto: tem >
Parque "1" - - "*" Scooter: possui >
Parque "1" - - "1" Endereco: tem >
@enduml

PlantUML version 1.2020.27beta7(Unknown compile time)
(GPL source distribution)
Java Runtime: Java(TM) SE Runtime Environment
JVM: Java HotSpot(TM) 64-Bit Server VM
Default Encoding: UTF-8
Language: en
Country: US
--></g></svg>