<?xml version="1.0" encoding="UTF-8" standalone="no"?><svg xmlns="http://www.w3.org/2000/svg" xmlns:xlink="http://www.w3.org/1999/xlink" contentScriptType="application/ecmascript" contentStyleType="text/css" height="422px" preserveAspectRatio="none" style="width:993px;height:422px;" version="1.1" viewBox="0 0 993 422" width="993px" zoomAndPan="magnify"><defs><filter height="300%" id="fdhrvjox77xl4" width="300%" x="-1" y="-1"><feGaussianBlur result="blurOut" stdDeviation="2.0"/><feColorMatrix in="blurOut" result="blurOut2" type="matrix" values="0 0 0 0 0 0 0 0 0 0 0 0 0 0 0 0 0 0 .4 0"/><feOffset dx="4.0" dy="4.0" in="blurOut2" result="blurOut3"/><feBlend in="SourceGraphic" in2="blurOut3" mode="normal"/></filter></defs><g><!--MD5=[3179f819b5ca0f9c8a1bd58e9144681b]
class Entrega--><rect codeLine="5" fill="#FEFECE" filter="url(#fdhrvjox77xl4)" height="78.4141" id="Entrega" style="stroke:#A80036;stroke-width:1.5;" width="78" x="317.5" y="26.5"/><ellipse cx="332.5" cy="42.5" fill="#ADD1B2" rx="11" ry="11" style="stroke:#A80036;stroke-width:1.0;"/><path d="M334.8438,38.1719 C333.9063,37.7344 333.3125,37.5938 332.4375,37.5938 C329.8125,37.5938 327.8125,39.6719 327.8125,42.3906 L327.8125,43.5156 C327.8125,46.0938 329.9219,47.9844 332.8125,47.9844 C334.0313,47.9844 335.1875,47.6875 335.9375,47.1406 C336.5156,46.7344 336.8438,46.2813 336.8438,45.8906 C336.8438,45.4375 336.4531,45.0469 335.9844,45.0469 C335.7656,45.0469 335.5625,45.125 335.375,45.3125 C334.9219,45.7969 334.9219,45.7969 334.7344,45.8906 C334.3125,46.1563 333.625,46.2813 332.8594,46.2813 C330.8125,46.2813 329.5156,45.1875 329.5156,43.4844 L329.5156,42.3906 C329.5156,40.6094 330.7656,39.2969 332.5,39.2969 C333.0781,39.2969 333.6875,39.4531 334.1563,39.7031 C334.6406,39.9844 334.8125,40.2031 334.9063,40.6094 C334.9688,41.0156 335,41.1406 335.1406,41.2656 C335.2813,41.4063 335.5156,41.5156 335.7344,41.5156 C336,41.5156 336.2656,41.375 336.4375,41.1563 C336.5469,41 336.5781,40.8125 336.5781,40.3906 L336.5781,38.9688 C336.5781,38.5313 336.5625,38.4063 336.4688,38.25 C336.3125,37.9844 336.0313,37.8438 335.7344,37.8438 C335.4375,37.8438 335.2344,37.9375 335.0156,38.25 L334.8438,38.1719 Z " fill="#000000"/><text fill="#000000" font-family="sans-serif" font-size="12" lengthAdjust="spacing" textLength="46" x="346.5" y="46.6543">Entrega</text><line style="stroke:#A80036;stroke-width:1.5;" x1="318.5" x2="394.5" y1="58.5" y2="58.5"/><text fill="#000000" font-family="sans-serif" font-size="11" lengthAdjust="spacing" textLength="58" x="323.5" y="72.7104">-idEntrega</text><text fill="#000000" font-family="sans-serif" font-size="11" lengthAdjust="spacing" textLength="58" x="323.5" y="85.5151">-dataInicio</text><text fill="#000000" font-family="sans-serif" font-size="11" lengthAdjust="spacing" textLength="49" x="323.5" y="98.3198">-dataFim</text><!--MD5=[c55f92ccbf0646788158d42f3399cc78]
class Encomenda--><rect codeLine="11" fill="#FEFECE" filter="url(#fdhrvjox77xl4)" height="91.2188" id="Encomenda" style="stroke:#A80036;stroke-width:1.5;" width="111" x="610.5" y="153"/><ellipse cx="629.55" cy="169" fill="#ADD1B2" rx="11" ry="11" style="stroke:#A80036;stroke-width:1.0;"/><path d="M631.8938,164.6719 C630.9563,164.2344 630.3625,164.0938 629.4875,164.0938 C626.8625,164.0938 624.8625,166.1719 624.8625,168.8906 L624.8625,170.0156 C624.8625,172.5938 626.9719,174.4844 629.8625,174.4844 C631.0813,174.4844 632.2375,174.1875 632.9875,173.6406 C633.5656,173.2344 633.8938,172.7813 633.8938,172.3906 C633.8938,171.9375 633.5031,171.5469 633.0344,171.5469 C632.8156,171.5469 632.6125,171.625 632.425,171.8125 C631.9719,172.2969 631.9719,172.2969 631.7844,172.3906 C631.3625,172.6563 630.675,172.7813 629.9094,172.7813 C627.8625,172.7813 626.5656,171.6875 626.5656,169.9844 L626.5656,168.8906 C626.5656,167.1094 627.8156,165.7969 629.55,165.7969 C630.1281,165.7969 630.7375,165.9531 631.2063,166.2031 C631.6906,166.4844 631.8625,166.7031 631.9563,167.1094 C632.0188,167.5156 632.05,167.6406 632.1906,167.7656 C632.3313,167.9063 632.5656,168.0156 632.7844,168.0156 C633.05,168.0156 633.3156,167.875 633.4875,167.6563 C633.5969,167.5 633.6281,167.3125 633.6281,166.8906 L633.6281,165.4688 C633.6281,165.0313 633.6125,164.9063 633.5188,164.75 C633.3625,164.4844 633.0813,164.3438 632.7844,164.3438 C632.4875,164.3438 632.2844,164.4375 632.0656,164.75 L631.8938,164.6719 Z " fill="#000000"/><text fill="#000000" font-family="sans-serif" font-size="12" lengthAdjust="spacing" textLength="70" x="644.45" y="173.1543">Encomenda</text><line style="stroke:#A80036;stroke-width:1.5;" x1="611.5" x2="720.5" y1="185" y2="185"/><text fill="#000000" font-family="sans-serif" font-size="11" lengthAdjust="spacing" textLength="81" x="616.5" y="199.2104">-idEncomenda</text><text fill="#000000" font-family="sans-serif" font-size="11" lengthAdjust="spacing" textLength="67" x="616.5" y="212.0151">-dataPedida</text><text fill="#000000" font-family="sans-serif" font-size="11" lengthAdjust="spacing" textLength="36" x="616.5" y="224.8198">-preco</text><text fill="#000000" font-family="sans-serif" font-size="11" lengthAdjust="spacing" textLength="99" x="616.5" y="237.6245">-pesoEncomenda</text><!--MD5=[533e824b6b94274ee39bf5a43d7cce2a]
class EstadoEncomenda--><rect codeLine="18" fill="#FEFECE" filter="url(#fdhrvjox77xl4)" height="65.6094" id="EstadoEncomenda" style="stroke:#A80036;stroke-width:1.5;" width="145" x="834" y="108.5"/><ellipse cx="849.9" cy="124.5" fill="#ADD1B2" rx="11" ry="11" style="stroke:#A80036;stroke-width:1.0;"/><path d="M852.2438,120.1719 C851.3063,119.7344 850.7125,119.5938 849.8375,119.5938 C847.2125,119.5938 845.2125,121.6719 845.2125,124.3906 L845.2125,125.5156 C845.2125,128.0938 847.3219,129.9844 850.2125,129.9844 C851.4313,129.9844 852.5875,129.6875 853.3375,129.1406 C853.9156,128.7344 854.2438,128.2813 854.2438,127.8906 C854.2438,127.4375 853.8531,127.0469 853.3844,127.0469 C853.1656,127.0469 852.9625,127.125 852.775,127.3125 C852.3219,127.7969 852.3219,127.7969 852.1344,127.8906 C851.7125,128.1563 851.025,128.2813 850.2594,128.2813 C848.2125,128.2813 846.9156,127.1875 846.9156,125.4844 L846.9156,124.3906 C846.9156,122.6094 848.1656,121.2969 849.9,121.2969 C850.4781,121.2969 851.0875,121.4531 851.5563,121.7031 C852.0406,121.9844 852.2125,122.2031 852.3063,122.6094 C852.3688,123.0156 852.4,123.1406 852.5406,123.2656 C852.6813,123.4063 852.9156,123.5156 853.1344,123.5156 C853.4,123.5156 853.6656,123.375 853.8375,123.1563 C853.9469,123 853.9781,122.8125 853.9781,122.3906 L853.9781,120.9688 C853.9781,120.5313 853.9625,120.4063 853.8688,120.25 C853.7125,119.9844 853.4313,119.8438 853.1344,119.8438 C852.8375,119.8438 852.6344,119.9375 852.4156,120.25 L852.2438,120.1719 Z " fill="#000000"/><text fill="#000000" font-family="sans-serif" font-size="12" lengthAdjust="spacing" textLength="111" x="864.1" y="128.6543">EstadoEncomenda</text><line style="stroke:#A80036;stroke-width:1.5;" x1="835" x2="978" y1="140.5" y2="140.5"/><text fill="#000000" font-family="sans-serif" font-size="11" lengthAdjust="spacing" textLength="133" x="840" y="154.7104">-id_estado_encomenda</text><text fill="#000000" font-family="sans-serif" font-size="11" lengthAdjust="spacing" textLength="69" x="840" y="167.5151">-designacao</text><!--MD5=[d4dacc50d49878ba7c621dfc80a2e1ce]
class Produto--><rect codeLine="23" fill="#FEFECE" filter="url(#fdhrvjox77xl4)" height="91.2188" id="Produto" style="stroke:#A80036;stroke-width:1.5;" width="81" x="866" y="210"/><ellipse cx="882.35" cy="226" fill="#ADD1B2" rx="11" ry="11" style="stroke:#A80036;stroke-width:1.0;"/><path d="M884.6938,221.6719 C883.7563,221.2344 883.1625,221.0938 882.2875,221.0938 C879.6625,221.0938 877.6625,223.1719 877.6625,225.8906 L877.6625,227.0156 C877.6625,229.5938 879.7719,231.4844 882.6625,231.4844 C883.8813,231.4844 885.0375,231.1875 885.7875,230.6406 C886.3656,230.2344 886.6938,229.7813 886.6938,229.3906 C886.6938,228.9375 886.3031,228.5469 885.8344,228.5469 C885.6156,228.5469 885.4125,228.625 885.225,228.8125 C884.7719,229.2969 884.7719,229.2969 884.5844,229.3906 C884.1625,229.6563 883.475,229.7813 882.7094,229.7813 C880.6625,229.7813 879.3656,228.6875 879.3656,226.9844 L879.3656,225.8906 C879.3656,224.1094 880.6156,222.7969 882.35,222.7969 C882.9281,222.7969 883.5375,222.9531 884.0063,223.2031 C884.4906,223.4844 884.6625,223.7031 884.7563,224.1094 C884.8188,224.5156 884.85,224.6406 884.9906,224.7656 C885.1313,224.9063 885.3656,225.0156 885.5844,225.0156 C885.85,225.0156 886.1156,224.875 886.2875,224.6563 C886.3969,224.5 886.4281,224.3125 886.4281,223.8906 L886.4281,222.4688 C886.4281,222.0313 886.4125,221.9063 886.3188,221.75 C886.1625,221.4844 885.8813,221.3438 885.5844,221.3438 C885.2875,221.3438 885.0844,221.4375 884.8656,221.75 L884.6938,221.6719 Z " fill="#000000"/><text fill="#000000" font-family="sans-serif" font-size="12" lengthAdjust="spacing" textLength="46" x="896.65" y="230.1543">Produto</text><line style="stroke:#A80036;stroke-width:1.5;" x1="867" x2="946" y1="242" y2="242"/><text fill="#000000" font-family="sans-serif" font-size="11" lengthAdjust="spacing" textLength="56" x="872" y="256.2104">-idProduto</text><text fill="#000000" font-family="sans-serif" font-size="11" lengthAdjust="spacing" textLength="69" x="872" y="269.0151">-designacao</text><text fill="#000000" font-family="sans-serif" font-size="11" lengthAdjust="spacing" textLength="32" x="872" y="281.8198">-peso</text><text fill="#000000" font-family="sans-serif" font-size="11" lengthAdjust="spacing" textLength="65" x="872" y="294.6245">-precoBase</text><!--MD5=[3f1202280bfe3359d2f91fb9b6e32986]
class Estafeta--><rect codeLine="30" fill="#FEFECE" filter="url(#fdhrvjox77xl4)" height="116.8281" id="Estafeta" style="stroke:#A80036;stroke-width:1.5;" width="155" x="7" y="7"/><ellipse cx="56.25" cy="23" fill="#ADD1B2" rx="11" ry="11" style="stroke:#A80036;stroke-width:1.0;"/><path d="M58.5938,18.6719 C57.6563,18.2344 57.0625,18.0938 56.1875,18.0938 C53.5625,18.0938 51.5625,20.1719 51.5625,22.8906 L51.5625,24.0156 C51.5625,26.5938 53.6719,28.4844 56.5625,28.4844 C57.7813,28.4844 58.9375,28.1875 59.6875,27.6406 C60.2656,27.2344 60.5938,26.7813 60.5938,26.3906 C60.5938,25.9375 60.2031,25.5469 59.7344,25.5469 C59.5156,25.5469 59.3125,25.625 59.125,25.8125 C58.6719,26.2969 58.6719,26.2969 58.4844,26.3906 C58.0625,26.6563 57.375,26.7813 56.6094,26.7813 C54.5625,26.7813 53.2656,25.6875 53.2656,23.9844 L53.2656,22.8906 C53.2656,21.1094 54.5156,19.7969 56.25,19.7969 C56.8281,19.7969 57.4375,19.9531 57.9063,20.2031 C58.3906,20.4844 58.5625,20.7031 58.6563,21.1094 C58.7188,21.5156 58.75,21.6406 58.8906,21.7656 C59.0313,21.9063 59.2656,22.0156 59.4844,22.0156 C59.75,22.0156 60.0156,21.875 60.1875,21.6563 C60.2969,21.5 60.3281,21.3125 60.3281,20.8906 L60.3281,19.4688 C60.3281,19.0313 60.3125,18.9063 60.2188,18.75 C60.0625,18.4844 59.7813,18.3438 59.4844,18.3438 C59.1875,18.3438 58.9844,18.4375 58.7656,18.75 L58.5938,18.6719 Z " fill="#000000"/><text fill="#000000" font-family="sans-serif" font-size="12" lengthAdjust="spacing" textLength="48" x="76.75" y="27.1543">Estafeta</text><line style="stroke:#A80036;stroke-width:1.5;" x1="8" x2="161" y1="39" y2="39"/><text fill="#000000" font-family="sans-serif" font-size="11" lengthAdjust="spacing" textLength="21" x="13" y="53.2104">-NIF</text><text fill="#000000" font-family="sans-serif" font-size="11" lengthAdjust="spacing" textLength="37" x="13" y="66.0151">-nome</text><text fill="#000000" font-family="sans-serif" font-size="11" lengthAdjust="spacing" textLength="36" x="13" y="78.8198">-email</text><text fill="#000000" font-family="sans-serif" font-size="11" lengthAdjust="spacing" textLength="143" x="13" y="91.6245">-numeroSegurancaSocial</text><text fill="#000000" font-family="sans-serif" font-size="11" lengthAdjust="spacing" textLength="57" x="13" y="104.4292">-password</text><text fill="#000000" font-family="sans-serif" font-size="11" lengthAdjust="spacing" textLength="79" x="13" y="117.2339">-pesoEstafeta</text><!--MD5=[36c1942e8942a3e4f47e6de3733e3d18]
class Endereco--><rect codeLine="39" fill="#FEFECE" filter="url(#fdhrvjox77xl4)" height="91.2188" id="Endereco" style="stroke:#A80036;stroke-width:1.5;" width="90" x="621" y="285"/><ellipse cx="636" cy="301" fill="#ADD1B2" rx="11" ry="11" style="stroke:#A80036;stroke-width:1.0;"/><path d="M638.3438,296.6719 C637.4063,296.2344 636.8125,296.0938 635.9375,296.0938 C633.3125,296.0938 631.3125,298.1719 631.3125,300.8906 L631.3125,302.0156 C631.3125,304.5938 633.4219,306.4844 636.3125,306.4844 C637.5313,306.4844 638.6875,306.1875 639.4375,305.6406 C640.0156,305.2344 640.3438,304.7813 640.3438,304.3906 C640.3438,303.9375 639.9531,303.5469 639.4844,303.5469 C639.2656,303.5469 639.0625,303.625 638.875,303.8125 C638.4219,304.2969 638.4219,304.2969 638.2344,304.3906 C637.8125,304.6563 637.125,304.7813 636.3594,304.7813 C634.3125,304.7813 633.0156,303.6875 633.0156,301.9844 L633.0156,300.8906 C633.0156,299.1094 634.2656,297.7969 636,297.7969 C636.5781,297.7969 637.1875,297.9531 637.6563,298.2031 C638.1406,298.4844 638.3125,298.7031 638.4063,299.1094 C638.4688,299.5156 638.5,299.6406 638.6406,299.7656 C638.7813,299.9063 639.0156,300.0156 639.2344,300.0156 C639.5,300.0156 639.7656,299.875 639.9375,299.6563 C640.0469,299.5 640.0781,299.3125 640.0781,298.8906 L640.0781,297.4688 C640.0781,297.0313 640.0625,296.9063 639.9688,296.75 C639.8125,296.4844 639.5313,296.3438 639.2344,296.3438 C638.9375,296.3438 638.7344,296.4375 638.5156,296.75 L638.3438,296.6719 Z " fill="#000000"/><text fill="#000000" font-family="sans-serif" font-size="12" lengthAdjust="spacing" textLength="58" x="650" y="305.1543">Endereco</text><line style="stroke:#A80036;stroke-width:1.5;" x1="622" x2="710" y1="317" y2="317"/><text fill="#000000" font-family="sans-serif" font-size="11" lengthAdjust="spacing" textLength="47" x="627" y="331.2104">-morada</text><text fill="#000000" font-family="sans-serif" font-size="11" lengthAdjust="spacing" textLength="47" x="627" y="344.0151">-latitude</text><text fill="#000000" font-family="sans-serif" font-size="11" lengthAdjust="spacing" textLength="57" x="627" y="356.8198">-longitude</text><text fill="#000000" font-family="sans-serif" font-size="11" lengthAdjust="spacing" textLength="47" x="627" y="369.6245">-altitude</text><!--MD5=[f4402668d5d5bb8485350c0fdb60ac8e]
class Scooter--><rect codeLine="46" fill="#FEFECE" filter="url(#fdhrvjox77xl4)" height="104.0234" id="Scooter" style="stroke:#A80036;stroke-width:1.5;" width="134" x="599" y="10.5"/><ellipse cx="638.3" cy="26.5" fill="#ADD1B2" rx="11" ry="11" style="stroke:#A80036;stroke-width:1.0;"/><path d="M640.6438,22.1719 C639.7063,21.7344 639.1125,21.5938 638.2375,21.5938 C635.6125,21.5938 633.6125,23.6719 633.6125,26.3906 L633.6125,27.5156 C633.6125,30.0938 635.7219,31.9844 638.6125,31.9844 C639.8313,31.9844 640.9875,31.6875 641.7375,31.1406 C642.3156,30.7344 642.6438,30.2813 642.6438,29.8906 C642.6438,29.4375 642.2531,29.0469 641.7844,29.0469 C641.5656,29.0469 641.3625,29.125 641.175,29.3125 C640.7219,29.7969 640.7219,29.7969 640.5344,29.8906 C640.1125,30.1563 639.425,30.2813 638.6594,30.2813 C636.6125,30.2813 635.3156,29.1875 635.3156,27.4844 L635.3156,26.3906 C635.3156,24.6094 636.5656,23.2969 638.3,23.2969 C638.8781,23.2969 639.4875,23.4531 639.9563,23.7031 C640.4406,23.9844 640.6125,24.2031 640.7063,24.6094 C640.7688,25.0156 640.8,25.1406 640.9406,25.2656 C641.0813,25.4063 641.3156,25.5156 641.5344,25.5156 C641.8,25.5156 642.0656,25.375 642.2375,25.1563 C642.3469,25 642.3781,24.8125 642.3781,24.3906 L642.3781,22.9688 C642.3781,22.5313 642.3625,22.4063 642.2688,22.25 C642.1125,21.9844 641.8313,21.8438 641.5344,21.8438 C641.2375,21.8438 641.0344,21.9375 640.8156,22.25 L640.6438,22.1719 Z " fill="#000000"/><text fill="#000000" font-family="sans-serif" font-size="12" lengthAdjust="spacing" textLength="48" x="657.7" y="30.6543">Scooter</text><line style="stroke:#A80036;stroke-width:1.5;" x1="600" x2="732" y1="42.5" y2="42.5"/><text fill="#000000" font-family="sans-serif" font-size="11" lengthAdjust="spacing" textLength="58" x="605" y="56.7104">-idScooter</text><text fill="#000000" font-family="sans-serif" font-size="11" lengthAdjust="spacing" textLength="122" x="605" y="69.5151">-percentagemBateria</text><text fill="#000000" font-family="sans-serif" font-size="11" lengthAdjust="spacing" textLength="76" x="605" y="82.3198">-pesoMaximo</text><text fill="#000000" font-family="sans-serif" font-size="11" lengthAdjust="spacing" textLength="76" x="605" y="95.1245">-pesoScooter</text><text fill="#000000" font-family="sans-serif" font-size="11" lengthAdjust="spacing" textLength="53" x="605" y="107.9292">-potencia</text><!--MD5=[1a083dbe42a284ae0ea7f6f701783206]
class Parque--><rect codeLine="54" fill="#FEFECE" filter="url(#fdhrvjox77xl4)" height="52.8047" id="Parque" style="stroke:#A80036;stroke-width:1.5;" width="104" x="304.5" y="165"/><ellipse cx="333.45" cy="181" fill="#ADD1B2" rx="11" ry="11" style="stroke:#A80036;stroke-width:1.0;"/><path d="M335.7938,176.6719 C334.8563,176.2344 334.2625,176.0938 333.3875,176.0938 C330.7625,176.0938 328.7625,178.1719 328.7625,180.8906 L328.7625,182.0156 C328.7625,184.5938 330.8719,186.4844 333.7625,186.4844 C334.9813,186.4844 336.1375,186.1875 336.8875,185.6406 C337.4656,185.2344 337.7938,184.7813 337.7938,184.3906 C337.7938,183.9375 337.4031,183.5469 336.9344,183.5469 C336.7156,183.5469 336.5125,183.625 336.325,183.8125 C335.8719,184.2969 335.8719,184.2969 335.6844,184.3906 C335.2625,184.6563 334.575,184.7813 333.8094,184.7813 C331.7625,184.7813 330.4656,183.6875 330.4656,181.9844 L330.4656,180.8906 C330.4656,179.1094 331.7156,177.7969 333.45,177.7969 C334.0281,177.7969 334.6375,177.9531 335.1063,178.2031 C335.5906,178.4844 335.7625,178.7031 335.8563,179.1094 C335.9188,179.5156 335.95,179.6406 336.0906,179.7656 C336.2313,179.9063 336.4656,180.0156 336.6844,180.0156 C336.95,180.0156 337.2156,179.875 337.3875,179.6563 C337.4969,179.5 337.5281,179.3125 337.5281,178.8906 L337.5281,177.4688 C337.5281,177.0313 337.5125,176.9063 337.4188,176.75 C337.2625,176.4844 336.9813,176.3438 336.6844,176.3438 C336.3875,176.3438 336.1844,176.4375 335.9656,176.75 L335.7938,176.6719 Z " fill="#000000"/><text fill="#000000" font-family="sans-serif" font-size="12" lengthAdjust="spacing" textLength="41" x="350.55" y="185.1543">Parque</text><line style="stroke:#A80036;stroke-width:1.5;" x1="305.5" x2="407.5" y1="197" y2="197"/><text fill="#000000" font-family="sans-serif" font-size="11" lengthAdjust="spacing" textLength="92" x="310.5" y="211.2104">-numeroMaximo</text><!--MD5=[20a748d5ee336a9a91751b0a3d4f0beb]
class Cliente--><rect codeLine="58" fill="#FEFECE" filter="url(#fdhrvjox77xl4)" height="142.4375" id="Cliente" style="stroke:#A80036;stroke-width:1.5;" width="155" x="279" y="266.5"/><ellipse cx="331.75" cy="282.5" fill="#ADD1B2" rx="11" ry="11" style="stroke:#A80036;stroke-width:1.0;"/><path d="M334.0938,278.1719 C333.1563,277.7344 332.5625,277.5938 331.6875,277.5938 C329.0625,277.5938 327.0625,279.6719 327.0625,282.3906 L327.0625,283.5156 C327.0625,286.0938 329.1719,287.9844 332.0625,287.9844 C333.2813,287.9844 334.4375,287.6875 335.1875,287.1406 C335.7656,286.7344 336.0938,286.2813 336.0938,285.8906 C336.0938,285.4375 335.7031,285.0469 335.2344,285.0469 C335.0156,285.0469 334.8125,285.125 334.625,285.3125 C334.1719,285.7969 334.1719,285.7969 333.9844,285.8906 C333.5625,286.1563 332.875,286.2813 332.1094,286.2813 C330.0625,286.2813 328.7656,285.1875 328.7656,283.4844 L328.7656,282.3906 C328.7656,280.6094 330.0156,279.2969 331.75,279.2969 C332.3281,279.2969 332.9375,279.4531 333.4063,279.7031 C333.8906,279.9844 334.0625,280.2031 334.1563,280.6094 C334.2188,281.0156 334.25,281.1406 334.3906,281.2656 C334.5313,281.4063 334.7656,281.5156 334.9844,281.5156 C335.25,281.5156 335.5156,281.375 335.6875,281.1563 C335.7969,281 335.8281,280.8125 335.8281,280.3906 L335.8281,278.9688 C335.8281,278.5313 335.8125,278.4063 335.7188,278.25 C335.5625,277.9844 335.2813,277.8438 334.9844,277.8438 C334.6875,277.8438 334.4844,277.9375 334.2656,278.25 L334.0938,278.1719 Z " fill="#000000"/><text fill="#000000" font-family="sans-serif" font-size="12" lengthAdjust="spacing" textLength="41" x="352.25" y="286.6543">Cliente</text><line style="stroke:#A80036;stroke-width:1.5;" x1="280" x2="433" y1="298.5" y2="298.5"/><text fill="#000000" font-family="sans-serif" font-size="11" lengthAdjust="spacing" textLength="126" x="285" y="312.7104">-numeroCartaoCredito</text><text fill="#000000" font-family="sans-serif" font-size="11" lengthAdjust="spacing" textLength="96" x="285" y="325.5151">-dataDeValidade</text><text fill="#000000" font-family="sans-serif" font-size="11" lengthAdjust="spacing" textLength="28" x="285" y="338.3198">-CCV</text><text fill="#000000" font-family="sans-serif" font-size="11" lengthAdjust="spacing" textLength="21" x="285" y="351.1245">-NIF</text><text fill="#000000" font-family="sans-serif" font-size="11" lengthAdjust="spacing" textLength="37" x="285" y="363.9292">-nome</text><text fill="#000000" font-family="sans-serif" font-size="11" lengthAdjust="spacing" textLength="36" x="285" y="376.7339">-email</text><text fill="#000000" font-family="sans-serif" font-size="11" lengthAdjust="spacing" textLength="143" x="285" y="389.5386">-numeroSegurancaSocial</text><text fill="#000000" font-family="sans-serif" font-size="11" lengthAdjust="spacing" textLength="57" x="285" y="402.3433">-password</text><!--MD5=[055d9a59c94791d1e5417ead9eff8d01]
link Encomenda to EstadoEncomenda--><path codeLine="69" d="M721.717,185.423 C754.998,177.469 797.876,167.221 833.844,158.625 " fill="none" id="Encomenda-EstadoEncomenda" style="stroke:#A80036;stroke-width:1.0;"/><polygon fill="#000000" points="772.863,156.9042,763.3826,156.1483,764.7489,161.8651,772.863,156.9042" style="stroke:#000000;stroke-width:1.0;"/><text fill="#000000" font-family="sans-serif" font-size="13" lengthAdjust="spacing" textLength="26" x="777" y="162.5669">tem</text><text fill="#000000" font-family="sans-serif" font-size="13" lengthAdjust="spacing" textLength="8" x="729.3682" y="196.7698">1</text><text fill="#000000" font-family="sans-serif" font-size="13" lengthAdjust="spacing" textLength="8" x="817.9389" y="173.2583">1</text><!--MD5=[39609d66ce6d06d1779a14455c909f6f]
link Entrega to Encomenda--><path codeLine="70" d="M395.863,81.218 C438.356,98.727 508.822,128.056 569,154.5 C582.428,160.401 596.838,166.91 610.306,173.072 " fill="none" id="Entrega-Encomenda" style="stroke:#A80036;stroke-width:1.0;"/><polygon fill="#000000" points="498.0961,103.0351,490.9388,96.7722,488.6245,102.1752,498.0961,103.0351" style="stroke:#000000;stroke-width:1.0;"/><text fill="#000000" font-family="sans-serif" font-size="13" lengthAdjust="spacing" textLength="41" x="502.5" y="105.5669">possui</text><text fill="#000000" font-family="sans-serif" font-size="13" lengthAdjust="spacing" textLength="8" x="403.587" y="97.3956">1</text><text fill="#000000" font-family="sans-serif" font-size="13" lengthAdjust="spacing" textLength="7" x="595.3518" y="182.724">*</text><!--MD5=[328dae9b2f192140d45e51cd90ecd75a]
link Estafeta to Entrega--><path codeLine="71" d="M162.149,65.5 C212.818,65.5 277.068,65.5 317.241,65.5 " fill="none" id="Estafeta-Entrega" style="stroke:#A80036;stroke-width:1.0;"/><polygon fill="#000000" points="202,57.0664,192.9549,54.1275,192.9549,60.0053,202,57.0664" style="stroke:#000000;stroke-width:1.0;"/><text fill="#000000" font-family="sans-serif" font-size="13" lengthAdjust="spacing" textLength="42" x="206" y="61.5669">realiza</text><text fill="#000000" font-family="sans-serif" font-size="13" lengthAdjust="spacing" textLength="8" x="169.9312" y="78.2963">1</text><text fill="#000000" font-family="sans-serif" font-size="13" lengthAdjust="spacing" textLength="7" x="302.6246" y="78.8778">*</text><!--MD5=[43a7c1a046aa41d1c9842e3954366be4]
link Cliente to Endereco--><path codeLine="72" d="M434.446,345.3924 C474.597,348.3428 524.498,350.1831 569,346.5 C586.007,345.0924 604.538,342.305 620.742,339.4457 " fill="none" id="Cliente-Endereco" style="stroke:#A80036;stroke-width:1.0;"/><polygon fill="#000000" points="505.9975,337.9069,496.8632,335.258,497.0507,341.1329,505.9975,337.9069" style="stroke:#000000;stroke-width:1.0;"/><text fill="#000000" font-family="sans-serif" font-size="13" lengthAdjust="spacing" textLength="26" x="510" y="342.5669">tem</text><text fill="#000000" font-family="sans-serif" font-size="13" lengthAdjust="spacing" textLength="8" x="442.0004" y="358.8642">1</text><text fill="#000000" font-family="sans-serif" font-size="13" lengthAdjust="spacing" textLength="8" x="604.8915" y="354.1268">1</text><!--MD5=[beec9e5f2ed2709028dd31c1dc478e7b]
link Cliente to Encomenda--><path codeLine="73" d="M434.11,330.1255 C475.889,323.7004 527.41,311.7328 569,289.5 C580.848,283.167 601.918,263.614 621.306,244.249 " fill="none" id="Cliente-Encomenda" style="stroke:#A80036;stroke-width:1.0;"/><polygon fill="#000000" points="473.5446,278.9816,464.0979,280.0818,466.5488,285.4243,473.5446,278.9816" style="stroke:#000000;stroke-width:1.0;"/><text fill="#000000" font-family="sans-serif" font-size="13" lengthAdjust="spacing" textLength="90" x="478" y="285.5669">realiza e paga</text><text fill="#000000" font-family="sans-serif" font-size="13" lengthAdjust="spacing" textLength="8" x="441.8885" y="342.1898">1</text><text fill="#000000" font-family="sans-serif" font-size="13" lengthAdjust="spacing" textLength="7" x="607.2275" y="264.1305">*</text><!--MD5=[f440ac15537f19f21c80dc932ffd2bf8]
link Entrega to Scooter--><path codeLine="74" d="M395.514,65.129 C446.211,64.635 536.756,63.751 598.789,63.146 " fill="none" id="Entrega-Scooter" style="stroke:#A80036;stroke-width:1.0;"/><polygon fill="#000000" points="488.0002,54.1152,497.0736,56.9657,497.0162,51.0882,488.0002,54.1152" style="stroke:#000000;stroke-width:1.0;"/><text fill="#000000" font-family="sans-serif" font-size="13" lengthAdjust="spacing" textLength="42" x="502" y="58.5669">realiza</text><text fill="#000000" font-family="sans-serif" font-size="13" lengthAdjust="spacing" textLength="7" x="403.6182" y="78.5281">*</text><text fill="#000000" font-family="sans-serif" font-size="13" lengthAdjust="spacing" textLength="8" x="583.0003" y="76.1098">1</text><!--MD5=[60097591193c89dbde5dfd99b98b5263]
link Encomenda to Produto--><path codeLine="75" d="M721.717,211.577 C765.725,222.095 826.513,236.623 865.916,246.04 " fill="none" id="Encomenda-Produto" style="stroke:#A80036;stroke-width:1.0;"/><polygon fill="#000000" points="772.863,214.2287,764.7489,209.2677,763.3826,214.9846,772.863,214.2287" style="stroke:#000000;stroke-width:1.0;"/><text fill="#000000" font-family="sans-serif" font-size="13" lengthAdjust="spacing" textLength="26" x="777" y="217.5669">tem</text><text fill="#000000" font-family="sans-serif" font-size="13" lengthAdjust="spacing" textLength="8" x="729.3682" y="226.2748">1</text><text fill="#000000" font-family="sans-serif" font-size="13" lengthAdjust="spacing" textLength="7" x="851.0635" y="257.7501">*</text><!--MD5=[1dbffbca5cb534c4a76478e59708cd36]
link Parque to Scooter--><path codeLine="76" d="M408.669,198.965 C453.698,203.006 519.595,202.58 569,175.5 C588.487,164.819 584.867,152.649 599,135.5 C604.65,128.644 610.729,121.561 616.827,114.627 " fill="none" id="Parque-Scooter" style="stroke:#A80036;stroke-width:1.0;"/><polygon fill="#000000" points="498.1341,165.1888,488.6473,165.8615,490.8545,171.3092,498.1341,165.1888" style="stroke:#000000;stroke-width:1.0;"/><text fill="#000000" font-family="sans-serif" font-size="13" lengthAdjust="spacing" textLength="41" x="502.5" y="171.5669">possui</text><text fill="#000000" font-family="sans-serif" font-size="13" lengthAdjust="spacing" textLength="8" x="416.5678" y="196.05">1</text><text fill="#000000" font-family="sans-serif" font-size="13" lengthAdjust="spacing" textLength="7" x="602.7491" y="134.7136">*</text><!--MD5=[65c0b4ced80642714d633a5480d06ed6]
link Parque to Endereco--><path codeLine="77" d="M408.696,208.66 C461.577,226.648 540.306,254.238 569,268.5 C586.589,277.243 604.931,288.496 620.813,299.01 " fill="none" id="Parque-Endereco" style="stroke:#A80036;stroke-width:1.0;"/><polygon fill="#000000" points="505.6001,223.0258,498.4301,216.7774,496.1268,222.1851,505.6001,223.0258" style="stroke:#000000;stroke-width:1.0;"/><text fill="#000000" font-family="sans-serif" font-size="13" lengthAdjust="spacing" textLength="26" x="510" y="225.5669">tem</text><text fill="#000000" font-family="sans-serif" font-size="13" lengthAdjust="spacing" textLength="8" x="416.5986" y="224.2178">1</text><text fill="#000000" font-family="sans-serif" font-size="13" lengthAdjust="spacing" textLength="8" x="604.9738" y="307.2466">1</text><!--MD5=[e901e4cadd746a2ee3c67b0040c0e7c0]
@startuml
skinparam classAttributeIconSize 0
hide methods
left to right direction

class Entrega {
  -idEntrega
  -dataInicio
  -dataFim
}

class Encomenda {
  -idEncomenda
  -dataPedida
  -preco
  -pesoEncomenda
}

class EstadoEncomenda {
  -id_estado_encomenda
  -designacao
}

class Produto {
  -idProduto
  -designacao
  -peso
  -precoBase
}

class Estafeta {
  -NIF
  -nome
  -email
  -numeroSegurancaSocial
  -password
  -pesoEstafeta
}

class Endereco {
  -morada
  -latitude
  -longitude
  -altitude
}

class Scooter {
  -idScooter
  -percentagemBateria
  -pesoMaximo
  -pesoScooter
  -potencia
}

class Parque {
  -numeroMaximo
}

class Cliente {
  -numeroCartaoCredito
  -dataDeValidade
  -CCV
  -NIF
  -nome
  -email
  -numeroSegurancaSocial
  -password
}

Encomenda "1" - - "1" EstadoEncomenda : tem >
Entrega "1" - - "*" Encomenda : possui >
Estafeta "1" - - "*" Entrega: realiza >
Cliente "1" - - "1" Endereco: tem >
Cliente "1" - - "*" Encomenda: realiza e paga >
Entrega "*" - - "1" Scooter: realiza <
Encomenda "1" - - "*" Produto: tem >
Parque "1" - - "*" Scooter: possui >
Parque "1" - - "1" Endereco: tem >
@enduml

PlantUML version 1.2020.27beta7(Unknown compile time)
(GPL source distribution)
Java Runtime: Java(TM) SE Runtime Environment
JVM: Java HotSpot(TM) 64-Bit Server VM
Default Encoding: UTF-8
Language: en
Country: US
--></g></svg>