<?xml version="1.0" encoding="UTF-8" standalone="no"?><svg xmlns="http://www.w3.org/2000/svg" xmlns:xlink="http://www.w3.org/1999/xlink" contentScriptType="application/ecmascript" contentStyleType="text/css" height="225px" preserveAspectRatio="none" style="width:742px;height:225px;" version="1.1" viewBox="0 0 742 225" width="742px" zoomAndPan="magnify"><defs><filter height="300%" id="f139s96s2yxv07" width="300%" x="-1" y="-1"><feGaussianBlur result="blurOut" stdDeviation="2.0"/><feColorMatrix in="blurOut" result="blurOut2" type="matrix" values="0 0 0 0 0 0 0 0 0 0 0 0 0 0 0 0 0 0 .4 0"/><feOffset dx="4.0" dy="4.0" in="blurOut2" result="blurOut3"/><feBlend in="SourceGraphic" in2="blurOut3" mode="normal"/></filter></defs><g><!--MD5=[d4dacc50d49878ba7c621dfc80a2e1ce]
class Produto--><rect codeLine="5" fill="#FEFECE" filter="url(#f139s96s2yxv07)" height="91.2188" id="Produto" style="stroke:#A80036;stroke-width:1.5;" width="81" x="610.9243" y="19.5"/><ellipse cx="627.2743" cy="35.5" fill="#ADD1B2" rx="11" ry="11" style="stroke:#A80036;stroke-width:1.0;"/><path d="M629.6181,31.1719 C628.6806,30.7344 628.0868,30.5938 627.2118,30.5938 C624.5868,30.5938 622.5868,32.6719 622.5868,35.3906 L622.5868,36.5156 C622.5868,39.0938 624.6962,40.9844 627.5868,40.9844 C628.8056,40.9844 629.9618,40.6875 630.7118,40.1406 C631.29,39.7344 631.6181,39.2813 631.6181,38.8906 C631.6181,38.4375 631.2275,38.0469 630.7587,38.0469 C630.54,38.0469 630.3368,38.125 630.1493,38.3125 C629.6962,38.7969 629.6962,38.7969 629.5087,38.8906 C629.0868,39.1563 628.3993,39.2813 627.6337,39.2813 C625.5868,39.2813 624.29,38.1875 624.29,36.4844 L624.29,35.3906 C624.29,33.6094 625.54,32.2969 627.2743,32.2969 C627.8525,32.2969 628.4618,32.4531 628.9306,32.7031 C629.415,32.9844 629.5868,33.2031 629.6806,33.6094 C629.7431,34.0156 629.7743,34.1406 629.915,34.2656 C630.0556,34.4063 630.29,34.5156 630.5087,34.5156 C630.7743,34.5156 631.04,34.375 631.2118,34.1563 C631.3212,34 631.3525,33.8125 631.3525,33.3906 L631.3525,31.9688 C631.3525,31.5313 631.3368,31.4063 631.2431,31.25 C631.0868,30.9844 630.8056,30.8438 630.5087,30.8438 C630.2118,30.8438 630.0087,30.9375 629.79,31.25 L629.6181,31.1719 Z " fill="#000000"/><text fill="#000000" font-family="sans-serif" font-size="12" lengthAdjust="spacing" textLength="46" x="641.5743" y="39.6543">Produto</text><line style="stroke:#A80036;stroke-width:1.5;" x1="611.9243" x2="690.9243" y1="51.5" y2="51.5"/><text fill="#000000" font-family="sans-serif" font-size="11" lengthAdjust="spacing" textLength="56" x="616.9243" y="65.7104">-idProduto</text><text fill="#000000" font-family="sans-serif" font-size="11" lengthAdjust="spacing" textLength="69" x="616.9243" y="78.5151">-designacao</text><text fill="#000000" font-family="sans-serif" font-size="11" lengthAdjust="spacing" textLength="32" x="616.9243" y="91.3198">-peso</text><text fill="#000000" font-family="sans-serif" font-size="11" lengthAdjust="spacing" textLength="65" x="616.9243" y="104.1245">-precoBase</text><!--MD5=[ac303f713d9f979882ac64afbf326271]
class TransferenciaProduto--><rect codeLine="12" fill="#FEFECE" filter="url(#f139s96s2yxv07)" height="65.6094" id="TransferenciaProduto" style="stroke:#A80036;stroke-width:1.5;" width="160" x="266.9243" y="135"/><ellipse cx="281.9243" cy="151" fill="#ADD1B2" rx="11" ry="11" style="stroke:#A80036;stroke-width:1.0;"/><path d="M284.2681,146.6719 C283.3306,146.2344 282.7368,146.0938 281.8618,146.0938 C279.2368,146.0938 277.2368,148.1719 277.2368,150.8906 L277.2368,152.0156 C277.2368,154.5938 279.3462,156.4844 282.2368,156.4844 C283.4556,156.4844 284.6118,156.1875 285.3618,155.6406 C285.94,155.2344 286.2681,154.7813 286.2681,154.3906 C286.2681,153.9375 285.8775,153.5469 285.4087,153.5469 C285.19,153.5469 284.9868,153.625 284.7993,153.8125 C284.3462,154.2969 284.3462,154.2969 284.1587,154.3906 C283.7368,154.6563 283.0493,154.7813 282.2837,154.7813 C280.2368,154.7813 278.94,153.6875 278.94,151.9844 L278.94,150.8906 C278.94,149.1094 280.19,147.7969 281.9243,147.7969 C282.5025,147.7969 283.1118,147.9531 283.5806,148.2031 C284.065,148.4844 284.2368,148.7031 284.3306,149.1094 C284.3931,149.5156 284.4243,149.6406 284.565,149.7656 C284.7056,149.9063 284.94,150.0156 285.1587,150.0156 C285.4243,150.0156 285.69,149.875 285.8618,149.6563 C285.9712,149.5 286.0025,149.3125 286.0025,148.8906 L286.0025,147.4688 C286.0025,147.0313 285.9868,146.9063 285.8931,146.75 C285.7368,146.4844 285.4556,146.3438 285.1587,146.3438 C284.8618,146.3438 284.6587,146.4375 284.44,146.75 L284.2681,146.6719 Z " fill="#000000"/><text fill="#000000" font-family="sans-serif" font-size="12" lengthAdjust="spacing" textLength="128" x="295.9243" y="155.1543">TransferenciaProduto</text><line style="stroke:#A80036;stroke-width:1.5;" x1="267.9243" x2="425.9243" y1="167" y2="167"/><text fill="#000000" font-family="sans-serif" font-size="11" lengthAdjust="spacing" textLength="92" x="272.9243" y="181.2104">-idTransferencia</text><text fill="#000000" font-family="sans-serif" font-size="11" lengthAdjust="spacing" textLength="68" x="272.9243" y="194.0151">-quantidade</text><!--MD5=[1ba30c488416121cd0b4d64686b21549]
class EstadoTransferencia--><rect codeLine="17" fill="#FEFECE" filter="url(#f139s96s2yxv07)" height="65.6094" id="EstadoTransferencia" style="stroke:#A80036;stroke-width:1.5;" width="155" x="573.9243" y="146"/><ellipse cx="588.9243" cy="162" fill="#ADD1B2" rx="11" ry="11" style="stroke:#A80036;stroke-width:1.0;"/><path d="M591.2681,157.6719 C590.3306,157.2344 589.7368,157.0938 588.8618,157.0938 C586.2368,157.0938 584.2368,159.1719 584.2368,161.8906 L584.2368,163.0156 C584.2368,165.5938 586.3462,167.4844 589.2368,167.4844 C590.4556,167.4844 591.6118,167.1875 592.3618,166.6406 C592.94,166.2344 593.2681,165.7813 593.2681,165.3906 C593.2681,164.9375 592.8775,164.5469 592.4087,164.5469 C592.19,164.5469 591.9868,164.625 591.7993,164.8125 C591.3462,165.2969 591.3462,165.2969 591.1587,165.3906 C590.7368,165.6563 590.0493,165.7813 589.2837,165.7813 C587.2368,165.7813 585.94,164.6875 585.94,162.9844 L585.94,161.8906 C585.94,160.1094 587.19,158.7969 588.9243,158.7969 C589.5025,158.7969 590.1118,158.9531 590.5806,159.2031 C591.065,159.4844 591.2368,159.7031 591.3306,160.1094 C591.3931,160.5156 591.4243,160.6406 591.565,160.7656 C591.7056,160.9063 591.94,161.0156 592.1587,161.0156 C592.4243,161.0156 592.69,160.875 592.8618,160.6563 C592.9712,160.5 593.0025,160.3125 593.0025,159.8906 L593.0025,158.4688 C593.0025,158.0313 592.9868,157.9063 592.8931,157.75 C592.7368,157.4844 592.4556,157.3438 592.1587,157.3438 C591.8618,157.3438 591.6587,157.4375 591.44,157.75 L591.2681,157.6719 Z " fill="#000000"/><text fill="#000000" font-family="sans-serif" font-size="12" lengthAdjust="spacing" textLength="123" x="602.9243" y="166.1543">EstadoTransferencia</text><line style="stroke:#A80036;stroke-width:1.5;" x1="574.9243" x2="727.9243" y1="178" y2="178"/><text fill="#000000" font-family="sans-serif" font-size="11" lengthAdjust="spacing" textLength="14" x="579.9243" y="192.2104">-id</text><text fill="#000000" font-family="sans-serif" font-size="11" lengthAdjust="spacing" textLength="69" x="579.9243" y="205.0151">-designacao</text><!--MD5=[6613c9cd406ef433ff06f5e98b28abd9]
class Farmacia--><rect codeLine="22" fill="#FEFECE" filter="url(#f139s96s2yxv07)" height="65.6094" id="Farmacia" style="stroke:#A80036;stroke-width:1.5;" width="86" x="63.9243" y="68"/><ellipse cx="78.9243" cy="84" fill="#ADD1B2" rx="11" ry="11" style="stroke:#A80036;stroke-width:1.0;"/><path d="M81.2681,79.6719 C80.3306,79.2344 79.7368,79.0938 78.8618,79.0938 C76.2368,79.0938 74.2368,81.1719 74.2368,83.8906 L74.2368,85.0156 C74.2368,87.5938 76.3462,89.4844 79.2368,89.4844 C80.4556,89.4844 81.6118,89.1875 82.3618,88.6406 C82.94,88.2344 83.2681,87.7813 83.2681,87.3906 C83.2681,86.9375 82.8775,86.5469 82.4087,86.5469 C82.19,86.5469 81.9868,86.625 81.7993,86.8125 C81.3462,87.2969 81.3462,87.2969 81.1587,87.3906 C80.7368,87.6563 80.0493,87.7813 79.2837,87.7813 C77.2368,87.7813 75.94,86.6875 75.94,84.9844 L75.94,83.8906 C75.94,82.1094 77.19,80.7969 78.9243,80.7969 C79.5025,80.7969 80.1118,80.9531 80.5806,81.2031 C81.065,81.4844 81.2368,81.7031 81.3306,82.1094 C81.3931,82.5156 81.4243,82.6406 81.565,82.7656 C81.7056,82.9063 81.94,83.0156 82.1587,83.0156 C82.4243,83.0156 82.69,82.875 82.8618,82.6563 C82.9712,82.5 83.0025,82.3125 83.0025,81.8906 L83.0025,80.4688 C83.0025,80.0313 82.9868,79.9063 82.8931,79.75 C82.7368,79.4844 82.4556,79.3438 82.1587,79.3438 C81.8618,79.3438 81.6587,79.4375 81.44,79.75 L81.2681,79.6719 Z " fill="#000000"/><text fill="#000000" font-family="sans-serif" font-size="12" lengthAdjust="spacing" textLength="54" x="92.9243" y="88.1543">Farmacia</text><line style="stroke:#A80036;stroke-width:1.5;" x1="64.9243" x2="148.9243" y1="100" y2="100"/><text fill="#000000" font-family="sans-serif" font-size="11" lengthAdjust="spacing" textLength="21" x="69.9243" y="114.2104">-NIF</text><text fill="#000000" font-family="sans-serif" font-size="11" lengthAdjust="spacing" textLength="36" x="69.9243" y="127.0151">-email</text><!--MD5=[b925eed8574a8ca4aaf557e1ca097bb2]
link Farmacia to Farmacia--><path codeLine="27" d="M89.0086,67.763 C85.8157,49.619 91.7876,33 106.9243,33 C122.0613,33 128.0333,49.619 124.8403,67.763 " fill="none" id="Farmacia-Farmacia" style="stroke:#A80036;stroke-width:1.0;"/><polygon fill="#000000" points="16,18.6998,24.3989,23.1619,25.4176,17.373,16,18.6998" style="stroke:#000000;stroke-width:1.0;"/><text fill="#000000" font-family="sans-serif" font-size="13" lengthAdjust="spacing" textLength="157" x="34.9243" y="24.0669">envia nota transferência</text><text fill="#000000" font-family="sans-serif" font-size="13" lengthAdjust="spacing" textLength="8" x="76.694" y="56.8613">1</text><text fill="#000000" font-family="sans-serif" font-size="13" lengthAdjust="spacing" textLength="7" x="120.6785" y="56.8613">*</text><!--MD5=[db4a5ac14aaeb2d946b80db0d46ff947]
link Farmacia to Produto--><path codeLine="28" d="M150.0423,98.205 C252.1113,91.432 511.5813,74.214 610.9123,67.622 " fill="none" id="Farmacia-Produto" style="stroke:#A80036;stroke-width:1.0;"/><polygon fill="#000000" points="336.4134,71.2353,327.1935,68.9018,327.5827,74.7667,336.4134,71.2353" style="stroke:#000000;stroke-width:1.0;"/><text fill="#000000" font-family="sans-serif" font-size="13" lengthAdjust="spacing" textLength="26" x="340.4243" y="76.0669">tem</text><text fill="#000000" font-family="sans-serif" font-size="13" lengthAdjust="spacing" textLength="8" x="157.8463" y="111.0945">1</text><text fill="#000000" font-family="sans-serif" font-size="13" lengthAdjust="spacing" textLength="7" x="595.7976" y="63.7816">*</text><!--MD5=[3f6503f1a57f2d55f08379ac406fcd0b]
link Farmacia to TransferenciaProduto--><path codeLine="30" d="M149.9263,112.824 C182.2203,121.9153 227.7733,134.739 266.8363,145.7358 " fill="none" id="Farmacia-TransferenciaProduto" style="stroke:#A80036;stroke-width:1.0;"/><polygon fill="#000000" points="189.7373,114.9213,181.827,109.6413,180.2342,115.2992,189.7373,114.9213" style="stroke:#000000;stroke-width:1.0;"/><text fill="#000000" font-family="sans-serif" font-size="13" lengthAdjust="spacing" textLength="42" x="193.9243" y="118.0669">realiza</text><text fill="#000000" font-family="sans-serif" font-size="13" lengthAdjust="spacing" textLength="8" x="158.0048" y="128.2572">1</text><text fill="#000000" font-family="sans-serif" font-size="13" lengthAdjust="spacing" textLength="7" x="251.8694" y="156.4204">*</text><!--MD5=[c855b1766254e06f87c76fb6bd0b050a]
link TransferenciaProduto to EstadoTransferencia--><path codeLine="31" d="M427.0903,172.6293 C437.1303,173.1365 447.2663,173.6095 456.9243,174 C495.3703,175.5545 538.1343,176.7187 573.6623,177.5308 " fill="none" id="TransferenciaProduto-EstadoTransferencia" style="stroke:#A80036;stroke-width:1.0;"/><polygon fill="#000000" points="489.9215,165.7335,480.9797,162.4939,480.7833,168.3685,489.9215,165.7335" style="stroke:#000000;stroke-width:1.0;"/><text fill="#000000" font-family="sans-serif" font-size="13" lengthAdjust="spacing" textLength="26" x="493.9243" y="170.0669">tem</text><text fill="#000000" font-family="sans-serif" font-size="13" lengthAdjust="spacing" textLength="8" x="434.8494" y="185.8385">1</text><text fill="#000000" font-family="sans-serif" font-size="13" lengthAdjust="spacing" textLength="7" x="558.9171" y="190.1975">*</text><!--MD5=[36ce0647da86725cfb4b25b0e75164d8]
link TransferenciaProduto to Produto--><path codeLine="32" d="M427.1143,145.4591 C463.0113,134.8067 505.8513,121.4851 543.9243,108 C566.2913,100.078 590.8763,90.229 610.7843,81.957 " fill="none" id="TransferenciaProduto-Produto" style="stroke:#A80036;stroke-width:1.0;"/><polygon fill="#000000" points="466.6499,97.9326,457.141,98.1106,459.0616,103.6658,466.6499,97.9326" style="stroke:#000000;stroke-width:1.0;"/><text fill="#000000" font-family="sans-serif" font-size="13" lengthAdjust="spacing" textLength="72" x="470.9243" y="104.0669">referente a</text><text fill="#000000" font-family="sans-serif" font-size="13" lengthAdjust="spacing" textLength="8" x="434.8756" y="156.1635">1</text><text fill="#000000" font-family="sans-serif" font-size="13" lengthAdjust="spacing" textLength="8" x="594.8328" y="98.3726">1</text><!--MD5=[5bde99fcf1a33d9c73cc48346a314138]
@startuml
skinparam classAttributeIconSize 0
hide methods
left to right direction

class Produto {
  -idProduto
  -designacao
  -peso
  -precoBase
}

class TransferenciaProduto {
  -idTransferencia
  -quantidade
}

class EstadoTransferencia {
  -id
  -designacao
}

class Farmacia {
  -NIF
  -email
}

Farmacia "1" - - "*" Farmacia: envia nota transferência >
Farmacia "1" - - "*" Produto: tem >

Farmacia "1" - - "*" TransferenciaProduto: realiza >
TransferenciaProduto "1" - - "*" EstadoTransferencia: tem >
TransferenciaProduto "1" - - "1" Produto: referente a >
@enduml

PlantUML version 1.2021.01beta7(Unknown compile time)
(GPL source distribution)
Java Runtime: Java(TM) SE Runtime Environment
JVM: Java HotSpot(TM) 64-Bit Server VM
Default Encoding: UTF-8
Language: en
Country: US
--></g></svg>