<?xml version="1.0" encoding="UTF-8" standalone="no"?><svg xmlns="http://www.w3.org/2000/svg" xmlns:xlink="http://www.w3.org/1999/xlink" contentScriptType="application/ecmascript" contentStyleType="text/css" height="309px" preserveAspectRatio="none" style="width:1078px;height:309px;" version="1.1" viewBox="0 0 1078 309" width="1078px" zoomAndPan="magnify"><defs><filter height="300%" id="f1wkew3x9xp91u" width="300%" x="-1" y="-1"><feGaussianBlur result="blurOut" stdDeviation="2.0"/><feColorMatrix in="blurOut" result="blurOut2" type="matrix" values="0 0 0 0 0 0 0 0 0 0 0 0 0 0 0 0 0 0 .4 0"/><feOffset dx="4.0" dy="4.0" in="blurOut2" result="blurOut3"/><feBlend in="SourceGraphic" in2="blurOut3" mode="normal"/></filter></defs><g><!--MD5=[1a083dbe42a284ae0ea7f6f701783206]
class Parque--><rect codeLine="5" fill="#FEFECE" filter="url(#f1wkew3x9xp91u)" height="91.2188" id="Parque" style="stroke:#A80036;stroke-width:1.5;" width="104" x="209" y="53.5"/><ellipse cx="237.95" cy="69.5" fill="#ADD1B2" rx="11" ry="11" style="stroke:#A80036;stroke-width:1.0;"/><path d="M240.2938,65.1719 C239.3563,64.7344 238.7625,64.5938 237.8875,64.5938 C235.2625,64.5938 233.2625,66.6719 233.2625,69.3906 L233.2625,70.5156 C233.2625,73.0938 235.3719,74.9844 238.2625,74.9844 C239.4813,74.9844 240.6375,74.6875 241.3875,74.1406 C241.9656,73.7344 242.2938,73.2813 242.2938,72.8906 C242.2938,72.4375 241.9031,72.0469 241.4344,72.0469 C241.2156,72.0469 241.0125,72.125 240.825,72.3125 C240.3719,72.7969 240.3719,72.7969 240.1844,72.8906 C239.7625,73.1563 239.075,73.2813 238.3094,73.2813 C236.2625,73.2813 234.9656,72.1875 234.9656,70.4844 L234.9656,69.3906 C234.9656,67.6094 236.2156,66.2969 237.95,66.2969 C238.5281,66.2969 239.1375,66.4531 239.6063,66.7031 C240.0906,66.9844 240.2625,67.2031 240.3563,67.6094 C240.4188,68.0156 240.45,68.1406 240.5906,68.2656 C240.7313,68.4063 240.9656,68.5156 241.1844,68.5156 C241.45,68.5156 241.7156,68.375 241.8875,68.1563 C241.9969,68 242.0281,67.8125 242.0281,67.3906 L242.0281,65.9688 C242.0281,65.5313 242.0125,65.4063 241.9188,65.25 C241.7625,64.9844 241.4813,64.8438 241.1844,64.8438 C240.8875,64.8438 240.6844,64.9375 240.4656,65.25 L240.2938,65.1719 Z " fill="#000000"/><text fill="#000000" font-family="sans-serif" font-size="12" lengthAdjust="spacing" textLength="41" x="255.05" y="73.6543">Parque</text><line style="stroke:#A80036;stroke-width:1.5;" x1="210" x2="312" y1="85.5" y2="85.5"/><text fill="#000000" font-family="sans-serif" font-size="11" lengthAdjust="spacing" textLength="53" x="215" y="99.7104">-idParque</text><text fill="#000000" font-family="sans-serif" font-size="11" lengthAdjust="spacing" textLength="92" x="215" y="112.5151">-numeroMaximo</text><text fill="#000000" font-family="sans-serif" font-size="11" lengthAdjust="spacing" textLength="25" x="215" y="125.3198">-tipo</text><text fill="#000000" font-family="sans-serif" font-size="11" lengthAdjust="spacing" textLength="51" x="215" y="138.1245">-maxCap</text><!--MD5=[a656e5e079c9813af42e0e9dd198231c]
class EstadoVeiculo--><rect codeLine="12" fill="#FEFECE" filter="url(#f1wkew3x9xp91u)" height="65.6094" id="EstadoVeiculo" style="stroke:#A80036;stroke-width:1.5;" width="117" x="947" y="108"/><ellipse cx="962" cy="124" fill="#ADD1B2" rx="11" ry="11" style="stroke:#A80036;stroke-width:1.0;"/><path d="M964.3438,119.6719 C963.4063,119.2344 962.8125,119.0938 961.9375,119.0938 C959.3125,119.0938 957.3125,121.1719 957.3125,123.8906 L957.3125,125.0156 C957.3125,127.5938 959.4219,129.4844 962.3125,129.4844 C963.5313,129.4844 964.6875,129.1875 965.4375,128.6406 C966.0156,128.2344 966.3438,127.7813 966.3438,127.3906 C966.3438,126.9375 965.9531,126.5469 965.4844,126.5469 C965.2656,126.5469 965.0625,126.625 964.875,126.8125 C964.4219,127.2969 964.4219,127.2969 964.2344,127.3906 C963.8125,127.6563 963.125,127.7813 962.3594,127.7813 C960.3125,127.7813 959.0156,126.6875 959.0156,124.9844 L959.0156,123.8906 C959.0156,122.1094 960.2656,120.7969 962,120.7969 C962.5781,120.7969 963.1875,120.9531 963.6563,121.2031 C964.1406,121.4844 964.3125,121.7031 964.4063,122.1094 C964.4688,122.5156 964.5,122.6406 964.6406,122.7656 C964.7813,122.9063 965.0156,123.0156 965.2344,123.0156 C965.5,123.0156 965.7656,122.875 965.9375,122.6563 C966.0469,122.5 966.0781,122.3125 966.0781,121.8906 L966.0781,120.4688 C966.0781,120.0313 966.0625,119.9063 965.9688,119.75 C965.8125,119.4844 965.5313,119.3438 965.2344,119.3438 C964.9375,119.3438 964.7344,119.4375 964.5156,119.75 L964.3438,119.6719 Z " fill="#000000"/><text fill="#000000" font-family="sans-serif" font-size="12" lengthAdjust="spacing" textLength="85" x="976" y="128.1543">EstadoVeiculo</text><line style="stroke:#A80036;stroke-width:1.5;" x1="948" x2="1063" y1="140" y2="140"/><text fill="#000000" font-family="sans-serif" font-size="11" lengthAdjust="spacing" textLength="94" x="953" y="154.2104">-idEstadoVeiculo</text><text fill="#000000" font-family="sans-serif" font-size="11" lengthAdjust="spacing" textLength="69" x="953" y="167.0151">-designacao</text><!--MD5=[f4402668d5d5bb8485350c0fdb60ac8e]
class Scooter--><rect codeLine="17" fill="#FEFECE" filter="url(#f1wkew3x9xp91u)" height="52.8047" id="Scooter" style="stroke:#A80036;stroke-width:1.5;" width="80" x="965.5" y="225.5"/><ellipse cx="980.5" cy="241.5" fill="#ADD1B2" rx="11" ry="11" style="stroke:#A80036;stroke-width:1.0;"/><path d="M982.8438,237.1719 C981.9063,236.7344 981.3125,236.5938 980.4375,236.5938 C977.8125,236.5938 975.8125,238.6719 975.8125,241.3906 L975.8125,242.5156 C975.8125,245.0938 977.9219,246.9844 980.8125,246.9844 C982.0313,246.9844 983.1875,246.6875 983.9375,246.1406 C984.5156,245.7344 984.8438,245.2813 984.8438,244.8906 C984.8438,244.4375 984.4531,244.0469 983.9844,244.0469 C983.7656,244.0469 983.5625,244.125 983.375,244.3125 C982.9219,244.7969 982.9219,244.7969 982.7344,244.8906 C982.3125,245.1563 981.625,245.2813 980.8594,245.2813 C978.8125,245.2813 977.5156,244.1875 977.5156,242.4844 L977.5156,241.3906 C977.5156,239.6094 978.7656,238.2969 980.5,238.2969 C981.0781,238.2969 981.6875,238.4531 982.1563,238.7031 C982.6406,238.9844 982.8125,239.2031 982.9063,239.6094 C982.9688,240.0156 983,240.1406 983.1406,240.2656 C983.2813,240.4063 983.5156,240.5156 983.7344,240.5156 C984,240.5156 984.2656,240.375 984.4375,240.1563 C984.5469,240 984.5781,239.8125 984.5781,239.3906 L984.5781,237.9688 C984.5781,237.5313 984.5625,237.4063 984.4688,237.25 C984.3125,236.9844 984.0313,236.8438 983.7344,236.8438 C983.4375,236.8438 983.2344,236.9375 983.0156,237.25 L982.8438,237.1719 Z " fill="#000000"/><text fill="#000000" font-family="sans-serif" font-size="12" lengthAdjust="spacing" textLength="48" x="994.5" y="245.6543">Scooter</text><line style="stroke:#A80036;stroke-width:1.5;" x1="966.5" x2="1044.5" y1="257.5" y2="257.5"/><text fill="#000000" font-family="sans-serif" font-size="11" lengthAdjust="spacing" textLength="58" x="971.5" y="271.7104">-idScooter</text><!--MD5=[8505c5852735283b5a8424161266bb9f]
class Veiculo--><rect codeLine="21" fill="#FEFECE" filter="url(#f1wkew3x9xp91u)" height="142.4375" id="Veiculo" style="stroke:#A80036;stroke-width:1.5;" width="134" x="712" y="65"/><ellipse cx="753.1" cy="81" fill="#ADD1B2" rx="11" ry="11" style="stroke:#A80036;stroke-width:1.0;"/><path d="M755.4438,76.6719 C754.5063,76.2344 753.9125,76.0938 753.0375,76.0938 C750.4125,76.0938 748.4125,78.1719 748.4125,80.8906 L748.4125,82.0156 C748.4125,84.5938 750.5219,86.4844 753.4125,86.4844 C754.6313,86.4844 755.7875,86.1875 756.5375,85.6406 C757.1156,85.2344 757.4438,84.7813 757.4438,84.3906 C757.4438,83.9375 757.0531,83.5469 756.5844,83.5469 C756.3656,83.5469 756.1625,83.625 755.975,83.8125 C755.5219,84.2969 755.5219,84.2969 755.3344,84.3906 C754.9125,84.6563 754.225,84.7813 753.4594,84.7813 C751.4125,84.7813 750.1156,83.6875 750.1156,81.9844 L750.1156,80.8906 C750.1156,79.1094 751.3656,77.7969 753.1,77.7969 C753.6781,77.7969 754.2875,77.9531 754.7563,78.2031 C755.2406,78.4844 755.4125,78.7031 755.5063,79.1094 C755.5688,79.5156 755.6,79.6406 755.7406,79.7656 C755.8813,79.9063 756.1156,80.0156 756.3344,80.0156 C756.6,80.0156 756.8656,79.875 757.0375,79.6563 C757.1469,79.5 757.1781,79.3125 757.1781,78.8906 L757.1781,77.4688 C757.1781,77.0313 757.1625,76.9063 757.0688,76.75 C756.9125,76.4844 756.6313,76.3438 756.3344,76.3438 C756.0375,76.3438 755.8344,76.4375 755.6156,76.75 L755.4438,76.6719 Z " fill="#000000"/><text fill="#000000" font-family="sans-serif" font-size="12" lengthAdjust="spacing" textLength="44" x="772.9" y="85.1543">Veiculo</text><line style="stroke:#A80036;stroke-width:1.5;" x1="713" x2="845" y1="97" y2="97"/><text fill="#000000" font-family="sans-serif" font-size="11" lengthAdjust="spacing" textLength="55" x="718" y="111.2104">-idveiculo</text><text fill="#000000" font-family="sans-serif" font-size="11" lengthAdjust="spacing" textLength="58" x="718" y="124.0151">-descricao</text><text fill="#000000" font-family="sans-serif" font-size="11" lengthAdjust="spacing" textLength="69" x="718" y="136.8198">-capacidade</text><text fill="#000000" font-family="sans-serif" font-size="11" lengthAdjust="spacing" textLength="122" x="718" y="149.6245">-percentagemBateria</text><text fill="#000000" font-family="sans-serif" font-size="11" lengthAdjust="spacing" textLength="76" x="718" y="162.4292">-pesoMaximo</text><text fill="#000000" font-family="sans-serif" font-size="11" lengthAdjust="spacing" textLength="74" x="718" y="175.2339">-pesoVeiculo</text><text fill="#000000" font-family="sans-serif" font-size="11" lengthAdjust="spacing" textLength="53" x="718" y="188.0386">-potencia</text><text fill="#000000" font-family="sans-serif" font-size="11" lengthAdjust="spacing" textLength="68" x="718" y="200.8433">-areaFrontal</text><!--MD5=[2e3f1e60e74253ff42e47f8bfdb04ee2]
class Drone--><rect codeLine="32" fill="#FEFECE" filter="url(#f1wkew3x9xp91u)" height="65.6094" id="Drone" style="stroke:#A80036;stroke-width:1.5;" width="83" x="964" y="7"/><ellipse cx="985.3" cy="23" fill="#ADD1B2" rx="11" ry="11" style="stroke:#A80036;stroke-width:1.0;"/><path d="M987.6438,18.6719 C986.7063,18.2344 986.1125,18.0938 985.2375,18.0938 C982.6125,18.0938 980.6125,20.1719 980.6125,22.8906 L980.6125,24.0156 C980.6125,26.5938 982.7219,28.4844 985.6125,28.4844 C986.8313,28.4844 987.9875,28.1875 988.7375,27.6406 C989.3156,27.2344 989.6438,26.7813 989.6438,26.3906 C989.6438,25.9375 989.2531,25.5469 988.7844,25.5469 C988.5656,25.5469 988.3625,25.625 988.175,25.8125 C987.7219,26.2969 987.7219,26.2969 987.5344,26.3906 C987.1125,26.6563 986.425,26.7813 985.6594,26.7813 C983.6125,26.7813 982.3156,25.6875 982.3156,23.9844 L982.3156,22.8906 C982.3156,21.1094 983.5656,19.7969 985.3,19.7969 C985.8781,19.7969 986.4875,19.9531 986.9563,20.2031 C987.4406,20.4844 987.6125,20.7031 987.7063,21.1094 C987.7688,21.5156 987.8,21.6406 987.9406,21.7656 C988.0813,21.9063 988.3156,22.0156 988.5344,22.0156 C988.8,22.0156 989.0656,21.875 989.2375,21.6563 C989.3469,21.5 989.3781,21.3125 989.3781,20.8906 L989.3781,19.4688 C989.3781,19.0313 989.3625,18.9063 989.2688,18.75 C989.1125,18.4844 988.8313,18.3438 988.5344,18.3438 C988.2375,18.3438 988.0344,18.4375 987.8156,18.75 L987.6438,18.6719 Z " fill="#000000"/><text fill="#000000" font-family="sans-serif" font-size="12" lengthAdjust="spacing" textLength="37" x="1000.7" y="27.1543">Drone</text><line style="stroke:#A80036;stroke-width:1.5;" x1="965" x2="1046" y1="39" y2="39"/><text fill="#000000" font-family="sans-serif" font-size="11" lengthAdjust="spacing" textLength="49" x="970" y="53.2104">-idDrone</text><text fill="#000000" font-family="sans-serif" font-size="11" lengthAdjust="spacing" textLength="71" x="970" y="66.0151">-hoverPower</text><!--MD5=[3f1202280bfe3359d2f91fb9b6e32986]
class Estafeta--><rect codeLine="37" fill="#FEFECE" filter="url(#f1wkew3x9xp91u)" height="52.8047" id="Estafeta" style="stroke:#A80036;stroke-width:1.5;" width="91" x="343" y="242.5"/><ellipse cx="362.95" cy="258.5" fill="#ADD1B2" rx="11" ry="11" style="stroke:#A80036;stroke-width:1.0;"/><path d="M365.2938,254.1719 C364.3563,253.7344 363.7625,253.5938 362.8875,253.5938 C360.2625,253.5938 358.2625,255.6719 358.2625,258.3906 L358.2625,259.5156 C358.2625,262.0938 360.3719,263.9844 363.2625,263.9844 C364.4813,263.9844 365.6375,263.6875 366.3875,263.1406 C366.9656,262.7344 367.2938,262.2813 367.2938,261.8906 C367.2938,261.4375 366.9031,261.0469 366.4344,261.0469 C366.2156,261.0469 366.0125,261.125 365.825,261.3125 C365.3719,261.7969 365.3719,261.7969 365.1844,261.8906 C364.7625,262.1563 364.075,262.2813 363.3094,262.2813 C361.2625,262.2813 359.9656,261.1875 359.9656,259.4844 L359.9656,258.3906 C359.9656,256.6094 361.2156,255.2969 362.95,255.2969 C363.5281,255.2969 364.1375,255.4531 364.6063,255.7031 C365.0906,255.9844 365.2625,256.2031 365.3563,256.6094 C365.4188,257.0156 365.45,257.1406 365.5906,257.2656 C365.7313,257.4063 365.9656,257.5156 366.1844,257.5156 C366.45,257.5156 366.7156,257.375 366.8875,257.1563 C366.9969,257 367.0281,256.8125 367.0281,256.3906 L367.0281,254.9688 C367.0281,254.5313 367.0125,254.4063 366.9188,254.25 C366.7625,253.9844 366.4813,253.8438 366.1844,253.8438 C365.8875,253.8438 365.6844,253.9375 365.4656,254.25 L365.2938,254.1719 Z " fill="#000000"/><text fill="#000000" font-family="sans-serif" font-size="12" lengthAdjust="spacing" textLength="48" x="378.05" y="262.6543">Estafeta</text><line style="stroke:#A80036;stroke-width:1.5;" x1="344" x2="433" y1="274.5" y2="274.5"/><text fill="#000000" font-family="sans-serif" font-size="11" lengthAdjust="spacing" textLength="79" x="349" y="288.7104">-pesoEstafeta</text><!--MD5=[d6f7ff8a01a1f4d455865514bc16ec87]
class Estacionamento--><rect codeLine="41" fill="#FEFECE" filter="url(#f1wkew3x9xp91u)" height="65.6094" id="Estacionamento" style="stroke:#A80036;stroke-width:1.5;" width="127" x="464" y="79"/><ellipse cx="479" cy="95" fill="#ADD1B2" rx="11" ry="11" style="stroke:#A80036;stroke-width:1.0;"/><path d="M481.3438,90.6719 C480.4063,90.2344 479.8125,90.0938 478.9375,90.0938 C476.3125,90.0938 474.3125,92.1719 474.3125,94.8906 L474.3125,96.0156 C474.3125,98.5938 476.4219,100.4844 479.3125,100.4844 C480.5313,100.4844 481.6875,100.1875 482.4375,99.6406 C483.0156,99.2344 483.3438,98.7813 483.3438,98.3906 C483.3438,97.9375 482.9531,97.5469 482.4844,97.5469 C482.2656,97.5469 482.0625,97.625 481.875,97.8125 C481.4219,98.2969 481.4219,98.2969 481.2344,98.3906 C480.8125,98.6563 480.125,98.7813 479.3594,98.7813 C477.3125,98.7813 476.0156,97.6875 476.0156,95.9844 L476.0156,94.8906 C476.0156,93.1094 477.2656,91.7969 479,91.7969 C479.5781,91.7969 480.1875,91.9531 480.6563,92.2031 C481.1406,92.4844 481.3125,92.7031 481.4063,93.1094 C481.4688,93.5156 481.5,93.6406 481.6406,93.7656 C481.7813,93.9063 482.0156,94.0156 482.2344,94.0156 C482.5,94.0156 482.7656,93.875 482.9375,93.6563 C483.0469,93.5 483.0781,93.3125 483.0781,92.8906 L483.0781,91.4688 C483.0781,91.0313 483.0625,90.9063 482.9688,90.75 C482.8125,90.4844 482.5313,90.3438 482.2344,90.3438 C481.9375,90.3438 481.7344,90.4375 481.5156,90.75 L481.3438,90.6719 Z " fill="#000000"/><text fill="#000000" font-family="sans-serif" font-size="12" lengthAdjust="spacing" textLength="95" x="493" y="99.1543">Estacionamento</text><line style="stroke:#A80036;stroke-width:1.5;" x1="465" x2="590" y1="111" y2="111"/><text fill="#000000" font-family="sans-serif" font-size="11" lengthAdjust="spacing" textLength="73" x="470" y="125.2104">-numeroLote</text><text fill="#000000" font-family="sans-serif" font-size="11" lengthAdjust="spacing" textLength="65" x="470" y="138.0151">-carregador</text><!--MD5=[6613c9cd406ef433ff06f5e98b28abd9]
class Farmacia--><rect codeLine="46" fill="#FEFECE" filter="url(#f1wkew3x9xp91u)" height="65.6094" id="Farmacia" style="stroke:#A80036;stroke-width:1.5;" width="86" x="7" y="165"/><ellipse cx="22" cy="181" fill="#ADD1B2" rx="11" ry="11" style="stroke:#A80036;stroke-width:1.0;"/><path d="M24.3438,176.6719 C23.4063,176.2344 22.8125,176.0938 21.9375,176.0938 C19.3125,176.0938 17.3125,178.1719 17.3125,180.8906 L17.3125,182.0156 C17.3125,184.5938 19.4219,186.4844 22.3125,186.4844 C23.5313,186.4844 24.6875,186.1875 25.4375,185.6406 C26.0156,185.2344 26.3438,184.7813 26.3438,184.3906 C26.3438,183.9375 25.9531,183.5469 25.4844,183.5469 C25.2656,183.5469 25.0625,183.625 24.875,183.8125 C24.4219,184.2969 24.4219,184.2969 24.2344,184.3906 C23.8125,184.6563 23.125,184.7813 22.3594,184.7813 C20.3125,184.7813 19.0156,183.6875 19.0156,181.9844 L19.0156,180.8906 C19.0156,179.1094 20.2656,177.7969 22,177.7969 C22.5781,177.7969 23.1875,177.9531 23.6563,178.2031 C24.1406,178.4844 24.3125,178.7031 24.4063,179.1094 C24.4688,179.5156 24.5,179.6406 24.6406,179.7656 C24.7813,179.9063 25.0156,180.0156 25.2344,180.0156 C25.5,180.0156 25.7656,179.875 25.9375,179.6563 C26.0469,179.5 26.0781,179.3125 26.0781,178.8906 L26.0781,177.4688 C26.0781,177.0313 26.0625,176.9063 25.9688,176.75 C25.8125,176.4844 25.5313,176.3438 25.2344,176.3438 C24.9375,176.3438 24.7344,176.4375 24.5156,176.75 L24.3438,176.6719 Z " fill="#000000"/><text fill="#000000" font-family="sans-serif" font-size="12" lengthAdjust="spacing" textLength="54" x="36" y="185.1543">Farmacia</text><line style="stroke:#A80036;stroke-width:1.5;" x1="8" x2="92" y1="197" y2="197"/><text fill="#000000" font-family="sans-serif" font-size="11" lengthAdjust="spacing" textLength="21" x="13" y="211.2104">-NIF</text><text fill="#000000" font-family="sans-serif" font-size="11" lengthAdjust="spacing" textLength="36" x="13" y="224.0151">-email</text><!--MD5=[460034a14c91c8062cdb3d6e7324968c]
link Veiculo to Drone--><path codeLine="51" d="M846.143,107.716 C884.298,91.4 931.056,71.406 963.837,57.388 " fill="none" id="Veiculo-Drone" style="stroke:#A80036;stroke-width:1.0;"/><polygon fill="#000000" points="885.4027,72.5323,894.8748,71.6782,892.5638,66.2737,885.4027,72.5323" style="stroke:#000000;stroke-width:1.0;"/><text fill="#000000" font-family="sans-serif" font-size="13" lengthAdjust="spacing" textLength="8" x="899" y="75.0669">é</text><text fill="#000000" font-family="sans-serif" font-size="13" lengthAdjust="spacing" textLength="8" x="853.9243" y="117.493">1</text><text fill="#000000" font-family="sans-serif" font-size="13" lengthAdjust="spacing" textLength="8" x="947.9887" y="73.7775">1</text><!--MD5=[0fa340c3d135fb564aedca6a2c40d6f7]
link Veiculo to Scooter--><path codeLine="52" d="M846.143,170.176 C884.945,190.226 932.644,214.8715 965.491,231.844 " fill="none" id="Veiculo-Scooter" style="stroke:#A80036;stroke-width:1.0;"/><polygon fill="#000000" points="885.5579,176.2712,892.2446,183.0343,894.9428,177.8123,885.5579,176.2712" style="stroke:#000000;stroke-width:1.0;"/><text fill="#000000" font-family="sans-serif" font-size="13" lengthAdjust="spacing" textLength="8" x="899" y="183.0669">é</text><text fill="#000000" font-family="sans-serif" font-size="13" lengthAdjust="spacing" textLength="8" x="853.9243" y="186.7845">1</text><text fill="#000000" font-family="sans-serif" font-size="13" lengthAdjust="spacing" textLength="8" x="949.3768" y="241.6077">1</text><!--MD5=[4d4d66a582ec4263d33f69aa33f73dd1]
link Veiculo to EstadoVeiculo--><path codeLine="53" d="M846.143,137.473 C878.09,138.185 916.068,139.03 946.822,139.715 " fill="none" id="Veiculo-EstadoVeiculo" style="stroke:#A80036;stroke-width:1.0;"/><polygon fill="#000000" points="876.0012,129.4551,884.9787,132.5947,885.1095,126.7183,876.0012,129.4551" style="stroke:#000000;stroke-width:1.0;"/><text fill="#000000" font-family="sans-serif" font-size="13" lengthAdjust="spacing" textLength="26" x="890" y="134.0669">tem</text><text fill="#000000" font-family="sans-serif" font-size="13" lengthAdjust="spacing" textLength="8" x="853.9243" y="150.5047">1</text><text fill="#000000" font-family="sans-serif" font-size="13" lengthAdjust="spacing" textLength="8" x="931.1831" y="152.5712">1</text><!--MD5=[639e2fc5a451b1bb392d1ae296701488]
link Parque to Veiculo--><path codeLine="54" d="M313.048,83.73 C378.005,66.442 493.483,42.893 591,61 C632.785,68.759 677.03,86.047 711.987,102.071 " fill="none" id="Parque-Veiculo" style="stroke:#A80036;stroke-width:1.0;"/><polygon fill="#000000" points="509.4947,46.796,500.5942,43.4448,500.3242,49.3165,509.4947,46.796" style="stroke:#000000;stroke-width:1.0;"/><text fill="#000000" font-family="sans-serif" font-size="13" lengthAdjust="spacing" textLength="41" x="513.5" y="51.0669">possui</text><text fill="#000000" font-family="sans-serif" font-size="13" lengthAdjust="spacing" textLength="8" x="320.9298" y="94.6982">1</text><text fill="#000000" font-family="sans-serif" font-size="13" lengthAdjust="spacing" textLength="7" x="696.8339" y="111.0644">*</text><!--MD5=[3f261229c7309ba030e97986da9f3259]
link Parque to Estacionamento--><path codeLine="55" d="M313.312,101.522 C356.278,103.634 417.763,106.656 463.672,108.912 " fill="none" id="Parque-Estacionamento" style="stroke:#A80036;stroke-width:1.0;"/><polygon fill="#000000" points="377.994,94.8119,369.1041,91.4325,368.8155,97.3032,377.994,94.8119" style="stroke:#000000;stroke-width:1.0;"/><text fill="#000000" font-family="sans-serif" font-size="13" lengthAdjust="spacing" textLength="26" x="382" y="99.0669">tem</text><text fill="#000000" font-family="sans-serif" font-size="13" lengthAdjust="spacing" textLength="8" x="320.8789" y="114.9298">1</text><text fill="#000000" font-family="sans-serif" font-size="13" lengthAdjust="spacing" textLength="7" x="448.8872" y="121.5193">*</text><!--MD5=[1039b111a25a8fa482cc80fea0f097ce]
link Estacionamento to Veiculo--><path codeLine="56" d="M591.137,118.025 C627.946,121.566 674.442,126.038 711.844,129.636 " fill="none" id="Estacionamento-Veiculo" style="stroke:#A80036;stroke-width:1.0;"/><polygon fill="#000000" points="640.977,113.0452,632.2549,109.2537,631.6921,115.1045,640.977,113.0452" style="stroke:#000000;stroke-width:1.0;"/><text fill="#000000" font-family="sans-serif" font-size="13" lengthAdjust="spacing" textLength="26" x="645" y="117.0669">tem</text><text fill="#000000" font-family="sans-serif" font-size="13" lengthAdjust="spacing" textLength="8" x="598.9575" y="131.686">1</text><text fill="#000000" font-family="sans-serif" font-size="13" lengthAdjust="spacing" textLength="8" x="696.0613" y="141.8105">1</text><!--MD5=[79d5a61b37419f60a30a60f3bc0e499f]
link Farmacia to Veiculo--><path codeLine="57" d="M93.1058,196.3997 C184.137,192.692 405.992,182.322 591,163 C631.291,158.792 676.228,152.36 711.952,146.83 " fill="none" id="Farmacia-Veiculo" style="stroke:#A80036;stroke-width:1.0;"/><polygon fill="#000000" points="370.484,168.1672,361.2332,165.9598,361.7025,171.8189,370.484,168.1672" style="stroke:#000000;stroke-width:1.0;"/><text fill="#000000" font-family="sans-serif" font-size="13" lengthAdjust="spacing" textLength="41" x="374.5" y="173.0669">possui</text><text fill="#000000" font-family="sans-serif" font-size="13" lengthAdjust="spacing" textLength="8" x="100.9077" y="209.4871">1</text><text fill="#000000" font-family="sans-serif" font-size="13" lengthAdjust="spacing" textLength="7" x="696.7949" y="160.9987">*</text><!--MD5=[4f96609c99ecadb81dc825d0ae539cef]
link Farmacia to Parque--><path codeLine="58" d="M93.0429,178.085 C126.419,162.275 173.223,140.105 208.785,123.26 " fill="none" id="Farmacia-Parque" style="stroke:#A80036;stroke-width:1.0;"/><polygon fill="#000000" points="132.5187,128.426,123.0862,129.642,125.6024,134.9541,132.5187,128.426" style="stroke:#000000;stroke-width:1.0;"/><text fill="#000000" font-family="sans-serif" font-size="13" lengthAdjust="spacing" textLength="41" x="137" y="135.0669">possui</text><text fill="#000000" font-family="sans-serif" font-size="13" lengthAdjust="spacing" textLength="8" x="101.1284" y="188.063">1</text><text fill="#000000" font-family="sans-serif" font-size="13" lengthAdjust="spacing" textLength="7" x="193.9501" y="139.7871">*</text><!--MD5=[c85074c9090671f6c7988928e0d94203]
link Estafeta to Scooter--><path codeLine="59" d="M434.225,267.7637 C549.626,264.5738 856.015,256.1045 965.184,253.0868 " fill="none" id="Estafeta-Scooter" style="stroke:#A80036;stroke-width:1.0;"/><polygon fill="#000000" points="630.9981,251.4282,621.8753,248.7404,622.0377,254.616,630.9981,251.4282" style="stroke:#000000;stroke-width:1.0;"/><text fill="#000000" font-family="sans-serif" font-size="13" lengthAdjust="spacing" textLength="46" x="635" y="256.0669">conduz</text><text fill="#000000" font-family="sans-serif" font-size="13" lengthAdjust="spacing" textLength="8" x="442.1499" y="280.855">1</text><text fill="#000000" font-family="sans-serif" font-size="13" lengthAdjust="spacing" textLength="7" x="950.3793" y="266.7124">*</text><!--MD5=[06143d4fc5f7e61d4193d2b4f541983b]
link Farmacia to Estafeta--><path codeLine="60" d="M93.3186,227.3495 C102.7306,232.6958 112.918,237.6373 123,241 C197.249,265.7637 289.13,270.0097 342.744,270.0518 " fill="none" id="Farmacia-Estafeta" style="stroke:#A80036;stroke-width:1.0;"/><polygon fill="#000000" points="140.4283,233.4101,132.0089,228.987,131.017,234.7806,140.4283,233.4101" style="stroke:#000000;stroke-width:1.0;"/><text fill="#000000" font-family="sans-serif" font-size="13" lengthAdjust="spacing" textLength="26" x="144.5" y="237.0669">tem</text><text fill="#000000" font-family="sans-serif" font-size="13" lengthAdjust="spacing" textLength="8" x="100.86" y="245.331">1</text><text fill="#000000" font-family="sans-serif" font-size="13" lengthAdjust="spacing" textLength="7" x="327.8938" y="283.5078">*</text><!--MD5=[5bf0d2a4b9b5008a3fef3ebbb8a1d26f]
@startuml
skinparam classAttributeIconSize 0
hide methods
left to right direction

class Parque {
  -idParque
  -numeroMaximo
  -tipo
  -maxCap
}

class EstadoVeiculo {
  -idEstadoVeiculo
  -designacao
}

class Scooter {
  -idScooter
}

class Veiculo {
  -idveiculo
  -descricao
  -capacidade
  -percentagemBateria
  -pesoMaximo
  -pesoVeiculo
  -potencia
  -areaFrontal
}

class Drone {
  -idDrone
  -hoverPower
}

class Estafeta {
  -pesoEstafeta
}

class Estacionamento {
  -numeroLote
  -carregador
}

class Farmacia {
  -NIF
  -email
}

Veiculo "1" - - "1" Drone: é <
Veiculo "1" - - "1" Scooter: é <
Veiculo "1" - - "1" EstadoVeiculo: tem <
Parque "1" - - "*" Veiculo: possui >
Parque "1" - - "*" Estacionamento: tem >
Estacionamento "1" - - "1" Veiculo: tem >
Farmacia "1" - - "*" Veiculo: possui >
Farmacia "1" - - "*" Parque: possui >
Estafeta "1" - - "*" Scooter: conduz >
Farmacia "1" - - "*" Estafeta: tem >
@enduml

PlantUML version 1.2021.01beta7(Unknown compile time)
(GPL source distribution)
Java Runtime: Java(TM) SE Runtime Environment
JVM: Java HotSpot(TM) 64-Bit Server VM
Default Encoding: UTF-8
Language: en
Country: US
--></g></svg>