<?xml version="1.0" encoding="UTF-8" standalone="no"?><svg xmlns="http://www.w3.org/2000/svg" xmlns:xlink="http://www.w3.org/1999/xlink" contentScriptType="application/ecmascript" contentStyleType="text/css" height="1402px" preserveAspectRatio="none" style="width:829px;height:1402px;" version="1.1" viewBox="0 0 829 1402" width="829px" zoomAndPan="magnify"><defs><filter height="300%" id="f1glpza3i7fzaw" width="300%" x="-1" y="-1"><feGaussianBlur result="blurOut" stdDeviation="2.0"/><feColorMatrix in="blurOut" result="blurOut2" type="matrix" values="0 0 0 0 0 0 0 0 0 0 0 0 0 0 0 0 0 0 .4 0"/><feOffset dx="4.0" dy="4.0" in="blurOut2" result="blurOut3"/><feBlend in="SourceGraphic" in2="blurOut3" mode="normal"/></filter></defs><g><!--MD5=[64329f66403127555c35834fa29df181]
class EstacionamentoController--><rect codeLine="4" fill="#FEFECE" filter="url(#f1glpza3i7fzaw)" height="124.8281" id="EstacionamentoController" style="stroke:#A80036;stroke-width:1.5;" width="368" x="7" y="667"/><ellipse cx="109.75" cy="683" fill="#ADD1B2" rx="11" ry="11" style="stroke:#A80036;stroke-width:1.0;"/><path d="M112.0938,678.6719 C111.1563,678.2344 110.5625,678.0938 109.6875,678.0938 C107.0625,678.0938 105.0625,680.1719 105.0625,682.8906 L105.0625,684.0156 C105.0625,686.5938 107.1719,688.4844 110.0625,688.4844 C111.2813,688.4844 112.4375,688.1875 113.1875,687.6406 C113.7656,687.2344 114.0938,686.7813 114.0938,686.3906 C114.0938,685.9375 113.7031,685.5469 113.2344,685.5469 C113.0156,685.5469 112.8125,685.625 112.625,685.8125 C112.1719,686.2969 112.1719,686.2969 111.9844,686.3906 C111.5625,686.6563 110.875,686.7813 110.1094,686.7813 C108.0625,686.7813 106.7656,685.6875 106.7656,683.9844 L106.7656,682.8906 C106.7656,681.1094 108.0156,679.7969 109.75,679.7969 C110.3281,679.7969 110.9375,679.9531 111.4063,680.2031 C111.8906,680.4844 112.0625,680.7031 112.1563,681.1094 C112.2188,681.5156 112.25,681.6406 112.3906,681.7656 C112.5313,681.9063 112.7656,682.0156 112.9844,682.0156 C113.25,682.0156 113.5156,681.875 113.6875,681.6563 C113.7969,681.5 113.8281,681.3125 113.8281,680.8906 L113.8281,679.4688 C113.8281,679.0313 113.8125,678.9063 113.7188,678.75 C113.5625,678.4844 113.2813,678.3438 112.9844,678.3438 C112.6875,678.3438 112.4844,678.4375 112.2656,678.75 L112.0938,678.6719 Z " fill="#000000"/><text fill="#000000" font-family="sans-serif" font-size="12" lengthAdjust="spacing" textLength="154" x="130.25" y="687.1543">EstacionamentoController</text><line style="stroke:#A80036;stroke-width:1.5;" x1="8" x2="374" y1="699" y2="699"/><line style="stroke:#A80036;stroke-width:1.5;" x1="8" x2="374" y1="707" y2="707"/><text fill="#000000" font-family="sans-serif" font-size="11" lengthAdjust="spacing" textLength="121" x="13" y="721.2104">+checkParkings(path)</text><text fill="#000000" font-family="sans-serif" font-size="11" lengthAdjust="spacing" textLength="173" x="13" y="734.0151">+simulateParkingVeiculo(path)</text><text fill="#000000" font-family="sans-serif" font-size="11" lengthAdjust="spacing" textLength="297" x="13" y="746.8198">+notificaEstafeta(bemEstacionado,estimativa,email)</text><text fill="#000000" font-family="sans-serif" font-size="11" lengthAdjust="spacing" textLength="356" x="13" y="759.6245">+notificaAdministrador(bemEstacionado, estimativa, IdVeiculo)</text><text fill="#000000" font-family="sans-serif" font-size="11" lengthAdjust="spacing" textLength="211" x="13" y="772.4292">+updateEstimativa(estimativa,email)</text><text fill="#000000" font-family="sans-serif" font-size="11" lengthAdjust="spacing" textLength="107" x="13" y="785.2339">+getDiretory(path)</text><!--MD5=[6702278d4dc2e5fb5cb52bce102fc058]
class EmailDB--><rect codeLine="13" fill="#FEFECE" filter="url(#f1glpza3i7fzaw)" height="60.8047" id="EmailDB" style="stroke:#A80036;stroke-width:1.5;" width="332" x="459.5" y="1328"/><ellipse cx="597.25" cy="1344" fill="#ADD1B2" rx="11" ry="11" style="stroke:#A80036;stroke-width:1.0;"/><path d="M599.5938,1339.6719 C598.6563,1339.2344 598.0625,1339.0938 597.1875,1339.0938 C594.5625,1339.0938 592.5625,1341.1719 592.5625,1343.8906 L592.5625,1345.0156 C592.5625,1347.5938 594.6719,1349.4844 597.5625,1349.4844 C598.7813,1349.4844 599.9375,1349.1875 600.6875,1348.6406 C601.2656,1348.2344 601.5938,1347.7813 601.5938,1347.3906 C601.5938,1346.9375 601.2031,1346.5469 600.7344,1346.5469 C600.5156,1346.5469 600.3125,1346.625 600.125,1346.8125 C599.6719,1347.2969 599.6719,1347.2969 599.4844,1347.3906 C599.0625,1347.6563 598.375,1347.7813 597.6094,1347.7813 C595.5625,1347.7813 594.2656,1346.6875 594.2656,1344.9844 L594.2656,1343.8906 C594.2656,1342.1094 595.5156,1340.7969 597.25,1340.7969 C597.8281,1340.7969 598.4375,1340.9531 598.9063,1341.2031 C599.3906,1341.4844 599.5625,1341.7031 599.6563,1342.1094 C599.7188,1342.5156 599.75,1342.6406 599.8906,1342.7656 C600.0313,1342.9063 600.2656,1343.0156 600.4844,1343.0156 C600.75,1343.0156 601.0156,1342.875 601.1875,1342.6563 C601.2969,1342.5 601.3281,1342.3125 601.3281,1341.8906 L601.3281,1340.4688 C601.3281,1340.0313 601.3125,1339.9063 601.2188,1339.75 C601.0625,1339.4844 600.7813,1339.3438 600.4844,1339.3438 C600.1875,1339.3438 599.9844,1339.4375 599.7656,1339.75 L599.5938,1339.6719 Z " fill="#000000"/><text fill="#000000" font-family="sans-serif" font-size="12" lengthAdjust="spacing" textLength="48" x="617.75" y="1348.1543">EmailDB</text><line style="stroke:#A80036;stroke-width:1.5;" x1="460.5" x2="790.5" y1="1360" y2="1360"/><line style="stroke:#A80036;stroke-width:1.5;" x1="460.5" x2="790.5" y1="1368" y2="1368"/><text fill="#000000" font-family="sans-serif" font-size="11" lengthAdjust="spacing" textLength="320" x="465.5" y="1382.2104">+sendEmail(emailOrig, emailDest, assunto, mensagem)</text><!--MD5=[b6e6d2da3cdc6683723606663c23b38a]
class EstacionamentosDB--><rect codeLine="17" fill="#FEFECE" filter="url(#f1glpza3i7fzaw)" height="99.2188" id="EstacionamentosDB" style="stroke:#A80036;stroke-width:1.5;" width="379" x="436" y="7"/><ellipse cx="561.75" cy="23" fill="#ADD1B2" rx="11" ry="11" style="stroke:#A80036;stroke-width:1.0;"/><path d="M564.0938,18.6719 C563.1563,18.2344 562.5625,18.0938 561.6875,18.0938 C559.0625,18.0938 557.0625,20.1719 557.0625,22.8906 L557.0625,24.0156 C557.0625,26.5938 559.1719,28.4844 562.0625,28.4844 C563.2813,28.4844 564.4375,28.1875 565.1875,27.6406 C565.7656,27.2344 566.0938,26.7813 566.0938,26.3906 C566.0938,25.9375 565.7031,25.5469 565.2344,25.5469 C565.0156,25.5469 564.8125,25.625 564.625,25.8125 C564.1719,26.2969 564.1719,26.2969 563.9844,26.3906 C563.5625,26.6563 562.875,26.7813 562.1094,26.7813 C560.0625,26.7813 558.7656,25.6875 558.7656,23.9844 L558.7656,22.8906 C558.7656,21.1094 560.0156,19.7969 561.75,19.7969 C562.3281,19.7969 562.9375,19.9531 563.4063,20.2031 C563.8906,20.4844 564.0625,20.7031 564.1563,21.1094 C564.2188,21.5156 564.25,21.6406 564.3906,21.7656 C564.5313,21.9063 564.7656,22.0156 564.9844,22.0156 C565.25,22.0156 565.5156,21.875 565.6875,21.6563 C565.7969,21.5 565.8281,21.3125 565.8281,20.8906 L565.8281,19.4688 C565.8281,19.0313 565.8125,18.9063 565.7188,18.75 C565.5625,18.4844 565.2813,18.3438 564.9844,18.3438 C564.6875,18.3438 564.4844,18.4375 564.2656,18.75 L564.0938,18.6719 Z " fill="#000000"/><text fill="#000000" font-family="sans-serif" font-size="12" lengthAdjust="spacing" textLength="119" x="582.25" y="27.1543">EstacionamentosDB</text><line style="stroke:#A80036;stroke-width:1.5;" x1="437" x2="814" y1="39" y2="39"/><text fill="#000000" font-family="sans-serif" font-size="11" lengthAdjust="spacing" textLength="141" x="442" y="53.2104">-static String adminEmail</text><line style="stroke:#A80036;stroke-width:1.5;" x1="437" x2="814" y1="59.8047" y2="59.8047"/><text fill="#000000" font-family="sans-serif" font-size="11" lengthAdjust="spacing" textLength="258" x="442" y="74.0151">+getEstacionamentoById(loteEstacionameto)</text><text fill="#000000" font-family="sans-serif" font-size="11" lengthAdjust="spacing" textLength="309" x="442" y="86.8198">+getEstacionamentoVeiculo(estacionamento, veiculo)</text><text fill="#000000" font-family="sans-serif" font-size="11" lengthAdjust="spacing" textLength="367" x="442" y="99.6245">+addEstacionamentoVeiculo(estacionamento, veiculo, idParque)</text><!--MD5=[fdc0efc5253b4b251338dbb2cf88d917]
class VeiculoDB--><rect codeLine="24" fill="#FEFECE" filter="url(#f1glpza3i7fzaw)" height="73.6094" id="VeiculoDB" style="stroke:#A80036;stroke-width:1.5;" width="167" x="542" y="278.5"/><ellipse cx="590.75" cy="294.5" fill="#ADD1B2" rx="11" ry="11" style="stroke:#A80036;stroke-width:1.0;"/><path d="M593.0938,290.1719 C592.1563,289.7344 591.5625,289.5938 590.6875,289.5938 C588.0625,289.5938 586.0625,291.6719 586.0625,294.3906 L586.0625,295.5156 C586.0625,298.0938 588.1719,299.9844 591.0625,299.9844 C592.2813,299.9844 593.4375,299.6875 594.1875,299.1406 C594.7656,298.7344 595.0938,298.2813 595.0938,297.8906 C595.0938,297.4375 594.7031,297.0469 594.2344,297.0469 C594.0156,297.0469 593.8125,297.125 593.625,297.3125 C593.1719,297.7969 593.1719,297.7969 592.9844,297.8906 C592.5625,298.1563 591.875,298.2813 591.1094,298.2813 C589.0625,298.2813 587.7656,297.1875 587.7656,295.4844 L587.7656,294.3906 C587.7656,292.6094 589.0156,291.2969 590.75,291.2969 C591.3281,291.2969 591.9375,291.4531 592.4063,291.7031 C592.8906,291.9844 593.0625,292.2031 593.1563,292.6094 C593.2188,293.0156 593.25,293.1406 593.3906,293.2656 C593.5313,293.4063 593.7656,293.5156 593.9844,293.5156 C594.25,293.5156 594.5156,293.375 594.6875,293.1563 C594.7969,293 594.8281,292.8125 594.8281,292.3906 L594.8281,290.9688 C594.8281,290.5313 594.8125,290.4063 594.7188,290.25 C594.5625,289.9844 594.2813,289.8438 593.9844,289.8438 C593.6875,289.8438 593.4844,289.9375 593.2656,290.25 L593.0938,290.1719 Z " fill="#000000"/><text fill="#000000" font-family="sans-serif" font-size="12" lengthAdjust="spacing" textLength="61" x="611.25" y="298.6543">VeiculoDB</text><line style="stroke:#A80036;stroke-width:1.5;" x1="543" x2="708" y1="310.5" y2="310.5"/><line style="stroke:#A80036;stroke-width:1.5;" x1="543" x2="708" y1="318.5" y2="318.5"/><text fill="#000000" font-family="sans-serif" font-size="11" lengthAdjust="spacing" textLength="155" x="548" y="332.7104">+getVeiculoById(idVeiculo)</text><text fill="#000000" font-family="sans-serif" font-size="11" lengthAdjust="spacing" textLength="140" x="548" y="345.5151">+updateVeiculo(veiculo)</text><!--MD5=[021650fd5270df78a3629eada2205323]
class ParqueDB--><rect codeLine="29" fill="#FEFECE" filter="url(#f1glpza3i7fzaw)" height="60.8047" id="ParqueDB" style="stroke:#A80036;stroke-width:1.5;" width="163" x="544" y="699"/><ellipse cx="592.25" cy="715" fill="#ADD1B2" rx="11" ry="11" style="stroke:#A80036;stroke-width:1.0;"/><path d="M594.5938,710.6719 C593.6563,710.2344 593.0625,710.0938 592.1875,710.0938 C589.5625,710.0938 587.5625,712.1719 587.5625,714.8906 L587.5625,716.0156 C587.5625,718.5938 589.6719,720.4844 592.5625,720.4844 C593.7813,720.4844 594.9375,720.1875 595.6875,719.6406 C596.2656,719.2344 596.5938,718.7813 596.5938,718.3906 C596.5938,717.9375 596.2031,717.5469 595.7344,717.5469 C595.5156,717.5469 595.3125,717.625 595.125,717.8125 C594.6719,718.2969 594.6719,718.2969 594.4844,718.3906 C594.0625,718.6563 593.375,718.7813 592.6094,718.7813 C590.5625,718.7813 589.2656,717.6875 589.2656,715.9844 L589.2656,714.8906 C589.2656,713.1094 590.5156,711.7969 592.25,711.7969 C592.8281,711.7969 593.4375,711.9531 593.9063,712.2031 C594.3906,712.4844 594.5625,712.7031 594.6563,713.1094 C594.7188,713.5156 594.75,713.6406 594.8906,713.7656 C595.0313,713.9063 595.2656,714.0156 595.4844,714.0156 C595.75,714.0156 596.0156,713.875 596.1875,713.6563 C596.2969,713.5 596.3281,713.3125 596.3281,712.8906 L596.3281,711.4688 C596.3281,711.0313 596.3125,710.9063 596.2188,710.75 C596.0625,710.4844 595.7813,710.3438 595.4844,710.3438 C595.1875,710.3438 594.9844,710.4375 594.7656,710.75 L594.5938,710.6719 Z " fill="#000000"/><text fill="#000000" font-family="sans-serif" font-size="12" lengthAdjust="spacing" textLength="58" x="612.75" y="719.1543">ParqueDB</text><line style="stroke:#A80036;stroke-width:1.5;" x1="545" x2="706" y1="731" y2="731"/><line style="stroke:#A80036;stroke-width:1.5;" x1="545" x2="706" y1="739" y2="739"/><text fill="#000000" font-family="sans-serif" font-size="11" lengthAdjust="spacing" textLength="151" x="550" y="753.2104">+getParqueByID(idParque)</text><!--MD5=[4ac2c1498d2c03198090a24b8c54d335]
class EstafetaDB--><rect codeLine="33" fill="#FEFECE" filter="url(#f1glpza3i7fzaw)" height="60.8047" id="EstafetaDB" style="stroke:#A80036;stroke-width:1.5;" width="241" x="505" y="959"/><ellipse cx="588.75" cy="975" fill="#ADD1B2" rx="11" ry="11" style="stroke:#A80036;stroke-width:1.0;"/><path d="M591.0938,970.6719 C590.1563,970.2344 589.5625,970.0938 588.6875,970.0938 C586.0625,970.0938 584.0625,972.1719 584.0625,974.8906 L584.0625,976.0156 C584.0625,978.5938 586.1719,980.4844 589.0625,980.4844 C590.2813,980.4844 591.4375,980.1875 592.1875,979.6406 C592.7656,979.2344 593.0938,978.7813 593.0938,978.3906 C593.0938,977.9375 592.7031,977.5469 592.2344,977.5469 C592.0156,977.5469 591.8125,977.625 591.625,977.8125 C591.1719,978.2969 591.1719,978.2969 590.9844,978.3906 C590.5625,978.6563 589.875,978.7813 589.1094,978.7813 C587.0625,978.7813 585.7656,977.6875 585.7656,975.9844 L585.7656,974.8906 C585.7656,973.1094 587.0156,971.7969 588.75,971.7969 C589.3281,971.7969 589.9375,971.9531 590.4063,972.2031 C590.8906,972.4844 591.0625,972.7031 591.1563,973.1094 C591.2188,973.5156 591.25,973.6406 591.3906,973.7656 C591.5313,973.9063 591.7656,974.0156 591.9844,974.0156 C592.25,974.0156 592.5156,973.875 592.6875,973.6563 C592.7969,973.5 592.8281,973.3125 592.8281,972.8906 L592.8281,971.4688 C592.8281,971.0313 592.8125,970.9063 592.7188,970.75 C592.5625,970.4844 592.2813,970.3438 591.9844,970.3438 C591.6875,970.3438 591.4844,970.4375 591.2656,970.75 L591.0938,970.6719 Z " fill="#000000"/><text fill="#000000" font-family="sans-serif" font-size="12" lengthAdjust="spacing" textLength="65" x="609.25" y="979.1543">EstafetaDB</text><line style="stroke:#A80036;stroke-width:1.5;" x1="506" x2="745" y1="991" y2="991"/><line style="stroke:#A80036;stroke-width:1.5;" x1="506" x2="745" y1="999" y2="999"/><text fill="#000000" font-family="sans-serif" font-size="11" lengthAdjust="spacing" textLength="229" x="511" y="1013.2104">+getUtilizadorEstafetaByNIF(nifEstafeta)</text><!--MD5=[d6f7ff8a01a1f4d455865514bc16ec87]
class Estacionamento--><rect codeLine="37" fill="#FEFECE" filter="url(#f1glpza3i7fzaw)" height="86.4141" id="Estacionamento" style="stroke:#A80036;stroke-width:1.5;" width="127" x="562" y="157.5"/><ellipse cx="577" cy="173.5" fill="#ADD1B2" rx="11" ry="11" style="stroke:#A80036;stroke-width:1.0;"/><path d="M579.3438,169.1719 C578.4063,168.7344 577.8125,168.5938 576.9375,168.5938 C574.3125,168.5938 572.3125,170.6719 572.3125,173.3906 L572.3125,174.5156 C572.3125,177.0938 574.4219,178.9844 577.3125,178.9844 C578.5313,178.9844 579.6875,178.6875 580.4375,178.1406 C581.0156,177.7344 581.3438,177.2813 581.3438,176.8906 C581.3438,176.4375 580.9531,176.0469 580.4844,176.0469 C580.2656,176.0469 580.0625,176.125 579.875,176.3125 C579.4219,176.7969 579.4219,176.7969 579.2344,176.8906 C578.8125,177.1563 578.125,177.2813 577.3594,177.2813 C575.3125,177.2813 574.0156,176.1875 574.0156,174.4844 L574.0156,173.3906 C574.0156,171.6094 575.2656,170.2969 577,170.2969 C577.5781,170.2969 578.1875,170.4531 578.6563,170.7031 C579.1406,170.9844 579.3125,171.2031 579.4063,171.6094 C579.4688,172.0156 579.5,172.1406 579.6406,172.2656 C579.7813,172.4063 580.0156,172.5156 580.2344,172.5156 C580.5,172.5156 580.7656,172.375 580.9375,172.1563 C581.0469,172 581.0781,171.8125 581.0781,171.3906 L581.0781,169.9688 C581.0781,169.5313 581.0625,169.4063 580.9688,169.25 C580.8125,168.9844 580.5313,168.8438 580.2344,168.8438 C579.9375,168.8438 579.7344,168.9375 579.5156,169.25 L579.3438,169.1719 Z " fill="#000000"/><text fill="#000000" font-family="sans-serif" font-size="12" lengthAdjust="spacing" textLength="95" x="591" y="177.6543">Estacionamento</text><line style="stroke:#A80036;stroke-width:1.5;" x1="563" x2="688" y1="189.5" y2="189.5"/><text fill="#000000" font-family="sans-serif" font-size="11" lengthAdjust="spacing" textLength="94" x="568" y="203.7104">-int numeroLote;</text><text fill="#000000" font-family="sans-serif" font-size="11" lengthAdjust="spacing" textLength="86" x="568" y="216.5151">-int carregador;</text><text fill="#000000" font-family="sans-serif" font-size="11" lengthAdjust="spacing" textLength="74" x="568" y="229.3198">-int idParque;</text><line style="stroke:#A80036;stroke-width:1.5;" x1="563" x2="688" y1="235.9141" y2="235.9141"/><!--MD5=[8505c5852735283b5a8424161266bb9f]
class Veiculo--><rect codeLine="43" fill="#FEFECE" filter="url(#f1glpza3i7fzaw)" height="150.4375" id="Veiculo" style="stroke:#A80036;stroke-width:1.5;" width="180" x="535.5" y="404.5"/><ellipse cx="599.25" cy="420.5" fill="#ADD1B2" rx="11" ry="11" style="stroke:#A80036;stroke-width:1.0;"/><path d="M601.5938,416.1719 C600.6563,415.7344 600.0625,415.5938 599.1875,415.5938 C596.5625,415.5938 594.5625,417.6719 594.5625,420.3906 L594.5625,421.5156 C594.5625,424.0938 596.6719,425.9844 599.5625,425.9844 C600.7813,425.9844 601.9375,425.6875 602.6875,425.1406 C603.2656,424.7344 603.5938,424.2813 603.5938,423.8906 C603.5938,423.4375 603.2031,423.0469 602.7344,423.0469 C602.5156,423.0469 602.3125,423.125 602.125,423.3125 C601.6719,423.7969 601.6719,423.7969 601.4844,423.8906 C601.0625,424.1563 600.375,424.2813 599.6094,424.2813 C597.5625,424.2813 596.2656,423.1875 596.2656,421.4844 L596.2656,420.3906 C596.2656,418.6094 597.5156,417.2969 599.25,417.2969 C599.8281,417.2969 600.4375,417.4531 600.9063,417.7031 C601.3906,417.9844 601.5625,418.2031 601.6563,418.6094 C601.7188,419.0156 601.75,419.1406 601.8906,419.2656 C602.0313,419.4063 602.2656,419.5156 602.4844,419.5156 C602.75,419.5156 603.0156,419.375 603.1875,419.1563 C603.2969,419 603.3281,418.8125 603.3281,418.3906 L603.3281,416.9688 C603.3281,416.5313 603.3125,416.4063 603.2188,416.25 C603.0625,415.9844 602.7813,415.8438 602.4844,415.8438 C602.1875,415.8438 601.9844,415.9375 601.7656,416.25 L601.5938,416.1719 Z " fill="#000000"/><text fill="#000000" font-family="sans-serif" font-size="12" lengthAdjust="spacing" textLength="44" x="619.75" y="424.6543">Veiculo</text><line style="stroke:#A80036;stroke-width:1.5;" x1="536.5" x2="714.5" y1="436.5" y2="436.5"/><text fill="#000000" font-family="sans-serif" font-size="11" lengthAdjust="spacing" textLength="35" x="541.5" y="450.7104">-int id;</text><text fill="#000000" font-family="sans-serif" font-size="11" lengthAdjust="spacing" textLength="98" x="541.5" y="463.5151">-String descricao;</text><text fill="#000000" font-family="sans-serif" font-size="11" lengthAdjust="spacing" textLength="115" x="541.5" y="476.3198">-double capacidade;</text><text fill="#000000" font-family="sans-serif" font-size="11" lengthAdjust="spacing" textLength="168" x="541.5" y="489.1245">-double percentagemBateria;</text><text fill="#000000" font-family="sans-serif" font-size="11" lengthAdjust="spacing" textLength="122" x="541.5" y="501.9292">-double pesoMaximo;</text><text fill="#000000" font-family="sans-serif" font-size="11" lengthAdjust="spacing" textLength="120" x="541.5" y="514.7339">-double pesoVeiculo;</text><text fill="#000000" font-family="sans-serif" font-size="11" lengthAdjust="spacing" textLength="99" x="541.5" y="527.5386">-double potencia;</text><text fill="#000000" font-family="sans-serif" font-size="11" lengthAdjust="spacing" textLength="114" x="541.5" y="540.3433">-double areaFrontal;</text><line style="stroke:#A80036;stroke-width:1.5;" x1="536.5" x2="714.5" y1="546.9375" y2="546.9375"/><!--MD5=[a656e5e079c9813af42e0e9dd198231c]
class EstadoVeiculo--><rect codeLine="54" fill="#FEFECE" filter="url(#f1glpza3i7fzaw)" height="73.6094" id="EstadoVeiculo" style="stroke:#A80036;stroke-width:1.5;" width="155" x="548" y="589.5"/><ellipse cx="580.1" cy="605.5" fill="#ADD1B2" rx="11" ry="11" style="stroke:#A80036;stroke-width:1.0;"/><path d="M582.4438,601.1719 C581.5063,600.7344 580.9125,600.5938 580.0375,600.5938 C577.4125,600.5938 575.4125,602.6719 575.4125,605.3906 L575.4125,606.5156 C575.4125,609.0938 577.5219,610.9844 580.4125,610.9844 C581.6313,610.9844 582.7875,610.6875 583.5375,610.1406 C584.1156,609.7344 584.4438,609.2813 584.4438,608.8906 C584.4438,608.4375 584.0531,608.0469 583.5844,608.0469 C583.3656,608.0469 583.1625,608.125 582.975,608.3125 C582.5219,608.7969 582.5219,608.7969 582.3344,608.8906 C581.9125,609.1563 581.225,609.2813 580.4594,609.2813 C578.4125,609.2813 577.1156,608.1875 577.1156,606.4844 L577.1156,605.3906 C577.1156,603.6094 578.3656,602.2969 580.1,602.2969 C580.6781,602.2969 581.2875,602.4531 581.7563,602.7031 C582.2406,602.9844 582.4125,603.2031 582.5063,603.6094 C582.5688,604.0156 582.6,604.1406 582.7406,604.2656 C582.8813,604.4063 583.1156,604.5156 583.3344,604.5156 C583.6,604.5156 583.8656,604.375 584.0375,604.1563 C584.1469,604 584.1781,603.8125 584.1781,603.3906 L584.1781,601.9688 C584.1781,601.5313 584.1625,601.4063 584.0688,601.25 C583.9125,600.9844 583.6313,600.8438 583.3344,600.8438 C583.0375,600.8438 582.8344,600.9375 582.6156,601.25 L582.4438,601.1719 Z " fill="#000000"/><text fill="#000000" font-family="sans-serif" font-size="12" lengthAdjust="spacing" textLength="85" x="597.9" y="609.6543">EstadoVeiculo</text><line style="stroke:#A80036;stroke-width:1.5;" x1="549" x2="702" y1="621.5" y2="621.5"/><text fill="#000000" font-family="sans-serif" font-size="11" lengthAdjust="spacing" textLength="143" x="554" y="635.7104">-final int idEstadoVeiculo;</text><text fill="#000000" font-family="sans-serif" font-size="11" lengthAdjust="spacing" textLength="109" x="554" y="648.5151">-String designacao;</text><line style="stroke:#A80036;stroke-width:1.5;" x1="549" x2="702" y1="655.1094" y2="655.1094"/><!--MD5=[1a083dbe42a284ae0ea7f6f701783206]
class Parque--><rect codeLine="59" fill="#FEFECE" filter="url(#f1glpza3i7fzaw)" height="112.0234" id="Parque" style="stroke:#A80036;stroke-width:1.5;" width="125" x="563" y="811.5"/><ellipse cx="601.4" cy="827.5" fill="#ADD1B2" rx="11" ry="11" style="stroke:#A80036;stroke-width:1.0;"/><path d="M603.7438,823.1719 C602.8063,822.7344 602.2125,822.5938 601.3375,822.5938 C598.7125,822.5938 596.7125,824.6719 596.7125,827.3906 L596.7125,828.5156 C596.7125,831.0938 598.8219,832.9844 601.7125,832.9844 C602.9313,832.9844 604.0875,832.6875 604.8375,832.1406 C605.4156,831.7344 605.7438,831.2813 605.7438,830.8906 C605.7438,830.4375 605.3531,830.0469 604.8844,830.0469 C604.6656,830.0469 604.4625,830.125 604.275,830.3125 C603.8219,830.7969 603.8219,830.7969 603.6344,830.8906 C603.2125,831.1563 602.525,831.2813 601.7594,831.2813 C599.7125,831.2813 598.4156,830.1875 598.4156,828.4844 L598.4156,827.3906 C598.4156,825.6094 599.6656,824.2969 601.4,824.2969 C601.9781,824.2969 602.5875,824.4531 603.0563,824.7031 C603.5406,824.9844 603.7125,825.2031 603.8063,825.6094 C603.8688,826.0156 603.9,826.1406 604.0406,826.2656 C604.1813,826.4063 604.4156,826.5156 604.6344,826.5156 C604.9,826.5156 605.1656,826.375 605.3375,826.1563 C605.4469,826 605.4781,825.8125 605.4781,825.3906 L605.4781,823.9688 C605.4781,823.5313 605.4625,823.4063 605.3688,823.25 C605.2125,822.9844 604.9313,822.8438 604.6344,822.8438 C604.3375,822.8438 604.1344,822.9375 603.9156,823.25 L603.7438,823.1719 Z " fill="#000000"/><text fill="#000000" font-family="sans-serif" font-size="12" lengthAdjust="spacing" textLength="41" x="620.6" y="831.6543">Parque</text><line style="stroke:#A80036;stroke-width:1.5;" x1="564" x2="687" y1="843.5" y2="843.5"/><text fill="#000000" font-family="sans-serif" font-size="11" lengthAdjust="spacing" textLength="39" x="569" y="857.7104">-int nif;</text><text fill="#000000" font-family="sans-serif" font-size="11" lengthAdjust="spacing" textLength="113" x="569" y="870.5151">-int numeroMaximo;</text><text fill="#000000" font-family="sans-serif" font-size="11" lengthAdjust="spacing" textLength="65" x="569" y="883.3198">-String tipo;</text><text fill="#000000" font-family="sans-serif" font-size="11" lengthAdjust="spacing" textLength="74" x="569" y="896.1245">-int idParque;</text><text fill="#000000" font-family="sans-serif" font-size="11" lengthAdjust="spacing" textLength="72" x="569" y="908.9292">-int maxCap;</text><line style="stroke:#A80036;stroke-width:1.5;" x1="564" x2="687" y1="915.5234" y2="915.5234"/><!--MD5=[3f1202280bfe3359d2f91fb9b6e32986]
class Estafeta--><rect codeLine="67" fill="#FEFECE" filter="url(#f1glpza3i7fzaw)" height="73.6094" id="Estafeta" style="stroke:#A80036;stroke-width:1.5;" width="137" x="557" y="1071.5"/><ellipse cx="597.65" cy="1087.5" fill="#ADD1B2" rx="11" ry="11" style="stroke:#A80036;stroke-width:1.0;"/><path d="M599.9938,1083.1719 C599.0563,1082.7344 598.4625,1082.5938 597.5875,1082.5938 C594.9625,1082.5938 592.9625,1084.6719 592.9625,1087.3906 L592.9625,1088.5156 C592.9625,1091.0938 595.0719,1092.9844 597.9625,1092.9844 C599.1813,1092.9844 600.3375,1092.6875 601.0875,1092.1406 C601.6656,1091.7344 601.9938,1091.2813 601.9938,1090.8906 C601.9938,1090.4375 601.6031,1090.0469 601.1344,1090.0469 C600.9156,1090.0469 600.7125,1090.125 600.525,1090.3125 C600.0719,1090.7969 600.0719,1090.7969 599.8844,1090.8906 C599.4625,1091.1563 598.775,1091.2813 598.0094,1091.2813 C595.9625,1091.2813 594.6656,1090.1875 594.6656,1088.4844 L594.6656,1087.3906 C594.6656,1085.6094 595.9156,1084.2969 597.65,1084.2969 C598.2281,1084.2969 598.8375,1084.4531 599.3063,1084.7031 C599.7906,1084.9844 599.9625,1085.2031 600.0563,1085.6094 C600.1188,1086.0156 600.15,1086.1406 600.2906,1086.2656 C600.4313,1086.4063 600.6656,1086.5156 600.8844,1086.5156 C601.15,1086.5156 601.4156,1086.375 601.5875,1086.1563 C601.6969,1086 601.7281,1085.8125 601.7281,1085.3906 L601.7281,1083.9688 C601.7281,1083.5313 601.7125,1083.4063 601.6188,1083.25 C601.4625,1082.9844 601.1813,1082.8438 600.8844,1082.8438 C600.5875,1082.8438 600.3844,1082.9375 600.1656,1083.25 L599.9938,1083.1719 Z " fill="#000000"/><text fill="#000000" font-family="sans-serif" font-size="12" lengthAdjust="spacing" textLength="48" x="617.35" y="1091.6543">Estafeta</text><line style="stroke:#A80036;stroke-width:1.5;" x1="558" x2="693" y1="1103.5" y2="1103.5"/><text fill="#000000" font-family="sans-serif" font-size="11" lengthAdjust="spacing" textLength="125" x="563" y="1117.7104">-double pesoEstafeta;</text><text fill="#000000" font-family="sans-serif" font-size="11" lengthAdjust="spacing" textLength="73" x="563" y="1130.5151">-int idEstado;</text><line style="stroke:#A80036;stroke-width:1.5;" x1="558" x2="693" y1="1137.1094" y2="1137.1094"/><!--MD5=[5dd1d6732c071e710b9290b531f2fa3b]
class Utilizador--><rect codeLine="72" fill="#FEFECE" filter="url(#f1glpza3i7fzaw)" height="112.0234" id="Utilizador" style="stroke:#A80036;stroke-width:1.5;" width="176" x="537.5" y="1180.5"/><ellipse cx="592.75" cy="1196.5" fill="#ADD1B2" rx="11" ry="11" style="stroke:#A80036;stroke-width:1.0;"/><path d="M595.0938,1192.1719 C594.1563,1191.7344 593.5625,1191.5938 592.6875,1191.5938 C590.0625,1191.5938 588.0625,1193.6719 588.0625,1196.3906 L588.0625,1197.5156 C588.0625,1200.0938 590.1719,1201.9844 593.0625,1201.9844 C594.2813,1201.9844 595.4375,1201.6875 596.1875,1201.1406 C596.7656,1200.7344 597.0938,1200.2813 597.0938,1199.8906 C597.0938,1199.4375 596.7031,1199.0469 596.2344,1199.0469 C596.0156,1199.0469 595.8125,1199.125 595.625,1199.3125 C595.1719,1199.7969 595.1719,1199.7969 594.9844,1199.8906 C594.5625,1200.1563 593.875,1200.2813 593.1094,1200.2813 C591.0625,1200.2813 589.7656,1199.1875 589.7656,1197.4844 L589.7656,1196.3906 C589.7656,1194.6094 591.0156,1193.2969 592.75,1193.2969 C593.3281,1193.2969 593.9375,1193.4531 594.4063,1193.7031 C594.8906,1193.9844 595.0625,1194.2031 595.1563,1194.6094 C595.2188,1195.0156 595.25,1195.1406 595.3906,1195.2656 C595.5313,1195.4063 595.7656,1195.5156 595.9844,1195.5156 C596.25,1195.5156 596.5156,1195.375 596.6875,1195.1563 C596.7969,1195 596.8281,1194.8125 596.8281,1194.3906 L596.8281,1192.9688 C596.8281,1192.5313 596.8125,1192.4063 596.7188,1192.25 C596.5625,1191.9844 596.2813,1191.8438 595.9844,1191.8438 C595.6875,1191.8438 595.4844,1191.9375 595.2656,1192.25 L595.0938,1192.1719 Z " fill="#000000"/><text fill="#000000" font-family="sans-serif" font-size="12" lengthAdjust="spacing" textLength="57" x="613.25" y="1200.6543">Utilizador</text><line style="stroke:#A80036;stroke-width:1.5;" x1="538.5" x2="712.5" y1="1212.5" y2="1212.5"/><text fill="#000000" font-family="sans-serif" font-size="11" lengthAdjust="spacing" textLength="39" x="543.5" y="1226.7104">-int nif;</text><text fill="#000000" font-family="sans-serif" font-size="11" lengthAdjust="spacing" textLength="77" x="543.5" y="1239.5151">-String nome;</text><text fill="#000000" font-family="sans-serif" font-size="11" lengthAdjust="spacing" textLength="76" x="543.5" y="1252.3198">-String email;</text><text fill="#000000" font-family="sans-serif" font-size="11" lengthAdjust="spacing" textLength="164" x="543.5" y="1265.1245">-int numeroSegurancaSocial;</text><text fill="#000000" font-family="sans-serif" font-size="11" lengthAdjust="spacing" textLength="97" x="543.5" y="1277.9292">-String password;</text><line style="stroke:#A80036;stroke-width:1.5;" x1="538.5" x2="712.5" y1="1284.5234" y2="1284.5234"/><!--MD5=[0a6107d58dd83d9334a7afef7f525294]
link EstacionamentoController to EstacionamentosDB--><path codeLine="81" d="M202.058,666.768 C224.036,548.798 286.838,292.08 436,139.5 C447.44,127.8 460.814,117.63 475.065,108.81 " fill="none" id="EstacionamentoController-to-EstacionamentosDB" style="stroke:#A80036;stroke-width:1.0;stroke-dasharray:7.0,7.0;"/><polygon fill="#A80036" points="479.515,106.12,469.7428,107.3468,475.2345,108.704,473.8773,114.1956,479.515,106.12" style="stroke:#A80036;stroke-width:1.0;"/><!--MD5=[24118fd89a2171487105b99f424a6f79]
link EstacionamentoController to EmailDB--><path codeLine="82" d="M199.926,792.234 C218.442,911.759 275.843,1172.486 436,1310.5 C442.356,1315.9768 449.253,1320.8426 456.527,1325.1646 " fill="none" id="EstacionamentoController-to-EmailDB" style="stroke:#A80036;stroke-width:1.0;stroke-dasharray:7.0,7.0;"/><polygon fill="#A80036" points="461.103,1327.7859,455.2823,1319.8412,456.7646,1325.3003,451.3054,1326.7827,461.103,1327.7859" style="stroke:#A80036;stroke-width:1.0;"/><!--MD5=[ef2e70ba407f025b8ab1dc640c921bfb]
link EstacionamentoController to VeiculoDB--><path codeLine="83" d="M221.921,666.724 C261.168,590.553 336.855,462.869 436,386.5 C465.442,363.82 502.925,347.74 536.698,336.68 " fill="none" id="EstacionamentoController-to-VeiculoDB" style="stroke:#A80036;stroke-width:1.0;stroke-dasharray:7.0,7.0;"/><polygon fill="#A80036" points="541.652,335.08,531.8592,334.0303,536.8925,336.6122,534.3107,341.6455,541.652,335.08" style="stroke:#A80036;stroke-width:1.0;"/><!--MD5=[3b0355dfe49b49e94aaf5854d0caa4ce]
link EstacionamentoController to ParqueDB--><path codeLine="84" d="M375.105,729.5 C431.9,729.5 491.819,729.5 538.688,729.5 " fill="none" id="EstacionamentoController-to-ParqueDB" style="stroke:#A80036;stroke-width:1.0;stroke-dasharray:7.0,7.0;"/><polygon fill="#A80036" points="543.758,729.5,534.758,725.5,538.758,729.5,534.758,733.5,543.758,729.5" style="stroke:#A80036;stroke-width:1.0;"/><!--MD5=[2fd7429bef5f02fd09783605989ca6a7]
link EstacionamentoController to EstafetaDB--><path codeLine="85" d="M248.815,792.32 C294.904,839.629 363.862,902.608 436,940.5 C455.759,950.879 477.861,959.163 499.784,965.743 " fill="none" id="EstacionamentoController-to-EstafetaDB" style="stroke:#A80036;stroke-width:1.0;stroke-dasharray:7.0,7.0;"/><polygon fill="#A80036" points="504.754,967.207,497.2513,960.8267,499.9578,965.794,494.9905,968.5006,504.754,967.207" style="stroke:#A80036;stroke-width:1.0;"/><!--MD5=[57ead4d011cd2e59fbde0e09e6a2bea0]
link EstacionamentosDB to Estacionamento--><path codeLine="87" d="M625.5,106.25 C625.5,121.04 625.5,137.23 625.5,151.94 " fill="none" id="EstacionamentosDB-to-Estacionamento" style="stroke:#A80036;stroke-width:1.0;"/><polygon fill="#A80036" points="625.5,157.3,629.5,148.3,625.5,152.3,621.5,148.3,625.5,157.3" style="stroke:#A80036;stroke-width:1.0;"/><text fill="#000000" font-family="sans-serif" font-size="13" lengthAdjust="spacing" textLength="97" x="565.5" y="136.3169">tem registados</text><!--MD5=[6355171bb87232b3a58c2e48ef243e25]
link VeiculoDB to Veiculo--><path codeLine="89" d="M625.5,352.8 C625.5,366.66 625.5,382.97 625.5,399.191 " fill="none" id="VeiculoDB-to-Veiculo" style="stroke:#A80036;stroke-width:1.0;"/><polygon fill="#A80036" points="625.5,404.22,629.5,395.22,625.5,399.22,621.5,395.22,625.5,404.22" style="stroke:#A80036;stroke-width:1.0;"/><text fill="#000000" font-family="sans-serif" font-size="13" lengthAdjust="spacing" textLength="97" x="565.5" y="383.0669">tem registados</text><!--MD5=[4d4d66a582ec4263d33f69aa33f73dd1]
link Veiculo to EstadoVeiculo--><path codeLine="90" d="M625.5,554.67 C625.5,564.546 625.5,574.422 625.5,584.298 " fill="none" id="Veiculo-to-EstadoVeiculo" style="stroke:#A80036;stroke-width:1.0;"/><polygon fill="#A80036" points="625.5,589.463,629.5,580.463,625.5,584.463,621.5,580.463,625.5,589.463" style="stroke:#A80036;stroke-width:1.0;"/><!--MD5=[e5dbbc54f46538fc7b7077d28b1f914b]
link ParqueDB to Parque--><path codeLine="92" d="M625.5,760.255 C625.5,773.779 625.5,790.167 625.5,806.019 " fill="none" id="ParqueDB-to-Parque" style="stroke:#A80036;stroke-width:1.0;"/><polygon fill="#A80036" points="625.5,811.37,629.5,802.37,625.5,806.37,621.5,802.37,625.5,811.37" style="stroke:#A80036;stroke-width:1.0;"/><text fill="#000000" font-family="sans-serif" font-size="13" lengthAdjust="spacing" textLength="97" x="565.5" y="790.3169">tem registados</text><!--MD5=[a3e63c72779e49a48819b249af53bae4]
link EstafetaDB to Estafeta--><path codeLine="94" d="M625.5,1020.085 C625.5,1034.174 625.5,1051.121 625.5,1066.392 " fill="none" id="EstafetaDB-to-Estafeta" style="stroke:#A80036;stroke-width:1.0;"/><polygon fill="#A80036" points="625.5,1071.5,629.5,1062.5,625.5,1066.5,621.5,1062.5,625.5,1071.5" style="stroke:#A80036;stroke-width:1.0;"/><text fill="#000000" font-family="sans-serif" font-size="13" lengthAdjust="spacing" textLength="97" x="565.5" y="1050.3169">tem registados</text><!--MD5=[aa5a8ec5fd097e3d415964f18fa48efb]
link Estafeta to Utilizador--><path codeLine="96" d="M625.5,1145.776 C625.5,1157.268 625.5,1168.759 625.5,1180.25 " fill="none" id="Estafeta-Utilizador" style="stroke:#A80036;stroke-width:1.0;"/><!--MD5=[0c8de1cebfc23d843acd3a21db55f55c]
@startuml
skinparam classAttributeIconSize 0
left to right direction

class EstacionamentoController{
    +checkParkings(path)
    +simulateParkingVeiculo(path)
    +notificaEstafeta(bemEstacionado,estimativa,email)
    +notificaAdministrador(bemEstacionado, estimativa, IdVeiculo)
    +updateEstimativa(estimativa,email)
    +getDiretory(path)
}

class EmailDB{
    +sendEmail(emailOrig, emailDest, assunto, mensagem)
}

class EstacionamentosDB{
    -static String adminEmail
    +getEstacionamentoById(loteEstacionameto)
    +getEstacionamentoVeiculo(estacionamento, veiculo)
    +addEstacionamentoVeiculo(estacionamento, veiculo, idParque)
}

class VeiculoDB{
    +getVeiculoById(idVeiculo)
    +updateVeiculo(veiculo)
}

class ParqueDB{
    +getParqueByID(idParque)
}

class EstafetaDB{
    +getUtilizadorEstafetaByNIF(nifEstafeta)
}

class Estacionamento{
    -int numeroLote;
    -int carregador;
    -int idParque;
}

class Veiculo{
    -int id;
    -String descricao;
    -double capacidade;
    -double percentagemBateria;
    -double pesoMaximo;
    -double pesoVeiculo;
    -double potencia;
    -double areaFrontal;
}

class EstadoVeiculo{
    -final int idEstadoVeiculo;
    -String designacao;
}

class Parque{
    -int nif;
    -int numeroMaximo;
    -String tipo;
    -int idParque;
    -int maxCap;
}

class Estafeta{
    -double pesoEstafeta;
    -int idEstado;
}

class Utilizador{
    -int nif;
    -String nome;
    -String email;
    -int numeroSegurancaSocial;
    -String password;
}


EstacionamentoController ..> EstacionamentosDB
EstacionamentoController ..> EmailDB
EstacionamentoController ..> VeiculoDB
EstacionamentoController ..> ParqueDB
EstacionamentoController ..> EstafetaDB

EstacionamentosDB -> Estacionamento: tem registados

VeiculoDB -> Veiculo: tem registados
Veiculo -> EstadoVeiculo

ParqueDB -> Parque: tem registados

EstafetaDB -> Estafeta: tem registados

Estafeta - Utilizador
@enduml

PlantUML version 1.2021.01beta3(Unknown compile time)
(GPL source distribution)
Java Runtime: Java(TM) SE Runtime Environment
JVM: Java HotSpot(TM) 64-Bit Server VM
Default Encoding: UTF-8
Language: en
Country: US
--></g></svg>