<?xml version="1.0" encoding="UTF-8" standalone="no"?><svg xmlns="http://www.w3.org/2000/svg" xmlns:xlink="http://www.w3.org/1999/xlink" contentScriptType="application/ecmascript" contentStyleType="text/css" height="440px" preserveAspectRatio="none" style="width:1187px;height:440px;" version="1.1" viewBox="0 0 1187 440" width="1187px" zoomAndPan="magnify"><defs><filter height="300%" id="f10h82po5jcf4f" width="300%" x="-1" y="-1"><feGaussianBlur result="blurOut" stdDeviation="2.0"/><feColorMatrix in="blurOut" result="blurOut2" type="matrix" values="0 0 0 0 0 0 0 0 0 0 0 0 0 0 0 0 0 0 .4 0"/><feOffset dx="4.0" dy="4.0" in="blurOut2" result="blurOut3"/><feBlend in="SourceGraphic" in2="blurOut3" mode="normal"/></filter></defs><g><!--MD5=[3179f819b5ca0f9c8a1bd58e9144681b]
class Entrega--><rect codeLine="6" fill="#FEFECE" filter="url(#f10h82po5jcf4f)" height="78.4141" id="Entrega" style="stroke:#A80036;stroke-width:1.5;" width="78" x="598" y="241"/><ellipse cx="613" cy="257" fill="#ADD1B2" rx="11" ry="11" style="stroke:#A80036;stroke-width:1.0;"/><path d="M615.3438,252.6719 C614.4063,252.2344 613.8125,252.0938 612.9375,252.0938 C610.3125,252.0938 608.3125,254.1719 608.3125,256.8906 L608.3125,258.0156 C608.3125,260.5938 610.4219,262.4844 613.3125,262.4844 C614.5313,262.4844 615.6875,262.1875 616.4375,261.6406 C617.0156,261.2344 617.3438,260.7813 617.3438,260.3906 C617.3438,259.9375 616.9531,259.5469 616.4844,259.5469 C616.2656,259.5469 616.0625,259.625 615.875,259.8125 C615.4219,260.2969 615.4219,260.2969 615.2344,260.3906 C614.8125,260.6563 614.125,260.7813 613.3594,260.7813 C611.3125,260.7813 610.0156,259.6875 610.0156,257.9844 L610.0156,256.8906 C610.0156,255.1094 611.2656,253.7969 613,253.7969 C613.5781,253.7969 614.1875,253.9531 614.6563,254.2031 C615.1406,254.4844 615.3125,254.7031 615.4063,255.1094 C615.4688,255.5156 615.5,255.6406 615.6406,255.7656 C615.7813,255.9063 616.0156,256.0156 616.2344,256.0156 C616.5,256.0156 616.7656,255.875 616.9375,255.6563 C617.0469,255.5 617.0781,255.3125 617.0781,254.8906 L617.0781,253.4688 C617.0781,253.0313 617.0625,252.9063 616.9688,252.75 C616.8125,252.4844 616.5313,252.3438 616.2344,252.3438 C615.9375,252.3438 615.7344,252.4375 615.5156,252.75 L615.3438,252.6719 Z " fill="#000000"/><text fill="#000000" font-family="sans-serif" font-size="12" lengthAdjust="spacing" textLength="46" x="627" y="261.1543">Entrega</text><line style="stroke:#A80036;stroke-width:1.5;" x1="599" x2="675" y1="273" y2="273"/><text fill="#000000" font-family="sans-serif" font-size="11" lengthAdjust="spacing" textLength="58" x="604" y="287.2104">-idEntrega</text><text fill="#000000" font-family="sans-serif" font-size="11" lengthAdjust="spacing" textLength="58" x="604" y="300.0151">-dataInicio</text><text fill="#000000" font-family="sans-serif" font-size="11" lengthAdjust="spacing" textLength="49" x="604" y="312.8198">-dataFim</text><!--MD5=[c55f92ccbf0646788158d42f3399cc78]
class Encomenda--><rect codeLine="12" fill="#FEFECE" filter="url(#f10h82po5jcf4f)" height="104.0234" id="Encomenda" style="stroke:#A80036;stroke-width:1.5;" width="111" x="804.5" y="45"/><ellipse cx="823.55" cy="61" fill="#ADD1B2" rx="11" ry="11" style="stroke:#A80036;stroke-width:1.0;"/><path d="M825.8938,56.6719 C824.9563,56.2344 824.3625,56.0938 823.4875,56.0938 C820.8625,56.0938 818.8625,58.1719 818.8625,60.8906 L818.8625,62.0156 C818.8625,64.5938 820.9719,66.4844 823.8625,66.4844 C825.0813,66.4844 826.2375,66.1875 826.9875,65.6406 C827.5656,65.2344 827.8938,64.7813 827.8938,64.3906 C827.8938,63.9375 827.5031,63.5469 827.0344,63.5469 C826.8156,63.5469 826.6125,63.625 826.425,63.8125 C825.9719,64.2969 825.9719,64.2969 825.7844,64.3906 C825.3625,64.6563 824.675,64.7813 823.9094,64.7813 C821.8625,64.7813 820.5656,63.6875 820.5656,61.9844 L820.5656,60.8906 C820.5656,59.1094 821.8156,57.7969 823.55,57.7969 C824.1281,57.7969 824.7375,57.9531 825.2063,58.2031 C825.6906,58.4844 825.8625,58.7031 825.9563,59.1094 C826.0188,59.5156 826.05,59.6406 826.1906,59.7656 C826.3313,59.9063 826.5656,60.0156 826.7844,60.0156 C827.05,60.0156 827.3156,59.875 827.4875,59.6563 C827.5969,59.5 827.6281,59.3125 827.6281,58.8906 L827.6281,57.4688 C827.6281,57.0313 827.6125,56.9063 827.5188,56.75 C827.3625,56.4844 827.0813,56.3438 826.7844,56.3438 C826.4875,56.3438 826.2844,56.4375 826.0656,56.75 L825.8938,56.6719 Z " fill="#000000"/><text fill="#000000" font-family="sans-serif" font-size="12" lengthAdjust="spacing" textLength="70" x="838.45" y="65.1543">Encomenda</text><line style="stroke:#A80036;stroke-width:1.5;" x1="805.5" x2="914.5" y1="77" y2="77"/><text fill="#000000" font-family="sans-serif" font-size="11" lengthAdjust="spacing" textLength="81" x="810.5" y="91.2104">-idEncomenda</text><text fill="#000000" font-family="sans-serif" font-size="11" lengthAdjust="spacing" textLength="67" x="810.5" y="104.0151">-dataPedida</text><text fill="#000000" font-family="sans-serif" font-size="11" lengthAdjust="spacing" textLength="36" x="810.5" y="116.8198">-preco</text><text fill="#000000" font-family="sans-serif" font-size="11" lengthAdjust="spacing" textLength="99" x="810.5" y="129.6245">-pesoEncomenda</text><text fill="#000000" font-family="sans-serif" font-size="11" lengthAdjust="spacing" textLength="29" x="810.5" y="142.4292">-taxa</text><!--MD5=[533e824b6b94274ee39bf5a43d7cce2a]
class EstadoEncomenda--><rect codeLine="20" fill="#FEFECE" filter="url(#f10h82po5jcf4f)" height="65.6094" id="EstadoEncomenda" style="stroke:#A80036;stroke-width:1.5;" width="145" x="1028" y="7"/><ellipse cx="1043.9" cy="23" fill="#ADD1B2" rx="11" ry="11" style="stroke:#A80036;stroke-width:1.0;"/><path d="M1046.2438,18.6719 C1045.3063,18.2344 1044.7125,18.0938 1043.8375,18.0938 C1041.2125,18.0938 1039.2125,20.1719 1039.2125,22.8906 L1039.2125,24.0156 C1039.2125,26.5938 1041.3219,28.4844 1044.2125,28.4844 C1045.4313,28.4844 1046.5875,28.1875 1047.3375,27.6406 C1047.9156,27.2344 1048.2438,26.7813 1048.2438,26.3906 C1048.2438,25.9375 1047.8531,25.5469 1047.3844,25.5469 C1047.1656,25.5469 1046.9625,25.625 1046.775,25.8125 C1046.3219,26.2969 1046.3219,26.2969 1046.1344,26.3906 C1045.7125,26.6563 1045.025,26.7813 1044.2594,26.7813 C1042.2125,26.7813 1040.9156,25.6875 1040.9156,23.9844 L1040.9156,22.8906 C1040.9156,21.1094 1042.1656,19.7969 1043.9,19.7969 C1044.4781,19.7969 1045.0875,19.9531 1045.5563,20.2031 C1046.0406,20.4844 1046.2125,20.7031 1046.3063,21.1094 C1046.3688,21.5156 1046.4,21.6406 1046.5406,21.7656 C1046.6813,21.9063 1046.9156,22.0156 1047.1344,22.0156 C1047.4,22.0156 1047.6656,21.875 1047.8375,21.6563 C1047.9469,21.5 1047.9781,21.3125 1047.9781,20.8906 L1047.9781,19.4688 C1047.9781,19.0313 1047.9625,18.9063 1047.8688,18.75 C1047.7125,18.4844 1047.4313,18.3438 1047.1344,18.3438 C1046.8375,18.3438 1046.6344,18.4375 1046.4156,18.75 L1046.2438,18.6719 Z " fill="#000000"/><text fill="#000000" font-family="sans-serif" font-size="12" lengthAdjust="spacing" textLength="111" x="1058.1" y="27.1543">EstadoEncomenda</text><line style="stroke:#A80036;stroke-width:1.5;" x1="1029" x2="1172" y1="39" y2="39"/><text fill="#000000" font-family="sans-serif" font-size="11" lengthAdjust="spacing" textLength="133" x="1034" y="53.2104">-id_estado_encomenda</text><text fill="#000000" font-family="sans-serif" font-size="11" lengthAdjust="spacing" textLength="69" x="1034" y="66.0151">-designacao</text><!--MD5=[d4dacc50d49878ba7c621dfc80a2e1ce]
class Produto--><rect codeLine="25" fill="#FEFECE" filter="url(#f10h82po5jcf4f)" height="91.2188" id="Produto" style="stroke:#A80036;stroke-width:1.5;" width="81" x="1060" y="108.5"/><ellipse cx="1076.35" cy="124.5" fill="#ADD1B2" rx="11" ry="11" style="stroke:#A80036;stroke-width:1.0;"/><path d="M1078.6938,120.1719 C1077.7563,119.7344 1077.1625,119.5938 1076.2875,119.5938 C1073.6625,119.5938 1071.6625,121.6719 1071.6625,124.3906 L1071.6625,125.5156 C1071.6625,128.0938 1073.7719,129.9844 1076.6625,129.9844 C1077.8813,129.9844 1079.0375,129.6875 1079.7875,129.1406 C1080.3656,128.7344 1080.6938,128.2813 1080.6938,127.8906 C1080.6938,127.4375 1080.3031,127.0469 1079.8344,127.0469 C1079.6156,127.0469 1079.4125,127.125 1079.225,127.3125 C1078.7719,127.7969 1078.7719,127.7969 1078.5844,127.8906 C1078.1625,128.1563 1077.475,128.2813 1076.7094,128.2813 C1074.6625,128.2813 1073.3656,127.1875 1073.3656,125.4844 L1073.3656,124.3906 C1073.3656,122.6094 1074.6156,121.2969 1076.35,121.2969 C1076.9281,121.2969 1077.5375,121.4531 1078.0063,121.7031 C1078.4906,121.9844 1078.6625,122.2031 1078.7563,122.6094 C1078.8188,123.0156 1078.85,123.1406 1078.9906,123.2656 C1079.1313,123.4063 1079.3656,123.5156 1079.5844,123.5156 C1079.85,123.5156 1080.1156,123.375 1080.2875,123.1563 C1080.3969,123 1080.4281,122.8125 1080.4281,122.3906 L1080.4281,120.9688 C1080.4281,120.5313 1080.4125,120.4063 1080.3188,120.25 C1080.1625,119.9844 1079.8813,119.8438 1079.5844,119.8438 C1079.2875,119.8438 1079.0844,119.9375 1078.8656,120.25 L1078.6938,120.1719 Z " fill="#000000"/><text fill="#000000" font-family="sans-serif" font-size="12" lengthAdjust="spacing" textLength="46" x="1090.65" y="128.6543">Produto</text><line style="stroke:#A80036;stroke-width:1.5;" x1="1061" x2="1140" y1="140.5" y2="140.5"/><text fill="#000000" font-family="sans-serif" font-size="11" lengthAdjust="spacing" textLength="56" x="1066" y="154.7104">-idProduto</text><text fill="#000000" font-family="sans-serif" font-size="11" lengthAdjust="spacing" textLength="69" x="1066" y="167.5151">-designacao</text><text fill="#000000" font-family="sans-serif" font-size="11" lengthAdjust="spacing" textLength="32" x="1066" y="180.3198">-peso</text><text fill="#000000" font-family="sans-serif" font-size="11" lengthAdjust="spacing" textLength="65" x="1066" y="193.1245">-precoBase</text><!--MD5=[3f1202280bfe3359d2f91fb9b6e32986]
class Estafeta--><rect codeLine="32" fill="#FEFECE" filter="url(#f10h82po5jcf4f)" height="116.8281" id="Estafeta" style="stroke:#A80036;stroke-width:1.5;" width="155" x="278" y="221.5"/><ellipse cx="327.25" cy="237.5" fill="#ADD1B2" rx="11" ry="11" style="stroke:#A80036;stroke-width:1.0;"/><path d="M329.5938,233.1719 C328.6563,232.7344 328.0625,232.5938 327.1875,232.5938 C324.5625,232.5938 322.5625,234.6719 322.5625,237.3906 L322.5625,238.5156 C322.5625,241.0938 324.6719,242.9844 327.5625,242.9844 C328.7813,242.9844 329.9375,242.6875 330.6875,242.1406 C331.2656,241.7344 331.5938,241.2813 331.5938,240.8906 C331.5938,240.4375 331.2031,240.0469 330.7344,240.0469 C330.5156,240.0469 330.3125,240.125 330.125,240.3125 C329.6719,240.7969 329.6719,240.7969 329.4844,240.8906 C329.0625,241.1563 328.375,241.2813 327.6094,241.2813 C325.5625,241.2813 324.2656,240.1875 324.2656,238.4844 L324.2656,237.3906 C324.2656,235.6094 325.5156,234.2969 327.25,234.2969 C327.8281,234.2969 328.4375,234.4531 328.9063,234.7031 C329.3906,234.9844 329.5625,235.2031 329.6563,235.6094 C329.7188,236.0156 329.75,236.1406 329.8906,236.2656 C330.0313,236.4063 330.2656,236.5156 330.4844,236.5156 C330.75,236.5156 331.0156,236.375 331.1875,236.1563 C331.2969,236 331.3281,235.8125 331.3281,235.3906 L331.3281,233.9688 C331.3281,233.5313 331.3125,233.4063 331.2188,233.25 C331.0625,232.9844 330.7813,232.8438 330.4844,232.8438 C330.1875,232.8438 329.9844,232.9375 329.7656,233.25 L329.5938,233.1719 Z " fill="#000000"/><text fill="#000000" font-family="sans-serif" font-size="12" lengthAdjust="spacing" textLength="48" x="347.75" y="241.6543">Estafeta</text><line style="stroke:#A80036;stroke-width:1.5;" x1="279" x2="432" y1="253.5" y2="253.5"/><text fill="#000000" font-family="sans-serif" font-size="11" lengthAdjust="spacing" textLength="21" x="284" y="267.7104">-NIF</text><text fill="#000000" font-family="sans-serif" font-size="11" lengthAdjust="spacing" textLength="37" x="284" y="280.5151">-nome</text><text fill="#000000" font-family="sans-serif" font-size="11" lengthAdjust="spacing" textLength="36" x="284" y="293.3198">-email</text><text fill="#000000" font-family="sans-serif" font-size="11" lengthAdjust="spacing" textLength="143" x="284" y="306.1245">-numeroSegurancaSocial</text><text fill="#000000" font-family="sans-serif" font-size="11" lengthAdjust="spacing" textLength="57" x="284" y="318.9292">-password</text><text fill="#000000" font-family="sans-serif" font-size="11" lengthAdjust="spacing" textLength="79" x="284" y="331.7339">-pesoEstafeta</text><!--MD5=[36c1942e8942a3e4f47e6de3733e3d18]
class Endereco--><rect codeLine="42" fill="#FEFECE" filter="url(#f10h82po5jcf4f)" height="91.2188" id="Endereco" style="stroke:#A80036;stroke-width:1.5;" width="90" x="310.5" y="95.5"/><ellipse cx="325.5" cy="111.5" fill="#ADD1B2" rx="11" ry="11" style="stroke:#A80036;stroke-width:1.0;"/><path d="M327.8438,107.1719 C326.9063,106.7344 326.3125,106.5938 325.4375,106.5938 C322.8125,106.5938 320.8125,108.6719 320.8125,111.3906 L320.8125,112.5156 C320.8125,115.0938 322.9219,116.9844 325.8125,116.9844 C327.0313,116.9844 328.1875,116.6875 328.9375,116.1406 C329.5156,115.7344 329.8438,115.2813 329.8438,114.8906 C329.8438,114.4375 329.4531,114.0469 328.9844,114.0469 C328.7656,114.0469 328.5625,114.125 328.375,114.3125 C327.9219,114.7969 327.9219,114.7969 327.7344,114.8906 C327.3125,115.1563 326.625,115.2813 325.8594,115.2813 C323.8125,115.2813 322.5156,114.1875 322.5156,112.4844 L322.5156,111.3906 C322.5156,109.6094 323.7656,108.2969 325.5,108.2969 C326.0781,108.2969 326.6875,108.4531 327.1563,108.7031 C327.6406,108.9844 327.8125,109.2031 327.9063,109.6094 C327.9688,110.0156 328,110.1406 328.1406,110.2656 C328.2813,110.4063 328.5156,110.5156 328.7344,110.5156 C329,110.5156 329.2656,110.375 329.4375,110.1563 C329.5469,110 329.5781,109.8125 329.5781,109.3906 L329.5781,107.9688 C329.5781,107.5313 329.5625,107.4063 329.4688,107.25 C329.3125,106.9844 329.0313,106.8438 328.7344,106.8438 C328.4375,106.8438 328.2344,106.9375 328.0156,107.25 L327.8438,107.1719 Z " fill="#000000"/><text fill="#000000" font-family="sans-serif" font-size="12" lengthAdjust="spacing" textLength="58" x="339.5" y="115.6543">Endereco</text><line style="stroke:#A80036;stroke-width:1.5;" x1="311.5" x2="399.5" y1="127.5" y2="127.5"/><text fill="#000000" font-family="sans-serif" font-size="11" lengthAdjust="spacing" textLength="47" x="316.5" y="141.7104">-morada</text><text fill="#000000" font-family="sans-serif" font-size="11" lengthAdjust="spacing" textLength="47" x="316.5" y="154.5151">-latitude</text><text fill="#000000" font-family="sans-serif" font-size="11" lengthAdjust="spacing" textLength="57" x="316.5" y="167.3198">-longitude</text><text fill="#000000" font-family="sans-serif" font-size="11" lengthAdjust="spacing" textLength="47" x="316.5" y="180.1245">-altitude</text><!--MD5=[8505c5852735283b5a8424161266bb9f]
class Veiculo--><rect codeLine="49" fill="#FEFECE" filter="url(#f10h82po5jcf4f)" height="142.4375" id="Veiculo" style="stroke:#A80036;stroke-width:1.5;" width="134" x="793" y="265"/><ellipse cx="834.1" cy="281" fill="#ADD1B2" rx="11" ry="11" style="stroke:#A80036;stroke-width:1.0;"/><path d="M836.4438,276.6719 C835.5063,276.2344 834.9125,276.0938 834.0375,276.0938 C831.4125,276.0938 829.4125,278.1719 829.4125,280.8906 L829.4125,282.0156 C829.4125,284.5938 831.5219,286.4844 834.4125,286.4844 C835.6313,286.4844 836.7875,286.1875 837.5375,285.6406 C838.1156,285.2344 838.4438,284.7813 838.4438,284.3906 C838.4438,283.9375 838.0531,283.5469 837.5844,283.5469 C837.3656,283.5469 837.1625,283.625 836.975,283.8125 C836.5219,284.2969 836.5219,284.2969 836.3344,284.3906 C835.9125,284.6563 835.225,284.7813 834.4594,284.7813 C832.4125,284.7813 831.1156,283.6875 831.1156,281.9844 L831.1156,280.8906 C831.1156,279.1094 832.3656,277.7969 834.1,277.7969 C834.6781,277.7969 835.2875,277.9531 835.7563,278.2031 C836.2406,278.4844 836.4125,278.7031 836.5063,279.1094 C836.5688,279.5156 836.6,279.6406 836.7406,279.7656 C836.8813,279.9063 837.1156,280.0156 837.3344,280.0156 C837.6,280.0156 837.8656,279.875 838.0375,279.6563 C838.1469,279.5 838.1781,279.3125 838.1781,278.8906 L838.1781,277.4688 C838.1781,277.0313 838.1625,276.9063 838.0688,276.75 C837.9125,276.4844 837.6313,276.3438 837.3344,276.3438 C837.0375,276.3438 836.8344,276.4375 836.6156,276.75 L836.4438,276.6719 Z " fill="#000000"/><text fill="#000000" font-family="sans-serif" font-size="12" lengthAdjust="spacing" textLength="44" x="853.9" y="285.1543">Veiculo</text><line style="stroke:#A80036;stroke-width:1.5;" x1="794" x2="926" y1="297" y2="297"/><text fill="#000000" font-family="sans-serif" font-size="11" lengthAdjust="spacing" textLength="56" x="799" y="311.2104">-idVeiculo</text><text fill="#000000" font-family="sans-serif" font-size="11" lengthAdjust="spacing" textLength="58" x="799" y="324.0151">-descricao</text><text fill="#000000" font-family="sans-serif" font-size="11" lengthAdjust="spacing" textLength="25" x="799" y="336.8198">-tipo</text><text fill="#000000" font-family="sans-serif" font-size="11" lengthAdjust="spacing" textLength="122" x="799" y="349.6245">-percentagemBateria</text><text fill="#000000" font-family="sans-serif" font-size="11" lengthAdjust="spacing" textLength="76" x="799" y="362.4292">-pesoMaximo</text><text fill="#000000" font-family="sans-serif" font-size="11" lengthAdjust="spacing" textLength="74" x="799" y="375.2339">-pesoVeiculo</text><text fill="#000000" font-family="sans-serif" font-size="11" lengthAdjust="spacing" textLength="53" x="799" y="388.0386">-potencia</text><text fill="#000000" font-family="sans-serif" font-size="11" lengthAdjust="spacing" textLength="68" x="799" y="400.8433">-areaFrontal</text><!--MD5=[1a083dbe42a284ae0ea7f6f701783206]
class Parque--><rect codeLine="60" fill="#FEFECE" filter="url(#f10h82po5jcf4f)" height="78.4141" id="Parque" style="stroke:#A80036;stroke-width:1.5;" width="104" x="463.5" y="348"/><ellipse cx="492.45" cy="364" fill="#ADD1B2" rx="11" ry="11" style="stroke:#A80036;stroke-width:1.0;"/><path d="M494.7938,359.6719 C493.8563,359.2344 493.2625,359.0938 492.3875,359.0938 C489.7625,359.0938 487.7625,361.1719 487.7625,363.8906 L487.7625,365.0156 C487.7625,367.5938 489.8719,369.4844 492.7625,369.4844 C493.9813,369.4844 495.1375,369.1875 495.8875,368.6406 C496.4656,368.2344 496.7938,367.7813 496.7938,367.3906 C496.7938,366.9375 496.4031,366.5469 495.9344,366.5469 C495.7156,366.5469 495.5125,366.625 495.325,366.8125 C494.8719,367.2969 494.8719,367.2969 494.6844,367.3906 C494.2625,367.6563 493.575,367.7813 492.8094,367.7813 C490.7625,367.7813 489.4656,366.6875 489.4656,364.9844 L489.4656,363.8906 C489.4656,362.1094 490.7156,360.7969 492.45,360.7969 C493.0281,360.7969 493.6375,360.9531 494.1063,361.2031 C494.5906,361.4844 494.7625,361.7031 494.8563,362.1094 C494.9188,362.5156 494.95,362.6406 495.0906,362.7656 C495.2313,362.9063 495.4656,363.0156 495.6844,363.0156 C495.95,363.0156 496.2156,362.875 496.3875,362.6563 C496.4969,362.5 496.5281,362.3125 496.5281,361.8906 L496.5281,360.4688 C496.5281,360.0313 496.5125,359.9063 496.4188,359.75 C496.2625,359.4844 495.9813,359.3438 495.6844,359.3438 C495.3875,359.3438 495.1844,359.4375 494.9656,359.75 L494.7938,359.6719 Z " fill="#000000"/><text fill="#000000" font-family="sans-serif" font-size="12" lengthAdjust="spacing" textLength="41" x="509.55" y="368.1543">Parque</text><line style="stroke:#A80036;stroke-width:1.5;" x1="464.5" x2="566.5" y1="380" y2="380"/><text fill="#000000" font-family="sans-serif" font-size="11" lengthAdjust="spacing" textLength="53" x="469.5" y="394.2104">-idParque</text><text fill="#000000" font-family="sans-serif" font-size="11" lengthAdjust="spacing" textLength="92" x="469.5" y="407.0151">-numeroMaximo</text><text fill="#000000" font-family="sans-serif" font-size="11" lengthAdjust="spacing" textLength="25" x="469.5" y="419.8198">-tipo</text><!--MD5=[20a748d5ee336a9a91751b0a3d4f0beb]
class Cliente--><rect codeLine="66" fill="#FEFECE" filter="url(#f10h82po5jcf4f)" height="116.8281" id="Cliente" style="stroke:#A80036;stroke-width:1.5;" width="155" x="7" y="18.5"/><ellipse cx="59.75" cy="34.5" fill="#ADD1B2" rx="11" ry="11" style="stroke:#A80036;stroke-width:1.0;"/><path d="M62.0938,30.1719 C61.1563,29.7344 60.5625,29.5938 59.6875,29.5938 C57.0625,29.5938 55.0625,31.6719 55.0625,34.3906 L55.0625,35.5156 C55.0625,38.0938 57.1719,39.9844 60.0625,39.9844 C61.2813,39.9844 62.4375,39.6875 63.1875,39.1406 C63.7656,38.7344 64.0938,38.2813 64.0938,37.8906 C64.0938,37.4375 63.7031,37.0469 63.2344,37.0469 C63.0156,37.0469 62.8125,37.125 62.625,37.3125 C62.1719,37.7969 62.1719,37.7969 61.9844,37.8906 C61.5625,38.1563 60.875,38.2813 60.1094,38.2813 C58.0625,38.2813 56.7656,37.1875 56.7656,35.4844 L56.7656,34.3906 C56.7656,32.6094 58.0156,31.2969 59.75,31.2969 C60.3281,31.2969 60.9375,31.4531 61.4063,31.7031 C61.8906,31.9844 62.0625,32.2031 62.1563,32.6094 C62.2188,33.0156 62.25,33.1406 62.3906,33.2656 C62.5313,33.4063 62.7656,33.5156 62.9844,33.5156 C63.25,33.5156 63.5156,33.375 63.6875,33.1563 C63.7969,33 63.8281,32.8125 63.8281,32.3906 L63.8281,30.9688 C63.8281,30.5313 63.8125,30.4063 63.7188,30.25 C63.5625,29.9844 63.2813,29.8438 62.9844,29.8438 C62.6875,29.8438 62.4844,29.9375 62.2656,30.25 L62.0938,30.1719 Z " fill="#000000"/><text fill="#000000" font-family="sans-serif" font-size="12" lengthAdjust="spacing" textLength="41" x="80.25" y="38.6543">Cliente</text><line style="stroke:#A80036;stroke-width:1.5;" x1="8" x2="161" y1="50.5" y2="50.5"/><text fill="#000000" font-family="sans-serif" font-size="11" lengthAdjust="spacing" textLength="21" x="13" y="64.7104">-NIF</text><text fill="#000000" font-family="sans-serif" font-size="11" lengthAdjust="spacing" textLength="37" x="13" y="77.5151">-nome</text><text fill="#000000" font-family="sans-serif" font-size="11" lengthAdjust="spacing" textLength="36" x="13" y="90.3198">-email</text><text fill="#000000" font-family="sans-serif" font-size="11" lengthAdjust="spacing" textLength="143" x="13" y="103.1245">-numeroSegurancaSocial</text><text fill="#000000" font-family="sans-serif" font-size="11" lengthAdjust="spacing" textLength="57" x="13" y="115.9292">-password</text><text fill="#000000" font-family="sans-serif" font-size="11" lengthAdjust="spacing" textLength="49" x="13" y="128.7339">-creditos</text><!--MD5=[6613c9cd406ef433ff06f5e98b28abd9]
class Farmacia--><rect codeLine="75" fill="#FEFECE" filter="url(#f10h82po5jcf4f)" height="78.4141" id="Farmacia" style="stroke:#A80036;stroke-width:1.5;" width="86" x="41.5" y="241"/><ellipse cx="56.5" cy="257" fill="#ADD1B2" rx="11" ry="11" style="stroke:#A80036;stroke-width:1.0;"/><path d="M58.8438,252.6719 C57.9063,252.2344 57.3125,252.0938 56.4375,252.0938 C53.8125,252.0938 51.8125,254.1719 51.8125,256.8906 L51.8125,258.0156 C51.8125,260.5938 53.9219,262.4844 56.8125,262.4844 C58.0313,262.4844 59.1875,262.1875 59.9375,261.6406 C60.5156,261.2344 60.8438,260.7813 60.8438,260.3906 C60.8438,259.9375 60.4531,259.5469 59.9844,259.5469 C59.7656,259.5469 59.5625,259.625 59.375,259.8125 C58.9219,260.2969 58.9219,260.2969 58.7344,260.3906 C58.3125,260.6563 57.625,260.7813 56.8594,260.7813 C54.8125,260.7813 53.5156,259.6875 53.5156,257.9844 L53.5156,256.8906 C53.5156,255.1094 54.7656,253.7969 56.5,253.7969 C57.0781,253.7969 57.6875,253.9531 58.1563,254.2031 C58.6406,254.4844 58.8125,254.7031 58.9063,255.1094 C58.9688,255.5156 59,255.6406 59.1406,255.7656 C59.2813,255.9063 59.5156,256.0156 59.7344,256.0156 C60,256.0156 60.2656,255.875 60.4375,255.6563 C60.5469,255.5 60.5781,255.3125 60.5781,254.8906 L60.5781,253.4688 C60.5781,253.0313 60.5625,252.9063 60.4688,252.75 C60.3125,252.4844 60.0313,252.3438 59.7344,252.3438 C59.4375,252.3438 59.2344,252.4375 59.0156,252.75 L58.8438,252.6719 Z " fill="#000000"/><text fill="#000000" font-family="sans-serif" font-size="12" lengthAdjust="spacing" textLength="54" x="70.5" y="261.1543">Farmacia</text><line style="stroke:#A80036;stroke-width:1.5;" x1="42.5" x2="126.5" y1="273" y2="273"/><text fill="#000000" font-family="sans-serif" font-size="11" lengthAdjust="spacing" textLength="21" x="47.5" y="287.2104">-NIF</text><text fill="#000000" font-family="sans-serif" font-size="11" lengthAdjust="spacing" textLength="36" x="47.5" y="300.0151">-email</text><text fill="#000000" font-family="sans-serif" font-size="11" lengthAdjust="spacing" textLength="47" x="47.5" y="312.8198">-morada</text><!--MD5=[055d9a59c94791d1e5417ead9eff8d01]
link Encomenda to EstadoEncomenda--><path codeLine="81" d="M915.717,83.923 C948.998,75.969 991.876,65.721 1027.84,57.125 " fill="none" id="Encomenda-EstadoEncomenda" style="stroke:#A80036;stroke-width:1.0;"/><polygon fill="#000000" points="966.863,56.4041,957.3825,55.6483,958.7489,61.3651,966.863,56.4041" style="stroke:#000000;stroke-width:1.0;"/><text fill="#000000" font-family="sans-serif" font-size="13" lengthAdjust="spacing" textLength="26" x="971" y="62.0669">tem</text><text fill="#000000" font-family="sans-serif" font-size="13" lengthAdjust="spacing" textLength="8" x="923.3682" y="95.2823">1</text><text fill="#000000" font-family="sans-serif" font-size="13" lengthAdjust="spacing" textLength="8" x="1011.9344" y="71.7583">1</text><!--MD5=[39609d66ce6d06d1779a14455c909f6f]
link Entrega to Encomenda--><path codeLine="82" d="M676.243,248.333 C711.576,219.075 764.46,175.284 804.263,142.325 " fill="none" id="Entrega-Encomenda" style="stroke:#A80036;stroke-width:1.0;"/><polygon fill="#000000" points="715.3511,165.3775,706.51,168.8827,710.2588,173.4099,715.3511,165.3775" style="stroke:#000000;stroke-width:1.0;"/><text fill="#000000" font-family="sans-serif" font-size="13" lengthAdjust="spacing" textLength="41" x="720.5" y="173.0669">possui</text><text fill="#000000" font-family="sans-serif" font-size="13" lengthAdjust="spacing" textLength="8" x="683.9457" y="256.0701">1</text><text fill="#000000" font-family="sans-serif" font-size="13" lengthAdjust="spacing" textLength="7" x="789.6733" y="161.1671">*</text><!--MD5=[328dae9b2f192140d45e51cd90ecd75a]
link Estafeta to Entrega--><path codeLine="83" d="M433.244,280 C486.736,280 555.805,280 597.954,280 " fill="none" id="Estafeta-Entrega" style="stroke:#A80036;stroke-width:1.0;"/><polygon fill="#000000" points="497,271.5664,487.9549,268.6275,487.9549,274.5053,497,271.5664" style="stroke:#000000;stroke-width:1.0;"/><text fill="#000000" font-family="sans-serif" font-size="13" lengthAdjust="spacing" textLength="42" x="501" y="276.0669">realiza</text><text fill="#000000" font-family="sans-serif" font-size="13" lengthAdjust="spacing" textLength="8" x="441.0352" y="292.7963">1</text><text fill="#000000" font-family="sans-serif" font-size="13" lengthAdjust="spacing" textLength="7" x="583.1096" y="293.4238">*</text><!--MD5=[43a7c1a046aa41d1c9842e3954366be4]
link Cliente to Endereco--><path codeLine="84" d="M162.225,95.254 C210.21,106.671 270.308,120.969 310.421,130.513 " fill="none" id="Cliente-Endereco" style="stroke:#A80036;stroke-width:1.0;"/><polygon fill="#000000" points="209.3642,96.7237,201.245,91.771,199.8845,97.4892,209.3642,96.7237" style="stroke:#000000;stroke-width:1.0;"/><text fill="#000000" font-family="sans-serif" font-size="13" lengthAdjust="spacing" textLength="26" x="213.5" y="100.0669">tem</text><text fill="#000000" font-family="sans-serif" font-size="13" lengthAdjust="spacing" textLength="8" x="170.0144" y="109.7901">1</text><text fill="#000000" font-family="sans-serif" font-size="13" lengthAdjust="spacing" textLength="8" x="294.599" y="142.097">1</text><!--MD5=[beec9e5f2ed2709028dd31c1dc478e7b]
link Cliente to Encomenda--><path codeLine="85" d="M162.118,76.304 C232.538,75.882 339.816,75.789 433,78 C566.405,81.166 723.142,89.293 804.218,93.825 " fill="none" id="Cliente-Encomenda" style="stroke:#A80036;stroke-width:1.0;"/><polygon fill="#000000" points="472.9981,70.7028,464.0366,67.5182,463.8763,73.3939,472.9981,70.7028" style="stroke:#000000;stroke-width:1.0;"/><text fill="#000000" font-family="sans-serif" font-size="13" lengthAdjust="spacing" textLength="90" x="477" y="75.0669">realiza e paga</text><text fill="#000000" font-family="sans-serif" font-size="13" lengthAdjust="spacing" textLength="8" x="169.8972" y="89.0339">1</text><text fill="#000000" font-family="sans-serif" font-size="13" lengthAdjust="spacing" textLength="7" x="789.6225" y="106.453">*</text><!--MD5=[cd2aeefe8c457d184a69396a9f9cb06a]
link Entrega to Veiculo--><path codeLine="86" d="M676.243,289.691 C708.24,297.798 754.632,309.554 792.666,319.191 " fill="none" id="Entrega-Veiculo" style="stroke:#A80036;stroke-width:1.0;"/><polygon fill="#000000" points="706.1532,288.3383,714.1993,293.4089,715.643,287.7111,706.1532,288.3383" style="stroke:#000000;stroke-width:1.0;"/><text fill="#000000" font-family="sans-serif" font-size="13" lengthAdjust="spacing" textLength="42" x="720" y="294.0669">realiza</text><text fill="#000000" font-family="sans-serif" font-size="13" lengthAdjust="spacing" textLength="7" x="684.1237" y="304.9016">*</text><text fill="#000000" font-family="sans-serif" font-size="13" lengthAdjust="spacing" textLength="8" x="776.8638" y="330.2231">1</text><!--MD5=[60097591193c89dbde5dfd99b98b5263]
link Encomenda to Produto--><path codeLine="87" d="M915.717,110.077 C959.725,120.595 1020.51,135.123 1059.92,144.54 " fill="none" id="Encomenda-Produto" style="stroke:#A80036;stroke-width:1.0;"/><polygon fill="#000000" points="966.863,113.7286,958.7488,108.7677,957.3826,114.4846,966.863,113.7286" style="stroke:#000000;stroke-width:1.0;"/><text fill="#000000" font-family="sans-serif" font-size="13" lengthAdjust="spacing" textLength="26" x="971" y="117.0669">tem</text><text fill="#000000" font-family="sans-serif" font-size="13" lengthAdjust="spacing" textLength="8" x="923.3682" y="124.7873">1</text><text fill="#000000" font-family="sans-serif" font-size="13" lengthAdjust="spacing" textLength="7" x="1045.0683" y="156.2501">*</text><!--MD5=[639e2fc5a451b1bb392d1ae296701488]
link Parque to Veiculo--><path codeLine="88" d="M567.776,379.3648 C627.772,370.431 727.25,355.6183 792.97,345.8323 " fill="none" id="Parque-Veiculo" style="stroke:#A80036;stroke-width:1.0;"/><polygon fill="#000000" points="618.9455,353.83,609.5662,352.2553,610.4319,358.069,618.9455,353.83" style="stroke:#000000;stroke-width:1.0;"/><text fill="#000000" font-family="sans-serif" font-size="13" lengthAdjust="spacing" textLength="41" x="623" y="359.0669">possui</text><text fill="#000000" font-family="sans-serif" font-size="13" lengthAdjust="spacing" textLength="8" x="575.3381" y="391.3946">1</text><text fill="#000000" font-family="sans-serif" font-size="13" lengthAdjust="spacing" textLength="7" x="777.815" y="359.8856">*</text><!--MD5=[4f96609c99ecadb81dc825d0ae539cef]
link Farmacia to Parque--><path codeLine="89" d="M127.689,300.151 C166.032,317.613 224.605,342.1851 278,356 C340.541,372.1811 414.681,380.153 463.061,383.9119 " fill="none" id="Farmacia-Parque" style="stroke:#A80036;stroke-width:1.0;"/><polygon fill="#000000" points="201.851,319.778,193.7876,314.7349,192.3633,320.4376,201.851,319.778" style="stroke:#000000;stroke-width:1.0;"/><text fill="#000000" font-family="sans-serif" font-size="13" lengthAdjust="spacing" textLength="41" x="206" y="323.0669">possui</text><text fill="#000000" font-family="sans-serif" font-size="13" lengthAdjust="spacing" textLength="8" x="135.5047" y="316.7743">1</text><text fill="#000000" font-family="sans-serif" font-size="13" lengthAdjust="spacing" textLength="8" x="447.477" y="396.5527">1</text><!--MD5=[06143d4fc5f7e61d4193d2b4f541983b]
link Farmacia to Estafeta--><path codeLine="90" d="M127.531,280 C167.65,280 229.042,280 277.865,280 " fill="none" id="Farmacia-Estafeta" style="stroke:#A80036;stroke-width:1.0;"/><polygon fill="#000000" points="209.5,271.5664,200.4549,268.6275,200.4549,274.5053,209.5,271.5664" style="stroke:#000000;stroke-width:1.0;"/><text fill="#000000" font-family="sans-serif" font-size="13" lengthAdjust="spacing" textLength="26" x="213.5" y="276.0669">tem</text><text fill="#000000" font-family="sans-serif" font-size="13" lengthAdjust="spacing" textLength="8" x="135.6145" y="293.3318">1</text><text fill="#000000" font-family="sans-serif" font-size="13" lengthAdjust="spacing" textLength="7" x="262.8783" y="292.8202">*</text><!--MD5=[e9cb6b9ea8421b6538fc03abcb01a9a8]
link Farmacia to Endereco--><path codeLine="91" d="M127.531,258.281 C177.181,232.626 259.413,190.134 310.08,163.953 " fill="none" id="Farmacia-Endereco" style="stroke:#A80036;stroke-width:1.0;"/><polygon fill="#000000" points="201.442,187.2711,192.0572,188.8124,194.7555,194.0343,201.442,187.2711" style="stroke:#000000;stroke-width:1.0;"/><text fill="#000000" font-family="sans-serif" font-size="13" lengthAdjust="spacing" textLength="41" x="206" y="194.0669">possui</text><text fill="#000000" font-family="sans-serif" font-size="13" lengthAdjust="spacing" textLength="8" x="135.6145" y="267.8798">1</text><text fill="#000000" font-family="sans-serif" font-size="13" lengthAdjust="spacing" textLength="8" x="294.5126" y="180.6764">1</text><!--MD5=[2fc20c398e22f2aeb551966ff50360e9]
@startuml
skinparam classAttributeIconSize 0
hide methods
left to right direction


class Entrega {
  -idEntrega
  -dataInicio
  -dataFim
}

class Encomenda {
  -idEncomenda
  -dataPedida
  -preco
  -pesoEncomenda
  -taxa
}

class EstadoEncomenda {
  -id_estado_encomenda
  -designacao
}

class Produto {
  -idProduto
  -designacao
  -peso
  -precoBase
}

class Estafeta {
  -NIF
  -nome
  -email
  -numeroSegurancaSocial
  -password
  -pesoEstafeta
}


class Endereco {
  -morada
  -latitude
  -longitude
  -altitude
}

class Veiculo {
  -idVeiculo
  -descricao
  -tipo
  -percentagemBateria
  -pesoMaximo
  -pesoVeiculo
  -potencia
  -areaFrontal
}

class Parque {
  -idParque
  -numeroMaximo
  -tipo
}

class Cliente {
  -NIF
  -nome
  -email
  -numeroSegurancaSocial
  -password
  -creditos
}

class Farmacia {
  -NIF
  -email
  -morada
}

Encomenda "1" - - "1" EstadoEncomenda : tem >
Entrega "1" - - "*" Encomenda : possui >
Estafeta "1" - - "*" Entrega: realiza >
Cliente "1" - - "1" Endereco: tem >
Cliente "1" - - "*" Encomenda: realiza e paga >
Entrega "*" - - "1" Veiculo: realiza <
Encomenda "1" - - "*" Produto: tem >
Parque "1" - - "*" Veiculo: possui >
Farmacia "1" - - "1" Parque: possui >
Farmacia "1" - - "*" Estafeta: tem >
Farmacia "1" - - "1" Endereco: possui >
@enduml

PlantUML version 1.2021.01beta3(Unknown compile time)
(GPL source distribution)
Java Runtime: Java(TM) SE Runtime Environment
JVM: Java HotSpot(TM) 64-Bit Server VM
Default Encoding: UTF-8
Language: en
Country: US
--></g></svg>