<?xml version="1.0" encoding="UTF-8" standalone="no"?><svg xmlns="http://www.w3.org/2000/svg" xmlns:xlink="http://www.w3.org/1999/xlink" contentScriptType="application/ecmascript" contentStyleType="text/css" height="485px" preserveAspectRatio="none" style="width:1160px;height:485px;" version="1.1" viewBox="0 0 1160 485" width="1160px" zoomAndPan="magnify"><defs><filter height="300%" id="frrg1owxko8of" width="300%" x="-1" y="-1"><feGaussianBlur result="blurOut" stdDeviation="2.0"/><feColorMatrix in="blurOut" result="blurOut2" type="matrix" values="0 0 0 0 0 0 0 0 0 0 0 0 0 0 0 0 0 0 .4 0"/><feOffset dx="4.0" dy="4.0" in="blurOut2" result="blurOut3"/><feBlend in="SourceGraphic" in2="blurOut3" mode="normal"/></filter></defs><g><rect fill="#FFFFFF" filter="url(#frrg1owxko8of)" height="285.0625" style="stroke:#A80036;stroke-width:1.0;" width="10" x="54" y="98.2969"/><rect fill="#FFFFFF" filter="url(#frrg1owxko8of)" height="117.3984" style="stroke:#A80036;stroke-width:1.0;" width="10" x="385" y="119.4297"/><rect fill="#FFFFFF" filter="url(#frrg1owxko8of)" height="117.3984" style="stroke:#A80036;stroke-width:1.0;" width="10" x="385" y="265.9609"/><rect fill="#FFFFFF" filter="url(#frrg1owxko8of)" height="59.1328" style="stroke:#A80036;stroke-width:1.0;" width="10" x="672" y="148.5625"/><rect fill="#FFFFFF" filter="url(#frrg1owxko8of)" height="59.1328" style="stroke:#A80036;stroke-width:1.0;" width="10" x="672" y="295.0938"/><rect fill="#FFFFFF" filter="url(#frrg1owxko8of)" height="30" style="stroke:#A80036;stroke-width:1.0;" width="10" x="970" y="177.6953"/><rect fill="#FFFFFF" filter="url(#frrg1owxko8of)" height="30" style="stroke:#A80036;stroke-width:1.0;" width="10" x="1094.5" y="324.2266"/><line style="stroke:#A80036;stroke-width:1.0;stroke-dasharray:5.0,5.0;" x1="59" x2="59" y1="88.2969" y2="401.3594"/><line style="stroke:#A80036;stroke-width:1.0;stroke-dasharray:5.0,5.0;" x1="390" x2="390" y1="88.2969" y2="401.3594"/><line style="stroke:#A80036;stroke-width:1.0;stroke-dasharray:5.0,5.0;" x1="676.5" x2="676.5" y1="88.2969" y2="401.3594"/><line style="stroke:#A80036;stroke-width:1.0;stroke-dasharray:5.0,5.0;" x1="975" x2="975" y1="88.2969" y2="401.3594"/><line style="stroke:#A80036;stroke-width:1.0;stroke-dasharray:5.0,5.0;" x1="1099" x2="1099" y1="88.2969" y2="401.3594"/><text fill="#000000" font-family="sans-serif" font-size="14" lengthAdjust="spacing" textLength="102" x="5" y="84.9951">Administrador</text><ellipse cx="59" cy="15" fill="#FEFECE" filter="url(#frrg1owxko8of)" rx="8" ry="8" style="stroke:#A80036;stroke-width:2.0;"/><path d="M59,23 L59,50 M46,31 L72,31 M59,50 L46,65 M59,50 L72,65 " fill="none" filter="url(#frrg1owxko8of)" style="stroke:#A80036;stroke-width:2.0;"/><text fill="#000000" font-family="sans-serif" font-size="14" lengthAdjust="spacing" textLength="102" x="5" y="413.3545">Administrador</text><ellipse cx="59" cy="426.6563" fill="#FEFECE" filter="url(#frrg1owxko8of)" rx="8" ry="8" style="stroke:#A80036;stroke-width:2.0;"/><path d="M59,434.6563 L59,461.6563 M46,442.6563 L72,442.6563 M59,461.6563 L46,476.6563 M59,461.6563 L72,476.6563 " fill="none" filter="url(#frrg1owxko8of)" style="stroke:#A80036;stroke-width:2.0;"/><rect fill="#FEFECE" filter="url(#frrg1owxko8of)" height="30.2969" style="stroke:#A80036;stroke-width:1.5;" width="78" x="349" y="53"/><text fill="#000000" font-family="sans-serif" font-size="14" lengthAdjust="spacing" textLength="64" x="356" y="72.9951">:AdminUI</text><rect fill="#FEFECE" filter="url(#frrg1owxko8of)" height="30.2969" style="stroke:#A80036;stroke-width:1.5;" width="78" x="349" y="400.3594"/><text fill="#000000" font-family="sans-serif" font-size="14" lengthAdjust="spacing" textLength="64" x="356" y="420.3545">:AdminUI</text><rect fill="#FEFECE" filter="url(#frrg1owxko8of)" height="30.2969" style="stroke:#A80036;stroke-width:1.5;" width="209" x="570.5" y="53"/><text fill="#000000" font-family="sans-serif" font-size="14" lengthAdjust="spacing" textLength="195" x="577.5" y="72.9951">:RegistarEntregaController</text><rect fill="#FEFECE" filter="url(#frrg1owxko8of)" height="30.2969" style="stroke:#A80036;stroke-width:1.5;" width="209" x="570.5" y="400.3594"/><text fill="#000000" font-family="sans-serif" font-size="14" lengthAdjust="spacing" textLength="195" x="577.5" y="420.3545">:RegistarEntregaController</text><rect fill="#FEFECE" filter="url(#frrg1owxko8of)" height="30.2969" style="stroke:#A80036;stroke-width:1.5;" width="124" x="911" y="53"/><text fill="#000000" font-family="sans-serif" font-size="14" lengthAdjust="spacing" textLength="110" x="918" y="72.9951">:EncomendaDB</text><rect fill="#FEFECE" filter="url(#frrg1owxko8of)" height="30.2969" style="stroke:#A80036;stroke-width:1.5;" width="124" x="911" y="400.3594"/><text fill="#000000" font-family="sans-serif" font-size="14" lengthAdjust="spacing" textLength="110" x="918" y="420.3545">:EncomendaDB</text><rect fill="#FEFECE" filter="url(#frrg1owxko8of)" height="30.2969" style="stroke:#A80036;stroke-width:1.5;" width="97" x="1049" y="53"/><text fill="#000000" font-family="sans-serif" font-size="14" lengthAdjust="spacing" textLength="83" x="1056" y="72.9951">:EntregaDB</text><rect fill="#FEFECE" filter="url(#frrg1owxko8of)" height="30.2969" style="stroke:#A80036;stroke-width:1.5;" width="97" x="1049" y="400.3594"/><text fill="#000000" font-family="sans-serif" font-size="14" lengthAdjust="spacing" textLength="83" x="1056" y="420.3545">:EntregaDB</text><rect fill="#FFFFFF" filter="url(#frrg1owxko8of)" height="285.0625" style="stroke:#A80036;stroke-width:1.0;" width="10" x="54" y="98.2969"/><rect fill="#FFFFFF" filter="url(#frrg1owxko8of)" height="117.3984" style="stroke:#A80036;stroke-width:1.0;" width="10" x="385" y="119.4297"/><rect fill="#FFFFFF" filter="url(#frrg1owxko8of)" height="117.3984" style="stroke:#A80036;stroke-width:1.0;" width="10" x="385" y="265.9609"/><rect fill="#FFFFFF" filter="url(#frrg1owxko8of)" height="59.1328" style="stroke:#A80036;stroke-width:1.0;" width="10" x="672" y="148.5625"/><rect fill="#FFFFFF" filter="url(#frrg1owxko8of)" height="59.1328" style="stroke:#A80036;stroke-width:1.0;" width="10" x="672" y="295.0938"/><rect fill="#FFFFFF" filter="url(#frrg1owxko8of)" height="30" style="stroke:#A80036;stroke-width:1.0;" width="10" x="970" y="177.6953"/><rect fill="#FFFFFF" filter="url(#frrg1owxko8of)" height="30" style="stroke:#A80036;stroke-width:1.0;" width="10" x="1094.5" y="324.2266"/><polygon fill="#A80036" points="373,115.4297,383,119.4297,373,123.4297,377,119.4297" style="stroke:#A80036;stroke-width:1.0;"/><line style="stroke:#A80036;stroke-width:1.0;" x1="64" x2="379" y1="119.4297" y2="119.4297"/><text fill="#000000" font-family="sans-serif" font-size="13" font-weight="bold" lengthAdjust="spacing" textLength="9" x="71" y="114.3638">1</text><text fill="#000000" font-family="sans-serif" font-size="13" lengthAdjust="spacing" textLength="289" x="84" y="114.3638">pretende saber qual a entrega mais eficiente</text><polygon fill="#A80036" points="660,144.5625,670,148.5625,660,152.5625,664,148.5625" style="stroke:#A80036;stroke-width:1.0;"/><line style="stroke:#A80036;stroke-width:1.0;" x1="395" x2="666" y1="148.5625" y2="148.5625"/><text fill="#000000" font-family="sans-serif" font-size="13" font-weight="bold" lengthAdjust="spacing" textLength="9" x="402" y="143.4966">2</text><text fill="#000000" font-family="sans-serif" font-size="13" lengthAdjust="spacing" textLength="137" x="415" y="143.4966">getListaEncomenda()</text><polygon fill="#A80036" points="958,173.6953,968,177.6953,958,181.6953,962,177.6953" style="stroke:#A80036;stroke-width:1.0;"/><line style="stroke:#A80036;stroke-width:1.0;" x1="682" x2="964" y1="177.6953" y2="177.6953"/><text fill="#000000" font-family="sans-serif" font-size="13" font-weight="bold" lengthAdjust="spacing" textLength="8" x="689" y="172.6294">3</text><text fill="#000000" font-family="sans-serif" font-size="13" lengthAdjust="spacing" textLength="257" x="701" y="172.6294">listaEncomenda = getListaEncomenda()</text><polygon fill="#A80036" points="75,232.8281,65,236.8281,75,240.8281,71,236.8281" style="stroke:#A80036;stroke-width:1.0;"/><line style="stroke:#A80036;stroke-width:1.0;stroke-dasharray:2.0,2.0;" x1="69" x2="389" y1="236.8281" y2="236.8281"/><text fill="#000000" font-family="sans-serif" font-size="13" font-weight="bold" lengthAdjust="spacing" textLength="9" x="81" y="231.7622">4</text><text fill="#000000" font-family="sans-serif" font-size="13" lengthAdjust="spacing" textLength="214" x="94" y="231.7622">solicita uma lista de encomendas</text><polygon fill="#A80036" points="373,261.9609,383,265.9609,373,269.9609,377,265.9609" style="stroke:#A80036;stroke-width:1.0;"/><line style="stroke:#A80036;stroke-width:1.0;" x1="64" x2="379" y1="265.9609" y2="265.9609"/><text fill="#000000" font-family="sans-serif" font-size="13" font-weight="bold" lengthAdjust="spacing" textLength="9" x="71" y="260.895">5</text><text fill="#000000" font-family="sans-serif" font-size="13" lengthAdjust="spacing" textLength="185" x="84" y="260.895">introduz os dados solicitados</text><polygon fill="#A80036" points="660,291.0938,670,295.0938,660,299.0938,664,295.0938" style="stroke:#A80036;stroke-width:1.0;"/><line style="stroke:#A80036;stroke-width:1.0;" x1="395" x2="666" y1="295.0938" y2="295.0938"/><text fill="#000000" font-family="sans-serif" font-size="13" font-weight="bold" lengthAdjust="spacing" textLength="9" x="402" y="290.0278">6</text><text fill="#000000" font-family="sans-serif" font-size="13" lengthAdjust="spacing" textLength="245" x="415" y="290.0278">getEntregaEficiente(listaEncomendas)</text><polygon fill="#A80036" points="1082.5,320.2266,1092.5,324.2266,1082.5,328.2266,1086.5,324.2266" style="stroke:#A80036;stroke-width:1.0;"/><line style="stroke:#A80036;stroke-width:1.0;" x1="682" x2="1088.5" y1="324.2266" y2="324.2266"/><text fill="#000000" font-family="sans-serif" font-size="13" font-weight="bold" lengthAdjust="spacing" textLength="9" x="689" y="319.1606">7</text><text fill="#000000" font-family="sans-serif" font-size="13" lengthAdjust="spacing" textLength="245" x="702" y="319.1606">getEntregaEficiente(listaEncomendas)</text><polygon fill="#A80036" points="70,379.3594,60,383.3594,70,387.3594,66,383.3594" style="stroke:#A80036;stroke-width:1.0;"/><line style="stroke:#A80036;stroke-width:1.0;stroke-dasharray:2.0,2.0;" x1="64" x2="389" y1="383.3594" y2="383.3594"/><text fill="#000000" font-family="sans-serif" font-size="13" font-weight="bold" lengthAdjust="spacing" textLength="9" x="76" y="378.2935">8</text><text fill="#000000" font-family="sans-serif" font-size="13" lengthAdjust="spacing" textLength="127" x="89" y="378.2935">apresenta os dados</text><!--MD5=[8507eb44390a3f1cb5ca1d54c21bae70]
@startuml
autonumber

actor "Administrador" as ADMIN

participant ":AdminUI" as UI
participant ":RegistarEntregaController" as CTRL
participant ":EncomendaDB" as DRDB
participant ":EntregaDB" as ENDB



activate ADMIN
ADMIN -> UI : pretende saber qual a entrega mais eficiente
activate UI
UI -> CTRL : getListaEncomenda()
activate CTRL
CTRL -> DRDB : listaEncomenda = getListaEncomenda()
activate DRDB
deactivate DRDB
deactivate CTRL
  
UI - -> ADMIN : solicita uma lista de encomendas
deactivate UI

ADMIN -> UI : introduz os dados solicitados
activate UI 
UI -> CTRL : getEntregaEficiente(listaEncomendas)
activate CTRL
CTRL -> ENDB : getEntregaEficiente(listaEncomendas)
activate ENDB
deactivate ENDB
deactivate CTRL
UI - -> ADMIN : apresenta os dados
deactivate UI

deactivate ADMIN
@enduml

PlantUML version 1.2021.01beta3(Unknown compile time)
(GPL source distribution)
Java Runtime: Java(TM) SE Runtime Environment
JVM: Java HotSpot(TM) 64-Bit Server VM
Default Encoding: UTF-8
Language: en
Country: US
--></g></svg>