<?xml version="1.0" encoding="UTF-8" standalone="no"?><svg xmlns="http://www.w3.org/2000/svg" xmlns:xlink="http://www.w3.org/1999/xlink" contentScriptType="application/ecmascript" contentStyleType="text/css" height="546px" preserveAspectRatio="none" style="width:1560px;height:546px;" version="1.1" viewBox="0 0 1560 546" width="1560px" zoomAndPan="magnify"><defs><filter height="300%" id="f4fiiwxjgeqdr" width="300%" x="-1" y="-1"><feGaussianBlur result="blurOut" stdDeviation="2.0"/><feColorMatrix in="blurOut" result="blurOut2" type="matrix" values="0 0 0 0 0 0 0 0 0 0 0 0 0 0 0 0 0 0 .4 0"/><feOffset dx="4.0" dy="4.0" in="blurOut2" result="blurOut3"/><feBlend in="SourceGraphic" in2="blurOut3" mode="normal"/></filter></defs><g><rect fill="#FFFFFF" filter="url(#f4fiiwxjgeqdr)" height="346.1953" style="stroke:#A80036;stroke-width:1.0;" width="10" x="33.5" y="98.2969"/><rect fill="#FFFFFF" filter="url(#f4fiiwxjgeqdr)" height="325.0625" style="stroke:#A80036;stroke-width:1.0;" width="10" x="364.5" y="119.4297"/><rect fill="#FFFFFF" filter="url(#f4fiiwxjgeqdr)" height="59.1328" style="stroke:#A80036;stroke-width:1.0;" width="10" x="922.5" y="148.5625"/><rect fill="#FFFFFF" filter="url(#f4fiiwxjgeqdr)" height="59.1328" style="stroke:#A80036;stroke-width:1.0;" width="10" x="922.5" y="260.9609"/><rect fill="#FFFFFF" filter="url(#f4fiiwxjgeqdr)" height="59.1328" style="stroke:#A80036;stroke-width:1.0;" width="10" x="922.5" y="349.2266"/><rect fill="#FFFFFF" filter="url(#f4fiiwxjgeqdr)" height="30" style="stroke:#A80036;stroke-width:1.0;" width="10" x="1348.5" y="177.6953"/><rect fill="#FFFFFF" filter="url(#f4fiiwxjgeqdr)" height="30" style="stroke:#A80036;stroke-width:1.0;" width="10" x="1480.5" y="290.0938"/><rect fill="#FFFFFF" filter="url(#f4fiiwxjgeqdr)" height="30" style="stroke:#A80036;stroke-width:1.0;" width="10" x="1480.5" y="378.3594"/><rect fill="#FFFFFF" filter="url(#f4fiiwxjgeqdr)" height="193.6641" style="stroke:#000000;stroke-width:2.0;" width="1259" x="287" y="222.6953"/><line style="stroke:#A80036;stroke-width:1.0;stroke-dasharray:5.0,5.0;" x1="38" x2="38" y1="88.2969" y2="462.4922"/><line style="stroke:#A80036;stroke-width:1.0;stroke-dasharray:5.0,5.0;" x1="369" x2="369" y1="88.2969" y2="462.4922"/><line style="stroke:#A80036;stroke-width:1.0;stroke-dasharray:5.0,5.0;" x1="927" x2="927" y1="88.2969" y2="462.4922"/><line style="stroke:#A80036;stroke-width:1.0;stroke-dasharray:5.0,5.0;" x1="1353.5" x2="1353.5" y1="88.2969" y2="462.4922"/><line style="stroke:#A80036;stroke-width:1.0;stroke-dasharray:5.0,5.0;" x1="1485" x2="1485" y1="88.2969" y2="462.4922"/><text fill="#000000" font-family="sans-serif" font-size="14" lengthAdjust="spacing" textLength="61" x="5" y="84.9951">Estafeta</text><ellipse cx="38.5" cy="15" fill="#FEFECE" filter="url(#f4fiiwxjgeqdr)" rx="8" ry="8" style="stroke:#A80036;stroke-width:2.0;"/><path d="M38.5,23 L38.5,50 M25.5,31 L51.5,31 M38.5,50 L25.5,65 M38.5,50 L51.5,65 " fill="none" filter="url(#f4fiiwxjgeqdr)" style="stroke:#A80036;stroke-width:2.0;"/><text fill="#000000" font-family="sans-serif" font-size="14" lengthAdjust="spacing" textLength="61" x="5" y="474.4873">Estafeta</text><ellipse cx="38.5" cy="487.7891" fill="#FEFECE" filter="url(#f4fiiwxjgeqdr)" rx="8" ry="8" style="stroke:#A80036;stroke-width:2.0;"/><path d="M38.5,495.7891 L38.5,522.7891 M25.5,503.7891 L51.5,503.7891 M38.5,522.7891 L25.5,537.7891 M38.5,522.7891 L51.5,537.7891 " fill="none" filter="url(#f4fiiwxjgeqdr)" style="stroke:#A80036;stroke-width:2.0;"/><rect fill="#FEFECE" filter="url(#f4fiiwxjgeqdr)" height="30.2969" style="stroke:#A80036;stroke-width:1.5;" width="141" x="297" y="53"/><text fill="#000000" font-family="sans-serif" font-size="14" lengthAdjust="spacing" textLength="127" x="304" y="72.9951">:RegistarEntregUI</text><rect fill="#FEFECE" filter="url(#f4fiiwxjgeqdr)" height="30.2969" style="stroke:#A80036;stroke-width:1.5;" width="141" x="297" y="461.4922"/><text fill="#000000" font-family="sans-serif" font-size="14" lengthAdjust="spacing" textLength="127" x="304" y="481.4873">:RegistarEntregUI</text><rect fill="#FEFECE" filter="url(#f4fiiwxjgeqdr)" height="30.2969" style="stroke:#A80036;stroke-width:1.5;" width="209" x="821" y="53"/><text fill="#000000" font-family="sans-serif" font-size="14" lengthAdjust="spacing" textLength="195" x="828" y="72.9951">:RegistarEntregaController</text><rect fill="#FEFECE" filter="url(#f4fiiwxjgeqdr)" height="30.2969" style="stroke:#A80036;stroke-width:1.5;" width="209" x="821" y="461.4922"/><text fill="#000000" font-family="sans-serif" font-size="14" lengthAdjust="spacing" textLength="195" x="828" y="481.4873">:RegistarEntregaController</text><rect fill="#FEFECE" filter="url(#f4fiiwxjgeqdr)" height="30.2969" style="stroke:#A80036;stroke-width:1.5;" width="92" x="1305.5" y="53"/><text fill="#000000" font-family="sans-serif" font-size="14" lengthAdjust="spacing" textLength="78" x="1312.5" y="72.9951">:VeiculoDB</text><rect fill="#FEFECE" filter="url(#f4fiiwxjgeqdr)" height="30.2969" style="stroke:#A80036;stroke-width:1.5;" width="92" x="1305.5" y="461.4922"/><text fill="#000000" font-family="sans-serif" font-size="14" lengthAdjust="spacing" textLength="78" x="1312.5" y="481.4873">:VeiculoDB</text><rect fill="#FEFECE" filter="url(#f4fiiwxjgeqdr)" height="30.2969" style="stroke:#A80036;stroke-width:1.5;" width="97" x="1435" y="53"/><text fill="#000000" font-family="sans-serif" font-size="14" lengthAdjust="spacing" textLength="83" x="1442" y="72.9951">:EntregaDB</text><rect fill="#FEFECE" filter="url(#f4fiiwxjgeqdr)" height="30.2969" style="stroke:#A80036;stroke-width:1.5;" width="97" x="1435" y="461.4922"/><text fill="#000000" font-family="sans-serif" font-size="14" lengthAdjust="spacing" textLength="83" x="1442" y="481.4873">:EntregaDB</text><rect fill="#FFFFFF" filter="url(#f4fiiwxjgeqdr)" height="346.1953" style="stroke:#A80036;stroke-width:1.0;" width="10" x="33.5" y="98.2969"/><rect fill="#FFFFFF" filter="url(#f4fiiwxjgeqdr)" height="325.0625" style="stroke:#A80036;stroke-width:1.0;" width="10" x="364.5" y="119.4297"/><rect fill="#FFFFFF" filter="url(#f4fiiwxjgeqdr)" height="59.1328" style="stroke:#A80036;stroke-width:1.0;" width="10" x="922.5" y="148.5625"/><rect fill="#FFFFFF" filter="url(#f4fiiwxjgeqdr)" height="59.1328" style="stroke:#A80036;stroke-width:1.0;" width="10" x="922.5" y="260.9609"/><rect fill="#FFFFFF" filter="url(#f4fiiwxjgeqdr)" height="59.1328" style="stroke:#A80036;stroke-width:1.0;" width="10" x="922.5" y="349.2266"/><rect fill="#FFFFFF" filter="url(#f4fiiwxjgeqdr)" height="30" style="stroke:#A80036;stroke-width:1.0;" width="10" x="1348.5" y="177.6953"/><rect fill="#FFFFFF" filter="url(#f4fiiwxjgeqdr)" height="30" style="stroke:#A80036;stroke-width:1.0;" width="10" x="1480.5" y="290.0938"/><rect fill="#FFFFFF" filter="url(#f4fiiwxjgeqdr)" height="30" style="stroke:#A80036;stroke-width:1.0;" width="10" x="1480.5" y="378.3594"/><polygon fill="#A80036" points="352.5,115.4297,362.5,119.4297,352.5,123.4297,356.5,119.4297" style="stroke:#A80036;stroke-width:1.0;"/><line style="stroke:#A80036;stroke-width:1.0;" x1="43.5" x2="358.5" y1="119.4297" y2="119.4297"/><text fill="#000000" font-family="sans-serif" font-size="13" font-weight="bold" lengthAdjust="spacing" textLength="9" x="50.5" y="114.3638">1</text><text fill="#000000" font-family="sans-serif" font-size="13" lengthAdjust="spacing" textLength="289" x="63.5" y="114.3638">pretende saber qual a entrega mais eficiente</text><polygon fill="#A80036" points="910.5,144.5625,920.5,148.5625,910.5,152.5625,914.5,148.5625" style="stroke:#A80036;stroke-width:1.0;"/><line style="stroke:#A80036;stroke-width:1.0;" x1="374.5" x2="916.5" y1="148.5625" y2="148.5625"/><text fill="#000000" font-family="sans-serif" font-size="13" font-weight="bold" lengthAdjust="spacing" textLength="9" x="381.5" y="143.4966">2</text><text fill="#000000" font-family="sans-serif" font-size="13" lengthAdjust="spacing" textLength="288" x="394.5" y="143.4966">getListaVeiculoEntrega(pesoMaximoEntrega)</text><polygon fill="#A80036" points="1336.5,173.6953,1346.5,177.6953,1336.5,181.6953,1340.5,177.6953" style="stroke:#A80036;stroke-width:1.0;"/><line style="stroke:#A80036;stroke-width:1.0;" x1="932.5" x2="1342.5" y1="177.6953" y2="177.6953"/><text fill="#000000" font-family="sans-serif" font-size="13" font-weight="bold" lengthAdjust="spacing" textLength="8" x="939.5" y="172.6294">3</text><text fill="#000000" font-family="sans-serif" font-size="13" lengthAdjust="spacing" textLength="385" x="951.5" y="172.6294">listaVeiculos = getListaVeiculoEntrega(pesoMaximoEntrega)</text><path d="M287,222.6953 L365,222.6953 L365,229.6953 L355,239.6953 L287,239.6953 L287,222.6953 " fill="#EEEEEE" style="stroke:#000000;stroke-width:1.0;"/><rect fill="none" height="193.6641" style="stroke:#000000;stroke-width:2.0;" width="1259" x="287" y="222.6953"/><text fill="#000000" font-family="sans-serif" font-size="13" font-weight="bold" lengthAdjust="spacing" textLength="33" x="302" y="235.7622">loop</text><polygon fill="#A80036" points="910.5,256.9609,920.5,260.9609,910.5,264.9609,914.5,260.9609" style="stroke:#A80036;stroke-width:1.0;"/><line style="stroke:#A80036;stroke-width:1.0;" x1="374.5" x2="916.5" y1="260.9609" y2="260.9609"/><text fill="#000000" font-family="sans-serif" font-size="13" font-weight="bold" lengthAdjust="spacing" textLength="9" x="381.5" y="255.895">4</text><text fill="#000000" font-family="sans-serif" font-size="13" lengthAdjust="spacing" textLength="516" x="394.5" y="255.895">generateGraphScooter(listEnderecosScooter, listEnderecos, est, v, pesoEntrega)</text><polygon fill="#A80036" points="1468.5,286.0938,1478.5,290.0938,1468.5,294.0938,1472.5,290.0938" style="stroke:#A80036;stroke-width:1.0;"/><line style="stroke:#A80036;stroke-width:1.0;" x1="932.5" x2="1474.5" y1="290.0938" y2="290.0938"/><text fill="#000000" font-family="sans-serif" font-size="13" font-weight="bold" lengthAdjust="spacing" textLength="9" x="939.5" y="285.0278">5</text><text fill="#000000" font-family="sans-serif" font-size="13" lengthAdjust="spacing" textLength="516" x="952.5" y="285.0278">generateGraphScooter(listEnderecosScooter, listEnderecos, est, v, pesoEntrega)</text><polygon fill="#A80036" points="910.5,345.2266,920.5,349.2266,910.5,353.2266,914.5,349.2266" style="stroke:#A80036;stroke-width:1.0;"/><line style="stroke:#A80036;stroke-width:1.0;" x1="374.5" x2="916.5" y1="349.2266" y2="349.2266"/><text fill="#000000" font-family="sans-serif" font-size="13" font-weight="bold" lengthAdjust="spacing" textLength="9" x="381.5" y="344.1606">6</text><text fill="#000000" font-family="sans-serif" font-size="13" lengthAdjust="spacing" textLength="486" x="394.5" y="344.1606">getPath(graphScooter, listEnderecos, finalShortPathScooter, endereco, 0, v)</text><polygon fill="#A80036" points="1468.5,374.3594,1478.5,378.3594,1468.5,382.3594,1472.5,378.3594" style="stroke:#A80036;stroke-width:1.0;"/><line style="stroke:#A80036;stroke-width:1.0;" x1="932.5" x2="1474.5" y1="378.3594" y2="378.3594"/><text fill="#000000" font-family="sans-serif" font-size="13" font-weight="bold" lengthAdjust="spacing" textLength="9" x="939.5" y="373.2935">7</text><text fill="#000000" font-family="sans-serif" font-size="13" lengthAdjust="spacing" textLength="486" x="952.5" y="373.2935">getPath(graphScooter, listEnderecos, finalShortPathScooter, endereco, 0, v)</text><polygon fill="#A80036" points="49.5,440.4922,39.5,444.4922,49.5,448.4922,45.5,444.4922" style="stroke:#A80036;stroke-width:1.0;"/><line style="stroke:#A80036;stroke-width:1.0;stroke-dasharray:2.0,2.0;" x1="43.5" x2="368.5" y1="444.4922" y2="444.4922"/><text fill="#000000" font-family="sans-serif" font-size="13" font-weight="bold" lengthAdjust="spacing" textLength="9" x="55.5" y="439.4263">8</text><text fill="#000000" font-family="sans-serif" font-size="13" lengthAdjust="spacing" textLength="127" x="68.5" y="439.4263">apresenta os dados</text><!--MD5=[aa201f8df8d4464da69afd49c58e4c29]
@startuml
autonumber

actor "Estafeta" as ADMIN

participant ":RegistarEntregUI" as UI
participant ":RegistarEntregaController" as CTRL
participant ":VeiculoDB" as DRDB
participant ":EntregaDB" as ENDB



activate ADMIN
ADMIN -> UI : pretende saber qual a entrega mais eficiente
activate UI
UI -> CTRL : getListaVeiculoEntrega(pesoMaximoEntrega)
activate CTRL
CTRL -> DRDB : listaVeiculos = getListaVeiculoEntrega(pesoMaximoEntrega)
activate DRDB
deactivate DRDB
deactivate CTRL
loop
UI -> CTRL : generateGraphScooter(listEnderecosScooter, listEnderecos, est, v, pesoEntrega)
activate CTRL
CTRL -> ENDB : generateGraphScooter(listEnderecosScooter, listEnderecos, est, v, pesoEntrega)
activate ENDB
deactivate ENDB
deactivate CTRL
UI -> CTRL : getPath(graphScooter, listEnderecos, finalShortPathScooter, endereco, 0, v)
activate CTRL
CTRL -> ENDB : getPath(graphScooter, listEnderecos, finalShortPathScooter, endereco, 0, v)
activate ENDB
deactivate ENDB
deactivate CTRL
end loop
UI - -> ADMIN : apresenta os dados
deactivate UI

deactivate ADMIN
@enduml

PlantUML version 1.2021.01beta3(Unknown compile time)
(GPL source distribution)
Java Runtime: Java(TM) SE Runtime Environment
JVM: Java HotSpot(TM) 64-Bit Server VM
Default Encoding: UTF-8
Language: en
Country: US
--></g></svg>