<?xml version="1.0" encoding="UTF-8" standalone="no"?><svg xmlns="http://www.w3.org/2000/svg" xmlns:xlink="http://www.w3.org/1999/xlink" contentScriptType="application/ecmascript" contentStyleType="text/css" height="1092px" preserveAspectRatio="none" style="width:927px;height:1092px;" version="1.1" viewBox="0 0 927 1092" width="927px" zoomAndPan="magnify"><defs><filter height="300%" id="ftlsegqckbejh" width="300%" x="-1" y="-1"><feGaussianBlur result="blurOut" stdDeviation="2.0"/><feColorMatrix in="blurOut" result="blurOut2" type="matrix" values="0 0 0 0 0 0 0 0 0 0 0 0 0 0 0 0 0 0 .4 0"/><feOffset dx="4.0" dy="4.0" in="blurOut2" result="blurOut3"/><feBlend in="SourceGraphic" in2="blurOut3" mode="normal"/></filter></defs><g><!--MD5=[eedb9d86e2ada2a30e84607ee2eb675b]
class EncomendaDB--><rect codeLine="3" fill="#FEFECE" filter="url(#ftlsegqckbejh)" height="60.8047" id="EncomendaDB" style="stroke:#A80036;stroke-width:1.5;" width="141" x="764" y="485.5"/><ellipse cx="788.9" cy="501.5" fill="#ADD1B2" rx="11" ry="11" style="stroke:#A80036;stroke-width:1.0;"/><path d="M791.2438,497.1719 C790.3063,496.7344 789.7125,496.5938 788.8375,496.5938 C786.2125,496.5938 784.2125,498.6719 784.2125,501.3906 L784.2125,502.5156 C784.2125,505.0938 786.3219,506.9844 789.2125,506.9844 C790.4313,506.9844 791.5875,506.6875 792.3375,506.1406 C792.9156,505.7344 793.2438,505.2813 793.2438,504.8906 C793.2438,504.4375 792.8531,504.0469 792.3844,504.0469 C792.1656,504.0469 791.9625,504.125 791.775,504.3125 C791.3219,504.7969 791.3219,504.7969 791.1344,504.8906 C790.7125,505.1563 790.025,505.2813 789.2594,505.2813 C787.2125,505.2813 785.9156,504.1875 785.9156,502.4844 L785.9156,501.3906 C785.9156,499.6094 787.1656,498.2969 788.9,498.2969 C789.4781,498.2969 790.0875,498.4531 790.5563,498.7031 C791.0406,498.9844 791.2125,499.2031 791.3063,499.6094 C791.3688,500.0156 791.4,500.1406 791.5406,500.2656 C791.6813,500.4063 791.9156,500.5156 792.1344,500.5156 C792.4,500.5156 792.6656,500.375 792.8375,500.1563 C792.9469,500 792.9781,499.8125 792.9781,499.3906 L792.9781,497.9688 C792.9781,497.5313 792.9625,497.4063 792.8688,497.25 C792.7125,496.9844 792.4313,496.8438 792.1344,496.8438 C791.8375,496.8438 791.6344,496.9375 791.4156,497.25 L791.2438,497.1719 Z " fill="#000000"/><text fill="#000000" font-family="sans-serif" font-size="12" lengthAdjust="spacing" textLength="87" x="805.1" y="505.6543">EncomendaDB</text><line style="stroke:#A80036;stroke-width:1.5;" x1="765" x2="904" y1="517.5" y2="517.5"/><line style="stroke:#A80036;stroke-width:1.5;" x1="765" x2="904" y1="525.5" y2="525.5"/><text fill="#000000" font-family="sans-serif" font-size="11" lengthAdjust="spacing" textLength="129" x="770" y="539.7104">+getListaEncomenda()</text><!--MD5=[598a246086efa0137d5aa96a640f0789]
class EntregaDB--><rect codeLine="7" fill="#FEFECE" filter="url(#ftlsegqckbejh)" height="60.8047" id="EntregaDB" style="stroke:#A80036;stroke-width:1.5;" width="238" x="546.5" y="350"/><ellipse cx="629.75" cy="366" fill="#ADD1B2" rx="11" ry="11" style="stroke:#A80036;stroke-width:1.0;"/><path d="M632.0938,361.6719 C631.1563,361.2344 630.5625,361.0938 629.6875,361.0938 C627.0625,361.0938 625.0625,363.1719 625.0625,365.8906 L625.0625,367.0156 C625.0625,369.5938 627.1719,371.4844 630.0625,371.4844 C631.2813,371.4844 632.4375,371.1875 633.1875,370.6406 C633.7656,370.2344 634.0938,369.7813 634.0938,369.3906 C634.0938,368.9375 633.7031,368.5469 633.2344,368.5469 C633.0156,368.5469 632.8125,368.625 632.625,368.8125 C632.1719,369.2969 632.1719,369.2969 631.9844,369.3906 C631.5625,369.6563 630.875,369.7813 630.1094,369.7813 C628.0625,369.7813 626.7656,368.6875 626.7656,366.9844 L626.7656,365.8906 C626.7656,364.1094 628.0156,362.7969 629.75,362.7969 C630.3281,362.7969 630.9375,362.9531 631.4063,363.2031 C631.8906,363.4844 632.0625,363.7031 632.1563,364.1094 C632.2188,364.5156 632.25,364.6406 632.3906,364.7656 C632.5313,364.9063 632.7656,365.0156 632.9844,365.0156 C633.25,365.0156 633.5156,364.875 633.6875,364.6563 C633.7969,364.5 633.8281,364.3125 633.8281,363.8906 L633.8281,362.4688 C633.8281,362.0313 633.8125,361.9063 633.7188,361.75 C633.5625,361.4844 633.2813,361.3438 632.9844,361.3438 C632.6875,361.3438 632.4844,361.4375 632.2656,361.75 L632.0938,361.6719 Z " fill="#000000"/><text fill="#000000" font-family="sans-serif" font-size="12" lengthAdjust="spacing" textLength="63" x="650.25" y="370.1543">EntregaDB</text><line style="stroke:#A80036;stroke-width:1.5;" x1="547.5" x2="783.5" y1="382" y2="382"/><line style="stroke:#A80036;stroke-width:1.5;" x1="547.5" x2="783.5" y1="390" y2="390"/><text fill="#000000" font-family="sans-serif" font-size="11" lengthAdjust="spacing" textLength="226" x="552.5" y="404.2104">+getEntregaEficiente(listaEncomendas)</text><!--MD5=[0b96431f48c75c7948e638dd0365dea1]
class RegistarEntregaController--><rect codeLine="11" fill="#FEFECE" filter="url(#ftlsegqckbejh)" height="73.6094" id="RegistarEntregaController" style="stroke:#A80036;stroke-width:1.5;" width="238" x="675.5" y="141.5"/><ellipse cx="713.9" cy="157.5" fill="#ADD1B2" rx="11" ry="11" style="stroke:#A80036;stroke-width:1.0;"/><path d="M716.2438,153.1719 C715.3063,152.7344 714.7125,152.5938 713.8375,152.5938 C711.2125,152.5938 709.2125,154.6719 709.2125,157.3906 L709.2125,158.5156 C709.2125,161.0938 711.3219,162.9844 714.2125,162.9844 C715.4313,162.9844 716.5875,162.6875 717.3375,162.1406 C717.9156,161.7344 718.2438,161.2813 718.2438,160.8906 C718.2438,160.4375 717.8531,160.0469 717.3844,160.0469 C717.1656,160.0469 716.9625,160.125 716.775,160.3125 C716.3219,160.7969 716.3219,160.7969 716.1344,160.8906 C715.7125,161.1563 715.025,161.2813 714.2594,161.2813 C712.2125,161.2813 710.9156,160.1875 710.9156,158.4844 L710.9156,157.3906 C710.9156,155.6094 712.1656,154.2969 713.9,154.2969 C714.4781,154.2969 715.0875,154.4531 715.5563,154.7031 C716.0406,154.9844 716.2125,155.2031 716.3063,155.6094 C716.3688,156.0156 716.4,156.1406 716.5406,156.2656 C716.6813,156.4063 716.9156,156.5156 717.1344,156.5156 C717.4,156.5156 717.6656,156.375 717.8375,156.1563 C717.9469,156 717.9781,155.8125 717.9781,155.3906 L717.9781,153.9688 C717.9781,153.5313 717.9625,153.4063 717.8688,153.25 C717.7125,152.9844 717.4313,152.8438 717.1344,152.8438 C716.8375,152.8438 716.6344,152.9375 716.4156,153.25 L716.2438,153.1719 Z " fill="#000000"/><text fill="#000000" font-family="sans-serif" font-size="12" lengthAdjust="spacing" textLength="154" x="733.1" y="161.6543">RegistarEntregaController</text><line style="stroke:#A80036;stroke-width:1.5;" x1="676.5" x2="912.5" y1="173.5" y2="173.5"/><line style="stroke:#A80036;stroke-width:1.5;" x1="676.5" x2="912.5" y1="181.5" y2="181.5"/><text fill="#000000" font-family="sans-serif" font-size="11" lengthAdjust="spacing" textLength="226" x="681.5" y="195.7104">+getEntregaEficiente(listaEncomendas)</text><text fill="#000000" font-family="sans-serif" font-size="11" lengthAdjust="spacing" textLength="129" x="681.5" y="208.5151">+getListaEncomenda()</text><!--MD5=[7a561ec8a1cf4ba3fadee4d155dd8051]
class RegistarEntregaUI--><rect codeLine="16" fill="#FEFECE" filter="url(#ftlsegqckbejh)" height="48" id="RegistarEntregaUI" style="stroke:#A80036;stroke-width:1.5;" width="139" x="725" y="7"/><ellipse cx="740" cy="23" fill="#ADD1B2" rx="11" ry="11" style="stroke:#A80036;stroke-width:1.0;"/><path d="M742.3438,18.6719 C741.4063,18.2344 740.8125,18.0938 739.9375,18.0938 C737.3125,18.0938 735.3125,20.1719 735.3125,22.8906 L735.3125,24.0156 C735.3125,26.5938 737.4219,28.4844 740.3125,28.4844 C741.5313,28.4844 742.6875,28.1875 743.4375,27.6406 C744.0156,27.2344 744.3438,26.7813 744.3438,26.3906 C744.3438,25.9375 743.9531,25.5469 743.4844,25.5469 C743.2656,25.5469 743.0625,25.625 742.875,25.8125 C742.4219,26.2969 742.4219,26.2969 742.2344,26.3906 C741.8125,26.6563 741.125,26.7813 740.3594,26.7813 C738.3125,26.7813 737.0156,25.6875 737.0156,23.9844 L737.0156,22.8906 C737.0156,21.1094 738.2656,19.7969 740,19.7969 C740.5781,19.7969 741.1875,19.9531 741.6563,20.2031 C742.1406,20.4844 742.3125,20.7031 742.4063,21.1094 C742.4688,21.5156 742.5,21.6406 742.6406,21.7656 C742.7813,21.9063 743.0156,22.0156 743.2344,22.0156 C743.5,22.0156 743.7656,21.875 743.9375,21.6563 C744.0469,21.5 744.0781,21.3125 744.0781,20.8906 L744.0781,19.4688 C744.0781,19.0313 744.0625,18.9063 743.9688,18.75 C743.8125,18.4844 743.5313,18.3438 743.2344,18.3438 C742.9375,18.3438 742.7344,18.4375 742.5156,18.75 L742.3438,18.6719 Z " fill="#000000"/><text fill="#000000" font-family="sans-serif" font-size="12" lengthAdjust="spacing" textLength="107" x="754" y="27.1543">RegistarEntregaUI</text><line style="stroke:#A80036;stroke-width:1.5;" x1="726" x2="863" y1="39" y2="39"/><line style="stroke:#A80036;stroke-width:1.5;" x1="726" x2="863" y1="47" y2="47"/><!--MD5=[3179f819b5ca0f9c8a1bd58e9144681b]
class Entrega--><rect codeLine="20" fill="#FEFECE" filter="url(#ftlsegqckbejh)" height="86.4141" id="Entrega" style="stroke:#A80036;stroke-width:1.5;" width="115" x="303" y="589"/><ellipse cx="334.65" cy="605" fill="#ADD1B2" rx="11" ry="11" style="stroke:#A80036;stroke-width:1.0;"/><path d="M336.9938,600.6719 C336.0563,600.2344 335.4625,600.0938 334.5875,600.0938 C331.9625,600.0938 329.9625,602.1719 329.9625,604.8906 L329.9625,606.0156 C329.9625,608.5938 332.0719,610.4844 334.9625,610.4844 C336.1813,610.4844 337.3375,610.1875 338.0875,609.6406 C338.6656,609.2344 338.9938,608.7813 338.9938,608.3906 C338.9938,607.9375 338.6031,607.5469 338.1344,607.5469 C337.9156,607.5469 337.7125,607.625 337.525,607.8125 C337.0719,608.2969 337.0719,608.2969 336.8844,608.3906 C336.4625,608.6563 335.775,608.7813 335.0094,608.7813 C332.9625,608.7813 331.6656,607.6875 331.6656,605.9844 L331.6656,604.8906 C331.6656,603.1094 332.9156,601.7969 334.65,601.7969 C335.2281,601.7969 335.8375,601.9531 336.3063,602.2031 C336.7906,602.4844 336.9625,602.7031 337.0563,603.1094 C337.1188,603.5156 337.15,603.6406 337.2906,603.7656 C337.4313,603.9063 337.6656,604.0156 337.8844,604.0156 C338.15,604.0156 338.4156,603.875 338.5875,603.6563 C338.6969,603.5 338.7281,603.3125 338.7281,602.8906 L338.7281,601.4688 C338.7281,601.0313 338.7125,600.9063 338.6188,600.75 C338.4625,600.4844 338.1813,600.3438 337.8844,600.3438 C337.5875,600.3438 337.3844,600.4375 337.1656,600.75 L336.9938,600.6719 Z " fill="#000000"/><text fill="#000000" font-family="sans-serif" font-size="12" lengthAdjust="spacing" textLength="46" x="352.35" y="609.1543">Entrega</text><line style="stroke:#A80036;stroke-width:1.5;" x1="304" x2="417" y1="621" y2="621"/><text fill="#000000" font-family="sans-serif" font-size="11" lengthAdjust="spacing" textLength="103" x="309" y="635.2104">-Integer idEntrega</text><text fill="#000000" font-family="sans-serif" font-size="11" lengthAdjust="spacing" textLength="95" x="309" y="648.0151">-String dataInicio</text><text fill="#000000" font-family="sans-serif" font-size="11" lengthAdjust="spacing" textLength="86" x="309" y="660.8198">-String dataFim</text><line style="stroke:#A80036;stroke-width:1.5;" x1="304" x2="417" y1="667.4141" y2="667.4141"/><!--MD5=[c55f92ccbf0646788158d42f3399cc78]
class Encomenda--><rect codeLine="26" fill="#FEFECE" filter="url(#ftlsegqckbejh)" height="112.0234" id="Encomenda" style="stroke:#A80036;stroke-width:1.5;" width="156" x="415.5" y="771"/><ellipse cx="454.8" cy="787" fill="#ADD1B2" rx="11" ry="11" style="stroke:#A80036;stroke-width:1.0;"/><path d="M457.1438,782.6719 C456.2063,782.2344 455.6125,782.0938 454.7375,782.0938 C452.1125,782.0938 450.1125,784.1719 450.1125,786.8906 L450.1125,788.0156 C450.1125,790.5938 452.2219,792.4844 455.1125,792.4844 C456.3313,792.4844 457.4875,792.1875 458.2375,791.6406 C458.8156,791.2344 459.1438,790.7813 459.1438,790.3906 C459.1438,789.9375 458.7531,789.5469 458.2844,789.5469 C458.0656,789.5469 457.8625,789.625 457.675,789.8125 C457.2219,790.2969 457.2219,790.2969 457.0344,790.3906 C456.6125,790.6563 455.925,790.7813 455.1594,790.7813 C453.1125,790.7813 451.8156,789.6875 451.8156,787.9844 L451.8156,786.8906 C451.8156,785.1094 453.0656,783.7969 454.8,783.7969 C455.3781,783.7969 455.9875,783.9531 456.4563,784.2031 C456.9406,784.4844 457.1125,784.7031 457.2063,785.1094 C457.2688,785.5156 457.3,785.6406 457.4406,785.7656 C457.5813,785.9063 457.8156,786.0156 458.0344,786.0156 C458.3,786.0156 458.5656,785.875 458.7375,785.6563 C458.8469,785.5 458.8781,785.3125 458.8781,784.8906 L458.8781,783.4688 C458.8781,783.0313 458.8625,782.9063 458.7688,782.75 C458.6125,782.4844 458.3313,782.3438 458.0344,782.3438 C457.7375,782.3438 457.5344,782.4375 457.3156,782.75 L457.1438,782.6719 Z " fill="#000000"/><text fill="#000000" font-family="sans-serif" font-size="12" lengthAdjust="spacing" textLength="70" x="474.2" y="791.1543">Encomenda</text><line style="stroke:#A80036;stroke-width:1.5;" x1="416.5" x2="570.5" y1="803" y2="803"/><text fill="#000000" font-family="sans-serif" font-size="11" lengthAdjust="spacing" textLength="126" x="421.5" y="817.2104">-Integer idEncomenda</text><text fill="#000000" font-family="sans-serif" font-size="11" lengthAdjust="spacing" textLength="104" x="421.5" y="830.0151">-String dataPedida</text><text fill="#000000" font-family="sans-serif" font-size="11" lengthAdjust="spacing" textLength="81" x="421.5" y="842.8198">-Double preco</text><text fill="#000000" font-family="sans-serif" font-size="11" lengthAdjust="spacing" textLength="144" x="421.5" y="855.6245">-Double pesoEncomenda</text><text fill="#000000" font-family="sans-serif" font-size="11" lengthAdjust="spacing" textLength="74" x="421.5" y="868.4292">-Double taxa</text><line style="stroke:#A80036;stroke-width:1.5;" x1="416.5" x2="570.5" y1="875.0234" y2="875.0234"/><!--MD5=[533e824b6b94274ee39bf5a43d7cce2a]
class EstadoEncomenda--><rect codeLine="34" fill="#FEFECE" filter="url(#ftlsegqckbejh)" height="73.6094" id="EstadoEncomenda" style="stroke:#A80036;stroke-width:1.5;" width="190" x="303.5" y="991.5"/><ellipse cx="339.65" cy="1007.5" fill="#ADD1B2" rx="11" ry="11" style="stroke:#A80036;stroke-width:1.0;"/><path d="M341.9938,1003.1719 C341.0563,1002.7344 340.4625,1002.5938 339.5875,1002.5938 C336.9625,1002.5938 334.9625,1004.6719 334.9625,1007.3906 L334.9625,1008.5156 C334.9625,1011.0938 337.0719,1012.9844 339.9625,1012.9844 C341.1813,1012.9844 342.3375,1012.6875 343.0875,1012.1406 C343.6656,1011.7344 343.9938,1011.2813 343.9938,1010.8906 C343.9938,1010.4375 343.6031,1010.0469 343.1344,1010.0469 C342.9156,1010.0469 342.7125,1010.125 342.525,1010.3125 C342.0719,1010.7969 342.0719,1010.7969 341.8844,1010.8906 C341.4625,1011.1563 340.775,1011.2813 340.0094,1011.2813 C337.9625,1011.2813 336.6656,1010.1875 336.6656,1008.4844 L336.6656,1007.3906 C336.6656,1005.6094 337.9156,1004.2969 339.65,1004.2969 C340.2281,1004.2969 340.8375,1004.4531 341.3063,1004.7031 C341.7906,1004.9844 341.9625,1005.2031 342.0563,1005.6094 C342.1188,1006.0156 342.15,1006.1406 342.2906,1006.2656 C342.4313,1006.4063 342.6656,1006.5156 342.8844,1006.5156 C343.15,1006.5156 343.4156,1006.375 343.5875,1006.1563 C343.6969,1006 343.7281,1005.8125 343.7281,1005.3906 L343.7281,1003.9688 C343.7281,1003.5313 343.7125,1003.4063 343.6188,1003.25 C343.4625,1002.9844 343.1813,1002.8438 342.8844,1002.8438 C342.5875,1002.8438 342.3844,1002.9375 342.1656,1003.25 L341.9938,1003.1719 Z " fill="#000000"/><text fill="#000000" font-family="sans-serif" font-size="12" lengthAdjust="spacing" textLength="111" x="358.35" y="1011.6543">EstadoEncomenda</text><line style="stroke:#A80036;stroke-width:1.5;" x1="304.5" x2="492.5" y1="1023.5" y2="1023.5"/><text fill="#000000" font-family="sans-serif" font-size="11" lengthAdjust="spacing" textLength="178" x="309.5" y="1037.7104">-Integer id_estado_encomenda</text><text fill="#000000" font-family="sans-serif" font-size="11" lengthAdjust="spacing" textLength="106" x="309.5" y="1050.5151">-String designacao</text><line style="stroke:#A80036;stroke-width:1.5;" x1="304.5" x2="492.5" y1="1057.1094" y2="1057.1094"/><!--MD5=[d4dacc50d49878ba7c621dfc80a2e1ce]
class Produto--><rect codeLine="39" fill="#FEFECE" filter="url(#ftlsegqckbejh)" height="99.2188" id="Produto" style="stroke:#A80036;stroke-width:1.5;" width="122" x="528.5" y="979"/><ellipse cx="563.3" cy="995" fill="#ADD1B2" rx="11" ry="11" style="stroke:#A80036;stroke-width:1.0;"/><path d="M565.6438,990.6719 C564.7063,990.2344 564.1125,990.0938 563.2375,990.0938 C560.6125,990.0938 558.6125,992.1719 558.6125,994.8906 L558.6125,996.0156 C558.6125,998.5938 560.7219,1000.4844 563.6125,1000.4844 C564.8313,1000.4844 565.9875,1000.1875 566.7375,999.6406 C567.3156,999.2344 567.6438,998.7813 567.6438,998.3906 C567.6438,997.9375 567.2531,997.5469 566.7844,997.5469 C566.5656,997.5469 566.3625,997.625 566.175,997.8125 C565.7219,998.2969 565.7219,998.2969 565.5344,998.3906 C565.1125,998.6563 564.425,998.7813 563.6594,998.7813 C561.6125,998.7813 560.3156,997.6875 560.3156,995.9844 L560.3156,994.8906 C560.3156,993.1094 561.5656,991.7969 563.3,991.7969 C563.8781,991.7969 564.4875,991.9531 564.9563,992.2031 C565.4406,992.4844 565.6125,992.7031 565.7063,993.1094 C565.7688,993.5156 565.8,993.6406 565.9406,993.7656 C566.0813,993.9063 566.3156,994.0156 566.5344,994.0156 C566.8,994.0156 567.0656,993.875 567.2375,993.6563 C567.3469,993.5 567.3781,993.3125 567.3781,992.8906 L567.3781,991.4688 C567.3781,991.0313 567.3625,990.9063 567.2688,990.75 C567.1125,990.4844 566.8313,990.3438 566.5344,990.3438 C566.2375,990.3438 566.0344,990.4375 565.8156,990.75 L565.6438,990.6719 Z " fill="#000000"/><text fill="#000000" font-family="sans-serif" font-size="12" lengthAdjust="spacing" textLength="46" x="581.7" y="999.1543">Produto</text><line style="stroke:#A80036;stroke-width:1.5;" x1="529.5" x2="649.5" y1="1011" y2="1011"/><text fill="#000000" font-family="sans-serif" font-size="11" lengthAdjust="spacing" textLength="101" x="534.5" y="1025.2104">-Integer idProduto</text><text fill="#000000" font-family="sans-serif" font-size="11" lengthAdjust="spacing" textLength="106" x="534.5" y="1038.0151">-String designacao</text><text fill="#000000" font-family="sans-serif" font-size="11" lengthAdjust="spacing" textLength="77" x="534.5" y="1050.8198">-Double peso</text><text fill="#000000" font-family="sans-serif" font-size="11" lengthAdjust="spacing" textLength="110" x="534.5" y="1063.6245">-Double precoBase</text><line style="stroke:#A80036;stroke-width:1.5;" x1="529.5" x2="649.5" y1="1070.2188" y2="1070.2188"/><!--MD5=[3f1202280bfe3359d2f91fb9b6e32986]
class Estafeta--><rect codeLine="46" fill="#FEFECE" filter="url(#ftlsegqckbejh)" height="124.8281" id="Estafeta" style="stroke:#A80036;stroke-width:1.5;" width="200" x="91.5" y="318"/><ellipse cx="163.25" cy="334" fill="#ADD1B2" rx="11" ry="11" style="stroke:#A80036;stroke-width:1.0;"/><path d="M165.5938,329.6719 C164.6563,329.2344 164.0625,329.0938 163.1875,329.0938 C160.5625,329.0938 158.5625,331.1719 158.5625,333.8906 L158.5625,335.0156 C158.5625,337.5938 160.6719,339.4844 163.5625,339.4844 C164.7813,339.4844 165.9375,339.1875 166.6875,338.6406 C167.2656,338.2344 167.5938,337.7813 167.5938,337.3906 C167.5938,336.9375 167.2031,336.5469 166.7344,336.5469 C166.5156,336.5469 166.3125,336.625 166.125,336.8125 C165.6719,337.2969 165.6719,337.2969 165.4844,337.3906 C165.0625,337.6563 164.375,337.7813 163.6094,337.7813 C161.5625,337.7813 160.2656,336.6875 160.2656,334.9844 L160.2656,333.8906 C160.2656,332.1094 161.5156,330.7969 163.25,330.7969 C163.8281,330.7969 164.4375,330.9531 164.9063,331.2031 C165.3906,331.4844 165.5625,331.7031 165.6563,332.1094 C165.7188,332.5156 165.75,332.6406 165.8906,332.7656 C166.0313,332.9063 166.2656,333.0156 166.4844,333.0156 C166.75,333.0156 167.0156,332.875 167.1875,332.6563 C167.2969,332.5 167.3281,332.3125 167.3281,331.8906 L167.3281,330.4688 C167.3281,330.0313 167.3125,329.9063 167.2188,329.75 C167.0625,329.4844 166.7813,329.3438 166.4844,329.3438 C166.1875,329.3438 165.9844,329.4375 165.7656,329.75 L165.5938,329.6719 Z " fill="#000000"/><text fill="#000000" font-family="sans-serif" font-size="12" lengthAdjust="spacing" textLength="48" x="183.75" y="338.1543">Estafeta</text><line style="stroke:#A80036;stroke-width:1.5;" x1="92.5" x2="290.5" y1="350" y2="350"/><text fill="#000000" font-family="sans-serif" font-size="11" lengthAdjust="spacing" textLength="66" x="97.5" y="364.2104">-Integer NIF</text><text fill="#000000" font-family="sans-serif" font-size="11" lengthAdjust="spacing" textLength="74" x="97.5" y="377.0151">-String nome</text><text fill="#000000" font-family="sans-serif" font-size="11" lengthAdjust="spacing" textLength="73" x="97.5" y="389.8198">-String email</text><text fill="#000000" font-family="sans-serif" font-size="11" lengthAdjust="spacing" textLength="188" x="97.5" y="402.6245">-Integer numeroSegurancaSocial</text><text fill="#000000" font-family="sans-serif" font-size="11" lengthAdjust="spacing" textLength="94" x="97.5" y="415.4292">-String password</text><text fill="#000000" font-family="sans-serif" font-size="11" lengthAdjust="spacing" textLength="124" x="97.5" y="428.2339">-Double pesoEstafeta</text><line style="stroke:#A80036;stroke-width:1.5;" x1="92.5" x2="290.5" y1="434.8281" y2="434.8281"/><!--MD5=[36c1942e8942a3e4f47e6de3733e3d18]
class Endereco--><rect codeLine="56" fill="#FEFECE" filter="url(#ftlsegqckbejh)" height="99.2188" id="Endereco" style="stroke:#A80036;stroke-width:1.5;" width="114" x="326.5" y="331"/><ellipse cx="352.3" cy="347" fill="#ADD1B2" rx="11" ry="11" style="stroke:#A80036;stroke-width:1.0;"/><path d="M354.6438,342.6719 C353.7063,342.2344 353.1125,342.0938 352.2375,342.0938 C349.6125,342.0938 347.6125,344.1719 347.6125,346.8906 L347.6125,348.0156 C347.6125,350.5938 349.7219,352.4844 352.6125,352.4844 C353.8313,352.4844 354.9875,352.1875 355.7375,351.6406 C356.3156,351.2344 356.6438,350.7813 356.6438,350.3906 C356.6438,349.9375 356.2531,349.5469 355.7844,349.5469 C355.5656,349.5469 355.3625,349.625 355.175,349.8125 C354.7219,350.2969 354.7219,350.2969 354.5344,350.3906 C354.1125,350.6563 353.425,350.7813 352.6594,350.7813 C350.6125,350.7813 349.3156,349.6875 349.3156,347.9844 L349.3156,346.8906 C349.3156,345.1094 350.5656,343.7969 352.3,343.7969 C352.8781,343.7969 353.4875,343.9531 353.9563,344.2031 C354.4406,344.4844 354.6125,344.7031 354.7063,345.1094 C354.7688,345.5156 354.8,345.6406 354.9406,345.7656 C355.0813,345.9063 355.3156,346.0156 355.5344,346.0156 C355.8,346.0156 356.0656,345.875 356.2375,345.6563 C356.3469,345.5 356.3781,345.3125 356.3781,344.8906 L356.3781,343.4688 C356.3781,343.0313 356.3625,342.9063 356.2688,342.75 C356.1125,342.4844 355.8313,342.3438 355.5344,342.3438 C355.2375,342.3438 355.0344,342.4375 354.8156,342.75 L354.6438,342.6719 Z " fill="#000000"/><text fill="#000000" font-family="sans-serif" font-size="12" lengthAdjust="spacing" textLength="58" x="368.7" y="351.1543">Endereco</text><line style="stroke:#A80036;stroke-width:1.5;" x1="327.5" x2="439.5" y1="363" y2="363"/><text fill="#000000" font-family="sans-serif" font-size="11" lengthAdjust="spacing" textLength="84" x="332.5" y="377.2104">-String morada</text><text fill="#000000" font-family="sans-serif" font-size="11" lengthAdjust="spacing" textLength="92" x="332.5" y="390.0151">-Double latitude</text><text fill="#000000" font-family="sans-serif" font-size="11" lengthAdjust="spacing" textLength="102" x="332.5" y="402.8198">-Double longitude</text><text fill="#000000" font-family="sans-serif" font-size="11" lengthAdjust="spacing" textLength="92" x="332.5" y="415.6245">-Double altitude</text><line style="stroke:#A80036;stroke-width:1.5;" x1="327.5" x2="439.5" y1="422.2188" y2="422.2188"/><!--MD5=[8505c5852735283b5a8424161266bb9f]
class Veiculo--><rect codeLine="63" fill="#FEFECE" filter="url(#ftlsegqckbejh)" height="150.4375" id="Veiculo" style="stroke:#A80036;stroke-width:1.5;" width="179" x="140" y="752"/><ellipse cx="203.25" cy="768" fill="#ADD1B2" rx="11" ry="11" style="stroke:#A80036;stroke-width:1.0;"/><path d="M205.5938,763.6719 C204.6563,763.2344 204.0625,763.0938 203.1875,763.0938 C200.5625,763.0938 198.5625,765.1719 198.5625,767.8906 L198.5625,769.0156 C198.5625,771.5938 200.6719,773.4844 203.5625,773.4844 C204.7813,773.4844 205.9375,773.1875 206.6875,772.6406 C207.2656,772.2344 207.5938,771.7813 207.5938,771.3906 C207.5938,770.9375 207.2031,770.5469 206.7344,770.5469 C206.5156,770.5469 206.3125,770.625 206.125,770.8125 C205.6719,771.2969 205.6719,771.2969 205.4844,771.3906 C205.0625,771.6563 204.375,771.7813 203.6094,771.7813 C201.5625,771.7813 200.2656,770.6875 200.2656,768.9844 L200.2656,767.8906 C200.2656,766.1094 201.5156,764.7969 203.25,764.7969 C203.8281,764.7969 204.4375,764.9531 204.9063,765.2031 C205.3906,765.4844 205.5625,765.7031 205.6563,766.1094 C205.7188,766.5156 205.75,766.6406 205.8906,766.7656 C206.0313,766.9063 206.2656,767.0156 206.4844,767.0156 C206.75,767.0156 207.0156,766.875 207.1875,766.6563 C207.2969,766.5 207.3281,766.3125 207.3281,765.8906 L207.3281,764.4688 C207.3281,764.0313 207.3125,763.9063 207.2188,763.75 C207.0625,763.4844 206.7813,763.3438 206.4844,763.3438 C206.1875,763.3438 205.9844,763.4375 205.7656,763.75 L205.5938,763.6719 Z " fill="#000000"/><text fill="#000000" font-family="sans-serif" font-size="12" lengthAdjust="spacing" textLength="44" x="223.75" y="772.1543">Veiculo</text><line style="stroke:#A80036;stroke-width:1.5;" x1="141" x2="318" y1="784" y2="784"/><text fill="#000000" font-family="sans-serif" font-size="11" lengthAdjust="spacing" textLength="101" x="146" y="798.2104">-Integer idVeiculo</text><text fill="#000000" font-family="sans-serif" font-size="11" lengthAdjust="spacing" textLength="95" x="146" y="811.0151">-String descricao</text><text fill="#000000" font-family="sans-serif" font-size="11" lengthAdjust="spacing" textLength="62" x="146" y="823.8198">-String tipo</text><text fill="#000000" font-family="sans-serif" font-size="11" lengthAdjust="spacing" textLength="167" x="146" y="836.6245">-Double percentagemBateria</text><text fill="#000000" font-family="sans-serif" font-size="11" lengthAdjust="spacing" textLength="121" x="146" y="849.4292">-Double pesoMaximo</text><text fill="#000000" font-family="sans-serif" font-size="11" lengthAdjust="spacing" textLength="119" x="146" y="862.2339">-Double pesoVeiculo</text><text fill="#000000" font-family="sans-serif" font-size="11" lengthAdjust="spacing" textLength="98" x="146" y="875.0386">-Double potencia</text><text fill="#000000" font-family="sans-serif" font-size="11" lengthAdjust="spacing" textLength="113" x="146" y="887.8433">-Double areaFrontal</text><line style="stroke:#A80036;stroke-width:1.5;" x1="141" x2="318" y1="894.4375" y2="894.4375"/><!--MD5=[1a083dbe42a284ae0ea7f6f701783206]
class Parque--><rect codeLine="74" fill="#FEFECE" filter="url(#ftlsegqckbejh)" height="86.4141" id="Parque" style="stroke:#A80036;stroke-width:1.5;" width="149" x="7" y="473"/><ellipse cx="56.75" cy="489" fill="#ADD1B2" rx="11" ry="11" style="stroke:#A80036;stroke-width:1.0;"/><path d="M59.0938,484.6719 C58.1563,484.2344 57.5625,484.0938 56.6875,484.0938 C54.0625,484.0938 52.0625,486.1719 52.0625,488.8906 L52.0625,490.0156 C52.0625,492.5938 54.1719,494.4844 57.0625,494.4844 C58.2813,494.4844 59.4375,494.1875 60.1875,493.6406 C60.7656,493.2344 61.0938,492.7813 61.0938,492.3906 C61.0938,491.9375 60.7031,491.5469 60.2344,491.5469 C60.0156,491.5469 59.8125,491.625 59.625,491.8125 C59.1719,492.2969 59.1719,492.2969 58.9844,492.3906 C58.5625,492.6563 57.875,492.7813 57.1094,492.7813 C55.0625,492.7813 53.7656,491.6875 53.7656,489.9844 L53.7656,488.8906 C53.7656,487.1094 55.0156,485.7969 56.75,485.7969 C57.3281,485.7969 57.9375,485.9531 58.4063,486.2031 C58.8906,486.4844 59.0625,486.7031 59.1563,487.1094 C59.2188,487.5156 59.25,487.6406 59.3906,487.7656 C59.5313,487.9063 59.7656,488.0156 59.9844,488.0156 C60.25,488.0156 60.5156,487.875 60.6875,487.6563 C60.7969,487.5 60.8281,487.3125 60.8281,486.8906 L60.8281,485.4688 C60.8281,485.0313 60.8125,484.9063 60.7188,484.75 C60.5625,484.4844 60.2813,484.3438 59.9844,484.3438 C59.6875,484.3438 59.4844,484.4375 59.2656,484.75 L59.0938,484.6719 Z " fill="#000000"/><text fill="#000000" font-family="sans-serif" font-size="12" lengthAdjust="spacing" textLength="41" x="77.25" y="493.1543">Parque</text><line style="stroke:#A80036;stroke-width:1.5;" x1="8" x2="155" y1="505" y2="505"/><text fill="#000000" font-family="sans-serif" font-size="11" lengthAdjust="spacing" textLength="98" x="13" y="519.2104">-Integer idParque</text><text fill="#000000" font-family="sans-serif" font-size="11" lengthAdjust="spacing" textLength="137" x="13" y="532.0151">-Integer numeroMaximo</text><text fill="#000000" font-family="sans-serif" font-size="11" lengthAdjust="spacing" textLength="62" x="13" y="544.8198">-String tipo</text><line style="stroke:#A80036;stroke-width:1.5;" x1="8" x2="155" y1="551.4141" y2="551.4141"/><!--MD5=[20a748d5ee336a9a91751b0a3d4f0beb]
class Cliente--><rect codeLine="80" fill="#FEFECE" filter="url(#ftlsegqckbejh)" height="124.8281" id="Cliente" style="stroke:#A80036;stroke-width:1.5;" width="155" x="372" y="116"/><ellipse cx="424.75" cy="132" fill="#ADD1B2" rx="11" ry="11" style="stroke:#A80036;stroke-width:1.0;"/><path d="M427.0938,127.6719 C426.1563,127.2344 425.5625,127.0938 424.6875,127.0938 C422.0625,127.0938 420.0625,129.1719 420.0625,131.8906 L420.0625,133.0156 C420.0625,135.5938 422.1719,137.4844 425.0625,137.4844 C426.2813,137.4844 427.4375,137.1875 428.1875,136.6406 C428.7656,136.2344 429.0938,135.7813 429.0938,135.3906 C429.0938,134.9375 428.7031,134.5469 428.2344,134.5469 C428.0156,134.5469 427.8125,134.625 427.625,134.8125 C427.1719,135.2969 427.1719,135.2969 426.9844,135.3906 C426.5625,135.6563 425.875,135.7813 425.1094,135.7813 C423.0625,135.7813 421.7656,134.6875 421.7656,132.9844 L421.7656,131.8906 C421.7656,130.1094 423.0156,128.7969 424.75,128.7969 C425.3281,128.7969 425.9375,128.9531 426.4063,129.2031 C426.8906,129.4844 427.0625,129.7031 427.1563,130.1094 C427.2188,130.5156 427.25,130.6406 427.3906,130.7656 C427.5313,130.9063 427.7656,131.0156 427.9844,131.0156 C428.25,131.0156 428.5156,130.875 428.6875,130.6563 C428.7969,130.5 428.8281,130.3125 428.8281,129.8906 L428.8281,128.4688 C428.8281,128.0313 428.8125,127.9063 428.7188,127.75 C428.5625,127.4844 428.2813,127.3438 427.9844,127.3438 C427.6875,127.3438 427.4844,127.4375 427.2656,127.75 L427.0938,127.6719 Z " fill="#000000"/><text fill="#000000" font-family="sans-serif" font-size="12" lengthAdjust="spacing" textLength="41" x="445.25" y="136.1543">Cliente</text><line style="stroke:#A80036;stroke-width:1.5;" x1="373" x2="526" y1="148" y2="148"/><text fill="#000000" font-family="sans-serif" font-size="11" lengthAdjust="spacing" textLength="66" x="378" y="162.2104">-Integer NIF</text><text fill="#000000" font-family="sans-serif" font-size="11" lengthAdjust="spacing" textLength="74" x="378" y="175.0151">-String nome</text><text fill="#000000" font-family="sans-serif" font-size="11" lengthAdjust="spacing" textLength="73" x="378" y="187.8198">-String email</text><text fill="#000000" font-family="sans-serif" font-size="11" lengthAdjust="spacing" textLength="143" x="378" y="200.6245">-numeroSegurancaSocial</text><text fill="#000000" font-family="sans-serif" font-size="11" lengthAdjust="spacing" textLength="94" x="378" y="213.4292">-String password</text><text fill="#000000" font-family="sans-serif" font-size="11" lengthAdjust="spacing" textLength="94" x="378" y="226.2339">-Double creditos</text><line style="stroke:#A80036;stroke-width:1.5;" x1="373" x2="526" y1="232.8281" y2="232.8281"/><!--MD5=[6613c9cd406ef433ff06f5e98b28abd9]
class Farmacia--><rect codeLine="89" fill="#FEFECE" filter="url(#ftlsegqckbejh)" height="86.4141" id="Farmacia" style="stroke:#A80036;stroke-width:1.5;" width="96" x="143.5" y="135.5"/><ellipse cx="163" cy="151.5" fill="#ADD1B2" rx="11" ry="11" style="stroke:#A80036;stroke-width:1.0;"/><path d="M165.3438,147.1719 C164.4063,146.7344 163.8125,146.5938 162.9375,146.5938 C160.3125,146.5938 158.3125,148.6719 158.3125,151.3906 L158.3125,152.5156 C158.3125,155.0938 160.4219,156.9844 163.3125,156.9844 C164.5313,156.9844 165.6875,156.6875 166.4375,156.1406 C167.0156,155.7344 167.3438,155.2813 167.3438,154.8906 C167.3438,154.4375 166.9531,154.0469 166.4844,154.0469 C166.2656,154.0469 166.0625,154.125 165.875,154.3125 C165.4219,154.7969 165.4219,154.7969 165.2344,154.8906 C164.8125,155.1563 164.125,155.2813 163.3594,155.2813 C161.3125,155.2813 160.0156,154.1875 160.0156,152.4844 L160.0156,151.3906 C160.0156,149.6094 161.2656,148.2969 163,148.2969 C163.5781,148.2969 164.1875,148.4531 164.6563,148.7031 C165.1406,148.9844 165.3125,149.2031 165.4063,149.6094 C165.4688,150.0156 165.5,150.1406 165.6406,150.2656 C165.7813,150.4063 166.0156,150.5156 166.2344,150.5156 C166.5,150.5156 166.7656,150.375 166.9375,150.1563 C167.0469,150 167.0781,149.8125 167.0781,149.3906 L167.0781,147.9688 C167.0781,147.5313 167.0625,147.4063 166.9688,147.25 C166.8125,146.9844 166.5313,146.8438 166.2344,146.8438 C165.9375,146.8438 165.7344,146.9375 165.5156,147.25 L165.3438,147.1719 Z " fill="#000000"/><text fill="#000000" font-family="sans-serif" font-size="12" lengthAdjust="spacing" textLength="54" x="178" y="155.6543">Farmacia</text><line style="stroke:#A80036;stroke-width:1.5;" x1="144.5" x2="238.5" y1="167.5" y2="167.5"/><text fill="#000000" font-family="sans-serif" font-size="11" lengthAdjust="spacing" textLength="66" x="149.5" y="181.7104">-Integer NIF</text><text fill="#000000" font-family="sans-serif" font-size="11" lengthAdjust="spacing" textLength="73" x="149.5" y="194.5151">-String email</text><text fill="#000000" font-family="sans-serif" font-size="11" lengthAdjust="spacing" textLength="84" x="149.5" y="207.3198">-String morada</text><line style="stroke:#A80036;stroke-width:1.5;" x1="144.5" x2="238.5" y1="213.9141" y2="213.9141"/><!--MD5=[055d9a59c94791d1e5417ead9eff8d01]
link Encomenda to EstadoEncomenda--><path codeLine="95" d="M467.289,883.042 C450.868,917.527 430.167,961 415.784,991.203 " fill="none" id="Encomenda-EstadoEncomenda" style="stroke:#A80036;stroke-width:1.0;"/><polygon fill="#000000" points="446.3503,945.0807,452.8926,938.1778,447.5857,935.6507,446.3503,945.0807" style="stroke:#000000;stroke-width:1.0;"/><text fill="#000000" font-family="sans-serif" font-size="13" lengthAdjust="spacing" textLength="26" x="457.5" y="945.0669">tem</text><text fill="#000000" font-family="sans-serif" font-size="13" lengthAdjust="spacing" textLength="8" x="455.4182" y="903.2572">1</text><text fill="#000000" font-family="sans-serif" font-size="13" lengthAdjust="spacing" textLength="8" x="410.1502" y="980.337">1</text><!--MD5=[39609d66ce6d06d1779a14455c909f6f]
link Entrega to Encomenda--><path codeLine="96" d="M383.13,675.428 C391.57,690.433 401.533,707.242 411.5,722 C422.503,738.291 435.303,755.301 447.472,770.733 " fill="none" id="Entrega-Encomenda" style="stroke:#A80036;stroke-width:1.0;"/><polygon fill="#000000" points="419.2977,717.7104,416.6724,708.5694,411.8008,711.8583,419.2977,717.7104" style="stroke:#000000;stroke-width:1.0;"/><text fill="#000000" font-family="sans-serif" font-size="13" lengthAdjust="spacing" textLength="41" x="425.5" y="718.0669">possui</text><text fill="#000000" font-family="sans-serif" font-size="13" lengthAdjust="spacing" textLength="8" x="378.0992" y="695.5891">1</text><text fill="#000000" font-family="sans-serif" font-size="13" lengthAdjust="spacing" textLength="7" x="434.4358" y="760.035">*</text><!--MD5=[328dae9b2f192140d45e51cd90ecd75a]
link Estafeta to Entrega--><path codeLine="97" d="M233.275,443.174 C263.967,488.486 304.865,548.864 331.906,588.786 " fill="none" id="Estafeta-Entrega" style="stroke:#A80036;stroke-width:1.0;"/><polygon fill="#000000" points="319.3041,520.2061,316.6647,511.0691,311.7982,514.3655,319.3041,520.2061" style="stroke:#000000;stroke-width:1.0;"/><text fill="#000000" font-family="sans-serif" font-size="13" lengthAdjust="spacing" textLength="42" x="325.5" y="520.5669">realiza</text><text fill="#000000" font-family="sans-serif" font-size="13" lengthAdjust="spacing" textLength="8" x="229.4066" y="462.9328">1</text><text fill="#000000" font-family="sans-serif" font-size="13" lengthAdjust="spacing" textLength="7" x="319.9916" y="578.0658">*</text><!--MD5=[43a7c1a046aa41d1c9842e3954366be4]
link Cliente to Endereco--><path codeLine="98" d="M429.159,241.139 C419.652,269.947 408.494,303.762 399.587,330.751 " fill="none" id="Cliente-Endereco" style="stroke:#A80036;stroke-width:1.0;"/><polygon fill="#000000" points="421.9331,284.3145,427.5585,276.6461,421.9768,274.8041,421.9331,284.3145" style="stroke:#000000;stroke-width:1.0;"/><text fill="#000000" font-family="sans-serif" font-size="13" lengthAdjust="spacing" textLength="26" x="432.5" y="284.0669">tem</text><text fill="#000000" font-family="sans-serif" font-size="13" lengthAdjust="spacing" textLength="8" x="418.4967" y="260.894">1</text><text fill="#000000" font-family="sans-serif" font-size="13" lengthAdjust="spacing" textLength="8" x="393.2867" y="319.7612">1</text><!--MD5=[beec9e5f2ed2709028dd31c1dc478e7b]
link Cliente to Encomenda--><path codeLine="99" d="M462.943,241.319 C464.723,251.207 466.332,261.357 467.5,271 C489.536,452.944 493.184,670.532 493.601,770.633 " fill="none" id="Cliente-Encomenda" style="stroke:#A80036;stroke-width:1.0;"/><polygon fill="#000000" points="494.7891,521.058,497.2001,511.8582,491.3321,512.198,494.7891,521.058" style="stroke:#000000;stroke-width:1.0;"/><text fill="#000000" font-family="sans-serif" font-size="13" lengthAdjust="spacing" textLength="90" x="503.5" y="520.5669">realiza e paga</text><text fill="#000000" font-family="sans-serif" font-size="13" lengthAdjust="spacing" textLength="8" x="455.9758" y="261.0937">1</text><text fill="#000000" font-family="sans-serif" font-size="13" lengthAdjust="spacing" textLength="7" x="486.1867" y="759.9228">*</text><!--MD5=[cd2aeefe8c457d184a69396a9f9cb06a]
link Entrega to Veiculo--><path codeLine="100" d="M328.67,675.326 C321.587,684.997 314.195,695.288 307.5,705 C297.144,720.021 286.352,736.315 276.214,751.934 " fill="none" id="Entrega-Veiculo" style="stroke:#A80036;stroke-width:1.0;"/><polygon fill="#000000" points="315.3249,709.4409,307.7897,715.2436,312.6395,718.5645,315.3249,709.4409" style="stroke:#000000;stroke-width:1.0;"/><text fill="#000000" font-family="sans-serif" font-size="13" lengthAdjust="spacing" textLength="42" x="321.5" y="718.0669">realiza</text><text fill="#000000" font-family="sans-serif" font-size="13" lengthAdjust="spacing" textLength="7" x="316.0393" y="695.4709">*</text><text fill="#000000" font-family="sans-serif" font-size="13" lengthAdjust="spacing" textLength="8" x="272.4187" y="740.8583">1</text><!--MD5=[60097591193c89dbde5dfd99b98b5263]
link Encomenda to Produto--><path codeLine="101" d="M519.987,883.042 C534.416,913.029 552.116,949.812 566.045,978.7566 " fill="none" id="Encomenda-Produto" style="stroke:#A80036;stroke-width:1.0;"/><polygon fill="#000000" points="557.6681,945.0719,556.3943,935.647,551.0977,938.1957,557.6681,945.0719" style="stroke:#000000;stroke-width:1.0;"/><text fill="#000000" font-family="sans-serif" font-size="13" lengthAdjust="spacing" textLength="26" x="564.5" y="945.0669">tem</text><text fill="#000000" font-family="sans-serif" font-size="13" lengthAdjust="spacing" textLength="8" x="514.8681" y="903.2572">1</text><text fill="#000000" font-family="sans-serif" font-size="13" lengthAdjust="spacing" textLength="7" x="555.2545" y="967.7681">*</text><!--MD5=[639e2fc5a451b1bb392d1ae296701488]
link Parque to Veiculo--><path codeLine="102" d="M101.7684,559.317 C125.479,608.821 165.157,691.662 194.009,751.9 " fill="none" id="Parque-Veiculo" style="stroke:#A80036;stroke-width:1.0;"/><polygon fill="#000000" points="162.6599,636.5758,161.4032,627.1487,156.1021,629.6877,162.6599,636.5758" style="stroke:#000000;stroke-width:1.0;"/><text fill="#000000" font-family="sans-serif" font-size="13" lengthAdjust="spacing" textLength="41" x="169.5" y="636.5669">possui</text><text fill="#000000" font-family="sans-serif" font-size="13" lengthAdjust="spacing" textLength="8" x="96.3612" y="579.4604">1</text><text fill="#000000" font-family="sans-serif" font-size="13" lengthAdjust="spacing" textLength="7" x="183.1708" y="740.821">*</text><!--MD5=[4f96609c99ecadb81dc825d0ae539cef]
link Farmacia to Parque--><path codeLine="103" d="M143.283,219.999 C117.202,245.162 87.5263,279.909 73.5,318 C54.8118,368.751 62.2392,431.898 70.6645,472.807 " fill="none" id="Farmacia-Parque" style="stroke:#A80036;stroke-width:1.0;"/><polygon fill="#000000" points="103.1196,284.3721,108.4415,276.4899,102.7921,274.8672,103.1196,284.3721" style="stroke:#000000;stroke-width:1.0;"/><text fill="#000000" font-family="sans-serif" font-size="13" lengthAdjust="spacing" textLength="41" x="113.5" y="284.0669">possui</text><text fill="#000000" font-family="sans-serif" font-size="13" lengthAdjust="spacing" textLength="8" x="127.6136" y="222.0388">1</text><text fill="#000000" font-family="sans-serif" font-size="13" lengthAdjust="spacing" textLength="8" x="60.3928" y="462.09">1</text><!--MD5=[06143d4fc5f7e61d4193d2b4f541983b]
link Farmacia to Estafeta--><path codeLine="104" d="M191.5,221.915 C191.5,249.778 191.5,286.69 191.5,317.785 " fill="none" id="Farmacia-Estafeta" style="stroke:#A80036;stroke-width:1.0;"/><polygon fill="#000000" points="196.5,284.5664,199.4389,275.5213,193.5611,275.5213,196.5,284.5664" style="stroke:#000000;stroke-width:1.0;"/><text fill="#000000" font-family="sans-serif" font-size="13" lengthAdjust="spacing" textLength="26" x="205.5" y="284.0669">tem</text><text fill="#000000" font-family="sans-serif" font-size="13" lengthAdjust="spacing" textLength="8" x="182.8625" y="242.0741">1</text><text fill="#000000" font-family="sans-serif" font-size="13" lengthAdjust="spacing" textLength="7" x="184.0953" y="306.7509">*</text><!--MD5=[e9cb6b9ea8421b6538fc03abcb01a9a8]
link Farmacia to Endereco--><path codeLine="105" d="M232.218,221.915 C262.82,253.792 304.79,297.511 336.762,330.814 " fill="none" id="Farmacia-Endereco" style="stroke:#A80036;stroke-width:1.0;"/><polygon fill="#000000" points="301.9627,283.1733,297.8187,274.613,293.5785,278.6837,301.9627,283.1733" style="stroke:#000000;stroke-width:1.0;"/><text fill="#000000" font-family="sans-serif" font-size="13" lengthAdjust="spacing" textLength="41" x="307.5" y="284.0669">possui</text><text fill="#000000" font-family="sans-serif" font-size="13" lengthAdjust="spacing" textLength="8" x="230.0699" y="242.0741">1</text><text fill="#000000" font-family="sans-serif" font-size="13" lengthAdjust="spacing" textLength="8" x="321.627" y="319.8331">1</text><!--MD5=[7177515c401312a3f4890a50ab42ecc9]
link EncomendaDB to Encomenda--><path codeLine="106" d="M801.803,546.628 C744.876,598.214 626.731,705.271 554.358,770.853 " fill="none" id="EncomendaDB-Encomenda" style="stroke:#A80036;stroke-width:1.0;"/><polygon fill="#000000" points="756.7949,635.4238,765.4709,631.528,761.524,627.1724,756.7949,635.4238" style="stroke:#000000;stroke-width:1.0;"/><text fill="#000000" font-family="sans-serif" font-size="13" lengthAdjust="spacing" textLength="97" x="769.5" y="636.5669">tem registadas</text><text fill="#000000" font-family="sans-serif" font-size="13" lengthAdjust="spacing" textLength="8" x="786.2342" y="566.5926">1</text><text fill="#000000" font-family="sans-serif" font-size="13" lengthAdjust="spacing" textLength="7" x="554.707" y="759.7721">*</text><!--MD5=[4c7211caded616e3e77a70a7b669ae10]
link EntregaDB to Entrega--><path codeLine="107" d="M655.431,411.074 C638.287,461.393 605.197,558.333 604.5,559 C554.08,607.245 472.953,623.364 418.228,628.635 " fill="none" id="EntregaDB-Entrega" style="stroke:#A80036;stroke-width:1.0;"/><polygon fill="#000000" points="635.8152,519.4461,644.4676,515.4981,640.4945,511.1663,635.8152,519.4461" style="stroke:#000000;stroke-width:1.0;"/><text fill="#000000" font-family="sans-serif" font-size="13" lengthAdjust="spacing" textLength="97" x="648.5" y="520.5669">tem registadas</text><text fill="#000000" font-family="sans-serif" font-size="13" lengthAdjust="spacing" textLength="8" x="644.5293" y="431.0275">1</text><text fill="#000000" font-family="sans-serif" font-size="13" lengthAdjust="spacing" textLength="7" x="426.0728" y="624.2918">*</text><!--MD5=[1593fa6ac82b73031c98001dcbb43056]
link RegistarEntregaUI to RegistarEntregaController--><path codeLine="109" d="M794.5,55.05 C794.5,76.77 794.5,109.786 794.5,136.068 " fill="none" id="RegistarEntregaUI-to-RegistarEntregaController" style="stroke:#A80036;stroke-width:1.0;stroke-dasharray:7.0,7.0;"/><polygon fill="#A80036" points="794.5,141.229,798.5,132.229,794.5,136.229,790.5,132.229,794.5,141.229" style="stroke:#A80036;stroke-width:1.0;"/><!--MD5=[d9064612604f914b9782a6af88293211]
link RegistarEntregaController to EncomendaDB--><path codeLine="111" d="M798.819,215.723 C806.56,280.657 822.703,416.052 830.333,480.051 " fill="none" id="RegistarEntregaController-to-EncomendaDB" style="stroke:#A80036;stroke-width:1.0;stroke-dasharray:7.0,7.0;"/><polygon fill="#A80036" points="830.956,485.276,833.8635,475.8661,830.3647,480.3111,825.9197,476.8122,830.956,485.276" style="stroke:#A80036;stroke-width:1.0;"/><!--MD5=[51c8078cdce16ec2931503df013aa567]
link RegistarEntregaController to EntregaDB--><path codeLine="112" d="M771.139,215.718 C747.348,252.605 710.739,309.361 687.465,345.446 " fill="none" id="RegistarEntregaController-to-EntregaDB" style="stroke:#A80036;stroke-width:1.0;stroke-dasharray:7.0,7.0;"/><polygon fill="#A80036" points="684.695,349.741,692.9348,344.346,687.4052,345.5392,686.212,340.0097,684.695,349.741" style="stroke:#A80036;stroke-width:1.0;"/><!--MD5=[245e840709afb66f08d9c3b5abe5f497]
@startuml
skinparam classAttributeIconSize 0

class EncomendaDB {
  +getListaEncomenda()
}

class EntregaDB {
  +getEntregaEficiente(listaEncomendas)
}

class RegistarEntregaController {
    +getEntregaEficiente(listaEncomendas)
    +getListaEncomenda()
}

class RegistarEntregaUI {
}


class Entrega {
  -Integer idEntrega
  -String dataInicio
  -String dataFim
}

class Encomenda {
  -Integer idEncomenda
  -String dataPedida
  -Double preco
  -Double pesoEncomenda
  -Double taxa
}

class EstadoEncomenda {
  -Integer id_estado_encomenda
  -String designacao
}

class Produto {
  -Integer idProduto
  -String designacao
  -Double peso
  -Double precoBase
}

class Estafeta {
  -Integer NIF
  -String nome
  -String email
  -Integer numeroSegurancaSocial
  -String password
  -Double pesoEstafeta
}


class Endereco {
  -String morada
  -Double latitude
  -Double longitude
  -Double altitude
}

class Veiculo {
  -Integer idVeiculo
  -String descricao
  -String tipo
  -Double percentagemBateria
  -Double pesoMaximo
  -Double pesoVeiculo
  -Double potencia
  -Double areaFrontal
}

class Parque {
  -Integer idParque
  -Integer numeroMaximo
  -String tipo
}

class Cliente {
  -Integer NIF
  -String nome
  -String email
  -numeroSegurancaSocial
  -String password
  -Double creditos
}

class Farmacia {
  -Integer NIF
  -String email
  -String morada
}

Encomenda "1" - - "1" EstadoEncomenda : tem >
Entrega "1" - - "*" Encomenda : possui >
Estafeta "1" - - "*" Entrega: realiza >
Cliente "1" - - "1" Endereco: tem >
Cliente "1" - - "*" Encomenda: realiza e paga >
Entrega "*" - - "1" Veiculo: realiza <
Encomenda "1" - - "*" Produto: tem >
Parque "1" - - "*" Veiculo: possui >
Farmacia "1" - - "1" Parque: possui >
Farmacia "1" - - "*" Estafeta: tem >
Farmacia "1" - - "1" Endereco: possui >
EncomendaDB "1" - - "*" Encomenda: tem registadas >
EntregaDB "1" - - "*" Entrega: tem registadas >

RegistarEntregaUI ..> RegistarEntregaController 

RegistarEntregaController ..> EncomendaDB
RegistarEntregaController ..> EntregaDB
@enduml

PlantUML version 1.2021.01beta3(Unknown compile time)
(GPL source distribution)
Java Runtime: Java(TM) SE Runtime Environment
JVM: Java HotSpot(TM) 64-Bit Server VM
Default Encoding: UTF-8
Language: en
Country: US
--></g></svg>