<?xml version="1.0" encoding="UTF-8" standalone="no"?><svg xmlns="http://www.w3.org/2000/svg" xmlns:xlink="http://www.w3.org/1999/xlink" contentScriptType="application/ecmascript" contentStyleType="text/css" height="1228px" preserveAspectRatio="none" style="width:755px;height:1228px;" version="1.1" viewBox="0 0 755 1228" width="755px" zoomAndPan="magnify"><defs><filter height="300%" id="f1my44w0e38awb" width="300%" x="-1" y="-1"><feGaussianBlur result="blurOut" stdDeviation="2.0"/><feColorMatrix in="blurOut" result="blurOut2" type="matrix" values="0 0 0 0 0 0 0 0 0 0 0 0 0 0 0 0 0 0 .4 0"/><feOffset dx="4.0" dy="4.0" in="blurOut2" result="blurOut3"/><feBlend in="SourceGraphic" in2="blurOut3" mode="normal"/></filter></defs><g><!--MD5=[380d12a68ed0046a60f31008a02875d0]
class AplicacaoPOT--><rect codeLine="3" fill="#FEFECE" filter="url(#f1my44w0e38awb)" height="73.6094" id="AplicacaoPOT" style="stroke:#A80036;stroke-width:1.5;" width="130" x="7" y="289"/><ellipse cx="29.65" cy="305" fill="#ADD1B2" rx="11" ry="11" style="stroke:#A80036;stroke-width:1.0;"/><path d="M31.9938,300.6719 C31.0563,300.2344 30.4625,300.0938 29.5875,300.0938 C26.9625,300.0938 24.9625,302.1719 24.9625,304.8906 L24.9625,306.0156 C24.9625,308.5938 27.0719,310.4844 29.9625,310.4844 C31.1813,310.4844 32.3375,310.1875 33.0875,309.6406 C33.6656,309.2344 33.9938,308.7813 33.9938,308.3906 C33.9938,307.9375 33.6031,307.5469 33.1344,307.5469 C32.9156,307.5469 32.7125,307.625 32.525,307.8125 C32.0719,308.2969 32.0719,308.2969 31.8844,308.3906 C31.4625,308.6563 30.775,308.7813 30.0094,308.7813 C27.9625,308.7813 26.6656,307.6875 26.6656,305.9844 L26.6656,304.8906 C26.6656,303.1094 27.9156,301.7969 29.65,301.7969 C30.2281,301.7969 30.8375,301.9531 31.3063,302.2031 C31.7906,302.4844 31.9625,302.7031 32.0563,303.1094 C32.1188,303.5156 32.15,303.6406 32.2906,303.7656 C32.4313,303.9063 32.6656,304.0156 32.8844,304.0156 C33.15,304.0156 33.4156,303.875 33.5875,303.6563 C33.6969,303.5 33.7281,303.3125 33.7281,302.8906 L33.7281,301.4688 C33.7281,301.0313 33.7125,300.9063 33.6188,300.75 C33.4625,300.4844 33.1813,300.3438 32.8844,300.3438 C32.5875,300.3438 32.3844,300.4375 32.1656,300.75 L31.9938,300.6719 Z " fill="#000000"/><text fill="#000000" font-family="sans-serif" font-size="12" lengthAdjust="spacing" textLength="81" x="45.35" y="309.1543">AplicacaoPOT</text><line style="stroke:#A80036;stroke-width:1.5;" x1="8" x2="136" y1="321" y2="321"/><line style="stroke:#A80036;stroke-width:1.5;" x1="8" x2="136" y1="329" y2="329"/><text fill="#000000" font-family="sans-serif" font-size="11" lengthAdjust="spacing" textLength="118" x="13" y="343.2104">+static getInstance()</text><text fill="#000000" font-family="sans-serif" font-size="11" lengthAdjust="spacing" textLength="107" x="13" y="356.0151">+getSessaoAtual()</text><!--MD5=[1e13576e8c070e32200b62ceaa1f39ec]
class SessaoUtilizador--><rect codeLine="8" fill="#FEFECE" filter="url(#f1my44w0e38awb)" height="60.8047" id="SessaoUtilizador" style="stroke:#A80036;stroke-width:1.5;" width="134" x="172" y="295.5"/><ellipse cx="187" cy="311.5" fill="#ADD1B2" rx="11" ry="11" style="stroke:#A80036;stroke-width:1.0;"/><path d="M189.3438,307.1719 C188.4063,306.7344 187.8125,306.5938 186.9375,306.5938 C184.3125,306.5938 182.3125,308.6719 182.3125,311.3906 L182.3125,312.5156 C182.3125,315.0938 184.4219,316.9844 187.3125,316.9844 C188.5313,316.9844 189.6875,316.6875 190.4375,316.1406 C191.0156,315.7344 191.3438,315.2813 191.3438,314.8906 C191.3438,314.4375 190.9531,314.0469 190.4844,314.0469 C190.2656,314.0469 190.0625,314.125 189.875,314.3125 C189.4219,314.7969 189.4219,314.7969 189.2344,314.8906 C188.8125,315.1563 188.125,315.2813 187.3594,315.2813 C185.3125,315.2813 184.0156,314.1875 184.0156,312.4844 L184.0156,311.3906 C184.0156,309.6094 185.2656,308.2969 187,308.2969 C187.5781,308.2969 188.1875,308.4531 188.6563,308.7031 C189.1406,308.9844 189.3125,309.2031 189.4063,309.6094 C189.4688,310.0156 189.5,310.1406 189.6406,310.2656 C189.7813,310.4063 190.0156,310.5156 190.2344,310.5156 C190.5,310.5156 190.7656,310.375 190.9375,310.1563 C191.0469,310 191.0781,309.8125 191.0781,309.3906 L191.0781,307.9688 C191.0781,307.5313 191.0625,307.4063 190.9688,307.25 C190.8125,306.9844 190.5313,306.8438 190.2344,306.8438 C189.9375,306.8438 189.7344,306.9375 189.5156,307.25 L189.3438,307.1719 Z " fill="#000000"/><text fill="#000000" font-family="sans-serif" font-size="12" lengthAdjust="spacing" textLength="102" x="201" y="315.6543">SessaoUtilizador</text><line style="stroke:#A80036;stroke-width:1.5;" x1="173" x2="305" y1="327.5" y2="327.5"/><line style="stroke:#A80036;stroke-width:1.5;" x1="173" x2="305" y1="335.5" y2="335.5"/><text fill="#000000" font-family="sans-serif" font-size="11" lengthAdjust="spacing" textLength="120" x="178" y="349.7104">+getEmailUtilizador()</text><!--MD5=[48d7298b3bd1f8b3e8f77915e881d788]
class ScooterDB--><rect codeLine="12" fill="#FEFECE" filter="url(#f1my44w0e38awb)" height="73.6094" id="ScooterDB" style="stroke:#A80036;stroke-width:1.5;" width="146" x="108" y="405.5"/><ellipse cx="145.05" cy="421.5" fill="#ADD1B2" rx="11" ry="11" style="stroke:#A80036;stroke-width:1.0;"/><path d="M147.3938,417.1719 C146.4563,416.7344 145.8625,416.5938 144.9875,416.5938 C142.3625,416.5938 140.3625,418.6719 140.3625,421.3906 L140.3625,422.5156 C140.3625,425.0938 142.4719,426.9844 145.3625,426.9844 C146.5813,426.9844 147.7375,426.6875 148.4875,426.1406 C149.0656,425.7344 149.3938,425.2813 149.3938,424.8906 C149.3938,424.4375 149.0031,424.0469 148.5344,424.0469 C148.3156,424.0469 148.1125,424.125 147.925,424.3125 C147.4719,424.7969 147.4719,424.7969 147.2844,424.8906 C146.8625,425.1563 146.175,425.2813 145.4094,425.2813 C143.3625,425.2813 142.0656,424.1875 142.0656,422.4844 L142.0656,421.3906 C142.0656,419.6094 143.3156,418.2969 145.05,418.2969 C145.6281,418.2969 146.2375,418.4531 146.7063,418.7031 C147.1906,418.9844 147.3625,419.2031 147.4563,419.6094 C147.5188,420.0156 147.55,420.1406 147.6906,420.2656 C147.8313,420.4063 148.0656,420.5156 148.2844,420.5156 C148.55,420.5156 148.8156,420.375 148.9875,420.1563 C149.0969,420 149.1281,419.8125 149.1281,419.3906 L149.1281,417.9688 C149.1281,417.5313 149.1125,417.4063 149.0188,417.25 C148.8625,416.9844 148.5813,416.8438 148.2844,416.8438 C147.9875,416.8438 147.7844,416.9375 147.5656,417.25 L147.3938,417.1719 Z " fill="#000000"/><text fill="#000000" font-family="sans-serif" font-size="12" lengthAdjust="spacing" textLength="65" x="163.95" y="425.6543">ScooterDB</text><line style="stroke:#A80036;stroke-width:1.5;" x1="109" x2="253" y1="437.5" y2="437.5"/><line style="stroke:#A80036;stroke-width:1.5;" x1="109" x2="253" y1="445.5" y2="445.5"/><text fill="#000000" font-family="sans-serif" font-size="11" lengthAdjust="spacing" textLength="99" x="114" y="459.7104">+getListScooter()</text><text fill="#000000" font-family="sans-serif" font-size="11" lengthAdjust="spacing" textLength="134" x="114" y="472.5151">+getScooter(idScooter)</text><!--MD5=[3179f819b5ca0f9c8a1bd58e9144681b]
class Entrega--><rect codeLine="18" fill="#FEFECE" filter="url(#f1my44w0e38awb)" height="112.0234" id="Entrega" style="stroke:#A80036;stroke-width:1.5;" width="307" x="253.5" y="724"/><ellipse cx="379.75" cy="740" fill="#ADD1B2" rx="11" ry="11" style="stroke:#A80036;stroke-width:1.0;"/><path d="M382.0938,735.6719 C381.1563,735.2344 380.5625,735.0938 379.6875,735.0938 C377.0625,735.0938 375.0625,737.1719 375.0625,739.8906 L375.0625,741.0156 C375.0625,743.5938 377.1719,745.4844 380.0625,745.4844 C381.2813,745.4844 382.4375,745.1875 383.1875,744.6406 C383.7656,744.2344 384.0938,743.7813 384.0938,743.3906 C384.0938,742.9375 383.7031,742.5469 383.2344,742.5469 C383.0156,742.5469 382.8125,742.625 382.625,742.8125 C382.1719,743.2969 382.1719,743.2969 381.9844,743.3906 C381.5625,743.6563 380.875,743.7813 380.1094,743.7813 C378.0625,743.7813 376.7656,742.6875 376.7656,740.9844 L376.7656,739.8906 C376.7656,738.1094 378.0156,736.7969 379.75,736.7969 C380.3281,736.7969 380.9375,736.9531 381.4063,737.2031 C381.8906,737.4844 382.0625,737.7031 382.1563,738.1094 C382.2188,738.5156 382.25,738.6406 382.3906,738.7656 C382.5313,738.9063 382.7656,739.0156 382.9844,739.0156 C383.25,739.0156 383.5156,738.875 383.6875,738.6563 C383.7969,738.5 383.8281,738.3125 383.8281,737.8906 L383.8281,736.4688 C383.8281,736.0313 383.8125,735.9063 383.7188,735.75 C383.5625,735.4844 383.2813,735.3438 382.9844,735.3438 C382.6875,735.3438 382.4844,735.4375 382.2656,735.75 L382.0938,735.6719 Z " fill="#000000"/><text fill="#000000" font-family="sans-serif" font-size="12" lengthAdjust="spacing" textLength="46" x="400.25" y="744.1543">Entrega</text><line style="stroke:#A80036;stroke-width:1.5;" x1="254.5" x2="559.5" y1="756" y2="756"/><text fill="#000000" font-family="sans-serif" font-size="11" lengthAdjust="spacing" textLength="103" x="259.5" y="770.2104">-Integer idEntrega</text><text fill="#000000" font-family="sans-serif" font-size="11" lengthAdjust="spacing" textLength="95" x="259.5" y="783.0151">-String dataInicio</text><text fill="#000000" font-family="sans-serif" font-size="11" lengthAdjust="spacing" textLength="86" x="259.5" y="795.8198">-String dataFim</text><line style="stroke:#A80036;stroke-width:1.5;" x1="254.5" x2="559.5" y1="802.4141" y2="802.4141"/><text fill="#000000" font-family="sans-serif" font-size="11" lengthAdjust="spacing" textLength="295" x="259.5" y="816.6245">+create(idEntrega, dataInicio, dataFim, scooter, est)</text><text fill="#000000" font-family="sans-serif" font-size="11" lengthAdjust="spacing" textLength="88" x="259.5" y="829.4292">+addScooter(s)</text><!--MD5=[598a246086efa0137d5aa96a640f0789]
class EntregaDB--><rect codeLine="26" fill="#FEFECE" filter="url(#f1my44w0e38awb)" height="99.2188" id="EntregaDB" style="stroke:#A80036;stroke-width:1.5;" width="342" x="259" y="393"/><ellipse cx="394.25" cy="409" fill="#ADD1B2" rx="11" ry="11" style="stroke:#A80036;stroke-width:1.0;"/><path d="M396.5938,404.6719 C395.6563,404.2344 395.0625,404.0938 394.1875,404.0938 C391.5625,404.0938 389.5625,406.1719 389.5625,408.8906 L389.5625,410.0156 C389.5625,412.5938 391.6719,414.4844 394.5625,414.4844 C395.7813,414.4844 396.9375,414.1875 397.6875,413.6406 C398.2656,413.2344 398.5938,412.7813 398.5938,412.3906 C398.5938,411.9375 398.2031,411.5469 397.7344,411.5469 C397.5156,411.5469 397.3125,411.625 397.125,411.8125 C396.6719,412.2969 396.6719,412.2969 396.4844,412.3906 C396.0625,412.6563 395.375,412.7813 394.6094,412.7813 C392.5625,412.7813 391.2656,411.6875 391.2656,409.9844 L391.2656,408.8906 C391.2656,407.1094 392.5156,405.7969 394.25,405.7969 C394.8281,405.7969 395.4375,405.9531 395.9063,406.2031 C396.3906,406.4844 396.5625,406.7031 396.6563,407.1094 C396.7188,407.5156 396.75,407.6406 396.8906,407.7656 C397.0313,407.9063 397.2656,408.0156 397.4844,408.0156 C397.75,408.0156 398.0156,407.875 398.1875,407.6563 C398.2969,407.5 398.3281,407.3125 398.3281,406.8906 L398.3281,405.4688 C398.3281,405.0313 398.3125,404.9063 398.2188,404.75 C398.0625,404.4844 397.7813,404.3438 397.4844,404.3438 C397.1875,404.3438 396.9844,404.4375 396.7656,404.75 L396.5938,404.6719 Z " fill="#000000"/><text fill="#000000" font-family="sans-serif" font-size="12" lengthAdjust="spacing" textLength="63" x="414.75" y="413.1543">EntregaDB</text><line style="stroke:#A80036;stroke-width:1.5;" x1="260" x2="600" y1="425" y2="425"/><line style="stroke:#A80036;stroke-width:1.5;" x1="260" x2="600" y1="433" y2="433"/><text fill="#000000" font-family="sans-serif" font-size="11" lengthAdjust="spacing" textLength="330" x="265" y="447.2104">+novaEntrega(idEntrega, dataInicio, dataFim, scooter, est)</text><text fill="#000000" font-family="sans-serif" font-size="11" lengthAdjust="spacing" textLength="123" x="265" y="460.0151">+registaEntrega(entr)</text><text fill="#000000" font-family="sans-serif" font-size="11" lengthAdjust="spacing" textLength="118" x="265" y="472.8198">+validaEntrega(entr)</text><text fill="#000000" font-family="sans-serif" font-size="11" lengthAdjust="spacing" textLength="105" x="265" y="485.6245">+addEntrega(entr)</text><!--MD5=[4ac2c1498d2c03198090a24b8c54d335]
class EstafetaDB--><rect codeLine="33" fill="#FEFECE" filter="url(#f1my44w0e38awb)" height="60.8047" id="EstafetaDB" style="stroke:#A80036;stroke-width:1.5;" width="173" x="518.5" y="295.5"/><ellipse cx="568.25" cy="311.5" fill="#ADD1B2" rx="11" ry="11" style="stroke:#A80036;stroke-width:1.0;"/><path d="M570.5938,307.1719 C569.6563,306.7344 569.0625,306.5938 568.1875,306.5938 C565.5625,306.5938 563.5625,308.6719 563.5625,311.3906 L563.5625,312.5156 C563.5625,315.0938 565.6719,316.9844 568.5625,316.9844 C569.7813,316.9844 570.9375,316.6875 571.6875,316.1406 C572.2656,315.7344 572.5938,315.2813 572.5938,314.8906 C572.5938,314.4375 572.2031,314.0469 571.7344,314.0469 C571.5156,314.0469 571.3125,314.125 571.125,314.3125 C570.6719,314.7969 570.6719,314.7969 570.4844,314.8906 C570.0625,315.1563 569.375,315.2813 568.6094,315.2813 C566.5625,315.2813 565.2656,314.1875 565.2656,312.4844 L565.2656,311.3906 C565.2656,309.6094 566.5156,308.2969 568.25,308.2969 C568.8281,308.2969 569.4375,308.4531 569.9063,308.7031 C570.3906,308.9844 570.5625,309.2031 570.6563,309.6094 C570.7188,310.0156 570.75,310.1406 570.8906,310.2656 C571.0313,310.4063 571.2656,310.5156 571.4844,310.5156 C571.75,310.5156 572.0156,310.375 572.1875,310.1563 C572.2969,310 572.3281,309.8125 572.3281,309.3906 L572.3281,307.9688 C572.3281,307.5313 572.3125,307.4063 572.2188,307.25 C572.0625,306.9844 571.7813,306.8438 571.4844,306.8438 C571.1875,306.8438 570.9844,306.9375 570.7656,307.25 L570.5938,307.1719 Z " fill="#000000"/><text fill="#000000" font-family="sans-serif" font-size="12" lengthAdjust="spacing" textLength="65" x="588.75" y="315.6543">EstafetaDB</text><line style="stroke:#A80036;stroke-width:1.5;" x1="519.5" x2="690.5" y1="327.5" y2="327.5"/><line style="stroke:#A80036;stroke-width:1.5;" x1="519.5" x2="690.5" y1="335.5" y2="335.5"/><text fill="#000000" font-family="sans-serif" font-size="11" lengthAdjust="spacing" textLength="161" x="524.5" y="349.7104">+getEstafetaByEmail(email)</text><!--MD5=[0b96431f48c75c7948e638dd0365dea1]
class RegistarEntregaController--><rect codeLine="37" fill="#FEFECE" filter="url(#f1my44w0e38awb)" height="112.0234" id="RegistarEntregaController" style="stroke:#A80036;stroke-width:1.5;" width="281" x="218.5" y="116"/><ellipse cx="277.75" cy="132" fill="#ADD1B2" rx="11" ry="11" style="stroke:#A80036;stroke-width:1.0;"/><path d="M280.0938,127.6719 C279.1563,127.2344 278.5625,127.0938 277.6875,127.0938 C275.0625,127.0938 273.0625,129.1719 273.0625,131.8906 L273.0625,133.0156 C273.0625,135.5938 275.1719,137.4844 278.0625,137.4844 C279.2813,137.4844 280.4375,137.1875 281.1875,136.6406 C281.7656,136.2344 282.0938,135.7813 282.0938,135.3906 C282.0938,134.9375 281.7031,134.5469 281.2344,134.5469 C281.0156,134.5469 280.8125,134.625 280.625,134.8125 C280.1719,135.2969 280.1719,135.2969 279.9844,135.3906 C279.5625,135.6563 278.875,135.7813 278.1094,135.7813 C276.0625,135.7813 274.7656,134.6875 274.7656,132.9844 L274.7656,131.8906 C274.7656,130.1094 276.0156,128.7969 277.75,128.7969 C278.3281,128.7969 278.9375,128.9531 279.4063,129.2031 C279.8906,129.4844 280.0625,129.7031 280.1563,130.1094 C280.2188,130.5156 280.25,130.6406 280.3906,130.7656 C280.5313,130.9063 280.7656,131.0156 280.9844,131.0156 C281.25,131.0156 281.5156,130.875 281.6875,130.6563 C281.7969,130.5 281.8281,130.3125 281.8281,129.8906 L281.8281,128.4688 C281.8281,128.0313 281.8125,127.9063 281.7188,127.75 C281.5625,127.4844 281.2813,127.3438 280.9844,127.3438 C280.6875,127.3438 280.4844,127.4375 280.2656,127.75 L280.0938,127.6719 Z " fill="#000000"/><text fill="#000000" font-family="sans-serif" font-size="12" lengthAdjust="spacing" textLength="154" x="298.25" y="136.1543">RegistarEntregaController</text><line style="stroke:#A80036;stroke-width:1.5;" x1="219.5" x2="498.5" y1="148" y2="148"/><line style="stroke:#A80036;stroke-width:1.5;" x1="219.5" x2="498.5" y1="156" y2="156"/><text fill="#000000" font-family="sans-serif" font-size="11" lengthAdjust="spacing" textLength="83" x="224.5" y="170.2104">+getEstafeta()</text><text fill="#000000" font-family="sans-serif" font-size="11" lengthAdjust="spacing" textLength="99" x="224.5" y="183.0151">+getListScooter()</text><text fill="#000000" font-family="sans-serif" font-size="11" lengthAdjust="spacing" textLength="134" x="224.5" y="195.8198">+getScooter(idScooter)</text><text fill="#000000" font-family="sans-serif" font-size="11" lengthAdjust="spacing" textLength="269" x="224.5" y="208.6245">+novaEntrega(dataInicio, dataFim, scooter, est)</text><text fill="#000000" font-family="sans-serif" font-size="11" lengthAdjust="spacing" textLength="100" x="224.5" y="221.4292">+registaEntrega()</text><!--MD5=[7a561ec8a1cf4ba3fadee4d155dd8051]
class RegistarEntregaUI--><rect codeLine="45" fill="#FEFECE" filter="url(#f1my44w0e38awb)" height="48" id="RegistarEntregaUI" style="stroke:#A80036;stroke-width:1.5;" width="139" x="289.5" y="7"/><ellipse cx="304.5" cy="23" fill="#ADD1B2" rx="11" ry="11" style="stroke:#A80036;stroke-width:1.0;"/><path d="M306.8438,18.6719 C305.9063,18.2344 305.3125,18.0938 304.4375,18.0938 C301.8125,18.0938 299.8125,20.1719 299.8125,22.8906 L299.8125,24.0156 C299.8125,26.5938 301.9219,28.4844 304.8125,28.4844 C306.0313,28.4844 307.1875,28.1875 307.9375,27.6406 C308.5156,27.2344 308.8438,26.7813 308.8438,26.3906 C308.8438,25.9375 308.4531,25.5469 307.9844,25.5469 C307.7656,25.5469 307.5625,25.625 307.375,25.8125 C306.9219,26.2969 306.9219,26.2969 306.7344,26.3906 C306.3125,26.6563 305.625,26.7813 304.8594,26.7813 C302.8125,26.7813 301.5156,25.6875 301.5156,23.9844 L301.5156,22.8906 C301.5156,21.1094 302.7656,19.7969 304.5,19.7969 C305.0781,19.7969 305.6875,19.9531 306.1563,20.2031 C306.6406,20.4844 306.8125,20.7031 306.9063,21.1094 C306.9688,21.5156 307,21.6406 307.1406,21.7656 C307.2813,21.9063 307.5156,22.0156 307.7344,22.0156 C308,22.0156 308.2656,21.875 308.4375,21.6563 C308.5469,21.5 308.5781,21.3125 308.5781,20.8906 L308.5781,19.4688 C308.5781,19.0313 308.5625,18.9063 308.4688,18.75 C308.3125,18.4844 308.0313,18.3438 307.7344,18.3438 C307.4375,18.3438 307.2344,18.4375 307.0156,18.75 L306.8438,18.6719 Z " fill="#000000"/><text fill="#000000" font-family="sans-serif" font-size="12" lengthAdjust="spacing" textLength="107" x="318.5" y="27.1543">RegistarEntregaUI</text><line style="stroke:#A80036;stroke-width:1.5;" x1="290.5" x2="427.5" y1="39" y2="39"/><line style="stroke:#A80036;stroke-width:1.5;" x1="290.5" x2="427.5" y1="47" y2="47"/><!--MD5=[c55f92ccbf0646788158d42f3399cc78]
class Encomenda--><rect codeLine="48" fill="#FEFECE" filter="url(#f1my44w0e38awb)" height="112.0234" id="Encomenda" style="stroke:#A80036;stroke-width:1.5;" width="156" x="329" y="919.5"/><ellipse cx="368.3" cy="935.5" fill="#ADD1B2" rx="11" ry="11" style="stroke:#A80036;stroke-width:1.0;"/><path d="M370.6438,931.1719 C369.7063,930.7344 369.1125,930.5938 368.2375,930.5938 C365.6125,930.5938 363.6125,932.6719 363.6125,935.3906 L363.6125,936.5156 C363.6125,939.0938 365.7219,940.9844 368.6125,940.9844 C369.8313,940.9844 370.9875,940.6875 371.7375,940.1406 C372.3156,939.7344 372.6438,939.2813 372.6438,938.8906 C372.6438,938.4375 372.2531,938.0469 371.7844,938.0469 C371.5656,938.0469 371.3625,938.125 371.175,938.3125 C370.7219,938.7969 370.7219,938.7969 370.5344,938.8906 C370.1125,939.1563 369.425,939.2813 368.6594,939.2813 C366.6125,939.2813 365.3156,938.1875 365.3156,936.4844 L365.3156,935.3906 C365.3156,933.6094 366.5656,932.2969 368.3,932.2969 C368.8781,932.2969 369.4875,932.4531 369.9563,932.7031 C370.4406,932.9844 370.6125,933.2031 370.7063,933.6094 C370.7688,934.0156 370.8,934.1406 370.9406,934.2656 C371.0813,934.4063 371.3156,934.5156 371.5344,934.5156 C371.8,934.5156 372.0656,934.375 372.2375,934.1563 C372.3469,934 372.3781,933.8125 372.3781,933.3906 L372.3781,931.9688 C372.3781,931.5313 372.3625,931.4063 372.2688,931.25 C372.1125,930.9844 371.8313,930.8438 371.5344,930.8438 C371.2375,930.8438 371.0344,930.9375 370.8156,931.25 L370.6438,931.1719 Z " fill="#000000"/><text fill="#000000" font-family="sans-serif" font-size="12" lengthAdjust="spacing" textLength="70" x="387.7" y="939.6543">Encomenda</text><line style="stroke:#A80036;stroke-width:1.5;" x1="330" x2="484" y1="951.5" y2="951.5"/><text fill="#000000" font-family="sans-serif" font-size="11" lengthAdjust="spacing" textLength="126" x="335" y="965.7104">-Integer idEncomenda</text><text fill="#000000" font-family="sans-serif" font-size="11" lengthAdjust="spacing" textLength="104" x="335" y="978.5151">-String dataPedida</text><text fill="#000000" font-family="sans-serif" font-size="11" lengthAdjust="spacing" textLength="81" x="335" y="991.3198">-Double preco</text><text fill="#000000" font-family="sans-serif" font-size="11" lengthAdjust="spacing" textLength="144" x="335" y="1004.1245">-Double pesoEncomenda</text><text fill="#000000" font-family="sans-serif" font-size="11" lengthAdjust="spacing" textLength="74" x="335" y="1016.9292">-Double taxa</text><line style="stroke:#A80036;stroke-width:1.5;" x1="330" x2="484" y1="1023.5234" y2="1023.5234"/><!--MD5=[3f1202280bfe3359d2f91fb9b6e32986]
class Estafeta--><rect codeLine="56" fill="#FEFECE" filter="url(#f1my44w0e38awb)" height="124.8281" id="Estafeta" style="stroke:#A80036;stroke-width:1.5;" width="200" x="541" y="522"/><ellipse cx="612.75" cy="538" fill="#ADD1B2" rx="11" ry="11" style="stroke:#A80036;stroke-width:1.0;"/><path d="M615.0938,533.6719 C614.1563,533.2344 613.5625,533.0938 612.6875,533.0938 C610.0625,533.0938 608.0625,535.1719 608.0625,537.8906 L608.0625,539.0156 C608.0625,541.5938 610.1719,543.4844 613.0625,543.4844 C614.2813,543.4844 615.4375,543.1875 616.1875,542.6406 C616.7656,542.2344 617.0938,541.7813 617.0938,541.3906 C617.0938,540.9375 616.7031,540.5469 616.2344,540.5469 C616.0156,540.5469 615.8125,540.625 615.625,540.8125 C615.1719,541.2969 615.1719,541.2969 614.9844,541.3906 C614.5625,541.6563 613.875,541.7813 613.1094,541.7813 C611.0625,541.7813 609.7656,540.6875 609.7656,538.9844 L609.7656,537.8906 C609.7656,536.1094 611.0156,534.7969 612.75,534.7969 C613.3281,534.7969 613.9375,534.9531 614.4063,535.2031 C614.8906,535.4844 615.0625,535.7031 615.1563,536.1094 C615.2188,536.5156 615.25,536.6406 615.3906,536.7656 C615.5313,536.9063 615.7656,537.0156 615.9844,537.0156 C616.25,537.0156 616.5156,536.875 616.6875,536.6563 C616.7969,536.5 616.8281,536.3125 616.8281,535.8906 L616.8281,534.4688 C616.8281,534.0313 616.8125,533.9063 616.7188,533.75 C616.5625,533.4844 616.2813,533.3438 615.9844,533.3438 C615.6875,533.3438 615.4844,533.4375 615.2656,533.75 L615.0938,533.6719 Z " fill="#000000"/><text fill="#000000" font-family="sans-serif" font-size="12" lengthAdjust="spacing" textLength="48" x="633.25" y="542.1543">Estafeta</text><line style="stroke:#A80036;stroke-width:1.5;" x1="542" x2="740" y1="554" y2="554"/><text fill="#000000" font-family="sans-serif" font-size="11" lengthAdjust="spacing" textLength="58" x="547" y="568.2104">-String NIF</text><text fill="#000000" font-family="sans-serif" font-size="11" lengthAdjust="spacing" textLength="74" x="547" y="581.0151">-String nome</text><text fill="#000000" font-family="sans-serif" font-size="11" lengthAdjust="spacing" textLength="73" x="547" y="593.8198">-String email</text><text fill="#000000" font-family="sans-serif" font-size="11" lengthAdjust="spacing" textLength="188" x="547" y="606.6245">-Integer numeroSegurancaSocial</text><text fill="#000000" font-family="sans-serif" font-size="11" lengthAdjust="spacing" textLength="94" x="547" y="619.4292">-String password</text><text fill="#000000" font-family="sans-serif" font-size="11" lengthAdjust="spacing" textLength="124" x="547" y="632.2339">-Double pesoEstafeta</text><line style="stroke:#A80036;stroke-width:1.5;" x1="542" x2="740" y1="638.8281" y2="638.8281"/><!--MD5=[f4402668d5d5bb8485350c0fdb60ac8e]
class Scooter--><rect codeLine="65" fill="#FEFECE" filter="url(#f1my44w0e38awb)" height="124.8281" id="Scooter" style="stroke:#A80036;stroke-width:1.5;" width="179" x="108.5" y="913"/><ellipse cx="169.75" cy="929" fill="#ADD1B2" rx="11" ry="11" style="stroke:#A80036;stroke-width:1.0;"/><path d="M172.0938,924.6719 C171.1563,924.2344 170.5625,924.0938 169.6875,924.0938 C167.0625,924.0938 165.0625,926.1719 165.0625,928.8906 L165.0625,930.0156 C165.0625,932.5938 167.1719,934.4844 170.0625,934.4844 C171.2813,934.4844 172.4375,934.1875 173.1875,933.6406 C173.7656,933.2344 174.0938,932.7813 174.0938,932.3906 C174.0938,931.9375 173.7031,931.5469 173.2344,931.5469 C173.0156,931.5469 172.8125,931.625 172.625,931.8125 C172.1719,932.2969 172.1719,932.2969 171.9844,932.3906 C171.5625,932.6563 170.875,932.7813 170.1094,932.7813 C168.0625,932.7813 166.7656,931.6875 166.7656,929.9844 L166.7656,928.8906 C166.7656,927.1094 168.0156,925.7969 169.75,925.7969 C170.3281,925.7969 170.9375,925.9531 171.4063,926.2031 C171.8906,926.4844 172.0625,926.7031 172.1563,927.1094 C172.2188,927.5156 172.25,927.6406 172.3906,927.7656 C172.5313,927.9063 172.7656,928.0156 172.9844,928.0156 C173.25,928.0156 173.5156,927.875 173.6875,927.6563 C173.7969,927.5 173.8281,927.3125 173.8281,926.8906 L173.8281,925.4688 C173.8281,925.0313 173.8125,924.9063 173.7188,924.75 C173.5625,924.4844 173.2813,924.3438 172.9844,924.3438 C172.6875,924.3438 172.4844,924.4375 172.2656,924.75 L172.0938,924.6719 Z " fill="#000000"/><text fill="#000000" font-family="sans-serif" font-size="12" lengthAdjust="spacing" textLength="48" x="190.25" y="933.1543">Scooter</text><line style="stroke:#A80036;stroke-width:1.5;" x1="109.5" x2="286.5" y1="945" y2="945"/><text fill="#000000" font-family="sans-serif" font-size="11" lengthAdjust="spacing" textLength="103" x="114.5" y="959.2104">-Integer idScooter</text><text fill="#000000" font-family="sans-serif" font-size="11" lengthAdjust="spacing" textLength="167" x="114.5" y="972.0151">-Double percentagemBateria</text><text fill="#000000" font-family="sans-serif" font-size="11" lengthAdjust="spacing" textLength="121" x="114.5" y="984.8198">-Double pesoMaximo</text><text fill="#000000" font-family="sans-serif" font-size="11" lengthAdjust="spacing" textLength="121" x="114.5" y="997.6245">-Double pesoScooter</text><text fill="#000000" font-family="sans-serif" font-size="11" lengthAdjust="spacing" textLength="98" x="114.5" y="1010.4292">-Double potencia</text><text fill="#000000" font-family="sans-serif" font-size="11" lengthAdjust="spacing" textLength="113" x="114.5" y="1023.2339">-Double areaFrontal</text><line style="stroke:#A80036;stroke-width:1.5;" x1="109.5" x2="286.5" y1="1029.8281" y2="1029.8281"/><!--MD5=[533e824b6b94274ee39bf5a43d7cce2a]
class EstadoEncomenda--><rect codeLine="74" fill="#FEFECE" filter="url(#f1my44w0e38awb)" height="73.6094" id="EstadoEncomenda" style="stroke:#A80036;stroke-width:1.5;" width="190" x="217" y="1127.5"/><ellipse cx="253.15" cy="1143.5" fill="#ADD1B2" rx="11" ry="11" style="stroke:#A80036;stroke-width:1.0;"/><path d="M255.4938,1139.1719 C254.5563,1138.7344 253.9625,1138.5938 253.0875,1138.5938 C250.4625,1138.5938 248.4625,1140.6719 248.4625,1143.3906 L248.4625,1144.5156 C248.4625,1147.0938 250.5719,1148.9844 253.4625,1148.9844 C254.6813,1148.9844 255.8375,1148.6875 256.5875,1148.1406 C257.1656,1147.7344 257.4938,1147.2813 257.4938,1146.8906 C257.4938,1146.4375 257.1031,1146.0469 256.6344,1146.0469 C256.4156,1146.0469 256.2125,1146.125 256.025,1146.3125 C255.5719,1146.7969 255.5719,1146.7969 255.3844,1146.8906 C254.9625,1147.1563 254.275,1147.2813 253.5094,1147.2813 C251.4625,1147.2813 250.1656,1146.1875 250.1656,1144.4844 L250.1656,1143.3906 C250.1656,1141.6094 251.4156,1140.2969 253.15,1140.2969 C253.7281,1140.2969 254.3375,1140.4531 254.8063,1140.7031 C255.2906,1140.9844 255.4625,1141.2031 255.5563,1141.6094 C255.6188,1142.0156 255.65,1142.1406 255.7906,1142.2656 C255.9313,1142.4063 256.1656,1142.5156 256.3844,1142.5156 C256.65,1142.5156 256.9156,1142.375 257.0875,1142.1563 C257.1969,1142 257.2281,1141.8125 257.2281,1141.3906 L257.2281,1139.9688 C257.2281,1139.5313 257.2125,1139.4063 257.1188,1139.25 C256.9625,1138.9844 256.6813,1138.8438 256.3844,1138.8438 C256.0875,1138.8438 255.8844,1138.9375 255.6656,1139.25 L255.4938,1139.1719 Z " fill="#000000"/><text fill="#000000" font-family="sans-serif" font-size="12" lengthAdjust="spacing" textLength="111" x="271.85" y="1147.6543">EstadoEncomenda</text><line style="stroke:#A80036;stroke-width:1.5;" x1="218" x2="406" y1="1159.5" y2="1159.5"/><text fill="#000000" font-family="sans-serif" font-size="11" lengthAdjust="spacing" textLength="178" x="223" y="1173.7104">-Integer id_estado_encomenda</text><text fill="#000000" font-family="sans-serif" font-size="11" lengthAdjust="spacing" textLength="106" x="223" y="1186.5151">-String designacao</text><line style="stroke:#A80036;stroke-width:1.5;" x1="218" x2="406" y1="1193.1094" y2="1193.1094"/><!--MD5=[d4dacc50d49878ba7c621dfc80a2e1ce]
class Produto--><rect codeLine="79" fill="#FEFECE" filter="url(#f1my44w0e38awb)" height="99.2188" id="Produto" style="stroke:#A80036;stroke-width:1.5;" width="122" x="442" y="1115"/><ellipse cx="476.8" cy="1131" fill="#ADD1B2" rx="11" ry="11" style="stroke:#A80036;stroke-width:1.0;"/><path d="M479.1438,1126.6719 C478.2063,1126.2344 477.6125,1126.0938 476.7375,1126.0938 C474.1125,1126.0938 472.1125,1128.1719 472.1125,1130.8906 L472.1125,1132.0156 C472.1125,1134.5938 474.2219,1136.4844 477.1125,1136.4844 C478.3313,1136.4844 479.4875,1136.1875 480.2375,1135.6406 C480.8156,1135.2344 481.1438,1134.7813 481.1438,1134.3906 C481.1438,1133.9375 480.7531,1133.5469 480.2844,1133.5469 C480.0656,1133.5469 479.8625,1133.625 479.675,1133.8125 C479.2219,1134.2969 479.2219,1134.2969 479.0344,1134.3906 C478.6125,1134.6563 477.925,1134.7813 477.1594,1134.7813 C475.1125,1134.7813 473.8156,1133.6875 473.8156,1131.9844 L473.8156,1130.8906 C473.8156,1129.1094 475.0656,1127.7969 476.8,1127.7969 C477.3781,1127.7969 477.9875,1127.9531 478.4563,1128.2031 C478.9406,1128.4844 479.1125,1128.7031 479.2063,1129.1094 C479.2688,1129.5156 479.3,1129.6406 479.4406,1129.7656 C479.5813,1129.9063 479.8156,1130.0156 480.0344,1130.0156 C480.3,1130.0156 480.5656,1129.875 480.7375,1129.6563 C480.8469,1129.5 480.8781,1129.3125 480.8781,1128.8906 L480.8781,1127.4688 C480.8781,1127.0313 480.8625,1126.9063 480.7688,1126.75 C480.6125,1126.4844 480.3313,1126.3438 480.0344,1126.3438 C479.7375,1126.3438 479.5344,1126.4375 479.3156,1126.75 L479.1438,1126.6719 Z " fill="#000000"/><text fill="#000000" font-family="sans-serif" font-size="12" lengthAdjust="spacing" textLength="46" x="495.2" y="1135.1543">Produto</text><line style="stroke:#A80036;stroke-width:1.5;" x1="443" x2="563" y1="1147" y2="1147"/><text fill="#000000" font-family="sans-serif" font-size="11" lengthAdjust="spacing" textLength="101" x="448" y="1161.2104">-Integer idProduto</text><text fill="#000000" font-family="sans-serif" font-size="11" lengthAdjust="spacing" textLength="106" x="448" y="1174.0151">-String designacao</text><text fill="#000000" font-family="sans-serif" font-size="11" lengthAdjust="spacing" textLength="77" x="448" y="1186.8198">-Double peso</text><text fill="#000000" font-family="sans-serif" font-size="11" lengthAdjust="spacing" textLength="110" x="448" y="1199.6245">-Double precoBase</text><line style="stroke:#A80036;stroke-width:1.5;" x1="443" x2="563" y1="1206.2188" y2="1206.2188"/><!--MD5=[1593fa6ac82b73031c98001dcbb43056]
link RegistarEntregaUI to RegistarEntregaController--><path codeLine="86" d="M359,55.27 C359,70.45 359,91.02 359,110.6 " fill="none" id="RegistarEntregaUI-to-RegistarEntregaController" style="stroke:#A80036;stroke-width:1.0;stroke-dasharray:7.0,7.0;"/><polygon fill="#A80036" points="359,115.83,363,106.83,359,110.83,355,106.83,359,115.83" style="stroke:#A80036;stroke-width:1.0;"/><!--MD5=[f3f72dc95338026d83cf258b0336abf9]
link RegistarEntregaController to EstafetaDB--><path codeLine="88" d="M448.159,228.09 C483.283,249.793 522.398,273.961 552.78,292.734 " fill="none" id="RegistarEntregaController-to-EstafetaDB" style="stroke:#A80036;stroke-width:1.0;stroke-dasharray:7.0,7.0;"/><polygon fill="#A80036" points="557.197,295.463,551.6431,287.3295,552.9434,292.8349,547.4381,294.1352,557.197,295.463" style="stroke:#A80036;stroke-width:1.0;"/><!--MD5=[51c8078cdce16ec2931503df013aa567]
link RegistarEntregaController to EntregaDB--><path codeLine="89" d="M376.376,228.193 C379.351,238.089 382.337,248.329 385,258 C396.909,301.254 408.938,350.669 417.559,387.314 " fill="none" id="RegistarEntregaController-to-EntregaDB" style="stroke:#A80036;stroke-width:1.0;stroke-dasharray:7.0,7.0;"/><polygon fill="#A80036" points="418.806,392.626,420.6434,382.95,417.6634,387.7583,412.8551,384.7783,418.806,392.626" style="stroke:#A80036;stroke-width:1.0;"/><!--MD5=[efb788ef30840c93bcc318b186081c80]
link RegistarEntregaController to ScooterDB--><path codeLine="90" d="M361.44,228.398 C360.421,269.538 352.749,324.892 323,363 C303.421,388.08 285.964,377.823 258,393 C252.357,396.063 246.565,399.375 240.813,402.781 " fill="none" id="RegistarEntregaController-to-ScooterDB" style="stroke:#A80036;stroke-width:1.0;stroke-dasharray:7.0,7.0;"/><polygon fill="#A80036" points="236.426,405.402,246.204,404.2231,240.7191,402.839,242.1032,397.3541,236.426,405.402" style="stroke:#A80036;stroke-width:1.0;"/><!--MD5=[2f7ce0bd8a6eb8b37f480aeb7a8943c1]
link RegistarEntregaController to AplicacaoPOT--><path codeLine="91" d="M254.981,228.09 C217.367,248.011 175.829,270.011 141.849,288.007 " fill="none" id="RegistarEntregaController-to-AplicacaoPOT" style="stroke:#A80036;stroke-width:1.0;stroke-dasharray:7.0,7.0;"/><polygon fill="#A80036" points="137.319,290.406,147.1444,289.7264,141.737,288.0649,143.3985,282.6575,137.319,290.406" style="stroke:#A80036;stroke-width:1.0;"/><!--MD5=[13e18cca587fedea4b01b5758c9bdbf6]
link RegistarEntregaController to SessaoUtilizador--><path codeLine="92" d="M315.338,228.305 C298.766,249.297 280.393,272.569 265.826,291.021 " fill="none" id="RegistarEntregaController-to-SessaoUtilizador" style="stroke:#A80036;stroke-width:1.0;stroke-dasharray:7.0,7.0;"/><polygon fill="#A80036" points="262.588,295.121,271.3047,290.5362,265.6865,291.1968,265.0259,285.5787,262.588,295.121" style="stroke:#A80036;stroke-width:1.0;"/><!--MD5=[4c7211caded616e3e77a70a7b669ae10]
link EntregaDB to Entrega--><path codeLine="94" d="M426.21,492.069 C425.459,501.971 424.69,512.32 424,522 C419.204,589.269 414.159,666.478 410.822,718.566 " fill="none" id="EntregaDB-to-Entrega" style="stroke:#A80036;stroke-width:1.0;"/><polygon fill="#A80036" points="410.485,723.843,415.0528,715.1174,410.805,718.8532,407.0692,714.6055,410.485,723.843" style="stroke:#A80036;stroke-width:1.0;"/><text fill="#000000" font-family="sans-serif" font-size="13" lengthAdjust="spacing" textLength="97" x="425" y="589.0669">tem registadas</text><text fill="#000000" font-family="sans-serif" font-size="13" lengthAdjust="spacing" textLength="8" x="417.1145" y="512.1552">1</text><text fill="#000000" font-family="sans-serif" font-size="13" lengthAdjust="spacing" textLength="7" x="403.4831" y="712.7608">*</text><!--MD5=[a3e63c72779e49a48819b249af53bae4]
link EstafetaDB to Estafeta--><path codeLine="95" d="M609.165,356.674 C614.633,395.639 624.392,465.171 631.669,517.014 " fill="none" id="EstafetaDB-to-Estafeta" style="stroke:#A80036;stroke-width:1.0;"/><polygon fill="#A80036" points="632.365,521.975,635.0765,512.5067,631.6707,517.0234,627.154,513.6176,632.365,521.975" style="stroke:#A80036;stroke-width:1.0;"/><text fill="#000000" font-family="sans-serif" font-size="13" lengthAdjust="spacing" textLength="97" x="629" y="447.0669">tem registadas</text><text fill="#000000" font-family="sans-serif" font-size="13" lengthAdjust="spacing" textLength="8" x="601.1975" y="376.2887">1</text><text fill="#000000" font-family="sans-serif" font-size="13" lengthAdjust="spacing" textLength="7" x="623.9619" y="510.9629">*</text><!--MD5=[44650545f701211ba2acbe8172184bfb]
link ScooterDB to Scooter--><path codeLine="96" d="M182.155,479.58 C184.969,567.471 192.213,793.749 195.85,907.344 " fill="none" id="ScooterDB-to-Scooter" style="stroke:#A80036;stroke-width:1.0;"/><polygon fill="#A80036" points="196.02,912.667,199.7273,903.5425,195.8586,907.6696,191.7315,903.8008,196.02,912.667" style="stroke:#A80036;stroke-width:1.0;"/><text fill="#000000" font-family="sans-serif" font-size="13" lengthAdjust="spacing" textLength="97" x="190" y="690.0669">tem registadas</text><text fill="#000000" font-family="sans-serif" font-size="13" lengthAdjust="spacing" textLength="8" x="173.6838" y="499.0738">1</text><text fill="#000000" font-family="sans-serif" font-size="13" lengthAdjust="spacing" textLength="7" x="188.4206" y="902.0579">*</text><!--MD5=[055d9a59c94791d1e5417ead9eff8d01]
link Encomenda to EstadoEncomenda--><path codeLine="97" d="M379.011,1031.595 C363.303,1062.515 344.149,1100.217 330.349,1127.3822 " fill="none" id="Encomenda-EstadoEncomenda" style="stroke:#A80036;stroke-width:1.0;"/><polygon fill="#000000" points="362.7354,1081.0241,369.4523,1074.2911,364.2119,1071.6289,362.7354,1081.0241" style="stroke:#000000;stroke-width:1.0;"/><text fill="#000000" font-family="sans-serif" font-size="13" lengthAdjust="spacing" textLength="26" x="374" y="1081.0669">tem</text><text fill="#000000" font-family="sans-serif" font-size="13" lengthAdjust="spacing" textLength="8" x="367.1123" y="1051.4192">1</text><text fill="#000000" font-family="sans-serif" font-size="13" lengthAdjust="spacing" textLength="8" x="324.9049" y="1116.5479">1</text><!--MD5=[39609d66ce6d06d1779a14455c909f6f]
link Entrega to Encomenda--><path codeLine="98" d="M407,836.19 C407,862.218 407,893.2 407,919.236 " fill="none" id="Entrega-Encomenda" style="stroke:#A80036;stroke-width:1.0;"/><polygon fill="#000000" points="412,879.5664,414.9389,870.5213,409.0611,870.5213,412,879.5664" style="stroke:#000000;stroke-width:1.0;"/><text fill="#000000" font-family="sans-serif" font-size="13" lengthAdjust="spacing" textLength="41" x="421" y="879.0669">possui</text><text fill="#000000" font-family="sans-serif" font-size="13" lengthAdjust="spacing" textLength="8" x="398.5125" y="856.0258">1</text><text fill="#000000" font-family="sans-serif" font-size="13" lengthAdjust="spacing" textLength="7" x="399.5734" y="908.5383">*</text><!--MD5=[328dae9b2f192140d45e51cd90ecd75a]
link Estafeta to Entrega--><path codeLine="99" d="M566.318,647.257 C536.624,671.811 502.728,699.84 473.857,723.715 " fill="none" id="Estafeta-Entrega" style="stroke:#A80036;stroke-width:1.0;"/><polygon fill="#000000" points="525.1468,688.7527,533.9902,685.2535,530.2445,680.7237,525.1468,688.7527" style="stroke:#000000;stroke-width:1.0;"/><text fill="#000000" font-family="sans-serif" font-size="13" lengthAdjust="spacing" textLength="42" x="538" y="690.0669">realiza</text><text fill="#000000" font-family="sans-serif" font-size="13" lengthAdjust="spacing" textLength="8" x="549.7122" y="667.0249">1</text><text fill="#000000" font-family="sans-serif" font-size="13" lengthAdjust="spacing" textLength="7" x="474.5786" y="713.0148">*</text><!--MD5=[f440ac15537f19f21c80dc932ffd2bf8]
link Entrega to Scooter--><path codeLine="100" d="M347.389,836.19 C321.569,860.095 291.235,888.18 264.671,912.774 " fill="none" id="Entrega-Scooter" style="stroke:#A80036;stroke-width:1.0;"/><polygon fill="#000000" points="324.669,871.1695,316.0351,875.158,320.0284,879.4711,324.669,871.1695" style="stroke:#000000;stroke-width:1.0;"/><text fill="#000000" font-family="sans-serif" font-size="13" lengthAdjust="spacing" textLength="42" x="330" y="879.0669">realiza</text><text fill="#000000" font-family="sans-serif" font-size="13" lengthAdjust="spacing" textLength="7" x="332.6973" y="856.0258">*</text><text fill="#000000" font-family="sans-serif" font-size="13" lengthAdjust="spacing" textLength="8" x="263.9173" y="901.7386">1</text><!--MD5=[60097591193c89dbde5dfd99b98b5263]
link Encomenda to Produto--><path codeLine="101" d="M435.284,1031.595 C448.834,1057.99 464.922,1089.327 478.016,1114.8333 " fill="none" id="Encomenda-Produto" style="stroke:#A80036;stroke-width:1.0;"/><polygon fill="#000000" points="468.2835,1081.0145,466.7671,1071.6256,461.5381,1074.31,468.2835,1081.0145" style="stroke:#000000;stroke-width:1.0;"/><text fill="#000000" font-family="sans-serif" font-size="13" lengthAdjust="spacing" textLength="26" x="475" y="1081.0669">tem</text><text fill="#000000" font-family="sans-serif" font-size="13" lengthAdjust="spacing" textLength="8" x="430.2436" y="1051.4192">1</text><text fill="#000000" font-family="sans-serif" font-size="13" lengthAdjust="spacing" textLength="7" x="467.0104" y="1103.8547">*</text><!--MD5=[22622369a8c872f16a22c077bed73d4a]
@startuml
skinparam classAttributeIconSize 0

class AplicacaoPOT{
  +static getInstance()
  +getSessaoAtual()
}

class SessaoUtilizador{
  +getEmailUtilizador()
}

class ScooterDB {
  +getListScooter()
  +getScooter(idScooter)
}


class Entrega {
  -Integer idEntrega
  -String dataInicio
  -String dataFim
  +create(idEntrega, dataInicio, dataFim, scooter, est)
  +addScooter(s)
}

class EntregaDB {
  +novaEntrega(idEntrega, dataInicio, dataFim, scooter, est)
  +registaEntrega(entr)
  +validaEntrega(entr)
  +addEntrega(entr)
}

class EstafetaDB {
  +getEstafetaByEmail(email)
}

class RegistarEntregaController {
  +getEstafeta()
  +getListScooter()
  +getScooter(idScooter)
  +novaEntrega(dataInicio, dataFim, scooter, est)
  +registaEntrega()
}

class RegistarEntregaUI {
}

class Encomenda {
  -Integer idEncomenda
  -String dataPedida
  -Double preco
  -Double pesoEncomenda
  -Double taxa
}

class Estafeta {
  -String NIF
  -String nome
  -String email
  -Integer numeroSegurancaSocial
  -String password
  -Double pesoEstafeta
}

class Scooter {
  -Integer idScooter
  -Double percentagemBateria
  -Double pesoMaximo
  -Double pesoScooter
  -Double potencia
  -Double areaFrontal
}

class EstadoEncomenda {
  -Integer id_estado_encomenda
  -String designacao
}

class Produto {
  -Integer idProduto
  -String designacao
  -Double peso
  -Double precoBase
}

RegistarEntregaUI ..> RegistarEntregaController

RegistarEntregaController ..> EstafetaDB
RegistarEntregaController ..> EntregaDB
RegistarEntregaController ..> ScooterDB
RegistarEntregaController ..> AplicacaoPOT
RegistarEntregaController ..> SessaoUtilizador

EntregaDB "1" - -> "*" Entrega : tem registadas
EstafetaDB "1" - -> "*" Estafeta : tem registadas
ScooterDB "1" - -> "*" Scooter : tem registadas
Encomenda "1" - - "1" EstadoEncomenda : tem >
Entrega "1" - - "*" Encomenda : possui >
Estafeta "1" - - "*" Entrega: realiza >
Entrega "*" - - "1" Scooter: realiza <
Encomenda "1" - - "*" Produto: tem >
@enduml

PlantUML version 1.2020.27beta8(Unknown compile time)
(GPL source distribution)
Java Runtime: Java(TM) SE Runtime Environment
JVM: Java HotSpot(TM) 64-Bit Server VM
Default Encoding: UTF-8
Language: en
Country: US
--></g></svg>