<?xml version="1.0" encoding="UTF-8" standalone="no"?><svg xmlns="http://www.w3.org/2000/svg" xmlns:xlink="http://www.w3.org/1999/xlink" contentScriptType="application/ecmascript" contentStyleType="text/css" height="1130px" preserveAspectRatio="none" style="width:2043px;height:1130px;" version="1.1" viewBox="0 0 2043 1130" width="2043px" zoomAndPan="magnify"><defs><filter height="300%" id="f16yl9wykd3z9k" width="300%" x="-1" y="-1"><feGaussianBlur result="blurOut" stdDeviation="2.0"/><feColorMatrix in="blurOut" result="blurOut2" type="matrix" values="0 0 0 0 0 0 0 0 0 0 0 0 0 0 0 0 0 0 .4 0"/><feOffset dx="4.0" dy="4.0" in="blurOut2" result="blurOut3"/><feBlend in="SourceGraphic" in2="blurOut3" mode="normal"/></filter></defs><g><rect fill="#FFFFFF" filter="url(#f16yl9wykd3z9k)" height="930.0859" style="stroke:#A80036;stroke-width:1.0;" width="10" x="33.5" y="98.2969"/><rect fill="#FFFFFF" filter="url(#f16yl9wykd3z9k)" height="458.0625" style="stroke:#A80036;stroke-width:1.0;" width="10" x="394.5" y="119.4297"/><rect fill="#FFFFFF" filter="url(#f16yl9wykd3z9k)" height="220.9609" style="stroke:#A80036;stroke-width:1.0;" width="10" x="394.5" y="606.625"/><rect fill="#FFFFFF" filter="url(#f16yl9wykd3z9k)" height="171.6641" style="stroke:#A80036;stroke-width:1.0;" width="10" x="394.5" y="856.7188"/><rect fill="#FFFFFF" filter="url(#f16yl9wykd3z9k)" height="311.5313" style="stroke:#A80036;stroke-width:1.0;" width="10" x="741.5" y="148.5625"/><rect fill="#FFFFFF" filter="url(#f16yl9wykd3z9k)" height="59.1328" style="stroke:#A80036;stroke-width:1.0;" width="10" x="741.5" y="489.2266"/><rect fill="#FFFFFF" filter="url(#f16yl9wykd3z9k)" height="59.1328" style="stroke:#A80036;stroke-width:1.0;" width="10" x="741.5" y="635.7578"/><rect fill="#FFFFFF" filter="url(#f16yl9wykd3z9k)" height="58.2656" style="stroke:#A80036;stroke-width:1.0;" width="10" x="741.5" y="724.0234"/><rect fill="#FFFFFF" filter="url(#f16yl9wykd3z9k)" height="142.5313" style="stroke:#A80036;stroke-width:1.0;" width="10" x="741.5" y="885.8516"/><rect fill="#FFFFFF" filter="url(#f16yl9wykd3z9k)" height="30" style="stroke:#A80036;stroke-width:1.0;" width="10" x="916" y="177.6953"/><rect fill="#FFFFFF" filter="url(#f16yl9wykd3z9k)" height="30" style="stroke:#A80036;stroke-width:1.0;" width="10" x="1044.5" y="261.8281"/><rect fill="#FFFFFF" filter="url(#f16yl9wykd3z9k)" height="30" style="stroke:#A80036;stroke-width:1.0;" width="10" x="1185" y="345.9609"/><rect fill="#FFFFFF" filter="url(#f16yl9wykd3z9k)" height="30" style="stroke:#A80036;stroke-width:1.0;" width="10" x="1317.5" y="430.0938"/><rect fill="#FFFFFF" filter="url(#f16yl9wykd3z9k)" height="29.1328" style="stroke:#A80036;stroke-width:1.0;" width="10" x="1430.5" y="753.1563"/><rect fill="#FFFFFF" filter="url(#f16yl9wykd3z9k)" height="77.2656" style="stroke:#A80036;stroke-width:1.0;" width="10" x="1430.5" y="914.9844"/><rect fill="#FFFFFF" filter="url(#f16yl9wykd3z9k)" height="30" style="stroke:#A80036;stroke-width:1.0;" width="10" x="1978" y="518.3594"/><rect fill="#FFFFFF" filter="url(#f16yl9wykd3z9k)" height="30" style="stroke:#A80036;stroke-width:1.0;" width="10" x="1978" y="664.8906"/><line style="stroke:#A80036;stroke-width:1.0;stroke-dasharray:5.0,5.0;" x1="38" x2="38" y1="88.2969" y2="1046.3828"/><line style="stroke:#A80036;stroke-width:1.0;stroke-dasharray:5.0,5.0;" x1="399" x2="399" y1="88.2969" y2="1046.3828"/><line style="stroke:#A80036;stroke-width:1.0;stroke-dasharray:5.0,5.0;" x1="746" x2="746" y1="88.2969" y2="1046.3828"/><line style="stroke:#A80036;stroke-width:1.0;stroke-dasharray:5.0,5.0;" x1="921" x2="921" y1="88.2969" y2="1046.3828"/><line style="stroke:#A80036;stroke-width:1.0;stroke-dasharray:5.0,5.0;" x1="1049" x2="1049" y1="88.2969" y2="1046.3828"/><line style="stroke:#A80036;stroke-width:1.0;stroke-dasharray:5.0,5.0;" x1="1190" x2="1190" y1="88.2969" y2="1046.3828"/><line style="stroke:#A80036;stroke-width:1.0;stroke-dasharray:5.0,5.0;" x1="1322" x2="1322" y1="88.2969" y2="1046.3828"/><line style="stroke:#A80036;stroke-width:1.0;stroke-dasharray:5.0,5.0;" x1="1435" x2="1435" y1="88.2969" y2="1046.3828"/><line style="stroke:#A80036;stroke-width:1.0;stroke-dasharray:5.0,5.0;" x1="1866.5" x2="1866.5" y1="793.8047" y2="1046.3828"/><line style="stroke:#A80036;stroke-width:1.0;stroke-dasharray:5.0,5.0;" x1="1982.5" x2="1982.5" y1="88.2969" y2="1046.3828"/><text fill="#000000" font-family="sans-serif" font-size="14" lengthAdjust="spacing" textLength="61" x="5" y="84.9951">Estafeta</text><ellipse cx="38.5" cy="15" fill="#FEFECE" filter="url(#f16yl9wykd3z9k)" rx="8" ry="8" style="stroke:#A80036;stroke-width:2.0;"/><path d="M38.5,23 L38.5,50 M25.5,31 L51.5,31 M38.5,50 L25.5,65 M38.5,50 L51.5,65 " fill="none" filter="url(#f16yl9wykd3z9k)" style="stroke:#A80036;stroke-width:2.0;"/><text fill="#000000" font-family="sans-serif" font-size="14" lengthAdjust="spacing" textLength="61" x="5" y="1058.3779">Estafeta</text><ellipse cx="38.5" cy="1071.6797" fill="#FEFECE" filter="url(#f16yl9wykd3z9k)" rx="8" ry="8" style="stroke:#A80036;stroke-width:2.0;"/><path d="M38.5,1079.6797 L38.5,1106.6797 M25.5,1087.6797 L51.5,1087.6797 M38.5,1106.6797 L25.5,1121.6797 M38.5,1106.6797 L51.5,1121.6797 " fill="none" filter="url(#f16yl9wykd3z9k)" style="stroke:#A80036;stroke-width:2.0;"/><rect fill="#FEFECE" filter="url(#f16yl9wykd3z9k)" height="30.2969" style="stroke:#A80036;stroke-width:1.5;" width="149" x="323" y="53"/><text fill="#000000" font-family="sans-serif" font-size="14" lengthAdjust="spacing" textLength="135" x="330" y="72.9951">:RegistarEntregaUI</text><rect fill="#FEFECE" filter="url(#f16yl9wykd3z9k)" height="30.2969" style="stroke:#A80036;stroke-width:1.5;" width="149" x="323" y="1045.3828"/><text fill="#000000" font-family="sans-serif" font-size="14" lengthAdjust="spacing" textLength="135" x="330" y="1065.3779">:RegistarEntregaUI</text><rect fill="#FEFECE" filter="url(#f16yl9wykd3z9k)" height="30.2969" style="stroke:#A80036;stroke-width:1.5;" width="209" x="640" y="53"/><text fill="#000000" font-family="sans-serif" font-size="14" lengthAdjust="spacing" textLength="195" x="647" y="72.9951">:RegistarEntregaController</text><rect fill="#FEFECE" filter="url(#f16yl9wykd3z9k)" height="30.2969" style="stroke:#A80036;stroke-width:1.5;" width="209" x="640" y="1045.3828"/><text fill="#000000" font-family="sans-serif" font-size="14" lengthAdjust="spacing" textLength="195" x="647" y="1065.3779">:RegistarEntregaController</text><rect fill="#FEFECE" filter="url(#f16yl9wykd3z9k)" height="30.2969" style="stroke:#A80036;stroke-width:1.5;" width="112" x="863" y="53"/><text fill="#000000" font-family="sans-serif" font-size="14" lengthAdjust="spacing" textLength="98" x="870" y="72.9951">AplicacaoPOT</text><rect fill="#FEFECE" filter="url(#f16yl9wykd3z9k)" height="30.2969" style="stroke:#A80036;stroke-width:1.5;" width="112" x="863" y="1045.3828"/><text fill="#000000" font-family="sans-serif" font-size="14" lengthAdjust="spacing" textLength="98" x="870" y="1065.3779">AplicacaoPOT</text><rect fill="#FEFECE" filter="url(#f16yl9wykd3z9k)" height="46.5938" style="stroke:#A80036;stroke-width:1.5;" width="117" x="989" y="36.7031"/><text fill="#000000" font-family="sans-serif" font-size="14" lengthAdjust="spacing" textLength="28" x="1033.5" y="56.6982">app</text><text fill="#000000" font-family="sans-serif" font-size="14" lengthAdjust="spacing" textLength="103" x="996" y="72.9951">:AplicacaoPOT</text><rect fill="#FEFECE" filter="url(#f16yl9wykd3z9k)" height="46.5938" style="stroke:#A80036;stroke-width:1.5;" width="117" x="989" y="1045.3828"/><text fill="#000000" font-family="sans-serif" font-size="14" lengthAdjust="spacing" textLength="28" x="1033.5" y="1065.3779">app</text><text fill="#000000" font-family="sans-serif" font-size="14" lengthAdjust="spacing" textLength="103" x="996" y="1081.6748">:AplicacaoPOT</text><rect fill="#FEFECE" filter="url(#f16yl9wykd3z9k)" height="46.5938" style="stroke:#A80036;stroke-width:1.5;" width="136" x="1120" y="36.7031"/><text fill="#000000" font-family="sans-serif" font-size="14" lengthAdjust="spacing" textLength="47" x="1164.5" y="56.6982">sessao</text><text fill="#000000" font-family="sans-serif" font-size="14" lengthAdjust="spacing" textLength="122" x="1127" y="72.9951">:SessaoUtilizador</text><rect fill="#FEFECE" filter="url(#f16yl9wykd3z9k)" height="46.5938" style="stroke:#A80036;stroke-width:1.5;" width="136" x="1120" y="1045.3828"/><text fill="#000000" font-family="sans-serif" font-size="14" lengthAdjust="spacing" textLength="47" x="1164.5" y="1065.3779">sessao</text><text fill="#000000" font-family="sans-serif" font-size="14" lengthAdjust="spacing" textLength="122" x="1127" y="1081.6748">:SessaoUtilizador</text><rect fill="#FEFECE" filter="url(#f16yl9wykd3z9k)" height="30.2969" style="stroke:#A80036;stroke-width:1.5;" width="101" x="1270" y="53"/><text fill="#000000" font-family="sans-serif" font-size="14" lengthAdjust="spacing" textLength="87" x="1277" y="72.9951">:EstafetaDB</text><rect fill="#FEFECE" filter="url(#f16yl9wykd3z9k)" height="30.2969" style="stroke:#A80036;stroke-width:1.5;" width="101" x="1270" y="1045.3828"/><text fill="#000000" font-family="sans-serif" font-size="14" lengthAdjust="spacing" textLength="87" x="1277" y="1065.3779">:EstafetaDB</text><rect fill="#FEFECE" filter="url(#f16yl9wykd3z9k)" height="30.2969" style="stroke:#A80036;stroke-width:1.5;" width="97" x="1385" y="53"/><text fill="#000000" font-family="sans-serif" font-size="14" lengthAdjust="spacing" textLength="83" x="1392" y="72.9951">:EntregaDB</text><rect fill="#FEFECE" filter="url(#f16yl9wykd3z9k)" height="30.2969" style="stroke:#A80036;stroke-width:1.5;" width="97" x="1385" y="1045.3828"/><text fill="#000000" font-family="sans-serif" font-size="14" lengthAdjust="spacing" textLength="83" x="1392" y="1065.3779">:EntregaDB</text><rect fill="#FEFECE" filter="url(#f16yl9wykd3z9k)" height="30.2969" style="stroke:#A80036;stroke-width:1.5;" width="107" x="1811.5" y="1045.3828"/><text fill="#000000" font-family="sans-serif" font-size="14" lengthAdjust="spacing" textLength="93" x="1818.5" y="1065.3779">entr:Entrega</text><rect fill="#FEFECE" filter="url(#f16yl9wykd3z9k)" height="30.2969" style="stroke:#A80036;stroke-width:1.5;" width="97" x="1932.5" y="53"/><text fill="#000000" font-family="sans-serif" font-size="14" lengthAdjust="spacing" textLength="83" x="1939.5" y="72.9951">:ScooterDB</text><rect fill="#FEFECE" filter="url(#f16yl9wykd3z9k)" height="30.2969" style="stroke:#A80036;stroke-width:1.5;" width="97" x="1932.5" y="1045.3828"/><text fill="#000000" font-family="sans-serif" font-size="14" lengthAdjust="spacing" textLength="83" x="1939.5" y="1065.3779">:ScooterDB</text><rect fill="#FFFFFF" filter="url(#f16yl9wykd3z9k)" height="930.0859" style="stroke:#A80036;stroke-width:1.0;" width="10" x="33.5" y="98.2969"/><rect fill="#FFFFFF" filter="url(#f16yl9wykd3z9k)" height="458.0625" style="stroke:#A80036;stroke-width:1.0;" width="10" x="394.5" y="119.4297"/><rect fill="#FFFFFF" filter="url(#f16yl9wykd3z9k)" height="220.9609" style="stroke:#A80036;stroke-width:1.0;" width="10" x="394.5" y="606.625"/><rect fill="#FFFFFF" filter="url(#f16yl9wykd3z9k)" height="171.6641" style="stroke:#A80036;stroke-width:1.0;" width="10" x="394.5" y="856.7188"/><rect fill="#FFFFFF" filter="url(#f16yl9wykd3z9k)" height="311.5313" style="stroke:#A80036;stroke-width:1.0;" width="10" x="741.5" y="148.5625"/><rect fill="#FFFFFF" filter="url(#f16yl9wykd3z9k)" height="59.1328" style="stroke:#A80036;stroke-width:1.0;" width="10" x="741.5" y="489.2266"/><rect fill="#FFFFFF" filter="url(#f16yl9wykd3z9k)" height="59.1328" style="stroke:#A80036;stroke-width:1.0;" width="10" x="741.5" y="635.7578"/><rect fill="#FFFFFF" filter="url(#f16yl9wykd3z9k)" height="58.2656" style="stroke:#A80036;stroke-width:1.0;" width="10" x="741.5" y="724.0234"/><rect fill="#FFFFFF" filter="url(#f16yl9wykd3z9k)" height="142.5313" style="stroke:#A80036;stroke-width:1.0;" width="10" x="741.5" y="885.8516"/><rect fill="#FFFFFF" filter="url(#f16yl9wykd3z9k)" height="30" style="stroke:#A80036;stroke-width:1.0;" width="10" x="916" y="177.6953"/><rect fill="#FFFFFF" filter="url(#f16yl9wykd3z9k)" height="30" style="stroke:#A80036;stroke-width:1.0;" width="10" x="1044.5" y="261.8281"/><rect fill="#FFFFFF" filter="url(#f16yl9wykd3z9k)" height="30" style="stroke:#A80036;stroke-width:1.0;" width="10" x="1185" y="345.9609"/><rect fill="#FFFFFF" filter="url(#f16yl9wykd3z9k)" height="30" style="stroke:#A80036;stroke-width:1.0;" width="10" x="1317.5" y="430.0938"/><rect fill="#FFFFFF" filter="url(#f16yl9wykd3z9k)" height="29.1328" style="stroke:#A80036;stroke-width:1.0;" width="10" x="1430.5" y="753.1563"/><rect fill="#FFFFFF" filter="url(#f16yl9wykd3z9k)" height="77.2656" style="stroke:#A80036;stroke-width:1.0;" width="10" x="1430.5" y="914.9844"/><rect fill="#FFFFFF" filter="url(#f16yl9wykd3z9k)" height="30" style="stroke:#A80036;stroke-width:1.0;" width="10" x="1978" y="518.3594"/><rect fill="#FFFFFF" filter="url(#f16yl9wykd3z9k)" height="30" style="stroke:#A80036;stroke-width:1.0;" width="10" x="1978" y="664.8906"/><polygon fill="#A80036" points="382.5,115.4297,392.5,119.4297,382.5,123.4297,386.5,119.4297" style="stroke:#A80036;stroke-width:1.0;"/><line style="stroke:#A80036;stroke-width:1.0;" x1="43.5" x2="388.5" y1="119.4297" y2="119.4297"/><text fill="#000000" font-family="sans-serif" font-size="13" font-weight="bold" lengthAdjust="spacing" textLength="9" x="50.5" y="114.3638">1</text><text fill="#000000" font-family="sans-serif" font-size="13" lengthAdjust="spacing" textLength="154" x="63.5" y="114.3638">inicia registo de entrega</text><polygon fill="#A80036" points="729.5,144.5625,739.5,148.5625,729.5,152.5625,733.5,148.5625" style="stroke:#A80036;stroke-width:1.0;"/><line style="stroke:#A80036;stroke-width:1.0;" x1="404.5" x2="735.5" y1="148.5625" y2="148.5625"/><text fill="#000000" font-family="sans-serif" font-size="13" font-weight="bold" lengthAdjust="spacing" textLength="9" x="411.5" y="143.4966">2</text><text fill="#000000" font-family="sans-serif" font-size="13" lengthAdjust="spacing" textLength="85" x="424.5" y="143.4966">getEstafeta()</text><polygon fill="#A80036" points="904,173.6953,914,177.6953,904,181.6953,908,177.6953" style="stroke:#A80036;stroke-width:1.0;"/><line style="stroke:#A80036;stroke-width:1.0;" x1="751.5" x2="910" y1="177.6953" y2="177.6953"/><text fill="#000000" font-family="sans-serif" font-size="13" font-weight="bold" lengthAdjust="spacing" textLength="8" x="758.5" y="172.6294">3</text><text fill="#000000" font-family="sans-serif" font-size="13" lengthAdjust="spacing" textLength="127" x="770.5" y="172.6294">app = getInstance()</text><polygon fill="#A80036" points="1032.5,257.8281,1042.5,261.8281,1032.5,265.8281,1036.5,261.8281" style="stroke:#A80036;stroke-width:1.0;"/><line style="stroke:#A80036;stroke-width:1.0;" x1="751.5" x2="1038.5" y1="261.8281" y2="261.8281"/><text fill="#000000" font-family="sans-serif" font-size="13" font-weight="bold" lengthAdjust="spacing" textLength="9" x="758.5" y="256.7622">4</text><text fill="#000000" font-family="sans-serif" font-size="13" lengthAdjust="spacing" textLength="173" x="771.5" y="256.7622">sessao = getSessaoAtual()</text><polygon fill="#A80036" points="1173,341.9609,1183,345.9609,1173,349.9609,1177,345.9609" style="stroke:#A80036;stroke-width:1.0;"/><line style="stroke:#A80036;stroke-width:1.0;" x1="751.5" x2="1179" y1="345.9609" y2="345.9609"/><text fill="#000000" font-family="sans-serif" font-size="13" font-weight="bold" lengthAdjust="spacing" textLength="9" x="758.5" y="340.895">5</text><text fill="#000000" font-family="sans-serif" font-size="13" lengthAdjust="spacing" textLength="178" x="771.5" y="340.895">email = getEmailUtilizador()</text><polygon fill="#A80036" points="1305.5,426.0938,1315.5,430.0938,1305.5,434.0938,1309.5,430.0938" style="stroke:#A80036;stroke-width:1.0;"/><line style="stroke:#A80036;stroke-width:1.0;" x1="751.5" x2="1311.5" y1="430.0938" y2="430.0938"/><text fill="#000000" font-family="sans-serif" font-size="13" font-weight="bold" lengthAdjust="spacing" textLength="9" x="758.5" y="425.0278">6</text><text fill="#000000" font-family="sans-serif" font-size="13" lengthAdjust="spacing" textLength="201" x="771.5" y="425.0278">est=getEstafetaByEmail(email)</text><polygon fill="#A80036" points="729.5,485.2266,739.5,489.2266,729.5,493.2266,733.5,489.2266" style="stroke:#A80036;stroke-width:1.0;"/><line style="stroke:#A80036;stroke-width:1.0;" x1="404.5" x2="735.5" y1="489.2266" y2="489.2266"/><text fill="#000000" font-family="sans-serif" font-size="13" font-weight="bold" lengthAdjust="spacing" textLength="9" x="411.5" y="484.1606">7</text><text fill="#000000" font-family="sans-serif" font-size="13" lengthAdjust="spacing" textLength="102" x="424.5" y="484.1606">getListScooter()</text><polygon fill="#A80036" points="1966,514.3594,1976,518.3594,1966,522.3594,1970,518.3594" style="stroke:#A80036;stroke-width:1.0;"/><line style="stroke:#A80036;stroke-width:1.0;" x1="751.5" x2="1972" y1="518.3594" y2="518.3594"/><text fill="#000000" font-family="sans-serif" font-size="13" font-weight="bold" lengthAdjust="spacing" textLength="9" x="758.5" y="513.2935">8</text><text fill="#000000" font-family="sans-serif" font-size="13" lengthAdjust="spacing" textLength="130" x="771.5" y="513.2935">list=getListScooter()</text><polygon fill="#A80036" points="54.5,573.4922,44.5,577.4922,54.5,581.4922,50.5,577.4922" style="stroke:#A80036;stroke-width:1.0;"/><line style="stroke:#A80036;stroke-width:1.0;stroke-dasharray:2.0,2.0;" x1="48.5" x2="398.5" y1="577.4922" y2="577.4922"/><text fill="#000000" font-family="sans-serif" font-size="13" font-weight="bold" lengthAdjust="spacing" textLength="9" x="60.5" y="572.4263">9</text><text fill="#000000" font-family="sans-serif" font-size="13" lengthAdjust="spacing" textLength="314" x="73.5" y="572.4263">mostra lista de scooters e solicita o id da scooter</text><polygon fill="#A80036" points="382.5,602.625,392.5,606.625,382.5,610.625,386.5,606.625" style="stroke:#A80036;stroke-width:1.0;"/><line style="stroke:#A80036;stroke-width:1.0;" x1="43.5" x2="388.5" y1="606.625" y2="606.625"/><text fill="#000000" font-family="sans-serif" font-size="13" font-weight="bold" lengthAdjust="spacing" textLength="19" x="50.5" y="601.5591">10</text><text fill="#000000" font-family="sans-serif" font-size="13" lengthAdjust="spacing" textLength="166" x="73.5" y="601.5591">introduz dados solicitados</text><polygon fill="#A80036" points="729.5,631.7578,739.5,635.7578,729.5,639.7578,733.5,635.7578" style="stroke:#A80036;stroke-width:1.0;"/><line style="stroke:#A80036;stroke-width:1.0;" x1="404.5" x2="735.5" y1="635.7578" y2="635.7578"/><text fill="#000000" font-family="sans-serif" font-size="13" font-weight="bold" lengthAdjust="spacing" textLength="18" x="411.5" y="630.6919">11</text><text fill="#000000" font-family="sans-serif" font-size="13" lengthAdjust="spacing" textLength="140" x="433.5" y="630.6919">getScooter(idScooter)</text><polygon fill="#A80036" points="1966,660.8906,1976,664.8906,1966,668.8906,1970,664.8906" style="stroke:#A80036;stroke-width:1.0;"/><line style="stroke:#A80036;stroke-width:1.0;" x1="751.5" x2="1972" y1="664.8906" y2="664.8906"/><text fill="#000000" font-family="sans-serif" font-size="13" font-weight="bold" lengthAdjust="spacing" textLength="18" x="758.5" y="659.8247">12</text><text fill="#000000" font-family="sans-serif" font-size="13" lengthAdjust="spacing" textLength="198" x="780.5" y="659.8247">scooter=getScooter(idScooter)</text><polygon fill="#A80036" points="729.5,720.0234,739.5,724.0234,729.5,728.0234,733.5,724.0234" style="stroke:#A80036;stroke-width:1.0;"/><line style="stroke:#A80036;stroke-width:1.0;" x1="404.5" x2="735.5" y1="724.0234" y2="724.0234"/><text fill="#000000" font-family="sans-serif" font-size="13" font-weight="bold" lengthAdjust="spacing" textLength="17" x="411.5" y="718.9575">13</text><text fill="#000000" font-family="sans-serif" font-size="13" lengthAdjust="spacing" textLength="297" x="432.5" y="718.9575">novaEntrega(dataInicio, dataFim, scooter, est)</text><polygon fill="#A80036" points="1418.5,749.1563,1428.5,753.1563,1418.5,757.1563,1422.5,753.1563" style="stroke:#A80036;stroke-width:1.0;"/><line style="stroke:#A80036;stroke-width:1.0;" x1="751.5" x2="1424.5" y1="753.1563" y2="753.1563"/><text fill="#000000" font-family="sans-serif" font-size="13" font-weight="bold" lengthAdjust="spacing" textLength="18" x="758.5" y="748.0903">14</text><text fill="#000000" font-family="sans-serif" font-size="13" lengthAdjust="spacing" textLength="402" x="780.5" y="748.0903">entr=novaEntrega(idEntrega, dataInicio, dataFim, scooter, est)</text><polygon fill="#A80036" points="1799.5,778.2891,1809.5,782.2891,1799.5,786.2891,1803.5,782.2891" style="stroke:#A80036;stroke-width:1.0;"/><line style="stroke:#A80036;stroke-width:1.0;" x1="1435.5" x2="1805.5" y1="782.2891" y2="782.2891"/><text fill="#000000" font-family="sans-serif" font-size="13" font-weight="bold" lengthAdjust="spacing" textLength="18" x="1442.5" y="777.2231">15</text><text fill="#000000" font-family="sans-serif" font-size="13" lengthAdjust="spacing" textLength="325" x="1464.5" y="777.2231">create(idEntrega, dataInicio, dataFim, scooter, est)</text><rect fill="#FEFECE" filter="url(#f16yl9wykd3z9k)" height="30.2969" style="stroke:#A80036;stroke-width:1.5;" width="107" x="1811.5" y="761.1563"/><text fill="#000000" font-family="sans-serif" font-size="14" lengthAdjust="spacing" textLength="93" x="1818.5" y="781.1514">entr:Entrega</text><polygon fill="#A80036" points="54.5,823.5859,44.5,827.5859,54.5,831.5859,50.5,827.5859" style="stroke:#A80036;stroke-width:1.0;"/><line style="stroke:#A80036;stroke-width:1.0;stroke-dasharray:2.0,2.0;" x1="48.5" x2="398.5" y1="827.5859" y2="827.5859"/><text fill="#000000" font-family="sans-serif" font-size="13" font-weight="bold" lengthAdjust="spacing" textLength="18" x="60.5" y="822.52">16</text><text fill="#000000" font-family="sans-serif" font-size="13" lengthAdjust="spacing" textLength="252" x="82.5" y="822.52">apresenta dados e solicita confirmação</text><polygon fill="#A80036" points="382.5,852.7188,392.5,856.7188,382.5,860.7188,386.5,856.7188" style="stroke:#A80036;stroke-width:1.0;"/><line style="stroke:#A80036;stroke-width:1.0;" x1="43.5" x2="388.5" y1="856.7188" y2="856.7188"/><text fill="#000000" font-family="sans-serif" font-size="13" font-weight="bold" lengthAdjust="spacing" textLength="18" x="50.5" y="851.6528">17</text><text fill="#000000" font-family="sans-serif" font-size="13" lengthAdjust="spacing" textLength="119" x="72.5" y="851.6528">confirma os dados</text><polygon fill="#A80036" points="729.5,881.8516,739.5,885.8516,729.5,889.8516,733.5,885.8516" style="stroke:#A80036;stroke-width:1.0;"/><line style="stroke:#A80036;stroke-width:1.0;" x1="404.5" x2="735.5" y1="885.8516" y2="885.8516"/><text fill="#000000" font-family="sans-serif" font-size="13" font-weight="bold" lengthAdjust="spacing" textLength="18" x="411.5" y="880.7856">18</text><text fill="#000000" font-family="sans-serif" font-size="13" lengthAdjust="spacing" textLength="104" x="433.5" y="880.7856">registaEntrega()</text><polygon fill="#A80036" points="1418.5,910.9844,1428.5,914.9844,1418.5,918.9844,1422.5,914.9844" style="stroke:#A80036;stroke-width:1.0;"/><line style="stroke:#A80036;stroke-width:1.0;" x1="751.5" x2="1424.5" y1="914.9844" y2="914.9844"/><text fill="#000000" font-family="sans-serif" font-size="13" font-weight="bold" lengthAdjust="spacing" textLength="18" x="758.5" y="909.9185">19</text><text fill="#000000" font-family="sans-serif" font-size="13" lengthAdjust="spacing" textLength="130" x="780.5" y="909.9185">registaEntrega(entr)</text><line style="stroke:#A80036;stroke-width:1.0;" x1="1440.5" x2="1482.5" y1="944.1172" y2="944.1172"/><line style="stroke:#A80036;stroke-width:1.0;" x1="1482.5" x2="1482.5" y1="944.1172" y2="957.1172"/><line style="stroke:#A80036;stroke-width:1.0;" x1="1441.5" x2="1482.5" y1="957.1172" y2="957.1172"/><polygon fill="#A80036" points="1451.5,953.1172,1441.5,957.1172,1451.5,961.1172,1447.5,957.1172" style="stroke:#A80036;stroke-width:1.0;"/><text fill="#000000" font-family="sans-serif" font-size="13" font-weight="bold" lengthAdjust="spacing" textLength="19" x="1447.5" y="939.0513">20</text><text fill="#000000" font-family="sans-serif" font-size="13" lengthAdjust="spacing" textLength="124" x="1470.5" y="939.0513">validaEntrega(entr)</text><line style="stroke:#A80036;stroke-width:1.0;" x1="1440.5" x2="1482.5" y1="991.25" y2="991.25"/><line style="stroke:#A80036;stroke-width:1.0;" x1="1482.5" x2="1482.5" y1="991.25" y2="1004.25"/><line style="stroke:#A80036;stroke-width:1.0;" x1="1435.5" x2="1482.5" y1="1004.25" y2="1004.25"/><polygon fill="#A80036" points="1445.5,1000.25,1435.5,1004.25,1445.5,1008.25,1441.5,1004.25" style="stroke:#A80036;stroke-width:1.0;"/><text fill="#000000" font-family="sans-serif" font-size="13" font-weight="bold" lengthAdjust="spacing" textLength="18" x="1447.5" y="986.1841">21</text><text fill="#000000" font-family="sans-serif" font-size="13" lengthAdjust="spacing" textLength="110" x="1469.5" y="986.1841">addEntrega(entr)</text><polygon fill="#A80036" points="49.5,1024.3828,39.5,1028.3828,49.5,1032.3828,45.5,1028.3828" style="stroke:#A80036;stroke-width:1.0;"/><line style="stroke:#A80036;stroke-width:1.0;stroke-dasharray:2.0,2.0;" x1="43.5" x2="398.5" y1="1028.3828" y2="1028.3828"/><text fill="#000000" font-family="sans-serif" font-size="13" font-weight="bold" lengthAdjust="spacing" textLength="18" x="55.5" y="1023.3169">22</text><text fill="#000000" font-family="sans-serif" font-size="13" lengthAdjust="spacing" textLength="208" x="77.5" y="1023.3169">informa operação bem sucedida</text><!--MD5=[2581e2856da835ffb4f071929c3b980c]
@startuml
autonumber
actor "Estafeta" as EST

participant ":RegistarEntregaUI" as UI
participant ":RegistarEntregaController" as CTRL
participant "AplicacaoPOT" as _APP
participant "app\n:AplicacaoPOT" as APP
participant "sessao\n:SessaoUtilizador" as SESSAO

participant ":EstafetaDB" as ESTDB
participant ":EntregaDB" as ENTRDB
participant "entr:Entrega" as ENTR

participant ":ScooterDB" as RS


activate EST
EST -> UI : inicia registo de entrega
activate UI
UI -> CTRL : getEstafeta()
activate CTRL
CTRL -> _APP: app = getInstance()
activate _APP
|||
deactivate _APP
CTRL -> APP: sessao = getSessaoAtual()
activate APP
|||
deactivate APP

CTRL -> SESSAO: email = getEmailUtilizador()
activate SESSAO
|||
deactivate SESSAO
CTRL -> ESTDB : est=getEstafetaByEmail(email)
activate ESTDB
deactivate ESTDB
deactivate CTRL
UI -> CTRL : getListScooter()
activate CTRL
CTRL -> RS : list=getListScooter()
activate RS
deactivate RS
deactivate CTRL
UI - -> EST : mostra lista de scooters e solicita o id da scooter
deactivate UI

EST -> UI : introduz dados solicitados
activate UI
UI -> CTRL : getScooter(idScooter)
activate CTRL
CTRL -> RS : scooter=getScooter(idScooter)
activate RS
deactivate RS
deactivate CTRL
UI -> CTRL: novaEntrega(dataInicio, dataFim, scooter, est)
activate CTRL
CTRL -> ENTRDB : entr=novaEntrega(idEntrega, dataInicio, dataFim, scooter, est)
activate ENTRDB
ENTRDB -> ENTR ** : create(idEntrega, dataInicio, dataFim, scooter, est)

deactivate ENTRDB
deactivate CTRL
UI - -> EST : apresenta dados e solicita confirmação
deactivate UI

EST -> UI : confirma os dados
activate UI
UI -> CTRL : registaEntrega()
activate CTRL
CTRL-> ENTRDB : registaEntrega(entr)
activate ENTRDB
ENTRDB -> ENTRDB : validaEntrega(entr)
ENTRDB -> ENTRDB : addEntrega(entr)
deactivate ENTRDB

UI - -> EST : informa operação bem sucedida
deactivate CTRL
deactivate UI

deactivate EST
@enduml

PlantUML version 1.2020.27beta8(Unknown compile time)
(GPL source distribution)
Java Runtime: Java(TM) SE Runtime Environment
JVM: Java HotSpot(TM) 64-Bit Server VM
Default Encoding: UTF-8
Language: en
Country: US
--></g></svg>