<?xml version="1.0" encoding="UTF-8" standalone="no"?><svg xmlns="http://www.w3.org/2000/svg" xmlns:xlink="http://www.w3.org/1999/xlink" contentScriptType="application/ecmascript" contentStyleType="text/css" height="1476.25px" preserveAspectRatio="none" style="width:652px;height:1476px;" version="1.1" viewBox="0 0 652 1476" width="652.5px" zoomAndPan="magnify"><defs><filter height="300%" id="f25hc59sozep5" width="300%" x="-1" y="-1"><feGaussianBlur result="blurOut" stdDeviation="2.5"/><feColorMatrix in="blurOut" result="blurOut2" type="matrix" values="0 0 0 0 0 0 0 0 0 0 0 0 0 0 0 0 0 0 .4 0"/><feOffset dx="5.0" dy="5.0" in="blurOut2" result="blurOut3"/><feBlend in="SourceGraphic" in2="blurOut3" mode="normal"/></filter></defs><g><!--MD5=[1e13576e8c070e32200b62ceaa1f39ec]
class SessaoUtilizador--><rect codeLine="3" fill="#FEFECE" filter="url(#f25hc59sozep5)" height="111.8848" id="SessaoUtilizador" style="stroke:#A80036;stroke-width:1.875;" width="157.5" x="9.375" y="333.75"/><ellipse cx="28.125" cy="353.75" fill="#ADD1B2" rx="13.75" ry="13.75" style="stroke:#A80036;stroke-width:1.25;"/><path d="M30.625,349.375 Q30.8789,348.75 31.1719,348.4375 Q31.4648,348.125 31.7969,348.125 Q32.3828,348.125 32.7539,348.4766 Q33.125,348.8281 33.125,349.6484 L33.125,351.6016 Q33.125,352.4219 32.7734,352.7734 Q32.4219,353.125 31.875,353.125 Q31.3867,353.125 31.0742,352.9102 Q30.7617,352.6953 30.625,352.1289 Q30.5664,351.7383 30.3516,351.5234 Q29.9609,351.1133 29.2578,350.8789 Q28.5547,350.625 27.8516,350.625 Q26.9727,350.625 26.2305,350.9766 Q25.5078,351.3281 24.9414,352.1094 Q24.375,352.8906 24.375,353.9648 L24.375,355.1172 Q24.375,356.4063 25.4297,357.2656 Q26.4844,358.125 28.3594,358.125 Q29.4727,358.125 30.2539,357.8711 Q30.7031,357.7344 31.2109,357.2852 Q31.543,357.0313 31.7188,356.9531 Q31.8945,356.875 32.1094,356.875 Q32.5195,356.875 32.8125,357.207 Q33.125,357.5195 33.125,357.9688 Q33.125,358.3984 32.6953,358.9063 Q32.0703,359.6484 31.0742,360.0586 Q29.7656,360.625 28.1641,360.625 Q26.2891,360.625 24.7852,359.8828 Q23.5742,359.2969 22.7148,358.0273 Q21.875,356.7578 21.875,355.2539 L21.875,353.8867 Q21.875,352.3242 22.6172,350.957 Q23.3789,349.5898 24.6875,348.8672 Q26.0156,348.125 27.5,348.125 Q28.3984,348.125 29.1797,348.4375 Q29.9609,348.75 30.625,349.375 Z " fill="#000000"/><text fill="#000000" font-family="sans-serif" font-size="15" lengthAdjust="spacing" textLength="117.5" x="45.625" y="359.8877">SessaoUtilizador</text><line style="stroke:#A80036;stroke-width:1.875;" x1="10.625" x2="165.625" y1="373.75" y2="373.75"/><line style="stroke:#A80036;stroke-width:1.875;" x1="10.625" x2="165.625" y1="383.75" y2="383.75"/><text fill="#000000" font-family="sans-serif" font-size="13.75" lengthAdjust="spacing" textLength="123.75" x="16.875" y="403.0237">+static getInstance()</text><text fill="#000000" font-family="sans-serif" font-size="13.75" lengthAdjust="spacing" textLength="113.75" x="16.875" y="420.3186">+getSessaoAtual()</text><text fill="#000000" font-family="sans-serif" font-size="13.75" lengthAdjust="spacing" textLength="52.5" x="16.875" y="437.6135">+getNif()</text><!--MD5=[3179f819b5ca0f9c8a1bd58e9144681b]
class Entrega--><rect codeLine="9" fill="#FEFECE" filter="url(#f25hc59sozep5)" height="146.4746" id="Entrega" style="stroke:#A80036;stroke-width:1.875;" width="336.25" x="42.5" y="825"/><ellipse cx="178.4375" cy="845" fill="#ADD1B2" rx="13.75" ry="13.75" style="stroke:#A80036;stroke-width:1.25;"/><path d="M180.9375,840.625 Q181.1914,840 181.4844,839.6875 Q181.7773,839.375 182.1094,839.375 Q182.6953,839.375 183.0664,839.7266 Q183.4375,840.0781 183.4375,840.8984 L183.4375,842.8516 Q183.4375,843.6719 183.0859,844.0234 Q182.7344,844.375 182.1875,844.375 Q181.6992,844.375 181.3867,844.1602 Q181.0742,843.9453 180.9375,843.3789 Q180.8789,842.9883 180.6641,842.7734 Q180.2734,842.3633 179.5703,842.1289 Q178.8672,841.875 178.1641,841.875 Q177.2852,841.875 176.543,842.2266 Q175.8203,842.5781 175.2539,843.3594 Q174.6875,844.1406 174.6875,845.2148 L174.6875,846.3672 Q174.6875,847.6563 175.7422,848.5156 Q176.7969,849.375 178.6719,849.375 Q179.7852,849.375 180.5664,849.1211 Q181.0156,848.9844 181.5234,848.5352 Q181.8555,848.2813 182.0313,848.2031 Q182.207,848.125 182.4219,848.125 Q182.832,848.125 183.125,848.457 Q183.4375,848.7695 183.4375,849.2188 Q183.4375,849.6484 183.0078,850.1563 Q182.3828,850.8984 181.3867,851.3086 Q180.0781,851.875 178.4766,851.875 Q176.6016,851.875 175.0977,851.1328 Q173.8867,850.5469 173.0273,849.2773 Q172.1875,848.0078 172.1875,846.5039 L172.1875,845.1367 Q172.1875,843.5742 172.9297,842.207 Q173.6914,840.8398 175,840.1172 Q176.3281,839.375 177.8125,839.375 Q178.7109,839.375 179.4922,839.6875 Q180.2734,840 180.9375,840.625 Z " fill="#000000"/><text fill="#000000" font-family="sans-serif" font-size="15" lengthAdjust="spacing" textLength="53.75" x="204.0625" y="851.1377">Entrega</text><line style="stroke:#A80036;stroke-width:1.875;" x1="43.75" x2="377.5" y1="865" y2="865"/><text fill="#000000" font-family="sans-serif" font-size="13.75" lengthAdjust="spacing" textLength="106.25" x="50" y="884.2737">-Integer idEntrega</text><text fill="#000000" font-family="sans-serif" font-size="13.75" lengthAdjust="spacing" textLength="100" x="50" y="901.5686">-String dataInicio</text><text fill="#000000" font-family="sans-serif" font-size="13.75" lengthAdjust="spacing" textLength="90" x="50" y="918.8635">-String dataFim</text><text fill="#000000" font-family="sans-serif" font-size="13.75" lengthAdjust="spacing" textLength="126.25" x="50" y="936.1584">-Double pesoEntrega</text><line style="stroke:#A80036;stroke-width:1.875;" x1="43.75" x2="377.5" y1="944.1797" y2="944.1797"/><text fill="#000000" font-family="sans-serif" font-size="13.75" lengthAdjust="spacing" textLength="321.25" x="50" y="963.4534">+create(dataInicio, dataFim, veiculo, nif, pesoMaximo)</text><!--MD5=[598a246086efa0137d5aa96a640f0789]
class EntregaDB--><rect codeLine="17" fill="#FEFECE" filter="url(#f25hc59sozep5)" height="129.1797" id="EntregaDB" style="stroke:#A80036;stroke-width:1.875;" width="366.25" x="27.5" y="483.75"/><ellipse cx="167.8125" cy="503.75" fill="#ADD1B2" rx="13.75" ry="13.75" style="stroke:#A80036;stroke-width:1.25;"/><path d="M170.3125,499.375 Q170.5664,498.75 170.8594,498.4375 Q171.1523,498.125 171.4844,498.125 Q172.0703,498.125 172.4414,498.4766 Q172.8125,498.8281 172.8125,499.6484 L172.8125,501.6016 Q172.8125,502.4219 172.4609,502.7734 Q172.1094,503.125 171.5625,503.125 Q171.0742,503.125 170.7617,502.9102 Q170.4492,502.6953 170.3125,502.1289 Q170.2539,501.7383 170.0391,501.5234 Q169.6484,501.1133 168.9453,500.8789 Q168.2422,500.625 167.5391,500.625 Q166.6602,500.625 165.918,500.9766 Q165.1953,501.3281 164.6289,502.1094 Q164.0625,502.8906 164.0625,503.9648 L164.0625,505.1172 Q164.0625,506.4063 165.1172,507.2656 Q166.1719,508.125 168.0469,508.125 Q169.1602,508.125 169.9414,507.8711 Q170.3906,507.7344 170.8984,507.2852 Q171.2305,507.0313 171.4063,506.9531 Q171.582,506.875 171.7969,506.875 Q172.207,506.875 172.5,507.207 Q172.8125,507.5195 172.8125,507.9688 Q172.8125,508.3984 172.3828,508.9063 Q171.7578,509.6484 170.7617,510.0586 Q169.4531,510.625 167.8516,510.625 Q165.9766,510.625 164.4727,509.8828 Q163.2617,509.2969 162.4023,508.0273 Q161.5625,506.7578 161.5625,505.2539 L161.5625,503.8867 Q161.5625,502.3242 162.3047,500.957 Q163.0664,499.5898 164.375,498.8672 Q165.7031,498.125 167.1875,498.125 Q168.0859,498.125 168.8672,498.4375 Q169.6484,498.75 170.3125,499.375 Z " fill="#000000"/><text fill="#000000" font-family="sans-serif" font-size="15" lengthAdjust="spacing" textLength="75" x="193.4375" y="509.8877">EntregaDB</text><line style="stroke:#A80036;stroke-width:1.875;" x1="28.75" x2="392.5" y1="523.75" y2="523.75"/><line style="stroke:#A80036;stroke-width:1.875;" x1="28.75" x2="392.5" y1="533.75" y2="533.75"/><text fill="#000000" font-family="sans-serif" font-size="13.75" lengthAdjust="spacing" textLength="351.25" x="35" y="553.0237">+addEntrega(dataInicio, dataFim, veiculo, nif, pesoMaximo)</text><text fill="#000000" font-family="sans-serif" font-size="13.75" lengthAdjust="spacing" textLength="128.75" x="35" y="570.3186">+registaEntrega(entr)</text><text fill="#000000" font-family="sans-serif" font-size="13.75" lengthAdjust="spacing" textLength="122.5" x="35" y="587.6135">+validaEntrega(entr)</text><text fill="#000000" font-family="sans-serif" font-size="13.75" lengthAdjust="spacing" textLength="110" x="35" y="604.9084">+addEntrega(entr)</text><!--MD5=[4ac2c1498d2c03198090a24b8c54d335]
class EstafetaDB--><rect codeLine="24" fill="#FEFECE" filter="url(#f25hc59sozep5)" height="77.2949" id="EstafetaDB" style="stroke:#A80036;stroke-width:1.875;" width="151.25" x="345" y="351.25"/><ellipse cx="378.9375" cy="371.25" fill="#ADD1B2" rx="13.75" ry="13.75" style="stroke:#A80036;stroke-width:1.25;"/><path d="M381.4375,366.875 Q381.6914,366.25 381.9844,365.9375 Q382.2773,365.625 382.6094,365.625 Q383.1953,365.625 383.5664,365.9766 Q383.9375,366.3281 383.9375,367.1484 L383.9375,369.1016 Q383.9375,369.9219 383.5859,370.2734 Q383.2344,370.625 382.6875,370.625 Q382.1992,370.625 381.8867,370.4102 Q381.5742,370.1953 381.4375,369.6289 Q381.3789,369.2383 381.1641,369.0234 Q380.7734,368.6133 380.0703,368.3789 Q379.3672,368.125 378.6641,368.125 Q377.7852,368.125 377.043,368.4766 Q376.3203,368.8281 375.7539,369.6094 Q375.1875,370.3906 375.1875,371.4648 L375.1875,372.6172 Q375.1875,373.9063 376.2422,374.7656 Q377.2969,375.625 379.1719,375.625 Q380.2852,375.625 381.0664,375.3711 Q381.5156,375.2344 382.0234,374.7852 Q382.3555,374.5313 382.5313,374.4531 Q382.707,374.375 382.9219,374.375 Q383.332,374.375 383.625,374.707 Q383.9375,375.0195 383.9375,375.4688 Q383.9375,375.8984 383.5078,376.4063 Q382.8828,377.1484 381.8867,377.5586 Q380.5781,378.125 378.9766,378.125 Q377.1016,378.125 375.5977,377.3828 Q374.3867,376.7969 373.5273,375.5273 Q372.6875,374.2578 372.6875,372.7539 L372.6875,371.3867 Q372.6875,369.8242 373.4297,368.457 Q374.1914,367.0898 375.5,366.3672 Q376.8281,365.625 378.3125,365.625 Q379.2109,365.625 379.9922,365.9375 Q380.7734,366.25 381.4375,366.875 Z " fill="#000000"/><text fill="#000000" font-family="sans-serif" font-size="15" lengthAdjust="spacing" textLength="77.5" x="399.8125" y="377.3877">EstafetaDB</text><line style="stroke:#A80036;stroke-width:1.875;" x1="346.25" x2="495" y1="391.25" y2="391.25"/><line style="stroke:#A80036;stroke-width:1.875;" x1="346.25" x2="495" y1="401.25" y2="401.25"/><text fill="#000000" font-family="sans-serif" font-size="13.75" lengthAdjust="spacing" textLength="136.25" x="352.5" y="420.5237">+getEstafetaByNIF(nif)</text><!--MD5=[0b96431f48c75c7948e638dd0365dea1]
class RegistarEntregaController--><rect codeLine="28" fill="#FEFECE" filter="url(#f25hc59sozep5)" height="111.8848" id="RegistarEntregaController" style="stroke:#A80036;stroke-width:1.875;" width="366.25" x="50" y="145"/><ellipse cx="137.8125" cy="165" fill="#ADD1B2" rx="13.75" ry="13.75" style="stroke:#A80036;stroke-width:1.25;"/><path d="M140.3125,160.625 Q140.5664,160 140.8594,159.6875 Q141.1523,159.375 141.4844,159.375 Q142.0703,159.375 142.4414,159.7266 Q142.8125,160.0781 142.8125,160.8984 L142.8125,162.8516 Q142.8125,163.6719 142.4609,164.0234 Q142.1094,164.375 141.5625,164.375 Q141.0742,164.375 140.7617,164.1602 Q140.4492,163.9453 140.3125,163.3789 Q140.2539,162.9883 140.0391,162.7734 Q139.6484,162.3633 138.9453,162.1289 Q138.2422,161.875 137.5391,161.875 Q136.6602,161.875 135.918,162.2266 Q135.1953,162.5781 134.6289,163.3594 Q134.0625,164.1406 134.0625,165.2148 L134.0625,166.3672 Q134.0625,167.6563 135.1172,168.5156 Q136.1719,169.375 138.0469,169.375 Q139.1602,169.375 139.9414,169.1211 Q140.3906,168.9844 140.8984,168.5352 Q141.2305,168.2813 141.4063,168.2031 Q141.582,168.125 141.7969,168.125 Q142.207,168.125 142.5,168.457 Q142.8125,168.7695 142.8125,169.2188 Q142.8125,169.6484 142.3828,170.1563 Q141.7578,170.8984 140.7617,171.3086 Q139.4531,171.875 137.8516,171.875 Q135.9766,171.875 134.4727,171.1328 Q133.2617,170.5469 132.4023,169.2773 Q131.5625,168.0078 131.5625,166.5039 L131.5625,165.1367 Q131.5625,163.5742 132.3047,162.207 Q133.0664,160.8398 134.375,160.1172 Q135.7031,159.375 137.1875,159.375 Q138.0859,159.375 138.8672,159.6875 Q139.6484,160 140.3125,160.625 Z " fill="#000000"/><text fill="#000000" font-family="sans-serif" font-size="15" lengthAdjust="spacing" textLength="180" x="163.4375" y="171.1377">RegistarEntregaController</text><line style="stroke:#A80036;stroke-width:1.875;" x1="51.25" x2="415" y1="185" y2="185"/><line style="stroke:#A80036;stroke-width:1.875;" x1="51.25" x2="415" y1="195" y2="195"/><text fill="#000000" font-family="sans-serif" font-size="13.75" lengthAdjust="spacing" textLength="86.25" x="57.5" y="214.2737">+getEstafeta()</text><text fill="#000000" font-family="sans-serif" font-size="13.75" lengthAdjust="spacing" textLength="351.25" x="57.5" y="231.5686">+addEntrega(dataInicio, dataFim, veiculo, nif, pesoMaximo)</text><text fill="#000000" font-family="sans-serif" font-size="13.75" lengthAdjust="spacing" textLength="105" x="57.5" y="248.8635">+registaEntrega()</text><!--MD5=[7a561ec8a1cf4ba3fadee4d155dd8051]
class RegistarEntregaUI--><rect codeLine="34" fill="#FEFECE" filter="url(#f25hc59sozep5)" height="60" id="RegistarEntregaUI" style="stroke:#A80036;stroke-width:1.875;" width="167.5" x="149.375" y="8.75"/><ellipse cx="168.125" cy="28.75" fill="#ADD1B2" rx="13.75" ry="13.75" style="stroke:#A80036;stroke-width:1.25;"/><path d="M170.625,24.375 Q170.8789,23.75 171.1719,23.4375 Q171.4648,23.125 171.7969,23.125 Q172.3828,23.125 172.7539,23.4766 Q173.125,23.8281 173.125,24.6484 L173.125,26.6016 Q173.125,27.4219 172.7734,27.7734 Q172.4219,28.125 171.875,28.125 Q171.3867,28.125 171.0742,27.9102 Q170.7617,27.6953 170.625,27.1289 Q170.5664,26.7383 170.3516,26.5234 Q169.9609,26.1133 169.2578,25.8789 Q168.5547,25.625 167.8516,25.625 Q166.9727,25.625 166.2305,25.9766 Q165.5078,26.3281 164.9414,27.1094 Q164.375,27.8906 164.375,28.9648 L164.375,30.1172 Q164.375,31.4063 165.4297,32.2656 Q166.4844,33.125 168.3594,33.125 Q169.4727,33.125 170.2539,32.8711 Q170.7031,32.7344 171.2109,32.2852 Q171.543,32.0313 171.7188,31.9531 Q171.8945,31.875 172.1094,31.875 Q172.5195,31.875 172.8125,32.207 Q173.125,32.5195 173.125,32.9688 Q173.125,33.3984 172.6953,33.9063 Q172.0703,34.6484 171.0742,35.0586 Q169.7656,35.625 168.1641,35.625 Q166.2891,35.625 164.7852,34.8828 Q163.5742,34.2969 162.7148,33.0273 Q161.875,31.7578 161.875,30.2539 L161.875,28.8867 Q161.875,27.3242 162.6172,25.957 Q163.3789,24.5898 164.6875,23.8672 Q166.0156,23.125 167.5,23.125 Q168.3984,23.125 169.1797,23.4375 Q169.9609,23.75 170.625,24.375 Z " fill="#000000"/><text fill="#000000" font-family="sans-serif" font-size="15" lengthAdjust="spacing" textLength="127.5" x="185.625" y="34.8877">RegistarEntregaUI</text><line style="stroke:#A80036;stroke-width:1.875;" x1="150.625" x2="315.625" y1="48.75" y2="48.75"/><line style="stroke:#A80036;stroke-width:1.875;" x1="150.625" x2="315.625" y1="58.75" y2="58.75"/><!--MD5=[c55f92ccbf0646788158d42f3399cc78]
class Encomenda--><rect codeLine="37" fill="#FEFECE" filter="url(#f25hc59sozep5)" height="146.4746" id="Encomenda" style="stroke:#A80036;stroke-width:1.875;" width="165" x="19.375" y="1095"/><ellipse cx="56.6875" cy="1115" fill="#ADD1B2" rx="13.75" ry="13.75" style="stroke:#A80036;stroke-width:1.25;"/><path d="M59.1875,1110.625 Q59.4414,1110 59.7344,1109.6875 Q60.0273,1109.375 60.3594,1109.375 Q60.9453,1109.375 61.3164,1109.7266 Q61.6875,1110.0781 61.6875,1110.8984 L61.6875,1112.8516 Q61.6875,1113.6719 61.3359,1114.0234 Q60.9844,1114.375 60.4375,1114.375 Q59.9492,1114.375 59.6367,1114.1602 Q59.3242,1113.9453 59.1875,1113.3789 Q59.1289,1112.9883 58.9141,1112.7734 Q58.5234,1112.3633 57.8203,1112.1289 Q57.1172,1111.875 56.4141,1111.875 Q55.5352,1111.875 54.793,1112.2266 Q54.0703,1112.5781 53.5039,1113.3594 Q52.9375,1114.1406 52.9375,1115.2148 L52.9375,1116.3672 Q52.9375,1117.6563 53.9922,1118.5156 Q55.0469,1119.375 56.9219,1119.375 Q58.0352,1119.375 58.8164,1119.1211 Q59.2656,1118.9844 59.7734,1118.5352 Q60.1055,1118.2813 60.2813,1118.2031 Q60.457,1118.125 60.6719,1118.125 Q61.082,1118.125 61.375,1118.457 Q61.6875,1118.7695 61.6875,1119.2188 Q61.6875,1119.6484 61.2578,1120.1563 Q60.6328,1120.8984 59.6367,1121.3086 Q58.3281,1121.875 56.7266,1121.875 Q54.8516,1121.875 53.3477,1121.1328 Q52.1367,1120.5469 51.2773,1119.2773 Q50.4375,1118.0078 50.4375,1116.5039 L50.4375,1115.1367 Q50.4375,1113.5742 51.1797,1112.207 Q51.9414,1110.8398 53.25,1110.1172 Q54.5781,1109.375 56.0625,1109.375 Q56.9609,1109.375 57.7422,1109.6875 Q58.5234,1110 59.1875,1110.625 Z " fill="#000000"/><text fill="#000000" font-family="sans-serif" font-size="15" lengthAdjust="spacing" textLength="83.75" x="78.3125" y="1121.1377">Encomenda</text><line style="stroke:#A80036;stroke-width:1.875;" x1="20.625" x2="183.125" y1="1135" y2="1135"/><text fill="#000000" font-family="sans-serif" font-size="13.75" lengthAdjust="spacing" textLength="130" x="26.875" y="1154.2737">-Integer idEncomenda</text><text fill="#000000" font-family="sans-serif" font-size="13.75" lengthAdjust="spacing" textLength="110" x="26.875" y="1171.5686">-String dataPedida</text><text fill="#000000" font-family="sans-serif" font-size="13.75" lengthAdjust="spacing" textLength="85" x="26.875" y="1188.8635">-Double preco</text><text fill="#000000" font-family="sans-serif" font-size="13.75" lengthAdjust="spacing" textLength="150" x="26.875" y="1206.1584">-Double pesoEncomenda</text><text fill="#000000" font-family="sans-serif" font-size="13.75" lengthAdjust="spacing" textLength="76.25" x="26.875" y="1223.4534">-Double taxa</text><line style="stroke:#A80036;stroke-width:1.875;" x1="20.625" x2="183.125" y1="1231.4746" y2="1231.4746"/><!--MD5=[3f1202280bfe3359d2f91fb9b6e32986]
class Estafeta--><rect codeLine="45" fill="#FEFECE" filter="url(#f25hc59sozep5)" height="77.2949" id="Estafeta" style="stroke:#A80036;stroke-width:1.875;" width="145" x="371.875" y="650"/><ellipse cx="412.5625" cy="670" fill="#ADD1B2" rx="13.75" ry="13.75" style="stroke:#A80036;stroke-width:1.25;"/><path d="M415.0625,665.625 Q415.3164,665 415.6094,664.6875 Q415.9023,664.375 416.2344,664.375 Q416.8203,664.375 417.1914,664.7266 Q417.5625,665.0781 417.5625,665.8984 L417.5625,667.8516 Q417.5625,668.6719 417.2109,669.0234 Q416.8594,669.375 416.3125,669.375 Q415.8242,669.375 415.5117,669.1602 Q415.1992,668.9453 415.0625,668.3789 Q415.0039,667.9883 414.7891,667.7734 Q414.3984,667.3633 413.6953,667.1289 Q412.9922,666.875 412.2891,666.875 Q411.4102,666.875 410.668,667.2266 Q409.9453,667.5781 409.3789,668.3594 Q408.8125,669.1406 408.8125,670.2148 L408.8125,671.3672 Q408.8125,672.6563 409.8672,673.5156 Q410.9219,674.375 412.7969,674.375 Q413.9102,674.375 414.6914,674.1211 Q415.1406,673.9844 415.6484,673.5352 Q415.9805,673.2813 416.1563,673.2031 Q416.332,673.125 416.5469,673.125 Q416.957,673.125 417.25,673.457 Q417.5625,673.7695 417.5625,674.2188 Q417.5625,674.6484 417.1328,675.1563 Q416.5078,675.8984 415.5117,676.3086 Q414.2031,676.875 412.6016,676.875 Q410.7266,676.875 409.2227,676.1328 Q408.0117,675.5469 407.1523,674.2773 Q406.3125,673.0078 406.3125,671.5039 L406.3125,670.1367 Q406.3125,668.5742 407.0547,667.207 Q407.8164,665.8398 409.125,665.1172 Q410.4531,664.375 411.9375,664.375 Q412.8359,664.375 413.6172,664.6875 Q414.3984,665 415.0625,665.625 Z " fill="#000000"/><text fill="#000000" font-family="sans-serif" font-size="15" lengthAdjust="spacing" textLength="56.25" x="434.9375" y="676.1377">Estafeta</text><line style="stroke:#A80036;stroke-width:1.875;" x1="373.125" x2="515.625" y1="690" y2="690"/><text fill="#000000" font-family="sans-serif" font-size="13.75" lengthAdjust="spacing" textLength="130" x="379.375" y="709.2737">-Double pesoEstafeta</text><line style="stroke:#A80036;stroke-width:1.875;" x1="373.125" x2="515.625" y1="717.2949" y2="717.2949"/><!--MD5=[8505c5852735283b5a8424161266bb9f]
class Veiculo--><rect codeLine="49" fill="#FEFECE" filter="url(#f25hc59sozep5)" height="198.3594" id="Veiculo" style="stroke:#A80036;stroke-width:1.875;" width="186.25" x="228.75" y="1068.75"/><ellipse cx="291.5625" cy="1088.75" fill="#ADD1B2" rx="13.75" ry="13.75" style="stroke:#A80036;stroke-width:1.25;"/><path d="M294.0625,1084.375 Q294.3164,1083.75 294.6094,1083.4375 Q294.9023,1083.125 295.2344,1083.125 Q295.8203,1083.125 296.1914,1083.4766 Q296.5625,1083.8281 296.5625,1084.6484 L296.5625,1086.6016 Q296.5625,1087.4219 296.2109,1087.7734 Q295.8594,1088.125 295.3125,1088.125 Q294.8242,1088.125 294.5117,1087.9102 Q294.1992,1087.6953 294.0625,1087.1289 Q294.0039,1086.7383 293.7891,1086.5234 Q293.3984,1086.1133 292.6953,1085.8789 Q291.9922,1085.625 291.2891,1085.625 Q290.4102,1085.625 289.668,1085.9766 Q288.9453,1086.3281 288.3789,1087.1094 Q287.8125,1087.8906 287.8125,1088.9648 L287.8125,1090.1172 Q287.8125,1091.4063 288.8672,1092.2656 Q289.9219,1093.125 291.7969,1093.125 Q292.9102,1093.125 293.6914,1092.8711 Q294.1406,1092.7344 294.6484,1092.2852 Q294.9805,1092.0313 295.1563,1091.9531 Q295.332,1091.875 295.5469,1091.875 Q295.957,1091.875 296.25,1092.207 Q296.5625,1092.5195 296.5625,1092.9688 Q296.5625,1093.3984 296.1328,1093.9063 Q295.5078,1094.6484 294.5117,1095.0586 Q293.2031,1095.625 291.6016,1095.625 Q289.7266,1095.625 288.2227,1094.8828 Q287.0117,1094.2969 286.1523,1093.0273 Q285.3125,1091.7578 285.3125,1090.2539 L285.3125,1088.8867 Q285.3125,1087.3242 286.0547,1085.957 Q286.8164,1084.5898 288.125,1083.8672 Q289.4531,1083.125 290.9375,1083.125 Q291.8359,1083.125 292.6172,1083.4375 Q293.3984,1083.75 294.0625,1084.375 Z " fill="#000000"/><text fill="#000000" font-family="sans-serif" font-size="15" lengthAdjust="spacing" textLength="50" x="317.1875" y="1094.8877">Veiculo</text><line style="stroke:#A80036;stroke-width:1.875;" x1="230" x2="413.75" y1="1108.75" y2="1108.75"/><text fill="#000000" font-family="sans-serif" font-size="13.75" lengthAdjust="spacing" textLength="102.5" x="236.25" y="1128.0237">-Integer idveiculo</text><text fill="#000000" font-family="sans-serif" font-size="13.75" lengthAdjust="spacing" textLength="103.75" x="236.25" y="1145.3186">-String descricao</text><text fill="#000000" font-family="sans-serif" font-size="13.75" lengthAdjust="spacing" textLength="120" x="236.25" y="1162.6135">-Double capacidade</text><text fill="#000000" font-family="sans-serif" font-size="13.75" lengthAdjust="spacing" textLength="171.25" x="236.25" y="1179.9084">-Double percentagemBateria</text><text fill="#000000" font-family="sans-serif" font-size="13.75" lengthAdjust="spacing" textLength="125" x="236.25" y="1197.2034">-Double pesoMaximo</text><text fill="#000000" font-family="sans-serif" font-size="13.75" lengthAdjust="spacing" textLength="125" x="236.25" y="1214.4983">-Double pesoVeiculo</text><text fill="#000000" font-family="sans-serif" font-size="13.75" lengthAdjust="spacing" textLength="101.25" x="236.25" y="1231.7932">-Double potencia</text><text fill="#000000" font-family="sans-serif" font-size="13.75" lengthAdjust="spacing" textLength="118.75" x="236.25" y="1249.0881">-Double areaFrontal</text><line style="stroke:#A80036;stroke-width:1.875;" x1="230" x2="413.75" y1="1257.1094" y2="1257.1094"/><!--MD5=[2e3f1e60e74253ff42e47f8bfdb04ee2]
class Drone--><rect codeLine="60" fill="#FEFECE" filter="url(#f25hc59sozep5)" height="94.5898" id="Drone" style="stroke:#A80036;stroke-width:1.875;" width="140" x="245.625" y="1365"/><ellipse cx="290.25" cy="1385" fill="#ADD1B2" rx="13.75" ry="13.75" style="stroke:#A80036;stroke-width:1.25;"/><path d="M292.75,1380.625 Q293.0039,1380 293.2969,1379.6875 Q293.5898,1379.375 293.9219,1379.375 Q294.5078,1379.375 294.8789,1379.7266 Q295.25,1380.0781 295.25,1380.8984 L295.25,1382.8516 Q295.25,1383.6719 294.8984,1384.0234 Q294.5469,1384.375 294,1384.375 Q293.5117,1384.375 293.1992,1384.1602 Q292.8867,1383.9453 292.75,1383.3789 Q292.6914,1382.9883 292.4766,1382.7734 Q292.0859,1382.3633 291.3828,1382.1289 Q290.6797,1381.875 289.9766,1381.875 Q289.0977,1381.875 288.3555,1382.2266 Q287.6328,1382.5781 287.0664,1383.3594 Q286.5,1384.1406 286.5,1385.2148 L286.5,1386.3672 Q286.5,1387.6563 287.5547,1388.5156 Q288.6094,1389.375 290.4844,1389.375 Q291.5977,1389.375 292.3789,1389.1211 Q292.8281,1388.9844 293.3359,1388.5352 Q293.668,1388.2813 293.8438,1388.2031 Q294.0195,1388.125 294.2344,1388.125 Q294.6445,1388.125 294.9375,1388.457 Q295.25,1388.7695 295.25,1389.2188 Q295.25,1389.6484 294.8203,1390.1563 Q294.1953,1390.8984 293.1992,1391.3086 Q291.8906,1391.875 290.2891,1391.875 Q288.4141,1391.875 286.9102,1391.1328 Q285.6992,1390.5469 284.8398,1389.2773 Q284,1388.0078 284,1386.5039 L284,1385.1367 Q284,1383.5742 284.7422,1382.207 Q285.5039,1380.8398 286.8125,1380.1172 Q288.1406,1379.375 289.625,1379.375 Q290.5234,1379.375 291.3047,1379.6875 Q292.0859,1380 292.75,1380.625 Z " fill="#000000"/><text fill="#000000" font-family="sans-serif" font-size="15" lengthAdjust="spacing" textLength="42.5" x="313.5" y="1391.1377">Drone</text><line style="stroke:#A80036;stroke-width:1.875;" x1="246.875" x2="384.375" y1="1405" y2="1405"/><text fill="#000000" font-family="sans-serif" font-size="13.75" lengthAdjust="spacing" textLength="96.25" x="253.125" y="1424.2737">-Integer idDrone</text><text fill="#000000" font-family="sans-serif" font-size="13.75" lengthAdjust="spacing" textLength="125" x="253.125" y="1441.5686">-Double hoverPower</text><line style="stroke:#A80036;stroke-width:1.875;" x1="246.875" x2="384.375" y1="1449.5898" y2="1449.5898"/><!--MD5=[f4402668d5d5bb8485350c0fdb60ac8e]
class Scooter--><rect codeLine="65" fill="#FEFECE" filter="url(#f25hc59sozep5)" height="77.2949" id="Scooter" style="stroke:#A80036;stroke-width:1.875;" width="122.5" x="429.375" y="1373.75"/><ellipse cx="461.625" cy="1393.75" fill="#ADD1B2" rx="13.75" ry="13.75" style="stroke:#A80036;stroke-width:1.25;"/><path d="M464.125,1389.375 Q464.3789,1388.75 464.6719,1388.4375 Q464.9648,1388.125 465.2969,1388.125 Q465.8828,1388.125 466.2539,1388.4766 Q466.625,1388.8281 466.625,1389.6484 L466.625,1391.6016 Q466.625,1392.4219 466.2734,1392.7734 Q465.9219,1393.125 465.375,1393.125 Q464.8867,1393.125 464.5742,1392.9102 Q464.2617,1392.6953 464.125,1392.1289 Q464.0664,1391.7383 463.8516,1391.5234 Q463.4609,1391.1133 462.7578,1390.8789 Q462.0547,1390.625 461.3516,1390.625 Q460.4727,1390.625 459.7305,1390.9766 Q459.0078,1391.3281 458.4414,1392.1094 Q457.875,1392.8906 457.875,1393.9648 L457.875,1395.1172 Q457.875,1396.4063 458.9297,1397.2656 Q459.9844,1398.125 461.8594,1398.125 Q462.9727,1398.125 463.7539,1397.8711 Q464.2031,1397.7344 464.7109,1397.2852 Q465.043,1397.0313 465.2188,1396.9531 Q465.3945,1396.875 465.6094,1396.875 Q466.0195,1396.875 466.3125,1397.207 Q466.625,1397.5195 466.625,1397.9688 Q466.625,1398.3984 466.1953,1398.9063 Q465.5703,1399.6484 464.5742,1400.0586 Q463.2656,1400.625 461.6641,1400.625 Q459.7891,1400.625 458.2852,1399.8828 Q457.0742,1399.2969 456.2148,1398.0273 Q455.375,1396.7578 455.375,1395.2539 L455.375,1393.8867 Q455.375,1392.3242 456.1172,1390.957 Q456.8789,1389.5898 458.1875,1388.8672 Q459.5156,1388.125 461,1388.125 Q461.8984,1388.125 462.6797,1388.4375 Q463.4609,1388.75 464.125,1389.375 Z " fill="#000000"/><text fill="#000000" font-family="sans-serif" font-size="15" lengthAdjust="spacing" textLength="52.5" x="482.125" y="1399.8877">Scooter</text><line style="stroke:#A80036;stroke-width:1.875;" x1="430.625" x2="550.625" y1="1413.75" y2="1413.75"/><text fill="#000000" font-family="sans-serif" font-size="13.75" lengthAdjust="spacing" textLength="107.5" x="436.875" y="1433.0237">-Integer idScooter</text><line style="stroke:#A80036;stroke-width:1.875;" x1="430.625" x2="550.625" y1="1441.0449" y2="1441.0449"/><!--MD5=[533e824b6b94274ee39bf5a43d7cce2a]
class EstadoEncomenda--><rect codeLine="69" fill="#FEFECE" filter="url(#f25hc59sozep5)" height="94.5898" id="EstadoEncomenda" style="stroke:#A80036;stroke-width:1.875;" width="186.25" x="8.75" y="1365"/><ellipse cx="33.6875" cy="1385" fill="#ADD1B2" rx="13.75" ry="13.75" style="stroke:#A80036;stroke-width:1.25;"/><path d="M36.1875,1380.625 Q36.4414,1380 36.7344,1379.6875 Q37.0273,1379.375 37.3594,1379.375 Q37.9453,1379.375 38.3164,1379.7266 Q38.6875,1380.0781 38.6875,1380.8984 L38.6875,1382.8516 Q38.6875,1383.6719 38.3359,1384.0234 Q37.9844,1384.375 37.4375,1384.375 Q36.9492,1384.375 36.6367,1384.1602 Q36.3242,1383.9453 36.1875,1383.3789 Q36.1289,1382.9883 35.9141,1382.7734 Q35.5234,1382.3633 34.8203,1382.1289 Q34.1172,1381.875 33.4141,1381.875 Q32.5352,1381.875 31.793,1382.2266 Q31.0703,1382.5781 30.5039,1383.3594 Q29.9375,1384.1406 29.9375,1385.2148 L29.9375,1386.3672 Q29.9375,1387.6563 30.9922,1388.5156 Q32.0469,1389.375 33.9219,1389.375 Q35.0352,1389.375 35.8164,1389.1211 Q36.2656,1388.9844 36.7734,1388.5352 Q37.1055,1388.2813 37.2813,1388.2031 Q37.457,1388.125 37.6719,1388.125 Q38.082,1388.125 38.375,1388.457 Q38.6875,1388.7695 38.6875,1389.2188 Q38.6875,1389.6484 38.2578,1390.1563 Q37.6328,1390.8984 36.6367,1391.3086 Q35.3281,1391.875 33.7266,1391.875 Q31.8516,1391.875 30.3477,1391.1328 Q29.1367,1390.5469 28.2773,1389.2773 Q27.4375,1388.0078 27.4375,1386.5039 L27.4375,1385.1367 Q27.4375,1383.5742 28.1797,1382.207 Q28.9414,1380.8398 30.25,1380.1172 Q31.5781,1379.375 33.0625,1379.375 Q33.9609,1379.375 34.7422,1379.6875 Q35.5234,1380 36.1875,1380.625 Z " fill="#000000"/><text fill="#000000" font-family="sans-serif" font-size="15" lengthAdjust="spacing" textLength="132.5" x="52.5625" y="1391.1377">EstadoEncomenda</text><line style="stroke:#A80036;stroke-width:1.875;" x1="10" x2="193.75" y1="1405" y2="1405"/><text fill="#000000" font-family="sans-serif" font-size="13.75" lengthAdjust="spacing" textLength="171.25" x="16.25" y="1424.2737">-Integer idEstadoEncomenda</text><text fill="#000000" font-family="sans-serif" font-size="13.75" lengthAdjust="spacing" textLength="113.75" x="16.25" y="1441.5686">-String designacao</text><line style="stroke:#A80036;stroke-width:1.875;" x1="10" x2="193.75" y1="1449.5898" y2="1449.5898"/><!--MD5=[5dd1d6732c071e710b9290b531f2fa3b]
class Utilizador--><rect codeLine="74" fill="#FEFECE" filter="url(#f25hc59sozep5)" height="146.4746" id="Utilizador" style="stroke:#A80036;stroke-width:1.875;" width="212.5" x="423.125" y="825"/><ellipse cx="492.1875" cy="845" fill="#ADD1B2" rx="13.75" ry="13.75" style="stroke:#A80036;stroke-width:1.25;"/><path d="M494.6875,840.625 Q494.9414,840 495.2344,839.6875 Q495.5273,839.375 495.8594,839.375 Q496.4453,839.375 496.8164,839.7266 Q497.1875,840.0781 497.1875,840.8984 L497.1875,842.8516 Q497.1875,843.6719 496.8359,844.0234 Q496.4844,844.375 495.9375,844.375 Q495.4492,844.375 495.1367,844.1602 Q494.8242,843.9453 494.6875,843.3789 Q494.6289,842.9883 494.4141,842.7734 Q494.0234,842.3633 493.3203,842.1289 Q492.6172,841.875 491.9141,841.875 Q491.0352,841.875 490.293,842.2266 Q489.5703,842.5781 489.0039,843.3594 Q488.4375,844.1406 488.4375,845.2148 L488.4375,846.3672 Q488.4375,847.6563 489.4922,848.5156 Q490.5469,849.375 492.4219,849.375 Q493.5352,849.375 494.3164,849.1211 Q494.7656,848.9844 495.2734,848.5352 Q495.6055,848.2813 495.7813,848.2031 Q495.957,848.125 496.1719,848.125 Q496.582,848.125 496.875,848.457 Q497.1875,848.7695 497.1875,849.2188 Q497.1875,849.6484 496.7578,850.1563 Q496.1328,850.8984 495.1367,851.3086 Q493.8281,851.875 492.2266,851.875 Q490.3516,851.875 488.8477,851.1328 Q487.6367,850.5469 486.7773,849.2773 Q485.9375,848.0078 485.9375,846.5039 L485.9375,845.1367 Q485.9375,843.5742 486.6797,842.207 Q487.4414,840.8398 488.75,840.1172 Q490.0781,839.375 491.5625,839.375 Q492.4609,839.375 493.2422,839.6875 Q494.0234,840 494.6875,840.625 Z " fill="#000000"/><text fill="#000000" font-family="sans-serif" font-size="15" lengthAdjust="spacing" textLength="63.75" x="517.8125" y="851.1377">Utilizador</text><line style="stroke:#A80036;stroke-width:1.875;" x1="424.375" x2="634.375" y1="865" y2="865"/><text fill="#000000" font-family="sans-serif" font-size="13.75" lengthAdjust="spacing" textLength="62.5" x="430.625" y="884.2737">-String NIF</text><text fill="#000000" font-family="sans-serif" font-size="13.75" lengthAdjust="spacing" textLength="76.25" x="430.625" y="901.5686">-String nome</text><text fill="#000000" font-family="sans-serif" font-size="13.75" lengthAdjust="spacing" textLength="73.75" x="430.625" y="918.8635">-String email</text><text fill="#000000" font-family="sans-serif" font-size="13.75" lengthAdjust="spacing" textLength="197.5" x="430.625" y="936.1584">-Integer numeroSegurancaSocial</text><text fill="#000000" font-family="sans-serif" font-size="13.75" lengthAdjust="spacing" textLength="106.25" x="430.625" y="953.4534">-String password</text><line style="stroke:#A80036;stroke-width:1.875;" x1="424.375" x2="634.375" y1="961.4746" y2="961.4746"/><!--MD5=[1593fa6ac82b73031c98001dcbb43056]
link RegistarEntregaUI to RegistarEntregaController--><path codeLine="82" d="M233.125,68.975 C233.125,88.2375 233.125,114.275 233.125,138.0625 " fill="none" id="RegistarEntregaUI-to-RegistarEntregaController" style="stroke:#A80036;stroke-width:1.25;stroke-dasharray:7.0,7.0;"/><polygon fill="#A80036" points="233.125,144.7,238.125,133.45,233.125,138.45,228.125,133.45,233.125,144.7" style="stroke:#A80036;stroke-width:1.25;"/><!--MD5=[f3f72dc95338026d83cf258b0336abf9]
link RegistarEntregaController to EstafetaDB--><path codeLine="84" d="M288.875,257.875 C317.45,286.2625 351.6875,320.275 378.1,346.5125 " fill="none" id="RegistarEntregaController-to-EstafetaDB" style="stroke:#A80036;stroke-width:1.25;stroke-dasharray:7.0,7.0;"/><polygon fill="#A80036" points="382.6,350.9875,378.1574,339.506,378.1717,346.577,371.1006,346.5913,382.6,350.9875" style="stroke:#A80036;stroke-width:1.25;"/><!--MD5=[51c8078cdce16ec2931503df013aa567]
link RegistarEntregaController to EntregaDB--><path codeLine="85" d="M229.5125,257.825 C225.625,317.3875 219.425,412.2625 215.2,476.9375 " fill="none" id="RegistarEntregaController-to-EntregaDB" style="stroke:#A80036;stroke-width:1.25;stroke-dasharray:7.0,7.0;"/><polygon fill="#A80036" points="214.7625,483.5,220.4604,472.5868,215.1557,477.2624,210.4802,471.9577,214.7625,483.5" style="stroke:#A80036;stroke-width:1.25;"/><!--MD5=[13e18cca587fedea4b01b5758c9bdbf6]
link RegistarEntregaController to SessaoUtilizador--><path codeLine="86" d="M190.0125,257.875 C172.7,280.1125 152.7125,305.7875 135.0375,328.4875 " fill="none" id="RegistarEntregaController-to-SessaoUtilizador" style="stroke:#A80036;stroke-width:1.25;stroke-dasharray:7.0,7.0;"/><polygon fill="#A80036" points="131.075,333.5875,141.933,327.7852,134.9158,328.6569,134.0441,321.6398,131.075,333.5875" style="stroke:#A80036;stroke-width:1.25;"/><!--MD5=[4c7211caded616e3e77a70a7b669ae10]
link EntregaDB to Entrega--><path codeLine="88" d="M210.625,612.7125 C210.625,670.625 210.625,756.4875 210.625,818.6625 " fill="none" id="EntregaDB-to-Entrega" style="stroke:#A80036;stroke-width:1.25;"/><polygon fill="#A80036" points="210.625,824.975,215.625,813.725,210.625,818.725,205.625,813.725,210.625,824.975" style="stroke:#A80036;stroke-width:1.25;"/><text fill="#000000" font-family="sans-serif" font-size="16.25" lengthAdjust="spacing" textLength="107.5" x="211.875" y="695.6189">tem registadas</text><text fill="#000000" font-family="sans-serif" font-size="16.25" lengthAdjust="spacing" textLength="8.75" x="201.2871" y="639.6047">1</text><text fill="#000000" font-family="sans-serif" font-size="16.25" lengthAdjust="spacing" textLength="6.25" x="203.9746" y="811.2041">*</text><!--MD5=[a3e63c72779e49a48819b249af53bae4]
link EstafetaDB to Estafeta--><path codeLine="89" d="M423.6375,428.775 C428.025,483.4875 436.1625,585 440.825,643.275 " fill="none" id="EstafetaDB-to-Estafeta" style="stroke:#A80036;stroke-width:1.25;"/><polygon fill="#A80036" points="441.35,649.8125,445.4343,638.1987,440.8502,643.5825,435.4663,638.9984,441.35,649.8125" style="stroke:#A80036;stroke-width:1.25;"/><text fill="#000000" font-family="sans-serif" font-size="16.25" lengthAdjust="spacing" textLength="107.5" x="438.125" y="554.9939">tem registadas</text><text fill="#000000" font-family="sans-serif" font-size="16.25" lengthAdjust="spacing" textLength="8.75" x="414.6193" y="455.3099">1</text><text fill="#000000" font-family="sans-serif" font-size="16.25" lengthAdjust="spacing" textLength="6.25" x="433.8316" y="636.6545">*</text><!--MD5=[055d9a59c94791d1e5417ead9eff8d01]
link Encomenda to EstadoEncomenda--><path codeLine="90" d="M101.875,1241.2875 C101.875,1281.2625 101.875,1329.825 101.875,1364.7875 " fill="none" id="Encomenda-EstadoEncomenda" style="stroke:#A80036;stroke-width:1.25;"/><polygon fill="#000000" points="108.125,1322.7197,111.7987,1311.4134,104.4513,1311.4134,108.125,1322.7197" style="stroke:#000000;stroke-width:1.25;"/><text fill="#000000" font-family="sans-serif" font-size="16.25" lengthAdjust="spacing" textLength="27.5" x="119.375" y="1323.1189">tem</text><text fill="#000000" font-family="sans-serif" font-size="16.25" lengthAdjust="spacing" textLength="8.75" x="92.5918" y="1268.3049">1</text><text fill="#000000" font-family="sans-serif" font-size="16.25" lengthAdjust="spacing" textLength="8.75" x="92.3457" y="1351.452">1</text><!--MD5=[39609d66ce6d06d1779a14455c909f6f]
link Entrega to Encomenda--><path codeLine="91" d="M181.3375,971.4125 C165.8,1009.6375 146.7625,1056.4625 131.2125,1094.7125 " fill="none" id="Entrega-Encomenda" style="stroke:#A80036;stroke-width:1.25;"/><polygon fill="#000000" points="170.7713,1026.0096,178.4324,1016.9191,171.626,1014.1521,170.7713,1026.0096" style="stroke:#000000;stroke-width:1.25;"/><text fill="#000000" font-family="sans-serif" font-size="16.25" lengthAdjust="spacing" textLength="47.5" x="184.375" y="1026.8689">possui</text><text fill="#000000" font-family="sans-serif" font-size="16.25" lengthAdjust="spacing" textLength="8.75" x="168.4849" y="998.4452">1</text><text fill="#000000" font-family="sans-serif" font-size="16.25" lengthAdjust="spacing" textLength="6.25" x="128.1571" y="1081.4286">*</text><!--MD5=[328dae9b2f192140d45e51cd90ecd75a]
link Estafeta to Entrega--><path codeLine="92" d="M401.5,727.95 C370.925,755 328.8625,792.225 292.0125,824.85 " fill="none" id="Estafeta-Entrega" style="stroke:#A80036;stroke-width:1.25;"/><polygon fill="#000000" points="355.9447,780.6119,366.8461,775.8696,361.9767,770.3676,355.9447,780.6119" style="stroke:#000000;stroke-width:1.25;"/><text fill="#000000" font-family="sans-serif" font-size="16.25" lengthAdjust="spacing" textLength="47.5" x="371.875" y="783.1189">realiza</text><text fill="#000000" font-family="sans-serif" font-size="16.25" lengthAdjust="spacing" textLength="8.75" x="383.743" y="754.2591">1</text><text fill="#000000" font-family="sans-serif" font-size="16.25" lengthAdjust="spacing" textLength="6.25" x="295.3007" y="811.5828">*</text><!--MD5=[cd2aeefe8c457d184a69396a9f9cb06a]
link Entrega to Veiculo--><path codeLine="93" d="M240.5875,971.4125 C253,1001.275 267.6125,1036.4 280.9875,1068.575 " fill="none" id="Entrega-Veiculo" style="stroke:#A80036;stroke-width:1.25;"/><polygon fill="#000000" points="266.9754,1014.4487,267.9242,1026.299,274.7084,1023.4781,266.9754,1014.4487" style="stroke:#000000;stroke-width:1.25;"/><text fill="#000000" font-family="sans-serif" font-size="16.25" lengthAdjust="spacing" textLength="47.5" x="280.625" y="1026.8689">realiza</text><text fill="#000000" font-family="sans-serif" font-size="16.25" lengthAdjust="spacing" textLength="6.25" x="237.6083" y="998.4452">*</text><text fill="#000000" font-family="sans-serif" font-size="16.25" lengthAdjust="spacing" textLength="8.75" x="267.9234" y="1055.042">1</text><!--MD5=[aa5a8ec5fd097e3d415964f18fa48efb]
link Estafeta to Utilizador--><path codeLine="94" d="M459.9625,727.95 C471.0875,755 486.375,792.225 499.775,824.85 " fill="none" id="Estafeta-Utilizador" style="stroke:#A80036;stroke-width:1.25;"/><polygon fill="#000000" points="491.7502,782.2508,490.8514,770.3966,484.0554,773.1889,491.7502,782.2508" style="stroke:#000000;stroke-width:1.25;"/><text fill="#000000" font-family="sans-serif" font-size="16.25" lengthAdjust="spacing" textLength="76.25" x="500.625" y="783.1189">atua como</text><text fill="#000000" font-family="sans-serif" font-size="16.25" lengthAdjust="spacing" textLength="8.75" x="453.3499" y="754.2591">1</text><text fill="#000000" font-family="sans-serif" font-size="16.25" lengthAdjust="spacing" textLength="8.75" x="486.8843" y="811.5828">1</text><!--MD5=[460034a14c91c8062cdb3d6e7324968c]
link Veiculo to Drone--><path codeLine="95" d="M319.3375,1267.75 C318.4625,1301.3625 317.5375,1337.3875 316.825,1364.9375 " fill="none" id="Veiculo-Drone" style="stroke:#A80036;stroke-width:1.25;"/><polygon fill="#000000" points="325.7865,1310.2218,321.8219,1321.4295,329.1668,1321.6193,325.7865,1310.2218" style="stroke:#000000;stroke-width:1.25;"/><text fill="#000000" font-family="sans-serif" font-size="16.25" lengthAdjust="spacing" textLength="8.75" x="336.875" y="1323.1189">é</text><text fill="#000000" font-family="sans-serif" font-size="16.25" lengthAdjust="spacing" textLength="8.75" x="309.9935" y="1294.0755">1</text><text fill="#000000" font-family="sans-serif" font-size="16.25" lengthAdjust="spacing" textLength="8.75" x="307.4896" y="1351.2716">1</text><!--MD5=[0fa340c3d135fb564aedca6a2c40d6f7]
link Veiculo to Scooter--><path codeLine="96" d="M390.5125,1267.75 C416.425,1304.9 444.4,1344.9875 464.1625,1373.325 " fill="none" id="Veiculo-Scooter" style="stroke:#A80036;stroke-width:1.25;"/><polygon fill="#000000" points="433.2991,1311.3438,436.755,1322.7186,442.7809,1318.5148,433.2991,1311.3438" style="stroke:#000000;stroke-width:1.25;"/><text fill="#000000" font-family="sans-serif" font-size="16.25" lengthAdjust="spacing" textLength="8.75" x="448.125" y="1323.1189">é</text><text fill="#000000" font-family="sans-serif" font-size="16.25" lengthAdjust="spacing" textLength="8.75" x="387.2851" y="1294.0755">1</text><text fill="#000000" font-family="sans-serif" font-size="16.25" lengthAdjust="spacing" textLength="8.75" x="449.0523" y="1360.118">1</text><!--MD5=[1f9cb9ea8ff8a32fa3bf51f6fa0e703b]
@startuml
skinparam classAttributeIconSize 0

class SessaoUtilizador{
  +static getInstance()
  +getSessaoAtual()
  +getNif()
}

class Entrega {
  -Integer idEntrega
  -String dataInicio
  -String dataFim
  -Double pesoEntrega
  +create(dataInicio, dataFim, veiculo, nif, pesoMaximo)
}

class EntregaDB {
  +addEntrega(dataInicio, dataFim, veiculo, nif, pesoMaximo)
  +registaEntrega(entr)
  +validaEntrega(entr)
  +addEntrega(entr)
}

class EstafetaDB {
  +getEstafetaByNIF(nif)
}

class RegistarEntregaController {
  +getEstafeta()
  +addEntrega(dataInicio, dataFim, veiculo, nif, pesoMaximo)
  +registaEntrega()
}

class RegistarEntregaUI {
}

class Encomenda {
  -Integer idEncomenda
  -String dataPedida
  -Double preco
  -Double pesoEncomenda
  -Double taxa
}

class Estafeta {
  -Double pesoEstafeta
}

class Veiculo {
  -Integer idveiculo
  -String descricao
  -Double capacidade
  -Double percentagemBateria
  -Double pesoMaximo
  -Double pesoVeiculo
  -Double potencia
  -Double areaFrontal
}

class Drone {
  -Integer idDrone
  -Double hoverPower
}

class Scooter {
  -Integer idScooter
}

class EstadoEncomenda {
  -Integer idEstadoEncomenda
  -String designacao
}

class Utilizador{
  -String NIF
  -String nome
  -String email
  -Integer numeroSegurancaSocial
  -String password
  }

RegistarEntregaUI ..> RegistarEntregaController

RegistarEntregaController ..> EstafetaDB
RegistarEntregaController ..> EntregaDB
RegistarEntregaController ..> SessaoUtilizador

EntregaDB "1" - -> "*" Entrega : tem registadas
EstafetaDB "1" - -> "*" Estafeta : tem registadas
Encomenda "1" - - "1" EstadoEncomenda : tem >
Entrega "1" - - "*" Encomenda : possui >
Estafeta "1" - - "*" Entrega: realiza >
Entrega "*" - - "1" Veiculo: realiza <
Estafeta "1" - - "1" Utilizador: atua como >
Veiculo "1" - - "1" Drone: é <
Veiculo "1" - - "1" Scooter: é <

@enduml

PlantUML version 1.2021.00(Sun Jan 10 10:25:05 GMT 2021)
(GPL source distribution)
Java Runtime: OpenJDK Runtime Environment
JVM: OpenJDK 64-Bit Server VM
Default Encoding: Cp1252
Language: pt
Country: PT
--></g></svg>