<?xml version="1.0" encoding="UTF-8" standalone="no"?><svg xmlns="http://www.w3.org/2000/svg" xmlns:xlink="http://www.w3.org/1999/xlink" contentScriptType="application/ecmascript" contentStyleType="text/css" height="1322.72px" preserveAspectRatio="none" style="width:601px;height:1322px;" version="1.1" viewBox="0 0 601 1322" width="601.44px" zoomAndPan="magnify"><defs><filter height="300%" id="fxcd2lre3hc5a" width="300%" x="-1" y="-1"><feGaussianBlur result="blurOut" stdDeviation="2.24"/><feColorMatrix in="blurOut" result="blurOut2" type="matrix" values="0 0 0 0 0 0 0 0 0 0 0 0 0 0 0 0 0 0 .4 0"/><feOffset dx="4.48" dy="4.48" in="blurOut2" result="blurOut3"/><feBlend in="SourceGraphic" in2="blurOut3" mode="normal"/></filter></defs><g><!--MD5=[1e13576e8c070e32200b62ceaa1f39ec]
class SessaoUtilizador--><rect codeLine="3" fill="#FEFECE" filter="url(#fxcd2lre3hc5a)" height="100.2488" id="SessaoUtilizador" style="stroke:#A80036;stroke-width:1.6800000000000002;" width="141.12" x="28.56" y="299.04"/><ellipse cx="45.36" cy="316.96" fill="#ADD1B2" rx="12.32" ry="12.32" style="stroke:#A80036;stroke-width:1.12;"/><path d="M47.6,313.04 Q47.8275,312.48 48.09,312.2 Q48.3525,311.92 48.65,311.92 Q49.175,311.92 49.5075,312.235 Q49.84,312.55 49.84,313.285 L49.84,315.035 Q49.84,315.77 49.525,316.085 Q49.21,316.4 48.72,316.4 Q48.2825,316.4 48.0025,316.2075 Q47.7225,316.015 47.6,315.5075 Q47.5475,315.1575 47.355,314.965 Q47.005,314.5975 46.375,314.3875 Q45.745,314.16 45.115,314.16 Q44.3275,314.16 43.6625,314.475 Q43.015,314.79 42.5075,315.49 Q42,316.19 42,317.1525 L42,318.185 Q42,319.34 42.945,320.11 Q43.89,320.88 45.57,320.88 Q46.5675,320.88 47.2675,320.6525 Q47.67,320.53 48.125,320.1275 Q48.4225,319.9 48.58,319.83 Q48.7375,319.76 48.93,319.76 Q49.2975,319.76 49.56,320.0575 Q49.84,320.3375 49.84,320.74 Q49.84,321.125 49.455,321.58 Q48.895,322.245 48.0025,322.6125 Q46.83,323.12 45.395,323.12 Q43.715,323.12 42.3675,322.455 Q41.2825,321.93 40.5125,320.7925 Q39.76,319.655 39.76,318.3075 L39.76,317.0825 Q39.76,315.6825 40.425,314.4575 Q41.1075,313.2325 42.28,312.585 Q43.47,311.92 44.8,311.92 Q45.605,311.92 46.305,312.2 Q47.005,312.48 47.6,313.04 Z " fill="#000000"/><text fill="#000000" font-family="sans-serif" font-size="13.44" lengthAdjust="spacing" textLength="105.28" x="61.04" y="322.4594">SessaoUtilizador</text><line style="stroke:#A80036;stroke-width:1.6800000000000002;" x1="29.68" x2="168.56" y1="334.88" y2="334.88"/><line style="stroke:#A80036;stroke-width:1.6800000000000002;" x1="29.68" x2="168.56" y1="343.84" y2="343.84"/><text fill="#000000" font-family="sans-serif" font-size="12.32" lengthAdjust="spacing" textLength="110.88" x="35.28" y="361.1092">+static getInstance()</text><text fill="#000000" font-family="sans-serif" font-size="12.32" lengthAdjust="spacing" textLength="101.92" x="35.28" y="376.6055">+getSessaoAtual()</text><text fill="#000000" font-family="sans-serif" font-size="12.32" lengthAdjust="spacing" textLength="47.04" x="35.28" y="392.1017">+getNif()</text><!--MD5=[3179f819b5ca0f9c8a1bd58e9144681b]
class Entrega--><rect codeLine="9" fill="#FEFECE" filter="url(#fxcd2lre3hc5a)" height="131.2413" id="Entrega" style="stroke:#A80036;stroke-width:1.6800000000000002;" width="301.28" x="38.08" y="739.2"/><ellipse cx="159.88" cy="757.12" fill="#ADD1B2" rx="12.32" ry="12.32" style="stroke:#A80036;stroke-width:1.12;"/><path d="M162.12,753.2 Q162.3475,752.64 162.61,752.36 Q162.8725,752.08 163.17,752.08 Q163.695,752.08 164.0275,752.395 Q164.36,752.71 164.36,753.445 L164.36,755.195 Q164.36,755.93 164.045,756.245 Q163.73,756.56 163.24,756.56 Q162.8025,756.56 162.5225,756.3675 Q162.2425,756.175 162.12,755.6675 Q162.0675,755.3175 161.875,755.125 Q161.525,754.7575 160.895,754.5475 Q160.265,754.32 159.635,754.32 Q158.8475,754.32 158.1825,754.635 Q157.535,754.95 157.0275,755.65 Q156.52,756.35 156.52,757.3125 L156.52,758.345 Q156.52,759.5 157.465,760.27 Q158.41,761.04 160.09,761.04 Q161.0875,761.04 161.7875,760.8125 Q162.19,760.69 162.645,760.2875 Q162.9425,760.06 163.1,759.99 Q163.2575,759.92 163.45,759.92 Q163.8175,759.92 164.08,760.2175 Q164.36,760.4975 164.36,760.9 Q164.36,761.285 163.975,761.74 Q163.415,762.405 162.5225,762.7725 Q161.35,763.28 159.915,763.28 Q158.235,763.28 156.8875,762.615 Q155.8025,762.09 155.0325,760.9525 Q154.28,759.815 154.28,758.4675 L154.28,757.2425 Q154.28,755.8425 154.945,754.6175 Q155.6275,753.3925 156.8,752.745 Q157.99,752.08 159.32,752.08 Q160.125,752.08 160.825,752.36 Q161.525,752.64 162.12,753.2 Z " fill="#000000"/><text fill="#000000" font-family="sans-serif" font-size="13.44" lengthAdjust="spacing" textLength="48.16" x="182.84" y="762.6194">Entrega</text><line style="stroke:#A80036;stroke-width:1.6800000000000002;" x1="39.2" x2="338.24" y1="775.04" y2="775.04"/><text fill="#000000" font-family="sans-serif" font-size="12.32" lengthAdjust="spacing" textLength="95.2" x="44.8" y="792.3092">-Integer idEntrega</text><text fill="#000000" font-family="sans-serif" font-size="12.32" lengthAdjust="spacing" textLength="89.6" x="44.8" y="807.8055">-String dataInicio</text><text fill="#000000" font-family="sans-serif" font-size="12.32" lengthAdjust="spacing" textLength="80.64" x="44.8" y="823.3017">-String dataFim</text><text fill="#000000" font-family="sans-serif" font-size="12.32" lengthAdjust="spacing" textLength="113.12" x="44.8" y="838.798">-Double pesoEntrega</text><line style="stroke:#A80036;stroke-width:1.6800000000000002;" x1="39.2" x2="338.24" y1="845.985" y2="845.985"/><text fill="#000000" font-family="sans-serif" font-size="12.32" lengthAdjust="spacing" textLength="287.84" x="44.8" y="863.2542">+create(dataInicio, dataFim, veiculo, nif, pesoMaximo)</text><!--MD5=[598a246086efa0137d5aa96a640f0789]
class EntregaDB--><rect codeLine="17" fill="#FEFECE" filter="url(#fxcd2lre3hc5a)" height="115.745" id="EntregaDB" style="stroke:#A80036;stroke-width:1.6800000000000002;" width="328.16" x="24.64" y="433.44"/><ellipse cx="150.36" cy="451.36" fill="#ADD1B2" rx="12.32" ry="12.32" style="stroke:#A80036;stroke-width:1.12;"/><path d="M152.6,447.44 Q152.8275,446.88 153.09,446.6 Q153.3525,446.32 153.65,446.32 Q154.175,446.32 154.5075,446.635 Q154.84,446.95 154.84,447.685 L154.84,449.435 Q154.84,450.17 154.525,450.485 Q154.21,450.8 153.72,450.8 Q153.2825,450.8 153.0025,450.6075 Q152.7225,450.415 152.6,449.9075 Q152.5475,449.5575 152.355,449.365 Q152.005,448.9975 151.375,448.7875 Q150.745,448.56 150.115,448.56 Q149.3275,448.56 148.6625,448.875 Q148.015,449.19 147.5075,449.89 Q147,450.59 147,451.5525 L147,452.585 Q147,453.74 147.945,454.51 Q148.89,455.28 150.57,455.28 Q151.5675,455.28 152.2675,455.0525 Q152.67,454.93 153.125,454.5275 Q153.4225,454.3 153.58,454.23 Q153.7375,454.16 153.93,454.16 Q154.2975,454.16 154.56,454.4575 Q154.84,454.7375 154.84,455.14 Q154.84,455.525 154.455,455.98 Q153.895,456.645 153.0025,457.0125 Q151.83,457.52 150.395,457.52 Q148.715,457.52 147.3675,456.855 Q146.2825,456.33 145.5125,455.1925 Q144.76,454.055 144.76,452.7075 L144.76,451.4825 Q144.76,450.0825 145.425,448.8575 Q146.1075,447.6325 147.28,446.985 Q148.47,446.32 149.8,446.32 Q150.605,446.32 151.305,446.6 Q152.005,446.88 152.6,447.44 Z " fill="#000000"/><text fill="#000000" font-family="sans-serif" font-size="13.44" lengthAdjust="spacing" textLength="67.2" x="173.32" y="456.8594">EntregaDB</text><line style="stroke:#A80036;stroke-width:1.6800000000000002;" x1="25.76" x2="351.68" y1="469.28" y2="469.28"/><line style="stroke:#A80036;stroke-width:1.6800000000000002;" x1="25.76" x2="351.68" y1="478.24" y2="478.24"/><text fill="#000000" font-family="sans-serif" font-size="12.32" lengthAdjust="spacing" textLength="314.72" x="31.36" y="495.5092">+addEntrega(dataInicio, dataFim, veiculo, nif, pesoMaximo)</text><text fill="#000000" font-family="sans-serif" font-size="12.32" lengthAdjust="spacing" textLength="115.36" x="31.36" y="511.0055">+registaEntrega(entr)</text><text fill="#000000" font-family="sans-serif" font-size="12.32" lengthAdjust="spacing" textLength="109.76" x="31.36" y="526.5017">+validaEntrega(entr)</text><text fill="#000000" font-family="sans-serif" font-size="12.32" lengthAdjust="spacing" textLength="98.56" x="31.36" y="541.998">+addEntrega(entr)</text><!--MD5=[4ac2c1498d2c03198090a24b8c54d335]
class EstafetaDB--><rect codeLine="24" fill="#FEFECE" filter="url(#fxcd2lre3hc5a)" height="69.2563" id="EstafetaDB" style="stroke:#A80036;stroke-width:1.6800000000000002;" width="135.52" x="288.96" y="314.72"/><ellipse cx="319.368" cy="332.64" fill="#ADD1B2" rx="12.32" ry="12.32" style="stroke:#A80036;stroke-width:1.12;"/><path d="M321.608,328.72 Q321.8355,328.16 322.098,327.88 Q322.3605,327.6 322.658,327.6 Q323.183,327.6 323.5155,327.915 Q323.848,328.23 323.848,328.965 L323.848,330.715 Q323.848,331.45 323.533,331.765 Q323.218,332.08 322.728,332.08 Q322.2905,332.08 322.0105,331.8875 Q321.7305,331.695 321.608,331.1875 Q321.5555,330.8375 321.363,330.645 Q321.013,330.2775 320.383,330.0675 Q319.753,329.84 319.123,329.84 Q318.3355,329.84 317.6705,330.155 Q317.023,330.47 316.5155,331.17 Q316.008,331.87 316.008,332.8325 L316.008,333.865 Q316.008,335.02 316.953,335.79 Q317.898,336.56 319.578,336.56 Q320.5755,336.56 321.2755,336.3325 Q321.678,336.21 322.133,335.8075 Q322.4305,335.58 322.588,335.51 Q322.7455,335.44 322.938,335.44 Q323.3055,335.44 323.568,335.7375 Q323.848,336.0175 323.848,336.42 Q323.848,336.805 323.463,337.26 Q322.903,337.925 322.0105,338.2925 Q320.838,338.8 319.403,338.8 Q317.723,338.8 316.3755,338.135 Q315.2905,337.61 314.5205,336.4725 Q313.768,335.335 313.768,333.9875 L313.768,332.7625 Q313.768,331.3625 314.433,330.1375 Q315.1155,328.9125 316.288,328.265 Q317.478,327.6 318.808,327.6 Q319.613,327.6 320.313,327.88 Q321.013,328.16 321.608,328.72 Z " fill="#000000"/><text fill="#000000" font-family="sans-serif" font-size="13.44" lengthAdjust="spacing" textLength="69.44" x="338.072" y="338.1394">EstafetaDB</text><line style="stroke:#A80036;stroke-width:1.6800000000000002;" x1="290.08" x2="423.36" y1="350.56" y2="350.56"/><line style="stroke:#A80036;stroke-width:1.6800000000000002;" x1="290.08" x2="423.36" y1="359.52" y2="359.52"/><text fill="#000000" font-family="sans-serif" font-size="12.32" lengthAdjust="spacing" textLength="122.08" x="295.68" y="376.7892">+getEstafetaByNIF(nif)</text><!--MD5=[0b96431f48c75c7948e638dd0365dea1]
class RegistarEntregaController--><rect codeLine="28" fill="#FEFECE" filter="url(#fxcd2lre3hc5a)" height="100.2488" id="RegistarEntregaController" style="stroke:#A80036;stroke-width:1.6800000000000002;" width="328.16" x="108.64" y="129.92"/><ellipse cx="187.32" cy="147.84" fill="#ADD1B2" rx="12.32" ry="12.32" style="stroke:#A80036;stroke-width:1.12;"/><path d="M189.56,143.92 Q189.7875,143.36 190.05,143.08 Q190.3125,142.8 190.61,142.8 Q191.135,142.8 191.4675,143.115 Q191.8,143.43 191.8,144.165 L191.8,145.915 Q191.8,146.65 191.485,146.965 Q191.17,147.28 190.68,147.28 Q190.2425,147.28 189.9625,147.0875 Q189.6825,146.895 189.56,146.3875 Q189.5075,146.0375 189.315,145.845 Q188.965,145.4775 188.335,145.2675 Q187.705,145.04 187.075,145.04 Q186.2875,145.04 185.6225,145.355 Q184.975,145.67 184.4675,146.37 Q183.96,147.07 183.96,148.0325 L183.96,149.065 Q183.96,150.22 184.905,150.99 Q185.85,151.76 187.53,151.76 Q188.5275,151.76 189.2275,151.5325 Q189.63,151.41 190.085,151.0075 Q190.3825,150.78 190.54,150.71 Q190.6975,150.64 190.89,150.64 Q191.2575,150.64 191.52,150.9375 Q191.8,151.2175 191.8,151.62 Q191.8,152.005 191.415,152.46 Q190.855,153.125 189.9625,153.4925 Q188.79,154 187.355,154 Q185.675,154 184.3275,153.335 Q183.2425,152.81 182.4725,151.6725 Q181.72,150.535 181.72,149.1875 L181.72,147.9625 Q181.72,146.5625 182.385,145.3375 Q183.0675,144.1125 184.24,143.465 Q185.43,142.8 186.76,142.8 Q187.565,142.8 188.265,143.08 Q188.965,143.36 189.56,143.92 Z " fill="#000000"/><text fill="#000000" font-family="sans-serif" font-size="13.44" lengthAdjust="spacing" textLength="161.28" x="210.28" y="153.3394">RegistarEntregaController</text><line style="stroke:#A80036;stroke-width:1.6800000000000002;" x1="109.76" x2="435.68" y1="165.76" y2="165.76"/><line style="stroke:#A80036;stroke-width:1.6800000000000002;" x1="109.76" x2="435.68" y1="174.72" y2="174.72"/><text fill="#000000" font-family="sans-serif" font-size="12.32" lengthAdjust="spacing" textLength="77.28" x="115.36" y="191.9892">+getEstafeta()</text><text fill="#000000" font-family="sans-serif" font-size="12.32" lengthAdjust="spacing" textLength="314.72" x="115.36" y="207.4855">+addEntrega(dataInicio, dataFim, veiculo, nif, pesoMaximo)</text><text fill="#000000" font-family="sans-serif" font-size="12.32" lengthAdjust="spacing" textLength="94.08" x="115.36" y="222.9817">+registaEntrega()</text><!--MD5=[7a561ec8a1cf4ba3fadee4d155dd8051]
class RegistarEntregaUI--><rect codeLine="34" fill="#FEFECE" filter="url(#fxcd2lre3hc5a)" height="53.76" id="RegistarEntregaUI" style="stroke:#A80036;stroke-width:1.6800000000000002;" width="150.08" x="197.68" y="7.84"/><ellipse cx="214.48" cy="25.76" fill="#ADD1B2" rx="12.32" ry="12.32" style="stroke:#A80036;stroke-width:1.12;"/><path d="M216.72,21.84 Q216.9475,21.28 217.21,21 Q217.4725,20.72 217.77,20.72 Q218.295,20.72 218.6275,21.035 Q218.96,21.35 218.96,22.085 L218.96,23.835 Q218.96,24.57 218.645,24.885 Q218.33,25.2 217.84,25.2 Q217.4025,25.2 217.1225,25.0075 Q216.8425,24.815 216.72,24.3075 Q216.6675,23.9575 216.475,23.765 Q216.125,23.3975 215.495,23.1875 Q214.865,22.96 214.235,22.96 Q213.4475,22.96 212.7825,23.275 Q212.135,23.59 211.6275,24.29 Q211.12,24.99 211.12,25.9525 L211.12,26.985 Q211.12,28.14 212.065,28.91 Q213.01,29.68 214.69,29.68 Q215.6875,29.68 216.3875,29.4525 Q216.79,29.33 217.245,28.9275 Q217.5425,28.7 217.7,28.63 Q217.8575,28.56 218.05,28.56 Q218.4175,28.56 218.68,28.8575 Q218.96,29.1375 218.96,29.54 Q218.96,29.925 218.575,30.38 Q218.015,31.045 217.1225,31.4125 Q215.95,31.92 214.515,31.92 Q212.835,31.92 211.4875,31.255 Q210.4025,30.73 209.6325,29.5925 Q208.88,28.455 208.88,27.1075 L208.88,25.8825 Q208.88,24.4825 209.545,23.2575 Q210.2275,22.0325 211.4,21.385 Q212.59,20.72 213.92,20.72 Q214.725,20.72 215.425,21 Q216.125,21.28 216.72,21.84 Z " fill="#000000"/><text fill="#000000" font-family="sans-serif" font-size="13.44" lengthAdjust="spacing" textLength="114.24" x="230.16" y="31.2594">RegistarEntregaUI</text><line style="stroke:#A80036;stroke-width:1.6800000000000002;" x1="198.8" x2="346.64" y1="43.68" y2="43.68"/><line style="stroke:#A80036;stroke-width:1.6800000000000002;" x1="198.8" x2="346.64" y1="52.64" y2="52.64"/><!--MD5=[c55f92ccbf0646788158d42f3399cc78]
class Encomenda--><rect codeLine="37" fill="#FEFECE" filter="url(#fxcd2lre3hc5a)" height="131.2413" id="Encomenda" style="stroke:#A80036;stroke-width:1.6800000000000002;" width="147.84" x="17.36" y="981.12"/><ellipse cx="50.792" cy="999.04" fill="#ADD1B2" rx="12.32" ry="12.32" style="stroke:#A80036;stroke-width:1.12;"/><path d="M53.032,995.12 Q53.2595,994.56 53.522,994.28 Q53.7845,994 54.082,994 Q54.607,994 54.9395,994.315 Q55.272,994.63 55.272,995.365 L55.272,997.115 Q55.272,997.85 54.957,998.165 Q54.642,998.48 54.152,998.48 Q53.7145,998.48 53.4345,998.2875 Q53.1545,998.095 53.032,997.5875 Q52.9795,997.2375 52.787,997.045 Q52.437,996.6775 51.807,996.4675 Q51.177,996.24 50.547,996.24 Q49.7595,996.24 49.0945,996.555 Q48.447,996.87 47.9395,997.57 Q47.432,998.27 47.432,999.2325 L47.432,1000.265 Q47.432,1001.42 48.377,1002.19 Q49.322,1002.96 51.002,1002.96 Q51.9995,1002.96 52.6995,1002.7325 Q53.102,1002.61 53.557,1002.2075 Q53.8545,1001.98 54.012,1001.91 Q54.1695,1001.84 54.362,1001.84 Q54.7295,1001.84 54.992,1002.1375 Q55.272,1002.4175 55.272,1002.82 Q55.272,1003.205 54.887,1003.66 Q54.327,1004.325 53.4345,1004.6925 Q52.262,1005.2 50.827,1005.2 Q49.147,1005.2 47.7995,1004.535 Q46.7145,1004.01 45.9445,1002.8725 Q45.192,1001.735 45.192,1000.3875 L45.192,999.1625 Q45.192,997.7625 45.857,996.5375 Q46.5395,995.3125 47.712,994.665 Q48.902,994 50.232,994 Q51.037,994 51.737,994.28 Q52.437,994.56 53.032,995.12 Z " fill="#000000"/><text fill="#000000" font-family="sans-serif" font-size="13.44" lengthAdjust="spacing" textLength="75.04" x="70.168" y="1004.5394">Encomenda</text><line style="stroke:#A80036;stroke-width:1.6800000000000002;" x1="18.48" x2="164.08" y1="1016.96" y2="1016.96"/><text fill="#000000" font-family="sans-serif" font-size="12.32" lengthAdjust="spacing" textLength="116.48" x="24.08" y="1034.2292">-Integer idEncomenda</text><text fill="#000000" font-family="sans-serif" font-size="12.32" lengthAdjust="spacing" textLength="98.56" x="24.08" y="1049.7255">-String dataPedida</text><text fill="#000000" font-family="sans-serif" font-size="12.32" lengthAdjust="spacing" textLength="76.16" x="24.08" y="1065.2217">-Double preco</text><text fill="#000000" font-family="sans-serif" font-size="12.32" lengthAdjust="spacing" textLength="134.4" x="24.08" y="1080.718">-Double pesoEncomenda</text><text fill="#000000" font-family="sans-serif" font-size="12.32" lengthAdjust="spacing" textLength="68.32" x="24.08" y="1096.2142">-Double taxa</text><line style="stroke:#A80036;stroke-width:1.6800000000000002;" x1="18.48" x2="164.08" y1="1103.4013" y2="1103.4013"/><!--MD5=[3f1202280bfe3359d2f91fb9b6e32986]
class Estafeta--><rect codeLine="45" fill="#FEFECE" filter="url(#fxcd2lre3hc5a)" height="69.2563" id="Estafeta" style="stroke:#A80036;stroke-width:1.6800000000000002;" width="129.92" x="333.2" y="582.4"/><ellipse cx="369.656" cy="600.32" fill="#ADD1B2" rx="12.32" ry="12.32" style="stroke:#A80036;stroke-width:1.12;"/><path d="M371.896,596.4 Q372.1235,595.84 372.386,595.56 Q372.6485,595.28 372.946,595.28 Q373.471,595.28 373.8035,595.595 Q374.136,595.91 374.136,596.645 L374.136,598.395 Q374.136,599.13 373.821,599.445 Q373.506,599.76 373.016,599.76 Q372.5785,599.76 372.2985,599.5675 Q372.0185,599.375 371.896,598.8675 Q371.8435,598.5175 371.651,598.325 Q371.301,597.9575 370.671,597.7475 Q370.041,597.52 369.411,597.52 Q368.6235,597.52 367.9585,597.835 Q367.311,598.15 366.8035,598.85 Q366.296,599.55 366.296,600.5125 L366.296,601.545 Q366.296,602.7 367.241,603.47 Q368.186,604.24 369.866,604.24 Q370.8635,604.24 371.5635,604.0125 Q371.966,603.89 372.421,603.4875 Q372.7185,603.26 372.876,603.19 Q373.0335,603.12 373.226,603.12 Q373.5935,603.12 373.856,603.4175 Q374.136,603.6975 374.136,604.1 Q374.136,604.485 373.751,604.94 Q373.191,605.605 372.2985,605.9725 Q371.126,606.48 369.691,606.48 Q368.011,606.48 366.6635,605.815 Q365.5785,605.29 364.8085,604.1525 Q364.056,603.015 364.056,601.6675 L364.056,600.4425 Q364.056,599.0425 364.721,597.8175 Q365.4035,596.5925 366.576,595.945 Q367.766,595.28 369.096,595.28 Q369.901,595.28 370.601,595.56 Q371.301,595.84 371.896,596.4 Z " fill="#000000"/><text fill="#000000" font-family="sans-serif" font-size="13.44" lengthAdjust="spacing" textLength="50.4" x="389.704" y="605.8194">Estafeta</text><line style="stroke:#A80036;stroke-width:1.6800000000000002;" x1="334.32" x2="462" y1="618.24" y2="618.24"/><text fill="#000000" font-family="sans-serif" font-size="12.32" lengthAdjust="spacing" textLength="116.48" x="339.92" y="635.5092">-Double pesoEstafeta</text><line style="stroke:#A80036;stroke-width:1.6800000000000002;" x1="334.32" x2="462" y1="642.6963" y2="642.6963"/><!--MD5=[8505c5852735283b5a8424161266bb9f]
class Veiculo--><rect codeLine="49" fill="#FEFECE" filter="url(#fxcd2lre3hc5a)" height="177.73" id="Veiculo" style="stroke:#A80036;stroke-width:1.6800000000000002;" width="166.88" x="204.96" y="957.6"/><ellipse cx="261.24" cy="975.52" fill="#ADD1B2" rx="12.32" ry="12.32" style="stroke:#A80036;stroke-width:1.12;"/><path d="M263.48,971.6 Q263.7075,971.04 263.97,970.76 Q264.2325,970.48 264.53,970.48 Q265.055,970.48 265.3875,970.795 Q265.72,971.11 265.72,971.845 L265.72,973.595 Q265.72,974.33 265.405,974.645 Q265.09,974.96 264.6,974.96 Q264.1625,974.96 263.8825,974.7675 Q263.6025,974.575 263.48,974.0675 Q263.4275,973.7175 263.235,973.525 Q262.885,973.1575 262.255,972.9475 Q261.625,972.72 260.995,972.72 Q260.2075,972.72 259.5425,973.035 Q258.895,973.35 258.3875,974.05 Q257.88,974.75 257.88,975.7125 L257.88,976.745 Q257.88,977.9 258.825,978.67 Q259.77,979.44 261.45,979.44 Q262.4475,979.44 263.1475,979.2125 Q263.55,979.09 264.005,978.6875 Q264.3025,978.46 264.46,978.39 Q264.6175,978.32 264.81,978.32 Q265.1775,978.32 265.44,978.6175 Q265.72,978.8975 265.72,979.3 Q265.72,979.685 265.335,980.14 Q264.775,980.805 263.8825,981.1725 Q262.71,981.68 261.275,981.68 Q259.595,981.68 258.2475,981.015 Q257.1625,980.49 256.3925,979.3525 Q255.64,978.215 255.64,976.8675 L255.64,975.6425 Q255.64,974.2425 256.305,973.0175 Q256.9875,971.7925 258.16,971.145 Q259.35,970.48 260.68,970.48 Q261.485,970.48 262.185,970.76 Q262.885,971.04 263.48,971.6 Z " fill="#000000"/><text fill="#000000" font-family="sans-serif" font-size="13.44" lengthAdjust="spacing" textLength="44.8" x="284.2" y="981.0194">Veiculo</text><line style="stroke:#A80036;stroke-width:1.6800000000000002;" x1="206.08" x2="370.72" y1="993.44" y2="993.44"/><text fill="#000000" font-family="sans-serif" font-size="12.32" lengthAdjust="spacing" textLength="91.84" x="211.68" y="1010.7092">-Integer idveiculo</text><text fill="#000000" font-family="sans-serif" font-size="12.32" lengthAdjust="spacing" textLength="92.96" x="211.68" y="1026.2055">-String descricao</text><text fill="#000000" font-family="sans-serif" font-size="12.32" lengthAdjust="spacing" textLength="107.52" x="211.68" y="1041.7017">-Double capacidade</text><text fill="#000000" font-family="sans-serif" font-size="12.32" lengthAdjust="spacing" textLength="153.44" x="211.68" y="1057.198">-Double percentagemBateria</text><text fill="#000000" font-family="sans-serif" font-size="12.32" lengthAdjust="spacing" textLength="112" x="211.68" y="1072.6942">-Double pesoMaximo</text><text fill="#000000" font-family="sans-serif" font-size="12.32" lengthAdjust="spacing" textLength="112" x="211.68" y="1088.1905">-Double pesoVeiculo</text><text fill="#000000" font-family="sans-serif" font-size="12.32" lengthAdjust="spacing" textLength="90.72" x="211.68" y="1103.6867">-Double potencia</text><text fill="#000000" font-family="sans-serif" font-size="12.32" lengthAdjust="spacing" textLength="106.4" x="211.68" y="1119.183">-Double areaFrontal</text><line style="stroke:#A80036;stroke-width:1.6800000000000002;" x1="206.08" x2="370.72" y1="1126.37" y2="1126.37"/><!--MD5=[2e3f1e60e74253ff42e47f8bfdb04ee2]
class Drone--><rect codeLine="60" fill="#FEFECE" filter="url(#fxcd2lre3hc5a)" height="84.7525" id="Drone" style="stroke:#A80036;stroke-width:1.6800000000000002;" width="99.68" x="226.24" y="1223.04"/><ellipse cx="254.632" cy="1240.96" fill="#ADD1B2" rx="12.32" ry="12.32" style="stroke:#A80036;stroke-width:1.12;"/><path d="M256.872,1237.04 Q257.0995,1236.48 257.362,1236.2 Q257.6245,1235.92 257.922,1235.92 Q258.447,1235.92 258.7795,1236.235 Q259.112,1236.55 259.112,1237.285 L259.112,1239.035 Q259.112,1239.77 258.797,1240.085 Q258.482,1240.4 257.992,1240.4 Q257.5545,1240.4 257.2745,1240.2075 Q256.9945,1240.015 256.872,1239.5075 Q256.8195,1239.1575 256.627,1238.965 Q256.277,1238.5975 255.647,1238.3875 Q255.017,1238.16 254.387,1238.16 Q253.5995,1238.16 252.9345,1238.475 Q252.287,1238.79 251.7795,1239.49 Q251.272,1240.19 251.272,1241.1525 L251.272,1242.185 Q251.272,1243.34 252.217,1244.11 Q253.162,1244.88 254.842,1244.88 Q255.8395,1244.88 256.5395,1244.6525 Q256.942,1244.53 257.397,1244.1275 Q257.6945,1243.9 257.852,1243.83 Q258.0095,1243.76 258.202,1243.76 Q258.5695,1243.76 258.832,1244.0575 Q259.112,1244.3375 259.112,1244.74 Q259.112,1245.125 258.727,1245.58 Q258.167,1246.245 257.2745,1246.6125 Q256.102,1247.12 254.667,1247.12 Q252.987,1247.12 251.6395,1246.455 Q250.5545,1245.93 249.7845,1244.7925 Q249.032,1243.655 249.032,1242.3075 L249.032,1241.0825 Q249.032,1239.6825 249.697,1238.4575 Q250.3795,1237.2325 251.552,1236.585 Q252.742,1235.92 254.072,1235.92 Q254.877,1235.92 255.577,1236.2 Q256.277,1236.48 256.872,1237.04 Z " fill="#000000"/><text fill="#000000" font-family="sans-serif" font-size="13.44" lengthAdjust="spacing" textLength="38.08" x="272.888" y="1246.4594">Drone</text><line style="stroke:#A80036;stroke-width:1.6800000000000002;" x1="227.36" x2="324.8" y1="1258.88" y2="1258.88"/><text fill="#000000" font-family="sans-serif" font-size="12.32" lengthAdjust="spacing" textLength="86.24" x="232.96" y="1276.1492">-Integer idDrone</text><text fill="#000000" font-family="sans-serif" font-size="12.32" lengthAdjust="spacing" textLength="82.88" x="232.96" y="1291.6455">-Double largura</text><line style="stroke:#A80036;stroke-width:1.6800000000000002;" x1="227.36" x2="324.8" y1="1298.8325" y2="1298.8325"/><!--MD5=[f4402668d5d5bb8485350c0fdb60ac8e]
class Scooter--><rect codeLine="65" fill="#FEFECE" filter="url(#fxcd2lre3hc5a)" height="69.2563" id="Scooter" style="stroke:#A80036;stroke-width:1.6800000000000002;" width="109.76" x="365.68" y="1230.88"/><ellipse cx="394.576" cy="1248.8" fill="#ADD1B2" rx="12.32" ry="12.32" style="stroke:#A80036;stroke-width:1.12;"/><path d="M396.816,1244.88 Q397.0435,1244.32 397.306,1244.04 Q397.5685,1243.76 397.866,1243.76 Q398.391,1243.76 398.7235,1244.075 Q399.056,1244.39 399.056,1245.125 L399.056,1246.875 Q399.056,1247.61 398.741,1247.925 Q398.426,1248.24 397.936,1248.24 Q397.4985,1248.24 397.2185,1248.0475 Q396.9385,1247.855 396.816,1247.3475 Q396.7635,1246.9975 396.571,1246.805 Q396.221,1246.4375 395.591,1246.2275 Q394.961,1246 394.331,1246 Q393.5435,1246 392.8785,1246.315 Q392.231,1246.63 391.7235,1247.33 Q391.216,1248.03 391.216,1248.9925 L391.216,1250.025 Q391.216,1251.18 392.161,1251.95 Q393.106,1252.72 394.786,1252.72 Q395.7835,1252.72 396.4835,1252.4925 Q396.886,1252.37 397.341,1251.9675 Q397.6385,1251.74 397.796,1251.67 Q397.9535,1251.6 398.146,1251.6 Q398.5135,1251.6 398.776,1251.8975 Q399.056,1252.1775 399.056,1252.58 Q399.056,1252.965 398.671,1253.42 Q398.111,1254.085 397.2185,1254.4525 Q396.046,1254.96 394.611,1254.96 Q392.931,1254.96 391.5835,1254.295 Q390.4985,1253.77 389.7285,1252.6325 Q388.976,1251.495 388.976,1250.1475 L388.976,1248.9225 Q388.976,1247.5225 389.641,1246.2975 Q390.3235,1245.0725 391.496,1244.425 Q392.686,1243.76 394.016,1243.76 Q394.821,1243.76 395.521,1244.04 Q396.221,1244.32 396.816,1244.88 Z " fill="#000000"/><text fill="#000000" font-family="sans-serif" font-size="13.44" lengthAdjust="spacing" textLength="47.04" x="412.944" y="1254.2994">Scooter</text><line style="stroke:#A80036;stroke-width:1.6800000000000002;" x1="366.8" x2="474.32" y1="1266.72" y2="1266.72"/><text fill="#000000" font-family="sans-serif" font-size="12.32" lengthAdjust="spacing" textLength="96.32" x="372.4" y="1283.9892">-Integer idScooter</text><line style="stroke:#A80036;stroke-width:1.6800000000000002;" x1="366.8" x2="474.32" y1="1291.1763" y2="1291.1763"/><!--MD5=[533e824b6b94274ee39bf5a43d7cce2a]
class EstadoEncomenda--><rect codeLine="69" fill="#FEFECE" filter="url(#fxcd2lre3hc5a)" height="84.7525" id="EstadoEncomenda" style="stroke:#A80036;stroke-width:1.6800000000000002;" width="166.88" x="7.84" y="1223.04"/><ellipse cx="30.184" cy="1240.96" fill="#ADD1B2" rx="12.32" ry="12.32" style="stroke:#A80036;stroke-width:1.12;"/><path d="M32.424,1237.04 Q32.6515,1236.48 32.914,1236.2 Q33.1765,1235.92 33.474,1235.92 Q33.999,1235.92 34.3315,1236.235 Q34.664,1236.55 34.664,1237.285 L34.664,1239.035 Q34.664,1239.77 34.349,1240.085 Q34.034,1240.4 33.544,1240.4 Q33.1065,1240.4 32.8265,1240.2075 Q32.5465,1240.015 32.424,1239.5075 Q32.3715,1239.1575 32.179,1238.965 Q31.829,1238.5975 31.199,1238.3875 Q30.569,1238.16 29.939,1238.16 Q29.1515,1238.16 28.4865,1238.475 Q27.839,1238.79 27.3315,1239.49 Q26.824,1240.19 26.824,1241.1525 L26.824,1242.185 Q26.824,1243.34 27.769,1244.11 Q28.714,1244.88 30.394,1244.88 Q31.3915,1244.88 32.0915,1244.6525 Q32.494,1244.53 32.949,1244.1275 Q33.2465,1243.9 33.404,1243.83 Q33.5615,1243.76 33.754,1243.76 Q34.1215,1243.76 34.384,1244.0575 Q34.664,1244.3375 34.664,1244.74 Q34.664,1245.125 34.279,1245.58 Q33.719,1246.245 32.8265,1246.6125 Q31.654,1247.12 30.219,1247.12 Q28.539,1247.12 27.1915,1246.455 Q26.1065,1245.93 25.3365,1244.7925 Q24.584,1243.655 24.584,1242.3075 L24.584,1241.0825 Q24.584,1239.6825 25.249,1238.4575 Q25.9315,1237.2325 27.104,1236.585 Q28.294,1235.92 29.624,1235.92 Q30.429,1235.92 31.129,1236.2 Q31.829,1236.48 32.424,1237.04 Z " fill="#000000"/><text fill="#000000" font-family="sans-serif" font-size="13.44" lengthAdjust="spacing" textLength="118.72" x="47.096" y="1246.4594">EstadoEncomenda</text><line style="stroke:#A80036;stroke-width:1.6800000000000002;" x1="8.96" x2="173.6" y1="1258.88" y2="1258.88"/><text fill="#000000" font-family="sans-serif" font-size="12.32" lengthAdjust="spacing" textLength="153.44" x="14.56" y="1276.1492">-Integer idEstadoEncomenda</text><text fill="#000000" font-family="sans-serif" font-size="12.32" lengthAdjust="spacing" textLength="101.92" x="14.56" y="1291.6455">-String designacao</text><line style="stroke:#A80036;stroke-width:1.6800000000000002;" x1="8.96" x2="173.6" y1="1298.8325" y2="1298.8325"/><!--MD5=[5dd1d6732c071e710b9290b531f2fa3b]
class Utilizador--><rect codeLine="74" fill="#FEFECE" filter="url(#fxcd2lre3hc5a)" height="131.2413" id="Utilizador" style="stroke:#A80036;stroke-width:1.6800000000000002;" width="190.4" x="379.12" y="739.2"/><ellipse cx="441" cy="757.12" fill="#ADD1B2" rx="12.32" ry="12.32" style="stroke:#A80036;stroke-width:1.12;"/><path d="M443.24,753.2 Q443.4675,752.64 443.73,752.36 Q443.9925,752.08 444.29,752.08 Q444.815,752.08 445.1475,752.395 Q445.48,752.71 445.48,753.445 L445.48,755.195 Q445.48,755.93 445.165,756.245 Q444.85,756.56 444.36,756.56 Q443.9225,756.56 443.6425,756.3675 Q443.3625,756.175 443.24,755.6675 Q443.1875,755.3175 442.995,755.125 Q442.645,754.7575 442.015,754.5475 Q441.385,754.32 440.755,754.32 Q439.9675,754.32 439.3025,754.635 Q438.655,754.95 438.1475,755.65 Q437.64,756.35 437.64,757.3125 L437.64,758.345 Q437.64,759.5 438.585,760.27 Q439.53,761.04 441.21,761.04 Q442.2075,761.04 442.9075,760.8125 Q443.31,760.69 443.765,760.2875 Q444.0625,760.06 444.22,759.99 Q444.3775,759.92 444.57,759.92 Q444.9375,759.92 445.2,760.2175 Q445.48,760.4975 445.48,760.9 Q445.48,761.285 445.095,761.74 Q444.535,762.405 443.6425,762.7725 Q442.47,763.28 441.035,763.28 Q439.355,763.28 438.0075,762.615 Q436.9225,762.09 436.1525,760.9525 Q435.4,759.815 435.4,758.4675 L435.4,757.2425 Q435.4,755.8425 436.065,754.6175 Q436.7475,753.3925 437.92,752.745 Q439.11,752.08 440.44,752.08 Q441.245,752.08 441.945,752.36 Q442.645,752.64 443.24,753.2 Z " fill="#000000"/><text fill="#000000" font-family="sans-serif" font-size="13.44" lengthAdjust="spacing" textLength="57.12" x="463.96" y="762.6194">Utilizador</text><line style="stroke:#A80036;stroke-width:1.6800000000000002;" x1="380.24" x2="568.4" y1="775.04" y2="775.04"/><text fill="#000000" font-family="sans-serif" font-size="12.32" lengthAdjust="spacing" textLength="56" x="385.84" y="792.3092">-String NIF</text><text fill="#000000" font-family="sans-serif" font-size="12.32" lengthAdjust="spacing" textLength="68.32" x="385.84" y="807.8055">-String nome</text><text fill="#000000" font-family="sans-serif" font-size="12.32" lengthAdjust="spacing" textLength="66.08" x="385.84" y="823.3017">-String email</text><text fill="#000000" font-family="sans-serif" font-size="12.32" lengthAdjust="spacing" textLength="176.96" x="385.84" y="838.798">-Integer numeroSegurancaSocial</text><text fill="#000000" font-family="sans-serif" font-size="12.32" lengthAdjust="spacing" textLength="95.2" x="385.84" y="854.2942">-String password</text><line style="stroke:#A80036;stroke-width:1.6800000000000002;" x1="380.24" x2="568.4" y1="861.4813" y2="861.4813"/><!--MD5=[380d12a68ed0046a60f31008a02875d0]
class AplicacaoPOT--><rect fill="#FEFECE" filter="url(#fxcd2lre3hc5a)" height="53.76" id="AplicacaoPOT" style="stroke:#A80036;stroke-width:1.6800000000000002;" width="122.08" x="463.68" y="322.56"/><ellipse cx="480.48" cy="340.48" fill="#ADD1B2" rx="12.32" ry="12.32" style="stroke:#A80036;stroke-width:1.12;"/><path d="M482.72,336.56 Q482.9475,336 483.21,335.72 Q483.4725,335.44 483.77,335.44 Q484.295,335.44 484.6275,335.755 Q484.96,336.07 484.96,336.805 L484.96,338.555 Q484.96,339.29 484.645,339.605 Q484.33,339.92 483.84,339.92 Q483.4025,339.92 483.1225,339.7275 Q482.8425,339.535 482.72,339.0275 Q482.6675,338.6775 482.475,338.485 Q482.125,338.1175 481.495,337.9075 Q480.865,337.68 480.235,337.68 Q479.4475,337.68 478.7825,337.995 Q478.135,338.31 477.6275,339.01 Q477.12,339.71 477.12,340.6725 L477.12,341.705 Q477.12,342.86 478.065,343.63 Q479.01,344.4 480.69,344.4 Q481.6875,344.4 482.3875,344.1725 Q482.79,344.05 483.245,343.6475 Q483.5425,343.42 483.7,343.35 Q483.8575,343.28 484.05,343.28 Q484.4175,343.28 484.68,343.5775 Q484.96,343.8575 484.96,344.26 Q484.96,344.645 484.575,345.1 Q484.015,345.765 483.1225,346.1325 Q481.95,346.64 480.515,346.64 Q478.835,346.64 477.4875,345.975 Q476.4025,345.45 475.6325,344.3125 Q474.88,343.175 474.88,341.8275 L474.88,340.6025 Q474.88,339.2025 475.545,337.9775 Q476.2275,336.7525 477.4,336.105 Q478.59,335.44 479.92,335.44 Q480.725,335.44 481.425,335.72 Q482.125,336 482.72,336.56 Z " fill="#000000"/><text fill="#000000" font-family="sans-serif" font-size="13.44" lengthAdjust="spacing" textLength="86.24" x="496.16" y="345.9794">AplicacaoPOT</text><line style="stroke:#A80036;stroke-width:1.6800000000000002;" x1="464.8" x2="584.64" y1="358.4" y2="358.4"/><line style="stroke:#A80036;stroke-width:1.6800000000000002;" x1="464.8" x2="584.64" y1="367.36" y2="367.36"/><!--MD5=[1593fa6ac82b73031c98001dcbb43056]
link RegistarEntregaUI to RegistarEntregaController--><path codeLine="82" d="M272.72,61.8016 C272.72,79.0608 272.72,102.3904 272.72,123.704 " fill="none" id="RegistarEntregaUI-to-RegistarEntregaController" style="stroke:#A80036;stroke-width:1.12;stroke-dasharray:7.0,7.0;"/><polygon fill="#A80036" points="272.72,129.6512,277.2,119.5712,272.72,124.0512,268.24,119.5712,272.72,129.6512" style="stroke:#A80036;stroke-width:1.12;"/><!--MD5=[f3f72dc95338026d83cf258b0336abf9]
link RegistarEntregaController to EstafetaDB--><path codeLine="84" d="M297.696,231.056 C310.2848,256.0656 325.3264,285.9584 337.0752,309.2992 " fill="none" id="RegistarEntregaController-to-EstafetaDB" style="stroke:#A80036;stroke-width:1.12;stroke-dasharray:7.0,7.0;"/><polygon fill="#A80036" points="339.6848,314.4848,339.1418,303.4675,337.1613,309.4856,331.1431,307.5051,339.6848,314.4848" style="stroke:#A80036;stroke-width:1.12;"/><!--MD5=[51c8078cdce16ec2931503df013aa567]
link RegistarEntregaController to EntregaDB--><path codeLine="85" d="M259.224,231.0112 C244.664,284.4912 221.4576,369.7232 205.6768,427.6944 " fill="none" id="RegistarEntregaController-to-EntregaDB" style="stroke:#A80036;stroke-width:1.12;stroke-dasharray:7.0,7.0;"/><polygon fill="#A80036" points="204.176,433.216,211.1525,424.6717,205.6508,427.8137,202.5088,422.312,204.176,433.216" style="stroke:#A80036;stroke-width:1.12;"/><!--MD5=[2f7ce0bd8a6eb8b37f480aeb7a8943c1]
link RegistarEntregaController to AplicacaoPOT--><path codeLine="86" d="M347.3008,230.832 C390.7792,259.6272 444.1136,294.9408 480.8832,319.2896 " fill="none" id="RegistarEntregaController-to-AplicacaoPOT" style="stroke:#A80036;stroke-width:1.12;stroke-dasharray:7.0,7.0;"/><polygon fill="#A80036" points="485.7328,322.504,479.7939,313.2085,481.061,319.4162,474.8534,320.6833,485.7328,322.504" style="stroke:#A80036;stroke-width:1.12;"/><!--MD5=[13e18cca587fedea4b01b5758c9bdbf6]
link RegistarEntregaController to SessaoUtilizador--><path codeLine="87" d="M221.0992,231.056 C200.2112,251.1488 176.0416,274.3776 154.7504,294.84 " fill="none" id="RegistarEntregaController-to-SessaoUtilizador" style="stroke:#A80036;stroke-width:1.12;stroke-dasharray:7.0,7.0;"/><polygon fill="#A80036" points="150.5392,298.8944,160.9124,295.1429,154.578,295.0152,154.7057,288.6808,150.5392,298.8944" style="stroke:#A80036;stroke-width:1.12;"/><!--MD5=[4c7211caded616e3e77a70a7b669ae10]
link EntregaDB to Entrega--><path codeLine="89" d="M188.72,548.9904 C188.72,600.88 188.72,677.8128 188.72,733.5216 " fill="none" id="EntregaDB-to-Entrega" style="stroke:#A80036;stroke-width:1.12;"/><polygon fill="#A80036" points="188.72,739.1776,193.2,729.0976,188.72,733.5776,184.24,729.0976,188.72,739.1776" style="stroke:#A80036;stroke-width:1.12;"/><text fill="#000000" font-family="sans-serif" font-size="14.56" lengthAdjust="spacing" textLength="96.32" x="189.84" y="623.2745">tem registadas</text><text fill="#000000" font-family="sans-serif" font-size="14.56" lengthAdjust="spacing" textLength="7.84" x="180.3533" y="573.0859">1</text><text fill="#000000" font-family="sans-serif" font-size="14.56" lengthAdjust="spacing" textLength="5.6" x="182.7613" y="726.8388">*</text><!--MD5=[a3e63c72779e49a48819b249af53bae4]
link EstafetaDB to Estafeta--><path codeLine="90" d="M361.9728,384.1824 C369.6336,433.3056 383.88,524.5296 392.0224,576.6992 " fill="none" id="EstafetaDB-to-Estafeta" style="stroke:#A80036;stroke-width:1.12;"/><polygon fill="#A80036" points="392.8848,582.232,395.7569,571.5817,392.0213,576.699,386.904,572.9634,392.8848,582.232" style="stroke:#A80036;stroke-width:1.12;"/><text fill="#000000" font-family="sans-serif" font-size="14.56" lengthAdjust="spacing" textLength="96.32" x="389.2" y="497.2745">tem registadas</text><text fill="#000000" font-family="sans-serif" font-size="14.56" lengthAdjust="spacing" textLength="7.84" x="354.3952" y="407.9577">1</text><text fill="#000000" font-family="sans-serif" font-size="14.56" lengthAdjust="spacing" textLength="5.6" x="385.6193" y="570.4424">*</text><!--MD5=[055d9a59c94791d1e5417ead9eff8d01]
link Encomenda to EstadoEncomenda--><path codeLine="91" d="M91.28,1112.1936 C91.28,1148.0112 91.28,1191.5232 91.28,1222.8496 " fill="none" id="Encomenda-EstadoEncomenda" style="stroke:#A80036;stroke-width:1.12;"/><polygon fill="#000000" points="96.88,1185.1569,100.1716,1175.0264,93.5884,1175.0264,96.88,1185.1569" style="stroke:#000000;stroke-width:1.12;"/><text fill="#000000" font-family="sans-serif" font-size="14.56" lengthAdjust="spacing" textLength="24.64" x="106.96" y="1185.5145">tem</text><text fill="#000000" font-family="sans-serif" font-size="14.56" lengthAdjust="spacing" textLength="7.84" x="82.9623" y="1136.4012">1</text><text fill="#000000" font-family="sans-serif" font-size="14.56" lengthAdjust="spacing" textLength="7.84" x="82.7418" y="1210.901">1</text><!--MD5=[39609d66ce6d06d1779a14455c909f6f]
link Entrega to Encomenda--><path codeLine="92" d="M162.4784,870.3856 C148.5568,904.6352 131.4992,946.5904 117.5664,980.8624 " fill="none" id="Entrega-Encomenda" style="stroke:#A80036;stroke-width:1.12;"/><polygon fill="#000000" points="153.011,919.3046,159.8754,911.1595,153.7769,908.6803,153.011,919.3046" style="stroke:#000000;stroke-width:1.12;"/><text fill="#000000" font-family="sans-serif" font-size="14.56" lengthAdjust="spacing" textLength="42.56" x="165.2" y="920.0745">possui</text><text fill="#000000" font-family="sans-serif" font-size="14.56" lengthAdjust="spacing" textLength="7.84" x="150.9625" y="894.6069">1</text><text fill="#000000" font-family="sans-serif" font-size="14.56" lengthAdjust="spacing" textLength="5.6" x="114.8288" y="968.96">*</text><!--MD5=[328dae9b2f192140d45e51cd90ecd75a]
link Estafeta to Entrega--><path codeLine="93" d="M359.744,652.2432 C332.3488,676.48 294.6608,709.8336 261.6432,739.0656 " fill="none" id="Estafeta-Entrega" style="stroke:#A80036;stroke-width:1.12;"/><polygon fill="#000000" points="320.0465,699.4283,329.8141,695.1792,325.4511,690.2494,320.0465,699.4283" style="stroke:#000000;stroke-width:1.12;"/><text fill="#000000" font-family="sans-serif" font-size="14.56" lengthAdjust="spacing" textLength="42.56" x="334.32" y="701.6745">realiza</text><text fill="#000000" font-family="sans-serif" font-size="14.56" lengthAdjust="spacing" textLength="7.84" x="343.8337" y="675.8161">1</text><text fill="#000000" font-family="sans-serif" font-size="14.56" lengthAdjust="spacing" textLength="5.6" x="264.5895" y="727.1782">*</text><!--MD5=[cd2aeefe8c457d184a69396a9f9cb06a]
link Entrega to Veiculo--><path codeLine="94" d="M215.5664,870.3856 C226.688,897.1424 239.7808,928.6144 251.7648,957.4432 " fill="none" id="Entrega-Veiculo" style="stroke:#A80036;stroke-width:1.12;"/><polygon fill="#000000" points="239.21,908.9461,240.0601,919.5639,246.1387,917.0364,239.21,908.9461" style="stroke:#000000;stroke-width:1.12;"/><text fill="#000000" font-family="sans-serif" font-size="14.56" lengthAdjust="spacing" textLength="42.56" x="251.44" y="920.0745">realiza</text><text fill="#000000" font-family="sans-serif" font-size="14.56" lengthAdjust="spacing" textLength="5.6" x="212.8971" y="894.6069">*</text><text fill="#000000" font-family="sans-serif" font-size="14.56" lengthAdjust="spacing" textLength="7.84" x="240.0594" y="945.3176">1</text><!--MD5=[aa5a8ec5fd097e3d415964f18fa48efb]
link Estafeta to Utilizador--><path codeLine="95" d="M412.1264,652.2432 C422.0944,676.48 435.792,709.8336 447.7984,739.0656 " fill="none" id="Estafeta-Utilizador" style="stroke:#A80036;stroke-width:1.12;"/><polygon fill="#000000" points="440.6082,700.8967,439.8029,690.2754,433.7136,692.7772,440.6082,700.8967" style="stroke:#000000;stroke-width:1.12;"/><text fill="#000000" font-family="sans-serif" font-size="14.56" lengthAdjust="spacing" textLength="68.32" x="448.56" y="701.6745">atua como</text><text fill="#000000" font-family="sans-serif" font-size="14.56" lengthAdjust="spacing" textLength="7.84" x="406.2015" y="675.8161">1</text><text fill="#000000" font-family="sans-serif" font-size="14.56" lengthAdjust="spacing" textLength="7.84" x="436.2483" y="727.1782">1</text><!--MD5=[460034a14c91c8062cdb3d6e7324968c]
link Veiculo to Drone--><path codeLine="96" d="M283.3936,1135.904 C281.68,1166.0208 279.8432,1198.2992 278.4432,1222.984 " fill="none" id="Veiculo-Drone" style="stroke:#A80036;stroke-width:1.12;"/><polygon fill="#000000" points="287.5978,1173.9659,283.7366,1183.8932,290.3092,1184.2669,287.5978,1173.9659" style="stroke:#000000;stroke-width:1.12;"/><text fill="#000000" font-family="sans-serif" font-size="14.56" lengthAdjust="spacing" textLength="7.84" x="297.36" y="1185.5145">é</text><text fill="#000000" font-family="sans-serif" font-size="14.56" lengthAdjust="spacing" textLength="7.84" x="274.7865" y="1159.4916">1</text><text fill="#000000" font-family="sans-serif" font-size="14.56" lengthAdjust="spacing" textLength="7.84" x="270.3162" y="1210.7394">1</text><!--MD5=[0fa340c3d135fb564aedca6a2c40d6f7]
link Veiculo to Scooter--><path codeLine="97" d="M342.16,1135.904 C362.4544,1169.1904 384.3504,1205.1088 399.84,1230.4992 " fill="none" id="Veiculo-Scooter" style="stroke:#A80036;stroke-width:1.12;"/><polygon fill="#000000" points="377.3246,1174.7756,379.7883,1185.1386,385.409,1181.7114,377.3246,1174.7756" style="stroke:#000000;stroke-width:1.12;"/><text fill="#000000" font-family="sans-serif" font-size="14.56" lengthAdjust="spacing" textLength="7.84" x="390.32" y="1185.5145">é</text><text fill="#000000" font-family="sans-serif" font-size="14.56" lengthAdjust="spacing" textLength="7.84" x="338.6031" y="1159.4916">1</text><text fill="#000000" font-family="sans-serif" font-size="14.56" lengthAdjust="spacing" textLength="7.84" x="386.918" y="1218.6657">1</text><!--MD5=[6a3664bf344ddc5658f725ac67c54648]
@startuml
skinparam classAttributeIconSize 0

class SessaoUtilizador{
  +static getInstance()
  +getSessaoAtual()
  +getNif()
}

class Entrega {
  -Integer idEntrega
  -String dataInicio
  -String dataFim
  -Double pesoEntrega
  +create(dataInicio, dataFim, veiculo, nif, pesoMaximo)
}

class EntregaDB {
  +addEntrega(dataInicio, dataFim, veiculo, nif, pesoMaximo)
  +registaEntrega(entr)
  +validaEntrega(entr)
  +addEntrega(entr)
}

class EstafetaDB {
  +getEstafetaByNIF(nif)
}

class RegistarEntregaController {
  +getEstafeta()
  +addEntrega(dataInicio, dataFim, veiculo, nif, pesoMaximo)
  +registaEntrega()
}

class RegistarEntregaUI {
}

class Encomenda {
  -Integer idEncomenda
  -String dataPedida
  -Double preco
  -Double pesoEncomenda
  -Double taxa
}

class Estafeta {
  -Double pesoEstafeta
}

class Veiculo {
  -Integer idveiculo
  -String descricao
  -Double capacidade
  -Double percentagemBateria
  -Double pesoMaximo
  -Double pesoVeiculo
  -Double potencia
  -Double areaFrontal
}

class Drone {
  -Integer idDrone
  -Double largura
}

class Scooter {
  -Integer idScooter
}

class EstadoEncomenda {
  -Integer idEstadoEncomenda
  -String designacao
}

class Utilizador{
  -String NIF
  -String nome
  -String email
  -Integer numeroSegurancaSocial
  -String password
  }

RegistarEntregaUI ..> RegistarEntregaController

RegistarEntregaController ..> EstafetaDB
RegistarEntregaController ..> EntregaDB
RegistarEntregaController ..> AplicacaoPOT
RegistarEntregaController ..> SessaoUtilizador

EntregaDB "1" - -> "*" Entrega : tem registadas
EstafetaDB "1" - -> "*" Estafeta : tem registadas
Encomenda "1" - - "1" EstadoEncomenda : tem >
Entrega "1" - - "*" Encomenda : possui >
Estafeta "1" - - "*" Entrega: realiza >
Entrega "*" - - "1" Veiculo: realiza <
Estafeta "1" - - "1" Utilizador: atua como >
Veiculo "1" - - "1" Drone: é <
Veiculo "1" - - "1" Scooter: é <

@enduml

PlantUML version 1.2021.00(Sun Jan 10 10:25:05 GMT 2021)
(GPL source distribution)
Java Runtime: OpenJDK Runtime Environment
JVM: OpenJDK 64-Bit Server VM
Default Encoding: Cp1252
Language: pt
Country: PT
--></g></svg>