<?xml version="1.0" encoding="UTF-8" standalone="no"?><svg xmlns="http://www.w3.org/2000/svg" xmlns:xlink="http://www.w3.org/1999/xlink" contentScriptType="application/ecmascript" contentStyleType="text/css" height="420px" preserveAspectRatio="none" style="width:1040px;height:420px;" version="1.1" viewBox="0 0 1040 420" width="1040px" zoomAndPan="magnify"><defs><filter height="300%" id="fb1lrcvrgabge" width="300%" x="-1" y="-1"><feGaussianBlur result="blurOut" stdDeviation="2.5"/><feColorMatrix in="blurOut" result="blurOut2" type="matrix" values="0 0 0 0 0 0 0 0 0 0 0 0 0 0 0 0 0 0 .4 0"/><feOffset dx="5.0" dy="5.0" in="blurOut2" result="blurOut3"/><feBlend in="SourceGraphic" in2="blurOut3" mode="normal"/></filter></defs><g><!--MD5=[3179f819b5ca0f9c8a1bd58e9144681b]
class Entrega--><rect codeLine="5" fill="#FEFECE" filter="url(#fb1lrcvrgabge)" height="119.1797" id="Entrega" style="stroke:#A80036;stroke-width:1.875;" width="96.25" x="314.375" y="103.75"/><ellipse cx="334.25" cy="123.75" fill="#ADD1B2" rx="13.75" ry="13.75" style="stroke:#A80036;stroke-width:1.25;"/><path d="M336.75,119.375 Q337.0039,118.75 337.2969,118.4375 Q337.5898,118.125 337.9219,118.125 Q338.5078,118.125 338.8789,118.4766 Q339.25,118.8281 339.25,119.6484 L339.25,121.6016 Q339.25,122.4219 338.8984,122.7734 Q338.5469,123.125 338,123.125 Q337.5117,123.125 337.1992,122.9102 Q336.8867,122.6953 336.75,122.1289 Q336.6914,121.7383 336.4766,121.5234 Q336.0859,121.1133 335.3828,120.8789 Q334.6797,120.625 333.9766,120.625 Q333.0977,120.625 332.3555,120.9766 Q331.6328,121.3281 331.0664,122.1094 Q330.5,122.8906 330.5,123.9648 L330.5,125.1172 Q330.5,126.4063 331.5547,127.2656 Q332.6094,128.125 334.4844,128.125 Q335.5977,128.125 336.3789,127.8711 Q336.8281,127.7344 337.3359,127.2852 Q337.668,127.0313 337.8438,126.9531 Q338.0195,126.875 338.2344,126.875 Q338.6445,126.875 338.9375,127.207 Q339.25,127.5195 339.25,127.9688 Q339.25,128.3984 338.8203,128.9063 Q338.1953,129.6484 337.1992,130.0586 Q335.8906,130.625 334.2891,130.625 Q332.4141,130.625 330.9102,129.8828 Q329.6992,129.2969 328.8398,128.0273 Q328,126.7578 328,125.2539 L328,123.8867 Q328,122.3242 328.7422,120.957 Q329.5039,119.5898 330.8125,118.8672 Q332.1406,118.125 333.625,118.125 Q334.5234,118.125 335.3047,118.4375 Q336.0859,118.75 336.75,119.375 Z " fill="#000000"/><text fill="#000000" font-family="sans-serif" font-size="15" lengthAdjust="spacing" textLength="53.75" x="352" y="129.8877">Entrega</text><line style="stroke:#A80036;stroke-width:1.875;" x1="315.625" x2="409.375" y1="143.75" y2="143.75"/><text fill="#000000" font-family="sans-serif" font-size="13.75" lengthAdjust="spacing" textLength="61.25" x="321.875" y="163.0237">-idEntrega</text><text fill="#000000" font-family="sans-serif" font-size="13.75" lengthAdjust="spacing" textLength="61.25" x="321.875" y="180.3186">-dataInicio</text><text fill="#000000" font-family="sans-serif" font-size="13.75" lengthAdjust="spacing" textLength="51.25" x="321.875" y="197.6135">-dataFim</text><text fill="#000000" font-family="sans-serif" font-size="13.75" lengthAdjust="spacing" textLength="81.25" x="321.875" y="214.9084">-pesoEntrega</text><!--MD5=[c55f92ccbf0646788158d42f3399cc78]
class Encomenda--><rect codeLine="12" fill="#FEFECE" filter="url(#fb1lrcvrgabge)" height="136.4746" id="Encomenda" style="stroke:#A80036;stroke-width:1.875;" width="123.75" x="596.25" y="8.75"/><ellipse cx="615" cy="28.75" fill="#ADD1B2" rx="13.75" ry="13.75" style="stroke:#A80036;stroke-width:1.25;"/><path d="M617.5,24.375 Q617.7539,23.75 618.0469,23.4375 Q618.3398,23.125 618.6719,23.125 Q619.2578,23.125 619.6289,23.4766 Q620,23.8281 620,24.6484 L620,26.6016 Q620,27.4219 619.6484,27.7734 Q619.2969,28.125 618.75,28.125 Q618.2617,28.125 617.9492,27.9102 Q617.6367,27.6953 617.5,27.1289 Q617.4414,26.7383 617.2266,26.5234 Q616.8359,26.1133 616.1328,25.8789 Q615.4297,25.625 614.7266,25.625 Q613.8477,25.625 613.1055,25.9766 Q612.3828,26.3281 611.8164,27.1094 Q611.25,27.8906 611.25,28.9648 L611.25,30.1172 Q611.25,31.4063 612.3047,32.2656 Q613.3594,33.125 615.2344,33.125 Q616.3477,33.125 617.1289,32.8711 Q617.5781,32.7344 618.0859,32.2852 Q618.418,32.0313 618.5938,31.9531 Q618.7695,31.875 618.9844,31.875 Q619.3945,31.875 619.6875,32.207 Q620,32.5195 620,32.9688 Q620,33.3984 619.5703,33.9063 Q618.9453,34.6484 617.9492,35.0586 Q616.6406,35.625 615.0391,35.625 Q613.1641,35.625 611.6602,34.8828 Q610.4492,34.2969 609.5898,33.0273 Q608.75,31.7578 608.75,30.2539 L608.75,28.8867 Q608.75,27.3242 609.4922,25.957 Q610.2539,24.5898 611.5625,23.8672 Q612.8906,23.125 614.375,23.125 Q615.2734,23.125 616.0547,23.4375 Q616.8359,23.75 617.5,24.375 Z " fill="#000000"/><text fill="#000000" font-family="sans-serif" font-size="15" lengthAdjust="spacing" textLength="83.75" x="632.5" y="34.8877">Encomenda</text><line style="stroke:#A80036;stroke-width:1.875;" x1="597.5" x2="718.75" y1="48.75" y2="48.75"/><text fill="#000000" font-family="sans-serif" font-size="13.75" lengthAdjust="spacing" textLength="85" x="603.75" y="68.0237">-idEncomenda</text><text fill="#000000" font-family="sans-serif" font-size="13.75" lengthAdjust="spacing" textLength="71.25" x="603.75" y="85.3186">-dataPedida</text><text fill="#000000" font-family="sans-serif" font-size="13.75" lengthAdjust="spacing" textLength="40" x="603.75" y="102.6135">-preco</text><text fill="#000000" font-family="sans-serif" font-size="13.75" lengthAdjust="spacing" textLength="105" x="603.75" y="119.9084">-pesoEncomenda</text><text fill="#000000" font-family="sans-serif" font-size="13.75" lengthAdjust="spacing" textLength="31.25" x="603.75" y="137.2034">-taxa</text><!--MD5=[3f1202280bfe3359d2f91fb9b6e32986]
class Estafeta--><rect codeLine="20" fill="#FEFECE" filter="url(#fb1lrcvrgabge)" height="67.2949" id="Estafeta" style="stroke:#A80036;stroke-width:1.875;" width="100" x="8.75" y="264.375"/><ellipse cx="29.1875" cy="284.375" fill="#ADD1B2" rx="13.75" ry="13.75" style="stroke:#A80036;stroke-width:1.25;"/><path d="M31.6875,280 Q31.9414,279.375 32.2344,279.0625 Q32.5273,278.75 32.8594,278.75 Q33.4453,278.75 33.8164,279.1016 Q34.1875,279.4531 34.1875,280.2734 L34.1875,282.2266 Q34.1875,283.0469 33.8359,283.3984 Q33.4844,283.75 32.9375,283.75 Q32.4492,283.75 32.1367,283.5352 Q31.8242,283.3203 31.6875,282.7539 Q31.6289,282.3633 31.4141,282.1484 Q31.0234,281.7383 30.3203,281.5039 Q29.6172,281.25 28.9141,281.25 Q28.0352,281.25 27.293,281.6016 Q26.5703,281.9531 26.0039,282.7344 Q25.4375,283.5156 25.4375,284.5898 L25.4375,285.7422 Q25.4375,287.0313 26.4922,287.8906 Q27.5469,288.75 29.4219,288.75 Q30.5352,288.75 31.3164,288.4961 Q31.7656,288.3594 32.2734,287.9102 Q32.6055,287.6563 32.7813,287.5781 Q32.957,287.5 33.1719,287.5 Q33.582,287.5 33.875,287.832 Q34.1875,288.1445 34.1875,288.5938 Q34.1875,289.0234 33.7578,289.5313 Q33.1328,290.2734 32.1367,290.6836 Q30.8281,291.25 29.2266,291.25 Q27.3516,291.25 25.8477,290.5078 Q24.6367,289.9219 23.7773,288.6523 Q22.9375,287.3828 22.9375,285.8789 L22.9375,284.5117 Q22.9375,282.9492 23.6797,281.582 Q24.4414,280.2148 25.75,279.4922 Q27.0781,278.75 28.5625,278.75 Q29.4609,278.75 30.2422,279.0625 Q31.0234,279.375 31.6875,280 Z " fill="#000000"/><text fill="#000000" font-family="sans-serif" font-size="15" lengthAdjust="spacing" textLength="56.25" x="47.0625" y="290.5127">Estafeta</text><line style="stroke:#A80036;stroke-width:1.875;" x1="10" x2="107.5" y1="304.375" y2="304.375"/><text fill="#000000" font-family="sans-serif" font-size="13.75" lengthAdjust="spacing" textLength="85" x="16.25" y="323.6487">-pesoEstafeta</text><!--MD5=[f4402668d5d5bb8485350c0fdb60ac8e]
class Scooter--><rect codeLine="25" fill="#FEFECE" filter="url(#fb1lrcvrgabge)" height="67.2949" id="Scooter" style="stroke:#A80036;stroke-width:1.875;" width="92.5" x="890" y="205.625"/><ellipse cx="908.75" cy="225.625" fill="#ADD1B2" rx="13.75" ry="13.75" style="stroke:#A80036;stroke-width:1.25;"/><path d="M911.25,221.25 Q911.5039,220.625 911.7969,220.3125 Q912.0898,220 912.4219,220 Q913.0078,220 913.3789,220.3516 Q913.75,220.7031 913.75,221.5234 L913.75,223.4766 Q913.75,224.2969 913.3984,224.6484 Q913.0469,225 912.5,225 Q912.0117,225 911.6992,224.7852 Q911.3867,224.5703 911.25,224.0039 Q911.1914,223.6133 910.9766,223.3984 Q910.5859,222.9883 909.8828,222.7539 Q909.1797,222.5 908.4766,222.5 Q907.5977,222.5 906.8555,222.8516 Q906.1328,223.2031 905.5664,223.9844 Q905,224.7656 905,225.8398 L905,226.9922 Q905,228.2813 906.0547,229.1406 Q907.1094,230 908.9844,230 Q910.0977,230 910.8789,229.7461 Q911.3281,229.6094 911.8359,229.1602 Q912.168,228.9063 912.3438,228.8281 Q912.5195,228.75 912.7344,228.75 Q913.1445,228.75 913.4375,229.082 Q913.75,229.3945 913.75,229.8438 Q913.75,230.2734 913.3203,230.7813 Q912.6953,231.5234 911.6992,231.9336 Q910.3906,232.5 908.7891,232.5 Q906.9141,232.5 905.4102,231.7578 Q904.1992,231.1719 903.3398,229.9023 Q902.5,228.6328 902.5,227.1289 L902.5,225.7617 Q902.5,224.1992 903.2422,222.832 Q904.0039,221.4648 905.3125,220.7422 Q906.6406,220 908.125,220 Q909.0234,220 909.8047,220.3125 Q910.5859,220.625 911.25,221.25 Z " fill="#000000"/><text fill="#000000" font-family="sans-serif" font-size="15" lengthAdjust="spacing" textLength="52.5" x="926.25" y="231.7627">Scooter</text><line style="stroke:#A80036;stroke-width:1.875;" x1="891.25" x2="981.25" y1="245.625" y2="245.625"/><text fill="#000000" font-family="sans-serif" font-size="13.75" lengthAdjust="spacing" textLength="62.5" x="897.5" y="264.8987">-idScooter</text><!--MD5=[533e824b6b94274ee39bf5a43d7cce2a]
class EstadoEncomenda--><rect codeLine="29" fill="#FEFECE" filter="url(#fb1lrcvrgabge)" height="84.5898" id="EstadoEncomenda" style="stroke:#A80036;stroke-width:1.875;" width="172.5" x="850" y="34.375"/><ellipse cx="868.75" cy="54.375" fill="#ADD1B2" rx="13.75" ry="13.75" style="stroke:#A80036;stroke-width:1.25;"/><path d="M871.25,50 Q871.5039,49.375 871.7969,49.0625 Q872.0898,48.75 872.4219,48.75 Q873.0078,48.75 873.3789,49.1016 Q873.75,49.4531 873.75,50.2734 L873.75,52.2266 Q873.75,53.0469 873.3984,53.3984 Q873.0469,53.75 872.5,53.75 Q872.0117,53.75 871.6992,53.5352 Q871.3867,53.3203 871.25,52.7539 Q871.1914,52.3633 870.9766,52.1484 Q870.5859,51.7383 869.8828,51.5039 Q869.1797,51.25 868.4766,51.25 Q867.5977,51.25 866.8555,51.6016 Q866.1328,51.9531 865.5664,52.7344 Q865,53.5156 865,54.5898 L865,55.7422 Q865,57.0313 866.0547,57.8906 Q867.1094,58.75 868.9844,58.75 Q870.0977,58.75 870.8789,58.4961 Q871.3281,58.3594 871.8359,57.9102 Q872.168,57.6563 872.3438,57.5781 Q872.5195,57.5 872.7344,57.5 Q873.1445,57.5 873.4375,57.832 Q873.75,58.1445 873.75,58.5938 Q873.75,59.0234 873.3203,59.5313 Q872.6953,60.2734 871.6992,60.6836 Q870.3906,61.25 868.7891,61.25 Q866.9141,61.25 865.4102,60.5078 Q864.1992,59.9219 863.3398,58.6523 Q862.5,57.3828 862.5,55.8789 L862.5,54.5117 Q862.5,52.9492 863.2422,51.582 Q864.0039,50.2148 865.3125,49.4922 Q866.6406,48.75 868.125,48.75 Q869.0234,48.75 869.8047,49.0625 Q870.5859,49.375 871.25,50 Z " fill="#000000"/><text fill="#000000" font-family="sans-serif" font-size="15" lengthAdjust="spacing" textLength="132.5" x="886.25" y="60.5127">EstadoEncomenda</text><line style="stroke:#A80036;stroke-width:1.875;" x1="851.25" x2="1021.25" y1="74.375" y2="74.375"/><text fill="#000000" font-family="sans-serif" font-size="13.75" lengthAdjust="spacing" textLength="126.25" x="857.5" y="93.6487">-idEstadoEncomenda</text><text fill="#000000" font-family="sans-serif" font-size="13.75" lengthAdjust="spacing" textLength="75" x="857.5" y="110.9436">-designacao</text><!--MD5=[5dd1d6732c071e710b9290b531f2fa3b]
class Utilizador--><rect codeLine="34" fill="#FEFECE" filter="url(#fb1lrcvrgabge)" height="136.4746" id="Utilizador" style="stroke:#A80036;stroke-width:1.875;" width="167.5" x="278.75" y="266.25"/><ellipse cx="326.1875" cy="286.25" fill="#ADD1B2" rx="13.75" ry="13.75" style="stroke:#A80036;stroke-width:1.25;"/><path d="M328.6875,281.875 Q328.9414,281.25 329.2344,280.9375 Q329.5273,280.625 329.8594,280.625 Q330.4453,280.625 330.8164,280.9766 Q331.1875,281.3281 331.1875,282.1484 L331.1875,284.1016 Q331.1875,284.9219 330.8359,285.2734 Q330.4844,285.625 329.9375,285.625 Q329.4492,285.625 329.1367,285.4102 Q328.8242,285.1953 328.6875,284.6289 Q328.6289,284.2383 328.4141,284.0234 Q328.0234,283.6133 327.3203,283.3789 Q326.6172,283.125 325.9141,283.125 Q325.0352,283.125 324.293,283.4766 Q323.5703,283.8281 323.0039,284.6094 Q322.4375,285.3906 322.4375,286.4648 L322.4375,287.6172 Q322.4375,288.9063 323.4922,289.7656 Q324.5469,290.625 326.4219,290.625 Q327.5352,290.625 328.3164,290.3711 Q328.7656,290.2344 329.2734,289.7852 Q329.6055,289.5313 329.7813,289.4531 Q329.957,289.375 330.1719,289.375 Q330.582,289.375 330.875,289.707 Q331.1875,290.0195 331.1875,290.4688 Q331.1875,290.8984 330.7578,291.4063 Q330.1328,292.1484 329.1367,292.5586 Q327.8281,293.125 326.2266,293.125 Q324.3516,293.125 322.8477,292.3828 Q321.6367,291.7969 320.7773,290.5273 Q319.9375,289.2578 319.9375,287.7539 L319.9375,286.3867 Q319.9375,284.8242 320.6797,283.457 Q321.4414,282.0898 322.75,281.3672 Q324.0781,280.625 325.5625,280.625 Q326.4609,280.625 327.2422,280.9375 Q328.0234,281.25 328.6875,281.875 Z " fill="#000000"/><text fill="#000000" font-family="sans-serif" font-size="15" lengthAdjust="spacing" textLength="63.75" x="350.0625" y="292.3877">Utilizador</text><line style="stroke:#A80036;stroke-width:1.875;" x1="280" x2="445" y1="306.25" y2="306.25"/><text fill="#000000" font-family="sans-serif" font-size="13.75" lengthAdjust="spacing" textLength="23.75" x="286.25" y="325.5237">-NIF</text><text fill="#000000" font-family="sans-serif" font-size="13.75" lengthAdjust="spacing" textLength="37.5" x="286.25" y="342.8186">-nome</text><text fill="#000000" font-family="sans-serif" font-size="13.75" lengthAdjust="spacing" textLength="35" x="286.25" y="360.1135">-email</text><text fill="#000000" font-family="sans-serif" font-size="13.75" lengthAdjust="spacing" textLength="152.5" x="286.25" y="377.4084">-numeroSegurancaSocial</text><text fill="#000000" font-family="sans-serif" font-size="13.75" lengthAdjust="spacing" textLength="67.5" x="286.25" y="394.7034">-password</text><!--MD5=[8505c5852735283b5a8424161266bb9f]
class Veiculo--><rect codeLine="42" fill="#FEFECE" filter="url(#fb1lrcvrgabge)" height="188.3594" id="Veiculo" style="stroke:#A80036;stroke-width:1.875;" width="141.25" x="587.5" y="188.75"/><ellipse cx="629.3125" cy="208.75" fill="#ADD1B2" rx="13.75" ry="13.75" style="stroke:#A80036;stroke-width:1.25;"/><path d="M631.8125,204.375 Q632.0664,203.75 632.3594,203.4375 Q632.6523,203.125 632.9844,203.125 Q633.5703,203.125 633.9414,203.4766 Q634.3125,203.8281 634.3125,204.6484 L634.3125,206.6016 Q634.3125,207.4219 633.9609,207.7734 Q633.6094,208.125 633.0625,208.125 Q632.5742,208.125 632.2617,207.9102 Q631.9492,207.6953 631.8125,207.1289 Q631.7539,206.7383 631.5391,206.5234 Q631.1484,206.1133 630.4453,205.8789 Q629.7422,205.625 629.0391,205.625 Q628.1602,205.625 627.418,205.9766 Q626.6953,206.3281 626.1289,207.1094 Q625.5625,207.8906 625.5625,208.9648 L625.5625,210.1172 Q625.5625,211.4063 626.6172,212.2656 Q627.6719,213.125 629.5469,213.125 Q630.6602,213.125 631.4414,212.8711 Q631.8906,212.7344 632.3984,212.2852 Q632.7305,212.0313 632.9063,211.9531 Q633.082,211.875 633.2969,211.875 Q633.707,211.875 634,212.207 Q634.3125,212.5195 634.3125,212.9688 Q634.3125,213.3984 633.8828,213.9063 Q633.2578,214.6484 632.2617,215.0586 Q630.9531,215.625 629.3516,215.625 Q627.4766,215.625 625.9727,214.8828 Q624.7617,214.2969 623.9023,213.0273 Q623.0625,211.7578 623.0625,210.2539 L623.0625,208.8867 Q623.0625,207.3242 623.8047,205.957 Q624.5664,204.5898 625.875,203.8672 Q627.2031,203.125 628.6875,203.125 Q629.5859,203.125 630.3672,203.4375 Q631.1484,203.75 631.8125,204.375 Z " fill="#000000"/><text fill="#000000" font-family="sans-serif" font-size="15" lengthAdjust="spacing" textLength="50" x="651.9375" y="214.8877">Veiculo</text><line style="stroke:#A80036;stroke-width:1.875;" x1="588.75" x2="727.5" y1="228.75" y2="228.75"/><text fill="#000000" font-family="sans-serif" font-size="13.75" lengthAdjust="spacing" textLength="57.5" x="595" y="248.0237">-idveiculo</text><text fill="#000000" font-family="sans-serif" font-size="13.75" lengthAdjust="spacing" textLength="65" x="595" y="265.3186">-descricao</text><text fill="#000000" font-family="sans-serif" font-size="13.75" lengthAdjust="spacing" textLength="75" x="595" y="282.6135">-capacidade</text><text fill="#000000" font-family="sans-serif" font-size="13.75" lengthAdjust="spacing" textLength="126.25" x="595" y="299.9084">-percentagemBateria</text><text fill="#000000" font-family="sans-serif" font-size="13.75" lengthAdjust="spacing" textLength="80" x="595" y="317.2034">-pesoMaximo</text><text fill="#000000" font-family="sans-serif" font-size="13.75" lengthAdjust="spacing" textLength="80" x="595" y="334.4983">-pesoVeiculo</text><text fill="#000000" font-family="sans-serif" font-size="13.75" lengthAdjust="spacing" textLength="56.25" x="595" y="351.7932">-potencia</text><text fill="#000000" font-family="sans-serif" font-size="13.75" lengthAdjust="spacing" textLength="73.75" x="595" y="369.0881">-areaFrontal</text><!--MD5=[2e3f1e60e74253ff42e47f8bfdb04ee2]
class Drone--><rect codeLine="53" fill="#FEFECE" filter="url(#fb1lrcvrgabge)" height="84.5898" id="Drone" style="stroke:#A80036;stroke-width:1.875;" width="95" x="888.75" y="316.875"/><ellipse cx="913.125" cy="336.875" fill="#ADD1B2" rx="13.75" ry="13.75" style="stroke:#A80036;stroke-width:1.25;"/><path d="M915.625,332.5 Q915.8789,331.875 916.1719,331.5625 Q916.4648,331.25 916.7969,331.25 Q917.3828,331.25 917.7539,331.6016 Q918.125,331.9531 918.125,332.7734 L918.125,334.7266 Q918.125,335.5469 917.7734,335.8984 Q917.4219,336.25 916.875,336.25 Q916.3867,336.25 916.0742,336.0352 Q915.7617,335.8203 915.625,335.2539 Q915.5664,334.8633 915.3516,334.6484 Q914.9609,334.2383 914.2578,334.0039 Q913.5547,333.75 912.8516,333.75 Q911.9727,333.75 911.2305,334.1016 Q910.5078,334.4531 909.9414,335.2344 Q909.375,336.0156 909.375,337.0898 L909.375,338.2422 Q909.375,339.5313 910.4297,340.3906 Q911.4844,341.25 913.3594,341.25 Q914.4727,341.25 915.2539,340.9961 Q915.7031,340.8594 916.2109,340.4102 Q916.543,340.1563 916.7188,340.0781 Q916.8945,340 917.1094,340 Q917.5195,340 917.8125,340.332 Q918.125,340.6445 918.125,341.0938 Q918.125,341.5234 917.6953,342.0313 Q917.0703,342.7734 916.0742,343.1836 Q914.7656,343.75 913.1641,343.75 Q911.2891,343.75 909.7852,343.0078 Q908.5742,342.4219 907.7148,341.1523 Q906.875,339.8828 906.875,338.3789 L906.875,337.0117 Q906.875,335.4492 907.6172,334.082 Q908.3789,332.7148 909.6875,331.9922 Q911.0156,331.25 912.5,331.25 Q913.3984,331.25 914.1797,331.5625 Q914.9609,331.875 915.625,332.5 Z " fill="#000000"/><text fill="#000000" font-family="sans-serif" font-size="15" lengthAdjust="spacing" textLength="42.5" x="931.875" y="343.0127">Drone</text><line style="stroke:#A80036;stroke-width:1.875;" x1="890" x2="982.5" y1="356.875" y2="356.875"/><text fill="#000000" font-family="sans-serif" font-size="13.75" lengthAdjust="spacing" textLength="51.25" x="896.25" y="376.1487">-idDrone</text><text fill="#000000" font-family="sans-serif" font-size="13.75" lengthAdjust="spacing" textLength="80" x="896.25" y="393.4436">-hoverPower</text><!--MD5=[055d9a59c94791d1e5417ead9eff8d01]
link Encomenda to EstadoEncomenda--><path codeLine="58" d="M720.2,76.875 C758.25,76.875 807.825,76.875 849.7625,76.875 " fill="none" id="Encomenda-EstadoEncomenda" style="stroke:#A80036;stroke-width:1.25;"/><polygon fill="#000000" points="778.75,65.8447,767.4436,62.1711,767.4436,69.5184,778.75,65.8447" style="stroke:#000000;stroke-width:1.25;"/><text fill="#000000" font-family="sans-serif" font-size="16.25" lengthAdjust="spacing" textLength="27.5" x="783.75" y="72.4939">tem</text><text fill="#000000" font-family="sans-serif" font-size="16.25" lengthAdjust="spacing" textLength="8.75" x="729.9598" y="95.2284">1</text><text fill="#000000" font-family="sans-serif" font-size="16.25" lengthAdjust="spacing" textLength="8.75" x="831.0744" y="94.8841">1</text><!--MD5=[39609d66ce6d06d1779a14455c909f6f]
link Entrega to Encomenda--><path codeLine="59" d="M410.85,149.2625 C461.175,134.4625 541.1375,110.925 596.1625,94.7375 " fill="none" id="Entrega-Encomenda" style="stroke:#A80036;stroke-width:1.25;"/><polygon fill="#000000" points="495.9958,97.8306,484.1123,97.4977,486.1862,104.5462,495.9958,97.8306" style="stroke:#000000;stroke-width:1.25;"/><text fill="#000000" font-family="sans-serif" font-size="16.25" lengthAdjust="spacing" textLength="47.5" x="501.25" y="106.2439">possui</text><text fill="#000000" font-family="sans-serif" font-size="16.25" lengthAdjust="spacing" textLength="8.75" x="420.5712" y="165.4201">1</text><text fill="#000000" font-family="sans-serif" font-size="16.25" lengthAdjust="spacing" textLength="6.25" x="579.946" y="115.8893">*</text><!--MD5=[328dae9b2f192140d45e51cd90ecd75a]
link Estafeta to Entrega--><path codeLine="60" d="M109.075,276.1375 C165.7625,250.7375 258.3625,209.2375 314.1875,184.2125 " fill="none" id="Estafeta-Entrega" style="stroke:#A80036;stroke-width:1.25;"/><polygon fill="#000000" points="172.5784,205.7886,160.7584,207.0603,163.7633,213.765,172.5784,205.7886" style="stroke:#000000;stroke-width:1.25;"/><text fill="#000000" font-family="sans-serif" font-size="16.25" lengthAdjust="spacing" textLength="47.5" x="178.125" y="214.9939">realiza</text><text fill="#000000" font-family="sans-serif" font-size="16.25" lengthAdjust="spacing" textLength="8.75" x="118.8184" y="290.9285">1</text><text fill="#000000" font-family="sans-serif" font-size="16.25" lengthAdjust="spacing" textLength="6.25" x="298.1322" y="207.0084">*</text><!--MD5=[cd2aeefe8c457d184a69396a9f9cb06a]
link Entrega to Veiculo--><path codeLine="61" d="M410.85,182.4 C458.5875,201.95 532.9875,232.4125 587.475,254.7125 " fill="none" id="Entrega-Veiculo" style="stroke:#A80036;stroke-width:1.25;"/><polygon fill="#000000" points="484.216,199.7267,493.2875,207.4103,496.0713,200.6108,484.216,199.7267" style="stroke:#000000;stroke-width:1.25;"/><text fill="#000000" font-family="sans-serif" font-size="16.25" lengthAdjust="spacing" textLength="47.5" x="501.25" y="208.7439">realiza</text><text fill="#000000" font-family="sans-serif" font-size="16.25" lengthAdjust="spacing" textLength="6.25" x="420.6624" y="204.8504">*</text><text fill="#000000" font-family="sans-serif" font-size="16.25" lengthAdjust="spacing" textLength="8.75" x="568.6435" y="269.163">1</text><!--MD5=[aa5a8ec5fd097e3d415964f18fa48efb]
link Estafeta to Utilizador--><path codeLine="62" d="M109.075,304.025 C154.925,309.55 224.2625,317.8875 278.65,324.4375 " fill="none" id="Estafeta-Utilizador" style="stroke:#A80036;stroke-width:1.25;"/><polygon fill="#000000" points="158.7052,297.8417,147.9189,292.8431,147.0408,300.1378,158.7052,297.8417" style="stroke:#000000;stroke-width:1.25;"/><text fill="#000000" font-family="sans-serif" font-size="16.25" lengthAdjust="spacing" textLength="76.25" x="163.75" y="303.7439">atua como</text><text fill="#000000" font-family="sans-serif" font-size="16.25" lengthAdjust="spacing" textLength="8.75" x="118.8184" y="323.7835">1</text><text fill="#000000" font-family="sans-serif" font-size="16.25" lengthAdjust="spacing" textLength="8.75" x="260.2504" y="341.325">1</text><!--MD5=[460034a14c91c8062cdb3d6e7324968c]
link Veiculo to Drone--><path codeLine="63" d="M728.925,302.3625 C778.8375,316.175 844.7375,334.4 888.425,346.4875 " fill="none" id="Veiculo-Drone" style="stroke:#A80036;stroke-width:1.25;"/><polygon fill="#000000" points="775.8513,301.6783,785.7688,308.2336,787.7278,301.1522,775.8513,301.6783" style="stroke:#000000;stroke-width:1.25;"/><text fill="#000000" font-family="sans-serif" font-size="16.25" lengthAdjust="spacing" textLength="8.75" x="793.125" y="309.9939">é</text><text fill="#000000" font-family="sans-serif" font-size="16.25" lengthAdjust="spacing" textLength="8.75" x="738.5568" y="323.0306">1</text><text fill="#000000" font-family="sans-serif" font-size="16.25" lengthAdjust="spacing" textLength="8.75" x="870.0506" y="362.9023">1</text><!--MD5=[0fa340c3d135fb564aedca6a2c40d6f7]
link Veiculo to Scooter--><path codeLine="64" d="M728.925,272.0875 C779.325,264.0875 846.0125,253.5 889.675,246.575 " fill="none" id="Veiculo-Scooter" style="stroke:#A80036;stroke-width:1.25;"/><polygon fill="#000000" points="775.7023,249.3244,787.4447,251.1804,786.293,243.9239,775.7023,249.3244" style="stroke:#000000;stroke-width:1.25;"/><text fill="#000000" font-family="sans-serif" font-size="16.25" lengthAdjust="spacing" textLength="8.75" x="793.125" y="254.9939">é</text><text fill="#000000" font-family="sans-serif" font-size="16.25" lengthAdjust="spacing" textLength="8.75" x="738.5568" y="288.8766">1</text><text fill="#000000" font-family="sans-serif" font-size="16.25" lengthAdjust="spacing" textLength="8.75" x="871.2127" y="266.7841">1</text><!--MD5=[043783aea985ccee390cc69b7aac2ed3]
@startuml
skinparam classAttributeIconSize 0
hide methods
left to right direction

class Entrega {
  -idEntrega
  -dataInicio
  -dataFim
  -pesoEntrega
}

class Encomenda {
  -idEncomenda
  -dataPedida
  -preco
  -pesoEncomenda
  -taxa
}

class Estafeta {
  -pesoEstafeta
}


class Scooter {
  -idScooter
}

class EstadoEncomenda {
  -idEstadoEncomenda
  -designacao
}

class Utilizador {
  -NIF
  -nome
  -email
  -numeroSegurancaSocial
  -password
}

class Veiculo {
  -idveiculo
  -descricao
  -capacidade
  -percentagemBateria
  -pesoMaximo
  -pesoVeiculo
  -potencia
  -areaFrontal
}

class Drone {
  -idDrone
  -hoverPower
}

Encomenda "1" - - "1" EstadoEncomenda : tem >
Entrega "1" - - "*" Encomenda : possui >
Estafeta "1" - - "*" Entrega: realiza >
Entrega "*" - - "1" Veiculo: realiza <
Estafeta "1" - - "1" Utilizador: atua como >
Veiculo "1" - - "1" Drone: é <
Veiculo "1" - - "1" Scooter: é <

@enduml

PlantUML version 1.2021.00(Sun Jan 10 10:25:05 GMT 2021)
(GPL source distribution)
Java Runtime: OpenJDK Runtime Environment
JVM: OpenJDK 64-Bit Server VM
Default Encoding: Cp1252
Language: pt
Country: PT
--></g></svg>