<?xml version="1.0" encoding="UTF-8" standalone="no"?><svg xmlns="http://www.w3.org/2000/svg" xmlns:xlink="http://www.w3.org/1999/xlink" contentScriptType="application/ecmascript" contentStyleType="text/css" height="367px" preserveAspectRatio="none" style="width:450px;height:367px;" version="1.1" viewBox="0 0 450 367" width="450px" zoomAndPan="magnify"><defs><filter height="300%" id="fzvx58kdw81ge" width="300%" x="-1" y="-1"><feGaussianBlur result="blurOut" stdDeviation="2.0"/><feColorMatrix in="blurOut" result="blurOut2" type="matrix" values="0 0 0 0 0 0 0 0 0 0 0 0 0 0 0 0 0 0 .4 0"/><feOffset dx="4.0" dy="4.0" in="blurOut2" result="blurOut3"/><feBlend in="SourceGraphic" in2="blurOut3" mode="normal"/></filter></defs><g><rect fill="#FFFFFF" filter="url(#fzvx58kdw81ge)" height="166.7969" style="stroke:#A80036;stroke-width:1.0;" width="10" x="33.5" y="98.2969"/><rect fill="#FFFFFF" filter="url(#fzvx58kdw81ge)" height="29.1328" style="stroke:#A80036;stroke-width:1.0;" width="10" x="394.5" y="119.4297"/><rect fill="#FFFFFF" filter="url(#fzvx58kdw81ge)" height="29.1328" style="stroke:#A80036;stroke-width:1.0;" width="10" x="394.5" y="177.6953"/><rect fill="#FFFFFF" filter="url(#fzvx58kdw81ge)" height="29.1328" style="stroke:#A80036;stroke-width:1.0;" width="10" x="394.5" y="235.9609"/><line style="stroke:#A80036;stroke-width:1.0;stroke-dasharray:5.0,5.0;" x1="38" x2="38" y1="88.2969" y2="283.0938"/><line style="stroke:#A80036;stroke-width:1.0;stroke-dasharray:5.0,5.0;" x1="399" x2="399" y1="88.2969" y2="283.0938"/><text fill="#000000" font-family="sans-serif" font-size="14" lengthAdjust="spacing" textLength="61" x="5" y="84.9951">Estafeta</text><ellipse cx="38.5" cy="15" fill="#FEFECE" filter="url(#fzvx58kdw81ge)" rx="8" ry="8" style="stroke:#A80036;stroke-width:2.0;"/><path d="M38.5,23 L38.5,50 M25.5,31 L51.5,31 M38.5,50 L25.5,65 M38.5,50 L51.5,65 " fill="none" filter="url(#fzvx58kdw81ge)" style="stroke:#A80036;stroke-width:2.0;"/><text fill="#000000" font-family="sans-serif" font-size="14" lengthAdjust="spacing" textLength="61" x="5" y="295.0889">Estafeta</text><ellipse cx="38.5" cy="308.3906" fill="#FEFECE" filter="url(#fzvx58kdw81ge)" rx="8" ry="8" style="stroke:#A80036;stroke-width:2.0;"/><path d="M38.5,316.3906 L38.5,343.3906 M25.5,324.3906 L51.5,324.3906 M38.5,343.3906 L25.5,358.3906 M38.5,343.3906 L51.5,358.3906 " fill="none" filter="url(#fzvx58kdw81ge)" style="stroke:#A80036;stroke-width:2.0;"/><rect fill="#FEFECE" filter="url(#fzvx58kdw81ge)" height="30.2969" style="stroke:#A80036;stroke-width:1.5;" width="77" x="359" y="53"/><text fill="#000000" font-family="sans-serif" font-size="14" lengthAdjust="spacing" textLength="63" x="366" y="72.9951">:Sistema</text><rect fill="#FEFECE" filter="url(#fzvx58kdw81ge)" height="30.2969" style="stroke:#A80036;stroke-width:1.5;" width="77" x="359" y="282.0938"/><text fill="#000000" font-family="sans-serif" font-size="14" lengthAdjust="spacing" textLength="63" x="366" y="302.0889">:Sistema</text><rect fill="#FFFFFF" filter="url(#fzvx58kdw81ge)" height="166.7969" style="stroke:#A80036;stroke-width:1.0;" width="10" x="33.5" y="98.2969"/><rect fill="#FFFFFF" filter="url(#fzvx58kdw81ge)" height="29.1328" style="stroke:#A80036;stroke-width:1.0;" width="10" x="394.5" y="119.4297"/><rect fill="#FFFFFF" filter="url(#fzvx58kdw81ge)" height="29.1328" style="stroke:#A80036;stroke-width:1.0;" width="10" x="394.5" y="177.6953"/><rect fill="#FFFFFF" filter="url(#fzvx58kdw81ge)" height="29.1328" style="stroke:#A80036;stroke-width:1.0;" width="10" x="394.5" y="235.9609"/><polygon fill="#A80036" points="382.5,115.4297,392.5,119.4297,382.5,123.4297,386.5,119.4297" style="stroke:#A80036;stroke-width:1.0;"/><line style="stroke:#A80036;stroke-width:1.0;" x1="43.5" x2="388.5" y1="119.4297" y2="119.4297"/><text fill="#000000" font-family="sans-serif" font-size="13" font-weight="bold" lengthAdjust="spacing" textLength="9" x="50.5" y="114.3638">1</text><text fill="#000000" font-family="sans-serif" font-size="13" lengthAdjust="spacing" textLength="154" x="63.5" y="114.3638">inicia registo de entrega</text><polygon fill="#A80036" points="54.5,144.5625,44.5,148.5625,54.5,152.5625,50.5,148.5625" style="stroke:#A80036;stroke-width:1.0;"/><line style="stroke:#A80036;stroke-width:1.0;stroke-dasharray:2.0,2.0;" x1="48.5" x2="398.5" y1="148.5625" y2="148.5625"/><text fill="#000000" font-family="sans-serif" font-size="13" font-weight="bold" lengthAdjust="spacing" textLength="9" x="60.5" y="143.4966">2</text><text fill="#000000" font-family="sans-serif" font-size="13" lengthAdjust="spacing" textLength="314" x="73.5" y="143.4966">mostra lista de scooters e solicita o id da scooter</text><polygon fill="#A80036" points="382.5,173.6953,392.5,177.6953,382.5,181.6953,386.5,177.6953" style="stroke:#A80036;stroke-width:1.0;"/><line style="stroke:#A80036;stroke-width:1.0;" x1="43.5" x2="388.5" y1="177.6953" y2="177.6953"/><text fill="#000000" font-family="sans-serif" font-size="13" font-weight="bold" lengthAdjust="spacing" textLength="8" x="50.5" y="172.6294">3</text><text fill="#000000" font-family="sans-serif" font-size="13" lengthAdjust="spacing" textLength="185" x="62.5" y="172.6294">introduz os dados solicitados</text><polygon fill="#A80036" points="54.5,202.8281,44.5,206.8281,54.5,210.8281,50.5,206.8281" style="stroke:#A80036;stroke-width:1.0;"/><line style="stroke:#A80036;stroke-width:1.0;stroke-dasharray:2.0,2.0;" x1="48.5" x2="398.5" y1="206.8281" y2="206.8281"/><text fill="#000000" font-family="sans-serif" font-size="13" font-weight="bold" lengthAdjust="spacing" textLength="9" x="60.5" y="201.7622">4</text><text fill="#000000" font-family="sans-serif" font-size="13" lengthAdjust="spacing" textLength="252" x="73.5" y="201.7622">apresenta dados e solicita confirmação</text><polygon fill="#A80036" points="382.5,231.9609,392.5,235.9609,382.5,239.9609,386.5,235.9609" style="stroke:#A80036;stroke-width:1.0;"/><line style="stroke:#A80036;stroke-width:1.0;" x1="43.5" x2="388.5" y1="235.9609" y2="235.9609"/><text fill="#000000" font-family="sans-serif" font-size="13" font-weight="bold" lengthAdjust="spacing" textLength="9" x="50.5" y="230.895">5</text><text fill="#000000" font-family="sans-serif" font-size="13" lengthAdjust="spacing" textLength="119" x="63.5" y="230.895">confirma os dados</text><polygon fill="#A80036" points="49.5,261.0938,39.5,265.0938,49.5,269.0938,45.5,265.0938" style="stroke:#A80036;stroke-width:1.0;"/><line style="stroke:#A80036;stroke-width:1.0;stroke-dasharray:2.0,2.0;" x1="43.5" x2="398.5" y1="265.0938" y2="265.0938"/><text fill="#000000" font-family="sans-serif" font-size="13" font-weight="bold" lengthAdjust="spacing" textLength="9" x="55.5" y="260.0278">6</text><text fill="#000000" font-family="sans-serif" font-size="13" lengthAdjust="spacing" textLength="154" x="68.5" y="260.0278">operação bem sucedida</text><!--MD5=[995f88ac5fcacf960533a8e9b36265fb]
@startuml
autonumber
actor "Estafeta" as EST

activate EST
EST -> ":Sistema" : inicia registo de entrega
activate ":Sistema"
":Sistema" - -> EST : mostra lista de scooters e solicita o id da scooter
deactivate ":Sistema"

EST -> ":Sistema" : introduz os dados solicitados
activate ":Sistema"
":Sistema" - -> EST : apresenta dados e solicita confirmação
deactivate ":Sistema"

EST -> ":Sistema" : confirma os dados
activate ":Sistema"
":Sistema" - -> EST : operação bem sucedida
deactivate ":Sistema"

deactivate EST
@enduml

PlantUML version 1.2020.27beta8(Unknown compile time)
(GPL source distribution)
Java Runtime: Java(TM) SE Runtime Environment
JVM: Java HotSpot(TM) 64-Bit Server VM
Default Encoding: UTF-8
Language: en
Country: US
--></g></svg>