<?xml version="1.0" encoding="UTF-8" standalone="no"?><svg xmlns="http://www.w3.org/2000/svg" xmlns:xlink="http://www.w3.org/1999/xlink" contentScriptType="application/ecmascript" contentStyleType="text/css" height="376.32px" preserveAspectRatio="none" style="width:931px;height:376px;" version="1.1" viewBox="0 0 931 376" width="931.84px" zoomAndPan="magnify"><defs><filter height="300%" id="f2ea5bmyjsfwf" width="300%" x="-1" y="-1"><feGaussianBlur result="blurOut" stdDeviation="2.24"/><feColorMatrix in="blurOut" result="blurOut2" type="matrix" values="0 0 0 0 0 0 0 0 0 0 0 0 0 0 0 0 0 0 .4 0"/><feOffset dx="4.48" dy="4.48" in="blurOut2" result="blurOut3"/><feBlend in="SourceGraphic" in2="blurOut3" mode="normal"/></filter></defs><g><!--MD5=[3179f819b5ca0f9c8a1bd58e9144681b]
class Entrega--><rect codeLine="5" fill="#FEFECE" filter="url(#f2ea5bmyjsfwf)" height="106.785" id="Entrega" style="stroke:#A80036;stroke-width:1.6800000000000002;" width="86.24" x="281.68" y="92.96"/><ellipse cx="299.488" cy="110.88" fill="#ADD1B2" rx="12.32" ry="12.32" style="stroke:#A80036;stroke-width:1.12;"/><path d="M301.728,106.96 Q301.9555,106.4 302.218,106.12 Q302.4805,105.84 302.778,105.84 Q303.303,105.84 303.6355,106.155 Q303.968,106.47 303.968,107.205 L303.968,108.955 Q303.968,109.69 303.653,110.005 Q303.338,110.32 302.848,110.32 Q302.4105,110.32 302.1305,110.1275 Q301.8505,109.935 301.728,109.4275 Q301.6755,109.0775 301.483,108.885 Q301.133,108.5175 300.503,108.3075 Q299.873,108.08 299.243,108.08 Q298.4555,108.08 297.7905,108.395 Q297.143,108.71 296.6355,109.41 Q296.128,110.11 296.128,111.0725 L296.128,112.105 Q296.128,113.26 297.073,114.03 Q298.018,114.8 299.698,114.8 Q300.6955,114.8 301.3955,114.5725 Q301.798,114.45 302.253,114.0475 Q302.5505,113.82 302.708,113.75 Q302.8655,113.68 303.058,113.68 Q303.4255,113.68 303.688,113.9775 Q303.968,114.2575 303.968,114.66 Q303.968,115.045 303.583,115.5 Q303.023,116.165 302.1305,116.5325 Q300.958,117.04 299.523,117.04 Q297.843,117.04 296.4955,116.375 Q295.4105,115.85 294.6405,114.7125 Q293.888,113.575 293.888,112.2275 L293.888,111.0025 Q293.888,109.6025 294.553,108.3775 Q295.2355,107.1525 296.408,106.505 Q297.598,105.84 298.928,105.84 Q299.733,105.84 300.433,106.12 Q301.133,106.4 301.728,106.96 Z " fill="#000000"/><text fill="#000000" font-family="sans-serif" font-size="13.44" lengthAdjust="spacing" textLength="48.16" x="315.392" y="116.3794">Entrega</text><line style="stroke:#A80036;stroke-width:1.6800000000000002;" x1="282.8" x2="366.8" y1="128.8" y2="128.8"/><text fill="#000000" font-family="sans-serif" font-size="12.32" lengthAdjust="spacing" textLength="54.88" x="288.4" y="146.0692">-idEntrega</text><text fill="#000000" font-family="sans-serif" font-size="12.32" lengthAdjust="spacing" textLength="54.88" x="288.4" y="161.5655">-dataInicio</text><text fill="#000000" font-family="sans-serif" font-size="12.32" lengthAdjust="spacing" textLength="45.92" x="288.4" y="177.0617">-dataFim</text><text fill="#000000" font-family="sans-serif" font-size="12.32" lengthAdjust="spacing" textLength="72.8" x="288.4" y="192.558">-pesoEntrega</text><!--MD5=[c55f92ccbf0646788158d42f3399cc78]
class Encomenda--><rect codeLine="12" fill="#FEFECE" filter="url(#f2ea5bmyjsfwf)" height="122.2813" id="Encomenda" style="stroke:#A80036;stroke-width:1.6800000000000002;" width="110.88" x="534.24" y="7.84"/><ellipse cx="551.04" cy="25.76" fill="#ADD1B2" rx="12.32" ry="12.32" style="stroke:#A80036;stroke-width:1.12;"/><path d="M553.28,21.84 Q553.5075,21.28 553.77,21 Q554.0325,20.72 554.33,20.72 Q554.855,20.72 555.1875,21.035 Q555.52,21.35 555.52,22.085 L555.52,23.835 Q555.52,24.57 555.205,24.885 Q554.89,25.2 554.4,25.2 Q553.9625,25.2 553.6825,25.0075 Q553.4025,24.815 553.28,24.3075 Q553.2275,23.9575 553.035,23.765 Q552.685,23.3975 552.055,23.1875 Q551.425,22.96 550.795,22.96 Q550.0075,22.96 549.3425,23.275 Q548.695,23.59 548.1875,24.29 Q547.68,24.99 547.68,25.9525 L547.68,26.985 Q547.68,28.14 548.625,28.91 Q549.57,29.68 551.25,29.68 Q552.2475,29.68 552.9475,29.4525 Q553.35,29.33 553.805,28.9275 Q554.1025,28.7 554.26,28.63 Q554.4175,28.56 554.61,28.56 Q554.9775,28.56 555.24,28.8575 Q555.52,29.1375 555.52,29.54 Q555.52,29.925 555.135,30.38 Q554.575,31.045 553.6825,31.4125 Q552.51,31.92 551.075,31.92 Q549.395,31.92 548.0475,31.255 Q546.9625,30.73 546.1925,29.5925 Q545.44,28.455 545.44,27.1075 L545.44,25.8825 Q545.44,24.4825 546.105,23.2575 Q546.7875,22.0325 547.96,21.385 Q549.15,20.72 550.48,20.72 Q551.285,20.72 551.985,21 Q552.685,21.28 553.28,21.84 Z " fill="#000000"/><text fill="#000000" font-family="sans-serif" font-size="13.44" lengthAdjust="spacing" textLength="75.04" x="566.72" y="31.2594">Encomenda</text><line style="stroke:#A80036;stroke-width:1.6800000000000002;" x1="535.36" x2="644" y1="43.68" y2="43.68"/><text fill="#000000" font-family="sans-serif" font-size="12.32" lengthAdjust="spacing" textLength="76.16" x="540.96" y="60.9492">-idEncomenda</text><text fill="#000000" font-family="sans-serif" font-size="12.32" lengthAdjust="spacing" textLength="63.84" x="540.96" y="76.4455">-dataPedida</text><text fill="#000000" font-family="sans-serif" font-size="12.32" lengthAdjust="spacing" textLength="35.84" x="540.96" y="91.9417">-preco</text><text fill="#000000" font-family="sans-serif" font-size="12.32" lengthAdjust="spacing" textLength="94.08" x="540.96" y="107.438">-pesoEncomenda</text><text fill="#000000" font-family="sans-serif" font-size="12.32" lengthAdjust="spacing" textLength="28" x="540.96" y="122.9342">-taxa</text><!--MD5=[3f1202280bfe3359d2f91fb9b6e32986]
class Estafeta--><rect codeLine="20" fill="#FEFECE" filter="url(#f2ea5bmyjsfwf)" height="60.2963" id="Estafeta" style="stroke:#A80036;stroke-width:1.6800000000000002;" width="89.6" x="7.84" y="236.88"/><ellipse cx="26.152" cy="254.8" fill="#ADD1B2" rx="12.32" ry="12.32" style="stroke:#A80036;stroke-width:1.12;"/><path d="M28.392,250.88 Q28.6195,250.32 28.882,250.04 Q29.1445,249.76 29.442,249.76 Q29.967,249.76 30.2995,250.075 Q30.632,250.39 30.632,251.125 L30.632,252.875 Q30.632,253.61 30.317,253.925 Q30.002,254.24 29.512,254.24 Q29.0745,254.24 28.7945,254.0475 Q28.5145,253.855 28.392,253.3475 Q28.3395,252.9975 28.147,252.805 Q27.797,252.4375 27.167,252.2275 Q26.537,252 25.907,252 Q25.1195,252 24.4545,252.315 Q23.807,252.63 23.2995,253.33 Q22.792,254.03 22.792,254.9925 L22.792,256.025 Q22.792,257.18 23.737,257.95 Q24.682,258.72 26.362,258.72 Q27.3595,258.72 28.0595,258.4925 Q28.462,258.37 28.917,257.9675 Q29.2145,257.74 29.372,257.67 Q29.5295,257.6 29.722,257.6 Q30.0895,257.6 30.352,257.8975 Q30.632,258.1775 30.632,258.58 Q30.632,258.965 30.247,259.42 Q29.687,260.085 28.7945,260.4525 Q27.622,260.96 26.187,260.96 Q24.507,260.96 23.1595,260.295 Q22.0745,259.77 21.3045,258.6325 Q20.552,257.495 20.552,256.1475 L20.552,254.9225 Q20.552,253.5225 21.217,252.2975 Q21.8995,251.0725 23.072,250.425 Q24.262,249.76 25.592,249.76 Q26.397,249.76 27.097,250.04 Q27.797,250.32 28.392,250.88 Z " fill="#000000"/><text fill="#000000" font-family="sans-serif" font-size="13.44" lengthAdjust="spacing" textLength="50.4" x="42.168" y="260.2994">Estafeta</text><line style="stroke:#A80036;stroke-width:1.6800000000000002;" x1="8.96" x2="96.32" y1="272.72" y2="272.72"/><text fill="#000000" font-family="sans-serif" font-size="12.32" lengthAdjust="spacing" textLength="76.16" x="14.56" y="289.9892">-pesoEstafeta</text><!--MD5=[f4402668d5d5bb8485350c0fdb60ac8e]
class Scooter--><rect codeLine="25" fill="#FEFECE" filter="url(#f2ea5bmyjsfwf)" height="60.2963" id="Scooter" style="stroke:#A80036;stroke-width:1.6800000000000002;" width="82.88" x="797.44" y="184.24"/><ellipse cx="814.24" cy="202.16" fill="#ADD1B2" rx="12.32" ry="12.32" style="stroke:#A80036;stroke-width:1.12;"/><path d="M816.48,198.24 Q816.7075,197.68 816.97,197.4 Q817.2325,197.12 817.53,197.12 Q818.055,197.12 818.3875,197.435 Q818.72,197.75 818.72,198.485 L818.72,200.235 Q818.72,200.97 818.405,201.285 Q818.09,201.6 817.6,201.6 Q817.1625,201.6 816.8825,201.4075 Q816.6025,201.215 816.48,200.7075 Q816.4275,200.3575 816.235,200.165 Q815.885,199.7975 815.255,199.5875 Q814.625,199.36 813.995,199.36 Q813.2075,199.36 812.5425,199.675 Q811.895,199.99 811.3875,200.69 Q810.88,201.39 810.88,202.3525 L810.88,203.385 Q810.88,204.54 811.825,205.31 Q812.77,206.08 814.45,206.08 Q815.4475,206.08 816.1475,205.8525 Q816.55,205.73 817.005,205.3275 Q817.3025,205.1 817.46,205.03 Q817.6175,204.96 817.81,204.96 Q818.1775,204.96 818.44,205.2575 Q818.72,205.5375 818.72,205.94 Q818.72,206.325 818.335,206.78 Q817.775,207.445 816.8825,207.8125 Q815.71,208.32 814.275,208.32 Q812.595,208.32 811.2475,207.655 Q810.1625,207.13 809.3925,205.9925 Q808.64,204.855 808.64,203.5075 L808.64,202.2825 Q808.64,200.8825 809.305,199.6575 Q809.9875,198.4325 811.16,197.785 Q812.35,197.12 813.68,197.12 Q814.485,197.12 815.185,197.4 Q815.885,197.68 816.48,198.24 Z " fill="#000000"/><text fill="#000000" font-family="sans-serif" font-size="13.44" lengthAdjust="spacing" textLength="47.04" x="829.92" y="207.6594">Scooter</text><line style="stroke:#A80036;stroke-width:1.6800000000000002;" x1="798.56" x2="879.2" y1="220.08" y2="220.08"/><text fill="#000000" font-family="sans-serif" font-size="12.32" lengthAdjust="spacing" textLength="56" x="804.16" y="237.3492">-idScooter</text><!--MD5=[533e824b6b94274ee39bf5a43d7cce2a]
class EstadoEncomenda--><rect codeLine="29" fill="#FEFECE" filter="url(#f2ea5bmyjsfwf)" height="75.7925" id="EstadoEncomenda" style="stroke:#A80036;stroke-width:1.6800000000000002;" width="154.56" x="761.6" y="30.8"/><ellipse cx="778.4" cy="48.72" fill="#ADD1B2" rx="12.32" ry="12.32" style="stroke:#A80036;stroke-width:1.12;"/><path d="M780.64,44.8 Q780.8675,44.24 781.13,43.96 Q781.3925,43.68 781.69,43.68 Q782.215,43.68 782.5475,43.995 Q782.88,44.31 782.88,45.045 L782.88,46.795 Q782.88,47.53 782.565,47.845 Q782.25,48.16 781.76,48.16 Q781.3225,48.16 781.0425,47.9675 Q780.7625,47.775 780.64,47.2675 Q780.5875,46.9175 780.395,46.725 Q780.045,46.3575 779.415,46.1475 Q778.785,45.92 778.155,45.92 Q777.3675,45.92 776.7025,46.235 Q776.055,46.55 775.5475,47.25 Q775.04,47.95 775.04,48.9125 L775.04,49.945 Q775.04,51.1 775.985,51.87 Q776.93,52.64 778.61,52.64 Q779.6075,52.64 780.3075,52.4125 Q780.71,52.29 781.165,51.8875 Q781.4625,51.66 781.62,51.59 Q781.7775,51.52 781.97,51.52 Q782.3375,51.52 782.6,51.8175 Q782.88,52.0975 782.88,52.5 Q782.88,52.885 782.495,53.34 Q781.935,54.005 781.0425,54.3725 Q779.87,54.88 778.435,54.88 Q776.755,54.88 775.4075,54.215 Q774.3225,53.69 773.5525,52.5525 Q772.8,51.415 772.8,50.0675 L772.8,48.8425 Q772.8,47.4425 773.465,46.2175 Q774.1475,44.9925 775.32,44.345 Q776.51,43.68 777.84,43.68 Q778.645,43.68 779.345,43.96 Q780.045,44.24 780.64,44.8 Z " fill="#000000"/><text fill="#000000" font-family="sans-serif" font-size="13.44" lengthAdjust="spacing" textLength="118.72" x="794.08" y="54.2194">EstadoEncomenda</text><line style="stroke:#A80036;stroke-width:1.6800000000000002;" x1="762.72" x2="915.04" y1="66.64" y2="66.64"/><text fill="#000000" font-family="sans-serif" font-size="12.32" lengthAdjust="spacing" textLength="113.12" x="768.32" y="83.9092">-idEstadoEncomenda</text><text fill="#000000" font-family="sans-serif" font-size="12.32" lengthAdjust="spacing" textLength="67.2" x="768.32" y="99.4055">-designacao</text><!--MD5=[5dd1d6732c071e710b9290b531f2fa3b]
class Utilizador--><rect codeLine="34" fill="#FEFECE" filter="url(#f2ea5bmyjsfwf)" height="122.2813" id="Utilizador" style="stroke:#A80036;stroke-width:1.6800000000000002;" width="150.08" x="249.76" y="238.56"/><ellipse cx="292.264" cy="256.48" fill="#ADD1B2" rx="12.32" ry="12.32" style="stroke:#A80036;stroke-width:1.12;"/><path d="M294.504,252.56 Q294.7315,252 294.994,251.72 Q295.2565,251.44 295.554,251.44 Q296.079,251.44 296.4115,251.755 Q296.744,252.07 296.744,252.805 L296.744,254.555 Q296.744,255.29 296.429,255.605 Q296.114,255.92 295.624,255.92 Q295.1865,255.92 294.9065,255.7275 Q294.6265,255.535 294.504,255.0275 Q294.4515,254.6775 294.259,254.485 Q293.909,254.1175 293.279,253.9075 Q292.649,253.68 292.019,253.68 Q291.2315,253.68 290.5665,253.995 Q289.919,254.31 289.4115,255.01 Q288.904,255.71 288.904,256.6725 L288.904,257.705 Q288.904,258.86 289.849,259.63 Q290.794,260.4 292.474,260.4 Q293.4715,260.4 294.1715,260.1725 Q294.574,260.05 295.029,259.6475 Q295.3265,259.42 295.484,259.35 Q295.6415,259.28 295.834,259.28 Q296.2015,259.28 296.464,259.5775 Q296.744,259.8575 296.744,260.26 Q296.744,260.645 296.359,261.1 Q295.799,261.765 294.9065,262.1325 Q293.734,262.64 292.299,262.64 Q290.619,262.64 289.2715,261.975 Q288.1865,261.45 287.4165,260.3125 Q286.664,259.175 286.664,257.8275 L286.664,256.6025 Q286.664,255.2025 287.329,253.9775 Q288.0115,252.7525 289.184,252.105 Q290.374,251.44 291.704,251.44 Q292.509,251.44 293.209,251.72 Q293.909,252 294.504,252.56 Z " fill="#000000"/><text fill="#000000" font-family="sans-serif" font-size="13.44" lengthAdjust="spacing" textLength="57.12" x="313.656" y="261.9794">Utilizador</text><line style="stroke:#A80036;stroke-width:1.6800000000000002;" x1="250.88" x2="398.72" y1="274.4" y2="274.4"/><text fill="#000000" font-family="sans-serif" font-size="12.32" lengthAdjust="spacing" textLength="21.28" x="256.48" y="291.6692">-NIF</text><text fill="#000000" font-family="sans-serif" font-size="12.32" lengthAdjust="spacing" textLength="33.6" x="256.48" y="307.1655">-nome</text><text fill="#000000" font-family="sans-serif" font-size="12.32" lengthAdjust="spacing" textLength="31.36" x="256.48" y="322.6617">-email</text><text fill="#000000" font-family="sans-serif" font-size="12.32" lengthAdjust="spacing" textLength="136.64" x="256.48" y="338.158">-numeroSegurancaSocial</text><text fill="#000000" font-family="sans-serif" font-size="12.32" lengthAdjust="spacing" textLength="60.48" x="256.48" y="353.6542">-password</text><!--MD5=[8505c5852735283b5a8424161266bb9f]
class Veiculo--><rect codeLine="42" fill="#FEFECE" filter="url(#f2ea5bmyjsfwf)" height="168.77" id="Veiculo" style="stroke:#A80036;stroke-width:1.6800000000000002;" width="126.56" x="526.4" y="169.12"/><ellipse cx="563.864" cy="187.04" fill="#ADD1B2" rx="12.32" ry="12.32" style="stroke:#A80036;stroke-width:1.12;"/><path d="M566.104,183.12 Q566.3315,182.56 566.594,182.28 Q566.8565,182 567.154,182 Q567.679,182 568.0115,182.315 Q568.344,182.63 568.344,183.365 L568.344,185.115 Q568.344,185.85 568.029,186.165 Q567.714,186.48 567.224,186.48 Q566.7865,186.48 566.5065,186.2875 Q566.2265,186.095 566.104,185.5875 Q566.0515,185.2375 565.859,185.045 Q565.509,184.6775 564.879,184.4675 Q564.249,184.24 563.619,184.24 Q562.8315,184.24 562.1665,184.555 Q561.519,184.87 561.0115,185.57 Q560.504,186.27 560.504,187.2325 L560.504,188.265 Q560.504,189.42 561.449,190.19 Q562.394,190.96 564.074,190.96 Q565.0715,190.96 565.7715,190.7325 Q566.174,190.61 566.629,190.2075 Q566.9265,189.98 567.084,189.91 Q567.2415,189.84 567.434,189.84 Q567.8015,189.84 568.064,190.1375 Q568.344,190.4175 568.344,190.82 Q568.344,191.205 567.959,191.66 Q567.399,192.325 566.5065,192.6925 Q565.334,193.2 563.899,193.2 Q562.219,193.2 560.8715,192.535 Q559.7865,192.01 559.0165,190.8725 Q558.264,189.735 558.264,188.3875 L558.264,187.1625 Q558.264,185.7625 558.929,184.5375 Q559.6115,183.3125 560.784,182.665 Q561.974,182 563.304,182 Q564.109,182 564.809,182.28 Q565.509,182.56 566.104,183.12 Z " fill="#000000"/><text fill="#000000" font-family="sans-serif" font-size="13.44" lengthAdjust="spacing" textLength="44.8" x="584.136" y="192.5394">Veiculo</text><line style="stroke:#A80036;stroke-width:1.6800000000000002;" x1="527.52" x2="651.84" y1="204.96" y2="204.96"/><text fill="#000000" font-family="sans-serif" font-size="12.32" lengthAdjust="spacing" textLength="51.52" x="533.12" y="222.2292">-idveiculo</text><text fill="#000000" font-family="sans-serif" font-size="12.32" lengthAdjust="spacing" textLength="58.24" x="533.12" y="237.7255">-descricao</text><text fill="#000000" font-family="sans-serif" font-size="12.32" lengthAdjust="spacing" textLength="67.2" x="533.12" y="253.2217">-capacidade</text><text fill="#000000" font-family="sans-serif" font-size="12.32" lengthAdjust="spacing" textLength="113.12" x="533.12" y="268.718">-percentagemBateria</text><text fill="#000000" font-family="sans-serif" font-size="12.32" lengthAdjust="spacing" textLength="71.68" x="533.12" y="284.2142">-pesoMaximo</text><text fill="#000000" font-family="sans-serif" font-size="12.32" lengthAdjust="spacing" textLength="71.68" x="533.12" y="299.7105">-pesoVeiculo</text><text fill="#000000" font-family="sans-serif" font-size="12.32" lengthAdjust="spacing" textLength="50.4" x="533.12" y="315.2067">-potencia</text><text fill="#000000" font-family="sans-serif" font-size="12.32" lengthAdjust="spacing" textLength="66.08" x="533.12" y="330.703">-areaFrontal</text><!--MD5=[2e3f1e60e74253ff42e47f8bfdb04ee2]
class Drone--><rect codeLine="53" fill="#FEFECE" filter="url(#f2ea5bmyjsfwf)" height="75.7925" id="Drone" style="stroke:#A80036;stroke-width:1.6800000000000002;" width="73.92" x="801.92" y="283.92"/><ellipse cx="818.72" cy="301.84" fill="#ADD1B2" rx="12.32" ry="12.32" style="stroke:#A80036;stroke-width:1.12;"/><path d="M820.96,297.92 Q821.1875,297.36 821.45,297.08 Q821.7125,296.8 822.01,296.8 Q822.535,296.8 822.8675,297.115 Q823.2,297.43 823.2,298.165 L823.2,299.915 Q823.2,300.65 822.885,300.965 Q822.57,301.28 822.08,301.28 Q821.6425,301.28 821.3625,301.0875 Q821.0825,300.895 820.96,300.3875 Q820.9075,300.0375 820.715,299.845 Q820.365,299.4775 819.735,299.2675 Q819.105,299.04 818.475,299.04 Q817.6875,299.04 817.0225,299.355 Q816.375,299.67 815.8675,300.37 Q815.36,301.07 815.36,302.0325 L815.36,303.065 Q815.36,304.22 816.305,304.99 Q817.25,305.76 818.93,305.76 Q819.9275,305.76 820.6275,305.5325 Q821.03,305.41 821.485,305.0075 Q821.7825,304.78 821.94,304.71 Q822.0975,304.64 822.29,304.64 Q822.6575,304.64 822.92,304.9375 Q823.2,305.2175 823.2,305.62 Q823.2,306.005 822.815,306.46 Q822.255,307.125 821.3625,307.4925 Q820.19,308 818.755,308 Q817.075,308 815.7275,307.335 Q814.6425,306.81 813.8725,305.6725 Q813.12,304.535 813.12,303.1875 L813.12,301.9625 Q813.12,300.5625 813.785,299.3375 Q814.4675,298.1125 815.64,297.465 Q816.83,296.8 818.16,296.8 Q818.965,296.8 819.665,297.08 Q820.365,297.36 820.96,297.92 Z " fill="#000000"/><text fill="#000000" font-family="sans-serif" font-size="13.44" lengthAdjust="spacing" textLength="38.08" x="834.4" y="307.3394">Drone</text><line style="stroke:#A80036;stroke-width:1.6800000000000002;" x1="803.04" x2="874.72" y1="319.76" y2="319.76"/><text fill="#000000" font-family="sans-serif" font-size="12.32" lengthAdjust="spacing" textLength="45.92" x="808.64" y="337.0292">-idDrone</text><text fill="#000000" font-family="sans-serif" font-size="12.32" lengthAdjust="spacing" textLength="42.56" x="808.64" y="352.5255">-largura</text><!--MD5=[055d9a59c94791d1e5417ead9eff8d01]
link Encomenda to EstadoEncomenda--><path codeLine="58" d="M645.2992,68.88 C679.392,68.88 723.8112,68.88 761.3872,68.88 " fill="none" id="Encomenda-EstadoEncomenda" style="stroke:#A80036;stroke-width:1.12;"/><polygon fill="#000000" points="697.76,58.9969,687.6295,55.7053,687.6295,62.2885,697.76,58.9969" style="stroke:#000000;stroke-width:1.12;"/><text fill="#000000" font-family="sans-serif" font-size="14.56" lengthAdjust="spacing" textLength="24.64" x="702.24" y="64.9545">tem</text><text fill="#000000" font-family="sans-serif" font-size="14.56" lengthAdjust="spacing" textLength="7.84" x="654.044" y="85.3247">1</text><text fill="#000000" font-family="sans-serif" font-size="14.56" lengthAdjust="spacing" textLength="7.84" x="744.6427" y="85.0162">1</text><!--MD5=[39609d66ce6d06d1779a14455c909f6f]
link Entrega to Encomenda--><path codeLine="59" d="M368.1216,133.7392 C413.2128,120.4784 484.8592,99.3888 534.1616,84.8848 " fill="none" id="Entrega-Encomenda" style="stroke:#A80036;stroke-width:1.12;"/><polygon fill="#000000" points="444.4123,87.6562,433.7646,87.3579,435.6228,93.6734,444.4123,87.6562" style="stroke:#000000;stroke-width:1.12;"/><text fill="#000000" font-family="sans-serif" font-size="14.56" lengthAdjust="spacing" textLength="42.56" x="449.12" y="95.1945">possui</text><text fill="#000000" font-family="sans-serif" font-size="14.56" lengthAdjust="spacing" textLength="7.84" x="376.8318" y="148.2165">1</text><text fill="#000000" font-family="sans-serif" font-size="14.56" lengthAdjust="spacing" textLength="5.6" x="519.6316" y="103.8368">*</text><!--MD5=[328dae9b2f192140d45e51cd90ecd75a]
link Estafeta to Entrega--><path codeLine="60" d="M97.7312,247.4192 C148.5232,224.6608 231.4928,187.4768 281.512,165.0544 " fill="none" id="Estafeta-Entrega" style="stroke:#A80036;stroke-width:1.12;"/><polygon fill="#000000" points="154.6303,184.3866,144.0395,185.526,146.7319,191.5335,154.6303,184.3866" style="stroke:#000000;stroke-width:1.12;"/><text fill="#000000" font-family="sans-serif" font-size="14.56" lengthAdjust="spacing" textLength="42.56" x="159.6" y="192.6345">realiza</text><text fill="#000000" font-family="sans-serif" font-size="14.56" lengthAdjust="spacing" textLength="7.84" x="106.4613" y="260.672">1</text><text fill="#000000" font-family="sans-serif" font-size="14.56" lengthAdjust="spacing" textLength="5.6" x="267.1265" y="185.4795">*</text><!--MD5=[cd2aeefe8c457d184a69396a9f9cb06a]
link Entrega to Veiculo--><path codeLine="61" d="M368.1216,163.4304 C410.8944,180.9472 477.5568,208.2416 526.3776,228.2224 " fill="none" id="Entrega-Veiculo" style="stroke:#A80036;stroke-width:1.12;"/><polygon fill="#000000" points="433.8575,178.9551,441.9856,185.8396,444.4799,179.7472,433.8575,178.9551" style="stroke:#000000;stroke-width:1.12;"/><text fill="#000000" font-family="sans-serif" font-size="14.56" lengthAdjust="spacing" textLength="42.56" x="449.12" y="187.0345">realiza</text><text fill="#000000" font-family="sans-serif" font-size="14.56" lengthAdjust="spacing" textLength="5.6" x="376.9135" y="183.5459">*</text><text fill="#000000" font-family="sans-serif" font-size="14.56" lengthAdjust="spacing" textLength="7.84" x="509.5046" y="241.17">1</text><!--MD5=[aa5a8ec5fd097e3d415964f18fa48efb]
link Estafeta to Utilizador--><path codeLine="62" d="M97.7312,272.4064 C138.8128,277.3568 200.9392,284.8272 249.6704,290.696 " fill="none" id="Estafeta-Utilizador" style="stroke:#A80036;stroke-width:1.12;"/><polygon fill="#000000" points="142.1999,266.8661,132.5354,262.3874,131.7486,268.9234,142.1999,266.8661" style="stroke:#000000;stroke-width:1.12;"/><text fill="#000000" font-family="sans-serif" font-size="14.56" lengthAdjust="spacing" textLength="68.32" x="146.72" y="272.1545">atua como</text><text fill="#000000" font-family="sans-serif" font-size="14.56" lengthAdjust="spacing" textLength="7.84" x="106.4613" y="290.11">1</text><text fill="#000000" font-family="sans-serif" font-size="14.56" lengthAdjust="spacing" textLength="7.84" x="233.1844" y="305.8272">1</text><!--MD5=[460034a14c91c8062cdb3d6e7324968c]
link Veiculo to Drone--><path codeLine="63" d="M653.1168,270.9168 C700.1344,283.92 762.9664,301.3136 801.8752,312.0768 " fill="none" id="Veiculo-Drone" style="stroke:#A80036;stroke-width:1.12;"/><polygon fill="#000000" points="695.1628,270.3035,704.0487,276.1774,705.8042,269.8326,695.1628,270.3035" style="stroke:#000000;stroke-width:1.12;"/><text fill="#000000" font-family="sans-serif" font-size="14.56" lengthAdjust="spacing" textLength="7.84" x="710.64" y="277.7545">é</text><text fill="#000000" font-family="sans-serif" font-size="14.56" lengthAdjust="spacing" textLength="7.84" x="661.7469" y="289.4354">1</text><text fill="#000000" font-family="sans-serif" font-size="14.56" lengthAdjust="spacing" textLength="7.84" x="785.0829" y="327.0639">1</text><!--MD5=[0fa340c3d135fb564aedca6a2c40d6f7]
link Veiculo to Scooter--><path codeLine="64" d="M653.1168,243.7904 C698.2752,236.6224 758.0272,227.136 797.1488,220.9312 " fill="none" id="Veiculo-Scooter" style="stroke:#A80036;stroke-width:1.12;"/><polygon fill="#000000" points="695.0292,223.3947,705.5504,225.0576,704.5185,218.5558,695.0292,223.3947" style="stroke:#000000;stroke-width:1.12;"/><text fill="#000000" font-family="sans-serif" font-size="14.56" lengthAdjust="spacing" textLength="7.84" x="710.64" y="228.4745">é</text><text fill="#000000" font-family="sans-serif" font-size="14.56" lengthAdjust="spacing" textLength="7.84" x="661.7469" y="258.8335">1</text><text fill="#000000" font-family="sans-serif" font-size="14.56" lengthAdjust="spacing" textLength="7.84" x="780.6065" y="239.0385">1</text><!--MD5=[27a522569dd2ec80eac83ee91afc6c37]
@startuml
skinparam classAttributeIconSize 0
hide methods
left to right direction

class Entrega {
  -idEntrega
  -dataInicio
  -dataFim
  -pesoEntrega
}

class Encomenda {
  -idEncomenda
  -dataPedida
  -preco
  -pesoEncomenda
  -taxa
}

class Estafeta {
  -pesoEstafeta
}


class Scooter {
  -idScooter
}

class EstadoEncomenda {
  -idEstadoEncomenda
  -designacao
}

class Utilizador {
  -NIF
  -nome
  -email
  -numeroSegurancaSocial
  -password
}

class Veiculo {
  -idveiculo
  -descricao
  -capacidade
  -percentagemBateria
  -pesoMaximo
  -pesoVeiculo
  -potencia
  -areaFrontal
}

class Drone {
  -idDrone
  -largura
}

Encomenda "1" - - "1" EstadoEncomenda : tem >
Entrega "1" - - "*" Encomenda : possui >
Estafeta "1" - - "*" Entrega: realiza >
Entrega "*" - - "1" Veiculo: realiza <
Estafeta "1" - - "1" Utilizador: atua como >
Veiculo "1" - - "1" Drone: é <
Veiculo "1" - - "1" Scooter: é <

@enduml

PlantUML version 1.2021.00(Sun Jan 10 10:25:05 GMT 2021)
(GPL source distribution)
Java Runtime: OpenJDK Runtime Environment
JVM: OpenJDK 64-Bit Server VM
Default Encoding: Cp1252
Language: pt
Country: PT
--></g></svg>