<?xml version="1.0" encoding="UTF-8" standalone="no"?><svg xmlns="http://www.w3.org/2000/svg" xmlns:xlink="http://www.w3.org/1999/xlink" contentScriptType="application/ecmascript" contentStyleType="text/css" height="309px" preserveAspectRatio="none" style="width:388px;height:309px;" version="1.1" viewBox="0 0 388 309" width="388px" zoomAndPan="magnify"><defs><filter height="300%" id="f1srfu3drdh41h" width="300%" x="-1" y="-1"><feGaussianBlur result="blurOut" stdDeviation="2.0"/><feColorMatrix in="blurOut" result="blurOut2" type="matrix" values="0 0 0 0 0 0 0 0 0 0 0 0 0 0 0 0 0 0 .4 0"/><feOffset dx="4.0" dy="4.0" in="blurOut2" result="blurOut3"/><feBlend in="SourceGraphic" in2="blurOut3" mode="normal"/></filter></defs><g><rect fill="#FFFFFF" filter="url(#f1srfu3drdh41h)" height="108.5313" style="stroke:#A80036;stroke-width:1.0;" width="10" x="54" y="98.2969"/><rect fill="#FFFFFF" filter="url(#f1srfu3drdh41h)" height="87.3984" style="stroke:#A80036;stroke-width:1.0;" width="10" x="333" y="119.4297"/><line style="stroke:#A80036;stroke-width:1.0;stroke-dasharray:5.0,5.0;" x1="59" x2="59" y1="88.2969" y2="224.8281"/><line style="stroke:#A80036;stroke-width:1.0;stroke-dasharray:5.0,5.0;" x1="337.5" x2="337.5" y1="88.2969" y2="224.8281"/><text fill="#000000" font-family="sans-serif" font-size="14" lengthAdjust="spacing" textLength="102" x="5" y="84.9951">Administrador</text><ellipse cx="59" cy="15" fill="#FEFECE" filter="url(#f1srfu3drdh41h)" rx="8" ry="8" style="stroke:#A80036;stroke-width:2.0;"/><path d="M59,23 L59,50 M46,31 L72,31 M59,50 L46,65 M59,50 L72,65 " fill="none" filter="url(#f1srfu3drdh41h)" style="stroke:#A80036;stroke-width:2.0;"/><text fill="#000000" font-family="sans-serif" font-size="14" lengthAdjust="spacing" textLength="102" x="5" y="236.8232">Administrador</text><ellipse cx="59" cy="250.125" fill="#FEFECE" filter="url(#f1srfu3drdh41h)" rx="8" ry="8" style="stroke:#A80036;stroke-width:2.0;"/><path d="M59,258.125 L59,285.125 M46,266.125 L72,266.125 M59,285.125 L46,300.125 M59,285.125 L72,300.125 " fill="none" filter="url(#f1srfu3drdh41h)" style="stroke:#A80036;stroke-width:2.0;"/><rect fill="#FEFECE" filter="url(#f1srfu3drdh41h)" height="30.2969" style="stroke:#A80036;stroke-width:1.5;" width="77" x="297.5" y="53"/><text fill="#000000" font-family="sans-serif" font-size="14" lengthAdjust="spacing" textLength="63" x="304.5" y="72.9951">:Sistema</text><rect fill="#FEFECE" filter="url(#f1srfu3drdh41h)" height="30.2969" style="stroke:#A80036;stroke-width:1.5;" width="77" x="297.5" y="223.8281"/><text fill="#000000" font-family="sans-serif" font-size="14" lengthAdjust="spacing" textLength="63" x="304.5" y="243.8232">:Sistema</text><rect fill="#FFFFFF" filter="url(#f1srfu3drdh41h)" height="108.5313" style="stroke:#A80036;stroke-width:1.0;" width="10" x="54" y="98.2969"/><rect fill="#FFFFFF" filter="url(#f1srfu3drdh41h)" height="87.3984" style="stroke:#A80036;stroke-width:1.0;" width="10" x="333" y="119.4297"/><polygon fill="#A80036" points="321,115.4297,331,119.4297,321,123.4297,325,119.4297" style="stroke:#A80036;stroke-width:1.0;"/><line style="stroke:#A80036;stroke-width:1.0;" x1="64" x2="327" y1="119.4297" y2="119.4297"/><text fill="#000000" font-family="sans-serif" font-size="13" font-weight="bold" lengthAdjust="spacing" textLength="9" x="71" y="114.3638">1</text><text fill="#000000" font-family="sans-serif" font-size="13" lengthAdjust="spacing" textLength="222" x="84" y="114.3638">inicia a leitura do ficheiro de dados</text><polygon fill="#A80036" points="75,144.5625,65,148.5625,75,152.5625,71,148.5625" style="stroke:#A80036;stroke-width:1.0;"/><line style="stroke:#A80036;stroke-width:1.0;stroke-dasharray:2.0,2.0;" x1="69" x2="332" y1="148.5625" y2="148.5625"/><text fill="#000000" font-family="sans-serif" font-size="13" font-weight="bold" lengthAdjust="spacing" textLength="9" x="81" y="143.4966">2</text><text fill="#000000" font-family="sans-serif" font-size="13" lengthAdjust="spacing" textLength="232" x="94" y="143.4966">solicita o nome do ficheiro de leitura</text><polygon fill="#A80036" points="321,173.6953,331,177.6953,321,181.6953,325,177.6953" style="stroke:#A80036;stroke-width:1.0;"/><line style="stroke:#A80036;stroke-width:1.0;" x1="64" x2="327" y1="177.6953" y2="177.6953"/><text fill="#000000" font-family="sans-serif" font-size="13" font-weight="bold" lengthAdjust="spacing" textLength="8" x="71" y="172.6294">3</text><text fill="#000000" font-family="sans-serif" font-size="13" lengthAdjust="spacing" textLength="185" x="83" y="172.6294">introduz os dados solicitados</text><polygon fill="#A80036" points="70,202.8281,60,206.8281,70,210.8281,66,206.8281" style="stroke:#A80036;stroke-width:1.0;"/><line style="stroke:#A80036;stroke-width:1.0;stroke-dasharray:2.0,2.0;" x1="64" x2="337" y1="206.8281" y2="206.8281"/><text fill="#000000" font-family="sans-serif" font-size="13" font-weight="bold" lengthAdjust="spacing" textLength="9" x="76" y="201.7622">4</text><text fill="#000000" font-family="sans-serif" font-size="13" lengthAdjust="spacing" textLength="154" x="89" y="201.7622">operação bem sucedida</text><!--MD5=[6db25ba6f8c87b7b33686e55d5f0b49e]
@startuml
autonumber

actor "Administrador" as ADMIN


activate ADMIN
ADMIN -> ":Sistema" : inicia a leitura do ficheiro de dados
activate ":Sistema"
":Sistema" - -> ADMIN: solicita o nome do ficheiro de leitura
ADMIN -> ":Sistema" : introduz os dados solicitados
":Sistema" - -> ADMIN: operação bem sucedida
deactivate ":Sistema"
deactivate ADMIN
@enduml

PlantUML version 1.2021.01beta3(Unknown compile time)
(GPL source distribution)
Java Runtime: Java(TM) SE Runtime Environment
JVM: Java HotSpot(TM) 64-Bit Server VM
Default Encoding: UTF-8
Language: en
Country: US
--></g></svg>