<?xml version="1.0" encoding="UTF-8" standalone="no"?><svg xmlns="http://www.w3.org/2000/svg" xmlns:xlink="http://www.w3.org/1999/xlink" contentScriptType="application/ecmascript" contentStyleType="text/css" height="529px" preserveAspectRatio="none" style="width:991px;height:529px;" version="1.1" viewBox="0 0 991 529" width="991px" zoomAndPan="magnify"><defs><filter height="300%" id="f1ges3jsp0058f" width="300%" x="-1" y="-1"><feGaussianBlur result="blurOut" stdDeviation="2.0"/><feColorMatrix in="blurOut" result="blurOut2" type="matrix" values="0 0 0 0 0 0 0 0 0 0 0 0 0 0 0 0 0 0 .4 0"/><feOffset dx="4.0" dy="4.0" in="blurOut2" result="blurOut3"/><feBlend in="SourceGraphic" in2="blurOut3" mode="normal"/></filter></defs><g><!--MD5=[3179f819b5ca0f9c8a1bd58e9144681b]
class Entrega--><rect codeLine="5" fill="#FEFECE" filter="url(#f1ges3jsp0058f)" height="78.4141" id="Entrega" style="stroke:#A80036;stroke-width:1.5;" width="78" x="317.5" y="398"/><ellipse cx="332.5" cy="414" fill="#ADD1B2" rx="11" ry="11" style="stroke:#A80036;stroke-width:1.0;"/><path d="M334.8438,409.6719 C333.9063,409.2344 333.3125,409.0938 332.4375,409.0938 C329.8125,409.0938 327.8125,411.1719 327.8125,413.8906 L327.8125,415.0156 C327.8125,417.5938 329.9219,419.4844 332.8125,419.4844 C334.0313,419.4844 335.1875,419.1875 335.9375,418.6406 C336.5156,418.2344 336.8438,417.7813 336.8438,417.3906 C336.8438,416.9375 336.4531,416.5469 335.9844,416.5469 C335.7656,416.5469 335.5625,416.625 335.375,416.8125 C334.9219,417.2969 334.9219,417.2969 334.7344,417.3906 C334.3125,417.6563 333.625,417.7813 332.8594,417.7813 C330.8125,417.7813 329.5156,416.6875 329.5156,414.9844 L329.5156,413.8906 C329.5156,412.1094 330.7656,410.7969 332.5,410.7969 C333.0781,410.7969 333.6875,410.9531 334.1563,411.2031 C334.6406,411.4844 334.8125,411.7031 334.9063,412.1094 C334.9688,412.5156 335,412.6406 335.1406,412.7656 C335.2813,412.9063 335.5156,413.0156 335.7344,413.0156 C336,413.0156 336.2656,412.875 336.4375,412.6563 C336.5469,412.5 336.5781,412.3125 336.5781,411.8906 L336.5781,410.4688 C336.5781,410.0313 336.5625,409.9063 336.4688,409.75 C336.3125,409.4844 336.0313,409.3438 335.7344,409.3438 C335.4375,409.3438 335.2344,409.4375 335.0156,409.75 L334.8438,409.6719 Z " fill="#000000"/><text fill="#000000" font-family="sans-serif" font-size="12" lengthAdjust="spacing" textLength="46" x="346.5" y="418.1543">Entrega</text><line style="stroke:#A80036;stroke-width:1.5;" x1="318.5" x2="394.5" y1="430" y2="430"/><text fill="#000000" font-family="sans-serif" font-size="11" lengthAdjust="spacing" textLength="58" x="323.5" y="444.2104">-idEntrega</text><text fill="#000000" font-family="sans-serif" font-size="11" lengthAdjust="spacing" textLength="58" x="323.5" y="457.0151">-dataInicio</text><text fill="#000000" font-family="sans-serif" font-size="11" lengthAdjust="spacing" textLength="49" x="323.5" y="469.8198">-dataFim</text><!--MD5=[c55f92ccbf0646788158d42f3399cc78]
class Encomenda--><rect codeLine="11" fill="#FEFECE" filter="url(#f1ges3jsp0058f)" height="104.0234" id="Encomenda" style="stroke:#A80036;stroke-width:1.5;" width="111" x="610.5" y="247"/><ellipse cx="629.55" cy="263" fill="#ADD1B2" rx="11" ry="11" style="stroke:#A80036;stroke-width:1.0;"/><path d="M631.8938,258.6719 C630.9563,258.2344 630.3625,258.0938 629.4875,258.0938 C626.8625,258.0938 624.8625,260.1719 624.8625,262.8906 L624.8625,264.0156 C624.8625,266.5938 626.9719,268.4844 629.8625,268.4844 C631.0813,268.4844 632.2375,268.1875 632.9875,267.6406 C633.5656,267.2344 633.8938,266.7813 633.8938,266.3906 C633.8938,265.9375 633.5031,265.5469 633.0344,265.5469 C632.8156,265.5469 632.6125,265.625 632.425,265.8125 C631.9719,266.2969 631.9719,266.2969 631.7844,266.3906 C631.3625,266.6563 630.675,266.7813 629.9094,266.7813 C627.8625,266.7813 626.5656,265.6875 626.5656,263.9844 L626.5656,262.8906 C626.5656,261.1094 627.8156,259.7969 629.55,259.7969 C630.1281,259.7969 630.7375,259.9531 631.2063,260.2031 C631.6906,260.4844 631.8625,260.7031 631.9563,261.1094 C632.0188,261.5156 632.05,261.6406 632.1906,261.7656 C632.3313,261.9063 632.5656,262.0156 632.7844,262.0156 C633.05,262.0156 633.3156,261.875 633.4875,261.6563 C633.5969,261.5 633.6281,261.3125 633.6281,260.8906 L633.6281,259.4688 C633.6281,259.0313 633.6125,258.9063 633.5188,258.75 C633.3625,258.4844 633.0813,258.3438 632.7844,258.3438 C632.4875,258.3438 632.2844,258.4375 632.0656,258.75 L631.8938,258.6719 Z " fill="#000000"/><text fill="#000000" font-family="sans-serif" font-size="12" lengthAdjust="spacing" textLength="70" x="644.45" y="267.1543">Encomenda</text><line style="stroke:#A80036;stroke-width:1.5;" x1="611.5" x2="720.5" y1="279" y2="279"/><text fill="#000000" font-family="sans-serif" font-size="11" lengthAdjust="spacing" textLength="81" x="616.5" y="293.2104">-idEncomenda</text><text fill="#000000" font-family="sans-serif" font-size="11" lengthAdjust="spacing" textLength="67" x="616.5" y="306.0151">-dataPedida</text><text fill="#000000" font-family="sans-serif" font-size="11" lengthAdjust="spacing" textLength="36" x="616.5" y="318.8198">-preco</text><text fill="#000000" font-family="sans-serif" font-size="11" lengthAdjust="spacing" textLength="99" x="616.5" y="331.6245">-pesoEncomenda</text><text fill="#000000" font-family="sans-serif" font-size="11" lengthAdjust="spacing" textLength="29" x="616.5" y="344.4292">-taxa</text><!--MD5=[3f1202280bfe3359d2f91fb9b6e32986]
class Estafeta--><rect codeLine="20" fill="#FEFECE" filter="url(#f1ges3jsp0058f)" height="116.8281" id="Estafeta" style="stroke:#A80036;stroke-width:1.5;" width="155" x="7" y="378.5"/><ellipse cx="56.25" cy="394.5" fill="#ADD1B2" rx="11" ry="11" style="stroke:#A80036;stroke-width:1.0;"/><path d="M58.5938,390.1719 C57.6563,389.7344 57.0625,389.5938 56.1875,389.5938 C53.5625,389.5938 51.5625,391.6719 51.5625,394.3906 L51.5625,395.5156 C51.5625,398.0938 53.6719,399.9844 56.5625,399.9844 C57.7813,399.9844 58.9375,399.6875 59.6875,399.1406 C60.2656,398.7344 60.5938,398.2813 60.5938,397.8906 C60.5938,397.4375 60.2031,397.0469 59.7344,397.0469 C59.5156,397.0469 59.3125,397.125 59.125,397.3125 C58.6719,397.7969 58.6719,397.7969 58.4844,397.8906 C58.0625,398.1563 57.375,398.2813 56.6094,398.2813 C54.5625,398.2813 53.2656,397.1875 53.2656,395.4844 L53.2656,394.3906 C53.2656,392.6094 54.5156,391.2969 56.25,391.2969 C56.8281,391.2969 57.4375,391.4531 57.9063,391.7031 C58.3906,391.9844 58.5625,392.2031 58.6563,392.6094 C58.7188,393.0156 58.75,393.1406 58.8906,393.2656 C59.0313,393.4063 59.2656,393.5156 59.4844,393.5156 C59.75,393.5156 60.0156,393.375 60.1875,393.1563 C60.2969,393 60.3281,392.8125 60.3281,392.3906 L60.3281,390.9688 C60.3281,390.5313 60.3125,390.4063 60.2188,390.25 C60.0625,389.9844 59.7813,389.8438 59.4844,389.8438 C59.1875,389.8438 58.9844,389.9375 58.7656,390.25 L58.5938,390.1719 Z " fill="#000000"/><text fill="#000000" font-family="sans-serif" font-size="12" lengthAdjust="spacing" textLength="48" x="76.75" y="398.6543">Estafeta</text><line style="stroke:#A80036;stroke-width:1.5;" x1="8" x2="161" y1="410.5" y2="410.5"/><text fill="#000000" font-family="sans-serif" font-size="11" lengthAdjust="spacing" textLength="21" x="13" y="424.7104">-NIF</text><text fill="#000000" font-family="sans-serif" font-size="11" lengthAdjust="spacing" textLength="37" x="13" y="437.5151">-nome</text><text fill="#000000" font-family="sans-serif" font-size="11" lengthAdjust="spacing" textLength="36" x="13" y="450.3198">-email</text><text fill="#000000" font-family="sans-serif" font-size="11" lengthAdjust="spacing" textLength="143" x="13" y="463.1245">-numeroSegurancaSocial</text><text fill="#000000" font-family="sans-serif" font-size="11" lengthAdjust="spacing" textLength="57" x="13" y="475.9292">-password</text><text fill="#000000" font-family="sans-serif" font-size="11" lengthAdjust="spacing" textLength="79" x="13" y="488.7339">-pesoEstafeta</text><!--MD5=[36c1942e8942a3e4f47e6de3733e3d18]
class Endereco--><rect codeLine="29" fill="#FEFECE" filter="url(#f1ges3jsp0058f)" height="91.2188" id="Endereco" style="stroke:#A80036;stroke-width:1.5;" width="90" x="621" y="120.5"/><ellipse cx="636" cy="136.5" fill="#ADD1B2" rx="11" ry="11" style="stroke:#A80036;stroke-width:1.0;"/><path d="M638.3438,132.1719 C637.4063,131.7344 636.8125,131.5938 635.9375,131.5938 C633.3125,131.5938 631.3125,133.6719 631.3125,136.3906 L631.3125,137.5156 C631.3125,140.0938 633.4219,141.9844 636.3125,141.9844 C637.5313,141.9844 638.6875,141.6875 639.4375,141.1406 C640.0156,140.7344 640.3438,140.2813 640.3438,139.8906 C640.3438,139.4375 639.9531,139.0469 639.4844,139.0469 C639.2656,139.0469 639.0625,139.125 638.875,139.3125 C638.4219,139.7969 638.4219,139.7969 638.2344,139.8906 C637.8125,140.1563 637.125,140.2813 636.3594,140.2813 C634.3125,140.2813 633.0156,139.1875 633.0156,137.4844 L633.0156,136.3906 C633.0156,134.6094 634.2656,133.2969 636,133.2969 C636.5781,133.2969 637.1875,133.4531 637.6563,133.7031 C638.1406,133.9844 638.3125,134.2031 638.4063,134.6094 C638.4688,135.0156 638.5,135.1406 638.6406,135.2656 C638.7813,135.4063 639.0156,135.5156 639.2344,135.5156 C639.5,135.5156 639.7656,135.375 639.9375,135.1563 C640.0469,135 640.0781,134.8125 640.0781,134.3906 L640.0781,132.9688 C640.0781,132.5313 640.0625,132.4063 639.9688,132.25 C639.8125,131.9844 639.5313,131.8438 639.2344,131.8438 C638.9375,131.8438 638.7344,131.9375 638.5156,132.25 L638.3438,132.1719 Z " fill="#000000"/><text fill="#000000" font-family="sans-serif" font-size="12" lengthAdjust="spacing" textLength="58" x="650" y="140.6543">Endereco</text><line style="stroke:#A80036;stroke-width:1.5;" x1="622" x2="710" y1="152.5" y2="152.5"/><text fill="#000000" font-family="sans-serif" font-size="11" lengthAdjust="spacing" textLength="47" x="627" y="166.7104">-morada</text><text fill="#000000" font-family="sans-serif" font-size="11" lengthAdjust="spacing" textLength="47" x="627" y="179.5151">-latitude</text><text fill="#000000" font-family="sans-serif" font-size="11" lengthAdjust="spacing" textLength="57" x="627" y="192.3198">-longitude</text><text fill="#000000" font-family="sans-serif" font-size="11" lengthAdjust="spacing" textLength="47" x="627" y="205.1245">-altitude</text><!--MD5=[8505c5852735283b5a8424161266bb9f]
class Veiculo--><rect codeLine="36" fill="#FEFECE" filter="url(#f1ges3jsp0058f)" height="129.6328" id="Veiculo" style="stroke:#A80036;stroke-width:1.5;" width="134" x="599" y="386"/><ellipse cx="640.1" cy="402" fill="#ADD1B2" rx="11" ry="11" style="stroke:#A80036;stroke-width:1.0;"/><path d="M642.4438,397.6719 C641.5063,397.2344 640.9125,397.0938 640.0375,397.0938 C637.4125,397.0938 635.4125,399.1719 635.4125,401.8906 L635.4125,403.0156 C635.4125,405.5938 637.5219,407.4844 640.4125,407.4844 C641.6313,407.4844 642.7875,407.1875 643.5375,406.6406 C644.1156,406.2344 644.4438,405.7813 644.4438,405.3906 C644.4438,404.9375 644.0531,404.5469 643.5844,404.5469 C643.3656,404.5469 643.1625,404.625 642.975,404.8125 C642.5219,405.2969 642.5219,405.2969 642.3344,405.3906 C641.9125,405.6563 641.225,405.7813 640.4594,405.7813 C638.4125,405.7813 637.1156,404.6875 637.1156,402.9844 L637.1156,401.8906 C637.1156,400.1094 638.3656,398.7969 640.1,398.7969 C640.6781,398.7969 641.2875,398.9531 641.7563,399.2031 C642.2406,399.4844 642.4125,399.7031 642.5063,400.1094 C642.5688,400.5156 642.6,400.6406 642.7406,400.7656 C642.8813,400.9063 643.1156,401.0156 643.3344,401.0156 C643.6,401.0156 643.8656,400.875 644.0375,400.6563 C644.1469,400.5 644.1781,400.3125 644.1781,399.8906 L644.1781,398.4688 C644.1781,398.0313 644.1625,397.9063 644.0688,397.75 C643.9125,397.4844 643.6313,397.3438 643.3344,397.3438 C643.0375,397.3438 642.8344,397.4375 642.6156,397.75 L642.4438,397.6719 Z " fill="#000000"/><text fill="#000000" font-family="sans-serif" font-size="12" lengthAdjust="spacing" textLength="44" x="659.9" y="406.1543">Veiculo</text><line style="stroke:#A80036;stroke-width:1.5;" x1="600" x2="732" y1="418" y2="418"/><text fill="#000000" font-family="sans-serif" font-size="11" lengthAdjust="spacing" textLength="56" x="605" y="432.2104">-idVeiculo</text><text fill="#000000" font-family="sans-serif" font-size="11" lengthAdjust="spacing" textLength="25" x="605" y="445.0151">-tipo</text><text fill="#000000" font-family="sans-serif" font-size="11" lengthAdjust="spacing" textLength="122" x="605" y="457.8198">-percentagemBateria</text><text fill="#000000" font-family="sans-serif" font-size="11" lengthAdjust="spacing" textLength="76" x="605" y="470.6245">-pesoMaximo</text><text fill="#000000" font-family="sans-serif" font-size="11" lengthAdjust="spacing" textLength="74" x="605" y="483.4292">-pesoVeiculo</text><text fill="#000000" font-family="sans-serif" font-size="11" lengthAdjust="spacing" textLength="53" x="605" y="496.2339">-potencia</text><text fill="#000000" font-family="sans-serif" font-size="11" lengthAdjust="spacing" textLength="68" x="605" y="509.0386">-areaFrontal</text><!--MD5=[1a083dbe42a284ae0ea7f6f701783206]
class Parque--><rect codeLine="46" fill="#FEFECE" filter="url(#f1ges3jsp0058f)" height="65.6094" id="Parque" style="stroke:#A80036;stroke-width:1.5;" width="104" x="304.5" y="282"/><ellipse cx="333.45" cy="298" fill="#ADD1B2" rx="11" ry="11" style="stroke:#A80036;stroke-width:1.0;"/><path d="M335.7938,293.6719 C334.8563,293.2344 334.2625,293.0938 333.3875,293.0938 C330.7625,293.0938 328.7625,295.1719 328.7625,297.8906 L328.7625,299.0156 C328.7625,301.5938 330.8719,303.4844 333.7625,303.4844 C334.9813,303.4844 336.1375,303.1875 336.8875,302.6406 C337.4656,302.2344 337.7938,301.7813 337.7938,301.3906 C337.7938,300.9375 337.4031,300.5469 336.9344,300.5469 C336.7156,300.5469 336.5125,300.625 336.325,300.8125 C335.8719,301.2969 335.8719,301.2969 335.6844,301.3906 C335.2625,301.6563 334.575,301.7813 333.8094,301.7813 C331.7625,301.7813 330.4656,300.6875 330.4656,298.9844 L330.4656,297.8906 C330.4656,296.1094 331.7156,294.7969 333.45,294.7969 C334.0281,294.7969 334.6375,294.9531 335.1063,295.2031 C335.5906,295.4844 335.7625,295.7031 335.8563,296.1094 C335.9188,296.5156 335.95,296.6406 336.0906,296.7656 C336.2313,296.9063 336.4656,297.0156 336.6844,297.0156 C336.95,297.0156 337.2156,296.875 337.3875,296.6563 C337.4969,296.5 337.5281,296.3125 337.5281,295.8906 L337.5281,294.4688 C337.5281,294.0313 337.5125,293.9063 337.4188,293.75 C337.2625,293.4844 336.9813,293.3438 336.6844,293.3438 C336.3875,293.3438 336.1844,293.4375 335.9656,293.75 L335.7938,293.6719 Z " fill="#000000"/><text fill="#000000" font-family="sans-serif" font-size="12" lengthAdjust="spacing" textLength="41" x="350.55" y="302.1543">Parque</text><line style="stroke:#A80036;stroke-width:1.5;" x1="305.5" x2="407.5" y1="314" y2="314"/><text fill="#000000" font-family="sans-serif" font-size="11" lengthAdjust="spacing" textLength="92" x="310.5" y="328.2104">-numeroMaximo</text><text fill="#000000" font-family="sans-serif" font-size="11" lengthAdjust="spacing" textLength="25" x="310.5" y="341.0151">-tipo</text><!--MD5=[20a748d5ee336a9a91751b0a3d4f0beb]
class Cliente--><rect codeLine="51" fill="#FEFECE" filter="url(#f1ges3jsp0058f)" height="116.8281" id="Cliente" style="stroke:#A80036;stroke-width:1.5;" width="155" x="279" y="107.5"/><ellipse cx="331.75" cy="123.5" fill="#ADD1B2" rx="11" ry="11" style="stroke:#A80036;stroke-width:1.0;"/><path d="M334.0938,119.1719 C333.1563,118.7344 332.5625,118.5938 331.6875,118.5938 C329.0625,118.5938 327.0625,120.6719 327.0625,123.3906 L327.0625,124.5156 C327.0625,127.0938 329.1719,128.9844 332.0625,128.9844 C333.2813,128.9844 334.4375,128.6875 335.1875,128.1406 C335.7656,127.7344 336.0938,127.2813 336.0938,126.8906 C336.0938,126.4375 335.7031,126.0469 335.2344,126.0469 C335.0156,126.0469 334.8125,126.125 334.625,126.3125 C334.1719,126.7969 334.1719,126.7969 333.9844,126.8906 C333.5625,127.1563 332.875,127.2813 332.1094,127.2813 C330.0625,127.2813 328.7656,126.1875 328.7656,124.4844 L328.7656,123.3906 C328.7656,121.6094 330.0156,120.2969 331.75,120.2969 C332.3281,120.2969 332.9375,120.4531 333.4063,120.7031 C333.8906,120.9844 334.0625,121.2031 334.1563,121.6094 C334.2188,122.0156 334.25,122.1406 334.3906,122.2656 C334.5313,122.4063 334.7656,122.5156 334.9844,122.5156 C335.25,122.5156 335.5156,122.375 335.6875,122.1563 C335.7969,122 335.8281,121.8125 335.8281,121.3906 L335.8281,119.9688 C335.8281,119.5313 335.8125,119.4063 335.7188,119.25 C335.5625,118.9844 335.2813,118.8438 334.9844,118.8438 C334.6875,118.8438 334.4844,118.9375 334.2656,119.25 L334.0938,119.1719 Z " fill="#000000"/><text fill="#000000" font-family="sans-serif" font-size="12" lengthAdjust="spacing" textLength="41" x="352.25" y="127.6543">Cliente</text><line style="stroke:#A80036;stroke-width:1.5;" x1="280" x2="433" y1="139.5" y2="139.5"/><text fill="#000000" font-family="sans-serif" font-size="11" lengthAdjust="spacing" textLength="21" x="285" y="153.7104">-NIF</text><text fill="#000000" font-family="sans-serif" font-size="11" lengthAdjust="spacing" textLength="37" x="285" y="166.5151">-nome</text><text fill="#000000" font-family="sans-serif" font-size="11" lengthAdjust="spacing" textLength="36" x="285" y="179.3198">-email</text><text fill="#000000" font-family="sans-serif" font-size="11" lengthAdjust="spacing" textLength="143" x="285" y="192.1245">-numeroSegurancaSocial</text><text fill="#000000" font-family="sans-serif" font-size="11" lengthAdjust="spacing" textLength="57" x="285" y="204.9292">-password</text><text fill="#000000" font-family="sans-serif" font-size="11" lengthAdjust="spacing" textLength="49" x="285" y="217.7339">-creditos</text><!--MD5=[a13ca1da61a66d544daddca6fa0a1a30]
class Cartao--><rect codeLine="60" fill="#FEFECE" filter="url(#f1ges3jsp0058f)" height="78.4141" id="Cartao" style="stroke:#A80036;stroke-width:1.5;" width="108" x="612" y="7"/><ellipse cx="643.65" cy="23" fill="#ADD1B2" rx="11" ry="11" style="stroke:#A80036;stroke-width:1.0;"/><path d="M645.9938,18.6719 C645.0563,18.2344 644.4625,18.0938 643.5875,18.0938 C640.9625,18.0938 638.9625,20.1719 638.9625,22.8906 L638.9625,24.0156 C638.9625,26.5938 641.0719,28.4844 643.9625,28.4844 C645.1813,28.4844 646.3375,28.1875 647.0875,27.6406 C647.6656,27.2344 647.9938,26.7813 647.9938,26.3906 C647.9938,25.9375 647.6031,25.5469 647.1344,25.5469 C646.9156,25.5469 646.7125,25.625 646.525,25.8125 C646.0719,26.2969 646.0719,26.2969 645.8844,26.3906 C645.4625,26.6563 644.775,26.7813 644.0094,26.7813 C641.9625,26.7813 640.6656,25.6875 640.6656,23.9844 L640.6656,22.8906 C640.6656,21.1094 641.9156,19.7969 643.65,19.7969 C644.2281,19.7969 644.8375,19.9531 645.3063,20.2031 C645.7906,20.4844 645.9625,20.7031 646.0563,21.1094 C646.1188,21.5156 646.15,21.6406 646.2906,21.7656 C646.4313,21.9063 646.6656,22.0156 646.8844,22.0156 C647.15,22.0156 647.4156,21.875 647.5875,21.6563 C647.6969,21.5 647.7281,21.3125 647.7281,20.8906 L647.7281,19.4688 C647.7281,19.0313 647.7125,18.9063 647.6188,18.75 C647.4625,18.4844 647.1813,18.3438 646.8844,18.3438 C646.5875,18.3438 646.3844,18.4375 646.1656,18.75 L645.9938,18.6719 Z " fill="#000000"/><text fill="#000000" font-family="sans-serif" font-size="12" lengthAdjust="spacing" textLength="39" x="661.35" y="27.1543">Cartao</text><line style="stroke:#A80036;stroke-width:1.5;" x1="613" x2="719" y1="39" y2="39"/><text fill="#000000" font-family="sans-serif" font-size="11" lengthAdjust="spacing" textLength="85" x="618" y="53.2104">-numeroCartao</text><text fill="#000000" font-family="sans-serif" font-size="11" lengthAdjust="spacing" textLength="96" x="618" y="66.0151">-dataDeValidade</text><text fill="#000000" font-family="sans-serif" font-size="11" lengthAdjust="spacing" textLength="28" x="618" y="78.8198">-CCV</text><!--MD5=[533e824b6b94274ee39bf5a43d7cce2a]
class EstadoEncomenda--><rect codeLine="66" fill="#FEFECE" filter="url(#f1ges3jsp0058f)" height="65.6094" id="EstadoEncomenda" style="stroke:#A80036;stroke-width:1.5;" width="143" x="834" y="209"/><ellipse cx="849" cy="225" fill="#ADD1B2" rx="11" ry="11" style="stroke:#A80036;stroke-width:1.0;"/><path d="M851.3438,220.6719 C850.4063,220.2344 849.8125,220.0938 848.9375,220.0938 C846.3125,220.0938 844.3125,222.1719 844.3125,224.8906 L844.3125,226.0156 C844.3125,228.5938 846.4219,230.4844 849.3125,230.4844 C850.5313,230.4844 851.6875,230.1875 852.4375,229.6406 C853.0156,229.2344 853.3438,228.7813 853.3438,228.3906 C853.3438,227.9375 852.9531,227.5469 852.4844,227.5469 C852.2656,227.5469 852.0625,227.625 851.875,227.8125 C851.4219,228.2969 851.4219,228.2969 851.2344,228.3906 C850.8125,228.6563 850.125,228.7813 849.3594,228.7813 C847.3125,228.7813 846.0156,227.6875 846.0156,225.9844 L846.0156,224.8906 C846.0156,223.1094 847.2656,221.7969 849,221.7969 C849.5781,221.7969 850.1875,221.9531 850.6563,222.2031 C851.1406,222.4844 851.3125,222.7031 851.4063,223.1094 C851.4688,223.5156 851.5,223.6406 851.6406,223.7656 C851.7813,223.9063 852.0156,224.0156 852.2344,224.0156 C852.5,224.0156 852.7656,223.875 852.9375,223.6563 C853.0469,223.5 853.0781,223.3125 853.0781,222.8906 L853.0781,221.4688 C853.0781,221.0313 853.0625,220.9063 852.9688,220.75 C852.8125,220.4844 852.5313,220.3438 852.2344,220.3438 C851.9375,220.3438 851.7344,220.4375 851.5156,220.75 L851.3438,220.6719 Z " fill="#000000"/><text fill="#000000" font-family="sans-serif" font-size="12" lengthAdjust="spacing" textLength="111" x="863" y="229.1543">EstadoEncomenda</text><line style="stroke:#A80036;stroke-width:1.5;" x1="835" x2="976" y1="241" y2="241"/><text fill="#000000" font-family="sans-serif" font-size="11" lengthAdjust="spacing" textLength="119" x="840" y="255.2104">-idEstadoEncomenda</text><text fill="#000000" font-family="sans-serif" font-size="11" lengthAdjust="spacing" textLength="69" x="840" y="268.0151">-designacao</text><!--MD5=[d4dacc50d49878ba7c621dfc80a2e1ce]
class Produto--><rect codeLine="71" fill="#FEFECE" filter="url(#f1ges3jsp0058f)" height="91.2188" id="Produto" style="stroke:#A80036;stroke-width:1.5;" width="81" x="865" y="310.5"/><ellipse cx="881.35" cy="326.5" fill="#ADD1B2" rx="11" ry="11" style="stroke:#A80036;stroke-width:1.0;"/><path d="M883.6938,322.1719 C882.7563,321.7344 882.1625,321.5938 881.2875,321.5938 C878.6625,321.5938 876.6625,323.6719 876.6625,326.3906 L876.6625,327.5156 C876.6625,330.0938 878.7719,331.9844 881.6625,331.9844 C882.8813,331.9844 884.0375,331.6875 884.7875,331.1406 C885.3656,330.7344 885.6938,330.2813 885.6938,329.8906 C885.6938,329.4375 885.3031,329.0469 884.8344,329.0469 C884.6156,329.0469 884.4125,329.125 884.225,329.3125 C883.7719,329.7969 883.7719,329.7969 883.5844,329.8906 C883.1625,330.1563 882.475,330.2813 881.7094,330.2813 C879.6625,330.2813 878.3656,329.1875 878.3656,327.4844 L878.3656,326.3906 C878.3656,324.6094 879.6156,323.2969 881.35,323.2969 C881.9281,323.2969 882.5375,323.4531 883.0063,323.7031 C883.4906,323.9844 883.6625,324.2031 883.7563,324.6094 C883.8188,325.0156 883.85,325.1406 883.9906,325.2656 C884.1313,325.4063 884.3656,325.5156 884.5844,325.5156 C884.85,325.5156 885.1156,325.375 885.2875,325.1563 C885.3969,325 885.4281,324.8125 885.4281,324.3906 L885.4281,322.9688 C885.4281,322.5313 885.4125,322.4063 885.3188,322.25 C885.1625,321.9844 884.8813,321.8438 884.5844,321.8438 C884.2875,321.8438 884.0844,321.9375 883.8656,322.25 L883.6938,322.1719 Z " fill="#000000"/><text fill="#000000" font-family="sans-serif" font-size="12" lengthAdjust="spacing" textLength="46" x="895.65" y="330.6543">Produto</text><line style="stroke:#A80036;stroke-width:1.5;" x1="866" x2="945" y1="342.5" y2="342.5"/><text fill="#000000" font-family="sans-serif" font-size="11" lengthAdjust="spacing" textLength="56" x="871" y="356.7104">-idProduto</text><text fill="#000000" font-family="sans-serif" font-size="11" lengthAdjust="spacing" textLength="69" x="871" y="369.5151">-designacao</text><text fill="#000000" font-family="sans-serif" font-size="11" lengthAdjust="spacing" textLength="32" x="871" y="382.3198">-peso</text><text fill="#000000" font-family="sans-serif" font-size="11" lengthAdjust="spacing" textLength="65" x="871" y="395.1245">-precoBase</text><!--MD5=[055d9a59c94791d1e5417ead9eff8d01]
link Encomenda to EstadoEncomenda--><path codeLine="78" d="M721.786,285.851 C755.074,277.862 797.922,267.579 833.757,258.978 " fill="none" id="Encomenda-EstadoEncomenda" style="stroke:#A80036;stroke-width:1.0;"/><polygon fill="#000000" points="772.8619,257.3995,763.3807,256.6526,764.7525,262.3682,772.8619,257.3995" style="stroke:#000000;stroke-width:1.0;"/><text fill="#000000" font-family="sans-serif" font-size="13" lengthAdjust="spacing" textLength="26" x="777" y="263.0669">tem</text><text fill="#000000" font-family="sans-serif" font-size="13" lengthAdjust="spacing" textLength="8" x="729.4461" y="297.2011">1</text><text fill="#000000" font-family="sans-serif" font-size="13" lengthAdjust="spacing" textLength="8" x="817.946" y="273.5962">1</text><!--MD5=[0b9a64f88a8f68498a0520ea68e94a71]
link Cliente to Cartao--><path codeLine="79" d="M434.302,136.028 C489.626,114.439 562.858,85.86 611.831,66.749 " fill="none" id="Cliente-Cartao" style="stroke:#A80036;stroke-width:1.0;"/><polygon fill="#000000" points="505.6579,74.7487,496.1633,75.2991,498.3001,80.7748,505.6579,74.7487" style="stroke:#000000;stroke-width:1.0;"/><text fill="#000000" font-family="sans-serif" font-size="13" lengthAdjust="spacing" textLength="26" x="510" y="81.0669">tem</text><text fill="#000000" font-family="sans-serif" font-size="13" lengthAdjust="spacing" textLength="8" x="442.0988" y="145.9676">1</text><text fill="#000000" font-family="sans-serif" font-size="13" lengthAdjust="spacing" textLength="8" x="596.0145" y="82.593">1</text><!--MD5=[39609d66ce6d06d1779a14455c909f6f]
link Entrega to Encomenda--><path codeLine="80" d="M395.754,437.6634 C440.02,436.8687 513.88,430.6215 569,401 C586.172,391.772 585.646,383.203 599,369 C604.377,363.281 610.005,357.302 615.609,351.352 " fill="none" id="Entrega-Encomenda" style="stroke:#A80036;stroke-width:1.0;"/><polygon fill="#000000" points="498.1542,390.7392,488.6607,391.3089,490.8087,396.7803,498.1542,390.7392" style="stroke:#000000;stroke-width:1.0;"/><text fill="#000000" font-family="sans-serif" font-size="13" lengthAdjust="spacing" textLength="41" x="502.5" y="397.0669">possui</text><text fill="#000000" font-family="sans-serif" font-size="13" lengthAdjust="spacing" textLength="8" x="403.4586" y="433.4875">1</text><text fill="#000000" font-family="sans-serif" font-size="13" lengthAdjust="spacing" textLength="7" x="601.7042" y="371.0944">*</text><!--MD5=[328dae9b2f192140d45e51cd90ecd75a]
link Estafeta to Entrega--><path codeLine="81" d="M162.149,437 C212.818,437 277.068,437 317.241,437 " fill="none" id="Estafeta-Entrega" style="stroke:#A80036;stroke-width:1.0;"/><polygon fill="#000000" points="202,428.5664,192.9549,425.6275,192.9549,431.5053,202,428.5664" style="stroke:#000000;stroke-width:1.0;"/><text fill="#000000" font-family="sans-serif" font-size="13" lengthAdjust="spacing" textLength="42" x="206" y="433.0669">realiza</text><text fill="#000000" font-family="sans-serif" font-size="13" lengthAdjust="spacing" textLength="8" x="169.9312" y="449.7963">1</text><text fill="#000000" font-family="sans-serif" font-size="13" lengthAdjust="spacing" textLength="7" x="302.6246" y="450.3778">*</text><!--MD5=[43a7c1a046aa41d1c9842e3954366be4]
link Cliente to Endereco--><path codeLine="82" d="M434.302,166 C493.183,166 572.351,166 620.967,166 " fill="none" id="Cliente-Endereco" style="stroke:#A80036;stroke-width:1.0;"/><polygon fill="#000000" points="506,157.5664,496.9549,154.6275,496.9549,160.5053,506,157.5664" style="stroke:#000000;stroke-width:1.0;"/><text fill="#000000" font-family="sans-serif" font-size="13" lengthAdjust="spacing" textLength="26" x="510" y="162.0669">tem</text><text fill="#000000" font-family="sans-serif" font-size="13" lengthAdjust="spacing" textLength="8" x="442.0988" y="178.7963">1</text><text fill="#000000" font-family="sans-serif" font-size="13" lengthAdjust="spacing" textLength="8" x="605.1524" y="179.2554">1</text><!--MD5=[beec9e5f2ed2709028dd31c1dc478e7b]
link Cliente to Encomenda--><path codeLine="83" d="M434.302,199.218 C489.092,222.916 561.447,254.211 610.407,275.387 " fill="none" id="Cliente-Encomenda" style="stroke:#A80036;stroke-width:1.0;"/><polygon fill="#000000" points="473.5891,205.5513,466.454,199.2632,464.1206,204.658,473.5891,205.5513" style="stroke:#000000;stroke-width:1.0;"/><text fill="#000000" font-family="sans-serif" font-size="13" lengthAdjust="spacing" textLength="90" x="478" y="208.0669">realiza e paga</text><text fill="#000000" font-family="sans-serif" font-size="13" lengthAdjust="spacing" textLength="8" x="442.0988" y="215.1803">1</text><text fill="#000000" font-family="sans-serif" font-size="13" lengthAdjust="spacing" textLength="7" x="595.4664" y="285.2961">*</text><!--MD5=[cd2aeefe8c457d184a69396a9f9cb06a]
link Entrega to Veiculo--><path codeLine="84" d="M395.774,444.6128 C415.974,448.2484 441.229,452.194 464,454 C510.521,457.6896 522.339,454.7289 569,454 C578.67,453.8489 588.886,453.6123 598.905,453.3367 " fill="none" id="Entrega-Veiculo" style="stroke:#A80036;stroke-width:1.0;"/><polygon fill="#000000" points="488.0046,445.3519,496.9153,448.6762,497.1675,442.8038,488.0046,445.3519" style="stroke:#000000;stroke-width:1.0;"/><text fill="#000000" font-family="sans-serif" font-size="13" lengthAdjust="spacing" textLength="42" x="502" y="450.0669">realiza</text><text fill="#000000" font-family="sans-serif" font-size="13" lengthAdjust="spacing" textLength="7" x="403.3931" y="459.3466">*</text><text fill="#000000" font-family="sans-serif" font-size="13" lengthAdjust="spacing" textLength="8" x="583.129" y="466.5068">1</text><!--MD5=[60097591193c89dbde5dfd99b98b5263]
link Encomenda to Produto--><path codeLine="85" d="M721.786,312.149 C765.486,322.637 825.659,337.078 864.814,346.475 " fill="none" id="Encomenda-Produto" style="stroke:#A80036;stroke-width:1.0;"/><polygon fill="#000000" points="772.8619,314.7332,764.7525,309.7646,763.3808,315.4802,772.8619,314.7332" style="stroke:#000000;stroke-width:1.0;"/><text fill="#000000" font-family="sans-serif" font-size="13" lengthAdjust="spacing" textLength="26" x="777" y="318.0669">tem</text><text fill="#000000" font-family="sans-serif" font-size="13" lengthAdjust="spacing" textLength="8" x="729.4461" y="326.8686">1</text><text fill="#000000" font-family="sans-serif" font-size="13" lengthAdjust="spacing" textLength="7" x="849.9434" y="358.1735">*</text><!--MD5=[639e2fc5a451b1bb392d1ae296701488]
link Parque to Veiculo--><path codeLine="86" d="M408.514,327.331 C461.658,340.597 541.005,361.709 569,376 C579.078,381.145 589.136,387.415 598.743,394.115 " fill="none" id="Parque-Veiculo" style="stroke:#A80036;stroke-width:1.0;"/><polygon fill="#000000" points="498.2177,334.2227,490.6568,328.4535,488.7098,333.9995,498.2177,334.2227" style="stroke:#000000;stroke-width:1.0;"/><text fill="#000000" font-family="sans-serif" font-size="13" lengthAdjust="spacing" textLength="41" x="502.5" y="337.0669">possui</text><text fill="#000000" font-family="sans-serif" font-size="13" lengthAdjust="spacing" textLength="8" x="416.391" y="342.2234">1</text><text fill="#000000" font-family="sans-serif" font-size="13" lengthAdjust="spacing" textLength="7" x="584.004" y="400.8078">*</text><!--MD5=[65c0b4ced80642714d633a5480d06ed6]
link Parque to Endereco--><path codeLine="87" d="M408.9,318.108 C454.694,318.349 521.604,312.23 569,280 C590.43,265.427 582.895,250.303 599,230 C605.547,221.747 613.104,213.496 620.717,205.793 " fill="none" id="Parque-Endereco" style="stroke:#A80036;stroke-width:1.0;"/><polygon fill="#000000" points="505.4174,269.2241,496.0495,270.8649,498.803,276.0579,505.4174,269.2241" style="stroke:#000000;stroke-width:1.0;"/><text fill="#000000" font-family="sans-serif" font-size="13" lengthAdjust="spacing" textLength="26" x="510" y="276.0669">tem</text><text fill="#000000" font-family="sans-serif" font-size="13" lengthAdjust="spacing" textLength="8" x="416.4788" y="331.6355">1</text><text fill="#000000" font-family="sans-serif" font-size="13" lengthAdjust="spacing" textLength="8" x="604.8625" y="225.3904">1</text><!--MD5=[8a869c3502825ba3ec6192ccca3f68bd]
@startuml
skinparam classAttributeIconSize 0
hide methods
left to right direction

class Entrega {
  -idEntrega
  -dataInicio
  -dataFim
}

class Encomenda {
  -idEncomenda
  -dataPedida
  -preco
  -pesoEncomenda
  -taxa
}


class Estafeta {
  -NIF
  -nome
  -email
  -numeroSegurancaSocial
  -password
  -pesoEstafeta
}

class Endereco {
  -morada
  -latitude
  -longitude
  -altitude
}

class Veiculo {
  -idVeiculo
  -tipo
  -percentagemBateria
  -pesoMaximo
  -pesoVeiculo
  -potencia
  -areaFrontal
}

class Parque {
  -numeroMaximo
  -tipo
}

class Cliente {
  -NIF
  -nome
  -email
  -numeroSegurancaSocial
  -password
  -creditos
}

class Cartao {
  -numeroCartao
  -dataDeValidade
  -CCV
}

class EstadoEncomenda {
  -idEstadoEncomenda
  -designacao
}

class Produto {
  -idProduto
  -designacao
  -peso
  -precoBase
}

Encomenda "1" - - "1" EstadoEncomenda : tem >
Cliente "1" - - "1" Cartao : tem >
Entrega "1" - - "*" Encomenda : possui >
Estafeta "1" - - "*" Entrega: realiza >
Cliente "1" - - "1" Endereco: tem >
Cliente "1" - - "*" Encomenda: realiza e paga >
Entrega "*" - - "1" Veiculo: realiza <
Encomenda "1" - - "*" Produto: tem >
Parque "1" - - "*" Veiculo: possui >
Parque "1" - - "1" Endereco: tem >
@enduml

PlantUML version 1.2020.27beta8(Unknown compile time)
(GPL source distribution)
Java Runtime: Java(TM) SE Runtime Environment
JVM: Java HotSpot(TM) 64-Bit Server VM
Default Encoding: UTF-8
Language: en
Country: US
--></g></svg>