<?xml version="1.0" encoding="UTF-8" standalone="no"?><svg xmlns="http://www.w3.org/2000/svg" xmlns:xlink="http://www.w3.org/1999/xlink" contentScriptType="application/ecmascript" contentStyleType="text/css" height="251px" preserveAspectRatio="none" style="width:651px;height:251px;" version="1.1" viewBox="0 0 651 251" width="651px" zoomAndPan="magnify"><defs><filter height="300%" id="f11fz7l0k0fovf" width="300%" x="-1" y="-1"><feGaussianBlur result="blurOut" stdDeviation="2.0"/><feColorMatrix in="blurOut" result="blurOut2" type="matrix" values="0 0 0 0 0 0 0 0 0 0 0 0 0 0 0 0 0 0 .4 0"/><feOffset dx="4.0" dy="4.0" in="blurOut2" result="blurOut3"/><feBlend in="SourceGraphic" in2="blurOut3" mode="normal"/></filter></defs><g><!--MD5=[d4dacc50d49878ba7c621dfc80a2e1ce]
class Produto--><rect codeLine="5" fill="#FEFECE" filter="url(#f11fz7l0k0fovf)" height="91.2188" id="Produto" style="stroke:#A80036;stroke-width:1.5;" width="81" x="519" y="7"/><ellipse cx="535.35" cy="23" fill="#ADD1B2" rx="11" ry="11" style="stroke:#A80036;stroke-width:1.0;"/><path d="M537.6938,18.6719 C536.7563,18.2344 536.1625,18.0938 535.2875,18.0938 C532.6625,18.0938 530.6625,20.1719 530.6625,22.8906 L530.6625,24.0156 C530.6625,26.5938 532.7719,28.4844 535.6625,28.4844 C536.8813,28.4844 538.0375,28.1875 538.7875,27.6406 C539.3656,27.2344 539.6938,26.7813 539.6938,26.3906 C539.6938,25.9375 539.3031,25.5469 538.8344,25.5469 C538.6156,25.5469 538.4125,25.625 538.225,25.8125 C537.7719,26.2969 537.7719,26.2969 537.5844,26.3906 C537.1625,26.6563 536.475,26.7813 535.7094,26.7813 C533.6625,26.7813 532.3656,25.6875 532.3656,23.9844 L532.3656,22.8906 C532.3656,21.1094 533.6156,19.7969 535.35,19.7969 C535.9281,19.7969 536.5375,19.9531 537.0063,20.2031 C537.4906,20.4844 537.6625,20.7031 537.7563,21.1094 C537.8188,21.5156 537.85,21.6406 537.9906,21.7656 C538.1313,21.9063 538.3656,22.0156 538.5844,22.0156 C538.85,22.0156 539.1156,21.875 539.2875,21.6563 C539.3969,21.5 539.4281,21.3125 539.4281,20.8906 L539.4281,19.4688 C539.4281,19.0313 539.4125,18.9063 539.3188,18.75 C539.1625,18.4844 538.8813,18.3438 538.5844,18.3438 C538.2875,18.3438 538.0844,18.4375 537.8656,18.75 L537.6938,18.6719 Z " fill="#000000"/><text fill="#000000" font-family="sans-serif" font-size="12" lengthAdjust="spacing" textLength="46" x="549.65" y="27.1543">Produto</text><line style="stroke:#A80036;stroke-width:1.5;" x1="520" x2="599" y1="39" y2="39"/><text fill="#000000" font-family="sans-serif" font-size="11" lengthAdjust="spacing" textLength="56" x="525" y="53.2104">-idProduto</text><text fill="#000000" font-family="sans-serif" font-size="11" lengthAdjust="spacing" textLength="69" x="525" y="66.0151">-designacao</text><text fill="#000000" font-family="sans-serif" font-size="11" lengthAdjust="spacing" textLength="32" x="525" y="78.8198">-peso</text><text fill="#000000" font-family="sans-serif" font-size="11" lengthAdjust="spacing" textLength="65" x="525" y="91.6245">-precoBase</text><!--MD5=[6613c9cd406ef433ff06f5e98b28abd9]
class Farmacia--><rect codeLine="12" fill="#FEFECE" filter="url(#f11fz7l0k0fovf)" height="65.6094" id="Farmacia" style="stroke:#A80036;stroke-width:1.5;" width="86" x="7" y="52.5"/><ellipse cx="22" cy="68.5" fill="#ADD1B2" rx="11" ry="11" style="stroke:#A80036;stroke-width:1.0;"/><path d="M24.3438,64.1719 C23.4063,63.7344 22.8125,63.5938 21.9375,63.5938 C19.3125,63.5938 17.3125,65.6719 17.3125,68.3906 L17.3125,69.5156 C17.3125,72.0938 19.4219,73.9844 22.3125,73.9844 C23.5313,73.9844 24.6875,73.6875 25.4375,73.1406 C26.0156,72.7344 26.3438,72.2813 26.3438,71.8906 C26.3438,71.4375 25.9531,71.0469 25.4844,71.0469 C25.2656,71.0469 25.0625,71.125 24.875,71.3125 C24.4219,71.7969 24.4219,71.7969 24.2344,71.8906 C23.8125,72.1563 23.125,72.2813 22.3594,72.2813 C20.3125,72.2813 19.0156,71.1875 19.0156,69.4844 L19.0156,68.3906 C19.0156,66.6094 20.2656,65.2969 22,65.2969 C22.5781,65.2969 23.1875,65.4531 23.6563,65.7031 C24.1406,65.9844 24.3125,66.2031 24.4063,66.6094 C24.4688,67.0156 24.5,67.1406 24.6406,67.2656 C24.7813,67.4063 25.0156,67.5156 25.2344,67.5156 C25.5,67.5156 25.7656,67.375 25.9375,67.1563 C26.0469,67 26.0781,66.8125 26.0781,66.3906 L26.0781,64.9688 C26.0781,64.5313 26.0625,64.4063 25.9688,64.25 C25.8125,63.9844 25.5313,63.8438 25.2344,63.8438 C24.9375,63.8438 24.7344,63.9375 24.5156,64.25 L24.3438,64.1719 Z " fill="#000000"/><text fill="#000000" font-family="sans-serif" font-size="12" lengthAdjust="spacing" textLength="54" x="36" y="72.6543">Farmacia</text><line style="stroke:#A80036;stroke-width:1.5;" x1="8" x2="92" y1="84.5" y2="84.5"/><text fill="#000000" font-family="sans-serif" font-size="11" lengthAdjust="spacing" textLength="21" x="13" y="98.7104">-NIF</text><text fill="#000000" font-family="sans-serif" font-size="11" lengthAdjust="spacing" textLength="36" x="13" y="111.5151">-email</text><!--MD5=[5dd1d6732c071e710b9290b531f2fa3b]
class Utilizador--><rect codeLine="17" fill="#FEFECE" filter="url(#f11fz7l0k0fovf)" height="104.0234" id="Utilizador" style="stroke:#A80036;stroke-width:1.5;" width="155" x="482" y="133.5"/><ellipse cx="526.75" cy="149.5" fill="#ADD1B2" rx="11" ry="11" style="stroke:#A80036;stroke-width:1.0;"/><path d="M529.0938,145.1719 C528.1563,144.7344 527.5625,144.5938 526.6875,144.5938 C524.0625,144.5938 522.0625,146.6719 522.0625,149.3906 L522.0625,150.5156 C522.0625,153.0938 524.1719,154.9844 527.0625,154.9844 C528.2813,154.9844 529.4375,154.6875 530.1875,154.1406 C530.7656,153.7344 531.0938,153.2813 531.0938,152.8906 C531.0938,152.4375 530.7031,152.0469 530.2344,152.0469 C530.0156,152.0469 529.8125,152.125 529.625,152.3125 C529.1719,152.7969 529.1719,152.7969 528.9844,152.8906 C528.5625,153.1563 527.875,153.2813 527.1094,153.2813 C525.0625,153.2813 523.7656,152.1875 523.7656,150.4844 L523.7656,149.3906 C523.7656,147.6094 525.0156,146.2969 526.75,146.2969 C527.3281,146.2969 527.9375,146.4531 528.4063,146.7031 C528.8906,146.9844 529.0625,147.2031 529.1563,147.6094 C529.2188,148.0156 529.25,148.1406 529.3906,148.2656 C529.5313,148.4063 529.7656,148.5156 529.9844,148.5156 C530.25,148.5156 530.5156,148.375 530.6875,148.1563 C530.7969,148 530.8281,147.8125 530.8281,147.3906 L530.8281,145.9688 C530.8281,145.5313 530.8125,145.4063 530.7188,145.25 C530.5625,144.9844 530.2813,144.8438 529.9844,144.8438 C529.6875,144.8438 529.4844,144.9375 529.2656,145.25 L529.0938,145.1719 Z " fill="#000000"/><text fill="#000000" font-family="sans-serif" font-size="12" lengthAdjust="spacing" textLength="57" x="547.25" y="153.6543">Utilizador</text><line style="stroke:#A80036;stroke-width:1.5;" x1="483" x2="636" y1="165.5" y2="165.5"/><text fill="#000000" font-family="sans-serif" font-size="11" lengthAdjust="spacing" textLength="21" x="488" y="179.7104">-NIF</text><text fill="#000000" font-family="sans-serif" font-size="11" lengthAdjust="spacing" textLength="37" x="488" y="192.5151">-nome</text><text fill="#000000" font-family="sans-serif" font-size="11" lengthAdjust="spacing" textLength="36" x="488" y="205.3198">-email</text><text fill="#000000" font-family="sans-serif" font-size="11" lengthAdjust="spacing" textLength="143" x="488" y="218.1245">-numeroSegurancaSocial</text><text fill="#000000" font-family="sans-serif" font-size="11" lengthAdjust="spacing" textLength="57" x="488" y="230.9292">-password</text><!--MD5=[fdcda49d453d44c676d62f3f6af62207]
class Administrador--><rect fill="#FEFECE" filter="url(#f11fz7l0k0fovf)" height="40" id="Administrador" style="stroke:#A80036;stroke-width:1.5;" width="116" x="194" y="122.5"/><ellipse cx="209" cy="138.5" fill="#ADD1B2" rx="11" ry="11" style="stroke:#A80036;stroke-width:1.0;"/><path d="M211.3438,134.1719 C210.4063,133.7344 209.8125,133.5938 208.9375,133.5938 C206.3125,133.5938 204.3125,135.6719 204.3125,138.3906 L204.3125,139.5156 C204.3125,142.0938 206.4219,143.9844 209.3125,143.9844 C210.5313,143.9844 211.6875,143.6875 212.4375,143.1406 C213.0156,142.7344 213.3438,142.2813 213.3438,141.8906 C213.3438,141.4375 212.9531,141.0469 212.4844,141.0469 C212.2656,141.0469 212.0625,141.125 211.875,141.3125 C211.4219,141.7969 211.4219,141.7969 211.2344,141.8906 C210.8125,142.1563 210.125,142.2813 209.3594,142.2813 C207.3125,142.2813 206.0156,141.1875 206.0156,139.4844 L206.0156,138.3906 C206.0156,136.6094 207.2656,135.2969 209,135.2969 C209.5781,135.2969 210.1875,135.4531 210.6563,135.7031 C211.1406,135.9844 211.3125,136.2031 211.4063,136.6094 C211.4688,137.0156 211.5,137.1406 211.6406,137.2656 C211.7813,137.4063 212.0156,137.5156 212.2344,137.5156 C212.5,137.5156 212.7656,137.375 212.9375,137.1563 C213.0469,137 213.0781,136.8125 213.0781,136.3906 L213.0781,134.9688 C213.0781,134.5313 213.0625,134.4063 212.9688,134.25 C212.8125,133.9844 212.5313,133.8438 212.2344,133.8438 C211.9375,133.8438 211.7344,133.9375 211.5156,134.25 L211.3438,134.1719 Z " fill="#000000"/><text fill="#000000" font-family="sans-serif" font-size="12" lengthAdjust="spacing" textLength="84" x="223" y="142.6543">Administrador</text><line style="stroke:#A80036;stroke-width:1.5;" x1="195" x2="309" y1="154.5" y2="154.5"/><!--MD5=[b4161b205744775e44f73e41ced309e0]
link Administrador to Utilizador--><path codeLine="25" d="M308.639,162.6088 C318.952,165.7038 329.716,168.5227 340,170.5 C386.581,179.4563 439.65,183.2457 481.822,184.7771 " fill="none" id="Administrador-Utilizador" style="stroke:#A80036;stroke-width:1.0;"/><polygon fill="#000000" points="363.9595,162.7013,355.3608,158.6377,354.6145,164.4679,363.9595,162.7013" style="stroke:#000000;stroke-width:1.0;"/><text fill="#000000" font-family="sans-serif" font-size="13" lengthAdjust="spacing" textLength="69" x="368" y="166.5669">atua como</text><text fill="#000000" font-family="sans-serif" font-size="13" lengthAdjust="spacing" textLength="8" x="315.4437" y="182.4593">1</text><text fill="#000000" font-family="sans-serif" font-size="13" lengthAdjust="spacing" textLength="8" x="466.0371" y="197.4951">1</text><!--MD5=[651704aa6f94d771ebfe007ead522536]
link Administrador to Produto--><path codeLine="26" d="M310.238,131.391 C350.349,123.022 404.976,110.451 452,95.5 C474.518,88.341 499.009,78.596 518.821,70.193 " fill="none" id="Administrador-Produto" style="stroke:#A80036;stroke-width:1.0;"/><polygon fill="#000000" points="349.7978,85.6587,340.2911,85.3852,341.9459,91.0253,349.7978,85.6587" style="stroke:#000000;stroke-width:1.0;"/><text fill="#000000" font-family="sans-serif" font-size="13" lengthAdjust="spacing" textLength="97" x="354" y="91.5669">insere no stock</text><text fill="#000000" font-family="sans-serif" font-size="13" lengthAdjust="spacing" textLength="8" x="317.8233" y="143.0261">1</text><text fill="#000000" font-family="sans-serif" font-size="13" lengthAdjust="spacing" textLength="7" x="503.9516" y="86.7397">*</text><!--MD5=[db4a5ac14aaeb2d946b80db0d46ff947]
link Farmacia to Produto--><path codeLine="27" d="M93.3963,82.743 C189.878,76.469 424.741,61.198 518.692,55.088 " fill="none" id="Farmacia-Produto" style="stroke:#A80036;stroke-width:1.0;"/><polygon fill="#000000" points="241.4895,60.742,232.2727,58.3962,232.6541,64.2616,241.4895,60.742" style="stroke:#000000;stroke-width:1.0;"/><text fill="#000000" font-family="sans-serif" font-size="13" lengthAdjust="spacing" textLength="26" x="245.5" y="65.5669">tem</text><text fill="#000000" font-family="sans-serif" font-size="13" lengthAdjust="spacing" textLength="8" x="100.9501" y="78.2169">1</text><text fill="#000000" font-family="sans-serif" font-size="13" lengthAdjust="spacing" textLength="7" x="504.0766" y="68.8814">*</text><!--MD5=[1eb578f81baca05fae5600e8efb79c07]
link Farmacia to Administrador--><path codeLine="28" d="M93.4149,97.588 C122.654,105.921 161.858,117.094 193.847,126.211 " fill="none" id="Farmacia-Administrador" style="stroke:#A80036;stroke-width:1.0;"/><polygon fill="#000000" points="132.8085,99.4368,124.9153,94.1313,123.3043,99.7841,132.8085,99.4368" style="stroke:#000000;stroke-width:1.0;"/><text fill="#000000" font-family="sans-serif" font-size="13" lengthAdjust="spacing" textLength="26" x="137" y="102.5669">tem</text><text fill="#000000" font-family="sans-serif" font-size="13" lengthAdjust="spacing" textLength="8" x="100.9716" y="112.8184">1</text><text fill="#000000" font-family="sans-serif" font-size="13" lengthAdjust="spacing" textLength="8" x="177.8836" y="137.1603">1</text><!--MD5=[7386ded05d129a9479808c5ca830ea13]
@startuml
skinparam classAttributeIconSize 0
hide methods
left to right direction

class Produto {
  -idProduto
  -designacao
  -peso
  -precoBase
}

class Farmacia {
  -NIF
  -email
}

class Utilizador {
  -NIF
  -nome
  -email
  -numeroSegurancaSocial
  -password
}

Administrador "1" - - "1" Utilizador: atua como >
Administrador "1" - - "*" Produto: insere no stock >
Farmacia "1" - - "*" Produto: tem >
Farmacia "1" - - "1" Administrador: tem >
@enduml

PlantUML version 1.2021.01beta7(Unknown compile time)
(GPL source distribution)
Java Runtime: Java(TM) SE Runtime Environment
JVM: Java HotSpot(TM) 64-Bit Server VM
Default Encoding: UTF-8
Language: en
Country: US
--></g></svg>