<?xml version="1.0" encoding="UTF-8" standalone="no"?><svg xmlns="http://www.w3.org/2000/svg" xmlns:xlink="http://www.w3.org/1999/xlink" contentScriptType="application/ecmascript" contentStyleType="text/css" height="565px" preserveAspectRatio="none" style="width:408px;height:565px;" version="1.1" viewBox="0 0 408 565" width="408px" zoomAndPan="magnify"><defs><filter height="300%" id="f1purex1n7gj9y" width="300%" x="-1" y="-1"><feGaussianBlur result="blurOut" stdDeviation="2.0"/><feColorMatrix in="blurOut" result="blurOut2" type="matrix" values="0 0 0 0 0 0 0 0 0 0 0 0 0 0 0 0 0 0 .4 0"/><feOffset dx="4.0" dy="4.0" in="blurOut2" result="blurOut3"/><feBlend in="SourceGraphic" in2="blurOut3" mode="normal"/></filter></defs><g><!--MD5=[380d12a68ed0046a60f31008a02875d0]
class AplicacaoPOT--><rect codeLine="3" fill="#FEFECE" filter="url(#f1purex1n7gj9y)" height="73.6094" id="AplicacaoPOT" style="stroke:#A80036;stroke-width:1.5;" width="130" x="7" y="275.5"/><ellipse cx="29.65" cy="291.5" fill="#ADD1B2" rx="11" ry="11" style="stroke:#A80036;stroke-width:1.0;"/><path d="M31.9938,287.1719 C31.0563,286.7344 30.4625,286.5938 29.5875,286.5938 C26.9625,286.5938 24.9625,288.6719 24.9625,291.3906 L24.9625,292.5156 C24.9625,295.0938 27.0719,296.9844 29.9625,296.9844 C31.1813,296.9844 32.3375,296.6875 33.0875,296.1406 C33.6656,295.7344 33.9938,295.2813 33.9938,294.8906 C33.9938,294.4375 33.6031,294.0469 33.1344,294.0469 C32.9156,294.0469 32.7125,294.125 32.525,294.3125 C32.0719,294.7969 32.0719,294.7969 31.8844,294.8906 C31.4625,295.1563 30.775,295.2813 30.0094,295.2813 C27.9625,295.2813 26.6656,294.1875 26.6656,292.4844 L26.6656,291.3906 C26.6656,289.6094 27.9156,288.2969 29.65,288.2969 C30.2281,288.2969 30.8375,288.4531 31.3063,288.7031 C31.7906,288.9844 31.9625,289.2031 32.0563,289.6094 C32.1188,290.0156 32.15,290.1406 32.2906,290.2656 C32.4313,290.4063 32.6656,290.5156 32.8844,290.5156 C33.15,290.5156 33.4156,290.375 33.5875,290.1563 C33.6969,290 33.7281,289.8125 33.7281,289.3906 L33.7281,287.9688 C33.7281,287.5313 33.7125,287.4063 33.6188,287.25 C33.4625,286.9844 33.1813,286.8438 32.8844,286.8438 C32.5875,286.8438 32.3844,286.9375 32.1656,287.25 L31.9938,287.1719 Z " fill="#000000"/><text fill="#000000" font-family="sans-serif" font-size="12" lengthAdjust="spacing" textLength="81" x="45.35" y="295.6543">AplicacaoPOT</text><line style="stroke:#A80036;stroke-width:1.5;" x1="8" x2="136" y1="307.5" y2="307.5"/><line style="stroke:#A80036;stroke-width:1.5;" x1="8" x2="136" y1="315.5" y2="315.5"/><text fill="#000000" font-family="sans-serif" font-size="11" lengthAdjust="spacing" textLength="118" x="13" y="329.7104">+static getInstance()</text><text fill="#000000" font-family="sans-serif" font-size="11" lengthAdjust="spacing" textLength="107" x="13" y="342.5151">+getSessaoAtual()</text><!--MD5=[d4dacc50d49878ba7c621dfc80a2e1ce]
class Produto--><rect codeLine="9" fill="#FEFECE" filter="url(#f1purex1n7gj9y)" height="112.0234" id="Produto" style="stroke:#A80036;stroke-width:1.5;" width="236" x="118" y="439"/><ellipse cx="208.75" cy="455" fill="#ADD1B2" rx="11" ry="11" style="stroke:#A80036;stroke-width:1.0;"/><path d="M211.0938,450.6719 C210.1563,450.2344 209.5625,450.0938 208.6875,450.0938 C206.0625,450.0938 204.0625,452.1719 204.0625,454.8906 L204.0625,456.0156 C204.0625,458.5938 206.1719,460.4844 209.0625,460.4844 C210.2813,460.4844 211.4375,460.1875 212.1875,459.6406 C212.7656,459.2344 213.0938,458.7813 213.0938,458.3906 C213.0938,457.9375 212.7031,457.5469 212.2344,457.5469 C212.0156,457.5469 211.8125,457.625 211.625,457.8125 C211.1719,458.2969 211.1719,458.2969 210.9844,458.3906 C210.5625,458.6563 209.875,458.7813 209.1094,458.7813 C207.0625,458.7813 205.7656,457.6875 205.7656,455.9844 L205.7656,454.8906 C205.7656,453.1094 207.0156,451.7969 208.75,451.7969 C209.3281,451.7969 209.9375,451.9531 210.4063,452.2031 C210.8906,452.4844 211.0625,452.7031 211.1563,453.1094 C211.2188,453.5156 211.25,453.6406 211.3906,453.7656 C211.5313,453.9063 211.7656,454.0156 211.9844,454.0156 C212.25,454.0156 212.5156,453.875 212.6875,453.6563 C212.7969,453.5 212.8281,453.3125 212.8281,452.8906 L212.8281,451.4688 C212.8281,451.0313 212.8125,450.9063 212.7188,450.75 C212.5625,450.4844 212.2813,450.3438 211.9844,450.3438 C211.6875,450.3438 211.4844,450.4375 211.2656,450.75 L211.0938,450.6719 Z " fill="#000000"/><text fill="#000000" font-family="sans-serif" font-size="12" lengthAdjust="spacing" textLength="46" x="229.25" y="459.1543">Produto</text><line style="stroke:#A80036;stroke-width:1.5;" x1="119" x2="353" y1="471" y2="471"/><text fill="#000000" font-family="sans-serif" font-size="11" lengthAdjust="spacing" textLength="101" x="124" y="485.2104">-Integer idProduto</text><text fill="#000000" font-family="sans-serif" font-size="11" lengthAdjust="spacing" textLength="106" x="124" y="498.0151">-String designacao</text><text fill="#000000" font-family="sans-serif" font-size="11" lengthAdjust="spacing" textLength="77" x="124" y="510.8198">-Double peso</text><text fill="#000000" font-family="sans-serif" font-size="11" lengthAdjust="spacing" textLength="115" x="124" y="523.6245">-Double preco_base</text><line style="stroke:#A80036;stroke-width:1.5;" x1="119" x2="353" y1="530.2188" y2="530.2188"/><text fill="#000000" font-family="sans-serif" font-size="11" lengthAdjust="spacing" textLength="224" x="124" y="544.4292">+Produto(designacao,peso,preco_base)</text><!--MD5=[c7a66176ac6677a496c6f1e27f3083bc]
class ProdutosDB--><rect codeLine="17" fill="#FEFECE" filter="url(#f1purex1n7gj9y)" height="99.2188" id="ProdutosDB" style="stroke:#A80036;stroke-width:1.5;" width="151" x="243.5" y="263"/><ellipse cx="280.55" cy="279" fill="#ADD1B2" rx="11" ry="11" style="stroke:#A80036;stroke-width:1.0;"/><path d="M282.8938,274.6719 C281.9563,274.2344 281.3625,274.0938 280.4875,274.0938 C277.8625,274.0938 275.8625,276.1719 275.8625,278.8906 L275.8625,280.0156 C275.8625,282.5938 277.9719,284.4844 280.8625,284.4844 C282.0813,284.4844 283.2375,284.1875 283.9875,283.6406 C284.5656,283.2344 284.8938,282.7813 284.8938,282.3906 C284.8938,281.9375 284.5031,281.5469 284.0344,281.5469 C283.8156,281.5469 283.6125,281.625 283.425,281.8125 C282.9719,282.2969 282.9719,282.2969 282.7844,282.3906 C282.3625,282.6563 281.675,282.7813 280.9094,282.7813 C278.8625,282.7813 277.5656,281.6875 277.5656,279.9844 L277.5656,278.8906 C277.5656,277.1094 278.8156,275.7969 280.55,275.7969 C281.1281,275.7969 281.7375,275.9531 282.2063,276.2031 C282.6906,276.4844 282.8625,276.7031 282.9563,277.1094 C283.0188,277.5156 283.05,277.6406 283.1906,277.7656 C283.3313,277.9063 283.5656,278.0156 283.7844,278.0156 C284.05,278.0156 284.3156,277.875 284.4875,277.6563 C284.5969,277.5 284.6281,277.3125 284.6281,276.8906 L284.6281,275.4688 C284.6281,275.0313 284.6125,274.9063 284.5188,274.75 C284.3625,274.4844 284.0813,274.3438 283.7844,274.3438 C283.4875,274.3438 283.2844,274.4375 283.0656,274.75 L282.8938,274.6719 Z " fill="#000000"/><text fill="#000000" font-family="sans-serif" font-size="12" lengthAdjust="spacing" textLength="70" x="299.45" y="283.1543">ProdutosDB</text><line style="stroke:#A80036;stroke-width:1.5;" x1="244.5" x2="393.5" y1="295" y2="295"/><line style="stroke:#A80036;stroke-width:1.5;" x1="244.5" x2="393.5" y1="303" y2="303"/><text fill="#000000" font-family="sans-serif" font-size="11" lengthAdjust="spacing" textLength="110" x="249.5" y="317.2104">+getListaProdutos()</text><text fill="#000000" font-family="sans-serif" font-size="11" lengthAdjust="spacing" textLength="139" x="249.5" y="330.0151">+getProdutoByID(idProd)</text><text fill="#000000" font-family="sans-serif" font-size="11" lengthAdjust="spacing" textLength="133" x="249.5" y="342.8198">+atualizarProduto(prod)</text><text fill="#000000" font-family="sans-serif" font-size="11" lengthAdjust="spacing" textLength="118" x="249.5" y="355.6245">+validaProduto(prod)</text><!--MD5=[6fadd771d4eebd9c5fdf3951426db546]
class AtualizarItensStockController--><rect codeLine="24" fill="#FEFECE" filter="url(#f1purex1n7gj9y)" height="86.4141" id="AtualizarItensStockController" style="stroke:#A80036;stroke-width:1.5;" width="205" x="87.5" y="116"/><ellipse cx="102.5" cy="132" fill="#ADD1B2" rx="11" ry="11" style="stroke:#A80036;stroke-width:1.0;"/><path d="M104.8438,127.6719 C103.9063,127.2344 103.3125,127.0938 102.4375,127.0938 C99.8125,127.0938 97.8125,129.1719 97.8125,131.8906 L97.8125,133.0156 C97.8125,135.5938 99.9219,137.4844 102.8125,137.4844 C104.0313,137.4844 105.1875,137.1875 105.9375,136.6406 C106.5156,136.2344 106.8438,135.7813 106.8438,135.3906 C106.8438,134.9375 106.4531,134.5469 105.9844,134.5469 C105.7656,134.5469 105.5625,134.625 105.375,134.8125 C104.9219,135.2969 104.9219,135.2969 104.7344,135.3906 C104.3125,135.6563 103.625,135.7813 102.8594,135.7813 C100.8125,135.7813 99.5156,134.6875 99.5156,132.9844 L99.5156,131.8906 C99.5156,130.1094 100.7656,128.7969 102.5,128.7969 C103.0781,128.7969 103.6875,128.9531 104.1563,129.2031 C104.6406,129.4844 104.8125,129.7031 104.9063,130.1094 C104.9688,130.5156 105,130.6406 105.1406,130.7656 C105.2813,130.9063 105.5156,131.0156 105.7344,131.0156 C106,131.0156 106.2656,130.875 106.4375,130.6563 C106.5469,130.5 106.5781,130.3125 106.5781,129.8906 L106.5781,128.4688 C106.5781,128.0313 106.5625,127.9063 106.4688,127.75 C106.3125,127.4844 106.0313,127.3438 105.7344,127.3438 C105.4375,127.3438 105.2344,127.4375 105.0156,127.75 L104.8438,127.6719 Z " fill="#000000"/><text fill="#000000" font-family="sans-serif" font-size="12" lengthAdjust="spacing" textLength="173" x="116.5" y="136.1543">AtualizarItensStockController</text><line style="stroke:#A80036;stroke-width:1.5;" x1="88.5" x2="291.5" y1="148" y2="148"/><line style="stroke:#A80036;stroke-width:1.5;" x1="88.5" x2="291.5" y1="156" y2="156"/><text fill="#000000" font-family="sans-serif" font-size="11" lengthAdjust="spacing" textLength="139" x="93.5" y="170.2104">+getProdutoByID(idProd)</text><text fill="#000000" font-family="sans-serif" font-size="11" lengthAdjust="spacing" textLength="133" x="93.5" y="183.0151">+atualizarProduto(prod)</text><text fill="#000000" font-family="sans-serif" font-size="11" lengthAdjust="spacing" textLength="110" x="93.5" y="195.8198">+getListaProdutos()</text><!--MD5=[da8224111e3c124579ea17d5466ca4f1]
class AtualizarItensStockUI--><rect codeLine="30" fill="#FEFECE" filter="url(#f1purex1n7gj9y)" height="48" id="AtualizarItensStockUI" style="stroke:#A80036;stroke-width:1.5;" width="158" x="111" y="7"/><ellipse cx="126" cy="23" fill="#ADD1B2" rx="11" ry="11" style="stroke:#A80036;stroke-width:1.0;"/><path d="M128.3438,18.6719 C127.4063,18.2344 126.8125,18.0938 125.9375,18.0938 C123.3125,18.0938 121.3125,20.1719 121.3125,22.8906 L121.3125,24.0156 C121.3125,26.5938 123.4219,28.4844 126.3125,28.4844 C127.5313,28.4844 128.6875,28.1875 129.4375,27.6406 C130.0156,27.2344 130.3438,26.7813 130.3438,26.3906 C130.3438,25.9375 129.9531,25.5469 129.4844,25.5469 C129.2656,25.5469 129.0625,25.625 128.875,25.8125 C128.4219,26.2969 128.4219,26.2969 128.2344,26.3906 C127.8125,26.6563 127.125,26.7813 126.3594,26.7813 C124.3125,26.7813 123.0156,25.6875 123.0156,23.9844 L123.0156,22.8906 C123.0156,21.1094 124.2656,19.7969 126,19.7969 C126.5781,19.7969 127.1875,19.9531 127.6563,20.2031 C128.1406,20.4844 128.3125,20.7031 128.4063,21.1094 C128.4688,21.5156 128.5,21.6406 128.6406,21.7656 C128.7813,21.9063 129.0156,22.0156 129.2344,22.0156 C129.5,22.0156 129.7656,21.875 129.9375,21.6563 C130.0469,21.5 130.0781,21.3125 130.0781,20.8906 L130.0781,19.4688 C130.0781,19.0313 130.0625,18.9063 129.9688,18.75 C129.8125,18.4844 129.5313,18.3438 129.2344,18.3438 C128.9375,18.3438 128.7344,18.4375 128.5156,18.75 L128.3438,18.6719 Z " fill="#000000"/><text fill="#000000" font-family="sans-serif" font-size="12" lengthAdjust="spacing" textLength="126" x="140" y="27.1543">AtualizarItensStockUI</text><line style="stroke:#A80036;stroke-width:1.5;" x1="112" x2="268" y1="39" y2="39"/><line style="stroke:#A80036;stroke-width:1.5;" x1="112" x2="268" y1="47" y2="47"/><!--MD5=[2b836cb927685fe7b745436155390b15]
link AtualizarItensStockUI to AtualizarItensStockController--><path codeLine="33" d="M190,55.11 C190,70.631 190,91.639 190,110.625 " fill="none" id="AtualizarItensStockUI-to-AtualizarItensStockController" style="stroke:#A80036;stroke-width:1.0;stroke-dasharray:7.0,7.0;"/><polygon fill="#A80036" points="190,115.921,194,106.921,190,110.921,186,106.921,190,115.921" style="stroke:#A80036;stroke-width:1.0;"/><!--MD5=[2fa5e351b40d62e2b3ac191d6df62611]
link AtualizarItensStockController to ProdutosDB--><path codeLine="34" d="M225.934,202.201 C240.835,219.702 258.286,240.196 274.024,258.68 " fill="none" id="AtualizarItensStockController-to-ProdutosDB" style="stroke:#A80036;stroke-width:1.0;stroke-dasharray:7.0,7.0;"/><polygon fill="#A80036" points="277.564,262.837,274.7752,253.3912,274.3226,259.0299,268.6839,258.5774,277.564,262.837" style="stroke:#A80036;stroke-width:1.0;"/><!--MD5=[39c877e417d7567d8419e9e11c9ea2fc]
link AtualizarItensStockController to Produto--><path codeLine="35" d="M195.826,202.301 C203.884,260.811 218.477,366.765 227.681,433.594 " fill="none" id="AtualizarItensStockController-to-Produto" style="stroke:#A80036;stroke-width:1.0;stroke-dasharray:7.0,7.0;"/><polygon fill="#A80036" points="228.389,438.735,231.1223,429.273,227.7061,433.7819,223.1973,430.3657,228.389,438.735" style="stroke:#A80036;stroke-width:1.0;"/><!--MD5=[5d7ce570a7200de3a119beba177ef207]
link AtualizarItensStockController to AplicacaoPOT--><path codeLine="36" d="M157.13,202.201 C140.316,223.789 119.954,249.932 103.3605,271.236 " fill="none" id="AtualizarItensStockController-to-AplicacaoPOT" style="stroke:#A80036;stroke-width:1.0;stroke-dasharray:7.0,7.0;"/><polygon fill="#A80036" points="100.0941,275.43,108.7805,270.7881,103.1668,271.4855,102.4693,265.8718,100.0941,275.43" style="stroke:#A80036;stroke-width:1.0;"/><!--MD5=[bbd3ef872394a4705faf2324ce30b073]
link ProdutosDB to Produto--><path codeLine="38" d="M296.539,362.346 C286.367,384.467 274.247,410.825 263.532,434.125 " fill="none" id="ProdutosDB-to-Produto" style="stroke:#A80036;stroke-width:1.0;"/><polygon fill="#A80036" points="261.409,438.742,268.8044,432.2376,263.4988,434.1997,261.5367,428.894,261.409,438.742" style="stroke:#A80036;stroke-width:1.0;"/><text fill="#000000" font-family="sans-serif" font-size="13" lengthAdjust="spacing" textLength="97" x="284" y="405.0669">tem registados</text><text fill="#000000" font-family="sans-serif" font-size="13" lengthAdjust="spacing" textLength="8" x="284.9833" y="382.113">1</text><text fill="#000000" font-family="sans-serif" font-size="13" lengthAdjust="spacing" textLength="7" x="257.0792" y="428.0451">*</text><!--MD5=[414744683f95edc4169fd0a3925d316d]
@startuml
skinparam classAttributeIconSize 0

class AplicacaoPOT
{
  +static getInstance()
  +getSessaoAtual()
}

class Produto {
  -Integer idProduto
  -String designacao
  -Double peso
  -Double preco_base
  +Produto(designacao,peso,preco_base)
}

class ProdutosDB {
  +getListaProdutos()
  +getProdutoByID(idProd)
  +atualizarProduto(prod)
  +validaProduto(prod)
}

class AtualizarItensStockController {
    +getProdutoByID(idProd)
    +atualizarProduto(prod)
    +getListaProdutos()
}

class AtualizarItensStockUI {
}

AtualizarItensStockUI ..> AtualizarItensStockController
AtualizarItensStockController ..> ProdutosDB
AtualizarItensStockController ..> Produto
AtualizarItensStockController ..> AplicacaoPOT

ProdutosDB "1" - -> "*" Produto : tem registados
@enduml

PlantUML version 1.2020.27beta8(Unknown compile time)
(GPL source distribution)
Java Runtime: Java(TM) SE Runtime Environment
JVM: Java HotSpot(TM) 64-Bit Server VM
Default Encoding: UTF-8
Language: en
Country: US
--></g></svg>