<?xml version="1.0" encoding="UTF-8" standalone="no"?><svg xmlns="http://www.w3.org/2000/svg" xmlns:xlink="http://www.w3.org/1999/xlink" contentScriptType="application/ecmascript" contentStyleType="text/css" height="1038px" preserveAspectRatio="none" style="width:1293px;height:1038px;" version="1.1" viewBox="0 0 1293 1038" width="1293px" zoomAndPan="magnify"><defs><filter height="300%" id="fcfmcfjv4pcl6" width="300%" x="-1" y="-1"><feGaussianBlur result="blurOut" stdDeviation="2.0"/><feColorMatrix in="blurOut" result="blurOut2" type="matrix" values="0 0 0 0 0 0 0 0 0 0 0 0 0 0 0 0 0 0 .4 0"/><feOffset dx="4.0" dy="4.0" in="blurOut2" result="blurOut3"/><feBlend in="SourceGraphic" in2="blurOut3" mode="normal"/></filter></defs><g><!--MD5=[6613c9cd406ef433ff06f5e98b28abd9]
class Farmacia--><rect codeLine="3" fill="#FEFECE" filter="url(#fcfmcfjv4pcl6)" height="99.2188" id="Farmacia" style="stroke:#A80036;stroke-width:1.5;" width="231" x="144.5" y="560"/><ellipse cx="228.75" cy="576" fill="#ADD1B2" rx="11" ry="11" style="stroke:#A80036;stroke-width:1.0;"/><path d="M231.0938,571.6719 C230.1563,571.2344 229.5625,571.0938 228.6875,571.0938 C226.0625,571.0938 224.0625,573.1719 224.0625,575.8906 L224.0625,577.0156 C224.0625,579.5938 226.1719,581.4844 229.0625,581.4844 C230.2813,581.4844 231.4375,581.1875 232.1875,580.6406 C232.7656,580.2344 233.0938,579.7813 233.0938,579.3906 C233.0938,578.9375 232.7031,578.5469 232.2344,578.5469 C232.0156,578.5469 231.8125,578.625 231.625,578.8125 C231.1719,579.2969 231.1719,579.2969 230.9844,579.3906 C230.5625,579.6563 229.875,579.7813 229.1094,579.7813 C227.0625,579.7813 225.7656,578.6875 225.7656,576.9844 L225.7656,575.8906 C225.7656,574.1094 227.0156,572.7969 228.75,572.7969 C229.3281,572.7969 229.9375,572.9531 230.4063,573.2031 C230.8906,573.4844 231.0625,573.7031 231.1563,574.1094 C231.2188,574.5156 231.25,574.6406 231.3906,574.7656 C231.5313,574.9063 231.7656,575.0156 231.9844,575.0156 C232.25,575.0156 232.5156,574.875 232.6875,574.6563 C232.7969,574.5 232.8281,574.3125 232.8281,573.8906 L232.8281,572.4688 C232.8281,572.0313 232.8125,571.9063 232.7188,571.75 C232.5625,571.4844 232.2813,571.3438 231.9844,571.3438 C231.6875,571.3438 231.4844,571.4375 231.2656,571.75 L231.0938,571.6719 Z " fill="#000000"/><text fill="#000000" font-family="sans-serif" font-size="12" lengthAdjust="spacing" textLength="54" x="249.25" y="580.1543">Farmacia</text><line style="stroke:#A80036;stroke-width:1.5;" x1="145.5" x2="374.5" y1="592" y2="592"/><text fill="#000000" font-family="sans-serif" font-size="11" lengthAdjust="spacing" textLength="66" x="150.5" y="606.2104">-Integer NIF</text><text fill="#000000" font-family="sans-serif" font-size="11" lengthAdjust="spacing" textLength="73" x="150.5" y="619.0151">-String email</text><text fill="#000000" font-family="sans-serif" font-size="11" lengthAdjust="spacing" textLength="84" x="150.5" y="631.8198">-String morada</text><line style="stroke:#A80036;stroke-width:1.5;" x1="145.5" x2="374.5" y1="638.4141" y2="638.4141"/><text fill="#000000" font-family="sans-serif" font-size="11" lengthAdjust="spacing" textLength="219" x="150.5" y="652.6245">+Farmacia(Integer NIF, email, morada)</text><!--MD5=[36c1942e8942a3e4f47e6de3733e3d18]
class Endereco--><rect codeLine="10" fill="#FEFECE" filter="url(#fcfmcfjv4pcl6)" height="112.0234" id="Endereco" style="stroke:#A80036;stroke-width:1.5;" width="458" x="257" y="912"/><ellipse cx="452.75" cy="928" fill="#ADD1B2" rx="11" ry="11" style="stroke:#A80036;stroke-width:1.0;"/><path d="M455.0938,923.6719 C454.1563,923.2344 453.5625,923.0938 452.6875,923.0938 C450.0625,923.0938 448.0625,925.1719 448.0625,927.8906 L448.0625,929.0156 C448.0625,931.5938 450.1719,933.4844 453.0625,933.4844 C454.2813,933.4844 455.4375,933.1875 456.1875,932.6406 C456.7656,932.2344 457.0938,931.7813 457.0938,931.3906 C457.0938,930.9375 456.7031,930.5469 456.2344,930.5469 C456.0156,930.5469 455.8125,930.625 455.625,930.8125 C455.1719,931.2969 455.1719,931.2969 454.9844,931.3906 C454.5625,931.6563 453.875,931.7813 453.1094,931.7813 C451.0625,931.7813 449.7656,930.6875 449.7656,928.9844 L449.7656,927.8906 C449.7656,926.1094 451.0156,924.7969 452.75,924.7969 C453.3281,924.7969 453.9375,924.9531 454.4063,925.2031 C454.8906,925.4844 455.0625,925.7031 455.1563,926.1094 C455.2188,926.5156 455.25,926.6406 455.3906,926.7656 C455.5313,926.9063 455.7656,927.0156 455.9844,927.0156 C456.25,927.0156 456.5156,926.875 456.6875,926.6563 C456.7969,926.5 456.8281,926.3125 456.8281,925.8906 L456.8281,924.4688 C456.8281,924.0313 456.8125,923.9063 456.7188,923.75 C456.5625,923.4844 456.2813,923.3438 455.9844,923.3438 C455.6875,923.3438 455.4844,923.4375 455.2656,923.75 L455.0938,923.6719 Z " fill="#000000"/><text fill="#000000" font-family="sans-serif" font-size="12" lengthAdjust="spacing" textLength="58" x="473.25" y="932.1543">Endereco</text><line style="stroke:#A80036;stroke-width:1.5;" x1="258" x2="714" y1="944" y2="944"/><text fill="#000000" font-family="sans-serif" font-size="11" lengthAdjust="spacing" textLength="84" x="263" y="958.2104">-String morada</text><text fill="#000000" font-family="sans-serif" font-size="11" lengthAdjust="spacing" textLength="92" x="263" y="971.0151">-Double latitude</text><text fill="#000000" font-family="sans-serif" font-size="11" lengthAdjust="spacing" textLength="102" x="263" y="983.8198">-Double longitude</text><text fill="#000000" font-family="sans-serif" font-size="11" lengthAdjust="spacing" textLength="92" x="263" y="996.6245">-Double altitude</text><line style="stroke:#A80036;stroke-width:1.5;" x1="258" x2="714" y1="1003.2188" y2="1003.2188"/><text fill="#000000" font-family="sans-serif" font-size="11" lengthAdjust="spacing" textLength="446" x="263" y="1017.4292">+Endereco(String morada, Double latitude, Double longitude, Double altitude)</text><!--MD5=[1a083dbe42a284ae0ea7f6f701783206]
class Parque--><rect codeLine="18" fill="#FEFECE" filter="url(#fcfmcfjv4pcl6)" height="99.2188" id="Parque" style="stroke:#A80036;stroke-width:1.5;" width="350" x="311" y="736"/><ellipse cx="461.25" cy="752" fill="#ADD1B2" rx="11" ry="11" style="stroke:#A80036;stroke-width:1.0;"/><path d="M463.5938,747.6719 C462.6563,747.2344 462.0625,747.0938 461.1875,747.0938 C458.5625,747.0938 456.5625,749.1719 456.5625,751.8906 L456.5625,753.0156 C456.5625,755.5938 458.6719,757.4844 461.5625,757.4844 C462.7813,757.4844 463.9375,757.1875 464.6875,756.6406 C465.2656,756.2344 465.5938,755.7813 465.5938,755.3906 C465.5938,754.9375 465.2031,754.5469 464.7344,754.5469 C464.5156,754.5469 464.3125,754.625 464.125,754.8125 C463.6719,755.2969 463.6719,755.2969 463.4844,755.3906 C463.0625,755.6563 462.375,755.7813 461.6094,755.7813 C459.5625,755.7813 458.2656,754.6875 458.2656,752.9844 L458.2656,751.8906 C458.2656,750.1094 459.5156,748.7969 461.25,748.7969 C461.8281,748.7969 462.4375,748.9531 462.9063,749.2031 C463.3906,749.4844 463.5625,749.7031 463.6563,750.1094 C463.7188,750.5156 463.75,750.6406 463.8906,750.7656 C464.0313,750.9063 464.2656,751.0156 464.4844,751.0156 C464.75,751.0156 465.0156,750.875 465.1875,750.6563 C465.2969,750.5 465.3281,750.3125 465.3281,749.8906 L465.3281,748.4688 C465.3281,748.0313 465.3125,747.9063 465.2188,747.75 C465.0625,747.4844 464.7813,747.3438 464.4844,747.3438 C464.1875,747.3438 463.9844,747.4375 463.7656,747.75 L463.5938,747.6719 Z " fill="#000000"/><text fill="#000000" font-family="sans-serif" font-size="12" lengthAdjust="spacing" textLength="41" x="481.75" y="756.1543">Parque</text><line style="stroke:#A80036;stroke-width:1.5;" x1="312" x2="660" y1="768" y2="768"/><text fill="#000000" font-family="sans-serif" font-size="11" lengthAdjust="spacing" textLength="66" x="317" y="782.2104">-Integer NIF</text><text fill="#000000" font-family="sans-serif" font-size="11" lengthAdjust="spacing" textLength="137" x="317" y="795.0151">-Integer numeroMaximo</text><text fill="#000000" font-family="sans-serif" font-size="11" lengthAdjust="spacing" textLength="62" x="317" y="807.8198">-String tipo</text><line style="stroke:#A80036;stroke-width:1.5;" x1="312" x2="660" y1="814.4141" y2="814.4141"/><text fill="#000000" font-family="sans-serif" font-size="11" lengthAdjust="spacing" textLength="338" x="317" y="828.6245">+Endereco(Integer NIF, Integer numeroMaximo, String tipo)</text><!--MD5=[364aec0fc02518cb9ab31cd04b585b1a]
class FarmaciaDB--><rect codeLine="25" fill="#FEFECE" filter="url(#fcfmcfjv4pcl6)" height="99.2188" id="FarmaciaDB" style="stroke:#A80036;stroke-width:1.5;" width="269" x="59.5" y="302"/><ellipse cx="154.25" cy="318" fill="#ADD1B2" rx="11" ry="11" style="stroke:#A80036;stroke-width:1.0;"/><path d="M156.5938,313.6719 C155.6563,313.2344 155.0625,313.0938 154.1875,313.0938 C151.5625,313.0938 149.5625,315.1719 149.5625,317.8906 L149.5625,319.0156 C149.5625,321.5938 151.6719,323.4844 154.5625,323.4844 C155.7813,323.4844 156.9375,323.1875 157.6875,322.6406 C158.2656,322.2344 158.5938,321.7813 158.5938,321.3906 C158.5938,320.9375 158.2031,320.5469 157.7344,320.5469 C157.5156,320.5469 157.3125,320.625 157.125,320.8125 C156.6719,321.2969 156.6719,321.2969 156.4844,321.3906 C156.0625,321.6563 155.375,321.7813 154.6094,321.7813 C152.5625,321.7813 151.2656,320.6875 151.2656,318.9844 L151.2656,317.8906 C151.2656,316.1094 152.5156,314.7969 154.25,314.7969 C154.8281,314.7969 155.4375,314.9531 155.9063,315.2031 C156.3906,315.4844 156.5625,315.7031 156.6563,316.1094 C156.7188,316.5156 156.75,316.6406 156.8906,316.7656 C157.0313,316.9063 157.2656,317.0156 157.4844,317.0156 C157.75,317.0156 158.0156,316.875 158.1875,316.6563 C158.2969,316.5 158.3281,316.3125 158.3281,315.8906 L158.3281,314.4688 C158.3281,314.0313 158.3125,313.9063 158.2188,313.75 C158.0625,313.4844 157.7813,313.3438 157.4844,313.3438 C157.1875,313.3438 156.9844,313.4375 156.7656,313.75 L156.5938,313.6719 Z " fill="#000000"/><text fill="#000000" font-family="sans-serif" font-size="12" lengthAdjust="spacing" textLength="71" x="174.75" y="322.1543">FarmaciaDB</text><line style="stroke:#A80036;stroke-width:1.5;" x1="60.5" x2="327.5" y1="334" y2="334"/><line style="stroke:#A80036;stroke-width:1.5;" x1="60.5" x2="327.5" y1="342" y2="342"/><text fill="#000000" font-family="sans-serif" font-size="11" lengthAdjust="spacing" textLength="257" x="65.5" y="356.2104">+Farmacia novaFarmacia(NIF, email, morada)</text><text fill="#000000" font-family="sans-serif" font-size="11" lengthAdjust="spacing" textLength="188" x="65.5" y="369.0151">+registaFarmacia(Farmacia farm)</text><text fill="#000000" font-family="sans-serif" font-size="11" lengthAdjust="spacing" textLength="183" x="65.5" y="381.8198">+validaFarmacia(Farmacia farm)</text><text fill="#000000" font-family="sans-serif" font-size="11" lengthAdjust="spacing" textLength="165" x="65.5" y="394.6245">-addFarmacia(Farmacia farm)</text><!--MD5=[a8381305e32feabadf74eb10f0c047ba]
class EnderecoDB--><rect codeLine="32" fill="#FEFECE" filter="url(#fcfmcfjv4pcl6)" height="99.2188" id="EnderecoDB" style="stroke:#A80036;stroke-width:1.5;" width="544" x="735" y="431"/><ellipse cx="965.25" cy="447" fill="#ADD1B2" rx="11" ry="11" style="stroke:#A80036;stroke-width:1.0;"/><path d="M967.5938,442.6719 C966.6563,442.2344 966.0625,442.0938 965.1875,442.0938 C962.5625,442.0938 960.5625,444.1719 960.5625,446.8906 L960.5625,448.0156 C960.5625,450.5938 962.6719,452.4844 965.5625,452.4844 C966.7813,452.4844 967.9375,452.1875 968.6875,451.6406 C969.2656,451.2344 969.5938,450.7813 969.5938,450.3906 C969.5938,449.9375 969.2031,449.5469 968.7344,449.5469 C968.5156,449.5469 968.3125,449.625 968.125,449.8125 C967.6719,450.2969 967.6719,450.2969 967.4844,450.3906 C967.0625,450.6563 966.375,450.7813 965.6094,450.7813 C963.5625,450.7813 962.2656,449.6875 962.2656,447.9844 L962.2656,446.8906 C962.2656,445.1094 963.5156,443.7969 965.25,443.7969 C965.8281,443.7969 966.4375,443.9531 966.9063,444.2031 C967.3906,444.4844 967.5625,444.7031 967.6563,445.1094 C967.7188,445.5156 967.75,445.6406 967.8906,445.7656 C968.0313,445.9063 968.2656,446.0156 968.4844,446.0156 C968.75,446.0156 969.0156,445.875 969.1875,445.6563 C969.2969,445.5 969.3281,445.3125 969.3281,444.8906 L969.3281,443.4688 C969.3281,443.0313 969.3125,442.9063 969.2188,442.75 C969.0625,442.4844 968.7813,442.3438 968.4844,442.3438 C968.1875,442.3438 967.9844,442.4375 967.7656,442.75 L967.5938,442.6719 Z " fill="#000000"/><text fill="#000000" font-family="sans-serif" font-size="12" lengthAdjust="spacing" textLength="75" x="985.75" y="451.1543">EnderecoDB</text><line style="stroke:#A80036;stroke-width:1.5;" x1="736" x2="1278" y1="463" y2="463"/><line style="stroke:#A80036;stroke-width:1.5;" x1="736" x2="1278" y1="471" y2="471"/><text fill="#000000" font-family="sans-serif" font-size="11" lengthAdjust="spacing" textLength="532" x="741" y="485.2104">+Endereco novoEndereco(String morada, Double latitude, Double longitude, Double altitude)</text><text fill="#000000" font-family="sans-serif" font-size="11" lengthAdjust="spacing" textLength="190" x="741" y="498.0151">+registaEndereco(Endereco end)</text><text fill="#000000" font-family="sans-serif" font-size="11" lengthAdjust="spacing" textLength="185" x="741" y="510.8198">+validaEndereco(Endereco end)</text><text fill="#000000" font-family="sans-serif" font-size="11" lengthAdjust="spacing" textLength="167" x="741" y="523.6245">-addEndereco(Endereco end)</text><!--MD5=[021650fd5270df78a3629eada2205323]
class ParqueDB--><rect codeLine="39" fill="#FEFECE" filter="url(#fcfmcfjv4pcl6)" height="99.2188" id="ParqueDB" style="stroke:#A80036;stroke-width:1.5;" width="406" x="283" y="431"/><ellipse cx="452.75" cy="447" fill="#ADD1B2" rx="11" ry="11" style="stroke:#A80036;stroke-width:1.0;"/><path d="M455.0938,442.6719 C454.1563,442.2344 453.5625,442.0938 452.6875,442.0938 C450.0625,442.0938 448.0625,444.1719 448.0625,446.8906 L448.0625,448.0156 C448.0625,450.5938 450.1719,452.4844 453.0625,452.4844 C454.2813,452.4844 455.4375,452.1875 456.1875,451.6406 C456.7656,451.2344 457.0938,450.7813 457.0938,450.3906 C457.0938,449.9375 456.7031,449.5469 456.2344,449.5469 C456.0156,449.5469 455.8125,449.625 455.625,449.8125 C455.1719,450.2969 455.1719,450.2969 454.9844,450.3906 C454.5625,450.6563 453.875,450.7813 453.1094,450.7813 C451.0625,450.7813 449.7656,449.6875 449.7656,447.9844 L449.7656,446.8906 C449.7656,445.1094 451.0156,443.7969 452.75,443.7969 C453.3281,443.7969 453.9375,443.9531 454.4063,444.2031 C454.8906,444.4844 455.0625,444.7031 455.1563,445.1094 C455.2188,445.5156 455.25,445.6406 455.3906,445.7656 C455.5313,445.9063 455.7656,446.0156 455.9844,446.0156 C456.25,446.0156 456.5156,445.875 456.6875,445.6563 C456.7969,445.5 456.8281,445.3125 456.8281,444.8906 L456.8281,443.4688 C456.8281,443.0313 456.8125,442.9063 456.7188,442.75 C456.5625,442.4844 456.2813,442.3438 455.9844,442.3438 C455.6875,442.3438 455.4844,442.4375 455.2656,442.75 L455.0938,442.6719 Z " fill="#000000"/><text fill="#000000" font-family="sans-serif" font-size="12" lengthAdjust="spacing" textLength="58" x="473.25" y="451.1543">ParqueDB</text><line style="stroke:#A80036;stroke-width:1.5;" x1="284" x2="688" y1="463" y2="463"/><line style="stroke:#A80036;stroke-width:1.5;" x1="284" x2="688" y1="471" y2="471"/><text fill="#000000" font-family="sans-serif" font-size="11" lengthAdjust="spacing" textLength="394" x="289" y="485.2104">+Parque novoParque(Integer NIF, Integer numeroMaximo, String tipo)</text><text fill="#000000" font-family="sans-serif" font-size="11" lengthAdjust="spacing" textLength="214" x="289" y="498.0151">+registaParques(List&lt;Parque&gt; lparks)</text><text fill="#000000" font-family="sans-serif" font-size="11" lengthAdjust="spacing" textLength="173" x="289" y="510.8198">+validaParque(Parque parque)</text><text fill="#000000" font-family="sans-serif" font-size="11" lengthAdjust="spacing" textLength="155" x="289" y="523.6245">-addParque(Parque parque)</text><!--MD5=[292cbfdf48ee96a1c6d5c40c7ba01c14]
class RegistarFarmaciaController--><rect codeLine="46" fill="#FEFECE" filter="url(#fcfmcfjv4pcl6)" height="124.8281" id="RegistarFarmaciaController" style="stroke:#A80036;stroke-width:1.5;" width="363" x="252.5" y="116"/><ellipse cx="348.75" cy="132" fill="#ADD1B2" rx="11" ry="11" style="stroke:#A80036;stroke-width:1.0;"/><path d="M351.0938,127.6719 C350.1563,127.2344 349.5625,127.0938 348.6875,127.0938 C346.0625,127.0938 344.0625,129.1719 344.0625,131.8906 L344.0625,133.0156 C344.0625,135.5938 346.1719,137.4844 349.0625,137.4844 C350.2813,137.4844 351.4375,137.1875 352.1875,136.6406 C352.7656,136.2344 353.0938,135.7813 353.0938,135.3906 C353.0938,134.9375 352.7031,134.5469 352.2344,134.5469 C352.0156,134.5469 351.8125,134.625 351.625,134.8125 C351.1719,135.2969 351.1719,135.2969 350.9844,135.3906 C350.5625,135.6563 349.875,135.7813 349.1094,135.7813 C347.0625,135.7813 345.7656,134.6875 345.7656,132.9844 L345.7656,131.8906 C345.7656,130.1094 347.0156,128.7969 348.75,128.7969 C349.3281,128.7969 349.9375,128.9531 350.4063,129.2031 C350.8906,129.4844 351.0625,129.7031 351.1563,130.1094 C351.2188,130.5156 351.25,130.6406 351.3906,130.7656 C351.5313,130.9063 351.7656,131.0156 351.9844,131.0156 C352.25,131.0156 352.5156,130.875 352.6875,130.6563 C352.7969,130.5 352.8281,130.3125 352.8281,129.8906 L352.8281,128.4688 C352.8281,128.0313 352.8125,127.9063 352.7188,127.75 C352.5625,127.4844 352.2813,127.3438 351.9844,127.3438 C351.6875,127.3438 351.4844,127.4375 351.2656,127.75 L351.0938,127.6719 Z " fill="#000000"/><text fill="#000000" font-family="sans-serif" font-size="12" lengthAdjust="spacing" textLength="162" x="369.25" y="136.1543">RegistarFarmaciaController</text><line style="stroke:#A80036;stroke-width:1.5;" x1="253.5" x2="614.5" y1="148" y2="148"/><line style="stroke:#A80036;stroke-width:1.5;" x1="253.5" x2="614.5" y1="156" y2="156"/><text fill="#000000" font-family="sans-serif" font-size="11" lengthAdjust="spacing" textLength="351" x="258.5" y="170.2104">+novoParque(Integer NIF, Integer numeroMaximo, String tipo)</text><text fill="#000000" font-family="sans-serif" font-size="11" lengthAdjust="spacing" textLength="202" x="258.5" y="183.0151">+novaFarmacia(NIF, email, morada)</text><text fill="#000000" font-family="sans-serif" font-size="11" lengthAdjust="spacing" textLength="302" x="258.5" y="195.8198">+novoEndereco(morada, latitude, longitude, altitude)</text><text fill="#000000" font-family="sans-serif" font-size="11" lengthAdjust="spacing" textLength="132" x="258.5" y="208.6245">+registaEndereco(end)</text><text fill="#000000" font-family="sans-serif" font-size="11" lengthAdjust="spacing" textLength="133" x="258.5" y="221.4292">+registaFarmacia(farm)</text><text fill="#000000" font-family="sans-serif" font-size="11" lengthAdjust="spacing" textLength="134" x="258.5" y="234.2339">+registaParques(lparks)</text><!--MD5=[16f25527ba70f62c202fb8dd84cb3d2e]
class RegistarFarmaciaUI--><rect codeLine="55" fill="#FEFECE" filter="url(#fcfmcfjv4pcl6)" height="48" id="RegistarFarmaciaUI" style="stroke:#A80036;stroke-width:1.5;" width="147" x="360.5" y="7"/><ellipse cx="375.5" cy="23" fill="#ADD1B2" rx="11" ry="11" style="stroke:#A80036;stroke-width:1.0;"/><path d="M377.8438,18.6719 C376.9063,18.2344 376.3125,18.0938 375.4375,18.0938 C372.8125,18.0938 370.8125,20.1719 370.8125,22.8906 L370.8125,24.0156 C370.8125,26.5938 372.9219,28.4844 375.8125,28.4844 C377.0313,28.4844 378.1875,28.1875 378.9375,27.6406 C379.5156,27.2344 379.8438,26.7813 379.8438,26.3906 C379.8438,25.9375 379.4531,25.5469 378.9844,25.5469 C378.7656,25.5469 378.5625,25.625 378.375,25.8125 C377.9219,26.2969 377.9219,26.2969 377.7344,26.3906 C377.3125,26.6563 376.625,26.7813 375.8594,26.7813 C373.8125,26.7813 372.5156,25.6875 372.5156,23.9844 L372.5156,22.8906 C372.5156,21.1094 373.7656,19.7969 375.5,19.7969 C376.0781,19.7969 376.6875,19.9531 377.1563,20.2031 C377.6406,20.4844 377.8125,20.7031 377.9063,21.1094 C377.9688,21.5156 378,21.6406 378.1406,21.7656 C378.2813,21.9063 378.5156,22.0156 378.7344,22.0156 C379,22.0156 379.2656,21.875 379.4375,21.6563 C379.5469,21.5 379.5781,21.3125 379.5781,20.8906 L379.5781,19.4688 C379.5781,19.0313 379.5625,18.9063 379.4688,18.75 C379.3125,18.4844 379.0313,18.3438 378.7344,18.3438 C378.4375,18.3438 378.2344,18.4375 378.0156,18.75 L377.8438,18.6719 Z " fill="#000000"/><text fill="#000000" font-family="sans-serif" font-size="12" lengthAdjust="spacing" textLength="115" x="389.5" y="27.1543">RegistarFarmaciaUI</text><line style="stroke:#A80036;stroke-width:1.5;" x1="361.5" x2="506.5" y1="39" y2="39"/><line style="stroke:#A80036;stroke-width:1.5;" x1="361.5" x2="506.5" y1="47" y2="47"/><!--MD5=[f96a217cc99f82e5dda83e4db29e3f0d]
link RegistarFarmaciaUI to RegistarFarmaciaController--><path codeLine="59" d="M434,55.055 C434,70.198 434,90.845 434,110.869 " fill="none" id="RegistarFarmaciaUI-to-RegistarFarmaciaController" style="stroke:#A80036;stroke-width:1.0;stroke-dasharray:7.0,7.0;"/><polygon fill="#A80036" points="434,115.942,438,106.942,434,110.942,430,106.942,434,115.942" style="stroke:#A80036;stroke-width:1.0;"/><!--MD5=[cf385d46b982f44bba418de29d938ed9]
link RegistarFarmaciaController to ParqueDB--><path codeLine="60" d="M444.711,241.296 C454.13,295.632 467.699,373.917 476.677,425.716 " fill="none" id="RegistarFarmaciaController-to-ParqueDB" style="stroke:#A80036;stroke-width:1.0;stroke-dasharray:7.0,7.0;"/><polygon fill="#A80036" points="477.532,430.645,479.9357,421.094,476.6778,425.7185,472.0533,422.4606,477.532,430.645" style="stroke:#A80036;stroke-width:1.0;"/><!--MD5=[cedf4e2fac6be50e74b26344cb9b6128]
link RegistarFarmaciaController to EnderecoDB--><path codeLine="61" d="M615.506,222.254 C656.913,235.222 699.908,251.369 738,271 C819.39,312.946 900.812,380.508 952.404,427.304 " fill="none" id="RegistarFarmaciaController-to-EnderecoDB" style="stroke:#A80036;stroke-width:1.0;stroke-dasharray:7.0,7.0;"/><polygon fill="#A80036" points="956.375,430.919,952.4125,421.9024,952.6776,427.5531,947.027,427.8182,956.375,430.919" style="stroke:#A80036;stroke-width:1.0;"/><!--MD5=[ee0f888f82e00ad1821accfbab9741d8]
link RegistarFarmaciaController to FarmaciaDB--><path codeLine="62" d="M347.354,241.235 C320.827,260.136 291.938,280.719 266.459,298.873 " fill="none" id="RegistarFarmaciaController-to-FarmaciaDB" style="stroke:#A80036;stroke-width:1.0;stroke-dasharray:7.0,7.0;"/><polygon fill="#A80036" points="262.072,301.998,271.7227,300.0324,266.1439,299.0963,267.0799,293.5174,262.072,301.998" style="stroke:#A80036;stroke-width:1.0;"/><!--MD5=[aa9f67082c51c82a1ba912278ea26989]
link RegistarFarmaciaController to Parque--><path codeLine="63" d="M527.444,241.23 C586.25,286.036 657.046,352.43 690,431 C737.319,543.822 628.011,665.261 551.827,732.372 " fill="none" id="RegistarFarmaciaController-to-Parque" style="stroke:#A80036;stroke-width:1.0;stroke-dasharray:7.0,7.0;"/><polygon fill="#A80036" points="547.771,735.921,557.1781,733.0043,551.5337,732.6283,551.9097,726.9839,547.771,735.921" style="stroke:#A80036;stroke-width:1.0;"/><!--MD5=[1108c8e87a0035f633b3288171c413ba]
link RegistarFarmaciaController to Endereco--><path codeLine="64" d="M252.489,217.868 C135.838,247.943 6,294.088 6,350.5 C6,350.5 6,350.5 6,786.5 C6,844.402 129.916,890.062 251.827,920.973 " fill="none" id="RegistarFarmaciaController-to-Endereco" style="stroke:#A80036;stroke-width:1.0;stroke-dasharray:7.0,7.0;"/><polygon fill="#A80036" points="256.895,922.25,249.1448,916.1726,252.0465,921.0286,247.1905,923.9303,256.895,922.25" style="stroke:#A80036;stroke-width:1.0;"/><!--MD5=[45e10d883f52dd70f1944020196c5274]
link RegistarFarmaciaController to Farmacia--><path codeLine="65" d="M422.524,241.192 C410.679,289.802 387.839,356.564 346,401 C324.465,423.871 300.454,405.577 282,431 C256.251,466.473 252.209,516.796 253.765,554.805 " fill="none" id="RegistarFarmaciaController-to-Farmacia" style="stroke:#A80036;stroke-width:1.0;stroke-dasharray:7.0,7.0;"/><polygon fill="#A80036" points="254.007,559.848,257.5704,550.6664,253.767,554.8538,249.5796,551.0504,254.007,559.848" style="stroke:#A80036;stroke-width:1.0;"/><!--MD5=[e5dbbc54f46538fc7b7077d28b1f914b]
link ParqueDB to Parque--><path codeLine="67" d="M486,530.182 C486,585.069 486,674.045 486,730.882 " fill="none" id="ParqueDB-to-Parque" style="stroke:#A80036;stroke-width:1.0;"/><polygon fill="#A80036" points="486,735.939,490,726.939,486,730.939,482,726.939,486,735.939" style="stroke:#A80036;stroke-width:1.0;"/><text fill="#000000" font-family="sans-serif" font-size="13" lengthAdjust="spacing" textLength="41" x="487" y="614.0669">possui</text><text fill="#000000" font-family="sans-serif" font-size="13" lengthAdjust="spacing" textLength="8" x="477.4375" y="550.2841">1</text><text fill="#000000" font-family="sans-serif" font-size="13" lengthAdjust="spacing" textLength="7" x="478.5078" y="724.9756">*</text><!--MD5=[c023e2c3fa599b931e4bde319636976a]
link EnderecoDB to Endereco--><path codeLine="68" d="M967.686,530.109 C908.822,601.334 792.427,736.291 678,835 C647.514,861.298 611.711,887.1 579.333,908.817 " fill="none" id="EnderecoDB-to-Endereco" style="stroke:#A80036;stroke-width:1.0;"/><polygon fill="#A80036" points="574.994,911.717,584.6993,910.0414,579.151,908.9386,580.2538,903.3902,574.994,911.717" style="stroke:#A80036;stroke-width:1.0;"/><text fill="#000000" font-family="sans-serif" font-size="13" lengthAdjust="spacing" textLength="41" x="826" y="702.0669">possui</text><text fill="#000000" font-family="sans-serif" font-size="13" lengthAdjust="spacing" textLength="8" x="953.595" y="550.2008">1</text><text fill="#000000" font-family="sans-serif" font-size="13" lengthAdjust="spacing" textLength="7" x="578.4136" y="901.017">*</text><!--MD5=[3c539b0dd2212e8322efef71ee8cdfc2]
link FarmaciaDB to Farmacia--><path codeLine="69" d="M183.732,401.232 C178.23,437.855 175.398,488.616 191,530 C194.349,538.882 199.21,547.412 204.826,555.362 " fill="none" id="FarmaciaDB-to-Farmacia" style="stroke:#A80036;stroke-width:1.0;"/><polygon fill="#A80036" points="208.019,559.718,205.925,550.0943,205.0633,555.6852,199.4725,554.8234,208.019,559.718" style="stroke:#A80036;stroke-width:1.0;"/><text fill="#000000" font-family="sans-serif" font-size="13" lengthAdjust="spacing" textLength="41" x="192" y="485.0669">possui</text><text fill="#000000" font-family="sans-serif" font-size="13" lengthAdjust="spacing" textLength="8" x="173.7256" y="421.3411">1</text><text fill="#000000" font-family="sans-serif" font-size="13" lengthAdjust="spacing" textLength="7" x="193.5637" y="549.0819">*</text><!--MD5=[4f96609c99ecadb81dc825d0ae539cef]
link Farmacia to Parque--><path codeLine="70" d="M323.254,659.2 C352.998,682.1 388.486,709.423 418.721,732.701 " fill="none" id="Farmacia-to-Parque" style="stroke:#A80036;stroke-width:1.0;"/><polygon fill="#A80036" points="422.761,735.812,418.07,727.1521,418.7992,732.7617,413.1896,733.4909,422.761,735.812" style="stroke:#A80036;stroke-width:1.0;"/><text fill="#000000" font-family="sans-serif" font-size="13" lengthAdjust="spacing" textLength="26" x="381" y="702.0669">tem</text><text fill="#000000" font-family="sans-serif" font-size="13" lengthAdjust="spacing" textLength="8" x="323.5866" y="679.3046">1</text><text fill="#000000" font-family="sans-serif" font-size="13" lengthAdjust="spacing" textLength="8" x="405.3055" y="724.8308">1</text><!--MD5=[65c0b4ced80642714d633a5480d06ed6]
link Parque to Endereco--><path codeLine="71" d="M486,835.346 C486,857.283 486,883.386 486,906.542 " fill="none" id="Parque-to-Endereco" style="stroke:#A80036;stroke-width:1.0;"/><polygon fill="#A80036" points="486,911.742,490,902.742,486,906.742,482,902.742,486,911.742" style="stroke:#A80036;stroke-width:1.0;"/><text fill="#000000" font-family="sans-serif" font-size="13" lengthAdjust="spacing" textLength="26" x="487" y="878.0669">tem</text><text fill="#000000" font-family="sans-serif" font-size="13" lengthAdjust="spacing" textLength="8" x="477.4625" y="855.113">1</text><text fill="#000000" font-family="sans-serif" font-size="13" lengthAdjust="spacing" textLength="8" x="477.5125" y="901.0451">1</text><!--MD5=[7dcfe92eb08f61fdd32055165ffdf5ab]
@startuml
skinparam classAttributeIconSize 0

class Farmacia {
  -Integer NIF
  -String email
  -String morada
  +Farmacia(Integer NIF, email, morada)
}

class Endereco {
  -String morada
  -Double latitude
  -Double longitude
  -Double altitude 
  +Endereco(String morada, Double latitude, Double longitude, Double altitude)
}

class Parque {
  -Integer NIF
  -Integer numeroMaximo
  -String tipo
  +Endereco(Integer NIF, Integer numeroMaximo, String tipo)
}

class FarmaciaDB {
  +Farmacia novaFarmacia(NIF, email, morada)
  +registaFarmacia(Farmacia farm)
  +validaFarmacia(Farmacia farm)
  -addFarmacia(Farmacia farm)
}

class EnderecoDB {
  +Endereco novoEndereco(String morada, Double latitude, Double longitude, Double altitude)
  +registaEndereco(Endereco end)
  +validaEndereco(Endereco end)
  -addEndereco(Endereco end)
}

class ParqueDB {
  +Parque novoParque(Integer NIF, Integer numeroMaximo, String tipo)
  +registaParques(List<Parque> lparks)
  +validaParque(Parque parque)
  -addParque(Parque parque)
}

class RegistarFarmaciaController {
  +novoParque(Integer NIF, Integer numeroMaximo, String tipo)
  +novaFarmacia(NIF, email, morada)
  +novoEndereco(morada, latitude, longitude, altitude)
  +registaEndereco(end)
  +registaFarmacia(farm)
  +registaParques(lparks)
}

class RegistarFarmaciaUI {
  
}

RegistarFarmaciaUI ..> RegistarFarmaciaController
RegistarFarmaciaController ..> ParqueDB
RegistarFarmaciaController ..> EnderecoDB
RegistarFarmaciaController ..> FarmaciaDB
RegistarFarmaciaController ..> Parque
RegistarFarmaciaController ..> Endereco
RegistarFarmaciaController ..> Farmacia

ParqueDB "1" - -> "*" Parque : possui
EnderecoDB "1" - -> "*" Endereco : possui
FarmaciaDB "1" - -> "*" Farmacia : possui
Farmacia "1" - -> "1" Parque : tem
Parque "1" - -> "1" Endereco : tem
@enduml

PlantUML version 1.2021.01beta3(Unknown compile time)
(GPL source distribution)
Java Runtime: Java(TM) SE Runtime Environment
JVM: Java HotSpot(TM) 64-Bit Server VM
Default Encoding: UTF-8
Language: en
Country: US
--></g></svg>