<?xml version="1.0" encoding="UTF-8" standalone="no"?><svg xmlns="http://www.w3.org/2000/svg" xmlns:xlink="http://www.w3.org/1999/xlink" contentScriptType="application/ecmascript" contentStyleType="text/css" height="1038px" preserveAspectRatio="none" style="width:1361px;height:1038px;" version="1.1" viewBox="0 0 1361 1038" width="1361px" zoomAndPan="magnify"><defs><filter height="300%" id="f9cj281uwmimt" width="300%" x="-1" y="-1"><feGaussianBlur result="blurOut" stdDeviation="2.0"/><feColorMatrix in="blurOut" result="blurOut2" type="matrix" values="0 0 0 0 0 0 0 0 0 0 0 0 0 0 0 0 0 0 .4 0"/><feOffset dx="4.0" dy="4.0" in="blurOut2" result="blurOut3"/><feBlend in="SourceGraphic" in2="blurOut3" mode="normal"/></filter></defs><g><!--MD5=[6613c9cd406ef433ff06f5e98b28abd9]
class Farmacia--><rect codeLine="3" fill="#FEFECE" filter="url(#f9cj281uwmimt)" height="86.4141" id="Farmacia" style="stroke:#A80036;stroke-width:1.5;" width="192" x="144" y="560"/><ellipse cx="208.75" cy="576" fill="#ADD1B2" rx="11" ry="11" style="stroke:#A80036;stroke-width:1.0;"/><path d="M211.0938,571.6719 C210.1563,571.2344 209.5625,571.0938 208.6875,571.0938 C206.0625,571.0938 204.0625,573.1719 204.0625,575.8906 L204.0625,577.0156 C204.0625,579.5938 206.1719,581.4844 209.0625,581.4844 C210.2813,581.4844 211.4375,581.1875 212.1875,580.6406 C212.7656,580.2344 213.0938,579.7813 213.0938,579.3906 C213.0938,578.9375 212.7031,578.5469 212.2344,578.5469 C212.0156,578.5469 211.8125,578.625 211.625,578.8125 C211.1719,579.2969 211.1719,579.2969 210.9844,579.3906 C210.5625,579.6563 209.875,579.7813 209.1094,579.7813 C207.0625,579.7813 205.7656,578.6875 205.7656,576.9844 L205.7656,575.8906 C205.7656,574.1094 207.0156,572.7969 208.75,572.7969 C209.3281,572.7969 209.9375,572.9531 210.4063,573.2031 C210.8906,573.4844 211.0625,573.7031 211.1563,574.1094 C211.2188,574.5156 211.25,574.6406 211.3906,574.7656 C211.5313,574.9063 211.7656,575.0156 211.9844,575.0156 C212.25,575.0156 212.5156,574.875 212.6875,574.6563 C212.7969,574.5 212.8281,574.3125 212.8281,573.8906 L212.8281,572.4688 C212.8281,572.0313 212.8125,571.9063 212.7188,571.75 C212.5625,571.4844 212.2813,571.3438 211.9844,571.3438 C211.6875,571.3438 211.4844,571.4375 211.2656,571.75 L211.0938,571.6719 Z " fill="#000000"/><text fill="#000000" font-family="sans-serif" font-size="12" lengthAdjust="spacing" textLength="54" x="229.25" y="580.1543">Farmacia</text><line style="stroke:#A80036;stroke-width:1.5;" x1="145" x2="335" y1="592" y2="592"/><text fill="#000000" font-family="sans-serif" font-size="11" lengthAdjust="spacing" textLength="66" x="150" y="606.2104">-Integer NIF</text><text fill="#000000" font-family="sans-serif" font-size="11" lengthAdjust="spacing" textLength="84" x="150" y="619.0151">-String morada</text><line style="stroke:#A80036;stroke-width:1.5;" x1="145" x2="335" y1="625.6094" y2="625.6094"/><text fill="#000000" font-family="sans-serif" font-size="11" lengthAdjust="spacing" textLength="180" x="150" y="639.8198">+Farmacia(Integer NIF, morada)</text><!--MD5=[36c1942e8942a3e4f47e6de3733e3d18]
class Endereco--><rect codeLine="9" fill="#FEFECE" filter="url(#f9cj281uwmimt)" height="112.0234" id="Endereco" style="stroke:#A80036;stroke-width:1.5;" width="458" x="281" y="912"/><ellipse cx="476.75" cy="928" fill="#ADD1B2" rx="11" ry="11" style="stroke:#A80036;stroke-width:1.0;"/><path d="M479.0938,923.6719 C478.1563,923.2344 477.5625,923.0938 476.6875,923.0938 C474.0625,923.0938 472.0625,925.1719 472.0625,927.8906 L472.0625,929.0156 C472.0625,931.5938 474.1719,933.4844 477.0625,933.4844 C478.2813,933.4844 479.4375,933.1875 480.1875,932.6406 C480.7656,932.2344 481.0938,931.7813 481.0938,931.3906 C481.0938,930.9375 480.7031,930.5469 480.2344,930.5469 C480.0156,930.5469 479.8125,930.625 479.625,930.8125 C479.1719,931.2969 479.1719,931.2969 478.9844,931.3906 C478.5625,931.6563 477.875,931.7813 477.1094,931.7813 C475.0625,931.7813 473.7656,930.6875 473.7656,928.9844 L473.7656,927.8906 C473.7656,926.1094 475.0156,924.7969 476.75,924.7969 C477.3281,924.7969 477.9375,924.9531 478.4063,925.2031 C478.8906,925.4844 479.0625,925.7031 479.1563,926.1094 C479.2188,926.5156 479.25,926.6406 479.3906,926.7656 C479.5313,926.9063 479.7656,927.0156 479.9844,927.0156 C480.25,927.0156 480.5156,926.875 480.6875,926.6563 C480.7969,926.5 480.8281,926.3125 480.8281,925.8906 L480.8281,924.4688 C480.8281,924.0313 480.8125,923.9063 480.7188,923.75 C480.5625,923.4844 480.2813,923.3438 479.9844,923.3438 C479.6875,923.3438 479.4844,923.4375 479.2656,923.75 L479.0938,923.6719 Z " fill="#000000"/><text fill="#000000" font-family="sans-serif" font-size="12" lengthAdjust="spacing" textLength="58" x="497.25" y="932.1543">Endereco</text><line style="stroke:#A80036;stroke-width:1.5;" x1="282" x2="738" y1="944" y2="944"/><text fill="#000000" font-family="sans-serif" font-size="11" lengthAdjust="spacing" textLength="84" x="287" y="958.2104">-String morada</text><text fill="#000000" font-family="sans-serif" font-size="11" lengthAdjust="spacing" textLength="92" x="287" y="971.0151">-Double latitude</text><text fill="#000000" font-family="sans-serif" font-size="11" lengthAdjust="spacing" textLength="102" x="287" y="983.8198">-Double longitude</text><text fill="#000000" font-family="sans-serif" font-size="11" lengthAdjust="spacing" textLength="92" x="287" y="996.6245">-Double altitude</text><line style="stroke:#A80036;stroke-width:1.5;" x1="282" x2="738" y1="1003.2188" y2="1003.2188"/><text fill="#000000" font-family="sans-serif" font-size="11" lengthAdjust="spacing" textLength="446" x="287" y="1017.4292">+Endereco(String morada, Double latitude, Double longitude, Double altitude)</text><!--MD5=[1a083dbe42a284ae0ea7f6f701783206]
class Parque--><rect codeLine="17" fill="#FEFECE" filter="url(#f9cj281uwmimt)" height="112.0234" id="Parque" style="stroke:#A80036;stroke-width:1.5;" width="437" x="291.5" y="723"/><ellipse cx="485.25" cy="739" fill="#ADD1B2" rx="11" ry="11" style="stroke:#A80036;stroke-width:1.0;"/><path d="M487.5938,734.6719 C486.6563,734.2344 486.0625,734.0938 485.1875,734.0938 C482.5625,734.0938 480.5625,736.1719 480.5625,738.8906 L480.5625,740.0156 C480.5625,742.5938 482.6719,744.4844 485.5625,744.4844 C486.7813,744.4844 487.9375,744.1875 488.6875,743.6406 C489.2656,743.2344 489.5938,742.7813 489.5938,742.3906 C489.5938,741.9375 489.2031,741.5469 488.7344,741.5469 C488.5156,741.5469 488.3125,741.625 488.125,741.8125 C487.6719,742.2969 487.6719,742.2969 487.4844,742.3906 C487.0625,742.6563 486.375,742.7813 485.6094,742.7813 C483.5625,742.7813 482.2656,741.6875 482.2656,739.9844 L482.2656,738.8906 C482.2656,737.1094 483.5156,735.7969 485.25,735.7969 C485.8281,735.7969 486.4375,735.9531 486.9063,736.2031 C487.3906,736.4844 487.5625,736.7031 487.6563,737.1094 C487.7188,737.5156 487.75,737.6406 487.8906,737.7656 C488.0313,737.9063 488.2656,738.0156 488.4844,738.0156 C488.75,738.0156 489.0156,737.875 489.1875,737.6563 C489.2969,737.5 489.3281,737.3125 489.3281,736.8906 L489.3281,735.4688 C489.3281,735.0313 489.3125,734.9063 489.2188,734.75 C489.0625,734.4844 488.7813,734.3438 488.4844,734.3438 C488.1875,734.3438 487.9844,734.4375 487.7656,734.75 L487.5938,734.6719 Z " fill="#000000"/><text fill="#000000" font-family="sans-serif" font-size="12" lengthAdjust="spacing" textLength="41" x="505.75" y="743.1543">Parque</text><line style="stroke:#A80036;stroke-width:1.5;" x1="292.5" x2="727.5" y1="755" y2="755"/><text fill="#000000" font-family="sans-serif" font-size="11" lengthAdjust="spacing" textLength="66" x="297.5" y="769.2104">-Integer NIF</text><text fill="#000000" font-family="sans-serif" font-size="11" lengthAdjust="spacing" textLength="84" x="297.5" y="782.0151">-String morada</text><text fill="#000000" font-family="sans-serif" font-size="11" lengthAdjust="spacing" textLength="137" x="297.5" y="794.8198">-Integer numeroMaximo</text><text fill="#000000" font-family="sans-serif" font-size="11" lengthAdjust="spacing" textLength="62" x="297.5" y="807.6245">-String tipo</text><line style="stroke:#A80036;stroke-width:1.5;" x1="292.5" x2="727.5" y1="814.2188" y2="814.2188"/><text fill="#000000" font-family="sans-serif" font-size="11" lengthAdjust="spacing" textLength="425" x="297.5" y="828.4292">+Endereco(Integer NIF, String morada, Integer numeroMaximo, String tipo)</text><!--MD5=[364aec0fc02518cb9ab31cd04b585b1a]
class FarmaciaDB--><rect codeLine="25" fill="#FEFECE" filter="url(#f9cj281uwmimt)" height="99.2188" id="FarmaciaDB" style="stroke:#A80036;stroke-width:1.5;" width="230" x="59" y="302"/><ellipse cx="134.25" cy="318" fill="#ADD1B2" rx="11" ry="11" style="stroke:#A80036;stroke-width:1.0;"/><path d="M136.5938,313.6719 C135.6563,313.2344 135.0625,313.0938 134.1875,313.0938 C131.5625,313.0938 129.5625,315.1719 129.5625,317.8906 L129.5625,319.0156 C129.5625,321.5938 131.6719,323.4844 134.5625,323.4844 C135.7813,323.4844 136.9375,323.1875 137.6875,322.6406 C138.2656,322.2344 138.5938,321.7813 138.5938,321.3906 C138.5938,320.9375 138.2031,320.5469 137.7344,320.5469 C137.5156,320.5469 137.3125,320.625 137.125,320.8125 C136.6719,321.2969 136.6719,321.2969 136.4844,321.3906 C136.0625,321.6563 135.375,321.7813 134.6094,321.7813 C132.5625,321.7813 131.2656,320.6875 131.2656,318.9844 L131.2656,317.8906 C131.2656,316.1094 132.5156,314.7969 134.25,314.7969 C134.8281,314.7969 135.4375,314.9531 135.9063,315.2031 C136.3906,315.4844 136.5625,315.7031 136.6563,316.1094 C136.7188,316.5156 136.75,316.6406 136.8906,316.7656 C137.0313,316.9063 137.2656,317.0156 137.4844,317.0156 C137.75,317.0156 138.0156,316.875 138.1875,316.6563 C138.2969,316.5 138.3281,316.3125 138.3281,315.8906 L138.3281,314.4688 C138.3281,314.0313 138.3125,313.9063 138.2188,313.75 C138.0625,313.4844 137.7813,313.3438 137.4844,313.3438 C137.1875,313.3438 136.9844,313.4375 136.7656,313.75 L136.5938,313.6719 Z " fill="#000000"/><text fill="#000000" font-family="sans-serif" font-size="12" lengthAdjust="spacing" textLength="71" x="154.75" y="322.1543">FarmaciaDB</text><line style="stroke:#A80036;stroke-width:1.5;" x1="60" x2="288" y1="334" y2="334"/><line style="stroke:#A80036;stroke-width:1.5;" x1="60" x2="288" y1="342" y2="342"/><text fill="#000000" font-family="sans-serif" font-size="11" lengthAdjust="spacing" textLength="218" x="65" y="356.2104">+Farmacia novaFarmacia(NIF, morada)</text><text fill="#000000" font-family="sans-serif" font-size="11" lengthAdjust="spacing" textLength="188" x="65" y="369.0151">+registaFarmacia(Farmacia farm)</text><text fill="#000000" font-family="sans-serif" font-size="11" lengthAdjust="spacing" textLength="183" x="65" y="381.8198">+validaFarmacia(Farmacia farm)</text><text fill="#000000" font-family="sans-serif" font-size="11" lengthAdjust="spacing" textLength="165" x="65" y="394.6245">-addFarmacia(Farmacia farm)</text><!--MD5=[a8381305e32feabadf74eb10f0c047ba]
class EnderecoDB--><rect codeLine="32" fill="#FEFECE" filter="url(#f9cj281uwmimt)" height="99.2188" id="EnderecoDB" style="stroke:#A80036;stroke-width:1.5;" width="544" x="803" y="431"/><ellipse cx="1033.25" cy="447" fill="#ADD1B2" rx="11" ry="11" style="stroke:#A80036;stroke-width:1.0;"/><path d="M1035.5938,442.6719 C1034.6563,442.2344 1034.0625,442.0938 1033.1875,442.0938 C1030.5625,442.0938 1028.5625,444.1719 1028.5625,446.8906 L1028.5625,448.0156 C1028.5625,450.5938 1030.6719,452.4844 1033.5625,452.4844 C1034.7813,452.4844 1035.9375,452.1875 1036.6875,451.6406 C1037.2656,451.2344 1037.5938,450.7813 1037.5938,450.3906 C1037.5938,449.9375 1037.2031,449.5469 1036.7344,449.5469 C1036.5156,449.5469 1036.3125,449.625 1036.125,449.8125 C1035.6719,450.2969 1035.6719,450.2969 1035.4844,450.3906 C1035.0625,450.6563 1034.375,450.7813 1033.6094,450.7813 C1031.5625,450.7813 1030.2656,449.6875 1030.2656,447.9844 L1030.2656,446.8906 C1030.2656,445.1094 1031.5156,443.7969 1033.25,443.7969 C1033.8281,443.7969 1034.4375,443.9531 1034.9063,444.2031 C1035.3906,444.4844 1035.5625,444.7031 1035.6563,445.1094 C1035.7188,445.5156 1035.75,445.6406 1035.8906,445.7656 C1036.0313,445.9063 1036.2656,446.0156 1036.4844,446.0156 C1036.75,446.0156 1037.0156,445.875 1037.1875,445.6563 C1037.2969,445.5 1037.3281,445.3125 1037.3281,444.8906 L1037.3281,443.4688 C1037.3281,443.0313 1037.3125,442.9063 1037.2188,442.75 C1037.0625,442.4844 1036.7813,442.3438 1036.4844,442.3438 C1036.1875,442.3438 1035.9844,442.4375 1035.7656,442.75 L1035.5938,442.6719 Z " fill="#000000"/><text fill="#000000" font-family="sans-serif" font-size="12" lengthAdjust="spacing" textLength="75" x="1053.75" y="451.1543">EnderecoDB</text><line style="stroke:#A80036;stroke-width:1.5;" x1="804" x2="1346" y1="463" y2="463"/><line style="stroke:#A80036;stroke-width:1.5;" x1="804" x2="1346" y1="471" y2="471"/><text fill="#000000" font-family="sans-serif" font-size="11" lengthAdjust="spacing" textLength="532" x="809" y="485.2104">+Endereco novoEndereco(String morada, Double latitude, Double longitude, Double altitude)</text><text fill="#000000" font-family="sans-serif" font-size="11" lengthAdjust="spacing" textLength="190" x="809" y="498.0151">+registaEndereco(Endereco end)</text><text fill="#000000" font-family="sans-serif" font-size="11" lengthAdjust="spacing" textLength="185" x="809" y="510.8198">+validaEndereco(Endereco end)</text><text fill="#000000" font-family="sans-serif" font-size="11" lengthAdjust="spacing" textLength="167" x="809" y="523.6245">-addEndereco(Endereco end)</text><!--MD5=[021650fd5270df78a3629eada2205323]
class ParqueDB--><rect codeLine="39" fill="#FEFECE" filter="url(#f9cj281uwmimt)" height="99.2188" id="ParqueDB" style="stroke:#A80036;stroke-width:1.5;" width="493" x="263.5" y="431"/><ellipse cx="476.75" cy="447" fill="#ADD1B2" rx="11" ry="11" style="stroke:#A80036;stroke-width:1.0;"/><path d="M479.0938,442.6719 C478.1563,442.2344 477.5625,442.0938 476.6875,442.0938 C474.0625,442.0938 472.0625,444.1719 472.0625,446.8906 L472.0625,448.0156 C472.0625,450.5938 474.1719,452.4844 477.0625,452.4844 C478.2813,452.4844 479.4375,452.1875 480.1875,451.6406 C480.7656,451.2344 481.0938,450.7813 481.0938,450.3906 C481.0938,449.9375 480.7031,449.5469 480.2344,449.5469 C480.0156,449.5469 479.8125,449.625 479.625,449.8125 C479.1719,450.2969 479.1719,450.2969 478.9844,450.3906 C478.5625,450.6563 477.875,450.7813 477.1094,450.7813 C475.0625,450.7813 473.7656,449.6875 473.7656,447.9844 L473.7656,446.8906 C473.7656,445.1094 475.0156,443.7969 476.75,443.7969 C477.3281,443.7969 477.9375,443.9531 478.4063,444.2031 C478.8906,444.4844 479.0625,444.7031 479.1563,445.1094 C479.2188,445.5156 479.25,445.6406 479.3906,445.7656 C479.5313,445.9063 479.7656,446.0156 479.9844,446.0156 C480.25,446.0156 480.5156,445.875 480.6875,445.6563 C480.7969,445.5 480.8281,445.3125 480.8281,444.8906 L480.8281,443.4688 C480.8281,443.0313 480.8125,442.9063 480.7188,442.75 C480.5625,442.4844 480.2813,442.3438 479.9844,442.3438 C479.6875,442.3438 479.4844,442.4375 479.2656,442.75 L479.0938,442.6719 Z " fill="#000000"/><text fill="#000000" font-family="sans-serif" font-size="12" lengthAdjust="spacing" textLength="58" x="497.25" y="451.1543">ParqueDB</text><line style="stroke:#A80036;stroke-width:1.5;" x1="264.5" x2="755.5" y1="463" y2="463"/><line style="stroke:#A80036;stroke-width:1.5;" x1="264.5" x2="755.5" y1="471" y2="471"/><text fill="#000000" font-family="sans-serif" font-size="11" lengthAdjust="spacing" textLength="481" x="269.5" y="485.2104">+Parque novoParque(Integer NIF, String morada, Integer numeroMaximo, String tipo)</text><text fill="#000000" font-family="sans-serif" font-size="11" lengthAdjust="spacing" textLength="178" x="269.5" y="498.0151">+registaParque(Parque parque)</text><text fill="#000000" font-family="sans-serif" font-size="11" lengthAdjust="spacing" textLength="173" x="269.5" y="510.8198">+validaParque(Parque parque)</text><text fill="#000000" font-family="sans-serif" font-size="11" lengthAdjust="spacing" textLength="155" x="269.5" y="523.6245">-addParque(Parque parque)</text><!--MD5=[292cbfdf48ee96a1c6d5c40c7ba01c14]
class RegistarFarmaciaController--><rect codeLine="46" fill="#FEFECE" filter="url(#f9cj281uwmimt)" height="124.8281" id="RegistarFarmaciaController" style="stroke:#A80036;stroke-width:1.5;" width="450" x="201" y="116"/><ellipse cx="340.75" cy="132" fill="#ADD1B2" rx="11" ry="11" style="stroke:#A80036;stroke-width:1.0;"/><path d="M343.0938,127.6719 C342.1563,127.2344 341.5625,127.0938 340.6875,127.0938 C338.0625,127.0938 336.0625,129.1719 336.0625,131.8906 L336.0625,133.0156 C336.0625,135.5938 338.1719,137.4844 341.0625,137.4844 C342.2813,137.4844 343.4375,137.1875 344.1875,136.6406 C344.7656,136.2344 345.0938,135.7813 345.0938,135.3906 C345.0938,134.9375 344.7031,134.5469 344.2344,134.5469 C344.0156,134.5469 343.8125,134.625 343.625,134.8125 C343.1719,135.2969 343.1719,135.2969 342.9844,135.3906 C342.5625,135.6563 341.875,135.7813 341.1094,135.7813 C339.0625,135.7813 337.7656,134.6875 337.7656,132.9844 L337.7656,131.8906 C337.7656,130.1094 339.0156,128.7969 340.75,128.7969 C341.3281,128.7969 341.9375,128.9531 342.4063,129.2031 C342.8906,129.4844 343.0625,129.7031 343.1563,130.1094 C343.2188,130.5156 343.25,130.6406 343.3906,130.7656 C343.5313,130.9063 343.7656,131.0156 343.9844,131.0156 C344.25,131.0156 344.5156,130.875 344.6875,130.6563 C344.7969,130.5 344.8281,130.3125 344.8281,129.8906 L344.8281,128.4688 C344.8281,128.0313 344.8125,127.9063 344.7188,127.75 C344.5625,127.4844 344.2813,127.3438 343.9844,127.3438 C343.6875,127.3438 343.4844,127.4375 343.2656,127.75 L343.0938,127.6719 Z " fill="#000000"/><text fill="#000000" font-family="sans-serif" font-size="12" lengthAdjust="spacing" textLength="162" x="361.25" y="136.1543">RegistarFarmaciaController</text><line style="stroke:#A80036;stroke-width:1.5;" x1="202" x2="650" y1="148" y2="148"/><line style="stroke:#A80036;stroke-width:1.5;" x1="202" x2="650" y1="156" y2="156"/><text fill="#000000" font-family="sans-serif" font-size="11" lengthAdjust="spacing" textLength="163" x="207" y="170.2104">+novaFarmacia(NIF, morada)</text><text fill="#000000" font-family="sans-serif" font-size="11" lengthAdjust="spacing" textLength="302" x="207" y="183.0151">+novoEndereco(morada, latitude, longitude, altitude)</text><text fill="#000000" font-family="sans-serif" font-size="11" lengthAdjust="spacing" textLength="438" x="207" y="195.8198">+novoParque(Integer NIF, String morada, Integer numeroMaximo, String tipo)</text><text fill="#000000" font-family="sans-serif" font-size="11" lengthAdjust="spacing" textLength="133" x="207" y="208.6245">+registaFarmacia(farm)</text><text fill="#000000" font-family="sans-serif" font-size="11" lengthAdjust="spacing" textLength="132" x="207" y="221.4292">+registaEndereco(end)</text><text fill="#000000" font-family="sans-serif" font-size="11" lengthAdjust="spacing" textLength="135" x="207" y="234.2339">+registaParque(parque)</text><!--MD5=[16f25527ba70f62c202fb8dd84cb3d2e]
class RegistarFarmaciaUI--><rect codeLine="55" fill="#FEFECE" filter="url(#f9cj281uwmimt)" height="48" id="RegistarFarmaciaUI" style="stroke:#A80036;stroke-width:1.5;" width="147" x="352.5" y="7"/><ellipse cx="367.5" cy="23" fill="#ADD1B2" rx="11" ry="11" style="stroke:#A80036;stroke-width:1.0;"/><path d="M369.8438,18.6719 C368.9063,18.2344 368.3125,18.0938 367.4375,18.0938 C364.8125,18.0938 362.8125,20.1719 362.8125,22.8906 L362.8125,24.0156 C362.8125,26.5938 364.9219,28.4844 367.8125,28.4844 C369.0313,28.4844 370.1875,28.1875 370.9375,27.6406 C371.5156,27.2344 371.8438,26.7813 371.8438,26.3906 C371.8438,25.9375 371.4531,25.5469 370.9844,25.5469 C370.7656,25.5469 370.5625,25.625 370.375,25.8125 C369.9219,26.2969 369.9219,26.2969 369.7344,26.3906 C369.3125,26.6563 368.625,26.7813 367.8594,26.7813 C365.8125,26.7813 364.5156,25.6875 364.5156,23.9844 L364.5156,22.8906 C364.5156,21.1094 365.7656,19.7969 367.5,19.7969 C368.0781,19.7969 368.6875,19.9531 369.1563,20.2031 C369.6406,20.4844 369.8125,20.7031 369.9063,21.1094 C369.9688,21.5156 370,21.6406 370.1406,21.7656 C370.2813,21.9063 370.5156,22.0156 370.7344,22.0156 C371,22.0156 371.2656,21.875 371.4375,21.6563 C371.5469,21.5 371.5781,21.3125 371.5781,20.8906 L371.5781,19.4688 C371.5781,19.0313 371.5625,18.9063 371.4688,18.75 C371.3125,18.4844 371.0313,18.3438 370.7344,18.3438 C370.4375,18.3438 370.2344,18.4375 370.0156,18.75 L369.8438,18.6719 Z " fill="#000000"/><text fill="#000000" font-family="sans-serif" font-size="12" lengthAdjust="spacing" textLength="115" x="381.5" y="27.1543">RegistarFarmaciaUI</text><line style="stroke:#A80036;stroke-width:1.5;" x1="353.5" x2="498.5" y1="39" y2="39"/><line style="stroke:#A80036;stroke-width:1.5;" x1="353.5" x2="498.5" y1="47" y2="47"/><!--MD5=[f96a217cc99f82e5dda83e4db29e3f0d]
link RegistarFarmaciaUI to RegistarFarmaciaController--><path codeLine="59" d="M426,55.055 C426,70.198 426,90.845 426,110.869 " fill="none" id="RegistarFarmaciaUI-to-RegistarFarmaciaController" style="stroke:#A80036;stroke-width:1.0;stroke-dasharray:7.0,7.0;"/><polygon fill="#A80036" points="426,115.942,430,106.942,426,110.942,422,106.942,426,115.942" style="stroke:#A80036;stroke-width:1.0;"/><!--MD5=[cf385d46b982f44bba418de29d938ed9]
link RegistarFarmaciaController to ParqueDB--><path codeLine="60" d="M443.303,241.296 C458.517,295.632 480.437,373.917 494.941,425.716 " fill="none" id="RegistarFarmaciaController-to-ParqueDB" style="stroke:#A80036;stroke-width:1.0;stroke-dasharray:7.0,7.0;"/><polygon fill="#A80036" points="496.32,430.645,497.7441,420.8996,494.9713,425.8303,490.0406,423.0575,496.32,430.645" style="stroke:#A80036;stroke-width:1.0;"/><!--MD5=[cedf4e2fac6be50e74b26344cb9b6128]
link RegistarFarmaciaController to EnderecoDB--><path codeLine="61" d="M651.471,217.199 C703.685,230.411 757.984,247.934 806,271 C889.053,310.897 970.736,379.551 1021.9,427.125 " fill="none" id="RegistarFarmaciaController-to-EnderecoDB" style="stroke:#A80036;stroke-width:1.0;stroke-dasharray:7.0,7.0;"/><polygon fill="#A80036" points="1025.84,430.799,1021.9928,421.7326,1022.1859,427.3862,1016.5323,427.5792,1025.84,430.799" style="stroke:#A80036;stroke-width:1.0;"/><!--MD5=[ee0f888f82e00ad1821accfbab9741d8]
link RegistarFarmaciaController to FarmaciaDB--><path codeLine="62" d="M335.022,241.235 C307.053,260.214 276.584,280.89 249.75,299.098 " fill="none" id="RegistarFarmaciaController-to-FarmaciaDB" style="stroke:#A80036;stroke-width:1.0;stroke-dasharray:7.0,7.0;"/><polygon fill="#A80036" points="245.476,301.998,255.1693,300.2547,249.6135,299.1906,250.6776,293.6348,245.476,301.998" style="stroke:#A80036;stroke-width:1.0;"/><!--MD5=[aa9f67082c51c82a1ba912278ea26989]
link RegistarFarmaciaController to Parque--><path codeLine="63" d="M557.705,241.126 C631.202,283.281 716.163,346.821 758,431 C812.582,540.822 692.738,653.782 601.315,719.853 " fill="none" id="RegistarFarmaciaController-to-Parque" style="stroke:#A80036;stroke-width:1.0;stroke-dasharray:7.0,7.0;"/><polygon fill="#A80036" points="596.984,722.964,606.627,720.9609,601.0445,720.0465,601.959,714.464,596.984,722.964" style="stroke:#A80036;stroke-width:1.0;"/><!--MD5=[1108c8e87a0035f633b3288171c413ba]
link RegistarFarmaciaController to Endereco--><path codeLine="64" d="M200.938,231.625 C101.1916,261.473 6,302.525 6,350.5 C6,350.5 6,350.5 6,780 C6,842.543 144.144,890.854 275.784,922.692 " fill="none" id="RegistarFarmaciaController-to-Endereco" style="stroke:#A80036;stroke-width:1.0;stroke-dasharray:7.0,7.0;"/><polygon fill="#A80036" points="280.859,923.912,273.0431,917.9194,275.9975,922.7434,271.1734,925.6978,280.859,923.912" style="stroke:#A80036;stroke-width:1.0;"/><!--MD5=[45e10d883f52dd70f1944020196c5274]
link RegistarFarmaciaController to Farmacia--><path codeLine="65" d="M402.065,241.28 C381.58,288.675 348.646,353.769 306,401 C290.138,418.567 274.375,410.824 262,431 C239.253,468.087 235.245,518.185 236.029,554.564 " fill="none" id="RegistarFarmaciaController-to-Farmacia" style="stroke:#A80036;stroke-width:1.0;stroke-dasharray:7.0,7.0;"/><polygon fill="#A80036" points="236.178,559.829,239.9219,550.7195,236.0366,554.831,231.9251,550.9457,236.178,559.829" style="stroke:#A80036;stroke-width:1.0;"/><!--MD5=[e5dbbc54f46538fc7b7077d28b1f914b]
link ParqueDB to Parque--><path codeLine="67" d="M510,530.129 C510,581.377 510,662.186 510,717.513 " fill="none" id="ParqueDB-to-Parque" style="stroke:#A80036;stroke-width:1.0;"/><polygon fill="#A80036" points="510,722.786,514,713.786,510,717.786,506,713.786,510,722.786" style="stroke:#A80036;stroke-width:1.0;"/><text fill="#000000" font-family="sans-serif" font-size="13" lengthAdjust="spacing" textLength="41" x="511" y="607.5669">possui</text><text fill="#000000" font-family="sans-serif" font-size="13" lengthAdjust="spacing" textLength="8" x="501.4375" y="550.2236">1</text><text fill="#000000" font-family="sans-serif" font-size="13" lengthAdjust="spacing" textLength="7" x="502.5734" y="712.0944">*</text><!--MD5=[c023e2c3fa599b931e4bde319636976a]
link EnderecoDB to Endereco--><path codeLine="68" d="M1038.04,530.014 C981.035,602.616 865.684,741.029 746,835 C710.518,862.859 668.421,888.402 629.675,909.443 " fill="none" id="EnderecoDB-to-Endereco" style="stroke:#A80036;stroke-width:1.0;"/><polygon fill="#A80036" points="624.967,911.986,634.7865,911.226,629.3657,909.6088,630.9829,904.188,624.967,911.986" style="stroke:#A80036;stroke-width:1.0;"/><text fill="#000000" font-family="sans-serif" font-size="13" lengthAdjust="spacing" textLength="41" x="913" y="689.0669">possui</text><text fill="#000000" font-family="sans-serif" font-size="13" lengthAdjust="spacing" textLength="8" x="1024.024" y="550.4485">1</text><text fill="#000000" font-family="sans-serif" font-size="13" lengthAdjust="spacing" textLength="7" x="632.2487" y="900.9222">*</text><!--MD5=[3c539b0dd2212e8322efef71ee8cdfc2]
link FarmaciaDB to Farmacia--><path codeLine="69" d="M163.278,401.049 C157.471,437.804 154.453,488.819 171,530 C174.649,539.082 180.051,547.664 186.254,555.523 " fill="none" id="FarmaciaDB-to-Farmacia" style="stroke:#A80036;stroke-width:1.0;"/><polygon fill="#A80036" points="189.777,559.814,187.1573,550.3199,186.6041,555.9497,180.9744,555.3965,189.777,559.814" style="stroke:#A80036;stroke-width:1.0;"/><text fill="#000000" font-family="sans-serif" font-size="13" lengthAdjust="spacing" textLength="41" x="172" y="485.0669">possui</text><text fill="#000000" font-family="sans-serif" font-size="13" lengthAdjust="spacing" textLength="8" x="153.2077" y="421.1324">1</text><text fill="#000000" font-family="sans-serif" font-size="13" lengthAdjust="spacing" textLength="7" x="174.2149" y="548.7804">*</text><!--MD5=[4f96609c99ecadb81dc825d0ae539cef]
link Farmacia to Parque--><path codeLine="70" d="M305.359,646.121 C339.778,668.301 382.513,695.842 420.015,720.01 " fill="none" id="Farmacia-to-Parque" style="stroke:#A80036;stroke-width:1.0;"/><polygon fill="#A80036" points="424.562,722.94,419.1638,714.7023,420.3592,720.2314,414.8301,721.4269,424.562,722.94" style="stroke:#A80036;stroke-width:1.0;"/><text fill="#000000" font-family="sans-serif" font-size="13" lengthAdjust="spacing" textLength="26" x="376" y="689.0669">tem</text><text fill="#000000" font-family="sans-serif" font-size="13" lengthAdjust="spacing" textLength="8" x="307.5216" y="666.5487">1</text><text fill="#000000" font-family="sans-serif" font-size="13" lengthAdjust="spacing" textLength="8" x="405.1028" y="711.8703">1</text><!--MD5=[65c0b4ced80642714d633a5480d06ed6]
link Parque to Endereco--><path codeLine="71" d="M510,835.095 C510,857.631 510,883.77 510,906.806 " fill="none" id="Parque-to-Endereco" style="stroke:#A80036;stroke-width:1.0;"/><polygon fill="#A80036" points="510,911.976,514,902.976,510,906.976,506,902.976,510,911.976" style="stroke:#A80036;stroke-width:1.0;"/><text fill="#000000" font-family="sans-serif" font-size="13" lengthAdjust="spacing" textLength="26" x="511" y="878.0669">tem</text><text fill="#000000" font-family="sans-serif" font-size="13" lengthAdjust="spacing" textLength="8" x="501.5125" y="854.9192">1</text><text fill="#000000" font-family="sans-serif" font-size="13" lengthAdjust="spacing" textLength="8" x="501.4875" y="900.9109">1</text><!--MD5=[17680ca26446fdcee1ee2f11b5d2818e]
@startuml
skinparam classAttributeIconSize 0

class Farmacia {
  -Integer NIF
  -String morada
  +Farmacia(Integer NIF, morada)
}

class Endereco {
  -String morada
  -Double latitude
  -Double longitude
  -Double altitude 
  +Endereco(String morada, Double latitude, Double longitude, Double altitude)
}

class Parque {
  -Integer NIF
  -String morada
  -Integer numeroMaximo
  -String tipo
  +Endereco(Integer NIF, String morada, Integer numeroMaximo, String tipo)
}

class FarmaciaDB {
  +Farmacia novaFarmacia(NIF, morada)
  +registaFarmacia(Farmacia farm)
  +validaFarmacia(Farmacia farm)
  -addFarmacia(Farmacia farm)
}

class EnderecoDB {
  +Endereco novoEndereco(String morada, Double latitude, Double longitude, Double altitude)
  +registaEndereco(Endereco end)
  +validaEndereco(Endereco end)
  -addEndereco(Endereco end)
}

class ParqueDB {
  +Parque novoParque(Integer NIF, String morada, Integer numeroMaximo, String tipo)
  +registaParque(Parque parque)
  +validaParque(Parque parque)
  -addParque(Parque parque)
}

class RegistarFarmaciaController {
  +novaFarmacia(NIF, morada)
  +novoEndereco(morada, latitude, longitude, altitude)
  +novoParque(Integer NIF, String morada, Integer numeroMaximo, String tipo)
  +registaFarmacia(farm)
  +registaEndereco(end)
  +registaParque(parque)
}

class RegistarFarmaciaUI {
  
}

RegistarFarmaciaUI ..> RegistarFarmaciaController
RegistarFarmaciaController ..> ParqueDB
RegistarFarmaciaController ..> EnderecoDB
RegistarFarmaciaController ..> FarmaciaDB
RegistarFarmaciaController ..> Parque
RegistarFarmaciaController ..> Endereco
RegistarFarmaciaController ..> Farmacia

ParqueDB "1" - -> "*" Parque : possui
EnderecoDB "1" - -> "*" Endereco : possui
FarmaciaDB "1" - -> "*" Farmacia : possui
Farmacia "1" - -> "1" Parque : tem
Parque "1" - -> "1" Endereco : tem
@enduml

PlantUML version 1.2020.27beta8(Unknown compile time)
(GPL source distribution)
Java Runtime: Java(TM) SE Runtime Environment
JVM: Java HotSpot(TM) 64-Bit Server VM
Default Encoding: UTF-8
Language: en
Country: US
--></g></svg>