<?xml version="1.0" encoding="UTF-8" standalone="no"?><svg xmlns="http://www.w3.org/2000/svg" xmlns:xlink="http://www.w3.org/1999/xlink" contentScriptType="application/ecmascript" contentStyleType="text/css" height="1026px" preserveAspectRatio="none" style="width:1346px;height:1026px;" version="1.1" viewBox="0 0 1346 1026" width="1346px" zoomAndPan="magnify"><defs><filter height="300%" id="f1p49qmyo42ngc" width="300%" x="-1" y="-1"><feGaussianBlur result="blurOut" stdDeviation="2.0"/><feColorMatrix in="blurOut" result="blurOut2" type="matrix" values="0 0 0 0 0 0 0 0 0 0 0 0 0 0 0 0 0 0 .4 0"/><feOffset dx="4.0" dy="4.0" in="blurOut2" result="blurOut3"/><feBlend in="SourceGraphic" in2="blurOut3" mode="normal"/></filter></defs><g><!--MD5=[6613c9cd406ef433ff06f5e98b28abd9]
class Farmacia--><rect codeLine="3" fill="#FEFECE" filter="url(#f1p49qmyo42ngc)" height="73.6094" id="Farmacia" style="stroke:#A80036;stroke-width:1.5;" width="142" x="154" y="560"/><ellipse cx="194.2" cy="576" fill="#ADD1B2" rx="11" ry="11" style="stroke:#A80036;stroke-width:1.0;"/><path d="M196.5438,571.6719 C195.6063,571.2344 195.0125,571.0938 194.1375,571.0938 C191.5125,571.0938 189.5125,573.1719 189.5125,575.8906 L189.5125,577.0156 C189.5125,579.5938 191.6219,581.4844 194.5125,581.4844 C195.7313,581.4844 196.8875,581.1875 197.6375,580.6406 C198.2156,580.2344 198.5438,579.7813 198.5438,579.3906 C198.5438,578.9375 198.1531,578.5469 197.6844,578.5469 C197.4656,578.5469 197.2625,578.625 197.075,578.8125 C196.6219,579.2969 196.6219,579.2969 196.4344,579.3906 C196.0125,579.6563 195.325,579.7813 194.5594,579.7813 C192.5125,579.7813 191.2156,578.6875 191.2156,576.9844 L191.2156,575.8906 C191.2156,574.1094 192.4656,572.7969 194.2,572.7969 C194.7781,572.7969 195.3875,572.9531 195.8563,573.2031 C196.3406,573.4844 196.5125,573.7031 196.6063,574.1094 C196.6688,574.5156 196.7,574.6406 196.8406,574.7656 C196.9813,574.9063 197.2156,575.0156 197.4344,575.0156 C197.7,575.0156 197.9656,574.875 198.1375,574.6563 C198.2469,574.5 198.2781,574.3125 198.2781,573.8906 L198.2781,572.4688 C198.2781,572.0313 198.2625,571.9063 198.1688,571.75 C198.0125,571.4844 197.7313,571.3438 197.4344,571.3438 C197.1375,571.3438 196.9344,571.4375 196.7156,571.75 L196.5438,571.6719 Z " fill="#000000"/><text fill="#000000" font-family="sans-serif" font-size="12" lengthAdjust="spacing" textLength="54" x="213.8" y="580.1543">Farmacia</text><line style="stroke:#A80036;stroke-width:1.5;" x1="155" x2="295" y1="592" y2="592"/><text fill="#000000" font-family="sans-serif" font-size="11" lengthAdjust="spacing" textLength="66" x="160" y="606.2104">-Integer NIF</text><line style="stroke:#A80036;stroke-width:1.5;" x1="155" x2="295" y1="612.8047" y2="612.8047"/><text fill="#000000" font-family="sans-serif" font-size="11" lengthAdjust="spacing" textLength="130" x="160" y="627.0151">+Farmacia(Integer NIF)</text><!--MD5=[36c1942e8942a3e4f47e6de3733e3d18]
class Endereco--><rect codeLine="8" fill="#FEFECE" filter="url(#f1p49qmyo42ngc)" height="112.0234" id="Endereco" style="stroke:#A80036;stroke-width:1.5;" width="458" x="266" y="900"/><ellipse cx="461.75" cy="916" fill="#ADD1B2" rx="11" ry="11" style="stroke:#A80036;stroke-width:1.0;"/><path d="M464.0938,911.6719 C463.1563,911.2344 462.5625,911.0938 461.6875,911.0938 C459.0625,911.0938 457.0625,913.1719 457.0625,915.8906 L457.0625,917.0156 C457.0625,919.5938 459.1719,921.4844 462.0625,921.4844 C463.2813,921.4844 464.4375,921.1875 465.1875,920.6406 C465.7656,920.2344 466.0938,919.7813 466.0938,919.3906 C466.0938,918.9375 465.7031,918.5469 465.2344,918.5469 C465.0156,918.5469 464.8125,918.625 464.625,918.8125 C464.1719,919.2969 464.1719,919.2969 463.9844,919.3906 C463.5625,919.6563 462.875,919.7813 462.1094,919.7813 C460.0625,919.7813 458.7656,918.6875 458.7656,916.9844 L458.7656,915.8906 C458.7656,914.1094 460.0156,912.7969 461.75,912.7969 C462.3281,912.7969 462.9375,912.9531 463.4063,913.2031 C463.8906,913.4844 464.0625,913.7031 464.1563,914.1094 C464.2188,914.5156 464.25,914.6406 464.3906,914.7656 C464.5313,914.9063 464.7656,915.0156 464.9844,915.0156 C465.25,915.0156 465.5156,914.875 465.6875,914.6563 C465.7969,914.5 465.8281,914.3125 465.8281,913.8906 L465.8281,912.4688 C465.8281,912.0313 465.8125,911.9063 465.7188,911.75 C465.5625,911.4844 465.2813,911.3438 464.9844,911.3438 C464.6875,911.3438 464.4844,911.4375 464.2656,911.75 L464.0938,911.6719 Z " fill="#000000"/><text fill="#000000" font-family="sans-serif" font-size="12" lengthAdjust="spacing" textLength="58" x="482.25" y="920.1543">Endereco</text><line style="stroke:#A80036;stroke-width:1.5;" x1="267" x2="723" y1="932" y2="932"/><text fill="#000000" font-family="sans-serif" font-size="11" lengthAdjust="spacing" textLength="84" x="272" y="946.2104">-String morada</text><text fill="#000000" font-family="sans-serif" font-size="11" lengthAdjust="spacing" textLength="92" x="272" y="959.0151">-Double latitude</text><text fill="#000000" font-family="sans-serif" font-size="11" lengthAdjust="spacing" textLength="102" x="272" y="971.8198">-Double longitude</text><text fill="#000000" font-family="sans-serif" font-size="11" lengthAdjust="spacing" textLength="92" x="272" y="984.6245">-Double altitude</text><line style="stroke:#A80036;stroke-width:1.5;" x1="267" x2="723" y1="991.2188" y2="991.2188"/><text fill="#000000" font-family="sans-serif" font-size="11" lengthAdjust="spacing" textLength="446" x="272" y="1005.4292">+Endereco(String morada, Double latitude, Double longitude, Double altitude)</text><!--MD5=[1a083dbe42a284ae0ea7f6f701783206]
class Parque--><rect codeLine="16" fill="#FEFECE" filter="url(#f1p49qmyo42ngc)" height="112.0234" id="Parque" style="stroke:#A80036;stroke-width:1.5;" width="437" x="276.5" y="711"/><ellipse cx="470.25" cy="727" fill="#ADD1B2" rx="11" ry="11" style="stroke:#A80036;stroke-width:1.0;"/><path d="M472.5938,722.6719 C471.6563,722.2344 471.0625,722.0938 470.1875,722.0938 C467.5625,722.0938 465.5625,724.1719 465.5625,726.8906 L465.5625,728.0156 C465.5625,730.5938 467.6719,732.4844 470.5625,732.4844 C471.7813,732.4844 472.9375,732.1875 473.6875,731.6406 C474.2656,731.2344 474.5938,730.7813 474.5938,730.3906 C474.5938,729.9375 474.2031,729.5469 473.7344,729.5469 C473.5156,729.5469 473.3125,729.625 473.125,729.8125 C472.6719,730.2969 472.6719,730.2969 472.4844,730.3906 C472.0625,730.6563 471.375,730.7813 470.6094,730.7813 C468.5625,730.7813 467.2656,729.6875 467.2656,727.9844 L467.2656,726.8906 C467.2656,725.1094 468.5156,723.7969 470.25,723.7969 C470.8281,723.7969 471.4375,723.9531 471.9063,724.2031 C472.3906,724.4844 472.5625,724.7031 472.6563,725.1094 C472.7188,725.5156 472.75,725.6406 472.8906,725.7656 C473.0313,725.9063 473.2656,726.0156 473.4844,726.0156 C473.75,726.0156 474.0156,725.875 474.1875,725.6563 C474.2969,725.5 474.3281,725.3125 474.3281,724.8906 L474.3281,723.4688 C474.3281,723.0313 474.3125,722.9063 474.2188,722.75 C474.0625,722.4844 473.7813,722.3438 473.4844,722.3438 C473.1875,722.3438 472.9844,722.4375 472.7656,722.75 L472.5938,722.6719 Z " fill="#000000"/><text fill="#000000" font-family="sans-serif" font-size="12" lengthAdjust="spacing" textLength="41" x="490.75" y="731.1543">Parque</text><line style="stroke:#A80036;stroke-width:1.5;" x1="277.5" x2="712.5" y1="743" y2="743"/><text fill="#000000" font-family="sans-serif" font-size="11" lengthAdjust="spacing" textLength="66" x="282.5" y="757.2104">-Integer NIF</text><text fill="#000000" font-family="sans-serif" font-size="11" lengthAdjust="spacing" textLength="84" x="282.5" y="770.0151">-String morada</text><text fill="#000000" font-family="sans-serif" font-size="11" lengthAdjust="spacing" textLength="137" x="282.5" y="782.8198">-Integer numeroMaximo</text><text fill="#000000" font-family="sans-serif" font-size="11" lengthAdjust="spacing" textLength="62" x="282.5" y="795.6245">-String tipo</text><line style="stroke:#A80036;stroke-width:1.5;" x1="277.5" x2="712.5" y1="802.2188" y2="802.2188"/><text fill="#000000" font-family="sans-serif" font-size="11" lengthAdjust="spacing" textLength="425" x="282.5" y="816.4292">+Endereco(Integer NIF, String morada, Integer numeroMaximo, String tipo)</text><!--MD5=[364aec0fc02518cb9ab31cd04b585b1a]
class FarmaciaDB--><rect codeLine="24" fill="#FEFECE" filter="url(#f1p49qmyo42ngc)" height="99.2188" id="FarmaciaDB" style="stroke:#A80036;stroke-width:1.5;" width="200" x="59" y="302"/><ellipse cx="119.25" cy="318" fill="#ADD1B2" rx="11" ry="11" style="stroke:#A80036;stroke-width:1.0;"/><path d="M121.5938,313.6719 C120.6563,313.2344 120.0625,313.0938 119.1875,313.0938 C116.5625,313.0938 114.5625,315.1719 114.5625,317.8906 L114.5625,319.0156 C114.5625,321.5938 116.6719,323.4844 119.5625,323.4844 C120.7813,323.4844 121.9375,323.1875 122.6875,322.6406 C123.2656,322.2344 123.5938,321.7813 123.5938,321.3906 C123.5938,320.9375 123.2031,320.5469 122.7344,320.5469 C122.5156,320.5469 122.3125,320.625 122.125,320.8125 C121.6719,321.2969 121.6719,321.2969 121.4844,321.3906 C121.0625,321.6563 120.375,321.7813 119.6094,321.7813 C117.5625,321.7813 116.2656,320.6875 116.2656,318.9844 L116.2656,317.8906 C116.2656,316.1094 117.5156,314.7969 119.25,314.7969 C119.8281,314.7969 120.4375,314.9531 120.9063,315.2031 C121.3906,315.4844 121.5625,315.7031 121.6563,316.1094 C121.7188,316.5156 121.75,316.6406 121.8906,316.7656 C122.0313,316.9063 122.2656,317.0156 122.4844,317.0156 C122.75,317.0156 123.0156,316.875 123.1875,316.6563 C123.2969,316.5 123.3281,316.3125 123.3281,315.8906 L123.3281,314.4688 C123.3281,314.0313 123.3125,313.9063 123.2188,313.75 C123.0625,313.4844 122.7813,313.3438 122.4844,313.3438 C122.1875,313.3438 121.9844,313.4375 121.7656,313.75 L121.5938,313.6719 Z " fill="#000000"/><text fill="#000000" font-family="sans-serif" font-size="12" lengthAdjust="spacing" textLength="71" x="139.75" y="322.1543">FarmaciaDB</text><line style="stroke:#A80036;stroke-width:1.5;" x1="60" x2="258" y1="334" y2="334"/><line style="stroke:#A80036;stroke-width:1.5;" x1="60" x2="258" y1="342" y2="342"/><text fill="#000000" font-family="sans-serif" font-size="11" lengthAdjust="spacing" textLength="168" x="65" y="356.2104">+Farmacia novaFarmacia(NIF)</text><text fill="#000000" font-family="sans-serif" font-size="11" lengthAdjust="spacing" textLength="188" x="65" y="369.0151">+registaFarmacia(Farmacia farm)</text><text fill="#000000" font-family="sans-serif" font-size="11" lengthAdjust="spacing" textLength="183" x="65" y="381.8198">+validaFarmacia(Farmacia farm)</text><text fill="#000000" font-family="sans-serif" font-size="11" lengthAdjust="spacing" textLength="165" x="65" y="394.6245">-addFarmacia(Farmacia farm)</text><!--MD5=[a8381305e32feabadf74eb10f0c047ba]
class EnderecoDB--><rect codeLine="31" fill="#FEFECE" filter="url(#f1p49qmyo42ngc)" height="99.2188" id="EnderecoDB" style="stroke:#A80036;stroke-width:1.5;" width="544" x="788" y="431"/><ellipse cx="1018.25" cy="447" fill="#ADD1B2" rx="11" ry="11" style="stroke:#A80036;stroke-width:1.0;"/><path d="M1020.5938,442.6719 C1019.6563,442.2344 1019.0625,442.0938 1018.1875,442.0938 C1015.5625,442.0938 1013.5625,444.1719 1013.5625,446.8906 L1013.5625,448.0156 C1013.5625,450.5938 1015.6719,452.4844 1018.5625,452.4844 C1019.7813,452.4844 1020.9375,452.1875 1021.6875,451.6406 C1022.2656,451.2344 1022.5938,450.7813 1022.5938,450.3906 C1022.5938,449.9375 1022.2031,449.5469 1021.7344,449.5469 C1021.5156,449.5469 1021.3125,449.625 1021.125,449.8125 C1020.6719,450.2969 1020.6719,450.2969 1020.4844,450.3906 C1020.0625,450.6563 1019.375,450.7813 1018.6094,450.7813 C1016.5625,450.7813 1015.2656,449.6875 1015.2656,447.9844 L1015.2656,446.8906 C1015.2656,445.1094 1016.5156,443.7969 1018.25,443.7969 C1018.8281,443.7969 1019.4375,443.9531 1019.9063,444.2031 C1020.3906,444.4844 1020.5625,444.7031 1020.6563,445.1094 C1020.7188,445.5156 1020.75,445.6406 1020.8906,445.7656 C1021.0313,445.9063 1021.2656,446.0156 1021.4844,446.0156 C1021.75,446.0156 1022.0156,445.875 1022.1875,445.6563 C1022.2969,445.5 1022.3281,445.3125 1022.3281,444.8906 L1022.3281,443.4688 C1022.3281,443.0313 1022.3125,442.9063 1022.2188,442.75 C1022.0625,442.4844 1021.7813,442.3438 1021.4844,442.3438 C1021.1875,442.3438 1020.9844,442.4375 1020.7656,442.75 L1020.5938,442.6719 Z " fill="#000000"/><text fill="#000000" font-family="sans-serif" font-size="12" lengthAdjust="spacing" textLength="75" x="1038.75" y="451.1543">EnderecoDB</text><line style="stroke:#A80036;stroke-width:1.5;" x1="789" x2="1331" y1="463" y2="463"/><line style="stroke:#A80036;stroke-width:1.5;" x1="789" x2="1331" y1="471" y2="471"/><text fill="#000000" font-family="sans-serif" font-size="11" lengthAdjust="spacing" textLength="532" x="794" y="485.2104">+Endereco novoEndereco(String morada, Double latitude, Double longitude, Double altitude)</text><text fill="#000000" font-family="sans-serif" font-size="11" lengthAdjust="spacing" textLength="190" x="794" y="498.0151">+registaEndereco(Endereco end)</text><text fill="#000000" font-family="sans-serif" font-size="11" lengthAdjust="spacing" textLength="185" x="794" y="510.8198">+validaEndereco(Endereco end)</text><text fill="#000000" font-family="sans-serif" font-size="11" lengthAdjust="spacing" textLength="167" x="794" y="523.6245">-addEndereco(Endereco end)</text><!--MD5=[021650fd5270df78a3629eada2205323]
class ParqueDB--><rect codeLine="38" fill="#FEFECE" filter="url(#f1p49qmyo42ngc)" height="99.2188" id="ParqueDB" style="stroke:#A80036;stroke-width:1.5;" width="493" x="248.5" y="431"/><ellipse cx="461.75" cy="447" fill="#ADD1B2" rx="11" ry="11" style="stroke:#A80036;stroke-width:1.0;"/><path d="M464.0938,442.6719 C463.1563,442.2344 462.5625,442.0938 461.6875,442.0938 C459.0625,442.0938 457.0625,444.1719 457.0625,446.8906 L457.0625,448.0156 C457.0625,450.5938 459.1719,452.4844 462.0625,452.4844 C463.2813,452.4844 464.4375,452.1875 465.1875,451.6406 C465.7656,451.2344 466.0938,450.7813 466.0938,450.3906 C466.0938,449.9375 465.7031,449.5469 465.2344,449.5469 C465.0156,449.5469 464.8125,449.625 464.625,449.8125 C464.1719,450.2969 464.1719,450.2969 463.9844,450.3906 C463.5625,450.6563 462.875,450.7813 462.1094,450.7813 C460.0625,450.7813 458.7656,449.6875 458.7656,447.9844 L458.7656,446.8906 C458.7656,445.1094 460.0156,443.7969 461.75,443.7969 C462.3281,443.7969 462.9375,443.9531 463.4063,444.2031 C463.8906,444.4844 464.0625,444.7031 464.1563,445.1094 C464.2188,445.5156 464.25,445.6406 464.3906,445.7656 C464.5313,445.9063 464.7656,446.0156 464.9844,446.0156 C465.25,446.0156 465.5156,445.875 465.6875,445.6563 C465.7969,445.5 465.8281,445.3125 465.8281,444.8906 L465.8281,443.4688 C465.8281,443.0313 465.8125,442.9063 465.7188,442.75 C465.5625,442.4844 465.2813,442.3438 464.9844,442.3438 C464.6875,442.3438 464.4844,442.4375 464.2656,442.75 L464.0938,442.6719 Z " fill="#000000"/><text fill="#000000" font-family="sans-serif" font-size="12" lengthAdjust="spacing" textLength="58" x="482.25" y="451.1543">ParqueDB</text><line style="stroke:#A80036;stroke-width:1.5;" x1="249.5" x2="740.5" y1="463" y2="463"/><line style="stroke:#A80036;stroke-width:1.5;" x1="249.5" x2="740.5" y1="471" y2="471"/><text fill="#000000" font-family="sans-serif" font-size="11" lengthAdjust="spacing" textLength="481" x="254.5" y="485.2104">+Parque novoParque(Integer NIF, String morada, Integer numeroMaximo, String tipo)</text><text fill="#000000" font-family="sans-serif" font-size="11" lengthAdjust="spacing" textLength="178" x="254.5" y="498.0151">+registaParque(Parque parque)</text><text fill="#000000" font-family="sans-serif" font-size="11" lengthAdjust="spacing" textLength="173" x="254.5" y="510.8198">+validaParque(Parque parque)</text><text fill="#000000" font-family="sans-serif" font-size="11" lengthAdjust="spacing" textLength="155" x="254.5" y="523.6245">-addParque(Parque parque)</text><!--MD5=[292cbfdf48ee96a1c6d5c40c7ba01c14]
class RegistarFarmaciaController--><rect codeLine="45" fill="#FEFECE" filter="url(#f1p49qmyo42ngc)" height="124.8281" id="RegistarFarmaciaController" style="stroke:#A80036;stroke-width:1.5;" width="450" x="178" y="116"/><ellipse cx="317.75" cy="132" fill="#ADD1B2" rx="11" ry="11" style="stroke:#A80036;stroke-width:1.0;"/><path d="M320.0938,127.6719 C319.1563,127.2344 318.5625,127.0938 317.6875,127.0938 C315.0625,127.0938 313.0625,129.1719 313.0625,131.8906 L313.0625,133.0156 C313.0625,135.5938 315.1719,137.4844 318.0625,137.4844 C319.2813,137.4844 320.4375,137.1875 321.1875,136.6406 C321.7656,136.2344 322.0938,135.7813 322.0938,135.3906 C322.0938,134.9375 321.7031,134.5469 321.2344,134.5469 C321.0156,134.5469 320.8125,134.625 320.625,134.8125 C320.1719,135.2969 320.1719,135.2969 319.9844,135.3906 C319.5625,135.6563 318.875,135.7813 318.1094,135.7813 C316.0625,135.7813 314.7656,134.6875 314.7656,132.9844 L314.7656,131.8906 C314.7656,130.1094 316.0156,128.7969 317.75,128.7969 C318.3281,128.7969 318.9375,128.9531 319.4063,129.2031 C319.8906,129.4844 320.0625,129.7031 320.1563,130.1094 C320.2188,130.5156 320.25,130.6406 320.3906,130.7656 C320.5313,130.9063 320.7656,131.0156 320.9844,131.0156 C321.25,131.0156 321.5156,130.875 321.6875,130.6563 C321.7969,130.5 321.8281,130.3125 321.8281,129.8906 L321.8281,128.4688 C321.8281,128.0313 321.8125,127.9063 321.7188,127.75 C321.5625,127.4844 321.2813,127.3438 320.9844,127.3438 C320.6875,127.3438 320.4844,127.4375 320.2656,127.75 L320.0938,127.6719 Z " fill="#000000"/><text fill="#000000" font-family="sans-serif" font-size="12" lengthAdjust="spacing" textLength="162" x="338.25" y="136.1543">RegistarFarmaciaController</text><line style="stroke:#A80036;stroke-width:1.5;" x1="179" x2="627" y1="148" y2="148"/><line style="stroke:#A80036;stroke-width:1.5;" x1="179" x2="627" y1="156" y2="156"/><text fill="#000000" font-family="sans-serif" font-size="11" lengthAdjust="spacing" textLength="113" x="184" y="170.2104">+novaFarmacia(NIF)</text><text fill="#000000" font-family="sans-serif" font-size="11" lengthAdjust="spacing" textLength="302" x="184" y="183.0151">+novoEndereco(morada, latitude, longitude, altitude)</text><text fill="#000000" font-family="sans-serif" font-size="11" lengthAdjust="spacing" textLength="438" x="184" y="195.8198">+novoParque(Integer NIF, String morada, Integer numeroMaximo, String tipo)</text><text fill="#000000" font-family="sans-serif" font-size="11" lengthAdjust="spacing" textLength="133" x="184" y="208.6245">+registaFarmacia(farm)</text><text fill="#000000" font-family="sans-serif" font-size="11" lengthAdjust="spacing" textLength="132" x="184" y="221.4292">+registaEndereco(end)</text><text fill="#000000" font-family="sans-serif" font-size="11" lengthAdjust="spacing" textLength="135" x="184" y="234.2339">+registaParque(parque)</text><!--MD5=[16f25527ba70f62c202fb8dd84cb3d2e]
class RegistarFarmaciaUI--><rect codeLine="54" fill="#FEFECE" filter="url(#f1p49qmyo42ngc)" height="48" id="RegistarFarmaciaUI" style="stroke:#A80036;stroke-width:1.5;" width="147" x="329.5" y="7"/><ellipse cx="344.5" cy="23" fill="#ADD1B2" rx="11" ry="11" style="stroke:#A80036;stroke-width:1.0;"/><path d="M346.8438,18.6719 C345.9063,18.2344 345.3125,18.0938 344.4375,18.0938 C341.8125,18.0938 339.8125,20.1719 339.8125,22.8906 L339.8125,24.0156 C339.8125,26.5938 341.9219,28.4844 344.8125,28.4844 C346.0313,28.4844 347.1875,28.1875 347.9375,27.6406 C348.5156,27.2344 348.8438,26.7813 348.8438,26.3906 C348.8438,25.9375 348.4531,25.5469 347.9844,25.5469 C347.7656,25.5469 347.5625,25.625 347.375,25.8125 C346.9219,26.2969 346.9219,26.2969 346.7344,26.3906 C346.3125,26.6563 345.625,26.7813 344.8594,26.7813 C342.8125,26.7813 341.5156,25.6875 341.5156,23.9844 L341.5156,22.8906 C341.5156,21.1094 342.7656,19.7969 344.5,19.7969 C345.0781,19.7969 345.6875,19.9531 346.1563,20.2031 C346.6406,20.4844 346.8125,20.7031 346.9063,21.1094 C346.9688,21.5156 347,21.6406 347.1406,21.7656 C347.2813,21.9063 347.5156,22.0156 347.7344,22.0156 C348,22.0156 348.2656,21.875 348.4375,21.6563 C348.5469,21.5 348.5781,21.3125 348.5781,20.8906 L348.5781,19.4688 C348.5781,19.0313 348.5625,18.9063 348.4688,18.75 C348.3125,18.4844 348.0313,18.3438 347.7344,18.3438 C347.4375,18.3438 347.2344,18.4375 347.0156,18.75 L346.8438,18.6719 Z " fill="#000000"/><text fill="#000000" font-family="sans-serif" font-size="12" lengthAdjust="spacing" textLength="115" x="358.5" y="27.1543">RegistarFarmaciaUI</text><line style="stroke:#A80036;stroke-width:1.5;" x1="330.5" x2="475.5" y1="39" y2="39"/><line style="stroke:#A80036;stroke-width:1.5;" x1="330.5" x2="475.5" y1="47" y2="47"/><!--MD5=[f96a217cc99f82e5dda83e4db29e3f0d]
link RegistarFarmaciaUI to RegistarFarmaciaController--><path codeLine="58" d="M403,55.055 C403,70.198 403,90.845 403,110.869 " fill="none" id="RegistarFarmaciaUI-to-RegistarFarmaciaController" style="stroke:#A80036;stroke-width:1.0;stroke-dasharray:7.0,7.0;"/><polygon fill="#A80036" points="403,115.942,407,106.942,403,110.942,399,106.942,403,115.942" style="stroke:#A80036;stroke-width:1.0;"/><!--MD5=[cf385d46b982f44bba418de29d938ed9]
link RegistarFarmaciaController to ParqueDB--><path codeLine="59" d="M421.951,241.296 C438.614,295.632 462.621,373.917 478.506,425.716 " fill="none" id="RegistarFarmaciaController-to-ParqueDB" style="stroke:#A80036;stroke-width:1.0;stroke-dasharray:7.0,7.0;"/><polygon fill="#A80036" points="480.018,430.645,481.2038,420.8678,478.5522,425.8647,473.5553,423.2131,480.018,430.645" style="stroke:#A80036;stroke-width:1.0;"/><!--MD5=[cedf4e2fac6be50e74b26344cb9b6128]
link RegistarFarmaciaController to EnderecoDB--><path codeLine="60" d="M628.13,215.452 C682.993,228.815 740.412,246.845 791,271 C874.147,310.702 955.809,379.399 1006.94,427.036 " fill="none" id="RegistarFarmaciaController-to-EnderecoDB" style="stroke:#A80036;stroke-width:1.0;stroke-dasharray:7.0,7.0;"/><polygon fill="#A80036" points="1010.88,430.715,1007.0363,421.6471,1007.2272,427.3008,1001.5736,427.4916,1010.88,430.715" style="stroke:#A80036;stroke-width:1.0;"/><!--MD5=[ee0f888f82e00ad1821accfbab9741d8]
link RegistarFarmaciaController to FarmaciaDB--><path codeLine="61" d="M314.91,241.235 C287.83,260.214 258.327,280.89 232.346,299.098 " fill="none" id="RegistarFarmaciaController-to-FarmaciaDB" style="stroke:#A80036;stroke-width:1.0;stroke-dasharray:7.0,7.0;"/><polygon fill="#A80036" points="228.207,301.998,237.8727,300.1074,232.3013,299.128,233.2807,293.5566,228.207,301.998" style="stroke:#A80036;stroke-width:1.0;"/><!--MD5=[aa9f67082c51c82a1ba912278ea26989]
link RegistarFarmaciaController to Parque--><path codeLine="62" d="M539.092,241.09 C614.029,282.98 700.28,346.262 743,431 C796.311,536.745 680.114,644.193 589.344,707.953 " fill="none" id="RegistarFarmaciaController-to-Parque" style="stroke:#A80036;stroke-width:1.0;stroke-dasharray:7.0,7.0;"/><polygon fill="#A80036" points="585.042,710.956,594.7116,709.0853,589.1422,708.0944,590.1331,702.5251,585.042,710.956" style="stroke:#A80036;stroke-width:1.0;"/><!--MD5=[1108c8e87a0035f633b3288171c413ba]
link RegistarFarmaciaController to Endereco--><path codeLine="63" d="M177.821,198.609 C88.2172,219.804 6,263.072 6,350.5 C6,350.5 6,350.5 6,768 C6,827.844 135.384,875.601 261.046,907.871 " fill="none" id="RegistarFarmaciaController-to-Endereco" style="stroke:#A80036;stroke-width:1.0;stroke-dasharray:7.0,7.0;"/><polygon fill="#A80036" points="265.892,909.108,258.1616,903.0054,261.0475,907.8708,256.1821,910.7566,265.892,909.108" style="stroke:#A80036;stroke-width:1.0;"/><!--MD5=[45e10d883f52dd70f1944020196c5274]
link RegistarFarmaciaController to Farmacia--><path codeLine="64" d="M372.872,241.253 C349.249,287.153 314.085,350.329 276,401 C264.858,415.824 255.075,414.306 247,431 C228.11,470.055 223.809,520.043 223.483,554.713 " fill="none" id="RegistarFarmaciaController-to-Farmacia" style="stroke:#A80036;stroke-width:1.0;stroke-dasharray:7.0,7.0;"/><polygon fill="#A80036" points="223.462,559.714,227.498,550.7301,223.482,554.714,219.498,550.6981,223.462,559.714" style="stroke:#A80036;stroke-width:1.0;"/><!--MD5=[e5dbbc54f46538fc7b7077d28b1f914b]
link ParqueDB to Parque--><path codeLine="66" d="M495,530.084 C495,578.569 495,653.19 495,705.492 " fill="none" id="ParqueDB-to-Parque" style="stroke:#A80036;stroke-width:1.0;"/><polygon fill="#A80036" points="495,710.8,499,701.8,495,705.8,491,701.8,495,710.8" style="stroke:#A80036;stroke-width:1.0;"/><text fill="#000000" font-family="sans-serif" font-size="13" lengthAdjust="spacing" textLength="41" x="496" y="601.5669">possui</text><text fill="#000000" font-family="sans-serif" font-size="13" lengthAdjust="spacing" textLength="8" x="486.4375" y="550.1723">1</text><text fill="#000000" font-family="sans-serif" font-size="13" lengthAdjust="spacing" textLength="7" x="487.5734" y="700.1101">*</text><!--MD5=[c023e2c3fa599b931e4bde319636976a]
link EnderecoDB to Endereco--><path codeLine="67" d="M1021.01,530.287 C963.003,600.797 848.175,732.621 731,823 C695.101,850.69 652.701,876.273 613.815,897.399 " fill="none" id="EnderecoDB-to-Endereco" style="stroke:#A80036;stroke-width:1.0;"/><polygon fill="#A80036" points="609.091,899.953,618.9104,899.1916,613.4894,897.5752,615.1059,892.1542,609.091,899.953" style="stroke:#A80036;stroke-width:1.0;"/><text fill="#000000" font-family="sans-serif" font-size="13" lengthAdjust="spacing" textLength="41" x="901" y="677.0669">possui</text><text fill="#000000" font-family="sans-serif" font-size="13" lengthAdjust="spacing" textLength="8" x="1006.9645" y="550.4038">1</text><text fill="#000000" font-family="sans-serif" font-size="13" lengthAdjust="spacing" textLength="7" x="616.2605" y="888.8849">*</text><!--MD5=[3c539b0dd2212e8322efef71ee8cdfc2]
link FarmaciaDB to Farmacia--><path codeLine="68" d="M147.766,401.261 C141.691,438.128 138.562,489.188 156,530 C160.03,539.432 166.143,548.16 173.096,555.974 " fill="none" id="FarmaciaDB-to-Farmacia" style="stroke:#A80036;stroke-width:1.0;"/><polygon fill="#A80036" points="176.572,559.735,173.4013,550.4105,173.1785,556.063,167.526,555.8401,176.572,559.735" style="stroke:#A80036;stroke-width:1.0;"/><text fill="#000000" font-family="sans-serif" font-size="13" lengthAdjust="spacing" textLength="41" x="157" y="485.0669">possui</text><text fill="#000000" font-family="sans-serif" font-size="13" lengthAdjust="spacing" textLength="8" x="137.6237" y="421.3742">1</text><text fill="#000000" font-family="sans-serif" font-size="13" lengthAdjust="spacing" textLength="7" x="160.3223" y="548.8747">*</text><!--MD5=[4f96609c99ecadb81dc825d0ae539cef]
link Farmacia to Parque--><path codeLine="69" d="M282.922,634.04 C317.607,655.622 362.5,683.555 402.046,708.162 " fill="none" id="Farmacia-to-Parque" style="stroke:#A80036;stroke-width:1.0;"/><polygon fill="#A80036" points="406.347,710.838,400.8182,702.6874,402.1016,708.1967,396.5922,709.4801,406.347,710.838" style="stroke:#A80036;stroke-width:1.0;"/><text fill="#000000" font-family="sans-serif" font-size="13" lengthAdjust="spacing" textLength="26" x="353" y="677.0669">tem</text><text fill="#000000" font-family="sans-serif" font-size="13" lengthAdjust="spacing" textLength="8" x="284.1898" y="653.8072">1</text><text fill="#000000" font-family="sans-serif" font-size="13" lengthAdjust="spacing" textLength="8" x="386.4758" y="699.7552">1</text><!--MD5=[65c0b4ced80642714d633a5480d06ed6]
link Parque to Endereco--><path codeLine="70" d="M495,823.095 C495,845.631 495,871.77 495,894.806 " fill="none" id="Parque-to-Endereco" style="stroke:#A80036;stroke-width:1.0;"/><polygon fill="#A80036" points="495,899.976,499,890.976,495,894.976,491,890.976,495,899.976" style="stroke:#A80036;stroke-width:1.0;"/><text fill="#000000" font-family="sans-serif" font-size="13" lengthAdjust="spacing" textLength="26" x="496" y="866.0669">tem</text><text fill="#000000" font-family="sans-serif" font-size="13" lengthAdjust="spacing" textLength="8" x="486.5125" y="842.9192">1</text><text fill="#000000" font-family="sans-serif" font-size="13" lengthAdjust="spacing" textLength="8" x="486.4875" y="888.9109">1</text><!--MD5=[d643d551f8e262813cae487968434c9a]
@startuml
skinparam classAttributeIconSize 0

class Farmacia {
  -Integer NIF
  +Farmacia(Integer NIF)
}

class Endereco {
  -String morada
  -Double latitude
  -Double longitude
  -Double altitude 
  +Endereco(String morada, Double latitude, Double longitude, Double altitude)
}

class Parque {
  -Integer NIF
  -String morada
  -Integer numeroMaximo
  -String tipo
  +Endereco(Integer NIF, String morada, Integer numeroMaximo, String tipo)
}

class FarmaciaDB {
  +Farmacia novaFarmacia(NIF)
  +registaFarmacia(Farmacia farm)
  +validaFarmacia(Farmacia farm)
  -addFarmacia(Farmacia farm)
}

class EnderecoDB {
  +Endereco novoEndereco(String morada, Double latitude, Double longitude, Double altitude)
  +registaEndereco(Endereco end)
  +validaEndereco(Endereco end)
  -addEndereco(Endereco end)
}

class ParqueDB {
  +Parque novoParque(Integer NIF, String morada, Integer numeroMaximo, String tipo)
  +registaParque(Parque parque)
  +validaParque(Parque parque)
  -addParque(Parque parque)
}

class RegistarFarmaciaController {
  +novaFarmacia(NIF)
  +novoEndereco(morada, latitude, longitude, altitude)
  +novoParque(Integer NIF, String morada, Integer numeroMaximo, String tipo)
  +registaFarmacia(farm)
  +registaEndereco(end)
  +registaParque(parque)
}

class RegistarFarmaciaUI {
  
}

RegistarFarmaciaUI ..> RegistarFarmaciaController
RegistarFarmaciaController ..> ParqueDB
RegistarFarmaciaController ..> EnderecoDB
RegistarFarmaciaController ..> FarmaciaDB
RegistarFarmaciaController ..> Parque
RegistarFarmaciaController ..> Endereco
RegistarFarmaciaController ..> Farmacia

ParqueDB "1" - -> "*" Parque : possui
EnderecoDB "1" - -> "*" Endereco : possui
FarmaciaDB "1" - -> "*" Farmacia : possui
Farmacia "1" - -> "1" Parque : tem
Parque "1" - -> "1" Endereco : tem
@enduml

PlantUML version 1.2020.27beta8(Unknown compile time)
(GPL source distribution)
Java Runtime: Java(TM) SE Runtime Environment
JVM: Java HotSpot(TM) 64-Bit Server VM
Default Encoding: UTF-8
Language: en
Country: US
--></g></svg>