<?xml version="1.0" encoding="UTF-8" standalone="no"?><svg xmlns="http://www.w3.org/2000/svg" xmlns:xlink="http://www.w3.org/1999/xlink" contentScriptType="application/ecmascript" contentStyleType="text/css" height="238px" preserveAspectRatio="none" style="width:928px;height:238px;" version="1.1" viewBox="0 0 928 238" width="928px" zoomAndPan="magnify"><defs><filter height="300%" id="f1301orld9llyw" width="300%" x="-1" y="-1"><feGaussianBlur result="blurOut" stdDeviation="2.0"/><feColorMatrix in="blurOut" result="blurOut2" type="matrix" values="0 0 0 0 0 0 0 0 0 0 0 0 0 0 0 0 0 0 .4 0"/><feOffset dx="4.0" dy="4.0" in="blurOut2" result="blurOut3"/><feBlend in="SourceGraphic" in2="blurOut3" mode="normal"/></filter></defs><g><!--MD5=[6613c9cd406ef433ff06f5e98b28abd9]
class Farmacia--><rect codeLine="5" fill="#FEFECE" filter="url(#f1301orld9llyw)" height="52.8047" id="Farmacia" style="stroke:#A80036;stroke-width:1.5;" width="86" x="7" y="112.5"/><ellipse cx="22" cy="128.5" fill="#ADD1B2" rx="11" ry="11" style="stroke:#A80036;stroke-width:1.0;"/><path d="M24.3438,124.1719 C23.4063,123.7344 22.8125,123.5938 21.9375,123.5938 C19.3125,123.5938 17.3125,125.6719 17.3125,128.3906 L17.3125,129.5156 C17.3125,132.0938 19.4219,133.9844 22.3125,133.9844 C23.5313,133.9844 24.6875,133.6875 25.4375,133.1406 C26.0156,132.7344 26.3438,132.2813 26.3438,131.8906 C26.3438,131.4375 25.9531,131.0469 25.4844,131.0469 C25.2656,131.0469 25.0625,131.125 24.875,131.3125 C24.4219,131.7969 24.4219,131.7969 24.2344,131.8906 C23.8125,132.1563 23.125,132.2813 22.3594,132.2813 C20.3125,132.2813 19.0156,131.1875 19.0156,129.4844 L19.0156,128.3906 C19.0156,126.6094 20.2656,125.2969 22,125.2969 C22.5781,125.2969 23.1875,125.4531 23.6563,125.7031 C24.1406,125.9844 24.3125,126.2031 24.4063,126.6094 C24.4688,127.0156 24.5,127.1406 24.6406,127.2656 C24.7813,127.4063 25.0156,127.5156 25.2344,127.5156 C25.5,127.5156 25.7656,127.375 25.9375,127.1563 C26.0469,127 26.0781,126.8125 26.0781,126.3906 L26.0781,124.9688 C26.0781,124.5313 26.0625,124.4063 25.9688,124.25 C25.8125,123.9844 25.5313,123.8438 25.2344,123.8438 C24.9375,123.8438 24.7344,123.9375 24.5156,124.25 L24.3438,124.1719 Z " fill="#000000"/><text fill="#000000" font-family="sans-serif" font-size="12" lengthAdjust="spacing" textLength="54" x="36" y="132.6543">Farmacia</text><line style="stroke:#A80036;stroke-width:1.5;" x1="8" x2="92" y1="144.5" y2="144.5"/><text fill="#000000" font-family="sans-serif" font-size="11" lengthAdjust="spacing" textLength="21" x="13" y="158.7104">-NIF</text><!--MD5=[5dd1d6732c071e710b9290b531f2fa3b]
class Utilizador--><rect codeLine="9" fill="#FEFECE" filter="url(#f1301orld9llyw)" height="104.0234" id="Utilizador" style="stroke:#A80036;stroke-width:1.5;" width="155" x="568" y="7"/><ellipse cx="612.75" cy="23" fill="#ADD1B2" rx="11" ry="11" style="stroke:#A80036;stroke-width:1.0;"/><path d="M615.0938,18.6719 C614.1563,18.2344 613.5625,18.0938 612.6875,18.0938 C610.0625,18.0938 608.0625,20.1719 608.0625,22.8906 L608.0625,24.0156 C608.0625,26.5938 610.1719,28.4844 613.0625,28.4844 C614.2813,28.4844 615.4375,28.1875 616.1875,27.6406 C616.7656,27.2344 617.0938,26.7813 617.0938,26.3906 C617.0938,25.9375 616.7031,25.5469 616.2344,25.5469 C616.0156,25.5469 615.8125,25.625 615.625,25.8125 C615.1719,26.2969 615.1719,26.2969 614.9844,26.3906 C614.5625,26.6563 613.875,26.7813 613.1094,26.7813 C611.0625,26.7813 609.7656,25.6875 609.7656,23.9844 L609.7656,22.8906 C609.7656,21.1094 611.0156,19.7969 612.75,19.7969 C613.3281,19.7969 613.9375,19.9531 614.4063,20.2031 C614.8906,20.4844 615.0625,20.7031 615.1563,21.1094 C615.2188,21.5156 615.25,21.6406 615.3906,21.7656 C615.5313,21.9063 615.7656,22.0156 615.9844,22.0156 C616.25,22.0156 616.5156,21.875 616.6875,21.6563 C616.7969,21.5 616.8281,21.3125 616.8281,20.8906 L616.8281,19.4688 C616.8281,19.0313 616.8125,18.9063 616.7188,18.75 C616.5625,18.4844 616.2813,18.3438 615.9844,18.3438 C615.6875,18.3438 615.4844,18.4375 615.2656,18.75 L615.0938,18.6719 Z " fill="#000000"/><text fill="#000000" font-family="sans-serif" font-size="12" lengthAdjust="spacing" textLength="57" x="633.25" y="27.1543">Utilizador</text><line style="stroke:#A80036;stroke-width:1.5;" x1="569" x2="722" y1="39" y2="39"/><text fill="#000000" font-family="sans-serif" font-size="11" lengthAdjust="spacing" textLength="21" x="574" y="53.2104">-NIF</text><text fill="#000000" font-family="sans-serif" font-size="11" lengthAdjust="spacing" textLength="37" x="574" y="66.0151">-nome</text><text fill="#000000" font-family="sans-serif" font-size="11" lengthAdjust="spacing" textLength="36" x="574" y="78.8198">-email</text><text fill="#000000" font-family="sans-serif" font-size="11" lengthAdjust="spacing" textLength="143" x="574" y="91.6245">-numeroSegurancaSocial</text><text fill="#000000" font-family="sans-serif" font-size="11" lengthAdjust="spacing" textLength="57" x="574" y="104.4292">-password</text><!--MD5=[fdcda49d453d44c676d62f3f6af62207]
class Administrador--><rect codeLine="17" fill="#FEFECE" filter="url(#f1301orld9llyw)" height="104.0234" id="Administrador" style="stroke:#A80036;stroke-width:1.5;" width="155" x="194" y="23"/><ellipse cx="226.55" cy="39" fill="#ADD1B2" rx="11" ry="11" style="stroke:#A80036;stroke-width:1.0;"/><path d="M228.8938,34.6719 C227.9563,34.2344 227.3625,34.0938 226.4875,34.0938 C223.8625,34.0938 221.8625,36.1719 221.8625,38.8906 L221.8625,40.0156 C221.8625,42.5938 223.9719,44.4844 226.8625,44.4844 C228.0813,44.4844 229.2375,44.1875 229.9875,43.6406 C230.5656,43.2344 230.8938,42.7813 230.8938,42.3906 C230.8938,41.9375 230.5031,41.5469 230.0344,41.5469 C229.8156,41.5469 229.6125,41.625 229.425,41.8125 C228.9719,42.2969 228.9719,42.2969 228.7844,42.3906 C228.3625,42.6563 227.675,42.7813 226.9094,42.7813 C224.8625,42.7813 223.5656,41.6875 223.5656,39.9844 L223.5656,38.8906 C223.5656,37.1094 224.8156,35.7969 226.55,35.7969 C227.1281,35.7969 227.7375,35.9531 228.2063,36.2031 C228.6906,36.4844 228.8625,36.7031 228.9563,37.1094 C229.0188,37.5156 229.05,37.6406 229.1906,37.7656 C229.3313,37.9063 229.5656,38.0156 229.7844,38.0156 C230.05,38.0156 230.3156,37.875 230.4875,37.6563 C230.5969,37.5 230.6281,37.3125 230.6281,36.8906 L230.6281,35.4688 C230.6281,35.0313 230.6125,34.9063 230.5188,34.75 C230.3625,34.4844 230.0813,34.3438 229.7844,34.3438 C229.4875,34.3438 229.2844,34.4375 229.0656,34.75 L228.8938,34.6719 Z " fill="#000000"/><text fill="#000000" font-family="sans-serif" font-size="12" lengthAdjust="spacing" textLength="84" x="244.45" y="43.1543">Administrador</text><line style="stroke:#A80036;stroke-width:1.5;" x1="195" x2="348" y1="55" y2="55"/><text fill="#000000" font-family="sans-serif" font-size="11" lengthAdjust="spacing" textLength="21" x="200" y="69.2104">-NIF</text><text fill="#000000" font-family="sans-serif" font-size="11" lengthAdjust="spacing" textLength="37" x="200" y="82.0151">-nome</text><text fill="#000000" font-family="sans-serif" font-size="11" lengthAdjust="spacing" textLength="36" x="200" y="94.8198">-email</text><text fill="#000000" font-family="sans-serif" font-size="11" lengthAdjust="spacing" textLength="143" x="200" y="107.6245">-numeroSegurancaSocial</text><text fill="#000000" font-family="sans-serif" font-size="11" lengthAdjust="spacing" textLength="57" x="200" y="120.4292">-password</text><!--MD5=[36c1942e8942a3e4f47e6de3733e3d18]
class Endereco--><rect codeLine="25" fill="#FEFECE" filter="url(#f1301orld9llyw)" height="91.2188" id="Endereco" style="stroke:#A80036;stroke-width:1.5;" width="90" x="824" y="133.5"/><ellipse cx="839" cy="149.5" fill="#ADD1B2" rx="11" ry="11" style="stroke:#A80036;stroke-width:1.0;"/><path d="M841.3438,145.1719 C840.4063,144.7344 839.8125,144.5938 838.9375,144.5938 C836.3125,144.5938 834.3125,146.6719 834.3125,149.3906 L834.3125,150.5156 C834.3125,153.0938 836.4219,154.9844 839.3125,154.9844 C840.5313,154.9844 841.6875,154.6875 842.4375,154.1406 C843.0156,153.7344 843.3438,153.2813 843.3438,152.8906 C843.3438,152.4375 842.9531,152.0469 842.4844,152.0469 C842.2656,152.0469 842.0625,152.125 841.875,152.3125 C841.4219,152.7969 841.4219,152.7969 841.2344,152.8906 C840.8125,153.1563 840.125,153.2813 839.3594,153.2813 C837.3125,153.2813 836.0156,152.1875 836.0156,150.4844 L836.0156,149.3906 C836.0156,147.6094 837.2656,146.2969 839,146.2969 C839.5781,146.2969 840.1875,146.4531 840.6563,146.7031 C841.1406,146.9844 841.3125,147.2031 841.4063,147.6094 C841.4688,148.0156 841.5,148.1406 841.6406,148.2656 C841.7813,148.4063 842.0156,148.5156 842.2344,148.5156 C842.5,148.5156 842.7656,148.375 842.9375,148.1563 C843.0469,148 843.0781,147.8125 843.0781,147.3906 L843.0781,145.9688 C843.0781,145.5313 843.0625,145.4063 842.9688,145.25 C842.8125,144.9844 842.5313,144.8438 842.2344,144.8438 C841.9375,144.8438 841.7344,144.9375 841.5156,145.25 L841.3438,145.1719 Z " fill="#000000"/><text fill="#000000" font-family="sans-serif" font-size="12" lengthAdjust="spacing" textLength="58" x="853" y="153.6543">Endereco</text><line style="stroke:#A80036;stroke-width:1.5;" x1="825" x2="913" y1="165.5" y2="165.5"/><text fill="#000000" font-family="sans-serif" font-size="11" lengthAdjust="spacing" textLength="47" x="830" y="179.7104">-morada</text><text fill="#000000" font-family="sans-serif" font-size="11" lengthAdjust="spacing" textLength="47" x="830" y="192.5151">-latitude</text><text fill="#000000" font-family="sans-serif" font-size="11" lengthAdjust="spacing" textLength="57" x="830" y="205.3198">-longitude</text><text fill="#000000" font-family="sans-serif" font-size="11" lengthAdjust="spacing" textLength="47" x="830" y="218.1245">-altitude</text><!--MD5=[1a083dbe42a284ae0ea7f6f701783206]
class Parque--><rect codeLine="32" fill="#FEFECE" filter="url(#f1301orld9llyw)" height="65.6094" id="Parque" style="stroke:#A80036;stroke-width:1.5;" width="104" x="593.5" y="146"/><ellipse cx="622.45" cy="162" fill="#ADD1B2" rx="11" ry="11" style="stroke:#A80036;stroke-width:1.0;"/><path d="M624.7938,157.6719 C623.8563,157.2344 623.2625,157.0938 622.3875,157.0938 C619.7625,157.0938 617.7625,159.1719 617.7625,161.8906 L617.7625,163.0156 C617.7625,165.5938 619.8719,167.4844 622.7625,167.4844 C623.9813,167.4844 625.1375,167.1875 625.8875,166.6406 C626.4656,166.2344 626.7938,165.7813 626.7938,165.3906 C626.7938,164.9375 626.4031,164.5469 625.9344,164.5469 C625.7156,164.5469 625.5125,164.625 625.325,164.8125 C624.8719,165.2969 624.8719,165.2969 624.6844,165.3906 C624.2625,165.6563 623.575,165.7813 622.8094,165.7813 C620.7625,165.7813 619.4656,164.6875 619.4656,162.9844 L619.4656,161.8906 C619.4656,160.1094 620.7156,158.7969 622.45,158.7969 C623.0281,158.7969 623.6375,158.9531 624.1063,159.2031 C624.5906,159.4844 624.7625,159.7031 624.8563,160.1094 C624.9188,160.5156 624.95,160.6406 625.0906,160.7656 C625.2313,160.9063 625.4656,161.0156 625.6844,161.0156 C625.95,161.0156 626.2156,160.875 626.3875,160.6563 C626.4969,160.5 626.5281,160.3125 626.5281,159.8906 L626.5281,158.4688 C626.5281,158.0313 626.5125,157.9063 626.4188,157.75 C626.2625,157.4844 625.9813,157.3438 625.6844,157.3438 C625.3875,157.3438 625.1844,157.4375 624.9656,157.75 L624.7938,157.6719 Z " fill="#000000"/><text fill="#000000" font-family="sans-serif" font-size="12" lengthAdjust="spacing" textLength="41" x="639.55" y="166.1543">Parque</text><line style="stroke:#A80036;stroke-width:1.5;" x1="594.5" x2="696.5" y1="178" y2="178"/><text fill="#000000" font-family="sans-serif" font-size="11" lengthAdjust="spacing" textLength="92" x="599.5" y="192.2104">-numeroMaximo</text><text fill="#000000" font-family="sans-serif" font-size="11" lengthAdjust="spacing" textLength="25" x="599.5" y="205.0151">-tipo</text><!--MD5=[b4161b205744775e44f73e41ced309e0]
link Administrador to Utilizador--><path codeLine="37" d="M349.128,71.704 C413.148,68.951 503.979,65.044 567.972,62.292 " fill="none" id="Administrador-Utilizador" style="stroke:#A80036;stroke-width:1.0;"/><polygon fill="#000000" points="426.4954,55.3516,417.3324,52.804,417.5849,58.6764,426.4954,55.3516" style="stroke:#000000;stroke-width:1.0;"/><text fill="#000000" font-family="sans-serif" font-size="13" lengthAdjust="spacing" textLength="69" x="430.5" y="60.0669">atua como</text><text fill="#000000" font-family="sans-serif" font-size="13" lengthAdjust="spacing" textLength="8" x="356.9082" y="84.1768">1</text><text fill="#000000" font-family="sans-serif" font-size="13" lengthAdjust="spacing" textLength="8" x="551.9466" y="75.4266">1</text><!--MD5=[6ba179a0a54b0b32b52757b8e4d27c6d]
link Administrador to Parque--><path codeLine="38" d="M349.128,96.423 C422.187,116.848 530.164,147.0351 593.322,164.6922 " fill="none" id="Administrador-Parque" style="stroke:#A80036;stroke-width:1.0;"/><polygon fill="#000000" points="388.8154,98.9126,380.8956,93.6469,379.313,99.3077,388.8154,98.9126" style="stroke:#000000;stroke-width:1.0;"/><text fill="#000000" font-family="sans-serif" font-size="13" lengthAdjust="spacing" textLength="144" x="393" y="102.0669">define numeroMaximo</text><text fill="#000000" font-family="sans-serif" font-size="13" lengthAdjust="spacing" textLength="8" x="356.9082" y="111.2518">1</text><text fill="#000000" font-family="sans-serif" font-size="13" lengthAdjust="spacing" textLength="8" x="577.422" y="175.8386">1</text><!--MD5=[4f96609c99ecadb81dc825d0ae539cef]
link Farmacia to Parque--><path codeLine="39" d="M93.0791,146.751 C121.483,151.6677 159.872,157.7036 194,161 C338.331,174.941 509.679,178.1313 593.364,178.8299 " fill="none" id="Farmacia-Parque" style="stroke:#A80036;stroke-width:1.0;"/><polygon fill="#000000" points="253.4898,152.8864,244.6513,149.3747,244.2751,155.2405,253.4898,152.8864" style="stroke:#000000;stroke-width:1.0;"/><text fill="#000000" font-family="sans-serif" font-size="13" lengthAdjust="spacing" textLength="41" x="257.5" y="157.0669">possui</text><text fill="#000000" font-family="sans-serif" font-size="13" lengthAdjust="spacing" textLength="8" x="100.8766" y="161.371">1</text><text fill="#000000" font-family="sans-serif" font-size="13" lengthAdjust="spacing" textLength="8" x="577.4699" y="191.9644">1</text><!--MD5=[65c0b4ced80642714d633a5480d06ed6]
link Parque to Endereco--><path codeLine="40" d="M697.595,179 C735.796,179 787.494,179 823.897,179 " fill="none" id="Parque-Endereco" style="stroke:#A80036;stroke-width:1.0;"/><polygon fill="#000000" points="763,170.5664,753.9549,167.6275,753.9549,173.5053,763,170.5664" style="stroke:#000000;stroke-width:1.0;"/><text fill="#000000" font-family="sans-serif" font-size="13" lengthAdjust="spacing" textLength="26" x="767" y="175.0669">tem</text><text fill="#000000" font-family="sans-serif" font-size="13" lengthAdjust="spacing" textLength="8" x="705.4834" y="192.1584">1</text><text fill="#000000" font-family="sans-serif" font-size="13" lengthAdjust="spacing" textLength="8" x="808.0712" y="192.2554">1</text><!--MD5=[1eb578f81baca05fae5600e8efb79c07]
link Farmacia to Administrador--><path codeLine="41" d="M93.0621,126.7359 C121.569,118.424 160.071,107.198 193.925,97.327 " fill="none" id="Farmacia-Administrador" style="stroke:#A80036;stroke-width:1.0;"/><polygon fill="#000000" points="132.8001,97.1668,123.294,96.8773,124.9393,102.5201,132.8001,97.1668" style="stroke:#000000;stroke-width:1.0;"/><text fill="#000000" font-family="sans-serif" font-size="13" lengthAdjust="spacing" textLength="26" x="137" y="103.0669">tem</text><text fill="#000000" font-family="sans-serif" font-size="13" lengthAdjust="spacing" textLength="8" x="100.8568" y="138.0409">1</text><text fill="#000000" font-family="sans-serif" font-size="13" lengthAdjust="spacing" textLength="8" x="177.895" y="112.3354">1</text><!--MD5=[981741d4d43c623af4ffc28d0e22ef94]
@startuml
skinparam classAttributeIconSize 0
hide methods
left to right direction

class Farmacia {
  -NIF
}

class Utilizador {
  -NIF
  -nome
  -email
  -numeroSegurancaSocial
  -password
}

class Administrador {
  -NIF
  -nome
  -email
  -numeroSegurancaSocial
  -password
}

class Endereco {
  -morada
  -latitude
  -longitude
  -altitude
}

class Parque {
  -numeroMaximo
  -tipo
}

Administrador "1" - - "1" Utilizador: atua como >
Administrador "1" - - "1" Parque: define numeroMaximo >
Farmacia "1" - - "1" Parque: possui >
Parque "1" - - "1" Endereco: tem >
Farmacia "1" - - "1" Administrador: tem >
@enduml

PlantUML version 1.2020.27beta8(Unknown compile time)
(GPL source distribution)
Java Runtime: Java(TM) SE Runtime Environment
JVM: Java HotSpot(TM) 64-Bit Server VM
Default Encoding: UTF-8
Language: en
Country: US
--></g></svg>