<?xml version="1.0" encoding="UTF-8" standalone="no"?><svg xmlns="http://www.w3.org/2000/svg" xmlns:xlink="http://www.w3.org/1999/xlink" contentScriptType="application/ecmascript" contentStyleType="text/css" height="315px" preserveAspectRatio="none" style="width:737px;height:315px;" version="1.1" viewBox="0 0 737 315" width="737px" zoomAndPan="magnify"><defs><filter height="300%" id="f135e62mci9c3j" width="300%" x="-1" y="-1"><feGaussianBlur result="blurOut" stdDeviation="2.0"/><feColorMatrix in="blurOut" result="blurOut2" type="matrix" values="0 0 0 0 0 0 0 0 0 0 0 0 0 0 0 0 0 0 .4 0"/><feOffset dx="4.0" dy="4.0" in="blurOut2" result="blurOut3"/><feBlend in="SourceGraphic" in2="blurOut3" mode="normal"/></filter></defs><g><!--MD5=[6613c9cd406ef433ff06f5e98b28abd9]
class Farmacia--><rect codeLine="5" fill="#FEFECE" filter="url(#f135e62mci9c3j)" height="78.4141" id="Farmacia" style="stroke:#A80036;stroke-width:1.5;" width="86" x="7" y="153"/><ellipse cx="22" cy="169" fill="#ADD1B2" rx="11" ry="11" style="stroke:#A80036;stroke-width:1.0;"/><path d="M24.3438,164.6719 C23.4063,164.2344 22.8125,164.0938 21.9375,164.0938 C19.3125,164.0938 17.3125,166.1719 17.3125,168.8906 L17.3125,170.0156 C17.3125,172.5938 19.4219,174.4844 22.3125,174.4844 C23.5313,174.4844 24.6875,174.1875 25.4375,173.6406 C26.0156,173.2344 26.3438,172.7813 26.3438,172.3906 C26.3438,171.9375 25.9531,171.5469 25.4844,171.5469 C25.2656,171.5469 25.0625,171.625 24.875,171.8125 C24.4219,172.2969 24.4219,172.2969 24.2344,172.3906 C23.8125,172.6563 23.125,172.7813 22.3594,172.7813 C20.3125,172.7813 19.0156,171.6875 19.0156,169.9844 L19.0156,168.8906 C19.0156,167.1094 20.2656,165.7969 22,165.7969 C22.5781,165.7969 23.1875,165.9531 23.6563,166.2031 C24.1406,166.4844 24.3125,166.7031 24.4063,167.1094 C24.4688,167.5156 24.5,167.6406 24.6406,167.7656 C24.7813,167.9063 25.0156,168.0156 25.2344,168.0156 C25.5,168.0156 25.7656,167.875 25.9375,167.6563 C26.0469,167.5 26.0781,167.3125 26.0781,166.8906 L26.0781,165.4688 C26.0781,165.0313 26.0625,164.9063 25.9688,164.75 C25.8125,164.4844 25.5313,164.3438 25.2344,164.3438 C24.9375,164.3438 24.7344,164.4375 24.5156,164.75 L24.3438,164.6719 Z " fill="#000000"/><text fill="#000000" font-family="sans-serif" font-size="12" lengthAdjust="spacing" textLength="54" x="36" y="173.1543">Farmacia</text><line style="stroke:#A80036;stroke-width:1.5;" x1="8" x2="92" y1="185" y2="185"/><text fill="#000000" font-family="sans-serif" font-size="11" lengthAdjust="spacing" textLength="21" x="13" y="199.2104">-NIF</text><text fill="#000000" font-family="sans-serif" font-size="11" lengthAdjust="spacing" textLength="36" x="13" y="212.0151">-email</text><text fill="#000000" font-family="sans-serif" font-size="11" lengthAdjust="spacing" textLength="47" x="13" y="224.8198">-morada</text><!--MD5=[5dd1d6732c071e710b9290b531f2fa3b]
class Utilizador--><rect codeLine="11" fill="#FEFECE" filter="url(#f135e62mci9c3j)" height="104.0234" id="Utilizador" style="stroke:#A80036;stroke-width:1.5;" width="155" x="568" y="7"/><ellipse cx="612.75" cy="23" fill="#ADD1B2" rx="11" ry="11" style="stroke:#A80036;stroke-width:1.0;"/><path d="M615.0938,18.6719 C614.1563,18.2344 613.5625,18.0938 612.6875,18.0938 C610.0625,18.0938 608.0625,20.1719 608.0625,22.8906 L608.0625,24.0156 C608.0625,26.5938 610.1719,28.4844 613.0625,28.4844 C614.2813,28.4844 615.4375,28.1875 616.1875,27.6406 C616.7656,27.2344 617.0938,26.7813 617.0938,26.3906 C617.0938,25.9375 616.7031,25.5469 616.2344,25.5469 C616.0156,25.5469 615.8125,25.625 615.625,25.8125 C615.1719,26.2969 615.1719,26.2969 614.9844,26.3906 C614.5625,26.6563 613.875,26.7813 613.1094,26.7813 C611.0625,26.7813 609.7656,25.6875 609.7656,23.9844 L609.7656,22.8906 C609.7656,21.1094 611.0156,19.7969 612.75,19.7969 C613.3281,19.7969 613.9375,19.9531 614.4063,20.2031 C614.8906,20.4844 615.0625,20.7031 615.1563,21.1094 C615.2188,21.5156 615.25,21.6406 615.3906,21.7656 C615.5313,21.9063 615.7656,22.0156 615.9844,22.0156 C616.25,22.0156 616.5156,21.875 616.6875,21.6563 C616.7969,21.5 616.8281,21.3125 616.8281,20.8906 L616.8281,19.4688 C616.8281,19.0313 616.8125,18.9063 616.7188,18.75 C616.5625,18.4844 616.2813,18.3438 615.9844,18.3438 C615.6875,18.3438 615.4844,18.4375 615.2656,18.75 L615.0938,18.6719 Z " fill="#000000"/><text fill="#000000" font-family="sans-serif" font-size="12" lengthAdjust="spacing" textLength="57" x="633.25" y="27.1543">Utilizador</text><line style="stroke:#A80036;stroke-width:1.5;" x1="569" x2="722" y1="39" y2="39"/><text fill="#000000" font-family="sans-serif" font-size="11" lengthAdjust="spacing" textLength="21" x="574" y="53.2104">-NIF</text><text fill="#000000" font-family="sans-serif" font-size="11" lengthAdjust="spacing" textLength="37" x="574" y="66.0151">-nome</text><text fill="#000000" font-family="sans-serif" font-size="11" lengthAdjust="spacing" textLength="36" x="574" y="78.8198">-email</text><text fill="#000000" font-family="sans-serif" font-size="11" lengthAdjust="spacing" textLength="143" x="574" y="91.6245">-numeroSegurancaSocial</text><text fill="#000000" font-family="sans-serif" font-size="11" lengthAdjust="spacing" textLength="57" x="574" y="104.4292">-password</text><!--MD5=[fdcda49d453d44c676d62f3f6af62207]
class Administrador--><rect codeLine="19" fill="#FEFECE" filter="url(#f135e62mci9c3j)" height="104.0234" id="Administrador" style="stroke:#A80036;stroke-width:1.5;" width="155" x="194" y="7"/><ellipse cx="226.55" cy="23" fill="#ADD1B2" rx="11" ry="11" style="stroke:#A80036;stroke-width:1.0;"/><path d="M228.8938,18.6719 C227.9563,18.2344 227.3625,18.0938 226.4875,18.0938 C223.8625,18.0938 221.8625,20.1719 221.8625,22.8906 L221.8625,24.0156 C221.8625,26.5938 223.9719,28.4844 226.8625,28.4844 C228.0813,28.4844 229.2375,28.1875 229.9875,27.6406 C230.5656,27.2344 230.8938,26.7813 230.8938,26.3906 C230.8938,25.9375 230.5031,25.5469 230.0344,25.5469 C229.8156,25.5469 229.6125,25.625 229.425,25.8125 C228.9719,26.2969 228.9719,26.2969 228.7844,26.3906 C228.3625,26.6563 227.675,26.7813 226.9094,26.7813 C224.8625,26.7813 223.5656,25.6875 223.5656,23.9844 L223.5656,22.8906 C223.5656,21.1094 224.8156,19.7969 226.55,19.7969 C227.1281,19.7969 227.7375,19.9531 228.2063,20.2031 C228.6906,20.4844 228.8625,20.7031 228.9563,21.1094 C229.0188,21.5156 229.05,21.6406 229.1906,21.7656 C229.3313,21.9063 229.5656,22.0156 229.7844,22.0156 C230.05,22.0156 230.3156,21.875 230.4875,21.6563 C230.5969,21.5 230.6281,21.3125 230.6281,20.8906 L230.6281,19.4688 C230.6281,19.0313 230.6125,18.9063 230.5188,18.75 C230.3625,18.4844 230.0813,18.3438 229.7844,18.3438 C229.4875,18.3438 229.2844,18.4375 229.0656,18.75 L228.8938,18.6719 Z " fill="#000000"/><text fill="#000000" font-family="sans-serif" font-size="12" lengthAdjust="spacing" textLength="84" x="244.45" y="27.1543">Administrador</text><line style="stroke:#A80036;stroke-width:1.5;" x1="195" x2="348" y1="39" y2="39"/><text fill="#000000" font-family="sans-serif" font-size="11" lengthAdjust="spacing" textLength="21" x="200" y="53.2104">-NIF</text><text fill="#000000" font-family="sans-serif" font-size="11" lengthAdjust="spacing" textLength="37" x="200" y="66.0151">-nome</text><text fill="#000000" font-family="sans-serif" font-size="11" lengthAdjust="spacing" textLength="36" x="200" y="78.8198">-email</text><text fill="#000000" font-family="sans-serif" font-size="11" lengthAdjust="spacing" textLength="143" x="200" y="91.6245">-numeroSegurancaSocial</text><text fill="#000000" font-family="sans-serif" font-size="11" lengthAdjust="spacing" textLength="57" x="200" y="104.4292">-password</text><!--MD5=[36c1942e8942a3e4f47e6de3733e3d18]
class Endereco--><rect codeLine="27" fill="#FEFECE" filter="url(#f135e62mci9c3j)" height="91.2188" id="Endereco" style="stroke:#A80036;stroke-width:1.5;" width="90" x="226.5" y="146.5"/><ellipse cx="241.5" cy="162.5" fill="#ADD1B2" rx="11" ry="11" style="stroke:#A80036;stroke-width:1.0;"/><path d="M243.8438,158.1719 C242.9063,157.7344 242.3125,157.5938 241.4375,157.5938 C238.8125,157.5938 236.8125,159.6719 236.8125,162.3906 L236.8125,163.5156 C236.8125,166.0938 238.9219,167.9844 241.8125,167.9844 C243.0313,167.9844 244.1875,167.6875 244.9375,167.1406 C245.5156,166.7344 245.8438,166.2813 245.8438,165.8906 C245.8438,165.4375 245.4531,165.0469 244.9844,165.0469 C244.7656,165.0469 244.5625,165.125 244.375,165.3125 C243.9219,165.7969 243.9219,165.7969 243.7344,165.8906 C243.3125,166.1563 242.625,166.2813 241.8594,166.2813 C239.8125,166.2813 238.5156,165.1875 238.5156,163.4844 L238.5156,162.3906 C238.5156,160.6094 239.7656,159.2969 241.5,159.2969 C242.0781,159.2969 242.6875,159.4531 243.1563,159.7031 C243.6406,159.9844 243.8125,160.2031 243.9063,160.6094 C243.9688,161.0156 244,161.1406 244.1406,161.2656 C244.2813,161.4063 244.5156,161.5156 244.7344,161.5156 C245,161.5156 245.2656,161.375 245.4375,161.1563 C245.5469,161 245.5781,160.8125 245.5781,160.3906 L245.5781,158.9688 C245.5781,158.5313 245.5625,158.4063 245.4688,158.25 C245.3125,157.9844 245.0313,157.8438 244.7344,157.8438 C244.4375,157.8438 244.2344,157.9375 244.0156,158.25 L243.8438,158.1719 Z " fill="#000000"/><text fill="#000000" font-family="sans-serif" font-size="12" lengthAdjust="spacing" textLength="58" x="255.5" y="166.6543">Endereco</text><line style="stroke:#A80036;stroke-width:1.5;" x1="227.5" x2="315.5" y1="178.5" y2="178.5"/><text fill="#000000" font-family="sans-serif" font-size="11" lengthAdjust="spacing" textLength="47" x="232.5" y="192.7104">-morada</text><text fill="#000000" font-family="sans-serif" font-size="11" lengthAdjust="spacing" textLength="47" x="232.5" y="205.5151">-latitude</text><text fill="#000000" font-family="sans-serif" font-size="11" lengthAdjust="spacing" textLength="57" x="232.5" y="218.3198">-longitude</text><text fill="#000000" font-family="sans-serif" font-size="11" lengthAdjust="spacing" textLength="47" x="232.5" y="231.1245">-altitude</text><!--MD5=[1a083dbe42a284ae0ea7f6f701783206]
class Parque--><rect codeLine="34" fill="#FEFECE" filter="url(#f135e62mci9c3j)" height="65.6094" id="Parque" style="stroke:#A80036;stroke-width:1.5;" width="104" x="593.5" y="201.0004"/><ellipse cx="622.45" cy="217.0004" fill="#ADD1B2" rx="11" ry="11" style="stroke:#A80036;stroke-width:1.0;"/><path d="M624.7938,212.6723 C623.8563,212.2348 623.2625,212.0942 622.3875,212.0942 C619.7625,212.0942 617.7625,214.1723 617.7625,216.891 L617.7625,218.016 C617.7625,220.5942 619.8719,222.4848 622.7625,222.4848 C623.9813,222.4848 625.1375,222.1879 625.8875,221.641 C626.4656,221.2348 626.7938,220.7817 626.7938,220.391 C626.7938,219.9379 626.4031,219.5473 625.9344,219.5473 C625.7156,219.5473 625.5125,219.6254 625.325,219.8129 C624.8719,220.2973 624.8719,220.2973 624.6844,220.391 C624.2625,220.6567 623.575,220.7817 622.8094,220.7817 C620.7625,220.7817 619.4656,219.6879 619.4656,217.9848 L619.4656,216.891 C619.4656,215.1098 620.7156,213.7973 622.45,213.7973 C623.0281,213.7973 623.6375,213.9535 624.1063,214.2035 C624.5906,214.4848 624.7625,214.7035 624.8563,215.1098 C624.9188,215.516 624.95,215.641 625.0906,215.766 C625.2313,215.9067 625.4656,216.016 625.6844,216.016 C625.95,216.016 626.2156,215.8754 626.3875,215.6567 C626.4969,215.5004 626.5281,215.3129 626.5281,214.891 L626.5281,213.4692 C626.5281,213.0317 626.5125,212.9067 626.4188,212.7504 C626.2625,212.4848 625.9813,212.3442 625.6844,212.3442 C625.3875,212.3442 625.1844,212.4379 624.9656,212.7504 L624.7938,212.6723 Z " fill="#000000"/><text fill="#000000" font-family="sans-serif" font-size="12" lengthAdjust="spacing" textLength="41" x="639.55" y="221.1547">Parque</text><line style="stroke:#A80036;stroke-width:1.5;" x1="594.5" x2="696.5" y1="233.0004" y2="233.0004"/><text fill="#000000" font-family="sans-serif" font-size="11" lengthAdjust="spacing" textLength="92" x="599.5" y="247.2108">-numeroMaximo</text><text fill="#000000" font-family="sans-serif" font-size="11" lengthAdjust="spacing" textLength="25" x="599.5" y="260.0155">-tipo</text><!--MD5=[b4161b205744775e44f73e41ced309e0]
link Administrador to Utilizador--><path codeLine="39" d="M349.128,59 C413.148,59 503.979,59 567.972,59 " fill="none" id="Administrador-Utilizador" style="stroke:#A80036;stroke-width:1.0;"/><polygon fill="#000000" points="426.5,50.5664,417.4549,47.6275,417.4549,53.5053,426.5,50.5664" style="stroke:#000000;stroke-width:1.0;"/><text fill="#000000" font-family="sans-serif" font-size="13" lengthAdjust="spacing" textLength="69" x="430.5" y="55.0669">atua como</text><text fill="#000000" font-family="sans-serif" font-size="13" lengthAdjust="spacing" textLength="8" x="356.9082" y="71.787">1</text><text fill="#000000" font-family="sans-serif" font-size="13" lengthAdjust="spacing" textLength="8" x="551.9466" y="71.8106">1</text><!--MD5=[6ba179a0a54b0b32b52757b8e4d27c6d]
link Administrador to Parque--><path codeLine="40" d="M349.128,95.048 C422.187,129.418 530.164,180.213 593.322,209.9247 " fill="none" id="Administrador-Parque" style="stroke:#A80036;stroke-width:1.0;"/><polygon fill="#000000" points="388.5244,104.6948,381.5908,98.1851,379.0887,103.5038,388.5244,104.6948" style="stroke:#000000;stroke-width:1.0;"/><text fill="#000000" font-family="sans-serif" font-size="13" lengthAdjust="spacing" textLength="144" x="393" y="107.0669">define numeroMaximo</text><text fill="#000000" font-family="sans-serif" font-size="13" lengthAdjust="spacing" textLength="8" x="356.9082" y="111.2708">1</text><text fill="#000000" font-family="sans-serif" font-size="13" lengthAdjust="spacing" textLength="8" x="577.422" y="219.6974">1</text><!--MD5=[4f96609c99ecadb81dc825d0ae539cef]
link Farmacia to Parque--><path codeLine="41" d="M93.2655,223.2528 C120.501,241.3948 157.526,262.4914 194,272.0004 C335.079,308.7807 508.605,272.1804 593.217,249.3235 " fill="none" id="Farmacia-Parque" style="stroke:#A80036;stroke-width:1.0;"/><polygon fill="#000000" points="253.4932,263.8272,244.6135,260.4212,244.3074,266.2911,253.4932,263.8272" style="stroke:#000000;stroke-width:1.0;"/><text fill="#000000" font-family="sans-serif" font-size="13" lengthAdjust="spacing" textLength="41" x="257.5" y="268.0673">possui</text><text fill="#000000" font-family="sans-serif" font-size="13" lengthAdjust="spacing" textLength="8" x="101.0938" y="241.7148">1</text><text fill="#000000" font-family="sans-serif" font-size="13" lengthAdjust="spacing" textLength="7" x="578.3725" y="264.6367">*</text><!--MD5=[e9cb6b9ea8421b6538fc03abcb01a9a8]
link Farmacia to Endereco--><path codeLine="42" d="M93.0621,192.0004 C131.279,192.0004 187.46,192.0004 226.322,192.0004 " fill="none" id="Farmacia-Endereco" style="stroke:#A80036;stroke-width:1.0;"/><polygon fill="#000000" points="133,183.5664,123.9549,180.6275,123.9549,186.5053,133,183.5664" style="stroke:#000000;stroke-width:1.0;"/><text fill="#000000" font-family="sans-serif" font-size="13" lengthAdjust="spacing" textLength="26" x="137" y="188.0669">tem</text><text fill="#000000" font-family="sans-serif" font-size="13" lengthAdjust="spacing" textLength="8" x="100.8568" y="205.2863">1</text><text fill="#000000" font-family="sans-serif" font-size="13" lengthAdjust="spacing" textLength="8" x="210.4843" y="205.2558">1</text><!--MD5=[1eb578f81baca05fae5600e8efb79c07]
link Farmacia to Administrador--><path codeLine="43" d="M93.0621,166.514 C121.569,149.241 160.071,125.912 193.925,105.399 " fill="none" id="Farmacia-Administrador" style="stroke:#A80036;stroke-width:1.0;"/><polygon fill="#000000" points="132.2763,114.9753,123.0174,117.1491,126.0634,122.1761,132.2763,114.9753" style="stroke:#000000;stroke-width:1.0;"/><text fill="#000000" font-family="sans-serif" font-size="13" lengthAdjust="spacing" textLength="26" x="137" y="122.0669">tem</text><text fill="#000000" font-family="sans-serif" font-size="13" lengthAdjust="spacing" textLength="8" x="100.8568" y="175.5787">1</text><text fill="#000000" font-family="sans-serif" font-size="13" lengthAdjust="spacing" textLength="8" x="177.895" y="122.777">1</text><!--MD5=[69ff86f59e4d35337c9d253454e640c6]
@startuml
skinparam classAttributeIconSize 0
hide methods
left to right direction

class Farmacia {
  -NIF
  -email
  -morada
}

class Utilizador {
  -NIF
  -nome
  -email
  -numeroSegurancaSocial
  -password
}

class Administrador {
  -NIF
  -nome
  -email
  -numeroSegurancaSocial
  -password
}

class Endereco {
  -morada
  -latitude
  -longitude
  -altitude
}

class Parque {
  -numeroMaximo
  -tipo
}

Administrador "1" - - "1" Utilizador: atua como >
Administrador "1" - - "1" Parque: define numeroMaximo >
Farmacia "1" - - "*" Parque: possui >
Farmacia "1" - - "1" Endereco: tem >
Farmacia "1" - - "1" Administrador: tem >
@enduml

PlantUML version 1.2021.01beta3(Unknown compile time)
(GPL source distribution)
Java Runtime: Java(TM) SE Runtime Environment
JVM: Java HotSpot(TM) 64-Bit Server VM
Default Encoding: UTF-8
Language: en
Country: US
--></g></svg>