<?xml version="1.0" encoding="UTF-8" standalone="no"?><svg xmlns="http://www.w3.org/2000/svg" xmlns:xlink="http://www.w3.org/1999/xlink" contentScriptType="application/ecmascript" contentStyleType="text/css" height="1182px" preserveAspectRatio="none" style="width:2108px;height:1182px;" version="1.1" viewBox="0 0 2108 1182" width="2108px" zoomAndPan="magnify"><defs><filter height="300%" id="f1bvq60fmx5quk" width="300%" x="-1" y="-1"><feGaussianBlur result="blurOut" stdDeviation="2.0"/><feColorMatrix in="blurOut" result="blurOut2" type="matrix" values="0 0 0 0 0 0 0 0 0 0 0 0 0 0 0 0 0 0 .4 0"/><feOffset dx="4.0" dy="4.0" in="blurOut2" result="blurOut3"/><feBlend in="SourceGraphic" in2="blurOut3" mode="normal"/></filter></defs><g><rect fill="#FFFFFF" filter="url(#f1bvq60fmx5quk)" height="981.6094" style="stroke:#A80036;stroke-width:1.0;" width="10" x="50.5" y="98.2969"/><rect fill="#FFFFFF" filter="url(#f1bvq60fmx5quk)" height="74.5313" style="stroke:#A80036;stroke-width:1.0;" width="10" x="551.5" y="119.4297"/><rect fill="#FFFFFF" filter="url(#f1bvq60fmx5quk)" height="370.9531" style="stroke:#A80036;stroke-width:1.0;" width="10" x="551.5" y="223.0938"/><rect fill="#FFFFFF" filter="url(#f1bvq60fmx5quk)" height="456.7266" style="stroke:#A80036;stroke-width:1.0;" width="10" x="551.5" y="623.1797"/><rect fill="#FFFFFF" filter="url(#f1bvq60fmx5quk)" height="58.2656" style="stroke:#A80036;stroke-width:1.0;" width="10" x="932.5" y="276.3594"/><rect fill="#FFFFFF" filter="url(#f1bvq60fmx5quk)" height="58.2656" style="stroke:#A80036;stroke-width:1.0;" width="10" x="932.5" y="386.9219"/><rect fill="#FFFFFF" filter="url(#f1bvq60fmx5quk)" height="58.2656" style="stroke:#A80036;stroke-width:1.0;" width="10" x="932.5" y="490.4844"/><rect fill="#FFFFFF" filter="url(#f1bvq60fmx5quk)" height="106.3984" style="stroke:#A80036;stroke-width:1.0;" width="10" x="932.5" y="652.3125"/><rect fill="#FFFFFF" filter="url(#f1bvq60fmx5quk)" height="106.3984" style="stroke:#A80036;stroke-width:1.0;" width="10" x="932.5" y="794.8438"/><rect fill="#FFFFFF" filter="url(#f1bvq60fmx5quk)" height="106.3984" style="stroke:#A80036;stroke-width:1.0;" width="10" x="932.5" y="937.375"/><rect fill="#FFFFFF" filter="url(#f1bvq60fmx5quk)" height="29.1328" style="stroke:#A80036;stroke-width:1.0;" width="10" x="1236.5" y="416.0547"/><rect fill="#FFFFFF" filter="url(#f1bvq60fmx5quk)" height="77.2656" style="stroke:#A80036;stroke-width:1.0;" width="10" x="1236.5" y="823.9766"/><rect fill="#FFFFFF" filter="url(#f1bvq60fmx5quk)" height="29.1328" style="stroke:#A80036;stroke-width:1.0;" width="10" x="1418.5" y="305.4922"/><rect fill="#FFFFFF" filter="url(#f1bvq60fmx5quk)" height="77.2656" style="stroke:#A80036;stroke-width:1.0;" width="10" x="1418.5" y="966.5078"/><rect fill="#FFFFFF" filter="url(#f1bvq60fmx5quk)" height="29.1328" style="stroke:#A80036;stroke-width:1.0;" width="10" x="1601.5" y="519.6172"/><rect fill="#FFFFFF" filter="url(#f1bvq60fmx5quk)" height="77.2656" style="stroke:#A80036;stroke-width:1.0;" width="10" x="1601.5" y="681.4453"/><rect fill="#FFFFFF" filter="url(#f1bvq60fmx5quk)" height="120.6953" style="stroke:#000000;stroke-width:2.0;" width="1512" x="469.5" y="238.0938"/><line style="stroke:#A80036;stroke-width:1.0;stroke-dasharray:5.0,5.0;" x1="55" x2="55" y1="88.2969" y2="1097.9063"/><line style="stroke:#A80036;stroke-width:1.0;stroke-dasharray:5.0,5.0;" x1="556.5" x2="556.5" y1="88.2969" y2="1097.9063"/><line style="stroke:#A80036;stroke-width:1.0;stroke-dasharray:5.0,5.0;" x1="937.5" x2="937.5" y1="88.2969" y2="1097.9063"/><line style="stroke:#A80036;stroke-width:1.0;stroke-dasharray:5.0,5.0;" x1="1241.5" x2="1241.5" y1="88.2969" y2="1097.9063"/><line style="stroke:#A80036;stroke-width:1.0;stroke-dasharray:5.0,5.0;" x1="1423.5" x2="1423.5" y1="88.2969" y2="1097.9063"/><line style="stroke:#A80036;stroke-width:1.0;stroke-dasharray:5.0,5.0;" x1="1606.5" x2="1606.5" y1="88.2969" y2="1097.9063"/><line style="stroke:#A80036;stroke-width:1.0;stroke-dasharray:5.0,5.0;" x1="1783.5" x2="1783.5" y1="456.7031" y2="1097.9063"/><line style="stroke:#A80036;stroke-width:1.0;stroke-dasharray:5.0,5.0;" x1="1910.5" x2="1910.5" y1="346.1406" y2="1097.9063"/><line style="stroke:#A80036;stroke-width:1.0;stroke-dasharray:5.0,5.0;" x1="2039.5" x2="2039.5" y1="560.2656" y2="1097.9063"/><text fill="#000000" font-family="sans-serif" font-size="14" lengthAdjust="spacingAndGlyphs" textLength="95" x="5" y="84.9951">Administrador</text><ellipse cx="55.5" cy="15" fill="#FEFECE" filter="url(#f1bvq60fmx5quk)" rx="8" ry="8" style="stroke:#A80036;stroke-width:2.0;"/><path d="M55.5,23 L55.5,50 M42.5,31 L68.5,31 M55.5,50 L42.5,65 M55.5,50 L68.5,65 " fill="none" filter="url(#f1bvq60fmx5quk)" style="stroke:#A80036;stroke-width:2.0;"/><text fill="#000000" font-family="sans-serif" font-size="14" lengthAdjust="spacingAndGlyphs" textLength="95" x="5" y="1109.9014">Administrador</text><ellipse cx="55.5" cy="1123.2031" fill="#FEFECE" filter="url(#f1bvq60fmx5quk)" rx="8" ry="8" style="stroke:#A80036;stroke-width:2.0;"/><path d="M55.5,1131.2031 L55.5,1158.2031 M42.5,1139.2031 L68.5,1139.2031 M55.5,1158.2031 L42.5,1173.2031 M55.5,1158.2031 L68.5,1173.2031 " fill="none" filter="url(#f1bvq60fmx5quk)" style="stroke:#A80036;stroke-width:2.0;"/><rect fill="#FEFECE" filter="url(#f1bvq60fmx5quk)" height="30.2969" style="stroke:#A80036;stroke-width:1.5;" width="150" x="479.5" y="53"/><text fill="#000000" font-family="sans-serif" font-size="14" lengthAdjust="spacingAndGlyphs" textLength="136" x="486.5" y="72.9951">:RegistarFarmaciaUI</text><rect fill="#FEFECE" filter="url(#f1bvq60fmx5quk)" height="30.2969" style="stroke:#A80036;stroke-width:1.5;" width="150" x="479.5" y="1096.9063"/><text fill="#000000" font-family="sans-serif" font-size="14" lengthAdjust="spacingAndGlyphs" textLength="136" x="486.5" y="1116.9014">:RegistarFarmaciaUI</text><rect fill="#FEFECE" filter="url(#f1bvq60fmx5quk)" height="30.2969" style="stroke:#A80036;stroke-width:1.5;" width="204" x="833.5" y="53"/><text fill="#000000" font-family="sans-serif" font-size="14" lengthAdjust="spacingAndGlyphs" textLength="190" x="840.5" y="72.9951">:RegistarFarmaciaController</text><rect fill="#FEFECE" filter="url(#f1bvq60fmx5quk)" height="30.2969" style="stroke:#A80036;stroke-width:1.5;" width="204" x="833.5" y="1096.9063"/><text fill="#000000" font-family="sans-serif" font-size="14" lengthAdjust="spacingAndGlyphs" textLength="190" x="840.5" y="1116.9014">:RegistarFarmaciaController</text><rect fill="#FEFECE" filter="url(#f1bvq60fmx5quk)" height="30.2969" style="stroke:#A80036;stroke-width:1.5;" width="96" x="1191.5" y="53"/><text fill="#000000" font-family="sans-serif" font-size="14" lengthAdjust="spacingAndGlyphs" textLength="82" x="1198.5" y="72.9951">FarmaciaDB</text><rect fill="#FEFECE" filter="url(#f1bvq60fmx5quk)" height="30.2969" style="stroke:#A80036;stroke-width:1.5;" width="96" x="1191.5" y="1096.9063"/><text fill="#000000" font-family="sans-serif" font-size="14" lengthAdjust="spacingAndGlyphs" textLength="82" x="1198.5" y="1116.9014">FarmaciaDB</text><rect fill="#FEFECE" filter="url(#f1bvq60fmx5quk)" height="30.2969" style="stroke:#A80036;stroke-width:1.5;" width="84" x="1379.5" y="53"/><text fill="#000000" font-family="sans-serif" font-size="14" lengthAdjust="spacingAndGlyphs" textLength="70" x="1386.5" y="72.9951">ParqueDB</text><rect fill="#FEFECE" filter="url(#f1bvq60fmx5quk)" height="30.2969" style="stroke:#A80036;stroke-width:1.5;" width="84" x="1379.5" y="1096.9063"/><text fill="#000000" font-family="sans-serif" font-size="14" lengthAdjust="spacingAndGlyphs" textLength="70" x="1386.5" y="1116.9014">ParqueDB</text><rect fill="#FEFECE" filter="url(#f1bvq60fmx5quk)" height="30.2969" style="stroke:#A80036;stroke-width:1.5;" width="102" x="1553.5" y="53"/><text fill="#000000" font-family="sans-serif" font-size="14" lengthAdjust="spacingAndGlyphs" textLength="88" x="1560.5" y="72.9951">EnderecoDB</text><rect fill="#FEFECE" filter="url(#f1bvq60fmx5quk)" height="30.2969" style="stroke:#A80036;stroke-width:1.5;" width="102" x="1553.5" y="1096.9063"/><text fill="#000000" font-family="sans-serif" font-size="14" lengthAdjust="spacingAndGlyphs" textLength="88" x="1560.5" y="1116.9014">EnderecoDB</text><rect fill="#FEFECE" filter="url(#f1bvq60fmx5quk)" height="30.2969" style="stroke:#A80036;stroke-width:1.5;" width="110" x="1726.5" y="1096.9063"/><text fill="#000000" font-family="sans-serif" font-size="14" lengthAdjust="spacingAndGlyphs" textLength="96" x="1733.5" y="1116.9014">farm:Farmacia</text><rect fill="#FEFECE" filter="url(#f1bvq60fmx5quk)" height="30.2969" style="stroke:#A80036;stroke-width:1.5;" width="117" x="1850.5" y="1096.9063"/><text fill="#000000" font-family="sans-serif" font-size="14" lengthAdjust="spacingAndGlyphs" textLength="103" x="1857.5" y="1116.9014">parque:Parque</text><rect fill="#FEFECE" filter="url(#f1bvq60fmx5quk)" height="30.2969" style="stroke:#A80036;stroke-width:1.5;" width="113" x="1981.5" y="1096.9063"/><text fill="#000000" font-family="sans-serif" font-size="14" lengthAdjust="spacingAndGlyphs" textLength="99" x="1988.5" y="1116.9014">end:Endereco</text><rect fill="#FFFFFF" filter="url(#f1bvq60fmx5quk)" height="981.6094" style="stroke:#A80036;stroke-width:1.0;" width="10" x="50.5" y="98.2969"/><rect fill="#FFFFFF" filter="url(#f1bvq60fmx5quk)" height="74.5313" style="stroke:#A80036;stroke-width:1.0;" width="10" x="551.5" y="119.4297"/><rect fill="#FFFFFF" filter="url(#f1bvq60fmx5quk)" height="370.9531" style="stroke:#A80036;stroke-width:1.0;" width="10" x="551.5" y="223.0938"/><rect fill="#FFFFFF" filter="url(#f1bvq60fmx5quk)" height="456.7266" style="stroke:#A80036;stroke-width:1.0;" width="10" x="551.5" y="623.1797"/><rect fill="#FFFFFF" filter="url(#f1bvq60fmx5quk)" height="58.2656" style="stroke:#A80036;stroke-width:1.0;" width="10" x="932.5" y="276.3594"/><rect fill="#FFFFFF" filter="url(#f1bvq60fmx5quk)" height="58.2656" style="stroke:#A80036;stroke-width:1.0;" width="10" x="932.5" y="386.9219"/><rect fill="#FFFFFF" filter="url(#f1bvq60fmx5quk)" height="58.2656" style="stroke:#A80036;stroke-width:1.0;" width="10" x="932.5" y="490.4844"/><rect fill="#FFFFFF" filter="url(#f1bvq60fmx5quk)" height="106.3984" style="stroke:#A80036;stroke-width:1.0;" width="10" x="932.5" y="652.3125"/><rect fill="#FFFFFF" filter="url(#f1bvq60fmx5quk)" height="106.3984" style="stroke:#A80036;stroke-width:1.0;" width="10" x="932.5" y="794.8438"/><rect fill="#FFFFFF" filter="url(#f1bvq60fmx5quk)" height="106.3984" style="stroke:#A80036;stroke-width:1.0;" width="10" x="932.5" y="937.375"/><rect fill="#FFFFFF" filter="url(#f1bvq60fmx5quk)" height="29.1328" style="stroke:#A80036;stroke-width:1.0;" width="10" x="1236.5" y="416.0547"/><rect fill="#FFFFFF" filter="url(#f1bvq60fmx5quk)" height="77.2656" style="stroke:#A80036;stroke-width:1.0;" width="10" x="1236.5" y="823.9766"/><rect fill="#FFFFFF" filter="url(#f1bvq60fmx5quk)" height="29.1328" style="stroke:#A80036;stroke-width:1.0;" width="10" x="1418.5" y="305.4922"/><rect fill="#FFFFFF" filter="url(#f1bvq60fmx5quk)" height="77.2656" style="stroke:#A80036;stroke-width:1.0;" width="10" x="1418.5" y="966.5078"/><rect fill="#FFFFFF" filter="url(#f1bvq60fmx5quk)" height="29.1328" style="stroke:#A80036;stroke-width:1.0;" width="10" x="1601.5" y="519.6172"/><rect fill="#FFFFFF" filter="url(#f1bvq60fmx5quk)" height="77.2656" style="stroke:#A80036;stroke-width:1.0;" width="10" x="1601.5" y="681.4453"/><polygon fill="#A80036" points="539.5,115.4297,549.5,119.4297,539.5,123.4297,543.5,119.4297" style="stroke:#A80036;stroke-width:1.0;"/><line style="stroke:#A80036;stroke-width:1.0;" x1="60.5" x2="545.5" y1="119.4297" y2="119.4297"/><text fill="#000000" font-family="sans-serif" font-size="13" font-weight="bold" lengthAdjust="spacingAndGlyphs" textLength="9" x="67.5" y="114.3638">1</text><text fill="#000000" font-family="sans-serif" font-size="13" lengthAdjust="spacingAndGlyphs" textLength="242" x="80.5" y="114.3638">inicia a criação de uma nova farmácia</text><polygon fill="#A80036" points="71.5,189.9609,61.5,193.9609,71.5,197.9609,67.5,193.9609" style="stroke:#A80036;stroke-width:1.0;"/><line style="stroke:#A80036;stroke-width:1.0;stroke-dasharray:2.0,2.0;" x1="65.5" x2="555.5" y1="193.9609" y2="193.9609"/><text fill="#000000" font-family="sans-serif" font-size="13" font-weight="bold" lengthAdjust="spacingAndGlyphs" textLength="9" x="77.5" y="166.1958">2</text><text fill="#000000" font-family="sans-serif" font-size="13" lengthAdjust="spacingAndGlyphs" textLength="450" x="90.5" y="143.4966">solicita dados da farmácia (NIF, email, morada), endereço do farmácia</text><text fill="#000000" font-family="sans-serif" font-size="13" lengthAdjust="spacingAndGlyphs" textLength="411" x="90.5" y="158.6294">(morada, latitude, longitude e altitude) e quantidade de parques</text><text fill="#000000" font-family="sans-serif" font-size="13" lengthAdjust="spacingAndGlyphs" textLength="412" x="90.5" y="173.7622">e dados do parque (número máximo, tipo e capacidade máxima</text><text fill="#000000" font-family="sans-serif" font-size="13" lengthAdjust="spacingAndGlyphs" textLength="116" x="90.5" y="188.895">de carregamento)</text><polygon fill="#A80036" points="539.5,219.0938,549.5,223.0938,539.5,227.0938,543.5,223.0938" style="stroke:#A80036;stroke-width:1.0;"/><line style="stroke:#A80036;stroke-width:1.0;" x1="60.5" x2="545.5" y1="223.0938" y2="223.0938"/><text fill="#000000" font-family="sans-serif" font-size="13" font-weight="bold" lengthAdjust="spacingAndGlyphs" textLength="9" x="67.5" y="218.0278">3</text><text fill="#000000" font-family="sans-serif" font-size="13" lengthAdjust="spacingAndGlyphs" textLength="185" x="80.5" y="218.0278">introduz os dados solicitados</text><path d="M469.5,238.0938 L546.5,238.0938 L546.5,245.0938 L536.5,255.0938 L469.5,255.0938 L469.5,238.0938 " fill="#EEEEEE" style="stroke:#000000;stroke-width:1.0;"/><rect fill="none" height="120.6953" style="stroke:#000000;stroke-width:2.0;" width="1512" x="469.5" y="238.0938"/><text fill="#000000" font-family="sans-serif" font-size="13" font-weight="bold" lengthAdjust="spacingAndGlyphs" textLength="32" x="484.5" y="251.1606">loop</text><polygon fill="#A80036" points="920.5,272.3594,930.5,276.3594,920.5,280.3594,924.5,276.3594" style="stroke:#A80036;stroke-width:1.0;"/><line style="stroke:#A80036;stroke-width:1.0;" x1="561.5" x2="926.5" y1="276.3594" y2="276.3594"/><text fill="#000000" font-family="sans-serif" font-size="13" font-weight="bold" lengthAdjust="spacingAndGlyphs" textLength="9" x="568.5" y="271.2935">4</text><text fill="#000000" font-family="sans-serif" font-size="13" lengthAdjust="spacingAndGlyphs" textLength="307" x="581.5" y="271.2935">novoParque(NIF, numeroMaximo, tipo, maxCap)</text><polygon fill="#A80036" points="1406.5,301.4922,1416.5,305.4922,1406.5,309.4922,1410.5,305.4922" style="stroke:#A80036;stroke-width:1.0;"/><line style="stroke:#A80036;stroke-width:1.0;" x1="942.5" x2="1412.5" y1="305.4922" y2="305.4922"/><text fill="#000000" font-family="sans-serif" font-size="13" font-weight="bold" lengthAdjust="spacingAndGlyphs" textLength="9" x="949.5" y="300.4263">5</text><text fill="#000000" font-family="sans-serif" font-size="13" lengthAdjust="spacingAndGlyphs" textLength="363" x="962.5" y="300.4263">parque=novoParque(NIF, numeroMaximo, tipo, maxCap)</text><polygon fill="#A80036" points="1838.5,330.625,1848.5,334.625,1838.5,338.625,1842.5,334.625" style="stroke:#A80036;stroke-width:1.0;"/><line style="stroke:#A80036;stroke-width:1.0;stroke-dasharray:2.0,2.0;" x1="1423.5" x2="1844.5" y1="334.625" y2="334.625"/><text fill="#000000" font-family="sans-serif" font-size="13" font-weight="bold" lengthAdjust="spacingAndGlyphs" textLength="9" x="1430.5" y="329.5591">6</text><text fill="#000000" font-family="sans-serif" font-size="13" lengthAdjust="spacingAndGlyphs" textLength="272" x="1443.5" y="329.5591">create(NIF, numeroMaximo, tipo, maxCap)</text><rect fill="#FEFECE" filter="url(#f1bvq60fmx5quk)" height="30.2969" style="stroke:#A80036;stroke-width:1.5;" width="117" x="1850.5" y="313.4922"/><text fill="#000000" font-family="sans-serif" font-size="14" lengthAdjust="spacingAndGlyphs" textLength="103" x="1857.5" y="333.4873">parque:Parque</text><polygon fill="#A80036" points="920.5,382.9219,930.5,386.9219,920.5,390.9219,924.5,386.9219" style="stroke:#A80036;stroke-width:1.0;"/><line style="stroke:#A80036;stroke-width:1.0;" x1="561.5" x2="926.5" y1="386.9219" y2="386.9219"/><text fill="#000000" font-family="sans-serif" font-size="13" font-weight="bold" lengthAdjust="spacingAndGlyphs" textLength="9" x="568.5" y="381.856">7</text><text fill="#000000" font-family="sans-serif" font-size="13" lengthAdjust="spacingAndGlyphs" textLength="221" x="581.5" y="381.856">novaFarmacia(NIF, email, morada)</text><polygon fill="#A80036" points="1224.5,412.0547,1234.5,416.0547,1224.5,420.0547,1228.5,416.0547" style="stroke:#A80036;stroke-width:1.0;"/><line style="stroke:#A80036;stroke-width:1.0;" x1="942.5" x2="1230.5" y1="416.0547" y2="416.0547"/><text fill="#000000" font-family="sans-serif" font-size="13" font-weight="bold" lengthAdjust="spacingAndGlyphs" textLength="9" x="949.5" y="410.9888">8</text><text fill="#000000" font-family="sans-serif" font-size="13" lengthAdjust="spacingAndGlyphs" textLength="262" x="962.5" y="410.9888">farm=novaFarmacia(NIF, email, morada)</text><polygon fill="#A80036" points="1714.5,441.1875,1724.5,445.1875,1714.5,449.1875,1718.5,445.1875" style="stroke:#A80036;stroke-width:1.0;"/><line style="stroke:#A80036;stroke-width:1.0;stroke-dasharray:2.0,2.0;" x1="1241.5" x2="1720.5" y1="445.1875" y2="445.1875"/><text fill="#000000" font-family="sans-serif" font-size="13" font-weight="bold" lengthAdjust="spacingAndGlyphs" textLength="9" x="1248.5" y="440.1216">9</text><text fill="#000000" font-family="sans-serif" font-size="13" lengthAdjust="spacingAndGlyphs" textLength="172" x="1261.5" y="440.1216">create(NIF, email, morada)</text><rect fill="#FEFECE" filter="url(#f1bvq60fmx5quk)" height="30.2969" style="stroke:#A80036;stroke-width:1.5;" width="110" x="1726.5" y="424.0547"/><text fill="#000000" font-family="sans-serif" font-size="14" lengthAdjust="spacingAndGlyphs" textLength="96" x="1733.5" y="444.0498">farm:Farmacia</text><polygon fill="#A80036" points="920.5,486.4844,930.5,490.4844,920.5,494.4844,924.5,490.4844" style="stroke:#A80036;stroke-width:1.0;"/><line style="stroke:#A80036;stroke-width:1.0;" x1="561.5" x2="926.5" y1="490.4844" y2="490.4844"/><text fill="#000000" font-family="sans-serif" font-size="13" font-weight="bold" lengthAdjust="spacingAndGlyphs" textLength="18" x="568.5" y="485.4185">10</text><text fill="#000000" font-family="sans-serif" font-size="13" lengthAdjust="spacingAndGlyphs" textLength="330" x="590.5" y="485.4185">novoEndereco(morada, latitude, longitude, altitude)</text><polygon fill="#A80036" points="1589.5,515.6172,1599.5,519.6172,1589.5,523.6172,1593.5,519.6172" style="stroke:#A80036;stroke-width:1.0;"/><line style="stroke:#A80036;stroke-width:1.0;" x1="942.5" x2="1595.5" y1="519.6172" y2="519.6172"/><text fill="#000000" font-family="sans-serif" font-size="13" font-weight="bold" lengthAdjust="spacingAndGlyphs" textLength="18" x="949.5" y="514.5513">11</text><text fill="#000000" font-family="sans-serif" font-size="13" lengthAdjust="spacingAndGlyphs" textLength="357" x="971.5" y="514.5513">end=novoEndereco(morada, latitude, logitude, altitude)</text><polygon fill="#A80036" points="1969.5,544.75,1979.5,548.75,1969.5,552.75,1973.5,548.75" style="stroke:#A80036;stroke-width:1.0;"/><line style="stroke:#A80036;stroke-width:1.0;stroke-dasharray:2.0,2.0;" x1="1606.5" x2="1975.5" y1="548.75" y2="548.75"/><text fill="#000000" font-family="sans-serif" font-size="13" font-weight="bold" lengthAdjust="spacingAndGlyphs" textLength="18" x="1613.5" y="543.6841">12</text><text fill="#000000" font-family="sans-serif" font-size="13" lengthAdjust="spacingAndGlyphs" textLength="272" x="1635.5" y="543.6841">create(morada, latitude, logitude, altitude)</text><rect fill="#FEFECE" filter="url(#f1bvq60fmx5quk)" height="30.2969" style="stroke:#A80036;stroke-width:1.5;" width="113" x="1981.5" y="527.6172"/><text fill="#000000" font-family="sans-serif" font-size="14" lengthAdjust="spacingAndGlyphs" textLength="99" x="1988.5" y="547.6123">end:Endereco</text><polygon fill="#A80036" points="71.5,590.0469,61.5,594.0469,71.5,598.0469,67.5,594.0469" style="stroke:#A80036;stroke-width:1.0;"/><line style="stroke:#A80036;stroke-width:1.0;stroke-dasharray:2.0,2.0;" x1="65.5" x2="555.5" y1="594.0469" y2="594.0469"/><text fill="#000000" font-family="sans-serif" font-size="13" font-weight="bold" lengthAdjust="spacingAndGlyphs" textLength="18" x="77.5" y="588.981">13</text><text fill="#000000" font-family="sans-serif" font-size="13" lengthAdjust="spacingAndGlyphs" textLength="251" x="99.5" y="588.981">apresenta dados e solicita confirmação</text><polygon fill="#A80036" points="539.5,619.1797,549.5,623.1797,539.5,627.1797,543.5,623.1797" style="stroke:#A80036;stroke-width:1.0;"/><line style="stroke:#A80036;stroke-width:1.0;" x1="60.5" x2="545.5" y1="623.1797" y2="623.1797"/><text fill="#000000" font-family="sans-serif" font-size="13" font-weight="bold" lengthAdjust="spacingAndGlyphs" textLength="18" x="67.5" y="618.1138">14</text><text fill="#000000" font-family="sans-serif" font-size="13" lengthAdjust="spacingAndGlyphs" textLength="56" x="89.5" y="618.1138">confirma</text><polygon fill="#A80036" points="920.5,648.3125,930.5,652.3125,920.5,656.3125,924.5,652.3125" style="stroke:#A80036;stroke-width:1.0;"/><line style="stroke:#A80036;stroke-width:1.0;" x1="561.5" x2="926.5" y1="652.3125" y2="652.3125"/><text fill="#000000" font-family="sans-serif" font-size="13" font-weight="bold" lengthAdjust="spacingAndGlyphs" textLength="18" x="568.5" y="647.2466">15</text><text fill="#000000" font-family="sans-serif" font-size="13" lengthAdjust="spacingAndGlyphs" textLength="138" x="590.5" y="647.2466">registaEndereco(end)</text><polygon fill="#A80036" points="1589.5,677.4453,1599.5,681.4453,1589.5,685.4453,1593.5,681.4453" style="stroke:#A80036;stroke-width:1.0;"/><line style="stroke:#A80036;stroke-width:1.0;" x1="942.5" x2="1595.5" y1="681.4453" y2="681.4453"/><text fill="#000000" font-family="sans-serif" font-size="13" font-weight="bold" lengthAdjust="spacingAndGlyphs" textLength="18" x="949.5" y="676.3794">16</text><text fill="#000000" font-family="sans-serif" font-size="13" lengthAdjust="spacingAndGlyphs" textLength="138" x="971.5" y="676.3794">registaEndereco(end)</text><line style="stroke:#A80036;stroke-width:1.0;" x1="1611.5" x2="1653.5" y1="710.5781" y2="710.5781"/><line style="stroke:#A80036;stroke-width:1.0;" x1="1653.5" x2="1653.5" y1="710.5781" y2="723.5781"/><line style="stroke:#A80036;stroke-width:1.0;" x1="1612.5" x2="1653.5" y1="723.5781" y2="723.5781"/><polygon fill="#A80036" points="1622.5,719.5781,1612.5,723.5781,1622.5,727.5781,1618.5,723.5781" style="stroke:#A80036;stroke-width:1.0;"/><text fill="#000000" font-family="sans-serif" font-size="13" font-weight="bold" lengthAdjust="spacingAndGlyphs" textLength="18" x="1618.5" y="705.5122">17</text><text fill="#000000" font-family="sans-serif" font-size="13" lengthAdjust="spacingAndGlyphs" textLength="131" x="1640.5" y="705.5122">validaEndereco(end)</text><line style="stroke:#A80036;stroke-width:1.0;" x1="1611.5" x2="1653.5" y1="757.7109" y2="757.7109"/><line style="stroke:#A80036;stroke-width:1.0;" x1="1653.5" x2="1653.5" y1="757.7109" y2="770.7109"/><line style="stroke:#A80036;stroke-width:1.0;" x1="1606.5" x2="1653.5" y1="770.7109" y2="770.7109"/><polygon fill="#A80036" points="1616.5,766.7109,1606.5,770.7109,1616.5,774.7109,1612.5,770.7109" style="stroke:#A80036;stroke-width:1.0;"/><text fill="#000000" font-family="sans-serif" font-size="13" font-weight="bold" lengthAdjust="spacingAndGlyphs" textLength="18" x="1618.5" y="752.645">18</text><text fill="#000000" font-family="sans-serif" font-size="13" lengthAdjust="spacingAndGlyphs" textLength="118" x="1640.5" y="752.645">addEndereco(end)</text><polygon fill="#A80036" points="920.5,790.8438,930.5,794.8438,920.5,798.8438,924.5,794.8438" style="stroke:#A80036;stroke-width:1.0;"/><line style="stroke:#A80036;stroke-width:1.0;" x1="561.5" x2="926.5" y1="794.8438" y2="794.8438"/><text fill="#000000" font-family="sans-serif" font-size="13" font-weight="bold" lengthAdjust="spacingAndGlyphs" textLength="18" x="568.5" y="789.7778">19</text><text fill="#000000" font-family="sans-serif" font-size="13" lengthAdjust="spacingAndGlyphs" textLength="143" x="590.5" y="789.7778">registaFarmacia(farm)</text><polygon fill="#A80036" points="1224.5,819.9766,1234.5,823.9766,1224.5,827.9766,1228.5,823.9766" style="stroke:#A80036;stroke-width:1.0;"/><line style="stroke:#A80036;stroke-width:1.0;" x1="942.5" x2="1230.5" y1="823.9766" y2="823.9766"/><text fill="#000000" font-family="sans-serif" font-size="13" font-weight="bold" lengthAdjust="spacingAndGlyphs" textLength="18" x="949.5" y="818.9106">20</text><text fill="#000000" font-family="sans-serif" font-size="13" lengthAdjust="spacingAndGlyphs" textLength="143" x="971.5" y="818.9106">registaFarmacia(farm)</text><line style="stroke:#A80036;stroke-width:1.0;" x1="1246.5" x2="1288.5" y1="853.1094" y2="853.1094"/><line style="stroke:#A80036;stroke-width:1.0;" x1="1288.5" x2="1288.5" y1="853.1094" y2="866.1094"/><line style="stroke:#A80036;stroke-width:1.0;" x1="1247.5" x2="1288.5" y1="866.1094" y2="866.1094"/><polygon fill="#A80036" points="1257.5,862.1094,1247.5,866.1094,1257.5,870.1094,1253.5,866.1094" style="stroke:#A80036;stroke-width:1.0;"/><text fill="#000000" font-family="sans-serif" font-size="13" font-weight="bold" lengthAdjust="spacingAndGlyphs" textLength="18" x="1253.5" y="848.0435">21</text><text fill="#000000" font-family="sans-serif" font-size="13" lengthAdjust="spacingAndGlyphs" textLength="136" x="1275.5" y="848.0435">validaFarmacia(farm)</text><line style="stroke:#A80036;stroke-width:1.0;" x1="1246.5" x2="1288.5" y1="900.2422" y2="900.2422"/><line style="stroke:#A80036;stroke-width:1.0;" x1="1288.5" x2="1288.5" y1="900.2422" y2="913.2422"/><line style="stroke:#A80036;stroke-width:1.0;" x1="1241.5" x2="1288.5" y1="913.2422" y2="913.2422"/><polygon fill="#A80036" points="1251.5,909.2422,1241.5,913.2422,1251.5,917.2422,1247.5,913.2422" style="stroke:#A80036;stroke-width:1.0;"/><text fill="#000000" font-family="sans-serif" font-size="13" font-weight="bold" lengthAdjust="spacingAndGlyphs" textLength="18" x="1253.5" y="895.1763">22</text><text fill="#000000" font-family="sans-serif" font-size="13" lengthAdjust="spacingAndGlyphs" textLength="123" x="1275.5" y="895.1763">addFarmacia(farm)</text><polygon fill="#A80036" points="920.5,933.375,930.5,937.375,920.5,941.375,924.5,937.375" style="stroke:#A80036;stroke-width:1.0;"/><line style="stroke:#A80036;stroke-width:1.0;" x1="561.5" x2="926.5" y1="937.375" y2="937.375"/><text fill="#000000" font-family="sans-serif" font-size="13" font-weight="bold" lengthAdjust="spacingAndGlyphs" textLength="18" x="568.5" y="932.3091">23</text><text fill="#000000" font-family="sans-serif" font-size="13" lengthAdjust="spacingAndGlyphs" textLength="144" x="590.5" y="932.3091">registaParques(lparks)</text><polygon fill="#A80036" points="1406.5,962.5078,1416.5,966.5078,1406.5,970.5078,1410.5,966.5078" style="stroke:#A80036;stroke-width:1.0;"/><line style="stroke:#A80036;stroke-width:1.0;" x1="942.5" x2="1412.5" y1="966.5078" y2="966.5078"/><text fill="#000000" font-family="sans-serif" font-size="13" font-weight="bold" lengthAdjust="spacingAndGlyphs" textLength="18" x="949.5" y="961.4419">24</text><text fill="#000000" font-family="sans-serif" font-size="13" lengthAdjust="spacingAndGlyphs" textLength="144" x="971.5" y="961.4419">registaParques(lparks)</text><line style="stroke:#A80036;stroke-width:1.0;" x1="1428.5" x2="1470.5" y1="995.6406" y2="995.6406"/><line style="stroke:#A80036;stroke-width:1.0;" x1="1470.5" x2="1470.5" y1="995.6406" y2="1008.6406"/><line style="stroke:#A80036;stroke-width:1.0;" x1="1429.5" x2="1470.5" y1="1008.6406" y2="1008.6406"/><polygon fill="#A80036" points="1439.5,1004.6406,1429.5,1008.6406,1439.5,1012.6406,1435.5,1008.6406" style="stroke:#A80036;stroke-width:1.0;"/><text fill="#000000" font-family="sans-serif" font-size="13" font-weight="bold" lengthAdjust="spacingAndGlyphs" textLength="18" x="1435.5" y="990.5747">25</text><text fill="#000000" font-family="sans-serif" font-size="13" lengthAdjust="spacingAndGlyphs" textLength="137" x="1457.5" y="990.5747">validaParque(parque)</text><line style="stroke:#A80036;stroke-width:1.0;" x1="1428.5" x2="1470.5" y1="1042.7734" y2="1042.7734"/><line style="stroke:#A80036;stroke-width:1.0;" x1="1470.5" x2="1470.5" y1="1042.7734" y2="1055.7734"/><line style="stroke:#A80036;stroke-width:1.0;" x1="1423.5" x2="1470.5" y1="1055.7734" y2="1055.7734"/><polygon fill="#A80036" points="1433.5,1051.7734,1423.5,1055.7734,1433.5,1059.7734,1429.5,1055.7734" style="stroke:#A80036;stroke-width:1.0;"/><text fill="#000000" font-family="sans-serif" font-size="13" font-weight="bold" lengthAdjust="spacingAndGlyphs" textLength="18" x="1435.5" y="1037.7075">26</text><text fill="#000000" font-family="sans-serif" font-size="13" lengthAdjust="spacingAndGlyphs" textLength="124" x="1457.5" y="1037.7075">addParque(parque)</text><polygon fill="#A80036" points="66.5,1075.9063,56.5,1079.9063,66.5,1083.9063,62.5,1079.9063" style="stroke:#A80036;stroke-width:1.0;"/><line style="stroke:#A80036;stroke-width:1.0;stroke-dasharray:2.0,2.0;" x1="60.5" x2="555.5" y1="1079.9063" y2="1079.9063"/><text fill="#000000" font-family="sans-serif" font-size="13" font-weight="bold" lengthAdjust="spacingAndGlyphs" textLength="18" x="72.5" y="1074.8403">27</text><text fill="#000000" font-family="sans-serif" font-size="13" lengthAdjust="spacingAndGlyphs" textLength="154" x="94.5" y="1074.8403">operação bem sucedida</text><!--MD5=[90961ee541d711e36d2e8b83e1bb39b3]
@startuml
autonumber
actor "Administrador" as ADM

participant ":RegistarFarmaciaUI" as UI
participant ":RegistarFarmaciaController" as CTRL
participant "FarmaciaDB" as DB
participant "ParqueDB" as PDB
participant "EnderecoDB" as EDB
participant "farm:Farmacia" as FARMACIA
participant "parque:Parque" as PQ
participant "end:Endereco" as END

activate ADM
ADM -> UI : inicia a criação de uma nova farmácia
activate UI
UI - -> ADM : solicita dados da farmácia (NIF, email, morada), endereço do farmácia \n(morada, latitude, longitude e altitude) e quantidade de parques \ne dados do parque (número máximo, tipo e capacidade máxima \nde carregamento)
deactivate UI

ADM -> UI : introduz os dados solicitados
activate UI

loop
UI -> CTRL : novoParque(NIF, numeroMaximo, tipo, maxCap)
activate CTRL
CTRL -> PDB: parque=novoParque(NIF, numeroMaximo, tipo, maxCap)
activate PDB
PDB - -> PQ ** : create(NIF, numeroMaximo, tipo, maxCap)
deactivate PDB
deactivate CTRL
end loop

UI -> CTRL : novaFarmacia(NIF, email, morada)
activate CTRL

CTRL -> DB: farm=novaFarmacia(NIF, email, morada)
activate DB
DB - -> FARMACIA ** : create(NIF, email, morada)
deactivate DB
deactivate CTRL

UI -> CTRL : novoEndereco(morada, latitude, longitude, altitude)
activate CTRL
CTRL -> EDB: end=novoEndereco(morada, latitude, logitude, altitude)
activate EDB
EDB - -> END ** : create(morada, latitude, logitude, altitude)
deactivate EDB
deactivate CTRL

UI - -> ADM : apresenta dados e solicita confirmação
deactivate UI

ADM -> UI : confirma
activate UI

UI -> CTRL: registaEndereco(end)
activate CTRL
CTRL ->EDB: registaEndereco(end)
activate EDB
EDB -> EDB: validaEndereco(end)
EDB -> EDB: addEndereco(end)

deactivate EDB
deactivate CTRL

UI -> CTRL: registaFarmacia(farm)
activate CTRL
CTRL ->DB: registaFarmacia(farm)
activate DB
DB -> DB: validaFarmacia(farm)
DB -> DB: addFarmacia(farm)

deactivate DB
deactivate CTRL


UI -> CTRL: registaParques(lparks)
activate CTRL
CTRL ->PDB: registaParques(lparks)
activate PDB
PDB -> PDB: validaParque(parque)
PDB -> PDB: addParque(parque)

deactivate PDB
deactivate CTRL

UI - -> ADM : operação bem sucedida
deactivate UI

deactivate ADM
@enduml

PlantUML version 1.2020.22(Sun Dec 06 09:36:27 UTC 2020)
(GPL source distribution)
Java Runtime: OpenJDK Runtime Environment
JVM: OpenJDK 64-Bit Server VM
Default Encoding: UTF-8
Language: en
Country: US
--></g></svg>