<?xml version="1.0" encoding="UTF-8" standalone="no"?><svg xmlns="http://www.w3.org/2000/svg" xmlns:xlink="http://www.w3.org/1999/xlink" contentScriptType="application/ecmascript" contentStyleType="text/css" height="1151px" preserveAspectRatio="none" style="width:2124px;height:1151px;" version="1.1" viewBox="0 0 2124 1151" width="2124px" zoomAndPan="magnify"><defs><filter height="300%" id="fbrhd6er2l6as" width="300%" x="-1" y="-1"><feGaussianBlur result="blurOut" stdDeviation="2.0"/><feColorMatrix in="blurOut" result="blurOut2" type="matrix" values="0 0 0 0 0 0 0 0 0 0 0 0 0 0 0 0 0 0 .4 0"/><feOffset dx="4.0" dy="4.0" in="blurOut2" result="blurOut3"/><feBlend in="SourceGraphic" in2="blurOut3" mode="normal"/></filter></defs><g><rect fill="#FFFFFF" filter="url(#fbrhd6er2l6as)" height="951.3438" style="stroke:#A80036;stroke-width:1.0;" width="10" x="54" y="98.2969"/><rect fill="#FFFFFF" filter="url(#fbrhd6er2l6as)" height="44.2656" style="stroke:#A80036;stroke-width:1.0;" width="10" x="556" y="119.4297"/><rect fill="#FFFFFF" filter="url(#fbrhd6er2l6as)" height="370.9531" style="stroke:#A80036;stroke-width:1.0;" width="10" x="556" y="192.8281"/><rect fill="#FFFFFF" filter="url(#fbrhd6er2l6as)" height="456.7266" style="stroke:#A80036;stroke-width:1.0;" width="10" x="556" y="592.9141"/><rect fill="#FFFFFF" filter="url(#fbrhd6er2l6as)" height="58.2656" style="stroke:#A80036;stroke-width:1.0;" width="10" x="939" y="246.0938"/><rect fill="#FFFFFF" filter="url(#fbrhd6er2l6as)" height="58.2656" style="stroke:#A80036;stroke-width:1.0;" width="10" x="939" y="356.6563"/><rect fill="#FFFFFF" filter="url(#fbrhd6er2l6as)" height="58.2656" style="stroke:#A80036;stroke-width:1.0;" width="10" x="939" y="460.2188"/><rect fill="#FFFFFF" filter="url(#fbrhd6er2l6as)" height="106.3984" style="stroke:#A80036;stroke-width:1.0;" width="10" x="939" y="622.0469"/><rect fill="#FFFFFF" filter="url(#fbrhd6er2l6as)" height="106.3984" style="stroke:#A80036;stroke-width:1.0;" width="10" x="939" y="764.5781"/><rect fill="#FFFFFF" filter="url(#fbrhd6er2l6as)" height="106.3984" style="stroke:#A80036;stroke-width:1.0;" width="10" x="939" y="907.1094"/><rect fill="#FFFFFF" filter="url(#fbrhd6er2l6as)" height="29.1328" style="stroke:#A80036;stroke-width:1.0;" width="10" x="1243" y="385.7891"/><rect fill="#FFFFFF" filter="url(#fbrhd6er2l6as)" height="77.2656" style="stroke:#A80036;stroke-width:1.0;" width="10" x="1243" y="793.7109"/><rect fill="#FFFFFF" filter="url(#fbrhd6er2l6as)" height="29.1328" style="stroke:#A80036;stroke-width:1.0;" width="10" x="1427" y="275.2266"/><rect fill="#FFFFFF" filter="url(#fbrhd6er2l6as)" height="77.2656" style="stroke:#A80036;stroke-width:1.0;" width="10" x="1427" y="936.2422"/><rect fill="#FFFFFF" filter="url(#fbrhd6er2l6as)" height="29.1328" style="stroke:#A80036;stroke-width:1.0;" width="10" x="1611" y="489.3516"/><rect fill="#FFFFFF" filter="url(#fbrhd6er2l6as)" height="77.2656" style="stroke:#A80036;stroke-width:1.0;" width="10" x="1611" y="651.1797"/><rect fill="#FFFFFF" filter="url(#fbrhd6er2l6as)" height="120.6953" style="stroke:#000000;stroke-width:2.0;" width="1525.5" x="471" y="207.8281"/><line style="stroke:#A80036;stroke-width:1.0;stroke-dasharray:5.0,5.0;" x1="59" x2="59" y1="88.2969" y2="1067.6406"/><line style="stroke:#A80036;stroke-width:1.0;stroke-dasharray:5.0,5.0;" x1="561" x2="561" y1="88.2969" y2="1067.6406"/><line style="stroke:#A80036;stroke-width:1.0;stroke-dasharray:5.0,5.0;" x1="944" x2="944" y1="88.2969" y2="1067.6406"/><line style="stroke:#A80036;stroke-width:1.0;stroke-dasharray:5.0,5.0;" x1="1247.5" x2="1247.5" y1="88.2969" y2="1067.6406"/><line style="stroke:#A80036;stroke-width:1.0;stroke-dasharray:5.0,5.0;" x1="1432" x2="1432" y1="88.2969" y2="1067.6406"/><line style="stroke:#A80036;stroke-width:1.0;stroke-dasharray:5.0,5.0;" x1="1615.5" x2="1615.5" y1="88.2969" y2="1067.6406"/><line style="stroke:#A80036;stroke-width:1.0;stroke-dasharray:5.0,5.0;" x1="1793.5" x2="1793.5" y1="426.4375" y2="1067.6406"/><line style="stroke:#A80036;stroke-width:1.0;stroke-dasharray:5.0,5.0;" x1="1925.5" x2="1925.5" y1="315.875" y2="1067.6406"/><line style="stroke:#A80036;stroke-width:1.0;stroke-dasharray:5.0,5.0;" x1="2055.5" x2="2055.5" y1="530" y2="1067.6406"/><text fill="#000000" font-family="sans-serif" font-size="14" lengthAdjust="spacing" textLength="102" x="5" y="84.9951">Administrador</text><ellipse cx="59" cy="15" fill="#FEFECE" filter="url(#fbrhd6er2l6as)" rx="8" ry="8" style="stroke:#A80036;stroke-width:2.0;"/><path d="M59,23 L59,50 M46,31 L72,31 M59,50 L46,65 M59,50 L72,65 " fill="none" filter="url(#fbrhd6er2l6as)" style="stroke:#A80036;stroke-width:2.0;"/><text fill="#000000" font-family="sans-serif" font-size="14" lengthAdjust="spacing" textLength="102" x="5" y="1079.6357">Administrador</text><ellipse cx="59" cy="1092.9375" fill="#FEFECE" filter="url(#fbrhd6er2l6as)" rx="8" ry="8" style="stroke:#A80036;stroke-width:2.0;"/><path d="M59,1100.9375 L59,1127.9375 M46,1108.9375 L72,1108.9375 M59,1127.9375 L46,1142.9375 M59,1127.9375 L72,1142.9375 " fill="none" filter="url(#fbrhd6er2l6as)" style="stroke:#A80036;stroke-width:2.0;"/><rect fill="#FEFECE" filter="url(#fbrhd6er2l6as)" height="30.2969" style="stroke:#A80036;stroke-width:1.5;" width="156" x="481" y="53"/><text fill="#000000" font-family="sans-serif" font-size="14" lengthAdjust="spacing" textLength="142" x="488" y="72.9951">:RegistarFarmaciaUI</text><rect fill="#FEFECE" filter="url(#fbrhd6er2l6as)" height="30.2969" style="stroke:#A80036;stroke-width:1.5;" width="156" x="481" y="1066.6406"/><text fill="#000000" font-family="sans-serif" font-size="14" lengthAdjust="spacing" textLength="142" x="488" y="1086.6357">:RegistarFarmaciaUI</text><rect fill="#FEFECE" filter="url(#fbrhd6er2l6as)" height="30.2969" style="stroke:#A80036;stroke-width:1.5;" width="216" x="834" y="53"/><text fill="#000000" font-family="sans-serif" font-size="14" lengthAdjust="spacing" textLength="202" x="841" y="72.9951">:RegistarFarmaciaController</text><rect fill="#FEFECE" filter="url(#fbrhd6er2l6as)" height="30.2969" style="stroke:#A80036;stroke-width:1.5;" width="216" x="834" y="1066.6406"/><text fill="#000000" font-family="sans-serif" font-size="14" lengthAdjust="spacing" textLength="202" x="841" y="1086.6357">:RegistarFarmaciaController</text><rect fill="#FEFECE" filter="url(#fbrhd6er2l6as)" height="30.2969" style="stroke:#A80036;stroke-width:1.5;" width="99" x="1196.5" y="53"/><text fill="#000000" font-family="sans-serif" font-size="14" lengthAdjust="spacing" textLength="85" x="1203.5" y="72.9951">FarmaciaDB</text><rect fill="#FEFECE" filter="url(#fbrhd6er2l6as)" height="30.2969" style="stroke:#A80036;stroke-width:1.5;" width="99" x="1196.5" y="1066.6406"/><text fill="#000000" font-family="sans-serif" font-size="14" lengthAdjust="spacing" textLength="85" x="1203.5" y="1086.6357">FarmaciaDB</text><rect fill="#FEFECE" filter="url(#fbrhd6er2l6as)" height="30.2969" style="stroke:#A80036;stroke-width:1.5;" width="84" x="1388" y="53"/><text fill="#000000" font-family="sans-serif" font-size="14" lengthAdjust="spacing" textLength="70" x="1395" y="72.9951">ParqueDB</text><rect fill="#FEFECE" filter="url(#fbrhd6er2l6as)" height="30.2969" style="stroke:#A80036;stroke-width:1.5;" width="84" x="1388" y="1066.6406"/><text fill="#000000" font-family="sans-serif" font-size="14" lengthAdjust="spacing" textLength="70" x="1395" y="1086.6357">ParqueDB</text><rect fill="#FEFECE" filter="url(#fbrhd6er2l6as)" height="30.2969" style="stroke:#A80036;stroke-width:1.5;" width="103" x="1562.5" y="53"/><text fill="#000000" font-family="sans-serif" font-size="14" lengthAdjust="spacing" textLength="89" x="1569.5" y="72.9951">EnderecoDB</text><rect fill="#FEFECE" filter="url(#fbrhd6er2l6as)" height="30.2969" style="stroke:#A80036;stroke-width:1.5;" width="103" x="1562.5" y="1066.6406"/><text fill="#000000" font-family="sans-serif" font-size="14" lengthAdjust="spacing" textLength="89" x="1569.5" y="1086.6357">EnderecoDB</text><rect fill="#FEFECE" filter="url(#fbrhd6er2l6as)" height="30.2969" style="stroke:#A80036;stroke-width:1.5;" width="117" x="1733.5" y="1066.6406"/><text fill="#000000" font-family="sans-serif" font-size="14" lengthAdjust="spacing" textLength="103" x="1740.5" y="1086.6357">farm:Farmacia</text><rect fill="#FEFECE" filter="url(#fbrhd6er2l6as)" height="30.2969" style="stroke:#A80036;stroke-width:1.5;" width="118" x="1864.5" y="1066.6406"/><text fill="#000000" font-family="sans-serif" font-size="14" lengthAdjust="spacing" textLength="104" x="1871.5" y="1086.6357">parque:Parque</text><rect fill="#FEFECE" filter="url(#fbrhd6er2l6as)" height="30.2969" style="stroke:#A80036;stroke-width:1.5;" width="114" x="1996.5" y="1066.6406"/><text fill="#000000" font-family="sans-serif" font-size="14" lengthAdjust="spacing" textLength="100" x="2003.5" y="1086.6357">end:Endereco</text><rect fill="#FFFFFF" filter="url(#fbrhd6er2l6as)" height="951.3438" style="stroke:#A80036;stroke-width:1.0;" width="10" x="54" y="98.2969"/><rect fill="#FFFFFF" filter="url(#fbrhd6er2l6as)" height="44.2656" style="stroke:#A80036;stroke-width:1.0;" width="10" x="556" y="119.4297"/><rect fill="#FFFFFF" filter="url(#fbrhd6er2l6as)" height="370.9531" style="stroke:#A80036;stroke-width:1.0;" width="10" x="556" y="192.8281"/><rect fill="#FFFFFF" filter="url(#fbrhd6er2l6as)" height="456.7266" style="stroke:#A80036;stroke-width:1.0;" width="10" x="556" y="592.9141"/><rect fill="#FFFFFF" filter="url(#fbrhd6er2l6as)" height="58.2656" style="stroke:#A80036;stroke-width:1.0;" width="10" x="939" y="246.0938"/><rect fill="#FFFFFF" filter="url(#fbrhd6er2l6as)" height="58.2656" style="stroke:#A80036;stroke-width:1.0;" width="10" x="939" y="356.6563"/><rect fill="#FFFFFF" filter="url(#fbrhd6er2l6as)" height="58.2656" style="stroke:#A80036;stroke-width:1.0;" width="10" x="939" y="460.2188"/><rect fill="#FFFFFF" filter="url(#fbrhd6er2l6as)" height="106.3984" style="stroke:#A80036;stroke-width:1.0;" width="10" x="939" y="622.0469"/><rect fill="#FFFFFF" filter="url(#fbrhd6er2l6as)" height="106.3984" style="stroke:#A80036;stroke-width:1.0;" width="10" x="939" y="764.5781"/><rect fill="#FFFFFF" filter="url(#fbrhd6er2l6as)" height="106.3984" style="stroke:#A80036;stroke-width:1.0;" width="10" x="939" y="907.1094"/><rect fill="#FFFFFF" filter="url(#fbrhd6er2l6as)" height="29.1328" style="stroke:#A80036;stroke-width:1.0;" width="10" x="1243" y="385.7891"/><rect fill="#FFFFFF" filter="url(#fbrhd6er2l6as)" height="77.2656" style="stroke:#A80036;stroke-width:1.0;" width="10" x="1243" y="793.7109"/><rect fill="#FFFFFF" filter="url(#fbrhd6er2l6as)" height="29.1328" style="stroke:#A80036;stroke-width:1.0;" width="10" x="1427" y="275.2266"/><rect fill="#FFFFFF" filter="url(#fbrhd6er2l6as)" height="77.2656" style="stroke:#A80036;stroke-width:1.0;" width="10" x="1427" y="936.2422"/><rect fill="#FFFFFF" filter="url(#fbrhd6er2l6as)" height="29.1328" style="stroke:#A80036;stroke-width:1.0;" width="10" x="1611" y="489.3516"/><rect fill="#FFFFFF" filter="url(#fbrhd6er2l6as)" height="77.2656" style="stroke:#A80036;stroke-width:1.0;" width="10" x="1611" y="651.1797"/><polygon fill="#A80036" points="544,115.4297,554,119.4297,544,123.4297,548,119.4297" style="stroke:#A80036;stroke-width:1.0;"/><line style="stroke:#A80036;stroke-width:1.0;" x1="64" x2="550" y1="119.4297" y2="119.4297"/><text fill="#000000" font-family="sans-serif" font-size="13" font-weight="bold" lengthAdjust="spacing" textLength="9" x="71" y="114.3638">1</text><text fill="#000000" font-family="sans-serif" font-size="13" lengthAdjust="spacing" textLength="244" x="84" y="114.3638">inicia a criação de uma nova farmácia</text><polygon fill="#A80036" points="75,159.6953,65,163.6953,75,167.6953,71,163.6953" style="stroke:#A80036;stroke-width:1.0;"/><line style="stroke:#A80036;stroke-width:1.0;stroke-dasharray:2.0,2.0;" x1="69" x2="560" y1="163.6953" y2="163.6953"/><text fill="#000000" font-family="sans-serif" font-size="13" font-weight="bold" lengthAdjust="spacing" textLength="9" x="81" y="151.063">2</text><text fill="#000000" font-family="sans-serif" font-size="13" lengthAdjust="spacing" textLength="451" x="94" y="143.4966">solicita dados da farmácia (NIF, email, morada), endereço do farmácia</text><text fill="#000000" font-family="sans-serif" font-size="13" lengthAdjust="spacing" textLength="411" x="94" y="158.6294">(morada, latitude, longitude e altitude) e quantidade de parques</text><polygon fill="#A80036" points="544,188.8281,554,192.8281,544,196.8281,548,192.8281" style="stroke:#A80036;stroke-width:1.0;"/><line style="stroke:#A80036;stroke-width:1.0;" x1="64" x2="550" y1="192.8281" y2="192.8281"/><text fill="#000000" font-family="sans-serif" font-size="13" font-weight="bold" lengthAdjust="spacing" textLength="8" x="71" y="187.7622">3</text><text fill="#000000" font-family="sans-serif" font-size="13" lengthAdjust="spacing" textLength="185" x="83" y="187.7622">introduz os dados solicitados</text><path d="M471,207.8281 L549,207.8281 L549,214.8281 L539,224.8281 L471,224.8281 L471,207.8281 " fill="#EEEEEE" style="stroke:#000000;stroke-width:1.0;"/><rect fill="none" height="120.6953" style="stroke:#000000;stroke-width:2.0;" width="1525.5" x="471" y="207.8281"/><text fill="#000000" font-family="sans-serif" font-size="13" font-weight="bold" lengthAdjust="spacing" textLength="33" x="486" y="220.895">loop</text><polygon fill="#A80036" points="927,242.0938,937,246.0938,927,250.0938,931,246.0938" style="stroke:#A80036;stroke-width:1.0;"/><line style="stroke:#A80036;stroke-width:1.0;" x1="566" x2="933" y1="246.0938" y2="246.0938"/><text fill="#000000" font-family="sans-serif" font-size="13" font-weight="bold" lengthAdjust="spacing" textLength="9" x="573" y="241.0278">4</text><text fill="#000000" font-family="sans-serif" font-size="13" lengthAdjust="spacing" textLength="246" x="586" y="241.0278">novoParque(NIF, numeroMaximo, tipo)</text><polygon fill="#A80036" points="1415,271.2266,1425,275.2266,1415,279.2266,1419,275.2266" style="stroke:#A80036;stroke-width:1.0;"/><line style="stroke:#A80036;stroke-width:1.0;" x1="949" x2="1421" y1="275.2266" y2="275.2266"/><text fill="#000000" font-family="sans-serif" font-size="13" font-weight="bold" lengthAdjust="spacing" textLength="9" x="956" y="270.1606">5</text><text fill="#000000" font-family="sans-serif" font-size="13" lengthAdjust="spacing" textLength="301" x="969" y="270.1606">parque=novoParque(NIF, numeroMaximo, tipo)</text><polygon fill="#A80036" points="1852.5,300.3594,1862.5,304.3594,1852.5,308.3594,1856.5,304.3594" style="stroke:#A80036;stroke-width:1.0;"/><line style="stroke:#A80036;stroke-width:1.0;stroke-dasharray:2.0,2.0;" x1="1432" x2="1858.5" y1="304.3594" y2="304.3594"/><text fill="#000000" font-family="sans-serif" font-size="13" font-weight="bold" lengthAdjust="spacing" textLength="9" x="1439" y="299.2935">6</text><text fill="#000000" font-family="sans-serif" font-size="13" lengthAdjust="spacing" textLength="210" x="1452" y="299.2935">create(NIF, numeroMaximo, tipo)</text><rect fill="#FEFECE" filter="url(#fbrhd6er2l6as)" height="30.2969" style="stroke:#A80036;stroke-width:1.5;" width="118" x="1864.5" y="283.2266"/><text fill="#000000" font-family="sans-serif" font-size="14" lengthAdjust="spacing" textLength="104" x="1871.5" y="303.2217">parque:Parque</text><polygon fill="#A80036" points="927,352.6563,937,356.6563,927,360.6563,931,356.6563" style="stroke:#A80036;stroke-width:1.0;"/><line style="stroke:#A80036;stroke-width:1.0;" x1="566" x2="933" y1="356.6563" y2="356.6563"/><text fill="#000000" font-family="sans-serif" font-size="13" font-weight="bold" lengthAdjust="spacing" textLength="9" x="573" y="351.5903">7</text><text fill="#000000" font-family="sans-serif" font-size="13" lengthAdjust="spacing" textLength="221" x="586" y="351.5903">novaFarmacia(NIF, email, morada)</text><polygon fill="#A80036" points="1231,381.7891,1241,385.7891,1231,389.7891,1235,385.7891" style="stroke:#A80036;stroke-width:1.0;"/><line style="stroke:#A80036;stroke-width:1.0;" x1="949" x2="1237" y1="385.7891" y2="385.7891"/><text fill="#000000" font-family="sans-serif" font-size="13" font-weight="bold" lengthAdjust="spacing" textLength="9" x="956" y="380.7231">8</text><text fill="#000000" font-family="sans-serif" font-size="13" lengthAdjust="spacing" textLength="262" x="969" y="380.7231">farm=novaFarmacia(NIF, email, morada)</text><polygon fill="#A80036" points="1721.5,410.9219,1731.5,414.9219,1721.5,418.9219,1725.5,414.9219" style="stroke:#A80036;stroke-width:1.0;"/><line style="stroke:#A80036;stroke-width:1.0;stroke-dasharray:2.0,2.0;" x1="1248" x2="1727.5" y1="414.9219" y2="414.9219"/><text fill="#000000" font-family="sans-serif" font-size="13" font-weight="bold" lengthAdjust="spacing" textLength="9" x="1255" y="409.856">9</text><text fill="#000000" font-family="sans-serif" font-size="13" lengthAdjust="spacing" textLength="171" x="1268" y="409.856">create(NIF, email, morada)</text><rect fill="#FEFECE" filter="url(#fbrhd6er2l6as)" height="30.2969" style="stroke:#A80036;stroke-width:1.5;" width="117" x="1733.5" y="393.7891"/><text fill="#000000" font-family="sans-serif" font-size="14" lengthAdjust="spacing" textLength="103" x="1740.5" y="413.7842">farm:Farmacia</text><polygon fill="#A80036" points="927,456.2188,937,460.2188,927,464.2188,931,460.2188" style="stroke:#A80036;stroke-width:1.0;"/><line style="stroke:#A80036;stroke-width:1.0;" x1="566" x2="933" y1="460.2188" y2="460.2188"/><text fill="#000000" font-family="sans-serif" font-size="13" font-weight="bold" lengthAdjust="spacing" textLength="19" x="573" y="455.1528">10</text><text fill="#000000" font-family="sans-serif" font-size="13" lengthAdjust="spacing" textLength="331" x="596" y="455.1528">novoEndereco(morada, latitude, longitude, altitude)</text><polygon fill="#A80036" points="1599,485.3516,1609,489.3516,1599,493.3516,1603,489.3516" style="stroke:#A80036;stroke-width:1.0;"/><line style="stroke:#A80036;stroke-width:1.0;" x1="949" x2="1605" y1="489.3516" y2="489.3516"/><text fill="#000000" font-family="sans-serif" font-size="13" font-weight="bold" lengthAdjust="spacing" textLength="18" x="956" y="484.2856">11</text><text fill="#000000" font-family="sans-serif" font-size="13" lengthAdjust="spacing" textLength="357" x="978" y="484.2856">end=novoEndereco(morada, latitude, logitude, altitude)</text><polygon fill="#A80036" points="1984.5,514.4844,1994.5,518.4844,1984.5,522.4844,1988.5,518.4844" style="stroke:#A80036;stroke-width:1.0;"/><line style="stroke:#A80036;stroke-width:1.0;stroke-dasharray:2.0,2.0;" x1="1616" x2="1990.5" y1="518.4844" y2="518.4844"/><text fill="#000000" font-family="sans-serif" font-size="13" font-weight="bold" lengthAdjust="spacing" textLength="18" x="1623" y="513.4185">12</text><text fill="#000000" font-family="sans-serif" font-size="13" lengthAdjust="spacing" textLength="272" x="1645" y="513.4185">create(morada, latitude, logitude, altitude)</text><rect fill="#FEFECE" filter="url(#fbrhd6er2l6as)" height="30.2969" style="stroke:#A80036;stroke-width:1.5;" width="114" x="1996.5" y="497.3516"/><text fill="#000000" font-family="sans-serif" font-size="14" lengthAdjust="spacing" textLength="100" x="2003.5" y="517.3467">end:Endereco</text><polygon fill="#A80036" points="75,559.7813,65,563.7813,75,567.7813,71,563.7813" style="stroke:#A80036;stroke-width:1.0;"/><line style="stroke:#A80036;stroke-width:1.0;stroke-dasharray:2.0,2.0;" x1="69" x2="560" y1="563.7813" y2="563.7813"/><text fill="#000000" font-family="sans-serif" font-size="13" font-weight="bold" lengthAdjust="spacing" textLength="17" x="81" y="558.7153">13</text><text fill="#000000" font-family="sans-serif" font-size="13" lengthAdjust="spacing" textLength="252" x="102" y="558.7153">apresenta dados e solicita confirmação</text><polygon fill="#A80036" points="544,588.9141,554,592.9141,544,596.9141,548,592.9141" style="stroke:#A80036;stroke-width:1.0;"/><line style="stroke:#A80036;stroke-width:1.0;" x1="64" x2="550" y1="592.9141" y2="592.9141"/><text fill="#000000" font-family="sans-serif" font-size="13" font-weight="bold" lengthAdjust="spacing" textLength="18" x="71" y="587.8481">14</text><text fill="#000000" font-family="sans-serif" font-size="13" lengthAdjust="spacing" textLength="57" x="93" y="587.8481">confirma</text><polygon fill="#A80036" points="927,618.0469,937,622.0469,927,626.0469,931,622.0469" style="stroke:#A80036;stroke-width:1.0;"/><line style="stroke:#A80036;stroke-width:1.0;" x1="566" x2="933" y1="622.0469" y2="622.0469"/><text fill="#000000" font-family="sans-serif" font-size="13" font-weight="bold" lengthAdjust="spacing" textLength="18" x="573" y="616.981">15</text><text fill="#000000" font-family="sans-serif" font-size="13" lengthAdjust="spacing" textLength="138" x="595" y="616.981">registaEndereco(end)</text><polygon fill="#A80036" points="1599,647.1797,1609,651.1797,1599,655.1797,1603,651.1797" style="stroke:#A80036;stroke-width:1.0;"/><line style="stroke:#A80036;stroke-width:1.0;" x1="949" x2="1605" y1="651.1797" y2="651.1797"/><text fill="#000000" font-family="sans-serif" font-size="13" font-weight="bold" lengthAdjust="spacing" textLength="18" x="956" y="646.1138">16</text><text fill="#000000" font-family="sans-serif" font-size="13" lengthAdjust="spacing" textLength="138" x="978" y="646.1138">registaEndereco(end)</text><line style="stroke:#A80036;stroke-width:1.0;" x1="1621" x2="1663" y1="680.3125" y2="680.3125"/><line style="stroke:#A80036;stroke-width:1.0;" x1="1663" x2="1663" y1="680.3125" y2="693.3125"/><line style="stroke:#A80036;stroke-width:1.0;" x1="1622" x2="1663" y1="693.3125" y2="693.3125"/><polygon fill="#A80036" points="1632,689.3125,1622,693.3125,1632,697.3125,1628,693.3125" style="stroke:#A80036;stroke-width:1.0;"/><text fill="#000000" font-family="sans-serif" font-size="13" font-weight="bold" lengthAdjust="spacing" textLength="18" x="1628" y="675.2466">17</text><text fill="#000000" font-family="sans-serif" font-size="13" lengthAdjust="spacing" textLength="132" x="1650" y="675.2466">validaEndereco(end)</text><line style="stroke:#A80036;stroke-width:1.0;" x1="1621" x2="1663" y1="727.4453" y2="727.4453"/><line style="stroke:#A80036;stroke-width:1.0;" x1="1663" x2="1663" y1="727.4453" y2="740.4453"/><line style="stroke:#A80036;stroke-width:1.0;" x1="1616" x2="1663" y1="740.4453" y2="740.4453"/><polygon fill="#A80036" points="1626,736.4453,1616,740.4453,1626,744.4453,1622,740.4453" style="stroke:#A80036;stroke-width:1.0;"/><text fill="#000000" font-family="sans-serif" font-size="13" font-weight="bold" lengthAdjust="spacing" textLength="18" x="1628" y="722.3794">18</text><text fill="#000000" font-family="sans-serif" font-size="13" lengthAdjust="spacing" textLength="118" x="1650" y="722.3794">addEndereco(end)</text><polygon fill="#A80036" points="927,760.5781,937,764.5781,927,768.5781,931,764.5781" style="stroke:#A80036;stroke-width:1.0;"/><line style="stroke:#A80036;stroke-width:1.0;" x1="566" x2="933" y1="764.5781" y2="764.5781"/><text fill="#000000" font-family="sans-serif" font-size="13" font-weight="bold" lengthAdjust="spacing" textLength="18" x="573" y="759.5122">19</text><text fill="#000000" font-family="sans-serif" font-size="13" lengthAdjust="spacing" textLength="144" x="595" y="759.5122">registaFarmacia(farm)</text><polygon fill="#A80036" points="1231,789.7109,1241,793.7109,1231,797.7109,1235,793.7109" style="stroke:#A80036;stroke-width:1.0;"/><line style="stroke:#A80036;stroke-width:1.0;" x1="949" x2="1237" y1="793.7109" y2="793.7109"/><text fill="#000000" font-family="sans-serif" font-size="13" font-weight="bold" lengthAdjust="spacing" textLength="19" x="956" y="788.645">20</text><text fill="#000000" font-family="sans-serif" font-size="13" lengthAdjust="spacing" textLength="144" x="979" y="788.645">registaFarmacia(farm)</text><line style="stroke:#A80036;stroke-width:1.0;" x1="1253" x2="1295" y1="822.8438" y2="822.8438"/><line style="stroke:#A80036;stroke-width:1.0;" x1="1295" x2="1295" y1="822.8438" y2="835.8438"/><line style="stroke:#A80036;stroke-width:1.0;" x1="1254" x2="1295" y1="835.8438" y2="835.8438"/><polygon fill="#A80036" points="1264,831.8438,1254,835.8438,1264,839.8438,1260,835.8438" style="stroke:#A80036;stroke-width:1.0;"/><text fill="#000000" font-family="sans-serif" font-size="13" font-weight="bold" lengthAdjust="spacing" textLength="18" x="1260" y="817.7778">21</text><text fill="#000000" font-family="sans-serif" font-size="13" lengthAdjust="spacing" textLength="138" x="1282" y="817.7778">validaFarmacia(farm)</text><line style="stroke:#A80036;stroke-width:1.0;" x1="1253" x2="1295" y1="869.9766" y2="869.9766"/><line style="stroke:#A80036;stroke-width:1.0;" x1="1295" x2="1295" y1="869.9766" y2="882.9766"/><line style="stroke:#A80036;stroke-width:1.0;" x1="1248" x2="1295" y1="882.9766" y2="882.9766"/><polygon fill="#A80036" points="1258,878.9766,1248,882.9766,1258,886.9766,1254,882.9766" style="stroke:#A80036;stroke-width:1.0;"/><text fill="#000000" font-family="sans-serif" font-size="13" font-weight="bold" lengthAdjust="spacing" textLength="18" x="1260" y="864.9106">22</text><text fill="#000000" font-family="sans-serif" font-size="13" lengthAdjust="spacing" textLength="124" x="1282" y="864.9106">addFarmacia(farm)</text><polygon fill="#A80036" points="927,903.1094,937,907.1094,927,911.1094,931,907.1094" style="stroke:#A80036;stroke-width:1.0;"/><line style="stroke:#A80036;stroke-width:1.0;" x1="566" x2="933" y1="907.1094" y2="907.1094"/><text fill="#000000" font-family="sans-serif" font-size="13" font-weight="bold" lengthAdjust="spacing" textLength="17" x="573" y="902.0435">23</text><text fill="#000000" font-family="sans-serif" font-size="13" lengthAdjust="spacing" textLength="144" x="594" y="902.0435">registaParques(lparks)</text><polygon fill="#A80036" points="1415,932.2422,1425,936.2422,1415,940.2422,1419,936.2422" style="stroke:#A80036;stroke-width:1.0;"/><line style="stroke:#A80036;stroke-width:1.0;" x1="949" x2="1421" y1="936.2422" y2="936.2422"/><text fill="#000000" font-family="sans-serif" font-size="13" font-weight="bold" lengthAdjust="spacing" textLength="18" x="956" y="931.1763">24</text><text fill="#000000" font-family="sans-serif" font-size="13" lengthAdjust="spacing" textLength="144" x="978" y="931.1763">registaParques(lparks)</text><line style="stroke:#A80036;stroke-width:1.0;" x1="1437" x2="1479" y1="965.375" y2="965.375"/><line style="stroke:#A80036;stroke-width:1.0;" x1="1479" x2="1479" y1="965.375" y2="978.375"/><line style="stroke:#A80036;stroke-width:1.0;" x1="1438" x2="1479" y1="978.375" y2="978.375"/><polygon fill="#A80036" points="1448,974.375,1438,978.375,1448,982.375,1444,978.375" style="stroke:#A80036;stroke-width:1.0;"/><text fill="#000000" font-family="sans-serif" font-size="13" font-weight="bold" lengthAdjust="spacing" textLength="18" x="1444" y="960.3091">25</text><text fill="#000000" font-family="sans-serif" font-size="13" lengthAdjust="spacing" textLength="138" x="1466" y="960.3091">validaParque(parque)</text><line style="stroke:#A80036;stroke-width:1.0;" x1="1437" x2="1479" y1="1012.5078" y2="1012.5078"/><line style="stroke:#A80036;stroke-width:1.0;" x1="1479" x2="1479" y1="1012.5078" y2="1025.5078"/><line style="stroke:#A80036;stroke-width:1.0;" x1="1432" x2="1479" y1="1025.5078" y2="1025.5078"/><polygon fill="#A80036" points="1442,1021.5078,1432,1025.5078,1442,1029.5078,1438,1025.5078" style="stroke:#A80036;stroke-width:1.0;"/><text fill="#000000" font-family="sans-serif" font-size="13" font-weight="bold" lengthAdjust="spacing" textLength="18" x="1444" y="1007.4419">26</text><text fill="#000000" font-family="sans-serif" font-size="13" lengthAdjust="spacing" textLength="124" x="1466" y="1007.4419">addParque(parque)</text><polygon fill="#A80036" points="70,1045.6406,60,1049.6406,70,1053.6406,66,1049.6406" style="stroke:#A80036;stroke-width:1.0;"/><line style="stroke:#A80036;stroke-width:1.0;stroke-dasharray:2.0,2.0;" x1="64" x2="560" y1="1049.6406" y2="1049.6406"/><text fill="#000000" font-family="sans-serif" font-size="13" font-weight="bold" lengthAdjust="spacing" textLength="18" x="76" y="1044.5747">27</text><text fill="#000000" font-family="sans-serif" font-size="13" lengthAdjust="spacing" textLength="154" x="98" y="1044.5747">operação bem sucedida</text><!--MD5=[826c00ab053df669682602e6dfd63ff5]
@startuml
autonumber
actor "Administrador" as ADM

participant ":RegistarFarmaciaUI" as UI
participant ":RegistarFarmaciaController" as CTRL
participant "FarmaciaDB" as DB
participant "ParqueDB" as PDB
participant "EnderecoDB" as EDB
participant "farm:Farmacia" as FARMACIA
participant "parque:Parque" as PQ
participant "end:Endereco" as END

activate ADM
ADM -> UI : inicia a criação de uma nova farmácia
activate UI
UI - -> ADM : solicita dados da farmácia (NIF, email, morada), endereço do farmácia \n(morada, latitude, longitude e altitude) e quantidade de parques
deactivate UI

ADM -> UI : introduz os dados solicitados
activate UI

loop
UI -> CTRL : novoParque(NIF, numeroMaximo, tipo)
activate CTRL
CTRL -> PDB: parque=novoParque(NIF, numeroMaximo, tipo)
activate PDB
PDB - -> PQ ** : create(NIF, numeroMaximo, tipo)
deactivate PDB
deactivate CTRL
end loop

UI -> CTRL : novaFarmacia(NIF, email, morada)
activate CTRL

CTRL -> DB: farm=novaFarmacia(NIF, email, morada)
activate DB
DB - -> FARMACIA ** : create(NIF, email, morada)
deactivate DB
deactivate CTRL

UI -> CTRL : novoEndereco(morada, latitude, longitude, altitude)
activate CTRL
CTRL -> EDB: end=novoEndereco(morada, latitude, logitude, altitude)
activate EDB
EDB - -> END ** : create(morada, latitude, logitude, altitude)
deactivate EDB
deactivate CTRL

UI - -> ADM : apresenta dados e solicita confirmação
deactivate UI

ADM -> UI : confirma
activate UI

UI -> CTRL: registaEndereco(end)
activate CTRL
CTRL ->EDB: registaEndereco(end)
activate EDB
EDB -> EDB: validaEndereco(end)
EDB -> EDB: addEndereco(end)

deactivate EDB
deactivate CTRL

UI -> CTRL: registaFarmacia(farm)
activate CTRL
CTRL ->DB: registaFarmacia(farm)
activate DB
DB -> DB: validaFarmacia(farm)
DB -> DB: addFarmacia(farm)

deactivate DB
deactivate CTRL


UI -> CTRL: registaParques(lparks)
activate CTRL
CTRL ->PDB: registaParques(lparks)
activate PDB
PDB -> PDB: validaParque(parque)
PDB -> PDB: addParque(parque)

deactivate PDB
deactivate CTRL

UI - -> ADM : operação bem sucedida
deactivate UI

deactivate ADM
@enduml

PlantUML version 1.2021.01beta3(Unknown compile time)
(GPL source distribution)
Java Runtime: Java(TM) SE Runtime Environment
JVM: Java HotSpot(TM) 64-Bit Server VM
Default Encoding: UTF-8
Language: en
Country: US
--></g></svg>