<?xml version="1.0" encoding="UTF-8" standalone="no"?><svg xmlns="http://www.w3.org/2000/svg" xmlns:xlink="http://www.w3.org/1999/xlink" contentScriptType="application/ecmascript" contentStyleType="text/css" height="1120px" preserveAspectRatio="none" style="width:2156px;height:1120px;" version="1.1" viewBox="0 0 2156 1120" width="2156px" zoomAndPan="magnify"><defs><filter height="300%" id="fmjopul0xn2ch" width="300%" x="-1" y="-1"><feGaussianBlur result="blurOut" stdDeviation="2.0"/><feColorMatrix in="blurOut" result="blurOut2" type="matrix" values="0 0 0 0 0 0 0 0 0 0 0 0 0 0 0 0 0 0 .4 0"/><feOffset dx="4.0" dy="4.0" in="blurOut2" result="blurOut3"/><feBlend in="SourceGraphic" in2="blurOut3" mode="normal"/></filter></defs><g><rect fill="#FFFFFF" filter="url(#fmjopul0xn2ch)" height="920.2109" style="stroke:#A80036;stroke-width:1.0;" width="10" x="54" y="98.2969"/><rect fill="#FFFFFF" filter="url(#fmjopul0xn2ch)" height="44.2656" style="stroke:#A80036;stroke-width:1.0;" width="10" x="641" y="119.4297"/><rect fill="#FFFFFF" filter="url(#fmjopul0xn2ch)" height="339.8203" style="stroke:#A80036;stroke-width:1.0;" width="10" x="641" y="192.8281"/><rect fill="#FFFFFF" filter="url(#fmjopul0xn2ch)" height="456.7266" style="stroke:#A80036;stroke-width:1.0;" width="10" x="641" y="561.7813"/><rect fill="#FFFFFF" filter="url(#fmjopul0xn2ch)" height="58.2656" style="stroke:#A80036;stroke-width:1.0;" width="10" x="1014" y="221.9609"/><rect fill="#FFFFFF" filter="url(#fmjopul0xn2ch)" height="58.2656" style="stroke:#A80036;stroke-width:1.0;" width="10" x="1014" y="325.5234"/><rect fill="#FFFFFF" filter="url(#fmjopul0xn2ch)" height="58.2656" style="stroke:#A80036;stroke-width:1.0;" width="10" x="1014" y="429.0859"/><rect fill="#FFFFFF" filter="url(#fmjopul0xn2ch)" height="106.3984" style="stroke:#A80036;stroke-width:1.0;" width="10" x="1014" y="590.9141"/><rect fill="#FFFFFF" filter="url(#fmjopul0xn2ch)" height="106.3984" style="stroke:#A80036;stroke-width:1.0;" width="10" x="1014" y="733.4453"/><rect fill="#FFFFFF" filter="url(#fmjopul0xn2ch)" height="106.3984" style="stroke:#A80036;stroke-width:1.0;" width="10" x="1014" y="875.9766"/><rect fill="#FFFFFF" filter="url(#fmjopul0xn2ch)" height="29.1328" style="stroke:#A80036;stroke-width:1.0;" width="10" x="1275" y="251.0938"/><rect fill="#FFFFFF" filter="url(#fmjopul0xn2ch)" height="77.2656" style="stroke:#A80036;stroke-width:1.0;" width="10" x="1275" y="620.0469"/><rect fill="#FFFFFF" filter="url(#fmjopul0xn2ch)" height="29.1328" style="stroke:#A80036;stroke-width:1.0;" width="10" x="1459" y="458.2188"/><rect fill="#FFFFFF" filter="url(#fmjopul0xn2ch)" height="77.2656" style="stroke:#A80036;stroke-width:1.0;" width="10" x="1459" y="905.1094"/><rect fill="#FFFFFF" filter="url(#fmjopul0xn2ch)" height="29.1328" style="stroke:#A80036;stroke-width:1.0;" width="10" x="1643" y="354.6563"/><rect fill="#FFFFFF" filter="url(#fmjopul0xn2ch)" height="77.2656" style="stroke:#A80036;stroke-width:1.0;" width="10" x="1643" y="762.5781"/><line style="stroke:#A80036;stroke-width:1.0;stroke-dasharray:5.0,5.0;" x1="59" x2="59" y1="88.2969" y2="1036.5078"/><line style="stroke:#A80036;stroke-width:1.0;stroke-dasharray:5.0,5.0;" x1="646" x2="646" y1="88.2969" y2="1036.5078"/><line style="stroke:#A80036;stroke-width:1.0;stroke-dasharray:5.0,5.0;" x1="1019" x2="1019" y1="88.2969" y2="1036.5078"/><line style="stroke:#A80036;stroke-width:1.0;stroke-dasharray:5.0,5.0;" x1="1279.5" x2="1279.5" y1="88.2969" y2="1036.5078"/><line style="stroke:#A80036;stroke-width:1.0;stroke-dasharray:5.0,5.0;" x1="1464" x2="1464" y1="88.2969" y2="1036.5078"/><line style="stroke:#A80036;stroke-width:1.0;stroke-dasharray:5.0,5.0;" x1="1647.5" x2="1647.5" y1="88.2969" y2="1036.5078"/><line style="stroke:#A80036;stroke-width:1.0;stroke-dasharray:5.0,5.0;" x1="1825.5" x2="1825.5" y1="291.7422" y2="1036.5078"/><line style="stroke:#A80036;stroke-width:1.0;stroke-dasharray:5.0,5.0;" x1="1957.5" x2="1957.5" y1="498.8672" y2="1036.5078"/><line style="stroke:#A80036;stroke-width:1.0;stroke-dasharray:5.0,5.0;" x1="2087.5" x2="2087.5" y1="395.3047" y2="1036.5078"/><text fill="#000000" font-family="sans-serif" font-size="14" lengthAdjust="spacing" textLength="102" x="5" y="84.9951">Administrador</text><ellipse cx="59" cy="15" fill="#FEFECE" filter="url(#fmjopul0xn2ch)" rx="8" ry="8" style="stroke:#A80036;stroke-width:2.0;"/><path d="M59,23 L59,50 M46,31 L72,31 M59,50 L46,65 M59,50 L72,65 " fill="none" filter="url(#fmjopul0xn2ch)" style="stroke:#A80036;stroke-width:2.0;"/><text fill="#000000" font-family="sans-serif" font-size="14" lengthAdjust="spacing" textLength="102" x="5" y="1048.5029">Administrador</text><ellipse cx="59" cy="1061.8047" fill="#FEFECE" filter="url(#fmjopul0xn2ch)" rx="8" ry="8" style="stroke:#A80036;stroke-width:2.0;"/><path d="M59,1069.8047 L59,1096.8047 M46,1077.8047 L72,1077.8047 M59,1096.8047 L46,1111.8047 M59,1096.8047 L72,1111.8047 " fill="none" filter="url(#fmjopul0xn2ch)" style="stroke:#A80036;stroke-width:2.0;"/><rect fill="#FEFECE" filter="url(#fmjopul0xn2ch)" height="30.2969" style="stroke:#A80036;stroke-width:1.5;" width="156" x="566" y="53"/><text fill="#000000" font-family="sans-serif" font-size="14" lengthAdjust="spacing" textLength="142" x="573" y="72.9951">:RegistarFarmaciaUI</text><rect fill="#FEFECE" filter="url(#fmjopul0xn2ch)" height="30.2969" style="stroke:#A80036;stroke-width:1.5;" width="156" x="566" y="1035.5078"/><text fill="#000000" font-family="sans-serif" font-size="14" lengthAdjust="spacing" textLength="142" x="573" y="1055.5029">:RegistarFarmaciaUI</text><rect fill="#FEFECE" filter="url(#fmjopul0xn2ch)" height="30.2969" style="stroke:#A80036;stroke-width:1.5;" width="216" x="909" y="53"/><text fill="#000000" font-family="sans-serif" font-size="14" lengthAdjust="spacing" textLength="202" x="916" y="72.9951">:RegistarFarmaciaController</text><rect fill="#FEFECE" filter="url(#fmjopul0xn2ch)" height="30.2969" style="stroke:#A80036;stroke-width:1.5;" width="216" x="909" y="1035.5078"/><text fill="#000000" font-family="sans-serif" font-size="14" lengthAdjust="spacing" textLength="202" x="916" y="1055.5029">:RegistarFarmaciaController</text><rect fill="#FEFECE" filter="url(#fmjopul0xn2ch)" height="30.2969" style="stroke:#A80036;stroke-width:1.5;" width="99" x="1228.5" y="53"/><text fill="#000000" font-family="sans-serif" font-size="14" lengthAdjust="spacing" textLength="85" x="1235.5" y="72.9951">FarmaciaDB</text><rect fill="#FEFECE" filter="url(#fmjopul0xn2ch)" height="30.2969" style="stroke:#A80036;stroke-width:1.5;" width="99" x="1228.5" y="1035.5078"/><text fill="#000000" font-family="sans-serif" font-size="14" lengthAdjust="spacing" textLength="85" x="1235.5" y="1055.5029">FarmaciaDB</text><rect fill="#FEFECE" filter="url(#fmjopul0xn2ch)" height="30.2969" style="stroke:#A80036;stroke-width:1.5;" width="84" x="1420" y="53"/><text fill="#000000" font-family="sans-serif" font-size="14" lengthAdjust="spacing" textLength="70" x="1427" y="72.9951">ParqueDB</text><rect fill="#FEFECE" filter="url(#fmjopul0xn2ch)" height="30.2969" style="stroke:#A80036;stroke-width:1.5;" width="84" x="1420" y="1035.5078"/><text fill="#000000" font-family="sans-serif" font-size="14" lengthAdjust="spacing" textLength="70" x="1427" y="1055.5029">ParqueDB</text><rect fill="#FEFECE" filter="url(#fmjopul0xn2ch)" height="30.2969" style="stroke:#A80036;stroke-width:1.5;" width="103" x="1594.5" y="53"/><text fill="#000000" font-family="sans-serif" font-size="14" lengthAdjust="spacing" textLength="89" x="1601.5" y="72.9951">EnderecoDB</text><rect fill="#FEFECE" filter="url(#fmjopul0xn2ch)" height="30.2969" style="stroke:#A80036;stroke-width:1.5;" width="103" x="1594.5" y="1035.5078"/><text fill="#000000" font-family="sans-serif" font-size="14" lengthAdjust="spacing" textLength="89" x="1601.5" y="1055.5029">EnderecoDB</text><rect fill="#FEFECE" filter="url(#fmjopul0xn2ch)" height="30.2969" style="stroke:#A80036;stroke-width:1.5;" width="117" x="1765.5" y="1035.5078"/><text fill="#000000" font-family="sans-serif" font-size="14" lengthAdjust="spacing" textLength="103" x="1772.5" y="1055.5029">farm:Farmacia</text><rect fill="#FEFECE" filter="url(#fmjopul0xn2ch)" height="30.2969" style="stroke:#A80036;stroke-width:1.5;" width="118" x="1896.5" y="1035.5078"/><text fill="#000000" font-family="sans-serif" font-size="14" lengthAdjust="spacing" textLength="104" x="1903.5" y="1055.5029">parque:Parque</text><rect fill="#FEFECE" filter="url(#fmjopul0xn2ch)" height="30.2969" style="stroke:#A80036;stroke-width:1.5;" width="114" x="2028.5" y="1035.5078"/><text fill="#000000" font-family="sans-serif" font-size="14" lengthAdjust="spacing" textLength="100" x="2035.5" y="1055.5029">end:Endereco</text><rect fill="#FFFFFF" filter="url(#fmjopul0xn2ch)" height="920.2109" style="stroke:#A80036;stroke-width:1.0;" width="10" x="54" y="98.2969"/><rect fill="#FFFFFF" filter="url(#fmjopul0xn2ch)" height="44.2656" style="stroke:#A80036;stroke-width:1.0;" width="10" x="641" y="119.4297"/><rect fill="#FFFFFF" filter="url(#fmjopul0xn2ch)" height="339.8203" style="stroke:#A80036;stroke-width:1.0;" width="10" x="641" y="192.8281"/><rect fill="#FFFFFF" filter="url(#fmjopul0xn2ch)" height="456.7266" style="stroke:#A80036;stroke-width:1.0;" width="10" x="641" y="561.7813"/><rect fill="#FFFFFF" filter="url(#fmjopul0xn2ch)" height="58.2656" style="stroke:#A80036;stroke-width:1.0;" width="10" x="1014" y="221.9609"/><rect fill="#FFFFFF" filter="url(#fmjopul0xn2ch)" height="58.2656" style="stroke:#A80036;stroke-width:1.0;" width="10" x="1014" y="325.5234"/><rect fill="#FFFFFF" filter="url(#fmjopul0xn2ch)" height="58.2656" style="stroke:#A80036;stroke-width:1.0;" width="10" x="1014" y="429.0859"/><rect fill="#FFFFFF" filter="url(#fmjopul0xn2ch)" height="106.3984" style="stroke:#A80036;stroke-width:1.0;" width="10" x="1014" y="590.9141"/><rect fill="#FFFFFF" filter="url(#fmjopul0xn2ch)" height="106.3984" style="stroke:#A80036;stroke-width:1.0;" width="10" x="1014" y="733.4453"/><rect fill="#FFFFFF" filter="url(#fmjopul0xn2ch)" height="106.3984" style="stroke:#A80036;stroke-width:1.0;" width="10" x="1014" y="875.9766"/><rect fill="#FFFFFF" filter="url(#fmjopul0xn2ch)" height="29.1328" style="stroke:#A80036;stroke-width:1.0;" width="10" x="1275" y="251.0938"/><rect fill="#FFFFFF" filter="url(#fmjopul0xn2ch)" height="77.2656" style="stroke:#A80036;stroke-width:1.0;" width="10" x="1275" y="620.0469"/><rect fill="#FFFFFF" filter="url(#fmjopul0xn2ch)" height="29.1328" style="stroke:#A80036;stroke-width:1.0;" width="10" x="1459" y="458.2188"/><rect fill="#FFFFFF" filter="url(#fmjopul0xn2ch)" height="77.2656" style="stroke:#A80036;stroke-width:1.0;" width="10" x="1459" y="905.1094"/><rect fill="#FFFFFF" filter="url(#fmjopul0xn2ch)" height="29.1328" style="stroke:#A80036;stroke-width:1.0;" width="10" x="1643" y="354.6563"/><rect fill="#FFFFFF" filter="url(#fmjopul0xn2ch)" height="77.2656" style="stroke:#A80036;stroke-width:1.0;" width="10" x="1643" y="762.5781"/><polygon fill="#A80036" points="629,115.4297,639,119.4297,629,123.4297,633,119.4297" style="stroke:#A80036;stroke-width:1.0;"/><line style="stroke:#A80036;stroke-width:1.0;" x1="64" x2="635" y1="119.4297" y2="119.4297"/><text fill="#000000" font-family="sans-serif" font-size="13" font-weight="bold" lengthAdjust="spacing" textLength="9" x="71" y="114.3638">1</text><text fill="#000000" font-family="sans-serif" font-size="13" lengthAdjust="spacing" textLength="244" x="84" y="114.3638">inicia a criação de uma nova farmácia</text><polygon fill="#A80036" points="75,159.6953,65,163.6953,75,167.6953,71,163.6953" style="stroke:#A80036;stroke-width:1.0;"/><line style="stroke:#A80036;stroke-width:1.0;stroke-dasharray:2.0,2.0;" x1="69" x2="645" y1="163.6953" y2="163.6953"/><text fill="#000000" font-family="sans-serif" font-size="13" font-weight="bold" lengthAdjust="spacing" textLength="9" x="81" y="151.063">2</text><text fill="#000000" font-family="sans-serif" font-size="13" lengthAdjust="spacing" textLength="536" x="94" y="143.4966">solicita dados da farmácia (NIF, morada), dados do parque (número máximo e tipo)</text><text fill="#000000" font-family="sans-serif" font-size="13" lengthAdjust="spacing" textLength="392" x="94" y="158.6294">e endereço do parque (morada, latitude, longitude e altitude)</text><polygon fill="#A80036" points="629,188.8281,639,192.8281,629,196.8281,633,192.8281" style="stroke:#A80036;stroke-width:1.0;"/><line style="stroke:#A80036;stroke-width:1.0;" x1="64" x2="635" y1="192.8281" y2="192.8281"/><text fill="#000000" font-family="sans-serif" font-size="13" font-weight="bold" lengthAdjust="spacing" textLength="8" x="71" y="187.7622">3</text><text fill="#000000" font-family="sans-serif" font-size="13" lengthAdjust="spacing" textLength="185" x="83" y="187.7622">introduz os dados solicitados</text><polygon fill="#A80036" points="1002,217.9609,1012,221.9609,1002,225.9609,1006,221.9609" style="stroke:#A80036;stroke-width:1.0;"/><line style="stroke:#A80036;stroke-width:1.0;" x1="651" x2="1008" y1="221.9609" y2="221.9609"/><text fill="#000000" font-family="sans-serif" font-size="13" font-weight="bold" lengthAdjust="spacing" textLength="9" x="658" y="216.895">4</text><text fill="#000000" font-family="sans-serif" font-size="13" lengthAdjust="spacing" textLength="178" x="671" y="216.895">novaFarmacia(NIF, morada)</text><polygon fill="#A80036" points="1263,247.0938,1273,251.0938,1263,255.0938,1267,251.0938" style="stroke:#A80036;stroke-width:1.0;"/><line style="stroke:#A80036;stroke-width:1.0;" x1="1024" x2="1269" y1="251.0938" y2="251.0938"/><text fill="#000000" font-family="sans-serif" font-size="13" font-weight="bold" lengthAdjust="spacing" textLength="9" x="1031" y="246.0278">5</text><text fill="#000000" font-family="sans-serif" font-size="13" lengthAdjust="spacing" textLength="219" x="1044" y="246.0278">farm=novaFarmacia(NIF, morada)</text><polygon fill="#A80036" points="1753.5,276.2266,1763.5,280.2266,1753.5,284.2266,1757.5,280.2266" style="stroke:#A80036;stroke-width:1.0;"/><line style="stroke:#A80036;stroke-width:1.0;stroke-dasharray:2.0,2.0;" x1="1280" x2="1759.5" y1="280.2266" y2="280.2266"/><text fill="#000000" font-family="sans-serif" font-size="13" font-weight="bold" lengthAdjust="spacing" textLength="9" x="1287" y="275.1606">6</text><text fill="#000000" font-family="sans-serif" font-size="13" lengthAdjust="spacing" textLength="128" x="1300" y="275.1606">create(NIF, morada)</text><rect fill="#FEFECE" filter="url(#fmjopul0xn2ch)" height="30.2969" style="stroke:#A80036;stroke-width:1.5;" width="117" x="1765.5" y="259.0938"/><text fill="#000000" font-family="sans-serif" font-size="14" lengthAdjust="spacing" textLength="103" x="1772.5" y="279.0889">farm:Farmacia</text><polygon fill="#A80036" points="1002,321.5234,1012,325.5234,1002,329.5234,1006,325.5234" style="stroke:#A80036;stroke-width:1.0;"/><line style="stroke:#A80036;stroke-width:1.0;" x1="651" x2="1008" y1="325.5234" y2="325.5234"/><text fill="#000000" font-family="sans-serif" font-size="13" font-weight="bold" lengthAdjust="spacing" textLength="9" x="658" y="320.4575">7</text><text fill="#000000" font-family="sans-serif" font-size="13" lengthAdjust="spacing" textLength="331" x="671" y="320.4575">novoEndereco(morada, latitude, longitude, altitude)</text><polygon fill="#A80036" points="1631,350.6563,1641,354.6563,1631,358.6563,1635,354.6563" style="stroke:#A80036;stroke-width:1.0;"/><line style="stroke:#A80036;stroke-width:1.0;" x1="1024" x2="1637" y1="354.6563" y2="354.6563"/><text fill="#000000" font-family="sans-serif" font-size="13" font-weight="bold" lengthAdjust="spacing" textLength="9" x="1031" y="349.5903">8</text><text fill="#000000" font-family="sans-serif" font-size="13" lengthAdjust="spacing" textLength="357" x="1044" y="349.5903">end=novoEndereco(morada, latitude, logitude, altitude)</text><polygon fill="#A80036" points="2016.5,379.7891,2026.5,383.7891,2016.5,387.7891,2020.5,383.7891" style="stroke:#A80036;stroke-width:1.0;"/><line style="stroke:#A80036;stroke-width:1.0;stroke-dasharray:2.0,2.0;" x1="1648" x2="2022.5" y1="383.7891" y2="383.7891"/><text fill="#000000" font-family="sans-serif" font-size="13" font-weight="bold" lengthAdjust="spacing" textLength="9" x="1655" y="378.7231">9</text><text fill="#000000" font-family="sans-serif" font-size="13" lengthAdjust="spacing" textLength="272" x="1668" y="378.7231">create(morada, latitude, logitude, altitude)</text><rect fill="#FEFECE" filter="url(#fmjopul0xn2ch)" height="30.2969" style="stroke:#A80036;stroke-width:1.5;" width="114" x="2028.5" y="362.6563"/><text fill="#000000" font-family="sans-serif" font-size="14" lengthAdjust="spacing" textLength="100" x="2035.5" y="382.6514">end:Endereco</text><polygon fill="#A80036" points="1002,425.0859,1012,429.0859,1002,433.0859,1006,429.0859" style="stroke:#A80036;stroke-width:1.0;"/><line style="stroke:#A80036;stroke-width:1.0;" x1="651" x2="1008" y1="429.0859" y2="429.0859"/><text fill="#000000" font-family="sans-serif" font-size="13" font-weight="bold" lengthAdjust="spacing" textLength="19" x="658" y="424.02">10</text><text fill="#000000" font-family="sans-serif" font-size="13" lengthAdjust="spacing" textLength="304" x="681" y="424.02">novoParque(NIF, morada, numeroMaximo, tipo)</text><polygon fill="#A80036" points="1447,454.2188,1457,458.2188,1447,462.2188,1451,458.2188" style="stroke:#A80036;stroke-width:1.0;"/><line style="stroke:#A80036;stroke-width:1.0;" x1="1024" x2="1453" y1="458.2188" y2="458.2188"/><text fill="#000000" font-family="sans-serif" font-size="13" font-weight="bold" lengthAdjust="spacing" textLength="18" x="1031" y="453.1528">11</text><text fill="#000000" font-family="sans-serif" font-size="13" lengthAdjust="spacing" textLength="359" x="1053" y="453.1528">parque=novoParque(NIF, morada, numeroMaximo, tipo)</text><polygon fill="#A80036" points="1884.5,483.3516,1894.5,487.3516,1884.5,491.3516,1888.5,487.3516" style="stroke:#A80036;stroke-width:1.0;"/><line style="stroke:#A80036;stroke-width:1.0;stroke-dasharray:2.0,2.0;" x1="1464" x2="1890.5" y1="487.3516" y2="487.3516"/><text fill="#000000" font-family="sans-serif" font-size="13" font-weight="bold" lengthAdjust="spacing" textLength="18" x="1471" y="482.2856">12</text><text fill="#000000" font-family="sans-serif" font-size="13" lengthAdjust="spacing" textLength="268" x="1493" y="482.2856">create(NIF, morada, numeroMaximo, tipo)</text><rect fill="#FEFECE" filter="url(#fmjopul0xn2ch)" height="30.2969" style="stroke:#A80036;stroke-width:1.5;" width="118" x="1896.5" y="466.2188"/><text fill="#000000" font-family="sans-serif" font-size="14" lengthAdjust="spacing" textLength="104" x="1903.5" y="486.2139">parque:Parque</text><polygon fill="#A80036" points="75,528.6484,65,532.6484,75,536.6484,71,532.6484" style="stroke:#A80036;stroke-width:1.0;"/><line style="stroke:#A80036;stroke-width:1.0;stroke-dasharray:2.0,2.0;" x1="69" x2="645" y1="532.6484" y2="532.6484"/><text fill="#000000" font-family="sans-serif" font-size="13" font-weight="bold" lengthAdjust="spacing" textLength="17" x="81" y="527.5825">13</text><text fill="#000000" font-family="sans-serif" font-size="13" lengthAdjust="spacing" textLength="252" x="102" y="527.5825">apresenta dados e solicita confirmação</text><polygon fill="#A80036" points="629,557.7813,639,561.7813,629,565.7813,633,561.7813" style="stroke:#A80036;stroke-width:1.0;"/><line style="stroke:#A80036;stroke-width:1.0;" x1="64" x2="635" y1="561.7813" y2="561.7813"/><text fill="#000000" font-family="sans-serif" font-size="13" font-weight="bold" lengthAdjust="spacing" textLength="18" x="71" y="556.7153">14</text><text fill="#000000" font-family="sans-serif" font-size="13" lengthAdjust="spacing" textLength="57" x="93" y="556.7153">confirma</text><polygon fill="#A80036" points="1002,586.9141,1012,590.9141,1002,594.9141,1006,590.9141" style="stroke:#A80036;stroke-width:1.0;"/><line style="stroke:#A80036;stroke-width:1.0;" x1="651" x2="1008" y1="590.9141" y2="590.9141"/><text fill="#000000" font-family="sans-serif" font-size="13" font-weight="bold" lengthAdjust="spacing" textLength="18" x="658" y="585.8481">15</text><text fill="#000000" font-family="sans-serif" font-size="13" lengthAdjust="spacing" textLength="144" x="680" y="585.8481">registaFarmacia(farm)</text><polygon fill="#A80036" points="1263,616.0469,1273,620.0469,1263,624.0469,1267,620.0469" style="stroke:#A80036;stroke-width:1.0;"/><line style="stroke:#A80036;stroke-width:1.0;" x1="1024" x2="1269" y1="620.0469" y2="620.0469"/><text fill="#000000" font-family="sans-serif" font-size="13" font-weight="bold" lengthAdjust="spacing" textLength="18" x="1031" y="614.981">16</text><text fill="#000000" font-family="sans-serif" font-size="13" lengthAdjust="spacing" textLength="144" x="1053" y="614.981">registaFarmacia(farm)</text><line style="stroke:#A80036;stroke-width:1.0;" x1="1285" x2="1327" y1="649.1797" y2="649.1797"/><line style="stroke:#A80036;stroke-width:1.0;" x1="1327" x2="1327" y1="649.1797" y2="662.1797"/><line style="stroke:#A80036;stroke-width:1.0;" x1="1286" x2="1327" y1="662.1797" y2="662.1797"/><polygon fill="#A80036" points="1296,658.1797,1286,662.1797,1296,666.1797,1292,662.1797" style="stroke:#A80036;stroke-width:1.0;"/><text fill="#000000" font-family="sans-serif" font-size="13" font-weight="bold" lengthAdjust="spacing" textLength="18" x="1292" y="644.1138">17</text><text fill="#000000" font-family="sans-serif" font-size="13" lengthAdjust="spacing" textLength="138" x="1314" y="644.1138">validaFarmacia(farm)</text><line style="stroke:#A80036;stroke-width:1.0;" x1="1285" x2="1327" y1="696.3125" y2="696.3125"/><line style="stroke:#A80036;stroke-width:1.0;" x1="1327" x2="1327" y1="696.3125" y2="709.3125"/><line style="stroke:#A80036;stroke-width:1.0;" x1="1280" x2="1327" y1="709.3125" y2="709.3125"/><polygon fill="#A80036" points="1290,705.3125,1280,709.3125,1290,713.3125,1286,709.3125" style="stroke:#A80036;stroke-width:1.0;"/><text fill="#000000" font-family="sans-serif" font-size="13" font-weight="bold" lengthAdjust="spacing" textLength="18" x="1292" y="691.2466">18</text><text fill="#000000" font-family="sans-serif" font-size="13" lengthAdjust="spacing" textLength="124" x="1314" y="691.2466">addFarmacia(farm)</text><polygon fill="#A80036" points="1002,729.4453,1012,733.4453,1002,737.4453,1006,733.4453" style="stroke:#A80036;stroke-width:1.0;"/><line style="stroke:#A80036;stroke-width:1.0;" x1="651" x2="1008" y1="733.4453" y2="733.4453"/><text fill="#000000" font-family="sans-serif" font-size="13" font-weight="bold" lengthAdjust="spacing" textLength="18" x="658" y="728.3794">19</text><text fill="#000000" font-family="sans-serif" font-size="13" lengthAdjust="spacing" textLength="138" x="680" y="728.3794">registaEndereco(end)</text><polygon fill="#A80036" points="1631,758.5781,1641,762.5781,1631,766.5781,1635,762.5781" style="stroke:#A80036;stroke-width:1.0;"/><line style="stroke:#A80036;stroke-width:1.0;" x1="1024" x2="1637" y1="762.5781" y2="762.5781"/><text fill="#000000" font-family="sans-serif" font-size="13" font-weight="bold" lengthAdjust="spacing" textLength="19" x="1031" y="757.5122">20</text><text fill="#000000" font-family="sans-serif" font-size="13" lengthAdjust="spacing" textLength="138" x="1054" y="757.5122">registaEndereco(end)</text><line style="stroke:#A80036;stroke-width:1.0;" x1="1653" x2="1695" y1="791.7109" y2="791.7109"/><line style="stroke:#A80036;stroke-width:1.0;" x1="1695" x2="1695" y1="791.7109" y2="804.7109"/><line style="stroke:#A80036;stroke-width:1.0;" x1="1654" x2="1695" y1="804.7109" y2="804.7109"/><polygon fill="#A80036" points="1664,800.7109,1654,804.7109,1664,808.7109,1660,804.7109" style="stroke:#A80036;stroke-width:1.0;"/><text fill="#000000" font-family="sans-serif" font-size="13" font-weight="bold" lengthAdjust="spacing" textLength="18" x="1660" y="786.645">21</text><text fill="#000000" font-family="sans-serif" font-size="13" lengthAdjust="spacing" textLength="132" x="1682" y="786.645">validaEndereco(end)</text><line style="stroke:#A80036;stroke-width:1.0;" x1="1653" x2="1695" y1="838.8438" y2="838.8438"/><line style="stroke:#A80036;stroke-width:1.0;" x1="1695" x2="1695" y1="838.8438" y2="851.8438"/><line style="stroke:#A80036;stroke-width:1.0;" x1="1648" x2="1695" y1="851.8438" y2="851.8438"/><polygon fill="#A80036" points="1658,847.8438,1648,851.8438,1658,855.8438,1654,851.8438" style="stroke:#A80036;stroke-width:1.0;"/><text fill="#000000" font-family="sans-serif" font-size="13" font-weight="bold" lengthAdjust="spacing" textLength="18" x="1660" y="833.7778">22</text><text fill="#000000" font-family="sans-serif" font-size="13" lengthAdjust="spacing" textLength="118" x="1682" y="833.7778">addEndereco(end)</text><polygon fill="#A80036" points="1002,871.9766,1012,875.9766,1002,879.9766,1006,875.9766" style="stroke:#A80036;stroke-width:1.0;"/><line style="stroke:#A80036;stroke-width:1.0;" x1="651" x2="1008" y1="875.9766" y2="875.9766"/><text fill="#000000" font-family="sans-serif" font-size="13" font-weight="bold" lengthAdjust="spacing" textLength="17" x="658" y="870.9106">23</text><text fill="#000000" font-family="sans-serif" font-size="13" lengthAdjust="spacing" textLength="144" x="679" y="870.9106">registaParque(parque)</text><polygon fill="#A80036" points="1447,901.1094,1457,905.1094,1447,909.1094,1451,905.1094" style="stroke:#A80036;stroke-width:1.0;"/><line style="stroke:#A80036;stroke-width:1.0;" x1="1024" x2="1453" y1="905.1094" y2="905.1094"/><text fill="#000000" font-family="sans-serif" font-size="13" font-weight="bold" lengthAdjust="spacing" textLength="18" x="1031" y="900.0435">24</text><text fill="#000000" font-family="sans-serif" font-size="13" lengthAdjust="spacing" textLength="144" x="1053" y="900.0435">registaParque(parque)</text><line style="stroke:#A80036;stroke-width:1.0;" x1="1469" x2="1511" y1="934.2422" y2="934.2422"/><line style="stroke:#A80036;stroke-width:1.0;" x1="1511" x2="1511" y1="934.2422" y2="947.2422"/><line style="stroke:#A80036;stroke-width:1.0;" x1="1470" x2="1511" y1="947.2422" y2="947.2422"/><polygon fill="#A80036" points="1480,943.2422,1470,947.2422,1480,951.2422,1476,947.2422" style="stroke:#A80036;stroke-width:1.0;"/><text fill="#000000" font-family="sans-serif" font-size="13" font-weight="bold" lengthAdjust="spacing" textLength="18" x="1476" y="929.1763">25</text><text fill="#000000" font-family="sans-serif" font-size="13" lengthAdjust="spacing" textLength="138" x="1498" y="929.1763">validaParque(parque)</text><line style="stroke:#A80036;stroke-width:1.0;" x1="1469" x2="1511" y1="981.375" y2="981.375"/><line style="stroke:#A80036;stroke-width:1.0;" x1="1511" x2="1511" y1="981.375" y2="994.375"/><line style="stroke:#A80036;stroke-width:1.0;" x1="1464" x2="1511" y1="994.375" y2="994.375"/><polygon fill="#A80036" points="1474,990.375,1464,994.375,1474,998.375,1470,994.375" style="stroke:#A80036;stroke-width:1.0;"/><text fill="#000000" font-family="sans-serif" font-size="13" font-weight="bold" lengthAdjust="spacing" textLength="18" x="1476" y="976.3091">26</text><text fill="#000000" font-family="sans-serif" font-size="13" lengthAdjust="spacing" textLength="124" x="1498" y="976.3091">addParque(parque)</text><polygon fill="#A80036" points="70,1014.5078,60,1018.5078,70,1022.5078,66,1018.5078" style="stroke:#A80036;stroke-width:1.0;"/><line style="stroke:#A80036;stroke-width:1.0;stroke-dasharray:2.0,2.0;" x1="64" x2="645" y1="1018.5078" y2="1018.5078"/><text fill="#000000" font-family="sans-serif" font-size="13" font-weight="bold" lengthAdjust="spacing" textLength="18" x="76" y="1013.4419">27</text><text fill="#000000" font-family="sans-serif" font-size="13" lengthAdjust="spacing" textLength="154" x="98" y="1013.4419">operação bem sucedida</text><!--MD5=[d5d2d927a653adcb1dc408254c3c086c]
@startuml
autonumber
actor "Administrador" as ADM

participant ":RegistarFarmaciaUI" as UI
participant ":RegistarFarmaciaController" as CTRL
participant "FarmaciaDB" as DB
participant "ParqueDB" as PDB
participant "EnderecoDB" as EDB
participant "farm:Farmacia" as FARMACIA
participant "parque:Parque" as PQ
participant "end:Endereco" as END

activate ADM
ADM -> UI : inicia a criação de uma nova farmácia
activate UI
UI - -> ADM : solicita dados da farmácia (NIF, morada), dados do parque (número máximo e tipo) \ne endereço do parque (morada, latitude, longitude e altitude)
deactivate UI

ADM -> UI : introduz os dados solicitados
activate UI
UI -> CTRL : novaFarmacia(NIF, morada)
activate CTRL

CTRL -> DB: farm=novaFarmacia(NIF, morada)
activate DB
DB - -> FARMACIA ** : create(NIF, morada)
deactivate DB
deactivate CTRL

UI -> CTRL : novoEndereco(morada, latitude, longitude, altitude)
activate CTRL
CTRL -> EDB: end=novoEndereco(morada, latitude, logitude, altitude)
activate EDB
EDB - -> END ** : create(morada, latitude, logitude, altitude)
deactivate EDB
deactivate CTRL

UI -> CTRL : novoParque(NIF, morada, numeroMaximo, tipo)
activate CTRL
CTRL -> PDB: parque=novoParque(NIF, morada, numeroMaximo, tipo)
activate PDB
PDB - -> PQ ** : create(NIF, morada, numeroMaximo, tipo)
deactivate PDB

deactivate CTRL
UI - -> ADM : apresenta dados e solicita confirmação
deactivate UI

ADM -> UI : confirma
activate UI

UI -> CTRL: registaFarmacia(farm)
activate CTRL
CTRL ->DB: registaFarmacia(farm)
activate DB
DB -> DB: validaFarmacia(farm)
DB -> DB: addFarmacia(farm)

deactivate DB
deactivate CTRL

UI -> CTRL: registaEndereco(end)
activate CTRL
CTRL ->EDB: registaEndereco(end)
activate EDB
EDB -> EDB: validaEndereco(end)
EDB -> EDB: addEndereco(end)

deactivate EDB
deactivate CTRL

UI -> CTRL: registaParque(parque)
activate CTRL
CTRL ->PDB: registaParque(parque)
activate PDB
PDB -> PDB: validaParque(parque)
PDB -> PDB: addParque(parque)

deactivate PDB
deactivate CTRL

UI - -> ADM : operação bem sucedida
deactivate UI

deactivate ADM
@enduml

PlantUML version 1.2020.27beta8(Unknown compile time)
(GPL source distribution)
Java Runtime: Java(TM) SE Runtime Environment
JVM: Java HotSpot(TM) 64-Bit Server VM
Default Encoding: UTF-8
Language: en
Country: US
--></g></svg>