<?xml version="1.0" encoding="UTF-8" standalone="no"?><svg xmlns="http://www.w3.org/2000/svg" xmlns:xlink="http://www.w3.org/1999/xlink" contentScriptType="application/ecmascript" contentStyleType="text/css" height="1064px" preserveAspectRatio="none" style="width:1767px;height:1064px;" version="1.1" viewBox="0 0 1767 1064" width="1767px" zoomAndPan="magnify"><defs><filter height="300%" id="f1o4waqxeo99ba" width="300%" x="-1" y="-1"><feGaussianBlur result="blurOut" stdDeviation="2.0"/><feColorMatrix in="blurOut" result="blurOut2" type="matrix" values="0 0 0 0 0 0 0 0 0 0 0 0 0 0 0 0 0 0 .4 0"/><feOffset dx="4.0" dy="4.0" in="blurOut2" result="blurOut3"/><feBlend in="SourceGraphic" in2="blurOut3" mode="normal"/></filter></defs><g><!--MD5=[3179f819b5ca0f9c8a1bd58e9144681b]
class Entrega--><rect codeLine="5" fill="#FEFECE" filter="url(#f1o4waqxeo99ba)" height="78.4141" id="Entrega" style="stroke:#A80036;stroke-width:1.5;" width="78" x="1139.5" y="439.5659"/><ellipse cx="1154.5" cy="455.5659" fill="#ADD1B2" rx="11" ry="11" style="stroke:#A80036;stroke-width:1.0;"/><path d="M1156.8438,451.2378 C1155.9063,450.8003 1155.3125,450.6597 1154.4375,450.6597 C1151.8125,450.6597 1149.8125,452.7378 1149.8125,455.4565 L1149.8125,456.5815 C1149.8125,459.1597 1151.9219,461.0503 1154.8125,461.0503 C1156.0313,461.0503 1157.1875,460.7534 1157.9375,460.2065 C1158.5156,459.8003 1158.8438,459.3472 1158.8438,458.9565 C1158.8438,458.5034 1158.4531,458.1128 1157.9844,458.1128 C1157.7656,458.1128 1157.5625,458.1909 1157.375,458.3784 C1156.9219,458.8628 1156.9219,458.8628 1156.7344,458.9565 C1156.3125,459.2222 1155.625,459.3472 1154.8594,459.3472 C1152.8125,459.3472 1151.5156,458.2534 1151.5156,456.5503 L1151.5156,455.4565 C1151.5156,453.6753 1152.7656,452.3628 1154.5,452.3628 C1155.0781,452.3628 1155.6875,452.519 1156.1563,452.769 C1156.6406,453.0503 1156.8125,453.269 1156.9063,453.6753 C1156.9688,454.0815 1157,454.2065 1157.1406,454.3315 C1157.2813,454.4722 1157.5156,454.5815 1157.7344,454.5815 C1158,454.5815 1158.2656,454.4409 1158.4375,454.2222 C1158.5469,454.0659 1158.5781,453.8784 1158.5781,453.4565 L1158.5781,452.0347 C1158.5781,451.5972 1158.5625,451.4722 1158.4688,451.3159 C1158.3125,451.0503 1158.0313,450.9097 1157.7344,450.9097 C1157.4375,450.9097 1157.2344,451.0034 1157.0156,451.3159 L1156.8438,451.2378 Z " fill="#000000"/><text fill="#000000" font-family="sans-serif" font-size="12" lengthAdjust="spacing" textLength="46" x="1168.5" y="459.7202">Entrega</text><line style="stroke:#A80036;stroke-width:1.5;" x1="1140.5" x2="1216.5" y1="471.5659" y2="471.5659"/><text fill="#000000" font-family="sans-serif" font-size="11" lengthAdjust="spacing" textLength="58" x="1145.5" y="485.7764">-idEntrega</text><text fill="#000000" font-family="sans-serif" font-size="11" lengthAdjust="spacing" textLength="58" x="1145.5" y="498.5811">-dataInicio</text><text fill="#000000" font-family="sans-serif" font-size="11" lengthAdjust="spacing" textLength="49" x="1145.5" y="511.3857">-dataFim</text><!--MD5=[c55f92ccbf0646788158d42f3399cc78]
class Encomenda--><rect codeLine="11" fill="#FEFECE" filter="url(#f1o4waqxeo99ba)" height="78.4141" id="Encomenda" style="stroke:#A80036;stroke-width:1.5;" width="102" x="1389" y="330.5659"/><ellipse cx="1404" cy="346.5659" fill="#ADD1B2" rx="11" ry="11" style="stroke:#A80036;stroke-width:1.0;"/><path d="M1406.3438,342.2378 C1405.4063,341.8003 1404.8125,341.6597 1403.9375,341.6597 C1401.3125,341.6597 1399.3125,343.7378 1399.3125,346.4565 L1399.3125,347.5815 C1399.3125,350.1597 1401.4219,352.0503 1404.3125,352.0503 C1405.5313,352.0503 1406.6875,351.7534 1407.4375,351.2065 C1408.0156,350.8003 1408.3438,350.3472 1408.3438,349.9565 C1408.3438,349.5034 1407.9531,349.1128 1407.4844,349.1128 C1407.2656,349.1128 1407.0625,349.1909 1406.875,349.3784 C1406.4219,349.8628 1406.4219,349.8628 1406.2344,349.9565 C1405.8125,350.2222 1405.125,350.3472 1404.3594,350.3472 C1402.3125,350.3472 1401.0156,349.2534 1401.0156,347.5503 L1401.0156,346.4565 C1401.0156,344.6753 1402.2656,343.3628 1404,343.3628 C1404.5781,343.3628 1405.1875,343.519 1405.6563,343.769 C1406.1406,344.0503 1406.3125,344.269 1406.4063,344.6753 C1406.4688,345.0815 1406.5,345.2065 1406.6406,345.3315 C1406.7813,345.4722 1407.0156,345.5815 1407.2344,345.5815 C1407.5,345.5815 1407.7656,345.4409 1407.9375,345.2222 C1408.0469,345.0659 1408.0781,344.8784 1408.0781,344.4565 L1408.0781,343.0347 C1408.0781,342.5972 1408.0625,342.4722 1407.9688,342.3159 C1407.8125,342.0503 1407.5313,341.9097 1407.2344,341.9097 C1406.9375,341.9097 1406.7344,342.0034 1406.5156,342.3159 L1406.3438,342.2378 Z " fill="#000000"/><text fill="#000000" font-family="sans-serif" font-size="12" lengthAdjust="spacing" textLength="70" x="1418" y="350.7202">Encomenda</text><line style="stroke:#A80036;stroke-width:1.5;" x1="1390" x2="1490" y1="362.5659" y2="362.5659"/><text fill="#000000" font-family="sans-serif" font-size="11" lengthAdjust="spacing" textLength="81" x="1395" y="376.7764">-idEncomenda</text><text fill="#000000" font-family="sans-serif" font-size="11" lengthAdjust="spacing" textLength="67" x="1395" y="389.5811">-dataPedida</text><text fill="#000000" font-family="sans-serif" font-size="11" lengthAdjust="spacing" textLength="36" x="1395" y="402.3857">-preco</text><!--MD5=[533e824b6b94274ee39bf5a43d7cce2a]
class EstadoEncomenda--><rect codeLine="17" fill="#FEFECE" filter="url(#f1o4waqxeo99ba)" height="65.6094" id="EstadoEncomenda" style="stroke:#A80036;stroke-width:1.5;" width="145" x="1608" y="336.5659"/><ellipse cx="1623.9" cy="352.5659" fill="#ADD1B2" rx="11" ry="11" style="stroke:#A80036;stroke-width:1.0;"/><path d="M1626.2438,348.2378 C1625.3063,347.8003 1624.7125,347.6597 1623.8375,347.6597 C1621.2125,347.6597 1619.2125,349.7378 1619.2125,352.4565 L1619.2125,353.5815 C1619.2125,356.1597 1621.3219,358.0503 1624.2125,358.0503 C1625.4313,358.0503 1626.5875,357.7534 1627.3375,357.2065 C1627.9156,356.8003 1628.2438,356.3472 1628.2438,355.9565 C1628.2438,355.5034 1627.8531,355.1128 1627.3844,355.1128 C1627.1656,355.1128 1626.9625,355.1909 1626.775,355.3784 C1626.3219,355.8628 1626.3219,355.8628 1626.1344,355.9565 C1625.7125,356.2222 1625.025,356.3472 1624.2594,356.3472 C1622.2125,356.3472 1620.9156,355.2534 1620.9156,353.5503 L1620.9156,352.4565 C1620.9156,350.6753 1622.1656,349.3628 1623.9,349.3628 C1624.4781,349.3628 1625.0875,349.519 1625.5563,349.769 C1626.0406,350.0503 1626.2125,350.269 1626.3063,350.6753 C1626.3688,351.0815 1626.4,351.2065 1626.5406,351.3315 C1626.6813,351.4722 1626.9156,351.5815 1627.1344,351.5815 C1627.4,351.5815 1627.6656,351.4409 1627.8375,351.2222 C1627.9469,351.0659 1627.9781,350.8784 1627.9781,350.4565 L1627.9781,349.0347 C1627.9781,348.5972 1627.9625,348.4722 1627.8688,348.3159 C1627.7125,348.0503 1627.4313,347.9097 1627.1344,347.9097 C1626.8375,347.9097 1626.6344,348.0034 1626.4156,348.3159 L1626.2438,348.2378 Z " fill="#000000"/><text fill="#000000" font-family="sans-serif" font-size="12" lengthAdjust="spacing" textLength="111" x="1638.1" y="356.7202">EstadoEncomenda</text><line style="stroke:#A80036;stroke-width:1.5;" x1="1609" x2="1752" y1="368.5659" y2="368.5659"/><text fill="#000000" font-family="sans-serif" font-size="11" lengthAdjust="spacing" textLength="133" x="1614" y="382.7764">-id_estado_encomenda</text><text fill="#000000" font-family="sans-serif" font-size="11" lengthAdjust="spacing" textLength="69" x="1614" y="395.5811">-designacao</text><!--MD5=[d4dacc50d49878ba7c621dfc80a2e1ce]
class Produto--><rect codeLine="22" fill="#FEFECE" filter="url(#f1o4waqxeo99ba)" height="91.2188" id="Produto" style="stroke:#A80036;stroke-width:1.5;" width="81" x="1640" y="93.0659"/><ellipse cx="1656.35" cy="109.0659" fill="#ADD1B2" rx="11" ry="11" style="stroke:#A80036;stroke-width:1.0;"/><path d="M1658.6938,104.7378 C1657.7563,104.3003 1657.1625,104.1597 1656.2875,104.1597 C1653.6625,104.1597 1651.6625,106.2378 1651.6625,108.9565 L1651.6625,110.0815 C1651.6625,112.6597 1653.7719,114.5503 1656.6625,114.5503 C1657.8813,114.5503 1659.0375,114.2534 1659.7875,113.7065 C1660.3656,113.3003 1660.6938,112.8472 1660.6938,112.4565 C1660.6938,112.0034 1660.3031,111.6128 1659.8344,111.6128 C1659.6156,111.6128 1659.4125,111.6909 1659.225,111.8784 C1658.7719,112.3628 1658.7719,112.3628 1658.5844,112.4565 C1658.1625,112.7222 1657.475,112.8472 1656.7094,112.8472 C1654.6625,112.8472 1653.3656,111.7534 1653.3656,110.0503 L1653.3656,108.9565 C1653.3656,107.1753 1654.6156,105.8628 1656.35,105.8628 C1656.9281,105.8628 1657.5375,106.019 1658.0063,106.269 C1658.4906,106.5503 1658.6625,106.769 1658.7563,107.1753 C1658.8188,107.5815 1658.85,107.7065 1658.9906,107.8315 C1659.1313,107.9722 1659.3656,108.0815 1659.5844,108.0815 C1659.85,108.0815 1660.1156,107.9409 1660.2875,107.7222 C1660.3969,107.5659 1660.4281,107.3784 1660.4281,106.9565 L1660.4281,105.5347 C1660.4281,105.0972 1660.4125,104.9722 1660.3188,104.8159 C1660.1625,104.5503 1659.8813,104.4097 1659.5844,104.4097 C1659.2875,104.4097 1659.0844,104.5034 1658.8656,104.8159 L1658.6938,104.7378 Z " fill="#000000"/><text fill="#000000" font-family="sans-serif" font-size="12" lengthAdjust="spacing" textLength="46" x="1670.65" y="113.2202">Produto</text><line style="stroke:#A80036;stroke-width:1.5;" x1="1641" x2="1720" y1="125.0659" y2="125.0659"/><text fill="#000000" font-family="sans-serif" font-size="11" lengthAdjust="spacing" textLength="56" x="1646" y="139.2764">-idProduto</text><text fill="#000000" font-family="sans-serif" font-size="11" lengthAdjust="spacing" textLength="69" x="1646" y="152.0811">-designacao</text><text fill="#000000" font-family="sans-serif" font-size="11" lengthAdjust="spacing" textLength="32" x="1646" y="164.8857">-peso</text><text fill="#000000" font-family="sans-serif" font-size="11" lengthAdjust="spacing" textLength="65" x="1646" y="177.6904">-precoBase</text><!--MD5=[6613c9cd406ef433ff06f5e98b28abd9]
class Farmacia--><rect codeLine="29" fill="#FEFECE" filter="url(#f1o4waqxeo99ba)" height="78.4141" id="Farmacia" style="stroke:#A80036;stroke-width:1.5;" width="86" x="7" y="306.5659"/><ellipse cx="22" cy="322.5659" fill="#ADD1B2" rx="11" ry="11" style="stroke:#A80036;stroke-width:1.0;"/><path d="M24.3438,318.2378 C23.4063,317.8003 22.8125,317.6597 21.9375,317.6597 C19.3125,317.6597 17.3125,319.7378 17.3125,322.4565 L17.3125,323.5815 C17.3125,326.1597 19.4219,328.0503 22.3125,328.0503 C23.5313,328.0503 24.6875,327.7534 25.4375,327.2065 C26.0156,326.8003 26.3438,326.3472 26.3438,325.9565 C26.3438,325.5034 25.9531,325.1128 25.4844,325.1128 C25.2656,325.1128 25.0625,325.1909 24.875,325.3784 C24.4219,325.8628 24.4219,325.8628 24.2344,325.9565 C23.8125,326.2222 23.125,326.3472 22.3594,326.3472 C20.3125,326.3472 19.0156,325.2534 19.0156,323.5503 L19.0156,322.4565 C19.0156,320.6753 20.2656,319.3628 22,319.3628 C22.5781,319.3628 23.1875,319.519 23.6563,319.769 C24.1406,320.0503 24.3125,320.269 24.4063,320.6753 C24.4688,321.0815 24.5,321.2065 24.6406,321.3315 C24.7813,321.4722 25.0156,321.5815 25.2344,321.5815 C25.5,321.5815 25.7656,321.4409 25.9375,321.2222 C26.0469,321.0659 26.0781,320.8784 26.0781,320.4565 L26.0781,319.0347 C26.0781,318.5972 26.0625,318.4722 25.9688,318.3159 C25.8125,318.0503 25.5313,317.9097 25.2344,317.9097 C24.9375,317.9097 24.7344,318.0034 24.5156,318.3159 L24.3438,318.2378 Z " fill="#000000"/><text fill="#000000" font-family="sans-serif" font-size="12" lengthAdjust="spacing" textLength="54" x="36" y="326.7202">Farmacia</text><line style="stroke:#A80036;stroke-width:1.5;" x1="8" x2="92" y1="338.5659" y2="338.5659"/><text fill="#000000" font-family="sans-serif" font-size="11" lengthAdjust="spacing" textLength="21" x="13" y="352.7764">-NIF</text><text fill="#000000" font-family="sans-serif" font-size="11" lengthAdjust="spacing" textLength="36" x="13" y="365.5811">-email</text><text fill="#000000" font-family="sans-serif" font-size="11" lengthAdjust="spacing" textLength="47" x="13" y="378.3857">-morada</text><!--MD5=[d6f7ff8a01a1f4d455865514bc16ec87]
class Estacionamento--><rect codeLine="35" fill="#FEFECE" filter="url(#f1o4waqxeo99ba)" height="65.6094" id="Estacionamento" style="stroke:#A80036;stroke-width:1.5;" width="127" x="1115" y="851.5659"/><ellipse cx="1130" cy="867.5659" fill="#ADD1B2" rx="11" ry="11" style="stroke:#A80036;stroke-width:1.0;"/><path d="M1132.3438,863.2378 C1131.4063,862.8003 1130.8125,862.6597 1129.9375,862.6597 C1127.3125,862.6597 1125.3125,864.7378 1125.3125,867.4565 L1125.3125,868.5815 C1125.3125,871.1597 1127.4219,873.0503 1130.3125,873.0503 C1131.5313,873.0503 1132.6875,872.7534 1133.4375,872.2065 C1134.0156,871.8003 1134.3438,871.3472 1134.3438,870.9565 C1134.3438,870.5034 1133.9531,870.1128 1133.4844,870.1128 C1133.2656,870.1128 1133.0625,870.1909 1132.875,870.3784 C1132.4219,870.8628 1132.4219,870.8628 1132.2344,870.9565 C1131.8125,871.2222 1131.125,871.3472 1130.3594,871.3472 C1128.3125,871.3472 1127.0156,870.2534 1127.0156,868.5503 L1127.0156,867.4565 C1127.0156,865.6753 1128.2656,864.3628 1130,864.3628 C1130.5781,864.3628 1131.1875,864.519 1131.6563,864.769 C1132.1406,865.0503 1132.3125,865.269 1132.4063,865.6753 C1132.4688,866.0815 1132.5,866.2065 1132.6406,866.3315 C1132.7813,866.4722 1133.0156,866.5815 1133.2344,866.5815 C1133.5,866.5815 1133.7656,866.4409 1133.9375,866.2222 C1134.0469,866.0659 1134.0781,865.8784 1134.0781,865.4565 L1134.0781,864.0347 C1134.0781,863.5972 1134.0625,863.4722 1133.9688,863.3159 C1133.8125,863.0503 1133.5313,862.9097 1133.2344,862.9097 C1132.9375,862.9097 1132.7344,863.0034 1132.5156,863.3159 L1132.3438,863.2378 Z " fill="#000000"/><text fill="#000000" font-family="sans-serif" font-size="12" lengthAdjust="spacing" textLength="95" x="1144" y="871.7202">Estacionamento</text><line style="stroke:#A80036;stroke-width:1.5;" x1="1116" x2="1241" y1="883.5659" y2="883.5659"/><text fill="#000000" font-family="sans-serif" font-size="11" lengthAdjust="spacing" textLength="73" x="1121" y="897.7764">-numeroLote</text><text fill="#000000" font-family="sans-serif" font-size="11" lengthAdjust="spacing" textLength="65" x="1121" y="910.5811">-carregador</text><!--MD5=[3f1202280bfe3359d2f91fb9b6e32986]
class Estafeta--><rect codeLine="40" fill="#FEFECE" filter="url(#f1o4waqxeo99ba)" height="104.0234" id="Estafeta" style="stroke:#A80036;stroke-width:1.5;" width="155" x="589" y="336.5659"/><ellipse cx="638.25" cy="352.5659" fill="#ADD1B2" rx="11" ry="11" style="stroke:#A80036;stroke-width:1.0;"/><path d="M640.5938,348.2378 C639.6563,347.8003 639.0625,347.6597 638.1875,347.6597 C635.5625,347.6597 633.5625,349.7378 633.5625,352.4565 L633.5625,353.5815 C633.5625,356.1597 635.6719,358.0503 638.5625,358.0503 C639.7813,358.0503 640.9375,357.7534 641.6875,357.2065 C642.2656,356.8003 642.5938,356.3472 642.5938,355.9565 C642.5938,355.5034 642.2031,355.1128 641.7344,355.1128 C641.5156,355.1128 641.3125,355.1909 641.125,355.3784 C640.6719,355.8628 640.6719,355.8628 640.4844,355.9565 C640.0625,356.2222 639.375,356.3472 638.6094,356.3472 C636.5625,356.3472 635.2656,355.2534 635.2656,353.5503 L635.2656,352.4565 C635.2656,350.6753 636.5156,349.3628 638.25,349.3628 C638.8281,349.3628 639.4375,349.519 639.9063,349.769 C640.3906,350.0503 640.5625,350.269 640.6563,350.6753 C640.7188,351.0815 640.75,351.2065 640.8906,351.3315 C641.0313,351.4722 641.2656,351.5815 641.4844,351.5815 C641.75,351.5815 642.0156,351.4409 642.1875,351.2222 C642.2969,351.0659 642.3281,350.8784 642.3281,350.4565 L642.3281,349.0347 C642.3281,348.5972 642.3125,348.4722 642.2188,348.3159 C642.0625,348.0503 641.7813,347.9097 641.4844,347.9097 C641.1875,347.9097 640.9844,348.0034 640.7656,348.3159 L640.5938,348.2378 Z " fill="#000000"/><text fill="#000000" font-family="sans-serif" font-size="12" lengthAdjust="spacing" textLength="48" x="658.75" y="356.7202">Estafeta</text><line style="stroke:#A80036;stroke-width:1.5;" x1="590" x2="743" y1="368.5659" y2="368.5659"/><text fill="#000000" font-family="sans-serif" font-size="11" lengthAdjust="spacing" textLength="21" x="595" y="382.7764">-NIF</text><text fill="#000000" font-family="sans-serif" font-size="11" lengthAdjust="spacing" textLength="37" x="595" y="395.5811">-nome</text><text fill="#000000" font-family="sans-serif" font-size="11" lengthAdjust="spacing" textLength="36" x="595" y="408.3857">-email</text><text fill="#000000" font-family="sans-serif" font-size="11" lengthAdjust="spacing" textLength="143" x="595" y="421.1904">-numeroSegurancaSocial</text><text fill="#000000" font-family="sans-serif" font-size="11" lengthAdjust="spacing" textLength="57" x="595" y="433.9951">-password</text><!--MD5=[b1b5bcb3873f5e6d986aef558b6021e9]
class EstadoEstafeta--><rect codeLine="48" fill="#FEFECE" filter="url(#f1o4waqxeo99ba)" height="65.6094" id="EstadoEstafeta" style="stroke:#A80036;stroke-width:1.5;" width="125" x="1116" y="251.5659"/><ellipse cx="1132.8" cy="267.5659" fill="#ADD1B2" rx="11" ry="11" style="stroke:#A80036;stroke-width:1.0;"/><path d="M1135.1438,263.2378 C1134.2063,262.8003 1133.6125,262.6597 1132.7375,262.6597 C1130.1125,262.6597 1128.1125,264.7378 1128.1125,267.4565 L1128.1125,268.5815 C1128.1125,271.1597 1130.2219,273.0503 1133.1125,273.0503 C1134.3313,273.0503 1135.4875,272.7534 1136.2375,272.2065 C1136.8156,271.8003 1137.1438,271.3472 1137.1438,270.9565 C1137.1438,270.5034 1136.7531,270.1128 1136.2844,270.1128 C1136.0656,270.1128 1135.8625,270.1909 1135.675,270.3784 C1135.2219,270.8628 1135.2219,270.8628 1135.0344,270.9565 C1134.6125,271.2222 1133.925,271.3472 1133.1594,271.3472 C1131.1125,271.3472 1129.8156,270.2534 1129.8156,268.5503 L1129.8156,267.4565 C1129.8156,265.6753 1131.0656,264.3628 1132.8,264.3628 C1133.3781,264.3628 1133.9875,264.519 1134.4563,264.769 C1134.9406,265.0503 1135.1125,265.269 1135.2063,265.6753 C1135.2688,266.0815 1135.3,266.2065 1135.4406,266.3315 C1135.5813,266.4722 1135.8156,266.5815 1136.0344,266.5815 C1136.3,266.5815 1136.5656,266.4409 1136.7375,266.2222 C1136.8469,266.0659 1136.8781,265.8784 1136.8781,265.4565 L1136.8781,264.0347 C1136.8781,263.5972 1136.8625,263.4722 1136.7688,263.3159 C1136.6125,263.0503 1136.3313,262.9097 1136.0344,262.9097 C1135.7375,262.9097 1135.5344,263.0034 1135.3156,263.3159 L1135.1438,263.2378 Z " fill="#000000"/><text fill="#000000" font-family="sans-serif" font-size="12" lengthAdjust="spacing" textLength="89" x="1147.2" y="271.7202">EstadoEstafeta</text><line style="stroke:#A80036;stroke-width:1.5;" x1="1117" x2="1240" y1="283.5659" y2="283.5659"/><text fill="#000000" font-family="sans-serif" font-size="11" lengthAdjust="spacing" textLength="113" x="1122" y="297.7764">-id_estado_estafeta</text><text fill="#000000" font-family="sans-serif" font-size="11" lengthAdjust="spacing" textLength="69" x="1122" y="310.5811">-designacao</text><!--MD5=[5dd1d6732c071e710b9290b531f2fa3b]
class Utilizador--><rect codeLine="53" fill="#FEFECE" filter="url(#f1o4waqxeo99ba)" height="104.0234" id="Utilizador" style="stroke:#A80036;stroke-width:1.5;" width="155" x="1101" y="552.5659"/><ellipse cx="1145.75" cy="568.5659" fill="#ADD1B2" rx="11" ry="11" style="stroke:#A80036;stroke-width:1.0;"/><path d="M1148.0938,564.2378 C1147.1563,563.8003 1146.5625,563.6597 1145.6875,563.6597 C1143.0625,563.6597 1141.0625,565.7378 1141.0625,568.4565 L1141.0625,569.5815 C1141.0625,572.1597 1143.1719,574.0503 1146.0625,574.0503 C1147.2813,574.0503 1148.4375,573.7534 1149.1875,573.2065 C1149.7656,572.8003 1150.0938,572.3472 1150.0938,571.9565 C1150.0938,571.5034 1149.7031,571.1128 1149.2344,571.1128 C1149.0156,571.1128 1148.8125,571.1909 1148.625,571.3784 C1148.1719,571.8628 1148.1719,571.8628 1147.9844,571.9565 C1147.5625,572.2222 1146.875,572.3472 1146.1094,572.3472 C1144.0625,572.3472 1142.7656,571.2534 1142.7656,569.5503 L1142.7656,568.4565 C1142.7656,566.6753 1144.0156,565.3628 1145.75,565.3628 C1146.3281,565.3628 1146.9375,565.519 1147.4063,565.769 C1147.8906,566.0503 1148.0625,566.269 1148.1563,566.6753 C1148.2188,567.0815 1148.25,567.2065 1148.3906,567.3315 C1148.5313,567.4722 1148.7656,567.5815 1148.9844,567.5815 C1149.25,567.5815 1149.5156,567.4409 1149.6875,567.2222 C1149.7969,567.0659 1149.8281,566.8784 1149.8281,566.4565 L1149.8281,565.0347 C1149.8281,564.5972 1149.8125,564.4722 1149.7188,564.3159 C1149.5625,564.0503 1149.2813,563.9097 1148.9844,563.9097 C1148.6875,563.9097 1148.4844,564.0034 1148.2656,564.3159 L1148.0938,564.2378 Z " fill="#000000"/><text fill="#000000" font-family="sans-serif" font-size="12" lengthAdjust="spacing" textLength="57" x="1166.25" y="572.7202">Utilizador</text><line style="stroke:#A80036;stroke-width:1.5;" x1="1102" x2="1255" y1="584.5659" y2="584.5659"/><text fill="#000000" font-family="sans-serif" font-size="11" lengthAdjust="spacing" textLength="21" x="1107" y="598.7764">-NIF</text><text fill="#000000" font-family="sans-serif" font-size="11" lengthAdjust="spacing" textLength="37" x="1107" y="611.5811">-nome</text><text fill="#000000" font-family="sans-serif" font-size="11" lengthAdjust="spacing" textLength="36" x="1107" y="624.3857">-email</text><text fill="#000000" font-family="sans-serif" font-size="11" lengthAdjust="spacing" textLength="143" x="1107" y="637.1904">-numeroSegurancaSocial</text><text fill="#000000" font-family="sans-serif" font-size="11" lengthAdjust="spacing" textLength="57" x="1107" y="649.9951">-password</text><!--MD5=[fdcda49d453d44c676d62f3f6af62207]
class Administrador--><rect codeLine="61" fill="#FEFECE" filter="url(#f1o4waqxeo99ba)" height="104.0234" id="Administrador" style="stroke:#A80036;stroke-width:1.5;" width="155" x="212.5" y="533.5659"/><ellipse cx="245.05" cy="549.5659" fill="#ADD1B2" rx="11" ry="11" style="stroke:#A80036;stroke-width:1.0;"/><path d="M247.3938,545.2378 C246.4563,544.8003 245.8625,544.6597 244.9875,544.6597 C242.3625,544.6597 240.3625,546.7378 240.3625,549.4565 L240.3625,550.5815 C240.3625,553.1597 242.4719,555.0503 245.3625,555.0503 C246.5813,555.0503 247.7375,554.7534 248.4875,554.2065 C249.0656,553.8003 249.3938,553.3472 249.3938,552.9565 C249.3938,552.5034 249.0031,552.1128 248.5344,552.1128 C248.3156,552.1128 248.1125,552.1909 247.925,552.3784 C247.4719,552.8628 247.4719,552.8628 247.2844,552.9565 C246.8625,553.2222 246.175,553.3472 245.4094,553.3472 C243.3625,553.3472 242.0656,552.2534 242.0656,550.5503 L242.0656,549.4565 C242.0656,547.6753 243.3156,546.3628 245.05,546.3628 C245.6281,546.3628 246.2375,546.519 246.7063,546.769 C247.1906,547.0503 247.3625,547.269 247.4563,547.6753 C247.5188,548.0815 247.55,548.2065 247.6906,548.3315 C247.8313,548.4722 248.0656,548.5815 248.2844,548.5815 C248.55,548.5815 248.8156,548.4409 248.9875,548.2222 C249.0969,548.0659 249.1281,547.8784 249.1281,547.4565 L249.1281,546.0347 C249.1281,545.5972 249.1125,545.4722 249.0188,545.3159 C248.8625,545.0503 248.5813,544.9097 248.2844,544.9097 C247.9875,544.9097 247.7844,545.0034 247.5656,545.3159 L247.3938,545.2378 Z " fill="#000000"/><text fill="#000000" font-family="sans-serif" font-size="12" lengthAdjust="spacing" textLength="84" x="262.95" y="553.7202">Administrador</text><line style="stroke:#A80036;stroke-width:1.5;" x1="213.5" x2="366.5" y1="565.5659" y2="565.5659"/><text fill="#000000" font-family="sans-serif" font-size="11" lengthAdjust="spacing" textLength="21" x="218.5" y="579.7764">-NIF</text><text fill="#000000" font-family="sans-serif" font-size="11" lengthAdjust="spacing" textLength="37" x="218.5" y="592.5811">-nome</text><text fill="#000000" font-family="sans-serif" font-size="11" lengthAdjust="spacing" textLength="36" x="218.5" y="605.3857">-email</text><text fill="#000000" font-family="sans-serif" font-size="11" lengthAdjust="spacing" textLength="143" x="218.5" y="618.1904">-numeroSegurancaSocial</text><text fill="#000000" font-family="sans-serif" font-size="11" lengthAdjust="spacing" textLength="57" x="218.5" y="630.9951">-password</text><!--MD5=[36c1942e8942a3e4f47e6de3733e3d18]
class Endereco--><rect codeLine="69" fill="#FEFECE" filter="url(#f1o4waqxeo99ba)" height="52.8047" id="Endereco" style="stroke:#A80036;stroke-width:1.5;" width="90" x="1133.5" y="692.0659"/><ellipse cx="1148.5" cy="708.0659" fill="#ADD1B2" rx="11" ry="11" style="stroke:#A80036;stroke-width:1.0;"/><path d="M1150.8438,703.7378 C1149.9063,703.3003 1149.3125,703.1597 1148.4375,703.1597 C1145.8125,703.1597 1143.8125,705.2378 1143.8125,707.9565 L1143.8125,709.0815 C1143.8125,711.6597 1145.9219,713.5503 1148.8125,713.5503 C1150.0313,713.5503 1151.1875,713.2534 1151.9375,712.7065 C1152.5156,712.3003 1152.8438,711.8472 1152.8438,711.4565 C1152.8438,711.0034 1152.4531,710.6128 1151.9844,710.6128 C1151.7656,710.6128 1151.5625,710.6909 1151.375,710.8784 C1150.9219,711.3628 1150.9219,711.3628 1150.7344,711.4565 C1150.3125,711.7222 1149.625,711.8472 1148.8594,711.8472 C1146.8125,711.8472 1145.5156,710.7534 1145.5156,709.0503 L1145.5156,707.9565 C1145.5156,706.1753 1146.7656,704.8628 1148.5,704.8628 C1149.0781,704.8628 1149.6875,705.019 1150.1563,705.269 C1150.6406,705.5503 1150.8125,705.769 1150.9063,706.1753 C1150.9688,706.5815 1151,706.7065 1151.1406,706.8315 C1151.2813,706.9722 1151.5156,707.0815 1151.7344,707.0815 C1152,707.0815 1152.2656,706.9409 1152.4375,706.7222 C1152.5469,706.5659 1152.5781,706.3784 1152.5781,705.9565 L1152.5781,704.5347 C1152.5781,704.0972 1152.5625,703.9722 1152.4688,703.8159 C1152.3125,703.5503 1152.0313,703.4097 1151.7344,703.4097 C1151.4375,703.4097 1151.2344,703.5034 1151.0156,703.8159 L1150.8438,703.7378 Z " fill="#000000"/><text fill="#000000" font-family="sans-serif" font-size="12" lengthAdjust="spacing" textLength="58" x="1162.5" y="712.2202">Endereco</text><line style="stroke:#A80036;stroke-width:1.5;" x1="1134.5" x2="1222.5" y1="724.0659" y2="724.0659"/><text fill="#000000" font-family="sans-serif" font-size="11" lengthAdjust="spacing" textLength="47" x="1139.5" y="738.2764">-morada</text><!--MD5=[f03aecda799784b0020fee2e72b95698]
class LocalizacaoGPS--><rect codeLine="73" fill="#FEFECE" filter="url(#f1o4waqxeo99ba)" height="65.6094" id="LocalizacaoGPS" style="stroke:#A80036;stroke-width:1.5;" width="125" x="1377.5" y="685.5659"/><ellipse cx="1392.5" cy="701.5659" fill="#ADD1B2" rx="11" ry="11" style="stroke:#A80036;stroke-width:1.0;"/><path d="M1394.8438,697.2378 C1393.9063,696.8003 1393.3125,696.6597 1392.4375,696.6597 C1389.8125,696.6597 1387.8125,698.7378 1387.8125,701.4565 L1387.8125,702.5815 C1387.8125,705.1597 1389.9219,707.0503 1392.8125,707.0503 C1394.0313,707.0503 1395.1875,706.7534 1395.9375,706.2065 C1396.5156,705.8003 1396.8438,705.3472 1396.8438,704.9565 C1396.8438,704.5034 1396.4531,704.1128 1395.9844,704.1128 C1395.7656,704.1128 1395.5625,704.1909 1395.375,704.3784 C1394.9219,704.8628 1394.9219,704.8628 1394.7344,704.9565 C1394.3125,705.2222 1393.625,705.3472 1392.8594,705.3472 C1390.8125,705.3472 1389.5156,704.2534 1389.5156,702.5503 L1389.5156,701.4565 C1389.5156,699.6753 1390.7656,698.3628 1392.5,698.3628 C1393.0781,698.3628 1393.6875,698.519 1394.1563,698.769 C1394.6406,699.0503 1394.8125,699.269 1394.9063,699.6753 C1394.9688,700.0815 1395,700.2065 1395.1406,700.3315 C1395.2813,700.4722 1395.5156,700.5815 1395.7344,700.5815 C1396,700.5815 1396.2656,700.4409 1396.4375,700.2222 C1396.5469,700.0659 1396.5781,699.8784 1396.5781,699.4565 L1396.5781,698.0347 C1396.5781,697.5972 1396.5625,697.4722 1396.4688,697.3159 C1396.3125,697.0503 1396.0313,696.9097 1395.7344,696.9097 C1395.4375,696.9097 1395.2344,697.0034 1395.0156,697.3159 L1394.8438,697.2378 Z " fill="#000000"/><text fill="#000000" font-family="sans-serif" font-size="12" lengthAdjust="spacing" textLength="93" x="1406.5" y="705.7202">LocalizacaoGPS</text><line style="stroke:#A80036;stroke-width:1.5;" x1="1378.5" x2="1501.5" y1="717.5659" y2="717.5659"/><text fill="#000000" font-family="sans-serif" font-size="11" lengthAdjust="spacing" textLength="47" x="1383.5" y="731.7764">-latitude</text><text fill="#000000" font-family="sans-serif" font-size="11" lengthAdjust="spacing" textLength="57" x="1383.5" y="744.5811">-longitude</text><!--MD5=[f4402668d5d5bb8485350c0fdb60ac8e]
class Scooter--><rect codeLine="79" fill="#FEFECE" filter="url(#f1o4waqxeo99ba)" height="78.4141" id="Scooter" style="stroke:#A80036;stroke-width:1.5;" width="134" x="1373" y="845.5659"/><ellipse cx="1412.3" cy="861.5659" fill="#ADD1B2" rx="11" ry="11" style="stroke:#A80036;stroke-width:1.0;"/><path d="M1414.6438,857.2378 C1413.7063,856.8003 1413.1125,856.6597 1412.2375,856.6597 C1409.6125,856.6597 1407.6125,858.7378 1407.6125,861.4565 L1407.6125,862.5815 C1407.6125,865.1597 1409.7219,867.0503 1412.6125,867.0503 C1413.8313,867.0503 1414.9875,866.7534 1415.7375,866.2065 C1416.3156,865.8003 1416.6438,865.3472 1416.6438,864.9565 C1416.6438,864.5034 1416.2531,864.1128 1415.7844,864.1128 C1415.5656,864.1128 1415.3625,864.1909 1415.175,864.3784 C1414.7219,864.8628 1414.7219,864.8628 1414.5344,864.9565 C1414.1125,865.2222 1413.425,865.3472 1412.6594,865.3472 C1410.6125,865.3472 1409.3156,864.2534 1409.3156,862.5503 L1409.3156,861.4565 C1409.3156,859.6753 1410.5656,858.3628 1412.3,858.3628 C1412.8781,858.3628 1413.4875,858.519 1413.9563,858.769 C1414.4406,859.0503 1414.6125,859.269 1414.7063,859.6753 C1414.7688,860.0815 1414.8,860.2065 1414.9406,860.3315 C1415.0813,860.4722 1415.3156,860.5815 1415.5344,860.5815 C1415.8,860.5815 1416.0656,860.4409 1416.2375,860.2222 C1416.3469,860.0659 1416.3781,859.8784 1416.3781,859.4565 L1416.3781,858.0347 C1416.3781,857.5972 1416.3625,857.4722 1416.2688,857.3159 C1416.1125,857.0503 1415.8313,856.9097 1415.5344,856.9097 C1415.2375,856.9097 1415.0344,857.0034 1414.8156,857.3159 L1414.6438,857.2378 Z " fill="#000000"/><text fill="#000000" font-family="sans-serif" font-size="12" lengthAdjust="spacing" textLength="48" x="1431.7" y="865.7202">Scooter</text><line style="stroke:#A80036;stroke-width:1.5;" x1="1374" x2="1506" y1="877.5659" y2="877.5659"/><text fill="#000000" font-family="sans-serif" font-size="11" lengthAdjust="spacing" textLength="58" x="1379" y="891.7764">-idScooter</text><text fill="#000000" font-family="sans-serif" font-size="11" lengthAdjust="spacing" textLength="122" x="1379" y="904.5811">-percentagemBateria</text><text fill="#000000" font-family="sans-serif" font-size="11" lengthAdjust="spacing" textLength="76" x="1379" y="917.3857">-pesoMaximo</text><!--MD5=[1a083dbe42a284ae0ea7f6f701783206]
class Parque--><rect codeLine="85" fill="#FEFECE" filter="url(#f1o4waqxeo99ba)" height="52.8047" id="Parque" style="stroke:#A80036;stroke-width:1.5;" width="104" x="614.5" y="855.0659"/><ellipse cx="643.45" cy="871.0659" fill="#ADD1B2" rx="11" ry="11" style="stroke:#A80036;stroke-width:1.0;"/><path d="M645.7938,866.7378 C644.8563,866.3003 644.2625,866.1597 643.3875,866.1597 C640.7625,866.1597 638.7625,868.2378 638.7625,870.9565 L638.7625,872.0815 C638.7625,874.6597 640.8719,876.5503 643.7625,876.5503 C644.9813,876.5503 646.1375,876.2534 646.8875,875.7065 C647.4656,875.3003 647.7938,874.8472 647.7938,874.4565 C647.7938,874.0034 647.4031,873.6128 646.9344,873.6128 C646.7156,873.6128 646.5125,873.6909 646.325,873.8784 C645.8719,874.3628 645.8719,874.3628 645.6844,874.4565 C645.2625,874.7222 644.575,874.8472 643.8094,874.8472 C641.7625,874.8472 640.4656,873.7534 640.4656,872.0503 L640.4656,870.9565 C640.4656,869.1753 641.7156,867.8628 643.45,867.8628 C644.0281,867.8628 644.6375,868.019 645.1063,868.269 C645.5906,868.5503 645.7625,868.769 645.8563,869.1753 C645.9188,869.5815 645.95,869.7065 646.0906,869.8315 C646.2313,869.9722 646.4656,870.0815 646.6844,870.0815 C646.95,870.0815 647.2156,869.9409 647.3875,869.7222 C647.4969,869.5659 647.5281,869.3784 647.5281,868.9565 L647.5281,867.5347 C647.5281,867.0972 647.5125,866.9722 647.4188,866.8159 C647.2625,866.5503 646.9813,866.4097 646.6844,866.4097 C646.3875,866.4097 646.1844,866.5034 645.9656,866.8159 L645.7938,866.7378 Z " fill="#000000"/><text fill="#000000" font-family="sans-serif" font-size="12" lengthAdjust="spacing" textLength="41" x="660.55" y="875.2202">Parque</text><line style="stroke:#A80036;stroke-width:1.5;" x1="615.5" x2="717.5" y1="887.0659" y2="887.0659"/><text fill="#000000" font-family="sans-serif" font-size="11" lengthAdjust="spacing" textLength="92" x="620.5" y="901.2764">-numeroMaximo</text><!--MD5=[20a748d5ee336a9a91751b0a3d4f0beb]
class Cliente--><rect codeLine="89" fill="#FEFECE" filter="url(#f1o4waqxeo99ba)" height="142.4375" id="Cliente" style="stroke:#A80036;stroke-width:1.5;" width="155" x="589" y="475.5659"/><ellipse cx="641.75" cy="491.5659" fill="#ADD1B2" rx="11" ry="11" style="stroke:#A80036;stroke-width:1.0;"/><path d="M644.0938,487.2378 C643.1563,486.8003 642.5625,486.6597 641.6875,486.6597 C639.0625,486.6597 637.0625,488.7378 637.0625,491.4565 L637.0625,492.5815 C637.0625,495.1597 639.1719,497.0503 642.0625,497.0503 C643.2813,497.0503 644.4375,496.7534 645.1875,496.2065 C645.7656,495.8003 646.0938,495.3472 646.0938,494.9565 C646.0938,494.5034 645.7031,494.1128 645.2344,494.1128 C645.0156,494.1128 644.8125,494.1909 644.625,494.3784 C644.1719,494.8628 644.1719,494.8628 643.9844,494.9565 C643.5625,495.2222 642.875,495.3472 642.1094,495.3472 C640.0625,495.3472 638.7656,494.2534 638.7656,492.5503 L638.7656,491.4565 C638.7656,489.6753 640.0156,488.3628 641.75,488.3628 C642.3281,488.3628 642.9375,488.519 643.4063,488.769 C643.8906,489.0503 644.0625,489.269 644.1563,489.6753 C644.2188,490.0815 644.25,490.2065 644.3906,490.3315 C644.5313,490.4722 644.7656,490.5815 644.9844,490.5815 C645.25,490.5815 645.5156,490.4409 645.6875,490.2222 C645.7969,490.0659 645.8281,489.8784 645.8281,489.4565 L645.8281,488.0347 C645.8281,487.5972 645.8125,487.4722 645.7188,487.3159 C645.5625,487.0503 645.2813,486.9097 644.9844,486.9097 C644.6875,486.9097 644.4844,487.0034 644.2656,487.3159 L644.0938,487.2378 Z " fill="#000000"/><text fill="#000000" font-family="sans-serif" font-size="12" lengthAdjust="spacing" textLength="41" x="662.25" y="495.7202">Cliente</text><line style="stroke:#A80036;stroke-width:1.5;" x1="590" x2="743" y1="507.5659" y2="507.5659"/><text fill="#000000" font-family="sans-serif" font-size="11" lengthAdjust="spacing" textLength="126" x="595" y="521.7764">-numeroCartaoCredito</text><text fill="#000000" font-family="sans-serif" font-size="11" lengthAdjust="spacing" textLength="96" x="595" y="534.5811">-dataDeValidade</text><text fill="#000000" font-family="sans-serif" font-size="11" lengthAdjust="spacing" textLength="28" x="595" y="547.3857">-CCV</text><text fill="#000000" font-family="sans-serif" font-size="11" lengthAdjust="spacing" textLength="21" x="595" y="560.1904">-NIF</text><text fill="#000000" font-family="sans-serif" font-size="11" lengthAdjust="spacing" textLength="37" x="595" y="572.9951">-nome</text><text fill="#000000" font-family="sans-serif" font-size="11" lengthAdjust="spacing" textLength="36" x="595" y="585.7998">-email</text><text fill="#000000" font-family="sans-serif" font-size="11" lengthAdjust="spacing" textLength="143" x="595" y="598.6045">-numeroSegurancaSocial</text><text fill="#000000" font-family="sans-serif" font-size="11" lengthAdjust="spacing" textLength="57" x="595" y="611.4092">-password</text><!--MD5=[ac303f713d9f979882ac64afbf326271]
class TransferenciaProduto--><rect codeLine="100" fill="#FEFECE" filter="url(#f1o4waqxeo99ba)" height="65.6094" id="TransferenciaProduto" style="stroke:#A80036;stroke-width:1.5;" width="160" x="210" y="133.5659"/><ellipse cx="225" cy="149.5659" fill="#ADD1B2" rx="11" ry="11" style="stroke:#A80036;stroke-width:1.0;"/><path d="M227.3438,145.2378 C226.4063,144.8003 225.8125,144.6597 224.9375,144.6597 C222.3125,144.6597 220.3125,146.7378 220.3125,149.4565 L220.3125,150.5815 C220.3125,153.1597 222.4219,155.0503 225.3125,155.0503 C226.5313,155.0503 227.6875,154.7534 228.4375,154.2065 C229.0156,153.8003 229.3438,153.3472 229.3438,152.9565 C229.3438,152.5034 228.9531,152.1128 228.4844,152.1128 C228.2656,152.1128 228.0625,152.1909 227.875,152.3784 C227.4219,152.8628 227.4219,152.8628 227.2344,152.9565 C226.8125,153.2222 226.125,153.3472 225.3594,153.3472 C223.3125,153.3472 222.0156,152.2534 222.0156,150.5503 L222.0156,149.4565 C222.0156,147.6753 223.2656,146.3628 225,146.3628 C225.5781,146.3628 226.1875,146.519 226.6563,146.769 C227.1406,147.0503 227.3125,147.269 227.4063,147.6753 C227.4688,148.0815 227.5,148.2065 227.6406,148.3315 C227.7813,148.4722 228.0156,148.5815 228.2344,148.5815 C228.5,148.5815 228.7656,148.4409 228.9375,148.2222 C229.0469,148.0659 229.0781,147.8784 229.0781,147.4565 L229.0781,146.0347 C229.0781,145.5972 229.0625,145.4722 228.9688,145.3159 C228.8125,145.0503 228.5313,144.9097 228.2344,144.9097 C227.9375,144.9097 227.7344,145.0034 227.5156,145.3159 L227.3438,145.2378 Z " fill="#000000"/><text fill="#000000" font-family="sans-serif" font-size="12" lengthAdjust="spacing" textLength="128" x="239" y="153.7202">TransferenciaProduto</text><line style="stroke:#A80036;stroke-width:1.5;" x1="211" x2="369" y1="165.5659" y2="165.5659"/><text fill="#000000" font-family="sans-serif" font-size="11" lengthAdjust="spacing" textLength="92" x="216" y="179.7764">-idTransferencia</text><text fill="#000000" font-family="sans-serif" font-size="11" lengthAdjust="spacing" textLength="68" x="216" y="192.5811">-quantidade</text><!--MD5=[1ba30c488416121cd0b4d64686b21549]
class EstadoTransferencia--><rect codeLine="105" fill="#FEFECE" filter="url(#f1o4waqxeo99ba)" height="65.6094" id="EstadoTransferencia" style="stroke:#A80036;stroke-width:1.5;" width="155" x="589" y="147.5659"/><ellipse cx="604" cy="163.5659" fill="#ADD1B2" rx="11" ry="11" style="stroke:#A80036;stroke-width:1.0;"/><path d="M606.3438,159.2378 C605.4063,158.8003 604.8125,158.6597 603.9375,158.6597 C601.3125,158.6597 599.3125,160.7378 599.3125,163.4565 L599.3125,164.5815 C599.3125,167.1597 601.4219,169.0503 604.3125,169.0503 C605.5313,169.0503 606.6875,168.7534 607.4375,168.2065 C608.0156,167.8003 608.3438,167.3472 608.3438,166.9565 C608.3438,166.5034 607.9531,166.1128 607.4844,166.1128 C607.2656,166.1128 607.0625,166.1909 606.875,166.3784 C606.4219,166.8628 606.4219,166.8628 606.2344,166.9565 C605.8125,167.2222 605.125,167.3472 604.3594,167.3472 C602.3125,167.3472 601.0156,166.2534 601.0156,164.5503 L601.0156,163.4565 C601.0156,161.6753 602.2656,160.3628 604,160.3628 C604.5781,160.3628 605.1875,160.519 605.6563,160.769 C606.1406,161.0503 606.3125,161.269 606.4063,161.6753 C606.4688,162.0815 606.5,162.2065 606.6406,162.3315 C606.7813,162.4722 607.0156,162.5815 607.2344,162.5815 C607.5,162.5815 607.7656,162.4409 607.9375,162.2222 C608.0469,162.0659 608.0781,161.8784 608.0781,161.4565 L608.0781,160.0347 C608.0781,159.5972 608.0625,159.4722 607.9688,159.3159 C607.8125,159.0503 607.5313,158.9097 607.2344,158.9097 C606.9375,158.9097 606.7344,159.0034 606.5156,159.3159 L606.3438,159.2378 Z " fill="#000000"/><text fill="#000000" font-family="sans-serif" font-size="12" lengthAdjust="spacing" textLength="123" x="618" y="167.7202">EstadoTransferencia</text><line style="stroke:#A80036;stroke-width:1.5;" x1="590" x2="743" y1="179.5659" y2="179.5659"/><text fill="#000000" font-family="sans-serif" font-size="11" lengthAdjust="spacing" textLength="14" x="595" y="193.7764">-id</text><text fill="#000000" font-family="sans-serif" font-size="11" lengthAdjust="spacing" textLength="69" x="595" y="206.5811">-designacao</text><!--MD5=[055d9a59c94791d1e5417ead9eff8d01]
link Encomenda to EstadoEncomenda--><path codeLine="110" d="M1491.29,369.5659 C1525.04,369.5659 1570.03,369.5659 1607.56,369.5659 " fill="none" id="Encomenda-EstadoEncomenda" style="stroke:#A80036;stroke-width:1.0;"/><polygon fill="#000000" points="1547,361.1323,1537.9549,358.1934,1537.9549,364.0713,1547,361.1323" style="stroke:#000000;stroke-width:1.0;"/><text fill="#000000" font-family="sans-serif" font-size="13" lengthAdjust="spacing" textLength="26" x="1551" y="365.6328">tem</text><text fill="#000000" font-family="sans-serif" font-size="13" lengthAdjust="spacing" textLength="8" x="1499.0652" y="382.6677">1</text><text fill="#000000" font-family="sans-serif" font-size="13" lengthAdjust="spacing" textLength="8" x="1591.9862" y="382.3969">1</text><!--MD5=[39609d66ce6d06d1779a14455c909f6f]
link Entrega to Encomenda--><path codeLine="111" d="M1217.66,463.6309 C1250.9,450.5079 1300.33,430.7279 1343,412.5659 C1357.96,406.2009 1374.11,399.0639 1388.83,392.4619 " fill="none" id="Entrega-Encomenda" style="stroke:#A80036;stroke-width:1.0;"/><polygon fill="#000000" points="1296.1168,402.2127,1286.6366,402.9716,1288.8932,408.399,1296.1168,402.2127" style="stroke:#000000;stroke-width:1.0;"/><text fill="#000000" font-family="sans-serif" font-size="13" lengthAdjust="spacing" textLength="41" x="1300.5" y="408.6328">possui</text><text fill="#000000" font-family="sans-serif" font-size="13" lengthAdjust="spacing" textLength="8" x="1225.6176" y="474.3011">1</text><text fill="#000000" font-family="sans-serif" font-size="13" lengthAdjust="spacing" textLength="7" x="1374.142" y="408.7835">*</text><!--MD5=[328dae9b2f192140d45e51cd90ecd75a]
link Estafeta to Entrega--><path codeLine="112" d="M744.128,402.0889 C854.94,421.6439 1055.79,457.0869 1139.39,471.8399 " fill="none" id="Estafeta-Entrega" style="stroke:#A80036;stroke-width:1.0;"/><polygon fill="#000000" points="903.9239,400.0012,895.5272,395.5352,894.5057,401.3236,903.9239,400.0012" style="stroke:#000000;stroke-width:1.0;"/><text fill="#000000" font-family="sans-serif" font-size="13" lengthAdjust="spacing" textLength="42" x="908" y="403.6328">realiza</text><text fill="#000000" font-family="sans-serif" font-size="13" lengthAdjust="spacing" textLength="8" x="751.9082" y="416.1648">1</text><text fill="#000000" font-family="sans-serif" font-size="13" lengthAdjust="spacing" textLength="7" x="1124.5338" y="484.0236">*</text><!--MD5=[b39feb7ad9ed03cb1a05d76e3f369af6]
link Estafeta to EstadoEstafeta--><path codeLine="113" d="M744.037,353.5119 C753.983,349.7639 764.141,346.3209 774,343.5659 C892.471,310.4609 1036,295.1149 1116,288.6719 " fill="none" id="Estafeta-EstadoEstafeta" style="stroke:#A80036;stroke-width:1.0;"/><polygon fill="#000000" points="911.9257,283.2737,902.5103,281.9317,903.5197,287.7222,911.9257,283.2737" style="stroke:#000000;stroke-width:1.0;"/><text fill="#000000" font-family="sans-serif" font-size="13" lengthAdjust="spacing" textLength="26" x="916" y="288.6328">tem</text><text fill="#000000" font-family="sans-serif" font-size="13" lengthAdjust="spacing" textLength="8" x="752.0633" y="362.8718">1</text><text fill="#000000" font-family="sans-serif" font-size="13" lengthAdjust="spacing" textLength="8" x="1099.8953" y="302.1852">1</text><!--MD5=[aa5a8ec5fd097e3d415964f18fa48efb]
link Estafeta to Utilizador--><path codeLine="114" d="M724.738,440.7259 C748.244,461.9449 770.767,481.9289 774,483.5659 C894.385,544.5209 944.423,499.8079 1071,546.5659 C1080.87,550.2139 1090.95,554.6489 1100.78,559.4249 " fill="none" id="Estafeta-Utilizador" style="stroke:#A80036;stroke-width:1.0;"/><polygon fill="#000000" points="890.2681,476.6374,882.5272,471.1121,880.7579,476.7173,890.2681,476.6374" style="stroke:#000000;stroke-width:1.0;"/><text fill="#000000" font-family="sans-serif" font-size="13" lengthAdjust="spacing" textLength="69" x="894.5" y="479.6328">atua como</text><text fill="#000000" font-family="sans-serif" font-size="13" lengthAdjust="spacing" textLength="8" x="724.0262" y="460.817">1</text><text fill="#000000" font-family="sans-serif" font-size="13" lengthAdjust="spacing" textLength="8" x="1084.9911" y="567.9094">1</text><!--MD5=[b4161b205744775e44f73e41ced309e0]
link Administrador to Utilizador--><path codeLine="115" d="M367.698,607.7289 C427.421,623.7829 512.711,644.0959 589,652.5659 C772.135,672.8999 988.232,641.0139 1100.71,620.2159 " fill="none" id="Administrador-Utilizador" style="stroke:#A80036;stroke-width:1.0;"/><polygon fill="#000000" points="634.4993,644.2175,625.5056,641.1249,625.4054,647.0019,634.4993,644.2175" style="stroke:#000000;stroke-width:1.0;"/><text fill="#000000" font-family="sans-serif" font-size="13" lengthAdjust="spacing" textLength="69" x="638.5" y="648.6328">atua como</text><text fill="#000000" font-family="sans-serif" font-size="13" lengthAdjust="spacing" textLength="8" x="375.4848" y="622.6283">1</text><text fill="#000000" font-family="sans-serif" font-size="13" lengthAdjust="spacing" textLength="8" x="1084.9144" y="634.4945">1</text><!--MD5=[4fe240217702a86376bae6ca4f1a3aaa]
link Administrador to Estafeta--><path codeLine="116" d="M367.689,545.2249 C432.316,511.2289 524.316,462.8339 588.913,428.8529 " fill="none" id="Administrador-Estafeta" style="stroke:#A80036;stroke-width:1.0;"/><polygon fill="#000000" points="459.4251,435.8046,450.0518,437.4145,452.7882,442.6165,459.4251,435.8046" style="stroke:#000000;stroke-width:1.0;"/><text fill="#000000" font-family="sans-serif" font-size="13" lengthAdjust="spacing" textLength="44" x="464" y="442.6328">regista</text><text fill="#000000" font-family="sans-serif" font-size="13" lengthAdjust="spacing" textLength="8" x="375.475" y="554.1669">1</text><text fill="#000000" font-family="sans-serif" font-size="13" lengthAdjust="spacing" textLength="7" x="573.931" y="445.6292">*</text><!--MD5=[651704aa6f94d771ebfe007ead522536]
link Administrador to Produto--><path codeLine="117" d="M316.91,533.4219 C336.195,498.5339 365.146,453.3619 400,421.5659 C470.518,357.2359 500.515,355.3649 589,319.5659 C976.609,162.7469 1494.33,141.7539 1639.94,138.9789 " fill="none" id="Administrador-Produto" style="stroke:#A80036;stroke-width:1.0;"/><polygon fill="#000000" points="1132.2916,155.7038,1122.7839,155.4716,1124.4632,161.1045,1132.2916,155.7038" style="stroke:#000000;stroke-width:1.0;"/><text fill="#000000" font-family="sans-serif" font-size="13" lengthAdjust="spacing" textLength="97" x="1136.5" y="161.6328">insere no stock</text><text fill="#000000" font-family="sans-serif" font-size="13" lengthAdjust="spacing" textLength="8" x="311.9885" y="522.4815">1</text><text fill="#000000" font-family="sans-serif" font-size="13" lengthAdjust="spacing" textLength="7" x="1625.0918" y="152.4477">*</text><!--MD5=[691aaec3d3b4d521bdebee749fdb96d9]
link Administrador to Scooter--><path codeLine="118" d="M364.387,637.7219 C375.941,644.4379 388.032,650.6669 400,655.5659 C759.708,802.7989 878.139,743.5259 1256,834.5659 C1294.9,843.9389 1338.1,855.6779 1372.75,865.4249 " fill="none" id="Administrador-Scooter" style="stroke:#A80036;stroke-width:1.0;"/><polygon fill="#000000" points="783.8772,752.2337,775.7016,747.3746,774.4069,753.1081,783.8772,752.2337" style="stroke:#000000;stroke-width:1.0;"/><text fill="#000000" font-family="sans-serif" font-size="13" lengthAdjust="spacing" textLength="282" x="788" y="755.6328">adiciona, remove ou atualiza e cria QR code</text><text fill="#000000" font-family="sans-serif" font-size="13" lengthAdjust="spacing" textLength="8" x="365.8453" y="657.8124">1</text><text fill="#000000" font-family="sans-serif" font-size="13" lengthAdjust="spacing" textLength="7" x="1358.0117" y="876.2032">*</text><!--MD5=[6ba179a0a54b0b32b52757b8e4d27c6d]
link Administrador to Parque--><path codeLine="119" d="M300.164,637.5739 C312.755,693.0429 340.944,779.2809 400,826.5659 C408.382,833.2779 539.744,858.3719 614.483,872.2279 " fill="none" id="Administrador-Parque" style="stroke:#A80036;stroke-width:1.0;"/><polygon fill="#000000" points="409.0066,821.1235,403.5167,813.3574,400.0004,818.0675,409.0066,821.1235" style="stroke:#000000;stroke-width:1.0;"/><text fill="#000000" font-family="sans-serif" font-size="13" lengthAdjust="spacing" textLength="144" x="414" y="822.6328">define numeroMaximo</text><text fill="#000000" font-family="sans-serif" font-size="13" lengthAdjust="spacing" textLength="8" x="292.9923" y="657.6445">1</text><text fill="#000000" font-family="sans-serif" font-size="13" lengthAdjust="spacing" textLength="8" x="598.6056" y="884.0594">1</text><!--MD5=[526e8b388de5574421fe4c78d4de4165]
link Endereco to LocalizacaoGPS--><path codeLine="120" d="M1223.52,718.5659 C1265.74,718.5659 1329.89,718.5659 1377.22,718.5659 " fill="none" id="Endereco-LocalizacaoGPS" style="stroke:#A80036;stroke-width:1.0;"/><polygon fill="#000000" points="1304,710.1323,1294.9549,707.1934,1294.9549,713.0713,1304,710.1323" style="stroke:#000000;stroke-width:1.0;"/><text fill="#000000" font-family="sans-serif" font-size="13" lengthAdjust="spacing" textLength="26" x="1308" y="714.6328">tem</text><text fill="#000000" font-family="sans-serif" font-size="13" lengthAdjust="spacing" textLength="8" x="1231.6389" y="731.9022">1</text><text fill="#000000" font-family="sans-serif" font-size="13" lengthAdjust="spacing" textLength="8" x="1361.4986" y="731.5303">1</text><!--MD5=[43a7c1a046aa41d1c9842e3954366be4]
link Cliente to Endereco--><path codeLine="121" d="M744.214,606.4299 C753.92,612.4469 763.971,618.0069 774,622.5659 C897.236,678.5919 1057.08,704.1029 1133.3,713.7029 " fill="none" id="Cliente-Endereco" style="stroke:#A80036;stroke-width:1.0;"/><polygon fill="#000000" points="911.8202,615.4613,903.8815,610.224,902.3193,615.8904,911.8202,615.4613" style="stroke:#000000;stroke-width:1.0;"/><text fill="#000000" font-family="sans-serif" font-size="13" lengthAdjust="spacing" textLength="26" x="916" y="618.6328">tem</text><text fill="#000000" font-family="sans-serif" font-size="13" lengthAdjust="spacing" textLength="8" x="752.0024" y="624.9029">1</text><text fill="#000000" font-family="sans-serif" font-size="13" lengthAdjust="spacing" textLength="8" x="1117.4588" y="726.2162">1</text><!--MD5=[00a2b7b20e7d7828fa181bc7c0dc6998]
link Cliente to Utilizador--><path codeLine="122" d="M744.125,562.6569 C754.147,564.4729 764.3,566.1689 774,567.5659 C887.318,583.8889 1019.64,594.4119 1101,599.9119 " fill="none" id="Cliente-Utilizador" style="stroke:#A80036;stroke-width:1.0;"/><polygon fill="#000000" points="890.473,559.6515,881.7819,555.7893,881.1716,561.6354,890.473,559.6515" style="stroke:#000000;stroke-width:1.0;"/><text fill="#000000" font-family="sans-serif" font-size="13" lengthAdjust="spacing" textLength="69" x="894.5" y="563.6328">atua como</text><text fill="#000000" font-family="sans-serif" font-size="13" lengthAdjust="spacing" textLength="8" x="751.9049" y="576.9578">1</text><text fill="#000000" font-family="sans-serif" font-size="13" lengthAdjust="spacing" textLength="8" x="1084.9773" y="612.2643">1</text><!--MD5=[beec9e5f2ed2709028dd31c1dc478e7b]
link Cliente to Encomenda--><path codeLine="123" d="M732.33,475.3929 C736.465,469.8369 740.405,464.1959 744,458.5659 C761.56,431.0679 746.915,409.7569 774,391.5659 C824.524,357.6319 1242.55,364.6599 1388.75,368.2039 " fill="none" id="Cliente-Encomenda" style="stroke:#A80036;stroke-width:1.0;"/><polygon fill="#000000" points="1135.9346,355.3265,1126.5342,353.8837,1127.4814,359.6847,1135.9346,355.3265" style="stroke:#000000;stroke-width:1.0;"/><text fill="#000000" font-family="sans-serif" font-size="13" lengthAdjust="spacing" textLength="90" x="1140" y="360.6328">realiza e paga</text><text fill="#000000" font-family="sans-serif" font-size="13" lengthAdjust="spacing" textLength="8" x="730.7062" y="464.3309">1</text><text fill="#000000" font-family="sans-serif" font-size="13" lengthAdjust="spacing" textLength="7" x="1374.0508" y="381.1142">*</text><!--MD5=[f440ac15537f19f21c80dc932ffd2bf8]
link Entrega to Scooter--><path codeLine="124" d="M1217.59,502.0809 C1230.78,511.4229 1245.01,522.9549 1256,535.5659 C1308.67,595.9979 1308.88,621.0249 1343,693.5659 C1358.46,726.4269 1357.25,736.8429 1373,769.5659 C1385.48,795.4949 1401.5,823.5209 1414.64,845.4139 " fill="none" id="Entrega-Scooter" style="stroke:#A80036;stroke-width:1.0;"/><polygon fill="#000000" points="1288.5111,560.7958,1290.4646,570.1036,1295.5625,567.1777,1288.5111,560.7958" style="stroke:#000000;stroke-width:1.0;"/><text fill="#000000" font-family="sans-serif" font-size="13" lengthAdjust="spacing" textLength="42" x="1300" y="569.6328">realiza</text><text fill="#000000" font-family="sans-serif" font-size="13" lengthAdjust="spacing" textLength="7" x="1225.4425" y="519.8403">*</text><text fill="#000000" font-family="sans-serif" font-size="13" lengthAdjust="spacing" textLength="8" x="1401.5938" y="834.4383">1</text><!--MD5=[db4a5ac14aaeb2d946b80db0d46ff947]
link Farmacia to Produto--><path codeLine="125" d="M60.14,306.4039 C82.7427,220.5909 149.795,23.5659 289,23.5659 C289,23.5659 289,23.5659 1441,23.5659 C1517.08,23.5659 1594.47,71.6289 1639.68,105.6119 " fill="none" id="Farmacia-Produto" style="stroke:#A80036;stroke-width:1.0;"/><polygon fill="#000000" points="911.9601,14.5018,902.6166,12.727,903.3578,18.5579,911.9601,14.5018" style="stroke:#000000;stroke-width:1.0;"/><text fill="#000000" font-family="sans-serif" font-size="13" lengthAdjust="spacing" textLength="26" x="916" y="19.6328">tem</text><text fill="#000000" font-family="sans-serif" font-size="13" lengthAdjust="spacing" textLength="8" x="53.1953" y="295.4266">1</text><text fill="#000000" font-family="sans-serif" font-size="13" lengthAdjust="spacing" textLength="7" x="1625.0625" y="113.2965">*</text><!--MD5=[60097591193c89dbde5dfd99b98b5263]
link Encomenda to Produto--><path codeLine="126" d="M1481.46,330.3799 C1525.58,287.6449 1595.75,219.6789 1639.64,177.1729 " fill="none" id="Encomenda-Produto" style="stroke:#A80036;stroke-width:1.0;"/><polygon fill="#000000" points="1545.5915,227.6537,1537.0497,231.8355,1541.1391,236.0576,1545.5915,227.6537" style="stroke:#000000;stroke-width:1.0;"/><text fill="#000000" font-family="sans-serif" font-size="13" lengthAdjust="spacing" textLength="26" x="1551" y="235.6328">tem</text><text fill="#000000" font-family="sans-serif" font-size="13" lengthAdjust="spacing" textLength="8" x="1479.8984" y="319.3985">1</text><text fill="#000000" font-family="sans-serif" font-size="13" lengthAdjust="spacing" textLength="7" x="1625.0156" y="197.1571">*</text><!--MD5=[4f96609c99ecadb81dc825d0ae539cef]
link Farmacia to Parque--><path codeLine="127" d="M62.1582,384.6189 C94.126,487.8649 197.056,766.4779 400,859.5659 C469.156,891.2869 559.062,891.3259 614.497,887.3009 " fill="none" id="Farmacia-Parque" style="stroke:#A80036;stroke-width:1.0;"/><polygon fill="#000000" points="270.6978,692.4977,265.9865,684.2361,262.0302,688.5832,270.6978,692.4977" style="stroke:#000000;stroke-width:1.0;"/><text fill="#000000" font-family="sans-serif" font-size="13" lengthAdjust="spacing" textLength="41" x="276" y="693.6328">possui</text><text fill="#000000" font-family="sans-serif" font-size="13" lengthAdjust="spacing" textLength="8" x="65.0364" y="404.953">1</text><text fill="#000000" font-family="sans-serif" font-size="13" lengthAdjust="spacing" textLength="8" x="598.6216" y="901.2521">1</text><!--MD5=[1dbffbca5cb534c4a76478e59708cd36]
link Parque to Scooter--><path codeLine="128" d="M718.635,900.7589 C735.996,906.6319 755.645,912.5849 774,916.5659 C983.938,962.0999 1044.57,990.5781 1256,952.5659 C1296.03,945.3689 1338.74,929.9779 1372.83,915.6559 " fill="none" id="Parque-Scooter" style="stroke:#A80036;stroke-width:1.0;"/><polygon fill="#000000" points="1160.4987,944.2462,1151.5229,941.1021,1151.3891,946.9784,1160.4987,944.2462" style="stroke:#000000;stroke-width:1.0;"/><text fill="#000000" font-family="sans-serif" font-size="13" lengthAdjust="spacing" textLength="41" x="1164.5" y="948.6328">possui</text><text fill="#000000" font-family="sans-serif" font-size="13" lengthAdjust="spacing" textLength="8" x="726.5797" y="921.7222">1</text><text fill="#000000" font-family="sans-serif" font-size="13" lengthAdjust="spacing" textLength="7" x="1358.1005" y="931.9282">*</text><!--MD5=[a2a2090add754c369046d46612be986d]
link Farmacia to Scooter--><path codeLine="129" d="M55.381,384.6059 C73.1569,533.5269 145.877,1057.5659 289,1057.5659 C289,1057.5659 289,1057.5659 1179.5,1057.5659 C1275.34,1057.5659 1362.7,974.8645 1407.5,923.8219 " fill="none" id="Farmacia-Scooter" style="stroke:#A80036;stroke-width:1.0;"/><polygon fill="#000000" points="648.1443,1050.9844,640.8313,1044.9041,638.654,1050.3638,648.1443,1050.9844" style="stroke:#000000;stroke-width:1.0;"/><text fill="#000000" font-family="sans-serif" font-size="13" lengthAdjust="spacing" textLength="41" x="652.5" y="1053.6328">possui</text><text fill="#000000" font-family="sans-serif" font-size="13" lengthAdjust="spacing" textLength="8" x="47.627" y="404.9377">1</text><text fill="#000000" font-family="sans-serif" font-size="13" lengthAdjust="spacing" textLength="7" x="1394.0875" y="944.1922">*</text><!--MD5=[65c0b4ced80642714d633a5480d06ed6]
link Parque to Endereco--><path codeLine="130" d="M718.564,878.9039 C820.137,873.2969 1040.41,859.4719 1071,843.5659 C1113.37,821.5339 1145.89,774.8199 1163.31,745.1549 " fill="none" id="Parque-Endereco" style="stroke:#A80036;stroke-width:1.0;"/><polygon fill="#000000" points="911.7882,833.6924,902.2799,833.4829,903.9727,839.1117,911.7882,833.6924" style="stroke:#000000;stroke-width:1.0;"/><text fill="#000000" font-family="sans-serif" font-size="13" lengthAdjust="spacing" textLength="26" x="916" y="839.6328">tem</text><text fill="#000000" font-family="sans-serif" font-size="13" lengthAdjust="spacing" textLength="8" x="726.448" y="874.5649">1</text><text fill="#000000" font-family="sans-serif" font-size="13" lengthAdjust="spacing" textLength="8" x="1150.8723" y="765.1428">1</text><!--MD5=[3f261229c7309ba030e97986da9f3259]
link Parque to Estacionamento--><path codeLine="131" d="M718.715,892.5909 C736.168,895.8429 755.853,898.9599 774,900.5659 C905.486,912.2029 939.367,910.3989 1071,900.5659 C1085.26,899.5009 1100.51,897.6429 1114.88,895.5619 " fill="none" id="Parque-Estacionamento" style="stroke:#A80036;stroke-width:1.0;"/><polygon fill="#000000" points="911.9999,892.1698,902.9771,889.1631,902.933,895.0408,911.9999,892.1698" style="stroke:#000000;stroke-width:1.0;"/><text fill="#000000" font-family="sans-serif" font-size="13" lengthAdjust="spacing" textLength="26" x="916" y="896.6328">tem</text><text fill="#000000" font-family="sans-serif" font-size="13" lengthAdjust="spacing" textLength="8" x="726.6202" y="907.286">1</text><text fill="#000000" font-family="sans-serif" font-size="13" lengthAdjust="spacing" textLength="7" x="1100.1193" y="909.7977">*</text><!--MD5=[cb91050c5ff0237eb3e241187abe3f74]
link Estacionamento to Scooter--><path codeLine="132" d="M1242.32,884.5659 C1281.77,884.5659 1332.59,884.5659 1372.68,884.5659 " fill="none" id="Estacionamento-Scooter" style="stroke:#A80036;stroke-width:1.0;"/><polygon fill="#000000" points="1304,876.1323,1294.9549,873.1934,1294.9549,879.0713,1304,876.1323" style="stroke:#000000;stroke-width:1.0;"/><text fill="#000000" font-family="sans-serif" font-size="13" lengthAdjust="spacing" textLength="26" x="1308" y="880.6328">tem</text><text fill="#000000" font-family="sans-serif" font-size="13" lengthAdjust="spacing" textLength="8" x="1250.1617" y="897.5303">1</text><text fill="#000000" font-family="sans-serif" font-size="13" lengthAdjust="spacing" textLength="8" x="1356.8794" y="897.4377">1</text><!--MD5=[06143d4fc5f7e61d4193d2b4f541983b]
link Farmacia to Estafeta--><path codeLine="133" d="M93.2371,348.5219 C195.599,355.6839 458.11,374.0539 588.966,383.2109 " fill="none" id="Farmacia-Estafeta" style="stroke:#A80036;stroke-width:1.0;"/><polygon fill="#000000" points="279.4878,348.4813,270.6699,344.9182,270.2596,350.7817,279.4878,348.4813" style="stroke:#000000;stroke-width:1.0;"/><text fill="#000000" font-family="sans-serif" font-size="13" lengthAdjust="spacing" textLength="26" x="283.5" y="352.6328">tem</text><text fill="#000000" font-family="sans-serif" font-size="13" lengthAdjust="spacing" textLength="8" x="101.0607" y="362.2973">1</text><text fill="#000000" font-family="sans-serif" font-size="13" lengthAdjust="spacing" textLength="7" x="573.9892" y="395.4943">*</text><!--MD5=[1eb578f81baca05fae5600e8efb79c07]
link Farmacia to Administrador--><path codeLine="134" d="M89.7685,384.6599 C129.943,425.1719 192.953,488.7119 237.336,533.4679 " fill="none" id="Farmacia-Administrador" style="stroke:#A80036;stroke-width:1.0;"/><polygon fill="#000000" points="139.5207,417.6826,135.2385,409.1907,131.0649,413.3295,139.5207,417.6826" style="stroke:#000000;stroke-width:1.0;"/><text fill="#000000" font-family="sans-serif" font-size="13" lengthAdjust="spacing" textLength="26" x="145" y="418.6328">tem</text><text fill="#000000" font-family="sans-serif" font-size="13" lengthAdjust="spacing" textLength="8" x="88.1398" y="405.0013">1</text><text fill="#000000" font-family="sans-serif" font-size="13" lengthAdjust="spacing" textLength="8" x="221.7218" y="522.5337">1</text><!--MD5=[3f6503f1a57f2d55f08379ac406fcd0b]
link Farmacia to TransferenciaProduto--><path codeLine="135" d="M66.1237,306.4019 C78.0229,280.2549 96.9612,246.8799 123,225.5659 C147.851,205.2239 180.243,191.6439 209.808,182.6999 " fill="none" id="Farmacia-TransferenciaProduto" style="stroke:#A80036;stroke-width:1.0;"/><polygon fill="#000000" points="131.7892,181.8701,123.017,185.5443,126.852,189.9987,131.7892,181.8701" style="stroke:#000000;stroke-width:1.0;"/><text fill="#000000" font-family="sans-serif" font-size="13" lengthAdjust="spacing" textLength="42" x="137" y="189.6328">realiza</text><text fill="#000000" font-family="sans-serif" font-size="13" lengthAdjust="spacing" textLength="8" x="69.5825" y="295.4243">1</text><text fill="#000000" font-family="sans-serif" font-size="13" lengthAdjust="spacing" textLength="7" x="195.0926" y="196.9697">*</text><!--MD5=[c855b1766254e06f87c76fb6bd0b050a]
link TransferenciaProduto to EstadoTransferencia--><path codeLine="136" d="M370.422,169.5349 C434.835,171.9429 525.071,175.3159 588.754,177.6969 " fill="none" id="TransferenciaProduto-EstadoTransferencia" style="stroke:#A80036;stroke-width:1.0;"/><polygon fill="#000000" points="468.9965,162.3191,460.0675,159.0443,459.8479,164.9181,468.9965,162.3191" style="stroke:#000000;stroke-width:1.0;"/><text fill="#000000" font-family="sans-serif" font-size="13" lengthAdjust="spacing" textLength="26" x="473" y="166.6328">tem</text><text fill="#000000" font-family="sans-serif" font-size="13" lengthAdjust="spacing" textLength="8" x="377.9408" y="182.5575">1</text><text fill="#000000" font-family="sans-serif" font-size="13" lengthAdjust="spacing" textLength="7" x="574.0102" y="190.2301">*</text><!--MD5=[36ce0647da86725cfb4b25b0e75164d8]
link TransferenciaProduto to Produto--><path codeLine="137" d="M370.147,142.2899 C445.37,121.3879 562.05,94.5659 665.5,94.5659 C665.5,94.5659 665.5,94.5659 1441,94.5659 C1511.95,94.5659 1592.82,113.6279 1639.82,126.6589 " fill="none" id="TransferenciaProduto-Produto" style="stroke:#A80036;stroke-width:1.0;"/><polygon fill="#000000" points="1144.9996,86.0708,1135.919,83.2434,1135.9914,89.1208,1144.9996,86.0708" style="stroke:#000000;stroke-width:1.0;"/><text fill="#000000" font-family="sans-serif" font-size="13" lengthAdjust="spacing" textLength="72" x="1149" y="90.6328">referente a</text><text fill="#000000" font-family="sans-serif" font-size="13" lengthAdjust="spacing" textLength="8" x="377.9043" y="152.8344">1</text><text fill="#000000" font-family="sans-serif" font-size="13" lengthAdjust="spacing" textLength="8" x="1623.8614" y="137.9332">1</text><!--MD5=[23138b5a3808ac4cd6af70eb470d720c]
@startuml
skinparam classAttributeIconSize 0
hide methods
left to right direction

class Entrega {
  -idEntrega
  -dataInicio
  -dataFim
}

class Encomenda {
  -idEncomenda
  -dataPedida
  -preco
}

class EstadoEncomenda {
  -id_estado_encomenda
  -designacao
}

class Produto {
  -idProduto
  -designacao
  -peso
  -precoBase
}

class Farmacia {
  -NIF
  -email
  -morada
}

class Estacionamento {
  -numeroLote
  -carregador
}

class Estafeta {
  -NIF
  -nome
  -email
  -numeroSegurancaSocial
  -password
}

class EstadoEstafeta {
  -id_estado_estafeta
  -designacao
}

class Utilizador {
  -NIF
  -nome
  -email
  -numeroSegurancaSocial
  -password
}

class Administrador {
  -NIF
  -nome
  -email
  -numeroSegurancaSocial
  -password
}

class Endereco {
  -morada
}

class LocalizacaoGPS {
  -latitude
  -longitude
}


class Scooter {
  -idScooter
  -percentagemBateria
  -pesoMaximo
}

class Parque {
  -numeroMaximo
}

class Cliente {
  -numeroCartaoCredito
  -dataDeValidade
  -CCV
  -NIF
  -nome
  -email
  -numeroSegurancaSocial
  -password
}

class TransferenciaProduto {
  -idTransferencia
  -quantidade
}

class EstadoTransferencia {
  -id
  -designacao
}

Encomenda "1" - - "1" EstadoEncomenda : tem >
Entrega "1" - - "*" Encomenda : possui >
Estafeta "1" - - "*" Entrega: realiza >
Estafeta "1" - - "1" EstadoEstafeta: tem >
Estafeta "1" - - "1" Utilizador: atua como >
Administrador "1" - - "1" Utilizador: atua como >
Administrador "1" - - "*" Estafeta: regista >
Administrador "1" - - "*" Produto: insere no stock >
Administrador "1" - - "*" Scooter: adiciona, remove ou atualiza e cria QR code >
Administrador "1" - - "1" Parque: define numeroMaximo >
Endereco "1" - - "1" LocalizacaoGPS: tem >
Cliente "1" - - "1" Endereco: tem >
Cliente "1" - - "1" Utilizador: atua como >
Cliente "1" - - "*" Encomenda: realiza e paga >
Entrega "*" - - "1" Scooter: realiza <
Farmacia "1" - - "*" Produto: tem >
Encomenda "1" - - "*" Produto: tem >
Farmacia "1" - - "1" Parque: possui >
Parque "1" - - "*" Scooter: possui >
Farmacia "1" - - "*" Scooter: possui >
Parque "1" - - "1" Endereco: tem >
Parque "1" - - "*" Estacionamento: tem >
Estacionamento "1" - - "1" Scooter: tem >
Farmacia "1" - - "*" Estafeta: tem >
Farmacia "1" - - "1" Administrador: tem >
Farmacia "1" - - "*" TransferenciaProduto: realiza >
TransferenciaProduto "1" - - "*" EstadoTransferencia: tem >
TransferenciaProduto "1" - - "1" Produto: referente a >
@enduml

PlantUML version 1.2021.01beta3(Unknown compile time)
(GPL source distribution)
Java Runtime: Java(TM) SE Runtime Environment
JVM: Java HotSpot(TM) 64-Bit Server VM
Default Encoding: UTF-8
Language: en
Country: US
--></g></svg>