<?xml version="1.0" encoding="UTF-8" standalone="no"?><svg xmlns="http://www.w3.org/2000/svg" xmlns:xlink="http://www.w3.org/1999/xlink" contentScriptType="application/ecmascript" contentStyleType="text/css" height="1927.5px" preserveAspectRatio="none" style="width:2073px;height:1927px;" version="1.1" viewBox="0 0 2073 1927" width="2073.75px" zoomAndPan="magnify"><defs><filter height="300%" id="f14f79lbfm1og9" width="300%" x="-1" y="-1"><feGaussianBlur result="blurOut" stdDeviation="2.5"/><feColorMatrix in="blurOut" result="blurOut2" type="matrix" values="0 0 0 0 0 0 0 0 0 0 0 0 0 0 0 0 0 0 .4 0"/><feOffset dx="5.0" dy="5.0" in="blurOut2" result="blurOut3"/><feBlend in="SourceGraphic" in2="blurOut3" mode="normal"/></filter></defs><g><!--MD5=[3179f819b5ca0f9c8a1bd58e9144681b]
class Entrega--><rect codeLine="5" fill="#FEFECE" filter="url(#f14f79lbfm1og9)" height="119.1797" id="Entrega" style="stroke:#A80036;stroke-width:1.875;" width="96.25" x="1328.125" y="663.5706"/><ellipse cx="1348" cy="683.5706" fill="#ADD1B2" rx="13.75" ry="13.75" style="stroke:#A80036;stroke-width:1.25;"/><path d="M1350.5,679.1956 Q1350.7539,678.5706 1351.0469,678.2581 Q1351.3398,677.9456 1351.6719,677.9456 Q1352.2578,677.9456 1352.6289,678.2971 Q1353,678.6487 1353,679.469 L1353,681.4221 Q1353,682.2424 1352.6484,682.594 Q1352.2969,682.9456 1351.75,682.9456 Q1351.2617,682.9456 1350.9492,682.7307 Q1350.6367,682.5159 1350.5,681.9495 Q1350.4414,681.5588 1350.2266,681.344 Q1349.8359,680.9338 1349.1328,680.6995 Q1348.4297,680.4456 1347.7266,680.4456 Q1346.8477,680.4456 1346.1055,680.7971 Q1345.3828,681.1487 1344.8164,681.9299 Q1344.25,682.7112 1344.25,683.7854 L1344.25,684.9377 Q1344.25,686.2268 1345.3047,687.0862 Q1346.3594,687.9456 1348.2344,687.9456 Q1349.3477,687.9456 1350.1289,687.6917 Q1350.5781,687.5549 1351.0859,687.1057 Q1351.418,686.8518 1351.5938,686.7737 Q1351.7695,686.6956 1351.9844,686.6956 Q1352.3945,686.6956 1352.6875,687.0276 Q1353,687.3401 1353,687.7893 Q1353,688.219 1352.5703,688.7268 Q1351.9453,689.469 1350.9492,689.8792 Q1349.6406,690.4456 1348.0391,690.4456 Q1346.1641,690.4456 1344.6602,689.7034 Q1343.4492,689.1174 1342.5898,687.8479 Q1341.75,686.5784 1341.75,685.0745 L1341.75,683.7073 Q1341.75,682.1448 1342.4922,680.7776 Q1343.2539,679.4104 1344.5625,678.6877 Q1345.8906,677.9456 1347.375,677.9456 Q1348.2734,677.9456 1349.0547,678.2581 Q1349.8359,678.5706 1350.5,679.1956 Z " fill="#000000"/><text fill="#000000" font-family="sans-serif" font-size="15" lengthAdjust="spacing" textLength="53.75" x="1365.75" y="689.7083">Entrega</text><line style="stroke:#A80036;stroke-width:1.875;" x1="1329.375" x2="1423.125" y1="703.5706" y2="703.5706"/><text fill="#000000" font-family="sans-serif" font-size="13.75" lengthAdjust="spacing" textLength="61.25" x="1335.625" y="722.8442">-idEntrega</text><text fill="#000000" font-family="sans-serif" font-size="13.75" lengthAdjust="spacing" textLength="61.25" x="1335.625" y="740.1392">-dataInicio</text><text fill="#000000" font-family="sans-serif" font-size="13.75" lengthAdjust="spacing" textLength="51.25" x="1335.625" y="757.4341">-dataFim</text><text fill="#000000" font-family="sans-serif" font-size="13.75" lengthAdjust="spacing" textLength="81.25" x="1335.625" y="774.729">-pesoEntrega</text><!--MD5=[c55f92ccbf0646788158d42f3399cc78]
class Encomenda--><rect codeLine="12" fill="#FEFECE" filter="url(#f14f79lbfm1og9)" height="136.4746" id="Encomenda" style="stroke:#A80036;stroke-width:1.875;" width="123.75" x="1610" y="1434.8206"/><ellipse cx="1628.75" cy="1454.8206" fill="#ADD1B2" rx="13.75" ry="13.75" style="stroke:#A80036;stroke-width:1.25;"/><path d="M1631.25,1450.4456 Q1631.5039,1449.8206 1631.7969,1449.5081 Q1632.0898,1449.1956 1632.4219,1449.1956 Q1633.0078,1449.1956 1633.3789,1449.5471 Q1633.75,1449.8987 1633.75,1450.719 L1633.75,1452.6721 Q1633.75,1453.4924 1633.3984,1453.844 Q1633.0469,1454.1956 1632.5,1454.1956 Q1632.0117,1454.1956 1631.6992,1453.9807 Q1631.3867,1453.7659 1631.25,1453.1995 Q1631.1914,1452.8088 1630.9766,1452.594 Q1630.5859,1452.1838 1629.8828,1451.9495 Q1629.1797,1451.6956 1628.4766,1451.6956 Q1627.5977,1451.6956 1626.8555,1452.0471 Q1626.1328,1452.3987 1625.5664,1453.1799 Q1625,1453.9612 1625,1455.0354 L1625,1456.1877 Q1625,1457.4768 1626.0547,1458.3362 Q1627.1094,1459.1956 1628.9844,1459.1956 Q1630.0977,1459.1956 1630.8789,1458.9417 Q1631.3281,1458.8049 1631.8359,1458.3557 Q1632.168,1458.1018 1632.3438,1458.0237 Q1632.5195,1457.9456 1632.7344,1457.9456 Q1633.1445,1457.9456 1633.4375,1458.2776 Q1633.75,1458.5901 1633.75,1459.0393 Q1633.75,1459.469 1633.3203,1459.9768 Q1632.6953,1460.719 1631.6992,1461.1292 Q1630.3906,1461.6956 1628.7891,1461.6956 Q1626.9141,1461.6956 1625.4102,1460.9534 Q1624.1992,1460.3674 1623.3398,1459.0979 Q1622.5,1457.8284 1622.5,1456.3245 L1622.5,1454.9573 Q1622.5,1453.3948 1623.2422,1452.0276 Q1624.0039,1450.6604 1625.3125,1449.9377 Q1626.6406,1449.1956 1628.125,1449.1956 Q1629.0234,1449.1956 1629.8047,1449.5081 Q1630.5859,1449.8206 1631.25,1450.4456 Z " fill="#000000"/><text fill="#000000" font-family="sans-serif" font-size="15" lengthAdjust="spacing" textLength="83.75" x="1646.25" y="1460.9583">Encomenda</text><line style="stroke:#A80036;stroke-width:1.875;" x1="1611.25" x2="1732.5" y1="1474.8206" y2="1474.8206"/><text fill="#000000" font-family="sans-serif" font-size="13.75" lengthAdjust="spacing" textLength="85" x="1617.5" y="1494.0942">-idEncomenda</text><text fill="#000000" font-family="sans-serif" font-size="13.75" lengthAdjust="spacing" textLength="71.25" x="1617.5" y="1511.3892">-dataPedida</text><text fill="#000000" font-family="sans-serif" font-size="13.75" lengthAdjust="spacing" textLength="40" x="1617.5" y="1528.6841">-preco</text><text fill="#000000" font-family="sans-serif" font-size="13.75" lengthAdjust="spacing" textLength="105" x="1617.5" y="1545.979">-pesoEncomenda</text><text fill="#000000" font-family="sans-serif" font-size="13.75" lengthAdjust="spacing" textLength="31.25" x="1617.5" y="1563.2739">-taxa</text><!--MD5=[533e824b6b94274ee39bf5a43d7cce2a]
class EstadoEncomenda--><rect codeLine="20" fill="#FEFECE" filter="url(#f14f79lbfm1og9)" height="101.8848" id="EstadoEncomenda" style="stroke:#A80036;stroke-width:1.875;" width="172.5" x="1883.75" y="1477.9456"/><ellipse cx="1902.5" cy="1497.9456" fill="#ADD1B2" rx="13.75" ry="13.75" style="stroke:#A80036;stroke-width:1.25;"/><path d="M1905,1493.5706 Q1905.2539,1492.9456 1905.5469,1492.6331 Q1905.8398,1492.3206 1906.1719,1492.3206 Q1906.7578,1492.3206 1907.1289,1492.6721 Q1907.5,1493.0237 1907.5,1493.844 L1907.5,1495.7971 Q1907.5,1496.6174 1907.1484,1496.969 Q1906.7969,1497.3206 1906.25,1497.3206 Q1905.7617,1497.3206 1905.4492,1497.1057 Q1905.1367,1496.8909 1905,1496.3245 Q1904.9414,1495.9338 1904.7266,1495.719 Q1904.3359,1495.3088 1903.6328,1495.0745 Q1902.9297,1494.8206 1902.2266,1494.8206 Q1901.3477,1494.8206 1900.6055,1495.1721 Q1899.8828,1495.5237 1899.3164,1496.3049 Q1898.75,1497.0862 1898.75,1498.1604 L1898.75,1499.3127 Q1898.75,1500.6018 1899.8047,1501.4612 Q1900.8594,1502.3206 1902.7344,1502.3206 Q1903.8477,1502.3206 1904.6289,1502.0667 Q1905.0781,1501.9299 1905.5859,1501.4807 Q1905.918,1501.2268 1906.0938,1501.1487 Q1906.2695,1501.0706 1906.4844,1501.0706 Q1906.8945,1501.0706 1907.1875,1501.4026 Q1907.5,1501.7151 1907.5,1502.1643 Q1907.5,1502.594 1907.0703,1503.1018 Q1906.4453,1503.844 1905.4492,1504.2542 Q1904.1406,1504.8206 1902.5391,1504.8206 Q1900.6641,1504.8206 1899.1602,1504.0784 Q1897.9492,1503.4924 1897.0898,1502.2229 Q1896.25,1500.9534 1896.25,1499.4495 L1896.25,1498.0823 Q1896.25,1496.5198 1896.9922,1495.1526 Q1897.7539,1493.7854 1899.0625,1493.0627 Q1900.3906,1492.3206 1901.875,1492.3206 Q1902.7734,1492.3206 1903.5547,1492.6331 Q1904.3359,1492.9456 1905,1493.5706 Z " fill="#000000"/><text fill="#000000" font-family="sans-serif" font-size="15" lengthAdjust="spacing" textLength="132.5" x="1920" y="1504.0833">EstadoEncomenda</text><line style="stroke:#A80036;stroke-width:1.875;" x1="1885" x2="2055" y1="1517.9456" y2="1517.9456"/><text fill="#000000" font-family="sans-serif" font-size="13.75" lengthAdjust="spacing" textLength="126.25" x="1891.25" y="1537.2192">-idEstadoEncomenda</text><text fill="#000000" font-family="sans-serif" font-size="13.75" lengthAdjust="spacing" textLength="75" x="1891.25" y="1554.5142">-designacao</text><text fill="#000000" font-family="sans-serif" font-size="13.75" lengthAdjust="spacing" textLength="46.25" x="1891.25" y="1571.8091">-estado</text><!--MD5=[d4dacc50d49878ba7c621dfc80a2e1ce]
class Produto--><rect codeLine="26" fill="#FEFECE" filter="url(#f14f79lbfm1og9)" height="119.1797" id="Produto" style="stroke:#A80036;stroke-width:1.875;" width="93.75" x="1923.125" y="243.5706"/><ellipse cx="1941.875" cy="263.5706" fill="#ADD1B2" rx="13.75" ry="13.75" style="stroke:#A80036;stroke-width:1.25;"/><path d="M1944.375,259.1956 Q1944.6289,258.5706 1944.9219,258.2581 Q1945.2148,257.9456 1945.5469,257.9456 Q1946.1328,257.9456 1946.5039,258.2971 Q1946.875,258.6487 1946.875,259.469 L1946.875,261.4221 Q1946.875,262.2424 1946.5234,262.594 Q1946.1719,262.9456 1945.625,262.9456 Q1945.1367,262.9456 1944.8242,262.7307 Q1944.5117,262.5159 1944.375,261.9495 Q1944.3164,261.5588 1944.1016,261.344 Q1943.7109,260.9338 1943.0078,260.6995 Q1942.3047,260.4456 1941.6016,260.4456 Q1940.7227,260.4456 1939.9805,260.7971 Q1939.2578,261.1487 1938.6914,261.9299 Q1938.125,262.7112 1938.125,263.7854 L1938.125,264.9377 Q1938.125,266.2268 1939.1797,267.0862 Q1940.2344,267.9456 1942.1094,267.9456 Q1943.2227,267.9456 1944.0039,267.6917 Q1944.4531,267.5549 1944.9609,267.1057 Q1945.293,266.8518 1945.4688,266.7737 Q1945.6445,266.6956 1945.8594,266.6956 Q1946.2695,266.6956 1946.5625,267.0276 Q1946.875,267.3401 1946.875,267.7893 Q1946.875,268.219 1946.4453,268.7268 Q1945.8203,269.469 1944.8242,269.8792 Q1943.5156,270.4456 1941.9141,270.4456 Q1940.0391,270.4456 1938.5352,269.7034 Q1937.3242,269.1174 1936.4648,267.8479 Q1935.625,266.5784 1935.625,265.0745 L1935.625,263.7073 Q1935.625,262.1448 1936.3672,260.7776 Q1937.1289,259.4104 1938.4375,258.6877 Q1939.7656,257.9456 1941.25,257.9456 Q1942.1484,257.9456 1942.9297,258.2581 Q1943.7109,258.5706 1944.375,259.1956 Z " fill="#000000"/><text fill="#000000" font-family="sans-serif" font-size="15" lengthAdjust="spacing" textLength="53.75" x="1959.375" y="269.7083">Produto</text><line style="stroke:#A80036;stroke-width:1.875;" x1="1924.375" x2="2015.625" y1="283.5706" y2="283.5706"/><text fill="#000000" font-family="sans-serif" font-size="13.75" lengthAdjust="spacing" textLength="61.25" x="1930.625" y="302.8442">-idProduto</text><text fill="#000000" font-family="sans-serif" font-size="13.75" lengthAdjust="spacing" textLength="75" x="1930.625" y="320.1392">-designacao</text><text fill="#000000" font-family="sans-serif" font-size="13.75" lengthAdjust="spacing" textLength="35" x="1930.625" y="337.4341">-peso</text><text fill="#000000" font-family="sans-serif" font-size="13.75" lengthAdjust="spacing" textLength="71.25" x="1930.625" y="354.729">-precoBase</text><!--MD5=[6613c9cd406ef433ff06f5e98b28abd9]
class Farmacia--><rect codeLine="33" fill="#FEFECE" filter="url(#f14f79lbfm1og9)" height="84.5898" id="Farmacia" style="stroke:#A80036;stroke-width:1.875;" width="105" x="8.75" y="914.1956"/><ellipse cx="27.5" cy="934.1956" fill="#ADD1B2" rx="13.75" ry="13.75" style="stroke:#A80036;stroke-width:1.25;"/><path d="M30,929.8206 Q30.2539,929.1956 30.5469,928.8831 Q30.8398,928.5706 31.1719,928.5706 Q31.7578,928.5706 32.1289,928.9221 Q32.5,929.2737 32.5,930.094 L32.5,932.0471 Q32.5,932.8674 32.1484,933.219 Q31.7969,933.5706 31.25,933.5706 Q30.7617,933.5706 30.4492,933.3557 Q30.1367,933.1409 30,932.5745 Q29.9414,932.1838 29.7266,931.969 Q29.3359,931.5588 28.6328,931.3245 Q27.9297,931.0706 27.2266,931.0706 Q26.3477,931.0706 25.6055,931.4221 Q24.8828,931.7737 24.3164,932.5549 Q23.75,933.3362 23.75,934.4104 L23.75,935.5627 Q23.75,936.8518 24.8047,937.7112 Q25.8594,938.5706 27.7344,938.5706 Q28.8477,938.5706 29.6289,938.3167 Q30.0781,938.1799 30.5859,937.7307 Q30.918,937.4768 31.0938,937.3987 Q31.2695,937.3206 31.4844,937.3206 Q31.8945,937.3206 32.1875,937.6526 Q32.5,937.9651 32.5,938.4143 Q32.5,938.844 32.0703,939.3518 Q31.4453,940.094 30.4492,940.5042 Q29.1406,941.0706 27.5391,941.0706 Q25.6641,941.0706 24.1602,940.3284 Q22.9492,939.7424 22.0898,938.4729 Q21.25,937.2034 21.25,935.6995 L21.25,934.3323 Q21.25,932.7698 21.9922,931.4026 Q22.7539,930.0354 24.0625,929.3127 Q25.3906,928.5706 26.875,928.5706 Q27.7734,928.5706 28.5547,928.8831 Q29.3359,929.1956 30,929.8206 Z " fill="#000000"/><text fill="#000000" font-family="sans-serif" font-size="15" lengthAdjust="spacing" textLength="65" x="45" y="940.3333">Farmacia</text><line style="stroke:#A80036;stroke-width:1.875;" x1="10" x2="112.5" y1="954.1956" y2="954.1956"/><text fill="#000000" font-family="sans-serif" font-size="13.75" lengthAdjust="spacing" textLength="23.75" x="16.25" y="973.4692">-NIF</text><text fill="#000000" font-family="sans-serif" font-size="13.75" lengthAdjust="spacing" textLength="35" x="16.25" y="990.7642">-email</text><!--MD5=[01c6d29ab1d1d1270bcd189edce73511]
class Recibo--><rect codeLine="38" fill="#FEFECE" filter="url(#f14f79lbfm1og9)" height="101.8848" id="Recibo" style="stroke:#A80036;stroke-width:1.875;" width="88.75" x="1925.625" y="1636.6956"/><ellipse cx="1944.375" cy="1656.6956" fill="#ADD1B2" rx="13.75" ry="13.75" style="stroke:#A80036;stroke-width:1.25;"/><path d="M1946.875,1652.3206 Q1947.1289,1651.6956 1947.4219,1651.3831 Q1947.7148,1651.0706 1948.0469,1651.0706 Q1948.6328,1651.0706 1949.0039,1651.4221 Q1949.375,1651.7737 1949.375,1652.594 L1949.375,1654.5471 Q1949.375,1655.3674 1949.0234,1655.719 Q1948.6719,1656.0706 1948.125,1656.0706 Q1947.6367,1656.0706 1947.3242,1655.8557 Q1947.0117,1655.6409 1946.875,1655.0745 Q1946.8164,1654.6838 1946.6016,1654.469 Q1946.2109,1654.0588 1945.5078,1653.8245 Q1944.8047,1653.5706 1944.1016,1653.5706 Q1943.2227,1653.5706 1942.4805,1653.9221 Q1941.7578,1654.2737 1941.1914,1655.0549 Q1940.625,1655.8362 1940.625,1656.9104 L1940.625,1658.0627 Q1940.625,1659.3518 1941.6797,1660.2112 Q1942.7344,1661.0706 1944.6094,1661.0706 Q1945.7227,1661.0706 1946.5039,1660.8167 Q1946.9531,1660.6799 1947.4609,1660.2307 Q1947.793,1659.9768 1947.9688,1659.8987 Q1948.1445,1659.8206 1948.3594,1659.8206 Q1948.7695,1659.8206 1949.0625,1660.1526 Q1949.375,1660.4651 1949.375,1660.9143 Q1949.375,1661.344 1948.9453,1661.8518 Q1948.3203,1662.594 1947.3242,1663.0042 Q1946.0156,1663.5706 1944.4141,1663.5706 Q1942.5391,1663.5706 1941.0352,1662.8284 Q1939.8242,1662.2424 1938.9648,1660.9729 Q1938.125,1659.7034 1938.125,1658.1995 L1938.125,1656.8323 Q1938.125,1655.2698 1938.8672,1653.9026 Q1939.6289,1652.5354 1940.9375,1651.8127 Q1942.2656,1651.0706 1943.75,1651.0706 Q1944.6484,1651.0706 1945.4297,1651.3831 Q1946.2109,1651.6956 1946.875,1652.3206 Z " fill="#000000"/><text fill="#000000" font-family="sans-serif" font-size="15" lengthAdjust="spacing" textLength="48.75" x="1961.875" y="1662.8333">Recibo</text><line style="stroke:#A80036;stroke-width:1.875;" x1="1926.875" x2="2013.125" y1="1676.6956" y2="1676.6956"/><text fill="#000000" font-family="sans-serif" font-size="13.75" lengthAdjust="spacing" textLength="56.25" x="1933.125" y="1695.9692">-idRecibo</text><text fill="#000000" font-family="sans-serif" font-size="13.75" lengthAdjust="spacing" textLength="72.5" x="1933.125" y="1713.2642">-dataRecibo</text><text fill="#000000" font-family="sans-serif" font-size="13.75" lengthAdjust="spacing" textLength="40" x="1933.125" y="1730.5591">-preco</text><!--MD5=[d6f7ff8a01a1f4d455865514bc16ec87]
class Estacionamento--><rect codeLine="44" fill="#FEFECE" filter="url(#f14f79lbfm1og9)" height="84.5898" id="Estacionamento" style="stroke:#A80036;stroke-width:1.875;" width="152.5" x="1300" y="1205.4456"/><ellipse cx="1318.75" cy="1225.4456" fill="#ADD1B2" rx="13.75" ry="13.75" style="stroke:#A80036;stroke-width:1.25;"/><path d="M1321.25,1221.0706 Q1321.5039,1220.4456 1321.7969,1220.1331 Q1322.0898,1219.8206 1322.4219,1219.8206 Q1323.0078,1219.8206 1323.3789,1220.1721 Q1323.75,1220.5237 1323.75,1221.344 L1323.75,1223.2971 Q1323.75,1224.1174 1323.3984,1224.469 Q1323.0469,1224.8206 1322.5,1224.8206 Q1322.0117,1224.8206 1321.6992,1224.6057 Q1321.3867,1224.3909 1321.25,1223.8245 Q1321.1914,1223.4338 1320.9766,1223.219 Q1320.5859,1222.8088 1319.8828,1222.5745 Q1319.1797,1222.3206 1318.4766,1222.3206 Q1317.5977,1222.3206 1316.8555,1222.6721 Q1316.1328,1223.0237 1315.5664,1223.8049 Q1315,1224.5862 1315,1225.6604 L1315,1226.8127 Q1315,1228.1018 1316.0547,1228.9612 Q1317.1094,1229.8206 1318.9844,1229.8206 Q1320.0977,1229.8206 1320.8789,1229.5667 Q1321.3281,1229.4299 1321.8359,1228.9807 Q1322.168,1228.7268 1322.3438,1228.6487 Q1322.5195,1228.5706 1322.7344,1228.5706 Q1323.1445,1228.5706 1323.4375,1228.9026 Q1323.75,1229.2151 1323.75,1229.6643 Q1323.75,1230.094 1323.3203,1230.6018 Q1322.6953,1231.344 1321.6992,1231.7542 Q1320.3906,1232.3206 1318.7891,1232.3206 Q1316.9141,1232.3206 1315.4102,1231.5784 Q1314.1992,1230.9924 1313.3398,1229.7229 Q1312.5,1228.4534 1312.5,1226.9495 L1312.5,1225.5823 Q1312.5,1224.0198 1313.2422,1222.6526 Q1314.0039,1221.2854 1315.3125,1220.5627 Q1316.6406,1219.8206 1318.125,1219.8206 Q1319.0234,1219.8206 1319.8047,1220.1331 Q1320.5859,1220.4456 1321.25,1221.0706 Z " fill="#000000"/><text fill="#000000" font-family="sans-serif" font-size="15" lengthAdjust="spacing" textLength="112.5" x="1336.25" y="1231.5833">Estacionamento</text><line style="stroke:#A80036;stroke-width:1.875;" x1="1301.25" x2="1451.25" y1="1245.4456" y2="1245.4456"/><text fill="#000000" font-family="sans-serif" font-size="13.75" lengthAdjust="spacing" textLength="76.25" x="1307.5" y="1264.7192">-numeroLote</text><text fill="#000000" font-family="sans-serif" font-size="13.75" lengthAdjust="spacing" textLength="72.5" x="1307.5" y="1282.0142">-carregador</text><!--MD5=[3f1202280bfe3359d2f91fb9b6e32986]
class Estafeta--><rect codeLine="49" fill="#FEFECE" filter="url(#f14f79lbfm1og9)" height="67.2949" id="Estafeta" style="stroke:#A80036;stroke-width:1.875;" width="100" x="738.125" y="736.6956"/><ellipse cx="758.5625" cy="756.6956" fill="#ADD1B2" rx="13.75" ry="13.75" style="stroke:#A80036;stroke-width:1.25;"/><path d="M761.0625,752.3206 Q761.3164,751.6956 761.6094,751.3831 Q761.9023,751.0706 762.2344,751.0706 Q762.8203,751.0706 763.1914,751.4221 Q763.5625,751.7737 763.5625,752.594 L763.5625,754.5471 Q763.5625,755.3674 763.2109,755.719 Q762.8594,756.0706 762.3125,756.0706 Q761.8242,756.0706 761.5117,755.8557 Q761.1992,755.6409 761.0625,755.0745 Q761.0039,754.6838 760.7891,754.469 Q760.3984,754.0588 759.6953,753.8245 Q758.9922,753.5706 758.2891,753.5706 Q757.4102,753.5706 756.668,753.9221 Q755.9453,754.2737 755.3789,755.0549 Q754.8125,755.8362 754.8125,756.9104 L754.8125,758.0627 Q754.8125,759.3518 755.8672,760.2112 Q756.9219,761.0706 758.7969,761.0706 Q759.9102,761.0706 760.6914,760.8167 Q761.1406,760.6799 761.6484,760.2307 Q761.9805,759.9768 762.1563,759.8987 Q762.332,759.8206 762.5469,759.8206 Q762.957,759.8206 763.25,760.1526 Q763.5625,760.4651 763.5625,760.9143 Q763.5625,761.344 763.1328,761.8518 Q762.5078,762.594 761.5117,763.0042 Q760.2031,763.5706 758.6016,763.5706 Q756.7266,763.5706 755.2227,762.8284 Q754.0117,762.2424 753.1523,760.9729 Q752.3125,759.7034 752.3125,758.1995 L752.3125,756.8323 Q752.3125,755.2698 753.0547,753.9026 Q753.8164,752.5354 755.125,751.8127 Q756.4531,751.0706 757.9375,751.0706 Q758.8359,751.0706 759.6172,751.3831 Q760.3984,751.6956 761.0625,752.3206 Z " fill="#000000"/><text fill="#000000" font-family="sans-serif" font-size="15" lengthAdjust="spacing" textLength="56.25" x="776.4375" y="762.8333">Estafeta</text><line style="stroke:#A80036;stroke-width:1.875;" x1="739.375" x2="836.875" y1="776.6956" y2="776.6956"/><text fill="#000000" font-family="sans-serif" font-size="13.75" lengthAdjust="spacing" textLength="85" x="745.625" y="795.9692">-pesoEstafeta</text><!--MD5=[5dd1d6732c071e710b9290b531f2fa3b]
class Utilizador--><rect codeLine="53" fill="#FEFECE" filter="url(#f14f79lbfm1og9)" height="136.4746" id="Utilizador" style="stroke:#A80036;stroke-width:1.875;" width="167.5" x="1292.5" y="826.0706"/><ellipse cx="1339.9375" cy="846.0706" fill="#ADD1B2" rx="13.75" ry="13.75" style="stroke:#A80036;stroke-width:1.25;"/><path d="M1342.4375,841.6956 Q1342.6914,841.0706 1342.9844,840.7581 Q1343.2773,840.4456 1343.6094,840.4456 Q1344.1953,840.4456 1344.5664,840.7971 Q1344.9375,841.1487 1344.9375,841.969 L1344.9375,843.9221 Q1344.9375,844.7424 1344.5859,845.094 Q1344.2344,845.4456 1343.6875,845.4456 Q1343.1992,845.4456 1342.8867,845.2307 Q1342.5742,845.0159 1342.4375,844.4495 Q1342.3789,844.0588 1342.1641,843.844 Q1341.7734,843.4338 1341.0703,843.1995 Q1340.3672,842.9456 1339.6641,842.9456 Q1338.7852,842.9456 1338.043,843.2971 Q1337.3203,843.6487 1336.7539,844.4299 Q1336.1875,845.2112 1336.1875,846.2854 L1336.1875,847.4377 Q1336.1875,848.7268 1337.2422,849.5862 Q1338.2969,850.4456 1340.1719,850.4456 Q1341.2852,850.4456 1342.0664,850.1917 Q1342.5156,850.0549 1343.0234,849.6057 Q1343.3555,849.3518 1343.5313,849.2737 Q1343.707,849.1956 1343.9219,849.1956 Q1344.332,849.1956 1344.625,849.5276 Q1344.9375,849.8401 1344.9375,850.2893 Q1344.9375,850.719 1344.5078,851.2268 Q1343.8828,851.969 1342.8867,852.3792 Q1341.5781,852.9456 1339.9766,852.9456 Q1338.1016,852.9456 1336.5977,852.2034 Q1335.3867,851.6174 1334.5273,850.3479 Q1333.6875,849.0784 1333.6875,847.5745 L1333.6875,846.2073 Q1333.6875,844.6448 1334.4297,843.2776 Q1335.1914,841.9104 1336.5,841.1877 Q1337.8281,840.4456 1339.3125,840.4456 Q1340.2109,840.4456 1340.9922,840.7581 Q1341.7734,841.0706 1342.4375,841.6956 Z " fill="#000000"/><text fill="#000000" font-family="sans-serif" font-size="15" lengthAdjust="spacing" textLength="63.75" x="1363.8125" y="852.2083">Utilizador</text><line style="stroke:#A80036;stroke-width:1.875;" x1="1293.75" x2="1458.75" y1="866.0706" y2="866.0706"/><text fill="#000000" font-family="sans-serif" font-size="13.75" lengthAdjust="spacing" textLength="23.75" x="1300" y="885.3442">-NIF</text><text fill="#000000" font-family="sans-serif" font-size="13.75" lengthAdjust="spacing" textLength="37.5" x="1300" y="902.6392">-nome</text><text fill="#000000" font-family="sans-serif" font-size="13.75" lengthAdjust="spacing" textLength="35" x="1300" y="919.9341">-email</text><text fill="#000000" font-family="sans-serif" font-size="13.75" lengthAdjust="spacing" textLength="152.5" x="1300" y="937.229">-numeroSegurancaSocial</text><text fill="#000000" font-family="sans-serif" font-size="13.75" lengthAdjust="spacing" textLength="67.5" x="1300" y="954.5239">-password</text><!--MD5=[fdcda49d453d44c676d62f3f6af62207]
class Administrador--><rect codeLine="61" fill="#FEFECE" filter="url(#f14f79lbfm1og9)" height="50" id="Administrador" style="stroke:#A80036;stroke-width:1.875;" width="136.25" x="281.25" y="862.9456"/><ellipse cx="300" cy="882.9456" fill="#ADD1B2" rx="13.75" ry="13.75" style="stroke:#A80036;stroke-width:1.25;"/><path d="M302.5,878.5706 Q302.7539,877.9456 303.0469,877.6331 Q303.3398,877.3206 303.6719,877.3206 Q304.2578,877.3206 304.6289,877.6721 Q305,878.0237 305,878.844 L305,880.7971 Q305,881.6174 304.6484,881.969 Q304.2969,882.3206 303.75,882.3206 Q303.2617,882.3206 302.9492,882.1057 Q302.6367,881.8909 302.5,881.3245 Q302.4414,880.9338 302.2266,880.719 Q301.8359,880.3088 301.1328,880.0745 Q300.4297,879.8206 299.7266,879.8206 Q298.8477,879.8206 298.1055,880.1721 Q297.3828,880.5237 296.8164,881.3049 Q296.25,882.0862 296.25,883.1604 L296.25,884.3127 Q296.25,885.6018 297.3047,886.4612 Q298.3594,887.3206 300.2344,887.3206 Q301.3477,887.3206 302.1289,887.0667 Q302.5781,886.9299 303.0859,886.4807 Q303.418,886.2268 303.5938,886.1487 Q303.7695,886.0706 303.9844,886.0706 Q304.3945,886.0706 304.6875,886.4026 Q305,886.7151 305,887.1643 Q305,887.594 304.5703,888.1018 Q303.9453,888.844 302.9492,889.2542 Q301.6406,889.8206 300.0391,889.8206 Q298.1641,889.8206 296.6602,889.0784 Q295.4492,888.4924 294.5898,887.2229 Q293.75,885.9534 293.75,884.4495 L293.75,883.0823 Q293.75,881.5198 294.4922,880.1526 Q295.2539,878.7854 296.5625,878.0627 Q297.8906,877.3206 299.375,877.3206 Q300.2734,877.3206 301.0547,877.6331 Q301.8359,877.9456 302.5,878.5706 Z " fill="#000000"/><text fill="#000000" font-family="sans-serif" font-size="15" lengthAdjust="spacing" textLength="96.25" x="317.5" y="889.0833">Administrador</text><line style="stroke:#A80036;stroke-width:1.875;" x1="282.5" x2="416.25" y1="902.9456" y2="902.9456"/><!--MD5=[36c1942e8942a3e4f47e6de3733e3d18]
class Endereco--><rect codeLine="65" fill="#FEFECE" filter="url(#f14f79lbfm1og9)" height="119.1797" id="Endereco" style="stroke:#A80036;stroke-width:1.875;" width="106.25" x="1323.125" y="1768.5706"/><ellipse cx="1341.875" cy="1788.5706" fill="#ADD1B2" rx="13.75" ry="13.75" style="stroke:#A80036;stroke-width:1.25;"/><path d="M1344.375,1784.1956 Q1344.6289,1783.5706 1344.9219,1783.2581 Q1345.2148,1782.9456 1345.5469,1782.9456 Q1346.1328,1782.9456 1346.5039,1783.2971 Q1346.875,1783.6487 1346.875,1784.469 L1346.875,1786.4221 Q1346.875,1787.2424 1346.5234,1787.594 Q1346.1719,1787.9456 1345.625,1787.9456 Q1345.1367,1787.9456 1344.8242,1787.7307 Q1344.5117,1787.5159 1344.375,1786.9495 Q1344.3164,1786.5588 1344.1016,1786.344 Q1343.7109,1785.9338 1343.0078,1785.6995 Q1342.3047,1785.4456 1341.6016,1785.4456 Q1340.7227,1785.4456 1339.9805,1785.7971 Q1339.2578,1786.1487 1338.6914,1786.9299 Q1338.125,1787.7112 1338.125,1788.7854 L1338.125,1789.9377 Q1338.125,1791.2268 1339.1797,1792.0862 Q1340.2344,1792.9456 1342.1094,1792.9456 Q1343.2227,1792.9456 1344.0039,1792.6917 Q1344.4531,1792.5549 1344.9609,1792.1057 Q1345.293,1791.8518 1345.4688,1791.7737 Q1345.6445,1791.6956 1345.8594,1791.6956 Q1346.2695,1791.6956 1346.5625,1792.0276 Q1346.875,1792.3401 1346.875,1792.7893 Q1346.875,1793.219 1346.4453,1793.7268 Q1345.8203,1794.469 1344.8242,1794.8792 Q1343.5156,1795.4456 1341.9141,1795.4456 Q1340.0391,1795.4456 1338.5352,1794.7034 Q1337.3242,1794.1174 1336.4648,1792.8479 Q1335.625,1791.5784 1335.625,1790.0745 L1335.625,1788.7073 Q1335.625,1787.1448 1336.3672,1785.7776 Q1337.1289,1784.4104 1338.4375,1783.6877 Q1339.7656,1782.9456 1341.25,1782.9456 Q1342.1484,1782.9456 1342.9297,1783.2581 Q1343.7109,1783.5706 1344.375,1784.1956 Z " fill="#000000"/><text fill="#000000" font-family="sans-serif" font-size="15" lengthAdjust="spacing" textLength="66.25" x="1359.375" y="1794.7083">Endereco</text><line style="stroke:#A80036;stroke-width:1.875;" x1="1324.375" x2="1428.125" y1="1808.5706" y2="1808.5706"/><text fill="#000000" font-family="sans-serif" font-size="13.75" lengthAdjust="spacing" textLength="50" x="1330.625" y="1827.8442">-morada</text><text fill="#000000" font-family="sans-serif" font-size="13.75" lengthAdjust="spacing" textLength="47.5" x="1330.625" y="1845.1392">-latitude</text><text fill="#000000" font-family="sans-serif" font-size="13.75" lengthAdjust="spacing" textLength="58.75" x="1330.625" y="1862.4341">-longitude</text><text fill="#000000" font-family="sans-serif" font-size="13.75" lengthAdjust="spacing" textLength="47.5" x="1330.625" y="1879.729">-altitude</text><!--MD5=[f4402668d5d5bb8485350c0fdb60ac8e]
class Scooter--><rect codeLine="72" fill="#FEFECE" filter="url(#f14f79lbfm1og9)" height="67.2949" id="Scooter" style="stroke:#A80036;stroke-width:1.875;" width="92.5" x="1923.75" y="875.4456"/><ellipse cx="1942.5" cy="895.4456" fill="#ADD1B2" rx="13.75" ry="13.75" style="stroke:#A80036;stroke-width:1.25;"/><path d="M1945,891.0706 Q1945.2539,890.4456 1945.5469,890.1331 Q1945.8398,889.8206 1946.1719,889.8206 Q1946.7578,889.8206 1947.1289,890.1721 Q1947.5,890.5237 1947.5,891.344 L1947.5,893.2971 Q1947.5,894.1174 1947.1484,894.469 Q1946.7969,894.8206 1946.25,894.8206 Q1945.7617,894.8206 1945.4492,894.6057 Q1945.1367,894.3909 1945,893.8245 Q1944.9414,893.4338 1944.7266,893.219 Q1944.3359,892.8088 1943.6328,892.5745 Q1942.9297,892.3206 1942.2266,892.3206 Q1941.3477,892.3206 1940.6055,892.6721 Q1939.8828,893.0237 1939.3164,893.8049 Q1938.75,894.5862 1938.75,895.6604 L1938.75,896.8127 Q1938.75,898.1018 1939.8047,898.9612 Q1940.8594,899.8206 1942.7344,899.8206 Q1943.8477,899.8206 1944.6289,899.5667 Q1945.0781,899.4299 1945.5859,898.9807 Q1945.918,898.7268 1946.0938,898.6487 Q1946.2695,898.5706 1946.4844,898.5706 Q1946.8945,898.5706 1947.1875,898.9026 Q1947.5,899.2151 1947.5,899.6643 Q1947.5,900.094 1947.0703,900.6018 Q1946.4453,901.344 1945.4492,901.7542 Q1944.1406,902.3206 1942.5391,902.3206 Q1940.6641,902.3206 1939.1602,901.5784 Q1937.9492,900.9924 1937.0898,899.7229 Q1936.25,898.4534 1936.25,896.9495 L1936.25,895.5823 Q1936.25,894.0198 1936.9922,892.6526 Q1937.7539,891.2854 1939.0625,890.5627 Q1940.3906,889.8206 1941.875,889.8206 Q1942.7734,889.8206 1943.5547,890.1331 Q1944.3359,890.4456 1945,891.0706 Z " fill="#000000"/><text fill="#000000" font-family="sans-serif" font-size="15" lengthAdjust="spacing" textLength="52.5" x="1960" y="901.5833">Scooter</text><line style="stroke:#A80036;stroke-width:1.875;" x1="1925" x2="2015" y1="915.4456" y2="915.4456"/><text fill="#000000" font-family="sans-serif" font-size="13.75" lengthAdjust="spacing" textLength="62.5" x="1931.25" y="934.7192">-idScooter</text><!--MD5=[8505c5852735283b5a8424161266bb9f]
class Veiculo--><rect codeLine="76" fill="#FEFECE" filter="url(#f14f79lbfm1og9)" height="188.3594" id="Veiculo" style="stroke:#A80036;stroke-width:1.875;" width="141.25" x="1601.25" y="934.8206"/><ellipse cx="1643.0625" cy="954.8206" fill="#ADD1B2" rx="13.75" ry="13.75" style="stroke:#A80036;stroke-width:1.25;"/><path d="M1645.5625,950.4456 Q1645.8164,949.8206 1646.1094,949.5081 Q1646.4023,949.1956 1646.7344,949.1956 Q1647.3203,949.1956 1647.6914,949.5471 Q1648.0625,949.8987 1648.0625,950.719 L1648.0625,952.6721 Q1648.0625,953.4924 1647.7109,953.844 Q1647.3594,954.1956 1646.8125,954.1956 Q1646.3242,954.1956 1646.0117,953.9807 Q1645.6992,953.7659 1645.5625,953.1995 Q1645.5039,952.8088 1645.2891,952.594 Q1644.8984,952.1838 1644.1953,951.9495 Q1643.4922,951.6956 1642.7891,951.6956 Q1641.9102,951.6956 1641.168,952.0471 Q1640.4453,952.3987 1639.8789,953.1799 Q1639.3125,953.9612 1639.3125,955.0354 L1639.3125,956.1877 Q1639.3125,957.4768 1640.3672,958.3362 Q1641.4219,959.1956 1643.2969,959.1956 Q1644.4102,959.1956 1645.1914,958.9417 Q1645.6406,958.8049 1646.1484,958.3557 Q1646.4805,958.1018 1646.6563,958.0237 Q1646.832,957.9456 1647.0469,957.9456 Q1647.457,957.9456 1647.75,958.2776 Q1648.0625,958.5901 1648.0625,959.0393 Q1648.0625,959.469 1647.6328,959.9768 Q1647.0078,960.719 1646.0117,961.1292 Q1644.7031,961.6956 1643.1016,961.6956 Q1641.2266,961.6956 1639.7227,960.9534 Q1638.5117,960.3674 1637.6523,959.0979 Q1636.8125,957.8284 1636.8125,956.3245 L1636.8125,954.9573 Q1636.8125,953.3948 1637.5547,952.0276 Q1638.3164,950.6604 1639.625,949.9377 Q1640.9531,949.1956 1642.4375,949.1956 Q1643.3359,949.1956 1644.1172,949.5081 Q1644.8984,949.8206 1645.5625,950.4456 Z " fill="#000000"/><text fill="#000000" font-family="sans-serif" font-size="15" lengthAdjust="spacing" textLength="50" x="1665.6875" y="960.9583">Veiculo</text><line style="stroke:#A80036;stroke-width:1.875;" x1="1602.5" x2="1741.25" y1="974.8206" y2="974.8206"/><text fill="#000000" font-family="sans-serif" font-size="13.75" lengthAdjust="spacing" textLength="57.5" x="1608.75" y="994.0942">-idveiculo</text><text fill="#000000" font-family="sans-serif" font-size="13.75" lengthAdjust="spacing" textLength="65" x="1608.75" y="1011.3892">-descricao</text><text fill="#000000" font-family="sans-serif" font-size="13.75" lengthAdjust="spacing" textLength="75" x="1608.75" y="1028.6841">-capacidade</text><text fill="#000000" font-family="sans-serif" font-size="13.75" lengthAdjust="spacing" textLength="126.25" x="1608.75" y="1045.979">-percentagemBateria</text><text fill="#000000" font-family="sans-serif" font-size="13.75" lengthAdjust="spacing" textLength="80" x="1608.75" y="1063.2739">-pesoMaximo</text><text fill="#000000" font-family="sans-serif" font-size="13.75" lengthAdjust="spacing" textLength="80" x="1608.75" y="1080.5688">-pesoVeiculo</text><text fill="#000000" font-family="sans-serif" font-size="13.75" lengthAdjust="spacing" textLength="56.25" x="1608.75" y="1097.8638">-potencia</text><text fill="#000000" font-family="sans-serif" font-size="13.75" lengthAdjust="spacing" textLength="73.75" x="1608.75" y="1115.1587">-areaFrontal</text><!--MD5=[2e3f1e60e74253ff42e47f8bfdb04ee2]
class Drone--><rect codeLine="87" fill="#FEFECE" filter="url(#f14f79lbfm1og9)" height="84.5898" id="Drone" style="stroke:#A80036;stroke-width:1.875;" width="95" x="1922.5" y="986.6956"/><ellipse cx="1946.875" cy="1006.6956" fill="#ADD1B2" rx="13.75" ry="13.75" style="stroke:#A80036;stroke-width:1.25;"/><path d="M1949.375,1002.3206 Q1949.6289,1001.6956 1949.9219,1001.3831 Q1950.2148,1001.0706 1950.5469,1001.0706 Q1951.1328,1001.0706 1951.5039,1001.4221 Q1951.875,1001.7737 1951.875,1002.594 L1951.875,1004.5471 Q1951.875,1005.3674 1951.5234,1005.719 Q1951.1719,1006.0706 1950.625,1006.0706 Q1950.1367,1006.0706 1949.8242,1005.8557 Q1949.5117,1005.6409 1949.375,1005.0745 Q1949.3164,1004.6838 1949.1016,1004.469 Q1948.7109,1004.0588 1948.0078,1003.8245 Q1947.3047,1003.5706 1946.6016,1003.5706 Q1945.7227,1003.5706 1944.9805,1003.9221 Q1944.2578,1004.2737 1943.6914,1005.0549 Q1943.125,1005.8362 1943.125,1006.9104 L1943.125,1008.0627 Q1943.125,1009.3518 1944.1797,1010.2112 Q1945.2344,1011.0706 1947.1094,1011.0706 Q1948.2227,1011.0706 1949.0039,1010.8167 Q1949.4531,1010.6799 1949.9609,1010.2307 Q1950.293,1009.9768 1950.4688,1009.8987 Q1950.6445,1009.8206 1950.8594,1009.8206 Q1951.2695,1009.8206 1951.5625,1010.1526 Q1951.875,1010.4651 1951.875,1010.9143 Q1951.875,1011.344 1951.4453,1011.8518 Q1950.8203,1012.594 1949.8242,1013.0042 Q1948.5156,1013.5706 1946.9141,1013.5706 Q1945.0391,1013.5706 1943.5352,1012.8284 Q1942.3242,1012.2424 1941.4648,1010.9729 Q1940.625,1009.7034 1940.625,1008.1995 L1940.625,1006.8323 Q1940.625,1005.2698 1941.3672,1003.9026 Q1942.1289,1002.5354 1943.4375,1001.8127 Q1944.7656,1001.0706 1946.25,1001.0706 Q1947.1484,1001.0706 1947.9297,1001.3831 Q1948.7109,1001.6956 1949.375,1002.3206 Z " fill="#000000"/><text fill="#000000" font-family="sans-serif" font-size="15" lengthAdjust="spacing" textLength="42.5" x="1965.625" y="1012.8333">Drone</text><line style="stroke:#A80036;stroke-width:1.875;" x1="1923.75" x2="2016.25" y1="1026.6956" y2="1026.6956"/><text fill="#000000" font-family="sans-serif" font-size="13.75" lengthAdjust="spacing" textLength="51.25" x="1930" y="1045.9692">-idDrone</text><text fill="#000000" font-family="sans-serif" font-size="13.75" lengthAdjust="spacing" textLength="80" x="1930" y="1063.2642">-hoverpower</text><!--MD5=[1a083dbe42a284ae0ea7f6f701783206]
class Parque--><rect codeLine="93" fill="#FEFECE" filter="url(#f14f79lbfm1og9)" height="119.1797" id="Parque" style="stroke:#A80036;stroke-width:1.875;" width="110" x="733.125" y="1117.3206"/><ellipse cx="760.875" cy="1137.3206" fill="#ADD1B2" rx="13.75" ry="13.75" style="stroke:#A80036;stroke-width:1.25;"/><path d="M763.375,1132.9456 Q763.6289,1132.3206 763.9219,1132.0081 Q764.2148,1131.6956 764.5469,1131.6956 Q765.1328,1131.6956 765.5039,1132.0471 Q765.875,1132.3987 765.875,1133.219 L765.875,1135.1721 Q765.875,1135.9924 765.5234,1136.344 Q765.1719,1136.6956 764.625,1136.6956 Q764.1367,1136.6956 763.8242,1136.4807 Q763.5117,1136.2659 763.375,1135.6995 Q763.3164,1135.3088 763.1016,1135.094 Q762.7109,1134.6838 762.0078,1134.4495 Q761.3047,1134.1956 760.6016,1134.1956 Q759.7227,1134.1956 758.9805,1134.5471 Q758.2578,1134.8987 757.6914,1135.6799 Q757.125,1136.4612 757.125,1137.5354 L757.125,1138.6877 Q757.125,1139.9768 758.1797,1140.8362 Q759.2344,1141.6956 761.1094,1141.6956 Q762.2227,1141.6956 763.0039,1141.4417 Q763.4531,1141.3049 763.9609,1140.8557 Q764.293,1140.6018 764.4688,1140.5237 Q764.6445,1140.4456 764.8594,1140.4456 Q765.2695,1140.4456 765.5625,1140.7776 Q765.875,1141.0901 765.875,1141.5393 Q765.875,1141.969 765.4453,1142.4768 Q764.8203,1143.219 763.8242,1143.6292 Q762.5156,1144.1956 760.9141,1144.1956 Q759.0391,1144.1956 757.5352,1143.4534 Q756.3242,1142.8674 755.4648,1141.5979 Q754.625,1140.3284 754.625,1138.8245 L754.625,1137.4573 Q754.625,1135.8948 755.3672,1134.5276 Q756.1289,1133.1604 757.4375,1132.4377 Q758.7656,1131.6956 760.25,1131.6956 Q761.1484,1131.6956 761.9297,1132.0081 Q762.7109,1132.3206 763.375,1132.9456 Z " fill="#000000"/><text fill="#000000" font-family="sans-serif" font-size="15" lengthAdjust="spacing" textLength="50" x="780.375" y="1143.4583">Parque</text><line style="stroke:#A80036;stroke-width:1.875;" x1="734.375" x2="841.875" y1="1157.3206" y2="1157.3206"/><text fill="#000000" font-family="sans-serif" font-size="13.75" lengthAdjust="spacing" textLength="57.5" x="740.625" y="1176.5942">-idParque</text><text fill="#000000" font-family="sans-serif" font-size="13.75" lengthAdjust="spacing" textLength="95" x="740.625" y="1193.8892">-numeroMaximo</text><text fill="#000000" font-family="sans-serif" font-size="13.75" lengthAdjust="spacing" textLength="26.25" x="740.625" y="1211.1841">-tipo</text><text fill="#000000" font-family="sans-serif" font-size="13.75" lengthAdjust="spacing" textLength="53.75" x="740.625" y="1228.479">-maxCap</text><!--MD5=[20a748d5ee336a9a91751b0a3d4f0beb]
class Cliente--><rect codeLine="100" fill="#FEFECE" filter="url(#f14f79lbfm1og9)" height="67.2949" id="Cliente" style="stroke:#A80036;stroke-width:1.875;" width="88.75" x="743.75" y="1469.1956"/><ellipse cx="762.5" cy="1489.1956" fill="#ADD1B2" rx="13.75" ry="13.75" style="stroke:#A80036;stroke-width:1.25;"/><path d="M765,1484.8206 Q765.2539,1484.1956 765.5469,1483.8831 Q765.8398,1483.5706 766.1719,1483.5706 Q766.7578,1483.5706 767.1289,1483.9221 Q767.5,1484.2737 767.5,1485.094 L767.5,1487.0471 Q767.5,1487.8674 767.1484,1488.219 Q766.7969,1488.5706 766.25,1488.5706 Q765.7617,1488.5706 765.4492,1488.3557 Q765.1367,1488.1409 765,1487.5745 Q764.9414,1487.1838 764.7266,1486.969 Q764.3359,1486.5588 763.6328,1486.3245 Q762.9297,1486.0706 762.2266,1486.0706 Q761.3477,1486.0706 760.6055,1486.4221 Q759.8828,1486.7737 759.3164,1487.5549 Q758.75,1488.3362 758.75,1489.4104 L758.75,1490.5627 Q758.75,1491.8518 759.8047,1492.7112 Q760.8594,1493.5706 762.7344,1493.5706 Q763.8477,1493.5706 764.6289,1493.3167 Q765.0781,1493.1799 765.5859,1492.7307 Q765.918,1492.4768 766.0938,1492.3987 Q766.2695,1492.3206 766.4844,1492.3206 Q766.8945,1492.3206 767.1875,1492.6526 Q767.5,1492.9651 767.5,1493.4143 Q767.5,1493.844 767.0703,1494.3518 Q766.4453,1495.094 765.4492,1495.5042 Q764.1406,1496.0706 762.5391,1496.0706 Q760.6641,1496.0706 759.1602,1495.3284 Q757.9492,1494.7424 757.0898,1493.4729 Q756.25,1492.2034 756.25,1490.6995 L756.25,1489.3323 Q756.25,1487.7698 756.9922,1486.4026 Q757.7539,1485.0354 759.0625,1484.3127 Q760.3906,1483.5706 761.875,1483.5706 Q762.7734,1483.5706 763.5547,1483.8831 Q764.3359,1484.1956 765,1484.8206 Z " fill="#000000"/><text fill="#000000" font-family="sans-serif" font-size="15" lengthAdjust="spacing" textLength="48.75" x="780" y="1495.3333">Cliente</text><line style="stroke:#A80036;stroke-width:1.875;" x1="745" x2="831.25" y1="1509.1956" y2="1509.1956"/><text fill="#000000" font-family="sans-serif" font-size="13.75" lengthAdjust="spacing" textLength="53.75" x="751.25" y="1528.4692">-creditos</text><!--MD5=[a13ca1da61a66d544daddca6fa0a1a30]
class Cartao--><rect codeLine="104" fill="#FEFECE" filter="url(#f14f79lbfm1og9)" height="101.8848" id="Cartao" style="stroke:#A80036;stroke-width:1.875;" width="147.5" x="1302.5" y="1334.1956"/><ellipse cx="1348.8125" cy="1354.1956" fill="#ADD1B2" rx="13.75" ry="13.75" style="stroke:#A80036;stroke-width:1.25;"/><path d="M1351.3125,1349.8206 Q1351.5664,1349.1956 1351.8594,1348.8831 Q1352.1523,1348.5706 1352.4844,1348.5706 Q1353.0703,1348.5706 1353.4414,1348.9221 Q1353.8125,1349.2737 1353.8125,1350.094 L1353.8125,1352.0471 Q1353.8125,1352.8674 1353.4609,1353.219 Q1353.1094,1353.5706 1352.5625,1353.5706 Q1352.0742,1353.5706 1351.7617,1353.3557 Q1351.4492,1353.1409 1351.3125,1352.5745 Q1351.2539,1352.1838 1351.0391,1351.969 Q1350.6484,1351.5588 1349.9453,1351.3245 Q1349.2422,1351.0706 1348.5391,1351.0706 Q1347.6602,1351.0706 1346.918,1351.4221 Q1346.1953,1351.7737 1345.6289,1352.5549 Q1345.0625,1353.3362 1345.0625,1354.4104 L1345.0625,1355.5627 Q1345.0625,1356.8518 1346.1172,1357.7112 Q1347.1719,1358.5706 1349.0469,1358.5706 Q1350.1602,1358.5706 1350.9414,1358.3167 Q1351.3906,1358.1799 1351.8984,1357.7307 Q1352.2305,1357.4768 1352.4063,1357.3987 Q1352.582,1357.3206 1352.7969,1357.3206 Q1353.207,1357.3206 1353.5,1357.6526 Q1353.8125,1357.9651 1353.8125,1358.4143 Q1353.8125,1358.844 1353.3828,1359.3518 Q1352.7578,1360.094 1351.7617,1360.5042 Q1350.4531,1361.0706 1348.8516,1361.0706 Q1346.9766,1361.0706 1345.4727,1360.3284 Q1344.2617,1359.7424 1343.4023,1358.4729 Q1342.5625,1357.2034 1342.5625,1355.6995 L1342.5625,1354.3323 Q1342.5625,1352.7698 1343.3047,1351.4026 Q1344.0664,1350.0354 1345.375,1349.3127 Q1346.7031,1348.5706 1348.1875,1348.5706 Q1349.0859,1348.5706 1349.8672,1348.8831 Q1350.6484,1349.1956 1351.3125,1349.8206 Z " fill="#000000"/><text fill="#000000" font-family="sans-serif" font-size="15" lengthAdjust="spacing" textLength="46.25" x="1372.4375" y="1360.3333">Cartao</text><line style="stroke:#A80036;stroke-width:1.875;" x1="1303.75" x2="1448.75" y1="1374.1956" y2="1374.1956"/><text fill="#000000" font-family="sans-serif" font-size="13.75" lengthAdjust="spacing" textLength="132.5" x="1310" y="1393.4692">-numeroCartaoCredito</text><text fill="#000000" font-family="sans-serif" font-size="13.75" lengthAdjust="spacing" textLength="100" x="1310" y="1410.7642">-dataDeValidade</text><text fill="#000000" font-family="sans-serif" font-size="13.75" lengthAdjust="spacing" textLength="32.5" x="1310" y="1428.0591">-CCV</text><!--MD5=[ac303f713d9f979882ac64afbf326271]
class TransferenciaProduto--><rect codeLine="110" fill="#FEFECE" filter="url(#f14f79lbfm1og9)" height="84.5898" id="TransferenciaProduto" style="stroke:#A80036;stroke-width:1.875;" width="188.75" x="255" y="205.4456"/><ellipse cx="273.75" cy="225.4456" fill="#ADD1B2" rx="13.75" ry="13.75" style="stroke:#A80036;stroke-width:1.25;"/><path d="M276.25,221.0706 Q276.5039,220.4456 276.7969,220.1331 Q277.0898,219.8206 277.4219,219.8206 Q278.0078,219.8206 278.3789,220.1721 Q278.75,220.5237 278.75,221.344 L278.75,223.2971 Q278.75,224.1174 278.3984,224.469 Q278.0469,224.8206 277.5,224.8206 Q277.0117,224.8206 276.6992,224.6057 Q276.3867,224.3909 276.25,223.8245 Q276.1914,223.4338 275.9766,223.219 Q275.5859,222.8088 274.8828,222.5745 Q274.1797,222.3206 273.4766,222.3206 Q272.5977,222.3206 271.8555,222.6721 Q271.1328,223.0237 270.5664,223.8049 Q270,224.5862 270,225.6604 L270,226.8127 Q270,228.1018 271.0547,228.9612 Q272.1094,229.8206 273.9844,229.8206 Q275.0977,229.8206 275.8789,229.5667 Q276.3281,229.4299 276.8359,228.9807 Q277.168,228.7268 277.3438,228.6487 Q277.5195,228.5706 277.7344,228.5706 Q278.1445,228.5706 278.4375,228.9026 Q278.75,229.2151 278.75,229.6643 Q278.75,230.094 278.3203,230.6018 Q277.6953,231.344 276.6992,231.7542 Q275.3906,232.3206 273.7891,232.3206 Q271.9141,232.3206 270.4102,231.5784 Q269.1992,230.9924 268.3398,229.7229 Q267.5,228.4534 267.5,226.9495 L267.5,225.5823 Q267.5,224.0198 268.2422,222.6526 Q269.0039,221.2854 270.3125,220.5627 Q271.6406,219.8206 273.125,219.8206 Q274.0234,219.8206 274.8047,220.1331 Q275.5859,220.4456 276.25,221.0706 Z " fill="#000000"/><text fill="#000000" font-family="sans-serif" font-size="15" lengthAdjust="spacing" textLength="148.75" x="291.25" y="231.5833">TransferenciaProduto</text><line style="stroke:#A80036;stroke-width:1.875;" x1="256.25" x2="442.5" y1="245.4456" y2="245.4456"/><text fill="#000000" font-family="sans-serif" font-size="13.75" lengthAdjust="spacing" textLength="100" x="262.5" y="264.7192">-idTransferencia</text><text fill="#000000" font-family="sans-serif" font-size="13.75" lengthAdjust="spacing" textLength="71.25" x="262.5" y="282.0142">-quantidade</text><!--MD5=[1ba30c488416121cd0b4d64686b21549]
class EstadoTransferencia--><rect codeLine="115" fill="#FEFECE" filter="url(#f14f79lbfm1og9)" height="84.5898" id="EstadoTransferencia" style="stroke:#A80036;stroke-width:1.875;" width="183.75" x="696.25" y="96.6956"/><ellipse cx="715" cy="116.6956" fill="#ADD1B2" rx="13.75" ry="13.75" style="stroke:#A80036;stroke-width:1.25;"/><path d="M717.5,112.3206 Q717.7539,111.6956 718.0469,111.3831 Q718.3398,111.0706 718.6719,111.0706 Q719.2578,111.0706 719.6289,111.4221 Q720,111.7737 720,112.594 L720,114.5471 Q720,115.3674 719.6484,115.719 Q719.2969,116.0706 718.75,116.0706 Q718.2617,116.0706 717.9492,115.8557 Q717.6367,115.6409 717.5,115.0745 Q717.4414,114.6838 717.2266,114.469 Q716.8359,114.0588 716.1328,113.8245 Q715.4297,113.5706 714.7266,113.5706 Q713.8477,113.5706 713.1055,113.9221 Q712.3828,114.2737 711.8164,115.0549 Q711.25,115.8362 711.25,116.9104 L711.25,118.0627 Q711.25,119.3518 712.3047,120.2112 Q713.3594,121.0706 715.2344,121.0706 Q716.3477,121.0706 717.1289,120.8167 Q717.5781,120.6799 718.0859,120.2307 Q718.418,119.9768 718.5938,119.8987 Q718.7695,119.8206 718.9844,119.8206 Q719.3945,119.8206 719.6875,120.1526 Q720,120.4651 720,120.9143 Q720,121.344 719.5703,121.8518 Q718.9453,122.594 717.9492,123.0042 Q716.6406,123.5706 715.0391,123.5706 Q713.1641,123.5706 711.6602,122.8284 Q710.4492,122.2424 709.5898,120.9729 Q708.75,119.7034 708.75,118.1995 L708.75,116.8323 Q708.75,115.2698 709.4922,113.9026 Q710.2539,112.5354 711.5625,111.8127 Q712.8906,111.0706 714.375,111.0706 Q715.2734,111.0706 716.0547,111.3831 Q716.8359,111.6956 717.5,112.3206 Z " fill="#000000"/><text fill="#000000" font-family="sans-serif" font-size="15" lengthAdjust="spacing" textLength="143.75" x="732.5" y="122.8333">EstadoTransferencia</text><line style="stroke:#A80036;stroke-width:1.875;" x1="697.5" x2="878.75" y1="136.6956" y2="136.6956"/><text fill="#000000" font-family="sans-serif" font-size="13.75" lengthAdjust="spacing" textLength="15" x="703.75" y="155.9692">-id</text><text fill="#000000" font-family="sans-serif" font-size="13.75" lengthAdjust="spacing" textLength="75" x="703.75" y="173.2642">-designacao</text><!--MD5=[a656e5e079c9813af42e0e9dd198231c]
class EstadoVeiculo--><rect codeLine="120" fill="#FEFECE" filter="url(#f14f79lbfm1og9)" height="84.5898" id="EstadoVeiculo" style="stroke:#A80036;stroke-width:1.875;" width="138.75" x="1900.625" y="1115.4456"/><ellipse cx="1919.375" cy="1135.4456" fill="#ADD1B2" rx="13.75" ry="13.75" style="stroke:#A80036;stroke-width:1.25;"/><path d="M1921.875,1131.0706 Q1922.1289,1130.4456 1922.4219,1130.1331 Q1922.7148,1129.8206 1923.0469,1129.8206 Q1923.6328,1129.8206 1924.0039,1130.1721 Q1924.375,1130.5237 1924.375,1131.344 L1924.375,1133.2971 Q1924.375,1134.1174 1924.0234,1134.469 Q1923.6719,1134.8206 1923.125,1134.8206 Q1922.6367,1134.8206 1922.3242,1134.6057 Q1922.0117,1134.3909 1921.875,1133.8245 Q1921.8164,1133.4338 1921.6016,1133.219 Q1921.2109,1132.8088 1920.5078,1132.5745 Q1919.8047,1132.3206 1919.1016,1132.3206 Q1918.2227,1132.3206 1917.4805,1132.6721 Q1916.7578,1133.0237 1916.1914,1133.8049 Q1915.625,1134.5862 1915.625,1135.6604 L1915.625,1136.8127 Q1915.625,1138.1018 1916.6797,1138.9612 Q1917.7344,1139.8206 1919.6094,1139.8206 Q1920.7227,1139.8206 1921.5039,1139.5667 Q1921.9531,1139.4299 1922.4609,1138.9807 Q1922.793,1138.7268 1922.9688,1138.6487 Q1923.1445,1138.5706 1923.3594,1138.5706 Q1923.7695,1138.5706 1924.0625,1138.9026 Q1924.375,1139.2151 1924.375,1139.6643 Q1924.375,1140.094 1923.9453,1140.6018 Q1923.3203,1141.344 1922.3242,1141.7542 Q1921.0156,1142.3206 1919.4141,1142.3206 Q1917.5391,1142.3206 1916.0352,1141.5784 Q1914.8242,1140.9924 1913.9648,1139.7229 Q1913.125,1138.4534 1913.125,1136.9495 L1913.125,1135.5823 Q1913.125,1134.0198 1913.8672,1132.6526 Q1914.6289,1131.2854 1915.9375,1130.5627 Q1917.2656,1129.8206 1918.75,1129.8206 Q1919.6484,1129.8206 1920.4297,1130.1331 Q1921.2109,1130.4456 1921.875,1131.0706 Z " fill="#000000"/><text fill="#000000" font-family="sans-serif" font-size="15" lengthAdjust="spacing" textLength="98.75" x="1936.875" y="1141.5833">EstadoVeiculo</text><line style="stroke:#A80036;stroke-width:1.875;" x1="1901.875" x2="2038.125" y1="1155.4456" y2="1155.4456"/><text fill="#000000" font-family="sans-serif" font-size="13.75" lengthAdjust="spacing" textLength="101.25" x="1908.125" y="1174.7192">-idEstadoVeiculo</text><text fill="#000000" font-family="sans-serif" font-size="13.75" lengthAdjust="spacing" textLength="75" x="1908.125" y="1192.0142">-designacao</text><!--MD5=[b1b5bcb3873f5e6d986aef558b6021e9]
class EstadoEstafeta--><rect codeLine="125" fill="#FEFECE" filter="url(#f14f79lbfm1og9)" height="84.5898" id="EstadoEstafeta" style="stroke:#A80036;stroke-width:1.875;" width="145" x="1303.75" y="534.1956"/><ellipse cx="1322.5" cy="554.1956" fill="#ADD1B2" rx="13.75" ry="13.75" style="stroke:#A80036;stroke-width:1.25;"/><path d="M1325,549.8206 Q1325.2539,549.1956 1325.5469,548.8831 Q1325.8398,548.5706 1326.1719,548.5706 Q1326.7578,548.5706 1327.1289,548.9221 Q1327.5,549.2737 1327.5,550.094 L1327.5,552.0471 Q1327.5,552.8674 1327.1484,553.219 Q1326.7969,553.5706 1326.25,553.5706 Q1325.7617,553.5706 1325.4492,553.3557 Q1325.1367,553.1409 1325,552.5745 Q1324.9414,552.1838 1324.7266,551.969 Q1324.3359,551.5588 1323.6328,551.3245 Q1322.9297,551.0706 1322.2266,551.0706 Q1321.3477,551.0706 1320.6055,551.4221 Q1319.8828,551.7737 1319.3164,552.5549 Q1318.75,553.3362 1318.75,554.4104 L1318.75,555.5627 Q1318.75,556.8518 1319.8047,557.7112 Q1320.8594,558.5706 1322.7344,558.5706 Q1323.8477,558.5706 1324.6289,558.3167 Q1325.0781,558.1799 1325.5859,557.7307 Q1325.918,557.4768 1326.0938,557.3987 Q1326.2695,557.3206 1326.4844,557.3206 Q1326.8945,557.3206 1327.1875,557.6526 Q1327.5,557.9651 1327.5,558.4143 Q1327.5,558.844 1327.0703,559.3518 Q1326.4453,560.094 1325.4492,560.5042 Q1324.1406,561.0706 1322.5391,561.0706 Q1320.6641,561.0706 1319.1602,560.3284 Q1317.9492,559.7424 1317.0898,558.4729 Q1316.25,557.2034 1316.25,555.6995 L1316.25,554.3323 Q1316.25,552.7698 1316.9922,551.4026 Q1317.7539,550.0354 1319.0625,549.3127 Q1320.3906,548.5706 1321.875,548.5706 Q1322.7734,548.5706 1323.5547,548.8831 Q1324.3359,549.1956 1325,549.8206 Z " fill="#000000"/><text fill="#000000" font-family="sans-serif" font-size="15" lengthAdjust="spacing" textLength="105" x="1340" y="560.3333">EstadoEstafeta</text><line style="stroke:#A80036;stroke-width:1.875;" x1="1305" x2="1447.5" y1="574.1956" y2="574.1956"/><text fill="#000000" font-family="sans-serif" font-size="13.75" lengthAdjust="spacing" textLength="15" x="1311.25" y="593.4692">-id</text><text fill="#000000" font-family="sans-serif" font-size="13.75" lengthAdjust="spacing" textLength="75" x="1311.25" y="610.7642">-designacao</text><!--MD5=[1753751c87c25f689804f2380ef6b009]
class Pagamento--><rect codeLine="130" fill="#FEFECE" filter="url(#f14f79lbfm1og9)" height="84.5898" id="Pagamento" style="stroke:#A80036;stroke-width:1.875;" width="120" x="1910" y="1349.1956"/><ellipse cx="1928.75" cy="1369.1956" fill="#ADD1B2" rx="13.75" ry="13.75" style="stroke:#A80036;stroke-width:1.25;"/><path d="M1931.25,1364.8206 Q1931.5039,1364.1956 1931.7969,1363.8831 Q1932.0898,1363.5706 1932.4219,1363.5706 Q1933.0078,1363.5706 1933.3789,1363.9221 Q1933.75,1364.2737 1933.75,1365.094 L1933.75,1367.0471 Q1933.75,1367.8674 1933.3984,1368.219 Q1933.0469,1368.5706 1932.5,1368.5706 Q1932.0117,1368.5706 1931.6992,1368.3557 Q1931.3867,1368.1409 1931.25,1367.5745 Q1931.1914,1367.1838 1930.9766,1366.969 Q1930.5859,1366.5588 1929.8828,1366.3245 Q1929.1797,1366.0706 1928.4766,1366.0706 Q1927.5977,1366.0706 1926.8555,1366.4221 Q1926.1328,1366.7737 1925.5664,1367.5549 Q1925,1368.3362 1925,1369.4104 L1925,1370.5627 Q1925,1371.8518 1926.0547,1372.7112 Q1927.1094,1373.5706 1928.9844,1373.5706 Q1930.0977,1373.5706 1930.8789,1373.3167 Q1931.3281,1373.1799 1931.8359,1372.7307 Q1932.168,1372.4768 1932.3438,1372.3987 Q1932.5195,1372.3206 1932.7344,1372.3206 Q1933.1445,1372.3206 1933.4375,1372.6526 Q1933.75,1372.9651 1933.75,1373.4143 Q1933.75,1373.844 1933.3203,1374.3518 Q1932.6953,1375.094 1931.6992,1375.5042 Q1930.3906,1376.0706 1928.7891,1376.0706 Q1926.9141,1376.0706 1925.4102,1375.3284 Q1924.1992,1374.7424 1923.3398,1373.4729 Q1922.5,1372.2034 1922.5,1370.6995 L1922.5,1369.3323 Q1922.5,1367.7698 1923.2422,1366.4026 Q1924.0039,1365.0354 1925.3125,1364.3127 Q1926.6406,1363.5706 1928.125,1363.5706 Q1929.0234,1363.5706 1929.8047,1363.8831 Q1930.5859,1364.1956 1931.25,1364.8206 Z " fill="#000000"/><text fill="#000000" font-family="sans-serif" font-size="15" lengthAdjust="spacing" textLength="80" x="1946.25" y="1375.3333">Pagamento</text><line style="stroke:#A80036;stroke-width:1.875;" x1="1911.25" x2="2028.75" y1="1389.1956" y2="1389.1956"/><text fill="#000000" font-family="sans-serif" font-size="13.75" lengthAdjust="spacing" textLength="81.25" x="1917.5" y="1408.4692">-idPagamento</text><text fill="#000000" font-family="sans-serif" font-size="13.75" lengthAdjust="spacing" textLength="68.75" x="1917.5" y="1425.7642">-precoTotal</text><!--MD5=[5158eea2981105b1eea807b659f3ae64]
class Caminho--><rect codeLine="135" fill="#FEFECE" filter="url(#f14f79lbfm1og9)" height="101.8848" id="Caminho" style="stroke:#A80036;stroke-width:1.875;" width="180" x="698.125" y="1706.6956"/><ellipse cx="751.1875" cy="1726.6956" fill="#ADD1B2" rx="13.75" ry="13.75" style="stroke:#A80036;stroke-width:1.25;"/><path d="M753.6875,1722.3206 Q753.9414,1721.6956 754.2344,1721.3831 Q754.5273,1721.0706 754.8594,1721.0706 Q755.4453,1721.0706 755.8164,1721.4221 Q756.1875,1721.7737 756.1875,1722.594 L756.1875,1724.5471 Q756.1875,1725.3674 755.8359,1725.719 Q755.4844,1726.0706 754.9375,1726.0706 Q754.4492,1726.0706 754.1367,1725.8557 Q753.8242,1725.6409 753.6875,1725.0745 Q753.6289,1724.6838 753.4141,1724.469 Q753.0234,1724.0588 752.3203,1723.8245 Q751.6172,1723.5706 750.9141,1723.5706 Q750.0352,1723.5706 749.293,1723.9221 Q748.5703,1724.2737 748.0039,1725.0549 Q747.4375,1725.8362 747.4375,1726.9104 L747.4375,1728.0627 Q747.4375,1729.3518 748.4922,1730.2112 Q749.5469,1731.0706 751.4219,1731.0706 Q752.5352,1731.0706 753.3164,1730.8167 Q753.7656,1730.6799 754.2734,1730.2307 Q754.6055,1729.9768 754.7813,1729.8987 Q754.957,1729.8206 755.1719,1729.8206 Q755.582,1729.8206 755.875,1730.1526 Q756.1875,1730.4651 756.1875,1730.9143 Q756.1875,1731.344 755.7578,1731.8518 Q755.1328,1732.594 754.1367,1733.0042 Q752.8281,1733.5706 751.2266,1733.5706 Q749.3516,1733.5706 747.8477,1732.8284 Q746.6367,1732.2424 745.7773,1730.9729 Q744.9375,1729.7034 744.9375,1728.1995 L744.9375,1726.8323 Q744.9375,1725.2698 745.6797,1723.9026 Q746.4414,1722.5354 747.75,1721.8127 Q749.0781,1721.0706 750.5625,1721.0706 Q751.4609,1721.0706 752.2422,1721.3831 Q753.0234,1721.6956 753.6875,1722.3206 Z " fill="#000000"/><text fill="#000000" font-family="sans-serif" font-size="15" lengthAdjust="spacing" textLength="63.75" x="776.3125" y="1732.8333">Caminho</text><line style="stroke:#A80036;stroke-width:1.875;" x1="699.375" x2="876.875" y1="1746.6956" y2="1746.6956"/><text fill="#000000" font-family="sans-serif" font-size="13.75" lengthAdjust="spacing" textLength="165" x="705.625" y="1765.9692">-roadResistanceCoefficient</text><text fill="#000000" font-family="sans-serif" font-size="13.75" lengthAdjust="spacing" textLength="106.25" x="705.625" y="1783.2642">-velocidadeVento</text><text fill="#000000" font-family="sans-serif" font-size="13.75" lengthAdjust="spacing" textLength="86.25" x="705.625" y="1800.5591">-direcaoVento</text><!--MD5=[055d9a59c94791d1e5417ead9eff8d01]
link Encomenda to EstadoEncomenda--><path codeLine="141" d="M1734.025,1508.3581 C1777.125,1512.1831 1835.5125,1517.3706 1883.275,1521.6081 " fill="none" id="Encomenda-EstadoEncomenda" style="stroke:#A80036;stroke-width:1.25;"/><polygon fill="#000000" points="1802.4755,1502.468,1791.5383,1497.8089,1790.8886,1505.1274,1802.4755,1502.468" style="stroke:#000000;stroke-width:1.25;"/><text fill="#000000" font-family="sans-serif" font-size="16.25" lengthAdjust="spacing" textLength="27.5" x="1807.5" y="1508.5645">tem</text><text fill="#000000" font-family="sans-serif" font-size="16.25" lengthAdjust="spacing" textLength="8.75" x="1743.7959" y="1527.5064">1</text><text fill="#000000" font-family="sans-serif" font-size="16.25" lengthAdjust="spacing" textLength="8.75" x="1865.1303" y="1538.7801">1</text><!--MD5=[39609d66ce6d06d1779a14455c909f6f]
link Entrega to Encomenda--><path codeLine="142" d="M1424.625,761.0206 C1437.6625,773.5831 1450.7625,788.4081 1460,804.1956 C1492,858.8581 1479.825,880.8706 1497.5,941.6956 C1549.35,1120.1581 1615.1125,1328.9706 1648.7125,1434.4706 " fill="none" id="Entrega-Encomenda" style="stroke:#A80036;stroke-width:1.25;"/><polygon fill="#000000" points="1505.7233,936.5956,1505.6393,924.7077,1498.6678,927.0274,1505.7233,936.5956" style="stroke:#000000;stroke-width:1.25;"/><text fill="#000000" font-family="sans-serif" font-size="16.25" lengthAdjust="spacing" textLength="47.5" x="1515" y="937.3145">possui</text><text fill="#000000" font-family="sans-serif" font-size="16.25" lengthAdjust="spacing" textLength="8.75" x="1434.3508" y="786.7542">1</text><text fill="#000000" font-family="sans-serif" font-size="16.25" lengthAdjust="spacing" textLength="6.25" x="1639.0944" y="1421.2986">*</text><!--MD5=[328dae9b2f192140d45e51cd90ecd75a]
link Estafeta to Entrega--><path codeLine="143" d="M838.3,766.4831 C949.225,757.4831 1218.65,735.6331 1327.85,726.7706 " fill="none" id="Estafeta-Entrega" style="stroke:#A80036;stroke-width:1.25;"/><polygon fill="#000000" points="1065.6045,722.6599,1054.0382,719.9125,1054.6322,727.2357,1065.6045,722.6599" style="stroke:#000000;stroke-width:1.25;"/><text fill="#000000" font-family="sans-serif" font-size="16.25" lengthAdjust="spacing" textLength="47.5" x="1070.625" y="729.8145">realiza</text><text fill="#000000" font-family="sans-serif" font-size="16.25" lengthAdjust="spacing" textLength="8.75" x="848.0167" y="784.4848">1</text><text fill="#000000" font-family="sans-serif" font-size="16.25" lengthAdjust="spacing" textLength="6.25" x="1311.778" y="746.2758">*</text><!--MD5=[b39feb7ad9ed03cb1a05d76e3f369af6]
link Estafeta to EstadoEstafeta--><path codeLine="144" d="M838.625,740.6456 C861.9375,727.4206 890.5375,712.4581 917.5,701.6956 C1049.8,648.9081 1212.225,610.3831 1303.6375,590.9456 " fill="none" id="Estafeta-EstadoEstafeta" style="stroke:#A80036;stroke-width:1.25;"/><polygon fill="#000000" points="1075.3243,590,1063.4362,589.9678,1065.6877,596.9617,1075.3243,590" style="stroke:#000000;stroke-width:1.25;"/><text fill="#000000" font-family="sans-serif" font-size="16.25" lengthAdjust="spacing" textLength="27.5" x="1080.625" y="598.5645">tem</text><text fill="#000000" font-family="sans-serif" font-size="16.25" lengthAdjust="spacing" textLength="8.75" x="848.0566" y="754.1667">1</text><text fill="#000000" font-family="sans-serif" font-size="16.25" lengthAdjust="spacing" textLength="8.75" x="1285.0235" y="610.9759">1</text><!--MD5=[aa5a8ec5fd097e3d415964f18fa48efb]
link Estafeta to Utilizador--><path codeLine="145" d="M838.175,779.1706 C923.175,794.5706 1103.775,828.2706 1255,862.9456 C1267.0625,865.7081 1279.7625,868.8081 1292.2,871.9581 " fill="none" id="Estafeta-Utilizador" style="stroke:#A80036;stroke-width:1.25;"/><polygon fill="#000000" points="1051.1234,785.6667,1040.7816,779.8036,1039.3105,787.0021,1051.1234,785.6667" style="stroke:#000000;stroke-width:1.25;"/><text fill="#000000" font-family="sans-serif" font-size="16.25" lengthAdjust="spacing" textLength="76.25" x="1056.25" y="791.0645">atua como</text><text fill="#000000" font-family="sans-serif" font-size="16.25" lengthAdjust="spacing" textLength="8.75" x="848.2096" y="799.5513">1</text><text fill="#000000" font-family="sans-serif" font-size="16.25" lengthAdjust="spacing" textLength="8.75" x="1273.7785" y="887.5002">1</text><!--MD5=[b4161b205744775e44f73e41ced309e0]
link Administrador to Utilizador--><path codeLine="146" d="M417.8375,888.3581 C598.55,889.4581 1094.525,892.4831 1292.15,893.6956 " fill="none" id="Administrador-Utilizador" style="stroke:#A80036;stroke-width:1.25;"/><polygon fill="#000000" points="753.1249,879.4534,741.8412,875.7108,741.7963,883.058,753.1249,879.4534" style="stroke:#000000;stroke-width:1.25;"/><text fill="#000000" font-family="sans-serif" font-size="16.25" lengthAdjust="spacing" textLength="76.25" x="758.125" y="886.0645">atua como</text><text fill="#000000" font-family="sans-serif" font-size="16.25" lengthAdjust="spacing" textLength="8.75" x="427.625" y="906.6557">1</text><text fill="#000000" font-family="sans-serif" font-size="16.25" lengthAdjust="spacing" textLength="8.75" x="1273.723" y="911.6153">1</text><!--MD5=[4fe240217702a86376bae6ca4f1a3aaa]
link Administrador to Estafeta--><path codeLine="147" d="M417.7375,878.4081 C480.8375,868.4956 577.475,850.8331 658.75,825.4456 C685.55,817.0706 714.375,804.9956 737.875,794.2831 " fill="none" id="Administrador-Estafeta" style="stroke:#A80036;stroke-width:1.25;"/><polygon fill="#000000" points="548.5448,812.8268,536.676,812.1473,538.5433,819.2534,548.5448,812.8268" style="stroke:#000000;stroke-width:1.25;"/><text fill="#000000" font-family="sans-serif" font-size="16.25" lengthAdjust="spacing" textLength="48.75" x="553.75" y="821.0645">regista</text><text fill="#000000" font-family="sans-serif" font-size="16.25" lengthAdjust="spacing" textLength="8.75" x="427.5116" y="895.3686">1</text><text fill="#000000" font-family="sans-serif" font-size="16.25" lengthAdjust="spacing" textLength="6.25" x="721.784" y="817.4502">*</text><!--MD5=[651704aa6f94d771ebfe007ead522536]
link Administrador to Produto--><path codeLine="148" d="M417.725,869.9706 C427.4875,864.9581 436.625,858.5706 443.75,850.4456 C487.6625,800.4206 450.0875,764.2706 481.25,705.4456 C577.5375,523.6956 581.2,357.9456 786.875,357.9456 C786.875,357.9456 786.875,357.9456 1673.125,357.9456 C1762.65,357.9456 1864.9,333.2581 1922.65,316.9706 " fill="none" id="Administrador-Produto" style="stroke:#A80036;stroke-width:1.25;"/><polygon fill="#000000" points="1323.3665,344.7596,1311.4868,345.2111,1314.021,352.1075,1323.3665,344.7596" style="stroke:#000000;stroke-width:1.25;"/><text fill="#000000" font-family="sans-serif" font-size="16.25" lengthAdjust="spacing" textLength="111.25" x="1328.75" y="353.5645">insere no stock</text><text fill="#000000" font-family="sans-serif" font-size="16.25" lengthAdjust="spacing" textLength="8.75" x="427.4974" y="863.1098">1</text><text fill="#000000" font-family="sans-serif" font-size="16.25" lengthAdjust="spacing" textLength="6.25" x="1906.7782" y="338.4201">*</text><!--MD5=[0fc9bb1525e6d91145a84fc7b9214a08]
link Administrador to Veiculo--><path codeLine="149" d="M417.5625,866.8706 C426.8875,862.2956 435.9375,856.8581 443.75,850.4456 C467.325,831.0706 458.5625,813.3456 481.25,792.9456 C649.5375,641.6456 1272.225,385.3831 1460,511.6956 C1600.65,606.3081 1647.425,812.8831 1662.95,934.4831 " fill="none" id="Administrador-Veiculo" style="stroke:#A80036;stroke-width:1.25;"/><polygon fill="#000000" points="929.9908,471.0041,918.9002,466.7229,918.5019,474.0594,929.9908,471.0041" style="stroke:#000000;stroke-width:1.25;"/><text fill="#000000" font-family="sans-serif" font-size="16.25" lengthAdjust="spacing" textLength="318.75" x="935" y="477.3145">adiciona, remove ou atualiza e cria QR code</text><text fill="#000000" font-family="sans-serif" font-size="16.25" lengthAdjust="spacing" textLength="8.75" x="427.5574" y="854.6757">1</text><text fill="#000000" font-family="sans-serif" font-size="16.25" lengthAdjust="spacing" textLength="6.25" x="1655.5515" y="921.4111">*</text><!--MD5=[6ba179a0a54b0b32b52757b8e4d27c6d]
link Administrador to Parque--><path codeLine="150" d="M388.575,913.0706 C466.2125,964.4456 643.3625,1081.7081 732.925,1140.9831 " fill="none" id="Administrador-Parque" style="stroke:#A80036;stroke-width:1.25;"/><polygon fill="#000000" points="492.7118,974.1148,485.3111,964.8111,481.256,970.938,492.7118,974.1148" style="stroke:#000000;stroke-width:1.25;"/><text fill="#000000" font-family="sans-serif" font-size="16.25" lengthAdjust="spacing" textLength="158.75" x="498.75" y="977.3145">define numeroMaximo</text><text fill="#000000" font-family="sans-serif" font-size="16.25" lengthAdjust="spacing" textLength="8.75" x="389.6195" y="939.8802">1</text><text fill="#000000" font-family="sans-serif" font-size="16.25" lengthAdjust="spacing" textLength="8.75" x="714.3079" y="1153.5941">1</text><!--MD5=[43a7c1a046aa41d1c9842e3954366be4]
link Cliente to Endereco--><path codeLine="151" d="M829.9875,1536.7581 C845.7875,1550.1581 863.9125,1565.8206 880,1580.4456 C897.15,1596.0456 897.725,1604.6081 917.5,1616.6956 C1052.725,1699.3081 1116.1,1655.4206 1255,1731.6956 C1278.875,1744.8081 1302.775,1762.7456 1322.8875,1779.5956 " fill="none" id="Cliente-Endereco" style="stroke:#A80036;stroke-width:1.25;"/><polygon fill="#000000" points="1074.9815,1608.4274,1066.4628,1600.1352,1063.2157,1606.7261,1074.9815,1608.4274" style="stroke:#000000;stroke-width:1.25;"/><text fill="#000000" font-family="sans-serif" font-size="16.25" lengthAdjust="spacing" textLength="27.5" x="1080.625" y="1612.3145">tem</text><text fill="#000000" font-family="sans-serif" font-size="16.25" lengthAdjust="spacing" textLength="8.75" x="829.4379" y="1563.2814">1</text><text fill="#000000" font-family="sans-serif" font-size="16.25" lengthAdjust="spacing" textLength="8.75" x="1304.2139" y="1789.8739">1</text><!--MD5=[00a2b7b20e7d7828fa181bc7c0dc6998]
link Cliente to Utilizador--><path codeLine="152" d="M798.4625,1468.9331 C814.85,1412.4831 853.675,1297.9956 917.5,1220.4456 C1023.5,1091.6331 1192.025,989.3456 1292.2375,935.6081 " fill="none" id="Cliente-Utilizador" style="stroke:#A80036;stroke-width:1.25;"/><polygon fill="#000000" points="1049.2461,944.8291,1038.8691,950.6298,1044.2605,955.6214,1049.2461,944.8291" style="stroke:#000000;stroke-width:1.25;"/><text fill="#000000" font-family="sans-serif" font-size="16.25" lengthAdjust="spacing" textLength="76.25" x="1056.25" y="956.0645">atua como</text><text fill="#000000" font-family="sans-serif" font-size="16.25" lengthAdjust="spacing" textLength="8.75" x="791.0913" y="1455.6986">1</text><text fill="#000000" font-family="sans-serif" font-size="16.25" lengthAdjust="spacing" textLength="8.75" x="1273.8201" y="958.1119">1</text><!--MD5=[beec9e5f2ed2709028dd31c1dc478e7b]
link Cliente to Encomenda--><path codeLine="153" d="M833.075,1502.9456 C977.9,1502.9456 1442.4,1502.9456 1609.775,1502.9456 " fill="none" id="Cliente-Encomenda" style="stroke:#A80036;stroke-width:1.25;"/><polygon fill="#000000" points="1328.75,1491.9153,1317.4436,1488.2416,1317.4436,1495.5889,1328.75,1491.9153" style="stroke:#000000;stroke-width:1.25;"/><text fill="#000000" font-family="sans-serif" font-size="16.25" lengthAdjust="spacing" textLength="101.25" x="1333.75" y="1498.5645">realiza e paga</text><text fill="#000000" font-family="sans-serif" font-size="16.25" lengthAdjust="spacing" textLength="8.75" x="842.4776" y="1521.7821">1</text><text fill="#000000" font-family="sans-serif" font-size="16.25" lengthAdjust="spacing" textLength="6.25" x="1593.9451" y="1521.299">*</text><!--MD5=[0b9a64f88a8f68498a0520ea68e94a71]
link Cliente to Cartao--><path codeLine="154" d="M832.5,1491.2706 C857.275,1484.7456 889.0375,1476.6956 917.5,1470.4456 C1052.625,1440.7831 1211.7,1412.7706 1302.2,1397.4706 " fill="none" id="Cliente-Cartao" style="stroke:#A80036;stroke-width:1.25;"/><polygon fill="#000000" points="1065.504,1393.1913,1053.6971,1391.803,1055.136,1399.008,1065.504,1393.1913" style="stroke:#000000;stroke-width:1.25;"/><text fill="#000000" font-family="sans-serif" font-size="16.25" lengthAdjust="spacing" textLength="47.5" x="1070.625" y="1401.0645">possui</text><text fill="#000000" font-family="sans-serif" font-size="16.25" lengthAdjust="spacing" textLength="8.75" x="842.5547" y="1483.7355">1</text><text fill="#000000" font-family="sans-serif" font-size="16.25" lengthAdjust="spacing" textLength="8.75" x="1283.892" y="1417.088">1</text><!--MD5=[1925886c588cf3413441b7f629c00030]
link Cliente to Recibo--><path codeLine="155" d="M832.75,1509.7456 C1017.8875,1538.7956 1740.9125,1652.2081 1925.6,1681.1831 " fill="none" id="Cliente-Recibo" style="stroke:#A80036;stroke-width:1.25;"/><polygon fill="#000000" points="1509.9245,1604.1339,1499.3241,1598.7524,1498.1854,1606.0109,1509.9245,1604.1339" style="stroke:#000000;stroke-width:1.25;"/><text fill="#000000" font-family="sans-serif" font-size="16.25" lengthAdjust="spacing" textLength="47.5" x="1515" y="1609.8145">possui</text><text fill="#000000" font-family="sans-serif" font-size="16.25" lengthAdjust="spacing" textLength="8.75" x="842.3969" y="1506.0479">1</text><text fill="#000000" font-family="sans-serif" font-size="16.25" lengthAdjust="spacing" textLength="6.25" x="1909.548" y="1698.8285">*</text><!--MD5=[14a4d173783bbce950e930df82c583df]
link Encomenda to Pagamento--><path codeLine="156" d="M1734.025,1480.0331 C1785.575,1460.6331 1859,1432.9956 1909.95,1413.8206 " fill="none" id="Encomenda-Pagamento" style="stroke:#A80036;stroke-width:1.25;"/><polygon fill="#000000" points="1802.0994,1427.2137,1790.2237,1427.7582,1792.8117,1434.6346,1802.0994,1427.2137" style="stroke:#000000;stroke-width:1.25;"/><text fill="#000000" font-family="sans-serif" font-size="16.25" lengthAdjust="spacing" textLength="27.5" x="1807.5" y="1436.0645">tem</text><text fill="#000000" font-family="sans-serif" font-size="16.25" lengthAdjust="spacing" textLength="8.75" x="1743.7959" y="1495.0212">1</text><text fill="#000000" font-family="sans-serif" font-size="16.25" lengthAdjust="spacing" textLength="8.75" x="1891.3349" y="1435.6736">1</text><!--MD5=[6c0553761f646c959ef63e0d38e06ec1]
link Encomenda to Recibo--><path codeLine="157" d="M1734.025,1541.0581 C1790.9875,1576.6956 1874.65,1629.0581 1925.1875,1660.6831 " fill="none" id="Encomenda-Recibo" style="stroke:#A80036;stroke-width:1.25;"/><polygon fill="#000000" points="1791.5481,1565.2307,1783.9125,1556.1189,1780.0149,1562.3472,1791.5481,1565.2307" style="stroke:#000000;stroke-width:1.25;"/><text fill="#000000" font-family="sans-serif" font-size="16.25" lengthAdjust="spacing" textLength="47.5" x="1797.5" y="1568.5645">possui</text><text fill="#000000" font-family="sans-serif" font-size="16.25" lengthAdjust="spacing" textLength="8.75" x="1743.7959" y="1565.0093">1</text><text fill="#000000" font-family="sans-serif" font-size="16.25" lengthAdjust="spacing" textLength="8.75" x="1906.7537" y="1674.2572">1</text><!--MD5=[cd2aeefe8c457d184a69396a9f9cb06a]
link Entrega to Veiculo--><path codeLine="158" d="M1424.5125,768.5956 C1436.2,780.1206 1448.6375,792.5331 1460,804.1956 C1507.8125,853.2331 1560.4625,909.4831 1601.175,953.4706 " fill="none" id="Entrega-Veiculo" style="stroke:#A80036;stroke-width:1.25;"/><polygon fill="#000000" points="1499.4321,831.1466,1504.5873,841.8589,1509.8993,836.7829,1499.4321,831.1466" style="stroke:#000000;stroke-width:1.25;"/><text fill="#000000" font-family="sans-serif" font-size="16.25" lengthAdjust="spacing" textLength="47.5" x="1515" y="842.3145">realiza</text><text fill="#000000" font-family="sans-serif" font-size="16.25" lengthAdjust="spacing" textLength="6.25" x="1434.3082" y="772.2612">*</text><text fill="#000000" font-family="sans-serif" font-size="16.25" lengthAdjust="spacing" textLength="8.75" x="1582.3368" y="961.5634">1</text><!--MD5=[460034a14c91c8062cdb3d6e7324968c]
link Veiculo to Drone--><path codeLine="159" d="M1742.8125,1029.1956 C1798.1125,1029.1956 1873.9,1029.1956 1922.1,1029.1956 " fill="none" id="Veiculo-Drone" style="stroke:#A80036;stroke-width:1.25;"/><polygon fill="#000000" points="1799.375,1018.1653,1810.6814,1021.8389,1810.6814,1014.4916,1799.375,1018.1653" style="stroke:#000000;stroke-width:1.25;"/><text fill="#000000" font-family="sans-serif" font-size="16.25" lengthAdjust="spacing" textLength="8.75" x="1816.875" y="1024.8145"></text><text fill="#000000" font-family="sans-serif" font-size="16.25" lengthAdjust="spacing" textLength="8.75" x="1752.4619" y="1047.3989">1</text><text fill="#000000" font-family="sans-serif" font-size="16.25" lengthAdjust="spacing" textLength="8.75" x="1903.7118" y="1047.9865">1</text><!--MD5=[0fa340c3d135fb564aedca6a2c40d6f7]
link Veiculo to Scooter--><path codeLine="160" d="M1742.8125,1000.9081 C1798.625,978.2456 1875.3125,947.1206 1923.4375,927.5956 " fill="none" id="Veiculo-Scooter" style="stroke:#A80036;stroke-width:1.25;"/><polygon fill="#000000" points="1799.8338,954.2658,1811.6918,953.4176,1808.9285,946.6097,1799.8338,954.2658" style="stroke:#000000;stroke-width:1.25;"/><text fill="#000000" font-family="sans-serif" font-size="16.25" lengthAdjust="spacing" textLength="8.75" x="1816.875" y="958.5645"></text><text fill="#000000" font-family="sans-serif" font-size="16.25" lengthAdjust="spacing" textLength="8.75" x="1752.4619" y="1015.487">1</text><text fill="#000000" font-family="sans-serif" font-size="16.25" lengthAdjust="spacing" textLength="8.75" x="1904.9775" y="949.9396">1</text><!--MD5=[4d4d66a582ec4263d33f69aa33f73dd1]
link Veiculo to EstadoVeiculo--><path codeLine="161" d="M1742.8125,1059.5456 C1790.4375,1080.2831 1853.25,1107.6456 1900.55,1128.2456 " fill="none" id="Veiculo-EstadoVeiculo" style="stroke:#A80036;stroke-width:1.25;"/><polygon fill="#000000" points="1790.5199,1065.6696,1799.4188,1073.5524,1802.3527,1066.8162,1790.5199,1065.6696" style="stroke:#000000;stroke-width:1.25;"/><text fill="#000000" font-family="sans-serif" font-size="16.25" lengthAdjust="spacing" textLength="27.5" x="1807.5" y="1074.8145">tem</text><text fill="#000000" font-family="sans-serif" font-size="16.25" lengthAdjust="spacing" textLength="8.75" x="1752.4619" y="1081.6375">1</text><text fill="#000000" font-family="sans-serif" font-size="16.25" lengthAdjust="spacing" textLength="8.75" x="1881.8798" y="1142.5243">1</text><!--MD5=[db4a5ac14aaeb2d946b80db0d46ff947]
link Farmacia to Produto--><path codeLine="162" d="M66.2125,913.8831 C83.1875,731.7081 160.7,30.4456 348.125,30.4456 C348.125,30.4456 348.125,30.4456 1673.125,30.4456 C1797.9,30.4456 1892.55,163.2956 1938.325,243.4831 " fill="none" id="Farmacia-Produto" style="stroke:#A80036;stroke-width:1.25;"/><polygon fill="#000000" points="1075.2591,17.3082,1063.3761,17.6614,1065.8532,24.5785,1075.2591,17.3082" style="stroke:#000000;stroke-width:1.25;"/><text fill="#000000" font-family="sans-serif" font-size="16.25" lengthAdjust="spacing" textLength="27.5" x="1080.625" y="26.0645">tem</text><text fill="#000000" font-family="sans-serif" font-size="16.25" lengthAdjust="spacing" textLength="8.75" x="57.5745" y="900.7655">1</text><text fill="#000000" font-family="sans-serif" font-size="16.25" lengthAdjust="spacing" textLength="6.25" x="1926.9638" y="230.1504">*</text><!--MD5=[60097591193c89dbde5dfd99b98b5263]
link Encomenda to Produto--><path codeLine="163" d="M1712.95,1434.7706 C1753.2,1362.5956 1813.95,1244.1206 1846.25,1134.1956 C1881.8,1013.2081 1865.7875,977.7706 1883.75,852.9456 C1909.45,674.3456 1942.8875,463.6331 1959.1,362.7081 " fill="none" id="Encomenda-Produto" style="stroke:#A80036;stroke-width:1.25;"/><polygon fill="#000000" points="1797.6486,1117.0738,1791.538,1127.2713,1798.699,1128.9155,1797.6486,1117.0738" style="stroke:#000000;stroke-width:1.25;"/><text fill="#000000" font-family="sans-serif" font-size="16.25" lengthAdjust="spacing" textLength="27.5" x="1807.5" y="1129.8145">tem</text><text fill="#000000" font-family="sans-serif" font-size="16.25" lengthAdjust="spacing" textLength="8.75" x="1709.1316" y="1421.1491">1</text><text fill="#000000" font-family="sans-serif" font-size="16.25" lengthAdjust="spacing" textLength="6.25" x="1950.7901" y="389.824">*</text><!--MD5=[5a27d3a82ae5518cc3aa88a6b9414b77]
link Farmacia to Encomenda--><path codeLine="164" d="M61.5875,999.2456 C60.8625,1144.6706 79.425,1612.9456 348.125,1612.9456 C348.125,1612.9456 348.125,1612.9456 1377.5,1612.9456 C1462.025,1612.9456 1552.0125,1572.3581 1609.65,1540.4956 " fill="none" id="Farmacia-Encomenda" style="stroke:#A80036;stroke-width:1.25;"/><polygon fill="#000000" points="777.1498,1603.978,767.6894,1596.7787,765.2645,1603.7143,777.1498,1603.978" style="stroke:#000000;stroke-width:1.25;"/><text fill="#000000" font-family="sans-serif" font-size="16.25" lengthAdjust="spacing" textLength="27.5" x="782.5" y="1608.5645">tem</text><text fill="#000000" font-family="sans-serif" font-size="16.25" lengthAdjust="spacing" textLength="8.75" x="52.1183" y="1025.5506">1</text><text fill="#000000" font-family="sans-serif" font-size="16.25" lengthAdjust="spacing" textLength="6.25" x="1593.8017" y="1564.3641">*</text><!--MD5=[4f96609c99ecadb81dc825d0ae539cef]
link Farmacia to Parque--><path codeLine="165" d="M88.725,999.4956 C104.275,1021.3331 125.8875,1046.4456 151.25,1061.6956 C341.55,1176.1081 617.7125,1182.3331 733.0875,1179.2831 " fill="none" id="Farmacia-Parque" style="stroke:#A80036;stroke-width:1.25;"/><polygon fill="#000000" points="328.5201,1102.345,318.617,1095.7679,316.6424,1102.8449,328.5201,1102.345" style="stroke:#000000;stroke-width:1.25;"/><text fill="#000000" font-family="sans-serif" font-size="16.25" lengthAdjust="spacing" textLength="47.5" x="333.75" y="1107.3145">possui</text><text fill="#000000" font-family="sans-serif" font-size="16.25" lengthAdjust="spacing" textLength="8.75" x="83.9453" y="1025.5125">1</text><text fill="#000000" font-family="sans-serif" font-size="16.25" lengthAdjust="spacing" textLength="6.25" x="716.8408" y="1198.3163">*</text><!--MD5=[639e2fc5a451b1bb392d1ae296701488]
link Parque to Veiculo--><path codeLine="166" d="M843.2875,1161.9331 C866.05,1156.1206 892.925,1149.8081 917.5,1145.4456 C1156.4,1102.9956 1220.575,1123.5706 1460,1084.1956 C1506.5625,1076.5331 1518.0875,1073.5706 1563.75,1061.6956 C1575.7625,1058.5706 1588.45,1054.9831 1600.725,1051.3456 " fill="none" id="Parque-Veiculo" style="stroke:#A80036;stroke-width:1.25;"/><polygon fill="#000000" points="1355.5594,1072.2623,1343.841,1070.2607,1344.9024,1077.5309,1355.5594,1072.2623" style="stroke:#000000;stroke-width:1.25;"/><text fill="#000000" font-family="sans-serif" font-size="16.25" lengthAdjust="spacing" textLength="47.5" x="1360.625" y="1079.8145">possui</text><text fill="#000000" font-family="sans-serif" font-size="16.25" lengthAdjust="spacing" textLength="8.75" x="853.1484" y="1178.014">1</text><text fill="#000000" font-family="sans-serif" font-size="16.25" lengthAdjust="spacing" textLength="6.25" x="1584.9585" y="1072.3868">*</text><!--MD5=[79d5a61b37419f60a30a60f3bc0e499f]
link Farmacia to Veiculo--><path codeLine="167" d="M114.15,978.0581 C170.6,999.4456 264.225,1029.1956 348.125,1029.1956 C348.125,1029.1956 348.125,1029.1956 1377.5,1029.1956 C1453.8375,1029.1956 1541.35,1029.1956 1600.7375,1029.1956 " fill="none" id="Farmacia-Veiculo" style="stroke:#A80036;stroke-width:1.25;"/><polygon fill="#000000" points="767.4963,1018.3802,756.3229,1014.32,756.0703,1021.6629,767.4963,1018.3802" style="stroke:#000000;stroke-width:1.25;"/><text fill="#000000" font-family="sans-serif" font-size="16.25" lengthAdjust="spacing" textLength="47.5" x="772.5" y="1024.8145">possui</text><text fill="#000000" font-family="sans-serif" font-size="16.25" lengthAdjust="spacing" textLength="8.75" x="123.6362" y="1000.1917">1</text><text fill="#000000" font-family="sans-serif" font-size="16.25" lengthAdjust="spacing" textLength="6.25" x="1584.9726" y="1047.3989">*</text><!--MD5=[e9cb6b9ea8421b6538fc03abcb01a9a8]
link Farmacia to Endereco--><path codeLine="168" d="M62.3,999.5706 C62.5125,1134.2706 69.9375,1545.8831 151.25,1645.4456 C375.175,1919.6331 564.3625,1838.1331 917.5,1862.9456 C1067.125,1873.4581 1106.5125,1884.1581 1255,1862.9456 C1277.5625,1859.7206 1301.8,1853.2581 1322.55,1846.7456 " fill="none" id="Farmacia-Endereco" style="stroke:#A80036;stroke-width:1.25;"/><polygon fill="#000000" points="558.312,1839.1521,550.9782,1829.7956,546.8792,1835.8932,558.312,1839.1521" style="stroke:#000000;stroke-width:1.25;"/><text fill="#000000" font-family="sans-serif" font-size="16.25" lengthAdjust="spacing" textLength="27.5" x="564.375" y="1842.3145">tem</text><text fill="#000000" font-family="sans-serif" font-size="16.25" lengthAdjust="spacing" textLength="8.75" x="63.2324" y="1025.6004">1</text><text fill="#000000" font-family="sans-serif" font-size="16.25" lengthAdjust="spacing" textLength="8.75" x="1304.5443" y="1868.2052">1</text><!--MD5=[3f261229c7309ba030e97986da9f3259]
link Parque to Estacionamento--><path codeLine="169" d="M843.5125,1214.8206 C865.425,1228.0456 891.625,1241.2331 917.5,1247.9456 C1048.5875,1281.9456 1208,1270.6581 1299.8625,1259.3206 " fill="none" id="Parque-Estacionamento" style="stroke:#A80036;stroke-width:1.25;"/><polygon fill="#000000" points="1075.5955,1237.5219,1064.6991,1232.7682,1063.986,1240.0809,1075.5955,1237.5219" style="stroke:#000000;stroke-width:1.25;"/><text fill="#000000" font-family="sans-serif" font-size="16.25" lengthAdjust="spacing" textLength="27.5" x="1080.625" y="1243.5645">tem</text><text fill="#000000" font-family="sans-serif" font-size="16.25" lengthAdjust="spacing" textLength="8.75" x="853.0371" y="1239.3602">1</text><text fill="#000000" font-family="sans-serif" font-size="16.25" lengthAdjust="spacing" textLength="6.25" x="1283.9219" y="1278.8463">*</text><!--MD5=[1039b111a25a8fa482cc80fea0f097ce]
link Estacionamento to Veiculo--><path codeLine="170" d="M1452.85,1265.5081 C1488.925,1269.7456 1531.25,1268.2456 1563.75,1247.9456 C1607.4875,1220.6331 1633.8125,1169.6706 1649.3875,1123.8081 " fill="none" id="Estacionamento-Veiculo" style="stroke:#A80036;stroke-width:1.25;"/><polygon fill="#000000" points="1518.8197,1233.2601,1507.5,1236.8925,1511.797,1242.8523,1518.8197,1233.2601" style="stroke:#000000;stroke-width:1.25;"/><text fill="#000000" font-family="sans-serif" font-size="16.25" lengthAdjust="spacing" textLength="27.5" x="1525" y="1243.5645">tem</text><text fill="#000000" font-family="sans-serif" font-size="16.25" lengthAdjust="spacing" textLength="8.75" x="1462.7188" y="1285.7879">1</text><text fill="#000000" font-family="sans-serif" font-size="16.25" lengthAdjust="spacing" textLength="8.75" x="1638.2451" y="1150.031">1</text><!--MD5=[06143d4fc5f7e61d4193d2b4f541983b]
link Farmacia to Estafeta--><path codeLine="171" d="M113.6375,913.8956 C125.6125,904.7956 138.575,895.6206 151.25,887.9456 C194.6375,861.6831 206.6625,855.7956 255,840.4456 C426.7625,785.8956 642.7375,773.8206 737.9625,771.1706 " fill="none" id="Farmacia-Estafeta" style="stroke:#A80036;stroke-width:1.25;"/><polygon fill="#000000" points="338.5928,786.7724,326.7521,785.7109,328.3895,792.8734,338.5928,786.7724" style="stroke:#000000;stroke-width:1.25;"/><text fill="#000000" font-family="sans-serif" font-size="16.25" lengthAdjust="spacing" textLength="27.5" x="343.75" y="794.8145">tem</text><text fill="#000000" font-family="sans-serif" font-size="16.25" lengthAdjust="spacing" textLength="8.75" x="123.7483" y="924.9976">1</text><text fill="#000000" font-family="sans-serif" font-size="16.25" lengthAdjust="spacing" textLength="6.25" x="721.8876" y="790.0763">*</text><!--MD5=[1eb578f81baca05fae5600e8efb79c07]
link Farmacia to Administrador--><path codeLine="172" d="M113.9,944.3206 C160.6375,933.0706 229.9,916.3956 281,904.1081 " fill="none" id="Farmacia-Administrador" style="stroke:#A80036;stroke-width:1.25;"/><polygon fill="#000000" points="173.5765,907.953,161.7245,907.0266,163.4435,914.17,173.5765,907.953" style="stroke:#000000;stroke-width:1.25;"/><text fill="#000000" font-family="sans-serif" font-size="16.25" lengthAdjust="spacing" textLength="27.5" x="178.75" y="916.0645">tem</text><text fill="#000000" font-family="sans-serif" font-size="16.25" lengthAdjust="spacing" textLength="8.75" x="123.7012" y="960.8543">1</text><text fill="#000000" font-family="sans-serif" font-size="16.25" lengthAdjust="spacing" textLength="8.75" x="262.4742" y="924.5221">1</text><!--MD5=[3f6503f1a57f2d55f08379ac406fcd0b]
link Farmacia to TransferenciaProduto--><path codeLine="173" d="M79.725,913.9581 C130.625,787.6581 279.95,417.1081 330.875,290.7456 " fill="none" id="Farmacia-TransferenciaProduto" style="stroke:#A80036;stroke-width:1.25;"/><polygon fill="#000000" points="159.8361,564.8683,152.2026,573.982,159.0174,576.7283,159.8361,564.8683" style="stroke:#000000;stroke-width:1.25;"/><text fill="#000000" font-family="sans-serif" font-size="16.25" lengthAdjust="spacing" textLength="47.5" x="168.75" y="577.3145">realiza</text><text fill="#000000" font-family="sans-serif" font-size="16.25" lengthAdjust="spacing" textLength="8.75" x="73.7509" y="900.5279">1</text><text fill="#000000" font-family="sans-serif" font-size="16.25" lengthAdjust="spacing" textLength="6.25" x="320.9082" y="316.7625">*</text><!--MD5=[c855b1766254e06f87c76fb6bd0b050a]
link TransferenciaProduto to EstadoTransferencia--><path codeLine="174" d="M444.2125,224.6206 C518.7,206.0456 622.3125,180.2206 696.0625,161.8331 " fill="none" id="TransferenciaProduto-EstadoTransferencia" style="stroke:#A80036;stroke-width:1.25;"/><polygon fill="#000000" points="559.1894,159.1534,547.3302,158.3239,549.1075,165.453,559.1894,159.1534" style="stroke:#000000;stroke-width:1.25;"/><text fill="#000000" font-family="sans-serif" font-size="16.25" lengthAdjust="spacing" textLength="27.5" x="564.375" y="167.3145">tem</text><text fill="#000000" font-family="sans-serif" font-size="16.25" lengthAdjust="spacing" textLength="8.75" x="453.6687" y="240.2599">1</text><text fill="#000000" font-family="sans-serif" font-size="16.25" lengthAdjust="spacing" textLength="6.25" x="679.9963" y="182.1115">*</text><!--MD5=[36ce0647da86725cfb4b25b0e75164d8]
link TransferenciaProduto to Produto--><path codeLine="175" d="M443.8125,247.9456 C532.1375,247.9456 668.5375,247.9456 786.875,247.9456 C786.875,247.9456 786.875,247.9456 1673.125,247.9456 C1762.65,247.9456 1864.9,272.6331 1922.65,288.9206 " fill="none" id="TransferenciaProduto-Produto" style="stroke:#A80036;stroke-width:1.25;"/><polygon fill="#000000" points="1341.2476,237.0884,1330.0473,233.103,1329.8438,240.4475,1341.2476,237.0884" style="stroke:#000000;stroke-width:1.25;"/><text fill="#000000" font-family="sans-serif" font-size="16.25" lengthAdjust="spacing" textLength="76.25" x="1346.25" y="243.5645">referente a</text><text fill="#000000" font-family="sans-serif" font-size="16.25" lengthAdjust="spacing" textLength="8.75" x="454.0025" y="265.8895">1</text><text fill="#000000" font-family="sans-serif" font-size="16.25" lengthAdjust="spacing" textLength="8.75" x="1904.3632" y="305.0482">1</text><!--MD5=[f9343ba675743435552aee1f78894b70]
link Caminho to Endereco--><path codeLine="176" d="M878.25,1761.9331 C972.3125,1767.0581 1124.85,1777.9581 1255,1799.1956 C1277.4125,1802.8581 1301.8375,1808.4081 1322.7625,1813.6706 " fill="none" id="Caminho-Endereco" style="stroke:#A80036;stroke-width:1.25;"/><polygon fill="#000000" points="1051.2081,1753.8879,1040.4023,1748.9317,1039.5528,1756.2297,1051.2081,1753.8879" style="stroke:#000000;stroke-width:1.25;"/><text fill="#000000" font-family="sans-serif" font-size="16.25" lengthAdjust="spacing" textLength="76.25" x="1056.25" y="1759.8145">referente a</text><text fill="#000000" font-family="sans-serif" font-size="16.25" lengthAdjust="spacing" textLength="8.75" x="887.9953" y="1780.2988">1</text><text fill="#000000" font-family="sans-serif" font-size="16.25" lengthAdjust="spacing" textLength="8.75" x="1304.429" y="1829.8322">1</text><!--MD5=[f9343ba675743435552aee1f78894b70]
link Caminho to Endereco--><path codeLine="177" d="M863.75,1809.3331 C880.7,1818.5581 899.15,1826.7956 917.5,1831.6956 C1060.225,1869.8456 1237.0625,1850.5706 1323.1,1837.1956 " fill="none" id="Caminho-Endereco-1" style="stroke:#A80036;stroke-width:1.25;"/><polygon fill="#000000" points="1051.2385,1821.0437,1040.1753,1816.6922,1039.7305,1824.0261,1051.2385,1821.0437" style="stroke:#000000;stroke-width:1.25;"/><text fill="#000000" font-family="sans-serif" font-size="16.25" lengthAdjust="spacing" textLength="76.25" x="1056.25" y="1827.3145">referente a</text><text fill="#000000" font-family="sans-serif" font-size="16.25" lengthAdjust="spacing" textLength="8.75" x="865.4648" y="1835.2957">1</text><text fill="#000000" font-family="sans-serif" font-size="16.25" lengthAdjust="spacing" textLength="8.75" x="1304.4629" y="1857.3739">1</text><!--MD5=[b8e176e75a94352f361f06001cc4f05a]
@startuml
skinparam classAttributeIconSize 0
hide methods
left to right direction

class Entrega {
  -idEntrega
  -dataInicio
  -dataFim
  -pesoEntrega
}

class Encomenda {
  -idEncomenda
  -dataPedida
  -preco
  -pesoEncomenda
  -taxa
}

class EstadoEncomenda {
  -idEstadoEncomenda
  -designacao
  -estado
}

class Produto {
  -idProduto
  -designacao
  -peso
  -precoBase
}

class Farmacia {
  -NIF
  -email
}

class Recibo {
  -idRecibo
  -dataRecibo
  -preco
}

class Estacionamento {
  -numeroLote
  -carregador
}

class Estafeta {
  -pesoEstafeta
}

class Utilizador {
  -NIF
  -nome
  -email
  -numeroSegurancaSocial
  -password
}

class Administrador {

}

class Endereco {
  -morada
  -latitude
  -longitude
  -altitude
}

class Scooter {
  -idScooter
}

class Veiculo {
  -idveiculo
  -descricao
  -capacidade
  -percentagemBateria
  -pesoMaximo
  -pesoVeiculo
  -potencia
  -areaFrontal
}

class Drone {
  -idDrone
  -hoverpower
}


class Parque {
  -idParque
  -numeroMaximo
  -tipo
  -maxCap
}

class Cliente {
  -creditos
}

class Cartao{
  -numeroCartaoCredito
  -dataDeValidade
  -CCV
}

class TransferenciaProduto {
  -idTransferencia
  -quantidade
}

class EstadoTransferencia {
  -id
  -designacao
}

class EstadoVeiculo {
  -idEstadoVeiculo
  -designacao
}

class EstadoEstafeta {
  -id
  -designacao
}

class Pagamento {
  -idPagamento
  -precoTotal
}

class Caminho {
  -roadResistanceCoefficient
  -velocidadeVento
  -direcaoVento
}

Encomenda "1" - - "1" EstadoEncomenda : tem >
Entrega "1" - - "*" Encomenda : possui >
Estafeta "1" - - "*" Entrega: realiza >
Estafeta "1" - - "1" EstadoEstafeta: tem >
Estafeta "1" - - "1" Utilizador: atua como >
Administrador "1" - - "1" Utilizador: atua como >
Administrador "1" - - "*" Estafeta: regista >
Administrador "1" - - "*" Produto: insere no stock >
Administrador "1" - - "*" Veiculo: adiciona, remove ou atualiza e cria QR code >
Administrador "1" - - "1" Parque: define numeroMaximo >
Cliente "1" - - "1" Endereco: tem >
Cliente "1" - - "1" Utilizador: atua como >
Cliente "1" - - "*" Encomenda: realiza e paga >
Cliente "1" - - "1" Cartao: possui >
Cliente "1" - - "*" Recibo: possui >
Encomenda "1" - - "1" Pagamento: tem >
Encomenda "1" - - "1" Recibo: possui >
Entrega "*" - - "1" Veiculo: realiza <
Veiculo "1" - - "1" Drone:  <
Veiculo "1" - - "1" Scooter:  <
Veiculo "1" - - "1" EstadoVeiculo: tem <
Farmacia "1" - - "*" Produto: tem >
Encomenda "1" - - "*" Produto: tem >
Farmacia "1" - - "*" Encomenda: tem >
Farmacia "1" - - "*" Parque: possui >
Parque "1" - - "*" Veiculo: possui >
Farmacia "1" - - "*" Veiculo: possui >
Farmacia "1" - - "1" Endereco: tem >
Parque "1" - - "*" Estacionamento: tem >
Estacionamento "1" - - "1" Veiculo: tem >
Farmacia "1" - - "*" Estafeta: tem >
Farmacia "1" - - "1" Administrador: tem >
Farmacia "1" - - "*" TransferenciaProduto: realiza >
TransferenciaProduto "1" - - "*" EstadoTransferencia: tem >
TransferenciaProduto "1" - - "1" Produto: referente a >
Caminho "1" - - "1" Endereco: referente a >
Caminho "1" - - "1" Endereco: referente a >



@enduml

PlantUML version 1.2021.00(Sun Jan 10 10:25:05 GMT 2021)
(GPL source distribution)
Java Runtime: OpenJDK Runtime Environment
JVM: OpenJDK 64-Bit Server VM
Default Encoding: Cp1252
Language: pt
Country: PT
--></g></svg>