<?xml version="1.0" encoding="UTF-8" standalone="no"?><svg xmlns="http://www.w3.org/2000/svg" xmlns:xlink="http://www.w3.org/1999/xlink" contentScriptType="application/ecmascript" contentStyleType="text/css" height="977px" preserveAspectRatio="none" style="width:1746px;height:977px;" version="1.1" viewBox="0 0 1746 977" width="1746px" zoomAndPan="magnify"><defs><filter height="300%" id="f19z06dzamgce8" width="300%" x="-1" y="-1"><feGaussianBlur result="blurOut" stdDeviation="2.0"/><feColorMatrix in="blurOut" result="blurOut2" type="matrix" values="0 0 0 0 0 0 0 0 0 0 0 0 0 0 0 0 0 0 .4 0"/><feOffset dx="4.0" dy="4.0" in="blurOut2" result="blurOut3"/><feBlend in="SourceGraphic" in2="blurOut3" mode="normal"/></filter></defs><g><!--MD5=[3179f819b5ca0f9c8a1bd58e9144681b]
class Entrega--><rect codeLine="5" fill="#FEFECE" filter="url(#f19z06dzamgce8)" height="78.4141" id="Entrega" style="stroke:#A80036;stroke-width:1.5;" width="78" x="1118.5" y="265.5659"/><ellipse cx="1133.5" cy="281.5659" fill="#ADD1B2" rx="11" ry="11" style="stroke:#A80036;stroke-width:1.0;"/><path d="M1135.8438,277.2378 C1134.9063,276.8003 1134.3125,276.6597 1133.4375,276.6597 C1130.8125,276.6597 1128.8125,278.7378 1128.8125,281.4565 L1128.8125,282.5815 C1128.8125,285.1597 1130.9219,287.0503 1133.8125,287.0503 C1135.0313,287.0503 1136.1875,286.7534 1136.9375,286.2065 C1137.5156,285.8003 1137.8438,285.3472 1137.8438,284.9565 C1137.8438,284.5034 1137.4531,284.1128 1136.9844,284.1128 C1136.7656,284.1128 1136.5625,284.1909 1136.375,284.3784 C1135.9219,284.8628 1135.9219,284.8628 1135.7344,284.9565 C1135.3125,285.2222 1134.625,285.3472 1133.8594,285.3472 C1131.8125,285.3472 1130.5156,284.2534 1130.5156,282.5503 L1130.5156,281.4565 C1130.5156,279.6753 1131.7656,278.3628 1133.5,278.3628 C1134.0781,278.3628 1134.6875,278.519 1135.1563,278.769 C1135.6406,279.0503 1135.8125,279.269 1135.9063,279.6753 C1135.9688,280.0815 1136,280.2065 1136.1406,280.3315 C1136.2813,280.4722 1136.5156,280.5815 1136.7344,280.5815 C1137,280.5815 1137.2656,280.4409 1137.4375,280.2222 C1137.5469,280.0659 1137.5781,279.8784 1137.5781,279.4565 L1137.5781,278.0347 C1137.5781,277.5972 1137.5625,277.4722 1137.4688,277.3159 C1137.3125,277.0503 1137.0313,276.9097 1136.7344,276.9097 C1136.4375,276.9097 1136.2344,277.0034 1136.0156,277.3159 L1135.8438,277.2378 Z " fill="#000000"/><text fill="#000000" font-family="sans-serif" font-size="12" lengthAdjust="spacing" textLength="46" x="1147.5" y="285.7202">Entrega</text><line style="stroke:#A80036;stroke-width:1.5;" x1="1119.5" x2="1195.5" y1="297.5659" y2="297.5659"/><text fill="#000000" font-family="sans-serif" font-size="11" lengthAdjust="spacing" textLength="58" x="1124.5" y="311.7764">-idEntrega</text><text fill="#000000" font-family="sans-serif" font-size="11" lengthAdjust="spacing" textLength="58" x="1124.5" y="324.5811">-dataInicio</text><text fill="#000000" font-family="sans-serif" font-size="11" lengthAdjust="spacing" textLength="49" x="1124.5" y="337.3857">-dataFim</text><!--MD5=[c55f92ccbf0646788158d42f3399cc78]
class Encomenda--><rect codeLine="11" fill="#FEFECE" filter="url(#f19z06dzamgce8)" height="78.4141" id="Encomenda" style="stroke:#A80036;stroke-width:1.5;" width="102" x="1368" y="265.5659"/><ellipse cx="1383" cy="281.5659" fill="#ADD1B2" rx="11" ry="11" style="stroke:#A80036;stroke-width:1.0;"/><path d="M1385.3438,277.2378 C1384.4063,276.8003 1383.8125,276.6597 1382.9375,276.6597 C1380.3125,276.6597 1378.3125,278.7378 1378.3125,281.4565 L1378.3125,282.5815 C1378.3125,285.1597 1380.4219,287.0503 1383.3125,287.0503 C1384.5313,287.0503 1385.6875,286.7534 1386.4375,286.2065 C1387.0156,285.8003 1387.3438,285.3472 1387.3438,284.9565 C1387.3438,284.5034 1386.9531,284.1128 1386.4844,284.1128 C1386.2656,284.1128 1386.0625,284.1909 1385.875,284.3784 C1385.4219,284.8628 1385.4219,284.8628 1385.2344,284.9565 C1384.8125,285.2222 1384.125,285.3472 1383.3594,285.3472 C1381.3125,285.3472 1380.0156,284.2534 1380.0156,282.5503 L1380.0156,281.4565 C1380.0156,279.6753 1381.2656,278.3628 1383,278.3628 C1383.5781,278.3628 1384.1875,278.519 1384.6563,278.769 C1385.1406,279.0503 1385.3125,279.269 1385.4063,279.6753 C1385.4688,280.0815 1385.5,280.2065 1385.6406,280.3315 C1385.7813,280.4722 1386.0156,280.5815 1386.2344,280.5815 C1386.5,280.5815 1386.7656,280.4409 1386.9375,280.2222 C1387.0469,280.0659 1387.0781,279.8784 1387.0781,279.4565 L1387.0781,278.0347 C1387.0781,277.5972 1387.0625,277.4722 1386.9688,277.3159 C1386.8125,277.0503 1386.5313,276.9097 1386.2344,276.9097 C1385.9375,276.9097 1385.7344,277.0034 1385.5156,277.3159 L1385.3438,277.2378 Z " fill="#000000"/><text fill="#000000" font-family="sans-serif" font-size="12" lengthAdjust="spacing" textLength="70" x="1397" y="285.7202">Encomenda</text><line style="stroke:#A80036;stroke-width:1.5;" x1="1369" x2="1469" y1="297.5659" y2="297.5659"/><text fill="#000000" font-family="sans-serif" font-size="11" lengthAdjust="spacing" textLength="81" x="1374" y="311.7764">-idEncomenda</text><text fill="#000000" font-family="sans-serif" font-size="11" lengthAdjust="spacing" textLength="67" x="1374" y="324.5811">-dataPedida</text><text fill="#000000" font-family="sans-serif" font-size="11" lengthAdjust="spacing" textLength="36" x="1374" y="337.3857">-preco</text><!--MD5=[533e824b6b94274ee39bf5a43d7cce2a]
class EstadoEncomenda--><rect codeLine="17" fill="#FEFECE" filter="url(#f19z06dzamgce8)" height="65.6094" id="EstadoEncomenda" style="stroke:#A80036;stroke-width:1.5;" width="145" x="1587" y="271.5659"/><ellipse cx="1602.9" cy="287.5659" fill="#ADD1B2" rx="11" ry="11" style="stroke:#A80036;stroke-width:1.0;"/><path d="M1605.2438,283.2378 C1604.3063,282.8003 1603.7125,282.6597 1602.8375,282.6597 C1600.2125,282.6597 1598.2125,284.7378 1598.2125,287.4565 L1598.2125,288.5815 C1598.2125,291.1597 1600.3219,293.0503 1603.2125,293.0503 C1604.4313,293.0503 1605.5875,292.7534 1606.3375,292.2065 C1606.9156,291.8003 1607.2438,291.3472 1607.2438,290.9565 C1607.2438,290.5034 1606.8531,290.1128 1606.3844,290.1128 C1606.1656,290.1128 1605.9625,290.1909 1605.775,290.3784 C1605.3219,290.8628 1605.3219,290.8628 1605.1344,290.9565 C1604.7125,291.2222 1604.025,291.3472 1603.2594,291.3472 C1601.2125,291.3472 1599.9156,290.2534 1599.9156,288.5503 L1599.9156,287.4565 C1599.9156,285.6753 1601.1656,284.3628 1602.9,284.3628 C1603.4781,284.3628 1604.0875,284.519 1604.5563,284.769 C1605.0406,285.0503 1605.2125,285.269 1605.3063,285.6753 C1605.3688,286.0815 1605.4,286.2065 1605.5406,286.3315 C1605.6813,286.4722 1605.9156,286.5815 1606.1344,286.5815 C1606.4,286.5815 1606.6656,286.4409 1606.8375,286.2222 C1606.9469,286.0659 1606.9781,285.8784 1606.9781,285.4565 L1606.9781,284.0347 C1606.9781,283.5972 1606.9625,283.4722 1606.8688,283.3159 C1606.7125,283.0503 1606.4313,282.9097 1606.1344,282.9097 C1605.8375,282.9097 1605.6344,283.0034 1605.4156,283.3159 L1605.2438,283.2378 Z " fill="#000000"/><text fill="#000000" font-family="sans-serif" font-size="12" lengthAdjust="spacing" textLength="111" x="1617.1" y="291.7202">EstadoEncomenda</text><line style="stroke:#A80036;stroke-width:1.5;" x1="1588" x2="1731" y1="303.5659" y2="303.5659"/><text fill="#000000" font-family="sans-serif" font-size="11" lengthAdjust="spacing" textLength="133" x="1593" y="317.7764">-id_estado_encomenda</text><text fill="#000000" font-family="sans-serif" font-size="11" lengthAdjust="spacing" textLength="69" x="1593" y="330.5811">-designacao</text><!--MD5=[d4dacc50d49878ba7c621dfc80a2e1ce]
class Produto--><rect codeLine="22" fill="#FEFECE" filter="url(#f19z06dzamgce8)" height="91.2188" id="Produto" style="stroke:#A80036;stroke-width:1.5;" width="81" x="1619" y="49.0659"/><ellipse cx="1635.35" cy="65.0659" fill="#ADD1B2" rx="11" ry="11" style="stroke:#A80036;stroke-width:1.0;"/><path d="M1637.6938,60.7378 C1636.7563,60.3003 1636.1625,60.1597 1635.2875,60.1597 C1632.6625,60.1597 1630.6625,62.2378 1630.6625,64.9565 L1630.6625,66.0815 C1630.6625,68.6597 1632.7719,70.5503 1635.6625,70.5503 C1636.8813,70.5503 1638.0375,70.2534 1638.7875,69.7065 C1639.3656,69.3003 1639.6938,68.8472 1639.6938,68.4565 C1639.6938,68.0034 1639.3031,67.6128 1638.8344,67.6128 C1638.6156,67.6128 1638.4125,67.6909 1638.225,67.8784 C1637.7719,68.3628 1637.7719,68.3628 1637.5844,68.4565 C1637.1625,68.7222 1636.475,68.8472 1635.7094,68.8472 C1633.6625,68.8472 1632.3656,67.7534 1632.3656,66.0503 L1632.3656,64.9565 C1632.3656,63.1753 1633.6156,61.8628 1635.35,61.8628 C1635.9281,61.8628 1636.5375,62.019 1637.0063,62.269 C1637.4906,62.5503 1637.6625,62.769 1637.7563,63.1753 C1637.8188,63.5815 1637.85,63.7065 1637.9906,63.8315 C1638.1313,63.9722 1638.3656,64.0815 1638.5844,64.0815 C1638.85,64.0815 1639.1156,63.9409 1639.2875,63.7222 C1639.3969,63.5659 1639.4281,63.3784 1639.4281,62.9565 L1639.4281,61.5347 C1639.4281,61.0972 1639.4125,60.9722 1639.3188,60.8159 C1639.1625,60.5503 1638.8813,60.4097 1638.5844,60.4097 C1638.2875,60.4097 1638.0844,60.5034 1637.8656,60.8159 L1637.6938,60.7378 Z " fill="#000000"/><text fill="#000000" font-family="sans-serif" font-size="12" lengthAdjust="spacing" textLength="46" x="1649.65" y="69.2202">Produto</text><line style="stroke:#A80036;stroke-width:1.5;" x1="1620" x2="1699" y1="81.0659" y2="81.0659"/><text fill="#000000" font-family="sans-serif" font-size="11" lengthAdjust="spacing" textLength="56" x="1625" y="95.2764">-idProduto</text><text fill="#000000" font-family="sans-serif" font-size="11" lengthAdjust="spacing" textLength="69" x="1625" y="108.0811">-designacao</text><text fill="#000000" font-family="sans-serif" font-size="11" lengthAdjust="spacing" textLength="32" x="1625" y="120.8857">-peso</text><text fill="#000000" font-family="sans-serif" font-size="11" lengthAdjust="spacing" textLength="65" x="1625" y="133.6904">-precoBase</text><!--MD5=[6613c9cd406ef433ff06f5e98b28abd9]
class Farmacia--><rect codeLine="29" fill="#FEFECE" filter="url(#f19z06dzamgce8)" height="52.8047" id="Farmacia" style="stroke:#A80036;stroke-width:1.5;" width="86" x="7" y="375.0659"/><ellipse cx="22" cy="391.0659" fill="#ADD1B2" rx="11" ry="11" style="stroke:#A80036;stroke-width:1.0;"/><path d="M24.3438,386.7378 C23.4063,386.3003 22.8125,386.1597 21.9375,386.1597 C19.3125,386.1597 17.3125,388.2378 17.3125,390.9565 L17.3125,392.0815 C17.3125,394.6597 19.4219,396.5503 22.3125,396.5503 C23.5313,396.5503 24.6875,396.2534 25.4375,395.7065 C26.0156,395.3003 26.3438,394.8472 26.3438,394.4565 C26.3438,394.0034 25.9531,393.6128 25.4844,393.6128 C25.2656,393.6128 25.0625,393.6909 24.875,393.8784 C24.4219,394.3628 24.4219,394.3628 24.2344,394.4565 C23.8125,394.7222 23.125,394.8472 22.3594,394.8472 C20.3125,394.8472 19.0156,393.7534 19.0156,392.0503 L19.0156,390.9565 C19.0156,389.1753 20.2656,387.8628 22,387.8628 C22.5781,387.8628 23.1875,388.019 23.6563,388.269 C24.1406,388.5503 24.3125,388.769 24.4063,389.1753 C24.4688,389.5815 24.5,389.7065 24.6406,389.8315 C24.7813,389.9722 25.0156,390.0815 25.2344,390.0815 C25.5,390.0815 25.7656,389.9409 25.9375,389.7222 C26.0469,389.5659 26.0781,389.3784 26.0781,388.9565 L26.0781,387.5347 C26.0781,387.0972 26.0625,386.9722 25.9688,386.8159 C25.8125,386.5503 25.5313,386.4097 25.2344,386.4097 C24.9375,386.4097 24.7344,386.5034 24.5156,386.8159 L24.3438,386.7378 Z " fill="#000000"/><text fill="#000000" font-family="sans-serif" font-size="12" lengthAdjust="spacing" textLength="54" x="36" y="395.2202">Farmacia</text><line style="stroke:#A80036;stroke-width:1.5;" x1="8" x2="92" y1="407.0659" y2="407.0659"/><text fill="#000000" font-family="sans-serif" font-size="11" lengthAdjust="spacing" textLength="21" x="13" y="421.2764">-NIF</text><!--MD5=[d6f7ff8a01a1f4d455865514bc16ec87]
class Estacionamento--><rect codeLine="34" fill="#FEFECE" filter="url(#f19z06dzamgce8)" height="65.6094" id="Estacionamento" style="stroke:#A80036;stroke-width:1.5;" width="127" x="1094" y="851.5659"/><ellipse cx="1109" cy="867.5659" fill="#ADD1B2" rx="11" ry="11" style="stroke:#A80036;stroke-width:1.0;"/><path d="M1111.3438,863.2378 C1110.4063,862.8003 1109.8125,862.6597 1108.9375,862.6597 C1106.3125,862.6597 1104.3125,864.7378 1104.3125,867.4565 L1104.3125,868.5815 C1104.3125,871.1597 1106.4219,873.0503 1109.3125,873.0503 C1110.5313,873.0503 1111.6875,872.7534 1112.4375,872.2065 C1113.0156,871.8003 1113.3438,871.3472 1113.3438,870.9565 C1113.3438,870.5034 1112.9531,870.1128 1112.4844,870.1128 C1112.2656,870.1128 1112.0625,870.1909 1111.875,870.3784 C1111.4219,870.8628 1111.4219,870.8628 1111.2344,870.9565 C1110.8125,871.2222 1110.125,871.3472 1109.3594,871.3472 C1107.3125,871.3472 1106.0156,870.2534 1106.0156,868.5503 L1106.0156,867.4565 C1106.0156,865.6753 1107.2656,864.3628 1109,864.3628 C1109.5781,864.3628 1110.1875,864.519 1110.6563,864.769 C1111.1406,865.0503 1111.3125,865.269 1111.4063,865.6753 C1111.4688,866.0815 1111.5,866.2065 1111.6406,866.3315 C1111.7813,866.4722 1112.0156,866.5815 1112.2344,866.5815 C1112.5,866.5815 1112.7656,866.4409 1112.9375,866.2222 C1113.0469,866.0659 1113.0781,865.8784 1113.0781,865.4565 L1113.0781,864.0347 C1113.0781,863.5972 1113.0625,863.4722 1112.9688,863.3159 C1112.8125,863.0503 1112.5313,862.9097 1112.2344,862.9097 C1111.9375,862.9097 1111.7344,863.0034 1111.5156,863.3159 L1111.3438,863.2378 Z " fill="#000000"/><text fill="#000000" font-family="sans-serif" font-size="12" lengthAdjust="spacing" textLength="95" x="1123" y="871.7202">Estacionamento</text><line style="stroke:#A80036;stroke-width:1.5;" x1="1095" x2="1220" y1="883.5659" y2="883.5659"/><text fill="#000000" font-family="sans-serif" font-size="11" lengthAdjust="spacing" textLength="73" x="1100" y="897.7764">-numeroLote</text><text fill="#000000" font-family="sans-serif" font-size="11" lengthAdjust="spacing" textLength="65" x="1100" y="910.5811">-carregador</text><!--MD5=[3f1202280bfe3359d2f91fb9b6e32986]
class Estafeta--><rect codeLine="39" fill="#FEFECE" filter="url(#f19z06dzamgce8)" height="104.0234" id="Estafeta" style="stroke:#A80036;stroke-width:1.5;" width="155" x="568" y="234.5659"/><ellipse cx="617.25" cy="250.5659" fill="#ADD1B2" rx="11" ry="11" style="stroke:#A80036;stroke-width:1.0;"/><path d="M619.5938,246.2378 C618.6563,245.8003 618.0625,245.6597 617.1875,245.6597 C614.5625,245.6597 612.5625,247.7378 612.5625,250.4565 L612.5625,251.5815 C612.5625,254.1597 614.6719,256.0503 617.5625,256.0503 C618.7813,256.0503 619.9375,255.7534 620.6875,255.2065 C621.2656,254.8003 621.5938,254.3472 621.5938,253.9565 C621.5938,253.5034 621.2031,253.1128 620.7344,253.1128 C620.5156,253.1128 620.3125,253.1909 620.125,253.3784 C619.6719,253.8628 619.6719,253.8628 619.4844,253.9565 C619.0625,254.2222 618.375,254.3472 617.6094,254.3472 C615.5625,254.3472 614.2656,253.2534 614.2656,251.5503 L614.2656,250.4565 C614.2656,248.6753 615.5156,247.3628 617.25,247.3628 C617.8281,247.3628 618.4375,247.519 618.9063,247.769 C619.3906,248.0503 619.5625,248.269 619.6563,248.6753 C619.7188,249.0815 619.75,249.2065 619.8906,249.3315 C620.0313,249.4722 620.2656,249.5815 620.4844,249.5815 C620.75,249.5815 621.0156,249.4409 621.1875,249.2222 C621.2969,249.0659 621.3281,248.8784 621.3281,248.4565 L621.3281,247.0347 C621.3281,246.5972 621.3125,246.4722 621.2188,246.3159 C621.0625,246.0503 620.7813,245.9097 620.4844,245.9097 C620.1875,245.9097 619.9844,246.0034 619.7656,246.3159 L619.5938,246.2378 Z " fill="#000000"/><text fill="#000000" font-family="sans-serif" font-size="12" lengthAdjust="spacing" textLength="48" x="637.75" y="254.7202">Estafeta</text><line style="stroke:#A80036;stroke-width:1.5;" x1="569" x2="722" y1="266.5659" y2="266.5659"/><text fill="#000000" font-family="sans-serif" font-size="11" lengthAdjust="spacing" textLength="21" x="574" y="280.7764">-NIF</text><text fill="#000000" font-family="sans-serif" font-size="11" lengthAdjust="spacing" textLength="37" x="574" y="293.5811">-nome</text><text fill="#000000" font-family="sans-serif" font-size="11" lengthAdjust="spacing" textLength="36" x="574" y="306.3857">-email</text><text fill="#000000" font-family="sans-serif" font-size="11" lengthAdjust="spacing" textLength="143" x="574" y="319.1904">-numeroSegurancaSocial</text><text fill="#000000" font-family="sans-serif" font-size="11" lengthAdjust="spacing" textLength="57" x="574" y="331.9951">-password</text><!--MD5=[b1b5bcb3873f5e6d986aef558b6021e9]
class EstadoEstafeta--><rect codeLine="47" fill="#FEFECE" filter="url(#f19z06dzamgce8)" height="65.6094" id="EstadoEstafeta" style="stroke:#A80036;stroke-width:1.5;" width="125" x="1095" y="164.5659"/><ellipse cx="1111.8" cy="180.5659" fill="#ADD1B2" rx="11" ry="11" style="stroke:#A80036;stroke-width:1.0;"/><path d="M1114.1438,176.2378 C1113.2063,175.8003 1112.6125,175.6597 1111.7375,175.6597 C1109.1125,175.6597 1107.1125,177.7378 1107.1125,180.4565 L1107.1125,181.5815 C1107.1125,184.1597 1109.2219,186.0503 1112.1125,186.0503 C1113.3313,186.0503 1114.4875,185.7534 1115.2375,185.2065 C1115.8156,184.8003 1116.1438,184.3472 1116.1438,183.9565 C1116.1438,183.5034 1115.7531,183.1128 1115.2844,183.1128 C1115.0656,183.1128 1114.8625,183.1909 1114.675,183.3784 C1114.2219,183.8628 1114.2219,183.8628 1114.0344,183.9565 C1113.6125,184.2222 1112.925,184.3472 1112.1594,184.3472 C1110.1125,184.3472 1108.8156,183.2534 1108.8156,181.5503 L1108.8156,180.4565 C1108.8156,178.6753 1110.0656,177.3628 1111.8,177.3628 C1112.3781,177.3628 1112.9875,177.519 1113.4563,177.769 C1113.9406,178.0503 1114.1125,178.269 1114.2063,178.6753 C1114.2688,179.0815 1114.3,179.2065 1114.4406,179.3315 C1114.5813,179.4722 1114.8156,179.5815 1115.0344,179.5815 C1115.3,179.5815 1115.5656,179.4409 1115.7375,179.2222 C1115.8469,179.0659 1115.8781,178.8784 1115.8781,178.4565 L1115.8781,177.0347 C1115.8781,176.5972 1115.8625,176.4722 1115.7688,176.3159 C1115.6125,176.0503 1115.3313,175.9097 1115.0344,175.9097 C1114.7375,175.9097 1114.5344,176.0034 1114.3156,176.3159 L1114.1438,176.2378 Z " fill="#000000"/><text fill="#000000" font-family="sans-serif" font-size="12" lengthAdjust="spacing" textLength="89" x="1126.2" y="184.7202">EstadoEstafeta</text><line style="stroke:#A80036;stroke-width:1.5;" x1="1096" x2="1219" y1="196.5659" y2="196.5659"/><text fill="#000000" font-family="sans-serif" font-size="11" lengthAdjust="spacing" textLength="113" x="1101" y="210.7764">-id_estado_estafeta</text><text fill="#000000" font-family="sans-serif" font-size="11" lengthAdjust="spacing" textLength="69" x="1101" y="223.5811">-designacao</text><!--MD5=[5dd1d6732c071e710b9290b531f2fa3b]
class Utilizador--><rect codeLine="52" fill="#FEFECE" filter="url(#f19z06dzamgce8)" height="104.0234" id="Utilizador" style="stroke:#A80036;stroke-width:1.5;" width="155" x="1080" y="378.5659"/><ellipse cx="1124.75" cy="394.5659" fill="#ADD1B2" rx="11" ry="11" style="stroke:#A80036;stroke-width:1.0;"/><path d="M1127.0938,390.2378 C1126.1563,389.8003 1125.5625,389.6597 1124.6875,389.6597 C1122.0625,389.6597 1120.0625,391.7378 1120.0625,394.4565 L1120.0625,395.5815 C1120.0625,398.1597 1122.1719,400.0503 1125.0625,400.0503 C1126.2813,400.0503 1127.4375,399.7534 1128.1875,399.2065 C1128.7656,398.8003 1129.0938,398.3472 1129.0938,397.9565 C1129.0938,397.5034 1128.7031,397.1128 1128.2344,397.1128 C1128.0156,397.1128 1127.8125,397.1909 1127.625,397.3784 C1127.1719,397.8628 1127.1719,397.8628 1126.9844,397.9565 C1126.5625,398.2222 1125.875,398.3472 1125.1094,398.3472 C1123.0625,398.3472 1121.7656,397.2534 1121.7656,395.5503 L1121.7656,394.4565 C1121.7656,392.6753 1123.0156,391.3628 1124.75,391.3628 C1125.3281,391.3628 1125.9375,391.519 1126.4063,391.769 C1126.8906,392.0503 1127.0625,392.269 1127.1563,392.6753 C1127.2188,393.0815 1127.25,393.2065 1127.3906,393.3315 C1127.5313,393.4722 1127.7656,393.5815 1127.9844,393.5815 C1128.25,393.5815 1128.5156,393.4409 1128.6875,393.2222 C1128.7969,393.0659 1128.8281,392.8784 1128.8281,392.4565 L1128.8281,391.0347 C1128.8281,390.5972 1128.8125,390.4722 1128.7188,390.3159 C1128.5625,390.0503 1128.2813,389.9097 1127.9844,389.9097 C1127.6875,389.9097 1127.4844,390.0034 1127.2656,390.3159 L1127.0938,390.2378 Z " fill="#000000"/><text fill="#000000" font-family="sans-serif" font-size="12" lengthAdjust="spacing" textLength="57" x="1145.25" y="398.7202">Utilizador</text><line style="stroke:#A80036;stroke-width:1.5;" x1="1081" x2="1234" y1="410.5659" y2="410.5659"/><text fill="#000000" font-family="sans-serif" font-size="11" lengthAdjust="spacing" textLength="21" x="1086" y="424.7764">-NIF</text><text fill="#000000" font-family="sans-serif" font-size="11" lengthAdjust="spacing" textLength="37" x="1086" y="437.5811">-nome</text><text fill="#000000" font-family="sans-serif" font-size="11" lengthAdjust="spacing" textLength="36" x="1086" y="450.3857">-email</text><text fill="#000000" font-family="sans-serif" font-size="11" lengthAdjust="spacing" textLength="143" x="1086" y="463.1904">-numeroSegurancaSocial</text><text fill="#000000" font-family="sans-serif" font-size="11" lengthAdjust="spacing" textLength="57" x="1086" y="475.9951">-password</text><!--MD5=[fdcda49d453d44c676d62f3f6af62207]
class Administrador--><rect codeLine="60" fill="#FEFECE" filter="url(#f19z06dzamgce8)" height="104.0234" id="Administrador" style="stroke:#A80036;stroke-width:1.5;" width="155" x="194" y="349.5659"/><ellipse cx="226.55" cy="365.5659" fill="#ADD1B2" rx="11" ry="11" style="stroke:#A80036;stroke-width:1.0;"/><path d="M228.8938,361.2378 C227.9563,360.8003 227.3625,360.6597 226.4875,360.6597 C223.8625,360.6597 221.8625,362.7378 221.8625,365.4565 L221.8625,366.5815 C221.8625,369.1597 223.9719,371.0503 226.8625,371.0503 C228.0813,371.0503 229.2375,370.7534 229.9875,370.2065 C230.5656,369.8003 230.8938,369.3472 230.8938,368.9565 C230.8938,368.5034 230.5031,368.1128 230.0344,368.1128 C229.8156,368.1128 229.6125,368.1909 229.425,368.3784 C228.9719,368.8628 228.9719,368.8628 228.7844,368.9565 C228.3625,369.2222 227.675,369.3472 226.9094,369.3472 C224.8625,369.3472 223.5656,368.2534 223.5656,366.5503 L223.5656,365.4565 C223.5656,363.6753 224.8156,362.3628 226.55,362.3628 C227.1281,362.3628 227.7375,362.519 228.2063,362.769 C228.6906,363.0503 228.8625,363.269 228.9563,363.6753 C229.0188,364.0815 229.05,364.2065 229.1906,364.3315 C229.3313,364.4722 229.5656,364.5815 229.7844,364.5815 C230.05,364.5815 230.3156,364.4409 230.4875,364.2222 C230.5969,364.0659 230.6281,363.8784 230.6281,363.4565 L230.6281,362.0347 C230.6281,361.5972 230.6125,361.4722 230.5188,361.3159 C230.3625,361.0503 230.0813,360.9097 229.7844,360.9097 C229.4875,360.9097 229.2844,361.0034 229.0656,361.3159 L228.8938,361.2378 Z " fill="#000000"/><text fill="#000000" font-family="sans-serif" font-size="12" lengthAdjust="spacing" textLength="84" x="244.45" y="369.7202">Administrador</text><line style="stroke:#A80036;stroke-width:1.5;" x1="195" x2="348" y1="381.5659" y2="381.5659"/><text fill="#000000" font-family="sans-serif" font-size="11" lengthAdjust="spacing" textLength="21" x="200" y="395.7764">-NIF</text><text fill="#000000" font-family="sans-serif" font-size="11" lengthAdjust="spacing" textLength="37" x="200" y="408.5811">-nome</text><text fill="#000000" font-family="sans-serif" font-size="11" lengthAdjust="spacing" textLength="36" x="200" y="421.3857">-email</text><text fill="#000000" font-family="sans-serif" font-size="11" lengthAdjust="spacing" textLength="143" x="200" y="434.1904">-numeroSegurancaSocial</text><text fill="#000000" font-family="sans-serif" font-size="11" lengthAdjust="spacing" textLength="57" x="200" y="446.9951">-password</text><!--MD5=[36c1942e8942a3e4f47e6de3733e3d18]
class Endereco--><rect codeLine="68" fill="#FEFECE" filter="url(#f19z06dzamgce8)" height="52.8047" id="Endereco" style="stroke:#A80036;stroke-width:1.5;" width="90" x="1112.5" y="605.0659"/><ellipse cx="1127.5" cy="621.0659" fill="#ADD1B2" rx="11" ry="11" style="stroke:#A80036;stroke-width:1.0;"/><path d="M1129.8438,616.7378 C1128.9063,616.3003 1128.3125,616.1597 1127.4375,616.1597 C1124.8125,616.1597 1122.8125,618.2378 1122.8125,620.9565 L1122.8125,622.0815 C1122.8125,624.6597 1124.9219,626.5503 1127.8125,626.5503 C1129.0313,626.5503 1130.1875,626.2534 1130.9375,625.7065 C1131.5156,625.3003 1131.8438,624.8472 1131.8438,624.4565 C1131.8438,624.0034 1131.4531,623.6128 1130.9844,623.6128 C1130.7656,623.6128 1130.5625,623.6909 1130.375,623.8784 C1129.9219,624.3628 1129.9219,624.3628 1129.7344,624.4565 C1129.3125,624.7222 1128.625,624.8472 1127.8594,624.8472 C1125.8125,624.8472 1124.5156,623.7534 1124.5156,622.0503 L1124.5156,620.9565 C1124.5156,619.1753 1125.7656,617.8628 1127.5,617.8628 C1128.0781,617.8628 1128.6875,618.019 1129.1563,618.269 C1129.6406,618.5503 1129.8125,618.769 1129.9063,619.1753 C1129.9688,619.5815 1130,619.7065 1130.1406,619.8315 C1130.2813,619.9722 1130.5156,620.0815 1130.7344,620.0815 C1131,620.0815 1131.2656,619.9409 1131.4375,619.7222 C1131.5469,619.5659 1131.5781,619.3784 1131.5781,618.9565 L1131.5781,617.5347 C1131.5781,617.0972 1131.5625,616.9722 1131.4688,616.8159 C1131.3125,616.5503 1131.0313,616.4097 1130.7344,616.4097 C1130.4375,616.4097 1130.2344,616.5034 1130.0156,616.8159 L1129.8438,616.7378 Z " fill="#000000"/><text fill="#000000" font-family="sans-serif" font-size="12" lengthAdjust="spacing" textLength="58" x="1141.5" y="625.2202">Endereco</text><line style="stroke:#A80036;stroke-width:1.5;" x1="1113.5" x2="1201.5" y1="637.0659" y2="637.0659"/><text fill="#000000" font-family="sans-serif" font-size="11" lengthAdjust="spacing" textLength="47" x="1118.5" y="651.2764">-morada</text><!--MD5=[f03aecda799784b0020fee2e72b95698]
class LocalizacaoGPS--><rect codeLine="72" fill="#FEFECE" filter="url(#f19z06dzamgce8)" height="65.6094" id="LocalizacaoGPS" style="stroke:#A80036;stroke-width:1.5;" width="125" x="1356.5" y="598.5659"/><ellipse cx="1371.5" cy="614.5659" fill="#ADD1B2" rx="11" ry="11" style="stroke:#A80036;stroke-width:1.0;"/><path d="M1373.8438,610.2378 C1372.9063,609.8003 1372.3125,609.6597 1371.4375,609.6597 C1368.8125,609.6597 1366.8125,611.7378 1366.8125,614.4565 L1366.8125,615.5815 C1366.8125,618.1597 1368.9219,620.0503 1371.8125,620.0503 C1373.0313,620.0503 1374.1875,619.7534 1374.9375,619.2065 C1375.5156,618.8003 1375.8438,618.3472 1375.8438,617.9565 C1375.8438,617.5034 1375.4531,617.1128 1374.9844,617.1128 C1374.7656,617.1128 1374.5625,617.1909 1374.375,617.3784 C1373.9219,617.8628 1373.9219,617.8628 1373.7344,617.9565 C1373.3125,618.2222 1372.625,618.3472 1371.8594,618.3472 C1369.8125,618.3472 1368.5156,617.2534 1368.5156,615.5503 L1368.5156,614.4565 C1368.5156,612.6753 1369.7656,611.3628 1371.5,611.3628 C1372.0781,611.3628 1372.6875,611.519 1373.1563,611.769 C1373.6406,612.0503 1373.8125,612.269 1373.9063,612.6753 C1373.9688,613.0815 1374,613.2065 1374.1406,613.3315 C1374.2813,613.4722 1374.5156,613.5815 1374.7344,613.5815 C1375,613.5815 1375.2656,613.4409 1375.4375,613.2222 C1375.5469,613.0659 1375.5781,612.8784 1375.5781,612.4565 L1375.5781,611.0347 C1375.5781,610.5972 1375.5625,610.4722 1375.4688,610.3159 C1375.3125,610.0503 1375.0313,609.9097 1374.7344,609.9097 C1374.4375,609.9097 1374.2344,610.0034 1374.0156,610.3159 L1373.8438,610.2378 Z " fill="#000000"/><text fill="#000000" font-family="sans-serif" font-size="12" lengthAdjust="spacing" textLength="93" x="1385.5" y="618.7202">LocalizacaoGPS</text><line style="stroke:#A80036;stroke-width:1.5;" x1="1357.5" x2="1480.5" y1="630.5659" y2="630.5659"/><text fill="#000000" font-family="sans-serif" font-size="11" lengthAdjust="spacing" textLength="47" x="1362.5" y="644.7764">-latitude</text><text fill="#000000" font-family="sans-serif" font-size="11" lengthAdjust="spacing" textLength="57" x="1362.5" y="657.5811">-longitude</text><!--MD5=[f4402668d5d5bb8485350c0fdb60ac8e]
class Scooter--><rect codeLine="78" fill="#FEFECE" filter="url(#f19z06dzamgce8)" height="78.4141" id="Scooter" style="stroke:#A80036;stroke-width:1.5;" width="134" x="1352" y="742.5659"/><ellipse cx="1391.3" cy="758.5659" fill="#ADD1B2" rx="11" ry="11" style="stroke:#A80036;stroke-width:1.0;"/><path d="M1393.6438,754.2378 C1392.7063,753.8003 1392.1125,753.6597 1391.2375,753.6597 C1388.6125,753.6597 1386.6125,755.7378 1386.6125,758.4565 L1386.6125,759.5815 C1386.6125,762.1597 1388.7219,764.0503 1391.6125,764.0503 C1392.8313,764.0503 1393.9875,763.7534 1394.7375,763.2065 C1395.3156,762.8003 1395.6438,762.3472 1395.6438,761.9565 C1395.6438,761.5034 1395.2531,761.1128 1394.7844,761.1128 C1394.5656,761.1128 1394.3625,761.1909 1394.175,761.3784 C1393.7219,761.8628 1393.7219,761.8628 1393.5344,761.9565 C1393.1125,762.2222 1392.425,762.3472 1391.6594,762.3472 C1389.6125,762.3472 1388.3156,761.2534 1388.3156,759.5503 L1388.3156,758.4565 C1388.3156,756.6753 1389.5656,755.3628 1391.3,755.3628 C1391.8781,755.3628 1392.4875,755.519 1392.9563,755.769 C1393.4406,756.0503 1393.6125,756.269 1393.7063,756.6753 C1393.7688,757.0815 1393.8,757.2065 1393.9406,757.3315 C1394.0813,757.4722 1394.3156,757.5815 1394.5344,757.5815 C1394.8,757.5815 1395.0656,757.4409 1395.2375,757.2222 C1395.3469,757.0659 1395.3781,756.8784 1395.3781,756.4565 L1395.3781,755.0347 C1395.3781,754.5972 1395.3625,754.4722 1395.2688,754.3159 C1395.1125,754.0503 1394.8313,753.9097 1394.5344,753.9097 C1394.2375,753.9097 1394.0344,754.0034 1393.8156,754.3159 L1393.6438,754.2378 Z " fill="#000000"/><text fill="#000000" font-family="sans-serif" font-size="12" lengthAdjust="spacing" textLength="48" x="1410.7" y="762.7202">Scooter</text><line style="stroke:#A80036;stroke-width:1.5;" x1="1353" x2="1485" y1="774.5659" y2="774.5659"/><text fill="#000000" font-family="sans-serif" font-size="11" lengthAdjust="spacing" textLength="58" x="1358" y="788.7764">-idScooter</text><text fill="#000000" font-family="sans-serif" font-size="11" lengthAdjust="spacing" textLength="122" x="1358" y="801.5811">-percentagemBateria</text><text fill="#000000" font-family="sans-serif" font-size="11" lengthAdjust="spacing" textLength="76" x="1358" y="814.3857">-pesoMaximo</text><!--MD5=[1a083dbe42a284ae0ea7f6f701783206]
class Parque--><rect codeLine="84" fill="#FEFECE" filter="url(#f19z06dzamgce8)" height="52.8047" id="Parque" style="stroke:#A80036;stroke-width:1.5;" width="104" x="593.5" y="738.0659"/><ellipse cx="622.45" cy="754.0659" fill="#ADD1B2" rx="11" ry="11" style="stroke:#A80036;stroke-width:1.0;"/><path d="M624.7938,749.7378 C623.8563,749.3003 623.2625,749.1597 622.3875,749.1597 C619.7625,749.1597 617.7625,751.2378 617.7625,753.9565 L617.7625,755.0815 C617.7625,757.6597 619.8719,759.5503 622.7625,759.5503 C623.9813,759.5503 625.1375,759.2534 625.8875,758.7065 C626.4656,758.3003 626.7938,757.8472 626.7938,757.4565 C626.7938,757.0034 626.4031,756.6128 625.9344,756.6128 C625.7156,756.6128 625.5125,756.6909 625.325,756.8784 C624.8719,757.3628 624.8719,757.3628 624.6844,757.4565 C624.2625,757.7222 623.575,757.8472 622.8094,757.8472 C620.7625,757.8472 619.4656,756.7534 619.4656,755.0503 L619.4656,753.9565 C619.4656,752.1753 620.7156,750.8628 622.45,750.8628 C623.0281,750.8628 623.6375,751.019 624.1063,751.269 C624.5906,751.5503 624.7625,751.769 624.8563,752.1753 C624.9188,752.5815 624.95,752.7065 625.0906,752.8315 C625.2313,752.9722 625.4656,753.0815 625.6844,753.0815 C625.95,753.0815 626.2156,752.9409 626.3875,752.7222 C626.4969,752.5659 626.5281,752.3784 626.5281,751.9565 L626.5281,750.5347 C626.5281,750.0972 626.5125,749.9722 626.4188,749.8159 C626.2625,749.5503 625.9813,749.4097 625.6844,749.4097 C625.3875,749.4097 625.1844,749.5034 624.9656,749.8159 L624.7938,749.7378 Z " fill="#000000"/><text fill="#000000" font-family="sans-serif" font-size="12" lengthAdjust="spacing" textLength="41" x="639.55" y="758.2202">Parque</text><line style="stroke:#A80036;stroke-width:1.5;" x1="594.5" x2="696.5" y1="770.0659" y2="770.0659"/><text fill="#000000" font-family="sans-serif" font-size="11" lengthAdjust="spacing" textLength="92" x="599.5" y="784.2764">-numeroMaximo</text><!--MD5=[20a748d5ee336a9a91751b0a3d4f0beb]
class Cliente--><rect codeLine="88" fill="#FEFECE" filter="url(#f19z06dzamgce8)" height="142.4375" id="Cliente" style="stroke:#A80036;stroke-width:1.5;" width="155" x="568" y="471.5659"/><ellipse cx="620.75" cy="487.5659" fill="#ADD1B2" rx="11" ry="11" style="stroke:#A80036;stroke-width:1.0;"/><path d="M623.0938,483.2378 C622.1563,482.8003 621.5625,482.6597 620.6875,482.6597 C618.0625,482.6597 616.0625,484.7378 616.0625,487.4565 L616.0625,488.5815 C616.0625,491.1597 618.1719,493.0503 621.0625,493.0503 C622.2813,493.0503 623.4375,492.7534 624.1875,492.2065 C624.7656,491.8003 625.0938,491.3472 625.0938,490.9565 C625.0938,490.5034 624.7031,490.1128 624.2344,490.1128 C624.0156,490.1128 623.8125,490.1909 623.625,490.3784 C623.1719,490.8628 623.1719,490.8628 622.9844,490.9565 C622.5625,491.2222 621.875,491.3472 621.1094,491.3472 C619.0625,491.3472 617.7656,490.2534 617.7656,488.5503 L617.7656,487.4565 C617.7656,485.6753 619.0156,484.3628 620.75,484.3628 C621.3281,484.3628 621.9375,484.519 622.4063,484.769 C622.8906,485.0503 623.0625,485.269 623.1563,485.6753 C623.2188,486.0815 623.25,486.2065 623.3906,486.3315 C623.5313,486.4722 623.7656,486.5815 623.9844,486.5815 C624.25,486.5815 624.5156,486.4409 624.6875,486.2222 C624.7969,486.0659 624.8281,485.8784 624.8281,485.4565 L624.8281,484.0347 C624.8281,483.5972 624.8125,483.4722 624.7188,483.3159 C624.5625,483.0503 624.2813,482.9097 623.9844,482.9097 C623.6875,482.9097 623.4844,483.0034 623.2656,483.3159 L623.0938,483.2378 Z " fill="#000000"/><text fill="#000000" font-family="sans-serif" font-size="12" lengthAdjust="spacing" textLength="41" x="641.25" y="491.7202">Cliente</text><line style="stroke:#A80036;stroke-width:1.5;" x1="569" x2="722" y1="503.5659" y2="503.5659"/><text fill="#000000" font-family="sans-serif" font-size="11" lengthAdjust="spacing" textLength="126" x="574" y="517.7764">-numeroCartaoCredito</text><text fill="#000000" font-family="sans-serif" font-size="11" lengthAdjust="spacing" textLength="96" x="574" y="530.5811">-dataDeValidade</text><text fill="#000000" font-family="sans-serif" font-size="11" lengthAdjust="spacing" textLength="28" x="574" y="543.3857">-CCV</text><text fill="#000000" font-family="sans-serif" font-size="11" lengthAdjust="spacing" textLength="21" x="574" y="556.1904">-NIF</text><text fill="#000000" font-family="sans-serif" font-size="11" lengthAdjust="spacing" textLength="37" x="574" y="568.9951">-nome</text><text fill="#000000" font-family="sans-serif" font-size="11" lengthAdjust="spacing" textLength="36" x="574" y="581.7998">-email</text><text fill="#000000" font-family="sans-serif" font-size="11" lengthAdjust="spacing" textLength="143" x="574" y="594.6045">-numeroSegurancaSocial</text><text fill="#000000" font-family="sans-serif" font-size="11" lengthAdjust="spacing" textLength="57" x="574" y="607.4092">-password</text><!--MD5=[055d9a59c94791d1e5417ead9eff8d01]
link Encomenda to EstadoEncomenda--><path codeLine="100" d="M1470.29,304.5659 C1504.04,304.5659 1549.03,304.5659 1586.56,304.5659 " fill="none" id="Encomenda-EstadoEncomenda" style="stroke:#A80036;stroke-width:1.0;"/><polygon fill="#000000" points="1526,296.1323,1516.9549,293.1934,1516.9549,299.0713,1526,296.1323" style="stroke:#000000;stroke-width:1.0;"/><text fill="#000000" font-family="sans-serif" font-size="13" lengthAdjust="spacing" textLength="26" x="1530" y="300.6328">tem</text><text fill="#000000" font-family="sans-serif" font-size="13" lengthAdjust="spacing" textLength="8" x="1478.0652" y="317.6677">1</text><text fill="#000000" font-family="sans-serif" font-size="13" lengthAdjust="spacing" textLength="8" x="1570.9862" y="317.3969">1</text><!--MD5=[39609d66ce6d06d1779a14455c909f6f]
link Entrega to Encomenda--><path codeLine="101" d="M1196.51,304.5659 C1241.84,304.5659 1317.76,304.5659 1367.86,304.5659 " fill="none" id="Entrega-Encomenda" style="stroke:#A80036;stroke-width:1.0;"/><polygon fill="#000000" points="1275.5,296.1323,1266.4549,293.1934,1266.4549,299.0713,1275.5,296.1323" style="stroke:#000000;stroke-width:1.0;"/><text fill="#000000" font-family="sans-serif" font-size="13" lengthAdjust="spacing" textLength="41" x="1279.5" y="300.6328">possui</text><text fill="#000000" font-family="sans-serif" font-size="13" lengthAdjust="spacing" textLength="8" x="1204.44" y="317.9897">1</text><text fill="#000000" font-family="sans-serif" font-size="13" lengthAdjust="spacing" textLength="7" x="1352.8348" y="317.7137">*</text><!--MD5=[328dae9b2f192140d45e51cd90ecd75a]
link Estafeta to Entrega--><path codeLine="102" d="M723.128,289.2709 C833.94,293.1819 1034.79,300.2699 1118.39,303.2209 " fill="none" id="Estafeta-Entrega" style="stroke:#A80036;stroke-width:1.0;"/><polygon fill="#000000" points="882.9969,281.3087,874.0611,278.0526,873.8538,283.9267,882.9969,281.3087" style="stroke:#000000;stroke-width:1.0;"/><text fill="#000000" font-family="sans-serif" font-size="13" lengthAdjust="spacing" textLength="42" x="887" y="285.6328">realiza</text><text fill="#000000" font-family="sans-serif" font-size="13" lengthAdjust="spacing" textLength="8" x="730.9082" y="302.3157">1</text><text fill="#000000" font-family="sans-serif" font-size="13" lengthAdjust="spacing" textLength="7" x="1103.5338" y="316.3967">*</text><!--MD5=[b39feb7ad9ed03cb1a05d76e3f369af6]
link Estafeta to EstadoEstafeta--><path codeLine="103" d="M723.216,270.3449 C733.224,268.3379 743.348,266.3629 753,264.5659 C873.773,242.0739 1015.58,219.3839 1094.84,207.0349 " fill="none" id="Estafeta-EstadoEstafeta" style="stroke:#A80036;stroke-width:1.0;"/><polygon fill="#000000" points="890.929,204.2926,881.5188,202.9145,882.5059,208.7088,890.929,204.2926" style="stroke:#000000;stroke-width:1.0;"/><text fill="#000000" font-family="sans-serif" font-size="13" lengthAdjust="spacing" textLength="26" x="895" y="209.6328">tem</text><text fill="#000000" font-family="sans-serif" font-size="13" lengthAdjust="spacing" textLength="8" x="731.0046" y="281.5858">1</text><text fill="#000000" font-family="sans-serif" font-size="13" lengthAdjust="spacing" textLength="8" x="1079.1324" y="221.0941">1</text><!--MD5=[aa5a8ec5fd097e3d415964f18fa48efb]
link Estafeta to Utilizador--><path codeLine="104" d="M723.096,316.2819 C733.077,319.6609 743.228,322.8579 753,325.5659 C882.528,361.4589 921.856,342.0079 1050,382.5659 C1059.86,385.6869 1070.02,389.4699 1079.97,393.5259 " fill="none" id="Estafeta-Utilizador" style="stroke:#A80036;stroke-width:1.0;"/><polygon fill="#000000" points="869.3868,318.1901,861.1682,313.4042,859.9247,319.149,869.3868,318.1901" style="stroke:#000000;stroke-width:1.0;"/><text fill="#000000" font-family="sans-serif" font-size="13" lengthAdjust="spacing" textLength="69" x="873.5" y="321.6328">atua como</text><text fill="#000000" font-family="sans-serif" font-size="13" lengthAdjust="spacing" textLength="8" x="730.8731" y="331.9012">1</text><text fill="#000000" font-family="sans-serif" font-size="13" lengthAdjust="spacing" textLength="8" x="1063.9444" y="402.6904">1</text><!--MD5=[b4161b205744775e44f73e41ced309e0]
link Administrador to Utilizador--><path codeLine="105" d="M349.233,402.7879 C488.772,405.2209 793.376,411.5059 1050,423.5659 C1059.62,424.0179 1069.73,424.5759 1079.73,425.1769 " fill="none" id="Administrador-Utilizador" style="stroke:#A80036;stroke-width:1.0;"/><polygon fill="#000000" points="613.4977,398.2855,604.5468,395.0709,604.3668,400.946,613.4977,398.2855" style="stroke:#000000;stroke-width:1.0;"/><text fill="#000000" font-family="sans-serif" font-size="13" lengthAdjust="spacing" textLength="69" x="617.5" y="402.6328">atua como</text><text fill="#000000" font-family="sans-serif" font-size="13" lengthAdjust="spacing" textLength="8" x="357.0232" y="415.6913">1</text><text fill="#000000" font-family="sans-serif" font-size="13" lengthAdjust="spacing" textLength="8" x="1063.9363" y="437.4502">1</text><!--MD5=[4fe240217702a86376bae6ca4f1a3aaa]
link Administrador to Estafeta--><path codeLine="106" d="M349.128,377.8769 C413.148,358.0859 503.979,330.0059 567.972,310.2239 " fill="none" id="Administrador-Estafeta" style="stroke:#A80036;stroke-width:1.0;"/><polygon fill="#000000" points="438.7769,309.6556,429.2674,309.5192,431.0034,315.1348,438.7769,309.6556" style="stroke:#000000;stroke-width:1.0;"/><text fill="#000000" font-family="sans-serif" font-size="13" lengthAdjust="spacing" textLength="44" x="443" y="315.6328">regista</text><text fill="#000000" font-family="sans-serif" font-size="13" lengthAdjust="spacing" textLength="8" x="356.9082" y="388.406">1</text><text fill="#000000" font-family="sans-serif" font-size="13" lengthAdjust="spacing" textLength="7" x="552.9958" y="325.3633">*</text><!--MD5=[651704aa6f94d771ebfe007ead522536]
link Administrador to Produto--><path codeLine="107" d="M340.352,349.5069 C343.357,346.5699 346.258,343.5829 349,340.5659 C365.418,322.5049 360.174,310.0999 379,294.5659 C448.962,236.8379 480.611,241.8629 568,217.5659 C966.785,106.6909 1474.08,95.4179 1618.52,94.5459 " fill="none" id="Administrador-Produto" style="stroke:#A80036;stroke-width:1.0;"/><polygon fill="#000000" points="1111.4034,102.1542,1101.9582,101.0415,1103.108,106.8058,1111.4034,102.1542" style="stroke:#000000;stroke-width:1.0;"/><text fill="#000000" font-family="sans-serif" font-size="13" lengthAdjust="spacing" textLength="97" x="1115.5" y="107.6328">insere no stock</text><text fill="#000000" font-family="sans-serif" font-size="13" lengthAdjust="spacing" textLength="8" x="341.0665" y="338.5779">1</text><text fill="#000000" font-family="sans-serif" font-size="13" lengthAdjust="spacing" textLength="7" x="1603.875" y="107.8911">*</text><!--MD5=[691aaec3d3b4d521bdebee749fdb96d9]
link Administrador to Scooter--><path codeLine="108" d="M322.378,453.7229 C377.209,507.6019 470.534,589.5669 568,631.5659 C767.039,717.3339 836.096,670.6679 1050,705.5659 C1171.08,725.3199 1202.61,724.3309 1322,752.5659 C1331.74,754.8699 1341.95,757.6019 1351.93,760.4539 " fill="none" id="Administrador-Scooter" style="stroke:#A80036;stroke-width:1.0;"/><polygon fill="#000000" points="762.7919,676.5599,754.9624,671.1608,753.2842,676.7939,762.7919,676.5599" style="stroke:#000000;stroke-width:1.0;"/><text fill="#000000" font-family="sans-serif" font-size="13" lengthAdjust="spacing" textLength="282" x="767" y="679.6328">adiciona, remove ou atualiza e cria QR code</text><text fill="#000000" font-family="sans-serif" font-size="13" lengthAdjust="spacing" textLength="8" x="320.6772" y="473.8136">1</text><text fill="#000000" font-family="sans-serif" font-size="13" lengthAdjust="spacing" textLength="7" x="1337.2114" y="771.0166">*</text><!--MD5=[6ba179a0a54b0b32b52757b8e4d27c6d]
link Administrador to Parque--><path codeLine="109" d="M275.289,453.7409 C281.917,522.8999 304.207,643.8249 379,709.5659 C387.066,716.6549 518.562,741.5889 593.405,755.3209 " fill="none" id="Administrador-Parque" style="stroke:#A80036;stroke-width:1.0;"/><polygon fill="#000000" points="387.6286,704.5723,383.0864,696.2165,379.0425,700.4822,387.6286,704.5723" style="stroke:#000000;stroke-width:1.0;"/><text fill="#000000" font-family="sans-serif" font-size="13" lengthAdjust="spacing" textLength="144" x="393" y="705.6328">define numeroMaximo</text><text fill="#000000" font-family="sans-serif" font-size="13" lengthAdjust="spacing" textLength="8" x="267.2606" y="473.834">1</text><text fill="#000000" font-family="sans-serif" font-size="13" lengthAdjust="spacing" textLength="8" x="577.5166" y="767.1655">1</text><!--MD5=[526e8b388de5574421fe4c78d4de4165]
link Endereco to LocalizacaoGPS--><path codeLine="110" d="M1202.56,633.1849 C1235.47,634.1969 1281.55,635.1979 1322,634.5659 C1333.09,634.3929 1344.89,634.1069 1356.29,633.7789 " fill="none" id="Endereco-LocalizacaoGPS" style="stroke:#A80036;stroke-width:1.0;"/><polygon fill="#000000" points="1283,626.1516,1273.9663,623.1778,1273.9436,629.0556,1283,626.1516" style="stroke:#000000;stroke-width:1.0;"/><text fill="#000000" font-family="sans-serif" font-size="13" lengthAdjust="spacing" textLength="26" x="1287" y="630.6328">tem</text><text fill="#000000" font-family="sans-serif" font-size="13" lengthAdjust="spacing" textLength="8" x="1210.3789" y="646.7313">1</text><text fill="#000000" font-family="sans-serif" font-size="13" lengthAdjust="spacing" textLength="8" x="1340.5767" y="646.9991">1</text><!--MD5=[43a7c1a046aa41d1c9842e3954366be4]
link Cliente to Endereco--><path codeLine="111" d="M723.101,569.5999 C733.081,572.5719 743.23,575.3269 753,577.5659 C881.826,607.0889 1037.75,622.2939 1112.44,628.3459 " fill="none" id="Cliente-Endereco" style="stroke:#A80036;stroke-width:1.0;"/><polygon fill="#000000" points="890.944,569.8783,882.4387,565.6228,881.5617,571.4348,890.944,569.8783" style="stroke:#000000;stroke-width:1.0;"/><text fill="#000000" font-family="sans-serif" font-size="13" lengthAdjust="spacing" textLength="26" x="895" y="573.6328">tem</text><text fill="#000000" font-family="sans-serif" font-size="13" lengthAdjust="spacing" textLength="8" x="730.8786" y="584.9438">1</text><text fill="#000000" font-family="sans-serif" font-size="13" lengthAdjust="spacing" textLength="8" x="1096.6211" y="641.1211">1</text><!--MD5=[00a2b7b20e7d7828fa181bc7c0dc6998]
link Cliente to Utilizador--><path codeLine="112" d="M723.263,516.8739 C733.217,513.8929 743.315,511.0389 753,508.5659 C865.511,479.8389 998.048,456.1129 1079.67,442.6389 " fill="none" id="Cliente-Utilizador" style="stroke:#A80036;stroke-width:1.0;"/><polygon fill="#000000" points="869.3949,438.1128,859.9406,437.08,861.1392,442.8343,869.3949,438.1128" style="stroke:#000000;stroke-width:1.0;"/><text fill="#000000" font-family="sans-serif" font-size="13" lengthAdjust="spacing" textLength="69" x="873.5" y="443.6328">atua como</text><text fill="#000000" font-family="sans-serif" font-size="13" lengthAdjust="spacing" textLength="8" x="731.056" y="527.1924">1</text><text fill="#000000" font-family="sans-serif" font-size="13" lengthAdjust="spacing" textLength="8" x="1064.1263" y="456.5152">1</text><!--MD5=[beec9e5f2ed2709028dd31c1dc478e7b]
link Cliente to Encomenda--><path codeLine="113" d="M723.244,546.7569 C861.672,553.1029 1146.96,560.2809 1235,517.5659 C1311.76,480.3229 1369.09,394.4629 1397.69,343.8579 " fill="none" id="Cliente-Encomenda" style="stroke:#A80036;stroke-width:1.0;"/><polygon fill="#000000" points="1114.788,507.6919,1105.2797,507.4833,1106.9731,513.112,1114.788,507.6919" style="stroke:#000000;stroke-width:1.0;"/><text fill="#000000" font-family="sans-serif" font-size="13" lengthAdjust="spacing" textLength="90" x="1119" y="513.6328">realiza e paga</text><text fill="#000000" font-family="sans-serif" font-size="13" lengthAdjust="spacing" textLength="8" x="731.0352" y="559.9236">1</text><text fill="#000000" font-family="sans-serif" font-size="13" lengthAdjust="spacing" textLength="7" x="1386.4258" y="363.943">*</text><!--MD5=[f440ac15537f19f21c80dc932ffd2bf8]
link Entrega to Scooter--><path codeLine="114" d="M1196.5,326.3749 C1210.16,335.7519 1224.71,347.7499 1235,361.5659 C1325.68,483.3639 1283.4,547.0979 1352,682.5659 C1362.45,703.2059 1376.39,724.7349 1388.77,742.4249 " fill="none" id="Entrega-Scooter" style="stroke:#A80036;stroke-width:1.0;"/><polygon fill="#000000" points="1267.9025,396.5936,1269.0291,406.0372,1274.3647,403.5714,1267.9025,396.5936" style="stroke:#000000;stroke-width:1.0;"/><text fill="#000000" font-family="sans-serif" font-size="13" lengthAdjust="spacing" textLength="42" x="1279" y="405.6328">realiza</text><text fill="#000000" font-family="sans-serif" font-size="13" lengthAdjust="spacing" textLength="7" x="1204.6016" y="344.002">*</text><text fill="#000000" font-family="sans-serif" font-size="13" lengthAdjust="spacing" textLength="8" x="1374.8867" y="731.4512">1</text><!--MD5=[db4a5ac14aaeb2d946b80db0d46ff947]
link Farmacia to Produto--><path codeLine="115" d="M53.6017,374.9859 C63.6221,288.9449 107.722,23.5659 270.5,23.5659 C270.5,23.5659 270.5,23.5659 1420,23.5659 C1492.36,23.5659 1572.14,53.9609 1618.64,74.9769 " fill="none" id="Farmacia-Produto" style="stroke:#A80036;stroke-width:1.0;"/><polygon fill="#000000" points="890.9106,14.191,881.4739,13.0075,882.5806,18.7803,890.9106,14.191" style="stroke:#000000;stroke-width:1.0;"/><text fill="#000000" font-family="sans-serif" font-size="13" lengthAdjust="spacing" textLength="26" x="895" y="19.6328">tem</text><text fill="#000000" font-family="sans-serif" font-size="13" lengthAdjust="spacing" textLength="8" x="45.5096" y="364.2098">1</text><text fill="#000000" font-family="sans-serif" font-size="13" lengthAdjust="spacing" textLength="7" x="1604.0156" y="84.9586">*</text><!--MD5=[60097591193c89dbde5dfd99b98b5263]
link Encomenda to Produto--><path codeLine="116" d="M1464.3,265.5589 C1508.62,226.5349 1576.17,167.0589 1618.79,129.5279 " fill="none" id="Encomenda-Produto" style="stroke:#A80036;stroke-width:1.0;"/><polygon fill="#000000" points="1524.7526,174.8281,1516.0219,178.5998,1519.9063,183.0112,1524.7526,174.8281" style="stroke:#000000;stroke-width:1.0;"/><text fill="#000000" font-family="sans-serif" font-size="13" lengthAdjust="spacing" textLength="26" x="1530" y="182.6328">tem</text><text fill="#000000" font-family="sans-serif" font-size="13" lengthAdjust="spacing" textLength="8" x="1463.3984" y="254.6083">1</text><text fill="#000000" font-family="sans-serif" font-size="13" lengthAdjust="spacing" textLength="7" x="1603.9151" y="149.1507">*</text><!--MD5=[4f96609c99ecadb81dc825d0ae539cef]
link Farmacia to Parque--><path codeLine="117" d="M66.7586,428.1669 C108.074,495.0939 226.916,670.2699 379,742.5659 C447.715,775.2309 537.747,774.9999 593.328,770.6629 " fill="none" id="Farmacia-Parque" style="stroke:#A80036;stroke-width:1.0;"/><polygon fill="#000000" points="252.6914,592.8585,246.7115,585.4631,243.5067,590.3904,252.6914,592.8585" style="stroke:#000000;stroke-width:1.0;"/><text fill="#000000" font-family="sans-serif" font-size="13" lengthAdjust="spacing" textLength="41" x="257.5" y="594.6328">possui</text><text fill="#000000" font-family="sans-serif" font-size="13" lengthAdjust="spacing" textLength="8" x="61.5495" y="447.7293">1</text><text fill="#000000" font-family="sans-serif" font-size="13" lengthAdjust="spacing" textLength="8" x="577.4288" y="784.665">1</text><!--MD5=[1dbffbca5cb534c4a76478e59708cd36]
link Parque to Scooter--><path codeLine="118" d="M697.718,765.6949 C833.177,768.6789 1200.8,776.7799 1351.84,780.1079 " fill="none" id="Parque-Scooter" style="stroke:#A80036;stroke-width:1.0;"/><polygon fill="#000000" points="1139.4988,765.2425,1130.5206,762.105,1130.3912,767.9814,1139.4988,765.2425" style="stroke:#000000;stroke-width:1.0;"/><text fill="#000000" font-family="sans-serif" font-size="13" lengthAdjust="spacing" textLength="41" x="1143.5" y="769.6328">possui</text><text fill="#000000" font-family="sans-serif" font-size="13" lengthAdjust="spacing" textLength="8" x="705.6237" y="778.9983">1</text><text fill="#000000" font-family="sans-serif" font-size="13" lengthAdjust="spacing" textLength="7" x="1337.1116" y="792.8203">*</text><!--MD5=[a2a2090add754c369046d46612be986d]
link Farmacia to Scooter--><path codeLine="119" d="M55.2413,428.2469 C73.8602,540.7399 152.708,970.5659 270.5,970.5659 C270.5,970.5659 270.5,970.5659 1158.5,970.5659 C1259.38,970.5659 1347.33,876.0861 1390.21,820.7269 " fill="none" id="Farmacia-Scooter" style="stroke:#A80036;stroke-width:1.0;"/><polygon fill="#000000" points="627.297,963.5426,619.4481,958.1718,617.7902,963.811,627.297,963.5426" style="stroke:#000000;stroke-width:1.0;"/><text fill="#000000" font-family="sans-serif" font-size="13" lengthAdjust="spacing" textLength="41" x="631.5" y="966.6328">possui</text><text fill="#000000" font-family="sans-serif" font-size="13" lengthAdjust="spacing" textLength="8" x="47.5128" y="447.8268">1</text><text fill="#000000" font-family="sans-serif" font-size="13" lengthAdjust="spacing" textLength="7" x="1377.4583" y="841.0803">*</text><!--MD5=[65c0b4ced80642714d633a5480d06ed6]
link Parque to Endereco--><path codeLine="120" d="M697.57,763.6989 C791.561,761.4589 988.001,753.5969 1050,726.5659 C1084.52,711.5149 1115.59,680.8459 1135.14,658.4109 " fill="none" id="Parque-Endereco" style="stroke:#A80036;stroke-width:1.0;"/><polygon fill="#000000" points="890.8613,716.9626,881.3796,716.2213,882.7547,721.936,890.8613,716.9626" style="stroke:#000000;stroke-width:1.0;"/><text fill="#000000" font-family="sans-serif" font-size="13" lengthAdjust="spacing" textLength="26" x="895" y="722.6328">tem</text><text fill="#000000" font-family="sans-serif" font-size="13" lengthAdjust="spacing" textLength="8" x="705.4548" y="759.6123">1</text><text fill="#000000" font-family="sans-serif" font-size="13" lengthAdjust="spacing" textLength="8" x="1121.3738" y="678.0267">1</text><!--MD5=[3f261229c7309ba030e97986da9f3259]
link Parque to Estacionamento--><path codeLine="121" d="M685.824,791.3009 C705.249,803.2869 729.513,816.5119 753,824.5659 C869.066,864.3649 1012.84,877.7755 1093.66,882.2867 " fill="none" id="Parque-Estacionamento" style="stroke:#A80036;stroke-width:1.0;"/><polygon fill="#000000" points="890.88,817.221,882.6919,812.3831,881.412,818.12,890.88,817.221" style="stroke:#000000;stroke-width:1.0;"/><text fill="#000000" font-family="sans-serif" font-size="13" lengthAdjust="spacing" textLength="26" x="895" y="820.6328">tem</text><text fill="#000000" font-family="sans-serif" font-size="13" lengthAdjust="spacing" textLength="8" x="685.7699" y="810.8926">1</text><text fill="#000000" font-family="sans-serif" font-size="13" lengthAdjust="spacing" textLength="7" x="1078.8738" y="894.9875">*</text><!--MD5=[cb91050c5ff0237eb3e241187abe3f74]
link Estacionamento to Scooter--><path codeLine="122" d="M1221,862.7799 C1251.63,851.8109 1288.95,838.0119 1322,824.5659 C1331.73,820.6089 1341.93,816.2599 1351.9,811.8949 " fill="none" id="Estacionamento-Scooter" style="stroke:#A80036;stroke-width:1.0;"/><polygon fill="#000000" points="1282.6603,814.3207,1273.1649,814.8587,1275.2946,820.3372,1282.6603,814.3207" style="stroke:#000000;stroke-width:1.0;"/><text fill="#000000" font-family="sans-serif" font-size="13" lengthAdjust="spacing" textLength="26" x="1287" y="820.6328">tem</text><text fill="#000000" font-family="sans-serif" font-size="13" lengthAdjust="spacing" textLength="8" x="1228.8047" y="873.2253">1</text><text fill="#000000" font-family="sans-serif" font-size="13" lengthAdjust="spacing" textLength="8" x="1336.1234" y="828.084">1</text><!--MD5=[06143d4fc5f7e61d4193d2b4f541983b]
link Farmacia to Estafeta--><path codeLine="123" d="M93.0141,377.8819 C120.908,363.0229 158.748,344.4859 194,332.5659 C320.05,289.9429 476.341,283.5719 567.789,284.1489 " fill="none" id="Farmacia-Estafeta" style="stroke:#A80036;stroke-width:1.0;"/><polygon fill="#000000" points="260.9053,288.1639,251.4623,287.0325,252.6007,292.7991,260.9053,288.1639" style="stroke:#000000;stroke-width:1.0;"/><text fill="#000000" font-family="sans-serif" font-size="13" lengthAdjust="spacing" textLength="26" x="265" y="293.6328">tem</text><text fill="#000000" font-family="sans-serif" font-size="13" lengthAdjust="spacing" textLength="8" x="101.0946" y="387.1954">1</text><text fill="#000000" font-family="sans-serif" font-size="13" lengthAdjust="spacing" textLength="7" x="553.0486" y="296.7055">*</text><!--MD5=[1eb578f81baca05fae5600e8efb79c07]
link Farmacia to Administrador--><path codeLine="124" d="M93.0621,401.5659 C121.569,401.5659 160.071,401.5659 193.925,401.5659 " fill="none" id="Farmacia-Administrador" style="stroke:#A80036;stroke-width:1.0;"/><polygon fill="#000000" points="133,393.1323,123.9549,390.1934,123.9549,396.0713,133,393.1323" style="stroke:#000000;stroke-width:1.0;"/><text fill="#000000" font-family="sans-serif" font-size="13" lengthAdjust="spacing" textLength="26" x="137" y="397.6328">tem</text><text fill="#000000" font-family="sans-serif" font-size="13" lengthAdjust="spacing" textLength="8" x="100.8568" y="414.9022">1</text><text fill="#000000" font-family="sans-serif" font-size="13" lengthAdjust="spacing" textLength="8" x="177.895" y="414.3765">1</text><!--MD5=[edbd3fc7af74288578aad9913cc2f455]
@startuml
skinparam classAttributeIconSize 0
hide methods
left to right direction

class Entrega {
  -idEntrega
  -dataInicio
  -dataFim
}

class Encomenda {
  -idEncomenda
  -dataPedida
  -preco
}

class EstadoEncomenda {
  -id_estado_encomenda
  -designacao
}

class Produto {
  -idProduto
  -designacao
  -peso
  -precoBase
}

class Farmacia {
  -NIF
}


class Estacionamento {
  -numeroLote
  -carregador
}

class Estafeta {
  -NIF
  -nome
  -email
  -numeroSegurancaSocial
  -password
}

class EstadoEstafeta {
  -id_estado_estafeta
  -designacao
}

class Utilizador {
  -NIF
  -nome
  -email
  -numeroSegurancaSocial
  -password
}

class Administrador {
  -NIF
  -nome
  -email
  -numeroSegurancaSocial
  -password
}

class Endereco {
  -morada
}

class LocalizacaoGPS {
  -latitude
  -longitude
}


class Scooter {
  -idScooter
  -percentagemBateria
  -pesoMaximo
}

class Parque {
  -numeroMaximo
}

class Cliente {
  -numeroCartaoCredito
  -dataDeValidade
  -CCV
  -NIF
  -nome
  -email
  -numeroSegurancaSocial
  -password
}


Encomenda "1" - - "1" EstadoEncomenda : tem >
Entrega "1" - - "*" Encomenda : possui >
Estafeta "1" - - "*" Entrega: realiza >
Estafeta "1" - - "1" EstadoEstafeta: tem >
Estafeta "1" - - "1" Utilizador: atua como >
Administrador "1" - - "1" Utilizador: atua como >
Administrador "1" - - "*" Estafeta: regista >
Administrador "1" - - "*" Produto: insere no stock >
Administrador "1" - - "*" Scooter: adiciona, remove ou atualiza e cria QR code >
Administrador "1" - - "1" Parque: define numeroMaximo >
Endereco "1" - - "1" LocalizacaoGPS: tem >
Cliente "1" - - "1" Endereco: tem >
Cliente "1" - - "1" Utilizador: atua como >
Cliente "1" - - "*" Encomenda: realiza e paga >
Entrega "*" - - "1" Scooter: realiza <
Farmacia "1" - - "*" Produto: tem >
Encomenda "1" - - "*" Produto: tem >
Farmacia "1" - - "1" Parque: possui >
Parque "1" - - "*" Scooter: possui >
Farmacia "1" - - "*" Scooter: possui >
Parque "1" - - "1" Endereco: tem >
Parque "1" - - "*" Estacionamento: tem >
Estacionamento "1" - - "1" Scooter: tem >
Farmacia "1" - - "*" Estafeta: tem >
Farmacia "1" - - "1" Administrador: tem >
@enduml

PlantUML version 1.2020.27beta7(Unknown compile time)
(GPL source distribution)
Java Runtime: Java(TM) SE Runtime Environment
JVM: Java HotSpot(TM) 64-Bit Server VM
Default Encoding: UTF-8
Language: en
Country: US
--></g></svg>