<?xml version="1.0" encoding="UTF-8" standalone="no"?><svg xmlns="http://www.w3.org/2000/svg" xmlns:xlink="http://www.w3.org/1999/xlink" contentScriptType="application/ecmascript" contentStyleType="text/css" height="1613px" preserveAspectRatio="none" style="width:1790px;height:1613px;" version="1.1" viewBox="0 0 1790 1613" width="1790px" zoomAndPan="magnify"><defs><filter height="300%" id="fmd5ma2hsus3v" width="300%" x="-1" y="-1"><feGaussianBlur result="blurOut" stdDeviation="2.0"/><feColorMatrix in="blurOut" result="blurOut2" type="matrix" values="0 0 0 0 0 0 0 0 0 0 0 0 0 0 0 0 0 0 .4 0"/><feOffset dx="4.0" dy="4.0" in="blurOut2" result="blurOut3"/><feBlend in="SourceGraphic" in2="blurOut3" mode="normal"/></filter></defs><g><!--MD5=[3179f819b5ca0f9c8a1bd58e9144681b]
class Entrega--><rect codeLine="5" fill="#FEFECE" filter="url(#fmd5ma2hsus3v)" height="91.2188" id="Entrega" style="stroke:#A80036;stroke-width:1.5;" width="88" x="1144.5" y="525.0689"/><ellipse cx="1164" cy="541.0689" fill="#ADD1B2" rx="11" ry="11" style="stroke:#A80036;stroke-width:1.0;"/><path d="M1166.3438,536.7408 C1165.4063,536.3033 1164.8125,536.1627 1163.9375,536.1627 C1161.3125,536.1627 1159.3125,538.2408 1159.3125,540.9595 L1159.3125,542.0845 C1159.3125,544.6627 1161.4219,546.5533 1164.3125,546.5533 C1165.5313,546.5533 1166.6875,546.2564 1167.4375,545.7095 C1168.0156,545.3033 1168.3438,544.8502 1168.3438,544.4595 C1168.3438,544.0064 1167.9531,543.6158 1167.4844,543.6158 C1167.2656,543.6158 1167.0625,543.6939 1166.875,543.8814 C1166.4219,544.3658 1166.4219,544.3658 1166.2344,544.4595 C1165.8125,544.7252 1165.125,544.8502 1164.3594,544.8502 C1162.3125,544.8502 1161.0156,543.7564 1161.0156,542.0533 L1161.0156,540.9595 C1161.0156,539.1783 1162.2656,537.8658 1164,537.8658 C1164.5781,537.8658 1165.1875,538.022 1165.6563,538.272 C1166.1406,538.5533 1166.3125,538.772 1166.4063,539.1783 C1166.4688,539.5845 1166.5,539.7095 1166.6406,539.8345 C1166.7813,539.9752 1167.0156,540.0845 1167.2344,540.0845 C1167.5,540.0845 1167.7656,539.9439 1167.9375,539.7252 C1168.0469,539.5689 1168.0781,539.3814 1168.0781,538.9595 L1168.0781,537.5377 C1168.0781,537.1002 1168.0625,536.9752 1167.9688,536.8189 C1167.8125,536.5533 1167.5313,536.4127 1167.2344,536.4127 C1166.9375,536.4127 1166.7344,536.5064 1166.5156,536.8189 L1166.3438,536.7408 Z " fill="#000000"/><text fill="#000000" font-family="sans-serif" font-size="12" lengthAdjust="spacing" textLength="46" x="1179" y="545.2232">Entrega</text><line style="stroke:#A80036;stroke-width:1.5;" x1="1145.5" x2="1231.5" y1="557.0689" y2="557.0689"/><text fill="#000000" font-family="sans-serif" font-size="11" lengthAdjust="spacing" textLength="58" x="1150.5" y="571.2794">-idEntrega</text><text fill="#000000" font-family="sans-serif" font-size="11" lengthAdjust="spacing" textLength="58" x="1150.5" y="584.0841">-dataInicio</text><text fill="#000000" font-family="sans-serif" font-size="11" lengthAdjust="spacing" textLength="49" x="1150.5" y="596.8887">-dataFim</text><text fill="#000000" font-family="sans-serif" font-size="11" lengthAdjust="spacing" textLength="76" x="1150.5" y="609.6934">-pesoEntrega</text><!--MD5=[c55f92ccbf0646788158d42f3399cc78]
class Encomenda--><rect codeLine="12" fill="#FEFECE" filter="url(#fmd5ma2hsus3v)" height="104.0234" id="Encomenda" style="stroke:#A80036;stroke-width:1.5;" width="111" x="1394.5" y="1127.5689"/><ellipse cx="1413.55" cy="1143.5689" fill="#ADD1B2" rx="11" ry="11" style="stroke:#A80036;stroke-width:1.0;"/><path d="M1415.8938,1139.2408 C1414.9563,1138.8033 1414.3625,1138.6627 1413.4875,1138.6627 C1410.8625,1138.6627 1408.8625,1140.7408 1408.8625,1143.4595 L1408.8625,1144.5845 C1408.8625,1147.1627 1410.9719,1149.0533 1413.8625,1149.0533 C1415.0813,1149.0533 1416.2375,1148.7564 1416.9875,1148.2095 C1417.5656,1147.8033 1417.8938,1147.3502 1417.8938,1146.9595 C1417.8938,1146.5064 1417.5031,1146.1158 1417.0344,1146.1158 C1416.8156,1146.1158 1416.6125,1146.1939 1416.425,1146.3814 C1415.9719,1146.8658 1415.9719,1146.8658 1415.7844,1146.9595 C1415.3625,1147.2252 1414.675,1147.3502 1413.9094,1147.3502 C1411.8625,1147.3502 1410.5656,1146.2564 1410.5656,1144.5533 L1410.5656,1143.4595 C1410.5656,1141.6783 1411.8156,1140.3658 1413.55,1140.3658 C1414.1281,1140.3658 1414.7375,1140.522 1415.2063,1140.772 C1415.6906,1141.0533 1415.8625,1141.272 1415.9563,1141.6783 C1416.0188,1142.0845 1416.05,1142.2095 1416.1906,1142.3345 C1416.3313,1142.4752 1416.5656,1142.5845 1416.7844,1142.5845 C1417.05,1142.5845 1417.3156,1142.4439 1417.4875,1142.2252 C1417.5969,1142.0689 1417.6281,1141.8814 1417.6281,1141.4595 L1417.6281,1140.0377 C1417.6281,1139.6002 1417.6125,1139.4752 1417.5188,1139.3189 C1417.3625,1139.0533 1417.0813,1138.9127 1416.7844,1138.9127 C1416.4875,1138.9127 1416.2844,1139.0064 1416.0656,1139.3189 L1415.8938,1139.2408 Z " fill="#000000"/><text fill="#000000" font-family="sans-serif" font-size="12" lengthAdjust="spacing" textLength="70" x="1428.45" y="1147.7232">Encomenda</text><line style="stroke:#A80036;stroke-width:1.5;" x1="1395.5" x2="1504.5" y1="1159.5689" y2="1159.5689"/><text fill="#000000" font-family="sans-serif" font-size="11" lengthAdjust="spacing" textLength="81" x="1400.5" y="1173.7794">-idEncomenda</text><text fill="#000000" font-family="sans-serif" font-size="11" lengthAdjust="spacing" textLength="67" x="1400.5" y="1186.5841">-dataPedida</text><text fill="#000000" font-family="sans-serif" font-size="11" lengthAdjust="spacing" textLength="36" x="1400.5" y="1199.3887">-preco</text><text fill="#000000" font-family="sans-serif" font-size="11" lengthAdjust="spacing" textLength="99" x="1400.5" y="1212.1934">-pesoEncomenda</text><text fill="#000000" font-family="sans-serif" font-size="11" lengthAdjust="spacing" textLength="29" x="1400.5" y="1224.9981">-taxa</text><!--MD5=[533e824b6b94274ee39bf5a43d7cce2a]
class EstadoEncomenda--><rect codeLine="20" fill="#FEFECE" filter="url(#fmd5ma2hsus3v)" height="65.6094" id="EstadoEncomenda" style="stroke:#A80036;stroke-width:1.5;" width="143" x="1633" y="1157.5689"/><ellipse cx="1648" cy="1173.5689" fill="#ADD1B2" rx="11" ry="11" style="stroke:#A80036;stroke-width:1.0;"/><path d="M1650.3438,1169.2408 C1649.4063,1168.8033 1648.8125,1168.6627 1647.9375,1168.6627 C1645.3125,1168.6627 1643.3125,1170.7408 1643.3125,1173.4595 L1643.3125,1174.5845 C1643.3125,1177.1627 1645.4219,1179.0533 1648.3125,1179.0533 C1649.5313,1179.0533 1650.6875,1178.7564 1651.4375,1178.2095 C1652.0156,1177.8033 1652.3438,1177.3502 1652.3438,1176.9595 C1652.3438,1176.5064 1651.9531,1176.1158 1651.4844,1176.1158 C1651.2656,1176.1158 1651.0625,1176.1939 1650.875,1176.3814 C1650.4219,1176.8658 1650.4219,1176.8658 1650.2344,1176.9595 C1649.8125,1177.2252 1649.125,1177.3502 1648.3594,1177.3502 C1646.3125,1177.3502 1645.0156,1176.2564 1645.0156,1174.5533 L1645.0156,1173.4595 C1645.0156,1171.6783 1646.2656,1170.3658 1648,1170.3658 C1648.5781,1170.3658 1649.1875,1170.522 1649.6563,1170.772 C1650.1406,1171.0533 1650.3125,1171.272 1650.4063,1171.6783 C1650.4688,1172.0845 1650.5,1172.2095 1650.6406,1172.3345 C1650.7813,1172.4752 1651.0156,1172.5845 1651.2344,1172.5845 C1651.5,1172.5845 1651.7656,1172.4439 1651.9375,1172.2252 C1652.0469,1172.0689 1652.0781,1171.8814 1652.0781,1171.4595 L1652.0781,1170.0377 C1652.0781,1169.6002 1652.0625,1169.4752 1651.9688,1169.3189 C1651.8125,1169.0533 1651.5313,1168.9127 1651.2344,1168.9127 C1650.9375,1168.9127 1650.7344,1169.0064 1650.5156,1169.3189 L1650.3438,1169.2408 Z " fill="#000000"/><text fill="#000000" font-family="sans-serif" font-size="12" lengthAdjust="spacing" textLength="111" x="1662" y="1177.7232">EstadoEncomenda</text><line style="stroke:#A80036;stroke-width:1.5;" x1="1634" x2="1775" y1="1189.5689" y2="1189.5689"/><text fill="#000000" font-family="sans-serif" font-size="11" lengthAdjust="spacing" textLength="119" x="1639" y="1203.7794">-idEstadoEncomenda</text><text fill="#000000" font-family="sans-serif" font-size="11" lengthAdjust="spacing" textLength="69" x="1639" y="1216.5841">-designacao</text><!--MD5=[d4dacc50d49878ba7c621dfc80a2e1ce]
class Produto--><rect codeLine="25" fill="#FEFECE" filter="url(#fmd5ma2hsus3v)" height="91.2188" id="Produto" style="stroke:#A80036;stroke-width:1.5;" width="81" x="1664" y="194.0659"/><ellipse cx="1680.35" cy="210.0659" fill="#ADD1B2" rx="11" ry="11" style="stroke:#A80036;stroke-width:1.0;"/><path d="M1682.6938,205.7378 C1681.7563,205.3003 1681.1625,205.1597 1680.2875,205.1597 C1677.6625,205.1597 1675.6625,207.2378 1675.6625,209.9565 L1675.6625,211.0815 C1675.6625,213.6597 1677.7719,215.5503 1680.6625,215.5503 C1681.8813,215.5503 1683.0375,215.2534 1683.7875,214.7065 C1684.3656,214.3003 1684.6938,213.8472 1684.6938,213.4565 C1684.6938,213.0034 1684.3031,212.6128 1683.8344,212.6128 C1683.6156,212.6128 1683.4125,212.6909 1683.225,212.8784 C1682.7719,213.3628 1682.7719,213.3628 1682.5844,213.4565 C1682.1625,213.7222 1681.475,213.8472 1680.7094,213.8472 C1678.6625,213.8472 1677.3656,212.7534 1677.3656,211.0503 L1677.3656,209.9565 C1677.3656,208.1753 1678.6156,206.8628 1680.35,206.8628 C1680.9281,206.8628 1681.5375,207.019 1682.0063,207.269 C1682.4906,207.5503 1682.6625,207.769 1682.7563,208.1753 C1682.8188,208.5815 1682.85,208.7065 1682.9906,208.8315 C1683.1313,208.9722 1683.3656,209.0815 1683.5844,209.0815 C1683.85,209.0815 1684.1156,208.9409 1684.2875,208.7222 C1684.3969,208.5659 1684.4281,208.3784 1684.4281,207.9565 L1684.4281,206.5347 C1684.4281,206.0972 1684.4125,205.9722 1684.3188,205.8159 C1684.1625,205.5503 1683.8813,205.4097 1683.5844,205.4097 C1683.2875,205.4097 1683.0844,205.5034 1682.8656,205.8159 L1682.6938,205.7378 Z " fill="#000000"/><text fill="#000000" font-family="sans-serif" font-size="12" lengthAdjust="spacing" textLength="46" x="1694.65" y="214.2202">Produto</text><line style="stroke:#A80036;stroke-width:1.5;" x1="1665" x2="1744" y1="226.0659" y2="226.0659"/><text fill="#000000" font-family="sans-serif" font-size="11" lengthAdjust="spacing" textLength="56" x="1670" y="240.2764">-idProduto</text><text fill="#000000" font-family="sans-serif" font-size="11" lengthAdjust="spacing" textLength="69" x="1670" y="253.0811">-designacao</text><text fill="#000000" font-family="sans-serif" font-size="11" lengthAdjust="spacing" textLength="32" x="1670" y="265.8857">-peso</text><text fill="#000000" font-family="sans-serif" font-size="11" lengthAdjust="spacing" textLength="65" x="1670" y="278.6904">-precoBase</text><!--MD5=[6613c9cd406ef433ff06f5e98b28abd9]
class Farmacia--><rect codeLine="32" fill="#FEFECE" filter="url(#fmd5ma2hsus3v)" height="65.6094" id="Farmacia" style="stroke:#A80036;stroke-width:1.5;" width="86" x="7" y="733.5689"/><ellipse cx="22" cy="749.5689" fill="#ADD1B2" rx="11" ry="11" style="stroke:#A80036;stroke-width:1.0;"/><path d="M24.3438,745.2408 C23.4063,744.8033 22.8125,744.6627 21.9375,744.6627 C19.3125,744.6627 17.3125,746.7408 17.3125,749.4595 L17.3125,750.5845 C17.3125,753.1627 19.4219,755.0533 22.3125,755.0533 C23.5313,755.0533 24.6875,754.7564 25.4375,754.2095 C26.0156,753.8033 26.3438,753.3502 26.3438,752.9595 C26.3438,752.5064 25.9531,752.1158 25.4844,752.1158 C25.2656,752.1158 25.0625,752.1939 24.875,752.3814 C24.4219,752.8658 24.4219,752.8658 24.2344,752.9595 C23.8125,753.2252 23.125,753.3502 22.3594,753.3502 C20.3125,753.3502 19.0156,752.2564 19.0156,750.5533 L19.0156,749.4595 C19.0156,747.6783 20.2656,746.3658 22,746.3658 C22.5781,746.3658 23.1875,746.522 23.6563,746.772 C24.1406,747.0533 24.3125,747.272 24.4063,747.6783 C24.4688,748.0845 24.5,748.2095 24.6406,748.3345 C24.7813,748.4752 25.0156,748.5845 25.2344,748.5845 C25.5,748.5845 25.7656,748.4439 25.9375,748.2252 C26.0469,748.0689 26.0781,747.8814 26.0781,747.4595 L26.0781,746.0377 C26.0781,745.6002 26.0625,745.4752 25.9688,745.3189 C25.8125,745.0533 25.5313,744.9127 25.2344,744.9127 C24.9375,744.9127 24.7344,745.0064 24.5156,745.3189 L24.3438,745.2408 Z " fill="#000000"/><text fill="#000000" font-family="sans-serif" font-size="12" lengthAdjust="spacing" textLength="54" x="36" y="753.7232">Farmacia</text><line style="stroke:#A80036;stroke-width:1.5;" x1="8" x2="92" y1="765.5689" y2="765.5689"/><text fill="#000000" font-family="sans-serif" font-size="11" lengthAdjust="spacing" textLength="21" x="13" y="779.7794">-NIF</text><text fill="#000000" font-family="sans-serif" font-size="11" lengthAdjust="spacing" textLength="36" x="13" y="792.5841">-email</text><!--MD5=[01c6d29ab1d1d1270bcd189edce73511]
class Recibo--><rect codeLine="37" fill="#FEFECE" filter="url(#fmd5ma2hsus3v)" height="78.4141" id="Recibo" style="stroke:#A80036;stroke-width:1.5;" width="79" x="1665" y="1278.5689"/><ellipse cx="1682.7" cy="1294.5689" fill="#ADD1B2" rx="11" ry="11" style="stroke:#A80036;stroke-width:1.0;"/><path d="M1685.0438,1290.2408 C1684.1063,1289.8033 1683.5125,1289.6627 1682.6375,1289.6627 C1680.0125,1289.6627 1678.0125,1291.7408 1678.0125,1294.4595 L1678.0125,1295.5845 C1678.0125,1298.1627 1680.1219,1300.0533 1683.0125,1300.0533 C1684.2313,1300.0533 1685.3875,1299.7564 1686.1375,1299.2095 C1686.7156,1298.8033 1687.0438,1298.3502 1687.0438,1297.9595 C1687.0438,1297.5064 1686.6531,1297.1158 1686.1844,1297.1158 C1685.9656,1297.1158 1685.7625,1297.1939 1685.575,1297.3814 C1685.1219,1297.8658 1685.1219,1297.8658 1684.9344,1297.9595 C1684.5125,1298.2252 1683.825,1298.3502 1683.0594,1298.3502 C1681.0125,1298.3502 1679.7156,1297.2564 1679.7156,1295.5533 L1679.7156,1294.4595 C1679.7156,1292.6783 1680.9656,1291.3658 1682.7,1291.3658 C1683.2781,1291.3658 1683.8875,1291.522 1684.3563,1291.772 C1684.8406,1292.0533 1685.0125,1292.272 1685.1063,1292.6783 C1685.1688,1293.0845 1685.2,1293.2095 1685.3406,1293.3345 C1685.4813,1293.4752 1685.7156,1293.5845 1685.9344,1293.5845 C1686.2,1293.5845 1686.4656,1293.4439 1686.6375,1293.2252 C1686.7469,1293.0689 1686.7781,1292.8814 1686.7781,1292.4595 L1686.7781,1291.0377 C1686.7781,1290.6002 1686.7625,1290.4752 1686.6688,1290.3189 C1686.5125,1290.0533 1686.2313,1289.9127 1685.9344,1289.9127 C1685.6375,1289.9127 1685.4344,1290.0064 1685.2156,1290.3189 L1685.0438,1290.2408 Z " fill="#000000"/><text fill="#000000" font-family="sans-serif" font-size="12" lengthAdjust="spacing" textLength="41" x="1697.3" y="1298.7232">Recibo</text><line style="stroke:#A80036;stroke-width:1.5;" x1="1666" x2="1743" y1="1310.5689" y2="1310.5689"/><text fill="#000000" font-family="sans-serif" font-size="11" lengthAdjust="spacing" textLength="52" x="1671" y="1324.7794">-idRecibo</text><text fill="#000000" font-family="sans-serif" font-size="11" lengthAdjust="spacing" textLength="67" x="1671" y="1337.5841">-dataRecibo</text><text fill="#000000" font-family="sans-serif" font-size="11" lengthAdjust="spacing" textLength="36" x="1671" y="1350.3887">-preco</text><!--MD5=[d6f7ff8a01a1f4d455865514bc16ec87]
class Estacionamento--><rect codeLine="43" fill="#FEFECE" filter="url(#fmd5ma2hsus3v)" height="65.6094" id="Estacionamento" style="stroke:#A80036;stroke-width:1.5;" width="127" x="1125" y="948.5689"/><ellipse cx="1140" cy="964.5689" fill="#ADD1B2" rx="11" ry="11" style="stroke:#A80036;stroke-width:1.0;"/><path d="M1142.3438,960.2408 C1141.4063,959.8033 1140.8125,959.6627 1139.9375,959.6627 C1137.3125,959.6627 1135.3125,961.7408 1135.3125,964.4595 L1135.3125,965.5845 C1135.3125,968.1627 1137.4219,970.0533 1140.3125,970.0533 C1141.5313,970.0533 1142.6875,969.7564 1143.4375,969.2095 C1144.0156,968.8033 1144.3438,968.3502 1144.3438,967.9595 C1144.3438,967.5064 1143.9531,967.1158 1143.4844,967.1158 C1143.2656,967.1158 1143.0625,967.1939 1142.875,967.3814 C1142.4219,967.8658 1142.4219,967.8658 1142.2344,967.9595 C1141.8125,968.2252 1141.125,968.3502 1140.3594,968.3502 C1138.3125,968.3502 1137.0156,967.2564 1137.0156,965.5533 L1137.0156,964.4595 C1137.0156,962.6783 1138.2656,961.3658 1140,961.3658 C1140.5781,961.3658 1141.1875,961.522 1141.6563,961.772 C1142.1406,962.0533 1142.3125,962.272 1142.4063,962.6783 C1142.4688,963.0845 1142.5,963.2095 1142.6406,963.3345 C1142.7813,963.4752 1143.0156,963.5845 1143.2344,963.5845 C1143.5,963.5845 1143.7656,963.4439 1143.9375,963.2252 C1144.0469,963.0689 1144.0781,962.8814 1144.0781,962.4595 L1144.0781,961.0377 C1144.0781,960.6002 1144.0625,960.4752 1143.9688,960.3189 C1143.8125,960.0533 1143.5313,959.9127 1143.2344,959.9127 C1142.9375,959.9127 1142.7344,960.0064 1142.5156,960.3189 L1142.3438,960.2408 Z " fill="#000000"/><text fill="#000000" font-family="sans-serif" font-size="12" lengthAdjust="spacing" textLength="95" x="1154" y="968.7232">Estacionamento</text><line style="stroke:#A80036;stroke-width:1.5;" x1="1126" x2="1251" y1="980.5689" y2="980.5689"/><text fill="#000000" font-family="sans-serif" font-size="11" lengthAdjust="spacing" textLength="73" x="1131" y="994.7794">-numeroLote</text><text fill="#000000" font-family="sans-serif" font-size="11" lengthAdjust="spacing" textLength="65" x="1131" y="1007.5841">-carregador</text><!--MD5=[3f1202280bfe3359d2f91fb9b6e32986]
class Estafeta--><rect codeLine="48" fill="#FEFECE" filter="url(#fmd5ma2hsus3v)" height="52.8047" id="Estafeta" style="stroke:#A80036;stroke-width:1.5;" width="91" x="626" y="579.0689"/><ellipse cx="645.95" cy="595.0689" fill="#ADD1B2" rx="11" ry="11" style="stroke:#A80036;stroke-width:1.0;"/><path d="M648.2938,590.7408 C647.3563,590.3033 646.7625,590.1627 645.8875,590.1627 C643.2625,590.1627 641.2625,592.2408 641.2625,594.9595 L641.2625,596.0845 C641.2625,598.6627 643.3719,600.5533 646.2625,600.5533 C647.4813,600.5533 648.6375,600.2564 649.3875,599.7095 C649.9656,599.3033 650.2938,598.8502 650.2938,598.4595 C650.2938,598.0064 649.9031,597.6158 649.4344,597.6158 C649.2156,597.6158 649.0125,597.6939 648.825,597.8814 C648.3719,598.3658 648.3719,598.3658 648.1844,598.4595 C647.7625,598.7252 647.075,598.8502 646.3094,598.8502 C644.2625,598.8502 642.9656,597.7564 642.9656,596.0533 L642.9656,594.9595 C642.9656,593.1783 644.2156,591.8658 645.95,591.8658 C646.5281,591.8658 647.1375,592.022 647.6063,592.272 C648.0906,592.5533 648.2625,592.772 648.3563,593.1783 C648.4188,593.5845 648.45,593.7095 648.5906,593.8345 C648.7313,593.9752 648.9656,594.0845 649.1844,594.0845 C649.45,594.0845 649.7156,593.9439 649.8875,593.7252 C649.9969,593.5689 650.0281,593.3814 650.0281,592.9595 L650.0281,591.5377 C650.0281,591.1002 650.0125,590.9752 649.9188,590.8189 C649.7625,590.5533 649.4813,590.4127 649.1844,590.4127 C648.8875,590.4127 648.6844,590.5064 648.4656,590.8189 L648.2938,590.7408 Z " fill="#000000"/><text fill="#000000" font-family="sans-serif" font-size="12" lengthAdjust="spacing" textLength="48" x="661.05" y="599.2232">Estafeta</text><line style="stroke:#A80036;stroke-width:1.5;" x1="627" x2="716" y1="611.0689" y2="611.0689"/><text fill="#000000" font-family="sans-serif" font-size="11" lengthAdjust="spacing" textLength="79" x="632" y="625.2794">-pesoEstafeta</text><!--MD5=[5dd1d6732c071e710b9290b531f2fa3b]
class Utilizador--><rect codeLine="52" fill="#FEFECE" filter="url(#fmd5ma2hsus3v)" height="104.0234" id="Utilizador" style="stroke:#A80036;stroke-width:1.5;" width="155" x="1111" y="651.5689"/><ellipse cx="1155.75" cy="667.5689" fill="#ADD1B2" rx="11" ry="11" style="stroke:#A80036;stroke-width:1.0;"/><path d="M1158.0938,663.2408 C1157.1563,662.8033 1156.5625,662.6627 1155.6875,662.6627 C1153.0625,662.6627 1151.0625,664.7408 1151.0625,667.4595 L1151.0625,668.5845 C1151.0625,671.1627 1153.1719,673.0533 1156.0625,673.0533 C1157.2813,673.0533 1158.4375,672.7564 1159.1875,672.2095 C1159.7656,671.8033 1160.0938,671.3502 1160.0938,670.9595 C1160.0938,670.5064 1159.7031,670.1158 1159.2344,670.1158 C1159.0156,670.1158 1158.8125,670.1939 1158.625,670.3814 C1158.1719,670.8658 1158.1719,670.8658 1157.9844,670.9595 C1157.5625,671.2252 1156.875,671.3502 1156.1094,671.3502 C1154.0625,671.3502 1152.7656,670.2564 1152.7656,668.5533 L1152.7656,667.4595 C1152.7656,665.6783 1154.0156,664.3658 1155.75,664.3658 C1156.3281,664.3658 1156.9375,664.522 1157.4063,664.772 C1157.8906,665.0533 1158.0625,665.272 1158.1563,665.6783 C1158.2188,666.0845 1158.25,666.2095 1158.3906,666.3345 C1158.5313,666.4752 1158.7656,666.5845 1158.9844,666.5845 C1159.25,666.5845 1159.5156,666.4439 1159.6875,666.2252 C1159.7969,666.0689 1159.8281,665.8814 1159.8281,665.4595 L1159.8281,664.0377 C1159.8281,663.6002 1159.8125,663.4752 1159.7188,663.3189 C1159.5625,663.0533 1159.2813,662.9127 1158.9844,662.9127 C1158.6875,662.9127 1158.4844,663.0064 1158.2656,663.3189 L1158.0938,663.2408 Z " fill="#000000"/><text fill="#000000" font-family="sans-serif" font-size="12" lengthAdjust="spacing" textLength="57" x="1176.25" y="671.7232">Utilizador</text><line style="stroke:#A80036;stroke-width:1.5;" x1="1112" x2="1265" y1="683.5689" y2="683.5689"/><text fill="#000000" font-family="sans-serif" font-size="11" lengthAdjust="spacing" textLength="21" x="1117" y="697.7794">-NIF</text><text fill="#000000" font-family="sans-serif" font-size="11" lengthAdjust="spacing" textLength="37" x="1117" y="710.5841">-nome</text><text fill="#000000" font-family="sans-serif" font-size="11" lengthAdjust="spacing" textLength="36" x="1117" y="723.3887">-email</text><text fill="#000000" font-family="sans-serif" font-size="11" lengthAdjust="spacing" textLength="143" x="1117" y="736.1934">-numeroSegurancaSocial</text><text fill="#000000" font-family="sans-serif" font-size="11" lengthAdjust="spacing" textLength="57" x="1117" y="748.9981">-password</text><!--MD5=[fdcda49d453d44c676d62f3f6af62207]
class Administrador--><rect codeLine="60" fill="#FEFECE" filter="url(#fmd5ma2hsus3v)" height="40" id="Administrador" style="stroke:#A80036;stroke-width:1.5;" width="116" x="232" y="679.5689"/><ellipse cx="247" cy="695.5689" fill="#ADD1B2" rx="11" ry="11" style="stroke:#A80036;stroke-width:1.0;"/><path d="M249.3438,691.2408 C248.4063,690.8033 247.8125,690.6627 246.9375,690.6627 C244.3125,690.6627 242.3125,692.7408 242.3125,695.4595 L242.3125,696.5845 C242.3125,699.1627 244.4219,701.0533 247.3125,701.0533 C248.5313,701.0533 249.6875,700.7564 250.4375,700.2095 C251.0156,699.8033 251.3438,699.3502 251.3438,698.9595 C251.3438,698.5064 250.9531,698.1158 250.4844,698.1158 C250.2656,698.1158 250.0625,698.1939 249.875,698.3814 C249.4219,698.8658 249.4219,698.8658 249.2344,698.9595 C248.8125,699.2252 248.125,699.3502 247.3594,699.3502 C245.3125,699.3502 244.0156,698.2564 244.0156,696.5533 L244.0156,695.4595 C244.0156,693.6783 245.2656,692.3658 247,692.3658 C247.5781,692.3658 248.1875,692.522 248.6563,692.772 C249.1406,693.0533 249.3125,693.272 249.4063,693.6783 C249.4688,694.0845 249.5,694.2095 249.6406,694.3345 C249.7813,694.4752 250.0156,694.5845 250.2344,694.5845 C250.5,694.5845 250.7656,694.4439 250.9375,694.2252 C251.0469,694.0689 251.0781,693.8814 251.0781,693.4595 L251.0781,692.0377 C251.0781,691.6002 251.0625,691.4752 250.9688,691.3189 C250.8125,691.0533 250.5313,690.9127 250.2344,690.9127 C249.9375,690.9127 249.7344,691.0064 249.5156,691.3189 L249.3438,691.2408 Z " fill="#000000"/><text fill="#000000" font-family="sans-serif" font-size="12" lengthAdjust="spacing" textLength="84" x="261" y="699.7232">Administrador</text><line style="stroke:#A80036;stroke-width:1.5;" x1="233" x2="347" y1="711.5689" y2="711.5689"/><!--MD5=[36c1942e8942a3e4f47e6de3733e3d18]
class Endereco--><rect codeLine="64" fill="#FEFECE" filter="url(#fmd5ma2hsus3v)" height="91.2188" id="Endereco" style="stroke:#A80036;stroke-width:1.5;" width="90" x="1143.5" y="1392.0689"/><ellipse cx="1158.5" cy="1408.0689" fill="#ADD1B2" rx="11" ry="11" style="stroke:#A80036;stroke-width:1.0;"/><path d="M1160.8438,1403.7408 C1159.9063,1403.3033 1159.3125,1403.1627 1158.4375,1403.1627 C1155.8125,1403.1627 1153.8125,1405.2408 1153.8125,1407.9595 L1153.8125,1409.0845 C1153.8125,1411.6627 1155.9219,1413.5533 1158.8125,1413.5533 C1160.0313,1413.5533 1161.1875,1413.2564 1161.9375,1412.7095 C1162.5156,1412.3033 1162.8438,1411.8502 1162.8438,1411.4595 C1162.8438,1411.0064 1162.4531,1410.6158 1161.9844,1410.6158 C1161.7656,1410.6158 1161.5625,1410.6939 1161.375,1410.8814 C1160.9219,1411.3658 1160.9219,1411.3658 1160.7344,1411.4595 C1160.3125,1411.7252 1159.625,1411.8502 1158.8594,1411.8502 C1156.8125,1411.8502 1155.5156,1410.7564 1155.5156,1409.0533 L1155.5156,1407.9595 C1155.5156,1406.1783 1156.7656,1404.8658 1158.5,1404.8658 C1159.0781,1404.8658 1159.6875,1405.022 1160.1563,1405.272 C1160.6406,1405.5533 1160.8125,1405.772 1160.9063,1406.1783 C1160.9688,1406.5845 1161,1406.7095 1161.1406,1406.8345 C1161.2813,1406.9752 1161.5156,1407.0845 1161.7344,1407.0845 C1162,1407.0845 1162.2656,1406.9439 1162.4375,1406.7252 C1162.5469,1406.5689 1162.5781,1406.3814 1162.5781,1405.9595 L1162.5781,1404.5377 C1162.5781,1404.1002 1162.5625,1403.9752 1162.4688,1403.8189 C1162.3125,1403.5533 1162.0313,1403.4127 1161.7344,1403.4127 C1161.4375,1403.4127 1161.2344,1403.5064 1161.0156,1403.8189 L1160.8438,1403.7408 Z " fill="#000000"/><text fill="#000000" font-family="sans-serif" font-size="12" lengthAdjust="spacing" textLength="58" x="1172.5" y="1412.2232">Endereco</text><line style="stroke:#A80036;stroke-width:1.5;" x1="1144.5" x2="1232.5" y1="1424.0689" y2="1424.0689"/><text fill="#000000" font-family="sans-serif" font-size="11" lengthAdjust="spacing" textLength="47" x="1149.5" y="1438.2794">-morada</text><text fill="#000000" font-family="sans-serif" font-size="11" lengthAdjust="spacing" textLength="47" x="1149.5" y="1451.0841">-latitude</text><text fill="#000000" font-family="sans-serif" font-size="11" lengthAdjust="spacing" textLength="57" x="1149.5" y="1463.8887">-longitude</text><text fill="#000000" font-family="sans-serif" font-size="11" lengthAdjust="spacing" textLength="47" x="1149.5" y="1476.6934">-altitude</text><!--MD5=[f4402668d5d5bb8485350c0fdb60ac8e]
class Scooter--><rect codeLine="71" fill="#FEFECE" filter="url(#fmd5ma2hsus3v)" height="52.8047" id="Scooter" style="stroke:#A80036;stroke-width:1.5;" width="80" x="1664.5" y="687.0689"/><ellipse cx="1679.5" cy="703.0689" fill="#ADD1B2" rx="11" ry="11" style="stroke:#A80036;stroke-width:1.0;"/><path d="M1681.8438,698.7408 C1680.9063,698.3033 1680.3125,698.1627 1679.4375,698.1627 C1676.8125,698.1627 1674.8125,700.2408 1674.8125,702.9595 L1674.8125,704.0845 C1674.8125,706.6627 1676.9219,708.5533 1679.8125,708.5533 C1681.0313,708.5533 1682.1875,708.2564 1682.9375,707.7095 C1683.5156,707.3033 1683.8438,706.8502 1683.8438,706.4595 C1683.8438,706.0064 1683.4531,705.6158 1682.9844,705.6158 C1682.7656,705.6158 1682.5625,705.6939 1682.375,705.8814 C1681.9219,706.3658 1681.9219,706.3658 1681.7344,706.4595 C1681.3125,706.7252 1680.625,706.8502 1679.8594,706.8502 C1677.8125,706.8502 1676.5156,705.7564 1676.5156,704.0533 L1676.5156,702.9595 C1676.5156,701.1783 1677.7656,699.8658 1679.5,699.8658 C1680.0781,699.8658 1680.6875,700.022 1681.1563,700.272 C1681.6406,700.5533 1681.8125,700.772 1681.9063,701.1783 C1681.9688,701.5845 1682,701.7095 1682.1406,701.8345 C1682.2813,701.9752 1682.5156,702.0845 1682.7344,702.0845 C1683,702.0845 1683.2656,701.9439 1683.4375,701.7252 C1683.5469,701.5689 1683.5781,701.3814 1683.5781,700.9595 L1683.5781,699.5377 C1683.5781,699.1002 1683.5625,698.9752 1683.4688,698.8189 C1683.3125,698.5533 1683.0313,698.4127 1682.7344,698.4127 C1682.4375,698.4127 1682.2344,698.5064 1682.0156,698.8189 L1681.8438,698.7408 Z " fill="#000000"/><text fill="#000000" font-family="sans-serif" font-size="12" lengthAdjust="spacing" textLength="48" x="1693.5" y="707.2232">Scooter</text><line style="stroke:#A80036;stroke-width:1.5;" x1="1665.5" x2="1743.5" y1="719.0689" y2="719.0689"/><text fill="#000000" font-family="sans-serif" font-size="11" lengthAdjust="spacing" textLength="58" x="1670.5" y="733.2794">-idScooter</text><!--MD5=[8505c5852735283b5a8424161266bb9f]
class Veiculo--><rect codeLine="75" fill="#FEFECE" filter="url(#fmd5ma2hsus3v)" height="142.4375" id="Veiculo" style="stroke:#A80036;stroke-width:1.5;" width="134" x="1383" y="737.5689"/><ellipse cx="1424.1" cy="753.5689" fill="#ADD1B2" rx="11" ry="11" style="stroke:#A80036;stroke-width:1.0;"/><path d="M1426.4438,749.2408 C1425.5063,748.8033 1424.9125,748.6627 1424.0375,748.6627 C1421.4125,748.6627 1419.4125,750.7408 1419.4125,753.4595 L1419.4125,754.5845 C1419.4125,757.1627 1421.5219,759.0533 1424.4125,759.0533 C1425.6313,759.0533 1426.7875,758.7564 1427.5375,758.2095 C1428.1156,757.8033 1428.4438,757.3502 1428.4438,756.9595 C1428.4438,756.5064 1428.0531,756.1158 1427.5844,756.1158 C1427.3656,756.1158 1427.1625,756.1939 1426.975,756.3814 C1426.5219,756.8658 1426.5219,756.8658 1426.3344,756.9595 C1425.9125,757.2252 1425.225,757.3502 1424.4594,757.3502 C1422.4125,757.3502 1421.1156,756.2564 1421.1156,754.5533 L1421.1156,753.4595 C1421.1156,751.6783 1422.3656,750.3658 1424.1,750.3658 C1424.6781,750.3658 1425.2875,750.522 1425.7563,750.772 C1426.2406,751.0533 1426.4125,751.272 1426.5063,751.6783 C1426.5688,752.0845 1426.6,752.2095 1426.7406,752.3345 C1426.8813,752.4752 1427.1156,752.5845 1427.3344,752.5845 C1427.6,752.5845 1427.8656,752.4439 1428.0375,752.2252 C1428.1469,752.0689 1428.1781,751.8814 1428.1781,751.4595 L1428.1781,750.0377 C1428.1781,749.6002 1428.1625,749.4752 1428.0688,749.3189 C1427.9125,749.0533 1427.6313,748.9127 1427.3344,748.9127 C1427.0375,748.9127 1426.8344,749.0064 1426.6156,749.3189 L1426.4438,749.2408 Z " fill="#000000"/><text fill="#000000" font-family="sans-serif" font-size="12" lengthAdjust="spacing" textLength="44" x="1443.9" y="757.7232">Veiculo</text><line style="stroke:#A80036;stroke-width:1.5;" x1="1384" x2="1516" y1="769.5689" y2="769.5689"/><text fill="#000000" font-family="sans-serif" font-size="11" lengthAdjust="spacing" textLength="55" x="1389" y="783.7794">-idveiculo</text><text fill="#000000" font-family="sans-serif" font-size="11" lengthAdjust="spacing" textLength="58" x="1389" y="796.5841">-descricao</text><text fill="#000000" font-family="sans-serif" font-size="11" lengthAdjust="spacing" textLength="69" x="1389" y="809.3887">-capacidade</text><text fill="#000000" font-family="sans-serif" font-size="11" lengthAdjust="spacing" textLength="122" x="1389" y="822.1934">-percentagemBateria</text><text fill="#000000" font-family="sans-serif" font-size="11" lengthAdjust="spacing" textLength="76" x="1389" y="834.9981">-pesoMaximo</text><text fill="#000000" font-family="sans-serif" font-size="11" lengthAdjust="spacing" textLength="74" x="1389" y="847.8028">-pesoVeiculo</text><text fill="#000000" font-family="sans-serif" font-size="11" lengthAdjust="spacing" textLength="53" x="1389" y="860.6075">-potencia</text><text fill="#000000" font-family="sans-serif" font-size="11" lengthAdjust="spacing" textLength="68" x="1389" y="873.4122">-areaFrontal</text><!--MD5=[2e3f1e60e74253ff42e47f8bfdb04ee2]
class Drone--><rect codeLine="86" fill="#FEFECE" filter="url(#fmd5ma2hsus3v)" height="65.6094" id="Drone" style="stroke:#A80036;stroke-width:1.5;" width="69" x="1670" y="775.5689"/><ellipse cx="1685" cy="791.5689" fill="#ADD1B2" rx="11" ry="11" style="stroke:#A80036;stroke-width:1.0;"/><path d="M1687.3438,787.2408 C1686.4063,786.8033 1685.8125,786.6627 1684.9375,786.6627 C1682.3125,786.6627 1680.3125,788.7408 1680.3125,791.4595 L1680.3125,792.5845 C1680.3125,795.1627 1682.4219,797.0533 1685.3125,797.0533 C1686.5313,797.0533 1687.6875,796.7564 1688.4375,796.2095 C1689.0156,795.8033 1689.3438,795.3502 1689.3438,794.9595 C1689.3438,794.5064 1688.9531,794.1158 1688.4844,794.1158 C1688.2656,794.1158 1688.0625,794.1939 1687.875,794.3814 C1687.4219,794.8658 1687.4219,794.8658 1687.2344,794.9595 C1686.8125,795.2252 1686.125,795.3502 1685.3594,795.3502 C1683.3125,795.3502 1682.0156,794.2564 1682.0156,792.5533 L1682.0156,791.4595 C1682.0156,789.6783 1683.2656,788.3658 1685,788.3658 C1685.5781,788.3658 1686.1875,788.522 1686.6563,788.772 C1687.1406,789.0533 1687.3125,789.272 1687.4063,789.6783 C1687.4688,790.0845 1687.5,790.2095 1687.6406,790.3345 C1687.7813,790.4752 1688.0156,790.5845 1688.2344,790.5845 C1688.5,790.5845 1688.7656,790.4439 1688.9375,790.2252 C1689.0469,790.0689 1689.0781,789.8814 1689.0781,789.4595 L1689.0781,788.0377 C1689.0781,787.6002 1689.0625,787.4752 1688.9688,787.3189 C1688.8125,787.0533 1688.5313,786.9127 1688.2344,786.9127 C1687.9375,786.9127 1687.7344,787.0064 1687.5156,787.3189 L1687.3438,787.2408 Z " fill="#000000"/><text fill="#000000" font-family="sans-serif" font-size="12" lengthAdjust="spacing" textLength="37" x="1699" y="795.7232">Drone</text><line style="stroke:#A80036;stroke-width:1.5;" x1="1671" x2="1738" y1="807.5689" y2="807.5689"/><text fill="#000000" font-family="sans-serif" font-size="11" lengthAdjust="spacing" textLength="49" x="1676" y="821.7794">-idDrone</text><text fill="#000000" font-family="sans-serif" font-size="11" lengthAdjust="spacing" textLength="43" x="1676" y="834.5841">-largura</text><!--MD5=[1a083dbe42a284ae0ea7f6f701783206]
class Parque--><rect codeLine="92" fill="#FEFECE" filter="url(#fmd5ma2hsus3v)" height="91.2188" id="Parque" style="stroke:#A80036;stroke-width:1.5;" width="104" x="619.5" y="879.0689"/><ellipse cx="648.45" cy="895.0689" fill="#ADD1B2" rx="11" ry="11" style="stroke:#A80036;stroke-width:1.0;"/><path d="M650.7938,890.7408 C649.8563,890.3033 649.2625,890.1627 648.3875,890.1627 C645.7625,890.1627 643.7625,892.2408 643.7625,894.9595 L643.7625,896.0845 C643.7625,898.6627 645.8719,900.5533 648.7625,900.5533 C649.9813,900.5533 651.1375,900.2564 651.8875,899.7095 C652.4656,899.3033 652.7938,898.8502 652.7938,898.4595 C652.7938,898.0064 652.4031,897.6158 651.9344,897.6158 C651.7156,897.6158 651.5125,897.6939 651.325,897.8814 C650.8719,898.3658 650.8719,898.3658 650.6844,898.4595 C650.2625,898.7252 649.575,898.8502 648.8094,898.8502 C646.7625,898.8502 645.4656,897.7564 645.4656,896.0533 L645.4656,894.9595 C645.4656,893.1783 646.7156,891.8658 648.45,891.8658 C649.0281,891.8658 649.6375,892.022 650.1063,892.272 C650.5906,892.5533 650.7625,892.772 650.8563,893.1783 C650.9188,893.5845 650.95,893.7095 651.0906,893.8345 C651.2313,893.9752 651.4656,894.0845 651.6844,894.0845 C651.95,894.0845 652.2156,893.9439 652.3875,893.7252 C652.4969,893.5689 652.5281,893.3814 652.5281,892.9595 L652.5281,891.5377 C652.5281,891.1002 652.5125,890.9752 652.4188,890.8189 C652.2625,890.5533 651.9813,890.4127 651.6844,890.4127 C651.3875,890.4127 651.1844,890.5064 650.9656,890.8189 L650.7938,890.7408 Z " fill="#000000"/><text fill="#000000" font-family="sans-serif" font-size="12" lengthAdjust="spacing" textLength="41" x="665.55" y="899.2232">Parque</text><line style="stroke:#A80036;stroke-width:1.5;" x1="620.5" x2="722.5" y1="911.0689" y2="911.0689"/><text fill="#000000" font-family="sans-serif" font-size="11" lengthAdjust="spacing" textLength="53" x="625.5" y="925.2794">-idParque</text><text fill="#000000" font-family="sans-serif" font-size="11" lengthAdjust="spacing" textLength="92" x="625.5" y="938.0841">-numeroMaximo</text><text fill="#000000" font-family="sans-serif" font-size="11" lengthAdjust="spacing" textLength="25" x="625.5" y="950.8887">-tipo</text><text fill="#000000" font-family="sans-serif" font-size="11" lengthAdjust="spacing" textLength="51" x="625.5" y="963.6934">-maxCap</text><!--MD5=[20a748d5ee336a9a91751b0a3d4f0beb]
class Cliente--><rect codeLine="99" fill="#FEFECE" filter="url(#fmd5ma2hsus3v)" height="52.8047" id="Cliente" style="stroke:#A80036;stroke-width:1.5;" width="73" x="635" y="1153.0689"/><ellipse cx="650" cy="1169.0689" fill="#ADD1B2" rx="11" ry="11" style="stroke:#A80036;stroke-width:1.0;"/><path d="M652.3438,1164.7408 C651.4063,1164.3033 650.8125,1164.1627 649.9375,1164.1627 C647.3125,1164.1627 645.3125,1166.2408 645.3125,1168.9595 L645.3125,1170.0845 C645.3125,1172.6627 647.4219,1174.5533 650.3125,1174.5533 C651.5313,1174.5533 652.6875,1174.2564 653.4375,1173.7095 C654.0156,1173.3033 654.3438,1172.8502 654.3438,1172.4595 C654.3438,1172.0064 653.9531,1171.6158 653.4844,1171.6158 C653.2656,1171.6158 653.0625,1171.6939 652.875,1171.8814 C652.4219,1172.3658 652.4219,1172.3658 652.2344,1172.4595 C651.8125,1172.7252 651.125,1172.8502 650.3594,1172.8502 C648.3125,1172.8502 647.0156,1171.7564 647.0156,1170.0533 L647.0156,1168.9595 C647.0156,1167.1783 648.2656,1165.8658 650,1165.8658 C650.5781,1165.8658 651.1875,1166.022 651.6563,1166.272 C652.1406,1166.5533 652.3125,1166.772 652.4063,1167.1783 C652.4688,1167.5845 652.5,1167.7095 652.6406,1167.8345 C652.7813,1167.9752 653.0156,1168.0845 653.2344,1168.0845 C653.5,1168.0845 653.7656,1167.9439 653.9375,1167.7252 C654.0469,1167.5689 654.0781,1167.3814 654.0781,1166.9595 L654.0781,1165.5377 C654.0781,1165.1002 654.0625,1164.9752 653.9688,1164.8189 C653.8125,1164.5533 653.5313,1164.4127 653.2344,1164.4127 C652.9375,1164.4127 652.7344,1164.5064 652.5156,1164.8189 L652.3438,1164.7408 Z " fill="#000000"/><text fill="#000000" font-family="sans-serif" font-size="12" lengthAdjust="spacing" textLength="41" x="664" y="1173.2232">Cliente</text><line style="stroke:#A80036;stroke-width:1.5;" x1="636" x2="707" y1="1185.0689" y2="1185.0689"/><text fill="#000000" font-family="sans-serif" font-size="11" lengthAdjust="spacing" textLength="49" x="641" y="1199.2794">-creditos</text><!--MD5=[a13ca1da61a66d544daddca6fa0a1a30]
class Cartao--><rect codeLine="103" fill="#FEFECE" filter="url(#fmd5ma2hsus3v)" height="78.4141" id="Cartao" style="stroke:#A80036;stroke-width:1.5;" width="138" x="1119.5" y="1049.5689"/><ellipse cx="1164.75" cy="1065.5689" fill="#ADD1B2" rx="11" ry="11" style="stroke:#A80036;stroke-width:1.0;"/><path d="M1167.0938,1061.2408 C1166.1563,1060.8033 1165.5625,1060.6627 1164.6875,1060.6627 C1162.0625,1060.6627 1160.0625,1062.7408 1160.0625,1065.4595 L1160.0625,1066.5845 C1160.0625,1069.1627 1162.1719,1071.0533 1165.0625,1071.0533 C1166.2813,1071.0533 1167.4375,1070.7564 1168.1875,1070.2095 C1168.7656,1069.8033 1169.0938,1069.3502 1169.0938,1068.9595 C1169.0938,1068.5064 1168.7031,1068.1158 1168.2344,1068.1158 C1168.0156,1068.1158 1167.8125,1068.1939 1167.625,1068.3814 C1167.1719,1068.8658 1167.1719,1068.8658 1166.9844,1068.9595 C1166.5625,1069.2252 1165.875,1069.3502 1165.1094,1069.3502 C1163.0625,1069.3502 1161.7656,1068.2564 1161.7656,1066.5533 L1161.7656,1065.4595 C1161.7656,1063.6783 1163.0156,1062.3658 1164.75,1062.3658 C1165.3281,1062.3658 1165.9375,1062.522 1166.4063,1062.772 C1166.8906,1063.0533 1167.0625,1063.272 1167.1563,1063.6783 C1167.2188,1064.0845 1167.25,1064.2095 1167.3906,1064.3345 C1167.5313,1064.4752 1167.7656,1064.5845 1167.9844,1064.5845 C1168.25,1064.5845 1168.5156,1064.4439 1168.6875,1064.2252 C1168.7969,1064.0689 1168.8281,1063.8814 1168.8281,1063.4595 L1168.8281,1062.0377 C1168.8281,1061.6002 1168.8125,1061.4752 1168.7188,1061.3189 C1168.5625,1061.0533 1168.2813,1060.9127 1167.9844,1060.9127 C1167.6875,1060.9127 1167.4844,1061.0064 1167.2656,1061.3189 L1167.0938,1061.2408 Z " fill="#000000"/><text fill="#000000" font-family="sans-serif" font-size="12" lengthAdjust="spacing" textLength="39" x="1185.25" y="1069.7232">Cartao</text><line style="stroke:#A80036;stroke-width:1.5;" x1="1120.5" x2="1256.5" y1="1081.5689" y2="1081.5689"/><text fill="#000000" font-family="sans-serif" font-size="11" lengthAdjust="spacing" textLength="126" x="1125.5" y="1095.7794">-numeroCartaoCredito</text><text fill="#000000" font-family="sans-serif" font-size="11" lengthAdjust="spacing" textLength="96" x="1125.5" y="1108.5841">-dataDeValidade</text><text fill="#000000" font-family="sans-serif" font-size="11" lengthAdjust="spacing" textLength="28" x="1125.5" y="1121.3887">-CCV</text><!--MD5=[ac303f713d9f979882ac64afbf326271]
class TransferenciaProduto--><rect codeLine="109" fill="#FEFECE" filter="url(#fmd5ma2hsus3v)" height="65.6094" id="TransferenciaProduto" style="stroke:#A80036;stroke-width:1.5;" width="160" x="210" y="162.5659"/><ellipse cx="225" cy="178.5659" fill="#ADD1B2" rx="11" ry="11" style="stroke:#A80036;stroke-width:1.0;"/><path d="M227.3438,174.2378 C226.4063,173.8003 225.8125,173.6597 224.9375,173.6597 C222.3125,173.6597 220.3125,175.7378 220.3125,178.4565 L220.3125,179.5815 C220.3125,182.1597 222.4219,184.0503 225.3125,184.0503 C226.5313,184.0503 227.6875,183.7534 228.4375,183.2065 C229.0156,182.8003 229.3438,182.3472 229.3438,181.9565 C229.3438,181.5034 228.9531,181.1128 228.4844,181.1128 C228.2656,181.1128 228.0625,181.1909 227.875,181.3784 C227.4219,181.8628 227.4219,181.8628 227.2344,181.9565 C226.8125,182.2222 226.125,182.3472 225.3594,182.3472 C223.3125,182.3472 222.0156,181.2534 222.0156,179.5503 L222.0156,178.4565 C222.0156,176.6753 223.2656,175.3628 225,175.3628 C225.5781,175.3628 226.1875,175.519 226.6563,175.769 C227.1406,176.0503 227.3125,176.269 227.4063,176.6753 C227.4688,177.0815 227.5,177.2065 227.6406,177.3315 C227.7813,177.4722 228.0156,177.5815 228.2344,177.5815 C228.5,177.5815 228.7656,177.4409 228.9375,177.2222 C229.0469,177.0659 229.0781,176.8784 229.0781,176.4565 L229.0781,175.0347 C229.0781,174.5972 229.0625,174.4722 228.9688,174.3159 C228.8125,174.0503 228.5313,173.9097 228.2344,173.9097 C227.9375,173.9097 227.7344,174.0034 227.5156,174.3159 L227.3438,174.2378 Z " fill="#000000"/><text fill="#000000" font-family="sans-serif" font-size="12" lengthAdjust="spacing" textLength="128" x="239" y="182.7202">TransferenciaProduto</text><line style="stroke:#A80036;stroke-width:1.5;" x1="211" x2="369" y1="194.5659" y2="194.5659"/><text fill="#000000" font-family="sans-serif" font-size="11" lengthAdjust="spacing" textLength="92" x="216" y="208.7764">-idTransferencia</text><text fill="#000000" font-family="sans-serif" font-size="11" lengthAdjust="spacing" textLength="68" x="216" y="221.5811">-quantidade</text><!--MD5=[1ba30c488416121cd0b4d64686b21549]
class EstadoTransferencia--><rect codeLine="114" fill="#FEFECE" filter="url(#fmd5ma2hsus3v)" height="65.6094" id="EstadoTransferencia" style="stroke:#A80036;stroke-width:1.5;" width="155" x="594" y="76.5659"/><ellipse cx="609" cy="92.5659" fill="#ADD1B2" rx="11" ry="11" style="stroke:#A80036;stroke-width:1.0;"/><path d="M611.3438,88.2378 C610.4063,87.8003 609.8125,87.6597 608.9375,87.6597 C606.3125,87.6597 604.3125,89.7378 604.3125,92.4565 L604.3125,93.5815 C604.3125,96.1597 606.4219,98.0503 609.3125,98.0503 C610.5313,98.0503 611.6875,97.7534 612.4375,97.2065 C613.0156,96.8003 613.3438,96.3472 613.3438,95.9565 C613.3438,95.5034 612.9531,95.1128 612.4844,95.1128 C612.2656,95.1128 612.0625,95.1909 611.875,95.3784 C611.4219,95.8628 611.4219,95.8628 611.2344,95.9565 C610.8125,96.2222 610.125,96.3472 609.3594,96.3472 C607.3125,96.3472 606.0156,95.2534 606.0156,93.5503 L606.0156,92.4565 C606.0156,90.6753 607.2656,89.3628 609,89.3628 C609.5781,89.3628 610.1875,89.519 610.6563,89.769 C611.1406,90.0503 611.3125,90.269 611.4063,90.6753 C611.4688,91.0815 611.5,91.2065 611.6406,91.3315 C611.7813,91.4722 612.0156,91.5815 612.2344,91.5815 C612.5,91.5815 612.7656,91.4409 612.9375,91.2222 C613.0469,91.0659 613.0781,90.8784 613.0781,90.4565 L613.0781,89.0347 C613.0781,88.5972 613.0625,88.4722 612.9688,88.3159 C612.8125,88.0503 612.5313,87.9097 612.2344,87.9097 C611.9375,87.9097 611.7344,88.0034 611.5156,88.3159 L611.3438,88.2378 Z " fill="#000000"/><text fill="#000000" font-family="sans-serif" font-size="12" lengthAdjust="spacing" textLength="123" x="623" y="96.7202">EstadoTransferencia</text><line style="stroke:#A80036;stroke-width:1.5;" x1="595" x2="748" y1="108.5659" y2="108.5659"/><text fill="#000000" font-family="sans-serif" font-size="11" lengthAdjust="spacing" textLength="14" x="600" y="122.7764">-id</text><text fill="#000000" font-family="sans-serif" font-size="11" lengthAdjust="spacing" textLength="69" x="600" y="135.5811">-designacao</text><!--MD5=[a656e5e079c9813af42e0e9dd198231c]
class EstadoVeiculo--><rect codeLine="119" fill="#FEFECE" filter="url(#fmd5ma2hsus3v)" height="65.6094" id="EstadoVeiculo" style="stroke:#A80036;stroke-width:1.5;" width="117" x="1646" y="876.5689"/><ellipse cx="1661" cy="892.5689" fill="#ADD1B2" rx="11" ry="11" style="stroke:#A80036;stroke-width:1.0;"/><path d="M1663.3438,888.2408 C1662.4063,887.8033 1661.8125,887.6627 1660.9375,887.6627 C1658.3125,887.6627 1656.3125,889.7408 1656.3125,892.4595 L1656.3125,893.5845 C1656.3125,896.1627 1658.4219,898.0533 1661.3125,898.0533 C1662.5313,898.0533 1663.6875,897.7564 1664.4375,897.2095 C1665.0156,896.8033 1665.3438,896.3502 1665.3438,895.9595 C1665.3438,895.5064 1664.9531,895.1158 1664.4844,895.1158 C1664.2656,895.1158 1664.0625,895.1939 1663.875,895.3814 C1663.4219,895.8658 1663.4219,895.8658 1663.2344,895.9595 C1662.8125,896.2252 1662.125,896.3502 1661.3594,896.3502 C1659.3125,896.3502 1658.0156,895.2564 1658.0156,893.5533 L1658.0156,892.4595 C1658.0156,890.6783 1659.2656,889.3658 1661,889.3658 C1661.5781,889.3658 1662.1875,889.522 1662.6563,889.772 C1663.1406,890.0533 1663.3125,890.272 1663.4063,890.6783 C1663.4688,891.0845 1663.5,891.2095 1663.6406,891.3345 C1663.7813,891.4752 1664.0156,891.5845 1664.2344,891.5845 C1664.5,891.5845 1664.7656,891.4439 1664.9375,891.2252 C1665.0469,891.0689 1665.0781,890.8814 1665.0781,890.4595 L1665.0781,889.0377 C1665.0781,888.6002 1665.0625,888.4752 1664.9688,888.3189 C1664.8125,888.0533 1664.5313,887.9127 1664.2344,887.9127 C1663.9375,887.9127 1663.7344,888.0064 1663.5156,888.3189 L1663.3438,888.2408 Z " fill="#000000"/><text fill="#000000" font-family="sans-serif" font-size="12" lengthAdjust="spacing" textLength="85" x="1675" y="896.7232">EstadoVeiculo</text><line style="stroke:#A80036;stroke-width:1.5;" x1="1647" x2="1762" y1="908.5689" y2="908.5689"/><text fill="#000000" font-family="sans-serif" font-size="11" lengthAdjust="spacing" textLength="94" x="1652" y="922.7794">-idEstadoVeiculo</text><text fill="#000000" font-family="sans-serif" font-size="11" lengthAdjust="spacing" textLength="69" x="1652" y="935.5841">-designacao</text><!--MD5=[b1b5bcb3873f5e6d986aef558b6021e9]
class EstadoEstafeta--><rect codeLine="124" fill="#FEFECE" filter="url(#fmd5ma2hsus3v)" height="65.6094" id="EstadoEstafeta" style="stroke:#A80036;stroke-width:1.5;" width="121" x="1128" y="423.5659"/><ellipse cx="1143" cy="439.5659" fill="#ADD1B2" rx="11" ry="11" style="stroke:#A80036;stroke-width:1.0;"/><path d="M1145.3438,435.2378 C1144.4063,434.8003 1143.8125,434.6597 1142.9375,434.6597 C1140.3125,434.6597 1138.3125,436.7378 1138.3125,439.4565 L1138.3125,440.5815 C1138.3125,443.1597 1140.4219,445.0503 1143.3125,445.0503 C1144.5313,445.0503 1145.6875,444.7534 1146.4375,444.2065 C1147.0156,443.8003 1147.3438,443.3472 1147.3438,442.9565 C1147.3438,442.5034 1146.9531,442.1128 1146.4844,442.1128 C1146.2656,442.1128 1146.0625,442.1909 1145.875,442.3784 C1145.4219,442.8628 1145.4219,442.8628 1145.2344,442.9565 C1144.8125,443.2222 1144.125,443.3472 1143.3594,443.3472 C1141.3125,443.3472 1140.0156,442.2534 1140.0156,440.5503 L1140.0156,439.4565 C1140.0156,437.6753 1141.2656,436.3628 1143,436.3628 C1143.5781,436.3628 1144.1875,436.519 1144.6563,436.769 C1145.1406,437.0503 1145.3125,437.269 1145.4063,437.6753 C1145.4688,438.0815 1145.5,438.2065 1145.6406,438.3315 C1145.7813,438.4722 1146.0156,438.5815 1146.2344,438.5815 C1146.5,438.5815 1146.7656,438.4409 1146.9375,438.2222 C1147.0469,438.0659 1147.0781,437.8784 1147.0781,437.4565 L1147.0781,436.0347 C1147.0781,435.5972 1147.0625,435.4722 1146.9688,435.3159 C1146.8125,435.0503 1146.5313,434.9097 1146.2344,434.9097 C1145.9375,434.9097 1145.7344,435.0034 1145.5156,435.3159 L1145.3438,435.2378 Z " fill="#000000"/><text fill="#000000" font-family="sans-serif" font-size="12" lengthAdjust="spacing" textLength="89" x="1157" y="443.7202">EstadoEstafeta</text><line style="stroke:#A80036;stroke-width:1.5;" x1="1129" x2="1248" y1="455.5659" y2="455.5659"/><text fill="#000000" font-family="sans-serif" font-size="11" lengthAdjust="spacing" textLength="14" x="1134" y="469.7764">-id</text><text fill="#000000" font-family="sans-serif" font-size="11" lengthAdjust="spacing" textLength="69" x="1134" y="482.5811">-designacao</text><!--MD5=[1753751c87c25f689804f2380ef6b009]
class Pagamento--><rect codeLine="129" fill="#FEFECE" filter="url(#fmd5ma2hsus3v)" height="65.6094" id="Pagamento" style="stroke:#A80036;stroke-width:1.5;" width="98" x="1655.5" y="1056.5689"/><ellipse cx="1670.5" cy="1072.5689" fill="#ADD1B2" rx="11" ry="11" style="stroke:#A80036;stroke-width:1.0;"/><path d="M1672.8438,1068.2408 C1671.9063,1067.8033 1671.3125,1067.6627 1670.4375,1067.6627 C1667.8125,1067.6627 1665.8125,1069.7408 1665.8125,1072.4595 L1665.8125,1073.5845 C1665.8125,1076.1627 1667.9219,1078.0533 1670.8125,1078.0533 C1672.0313,1078.0533 1673.1875,1077.7564 1673.9375,1077.2095 C1674.5156,1076.8033 1674.8438,1076.3502 1674.8438,1075.9595 C1674.8438,1075.5064 1674.4531,1075.1158 1673.9844,1075.1158 C1673.7656,1075.1158 1673.5625,1075.1939 1673.375,1075.3814 C1672.9219,1075.8658 1672.9219,1075.8658 1672.7344,1075.9595 C1672.3125,1076.2252 1671.625,1076.3502 1670.8594,1076.3502 C1668.8125,1076.3502 1667.5156,1075.2564 1667.5156,1073.5533 L1667.5156,1072.4595 C1667.5156,1070.6783 1668.7656,1069.3658 1670.5,1069.3658 C1671.0781,1069.3658 1671.6875,1069.522 1672.1563,1069.772 C1672.6406,1070.0533 1672.8125,1070.272 1672.9063,1070.6783 C1672.9688,1071.0845 1673,1071.2095 1673.1406,1071.3345 C1673.2813,1071.4752 1673.5156,1071.5845 1673.7344,1071.5845 C1674,1071.5845 1674.2656,1071.4439 1674.4375,1071.2252 C1674.5469,1071.0689 1674.5781,1070.8814 1674.5781,1070.4595 L1674.5781,1069.0377 C1674.5781,1068.6002 1674.5625,1068.4752 1674.4688,1068.3189 C1674.3125,1068.0533 1674.0313,1067.9127 1673.7344,1067.9127 C1673.4375,1067.9127 1673.2344,1068.0064 1673.0156,1068.3189 L1672.8438,1068.2408 Z " fill="#000000"/><text fill="#000000" font-family="sans-serif" font-size="12" lengthAdjust="spacing" textLength="66" x="1684.5" y="1076.7232">Pagamento</text><line style="stroke:#A80036;stroke-width:1.5;" x1="1656.5" x2="1752.5" y1="1088.5689" y2="1088.5689"/><text fill="#000000" font-family="sans-serif" font-size="11" lengthAdjust="spacing" textLength="78" x="1661.5" y="1102.7794">-idPagamento</text><text fill="#000000" font-family="sans-serif" font-size="11" lengthAdjust="spacing" textLength="64" x="1661.5" y="1115.5841">-precoTotal</text><!--MD5=[5158eea2981105b1eea807b659f3ae64]
class Caminho--><rect codeLine="134" fill="#FEFECE" filter="url(#fmd5ma2hsus3v)" height="78.4141" id="Caminho" style="stroke:#A80036;stroke-width:1.5;" width="165" x="589" y="1347.5689"/><ellipse cx="641.75" cy="1363.5689" fill="#ADD1B2" rx="11" ry="11" style="stroke:#A80036;stroke-width:1.0;"/><path d="M644.0938,1359.2408 C643.1563,1358.8033 642.5625,1358.6627 641.6875,1358.6627 C639.0625,1358.6627 637.0625,1360.7408 637.0625,1363.4595 L637.0625,1364.5845 C637.0625,1367.1627 639.1719,1369.0533 642.0625,1369.0533 C643.2813,1369.0533 644.4375,1368.7564 645.1875,1368.2095 C645.7656,1367.8033 646.0938,1367.3502 646.0938,1366.9595 C646.0938,1366.5064 645.7031,1366.1158 645.2344,1366.1158 C645.0156,1366.1158 644.8125,1366.1939 644.625,1366.3814 C644.1719,1366.8658 644.1719,1366.8658 643.9844,1366.9595 C643.5625,1367.2252 642.875,1367.3502 642.1094,1367.3502 C640.0625,1367.3502 638.7656,1366.2564 638.7656,1364.5533 L638.7656,1363.4595 C638.7656,1361.6783 640.0156,1360.3658 641.75,1360.3658 C642.3281,1360.3658 642.9375,1360.522 643.4063,1360.772 C643.8906,1361.0533 644.0625,1361.272 644.1563,1361.6783 C644.2188,1362.0845 644.25,1362.2095 644.3906,1362.3345 C644.5313,1362.4752 644.7656,1362.5845 644.9844,1362.5845 C645.25,1362.5845 645.5156,1362.4439 645.6875,1362.2252 C645.7969,1362.0689 645.8281,1361.8814 645.8281,1361.4595 L645.8281,1360.0377 C645.8281,1359.6002 645.8125,1359.4752 645.7188,1359.3189 C645.5625,1359.0533 645.2813,1358.9127 644.9844,1358.9127 C644.6875,1358.9127 644.4844,1359.0064 644.2656,1359.3189 L644.0938,1359.2408 Z " fill="#000000"/><text fill="#000000" font-family="sans-serif" font-size="12" lengthAdjust="spacing" textLength="51" x="662.25" y="1367.7232">Caminho</text><line style="stroke:#A80036;stroke-width:1.5;" x1="590" x2="753" y1="1379.5689" y2="1379.5689"/><text fill="#000000" font-family="sans-serif" font-size="11" lengthAdjust="spacing" textLength="153" x="595" y="1393.7794">-roadResistanceCoefficient</text><text fill="#000000" font-family="sans-serif" font-size="11" lengthAdjust="spacing" textLength="101" x="595" y="1406.5841">-velocidadeVento</text><text fill="#000000" font-family="sans-serif" font-size="11" lengthAdjust="spacing" textLength="80" x="595" y="1419.3887">-direcaoVento</text><!--MD5=[055d9a59c94791d1e5417ead9eff8d01]
link Encomenda to EstadoEncomenda--><path codeLine="140" d="M1505.79,1181.9559 C1543.06,1183.5799 1592.73,1185.7439 1632.96,1187.4969 " fill="none" id="Encomenda-EstadoEncomenda" style="stroke:#A80036;stroke-width:1.0;"/><polygon fill="#000000" points="1564.4953,1175.353,1555.5867,1172.0231,1555.3308,1177.8954,1564.4953,1175.353" style="stroke:#000000;stroke-width:1.0;"/><text fill="#000000" font-family="sans-serif" font-size="13" lengthAdjust="spacing" textLength="26" x="1568.5" y="1179.6358">tem</text><text fill="#000000" font-family="sans-serif" font-size="13" lengthAdjust="spacing" textLength="8" x="1513.4506" y="1195.2966">1</text><text fill="#000000" font-family="sans-serif" font-size="13" lengthAdjust="spacing" textLength="8" x="1617.1699" y="1200.0474">1</text><!--MD5=[39609d66ce6d06d1779a14455c909f6f]
link Entrega to Encomenda--><path codeLine="141" d="M1232.75,599.2799 C1244.98,609.2019 1257.3,621.2219 1266,634.5689 C1292.26,674.8749 1281.44,692.7169 1296,738.5689 C1340.93,880.1129 1399.94,1044.9849 1429.84,1127.2609 " fill="none" id="Entrega-Encomenda" style="stroke:#A80036;stroke-width:1.0;"/><polygon fill="#000000" points="1303.2486,734.8196,1302.8387,725.3179,1297.332,727.3735,1303.2486,734.8196" style="stroke:#000000;stroke-width:1.0;"/><text fill="#000000" font-family="sans-serif" font-size="13" lengthAdjust="spacing" textLength="41" x="1310.5" y="734.6358">possui</text><text fill="#000000" font-family="sans-serif" font-size="13" lengthAdjust="spacing" textLength="8" x="1240.4398" y="599.7205">1</text><text fill="#000000" font-family="sans-serif" font-size="13" lengthAdjust="spacing" textLength="7" x="1419.8086" y="1116.6719">*</text><!--MD5=[328dae9b2f192140d45e51cd90ecd75a]
link Estafeta to Entrega--><path codeLine="142" d="M717.302,602.5249 C815.312,595.8639 1047.69,580.0709 1144.26,573.5079 " fill="none" id="Estafeta-Entrega" style="stroke:#A80036;stroke-width:1.0;"/><polygon fill="#000000" points="913.9885,568.7963,904.7649,566.4774,905.1635,572.3418,913.9885,568.7963" style="stroke:#000000;stroke-width:1.0;"/><text fill="#000000" font-family="sans-serif" font-size="13" lengthAdjust="spacing" textLength="42" x="918" y="573.6358">realiza</text><text fill="#000000" font-family="sans-serif" font-size="13" lengthAdjust="spacing" textLength="8" x="724.9279" y="615.2993">1</text><text fill="#000000" font-family="sans-serif" font-size="13" lengthAdjust="spacing" textLength="7" x="1129.3531" y="587.2967">*</text><!--MD5=[b39feb7ad9ed03cb1a05d76e3f369af6]
link Estafeta to EstadoEstafeta--><path codeLine="143" d="M717.157,581.6959 C737.186,571.6859 761.358,560.5439 784,552.5689 C903.026,510.6459 1048.18,481.1359 1127.91,466.6859 " fill="none" id="Estafeta-EstadoEstafeta" style="stroke:#A80036;stroke-width:1.0;"/><polygon fill="#000000" points="921.8148,465.7842,912.3123,465.3929,913.8971,471.0531,921.8148,465.7842" style="stroke:#000000;stroke-width:1.0;"/><text fill="#000000" font-family="sans-serif" font-size="13" lengthAdjust="spacing" textLength="26" x="926" y="471.6328">tem</text><text fill="#000000" font-family="sans-serif" font-size="13" lengthAdjust="spacing" textLength="8" x="725.0711" y="591.1795">1</text><text fill="#000000" font-family="sans-serif" font-size="13" lengthAdjust="spacing" textLength="8" x="1112.0381" y="480.9321">1</text><!--MD5=[aa5a8ec5fd097e3d415964f18fa48efb]
link Estafeta to Utilizador--><path codeLine="144" d="M717.047,613.0019 C792.251,625.6919 949.096,652.7719 1081,679.5689 C1090.66,681.5319 1100.79,683.6869 1110.8,685.8759 " fill="none" id="Estafeta-Utilizador" style="stroke:#A80036;stroke-width:1.0;"/><polygon fill="#000000" points="900.4165,617.0452,892.0573,612.5093,890.9876,618.289,900.4165,617.0452" style="stroke:#000000;stroke-width:1.0;"/><text fill="#000000" font-family="sans-serif" font-size="13" lengthAdjust="spacing" textLength="69" x="904.5" y="620.6358">atua como</text><text fill="#000000" font-family="sans-serif" font-size="13" lengthAdjust="spacing" textLength="8" x="724.9436" y="627.4749">1</text><text fill="#000000" font-family="sans-serif" font-size="13" lengthAdjust="spacing" textLength="8" x="1095.013" y="696.9765">1</text><!--MD5=[b4161b205744775e44f73e41ced309e0]
link Administrador to Utilizador--><path codeLine="145" d="M348.102,699.8239 C503.531,700.5179 934.322,702.4399 1110.7,703.2269 " fill="none" id="Administrador-Utilizador" style="stroke:#A80036;stroke-width:1.0;"/><polygon fill="#000000" points="639.5,692.1576,630.4681,689.1784,630.4418,695.0562,639.5,692.1576" style="stroke:#000000;stroke-width:1.0;"/><text fill="#000000" font-family="sans-serif" font-size="13" lengthAdjust="spacing" textLength="69" x="643.5" y="696.6358">atua como</text><text fill="#000000" font-family="sans-serif" font-size="13" lengthAdjust="spacing" textLength="8" x="356.0588" y="712.8929">1</text><text fill="#000000" font-family="sans-serif" font-size="13" lengthAdjust="spacing" textLength="8" x="1094.9034" y="715.9813">1</text><!--MD5=[4fe240217702a86376bae6ca4f1a3aaa]
link Administrador to Estafeta--><path codeLine="146" d="M348.16,691.7449 C402.898,683.5379 487.497,668.9809 559,648.5689 C581.444,642.1629 605.695,633.0829 625.83,624.9159 " fill="none" id="Administrador-Estafeta" style="stroke:#A80036;stroke-width:1.0;"/><polygon fill="#000000" points="459.8612,638.9653,450.3795,638.2245,451.7549,643.9392,459.8612,638.9653" style="stroke:#000000;stroke-width:1.0;"/><text fill="#000000" font-family="sans-serif" font-size="13" lengthAdjust="spacing" textLength="44" x="464" y="644.6358">regista</text><text fill="#000000" font-family="sans-serif" font-size="13" lengthAdjust="spacing" textLength="8" x="356.1243" y="686.8569">1</text><text fill="#000000" font-family="sans-serif" font-size="13" lengthAdjust="spacing" textLength="7" x="610.9935" y="641.2877">*</text><!--MD5=[651704aa6f94d771ebfe007ead522536]
link Administrador to Produto--><path codeLine="147" d="M348.324,686.2739 C356.45,682.3239 364.05,677.2049 370,670.5689 C406.99,629.3189 372.592,597.7209 400,549.5689 C483.564,402.7659 501.576,282.5659 670.5,282.5659 C670.5,282.5659 670.5,282.5659 1451,282.5659 C1527.04,282.5659 1614.16,263.3859 1663.62,250.6459 " fill="none" id="Administrador-Produto" style="stroke:#A80036;stroke-width:1.0;"/><polygon fill="#000000" points="1142.2464,272.5603,1132.736,272.6142,1134.5841,278.194,1142.2464,272.5603" style="stroke:#000000;stroke-width:1.0;"/><text fill="#000000" font-family="sans-serif" font-size="13" lengthAdjust="spacing" textLength="97" x="1146.5" y="278.6328">insere no stock</text><text fill="#000000" font-family="sans-serif" font-size="13" lengthAdjust="spacing" textLength="8" x="355.9197" y="697.6426">1</text><text fill="#000000" font-family="sans-serif" font-size="13" lengthAdjust="spacing" textLength="7" x="1648.9922" y="265.8989">*</text><!--MD5=[0fc9bb1525e6d91145a84fc7b9214a08]
link Administrador to Veiculo--><path codeLine="148" d="M348.23,683.7029 C355.994,680.1209 363.51,675.7879 370,670.5689 C389.312,655.0399 381.255,639.7789 400,623.5689 C550.067,493.7959 1099.17,299.2059 1266,406.5659 C1379.82,479.8159 1423.68,643.1489 1439.94,737.5329 " fill="none" id="Administrador-Veiculo" style="stroke:#A80036;stroke-width:1.0;"/><polygon fill="#000000" points="793.9939,369.3786,785.1046,365.9978,784.8151,371.8685,793.9939,369.3786" style="stroke:#000000;stroke-width:1.0;"/><text fill="#000000" font-family="sans-serif" font-size="13" lengthAdjust="spacing" textLength="282" x="798" y="373.6328">adiciona, remove ou atualiza e cria QR code</text><text fill="#000000" font-family="sans-serif" font-size="13" lengthAdjust="spacing" textLength="8" x="356.1601" y="673.9256">1</text><text fill="#000000" font-family="sans-serif" font-size="13" lengthAdjust="spacing" textLength="7" x="1431.5416" y="726.4851">*</text><!--MD5=[6ba179a0a54b0b32b52757b8e4d27c6d]
link Administrador to Parque--><path codeLine="149" d="M325.012,719.7349 C391.872,759.3749 540.746,847.6399 619.453,894.3049 " fill="none" id="Administrador-Parque" style="stroke:#A80036;stroke-width:1.0;"/><polygon fill="#000000" points="409.3009,759.6853,403.0193,752.5444,400.0217,757.6004,409.3009,759.6853" style="stroke:#000000;stroke-width:1.0;"/><text fill="#000000" font-family="sans-serif" font-size="13" lengthAdjust="spacing" textLength="144" x="414" y="761.6358">define numeroMaximo</text><text fill="#000000" font-family="sans-serif" font-size="13" lengthAdjust="spacing" textLength="8" x="325.7341" y="739.6016">1</text><text fill="#000000" font-family="sans-serif" font-size="13" lengthAdjust="spacing" textLength="8" x="603.5714" y="903.1646">1</text><!--MD5=[43a7c1a046aa41d1c9842e3954366be4]
link Cliente to Endereco--><path codeLine="150" d="M708.257,1206.2919 C722.66,1217.2909 739.308,1230.3089 754,1242.5689 C767.772,1254.0629 768.43,1260.6609 784,1269.5689 C904.175,1338.3239 956.748,1302.4899 1081,1363.5689 C1102.72,1374.2469 1124.98,1389.0059 1143.49,1402.5349 " fill="none" id="Cliente-Endereco" style="stroke:#A80036;stroke-width:1.0;"/><polygon fill="#000000" points="921.5581,1263.1905,914.5204,1256.7935,912.1044,1262.1518,921.5581,1263.1905" style="stroke:#000000;stroke-width:1.0;"/><text fill="#000000" font-family="sans-serif" font-size="13" lengthAdjust="spacing" textLength="26" x="926" y="1265.6358">tem</text><text fill="#000000" font-family="sans-serif" font-size="13" lengthAdjust="spacing" textLength="8" x="707.4226" y="1225.881">1</text><text fill="#000000" font-family="sans-serif" font-size="13" lengthAdjust="spacing" textLength="8" x="1127.3727" y="1410.0344">1</text><!--MD5=[00a2b7b20e7d7828fa181bc7c0dc6998]
link Cliente to Utilizador--><path codeLine="151" d="M680.864,1152.9349 C695.777,1108.7839 730.506,1019.4739 784,960.5689 C877.945,857.1219 1022.69,778.6409 1110.89,736.9929 " fill="none" id="Cliente-Utilizador" style="stroke:#A80036;stroke-width:1.0;"/><polygon fill="#000000" points="899.0939,740.6591,890.5492,744.8352,894.6357,749.0601,899.0939,740.6591" style="stroke:#000000;stroke-width:1.0;"/><text fill="#000000" font-family="sans-serif" font-size="13" lengthAdjust="spacing" textLength="69" x="904.5" y="748.6358">atua como</text><text fill="#000000" font-family="sans-serif" font-size="13" lengthAdjust="spacing" textLength="8" x="674.1044" y="1142.1463">1</text><text fill="#000000" font-family="sans-serif" font-size="13" lengthAdjust="spacing" textLength="8" x="1095.1115" y="752.9656">1</text><!--MD5=[beec9e5f2ed2709028dd31c1dc478e7b]
link Cliente to Encomenda--><path codeLine="152" d="M708.138,1179.5689 C832.114,1179.5689 1245.12,1179.5689 1394.49,1179.5689 " fill="none" id="Cliente-Encomenda" style="stroke:#A80036;stroke-width:1.0;"/><polygon fill="#000000" points="1146,1171.1353,1136.9549,1168.1964,1136.9549,1174.0743,1146,1171.1353" style="stroke:#000000;stroke-width:1.0;"/><text fill="#000000" font-family="sans-serif" font-size="13" lengthAdjust="spacing" textLength="90" x="1150" y="1175.6358">realiza e paga</text><text fill="#000000" font-family="sans-serif" font-size="13" lengthAdjust="spacing" textLength="8" x="715.8846" y="1175.2374">1</text><text fill="#000000" font-family="sans-serif" font-size="13" lengthAdjust="spacing" textLength="7" x="1379.5605" y="1192.651">*</text><!--MD5=[0b9a64f88a8f68498a0520ea68e94a71]
link Cliente to Cartao--><path codeLine="153" d="M708.017,1170.6239 C729.854,1165.2899 758.452,1158.5999 784,1153.5689 C901.307,1130.4729 1039,1109.6209 1119.42,1098.0649 " fill="none" id="Cliente-Cartao" style="stroke:#A80036;stroke-width:1.0;"/><polygon fill="#000000" points="914.424,1094.2669,905.0059,1092.9437,906.0269,1098.7322,914.424,1094.2669" style="stroke:#000000;stroke-width:1.0;"/><text fill="#000000" font-family="sans-serif" font-size="13" lengthAdjust="spacing" textLength="41" x="918.5" y="1099.6358">possui</text><text fill="#000000" font-family="sans-serif" font-size="13" lengthAdjust="spacing" textLength="8" x="715.9938" y="1164.4855">1</text><text fill="#000000" font-family="sans-serif" font-size="13" lengthAdjust="spacing" textLength="8" x="1103.4269" y="1111.9754">1</text><!--MD5=[1925886c588cf3413441b7f629c00030]
link Cliente to Recibo--><path codeLine="154" d="M708.289,1184.3599 C866.373,1205.5189 1501.45,1290.5249 1664.95,1312.4099 " fill="none" id="Cliente-Recibo" style="stroke:#A80036;stroke-width:1.0;"/><polygon fill="#000000" points="1306.4558,1255.7987,1297.8806,1251.6857,1297.1008,1257.5116,1306.4558,1255.7987" style="stroke:#000000;stroke-width:1.0;"/><text fill="#000000" font-family="sans-serif" font-size="13" lengthAdjust="spacing" textLength="41" x="1310.5" y="1259.6358">possui</text><text fill="#000000" font-family="sans-serif" font-size="13" lengthAdjust="spacing" textLength="8" x="716.0644" y="1198.8011">1</text><text fill="#000000" font-family="sans-serif" font-size="13" lengthAdjust="spacing" textLength="7" x="1650.0127" y="1324.8825">*</text><!--MD5=[14a4d173783bbce950e930df82c583df]
link Encomenda to Pagamento--><path codeLine="155" d="M1505.79,1160.0409 C1550.32,1144.1689 1612.53,1121.9949 1655.21,1106.7819 " fill="none" id="Encomenda-Pagamento" style="stroke:#A80036;stroke-width:1.0;"/><polygon fill="#000000" points="1564.2098,1115.4566,1554.703,1115.7251,1556.6765,1121.2618,1564.2098,1115.4566" style="stroke:#000000;stroke-width:1.0;"/><text fill="#000000" font-family="sans-serif" font-size="13" lengthAdjust="spacing" textLength="26" x="1568.5" y="1121.6358">tem</text><text fill="#000000" font-family="sans-serif" font-size="13" lengthAdjust="spacing" textLength="8" x="1513.4506" y="1170.5737">1</text><text fill="#000000" font-family="sans-serif" font-size="13" lengthAdjust="spacing" textLength="8" x="1639.383" y="1122.517">1</text><!--MD5=[6c0553761f646c959ef63e0d38e06ec1]
link Encomenda to Recibo--><path codeLine="156" d="M1505.79,1209.5129 C1553.8,1235.7519 1622.36,1273.2259 1664.84,1296.4419 " fill="none" id="Encomenda-Recibo" style="stroke:#A80036;stroke-width:1.0;"/><polygon fill="#000000" points="1556.3875,1225.5333,1549.86,1218.6164,1547.041,1223.7742,1556.3875,1225.5333" style="stroke:#000000;stroke-width:1.0;"/><text fill="#000000" font-family="sans-serif" font-size="13" lengthAdjust="spacing" textLength="41" x="1561" y="1227.6358">possui</text><text fill="#000000" font-family="sans-serif" font-size="13" lengthAdjust="spacing" textLength="8" x="1513.4506" y="1226.3843">1</text><text fill="#000000" font-family="sans-serif" font-size="13" lengthAdjust="spacing" textLength="8" x="1649.0631" y="1306.0565">1</text><!--MD5=[cd2aeefe8c457d184a69396a9f9cb06a]
link Entrega to Veiculo--><path codeLine="157" d="M1232.8,605.9759 C1243.75,615.1539 1255.4,625.1169 1266,634.5689 C1305.42,669.7359 1348.28,710.3479 1382.6,743.4879 " fill="none" id="Entrega-Veiculo" style="stroke:#A80036;stroke-width:1.0;"/><polygon fill="#000000" points="1297.3166,649.7541,1301.9925,658.0358,1305.9674,653.7058,1297.3166,649.7541" style="stroke:#000000;stroke-width:1.0;"/><text fill="#000000" font-family="sans-serif" font-size="13" lengthAdjust="spacing" textLength="42" x="1310" y="657.6358">realiza</text><text fill="#000000" font-family="sans-serif" font-size="13" lengthAdjust="spacing" textLength="7" x="1240.4181" y="624.8743">*</text><text fill="#000000" font-family="sans-serif" font-size="13" lengthAdjust="spacing" textLength="8" x="1366.7906" y="749.2402">1</text><!--MD5=[460034a14c91c8062cdb3d6e7324968c]
link Veiculo to Drone--><path codeLine="158" d="M1517.01,808.5689 C1566.11,808.5689 1631.08,808.5689 1669.95,808.5689 " fill="none" id="Veiculo-Drone" style="stroke:#A80036;stroke-width:1.0;"/><polygon fill="#000000" points="1563.5,800.1353,1572.5451,803.0743,1572.5451,797.1964,1563.5,800.1353" style="stroke:#000000;stroke-width:1.0;"/><text fill="#000000" font-family="sans-serif" font-size="13" lengthAdjust="spacing" textLength="8" x="1577.5" y="804.6358"></text><text fill="#000000" font-family="sans-serif" font-size="13" lengthAdjust="spacing" textLength="8" x="1525.2205" y="821.4854">1</text><text fill="#000000" font-family="sans-serif" font-size="13" lengthAdjust="spacing" textLength="8" x="1653.9991" y="822.2367">1</text><!--MD5=[0fa340c3d135fb564aedca6a2c40d6f7]
link Veiculo to Scooter--><path codeLine="159" d="M1517.01,783.7329 C1563.77,766.1409 1624.93,743.1309 1664.22,728.3479 " fill="none" id="Veiculo-Scooter" style="stroke:#A80036;stroke-width:1.0;"/><polygon fill="#000000" points="1563.8203,744.896,1573.3209,744.4616,1571.2511,738.9602,1563.8203,744.896" style="stroke:#000000;stroke-width:1.0;"/><text fill="#000000" font-family="sans-serif" font-size="13" lengthAdjust="spacing" textLength="8" x="1577.5" y="747.6358"></text><text fill="#000000" font-family="sans-serif" font-size="13" lengthAdjust="spacing" textLength="8" x="1525.2205" y="793.7777">1</text><text fill="#000000" font-family="sans-serif" font-size="13" lengthAdjust="spacing" textLength="8" x="1648.6094" y="744.2722">1</text><!--MD5=[4d4d66a582ec4263d33f69aa33f73dd1]
link Veiculo to EstadoVeiculo--><path codeLine="160" d="M1517.01,834.9739 C1556.9,850.9299 1607.27,871.0789 1645.61,886.4119 " fill="none" id="Veiculo-EstadoVeiculo" style="stroke:#A80036;stroke-width:1.0;"/><polygon fill="#000000" points="1554.8576,836.2784,1562.1643,842.3663,1564.3472,836.9088,1554.8576,836.2784" style="stroke:#000000;stroke-width:1.0;"/><text fill="#000000" font-family="sans-serif" font-size="13" lengthAdjust="spacing" textLength="26" x="1568.5" y="842.6358">tem</text><text fill="#000000" font-family="sans-serif" font-size="13" lengthAdjust="spacing" textLength="8" x="1525.2205" y="850.9435">1</text><text fill="#000000" font-family="sans-serif" font-size="13" lengthAdjust="spacing" textLength="8" x="1629.9453" y="896.6025">1</text><!--MD5=[db4a5ac14aaeb2d946b80db0d46ff947]
link Farmacia to Produto--><path codeLine="161" d="M54.2653,733.2009 C69.3147,588.6259 137.805,23.5659 289,23.5659 C289,23.5659 289,23.5659 1451,23.5659 C1554.98,23.5659 1637.72,130.6559 1677.57,194.0259 " fill="none" id="Farmacia-Produto" style="stroke:#A80036;stroke-width:1.0;"/><polygon fill="#000000" points="921.7451,13.5563,912.2347,13.6183,914.0875,19.1965,921.7451,13.5563" style="stroke:#000000;stroke-width:1.0;"/><text fill="#000000" font-family="sans-serif" font-size="13" lengthAdjust="spacing" textLength="26" x="926" y="19.6328">tem</text><text fill="#000000" font-family="sans-serif" font-size="13" lengthAdjust="spacing" textLength="8" x="46.3159" y="722.5272">1</text><text fill="#000000" font-family="sans-serif" font-size="13" lengthAdjust="spacing" textLength="7" x="1665.9104" y="182.9645">*</text><!--MD5=[60097591193c89dbde5dfd99b98b5263]
link Encomenda to Produto--><path codeLine="162" d="M1485.98,1127.3379 C1521.48,1071.6549 1575.06,979.6789 1603,892.5689 C1633.54,797.3439 1618.24,768.4779 1633,669.5689 C1653.93,529.2799 1682.02,363.8259 1695.55,285.3259 " fill="none" id="Encomenda-Produto" style="stroke:#A80036;stroke-width:1.0;"/><polygon fill="#000000" points="1560.7076,879.2833,1555.6711,887.3508,1561.3749,888.7705,1560.7076,879.2833" style="stroke:#000000;stroke-width:1.0;"/><text fill="#000000" font-family="sans-serif" font-size="13" lengthAdjust="spacing" textLength="26" x="1568.5" y="888.6358">tem</text><text fill="#000000" font-family="sans-serif" font-size="13" lengthAdjust="spacing" textLength="8" x="1482.2773" y="1116.3858">1</text><text fill="#000000" font-family="sans-serif" font-size="13" lengthAdjust="spacing" textLength="7" x="1686.7214" y="305.2091">*</text><!--MD5=[5a27d3a82ae5518cc3aa88a6b9414b77]
link Farmacia to Encomenda--><path codeLine="163" d="M51.3929,799.8289 C54.627,911.7259 81.2442,1267.5689 289,1267.5689 C289,1267.5689 289,1267.5689 1189.5,1267.5689 C1263.24,1267.5689 1342.81,1235.3089 1394.13,1209.8539 " fill="none" id="Farmacia-Encomenda" style="stroke:#A80036;stroke-width:1.0;"/><polygon fill="#000000" points="660.782,1260.5956,652.9896,1255.1432,651.273,1260.7647,660.782,1260.5956" style="stroke:#000000;stroke-width:1.0;"/><text fill="#000000" font-family="sans-serif" font-size="13" lengthAdjust="spacing" textLength="26" x="665" y="1263.6358">tem</text><text fill="#000000" font-family="sans-serif" font-size="13" lengthAdjust="spacing" textLength="8" x="42.9285" y="819.2028">1</text><text fill="#000000" font-family="sans-serif" font-size="13" lengthAdjust="spacing" textLength="7" x="1379.5232" y="1226.769">*</text><!--MD5=[4f96609c99ecadb81dc825d0ae539cef]
link Farmacia to Parque--><path codeLine="164" d="M78.4699,799.6069 C90.806,812.3999 106.3329,825.9999 123,834.5689 C289.41,920.1289 518.509,927.6639 619.349,926.3209 " fill="none" id="Farmacia-Parque" style="stroke:#A80036;stroke-width:1.0;"/><polygon fill="#000000" points="271.8682,865.2758,263.7319,860.3512,262.3912,866.0741,271.8682,865.2758" style="stroke:#000000;stroke-width:1.0;"/><text fill="#000000" font-family="sans-serif" font-size="13" lengthAdjust="spacing" textLength="41" x="276" y="868.6358">possui</text><text fill="#000000" font-family="sans-serif" font-size="13" lengthAdjust="spacing" textLength="8" x="74.9815" y="819.1963">1</text><text fill="#000000" font-family="sans-serif" font-size="13" lengthAdjust="spacing" textLength="7" x="604.5231" y="939.6828">*</text><!--MD5=[639e2fc5a451b1bb392d1ae296701488]
link Parque to Veiculo--><path codeLine="165" d="M723.624,912.3219 C742.51,908.1269 764.148,903.7049 784,900.5689 C996.689,866.9739 1053,883.1389 1266,851.5689 C1304.97,845.7929 1314.63,843.5029 1353,834.5689 C1362.67,832.3179 1372.84,829.7669 1382.8,827.1629 " fill="none" id="Parque-Veiculo" style="stroke:#A80036;stroke-width:1.0;"/><polygon fill="#000000" points="1170.4588,842.4947,1161.1117,840.7389,1161.8648,846.5683,1170.4588,842.4947" style="stroke:#000000;stroke-width:1.0;"/><text fill="#000000" font-family="sans-serif" font-size="13" lengthAdjust="spacing" textLength="41" x="1174.5" y="847.6358">possui</text><text fill="#000000" font-family="sans-serif" font-size="13" lengthAdjust="spacing" textLength="8" x="731.5164" y="923.7152">1</text><text fill="#000000" font-family="sans-serif" font-size="13" lengthAdjust="spacing" textLength="7" x="1368.0672" y="842.0672">*</text><!--MD5=[79d5a61b37419f60a30a60f3bc0e499f]
link Farmacia to Veiculo--><path codeLine="166" d="M93.1667,778.6049 C140.433,791.0159 219.56,808.5689 289,808.5689 C289,808.5689 289,808.5689 1189.5,808.5689 C1255.28,808.5689 1330.43,808.5689 1382.87,808.5689 " fill="none" id="Farmacia-Veiculo" style="stroke:#A80036;stroke-width:1.0;"/><polygon fill="#000000" points="653.4987,800.2515,644.5243,797.1032,644.3877,802.9795,653.4987,800.2515" style="stroke:#000000;stroke-width:1.0;"/><text fill="#000000" font-family="sans-serif" font-size="13" lengthAdjust="spacing" textLength="41" x="657.5" y="804.6358">possui</text><text fill="#000000" font-family="sans-serif" font-size="13" lengthAdjust="spacing" textLength="8" x="100.9787" y="793.9508">1</text><text fill="#000000" font-family="sans-serif" font-size="13" lengthAdjust="spacing" textLength="7" x="1368.1448" y="821.4395">*</text><!--MD5=[e9cb6b9ea8421b6538fc03abcb01a9a8]
link Farmacia to Endereco--><path codeLine="167" d="M51.0647,799.8009 C51.9337,903.4199 59.8263,1218.1979 123,1293.5689 C385.204,1606.4019 977.19,1489.5657 1143.37,1449.0996 " fill="none" id="Farmacia-Endereco" style="stroke:#A80036;stroke-width:1.0;"/><polygon fill="#000000" points="468.298,1459.6906,462.0246,1452.5425,459.0211,1457.5951,468.298,1459.6906" style="stroke:#000000;stroke-width:1.0;"/><text fill="#000000" font-family="sans-serif" font-size="13" lengthAdjust="spacing" textLength="26" x="473" y="1461.6362">tem</text><text fill="#000000" font-family="sans-serif" font-size="13" lengthAdjust="spacing" textLength="8" x="51.9668" y="819.1698">1</text><text fill="#000000" font-family="sans-serif" font-size="13" lengthAdjust="spacing" textLength="8" x="1127.5399" y="1464.1927">1</text><!--MD5=[3f261229c7309ba030e97986da9f3259]
link Parque to Estacionamento--><path codeLine="168" d="M723.541,957.0549 C741.876,966.9629 763.181,976.5559 784,981.5689 C901.823,1009.9389 1044.67,999.9659 1124.91,990.5159 " fill="none" id="Parque-Estacionamento" style="stroke:#A80036;stroke-width:1.0;"/><polygon fill="#000000" points="921.9827,973.5507,913.2131,969.8705,912.7247,975.728,921.9827,973.5507" style="stroke:#000000;stroke-width:1.0;"/><text fill="#000000" font-family="sans-serif" font-size="13" lengthAdjust="spacing" textLength="26" x="926" y="977.6358">tem</text><text fill="#000000" font-family="sans-serif" font-size="13" lengthAdjust="spacing" textLength="8" x="731.4218" y="974.7388">1</text><text fill="#000000" font-family="sans-serif" font-size="13" lengthAdjust="spacing" textLength="7" x="1110.1527" y="1004.5148">*</text><!--MD5=[1039b111a25a8fa482cc80fea0f097ce]
link Estacionamento to Veiculo--><path codeLine="169" d="M1252.07,995.9619 C1284.31,999.9689 1323.04,999.2109 1353,981.5689 C1390.44,959.5249 1414.32,917.0239 1428.9,879.6669 " fill="none" id="Estacionamento-Veiculo" style="stroke:#A80036;stroke-width:1.0;"/><polygon fill="#000000" points="1313.1775,970.3879,1304.0054,972.9025,1307.2352,977.8135,1313.1775,970.3879" style="stroke:#000000;stroke-width:1.0;"/><text fill="#000000" font-family="sans-serif" font-size="13" lengthAdjust="spacing" textLength="26" x="1318" y="977.6358">tem</text><text fill="#000000" font-family="sans-serif" font-size="13" lengthAdjust="spacing" textLength="8" x="1259.8828" y="1010.5905">1</text><text fill="#000000" font-family="sans-serif" font-size="13" lengthAdjust="spacing" textLength="8" x="1418.1547" y="900.3138">1</text><!--MD5=[06143d4fc5f7e61d4193d2b4f541983b]
link Farmacia to Estafeta--><path codeLine="170" d="M86.6429,733.4099 C97.8371,723.8249 110.537,713.7519 123,705.5689 C159.055,681.8979 169.066,676.1619 210,662.5689 C356.599,613.8899 541.943,606.1549 625.743,605.3389 " fill="none" id="Farmacia-Estafeta" style="stroke:#A80036;stroke-width:1.0;"/><polygon fill="#000000" points="279.3646,615.9797,269.8852,615.2109,271.2437,620.9296,279.3646,615.9797" style="stroke:#000000;stroke-width:1.0;"/><text fill="#000000" font-family="sans-serif" font-size="13" lengthAdjust="spacing" textLength="26" x="283.5" y="621.6358">tem</text><text fill="#000000" font-family="sans-serif" font-size="13" lengthAdjust="spacing" textLength="8" x="85.0695" y="722.5236">1</text><text fill="#000000" font-family="sans-serif" font-size="13" lengthAdjust="spacing" textLength="7" x="610.8927" y="618.5906">*</text><!--MD5=[1eb578f81baca05fae5600e8efb79c07]
link Farmacia to Administrador--><path codeLine="171" d="M93.0018,754.7449 C131.568,743.8879 189.043,727.7089 231.793,715.6739 " fill="none" id="Farmacia-Administrador" style="stroke:#A80036;stroke-width:1.0;"/><polygon fill="#000000" points="140.8129,720.7804,131.3099,720.4025,132.9026,726.0604,140.8129,720.7804" style="stroke:#000000;stroke-width:1.0;"/><text fill="#000000" font-family="sans-serif" font-size="13" lengthAdjust="spacing" textLength="26" x="145" y="726.6358">tem</text><text fill="#000000" font-family="sans-serif" font-size="13" lengthAdjust="spacing" textLength="8" x="101.0802" y="766.1136">1</text><text fill="#000000" font-family="sans-serif" font-size="13" lengthAdjust="spacing" textLength="8" x="215.8227" y="730.7737">1</text><!--MD5=[3f6503f1a57f2d55f08379ac406fcd0b]
link Farmacia to TransferenciaProduto--><path codeLine="172" d="M63.3428,733.3059 C77.372,695.7869 101.1631,633.0309 123,579.5689 C176.417,448.7959 244.488,295.0759 274.111,228.7659 " fill="none" id="Farmacia-TransferenciaProduto" style="stroke:#A80036;stroke-width:1.0;"/><polygon fill="#000000" points="129.9273,438.5187,123.729,445.732,129.1526,447.9977,129.9273,438.5187" style="stroke:#000000;stroke-width:1.0;"/><text fill="#000000" font-family="sans-serif" font-size="13" lengthAdjust="spacing" textLength="42" x="137" y="447.6328">realiza</text><text fill="#000000" font-family="sans-serif" font-size="13" lengthAdjust="spacing" textLength="8" x="57.1822" y="722.3991">1</text><text fill="#000000" font-family="sans-serif" font-size="13" lengthAdjust="spacing" textLength="7" x="263.6573" y="248.1291">*</text><!--MD5=[c855b1766254e06f87c76fb6bd0b050a]
link TransferenciaProduto to EstadoTransferencia--><path codeLine="173" d="M370.145,176.5359 C380.188,174.1659 390.331,171.7959 400,169.5659 C465.277,154.5459 539.574,138.1159 593.765,126.2459 " fill="none" id="TransferenciaProduto-EstadoTransferencia" style="stroke:#A80036;stroke-width:1.0;"/><polygon fill="#000000" points="468.8782,126.0353,459.4087,125.1525,460.6983,130.8872,468.8782,126.0353" style="stroke:#000000;stroke-width:1.0;"/><text fill="#000000" font-family="sans-serif" font-size="13" lengthAdjust="spacing" textLength="26" x="473" y="131.6328">tem</text><text fill="#000000" font-family="sans-serif" font-size="13" lengthAdjust="spacing" textLength="8" x="377.9021" y="187.564">1</text><text fill="#000000" font-family="sans-serif" font-size="13" lengthAdjust="spacing" textLength="7" x="579.0223" y="140.6424">*</text><!--MD5=[36ce0647da86725cfb4b25b0e75164d8]
link TransferenciaProduto to Produto--><path codeLine="174" d="M370.227,195.5659 C447,195.5659 566.73,195.5659 670.5,195.5659 C670.5,195.5659 670.5,195.5659 1451,195.5659 C1527.09,195.5659 1614.19,215.2059 1663.64,228.2359 " fill="none" id="TransferenciaProduto-Produto" style="stroke:#A80036;stroke-width:1.0;"/><polygon fill="#000000" points="1154.9984,187.2586,1146.0304,184.0922,1145.882,189.9682,1154.9984,187.2586" style="stroke:#000000;stroke-width:1.0;"/><text fill="#000000" font-family="sans-serif" font-size="13" lengthAdjust="spacing" textLength="72" x="1159" y="191.6328">referente a</text><text fill="#000000" font-family="sans-serif" font-size="13" lengthAdjust="spacing" textLength="8" x="377.9917" y="208.3483">1</text><text fill="#000000" font-family="sans-serif" font-size="13" lengthAdjust="spacing" textLength="8" x="1647.9297" y="239.6371">1</text><!--MD5=[f9343ba675743435552aee1f78894b70]
link Caminho to Endereco--><path codeLine="175" d="M754.302,1387.7669 C837.074,1389.9169 968.526,1395.9079 1081,1412.5693 C1101.67,1415.6306 1124.24,1420.6769 1143.26,1425.4371 " fill="none" id="Caminho-Endereco" style="stroke:#A80036;stroke-width:1.0;"/><polygon fill="#000000" points="898.9767,1380.6173,890.2571,1376.8201,889.6904,1382.6706,898.9767,1380.6173" style="stroke:#000000;stroke-width:1.0;"/><text fill="#000000" font-family="sans-serif" font-size="13" lengthAdjust="spacing" textLength="72" x="903" y="1384.6358">referente a</text><text fill="#000000" font-family="sans-serif" font-size="13" lengthAdjust="spacing" textLength="8" x="762.0328" y="1400.596">1</text><text fill="#000000" font-family="sans-serif" font-size="13" lengthAdjust="spacing" textLength="8" x="1127.4124" y="1436.759">1</text><!--MD5=[f9343ba675743435552aee1f78894b70]
link Caminho to Endereco--><path codeLine="176" d="M746.246,1425.5745 C758.554,1430.5342 771.417,1434.8281 784,1437.5693 C911.995,1465.4526 1068.3,1452.6002 1143.26,1443.6462 " fill="none" id="Caminho-Endereco-1" style="stroke:#A80036;stroke-width:1.0;"/><polygon fill="#000000" points="898.9948,1429.3631,890.0927,1426.0159,889.8255,1431.8877,898.9948,1429.3631" style="stroke:#000000;stroke-width:1.0;"/><text fill="#000000" font-family="sans-serif" font-size="13" lengthAdjust="spacing" textLength="72" x="903" y="1433.6362">referente a</text><text fill="#000000" font-family="sans-serif" font-size="13" lengthAdjust="spacing" textLength="8" x="751.2898" y="1446.19">1</text><text fill="#000000" font-family="sans-serif" font-size="13" lengthAdjust="spacing" textLength="8" x="1127.4124" y="1457.8701">1</text><!--MD5=[8a0c04df4bb82bb12bfe48a1dc1f1b0a]
@startuml
skinparam classAttributeIconSize 0
hide methods
left to right direction

class Entrega {
  -idEntrega
  -dataInicio
  -dataFim
  -pesoEntrega
}

class Encomenda {
  -idEncomenda
  -dataPedida
  -preco
  -pesoEncomenda
  -taxa
}

class EstadoEncomenda {
  -idEstadoEncomenda
  -designacao
}

class Produto {
  -idProduto
  -designacao
  -peso
  -precoBase
}

class Farmacia {
  -NIF
  -email
}

class Recibo {
  -idRecibo
  -dataRecibo
  -preco
}

class Estacionamento {
  -numeroLote
  -carregador
}

class Estafeta {
  -pesoEstafeta
}

class Utilizador {
  -NIF
  -nome
  -email
  -numeroSegurancaSocial
  -password
}

class Administrador {

}

class Endereco {
  -morada
  -latitude
  -longitude
  -altitude
}

class Scooter {
  -idScooter
}

class Veiculo {
  -idveiculo
  -descricao
  -capacidade
  -percentagemBateria
  -pesoMaximo
  -pesoVeiculo
  -potencia
  -areaFrontal
}

class Drone {
  -idDrone
  -largura
}


class Parque {
  -idParque
  -numeroMaximo
  -tipo
  -maxCap
}

class Cliente {
  -creditos
}

class Cartao{
  -numeroCartaoCredito
  -dataDeValidade
  -CCV
}

class TransferenciaProduto {
  -idTransferencia
  -quantidade
}

class EstadoTransferencia {
  -id
  -designacao
}

class EstadoVeiculo {
  -idEstadoVeiculo
  -designacao
}

class EstadoEstafeta {
  -id
  -designacao
}

class Pagamento {
  -idPagamento
  -precoTotal
}

class Caminho {
  -roadResistanceCoefficient
  -velocidadeVento
  -direcaoVento
}

Encomenda "1" - - "1" EstadoEncomenda : tem >
Entrega "1" - - "*" Encomenda : possui >
Estafeta "1" - - "*" Entrega: realiza >
Estafeta "1" - - "1" EstadoEstafeta: tem >
Estafeta "1" - - "1" Utilizador: atua como >
Administrador "1" - - "1" Utilizador: atua como >
Administrador "1" - - "*" Estafeta: regista >
Administrador "1" - - "*" Produto: insere no stock >
Administrador "1" - - "*" Veiculo: adiciona, remove ou atualiza e cria QR code >
Administrador "1" - - "1" Parque: define numeroMaximo >
Cliente "1" - - "1" Endereco: tem >
Cliente "1" - - "1" Utilizador: atua como >
Cliente "1" - - "*" Encomenda: realiza e paga >
Cliente "1" - - "1" Cartao: possui >
Cliente "1" - - "*" Recibo: possui >
Encomenda "1" - - "1" Pagamento: tem >
Encomenda "1" - - "1" Recibo: possui >
Entrega "*" - - "1" Veiculo: realiza <
Veiculo "1" - - "1" Drone:  <
Veiculo "1" - - "1" Scooter:  <
Veiculo "1" - - "1" EstadoVeiculo: tem <
Farmacia "1" - - "*" Produto: tem >
Encomenda "1" - - "*" Produto: tem >
Farmacia "1" - - "*" Encomenda: tem >
Farmacia "1" - - "*" Parque: possui >
Parque "1" - - "*" Veiculo: possui >
Farmacia "1" - - "*" Veiculo: possui >
Farmacia "1" - - "1" Endereco: tem >
Parque "1" - - "*" Estacionamento: tem >
Estacionamento "1" - - "1" Veiculo: tem >
Farmacia "1" - - "*" Estafeta: tem >
Farmacia "1" - - "1" Administrador: tem >
Farmacia "1" - - "*" TransferenciaProduto: realiza >
TransferenciaProduto "1" - - "*" EstadoTransferencia: tem >
TransferenciaProduto "1" - - "1" Produto: referente a >
Caminho "1" - - "1" Endereco: referente a >
Caminho "1" - - "1" Endereco: referente a >
@enduml

PlantUML version 1.2021.01beta3(Unknown compile time)
(GPL source distribution)
Java Runtime: Java(TM) SE Runtime Environment
JVM: Java HotSpot(TM) 64-Bit Server VM
Default Encoding: UTF-8
Language: en
Country: US
--></g></svg>