<?xml version="1.0" encoding="UTF-8" standalone="no"?><svg xmlns="http://www.w3.org/2000/svg" xmlns:xlink="http://www.w3.org/1999/xlink" contentScriptType="application/ecmascript" contentStyleType="text/css" height="2060px" preserveAspectRatio="none" style="width:477px;height:2060px;" version="1.1" viewBox="0 0 477 2060" width="477px" zoomAndPan="magnify"><defs><filter height="300%" id="f16p3w3qr8e5ho" width="300%" x="-1" y="-1"><feGaussianBlur result="blurOut" stdDeviation="2.0"/><feColorMatrix in="blurOut" result="blurOut2" type="matrix" values="0 0 0 0 0 0 0 0 0 0 0 0 0 0 0 0 0 0 .4 0"/><feOffset dx="4.0" dy="4.0" in="blurOut2" result="blurOut3"/><feBlend in="SourceGraphic" in2="blurOut3" mode="normal"/></filter></defs><g><ellipse cx="316.7599" cy="1841.852" fill="#FEFECE" filter="url(#f16p3w3qr8e5ho)" rx="97.2599" ry="21.852" style="stroke:#A80036;stroke-width:1.5;"/><text fill="#000000" font-family="sans-serif" font-size="14" lengthAdjust="spacing" textLength="158" x="237.7599" y="1844.6987">UC1 - Registar Cliente</text><ellipse cx="317.211" cy="1679.9422" fill="#FEFECE" filter="url(#f16p3w3qr8e5ho)" rx="97.711" ry="21.9422" style="stroke:#A80036;stroke-width:1.5;"/><text fill="#000000" font-family="sans-serif" font-size="14" lengthAdjust="spacing" textLength="159" x="237.711" y="1682.7889">UC2 - Leitura de dados</text><ellipse cx="316.7923" cy="611.7585" fill="#FEFECE" filter="url(#f16p3w3qr8e5ho)" rx="101.7923" ry="22.7585" style="stroke:#A80036;stroke-width:1.5;"/><text fill="#000000" font-family="sans-serif" font-size="14" lengthAdjust="spacing" textLength="168" x="232.7923" y="614.6051">UC3 - Adicionar scooter</text><ellipse cx="317.0203" cy="692.8041" fill="#FEFECE" filter="url(#f16p3w3qr8e5ho)" rx="99.5203" ry="22.3041" style="stroke:#A80036;stroke-width:1.5;"/><text fill="#000000" font-family="sans-serif" font-size="14" lengthAdjust="spacing" textLength="163" x="235.5203" y="695.6507">UC4 - Atualizar scooter</text><ellipse cx="316.8822" cy="773.0764" fill="#FEFECE" filter="url(#f16p3w3qr8e5ho)" rx="100.8822" ry="22.5764" style="stroke:#A80036;stroke-width:1.5;"/><text fill="#000000" font-family="sans-serif" font-size="14" lengthAdjust="spacing" textLength="166" x="233.8822" y="775.9231">UC5 - Remover scooter</text><ellipse cx="316.7599" cy="290.852" fill="#FEFECE" filter="url(#f16p3w3qr8e5ho)" rx="97.2599" ry="21.852" style="stroke:#A80036;stroke-width:1.5;"/><text fill="#000000" font-family="sans-serif" font-size="14" lengthAdjust="spacing" textLength="158" x="237.7599" y="293.6987">UC6 - Registo entrega</text><ellipse cx="316.8093" cy="852.7619" fill="#FEFECE" filter="url(#f16p3w3qr8e5ho)" rx="96.8093" ry="21.7619" style="stroke:#A80036;stroke-width:1.5;"/><text fill="#000000" font-family="sans-serif" font-size="14" lengthAdjust="spacing" textLength="157" x="238.3093" y="855.6085">UC7 - Adicionar Drone</text><ellipse cx="316.9604" cy="931.9921" fill="#FEFECE" filter="url(#f16p3w3qr8e5ho)" rx="95.4604" ry="21.4921" style="stroke:#A80036;stroke-width:1.5;"/><text fill="#000000" font-family="sans-serif" font-size="14" lengthAdjust="spacing" textLength="154" x="239.9604" y="934.8388">UC8 - Remover Drone</text><ellipse cx="317.2481" cy="1011.8496" fill="#FEFECE" filter="url(#f16p3w3qr8e5ho)" rx="102.2481" ry="22.8496" style="stroke:#A80036;stroke-width:1.5;"/><text fill="#000000" font-family="sans-serif" font-size="14" lengthAdjust="spacing" textLength="169" x="232.7481" y="1014.6963">UC9 - Notificar Estafeta</text><ellipse cx="316.9496" cy="1093.9899" fill="#FEFECE" filter="url(#f16p3w3qr8e5ho)" rx="105.4496" ry="23.4899" style="stroke:#A80036;stroke-width:1.5;"/><text fill="#000000" font-family="sans-serif" font-size="14" lengthAdjust="spacing" textLength="176" x="228.9496" y="1096.8366">UC10 - Registar Estafeta</text><ellipse cx="317.2229" cy="369.0446" fill="#FEFECE" filter="url(#f16p3w3qr8e5ho)" rx="93.2229" ry="21.0446" style="stroke:#A80036;stroke-width:1.5;"/><text fill="#000000" font-family="sans-serif" font-size="14" lengthAdjust="spacing" textLength="149" x="242.7229" y="371.8913">UC11 - Inicia Entrega</text><ellipse cx="316.9911" cy="1760.8982" fill="#FEFECE" filter="url(#f16p3w3qr8e5ho)" rx="104.9911" ry="23.3982" style="stroke:#A80036;stroke-width:1.5;"/><text fill="#000000" font-family="sans-serif" font-size="14" lengthAdjust="spacing" textLength="175" x="229.4911" y="1763.7449">UC12 - Estaciona Veículo</text><ellipse cx="317.209" cy="1177.0418" fill="#FEFECE" filter="url(#f16p3w3qr8e5ho)" rx="108.209" ry="24.0418" style="stroke:#A80036;stroke-width:1.5;"/><text fill="#000000" font-family="sans-serif" font-size="14" lengthAdjust="spacing" textLength="182" x="226.209" y="1179.8885">UC13 - Inserir Itens Stock</text><ellipse cx="316.9443" cy="1924.1889" fill="#FEFECE" filter="url(#f16p3w3qr8e5ho)" rx="111.4443" ry="24.6889" style="stroke:#A80036;stroke-width:1.5;"/><text fill="#000000" font-family="sans-serif" font-size="14" lengthAdjust="spacing" textLength="189" x="222.4443" y="1927.0355">UC14 - Realiza Encomenda</text><ellipse cx="316.8078" cy="2016.1616" fill="#FEFECE" filter="url(#f16p3w3qr8e5ho)" rx="148.8078" ry="32.1616" style="stroke:#A80036;stroke-width:1.5;"/><text fill="#000000" font-family="sans-serif" font-size="14" lengthAdjust="spacing" textLength="268" x="182.8078" y="2019.0082">UC15 - Farmácia Mais Próxima Cliente</text><ellipse cx="317.0326" cy="1263.8065" fill="#FEFECE" filter="url(#f16p3w3qr8e5ho)" rx="124.5326" ry="27.3065" style="stroke:#A80036;stroke-width:1.5;"/><text fill="#000000" font-family="sans-serif" font-size="14" lengthAdjust="spacing" textLength="217" x="208.5326" y="1266.6532">UC16 - Inserir Estacionamento</text><ellipse cx="316.8276" cy="1350.7655" fill="#FEFECE" filter="url(#f16p3w3qr8e5ho)" rx="106.8276" ry="23.7655" style="stroke:#A80036;stroke-width:1.5;"/><text fill="#000000" font-family="sans-serif" font-size="14" lengthAdjust="spacing" textLength="179" x="227.3276" y="1353.6122">UC17 - Atualizar Estafeta</text><ellipse cx="317.1614" cy="1435.9323" fill="#FEFECE" filter="url(#f16p3w3qr8e5ho)" rx="115.1614" ry="25.4323" style="stroke:#A80036;stroke-width:1.5;"/><text fill="#000000" font-family="sans-serif" font-size="14" lengthAdjust="spacing" textLength="197" x="218.6614" y="1438.779">UC18 - Atualizar Item Stock</text><ellipse cx="316.7652" cy="31.153" fill="#FEFECE" filter="url(#f16p3w3qr8e5ho)" rx="113.7652" ry="25.153" style="stroke:#A80036;stroke-width:1.5;"/><text fill="#000000" font-family="sans-serif" font-size="14" lengthAdjust="spacing" textLength="194" x="219.7652" y="33.9997">UC19 - Pedir Item Farmácia</text><ellipse cx="316.7923" cy="447.7585" fill="#FEFECE" filter="url(#f16p3w3qr8e5ho)" rx="101.7923" ry="22.7585" style="stroke:#A80036;stroke-width:1.5;"/><text fill="#000000" font-family="sans-serif" font-size="14" lengthAdjust="spacing" textLength="168" x="232.7923" y="450.6051">UC20 - Notificar Cliente</text><ellipse cx="316.8679" cy="1520.1736" fill="#FEFECE" filter="url(#f16p3w3qr8e5ho)" rx="106.3679" ry="23.6736" style="stroke:#A80036;stroke-width:1.5;"/><text fill="#000000" font-family="sans-serif" font-size="14" lengthAdjust="spacing" textLength="178" x="227.8679" y="1523.0203">UC21 - Registar Farmácia</text><ellipse cx="317.0975" cy="119.8195" fill="#FEFECE" filter="url(#f16p3w3qr8e5ho)" rx="132.0975" ry="28.8195" style="stroke:#A80036;stroke-width:1.5;"/><text fill="#000000" font-family="sans-serif" font-size="14" lengthAdjust="spacing" textLength="233" x="200.5975" y="122.6662">UC22 - Enviar Nota Transferência</text><ellipse cx="316.8004" cy="209.0601" fill="#FEFECE" filter="url(#f16p3w3qr8e5ho)" rx="113.3004" ry="25.0601" style="stroke:#A80036;stroke-width:1.5;"/><text fill="#000000" font-family="sans-serif" font-size="14" lengthAdjust="spacing" textLength="193" x="220.3004" y="211.9068">UC23 - Enviar Nota Entrega</text><ellipse cx="317.1626" cy="1601.0325" fill="#FEFECE" filter="url(#f16p3w3qr8e5ho)" rx="98.1626" ry="22.0325" style="stroke:#A80036;stroke-width:1.5;"/><text fill="#000000" font-family="sans-serif" font-size="14" lengthAdjust="spacing" textLength="160" x="237.1626" y="1603.8792">UC24 - Atualizar Drone</text><ellipse cx="316.9496" cy="529.9899" fill="#FEFECE" filter="url(#f16p3w3qr8e5ho)" rx="105.4496" ry="23.4899" style="stroke:#A80036;stroke-width:1.5;"/><text fill="#000000" font-family="sans-serif" font-size="14" lengthAdjust="spacing" textLength="176" x="228.9496" y="532.8366">UC25 - Entrega Eficiente</text><!--MD5=[df6a39b053164d23cc3ecae9c3484a54]
entity CLI--><ellipse cx="57" cy="1893" fill="#FEFECE" filter="url(#f16p3w3qr8e5ho)" rx="8" ry="8" style="stroke:#A80036;stroke-width:1.5;"/><path d="M57,1901 L57,1928 M44,1909 L70,1909 M57,1928 L44,1943 M57,1928 L70,1943 " fill="none" filter="url(#f16p3w3qr8e5ho)" style="stroke:#A80036;stroke-width:1.5;"/><text fill="#000000" font-family="sans-serif" font-size="14" lengthAdjust="spacing" textLength="52" x="31" y="1961.4951">Cliente</text><!--MD5=[5bb58f447e60c14e9d23282c6a4405f4]
entity ADM--><ellipse cx="57" cy="1063" fill="#FEFECE" filter="url(#f16p3w3qr8e5ho)" rx="8" ry="8" style="stroke:#A80036;stroke-width:1.5;"/><path d="M57,1071 L57,1098 M44,1079 L70,1079 M57,1098 L44,1113 M57,1098 L70,1113 " fill="none" filter="url(#f16p3w3qr8e5ho)" style="stroke:#A80036;stroke-width:1.5;"/><text fill="#000000" font-family="sans-serif" font-size="14" lengthAdjust="spacing" textLength="102" x="6" y="1131.4951">Administrador</text><!--MD5=[61de2b66ce398cb3e9505599a8faa6f3]
entity FAR--><ellipse cx="57" cy="89" fill="#FEFECE" filter="url(#f16p3w3qr8e5ho)" rx="8" ry="8" style="stroke:#A80036;stroke-width:1.5;"/><path d="M57,97 L57,124 M44,105 L70,105 M57,124 L44,139 M57,124 L70,139 " fill="none" filter="url(#f16p3w3qr8e5ho)" style="stroke:#A80036;stroke-width:1.5;"/><text fill="#000000" font-family="sans-serif" font-size="14" lengthAdjust="spacing" textLength="64" x="25" y="157.4951">Farmacia</text><!--MD5=[abe034222a2a1c74f3db4793cdc0d6ce]
entity EST--><ellipse cx="57" cy="378" fill="#FEFECE" filter="url(#f16p3w3qr8e5ho)" rx="8" ry="8" style="stroke:#A80036;stroke-width:1.5;"/><path d="M57,386 L57,413 M44,394 L70,394 M57,413 L44,428 M57,413 L70,428 " fill="none" filter="url(#f16p3w3qr8e5ho)" style="stroke:#A80036;stroke-width:1.5;"/><text fill="#000000" font-family="sans-serif" font-size="14" lengthAdjust="spacing" textLength="61" x="26.5" y="446.4951">Estafeta</text><!--MD5=[2ef883c7bda54365519191918ae31df7]
entity UNR--><ellipse cx="57" cy="1690" fill="#FEFECE" filter="url(#f16p3w3qr8e5ho)" rx="8" ry="8" style="stroke:#A80036;stroke-width:1.5;"/><path d="M57,1698 L57,1725 M44,1706 L70,1706 M57,1725 L44,1740 M57,1725 L70,1740 " fill="none" filter="url(#f16p3w3qr8e5ho)" style="stroke:#A80036;stroke-width:1.5;"/><text fill="#000000" font-family="sans-serif" font-size="14" lengthAdjust="spacing" textLength="68" x="23" y="1758.4951">Utilizador</text><!--MD5=[50374810a46cc694498f5253505fad30]
link CLI to UC1--><path d="M83.0822,1913.594 C105.212,1904.613 138.451,1891.607 168,1882 C193.035,1873.86 220.817,1866.039 245.487,1859.506 " fill="none" id="CLI-to-UC1" style="stroke:#A80036;stroke-width:1.0;"/><polygon fill="#A80036" points="250.377,1858.217,240.6548,1856.6424,245.5421,1859.4911,242.6934,1864.3783,250.377,1858.217" style="stroke:#A80036;stroke-width:1.0;"/><!--MD5=[fd8b4a47ecc88bd259aa0bf3afd7e952]
link CLI to UC14--><path d="M83.2079,1924 C110.678,1924 156.583,1924 200.402,1924 " fill="none" id="CLI-to-UC14" style="stroke:#A80036;stroke-width:1.0;"/><polygon fill="#A80036" points="205.458,1924,196.458,1920,200.458,1924,196.458,1928,205.458,1924" style="stroke:#A80036;stroke-width:1.0;"/><!--MD5=[7c76bec8eb14a91355b53b82711771e1]
link CLI to UC15--><path d="M83.2363,1933.956 C105.4648,1942.649 138.762,1955.4838 168,1966 C187.964,1973.1807 209.547,1980.6418 229.896,1987.5414 " fill="none" id="CLI-to-UC15" style="stroke:#A80036;stroke-width:1.0;"/><polygon fill="#A80036" points="234.764,1989.1895,227.5213,1982.5154,230.0279,1987.5866,224.9567,1990.0932,234.764,1989.1895" style="stroke:#A80036;stroke-width:1.0;"/><!--MD5=[5b9e3e0bbca42dc5b11bfecf11a5f33a]
link UNR to UC2--><path d="M91.2008,1715.724 C126.524,1710.111 183.801,1701.008 231.698,1693.397 " fill="none" id="UNR-to-UC2" style="stroke:#A80036;stroke-width:1.0;"/><polygon fill="#A80036" points="236.894,1692.571,227.3779,1690.0325,231.9559,1693.3554,228.633,1697.9334,236.894,1692.571" style="stroke:#A80036;stroke-width:1.0;"/><!--MD5=[8c8631ca422134c2919b0da57c49947d]
link UNR to UC12--><path d="M91.2008,1726.147 C124.948,1731.38 178.735,1739.719 225.235,1746.928 " fill="none" id="UNR-to-UC12" style="stroke:#A80036;stroke-width:1.0;"/><polygon fill="#A80036" points="230.287,1747.711,222.0059,1742.3796,225.346,1746.9451,220.7805,1750.2852,230.287,1747.711" style="stroke:#A80036;stroke-width:1.0;"/><!--MD5=[db1eef6a14ce759cd1b7bb831ae99df7]
link ADM to UC3--><path d="M62.9112,1053.221 C75.5075,955.25 111.964,710.5 168,653 C181.895,638.74 200.276,629.31 219.344,623.11 " fill="none" id="ADM-to-UC3" style="stroke:#A80036;stroke-width:1.0;"/><polygon fill="#A80036" points="224.204,621.6,214.4224,620.4512,219.4293,623.0839,216.7966,628.0908,224.204,621.6" style="stroke:#A80036;stroke-width:1.0;"/><!--MD5=[75201264684ae616ead1678418b4a491]
link ADM to UC4--><path d="M58.2675,1053.423 C61.0353,979 77.881,820.3 168,733 C182.54,718.92 201.503,709.67 220.978,703.63 " fill="none" id="ADM-to-UC4" style="stroke:#A80036;stroke-width:1.0;"/><polygon fill="#A80036" points="225.938,702.16,216.1734,700.8748,221.143,703.5771,218.4407,708.5467,225.938,702.16" style="stroke:#A80036;stroke-width:1.0;"/><!--MD5=[8e3e6826ef82c24011b2d42ab8b1f2ae]
link ADM to UC5--><path d="M62.5579,1053.287 C71.5758,992.31 97.3809,877.63 168,814 C183.248,800.26 202.707,791.08 222.467,784.95 " fill="none" id="ADM-to-UC5" style="stroke:#A80036;stroke-width:1.0;"/><polygon fill="#A80036" points="227.494,783.46,217.7273,782.1907,222.7013,784.8849,220.0071,789.859,227.494,783.46" style="stroke:#A80036;stroke-width:1.0;"/><!--MD5=[61e2851b57f1057bb235dfe3d194050f]
link ADM to UC7--><path d="M69.5799,1053.323 C84.7132,1007.55 115.65,934.22 168,893 C184.843,879.74 205.738,870.86 226.467,864.92 " fill="none" id="ADM-to-UC7" style="stroke:#A80036;stroke-width:1.0;"/><polygon fill="#A80036" points="231.447,863.55,221.7083,862.0809,226.6262,864.8764,223.8306,869.7943,231.447,863.55" style="stroke:#A80036;stroke-width:1.0;"/><!--MD5=[16c90de57f8c23c83540c2bed0ab6def]
link ADM to UC8--><path d="M85.189,1053.257 C105.1145,1026.43 134.459,992.59 168,972 C187.613,959.96 210.859,951.49 233.048,945.55 " fill="none" id="ADM-to-UC8" style="stroke:#A80036;stroke-width:1.0;"/><polygon fill="#A80036" points="238.062,944.25,228.3452,942.6423,233.2227,945.5076,230.3575,950.3851,238.062,944.25" style="stroke:#A80036;stroke-width:1.0;"/><!--MD5=[b228c7a7ebb1dc8ed63dbccd84ede524]
link ADM to UC9--><path d="M108.059,1074.3 C126.745,1067.222 148.225,1059.411 168,1053 C192.507,1045.05 219.599,1037.27 243.833,1030.65 " fill="none" id="ADM-to-UC9" style="stroke:#A80036;stroke-width:1.0;"/><polygon fill="#A80036" points="248.959,1029.25,239.2237,1027.7588,244.1351,1030.5655,241.3284,1035.4769,248.959,1029.25" style="stroke:#A80036;stroke-width:1.0;"/><!--MD5=[f2aeeef0e7f82e4bd55d88af897bea0b]
link ADM to UC10--><path d="M108.051,1094 C136.055,1094 172.124,1094 206.336,1094 " fill="none" id="ADM-to-UC10" style="stroke:#A80036;stroke-width:1.0;"/><polygon fill="#A80036" points="211.369,1094,202.369,1090,206.369,1094,202.369,1098,211.369,1094" style="stroke:#A80036;stroke-width:1.0;"/><!--MD5=[89184bc4fda4fa846ce9477335a6b33e]
link ADM to UC13--><path d="M108.081,1113.633 C126.77,1120.703 148.245,1128.527 168,1135 C191.933,1142.842 218.314,1150.605 242.093,1157.284 " fill="none" id="ADM-to-UC13" style="stroke:#A80036;stroke-width:1.0;"/><polygon fill="#A80036" points="247.126,1158.692,239.5381,1152.4132,242.3112,1157.3437,237.3808,1160.1169,247.126,1158.692" style="stroke:#A80036;stroke-width:1.0;"/><!--MD5=[02742756c1c0c354ce8446f89adcbfa6]
link ADM to UC16--><path d="M84.5439,1134.534 C104.479,1162.01 134.096,1197.166 168,1219 C183.892,1229.234 202.232,1237.243 220.473,1243.475 " fill="none" id="ADM-to-UC16" style="stroke:#A80036;stroke-width:1.0;"/><polygon fill="#A80036" points="225.614,1245.187,218.3372,1238.5502,220.8697,1243.6084,215.8115,1246.141,225.614,1245.187" style="stroke:#A80036;stroke-width:1.0;"/><!--MD5=[740d49164564d0dbfb709a8659c7f1f5]
link ADM to UC17--><path d="M68.1215,1134.752 C82.2936,1183.339 112.739,1263.65 168,1309 C183.322,1321.574 202.198,1330.387 221.28,1336.564 " fill="none" id="ADM-to-UC17" style="stroke:#A80036;stroke-width:1.0;"/><polygon fill="#A80036" points="226.133,1338.078,218.7321,1331.5798,221.3598,1336.5893,216.3502,1339.2169,226.133,1338.078" style="stroke:#A80036;stroke-width:1.0;"/><!--MD5=[e99d2a5174385cf80c08584e238e34ca]
link ADM to UC18--><path d="M61.4836,1134.656 C69.1754,1198.818 93.3676,1323.401 168,1393 C181.236,1405.343 197.81,1414.166 215.034,1420.467 " fill="none" id="ADM-to-UC18" style="stroke:#A80036;stroke-width:1.0;"/><polygon fill="#A80036" points="219.907,1422.178,212.7415,1415.4211,215.1896,1420.5208,210.0899,1422.9689,219.907,1422.178" style="stroke:#A80036;stroke-width:1.0;"/><!--MD5=[ff311a9c3b7793b3816ced15516060f0]
link ADM to UC21--><path d="M57.3921,1134.699 C58.5255,1212.785 72.504,1384.27 168,1479 C181.409,1492.302 198.73,1501.381 216.771,1507.557 " fill="none" id="ADM-to-UC21" style="stroke:#A80036;stroke-width:1.0;"/><polygon fill="#A80036" points="221.876,1509.222,214.5615,1502.6267,217.1228,1507.6705,212.079,1510.2318,221.876,1509.222" style="stroke:#A80036;stroke-width:1.0;"/><!--MD5=[9d681beb0fdcd4f497bca6f1f0c839bf]
link ADM to UC24--><path d="M62.2458,1134.541 C73.7191,1236.452 108.55,1499.577 168,1561 C182.249,1575.722 201.31,1585.207 221.002,1591.273 " fill="none" id="ADM-to-UC24" style="stroke:#A80036;stroke-width:1.0;"/><polygon fill="#A80036" points="226.019,1592.743,218.5065,1586.3742,221.2207,1591.3374,216.2575,1594.0515,226.019,1592.743" style="stroke:#A80036;stroke-width:1.0;"/><!--MD5=[9524250c656adba8d6e063909e2bc485]
link FAR to UC19--><path d="M89.3475,105.34 C111.129,95.47 140.983,82.56 168,73 C190.121,65.17 214.489,57.77 236.958,51.42 " fill="none" id="FAR-to-UC19" style="stroke:#A80036;stroke-width:1.0;"/><polygon fill="#A80036" points="242.021,50,232.2749,48.5812,237.2071,51.3513,234.437,56.2835,242.021,50" style="stroke:#A80036;stroke-width:1.0;"/><!--MD5=[8c0ffd2e6f1ad4df828aba1d0828086a]
link FAR to UC22--><path d="M89.1208,120 C112.306,120 145.724,120 179.814,120 " fill="none" id="FAR-to-UC22" style="stroke:#A80036;stroke-width:1.0;"/><polygon fill="#A80036" points="184.847,120,175.847,116,179.847,120,175.847,124,184.847,120" style="stroke:#A80036;stroke-width:1.0;"/><!--MD5=[2e56e399206d041f5a6a80b717b8b4f4]
link FAR to UC23--><path d="M89.3991,134.25 C111.204,143.87 141.064,156.49 168,166 C190.848,174.07 216.052,181.81 239.085,188.44 " fill="none" id="FAR-to-UC23" style="stroke:#A80036;stroke-width:1.0;"/><polygon fill="#A80036" points="243.965,189.84,236.4122,183.519,239.1578,188.4649,234.212,191.2105,243.965,189.84" style="stroke:#A80036;stroke-width:1.0;"/><!--MD5=[1bf2878b9d9f2805ff50e178b3b1eedc]
link EST to UC6--><path d="M87.9402,383.34 C109.094,366.36 138.775,344.77 168,331 C189.804,320.73 214.701,312.71 237.776,306.65 " fill="none" id="EST-to-UC6" style="stroke:#A80036;stroke-width:1.0;"/><polygon fill="#A80036" points="242.67,305.39,232.9559,303.7662,237.8287,306.6396,234.9553,311.5124,242.67,305.39" style="stroke:#A80036;stroke-width:1.0;"/><!--MD5=[03306a093c2ea3841eebba23b5e8f83b]
link EST to UC11--><path d="M87.5959,404.41 C123.234,398.89 184.555,389.38 234.691,381.61 " fill="none" id="EST-to-UC11" style="stroke:#A80036;stroke-width:1.0;"/><polygon fill="#A80036" points="239.816,380.81,230.309,378.2376,234.8752,381.5768,231.5359,386.143,239.816,380.81" style="stroke:#A80036;stroke-width:1.0;"/><!--MD5=[39f37e516c7e4d7f8f322bcaf5c7aead]
link EST to UC20--><path d="M87.5959,413.47 C121.379,418.58 178.24,427.18 226.774,434.51 " fill="none" id="EST-to-UC20" style="stroke:#A80036;stroke-width:1.0;"/><polygon fill="#A80036" points="231.744,435.26,223.4429,429.9598,226.8002,434.5127,222.2473,437.8699,231.744,435.26" style="stroke:#A80036;stroke-width:1.0;"/><!--MD5=[c851a7308dbc1efb0d79a9a5c0fc3c07]
link EST to UC25--><path d="M87.8607,435.3 C108.979,452.7 138.651,474.84 168,489 C188.539,498.91 211.874,506.77 233.845,512.85 " fill="none" id="EST-to-UC25" style="stroke:#A80036;stroke-width:1.0;"/><polygon fill="#A80036" points="238.805,514.2,231.1698,507.9788,233.9802,512.8882,229.0708,515.6986,238.805,514.2" style="stroke:#A80036;stroke-width:1.0;"/><!--MD5=[480cdb0b0b08e448f6f2697f5a062468]
@startuml
usecase UC1 as "UC1 - Registar Cliente"
usecase UC2 as "UC2 - Leitura de dados"
usecase UC3 as "UC3 - Adicionar scooter"
usecase UC4 as "UC4 - Atualizar scooter"
usecase UC5 as "UC5 - Remover scooter"
usecase UC6 as "UC6 - Registo entrega"

usecase UC7 as "UC7 - Adicionar Drone"
usecase UC8 as "UC8 - Remover Drone"
usecase UC9 as "UC9 - Notificar Estafeta"
usecase UC10 as "UC10 - Registar Estafeta"

usecase UC11 as "UC11 - Inicia Entrega"
usecase UC12 as "UC12 - Estaciona Veículo"
usecase UC13 as "UC13 - Inserir Itens Stock"
usecase UC14 as "UC14 - Realiza Encomenda"

usecase UC15 as "UC15 - Farmácia Mais Próxima Cliente"
usecase UC16 as "UC16 - Inserir Estacionamento"
usecase UC17 as "UC17 - Atualizar Estafeta"
usecase UC18 as "UC18 - Atualizar Item Stock"

usecase UC19 as "UC19 - Pedir Item Farmácia"
usecase UC20 as "UC20 - Notificar Cliente"
usecase UC21 as "UC21 - Registar Farmácia"
usecase UC22 as "UC22 - Enviar Nota Transferência"

usecase UC23 as "UC23 - Enviar Nota Entrega"
usecase UC24 as "UC24 - Atualizar Drone"
usecase UC25 as "UC25 - Entrega Eficiente"

actor "Cliente" as CLI
actor "Administrador" as ADM
actor "Farmacia" as FAR
actor "Estafeta" as EST
actor "Utilizador" as UNR

left to right direction

CLI - ->(UC1)
CLI - ->(UC14)
CLI - ->(UC15)

UNR - ->(UC2)
UNR - ->(UC12)

ADM - ->(UC3)
ADM - ->(UC4)
ADM - ->(UC5)
ADM - -> (UC7)
ADM - -> (UC8)
ADM - -> (UC9)
ADM - -> (UC10)
ADM - -> (UC13)
ADM - ->(UC16)
ADM - ->(UC17)
ADM - ->(UC18)
ADM - ->(UC21)
ADM - ->(UC24)

FAR - -> (UC19)
FAR - ->(UC22)
FAR - ->(UC23)

EST - ->(UC6)
EST - -> (UC11)
EST - -> (UC20)
EST - -> (UC25)
@enduml

PlantUML version 1.2021.01beta7(Unknown compile time)
(GPL source distribution)
Java Runtime: Java(TM) SE Runtime Environment
JVM: Java HotSpot(TM) 64-Bit Server VM
Default Encoding: UTF-8
Language: en
Country: US
--></g></svg>