<?xml version="1.0" encoding="UTF-8" standalone="no"?><svg xmlns="http://www.w3.org/2000/svg" xmlns:xlink="http://www.w3.org/1999/xlink" contentScriptType="application/ecmascript" contentStyleType="text/css" height="937px" preserveAspectRatio="none" style="width:1440px;height:937px;" version="1.1" viewBox="0 0 1440 937" width="1440px" zoomAndPan="magnify"><defs><filter height="300%" id="f1spwzlp7im8xl" width="300%" x="-1" y="-1"><feGaussianBlur result="blurOut" stdDeviation="2.0"/><feColorMatrix in="blurOut" result="blurOut2" type="matrix" values="0 0 0 0 0 0 0 0 0 0 0 0 0 0 0 0 0 0 .4 0"/><feOffset dx="4.0" dy="4.0" in="blurOut2" result="blurOut3"/><feBlend in="SourceGraphic" in2="blurOut3" mode="normal"/></filter></defs><g><!--MD5=[6613c9cd406ef433ff06f5e98b28abd9]
class Farmacia--><rect codeLine="3" fill="#FEFECE" filter="url(#f1spwzlp7im8xl)" height="73.6094" id="Farmacia" style="stroke:#A80036;stroke-width:1.5;" width="142" x="368" y="509"/><ellipse cx="408.2" cy="525" fill="#ADD1B2" rx="11" ry="11" style="stroke:#A80036;stroke-width:1.0;"/><path d="M410.5438,520.6719 C409.6063,520.2344 409.0125,520.0938 408.1375,520.0938 C405.5125,520.0938 403.5125,522.1719 403.5125,524.8906 L403.5125,526.0156 C403.5125,528.5938 405.6219,530.4844 408.5125,530.4844 C409.7313,530.4844 410.8875,530.1875 411.6375,529.6406 C412.2156,529.2344 412.5438,528.7813 412.5438,528.3906 C412.5438,527.9375 412.1531,527.5469 411.6844,527.5469 C411.4656,527.5469 411.2625,527.625 411.075,527.8125 C410.6219,528.2969 410.6219,528.2969 410.4344,528.3906 C410.0125,528.6563 409.325,528.7813 408.5594,528.7813 C406.5125,528.7813 405.2156,527.6875 405.2156,525.9844 L405.2156,524.8906 C405.2156,523.1094 406.4656,521.7969 408.2,521.7969 C408.7781,521.7969 409.3875,521.9531 409.8563,522.2031 C410.3406,522.4844 410.5125,522.7031 410.6063,523.1094 C410.6688,523.5156 410.7,523.6406 410.8406,523.7656 C410.9813,523.9063 411.2156,524.0156 411.4344,524.0156 C411.7,524.0156 411.9656,523.875 412.1375,523.6563 C412.2469,523.5 412.2781,523.3125 412.2781,522.8906 L412.2781,521.4688 C412.2781,521.0313 412.2625,520.9063 412.1688,520.75 C412.0125,520.4844 411.7313,520.3438 411.4344,520.3438 C411.1375,520.3438 410.9344,520.4375 410.7156,520.75 L410.5438,520.6719 Z " fill="#000000"/><text fill="#000000" font-family="sans-serif" font-size="12" lengthAdjust="spacing" textLength="54" x="427.8" y="529.1543">Farmacia</text><line style="stroke:#A80036;stroke-width:1.5;" x1="369" x2="509" y1="541" y2="541"/><text fill="#000000" font-family="sans-serif" font-size="11" lengthAdjust="spacing" textLength="66" x="374" y="555.2104">-Integer NIF</text><line style="stroke:#A80036;stroke-width:1.5;" x1="369" x2="509" y1="561.8047" y2="561.8047"/><text fill="#000000" font-family="sans-serif" font-size="11" lengthAdjust="spacing" textLength="130" x="374" y="576.0151">+Farmacia(Integer NIF)</text><!--MD5=[36c1942e8942a3e4f47e6de3733e3d18]
class Endereco--><rect codeLine="8" fill="#FEFECE" filter="url(#f1spwzlp7im8xl)" height="112.0234" id="Endereco" style="stroke:#A80036;stroke-width:1.5;" width="458" x="420" y="811"/><ellipse cx="615.75" cy="827" fill="#ADD1B2" rx="11" ry="11" style="stroke:#A80036;stroke-width:1.0;"/><path d="M618.0938,822.6719 C617.1563,822.2344 616.5625,822.0938 615.6875,822.0938 C613.0625,822.0938 611.0625,824.1719 611.0625,826.8906 L611.0625,828.0156 C611.0625,830.5938 613.1719,832.4844 616.0625,832.4844 C617.2813,832.4844 618.4375,832.1875 619.1875,831.6406 C619.7656,831.2344 620.0938,830.7813 620.0938,830.3906 C620.0938,829.9375 619.7031,829.5469 619.2344,829.5469 C619.0156,829.5469 618.8125,829.625 618.625,829.8125 C618.1719,830.2969 618.1719,830.2969 617.9844,830.3906 C617.5625,830.6563 616.875,830.7813 616.1094,830.7813 C614.0625,830.7813 612.7656,829.6875 612.7656,827.9844 L612.7656,826.8906 C612.7656,825.1094 614.0156,823.7969 615.75,823.7969 C616.3281,823.7969 616.9375,823.9531 617.4063,824.2031 C617.8906,824.4844 618.0625,824.7031 618.1563,825.1094 C618.2188,825.5156 618.25,825.6406 618.3906,825.7656 C618.5313,825.9063 618.7656,826.0156 618.9844,826.0156 C619.25,826.0156 619.5156,825.875 619.6875,825.6563 C619.7969,825.5 619.8281,825.3125 619.8281,824.8906 L619.8281,823.4688 C619.8281,823.0313 619.8125,822.9063 619.7188,822.75 C619.5625,822.4844 619.2813,822.3438 618.9844,822.3438 C618.6875,822.3438 618.4844,822.4375 618.2656,822.75 L618.0938,822.6719 Z " fill="#000000"/><text fill="#000000" font-family="sans-serif" font-size="12" lengthAdjust="spacing" textLength="58" x="636.25" y="831.1543">Endereco</text><line style="stroke:#A80036;stroke-width:1.5;" x1="421" x2="877" y1="843" y2="843"/><text fill="#000000" font-family="sans-serif" font-size="11" lengthAdjust="spacing" textLength="84" x="426" y="857.2104">-String morada</text><text fill="#000000" font-family="sans-serif" font-size="11" lengthAdjust="spacing" textLength="92" x="426" y="870.0151">-Double latitude</text><text fill="#000000" font-family="sans-serif" font-size="11" lengthAdjust="spacing" textLength="102" x="426" y="882.8198">-Double longitude</text><text fill="#000000" font-family="sans-serif" font-size="11" lengthAdjust="spacing" textLength="92" x="426" y="895.6245">-Double altitude</text><line style="stroke:#A80036;stroke-width:1.5;" x1="421" x2="877" y1="902.2188" y2="902.2188"/><text fill="#000000" font-family="sans-serif" font-size="11" lengthAdjust="spacing" textLength="446" x="426" y="916.4292">+Endereco(String morada, Double latitude, Double longitude, Double altitude)</text><!--MD5=[1a083dbe42a284ae0ea7f6f701783206]
class Parque--><rect codeLine="16" fill="#FEFECE" filter="url(#f1spwzlp7im8xl)" height="73.6094" id="Parque" style="stroke:#A80036;stroke-width:1.5;" width="372" x="463" y="660"/><ellipse cx="624.25" cy="676" fill="#ADD1B2" rx="11" ry="11" style="stroke:#A80036;stroke-width:1.0;"/><path d="M626.5938,671.6719 C625.6563,671.2344 625.0625,671.0938 624.1875,671.0938 C621.5625,671.0938 619.5625,673.1719 619.5625,675.8906 L619.5625,677.0156 C619.5625,679.5938 621.6719,681.4844 624.5625,681.4844 C625.7813,681.4844 626.9375,681.1875 627.6875,680.6406 C628.2656,680.2344 628.5938,679.7813 628.5938,679.3906 C628.5938,678.9375 628.2031,678.5469 627.7344,678.5469 C627.5156,678.5469 627.3125,678.625 627.125,678.8125 C626.6719,679.2969 626.6719,679.2969 626.4844,679.3906 C626.0625,679.6563 625.375,679.7813 624.6094,679.7813 C622.5625,679.7813 621.2656,678.6875 621.2656,676.9844 L621.2656,675.8906 C621.2656,674.1094 622.5156,672.7969 624.25,672.7969 C624.8281,672.7969 625.4375,672.9531 625.9063,673.2031 C626.3906,673.4844 626.5625,673.7031 626.6563,674.1094 C626.7188,674.5156 626.75,674.6406 626.8906,674.7656 C627.0313,674.9063 627.2656,675.0156 627.4844,675.0156 C627.75,675.0156 628.0156,674.875 628.1875,674.6563 C628.2969,674.5 628.3281,674.3125 628.3281,673.8906 L628.3281,672.4688 C628.3281,672.0313 628.3125,671.9063 628.2188,671.75 C628.0625,671.4844 627.7813,671.3438 627.4844,671.3438 C627.1875,671.3438 626.9844,671.4375 626.7656,671.75 L626.5938,671.6719 Z " fill="#000000"/><text fill="#000000" font-family="sans-serif" font-size="12" lengthAdjust="spacing" textLength="41" x="644.75" y="680.1543">Parque</text><line style="stroke:#A80036;stroke-width:1.5;" x1="464" x2="834" y1="692" y2="692"/><text fill="#000000" font-family="sans-serif" font-size="11" lengthAdjust="spacing" textLength="137" x="469" y="706.2104">-Integer numeroMaximo</text><line style="stroke:#A80036;stroke-width:1.5;" x1="464" x2="834" y1="712.8047" y2="712.8047"/><text fill="#000000" font-family="sans-serif" font-size="11" lengthAdjust="spacing" textLength="360" x="469" y="727.0151">+Endereco(Integer NIF, Integer numeroMaximo, Endereco end)</text><!--MD5=[364aec0fc02518cb9ab31cd04b585b1a]
class FarmaciaDB--><rect codeLine="21" fill="#FEFECE" filter="url(#f1spwzlp7im8xl)" height="99.2188" id="FarmaciaDB" style="stroke:#A80036;stroke-width:1.5;" width="466" x="59" y="251"/><ellipse cx="252.25" cy="267" fill="#ADD1B2" rx="11" ry="11" style="stroke:#A80036;stroke-width:1.0;"/><path d="M254.5938,262.6719 C253.6563,262.2344 253.0625,262.0938 252.1875,262.0938 C249.5625,262.0938 247.5625,264.1719 247.5625,266.8906 L247.5625,268.0156 C247.5625,270.5938 249.6719,272.4844 252.5625,272.4844 C253.7813,272.4844 254.9375,272.1875 255.6875,271.6406 C256.2656,271.2344 256.5938,270.7813 256.5938,270.3906 C256.5938,269.9375 256.2031,269.5469 255.7344,269.5469 C255.5156,269.5469 255.3125,269.625 255.125,269.8125 C254.6719,270.2969 254.6719,270.2969 254.4844,270.3906 C254.0625,270.6563 253.375,270.7813 252.6094,270.7813 C250.5625,270.7813 249.2656,269.6875 249.2656,267.9844 L249.2656,266.8906 C249.2656,265.1094 250.5156,263.7969 252.25,263.7969 C252.8281,263.7969 253.4375,263.9531 253.9063,264.2031 C254.3906,264.4844 254.5625,264.7031 254.6563,265.1094 C254.7188,265.5156 254.75,265.6406 254.8906,265.7656 C255.0313,265.9063 255.2656,266.0156 255.4844,266.0156 C255.75,266.0156 256.0156,265.875 256.1875,265.6563 C256.2969,265.5 256.3281,265.3125 256.3281,264.8906 L256.3281,263.4688 C256.3281,263.0313 256.3125,262.9063 256.2188,262.75 C256.0625,262.4844 255.7813,262.3438 255.4844,262.3438 C255.1875,262.3438 254.9844,262.4375 254.7656,262.75 L254.5938,262.6719 Z " fill="#000000"/><text fill="#000000" font-family="sans-serif" font-size="12" lengthAdjust="spacing" textLength="71" x="272.75" y="271.1543">FarmaciaDB</text><line style="stroke:#A80036;stroke-width:1.5;" x1="60" x2="524" y1="283" y2="283"/><line style="stroke:#A80036;stroke-width:1.5;" x1="60" x2="524" y1="291" y2="291"/><text fill="#000000" font-family="sans-serif" font-size="11" lengthAdjust="spacing" textLength="454" x="65" y="305.2104">+Farmacia novaFarmacia(NIF, morada, latitude, longitude, altitude, numMaximo)</text><text fill="#000000" font-family="sans-serif" font-size="11" lengthAdjust="spacing" textLength="183" x="65" y="318.0151">+validaFarmacia(Farmacia farm)</text><text fill="#000000" font-family="sans-serif" font-size="11" lengthAdjust="spacing" textLength="188" x="65" y="330.8198">+registaFarmacia(Farmacia farm)</text><text fill="#000000" font-family="sans-serif" font-size="11" lengthAdjust="spacing" textLength="165" x="65" y="343.6245">-addFarmacia(Farmacia farm)</text><!--MD5=[a8381305e32feabadf74eb10f0c047ba]
class EnderecoDB--><rect codeLine="28" fill="#FEFECE" filter="url(#f1spwzlp7im8xl)" height="99.2188" id="EnderecoDB" style="stroke:#A80036;stroke-width:1.5;" width="544" x="882" y="380"/><ellipse cx="1112.25" cy="396" fill="#ADD1B2" rx="11" ry="11" style="stroke:#A80036;stroke-width:1.0;"/><path d="M1114.5938,391.6719 C1113.6563,391.2344 1113.0625,391.0938 1112.1875,391.0938 C1109.5625,391.0938 1107.5625,393.1719 1107.5625,395.8906 L1107.5625,397.0156 C1107.5625,399.5938 1109.6719,401.4844 1112.5625,401.4844 C1113.7813,401.4844 1114.9375,401.1875 1115.6875,400.6406 C1116.2656,400.2344 1116.5938,399.7813 1116.5938,399.3906 C1116.5938,398.9375 1116.2031,398.5469 1115.7344,398.5469 C1115.5156,398.5469 1115.3125,398.625 1115.125,398.8125 C1114.6719,399.2969 1114.6719,399.2969 1114.4844,399.3906 C1114.0625,399.6563 1113.375,399.7813 1112.6094,399.7813 C1110.5625,399.7813 1109.2656,398.6875 1109.2656,396.9844 L1109.2656,395.8906 C1109.2656,394.1094 1110.5156,392.7969 1112.25,392.7969 C1112.8281,392.7969 1113.4375,392.9531 1113.9063,393.2031 C1114.3906,393.4844 1114.5625,393.7031 1114.6563,394.1094 C1114.7188,394.5156 1114.75,394.6406 1114.8906,394.7656 C1115.0313,394.9063 1115.2656,395.0156 1115.4844,395.0156 C1115.75,395.0156 1116.0156,394.875 1116.1875,394.6563 C1116.2969,394.5 1116.3281,394.3125 1116.3281,393.8906 L1116.3281,392.4688 C1116.3281,392.0313 1116.3125,391.9063 1116.2188,391.75 C1116.0625,391.4844 1115.7813,391.3438 1115.4844,391.3438 C1115.1875,391.3438 1114.9844,391.4375 1114.7656,391.75 L1114.5938,391.6719 Z " fill="#000000"/><text fill="#000000" font-family="sans-serif" font-size="12" lengthAdjust="spacing" textLength="75" x="1132.75" y="400.1543">EnderecoDB</text><line style="stroke:#A80036;stroke-width:1.5;" x1="883" x2="1425" y1="412" y2="412"/><line style="stroke:#A80036;stroke-width:1.5;" x1="883" x2="1425" y1="420" y2="420"/><text fill="#000000" font-family="sans-serif" font-size="11" lengthAdjust="spacing" textLength="532" x="888" y="434.2104">+Endereco novoEndereco(String morada, Double latitude, Double longitude, Double altitude)</text><text fill="#000000" font-family="sans-serif" font-size="11" lengthAdjust="spacing" textLength="185" x="888" y="447.0151">+validaEndereco(Endereco end)</text><text fill="#000000" font-family="sans-serif" font-size="11" lengthAdjust="spacing" textLength="190" x="888" y="459.8198">+registaEndereco(Endereco end)</text><text fill="#000000" font-family="sans-serif" font-size="11" lengthAdjust="spacing" textLength="167" x="888" y="472.6245">-addEndereco(Endereco end)</text><!--MD5=[021650fd5270df78a3629eada2205323]
class ParqueDB--><rect codeLine="35" fill="#FEFECE" filter="url(#f1spwzlp7im8xl)" height="99.2188" id="ParqueDB" style="stroke:#A80036;stroke-width:1.5;" width="374" x="462" y="380"/><ellipse cx="615.75" cy="396" fill="#ADD1B2" rx="11" ry="11" style="stroke:#A80036;stroke-width:1.0;"/><path d="M618.0938,391.6719 C617.1563,391.2344 616.5625,391.0938 615.6875,391.0938 C613.0625,391.0938 611.0625,393.1719 611.0625,395.8906 L611.0625,397.0156 C611.0625,399.5938 613.1719,401.4844 616.0625,401.4844 C617.2813,401.4844 618.4375,401.1875 619.1875,400.6406 C619.7656,400.2344 620.0938,399.7813 620.0938,399.3906 C620.0938,398.9375 619.7031,398.5469 619.2344,398.5469 C619.0156,398.5469 618.8125,398.625 618.625,398.8125 C618.1719,399.2969 618.1719,399.2969 617.9844,399.3906 C617.5625,399.6563 616.875,399.7813 616.1094,399.7813 C614.0625,399.7813 612.7656,398.6875 612.7656,396.9844 L612.7656,395.8906 C612.7656,394.1094 614.0156,392.7969 615.75,392.7969 C616.3281,392.7969 616.9375,392.9531 617.4063,393.2031 C617.8906,393.4844 618.0625,393.7031 618.1563,394.1094 C618.2188,394.5156 618.25,394.6406 618.3906,394.7656 C618.5313,394.9063 618.7656,395.0156 618.9844,395.0156 C619.25,395.0156 619.5156,394.875 619.6875,394.6563 C619.7969,394.5 619.8281,394.3125 619.8281,393.8906 L619.8281,392.4688 C619.8281,392.0313 619.8125,391.9063 619.7188,391.75 C619.5625,391.4844 619.2813,391.3438 618.9844,391.3438 C618.6875,391.3438 618.4844,391.4375 618.2656,391.75 L618.0938,391.6719 Z " fill="#000000"/><text fill="#000000" font-family="sans-serif" font-size="12" lengthAdjust="spacing" textLength="58" x="636.25" y="400.1543">ParqueDB</text><line style="stroke:#A80036;stroke-width:1.5;" x1="463" x2="835" y1="412" y2="412"/><line style="stroke:#A80036;stroke-width:1.5;" x1="463" x2="835" y1="420" y2="420"/><text fill="#000000" font-family="sans-serif" font-size="11" lengthAdjust="spacing" textLength="362" x="468" y="434.2104">+Parque novoEndereco(Integer numeroMaximo, Endereco end)</text><text fill="#000000" font-family="sans-serif" font-size="11" lengthAdjust="spacing" textLength="173" x="468" y="447.0151">+validaParque(Parque parque)</text><text fill="#000000" font-family="sans-serif" font-size="11" lengthAdjust="spacing" textLength="178" x="468" y="459.8198">+registaParque(Parque parque)</text><text fill="#000000" font-family="sans-serif" font-size="11" lengthAdjust="spacing" textLength="155" x="468" y="472.6245">-addParque(Parque parque)</text><!--MD5=[292cbfdf48ee96a1c6d5c40c7ba01c14]
class RegistarFarmaciaController--><rect codeLine="42" fill="#FEFECE" filter="url(#f1spwzlp7im8xl)" height="73.6094" id="RegistarFarmaciaController" style="stroke:#A80036;stroke-width:1.5;" width="430" x="398" y="116"/><ellipse cx="527.75" cy="132" fill="#ADD1B2" rx="11" ry="11" style="stroke:#A80036;stroke-width:1.0;"/><path d="M530.0938,127.6719 C529.1563,127.2344 528.5625,127.0938 527.6875,127.0938 C525.0625,127.0938 523.0625,129.1719 523.0625,131.8906 L523.0625,133.0156 C523.0625,135.5938 525.1719,137.4844 528.0625,137.4844 C529.2813,137.4844 530.4375,137.1875 531.1875,136.6406 C531.7656,136.2344 532.0938,135.7813 532.0938,135.3906 C532.0938,134.9375 531.7031,134.5469 531.2344,134.5469 C531.0156,134.5469 530.8125,134.625 530.625,134.8125 C530.1719,135.2969 530.1719,135.2969 529.9844,135.3906 C529.5625,135.6563 528.875,135.7813 528.1094,135.7813 C526.0625,135.7813 524.7656,134.6875 524.7656,132.9844 L524.7656,131.8906 C524.7656,130.1094 526.0156,128.7969 527.75,128.7969 C528.3281,128.7969 528.9375,128.9531 529.4063,129.2031 C529.8906,129.4844 530.0625,129.7031 530.1563,130.1094 C530.2188,130.5156 530.25,130.6406 530.3906,130.7656 C530.5313,130.9063 530.7656,131.0156 530.9844,131.0156 C531.25,131.0156 531.5156,130.875 531.6875,130.6563 C531.7969,130.5 531.8281,130.3125 531.8281,129.8906 L531.8281,128.4688 C531.8281,128.0313 531.8125,127.9063 531.7188,127.75 C531.5625,127.4844 531.2813,127.3438 530.9844,127.3438 C530.6875,127.3438 530.4844,127.4375 530.2656,127.75 L530.0938,127.6719 Z " fill="#000000"/><text fill="#000000" font-family="sans-serif" font-size="12" lengthAdjust="spacing" textLength="162" x="548.25" y="136.1543">RegistarFarmaciaController</text><line style="stroke:#A80036;stroke-width:1.5;" x1="399" x2="827" y1="148" y2="148"/><line style="stroke:#A80036;stroke-width:1.5;" x1="399" x2="827" y1="156" y2="156"/><text fill="#000000" font-family="sans-serif" font-size="11" lengthAdjust="spacing" textLength="418" x="404" y="170.2104">+novaFarmacia(NIF, morada, latitude, longitude, altitude, numeroMaximo)</text><text fill="#000000" font-family="sans-serif" font-size="11" lengthAdjust="spacing" textLength="107" x="404" y="183.0151">+registaFarmacia()</text><!--MD5=[16f25527ba70f62c202fb8dd84cb3d2e]
class RegistarFarmaciaUI--><rect codeLine="47" fill="#FEFECE" filter="url(#f1spwzlp7im8xl)" height="48" id="RegistarFarmaciaUI" style="stroke:#A80036;stroke-width:1.5;" width="147" x="539.5" y="7"/><ellipse cx="554.5" cy="23" fill="#ADD1B2" rx="11" ry="11" style="stroke:#A80036;stroke-width:1.0;"/><path d="M556.8438,18.6719 C555.9063,18.2344 555.3125,18.0938 554.4375,18.0938 C551.8125,18.0938 549.8125,20.1719 549.8125,22.8906 L549.8125,24.0156 C549.8125,26.5938 551.9219,28.4844 554.8125,28.4844 C556.0313,28.4844 557.1875,28.1875 557.9375,27.6406 C558.5156,27.2344 558.8438,26.7813 558.8438,26.3906 C558.8438,25.9375 558.4531,25.5469 557.9844,25.5469 C557.7656,25.5469 557.5625,25.625 557.375,25.8125 C556.9219,26.2969 556.9219,26.2969 556.7344,26.3906 C556.3125,26.6563 555.625,26.7813 554.8594,26.7813 C552.8125,26.7813 551.5156,25.6875 551.5156,23.9844 L551.5156,22.8906 C551.5156,21.1094 552.7656,19.7969 554.5,19.7969 C555.0781,19.7969 555.6875,19.9531 556.1563,20.2031 C556.6406,20.4844 556.8125,20.7031 556.9063,21.1094 C556.9688,21.5156 557,21.6406 557.1406,21.7656 C557.2813,21.9063 557.5156,22.0156 557.7344,22.0156 C558,22.0156 558.2656,21.875 558.4375,21.6563 C558.5469,21.5 558.5781,21.3125 558.5781,20.8906 L558.5781,19.4688 C558.5781,19.0313 558.5625,18.9063 558.4688,18.75 C558.3125,18.4844 558.0313,18.3438 557.7344,18.3438 C557.4375,18.3438 557.2344,18.4375 557.0156,18.75 L556.8438,18.6719 Z " fill="#000000"/><text fill="#000000" font-family="sans-serif" font-size="12" lengthAdjust="spacing" textLength="115" x="568.5" y="27.1543">RegistarFarmaciaUI</text><line style="stroke:#A80036;stroke-width:1.5;" x1="540.5" x2="685.5" y1="39" y2="39"/><line style="stroke:#A80036;stroke-width:1.5;" x1="540.5" x2="685.5" y1="47" y2="47"/><!--MD5=[f96a217cc99f82e5dda83e4db29e3f0d]
link RegistarFarmaciaUI to RegistarFarmaciaController--><path codeLine="51" d="M613,55.137 C613,70.825 613,92.003 613,110.555 " fill="none" id="RegistarFarmaciaUI-to-RegistarFarmaciaController" style="stroke:#A80036;stroke-width:1.0;stroke-dasharray:7.0,7.0;"/><polygon fill="#A80036" points="613,115.711,617,106.711,613,110.711,609,106.711,613,115.711" style="stroke:#A80036;stroke-width:1.0;"/><!--MD5=[cf385d46b982f44bba418de29d938ed9]
link RegistarFarmaciaController to ParqueDB--><path codeLine="52" d="M617.743,190.168 C623.921,237.274 634.774,320.025 641.925,374.555 " fill="none" id="RegistarFarmaciaController-to-ParqueDB" style="stroke:#A80036;stroke-width:1.0;stroke-dasharray:7.0,7.0;"/><polygon fill="#A80036" points="642.606,379.742,645.402,370.2983,641.9559,374.7844,637.4699,371.3384,642.606,379.742" style="stroke:#A80036;stroke-width:1.0;"/><!--MD5=[cedf4e2fac6be50e74b26344cb9b6128]
link RegistarFarmaciaController to EnderecoDB--><path codeLine="53" d="M806.032,190.076 C833.196,198.222 860.263,208.09 885,220 C968.018,259.97 1049.71,328.608 1100.89,376.158 " fill="none" id="RegistarFarmaciaController-to-EnderecoDB" style="stroke:#A80036;stroke-width:1.0;stroke-dasharray:7.0,7.0;"/><polygon fill="#A80036" points="1104.82,379.831,1100.9728,370.7646,1101.1659,376.4182,1095.5123,376.6112,1104.82,379.831" style="stroke:#A80036;stroke-width:1.0;"/><!--MD5=[ee0f888f82e00ad1821accfbab9741d8]
link RegistarFarmaciaController to FarmaciaDB--><path codeLine="54" d="M533.239,190.153 C494.184,207.856 446.504,229.468 403.878,248.789 " fill="none" id="RegistarFarmaciaController-to-FarmaciaDB" style="stroke:#A80036;stroke-width:1.0;stroke-dasharray:7.0,7.0;"/><polygon fill="#A80036" points="399.239,250.892,409.0876,250.8186,403.7928,248.8273,405.7841,243.5325,399.239,250.892" style="stroke:#A80036;stroke-width:1.0;"/><!--MD5=[aa9f67082c51c82a1ba912278ea26989]
link RegistarFarmaciaController to Parque--><path codeLine="55" d="M668.407,190.107 C723.029,229.358 803.094,297.625 837,380 C880.597,485.917 770.729,598.594 701.101,656.524 " fill="none" id="RegistarFarmaciaController-to-Parque" style="stroke:#A80036;stroke-width:1.0;stroke-dasharray:7.0,7.0;"/><polygon fill="#A80036" points="696.99,659.921,706.4765,657.2742,700.8452,656.7371,701.3823,651.1058,696.99,659.921" style="stroke:#A80036;stroke-width:1.0;"/><!--MD5=[1108c8e87a0035f633b3288171c413ba]
link RegistarFarmaciaController to Endereco--><path codeLine="56" d="M397.713,165.41 C223.171,180.761 6,216.531 6,299.5 C6,299.5 6,299.5 6,698 C6,785.303 230.697,828.0969 414.435,848.4957 " fill="none" id="RegistarFarmaciaController-to-Endereco" style="stroke:#A80036;stroke-width:1.0;stroke-dasharray:7.0,7.0;"/><polygon fill="#A80036" points="419.585,849.0628,411.0768,844.102,414.615,848.5157,410.2013,852.0539,419.585,849.0628" style="stroke:#A80036;stroke-width:1.0;"/><!--MD5=[45e10d883f52dd70f1944020196c5274]
link RegistarFarmaciaController to Farmacia--><path codeLine="57" d="M609.08,190.332 C602.535,233.809 585.477,306.211 542,350 C514.952,377.243 484.969,350.013 461,380 C433.311,414.641 430.912,467.039 433.433,503.459 " fill="none" id="RegistarFarmaciaController-to-Farmacia" style="stroke:#A80036;stroke-width:1.0;stroke-dasharray:7.0,7.0;"/><polygon fill="#A80036" points="433.839,508.712,437.1355,499.4312,433.4548,503.7268,429.1592,500.046,433.839,508.712" style="stroke:#A80036;stroke-width:1.0;"/><!--MD5=[e5dbbc54f46538fc7b7077d28b1f914b]
link ParqueDB to Parque--><path codeLine="59" d="M649,479.197 C649,529.606 649,607.485 649,654.898 " fill="none" id="ParqueDB-to-Parque" style="stroke:#A80036;stroke-width:1.0;"/><polygon fill="#A80036" points="649,659.956,653,650.956,649,654.956,645,650.956,649,659.956" style="stroke:#A80036;stroke-width:1.0;"/><text fill="#000000" font-family="sans-serif" font-size="13" lengthAdjust="spacing" textLength="41" x="650" y="550.5669">possui</text><text fill="#000000" font-family="sans-serif" font-size="13" lengthAdjust="spacing" textLength="8" x="640.4375" y="499.3012">1</text><text fill="#000000" font-family="sans-serif" font-size="13" lengthAdjust="spacing" textLength="7" x="641.3547" y="648.8583">*</text><!--MD5=[c023e2c3fa599b931e4bde319636976a]
link EnderecoDB to Endereco--><path codeLine="60" d="M1111.75,479.189 C1055.98,541.972 953.104,652.731 853,734 C820.403,760.463 782.316,786.302 747.936,808.002 " fill="none" id="EnderecoDB-to-Endereco" style="stroke:#A80036;stroke-width:1.0;"/><polygon fill="#A80036" points="743.328,810.9,753.0762,809.4957,747.5608,808.2386,748.818,802.7232,743.328,810.9" style="stroke:#A80036;stroke-width:1.0;"/><text fill="#000000" font-family="sans-serif" font-size="13" lengthAdjust="spacing" textLength="41" x="984" y="626.0669">possui</text><text fill="#000000" font-family="sans-serif" font-size="13" lengthAdjust="spacing" textLength="8" x="1097.2461" y="499.2921">1</text><text fill="#000000" font-family="sans-serif" font-size="13" lengthAdjust="spacing" textLength="7" x="747.9653" y="799.8252">*</text><!--MD5=[3c539b0dd2212e8322efef71ee8cdfc2]
link FarmaciaDB to Farmacia--><path codeLine="61" d="M307.488,350.123 C320.701,387.384 342.007,439.018 370,479 C376.291,487.986 383.94,496.736 391.825,504.772 " fill="none" id="FarmaciaDB-to-Farmacia" style="stroke:#A80036;stroke-width:1.0;"/><polygon fill="#A80036" points="395.71,508.657,392.1745,499.4646,392.1745,505.1215,386.5176,505.1215,395.71,508.657" style="stroke:#A80036;stroke-width:1.0;"/><text fill="#000000" font-family="sans-serif" font-size="13" lengthAdjust="spacing" textLength="41" x="371" y="434.0669">possui</text><text fill="#000000" font-family="sans-serif" font-size="13" lengthAdjust="spacing" textLength="8" x="301.1035" y="370.2168">1</text><text fill="#000000" font-family="sans-serif" font-size="13" lengthAdjust="spacing" textLength="7" x="380.668" y="498.0615">*</text><!--MD5=[4f96609c99ecadb81dc825d0ae539cef]
link Farmacia to Parque--><path codeLine="62" d="M489.835,583.069 C521.201,605.324 561.448,633.88 593.622,656.708 " fill="none" id="Farmacia-to-Parque" style="stroke:#A80036;stroke-width:1.0;"/><polygon fill="#A80036" points="597.905,659.747,592.8782,651.2776,593.8267,656.8543,588.2499,657.8028,597.905,659.747" style="stroke:#A80036;stroke-width:1.0;"/><text fill="#000000" font-family="sans-serif" font-size="13" lengthAdjust="spacing" textLength="26" x="552" y="626.0669">tem</text><text fill="#000000" font-family="sans-serif" font-size="13" lengthAdjust="spacing" textLength="8" x="489.592" y="602.561">1</text><text fill="#000000" font-family="sans-serif" font-size="13" lengthAdjust="spacing" textLength="8" x="580.0912" y="648.8889">1</text><!--MD5=[65c0b4ced80642714d633a5480d06ed6]
link Parque to Endereco--><path codeLine="63" d="M649,734.04 C649,754.923 649,781.753 649,805.761 " fill="none" id="Parque-to-Endereco" style="stroke:#A80036;stroke-width:1.0;"/><polygon fill="#A80036" points="649,810.838,653,801.838,649,805.838,645,801.838,649,810.838" style="stroke:#A80036;stroke-width:1.0;"/><text fill="#000000" font-family="sans-serif" font-size="13" lengthAdjust="spacing" textLength="26" x="650" y="777.0669">tem</text><text fill="#000000" font-family="sans-serif" font-size="13" lengthAdjust="spacing" textLength="8" x="640.3125" y="753.8072">1</text><text fill="#000000" font-family="sans-serif" font-size="13" lengthAdjust="spacing" textLength="8" x="640.4875" y="799.7552">1</text><!--MD5=[de48cb52016565772ddd6863af865ca5]
@startuml
skinparam classAttributeIconSize 0

class Farmacia {
  -Integer NIF
  +Farmacia(Integer NIF)
}

class Endereco {
  -String morada
  -Double latitude
  -Double longitude
  -Double altitude 
  +Endereco(String morada, Double latitude, Double longitude, Double altitude)
}

class Parque {
  -Integer numeroMaximo
  +Endereco(Integer NIF, Integer numeroMaximo, Endereco end)
}

class FarmaciaDB {
  +Farmacia novaFarmacia(NIF, morada, latitude, longitude, altitude, numMaximo)
  +validaFarmacia(Farmacia farm)
  +registaFarmacia(Farmacia farm)
  -addFarmacia(Farmacia farm)
}

class EnderecoDB {
  +Endereco novoEndereco(String morada, Double latitude, Double longitude, Double altitude)
  +validaEndereco(Endereco end)
  +registaEndereco(Endereco end)
  -addEndereco(Endereco end)
}

class ParqueDB {
  +Parque novoEndereco(Integer numeroMaximo, Endereco end)
  +validaParque(Parque parque)
  +registaParque(Parque parque)
  -addParque(Parque parque)
}

class RegistarFarmaciaController {
  +novaFarmacia(NIF, morada, latitude, longitude, altitude, numeroMaximo)
  +registaFarmacia()
}

class RegistarFarmaciaUI {
  
}

RegistarFarmaciaUI ..> RegistarFarmaciaController
RegistarFarmaciaController ..> ParqueDB
RegistarFarmaciaController ..> EnderecoDB
RegistarFarmaciaController ..> FarmaciaDB
RegistarFarmaciaController ..> Parque
RegistarFarmaciaController ..> Endereco
RegistarFarmaciaController ..> Farmacia

ParqueDB "1" - -> "*" Parque : possui
EnderecoDB "1" - -> "*" Endereco : possui
FarmaciaDB "1" - -> "*" Farmacia : possui
Farmacia "1" - -> "1" Parque : tem
Parque "1" - -> "1" Endereco : tem
@enduml

PlantUML version 1.2020.27beta7(Unknown compile time)
(GPL source distribution)
Java Runtime: Java(TM) SE Runtime Environment
JVM: Java HotSpot(TM) 64-Bit Server VM
Default Encoding: UTF-8
Language: en
Country: US
--></g></svg>