<?xml version="1.0" encoding="UTF-8" standalone="no"?><svg xmlns="http://www.w3.org/2000/svg" xmlns:xlink="http://www.w3.org/1999/xlink" contentScriptType="application/ecmascript" contentStyleType="text/css" height="1013px" preserveAspectRatio="none" style="width:1280px;height:1013px;" version="1.1" viewBox="0 0 1280 1013" width="1280px" zoomAndPan="magnify"><defs><filter height="300%" id="f18gnsbptxy3ea" width="300%" x="-1" y="-1"><feGaussianBlur result="blurOut" stdDeviation="2.0"/><feColorMatrix in="blurOut" result="blurOut2" type="matrix" values="0 0 0 0 0 0 0 0 0 0 0 0 0 0 0 0 0 0 .4 0"/><feOffset dx="4.0" dy="4.0" in="blurOut2" result="blurOut3"/><feBlend in="SourceGraphic" in2="blurOut3" mode="normal"/></filter></defs><g><!--MD5=[6613c9cd406ef433ff06f5e98b28abd9]
class Farmacia--><rect codeLine="3" fill="#FEFECE" filter="url(#f18gnsbptxy3ea)" height="73.6094" id="Farmacia" style="stroke:#A80036;stroke-width:1.5;" width="142" x="154" y="560"/><ellipse cx="194.2" cy="576" fill="#ADD1B2" rx="11" ry="11" style="stroke:#A80036;stroke-width:1.0;"/><path d="M196.5438,571.6719 C195.6063,571.2344 195.0125,571.0938 194.1375,571.0938 C191.5125,571.0938 189.5125,573.1719 189.5125,575.8906 L189.5125,577.0156 C189.5125,579.5938 191.6219,581.4844 194.5125,581.4844 C195.7313,581.4844 196.8875,581.1875 197.6375,580.6406 C198.2156,580.2344 198.5438,579.7813 198.5438,579.3906 C198.5438,578.9375 198.1531,578.5469 197.6844,578.5469 C197.4656,578.5469 197.2625,578.625 197.075,578.8125 C196.6219,579.2969 196.6219,579.2969 196.4344,579.3906 C196.0125,579.6563 195.325,579.7813 194.5594,579.7813 C192.5125,579.7813 191.2156,578.6875 191.2156,576.9844 L191.2156,575.8906 C191.2156,574.1094 192.4656,572.7969 194.2,572.7969 C194.7781,572.7969 195.3875,572.9531 195.8563,573.2031 C196.3406,573.4844 196.5125,573.7031 196.6063,574.1094 C196.6688,574.5156 196.7,574.6406 196.8406,574.7656 C196.9813,574.9063 197.2156,575.0156 197.4344,575.0156 C197.7,575.0156 197.9656,574.875 198.1375,574.6563 C198.2469,574.5 198.2781,574.3125 198.2781,573.8906 L198.2781,572.4688 C198.2781,572.0313 198.2625,571.9063 198.1688,571.75 C198.0125,571.4844 197.7313,571.3438 197.4344,571.3438 C197.1375,571.3438 196.9344,571.4375 196.7156,571.75 L196.5438,571.6719 Z " fill="#000000"/><text fill="#000000" font-family="sans-serif" font-size="12" lengthAdjust="spacing" textLength="54" x="213.8" y="580.1543">Farmacia</text><line style="stroke:#A80036;stroke-width:1.5;" x1="155" x2="295" y1="592" y2="592"/><text fill="#000000" font-family="sans-serif" font-size="11" lengthAdjust="spacing" textLength="66" x="160" y="606.2104">-Integer NIF</text><line style="stroke:#A80036;stroke-width:1.5;" x1="155" x2="295" y1="612.8047" y2="612.8047"/><text fill="#000000" font-family="sans-serif" font-size="11" lengthAdjust="spacing" textLength="130" x="160" y="627.0151">+Farmacia(Integer NIF)</text><!--MD5=[36c1942e8942a3e4f47e6de3733e3d18]
class Endereco--><rect codeLine="8" fill="#FEFECE" filter="url(#f18gnsbptxy3ea)" height="112.0234" id="Endereco" style="stroke:#A80036;stroke-width:1.5;" width="458" x="233" y="887"/><ellipse cx="428.75" cy="903" fill="#ADD1B2" rx="11" ry="11" style="stroke:#A80036;stroke-width:1.0;"/><path d="M431.0938,898.6719 C430.1563,898.2344 429.5625,898.0938 428.6875,898.0938 C426.0625,898.0938 424.0625,900.1719 424.0625,902.8906 L424.0625,904.0156 C424.0625,906.5938 426.1719,908.4844 429.0625,908.4844 C430.2813,908.4844 431.4375,908.1875 432.1875,907.6406 C432.7656,907.2344 433.0938,906.7813 433.0938,906.3906 C433.0938,905.9375 432.7031,905.5469 432.2344,905.5469 C432.0156,905.5469 431.8125,905.625 431.625,905.8125 C431.1719,906.2969 431.1719,906.2969 430.9844,906.3906 C430.5625,906.6563 429.875,906.7813 429.1094,906.7813 C427.0625,906.7813 425.7656,905.6875 425.7656,903.9844 L425.7656,902.8906 C425.7656,901.1094 427.0156,899.7969 428.75,899.7969 C429.3281,899.7969 429.9375,899.9531 430.4063,900.2031 C430.8906,900.4844 431.0625,900.7031 431.1563,901.1094 C431.2188,901.5156 431.25,901.6406 431.3906,901.7656 C431.5313,901.9063 431.7656,902.0156 431.9844,902.0156 C432.25,902.0156 432.5156,901.875 432.6875,901.6563 C432.7969,901.5 432.8281,901.3125 432.8281,900.8906 L432.8281,899.4688 C432.8281,899.0313 432.8125,898.9063 432.7188,898.75 C432.5625,898.4844 432.2813,898.3438 431.9844,898.3438 C431.6875,898.3438 431.4844,898.4375 431.2656,898.75 L431.0938,898.6719 Z " fill="#000000"/><text fill="#000000" font-family="sans-serif" font-size="12" lengthAdjust="spacing" textLength="58" x="449.25" y="907.1543">Endereco</text><line style="stroke:#A80036;stroke-width:1.5;" x1="234" x2="690" y1="919" y2="919"/><text fill="#000000" font-family="sans-serif" font-size="11" lengthAdjust="spacing" textLength="84" x="239" y="933.2104">-String morada</text><text fill="#000000" font-family="sans-serif" font-size="11" lengthAdjust="spacing" textLength="92" x="239" y="946.0151">-Double latitude</text><text fill="#000000" font-family="sans-serif" font-size="11" lengthAdjust="spacing" textLength="102" x="239" y="958.8198">-Double longitude</text><text fill="#000000" font-family="sans-serif" font-size="11" lengthAdjust="spacing" textLength="92" x="239" y="971.6245">-Double altitude</text><line style="stroke:#A80036;stroke-width:1.5;" x1="234" x2="690" y1="978.2188" y2="978.2188"/><text fill="#000000" font-family="sans-serif" font-size="11" lengthAdjust="spacing" textLength="446" x="239" y="992.4292">+Endereco(String morada, Double latitude, Double longitude, Double altitude)</text><!--MD5=[1a083dbe42a284ae0ea7f6f701783206]
class Parque--><rect codeLine="16" fill="#FEFECE" filter="url(#f18gnsbptxy3ea)" height="99.2188" id="Parque" style="stroke:#A80036;stroke-width:1.5;" width="372" x="276" y="711"/><ellipse cx="437.25" cy="727" fill="#ADD1B2" rx="11" ry="11" style="stroke:#A80036;stroke-width:1.0;"/><path d="M439.5938,722.6719 C438.6563,722.2344 438.0625,722.0938 437.1875,722.0938 C434.5625,722.0938 432.5625,724.1719 432.5625,726.8906 L432.5625,728.0156 C432.5625,730.5938 434.6719,732.4844 437.5625,732.4844 C438.7813,732.4844 439.9375,732.1875 440.6875,731.6406 C441.2656,731.2344 441.5938,730.7813 441.5938,730.3906 C441.5938,729.9375 441.2031,729.5469 440.7344,729.5469 C440.5156,729.5469 440.3125,729.625 440.125,729.8125 C439.6719,730.2969 439.6719,730.2969 439.4844,730.3906 C439.0625,730.6563 438.375,730.7813 437.6094,730.7813 C435.5625,730.7813 434.2656,729.6875 434.2656,727.9844 L434.2656,726.8906 C434.2656,725.1094 435.5156,723.7969 437.25,723.7969 C437.8281,723.7969 438.4375,723.9531 438.9063,724.2031 C439.3906,724.4844 439.5625,724.7031 439.6563,725.1094 C439.7188,725.5156 439.75,725.6406 439.8906,725.7656 C440.0313,725.9063 440.2656,726.0156 440.4844,726.0156 C440.75,726.0156 441.0156,725.875 441.1875,725.6563 C441.2969,725.5 441.3281,725.3125 441.3281,724.8906 L441.3281,723.4688 C441.3281,723.0313 441.3125,722.9063 441.2188,722.75 C441.0625,722.4844 440.7813,722.3438 440.4844,722.3438 C440.1875,722.3438 439.9844,722.4375 439.7656,722.75 L439.5938,722.6719 Z " fill="#000000"/><text fill="#000000" font-family="sans-serif" font-size="12" lengthAdjust="spacing" textLength="41" x="457.75" y="731.1543">Parque</text><line style="stroke:#A80036;stroke-width:1.5;" x1="277" x2="647" y1="743" y2="743"/><text fill="#000000" font-family="sans-serif" font-size="11" lengthAdjust="spacing" textLength="66" x="282" y="757.2104">-Integer NIF</text><text fill="#000000" font-family="sans-serif" font-size="11" lengthAdjust="spacing" textLength="84" x="282" y="770.0151">-String morada</text><text fill="#000000" font-family="sans-serif" font-size="11" lengthAdjust="spacing" textLength="137" x="282" y="782.8198">-Integer numeroMaximo</text><line style="stroke:#A80036;stroke-width:1.5;" x1="277" x2="647" y1="789.4141" y2="789.4141"/><text fill="#000000" font-family="sans-serif" font-size="11" lengthAdjust="spacing" textLength="360" x="282" y="803.6245">+Endereco(Integer NIF, String morada, Integer numeroMaximo)</text><!--MD5=[364aec0fc02518cb9ab31cd04b585b1a]
class FarmaciaDB--><rect codeLine="23" fill="#FEFECE" filter="url(#f18gnsbptxy3ea)" height="99.2188" id="FarmaciaDB" style="stroke:#A80036;stroke-width:1.5;" width="200" x="59" y="302"/><ellipse cx="119.25" cy="318" fill="#ADD1B2" rx="11" ry="11" style="stroke:#A80036;stroke-width:1.0;"/><path d="M121.5938,313.6719 C120.6563,313.2344 120.0625,313.0938 119.1875,313.0938 C116.5625,313.0938 114.5625,315.1719 114.5625,317.8906 L114.5625,319.0156 C114.5625,321.5938 116.6719,323.4844 119.5625,323.4844 C120.7813,323.4844 121.9375,323.1875 122.6875,322.6406 C123.2656,322.2344 123.5938,321.7813 123.5938,321.3906 C123.5938,320.9375 123.2031,320.5469 122.7344,320.5469 C122.5156,320.5469 122.3125,320.625 122.125,320.8125 C121.6719,321.2969 121.6719,321.2969 121.4844,321.3906 C121.0625,321.6563 120.375,321.7813 119.6094,321.7813 C117.5625,321.7813 116.2656,320.6875 116.2656,318.9844 L116.2656,317.8906 C116.2656,316.1094 117.5156,314.7969 119.25,314.7969 C119.8281,314.7969 120.4375,314.9531 120.9063,315.2031 C121.3906,315.4844 121.5625,315.7031 121.6563,316.1094 C121.7188,316.5156 121.75,316.6406 121.8906,316.7656 C122.0313,316.9063 122.2656,317.0156 122.4844,317.0156 C122.75,317.0156 123.0156,316.875 123.1875,316.6563 C123.2969,316.5 123.3281,316.3125 123.3281,315.8906 L123.3281,314.4688 C123.3281,314.0313 123.3125,313.9063 123.2188,313.75 C123.0625,313.4844 122.7813,313.3438 122.4844,313.3438 C122.1875,313.3438 121.9844,313.4375 121.7656,313.75 L121.5938,313.6719 Z " fill="#000000"/><text fill="#000000" font-family="sans-serif" font-size="12" lengthAdjust="spacing" textLength="71" x="139.75" y="322.1543">FarmaciaDB</text><line style="stroke:#A80036;stroke-width:1.5;" x1="60" x2="258" y1="334" y2="334"/><line style="stroke:#A80036;stroke-width:1.5;" x1="60" x2="258" y1="342" y2="342"/><text fill="#000000" font-family="sans-serif" font-size="11" lengthAdjust="spacing" textLength="168" x="65" y="356.2104">+Farmacia novaFarmacia(NIF)</text><text fill="#000000" font-family="sans-serif" font-size="11" lengthAdjust="spacing" textLength="188" x="65" y="369.0151">+registaFarmacia(Farmacia farm)</text><text fill="#000000" font-family="sans-serif" font-size="11" lengthAdjust="spacing" textLength="183" x="65" y="381.8198">+validaFarmacia(Farmacia farm)</text><text fill="#000000" font-family="sans-serif" font-size="11" lengthAdjust="spacing" textLength="165" x="65" y="394.6245">-addFarmacia(Farmacia farm)</text><!--MD5=[a8381305e32feabadf74eb10f0c047ba]
class EnderecoDB--><rect codeLine="30" fill="#FEFECE" filter="url(#f18gnsbptxy3ea)" height="99.2188" id="EnderecoDB" style="stroke:#A80036;stroke-width:1.5;" width="544" x="722" y="431"/><ellipse cx="952.25" cy="447" fill="#ADD1B2" rx="11" ry="11" style="stroke:#A80036;stroke-width:1.0;"/><path d="M954.5938,442.6719 C953.6563,442.2344 953.0625,442.0938 952.1875,442.0938 C949.5625,442.0938 947.5625,444.1719 947.5625,446.8906 L947.5625,448.0156 C947.5625,450.5938 949.6719,452.4844 952.5625,452.4844 C953.7813,452.4844 954.9375,452.1875 955.6875,451.6406 C956.2656,451.2344 956.5938,450.7813 956.5938,450.3906 C956.5938,449.9375 956.2031,449.5469 955.7344,449.5469 C955.5156,449.5469 955.3125,449.625 955.125,449.8125 C954.6719,450.2969 954.6719,450.2969 954.4844,450.3906 C954.0625,450.6563 953.375,450.7813 952.6094,450.7813 C950.5625,450.7813 949.2656,449.6875 949.2656,447.9844 L949.2656,446.8906 C949.2656,445.1094 950.5156,443.7969 952.25,443.7969 C952.8281,443.7969 953.4375,443.9531 953.9063,444.2031 C954.3906,444.4844 954.5625,444.7031 954.6563,445.1094 C954.7188,445.5156 954.75,445.6406 954.8906,445.7656 C955.0313,445.9063 955.2656,446.0156 955.4844,446.0156 C955.75,446.0156 956.0156,445.875 956.1875,445.6563 C956.2969,445.5 956.3281,445.3125 956.3281,444.8906 L956.3281,443.4688 C956.3281,443.0313 956.3125,442.9063 956.2188,442.75 C956.0625,442.4844 955.7813,442.3438 955.4844,442.3438 C955.1875,442.3438 954.9844,442.4375 954.7656,442.75 L954.5938,442.6719 Z " fill="#000000"/><text fill="#000000" font-family="sans-serif" font-size="12" lengthAdjust="spacing" textLength="75" x="972.75" y="451.1543">EnderecoDB</text><line style="stroke:#A80036;stroke-width:1.5;" x1="723" x2="1265" y1="463" y2="463"/><line style="stroke:#A80036;stroke-width:1.5;" x1="723" x2="1265" y1="471" y2="471"/><text fill="#000000" font-family="sans-serif" font-size="11" lengthAdjust="spacing" textLength="532" x="728" y="485.2104">+Endereco novoEndereco(String morada, Double latitude, Double longitude, Double altitude)</text><text fill="#000000" font-family="sans-serif" font-size="11" lengthAdjust="spacing" textLength="190" x="728" y="498.0151">+registaEndereco(Endereco end)</text><text fill="#000000" font-family="sans-serif" font-size="11" lengthAdjust="spacing" textLength="185" x="728" y="510.8198">+validaEndereco(Endereco end)</text><text fill="#000000" font-family="sans-serif" font-size="11" lengthAdjust="spacing" textLength="167" x="728" y="523.6245">-addEndereco(Endereco end)</text><!--MD5=[021650fd5270df78a3629eada2205323]
class ParqueDB--><rect codeLine="37" fill="#FEFECE" filter="url(#f18gnsbptxy3ea)" height="99.2188" id="ParqueDB" style="stroke:#A80036;stroke-width:1.5;" width="428" x="248" y="431"/><ellipse cx="428.75" cy="447" fill="#ADD1B2" rx="11" ry="11" style="stroke:#A80036;stroke-width:1.0;"/><path d="M431.0938,442.6719 C430.1563,442.2344 429.5625,442.0938 428.6875,442.0938 C426.0625,442.0938 424.0625,444.1719 424.0625,446.8906 L424.0625,448.0156 C424.0625,450.5938 426.1719,452.4844 429.0625,452.4844 C430.2813,452.4844 431.4375,452.1875 432.1875,451.6406 C432.7656,451.2344 433.0938,450.7813 433.0938,450.3906 C433.0938,449.9375 432.7031,449.5469 432.2344,449.5469 C432.0156,449.5469 431.8125,449.625 431.625,449.8125 C431.1719,450.2969 431.1719,450.2969 430.9844,450.3906 C430.5625,450.6563 429.875,450.7813 429.1094,450.7813 C427.0625,450.7813 425.7656,449.6875 425.7656,447.9844 L425.7656,446.8906 C425.7656,445.1094 427.0156,443.7969 428.75,443.7969 C429.3281,443.7969 429.9375,443.9531 430.4063,444.2031 C430.8906,444.4844 431.0625,444.7031 431.1563,445.1094 C431.2188,445.5156 431.25,445.6406 431.3906,445.7656 C431.5313,445.9063 431.7656,446.0156 431.9844,446.0156 C432.25,446.0156 432.5156,445.875 432.6875,445.6563 C432.7969,445.5 432.8281,445.3125 432.8281,444.8906 L432.8281,443.4688 C432.8281,443.0313 432.8125,442.9063 432.7188,442.75 C432.5625,442.4844 432.2813,442.3438 431.9844,442.3438 C431.6875,442.3438 431.4844,442.4375 431.2656,442.75 L431.0938,442.6719 Z " fill="#000000"/><text fill="#000000" font-family="sans-serif" font-size="12" lengthAdjust="spacing" textLength="58" x="449.25" y="451.1543">ParqueDB</text><line style="stroke:#A80036;stroke-width:1.5;" x1="249" x2="675" y1="463" y2="463"/><line style="stroke:#A80036;stroke-width:1.5;" x1="249" x2="675" y1="471" y2="471"/><text fill="#000000" font-family="sans-serif" font-size="11" lengthAdjust="spacing" textLength="416" x="254" y="485.2104">+Parque novoParque(Integer NIF, String morada, Integer numeroMaximo)</text><text fill="#000000" font-family="sans-serif" font-size="11" lengthAdjust="spacing" textLength="178" x="254" y="498.0151">+registaParque(Parque parque)</text><text fill="#000000" font-family="sans-serif" font-size="11" lengthAdjust="spacing" textLength="173" x="254" y="510.8198">+validaParque(Parque parque)</text><text fill="#000000" font-family="sans-serif" font-size="11" lengthAdjust="spacing" textLength="155" x="254" y="523.6245">-addParque(Parque parque)</text><!--MD5=[292cbfdf48ee96a1c6d5c40c7ba01c14]
class RegistarFarmaciaController--><rect codeLine="44" fill="#FEFECE" filter="url(#f18gnsbptxy3ea)" height="124.8281" id="RegistarFarmaciaController" style="stroke:#A80036;stroke-width:1.5;" width="385" x="194.5" y="116"/><ellipse cx="301.75" cy="132" fill="#ADD1B2" rx="11" ry="11" style="stroke:#A80036;stroke-width:1.0;"/><path d="M304.0938,127.6719 C303.1563,127.2344 302.5625,127.0938 301.6875,127.0938 C299.0625,127.0938 297.0625,129.1719 297.0625,131.8906 L297.0625,133.0156 C297.0625,135.5938 299.1719,137.4844 302.0625,137.4844 C303.2813,137.4844 304.4375,137.1875 305.1875,136.6406 C305.7656,136.2344 306.0938,135.7813 306.0938,135.3906 C306.0938,134.9375 305.7031,134.5469 305.2344,134.5469 C305.0156,134.5469 304.8125,134.625 304.625,134.8125 C304.1719,135.2969 304.1719,135.2969 303.9844,135.3906 C303.5625,135.6563 302.875,135.7813 302.1094,135.7813 C300.0625,135.7813 298.7656,134.6875 298.7656,132.9844 L298.7656,131.8906 C298.7656,130.1094 300.0156,128.7969 301.75,128.7969 C302.3281,128.7969 302.9375,128.9531 303.4063,129.2031 C303.8906,129.4844 304.0625,129.7031 304.1563,130.1094 C304.2188,130.5156 304.25,130.6406 304.3906,130.7656 C304.5313,130.9063 304.7656,131.0156 304.9844,131.0156 C305.25,131.0156 305.5156,130.875 305.6875,130.6563 C305.7969,130.5 305.8281,130.3125 305.8281,129.8906 L305.8281,128.4688 C305.8281,128.0313 305.8125,127.9063 305.7188,127.75 C305.5625,127.4844 305.2813,127.3438 304.9844,127.3438 C304.6875,127.3438 304.4844,127.4375 304.2656,127.75 L304.0938,127.6719 Z " fill="#000000"/><text fill="#000000" font-family="sans-serif" font-size="12" lengthAdjust="spacing" textLength="162" x="322.25" y="136.1543">RegistarFarmaciaController</text><line style="stroke:#A80036;stroke-width:1.5;" x1="195.5" x2="578.5" y1="148" y2="148"/><line style="stroke:#A80036;stroke-width:1.5;" x1="195.5" x2="578.5" y1="156" y2="156"/><text fill="#000000" font-family="sans-serif" font-size="11" lengthAdjust="spacing" textLength="113" x="200.5" y="170.2104">+novaFarmacia(NIF)</text><text fill="#000000" font-family="sans-serif" font-size="11" lengthAdjust="spacing" textLength="302" x="200.5" y="183.0151">+novoEndereco(morada, latitude, longitude, altitude)</text><text fill="#000000" font-family="sans-serif" font-size="11" lengthAdjust="spacing" textLength="373" x="200.5" y="195.8198">+novoParque(Integer NIF, String morada, Integer numeroMaximo)</text><text fill="#000000" font-family="sans-serif" font-size="11" lengthAdjust="spacing" textLength="133" x="200.5" y="208.6245">+registaFarmacia(farm)</text><text fill="#000000" font-family="sans-serif" font-size="11" lengthAdjust="spacing" textLength="132" x="200.5" y="221.4292">+registaEndereco(end)</text><text fill="#000000" font-family="sans-serif" font-size="11" lengthAdjust="spacing" textLength="135" x="200.5" y="234.2339">+registaParque(parque)</text><!--MD5=[16f25527ba70f62c202fb8dd84cb3d2e]
class RegistarFarmaciaUI--><rect codeLine="53" fill="#FEFECE" filter="url(#f18gnsbptxy3ea)" height="48" id="RegistarFarmaciaUI" style="stroke:#A80036;stroke-width:1.5;" width="147" x="313.5" y="7"/><ellipse cx="328.5" cy="23" fill="#ADD1B2" rx="11" ry="11" style="stroke:#A80036;stroke-width:1.0;"/><path d="M330.8438,18.6719 C329.9063,18.2344 329.3125,18.0938 328.4375,18.0938 C325.8125,18.0938 323.8125,20.1719 323.8125,22.8906 L323.8125,24.0156 C323.8125,26.5938 325.9219,28.4844 328.8125,28.4844 C330.0313,28.4844 331.1875,28.1875 331.9375,27.6406 C332.5156,27.2344 332.8438,26.7813 332.8438,26.3906 C332.8438,25.9375 332.4531,25.5469 331.9844,25.5469 C331.7656,25.5469 331.5625,25.625 331.375,25.8125 C330.9219,26.2969 330.9219,26.2969 330.7344,26.3906 C330.3125,26.6563 329.625,26.7813 328.8594,26.7813 C326.8125,26.7813 325.5156,25.6875 325.5156,23.9844 L325.5156,22.8906 C325.5156,21.1094 326.7656,19.7969 328.5,19.7969 C329.0781,19.7969 329.6875,19.9531 330.1563,20.2031 C330.6406,20.4844 330.8125,20.7031 330.9063,21.1094 C330.9688,21.5156 331,21.6406 331.1406,21.7656 C331.2813,21.9063 331.5156,22.0156 331.7344,22.0156 C332,22.0156 332.2656,21.875 332.4375,21.6563 C332.5469,21.5 332.5781,21.3125 332.5781,20.8906 L332.5781,19.4688 C332.5781,19.0313 332.5625,18.9063 332.4688,18.75 C332.3125,18.4844 332.0313,18.3438 331.7344,18.3438 C331.4375,18.3438 331.2344,18.4375 331.0156,18.75 L330.8438,18.6719 Z " fill="#000000"/><text fill="#000000" font-family="sans-serif" font-size="12" lengthAdjust="spacing" textLength="115" x="342.5" y="27.1543">RegistarFarmaciaUI</text><line style="stroke:#A80036;stroke-width:1.5;" x1="314.5" x2="459.5" y1="39" y2="39"/><line style="stroke:#A80036;stroke-width:1.5;" x1="314.5" x2="459.5" y1="47" y2="47"/><!--MD5=[f96a217cc99f82e5dda83e4db29e3f0d]
link RegistarFarmaciaUI to RegistarFarmaciaController--><path codeLine="57" d="M387,55.055 C387,70.198 387,90.845 387,110.869 " fill="none" id="RegistarFarmaciaUI-to-RegistarFarmaciaController" style="stroke:#A80036;stroke-width:1.0;stroke-dasharray:7.0,7.0;"/><polygon fill="#A80036" points="387,115.942,391,106.942,387,110.942,383,106.942,387,115.942" style="stroke:#A80036;stroke-width:1.0;"/><!--MD5=[cf385d46b982f44bba418de29d938ed9]
link RegistarFarmaciaController to ParqueDB--><path codeLine="58" d="M402.449,241.296 C416.033,295.632 435.604,373.917 448.554,425.716 " fill="none" id="RegistarFarmaciaController-to-ParqueDB" style="stroke:#A80036;stroke-width:1.0;stroke-dasharray:7.0,7.0;"/><polygon fill="#A80036" points="449.786,430.645,451.4831,420.9435,448.573,425.7944,443.7221,422.8843,449.786,430.645" style="stroke:#A80036;stroke-width:1.0;"/><!--MD5=[cedf4e2fac6be50e74b26344cb9b6128]
link RegistarFarmaciaController to EnderecoDB--><path codeLine="59" d="M579.563,217.576 C628.419,230.991 679.829,248.515 725,271 C807.227,311.931 888.78,380.032 940.159,427.215 " fill="none" id="RegistarFarmaciaController-to-EnderecoDB" style="stroke:#A80036;stroke-width:1.0;stroke-dasharray:7.0,7.0;"/><polygon fill="#A80036" points="944.112,430.859,940.2043,421.8185,940.4351,427.4707,934.783,427.7015,944.112,430.859" style="stroke:#A80036;stroke-width:1.0;"/><!--MD5=[ee0f888f82e00ad1821accfbab9741d8]
link RegistarFarmaciaController to FarmaciaDB--><path codeLine="60" d="M304.687,241.235 C279.486,260.136 252.041,280.719 227.836,298.873 " fill="none" id="RegistarFarmaciaController-to-FarmaciaDB" style="stroke:#A80036;stroke-width:1.0;stroke-dasharray:7.0,7.0;"/><polygon fill="#A80036" points="223.669,301.998,233.269,299.798,227.669,298.998,228.469,293.398,223.669,301.998" style="stroke:#A80036;stroke-width:1.0;"/><!--MD5=[aa9f67082c51c82a1ba912278ea26989]
link RegistarFarmaciaController to Parque--><path codeLine="61" d="M496.548,241.063 C562.202,284.661 639.92,349.76 677,431 C724.754,535.625 616.158,645.039 536.569,707.478 " fill="none" id="RegistarFarmaciaController-to-Parque" style="stroke:#A80036;stroke-width:1.0;stroke-dasharray:7.0,7.0;"/><polygon fill="#A80036" points="532.325,710.784,541.8826,708.4066,536.2688,707.7104,536.9649,702.0966,532.325,710.784" style="stroke:#A80036;stroke-width:1.0;"/><!--MD5=[1108c8e87a0035f633b3288171c413ba]
link RegistarFarmaciaController to Endereco--><path codeLine="62" d="M194.268,195.86 C99.7675,215.618 6,258.422 6,350.5 C6,350.5 6,350.5 6,761.5 C6,815.036 116.037,859.531 228.004,890.949 " fill="none" id="RegistarFarmaciaController-to-Endereco" style="stroke:#A80036;stroke-width:1.0;stroke-dasharray:7.0,7.0;"/><polygon fill="#A80036" points="232.998,892.341,225.4031,886.0706,228.1817,890.998,223.2543,893.7766,232.998,892.341" style="stroke:#A80036;stroke-width:1.0;"/><!--MD5=[45e10d883f52dd70f1944020196c5274]
link RegistarFarmaciaController to Farmacia--><path codeLine="63" d="M362.208,241.055 C342.244,287.139 311.688,350.639 276,401 C265.278,416.131 255.075,414.306 247,431 C228.11,470.055 223.809,520.043 223.483,554.713 " fill="none" id="RegistarFarmaciaController-to-Farmacia" style="stroke:#A80036;stroke-width:1.0;stroke-dasharray:7.0,7.0;"/><polygon fill="#A80036" points="223.462,559.714,227.498,550.7301,223.482,554.714,219.498,550.6981,223.462,559.714" style="stroke:#A80036;stroke-width:1.0;"/><!--MD5=[e5dbbc54f46538fc7b7077d28b1f914b]
link ParqueDB to Parque--><path codeLine="65" d="M462,530.242 C462,579.322 462,654.851 462,705.668 " fill="none" id="ParqueDB-to-Parque" style="stroke:#A80036;stroke-width:1.0;"/><polygon fill="#A80036" points="462,710.814,466,701.814,462,705.814,458,701.814,462,710.814" style="stroke:#A80036;stroke-width:1.0;"/><text fill="#000000" font-family="sans-serif" font-size="13" lengthAdjust="spacing" textLength="41" x="463" y="601.5669">possui</text><text fill="#000000" font-family="sans-serif" font-size="13" lengthAdjust="spacing" textLength="8" x="453.4375" y="550.3525">1</text><text fill="#000000" font-family="sans-serif" font-size="13" lengthAdjust="spacing" textLength="7" x="454.5078" y="699.8331">*</text><!--MD5=[c023e2c3fa599b931e4bde319636976a]
link EnderecoDB to Endereco--><path codeLine="66" d="M951.509,530.124 C891.567,597.241 777.056,720.15 666,810 C633.28,836.472 595.079,862.359 560.638,884.097 " fill="none" id="EnderecoDB-to-Endereco" style="stroke:#A80036;stroke-width:1.0;"/><polygon fill="#A80036" points="556.023,887,565.7712,885.5957,560.2558,884.3386,561.513,878.8232,556.023,887" style="stroke:#A80036;stroke-width:1.0;"/><text fill="#000000" font-family="sans-serif" font-size="13" lengthAdjust="spacing" textLength="41" x="824" y="677.0669">possui</text><text fill="#000000" font-family="sans-serif" font-size="13" lengthAdjust="spacing" textLength="8" x="936.9712" y="550.2179">1</text><text fill="#000000" font-family="sans-serif" font-size="13" lengthAdjust="spacing" textLength="7" x="560.6213" y="875.938">*</text><!--MD5=[3c539b0dd2212e8322efef71ee8cdfc2]
link FarmaciaDB to Farmacia--><path codeLine="67" d="M147.766,401.261 C141.691,438.128 138.562,489.188 156,530 C160.03,539.432 166.143,548.16 173.096,555.974 " fill="none" id="FarmaciaDB-to-Farmacia" style="stroke:#A80036;stroke-width:1.0;"/><polygon fill="#A80036" points="176.572,559.735,173.4013,550.4105,173.1785,556.063,167.526,555.8401,176.572,559.735" style="stroke:#A80036;stroke-width:1.0;"/><text fill="#000000" font-family="sans-serif" font-size="13" lengthAdjust="spacing" textLength="41" x="157" y="485.0669">possui</text><text fill="#000000" font-family="sans-serif" font-size="13" lengthAdjust="spacing" textLength="8" x="137.6237" y="421.3742">1</text><text fill="#000000" font-family="sans-serif" font-size="13" lengthAdjust="spacing" textLength="7" x="160.3223" y="548.8747">*</text><!--MD5=[4f96609c99ecadb81dc825d0ae539cef]
link Farmacia to Parque--><path codeLine="68" d="M277.892,634.043 C309.749,655.751 350.842,683.753 386.121,707.793 " fill="none" id="Farmacia-to-Parque" style="stroke:#A80036;stroke-width:1.0;"/><polygon fill="#A80036" points="390.393,710.705,385.2087,702.3311,386.2613,707.8891,380.7033,708.9417,390.393,710.705" style="stroke:#A80036;stroke-width:1.0;"/><text fill="#000000" font-family="sans-serif" font-size="13" lengthAdjust="spacing" textLength="26" x="345" y="677.0669">tem</text><text fill="#000000" font-family="sans-serif" font-size="13" lengthAdjust="spacing" textLength="8" x="278.2953" y="653.8107">1</text><text fill="#000000" font-family="sans-serif" font-size="13" lengthAdjust="spacing" textLength="8" x="372.2333" y="700.0671">1</text><!--MD5=[65c0b4ced80642714d633a5480d06ed6]
link Parque to Endereco--><path codeLine="69" d="M462,810.346 C462,832.283 462,858.386 462,881.542 " fill="none" id="Parque-to-Endereco" style="stroke:#A80036;stroke-width:1.0;"/><polygon fill="#A80036" points="462,886.742,466,877.742,462,881.742,458,877.742,462,886.742" style="stroke:#A80036;stroke-width:1.0;"/><text fill="#000000" font-family="sans-serif" font-size="13" lengthAdjust="spacing" textLength="26" x="463" y="853.0669">tem</text><text fill="#000000" font-family="sans-serif" font-size="13" lengthAdjust="spacing" textLength="8" x="453.4625" y="830.113">1</text><text fill="#000000" font-family="sans-serif" font-size="13" lengthAdjust="spacing" textLength="8" x="453.5125" y="876.0451">1</text><!--MD5=[164fb514aa5705409981ae39b2bbd094]
@startuml
skinparam classAttributeIconSize 0

class Farmacia {
  -Integer NIF
  +Farmacia(Integer NIF)
}

class Endereco {
  -String morada
  -Double latitude
  -Double longitude
  -Double altitude 
  +Endereco(String morada, Double latitude, Double longitude, Double altitude)
}

class Parque {
  -Integer NIF
  -String morada
  -Integer numeroMaximo
  +Endereco(Integer NIF, String morada, Integer numeroMaximo)
}

class FarmaciaDB {
  +Farmacia novaFarmacia(NIF)
  +registaFarmacia(Farmacia farm)
  +validaFarmacia(Farmacia farm)
  -addFarmacia(Farmacia farm)
}

class EnderecoDB {
  +Endereco novoEndereco(String morada, Double latitude, Double longitude, Double altitude)
  +registaEndereco(Endereco end)
  +validaEndereco(Endereco end)
  -addEndereco(Endereco end)
}

class ParqueDB {
  +Parque novoParque(Integer NIF, String morada, Integer numeroMaximo)
  +registaParque(Parque parque)
  +validaParque(Parque parque)
  -addParque(Parque parque)
}

class RegistarFarmaciaController {
  +novaFarmacia(NIF)
  +novoEndereco(morada, latitude, longitude, altitude)
  +novoParque(Integer NIF, String morada, Integer numeroMaximo)
  +registaFarmacia(farm)
  +registaEndereco(end)
  +registaParque(parque)
}

class RegistarFarmaciaUI {
  
}

RegistarFarmaciaUI ..> RegistarFarmaciaController
RegistarFarmaciaController ..> ParqueDB
RegistarFarmaciaController ..> EnderecoDB
RegistarFarmaciaController ..> FarmaciaDB
RegistarFarmaciaController ..> Parque
RegistarFarmaciaController ..> Endereco
RegistarFarmaciaController ..> Farmacia

ParqueDB "1" - -> "*" Parque : possui
EnderecoDB "1" - -> "*" Endereco : possui
FarmaciaDB "1" - -> "*" Farmacia : possui
Farmacia "1" - -> "1" Parque : tem
Parque "1" - -> "1" Endereco : tem
@enduml

PlantUML version 1.2020.27beta8(Unknown compile time)
(GPL source distribution)
Java Runtime: Java(TM) SE Runtime Environment
JVM: Java HotSpot(TM) 64-Bit Server VM
Default Encoding: UTF-8
Language: en
Country: US
--></g></svg>