<?xml version="1.0" encoding="UTF-8" standalone="no"?><svg xmlns="http://www.w3.org/2000/svg" xmlns:xlink="http://www.w3.org/1999/xlink" contentScriptType="application/ecmascript" contentStyleType="text/css" height="213px" preserveAspectRatio="none" style="width:739px;height:213px;" version="1.1" viewBox="0 0 739 213" width="739px" zoomAndPan="magnify"><defs><filter height="300%" id="fzlwxtexbxhhv" width="300%" x="-1" y="-1"><feGaussianBlur result="blurOut" stdDeviation="2.0"/><feColorMatrix in="blurOut" result="blurOut2" type="matrix" values="0 0 0 0 0 0 0 0 0 0 0 0 0 0 0 0 0 0 .4 0"/><feOffset dx="4.0" dy="4.0" in="blurOut2" result="blurOut3"/><feBlend in="SourceGraphic" in2="blurOut3" mode="normal"/></filter></defs><g><!--MD5=[6613c9cd406ef433ff06f5e98b28abd9]
class Farmacia--><rect codeLine="5" fill="#FEFECE" filter="url(#fzlwxtexbxhhv)" height="52.8047" id="Farmacia" style="stroke:#A80036;stroke-width:1.5;" width="89" x="7" y="118.5"/><ellipse cx="22" cy="134.5" fill="#ADD1B2" rx="11" ry="11" style="stroke:#A80036;stroke-width:1.0;"/><path d="M24.9688,140.1406 Q24.3906,140.4375 23.75,140.5781 Q23.1094,140.7344 22.4063,140.7344 Q19.9063,140.7344 18.5781,139.0938 Q17.2656,137.4375 17.2656,134.3125 Q17.2656,131.1875 18.5781,129.5313 Q19.9063,127.875 22.4063,127.875 Q23.1094,127.875 23.75,128.0313 Q24.4063,128.1875 24.9688,128.4844 L24.9688,131.2031 Q24.3438,130.625 23.75,130.3594 Q23.1563,130.0781 22.5313,130.0781 Q21.1875,130.0781 20.5,131.1563 Q19.8125,132.2188 19.8125,134.3125 Q19.8125,136.4063 20.5,137.4844 Q21.1875,138.5469 22.5313,138.5469 Q23.1563,138.5469 23.75,138.2813 Q24.3438,138 24.9688,137.4219 L24.9688,140.1406 Z " fill="#000000"/><text fill="#000000" font-family="sans-serif" font-size="12" lengthAdjust="spacingAndGlyphs" textLength="57" x="36" y="138.6543">Farmacia</text><line style="stroke:#A80036;stroke-width:1.5;" x1="8" x2="95" y1="150.5" y2="150.5"/><text fill="#000000" font-family="sans-serif" font-size="11" lengthAdjust="spacingAndGlyphs" textLength="21" x="13" y="164.7104">-NIF</text><!--MD5=[5dd1d6732c071e710b9290b531f2fa3b]
class Utilizador--><rect codeLine="9" fill="#FEFECE" filter="url(#fzlwxtexbxhhv)" height="104.0234" id="Utilizador" style="stroke:#A80036;stroke-width:1.5;" width="155" x="570" y="7"/><ellipse cx="614.75" cy="23" fill="#ADD1B2" rx="11" ry="11" style="stroke:#A80036;stroke-width:1.0;"/><path d="M617.7188,28.6406 Q617.1406,28.9375 616.5,29.0781 Q615.8594,29.2344 615.1563,29.2344 Q612.6563,29.2344 611.3281,27.5938 Q610.0156,25.9375 610.0156,22.8125 Q610.0156,19.6875 611.3281,18.0313 Q612.6563,16.375 615.1563,16.375 Q615.8594,16.375 616.5,16.5313 Q617.1563,16.6875 617.7188,16.9844 L617.7188,19.7031 Q617.0938,19.125 616.5,18.8594 Q615.9063,18.5781 615.2813,18.5781 Q613.9375,18.5781 613.25,19.6563 Q612.5625,20.7188 612.5625,22.8125 Q612.5625,24.9063 613.25,25.9844 Q613.9375,27.0469 615.2813,27.0469 Q615.9063,27.0469 616.5,26.7813 Q617.0938,26.5 617.7188,25.9219 L617.7188,28.6406 Z " fill="#000000"/><text fill="#000000" font-family="sans-serif" font-size="12" lengthAdjust="spacingAndGlyphs" textLength="57" x="635.25" y="27.1543">Utilizador</text><line style="stroke:#A80036;stroke-width:1.5;" x1="571" x2="724" y1="39" y2="39"/><text fill="#000000" font-family="sans-serif" font-size="11" lengthAdjust="spacingAndGlyphs" textLength="21" x="576" y="53.2104">-NIF</text><text fill="#000000" font-family="sans-serif" font-size="11" lengthAdjust="spacingAndGlyphs" textLength="36" x="576" y="66.0151">-nome</text><text fill="#000000" font-family="sans-serif" font-size="11" lengthAdjust="spacingAndGlyphs" textLength="35" x="576" y="78.8198">-email</text><text fill="#000000" font-family="sans-serif" font-size="11" lengthAdjust="spacingAndGlyphs" textLength="143" x="576" y="91.6245">-numeroSegurancaSocial</text><text fill="#000000" font-family="sans-serif" font-size="11" lengthAdjust="spacingAndGlyphs" textLength="60" x="576" y="104.4292">-password</text><!--MD5=[fdcda49d453d44c676d62f3f6af62207]
class Administrador--><rect codeLine="17" fill="#FEFECE" filter="url(#fzlwxtexbxhhv)" height="104.0234" id="Administrador" style="stroke:#A80036;stroke-width:1.5;" width="155" x="197" y="18"/><ellipse cx="228.2" cy="34" fill="#ADD1B2" rx="11" ry="11" style="stroke:#A80036;stroke-width:1.0;"/><path d="M231.1688,39.6406 Q230.5906,39.9375 229.95,40.0781 Q229.3094,40.2344 228.6063,40.2344 Q226.1063,40.2344 224.7781,38.5938 Q223.4656,36.9375 223.4656,33.8125 Q223.4656,30.6875 224.7781,29.0313 Q226.1063,27.375 228.6063,27.375 Q229.3094,27.375 229.95,27.5313 Q230.6063,27.6875 231.1688,27.9844 L231.1688,30.7031 Q230.5438,30.125 229.95,29.8594 Q229.3563,29.5781 228.7313,29.5781 Q227.3875,29.5781 226.7,30.6563 Q226.0125,31.7188 226.0125,33.8125 Q226.0125,35.9063 226.7,36.9844 Q227.3875,38.0469 228.7313,38.0469 Q229.3563,38.0469 229.95,37.7813 Q230.5438,37.5 231.1688,36.9219 L231.1688,39.6406 Z " fill="#000000"/><text fill="#000000" font-family="sans-serif" font-size="12" lengthAdjust="spacingAndGlyphs" textLength="87" x="245.8" y="38.1543">Administrador</text><line style="stroke:#A80036;stroke-width:1.5;" x1="198" x2="351" y1="50" y2="50"/><text fill="#000000" font-family="sans-serif" font-size="11" lengthAdjust="spacingAndGlyphs" textLength="21" x="203" y="64.2104">-NIF</text><text fill="#000000" font-family="sans-serif" font-size="11" lengthAdjust="spacingAndGlyphs" textLength="36" x="203" y="77.0151">-nome</text><text fill="#000000" font-family="sans-serif" font-size="11" lengthAdjust="spacingAndGlyphs" textLength="35" x="203" y="89.8198">-email</text><text fill="#000000" font-family="sans-serif" font-size="11" lengthAdjust="spacingAndGlyphs" textLength="143" x="203" y="102.6245">-numeroSegurancaSocial</text><text fill="#000000" font-family="sans-serif" font-size="11" lengthAdjust="spacingAndGlyphs" textLength="60" x="203" y="115.4292">-password</text><!--MD5=[1a083dbe42a284ae0ea7f6f701783206]
class Parque--><rect codeLine="25" fill="#FEFECE" filter="url(#fzlwxtexbxhhv)" height="52.8047" id="Parque" style="stroke:#A80036;stroke-width:1.5;" width="103" x="596" y="146.5"/><ellipse cx="622.7" cy="162.5" fill="#ADD1B2" rx="11" ry="11" style="stroke:#A80036;stroke-width:1.0;"/><path d="M625.6688,168.1406 Q625.0906,168.4375 624.45,168.5781 Q623.8094,168.7344 623.1063,168.7344 Q620.6063,168.7344 619.2781,167.0938 Q617.9656,165.4375 617.9656,162.3125 Q617.9656,159.1875 619.2781,157.5313 Q620.6063,155.875 623.1063,155.875 Q623.8094,155.875 624.45,156.0313 Q625.1063,156.1875 625.6688,156.4844 L625.6688,159.2031 Q625.0438,158.625 624.45,158.3594 Q623.8563,158.0781 623.2313,158.0781 Q621.8875,158.0781 621.2,159.1563 Q620.5125,160.2188 620.5125,162.3125 Q620.5125,164.4063 621.2,165.4844 Q621.8875,166.5469 623.2313,166.5469 Q623.8563,166.5469 624.45,166.2813 Q625.0438,166 625.6688,165.4219 L625.6688,168.1406 Z " fill="#000000"/><text fill="#000000" font-family="sans-serif" font-size="12" lengthAdjust="spacingAndGlyphs" textLength="45" x="639.3" y="166.6543">Parque</text><line style="stroke:#A80036;stroke-width:1.5;" x1="597" x2="698" y1="178.5" y2="178.5"/><text fill="#000000" font-family="sans-serif" font-size="11" lengthAdjust="spacingAndGlyphs" textLength="91" x="602" y="192.7104">-numeroMaximo</text><!--MD5=[b4161b205744775e44f73e41ced309e0]
link Administrador to Utilizador--><path codeLine="29" d="M352.239,67.7074 C416.0776,65.8248 506.0498,63.1715 569.8611,61.2896 " fill="none" id="Administrador-Utilizador" style="stroke:#A80036;stroke-width:1.0;"/><polygon fill="#000000" points="428.9978,53.419,419.87,50.748,420.0433,56.6233,428.9978,53.419" style="stroke:#000000;stroke-width:1.0;"/><text fill="#000000" font-family="sans-serif" font-size="13" lengthAdjust="spacingAndGlyphs" textLength="69" x="433" y="58.0669">atua como</text><text fill="#000000" font-family="sans-serif" font-size="13" lengthAdjust="spacingAndGlyphs" textLength="8" x="360.0297" y="80.2758">1</text><text fill="#000000" font-family="sans-serif" font-size="13" lengthAdjust="spacingAndGlyphs" textLength="8" x="554.0799" y="74.2948">1</text><!--MD5=[6ba179a0a54b0b32b52757b8e4d27c6d]
link Administrador to Parque--><path codeLine="30" d="M352.239,91.4668 C425.3651,111.6598 532.7822,141.3219 595.8896,158.7483 " fill="none" id="Administrador-Parque" style="stroke:#A80036;stroke-width:1.0;"/><polygon fill="#000000" points="391.8196,92.8973,383.8831,87.6568,382.3186,93.3226,391.8196,92.8973" style="stroke:#000000;stroke-width:1.0;"/><text fill="#000000" font-family="sans-serif" font-size="13" lengthAdjust="spacingAndGlyphs" textLength="143" x="396" y="96.0669">define numeroMaximo</text><text fill="#000000" font-family="sans-serif" font-size="13" lengthAdjust="spacingAndGlyphs" textLength="8" x="360.0297" y="106.2998">1</text><text fill="#000000" font-family="sans-serif" font-size="13" lengthAdjust="spacingAndGlyphs" textLength="8" x="580.0694" y="152.7794">1</text><!--MD5=[4f96609c99ecadb81dc825d0ae539cef]
link Farmacia to Parque--><path codeLine="31" d="M96.0378,149.2164 C124.8192,151.8067 163.095,155.0009 197,157 C341.3367,165.5105 511.9738,170.0704 595.7767,171.9494 " fill="none" id="Farmacia-Parque" style="stroke:#A80036;stroke-width:1.0;"/><polygon fill="#000000" points="256.4948,148.7936,247.5926,145.4467,247.3255,151.3185,256.4948,148.7936" style="stroke:#000000;stroke-width:1.0;"/><text fill="#000000" font-family="sans-serif" font-size="13" lengthAdjust="spacingAndGlyphs" textLength="41" x="260.5" y="153.0669">possui</text><text fill="#000000" font-family="sans-serif" font-size="13" lengthAdjust="spacingAndGlyphs" textLength="8" x="104.0769" y="163.251">1</text><text fill="#000000" font-family="sans-serif" font-size="13" lengthAdjust="spacingAndGlyphs" textLength="8" x="579.9406" y="184.9463">1</text><!--MD5=[1eb578f81baca05fae5600e8efb79c07]
link Farmacia to Administrador--><path codeLine="32" d="M96.0914,130.0029 C124.8168,120.3419 162.9441,107.5188 196.5764,96.2075 " fill="none" id="Farmacia-Administrador" style="stroke:#A80036;stroke-width:1.0;"/><polygon fill="#000000" points="135.7391,96.9725,126.2291,97.0703,128.1028,102.6415,135.7391,96.9725" style="stroke:#000000;stroke-width:1.0;"/><text fill="#000000" font-family="sans-serif" font-size="13" lengthAdjust="spacingAndGlyphs" textLength="26" x="140" y="103.0669">tem</text><text fill="#000000" font-family="sans-serif" font-size="13" lengthAdjust="spacingAndGlyphs" textLength="8" x="104.1394" y="140.8553">1</text><text fill="#000000" font-family="sans-serif" font-size="13" lengthAdjust="spacingAndGlyphs" textLength="8" x="181.0241" y="111.3868">1</text><!--MD5=[e55786b254cb3ca8c73d31dfcd07a49f]
@startuml
skinparam classAttributeIconSize 0
hide methods
left to right direction

class Farmacia {
  -NIF
}

class Utilizador {
  -NIF
  -nome
  -email
  -numeroSegurancaSocial
  -password
}

class Administrador {
  -NIF
  -nome
  -email
  -numeroSegurancaSocial
  -password
}

class Parque {
  -numeroMaximo
}

Administrador "1" - - "1" Utilizador: atua como >
Administrador "1" - - "1" Parque: define numeroMaximo >
Farmacia "1" - - "1" Parque: possui >
Farmacia "1" - - "1" Administrador: tem >
@enduml

PlantUML version 1.2020.22(Sun Dec 06 09:36:27 UTC 2020)
(GPL source distribution)
Java Runtime: OpenJDK Runtime Environment
JVM: OpenJDK 64-Bit Server VM
Default Encoding: UTF-8
Language: en
Country: US
--></g></svg>