<?xml version="1.0" encoding="UTF-8" standalone="no"?><svg xmlns="http://www.w3.org/2000/svg" xmlns:xlink="http://www.w3.org/1999/xlink" contentScriptType="application/ecmascript" contentStyleType="text/css" height="1315px" preserveAspectRatio="none" style="width:2235px;height:1315px;" version="1.1" viewBox="0 0 2235 1315" width="2235px" zoomAndPan="magnify"><defs><filter height="300%" id="f1ra2vrtewmrgp" width="300%" x="-1" y="-1"><feGaussianBlur result="blurOut" stdDeviation="2.0"/><feColorMatrix in="blurOut" result="blurOut2" type="matrix" values="0 0 0 0 0 0 0 0 0 0 0 0 0 0 0 0 0 0 .4 0"/><feOffset dx="4.0" dy="4.0" in="blurOut2" result="blurOut3"/><feBlend in="SourceGraphic" in2="blurOut3" mode="normal"/></filter></defs><g><rect fill="#FFFFFF" filter="url(#f1ra2vrtewmrgp)" height="1114.4766" style="stroke:#A80036;stroke-width:1.0;" width="10" x="54" y="98.2969"/><rect fill="#FFFFFF" filter="url(#f1ra2vrtewmrgp)" height="59.3984" style="stroke:#A80036;stroke-width:1.0;" width="10" x="418" y="119.4297"/><rect fill="#FFFFFF" filter="url(#f1ra2vrtewmrgp)" height="577.2188" style="stroke:#A80036;stroke-width:1.0;" width="10" x="418" y="207.9609"/><rect fill="#FFFFFF" filter="url(#f1ra2vrtewmrgp)" height="398.4609" style="stroke:#A80036;stroke-width:1.0;" width="10" x="418" y="814.3125"/><rect fill="#FFFFFF" filter="url(#f1ra2vrtewmrgp)" height="518.9531" style="stroke:#A80036;stroke-width:1.0;" width="10" x="925" y="237.0938"/><rect fill="#FFFFFF" filter="url(#f1ra2vrtewmrgp)" height="333.1953" style="stroke:#A80036;stroke-width:1.0;" width="10" x="925" y="843.4453"/><rect fill="#FFFFFF" filter="url(#f1ra2vrtewmrgp)" height="30" style="stroke:#A80036;stroke-width:1.0;" width="10" x="1105.5" y="266.2266"/><rect fill="#FFFFFF" filter="url(#f1ra2vrtewmrgp)" height="30" style="stroke:#A80036;stroke-width:1.0;" width="10" x="1234" y="325.3594"/><rect fill="#FFFFFF" filter="url(#f1ra2vrtewmrgp)" height="29.1328" style="stroke:#A80036;stroke-width:1.0;" width="10" x="1353.5" y="384.4922"/><rect fill="#FFFFFF" filter="url(#f1ra2vrtewmrgp)" height="30" style="stroke:#A80036;stroke-width:1.0;" width="10" x="1353.5" y="458.9219"/><rect fill="#FFFFFF" filter="url(#f1ra2vrtewmrgp)" height="77.2656" style="stroke:#A80036;stroke-width:1.0;" width="10" x="1353.5" y="872.5781"/><rect fill="#FFFFFF" filter="url(#f1ra2vrtewmrgp)" height="29.1328" style="stroke:#A80036;stroke-width:1.0;" width="10" x="1538.5" y="651.6172"/><rect fill="#FFFFFF" filter="url(#f1ra2vrtewmrgp)" height="30" style="stroke:#A80036;stroke-width:1.0;" width="10" x="1538.5" y="726.0469"/><rect fill="#FFFFFF" filter="url(#f1ra2vrtewmrgp)" height="77.2656" style="stroke:#A80036;stroke-width:1.0;" width="10" x="1538.5" y="1099.375"/><rect fill="#FFFFFF" filter="url(#f1ra2vrtewmrgp)" height="29.1328" style="stroke:#A80036;stroke-width:1.0;" width="10" x="1722.5" y="518.0547"/><rect fill="#FFFFFF" filter="url(#f1ra2vrtewmrgp)" height="30" style="stroke:#A80036;stroke-width:1.0;" width="10" x="1722.5" y="592.4844"/><rect fill="#FFFFFF" filter="url(#f1ra2vrtewmrgp)" height="77.2656" style="stroke:#A80036;stroke-width:1.0;" width="10" x="1722.5" y="985.9766"/><line style="stroke:#A80036;stroke-width:1.0;stroke-dasharray:5.0,5.0;" x1="59" x2="59" y1="88.2969" y2="1230.7734"/><line style="stroke:#A80036;stroke-width:1.0;stroke-dasharray:5.0,5.0;" x1="423" x2="423" y1="88.2969" y2="1230.7734"/><line style="stroke:#A80036;stroke-width:1.0;stroke-dasharray:5.0,5.0;" x1="930" x2="930" y1="88.2969" y2="1230.7734"/><line style="stroke:#A80036;stroke-width:1.0;stroke-dasharray:5.0,5.0;" x1="1110" x2="1110" y1="88.2969" y2="1230.7734"/><line style="stroke:#A80036;stroke-width:1.0;stroke-dasharray:5.0,5.0;" x1="1239" x2="1239" y1="88.2969" y2="1230.7734"/><line style="stroke:#A80036;stroke-width:1.0;stroke-dasharray:5.0,5.0;" x1="1358" x2="1358" y1="88.2969" y2="1230.7734"/><line style="stroke:#A80036;stroke-width:1.0;stroke-dasharray:5.0,5.0;" x1="1543.5" x2="1543.5" y1="88.2969" y2="1230.7734"/><line style="stroke:#A80036;stroke-width:1.0;stroke-dasharray:5.0,5.0;" x1="1727" x2="1727" y1="88.2969" y2="1230.7734"/><line style="stroke:#A80036;stroke-width:1.0;stroke-dasharray:5.0,5.0;" x1="1904" x2="1904" y1="425.1406" y2="1230.7734"/><line style="stroke:#A80036;stroke-width:1.0;stroke-dasharray:5.0,5.0;" x1="2036" x2="2036" y1="692.2656" y2="1230.7734"/><line style="stroke:#A80036;stroke-width:1.0;stroke-dasharray:5.0,5.0;" x1="2166" x2="2166" y1="558.7031" y2="1230.7734"/><text fill="#000000" font-family="sans-serif" font-size="14" lengthAdjust="spacing" textLength="102" x="5" y="84.9951">Administrador</text><ellipse cx="59" cy="15" fill="#FEFECE" filter="url(#f1ra2vrtewmrgp)" rx="8" ry="8" style="stroke:#A80036;stroke-width:2.0;"/><path d="M59,23 L59,50 M46,31 L72,31 M59,50 L46,65 M59,50 L72,65 " fill="none" filter="url(#f1ra2vrtewmrgp)" style="stroke:#A80036;stroke-width:2.0;"/><text fill="#000000" font-family="sans-serif" font-size="14" lengthAdjust="spacing" textLength="102" x="5" y="1242.7686">Administrador</text><ellipse cx="59" cy="1256.0703" fill="#FEFECE" filter="url(#f1ra2vrtewmrgp)" rx="8" ry="8" style="stroke:#A80036;stroke-width:2.0;"/><path d="M59,1264.0703 L59,1291.0703 M46,1272.0703 L72,1272.0703 M59,1291.0703 L46,1306.0703 M59,1291.0703 L72,1306.0703 " fill="none" filter="url(#f1ra2vrtewmrgp)" style="stroke:#A80036;stroke-width:2.0;"/><rect fill="#FEFECE" filter="url(#f1ra2vrtewmrgp)" height="30.2969" style="stroke:#A80036;stroke-width:1.5;" width="156" x="343" y="53"/><text fill="#000000" font-family="sans-serif" font-size="14" lengthAdjust="spacing" textLength="142" x="350" y="72.9951">:RegistarFarmaciaUI</text><rect fill="#FEFECE" filter="url(#f1ra2vrtewmrgp)" height="30.2969" style="stroke:#A80036;stroke-width:1.5;" width="156" x="343" y="1229.7734"/><text fill="#000000" font-family="sans-serif" font-size="14" lengthAdjust="spacing" textLength="142" x="350" y="1249.7686">:RegistarFarmaciaUI</text><rect fill="#FEFECE" filter="url(#f1ra2vrtewmrgp)" height="30.2969" style="stroke:#A80036;stroke-width:1.5;" width="216" x="820" y="53"/><text fill="#000000" font-family="sans-serif" font-size="14" lengthAdjust="spacing" textLength="202" x="827" y="72.9951">:RegistarFarmaciaController</text><rect fill="#FEFECE" filter="url(#f1ra2vrtewmrgp)" height="30.2969" style="stroke:#A80036;stroke-width:1.5;" width="216" x="820" y="1229.7734"/><text fill="#000000" font-family="sans-serif" font-size="14" lengthAdjust="spacing" textLength="202" x="827" y="1249.7686">:RegistarFarmaciaController</text><rect fill="#FEFECE" filter="url(#f1ra2vrtewmrgp)" height="30.2969" style="stroke:#A80036;stroke-width:1.5;" width="117" x="1050" y="53"/><text fill="#000000" font-family="sans-serif" font-size="14" lengthAdjust="spacing" textLength="103" x="1057" y="72.9951">:AplicacaoPOT</text><rect fill="#FEFECE" filter="url(#f1ra2vrtewmrgp)" height="30.2969" style="stroke:#A80036;stroke-width:1.5;" width="117" x="1050" y="1229.7734"/><text fill="#000000" font-family="sans-serif" font-size="14" lengthAdjust="spacing" textLength="103" x="1057" y="1249.7686">:AplicacaoPOT</text><rect fill="#FEFECE" filter="url(#f1ra2vrtewmrgp)" height="46.5938" style="stroke:#A80036;stroke-width:1.5;" width="112" x="1181" y="36.7031"/><text fill="#000000" font-family="sans-serif" font-size="14" lengthAdjust="spacing" textLength="33" x="1220.5" y="56.6982">app:</text><text fill="#000000" font-family="sans-serif" font-size="14" lengthAdjust="spacing" textLength="98" x="1188" y="72.9951">AplicacaoPOT</text><rect fill="#FEFECE" filter="url(#f1ra2vrtewmrgp)" height="46.5938" style="stroke:#A80036;stroke-width:1.5;" width="112" x="1181" y="1229.7734"/><text fill="#000000" font-family="sans-serif" font-size="14" lengthAdjust="spacing" textLength="33" x="1220.5" y="1249.7686">app:</text><text fill="#000000" font-family="sans-serif" font-size="14" lengthAdjust="spacing" textLength="98" x="1188" y="1266.0654">AplicacaoPOT</text><rect fill="#FEFECE" filter="url(#f1ra2vrtewmrgp)" height="30.2969" style="stroke:#A80036;stroke-width:1.5;" width="99" x="1307" y="53"/><text fill="#000000" font-family="sans-serif" font-size="14" lengthAdjust="spacing" textLength="85" x="1314" y="72.9951">FarmaciaDB</text><rect fill="#FEFECE" filter="url(#f1ra2vrtewmrgp)" height="30.2969" style="stroke:#A80036;stroke-width:1.5;" width="99" x="1307" y="1229.7734"/><text fill="#000000" font-family="sans-serif" font-size="14" lengthAdjust="spacing" textLength="85" x="1314" y="1249.7686">FarmaciaDB</text><rect fill="#FEFECE" filter="url(#f1ra2vrtewmrgp)" height="30.2969" style="stroke:#A80036;stroke-width:1.5;" width="84" x="1499.5" y="53"/><text fill="#000000" font-family="sans-serif" font-size="14" lengthAdjust="spacing" textLength="70" x="1506.5" y="72.9951">ParqueDB</text><rect fill="#FEFECE" filter="url(#f1ra2vrtewmrgp)" height="30.2969" style="stroke:#A80036;stroke-width:1.5;" width="84" x="1499.5" y="1229.7734"/><text fill="#000000" font-family="sans-serif" font-size="14" lengthAdjust="spacing" textLength="70" x="1506.5" y="1249.7686">ParqueDB</text><rect fill="#FEFECE" filter="url(#f1ra2vrtewmrgp)" height="30.2969" style="stroke:#A80036;stroke-width:1.5;" width="103" x="1674" y="53"/><text fill="#000000" font-family="sans-serif" font-size="14" lengthAdjust="spacing" textLength="89" x="1681" y="72.9951">EnderecoDB</text><rect fill="#FEFECE" filter="url(#f1ra2vrtewmrgp)" height="30.2969" style="stroke:#A80036;stroke-width:1.5;" width="103" x="1674" y="1229.7734"/><text fill="#000000" font-family="sans-serif" font-size="14" lengthAdjust="spacing" textLength="89" x="1681" y="1249.7686">EnderecoDB</text><rect fill="#FEFECE" filter="url(#f1ra2vrtewmrgp)" height="30.2969" style="stroke:#A80036;stroke-width:1.5;" width="117" x="1844" y="1229.7734"/><text fill="#000000" font-family="sans-serif" font-size="14" lengthAdjust="spacing" textLength="103" x="1851" y="1249.7686">farm:Farmacia</text><rect fill="#FEFECE" filter="url(#f1ra2vrtewmrgp)" height="30.2969" style="stroke:#A80036;stroke-width:1.5;" width="118" x="1975" y="1229.7734"/><text fill="#000000" font-family="sans-serif" font-size="14" lengthAdjust="spacing" textLength="104" x="1982" y="1249.7686">parque:Parque</text><rect fill="#FEFECE" filter="url(#f1ra2vrtewmrgp)" height="30.2969" style="stroke:#A80036;stroke-width:1.5;" width="114" x="2107" y="1229.7734"/><text fill="#000000" font-family="sans-serif" font-size="14" lengthAdjust="spacing" textLength="100" x="2114" y="1249.7686">end:Endereco</text><rect fill="#FFFFFF" filter="url(#f1ra2vrtewmrgp)" height="1114.4766" style="stroke:#A80036;stroke-width:1.0;" width="10" x="54" y="98.2969"/><rect fill="#FFFFFF" filter="url(#f1ra2vrtewmrgp)" height="59.3984" style="stroke:#A80036;stroke-width:1.0;" width="10" x="418" y="119.4297"/><rect fill="#FFFFFF" filter="url(#f1ra2vrtewmrgp)" height="577.2188" style="stroke:#A80036;stroke-width:1.0;" width="10" x="418" y="207.9609"/><rect fill="#FFFFFF" filter="url(#f1ra2vrtewmrgp)" height="398.4609" style="stroke:#A80036;stroke-width:1.0;" width="10" x="418" y="814.3125"/><rect fill="#FFFFFF" filter="url(#f1ra2vrtewmrgp)" height="518.9531" style="stroke:#A80036;stroke-width:1.0;" width="10" x="925" y="237.0938"/><rect fill="#FFFFFF" filter="url(#f1ra2vrtewmrgp)" height="333.1953" style="stroke:#A80036;stroke-width:1.0;" width="10" x="925" y="843.4453"/><rect fill="#FFFFFF" filter="url(#f1ra2vrtewmrgp)" height="30" style="stroke:#A80036;stroke-width:1.0;" width="10" x="1105.5" y="266.2266"/><rect fill="#FFFFFF" filter="url(#f1ra2vrtewmrgp)" height="30" style="stroke:#A80036;stroke-width:1.0;" width="10" x="1234" y="325.3594"/><rect fill="#FFFFFF" filter="url(#f1ra2vrtewmrgp)" height="29.1328" style="stroke:#A80036;stroke-width:1.0;" width="10" x="1353.5" y="384.4922"/><rect fill="#FFFFFF" filter="url(#f1ra2vrtewmrgp)" height="30" style="stroke:#A80036;stroke-width:1.0;" width="10" x="1353.5" y="458.9219"/><rect fill="#FFFFFF" filter="url(#f1ra2vrtewmrgp)" height="77.2656" style="stroke:#A80036;stroke-width:1.0;" width="10" x="1353.5" y="872.5781"/><rect fill="#FFFFFF" filter="url(#f1ra2vrtewmrgp)" height="29.1328" style="stroke:#A80036;stroke-width:1.0;" width="10" x="1538.5" y="651.6172"/><rect fill="#FFFFFF" filter="url(#f1ra2vrtewmrgp)" height="30" style="stroke:#A80036;stroke-width:1.0;" width="10" x="1538.5" y="726.0469"/><rect fill="#FFFFFF" filter="url(#f1ra2vrtewmrgp)" height="77.2656" style="stroke:#A80036;stroke-width:1.0;" width="10" x="1538.5" y="1099.375"/><rect fill="#FFFFFF" filter="url(#f1ra2vrtewmrgp)" height="29.1328" style="stroke:#A80036;stroke-width:1.0;" width="10" x="1722.5" y="518.0547"/><rect fill="#FFFFFF" filter="url(#f1ra2vrtewmrgp)" height="30" style="stroke:#A80036;stroke-width:1.0;" width="10" x="1722.5" y="592.4844"/><rect fill="#FFFFFF" filter="url(#f1ra2vrtewmrgp)" height="77.2656" style="stroke:#A80036;stroke-width:1.0;" width="10" x="1722.5" y="985.9766"/><polygon fill="#A80036" points="406,115.4297,416,119.4297,406,123.4297,410,119.4297" style="stroke:#A80036;stroke-width:1.0;"/><line style="stroke:#A80036;stroke-width:1.0;" x1="64" x2="412" y1="119.4297" y2="119.4297"/><text fill="#000000" font-family="sans-serif" font-size="13" font-weight="bold" lengthAdjust="spacing" textLength="9" x="71" y="114.3638">1</text><text fill="#000000" font-family="sans-serif" font-size="13" lengthAdjust="spacing" textLength="244" x="84" y="114.3638">inicia a criação de uma nova farmácia</text><polygon fill="#A80036" points="75,174.8281,65,178.8281,75,182.8281,71,178.8281" style="stroke:#A80036;stroke-width:1.0;"/><line style="stroke:#A80036;stroke-width:1.0;stroke-dasharray:2.0,2.0;" x1="69" x2="422" y1="178.8281" y2="178.8281"/><text fill="#000000" font-family="sans-serif" font-size="13" font-weight="bold" lengthAdjust="spacing" textLength="9" x="81" y="158.6294">2</text><text fill="#000000" font-family="sans-serif" font-size="13" lengthAdjust="spacing" textLength="317" x="94" y="143.4966">solicita dados da farmácia (NIF), dados do parque</text><text fill="#000000" font-family="sans-serif" font-size="13" lengthAdjust="spacing" textLength="234" x="98" y="158.6294">(morada, latitude, longitude, altitude</text><text fill="#000000" font-family="sans-serif" font-size="13" lengthAdjust="spacing" textLength="243" x="94" y="173.7622">e limite(número máximo de scooters)</text><polygon fill="#A80036" points="406,203.9609,416,207.9609,406,211.9609,410,207.9609" style="stroke:#A80036;stroke-width:1.0;"/><line style="stroke:#A80036;stroke-width:1.0;" x1="64" x2="412" y1="207.9609" y2="207.9609"/><text fill="#000000" font-family="sans-serif" font-size="13" font-weight="bold" lengthAdjust="spacing" textLength="8" x="71" y="202.895">3</text><text fill="#000000" font-family="sans-serif" font-size="13" lengthAdjust="spacing" textLength="185" x="83" y="202.895">introduz os dados solicitados</text><polygon fill="#A80036" points="913,233.0938,923,237.0938,913,241.0938,917,237.0938" style="stroke:#A80036;stroke-width:1.0;"/><line style="stroke:#A80036;stroke-width:1.0;" x1="428" x2="919" y1="237.0938" y2="237.0938"/><text fill="#000000" font-family="sans-serif" font-size="13" font-weight="bold" lengthAdjust="spacing" textLength="9" x="435" y="232.0278">4</text><text fill="#000000" font-family="sans-serif" font-size="13" lengthAdjust="spacing" textLength="465" x="448" y="232.0278">novaFarmacia(NIF, morada, latitude, longitude, altitude, numeroMaximo)</text><polygon fill="#A80036" points="1093.5,262.2266,1103.5,266.2266,1093.5,270.2266,1097.5,266.2266" style="stroke:#A80036;stroke-width:1.0;"/><line style="stroke:#A80036;stroke-width:1.0;" x1="935" x2="1099.5" y1="266.2266" y2="266.2266"/><text fill="#000000" font-family="sans-serif" font-size="13" font-weight="bold" lengthAdjust="spacing" textLength="9" x="942" y="261.1606">5</text><text fill="#000000" font-family="sans-serif" font-size="13" lengthAdjust="spacing" textLength="127" x="955" y="261.1606">app = getInstance()</text><polygon fill="#A80036" points="1222,321.3594,1232,325.3594,1222,329.3594,1226,325.3594" style="stroke:#A80036;stroke-width:1.0;"/><line style="stroke:#A80036;stroke-width:1.0;" x1="935" x2="1228" y1="325.3594" y2="325.3594"/><text fill="#000000" font-family="sans-serif" font-size="13" font-weight="bold" lengthAdjust="spacing" textLength="9" x="942" y="320.2935">6</text><text fill="#000000" font-family="sans-serif" font-size="13" lengthAdjust="spacing" textLength="173" x="955" y="320.2935">sessao = getSessaoAtual()</text><polygon fill="#A80036" points="1341.5,380.4922,1351.5,384.4922,1341.5,388.4922,1345.5,384.4922" style="stroke:#A80036;stroke-width:1.0;"/><line style="stroke:#A80036;stroke-width:1.0;" x1="935" x2="1347.5" y1="384.4922" y2="384.4922"/><text fill="#000000" font-family="sans-serif" font-size="13" font-weight="bold" lengthAdjust="spacing" textLength="9" x="942" y="379.4263">7</text><text fill="#000000" font-family="sans-serif" font-size="13" lengthAdjust="spacing" textLength="161" x="955" y="379.4263">farm=novaFarmacia(NIF)</text><polygon fill="#A80036" points="1832,409.625,1842,413.625,1832,417.625,1836,413.625" style="stroke:#A80036;stroke-width:1.0;"/><line style="stroke:#A80036;stroke-width:1.0;stroke-dasharray:2.0,2.0;" x1="1358.5" x2="1838" y1="413.625" y2="413.625"/><text fill="#000000" font-family="sans-serif" font-size="13" font-weight="bold" lengthAdjust="spacing" textLength="9" x="1365.5" y="408.5591">8</text><text fill="#000000" font-family="sans-serif" font-size="13" lengthAdjust="spacing" textLength="70" x="1378.5" y="408.5591">create(NIF)</text><rect fill="#FEFECE" filter="url(#f1ra2vrtewmrgp)" height="30.2969" style="stroke:#A80036;stroke-width:1.5;" width="117" x="1844" y="392.4922"/><text fill="#000000" font-family="sans-serif" font-size="14" lengthAdjust="spacing" textLength="103" x="1851" y="412.4873">farm:Farmacia</text><polygon fill="#A80036" points="1341.5,454.9219,1351.5,458.9219,1341.5,462.9219,1345.5,458.9219" style="stroke:#A80036;stroke-width:1.0;"/><line style="stroke:#A80036;stroke-width:1.0;" x1="935" x2="1347.5" y1="458.9219" y2="458.9219"/><text fill="#000000" font-family="sans-serif" font-size="13" font-weight="bold" lengthAdjust="spacing" textLength="9" x="942" y="453.856">9</text><text fill="#000000" font-family="sans-serif" font-size="13" lengthAdjust="spacing" textLength="138" x="955" y="453.856">validaFarmacia(farm)</text><polygon fill="#A80036" points="1710.5,514.0547,1720.5,518.0547,1710.5,522.0547,1714.5,518.0547" style="stroke:#A80036;stroke-width:1.0;"/><line style="stroke:#A80036;stroke-width:1.0;" x1="935" x2="1716.5" y1="518.0547" y2="518.0547"/><text fill="#000000" font-family="sans-serif" font-size="13" font-weight="bold" lengthAdjust="spacing" textLength="19" x="942" y="512.9888">10</text><text fill="#000000" font-family="sans-serif" font-size="13" lengthAdjust="spacing" textLength="357" x="965" y="512.9888">end=novoEndereco(morada, latitude, logitude, altitude)</text><polygon fill="#A80036" points="2095,543.1875,2105,547.1875,2095,551.1875,2099,547.1875" style="stroke:#A80036;stroke-width:1.0;"/><line style="stroke:#A80036;stroke-width:1.0;stroke-dasharray:2.0,2.0;" x1="1727.5" x2="2101" y1="547.1875" y2="547.1875"/><text fill="#000000" font-family="sans-serif" font-size="13" font-weight="bold" lengthAdjust="spacing" textLength="18" x="1734.5" y="542.1216">11</text><text fill="#000000" font-family="sans-serif" font-size="13" lengthAdjust="spacing" textLength="272" x="1756.5" y="542.1216">create(morada, latitude, logitude, altitude)</text><rect fill="#FEFECE" filter="url(#f1ra2vrtewmrgp)" height="30.2969" style="stroke:#A80036;stroke-width:1.5;" width="114" x="2107" y="526.0547"/><text fill="#000000" font-family="sans-serif" font-size="14" lengthAdjust="spacing" textLength="100" x="2114" y="546.0498">end:Endereco</text><polygon fill="#A80036" points="1710.5,588.4844,1720.5,592.4844,1710.5,596.4844,1714.5,592.4844" style="stroke:#A80036;stroke-width:1.0;"/><line style="stroke:#A80036;stroke-width:1.0;" x1="935" x2="1716.5" y1="592.4844" y2="592.4844"/><text fill="#000000" font-family="sans-serif" font-size="13" font-weight="bold" lengthAdjust="spacing" textLength="18" x="942" y="587.4185">12</text><text fill="#000000" font-family="sans-serif" font-size="13" lengthAdjust="spacing" textLength="132" x="964" y="587.4185">validaEndereco(end)</text><polygon fill="#A80036" points="1526.5,647.6172,1536.5,651.6172,1526.5,655.6172,1530.5,651.6172" style="stroke:#A80036;stroke-width:1.0;"/><line style="stroke:#A80036;stroke-width:1.0;" x1="935" x2="1532.5" y1="651.6172" y2="651.6172"/><text fill="#000000" font-family="sans-serif" font-size="13" font-weight="bold" lengthAdjust="spacing" textLength="17" x="942" y="646.5513">13</text><text fill="#000000" font-family="sans-serif" font-size="13" lengthAdjust="spacing" textLength="301" x="963" y="646.5513">parque=novoParque(NIF, end, numeroMaximo)</text><polygon fill="#A80036" points="1963,676.75,1973,680.75,1963,684.75,1967,680.75" style="stroke:#A80036;stroke-width:1.0;"/><line style="stroke:#A80036;stroke-width:1.0;stroke-dasharray:2.0,2.0;" x1="1543.5" x2="1969" y1="680.75" y2="680.75"/><text fill="#000000" font-family="sans-serif" font-size="13" font-weight="bold" lengthAdjust="spacing" textLength="18" x="1550.5" y="675.6841">14</text><text fill="#000000" font-family="sans-serif" font-size="13" lengthAdjust="spacing" textLength="210" x="1572.5" y="675.6841">create(NIF, end, numeroMaximo)</text><rect fill="#FEFECE" filter="url(#f1ra2vrtewmrgp)" height="30.2969" style="stroke:#A80036;stroke-width:1.5;" width="118" x="1975" y="659.6172"/><text fill="#000000" font-family="sans-serif" font-size="14" lengthAdjust="spacing" textLength="104" x="1982" y="679.6123">parque:Parque</text><polygon fill="#A80036" points="1526.5,722.0469,1536.5,726.0469,1526.5,730.0469,1530.5,726.0469" style="stroke:#A80036;stroke-width:1.0;"/><line style="stroke:#A80036;stroke-width:1.0;" x1="935" x2="1532.5" y1="726.0469" y2="726.0469"/><text fill="#000000" font-family="sans-serif" font-size="13" font-weight="bold" lengthAdjust="spacing" textLength="18" x="942" y="720.981">15</text><text fill="#000000" font-family="sans-serif" font-size="13" lengthAdjust="spacing" textLength="138" x="964" y="720.981">validaParque(parque)</text><polygon fill="#A80036" points="75,781.1797,65,785.1797,75,789.1797,71,785.1797" style="stroke:#A80036;stroke-width:1.0;"/><line style="stroke:#A80036;stroke-width:1.0;stroke-dasharray:2.0,2.0;" x1="69" x2="422" y1="785.1797" y2="785.1797"/><text fill="#000000" font-family="sans-serif" font-size="13" font-weight="bold" lengthAdjust="spacing" textLength="18" x="81" y="780.1138">16</text><text fill="#000000" font-family="sans-serif" font-size="13" lengthAdjust="spacing" textLength="252" x="103" y="780.1138">apresenta dados e solicita confirmação</text><polygon fill="#A80036" points="406,810.3125,416,814.3125,406,818.3125,410,814.3125" style="stroke:#A80036;stroke-width:1.0;"/><line style="stroke:#A80036;stroke-width:1.0;" x1="64" x2="412" y1="814.3125" y2="814.3125"/><text fill="#000000" font-family="sans-serif" font-size="13" font-weight="bold" lengthAdjust="spacing" textLength="18" x="71" y="809.2466">17</text><text fill="#000000" font-family="sans-serif" font-size="13" lengthAdjust="spacing" textLength="57" x="93" y="809.2466">confirma</text><polygon fill="#A80036" points="913,839.4453,923,843.4453,913,847.4453,917,843.4453" style="stroke:#A80036;stroke-width:1.0;"/><line style="stroke:#A80036;stroke-width:1.0;" x1="428" x2="919" y1="843.4453" y2="843.4453"/><text fill="#000000" font-family="sans-serif" font-size="13" font-weight="bold" lengthAdjust="spacing" textLength="18" x="435" y="838.3794">18</text><text fill="#000000" font-family="sans-serif" font-size="13" lengthAdjust="spacing" textLength="113" x="457" y="838.3794">registaFarmacia()</text><polygon fill="#A80036" points="1341.5,868.5781,1351.5,872.5781,1341.5,876.5781,1345.5,872.5781" style="stroke:#A80036;stroke-width:1.0;"/><line style="stroke:#A80036;stroke-width:1.0;" x1="935" x2="1347.5" y1="872.5781" y2="872.5781"/><text fill="#000000" font-family="sans-serif" font-size="13" font-weight="bold" lengthAdjust="spacing" textLength="18" x="942" y="867.5122">19</text><text fill="#000000" font-family="sans-serif" font-size="13" lengthAdjust="spacing" textLength="144" x="964" y="867.5122">registaFarmacia(farm)</text><line style="stroke:#A80036;stroke-width:1.0;" x1="1363.5" x2="1405.5" y1="901.7109" y2="901.7109"/><line style="stroke:#A80036;stroke-width:1.0;" x1="1405.5" x2="1405.5" y1="901.7109" y2="914.7109"/><line style="stroke:#A80036;stroke-width:1.0;" x1="1364.5" x2="1405.5" y1="914.7109" y2="914.7109"/><polygon fill="#A80036" points="1374.5,910.7109,1364.5,914.7109,1374.5,918.7109,1370.5,914.7109" style="stroke:#A80036;stroke-width:1.0;"/><text fill="#000000" font-family="sans-serif" font-size="13" font-weight="bold" lengthAdjust="spacing" textLength="19" x="1370.5" y="896.645">20</text><text fill="#000000" font-family="sans-serif" font-size="13" lengthAdjust="spacing" textLength="138" x="1393.5" y="896.645">validaFarmacia(farm)</text><line style="stroke:#A80036;stroke-width:1.0;" x1="1363.5" x2="1405.5" y1="948.8438" y2="948.8438"/><line style="stroke:#A80036;stroke-width:1.0;" x1="1405.5" x2="1405.5" y1="948.8438" y2="961.8438"/><line style="stroke:#A80036;stroke-width:1.0;" x1="1358.5" x2="1405.5" y1="961.8438" y2="961.8438"/><polygon fill="#A80036" points="1368.5,957.8438,1358.5,961.8438,1368.5,965.8438,1364.5,961.8438" style="stroke:#A80036;stroke-width:1.0;"/><text fill="#000000" font-family="sans-serif" font-size="13" font-weight="bold" lengthAdjust="spacing" textLength="18" x="1370.5" y="943.7778">21</text><text fill="#000000" font-family="sans-serif" font-size="13" lengthAdjust="spacing" textLength="124" x="1392.5" y="943.7778">addFarmacia(farm)</text><polygon fill="#A80036" points="1710.5,981.9766,1720.5,985.9766,1710.5,989.9766,1714.5,985.9766" style="stroke:#A80036;stroke-width:1.0;"/><line style="stroke:#A80036;stroke-width:1.0;" x1="935" x2="1716.5" y1="985.9766" y2="985.9766"/><text fill="#000000" font-family="sans-serif" font-size="13" font-weight="bold" lengthAdjust="spacing" textLength="18" x="942" y="980.9106">22</text><text fill="#000000" font-family="sans-serif" font-size="13" lengthAdjust="spacing" textLength="138" x="964" y="980.9106">registaEndereco(end)</text><line style="stroke:#A80036;stroke-width:1.0;" x1="1732.5" x2="1774.5" y1="1015.1094" y2="1015.1094"/><line style="stroke:#A80036;stroke-width:1.0;" x1="1774.5" x2="1774.5" y1="1015.1094" y2="1028.1094"/><line style="stroke:#A80036;stroke-width:1.0;" x1="1733.5" x2="1774.5" y1="1028.1094" y2="1028.1094"/><polygon fill="#A80036" points="1743.5,1024.1094,1733.5,1028.1094,1743.5,1032.1094,1739.5,1028.1094" style="stroke:#A80036;stroke-width:1.0;"/><text fill="#000000" font-family="sans-serif" font-size="13" font-weight="bold" lengthAdjust="spacing" textLength="17" x="1739.5" y="1010.0435">23</text><text fill="#000000" font-family="sans-serif" font-size="13" lengthAdjust="spacing" textLength="132" x="1760.5" y="1010.0435">validaEndereco(end)</text><line style="stroke:#A80036;stroke-width:1.0;" x1="1732.5" x2="1774.5" y1="1062.2422" y2="1062.2422"/><line style="stroke:#A80036;stroke-width:1.0;" x1="1774.5" x2="1774.5" y1="1062.2422" y2="1075.2422"/><line style="stroke:#A80036;stroke-width:1.0;" x1="1727.5" x2="1774.5" y1="1075.2422" y2="1075.2422"/><polygon fill="#A80036" points="1737.5,1071.2422,1727.5,1075.2422,1737.5,1079.2422,1733.5,1075.2422" style="stroke:#A80036;stroke-width:1.0;"/><text fill="#000000" font-family="sans-serif" font-size="13" font-weight="bold" lengthAdjust="spacing" textLength="18" x="1739.5" y="1057.1763">24</text><text fill="#000000" font-family="sans-serif" font-size="13" lengthAdjust="spacing" textLength="118" x="1761.5" y="1057.1763">addEndereco(end)</text><polygon fill="#A80036" points="1526.5,1095.375,1536.5,1099.375,1526.5,1103.375,1530.5,1099.375" style="stroke:#A80036;stroke-width:1.0;"/><line style="stroke:#A80036;stroke-width:1.0;" x1="935" x2="1532.5" y1="1099.375" y2="1099.375"/><text fill="#000000" font-family="sans-serif" font-size="13" font-weight="bold" lengthAdjust="spacing" textLength="18" x="942" y="1094.3091">25</text><text fill="#000000" font-family="sans-serif" font-size="13" lengthAdjust="spacing" textLength="144" x="964" y="1094.3091">registaParque(parque)</text><line style="stroke:#A80036;stroke-width:1.0;" x1="1548.5" x2="1590.5" y1="1128.5078" y2="1128.5078"/><line style="stroke:#A80036;stroke-width:1.0;" x1="1590.5" x2="1590.5" y1="1128.5078" y2="1141.5078"/><line style="stroke:#A80036;stroke-width:1.0;" x1="1549.5" x2="1590.5" y1="1141.5078" y2="1141.5078"/><polygon fill="#A80036" points="1559.5,1137.5078,1549.5,1141.5078,1559.5,1145.5078,1555.5,1141.5078" style="stroke:#A80036;stroke-width:1.0;"/><text fill="#000000" font-family="sans-serif" font-size="13" font-weight="bold" lengthAdjust="spacing" textLength="18" x="1555.5" y="1123.4419">26</text><text fill="#000000" font-family="sans-serif" font-size="13" lengthAdjust="spacing" textLength="138" x="1577.5" y="1123.4419">validaParque(parque)</text><line style="stroke:#A80036;stroke-width:1.0;" x1="1548.5" x2="1590.5" y1="1175.6406" y2="1175.6406"/><line style="stroke:#A80036;stroke-width:1.0;" x1="1590.5" x2="1590.5" y1="1175.6406" y2="1188.6406"/><line style="stroke:#A80036;stroke-width:1.0;" x1="1543.5" x2="1590.5" y1="1188.6406" y2="1188.6406"/><polygon fill="#A80036" points="1553.5,1184.6406,1543.5,1188.6406,1553.5,1192.6406,1549.5,1188.6406" style="stroke:#A80036;stroke-width:1.0;"/><text fill="#000000" font-family="sans-serif" font-size="13" font-weight="bold" lengthAdjust="spacing" textLength="18" x="1555.5" y="1170.5747">27</text><text fill="#000000" font-family="sans-serif" font-size="13" lengthAdjust="spacing" textLength="124" x="1577.5" y="1170.5747">addParque(parque)</text><polygon fill="#A80036" points="70,1208.7734,60,1212.7734,70,1216.7734,66,1212.7734" style="stroke:#A80036;stroke-width:1.0;"/><line style="stroke:#A80036;stroke-width:1.0;stroke-dasharray:2.0,2.0;" x1="64" x2="422" y1="1212.7734" y2="1212.7734"/><text fill="#000000" font-family="sans-serif" font-size="13" font-weight="bold" lengthAdjust="spacing" textLength="18" x="76" y="1207.7075">28</text><text fill="#000000" font-family="sans-serif" font-size="13" lengthAdjust="spacing" textLength="154" x="98" y="1207.7075">operação bem sucedida</text><!--MD5=[69199ec58d7c4f422fa7f94bcd43e6a9]
@startuml
autonumber
actor "Administrador" as ADM

participant ":RegistarFarmaciaUI" as UI
participant ":RegistarFarmaciaController" as CTRL
participant ":AplicacaoPOT" as _APP
participant "app:\nAplicacaoPOT" as APP
participant "FarmaciaDB" as DB
participant "ParqueDB" as PDB
participant "EnderecoDB" as EDB
participant "farm:Farmacia" as FARMACIA
participant "parque:Parque" as PQ
participant "end:Endereco" as END

activate ADM
ADM -> UI : inicia a criação de uma nova farmácia
activate UI
UI - -> ADM : solicita dados da farmácia (NIF), dados do parque\n (morada, latitude, longitude, altitude \ne limite(número máximo de scooters)
deactivate UI

ADM -> UI : introduz os dados solicitados
activate UI
UI -> CTRL : novaFarmacia(NIF, morada, latitude, longitude, altitude, numeroMaximo)
activate CTRL

CTRL -> _APP : app = getInstance()
activate _APP
deactivate _APP
CTRL -> APP : sessao = getSessaoAtual()
activate APP
deactivate APP

CTRL -> DB: farm=novaFarmacia(NIF)
activate DB
DB - -> FARMACIA ** : create(NIF)
deactivate DB

CTRL -> DB: validaFarmacia(farm)
activate DB
deactivate DB

CTRL -> EDB: end=novoEndereco(morada, latitude, logitude, altitude)
activate EDB
EDB - -> END ** : create(morada, latitude, logitude, altitude)
deactivate EDB

CTRL -> EDB: validaEndereco(end)
activate EDB
deactivate EDB

CTRL -> PDB: parque=novoParque(NIF, end, numeroMaximo)
activate PDB
PDB - -> PQ ** : create(NIF, end, numeroMaximo)
deactivate PDB

CTRL -> PDB: validaParque(parque)
activate PDB
deactivate PDB

deactivate CTRL
UI - -> ADM : apresenta dados e solicita confirmação
deactivate UI

ADM -> UI : confirma
activate UI

UI -> CTRL: registaFarmacia()
activate CTRL
CTRL ->DB: registaFarmacia(farm)
activate DB
DB -> DB: validaFarmacia(farm)
DB -> DB: addFarmacia(farm)

deactivate DB

CTRL ->EDB: registaEndereco(end)
activate EDB
EDB -> EDB: validaEndereco(end)
EDB -> EDB: addEndereco(end)

deactivate EDB

CTRL ->PDB: registaParque(parque)
activate PDB
PDB -> PDB: validaParque(parque)
PDB -> PDB: addParque(parque)

deactivate PDB

deactivate CTRL

UI - -> ADM : operação bem sucedida
deactivate UI

deactivate ADM
@enduml

PlantUML version 1.2020.27beta8(Unknown compile time)
(GPL source distribution)
Java Runtime: Java(TM) SE Runtime Environment
JVM: Java HotSpot(TM) 64-Bit Server VM
Default Encoding: UTF-8
Language: en
Country: US
--></g></svg>