<?xml version="1.0" encoding="UTF-8" standalone="no"?><svg xmlns="http://www.w3.org/2000/svg" xmlns:xlink="http://www.w3.org/1999/xlink" contentScriptType="application/ecmascript" contentStyleType="text/css" height="382px" preserveAspectRatio="none" style="width:430px;height:382px;" version="1.1" viewBox="0 0 430 382" width="430px" zoomAndPan="magnify"><defs><filter height="300%" id="f2tf4p77p38c6" width="300%" x="-1" y="-1"><feGaussianBlur result="blurOut" stdDeviation="2.0"/><feColorMatrix in="blurOut" result="blurOut2" type="matrix" values="0 0 0 0 0 0 0 0 0 0 0 0 0 0 0 0 0 0 .4 0"/><feOffset dx="4.0" dy="4.0" in="blurOut2" result="blurOut3"/><feBlend in="SourceGraphic" in2="blurOut3" mode="normal"/></filter></defs><g><rect fill="#FFFFFF" filter="url(#f2tf4p77p38c6)" height="181.9297" style="stroke:#A80036;stroke-width:1.0;" width="10" x="49" y="98.2969"/><rect fill="#FFFFFF" filter="url(#f2tf4p77p38c6)" height="44.2656" style="stroke:#A80036;stroke-width:1.0;" width="10" x="376" y="119.4297"/><rect fill="#FFFFFF" filter="url(#f2tf4p77p38c6)" height="29.1328" style="stroke:#A80036;stroke-width:1.0;" width="10" x="376" y="192.8281"/><rect fill="#FFFFFF" filter="url(#f2tf4p77p38c6)" height="29.1328" style="stroke:#A80036;stroke-width:1.0;" width="10" x="376" y="251.0938"/><line style="stroke:#A80036;stroke-width:1.0;stroke-dasharray:5.0,5.0;" x1="54" x2="54" y1="88.2969" y2="298.2266"/><line style="stroke:#A80036;stroke-width:1.0;stroke-dasharray:5.0,5.0;" x1="381" x2="381" y1="88.2969" y2="298.2266"/><text fill="#000000" font-family="sans-serif" font-size="14" lengthAdjust="spacingAndGlyphs" textLength="92" x="5" y="84.9951">Admnistrador</text><ellipse cx="54" cy="15" fill="#FEFECE" filter="url(#f2tf4p77p38c6)" rx="8" ry="8" style="stroke:#A80036;stroke-width:2.0;"/><path d="M54,23 L54,50 M41,31 L67,31 M54,50 L41,65 M54,50 L67,65 " fill="none" filter="url(#f2tf4p77p38c6)" style="stroke:#A80036;stroke-width:2.0;"/><text fill="#000000" font-family="sans-serif" font-size="14" lengthAdjust="spacingAndGlyphs" textLength="92" x="5" y="310.2217">Admnistrador</text><ellipse cx="54" cy="323.5234" fill="#FEFECE" filter="url(#f2tf4p77p38c6)" rx="8" ry="8" style="stroke:#A80036;stroke-width:2.0;"/><path d="M54,331.5234 L54,358.5234 M41,339.5234 L67,339.5234 M54,358.5234 L41,373.5234 M54,358.5234 L67,373.5234 " fill="none" filter="url(#f2tf4p77p38c6)" style="stroke:#A80036;stroke-width:2.0;"/><rect fill="#FEFECE" filter="url(#f2tf4p77p38c6)" height="30.2969" style="stroke:#A80036;stroke-width:1.5;" width="74" x="342" y="53"/><text fill="#000000" font-family="sans-serif" font-size="14" lengthAdjust="spacingAndGlyphs" textLength="60" x="349" y="72.9951">:Sistema</text><rect fill="#FEFECE" filter="url(#f2tf4p77p38c6)" height="30.2969" style="stroke:#A80036;stroke-width:1.5;" width="74" x="342" y="297.2266"/><text fill="#000000" font-family="sans-serif" font-size="14" lengthAdjust="spacingAndGlyphs" textLength="60" x="349" y="317.2217">:Sistema</text><rect fill="#FFFFFF" filter="url(#f2tf4p77p38c6)" height="181.9297" style="stroke:#A80036;stroke-width:1.0;" width="10" x="49" y="98.2969"/><rect fill="#FFFFFF" filter="url(#f2tf4p77p38c6)" height="44.2656" style="stroke:#A80036;stroke-width:1.0;" width="10" x="376" y="119.4297"/><rect fill="#FFFFFF" filter="url(#f2tf4p77p38c6)" height="29.1328" style="stroke:#A80036;stroke-width:1.0;" width="10" x="376" y="192.8281"/><rect fill="#FFFFFF" filter="url(#f2tf4p77p38c6)" height="29.1328" style="stroke:#A80036;stroke-width:1.0;" width="10" x="376" y="251.0938"/><polygon fill="#A80036" points="364,115.4297,374,119.4297,364,123.4297,368,119.4297" style="stroke:#A80036;stroke-width:1.0;"/><line style="stroke:#A80036;stroke-width:1.0;" x1="59" x2="370" y1="119.4297" y2="119.4297"/><text fill="#000000" font-family="sans-serif" font-size="13" font-weight="bold" lengthAdjust="spacingAndGlyphs" textLength="9" x="66" y="114.3638">1</text><text fill="#000000" font-family="sans-serif" font-size="13" lengthAdjust="spacingAndGlyphs" textLength="218" x="79" y="114.3638">Pretende criar uma nova farmácia</text><polygon fill="#A80036" points="70,159.6953,60,163.6953,70,167.6953,66,163.6953" style="stroke:#A80036;stroke-width:1.0;"/><line style="stroke:#A80036;stroke-width:1.0;stroke-dasharray:2.0,2.0;" x1="64" x2="380" y1="163.6953" y2="163.6953"/><text fill="#000000" font-family="sans-serif" font-size="13" font-weight="bold" lengthAdjust="spacingAndGlyphs" textLength="9" x="76" y="151.063">2</text><text fill="#000000" font-family="sans-serif" font-size="13" lengthAdjust="spacingAndGlyphs" textLength="252" x="89" y="143.4966">solicita dados da farmácia (NIF) e limite</text><text fill="#000000" font-family="sans-serif" font-size="13" lengthAdjust="spacingAndGlyphs" textLength="280" x="89" y="158.6294">máximo de scooters no parque da farmácia</text><polygon fill="#A80036" points="364,188.8281,374,192.8281,364,196.8281,368,192.8281" style="stroke:#A80036;stroke-width:1.0;"/><line style="stroke:#A80036;stroke-width:1.0;" x1="59" x2="370" y1="192.8281" y2="192.8281"/><text fill="#000000" font-family="sans-serif" font-size="13" font-weight="bold" lengthAdjust="spacingAndGlyphs" textLength="9" x="66" y="187.7622">3</text><text fill="#000000" font-family="sans-serif" font-size="13" lengthAdjust="spacingAndGlyphs" textLength="185" x="79" y="187.7622">introduz os dados solicitados</text><polygon fill="#A80036" points="70,217.9609,60,221.9609,70,225.9609,66,221.9609" style="stroke:#A80036;stroke-width:1.0;"/><line style="stroke:#A80036;stroke-width:1.0;stroke-dasharray:2.0,2.0;" x1="64" x2="380" y1="221.9609" y2="221.9609"/><text fill="#000000" font-family="sans-serif" font-size="13" font-weight="bold" lengthAdjust="spacingAndGlyphs" textLength="9" x="76" y="216.895">4</text><text fill="#000000" font-family="sans-serif" font-size="13" lengthAdjust="spacingAndGlyphs" textLength="251" x="89" y="216.895">apresenta dados e solicita confirmação</text><polygon fill="#A80036" points="364,247.0938,374,251.0938,364,255.0938,368,251.0938" style="stroke:#A80036;stroke-width:1.0;"/><line style="stroke:#A80036;stroke-width:1.0;" x1="59" x2="370" y1="251.0938" y2="251.0938"/><text fill="#000000" font-family="sans-serif" font-size="13" font-weight="bold" lengthAdjust="spacingAndGlyphs" textLength="9" x="66" y="246.0278">5</text><text fill="#000000" font-family="sans-serif" font-size="13" lengthAdjust="spacingAndGlyphs" textLength="56" x="79" y="246.0278">confirma</text><polygon fill="#A80036" points="65,276.2266,55,280.2266,65,284.2266,61,280.2266" style="stroke:#A80036;stroke-width:1.0;"/><line style="stroke:#A80036;stroke-width:1.0;stroke-dasharray:2.0,2.0;" x1="59" x2="380" y1="280.2266" y2="280.2266"/><text fill="#000000" font-family="sans-serif" font-size="13" font-weight="bold" lengthAdjust="spacingAndGlyphs" textLength="9" x="71" y="275.1606">6</text><text fill="#000000" font-family="sans-serif" font-size="13" lengthAdjust="spacingAndGlyphs" textLength="154" x="84" y="275.1606">operação bem sucedida</text><!--MD5=[7d175488c7fc4bedaddca064ff2b3d2d]
@startuml
autonumber
actor "Admnistrador" as ADM

activate ADM
ADM -> ":Sistema" : Pretende criar uma nova farmácia
activate ":Sistema"
":Sistema" - -> ADM : solicita dados da farmácia (NIF) e limite \nmáximo de scooters no parque da farmácia
deactivate ":Sistema"

ADM -> ":Sistema" : introduz os dados solicitados
activate ":Sistema"
":Sistema" - -> ADM : apresenta dados e solicita confirmação
deactivate ":Sistema"

ADM -> ":Sistema" : confirma
activate ":Sistema"
":Sistema" - -> ADM : operação bem sucedida
deactivate ":Sistema"

deactivate ADM
@enduml

PlantUML version 1.2020.22(Sun Dec 06 09:36:27 UTC 2020)
(GPL source distribution)
Java Runtime: OpenJDK Runtime Environment
JVM: OpenJDK 64-Bit Server VM
Default Encoding: UTF-8
Language: en
Country: US
--></g></svg>