<?xml version="1.0" encoding="UTF-8" standalone="no"?><svg xmlns="http://www.w3.org/2000/svg" xmlns:xlink="http://www.w3.org/1999/xlink" contentScriptType="application/ecmascript" contentStyleType="text/css" height="397px" preserveAspectRatio="none" style="width:519px;height:397px;" version="1.1" viewBox="0 0 519 397" width="519px" zoomAndPan="magnify"><defs><filter height="300%" id="f1afvldtomuxha" width="300%" x="-1" y="-1"><feGaussianBlur result="blurOut" stdDeviation="2.0"/><feColorMatrix in="blurOut" result="blurOut2" type="matrix" values="0 0 0 0 0 0 0 0 0 0 0 0 0 0 0 0 0 0 .4 0"/><feOffset dx="4.0" dy="4.0" in="blurOut2" result="blurOut3"/><feBlend in="SourceGraphic" in2="blurOut3" mode="normal"/></filter></defs><g><rect fill="#FFFFFF" filter="url(#f1afvldtomuxha)" height="197.0625" style="stroke:#A80036;stroke-width:1.0;" width="10" x="54" y="98.2969"/><rect fill="#FFFFFF" filter="url(#f1afvldtomuxha)" height="59.3984" style="stroke:#A80036;stroke-width:1.0;" width="10" x="464" y="119.4297"/><rect fill="#FFFFFF" filter="url(#f1afvldtomuxha)" height="29.1328" style="stroke:#A80036;stroke-width:1.0;" width="10" x="464" y="207.9609"/><rect fill="#FFFFFF" filter="url(#f1afvldtomuxha)" height="29.1328" style="stroke:#A80036;stroke-width:1.0;" width="10" x="464" y="266.2266"/><line style="stroke:#A80036;stroke-width:1.0;stroke-dasharray:5.0,5.0;" x1="59" x2="59" y1="88.2969" y2="313.3594"/><line style="stroke:#A80036;stroke-width:1.0;stroke-dasharray:5.0,5.0;" x1="468.5" x2="468.5" y1="88.2969" y2="313.3594"/><text fill="#000000" font-family="sans-serif" font-size="14" lengthAdjust="spacing" textLength="102" x="5" y="84.9951">Administrador</text><ellipse cx="59" cy="15" fill="#FEFECE" filter="url(#f1afvldtomuxha)" rx="8" ry="8" style="stroke:#A80036;stroke-width:2.0;"/><path d="M59,23 L59,50 M46,31 L72,31 M59,50 L46,65 M59,50 L72,65 " fill="none" filter="url(#f1afvldtomuxha)" style="stroke:#A80036;stroke-width:2.0;"/><text fill="#000000" font-family="sans-serif" font-size="14" lengthAdjust="spacing" textLength="102" x="5" y="325.3545">Administrador</text><ellipse cx="59" cy="338.6563" fill="#FEFECE" filter="url(#f1afvldtomuxha)" rx="8" ry="8" style="stroke:#A80036;stroke-width:2.0;"/><path d="M59,346.6563 L59,373.6563 M46,354.6563 L72,354.6563 M59,373.6563 L46,388.6563 M59,373.6563 L72,388.6563 " fill="none" filter="url(#f1afvldtomuxha)" style="stroke:#A80036;stroke-width:2.0;"/><rect fill="#FEFECE" filter="url(#f1afvldtomuxha)" height="30.2969" style="stroke:#A80036;stroke-width:1.5;" width="77" x="428.5" y="53"/><text fill="#000000" font-family="sans-serif" font-size="14" lengthAdjust="spacing" textLength="63" x="435.5" y="72.9951">:Sistema</text><rect fill="#FEFECE" filter="url(#f1afvldtomuxha)" height="30.2969" style="stroke:#A80036;stroke-width:1.5;" width="77" x="428.5" y="312.3594"/><text fill="#000000" font-family="sans-serif" font-size="14" lengthAdjust="spacing" textLength="63" x="435.5" y="332.3545">:Sistema</text><rect fill="#FFFFFF" filter="url(#f1afvldtomuxha)" height="197.0625" style="stroke:#A80036;stroke-width:1.0;" width="10" x="54" y="98.2969"/><rect fill="#FFFFFF" filter="url(#f1afvldtomuxha)" height="59.3984" style="stroke:#A80036;stroke-width:1.0;" width="10" x="464" y="119.4297"/><rect fill="#FFFFFF" filter="url(#f1afvldtomuxha)" height="29.1328" style="stroke:#A80036;stroke-width:1.0;" width="10" x="464" y="207.9609"/><rect fill="#FFFFFF" filter="url(#f1afvldtomuxha)" height="29.1328" style="stroke:#A80036;stroke-width:1.0;" width="10" x="464" y="266.2266"/><polygon fill="#A80036" points="452,115.4297,462,119.4297,452,123.4297,456,119.4297" style="stroke:#A80036;stroke-width:1.0;"/><line style="stroke:#A80036;stroke-width:1.0;" x1="64" x2="458" y1="119.4297" y2="119.4297"/><text fill="#000000" font-family="sans-serif" font-size="13" font-weight="bold" lengthAdjust="spacing" textLength="9" x="71" y="114.3638">1</text><text fill="#000000" font-family="sans-serif" font-size="13" lengthAdjust="spacing" textLength="244" x="84" y="114.3638">inicia a criação de uma nova farmácia</text><polygon fill="#A80036" points="75,174.8281,65,178.8281,75,182.8281,71,178.8281" style="stroke:#A80036;stroke-width:1.0;"/><line style="stroke:#A80036;stroke-width:1.0;stroke-dasharray:2.0,2.0;" x1="69" x2="468" y1="178.8281" y2="178.8281"/><text fill="#000000" font-family="sans-serif" font-size="13" font-weight="bold" lengthAdjust="spacing" textLength="9" x="81" y="158.6294">2</text><text fill="#000000" font-family="sans-serif" font-size="13" lengthAdjust="spacing" textLength="317" x="94" y="143.4966">solicita dados da farmácia (NIF), dados do parque</text><text fill="#000000" font-family="sans-serif" font-size="13" lengthAdjust="spacing" textLength="355" x="98" y="158.6294">(NIF da farmácia, morada, latitude, longitude e altitude)</text><text fill="#000000" font-family="sans-serif" font-size="13" lengthAdjust="spacing" textLength="256" x="94" y="173.7622">e número máximo de scooters elétricas</text><polygon fill="#A80036" points="452,203.9609,462,207.9609,452,211.9609,456,207.9609" style="stroke:#A80036;stroke-width:1.0;"/><line style="stroke:#A80036;stroke-width:1.0;" x1="64" x2="458" y1="207.9609" y2="207.9609"/><text fill="#000000" font-family="sans-serif" font-size="13" font-weight="bold" lengthAdjust="spacing" textLength="8" x="71" y="202.895">3</text><text fill="#000000" font-family="sans-serif" font-size="13" lengthAdjust="spacing" textLength="185" x="83" y="202.895">introduz os dados solicitados</text><polygon fill="#A80036" points="75,233.0938,65,237.0938,75,241.0938,71,237.0938" style="stroke:#A80036;stroke-width:1.0;"/><line style="stroke:#A80036;stroke-width:1.0;stroke-dasharray:2.0,2.0;" x1="69" x2="468" y1="237.0938" y2="237.0938"/><text fill="#000000" font-family="sans-serif" font-size="13" font-weight="bold" lengthAdjust="spacing" textLength="9" x="81" y="232.0278">4</text><text fill="#000000" font-family="sans-serif" font-size="13" lengthAdjust="spacing" textLength="252" x="94" y="232.0278">apresenta dados e solicita confirmação</text><polygon fill="#A80036" points="452,262.2266,462,266.2266,452,270.2266,456,266.2266" style="stroke:#A80036;stroke-width:1.0;"/><line style="stroke:#A80036;stroke-width:1.0;" x1="64" x2="458" y1="266.2266" y2="266.2266"/><text fill="#000000" font-family="sans-serif" font-size="13" font-weight="bold" lengthAdjust="spacing" textLength="9" x="71" y="261.1606">5</text><text fill="#000000" font-family="sans-serif" font-size="13" lengthAdjust="spacing" textLength="57" x="84" y="261.1606">confirma</text><polygon fill="#A80036" points="70,291.3594,60,295.3594,70,299.3594,66,295.3594" style="stroke:#A80036;stroke-width:1.0;"/><line style="stroke:#A80036;stroke-width:1.0;stroke-dasharray:2.0,2.0;" x1="64" x2="468" y1="295.3594" y2="295.3594"/><text fill="#000000" font-family="sans-serif" font-size="13" font-weight="bold" lengthAdjust="spacing" textLength="9" x="76" y="290.2935">6</text><text fill="#000000" font-family="sans-serif" font-size="13" lengthAdjust="spacing" textLength="154" x="89" y="290.2935">operação bem sucedida</text><!--MD5=[66b4428476fb49dccfbe46e751751cb2]
@startuml
autonumber
actor "Administrador" as ADM

activate ADM
ADM -> ":Sistema" : inicia a criação de uma nova farmácia
activate ":Sistema"
":Sistema" - -> ADM : solicita dados da farmácia (NIF), dados do parque\n (NIF da farmácia, morada, latitude, longitude e altitude) \ne número máximo de scooters elétricas
deactivate ":Sistema"

ADM -> ":Sistema" : introduz os dados solicitados
activate ":Sistema"
":Sistema" - -> ADM : apresenta dados e solicita confirmação
deactivate ":Sistema"

ADM -> ":Sistema" : confirma
activate ":Sistema"
":Sistema" - -> ADM : operação bem sucedida
deactivate ":Sistema"

deactivate ADM
@enduml

PlantUML version 1.2020.27beta7(Unknown compile time)
(GPL source distribution)
Java Runtime: Java(TM) SE Runtime Environment
JVM: Java HotSpot(TM) 64-Bit Server VM
Default Encoding: UTF-8
Language: en
Country: US
--></g></svg>