<?xml version="1.0" encoding="UTF-8" standalone="no"?><svg xmlns="http://www.w3.org/2000/svg" xmlns:xlink="http://www.w3.org/1999/xlink" contentScriptType="application/ecmascript" contentStyleType="text/css" height="862px" preserveAspectRatio="none" style="width:1308px;height:862px;" version="1.1" viewBox="0 0 1308 862" width="1308px" zoomAndPan="magnify"><defs><filter height="300%" id="fprhn5ujfed08" width="300%" x="-1" y="-1"><feGaussianBlur result="blurOut" stdDeviation="2.0"/><feColorMatrix in="blurOut" result="blurOut2" type="matrix" values="0 0 0 0 0 0 0 0 0 0 0 0 0 0 0 0 0 0 .4 0"/><feOffset dx="4.0" dy="4.0" in="blurOut2" result="blurOut3"/><feBlend in="SourceGraphic" in2="blurOut3" mode="normal"/></filter></defs><g><!--MD5=[20a748d5ee336a9a91751b0a3d4f0beb]
class Cliente--><rect codeLine="3" fill="#FEFECE" filter="url(#fprhn5ujfed08)" height="124.8281" id="Cliente" style="stroke:#A80036;stroke-width:1.5;" width="655" x="393.152" y="534"/><ellipse cx="695.902" cy="550" fill="#ADD1B2" rx="11" ry="11" style="stroke:#A80036;stroke-width:1.0;"/><path d="M698.2458,545.6719 C697.3083,545.2344 696.7145,545.0938 695.8395,545.0938 C693.2145,545.0938 691.2145,547.1719 691.2145,549.8906 L691.2145,551.0156 C691.2145,553.5938 693.3239,555.4844 696.2145,555.4844 C697.4333,555.4844 698.5895,555.1875 699.3395,554.6406 C699.9176,554.2344 700.2458,553.7813 700.2458,553.3906 C700.2458,552.9375 699.8551,552.5469 699.3864,552.5469 C699.1676,552.5469 698.9645,552.625 698.777,552.8125 C698.3239,553.2969 698.3239,553.2969 698.1364,553.3906 C697.7145,553.6563 697.027,553.7813 696.2614,553.7813 C694.2145,553.7813 692.9176,552.6875 692.9176,550.9844 L692.9176,549.8906 C692.9176,548.1094 694.1676,546.7969 695.902,546.7969 C696.4801,546.7969 697.0895,546.9531 697.5583,547.2031 C698.0426,547.4844 698.2145,547.7031 698.3083,548.1094 C698.3708,548.5156 698.402,548.6406 698.5426,548.7656 C698.6833,548.9063 698.9176,549.0156 699.1364,549.0156 C699.402,549.0156 699.6676,548.875 699.8395,548.6563 C699.9489,548.5 699.9801,548.3125 699.9801,547.8906 L699.9801,546.4688 C699.9801,546.0313 699.9645,545.9063 699.8708,545.75 C699.7145,545.4844 699.4333,545.3438 699.1364,545.3438 C698.8395,545.3438 698.6364,545.4375 698.4176,545.75 L698.2458,545.6719 Z " fill="#000000"/><text fill="#000000" font-family="sans-serif" font-size="12" lengthAdjust="spacing" textLength="41" x="716.402" y="554.1543">Cliente</text><line style="stroke:#A80036;stroke-width:1.5;" x1="394.152" x2="1047.152" y1="566" y2="566"/><text fill="#000000" font-family="sans-serif" font-size="11" lengthAdjust="spacing" textLength="66" x="399.152" y="580.2104">-Integer NIF</text><text fill="#000000" font-family="sans-serif" font-size="11" lengthAdjust="spacing" textLength="74" x="399.152" y="593.0151">-String nome</text><text fill="#000000" font-family="sans-serif" font-size="11" lengthAdjust="spacing" textLength="73" x="399.152" y="605.8198">-String email</text><text fill="#000000" font-family="sans-serif" font-size="11" lengthAdjust="spacing" textLength="123" x="399.152" y="618.6245">-String numSegSocial</text><text fill="#000000" font-family="sans-serif" font-size="11" lengthAdjust="spacing" textLength="94" x="399.152" y="631.4292">-String password</text><line style="stroke:#A80036;stroke-width:1.5;" x1="394.152" x2="1047.152" y1="638.0234" y2="638.0234"/><text fill="#000000" font-family="sans-serif" font-size="11" lengthAdjust="spacing" textLength="643" x="399.152" y="652.2339">+Cliente(Integer NIF, String nome, String email, Endereco end, String numSegSocial, String password, Cartao cc)</text><!--MD5=[36c1942e8942a3e4f47e6de3733e3d18]
class Endereco--><rect codeLine="12" fill="#FEFECE" filter="url(#fprhn5ujfed08)" height="112.0234" id="Endereco" style="stroke:#A80036;stroke-width:1.5;" width="458" x="85.6524" y="736"/><ellipse cx="281.4024" cy="752" fill="#ADD1B2" rx="11" ry="11" style="stroke:#A80036;stroke-width:1.0;"/><path d="M283.7462,747.6719 C282.8087,747.2344 282.2149,747.0938 281.3399,747.0938 C278.7149,747.0938 276.7149,749.1719 276.7149,751.8906 L276.7149,753.0156 C276.7149,755.5938 278.8243,757.4844 281.7149,757.4844 C282.9337,757.4844 284.0899,757.1875 284.8399,756.6406 C285.418,756.2344 285.7462,755.7813 285.7462,755.3906 C285.7462,754.9375 285.3555,754.5469 284.8868,754.5469 C284.668,754.5469 284.4649,754.625 284.2774,754.8125 C283.8243,755.2969 283.8243,755.2969 283.6368,755.3906 C283.2149,755.6563 282.5274,755.7813 281.7618,755.7813 C279.7149,755.7813 278.418,754.6875 278.418,752.9844 L278.418,751.8906 C278.418,750.1094 279.668,748.7969 281.4024,748.7969 C281.9805,748.7969 282.5899,748.9531 283.0587,749.2031 C283.543,749.4844 283.7149,749.7031 283.8087,750.1094 C283.8712,750.5156 283.9024,750.6406 284.043,750.7656 C284.1837,750.9063 284.418,751.0156 284.6368,751.0156 C284.9024,751.0156 285.168,750.875 285.3399,750.6563 C285.4493,750.5 285.4805,750.3125 285.4805,749.8906 L285.4805,748.4688 C285.4805,748.0313 285.4649,747.9063 285.3712,747.75 C285.2149,747.4844 284.9337,747.3438 284.6368,747.3438 C284.3399,747.3438 284.1368,747.4375 283.918,747.75 L283.7462,747.6719 Z " fill="#000000"/><text fill="#000000" font-family="sans-serif" font-size="12" lengthAdjust="spacing" textLength="58" x="301.9024" y="756.1543">Endereco</text><line style="stroke:#A80036;stroke-width:1.5;" x1="86.6524" x2="542.6524" y1="768" y2="768"/><text fill="#000000" font-family="sans-serif" font-size="11" lengthAdjust="spacing" textLength="84" x="91.6524" y="782.2104">-String morada</text><text fill="#000000" font-family="sans-serif" font-size="11" lengthAdjust="spacing" textLength="92" x="91.6524" y="795.0151">-Double latitude</text><text fill="#000000" font-family="sans-serif" font-size="11" lengthAdjust="spacing" textLength="102" x="91.6524" y="807.8198">-Double longitude</text><text fill="#000000" font-family="sans-serif" font-size="11" lengthAdjust="spacing" textLength="92" x="91.6524" y="820.6245">-Double altitude</text><line style="stroke:#A80036;stroke-width:1.5;" x1="86.6524" x2="542.6524" y1="827.2188" y2="827.2188"/><text fill="#000000" font-family="sans-serif" font-size="11" lengthAdjust="spacing" textLength="446" x="91.6524" y="841.4292">+Endereco(String morada, Double latitude, Double longitude, Double altitude)</text><!--MD5=[a13ca1da61a66d544daddca6fa0a1a30]
class Cartao--><rect codeLine="20" fill="#FEFECE" filter="url(#fprhn5ujfed08)" height="99.2188" id="Cartao" style="stroke:#A80036;stroke-width:1.5;" width="351" x="943.152" y="742.5"/><ellipse cx="1094.902" cy="758.5" fill="#ADD1B2" rx="11" ry="11" style="stroke:#A80036;stroke-width:1.0;"/><path d="M1097.2458,754.1719 C1096.3083,753.7344 1095.7145,753.5938 1094.8395,753.5938 C1092.2145,753.5938 1090.2145,755.6719 1090.2145,758.3906 L1090.2145,759.5156 C1090.2145,762.0938 1092.3239,763.9844 1095.2145,763.9844 C1096.4333,763.9844 1097.5895,763.6875 1098.3395,763.1406 C1098.9176,762.7344 1099.2458,762.2813 1099.2458,761.8906 C1099.2458,761.4375 1098.8551,761.0469 1098.3864,761.0469 C1098.1676,761.0469 1097.9645,761.125 1097.777,761.3125 C1097.3239,761.7969 1097.3239,761.7969 1097.1364,761.8906 C1096.7145,762.1563 1096.027,762.2813 1095.2614,762.2813 C1093.2145,762.2813 1091.9176,761.1875 1091.9176,759.4844 L1091.9176,758.3906 C1091.9176,756.6094 1093.1676,755.2969 1094.902,755.2969 C1095.4801,755.2969 1096.0895,755.4531 1096.5583,755.7031 C1097.0426,755.9844 1097.2145,756.2031 1097.3083,756.6094 C1097.3708,757.0156 1097.402,757.1406 1097.5426,757.2656 C1097.6833,757.4063 1097.9176,757.5156 1098.1364,757.5156 C1098.402,757.5156 1098.6676,757.375 1098.8395,757.1563 C1098.9489,757 1098.9801,756.8125 1098.9801,756.3906 L1098.9801,754.9688 C1098.9801,754.5313 1098.9645,754.4063 1098.8708,754.25 C1098.7145,753.9844 1098.4333,753.8438 1098.1364,753.8438 C1097.8395,753.8438 1097.6364,753.9375 1097.4176,754.25 L1097.2458,754.1719 Z " fill="#000000"/><text fill="#000000" font-family="sans-serif" font-size="12" lengthAdjust="spacing" textLength="39" x="1115.402" y="762.6543">Cartao</text><line style="stroke:#A80036;stroke-width:1.5;" x1="944.152" x2="1293.152" y1="774.5" y2="774.5"/><text fill="#000000" font-family="sans-serif" font-size="11" lengthAdjust="spacing" textLength="90" x="949.152" y="788.7104">-Integer numCC</text><text fill="#000000" font-family="sans-serif" font-size="11" lengthAdjust="spacing" textLength="116" x="949.152" y="801.5151">-String dataValidade</text><text fill="#000000" font-family="sans-serif" font-size="11" lengthAdjust="spacing" textLength="73" x="949.152" y="814.3198">-Integer CCV</text><line style="stroke:#A80036;stroke-width:1.5;" x1="944.152" x2="1293.152" y1="820.9141" y2="820.9141"/><text fill="#000000" font-family="sans-serif" font-size="11" lengthAdjust="spacing" textLength="339" x="949.152" y="835.1245">+Cartao(Integer numCC, String dataValidade, Integer CCV))</text><!--MD5=[3b6b8abd81b442aa81592fe2bb0f51b5]
class ClienteDB--><rect codeLine="27" fill="#FEFECE" filter="url(#fprhn5ujfed08)" height="112.0234" id="ClienteDB" style="stroke:#A80036;stroke-width:1.5;" width="570" x="158.652" y="263"/><ellipse cx="410.402" cy="279" fill="#ADD1B2" rx="11" ry="11" style="stroke:#A80036;stroke-width:1.0;"/><path d="M412.7458,274.6719 C411.8083,274.2344 411.2145,274.0938 410.3395,274.0938 C407.7145,274.0938 405.7145,276.1719 405.7145,278.8906 L405.7145,280.0156 C405.7145,282.5938 407.8239,284.4844 410.7145,284.4844 C411.9333,284.4844 413.0895,284.1875 413.8395,283.6406 C414.4176,283.2344 414.7458,282.7813 414.7458,282.3906 C414.7458,281.9375 414.3551,281.5469 413.8864,281.5469 C413.6676,281.5469 413.4645,281.625 413.277,281.8125 C412.8239,282.2969 412.8239,282.2969 412.6364,282.3906 C412.2145,282.6563 411.527,282.7813 410.7614,282.7813 C408.7145,282.7813 407.4176,281.6875 407.4176,279.9844 L407.4176,278.8906 C407.4176,277.1094 408.6676,275.7969 410.402,275.7969 C410.9801,275.7969 411.5895,275.9531 412.0583,276.2031 C412.5426,276.4844 412.7145,276.7031 412.8083,277.1094 C412.8708,277.5156 412.902,277.6406 413.0426,277.7656 C413.1833,277.9063 413.4176,278.0156 413.6364,278.0156 C413.902,278.0156 414.1676,277.875 414.3395,277.6563 C414.4489,277.5 414.4801,277.3125 414.4801,276.8906 L414.4801,275.4688 C414.4801,275.0313 414.4645,274.9063 414.3708,274.75 C414.2145,274.4844 413.9333,274.3438 413.6364,274.3438 C413.3395,274.3438 413.1364,274.4375 412.9176,274.75 L412.7458,274.6719 Z " fill="#000000"/><text fill="#000000" font-family="sans-serif" font-size="12" lengthAdjust="spacing" textLength="58" x="430.902" y="283.1543">ClienteDB</text><line style="stroke:#A80036;stroke-width:1.5;" x1="159.652" x2="727.652" y1="295" y2="295"/><line style="stroke:#A80036;stroke-width:1.5;" x1="159.652" x2="727.652" y1="303" y2="303"/><text fill="#000000" font-family="sans-serif" font-size="11" lengthAdjust="spacing" textLength="558" x="164.652" y="317.2104">+Cliente novoCliente(Integer NIF, String nome, String email, Endereco end, String numSegSocial,</text><text fill="#000000" font-family="sans-serif" font-size="11" lengthAdjust="spacing" textLength="382" x="168.652" y="330.0151">String password, Integer numCC, String dataValidade, Integer CCV)</text><text fill="#000000" font-family="sans-serif" font-size="11" lengthAdjust="spacing" textLength="176" x="164.652" y="342.8198">+validaCliente(Cliente cliente)</text><text fill="#000000" font-family="sans-serif" font-size="11" lengthAdjust="spacing" textLength="181" x="164.652" y="355.6245">+registaCliente(Cliente cliente)</text><text fill="#000000" font-family="sans-serif" font-size="11" lengthAdjust="spacing" textLength="158" x="164.652" y="368.4292">-addCliente(Cliente cliente)</text><!--MD5=[a8381305e32feabadf74eb10f0c047ba]
class EnderecoDB--><rect codeLine="34" fill="#FEFECE" filter="url(#fprhn5ujfed08)" height="99.2188" id="EnderecoDB" style="stroke:#A80036;stroke-width:1.5;" width="544" x="47.6524" y="405"/><ellipse cx="277.9024" cy="421" fill="#ADD1B2" rx="11" ry="11" style="stroke:#A80036;stroke-width:1.0;"/><path d="M280.2462,416.6719 C279.3087,416.2344 278.7149,416.0938 277.8399,416.0938 C275.2149,416.0938 273.2149,418.1719 273.2149,420.8906 L273.2149,422.0156 C273.2149,424.5938 275.3243,426.4844 278.2149,426.4844 C279.4337,426.4844 280.5899,426.1875 281.3399,425.6406 C281.918,425.2344 282.2462,424.7813 282.2462,424.3906 C282.2462,423.9375 281.8555,423.5469 281.3868,423.5469 C281.168,423.5469 280.9649,423.625 280.7774,423.8125 C280.3243,424.2969 280.3243,424.2969 280.1368,424.3906 C279.7149,424.6563 279.0274,424.7813 278.2618,424.7813 C276.2149,424.7813 274.918,423.6875 274.918,421.9844 L274.918,420.8906 C274.918,419.1094 276.168,417.7969 277.9024,417.7969 C278.4805,417.7969 279.0899,417.9531 279.5587,418.2031 C280.043,418.4844 280.2149,418.7031 280.3087,419.1094 C280.3712,419.5156 280.4024,419.6406 280.543,419.7656 C280.6837,419.9063 280.918,420.0156 281.1368,420.0156 C281.4024,420.0156 281.668,419.875 281.8399,419.6563 C281.9493,419.5 281.9805,419.3125 281.9805,418.8906 L281.9805,417.4688 C281.9805,417.0313 281.9649,416.9063 281.8712,416.75 C281.7149,416.4844 281.4337,416.3438 281.1368,416.3438 C280.8399,416.3438 280.6368,416.4375 280.418,416.75 L280.2462,416.6719 Z " fill="#000000"/><text fill="#000000" font-family="sans-serif" font-size="12" lengthAdjust="spacing" textLength="75" x="298.4024" y="425.1543">EnderecoDB</text><line style="stroke:#A80036;stroke-width:1.5;" x1="48.6524" x2="590.6524" y1="437" y2="437"/><line style="stroke:#A80036;stroke-width:1.5;" x1="48.6524" x2="590.6524" y1="445" y2="445"/><text fill="#000000" font-family="sans-serif" font-size="11" lengthAdjust="spacing" textLength="532" x="53.6524" y="459.2104">+Endereco novoEndereco(String morada, Double latitude, Double longitude, Double altitude)</text><text fill="#000000" font-family="sans-serif" font-size="11" lengthAdjust="spacing" textLength="185" x="53.6524" y="472.0151">+validaEndereco(Endereco end)</text><text fill="#000000" font-family="sans-serif" font-size="11" lengthAdjust="spacing" textLength="190" x="53.6524" y="484.8198">+registaEndereco(Endereco end)</text><text fill="#000000" font-family="sans-serif" font-size="11" lengthAdjust="spacing" textLength="167" x="53.6524" y="497.6245">-addEndereco(Endereco end)</text><!--MD5=[e82dbf20ebaf0e6f68c784813d115b99]
class CartaoDB--><rect codeLine="41" fill="#FEFECE" filter="url(#fprhn5ujfed08)" height="99.2188" id="CartaoDB" style="stroke:#A80036;stroke-width:1.5;" width="416" x="804.652" y="405"/><ellipse cx="980.402" cy="421" fill="#ADD1B2" rx="11" ry="11" style="stroke:#A80036;stroke-width:1.0;"/><path d="M982.7458,416.6719 C981.8083,416.2344 981.2145,416.0938 980.3395,416.0938 C977.7145,416.0938 975.7145,418.1719 975.7145,420.8906 L975.7145,422.0156 C975.7145,424.5938 977.8239,426.4844 980.7145,426.4844 C981.9333,426.4844 983.0895,426.1875 983.8395,425.6406 C984.4176,425.2344 984.7458,424.7813 984.7458,424.3906 C984.7458,423.9375 984.3551,423.5469 983.8864,423.5469 C983.6676,423.5469 983.4645,423.625 983.277,423.8125 C982.8239,424.2969 982.8239,424.2969 982.6364,424.3906 C982.2145,424.6563 981.527,424.7813 980.7614,424.7813 C978.7145,424.7813 977.4176,423.6875 977.4176,421.9844 L977.4176,420.8906 C977.4176,419.1094 978.6676,417.7969 980.402,417.7969 C980.9801,417.7969 981.5895,417.9531 982.0583,418.2031 C982.5426,418.4844 982.7145,418.7031 982.8083,419.1094 C982.8708,419.5156 982.902,419.6406 983.0426,419.7656 C983.1833,419.9063 983.4176,420.0156 983.6364,420.0156 C983.902,420.0156 984.1676,419.875 984.3395,419.6563 C984.4489,419.5 984.4801,419.3125 984.4801,418.8906 L984.4801,417.4688 C984.4801,417.0313 984.4645,416.9063 984.3708,416.75 C984.2145,416.4844 983.9333,416.3438 983.6364,416.3438 C983.3395,416.3438 983.1364,416.4375 982.9176,416.75 L982.7458,416.6719 Z " fill="#000000"/><text fill="#000000" font-family="sans-serif" font-size="12" lengthAdjust="spacing" textLength="56" x="1000.902" y="425.1543">CartaoDB</text><line style="stroke:#A80036;stroke-width:1.5;" x1="805.652" x2="1219.652" y1="437" y2="437"/><line style="stroke:#A80036;stroke-width:1.5;" x1="805.652" x2="1219.652" y1="445" y2="445"/><text fill="#000000" font-family="sans-serif" font-size="11" lengthAdjust="spacing" textLength="404" x="810.652" y="459.2104">+Cartao novoCartao(Integer numCC, String dataValidade, Integer CCV)</text><text fill="#000000" font-family="sans-serif" font-size="11" lengthAdjust="spacing" textLength="141" x="810.652" y="472.0151">+validaCartao(Cartao cc)</text><text fill="#000000" font-family="sans-serif" font-size="11" lengthAdjust="spacing" textLength="146" x="810.652" y="484.8198">+registaCartao(Cartao cc)</text><text fill="#000000" font-family="sans-serif" font-size="11" lengthAdjust="spacing" textLength="123" x="810.652" y="497.6245">-addCartao(Cartao cc)</text><!--MD5=[71ca537e8ef433b13ff9c80f6a6e1275]
class DefinirClienteController--><rect codeLine="48" fill="#FEFECE" filter="url(#fprhn5ujfed08)" height="86.4141" id="DefinirClienteController" style="stroke:#A80036;stroke-width:1.5;" width="695" x="339.152" y="116"/><ellipse cx="612.902" cy="132" fill="#ADD1B2" rx="11" ry="11" style="stroke:#A80036;stroke-width:1.0;"/><path d="M615.2458,127.6719 C614.3083,127.2344 613.7145,127.0938 612.8395,127.0938 C610.2145,127.0938 608.2145,129.1719 608.2145,131.8906 L608.2145,133.0156 C608.2145,135.5938 610.3239,137.4844 613.2145,137.4844 C614.4333,137.4844 615.5895,137.1875 616.3395,136.6406 C616.9176,136.2344 617.2458,135.7813 617.2458,135.3906 C617.2458,134.9375 616.8551,134.5469 616.3864,134.5469 C616.1676,134.5469 615.9645,134.625 615.777,134.8125 C615.3239,135.2969 615.3239,135.2969 615.1364,135.3906 C614.7145,135.6563 614.027,135.7813 613.2614,135.7813 C611.2145,135.7813 609.9176,134.6875 609.9176,132.9844 L609.9176,131.8906 C609.9176,130.1094 611.1676,128.7969 612.902,128.7969 C613.4801,128.7969 614.0895,128.9531 614.5583,129.2031 C615.0426,129.4844 615.2145,129.7031 615.3083,130.1094 C615.3708,130.5156 615.402,130.6406 615.5426,130.7656 C615.6833,130.9063 615.9176,131.0156 616.1364,131.0156 C616.402,131.0156 616.6676,130.875 616.8395,130.6563 C616.9489,130.5 616.9801,130.3125 616.9801,129.8906 L616.9801,128.4688 C616.9801,128.0313 616.9645,127.9063 616.8708,127.75 C616.7145,127.4844 616.4333,127.3438 616.1364,127.3438 C615.8395,127.3438 615.6364,127.4375 615.4176,127.75 L615.2458,127.6719 Z " fill="#000000"/><text fill="#000000" font-family="sans-serif" font-size="12" lengthAdjust="spacing" textLength="139" x="633.402" y="136.1543">DefinirClienteController</text><line style="stroke:#A80036;stroke-width:1.5;" x1="340.152" x2="1033.152" y1="148" y2="148"/><line style="stroke:#A80036;stroke-width:1.5;" x1="340.152" x2="1033.152" y1="156" y2="156"/><text fill="#000000" font-family="sans-serif" font-size="11" lengthAdjust="spacing" textLength="679" x="345.152" y="170.2104">+novoCliente(Integer NIF, String nome, String email, String morada, Double latitude, Double longitude, Double altitude</text><text fill="#000000" font-family="sans-serif" font-size="11" lengthAdjust="spacing" textLength="508" x="349.152" y="183.0151">String numSegSocial, String password, Integer numCC, String dataValidade, Integer CCV)</text><text fill="#000000" font-family="sans-serif" font-size="11" lengthAdjust="spacing" textLength="97" x="345.152" y="195.8198">+registaCliente()</text><!--MD5=[c0fb86b0564349bf5bdacc636ec0dd0e]
class DefinirClienteUI--><rect codeLine="53" fill="#FEFECE" filter="url(#fprhn5ujfed08)" height="48" id="DefinirClienteUI" style="stroke:#A80036;stroke-width:1.5;" width="124" x="624.652" y="7"/><ellipse cx="639.652" cy="23" fill="#ADD1B2" rx="11" ry="11" style="stroke:#A80036;stroke-width:1.0;"/><path d="M641.9958,18.6719 C641.0583,18.2344 640.4645,18.0938 639.5895,18.0938 C636.9645,18.0938 634.9645,20.1719 634.9645,22.8906 L634.9645,24.0156 C634.9645,26.5938 637.0739,28.4844 639.9645,28.4844 C641.1833,28.4844 642.3395,28.1875 643.0895,27.6406 C643.6676,27.2344 643.9958,26.7813 643.9958,26.3906 C643.9958,25.9375 643.6051,25.5469 643.1364,25.5469 C642.9176,25.5469 642.7145,25.625 642.527,25.8125 C642.0739,26.2969 642.0739,26.2969 641.8864,26.3906 C641.4645,26.6563 640.777,26.7813 640.0114,26.7813 C637.9645,26.7813 636.6676,25.6875 636.6676,23.9844 L636.6676,22.8906 C636.6676,21.1094 637.9176,19.7969 639.652,19.7969 C640.2301,19.7969 640.8395,19.9531 641.3083,20.2031 C641.7926,20.4844 641.9645,20.7031 642.0583,21.1094 C642.1208,21.5156 642.152,21.6406 642.2926,21.7656 C642.4333,21.9063 642.6676,22.0156 642.8864,22.0156 C643.152,22.0156 643.4176,21.875 643.5895,21.6563 C643.6989,21.5 643.7301,21.3125 643.7301,20.8906 L643.7301,19.4688 C643.7301,19.0313 643.7145,18.9063 643.6208,18.75 C643.4645,18.4844 643.1833,18.3438 642.8864,18.3438 C642.5895,18.3438 642.3864,18.4375 642.1676,18.75 L641.9958,18.6719 Z " fill="#000000"/><text fill="#000000" font-family="sans-serif" font-size="12" lengthAdjust="spacing" textLength="92" x="653.652" y="27.1543">DefinirClienteUI</text><line style="stroke:#A80036;stroke-width:1.5;" x1="625.652" x2="747.652" y1="39" y2="39"/><line style="stroke:#A80036;stroke-width:1.5;" x1="625.652" x2="747.652" y1="47" y2="47"/><!--MD5=[2df4f06df0e0a044116713e3d31f1710]
link DefinirClienteUI to DefinirClienteController--><path codeLine="57" d="M686.652,55.11 C686.652,70.631 686.652,91.639 686.652,110.625 " fill="none" id="DefinirClienteUI-to-DefinirClienteController" style="stroke:#A80036;stroke-width:1.0;stroke-dasharray:7.0,7.0;"/><polygon fill="#A80036" points="686.652,115.921,690.652,106.921,686.652,110.921,682.652,106.921,686.652,115.921" style="stroke:#A80036;stroke-width:1.0;"/><!--MD5=[6dd4ee26d1a1908e30b537e576994049]
link DefinirClienteController to ClienteDB--><path codeLine="58" d="M621.852,202.134 C594.515,219.908 562.241,240.893 532.723,260.086 " fill="none" id="DefinirClienteController-to-ClienteDB" style="stroke:#A80036;stroke-width:1.0;stroke-dasharray:7.0,7.0;"/><polygon fill="#A80036" points="528.389,262.904,538.1146,261.3508,532.5806,260.1782,533.7533,254.6442,528.389,262.904" style="stroke:#A80036;stroke-width:1.0;"/><!--MD5=[51a8cadb7bf239968095df55bd0a70f3]
link DefinirClienteController to EnderecoDB--><path codeLine="59" d="M338.924,190.159 C248.95,205.494 169.241,228.514 140.652,263 C108.8837,301.322 113.4249,333.329 140.652,375 C147.23,385.067 155.416,393.851 164.64,401.514 " fill="none" id="DefinirClienteController-to-EnderecoDB" style="stroke:#A80036;stroke-width:1.0;stroke-dasharray:7.0,7.0;"/><polygon fill="#A80036" points="168.656,404.73,164.1332,395.981,164.7539,401.6037,159.1312,402.2244,168.656,404.73" style="stroke:#A80036;stroke-width:1.0;"/><!--MD5=[3e86e6b07056fe67590604de84766931]
link DefinirClienteController to CartaoDB--><path codeLine="60" d="M765.033,202.142 C779.708,211.267 794.542,221.389 807.652,232 C870.64,282.979 932.34,353.201 971.32,400.811 " fill="none" id="DefinirClienteController-to-CartaoDB" style="stroke:#A80036;stroke-width:1.0;stroke-dasharray:7.0,7.0;"/><polygon fill="#A80036" points="974.553,404.771,971.96,395.2696,971.391,400.8978,965.7628,400.3288,974.553,404.771" style="stroke:#A80036;stroke-width:1.0;"/><!--MD5=[3bd44b91ab14edcca89780065aa4fc28]
link DefinirClienteController to Cliente--><path codeLine="61" d="M717.584,202.404 C728.744,220.201 739.982,241.691 745.652,263 C769.52,352.687 753.688,460.447 738.52,528.467 " fill="none" id="DefinirClienteController-to-Cliente" style="stroke:#A80036;stroke-width:1.0;stroke-dasharray:7.0,7.0;"/><polygon fill="#A80036" points="737.336,533.702,743.2225,525.8059,738.4388,528.8251,735.4195,524.0414,737.336,533.702" style="stroke:#A80036;stroke-width:1.0;"/><!--MD5=[43597bbb85a4e4e141e0228991eb15a3]
link DefinirClienteController to Endereco--><path codeLine="62" d="M338.893,188.911 C238.058,204.303 145.631,227.673 110.6524,263 C32.6776,341.752 6,400.902 46.6524,504 C84.03,598.793 169.12,680.731 233.466,732.51 " fill="none" id="DefinirClienteController-to-Endereco" style="stroke:#A80036;stroke-width:1.0;stroke-dasharray:7.0,7.0;"/><polygon fill="#A80036" points="237.674,735.877,233.1457,727.1309,233.7699,732.7532,228.1476,733.3774,237.674,735.877" style="stroke:#A80036;stroke-width:1.0;"/><!--MD5=[e1eca39f01303acf58882bc67989cc67]
link DefinirClienteController to Cartao--><path codeLine="63" d="M910.408,202.044 C1024.67,236.149 1153.629,297.079 1221.649,405 C1288.369,510.855 1209.909,659.21 1157.749,737.595 " fill="none" id="DefinirClienteController-to-Cartao" style="stroke:#A80036;stroke-width:1.0;stroke-dasharray:7.0,7.0;"/><polygon fill="#A80036" points="1154.659,742.196,1162.9908,736.9442,1157.4414,738.0417,1156.3439,732.4923,1154.659,742.196" style="stroke:#A80036;stroke-width:1.0;"/><!--MD5=[1ac7a80d7d1bce9ba8d5537593646246]
link ClienteDB to Cliente--><path codeLine="65" d="M569.488,375.034 C583.519,383.941 596.946,393.93 608.652,405 C645.349,439.704 673.922,489.093 693.022,528.887 " fill="none" id="ClienteDB-to-Cliente" style="stroke:#A80036;stroke-width:1.0;"/><polygon fill="#A80036" points="695.304,533.69,695.0543,523.8443,693.1581,529.1739,687.8285,527.2777,695.304,533.69" style="stroke:#A80036;stroke-width:1.0;"/><text fill="#000000" font-family="sans-serif" font-size="13" lengthAdjust="spacing" textLength="41" x="680.652" y="459.0669">possui</text><text fill="#000000" font-family="sans-serif" font-size="13" lengthAdjust="spacing" textLength="8" x="582.4089" y="393.951">1</text><text fill="#000000" font-family="sans-serif" font-size="13" lengthAdjust="spacing" textLength="7" x="685.1488" y="523.0834">*</text><!--MD5=[c023e2c3fa599b931e4bde319636976a]
link EnderecoDB to Endereco--><path codeLine="66" d="M318.925,504.285 C318.034,564.121 316.522,665.564 315.556,730.359 " fill="none" id="EnderecoDB-to-Endereco" style="stroke:#A80036;stroke-width:1.0;"/><polygon fill="#A80036" points="315.476,735.735,319.6119,726.7966,315.5517,730.7356,311.6128,726.6755,315.476,735.735" style="stroke:#A80036;stroke-width:1.0;"/><text fill="#000000" font-family="sans-serif" font-size="13" lengthAdjust="spacing" textLength="41" x="319.652" y="601.0669">possui</text><text fill="#000000" font-family="sans-serif" font-size="13" lengthAdjust="spacing" textLength="8" x="310.2602" y="524.4016">1</text><text fill="#000000" font-family="sans-serif" font-size="13" lengthAdjust="spacing" textLength="7" x="308.1498" y="725.0372">*</text><!--MD5=[4f07296ad6c83f23dd45be75705310f2]
link CartaoDB to Cartao--><path codeLine="67" d="M1049.669,504.081 C1055.709,513.631 1061.379,523.846 1065.649,534 C1093.829,600.907 1107.469,684.104 1113.739,737.383 " fill="none" id="CartaoDB-to-Cartao" style="stroke:#A80036;stroke-width:1.0;"/><polygon fill="#A80036" points="1114.329,742.444,1117.2667,733.0435,1113.7536,737.4772,1109.3199,733.9641,1114.329,742.444" style="stroke:#A80036;stroke-width:1.0;"/><text fill="#000000" font-family="sans-serif" font-size="13" lengthAdjust="spacing" textLength="41" x="1102.649" y="601.0669">possui</text><text fill="#000000" font-family="sans-serif" font-size="13" lengthAdjust="spacing" textLength="8" x="1046.312" y="524.1689">1</text><text fill="#000000" font-family="sans-serif" font-size="13" lengthAdjust="spacing" textLength="7" x="1106.2289" y="731.4814">*</text><!--MD5=[43a7c1a046aa41d1c9842e3954366be4]
link Cliente to Endereco--><path codeLine="68" d="M591.354,659.124 C541.207,683.024 484.116,710.233 434.869,733.704 " fill="none" id="Cliente-to-Endereco" style="stroke:#A80036;stroke-width:1.0;"/><polygon fill="#A80036" points="430.128,735.964,439.9734,735.7029,434.6416,733.8129,436.5316,728.4811,430.128,735.964" style="stroke:#A80036;stroke-width:1.0;"/><text fill="#000000" font-family="sans-serif" font-size="13" lengthAdjust="spacing" textLength="26" x="518.652" y="702.0669">tem</text><text fill="#000000" font-family="sans-serif" font-size="13" lengthAdjust="spacing" textLength="8" x="568.7745" y="678.8774">1</text><text fill="#000000" font-family="sans-serif" font-size="13" lengthAdjust="spacing" textLength="8" x="436.4108" y="724.8974">1</text><!--MD5=[0b9a64f88a8f68498a0520ea68e94a71]
link Cliente to Cartao--><path codeLine="69" d="M847.403,659.124 C901.189,685.274 963.124,715.385 1014.221,740.227 " fill="none" id="Cliente-to-Cartao" style="stroke:#A80036;stroke-width:1.0;"/><polygon fill="#A80036" points="1018.817,742.462,1012.4719,734.9295,1014.3203,740.2758,1008.9739,742.1242,1018.817,742.462" style="stroke:#A80036;stroke-width:1.0;"/><text fill="#000000" font-family="sans-serif" font-size="13" lengthAdjust="spacing" textLength="26" x="944.652" y="702.0669">tem</text><text fill="#000000" font-family="sans-serif" font-size="13" lengthAdjust="spacing" textLength="8" x="852.8289" y="678.8774">1</text><text fill="#000000" font-family="sans-serif" font-size="13" lengthAdjust="spacing" textLength="8" x="996.2152" y="731.5019">1</text><!--MD5=[927945c6c9f41d4fb34726aebdc23502]
@startuml
skinparam classAttributeIconSize 0

class Cliente {
  -Integer NIF
  -String nome
  -String email
  -String numSegSocial
  -String password
  +Cliente(Integer NIF, String nome, String email, Endereco end, String numSegSocial, String password, Cartao cc)
}

class Endereco {
  -String morada
  -Double latitude
  -Double longitude
  -Double altitude 
  +Endereco(String morada, Double latitude, Double longitude, Double altitude)
}

class Cartao {
  -Integer numCC
  -String dataValidade
  -Integer CCV
  +Cartao(Integer numCC, String dataValidade, Integer CCV))
}

class ClienteDB {
  +Cliente novoCliente(Integer NIF, String nome, String email, Endereco end, String numSegSocial,\n String password, Integer numCC, String dataValidade, Integer CCV)
  +validaCliente(Cliente cliente)
  +registaCliente(Cliente cliente)
  -addCliente(Cliente cliente)
}

class EnderecoDB {
  +Endereco novoEndereco(String morada, Double latitude, Double longitude, Double altitude)
  +validaEndereco(Endereco end)
  +registaEndereco(Endereco end)
  -addEndereco(Endereco end)
}

class CartaoDB {
  +Cartao novoCartao(Integer numCC, String dataValidade, Integer CCV)
  +validaCartao(Cartao cc)
  +registaCartao(Cartao cc)
  -addCartao(Cartao cc)
}

class DefinirClienteController {
  +novoCliente(Integer NIF, String nome, String email, String morada, Double latitude, Double longitude, Double altitude \n String numSegSocial, String password, Integer numCC, String dataValidade, Integer CCV)
  +registaCliente()
}

class DefinirClienteUI {
  
}

DefinirClienteUI ..> DefinirClienteController
DefinirClienteController ..> ClienteDB
DefinirClienteController ..> EnderecoDB
DefinirClienteController ..> CartaoDB
DefinirClienteController ..> Cliente
DefinirClienteController ..> Endereco
DefinirClienteController ..> Cartao

ClienteDB "1" - -> "*" Cliente : possui
EnderecoDB "1" - -> "*" Endereco : possui
CartaoDB "1" - -> "*" Cartao : possui
Cliente "1" - -> "1" Endereco : tem
Cliente "1" - -> "1" Cartao : tem
@enduml

PlantUML version 1.2020.27beta7(Unknown compile time)
(GPL source distribution)
Java Runtime: Java(TM) SE Runtime Environment
JVM: Java HotSpot(TM) 64-Bit Server VM
Default Encoding: UTF-8
Language: en
Country: US
--></g></svg>