<?xml version="1.0" encoding="UTF-8" standalone="no"?><svg xmlns="http://www.w3.org/2000/svg" xmlns:xlink="http://www.w3.org/1999/xlink" contentScriptType="application/ecmascript" contentStyleType="text/css" height="913px" preserveAspectRatio="none" style="width:1131px;height:913px;" version="1.1" viewBox="0 0 1131 913" width="1131px" zoomAndPan="magnify"><defs><filter height="300%" id="f45akyyfyewk" width="300%" x="-1" y="-1"><feGaussianBlur result="blurOut" stdDeviation="2.0"/><feColorMatrix in="blurOut" result="blurOut2" type="matrix" values="0 0 0 0 0 0 0 0 0 0 0 0 0 0 0 0 0 0 .4 0"/><feOffset dx="4.0" dy="4.0" in="blurOut2" result="blurOut3"/><feBlend in="SourceGraphic" in2="blurOut3" mode="normal"/></filter></defs><g><!--MD5=[20a748d5ee336a9a91751b0a3d4f0beb]
class Cliente--><rect codeLine="3" fill="#FEFECE" filter="url(#f45akyyfyewk)" height="176.0469" id="Cliente" style="stroke:#A80036;stroke-width:1.5;" width="497" x="184" y="534"/><ellipse cx="407.75" cy="550" fill="#ADD1B2" rx="11" ry="11" style="stroke:#A80036;stroke-width:1.0;"/><path d="M410.0938,545.6719 C409.1563,545.2344 408.5625,545.0938 407.6875,545.0938 C405.0625,545.0938 403.0625,547.1719 403.0625,549.8906 L403.0625,551.0156 C403.0625,553.5938 405.1719,555.4844 408.0625,555.4844 C409.2813,555.4844 410.4375,555.1875 411.1875,554.6406 C411.7656,554.2344 412.0938,553.7813 412.0938,553.3906 C412.0938,552.9375 411.7031,552.5469 411.2344,552.5469 C411.0156,552.5469 410.8125,552.625 410.625,552.8125 C410.1719,553.2969 410.1719,553.2969 409.9844,553.3906 C409.5625,553.6563 408.875,553.7813 408.1094,553.7813 C406.0625,553.7813 404.7656,552.6875 404.7656,550.9844 L404.7656,549.8906 C404.7656,548.1094 406.0156,546.7969 407.75,546.7969 C408.3281,546.7969 408.9375,546.9531 409.4063,547.2031 C409.8906,547.4844 410.0625,547.7031 410.1563,548.1094 C410.2188,548.5156 410.25,548.6406 410.3906,548.7656 C410.5313,548.9063 410.7656,549.0156 410.9844,549.0156 C411.25,549.0156 411.5156,548.875 411.6875,548.6563 C411.7969,548.5 411.8281,548.3125 411.8281,547.8906 L411.8281,546.4688 C411.8281,546.0313 411.8125,545.9063 411.7188,545.75 C411.5625,545.4844 411.2813,545.3438 410.9844,545.3438 C410.6875,545.3438 410.4844,545.4375 410.2656,545.75 L410.0938,545.6719 Z " fill="#000000"/><text fill="#000000" font-family="sans-serif" font-size="12" lengthAdjust="spacing" textLength="41" x="428.25" y="554.1543">Cliente</text><line style="stroke:#A80036;stroke-width:1.5;" x1="185" x2="680" y1="566" y2="566"/><text fill="#000000" font-family="sans-serif" font-size="11" lengthAdjust="spacing" textLength="66" x="190" y="580.2104">-Integer NIF</text><text fill="#000000" font-family="sans-serif" font-size="11" lengthAdjust="spacing" textLength="74" x="190" y="593.0151">-String nome</text><text fill="#000000" font-family="sans-serif" font-size="11" lengthAdjust="spacing" textLength="73" x="190" y="605.8198">-String email</text><text fill="#000000" font-family="sans-serif" font-size="11" lengthAdjust="spacing" textLength="123" x="190" y="618.6245">-String numSegSocial</text><text fill="#000000" font-family="sans-serif" font-size="11" lengthAdjust="spacing" textLength="94" x="190" y="631.4292">-String password</text><text fill="#000000" font-family="sans-serif" font-size="11" lengthAdjust="spacing" textLength="90" x="190" y="644.2339">-Integer numCC</text><text fill="#000000" font-family="sans-serif" font-size="11" lengthAdjust="spacing" textLength="116" x="190" y="657.0386">-String dataValidade</text><text fill="#000000" font-family="sans-serif" font-size="11" lengthAdjust="spacing" textLength="73" x="190" y="669.8433">-Integer CCV</text><line style="stroke:#A80036;stroke-width:1.5;" x1="185" x2="680" y1="676.4375" y2="676.4375"/><text fill="#000000" font-family="sans-serif" font-size="11" lengthAdjust="spacing" textLength="485" x="190" y="690.6479">+Cliente(Integer NIF, String nome, String email, Endereco end, String numSegSocial,</text><text fill="#000000" font-family="sans-serif" font-size="11" lengthAdjust="spacing" textLength="382" x="194" y="703.4526">String password, Integer numCC, String dataValidade, Integer CCV)</text><!--MD5=[36c1942e8942a3e4f47e6de3733e3d18]
class Endereco--><rect codeLine="15" fill="#FEFECE" filter="url(#f45akyyfyewk)" height="112.0234" id="Endereco" style="stroke:#A80036;stroke-width:1.5;" width="458" x="203.5" y="787"/><ellipse cx="399.25" cy="803" fill="#ADD1B2" rx="11" ry="11" style="stroke:#A80036;stroke-width:1.0;"/><path d="M401.5938,798.6719 C400.6563,798.2344 400.0625,798.0938 399.1875,798.0938 C396.5625,798.0938 394.5625,800.1719 394.5625,802.8906 L394.5625,804.0156 C394.5625,806.5938 396.6719,808.4844 399.5625,808.4844 C400.7813,808.4844 401.9375,808.1875 402.6875,807.6406 C403.2656,807.2344 403.5938,806.7813 403.5938,806.3906 C403.5938,805.9375 403.2031,805.5469 402.7344,805.5469 C402.5156,805.5469 402.3125,805.625 402.125,805.8125 C401.6719,806.2969 401.6719,806.2969 401.4844,806.3906 C401.0625,806.6563 400.375,806.7813 399.6094,806.7813 C397.5625,806.7813 396.2656,805.6875 396.2656,803.9844 L396.2656,802.8906 C396.2656,801.1094 397.5156,799.7969 399.25,799.7969 C399.8281,799.7969 400.4375,799.9531 400.9063,800.2031 C401.3906,800.4844 401.5625,800.7031 401.6563,801.1094 C401.7188,801.5156 401.75,801.6406 401.8906,801.7656 C402.0313,801.9063 402.2656,802.0156 402.4844,802.0156 C402.75,802.0156 403.0156,801.875 403.1875,801.6563 C403.2969,801.5 403.3281,801.3125 403.3281,800.8906 L403.3281,799.4688 C403.3281,799.0313 403.3125,798.9063 403.2188,798.75 C403.0625,798.4844 402.7813,798.3438 402.4844,798.3438 C402.1875,798.3438 401.9844,798.4375 401.7656,798.75 L401.5938,798.6719 Z " fill="#000000"/><text fill="#000000" font-family="sans-serif" font-size="12" lengthAdjust="spacing" textLength="58" x="419.75" y="807.1543">Endereco</text><line style="stroke:#A80036;stroke-width:1.5;" x1="204.5" x2="660.5" y1="819" y2="819"/><text fill="#000000" font-family="sans-serif" font-size="11" lengthAdjust="spacing" textLength="84" x="209.5" y="833.2104">-String morada</text><text fill="#000000" font-family="sans-serif" font-size="11" lengthAdjust="spacing" textLength="92" x="209.5" y="846.0151">-Double latitude</text><text fill="#000000" font-family="sans-serif" font-size="11" lengthAdjust="spacing" textLength="102" x="209.5" y="858.8198">-Double longitude</text><text fill="#000000" font-family="sans-serif" font-size="11" lengthAdjust="spacing" textLength="92" x="209.5" y="871.6245">-Double altitude</text><line style="stroke:#A80036;stroke-width:1.5;" x1="204.5" x2="660.5" y1="878.2188" y2="878.2188"/><text fill="#000000" font-family="sans-serif" font-size="11" lengthAdjust="spacing" textLength="446" x="209.5" y="892.4292">+Endereco(String morada, Double latitude, Double longitude, Double altitude)</text><!--MD5=[3b6b8abd81b442aa81592fe2bb0f51b5]
class ClienteDB--><rect codeLine="23" fill="#FEFECE" filter="url(#f45akyyfyewk)" height="112.0234" id="ClienteDB" style="stroke:#A80036;stroke-width:1.5;" width="570" x="238.5" y="263"/><ellipse cx="490.25" cy="279" fill="#ADD1B2" rx="11" ry="11" style="stroke:#A80036;stroke-width:1.0;"/><path d="M492.5938,274.6719 C491.6563,274.2344 491.0625,274.0938 490.1875,274.0938 C487.5625,274.0938 485.5625,276.1719 485.5625,278.8906 L485.5625,280.0156 C485.5625,282.5938 487.6719,284.4844 490.5625,284.4844 C491.7813,284.4844 492.9375,284.1875 493.6875,283.6406 C494.2656,283.2344 494.5938,282.7813 494.5938,282.3906 C494.5938,281.9375 494.2031,281.5469 493.7344,281.5469 C493.5156,281.5469 493.3125,281.625 493.125,281.8125 C492.6719,282.2969 492.6719,282.2969 492.4844,282.3906 C492.0625,282.6563 491.375,282.7813 490.6094,282.7813 C488.5625,282.7813 487.2656,281.6875 487.2656,279.9844 L487.2656,278.8906 C487.2656,277.1094 488.5156,275.7969 490.25,275.7969 C490.8281,275.7969 491.4375,275.9531 491.9063,276.2031 C492.3906,276.4844 492.5625,276.7031 492.6563,277.1094 C492.7188,277.5156 492.75,277.6406 492.8906,277.7656 C493.0313,277.9063 493.2656,278.0156 493.4844,278.0156 C493.75,278.0156 494.0156,277.875 494.1875,277.6563 C494.2969,277.5 494.3281,277.3125 494.3281,276.8906 L494.3281,275.4688 C494.3281,275.0313 494.3125,274.9063 494.2188,274.75 C494.0625,274.4844 493.7813,274.3438 493.4844,274.3438 C493.1875,274.3438 492.9844,274.4375 492.7656,274.75 L492.5938,274.6719 Z " fill="#000000"/><text fill="#000000" font-family="sans-serif" font-size="12" lengthAdjust="spacing" textLength="58" x="510.75" y="283.1543">ClienteDB</text><line style="stroke:#A80036;stroke-width:1.5;" x1="239.5" x2="807.5" y1="295" y2="295"/><line style="stroke:#A80036;stroke-width:1.5;" x1="239.5" x2="807.5" y1="303" y2="303"/><text fill="#000000" font-family="sans-serif" font-size="11" lengthAdjust="spacing" textLength="558" x="244.5" y="317.2104">+Cliente novoCliente(Integer NIF, String nome, String email, Endereco end, String numSegSocial,</text><text fill="#000000" font-family="sans-serif" font-size="11" lengthAdjust="spacing" textLength="382" x="248.5" y="330.0151">String password, Integer numCC, String dataValidade, Integer CCV)</text><text fill="#000000" font-family="sans-serif" font-size="11" lengthAdjust="spacing" textLength="176" x="244.5" y="342.8198">+validaCliente(Cliente cliente)</text><text fill="#000000" font-family="sans-serif" font-size="11" lengthAdjust="spacing" textLength="181" x="244.5" y="355.6245">+registaCliente(Cliente cliente)</text><text fill="#000000" font-family="sans-serif" font-size="11" lengthAdjust="spacing" textLength="158" x="244.5" y="368.4292">-addCliente(Cliente cliente)</text><!--MD5=[a8381305e32feabadf74eb10f0c047ba]
class EnderecoDB--><rect codeLine="30" fill="#FEFECE" filter="url(#f45akyyfyewk)" height="99.2188" id="EnderecoDB" style="stroke:#A80036;stroke-width:1.5;" width="544" x="573.5" y="405"/><ellipse cx="803.75" cy="421" fill="#ADD1B2" rx="11" ry="11" style="stroke:#A80036;stroke-width:1.0;"/><path d="M806.0938,416.6719 C805.1563,416.2344 804.5625,416.0938 803.6875,416.0938 C801.0625,416.0938 799.0625,418.1719 799.0625,420.8906 L799.0625,422.0156 C799.0625,424.5938 801.1719,426.4844 804.0625,426.4844 C805.2813,426.4844 806.4375,426.1875 807.1875,425.6406 C807.7656,425.2344 808.0938,424.7813 808.0938,424.3906 C808.0938,423.9375 807.7031,423.5469 807.2344,423.5469 C807.0156,423.5469 806.8125,423.625 806.625,423.8125 C806.1719,424.2969 806.1719,424.2969 805.9844,424.3906 C805.5625,424.6563 804.875,424.7813 804.1094,424.7813 C802.0625,424.7813 800.7656,423.6875 800.7656,421.9844 L800.7656,420.8906 C800.7656,419.1094 802.0156,417.7969 803.75,417.7969 C804.3281,417.7969 804.9375,417.9531 805.4063,418.2031 C805.8906,418.4844 806.0625,418.7031 806.1563,419.1094 C806.2188,419.5156 806.25,419.6406 806.3906,419.7656 C806.5313,419.9063 806.7656,420.0156 806.9844,420.0156 C807.25,420.0156 807.5156,419.875 807.6875,419.6563 C807.7969,419.5 807.8281,419.3125 807.8281,418.8906 L807.8281,417.4688 C807.8281,417.0313 807.8125,416.9063 807.7188,416.75 C807.5625,416.4844 807.2813,416.3438 806.9844,416.3438 C806.6875,416.3438 806.4844,416.4375 806.2656,416.75 L806.0938,416.6719 Z " fill="#000000"/><text fill="#000000" font-family="sans-serif" font-size="12" lengthAdjust="spacing" textLength="75" x="824.25" y="425.1543">EnderecoDB</text><line style="stroke:#A80036;stroke-width:1.5;" x1="574.5" x2="1116.5" y1="437" y2="437"/><line style="stroke:#A80036;stroke-width:1.5;" x1="574.5" x2="1116.5" y1="445" y2="445"/><text fill="#000000" font-family="sans-serif" font-size="11" lengthAdjust="spacing" textLength="532" x="579.5" y="459.2104">+Endereco novoEndereco(String morada, Double latitude, Double longitude, Double altitude)</text><text fill="#000000" font-family="sans-serif" font-size="11" lengthAdjust="spacing" textLength="185" x="579.5" y="472.0151">+validaEndereco(Endereco end)</text><text fill="#000000" font-family="sans-serif" font-size="11" lengthAdjust="spacing" textLength="190" x="579.5" y="484.8198">+registaEndereco(Endereco end)</text><text fill="#000000" font-family="sans-serif" font-size="11" lengthAdjust="spacing" textLength="167" x="579.5" y="497.6245">-addEndereco(Endereco end)</text><!--MD5=[71ca537e8ef433b13ff9c80f6a6e1275]
class DefinirClienteController--><rect codeLine="37" fill="#FEFECE" filter="url(#f45akyyfyewk)" height="86.4141" id="DefinirClienteController" style="stroke:#A80036;stroke-width:1.5;" width="695" x="7" y="116"/><ellipse cx="280.75" cy="132" fill="#ADD1B2" rx="11" ry="11" style="stroke:#A80036;stroke-width:1.0;"/><path d="M283.0938,127.6719 C282.1563,127.2344 281.5625,127.0938 280.6875,127.0938 C278.0625,127.0938 276.0625,129.1719 276.0625,131.8906 L276.0625,133.0156 C276.0625,135.5938 278.1719,137.4844 281.0625,137.4844 C282.2813,137.4844 283.4375,137.1875 284.1875,136.6406 C284.7656,136.2344 285.0938,135.7813 285.0938,135.3906 C285.0938,134.9375 284.7031,134.5469 284.2344,134.5469 C284.0156,134.5469 283.8125,134.625 283.625,134.8125 C283.1719,135.2969 283.1719,135.2969 282.9844,135.3906 C282.5625,135.6563 281.875,135.7813 281.1094,135.7813 C279.0625,135.7813 277.7656,134.6875 277.7656,132.9844 L277.7656,131.8906 C277.7656,130.1094 279.0156,128.7969 280.75,128.7969 C281.3281,128.7969 281.9375,128.9531 282.4063,129.2031 C282.8906,129.4844 283.0625,129.7031 283.1563,130.1094 C283.2188,130.5156 283.25,130.6406 283.3906,130.7656 C283.5313,130.9063 283.7656,131.0156 283.9844,131.0156 C284.25,131.0156 284.5156,130.875 284.6875,130.6563 C284.7969,130.5 284.8281,130.3125 284.8281,129.8906 L284.8281,128.4688 C284.8281,128.0313 284.8125,127.9063 284.7188,127.75 C284.5625,127.4844 284.2813,127.3438 283.9844,127.3438 C283.6875,127.3438 283.4844,127.4375 283.2656,127.75 L283.0938,127.6719 Z " fill="#000000"/><text fill="#000000" font-family="sans-serif" font-size="12" lengthAdjust="spacing" textLength="139" x="301.25" y="136.1543">DefinirClienteController</text><line style="stroke:#A80036;stroke-width:1.5;" x1="8" x2="701" y1="148" y2="148"/><line style="stroke:#A80036;stroke-width:1.5;" x1="8" x2="701" y1="156" y2="156"/><text fill="#000000" font-family="sans-serif" font-size="11" lengthAdjust="spacing" textLength="679" x="13" y="170.2104">+novoCliente(Integer NIF, String nome, String email, String morada, Double latitude, Double longitude, Double altitude</text><text fill="#000000" font-family="sans-serif" font-size="11" lengthAdjust="spacing" textLength="508" x="17" y="183.0151">String numSegSocial, String password, Integer numCC, String dataValidade, Integer CCV)</text><text fill="#000000" font-family="sans-serif" font-size="11" lengthAdjust="spacing" textLength="97" x="13" y="195.8198">+registaCliente()</text><!--MD5=[c0fb86b0564349bf5bdacc636ec0dd0e]
class DefinirClienteUI--><rect codeLine="42" fill="#FEFECE" filter="url(#f45akyyfyewk)" height="48" id="DefinirClienteUI" style="stroke:#A80036;stroke-width:1.5;" width="124" x="292.5" y="7"/><ellipse cx="307.5" cy="23" fill="#ADD1B2" rx="11" ry="11" style="stroke:#A80036;stroke-width:1.0;"/><path d="M309.8438,18.6719 C308.9063,18.2344 308.3125,18.0938 307.4375,18.0938 C304.8125,18.0938 302.8125,20.1719 302.8125,22.8906 L302.8125,24.0156 C302.8125,26.5938 304.9219,28.4844 307.8125,28.4844 C309.0313,28.4844 310.1875,28.1875 310.9375,27.6406 C311.5156,27.2344 311.8438,26.7813 311.8438,26.3906 C311.8438,25.9375 311.4531,25.5469 310.9844,25.5469 C310.7656,25.5469 310.5625,25.625 310.375,25.8125 C309.9219,26.2969 309.9219,26.2969 309.7344,26.3906 C309.3125,26.6563 308.625,26.7813 307.8594,26.7813 C305.8125,26.7813 304.5156,25.6875 304.5156,23.9844 L304.5156,22.8906 C304.5156,21.1094 305.7656,19.7969 307.5,19.7969 C308.0781,19.7969 308.6875,19.9531 309.1563,20.2031 C309.6406,20.4844 309.8125,20.7031 309.9063,21.1094 C309.9688,21.5156 310,21.6406 310.1406,21.7656 C310.2813,21.9063 310.5156,22.0156 310.7344,22.0156 C311,22.0156 311.2656,21.875 311.4375,21.6563 C311.5469,21.5 311.5781,21.3125 311.5781,20.8906 L311.5781,19.4688 C311.5781,19.0313 311.5625,18.9063 311.4688,18.75 C311.3125,18.4844 311.0313,18.3438 310.7344,18.3438 C310.4375,18.3438 310.2344,18.4375 310.0156,18.75 L309.8438,18.6719 Z " fill="#000000"/><text fill="#000000" font-family="sans-serif" font-size="12" lengthAdjust="spacing" textLength="92" x="321.5" y="27.1543">DefinirClienteUI</text><line style="stroke:#A80036;stroke-width:1.5;" x1="293.5" x2="415.5" y1="39" y2="39"/><line style="stroke:#A80036;stroke-width:1.5;" x1="293.5" x2="415.5" y1="47" y2="47"/><!--MD5=[2df4f06df0e0a044116713e3d31f1710]
link DefinirClienteUI to DefinirClienteController--><path codeLine="46" d="M354.5,55.11 C354.5,70.631 354.5,91.639 354.5,110.625 " fill="none" id="DefinirClienteUI-to-DefinirClienteController" style="stroke:#A80036;stroke-width:1.0;stroke-dasharray:7.0,7.0;"/><polygon fill="#A80036" points="354.5,115.921,358.5,106.921,354.5,110.921,350.5,106.921,354.5,115.921" style="stroke:#A80036;stroke-width:1.0;"/><!--MD5=[6dd4ee26d1a1908e30b537e576994049]
link DefinirClienteController to ClienteDB--><path codeLine="47" d="M399.789,202.341 C418.474,219.81 440.446,240.351 460.647,259.238 " fill="none" id="DefinirClienteController-to-ClienteDB" style="stroke:#A80036;stroke-width:1.0;stroke-dasharray:7.0,7.0;"/><polygon fill="#A80036" points="464.398,262.744,460.5543,253.6761,460.7452,259.3298,455.0916,259.5206,464.398,262.744" style="stroke:#A80036;stroke-width:1.0;"/><!--MD5=[51a8cadb7bf239968095df55bd0a70f3]
link DefinirClienteController to EnderecoDB--><path codeLine="48" d="M678.717,202.067 C745.941,217.164 803.418,237.087 826.5,263 C859.109,299.609 860.448,357.275 855.726,399.579 " fill="none" id="DefinirClienteController-to-EnderecoDB" style="stroke:#A80036;stroke-width:1.0;stroke-dasharray:7.0,7.0;"/><polygon fill="#A80036" points="855.122,404.659,860.1586,396.1954,855.7135,399.6941,852.2148,395.249,855.122,404.659" style="stroke:#A80036;stroke-width:1.0;"/><!--MD5=[3bd44b91ab14edcca89780065aa4fc28]
link DefinirClienteController to Cliente--><path codeLine="49" d="M275.723,202.068 C253.767,218.016 232.624,238.389 220.5,263 C198.503,307.654 203.167,328.337 220.5,375 C242.272,433.614 284.967,487.611 326.371,529.991 " fill="none" id="DefinirClienteController-to-Cliente" style="stroke:#A80036;stroke-width:1.0;stroke-dasharray:7.0,7.0;"/><polygon fill="#A80036" points="330.115,533.796,326.6539,524.5753,326.6082,530.232,320.9515,530.1863,330.115,533.796" style="stroke:#A80036;stroke-width:1.0;"/><!--MD5=[43597bbb85a4e4e141e0228991eb15a3]
link DefinirClienteController to Endereco--><path codeLine="50" d="M258.224,202.155 C234.301,217.611 211.732,237.691 198.5,263 C106.219,439.508 61.5324,540.729 166.5,710 C186.067,741.553 215.675,765.8 248.127,784.354 " fill="none" id="DefinirClienteController-to-Endereco" style="stroke:#A80036;stroke-width:1.0;stroke-dasharray:7.0,7.0;"/><polygon fill="#A80036" points="252.515,786.818,246.6276,778.9226,248.1558,784.3691,242.7093,785.8973,252.515,786.818" style="stroke:#A80036;stroke-width:1.0;"/><!--MD5=[1ac7a80d7d1bce9ba8d5537593646246]
link ClienteDB to Cliente--><path codeLine="52" d="M506.809,375.208 C493.811,418.203 475.484,478.823 460.283,529.103 " fill="none" id="ClienteDB-to-Cliente" style="stroke:#A80036;stroke-width:1.0;"/><polygon fill="#A80036" points="458.822,533.935,465.2558,526.478,460.2692,529.149,457.5982,524.1625,458.822,533.935" style="stroke:#A80036;stroke-width:1.0;"/><text fill="#000000" font-family="sans-serif" font-size="13" lengthAdjust="spacing" textLength="41" x="498.5" y="459.0669">possui</text><text fill="#000000" font-family="sans-serif" font-size="13" lengthAdjust="spacing" textLength="8" x="496.2873" y="395.046">1</text><text fill="#000000" font-family="sans-serif" font-size="13" lengthAdjust="spacing" textLength="7" x="453.7833" y="522.793">*</text><!--MD5=[c023e2c3fa599b931e4bde319636976a]
link EnderecoDB to Endereco--><path codeLine="53" d="M827.487,504.245 C804.775,560.06 760.998,651.329 698.5,710 C666.354,740.177 626,764.923 586.508,784.499 " fill="none" id="EnderecoDB-to-Endereco" style="stroke:#A80036;stroke-width:1.0;"/><polygon fill="#A80036" points="581.697,786.861,591.5386,786.4842,586.185,784.657,588.0122,779.3034,581.697,786.861" style="stroke:#A80036;stroke-width:1.0;"/><text fill="#000000" font-family="sans-serif" font-size="13" lengthAdjust="spacing" textLength="41" x="814.5" y="626.5669">possui</text><text fill="#000000" font-family="sans-serif" font-size="13" lengthAdjust="spacing" textLength="8" x="816.3914" y="524.3559">1</text><text fill="#000000" font-family="sans-serif" font-size="13" lengthAdjust="spacing" textLength="7" x="593.3644" y="775.7812">*</text><!--MD5=[43a7c1a046aa41d1c9842e3954366be4]
link Cliente to Endereco--><path codeLine="54" d="M432.5,710.184 C432.5,734.147 432.5,759.599 432.5,781.682 " fill="none" id="Cliente-to-Endereco" style="stroke:#A80036;stroke-width:1.0;"/><polygon fill="#A80036" points="432.5,786.926,436.5,777.926,432.5,781.926,428.5,777.926,432.5,786.926" style="stroke:#A80036;stroke-width:1.0;"/><text fill="#000000" font-family="sans-serif" font-size="13" lengthAdjust="spacing" textLength="26" x="433.5" y="753.0669">tem</text><text fill="#000000" font-family="sans-serif" font-size="13" lengthAdjust="spacing" textLength="8" x="424.1688" y="730.1783">1</text><text fill="#000000" font-family="sans-serif" font-size="13" lengthAdjust="spacing" textLength="8" x="423.9875" y="775.8545">1</text><!--MD5=[025850d685feccf10b3bbe3314a2405c]
@startuml
skinparam classAttributeIconSize 0

class Cliente {
  -Integer NIF
  -String nome
  -String email
  -String numSegSocial
  -String password
  -Integer numCC
  -String dataValidade
  -Integer CCV
  +Cliente(Integer NIF, String nome, String email, Endereco end, String numSegSocial,\n String password, Integer numCC, String dataValidade, Integer CCV)
}

class Endereco {
  -String morada
  -Double latitude
  -Double longitude
  -Double altitude 
  +Endereco(String morada, Double latitude, Double longitude, Double altitude)
}

class ClienteDB {
  +Cliente novoCliente(Integer NIF, String nome, String email, Endereco end, String numSegSocial,\n String password, Integer numCC, String dataValidade, Integer CCV)
  +validaCliente(Cliente cliente)
  +registaCliente(Cliente cliente)
  -addCliente(Cliente cliente)
}

class EnderecoDB {
  +Endereco novoEndereco(String morada, Double latitude, Double longitude, Double altitude)
  +validaEndereco(Endereco end)
  +registaEndereco(Endereco end)
  -addEndereco(Endereco end)
}

class DefinirClienteController {
  +novoCliente(Integer NIF, String nome, String email, String morada, Double latitude, Double longitude, Double altitude \n String numSegSocial, String password, Integer numCC, String dataValidade, Integer CCV)
  +registaCliente()
}

class DefinirClienteUI {
  
}

DefinirClienteUI ..> DefinirClienteController
DefinirClienteController ..> ClienteDB
DefinirClienteController ..> EnderecoDB
DefinirClienteController ..> Cliente
DefinirClienteController ..> Endereco

ClienteDB "1" - -> "*" Cliente : possui
EnderecoDB "1" - -> "*" Endereco : possui
Cliente "1" - -> "1" Endereco : tem
@enduml

PlantUML version 1.2020.27beta7(Unknown compile time)
(GPL source distribution)
Java Runtime: Java(TM) SE Runtime Environment
JVM: Java HotSpot(TM) 64-Bit Server VM
Default Encoding: UTF-8
Language: en
Country: US
--></g></svg>