<?xml version="1.0" encoding="UTF-8" standalone="no"?><svg xmlns="http://www.w3.org/2000/svg" xmlns:xlink="http://www.w3.org/1999/xlink" contentScriptType="application/ecmascript" contentStyleType="text/css" height="938px" preserveAspectRatio="none" style="width:1805px;height:938px;" version="1.1" viewBox="0 0 1805 938" width="1805px" zoomAndPan="magnify"><defs><filter height="300%" id="f1hf4vc6rtd9td" width="300%" x="-1" y="-1"><feGaussianBlur result="blurOut" stdDeviation="2.0"/><feColorMatrix in="blurOut" result="blurOut2" type="matrix" values="0 0 0 0 0 0 0 0 0 0 0 0 0 0 0 0 0 0 .4 0"/><feOffset dx="4.0" dy="4.0" in="blurOut2" result="blurOut3"/><feBlend in="SourceGraphic" in2="blurOut3" mode="normal"/></filter></defs><g><!--MD5=[20a748d5ee336a9a91751b0a3d4f0beb]
class Cliente--><rect codeLine="3" fill="#FEFECE" filter="url(#f1hf4vc6rtd9td)" height="163.2422" id="Cliente" style="stroke:#A80036;stroke-width:1.5;" width="785" x="396.5" y="560"/><ellipse cx="764.25" cy="576" fill="#ADD1B2" rx="11" ry="11" style="stroke:#A80036;stroke-width:1.0;"/><path d="M766.5938,571.6719 C765.6563,571.2344 765.0625,571.0938 764.1875,571.0938 C761.5625,571.0938 759.5625,573.1719 759.5625,575.8906 L759.5625,577.0156 C759.5625,579.5938 761.6719,581.4844 764.5625,581.4844 C765.7813,581.4844 766.9375,581.1875 767.6875,580.6406 C768.2656,580.2344 768.5938,579.7813 768.5938,579.3906 C768.5938,578.9375 768.2031,578.5469 767.7344,578.5469 C767.5156,578.5469 767.3125,578.625 767.125,578.8125 C766.6719,579.2969 766.6719,579.2969 766.4844,579.3906 C766.0625,579.6563 765.375,579.7813 764.6094,579.7813 C762.5625,579.7813 761.2656,578.6875 761.2656,576.9844 L761.2656,575.8906 C761.2656,574.1094 762.5156,572.7969 764.25,572.7969 C764.8281,572.7969 765.4375,572.9531 765.9063,573.2031 C766.3906,573.4844 766.5625,573.7031 766.6563,574.1094 C766.7188,574.5156 766.75,574.6406 766.8906,574.7656 C767.0313,574.9063 767.2656,575.0156 767.4844,575.0156 C767.75,575.0156 768.0156,574.875 768.1875,574.6563 C768.2969,574.5 768.3281,574.3125 768.3281,573.8906 L768.3281,572.4688 C768.3281,572.0313 768.3125,571.9063 768.2188,571.75 C768.0625,571.4844 767.7813,571.3438 767.4844,571.3438 C767.1875,571.3438 766.9844,571.4375 766.7656,571.75 L766.5938,571.6719 Z " fill="#000000"/><text fill="#000000" font-family="sans-serif" font-size="12" lengthAdjust="spacing" textLength="41" x="784.75" y="580.1543">Cliente</text><line style="stroke:#A80036;stroke-width:1.5;" x1="397.5" x2="1180.5" y1="592" y2="592"/><text fill="#000000" font-family="sans-serif" font-size="11" lengthAdjust="spacing" textLength="66" x="402.5" y="606.2104">-Integer NIF</text><text fill="#000000" font-family="sans-serif" font-size="11" lengthAdjust="spacing" textLength="74" x="402.5" y="619.0151">-String nome</text><text fill="#000000" font-family="sans-serif" font-size="11" lengthAdjust="spacing" textLength="73" x="402.5" y="631.8198">-String email</text><text fill="#000000" font-family="sans-serif" font-size="11" lengthAdjust="spacing" textLength="123" x="402.5" y="644.6245">-String numSegSocial</text><text fill="#000000" font-family="sans-serif" font-size="11" lengthAdjust="spacing" textLength="94" x="402.5" y="657.4292">-String password</text><text fill="#000000" font-family="sans-serif" font-size="11" lengthAdjust="spacing" textLength="94" x="402.5" y="670.2339">-Integer creditos</text><text fill="#000000" font-family="sans-serif" font-size="11" lengthAdjust="spacing" textLength="84" x="402.5" y="683.0386">-String morada</text><text fill="#000000" font-family="sans-serif" font-size="11" lengthAdjust="spacing" textLength="90" x="402.5" y="695.8433">-Integer numCC</text><line style="stroke:#A80036;stroke-width:1.5;" x1="397.5" x2="1180.5" y1="702.4375" y2="702.4375"/><text fill="#000000" font-family="sans-serif" font-size="11" lengthAdjust="spacing" textLength="773" x="402.5" y="716.6479">+Cliente(Integer NIF, String nome, String email, String numSegSocial, Integer creditos, String morada, Integer numCC, String password)</text><!--MD5=[5dd1d6732c071e710b9290b531f2fa3b]
class Utilizador--><rect codeLine="15" fill="#FEFECE" filter="url(#f1hf4vc6rtd9td)" height="124.8281" id="Utilizador" style="stroke:#A80036;stroke-width:1.5;" width="520" x="7" y="800"/><ellipse cx="234.25" cy="816" fill="#ADD1B2" rx="11" ry="11" style="stroke:#A80036;stroke-width:1.0;"/><path d="M236.5938,811.6719 C235.6563,811.2344 235.0625,811.0938 234.1875,811.0938 C231.5625,811.0938 229.5625,813.1719 229.5625,815.8906 L229.5625,817.0156 C229.5625,819.5938 231.6719,821.4844 234.5625,821.4844 C235.7813,821.4844 236.9375,821.1875 237.6875,820.6406 C238.2656,820.2344 238.5938,819.7813 238.5938,819.3906 C238.5938,818.9375 238.2031,818.5469 237.7344,818.5469 C237.5156,818.5469 237.3125,818.625 237.125,818.8125 C236.6719,819.2969 236.6719,819.2969 236.4844,819.3906 C236.0625,819.6563 235.375,819.7813 234.6094,819.7813 C232.5625,819.7813 231.2656,818.6875 231.2656,816.9844 L231.2656,815.8906 C231.2656,814.1094 232.5156,812.7969 234.25,812.7969 C234.8281,812.7969 235.4375,812.9531 235.9063,813.2031 C236.3906,813.4844 236.5625,813.7031 236.6563,814.1094 C236.7188,814.5156 236.75,814.6406 236.8906,814.7656 C237.0313,814.9063 237.2656,815.0156 237.4844,815.0156 C237.75,815.0156 238.0156,814.875 238.1875,814.6563 C238.2969,814.5 238.3281,814.3125 238.3281,813.8906 L238.3281,812.4688 C238.3281,812.0313 238.3125,811.9063 238.2188,811.75 C238.0625,811.4844 237.7813,811.3438 237.4844,811.3438 C237.1875,811.3438 236.9844,811.4375 236.7656,811.75 L236.5938,811.6719 Z " fill="#000000"/><text fill="#000000" font-family="sans-serif" font-size="12" lengthAdjust="spacing" textLength="57" x="254.75" y="820.1543">Utilizador</text><line style="stroke:#A80036;stroke-width:1.5;" x1="8" x2="526" y1="832" y2="832"/><text fill="#000000" font-family="sans-serif" font-size="11" lengthAdjust="spacing" textLength="66" x="13" y="846.2104">-Integer NIF</text><text fill="#000000" font-family="sans-serif" font-size="11" lengthAdjust="spacing" textLength="74" x="13" y="859.0151">-String nome</text><text fill="#000000" font-family="sans-serif" font-size="11" lengthAdjust="spacing" textLength="73" x="13" y="871.8198">-String email</text><text fill="#000000" font-family="sans-serif" font-size="11" lengthAdjust="spacing" textLength="123" x="13" y="884.6245">-String numSegSocial</text><text fill="#000000" font-family="sans-serif" font-size="11" lengthAdjust="spacing" textLength="94" x="13" y="897.4292">-String password</text><line style="stroke:#A80036;stroke-width:1.5;" x1="8" x2="526" y1="904.0234" y2="904.0234"/><text fill="#000000" font-family="sans-serif" font-size="11" lengthAdjust="spacing" textLength="508" x="13" y="918.2339">+Utilizador(Integer NIF, String nome, String email, String numSegSocial, String password)</text><!--MD5=[36c1942e8942a3e4f47e6de3733e3d18]
class Endereco--><rect codeLine="24" fill="#FEFECE" filter="url(#f1hf4vc6rtd9td)" height="112.0234" id="Endereco" style="stroke:#A80036;stroke-width:1.5;" width="458" x="562" y="806.5"/><ellipse cx="757.75" cy="822.5" fill="#ADD1B2" rx="11" ry="11" style="stroke:#A80036;stroke-width:1.0;"/><path d="M760.0938,818.1719 C759.1563,817.7344 758.5625,817.5938 757.6875,817.5938 C755.0625,817.5938 753.0625,819.6719 753.0625,822.3906 L753.0625,823.5156 C753.0625,826.0938 755.1719,827.9844 758.0625,827.9844 C759.2813,827.9844 760.4375,827.6875 761.1875,827.1406 C761.7656,826.7344 762.0938,826.2813 762.0938,825.8906 C762.0938,825.4375 761.7031,825.0469 761.2344,825.0469 C761.0156,825.0469 760.8125,825.125 760.625,825.3125 C760.1719,825.7969 760.1719,825.7969 759.9844,825.8906 C759.5625,826.1563 758.875,826.2813 758.1094,826.2813 C756.0625,826.2813 754.7656,825.1875 754.7656,823.4844 L754.7656,822.3906 C754.7656,820.6094 756.0156,819.2969 757.75,819.2969 C758.3281,819.2969 758.9375,819.4531 759.4063,819.7031 C759.8906,819.9844 760.0625,820.2031 760.1563,820.6094 C760.2188,821.0156 760.25,821.1406 760.3906,821.2656 C760.5313,821.4063 760.7656,821.5156 760.9844,821.5156 C761.25,821.5156 761.5156,821.375 761.6875,821.1563 C761.7969,821 761.8281,820.8125 761.8281,820.3906 L761.8281,818.9688 C761.8281,818.5313 761.8125,818.4063 761.7188,818.25 C761.5625,817.9844 761.2813,817.8438 760.9844,817.8438 C760.6875,817.8438 760.4844,817.9375 760.2656,818.25 L760.0938,818.1719 Z " fill="#000000"/><text fill="#000000" font-family="sans-serif" font-size="12" lengthAdjust="spacing" textLength="58" x="778.25" y="826.6543">Endereco</text><line style="stroke:#A80036;stroke-width:1.5;" x1="563" x2="1019" y1="838.5" y2="838.5"/><text fill="#000000" font-family="sans-serif" font-size="11" lengthAdjust="spacing" textLength="84" x="568" y="852.7104">-String morada</text><text fill="#000000" font-family="sans-serif" font-size="11" lengthAdjust="spacing" textLength="92" x="568" y="865.5151">-Double latitude</text><text fill="#000000" font-family="sans-serif" font-size="11" lengthAdjust="spacing" textLength="102" x="568" y="878.3198">-Double longitude</text><text fill="#000000" font-family="sans-serif" font-size="11" lengthAdjust="spacing" textLength="92" x="568" y="891.1245">-Double altitude</text><line style="stroke:#A80036;stroke-width:1.5;" x1="563" x2="1019" y1="897.7188" y2="897.7188"/><text fill="#000000" font-family="sans-serif" font-size="11" lengthAdjust="spacing" textLength="446" x="568" y="911.9292">+Endereco(String morada, Double latitude, Double longitude, Double altitude)</text><!--MD5=[a13ca1da61a66d544daddca6fa0a1a30]
class Cartao--><rect codeLine="32" fill="#FEFECE" filter="url(#f1hf4vc6rtd9td)" height="99.2188" id="Cartao" style="stroke:#A80036;stroke-width:1.5;" width="351" x="1362.5" y="813"/><ellipse cx="1514.25" cy="829" fill="#ADD1B2" rx="11" ry="11" style="stroke:#A80036;stroke-width:1.0;"/><path d="M1516.5938,824.6719 C1515.6563,824.2344 1515.0625,824.0938 1514.1875,824.0938 C1511.5625,824.0938 1509.5625,826.1719 1509.5625,828.8906 L1509.5625,830.0156 C1509.5625,832.5938 1511.6719,834.4844 1514.5625,834.4844 C1515.7813,834.4844 1516.9375,834.1875 1517.6875,833.6406 C1518.2656,833.2344 1518.5938,832.7813 1518.5938,832.3906 C1518.5938,831.9375 1518.2031,831.5469 1517.7344,831.5469 C1517.5156,831.5469 1517.3125,831.625 1517.125,831.8125 C1516.6719,832.2969 1516.6719,832.2969 1516.4844,832.3906 C1516.0625,832.6563 1515.375,832.7813 1514.6094,832.7813 C1512.5625,832.7813 1511.2656,831.6875 1511.2656,829.9844 L1511.2656,828.8906 C1511.2656,827.1094 1512.5156,825.7969 1514.25,825.7969 C1514.8281,825.7969 1515.4375,825.9531 1515.9063,826.2031 C1516.3906,826.4844 1516.5625,826.7031 1516.6563,827.1094 C1516.7188,827.5156 1516.75,827.6406 1516.8906,827.7656 C1517.0313,827.9063 1517.2656,828.0156 1517.4844,828.0156 C1517.75,828.0156 1518.0156,827.875 1518.1875,827.6563 C1518.2969,827.5 1518.3281,827.3125 1518.3281,826.8906 L1518.3281,825.4688 C1518.3281,825.0313 1518.3125,824.9063 1518.2188,824.75 C1518.0625,824.4844 1517.7813,824.3438 1517.4844,824.3438 C1517.1875,824.3438 1516.9844,824.4375 1516.7656,824.75 L1516.5938,824.6719 Z " fill="#000000"/><text fill="#000000" font-family="sans-serif" font-size="12" lengthAdjust="spacing" textLength="39" x="1534.75" y="833.1543">Cartao</text><line style="stroke:#A80036;stroke-width:1.5;" x1="1363.5" x2="1712.5" y1="845" y2="845"/><text fill="#000000" font-family="sans-serif" font-size="11" lengthAdjust="spacing" textLength="90" x="1368.5" y="859.2104">-Integer numCC</text><text fill="#000000" font-family="sans-serif" font-size="11" lengthAdjust="spacing" textLength="116" x="1368.5" y="872.0151">-String dataValidade</text><text fill="#000000" font-family="sans-serif" font-size="11" lengthAdjust="spacing" textLength="73" x="1368.5" y="884.8198">-Integer CCV</text><line style="stroke:#A80036;stroke-width:1.5;" x1="1363.5" x2="1712.5" y1="891.4141" y2="891.4141"/><text fill="#000000" font-family="sans-serif" font-size="11" lengthAdjust="spacing" textLength="339" x="1368.5" y="905.6245">+Cartao(Integer numCC, String dataValidade, Integer CCV))</text><!--MD5=[3b6b8abd81b442aa81592fe2bb0f51b5]
class ClienteDB--><rect codeLine="39" fill="#FEFECE" filter="url(#f1hf4vc6rtd9td)" height="99.2188" id="ClienteDB" style="stroke:#A80036;stroke-width:1.5;" width="765" x="393.5" y="302"/><ellipse cx="742.75" cy="318" fill="#ADD1B2" rx="11" ry="11" style="stroke:#A80036;stroke-width:1.0;"/><path d="M745.0938,313.6719 C744.1563,313.2344 743.5625,313.0938 742.6875,313.0938 C740.0625,313.0938 738.0625,315.1719 738.0625,317.8906 L738.0625,319.0156 C738.0625,321.5938 740.1719,323.4844 743.0625,323.4844 C744.2813,323.4844 745.4375,323.1875 746.1875,322.6406 C746.7656,322.2344 747.0938,321.7813 747.0938,321.3906 C747.0938,320.9375 746.7031,320.5469 746.2344,320.5469 C746.0156,320.5469 745.8125,320.625 745.625,320.8125 C745.1719,321.2969 745.1719,321.2969 744.9844,321.3906 C744.5625,321.6563 743.875,321.7813 743.1094,321.7813 C741.0625,321.7813 739.7656,320.6875 739.7656,318.9844 L739.7656,317.8906 C739.7656,316.1094 741.0156,314.7969 742.75,314.7969 C743.3281,314.7969 743.9375,314.9531 744.4063,315.2031 C744.8906,315.4844 745.0625,315.7031 745.1563,316.1094 C745.2188,316.5156 745.25,316.6406 745.3906,316.7656 C745.5313,316.9063 745.7656,317.0156 745.9844,317.0156 C746.25,317.0156 746.5156,316.875 746.6875,316.6563 C746.7969,316.5 746.8281,316.3125 746.8281,315.8906 L746.8281,314.4688 C746.8281,314.0313 746.8125,313.9063 746.7188,313.75 C746.5625,313.4844 746.2813,313.3438 745.9844,313.3438 C745.6875,313.3438 745.4844,313.4375 745.2656,313.75 L745.0938,313.6719 Z " fill="#000000"/><text fill="#000000" font-family="sans-serif" font-size="12" lengthAdjust="spacing" textLength="58" x="763.25" y="322.1543">ClienteDB</text><line style="stroke:#A80036;stroke-width:1.5;" x1="394.5" x2="1157.5" y1="334" y2="334"/><line style="stroke:#A80036;stroke-width:1.5;" x1="394.5" x2="1157.5" y1="342" y2="342"/><text fill="#000000" font-family="sans-serif" font-size="11" lengthAdjust="spacing" textLength="753" x="399.5" y="356.2104">+Cliente novoCliente(Integer NIF, String nome, String email, String numSegSocial, String morada, Integer numCC, String password))</text><text fill="#000000" font-family="sans-serif" font-size="11" lengthAdjust="spacing" textLength="176" x="399.5" y="369.0151">+validaCliente(Cliente cliente)</text><text fill="#000000" font-family="sans-serif" font-size="11" lengthAdjust="spacing" textLength="181" x="399.5" y="381.8198">+registaCliente(Cliente cliente)</text><text fill="#000000" font-family="sans-serif" font-size="11" lengthAdjust="spacing" textLength="158" x="399.5" y="394.6245">-addCliente(Cliente cliente)</text><!--MD5=[da3aebcab657b849d677ebe5cc1c2088]
class UtilizadorDB--><rect codeLine="46" fill="#FEFECE" filter="url(#f1hf4vc6rtd9td)" height="86.4141" id="UtilizadorDB" style="stroke:#A80036;stroke-width:1.5;" width="205" x="40.5" y="437.5"/><ellipse cx="101.75" cy="453.5" fill="#ADD1B2" rx="11" ry="11" style="stroke:#A80036;stroke-width:1.0;"/><path d="M104.0938,449.1719 C103.1563,448.7344 102.5625,448.5938 101.6875,448.5938 C99.0625,448.5938 97.0625,450.6719 97.0625,453.3906 L97.0625,454.5156 C97.0625,457.0938 99.1719,458.9844 102.0625,458.9844 C103.2813,458.9844 104.4375,458.6875 105.1875,458.1406 C105.7656,457.7344 106.0938,457.2813 106.0938,456.8906 C106.0938,456.4375 105.7031,456.0469 105.2344,456.0469 C105.0156,456.0469 104.8125,456.125 104.625,456.3125 C104.1719,456.7969 104.1719,456.7969 103.9844,456.8906 C103.5625,457.1563 102.875,457.2813 102.1094,457.2813 C100.0625,457.2813 98.7656,456.1875 98.7656,454.4844 L98.7656,453.3906 C98.7656,451.6094 100.0156,450.2969 101.75,450.2969 C102.3281,450.2969 102.9375,450.4531 103.4063,450.7031 C103.8906,450.9844 104.0625,451.2031 104.1563,451.6094 C104.2188,452.0156 104.25,452.1406 104.3906,452.2656 C104.5313,452.4063 104.7656,452.5156 104.9844,452.5156 C105.25,452.5156 105.5156,452.375 105.6875,452.1563 C105.7969,452 105.8281,451.8125 105.8281,451.3906 L105.8281,449.9688 C105.8281,449.5313 105.8125,449.4063 105.7188,449.25 C105.5625,448.9844 105.2813,448.8438 104.9844,448.8438 C104.6875,448.8438 104.4844,448.9375 104.2656,449.25 L104.0938,449.1719 Z " fill="#000000"/><text fill="#000000" font-family="sans-serif" font-size="12" lengthAdjust="spacing" textLength="74" x="122.25" y="457.6543">UtilizadorDB</text><line style="stroke:#A80036;stroke-width:1.5;" x1="41.5" x2="244.5" y1="469.5" y2="469.5"/><line style="stroke:#A80036;stroke-width:1.5;" x1="41.5" x2="244.5" y1="477.5" y2="477.5"/><text fill="#000000" font-family="sans-serif" font-size="11" lengthAdjust="spacing" textLength="193" x="46.5" y="491.7104">+registaUtilizador(Cliente cliente)</text><text fill="#000000" font-family="sans-serif" font-size="11" lengthAdjust="spacing" textLength="188" x="46.5" y="504.5151">+validaUtilizador(Cliente cliente)</text><text fill="#000000" font-family="sans-serif" font-size="11" lengthAdjust="spacing" textLength="170" x="46.5" y="517.3198">-addUtilizador(Cliente cliente)</text><!--MD5=[a8381305e32feabadf74eb10f0c047ba]
class EnderecoDB--><rect codeLine="52" fill="#FEFECE" filter="url(#f1hf4vc6rtd9td)" height="99.2188" id="EnderecoDB" style="stroke:#A80036;stroke-width:1.5;" width="544" x="1011" y="431"/><ellipse cx="1241.25" cy="447" fill="#ADD1B2" rx="11" ry="11" style="stroke:#A80036;stroke-width:1.0;"/><path d="M1243.5938,442.6719 C1242.6563,442.2344 1242.0625,442.0938 1241.1875,442.0938 C1238.5625,442.0938 1236.5625,444.1719 1236.5625,446.8906 L1236.5625,448.0156 C1236.5625,450.5938 1238.6719,452.4844 1241.5625,452.4844 C1242.7813,452.4844 1243.9375,452.1875 1244.6875,451.6406 C1245.2656,451.2344 1245.5938,450.7813 1245.5938,450.3906 C1245.5938,449.9375 1245.2031,449.5469 1244.7344,449.5469 C1244.5156,449.5469 1244.3125,449.625 1244.125,449.8125 C1243.6719,450.2969 1243.6719,450.2969 1243.4844,450.3906 C1243.0625,450.6563 1242.375,450.7813 1241.6094,450.7813 C1239.5625,450.7813 1238.2656,449.6875 1238.2656,447.9844 L1238.2656,446.8906 C1238.2656,445.1094 1239.5156,443.7969 1241.25,443.7969 C1241.8281,443.7969 1242.4375,443.9531 1242.9063,444.2031 C1243.3906,444.4844 1243.5625,444.7031 1243.6563,445.1094 C1243.7188,445.5156 1243.75,445.6406 1243.8906,445.7656 C1244.0313,445.9063 1244.2656,446.0156 1244.4844,446.0156 C1244.75,446.0156 1245.0156,445.875 1245.1875,445.6563 C1245.2969,445.5 1245.3281,445.3125 1245.3281,444.8906 L1245.3281,443.4688 C1245.3281,443.0313 1245.3125,442.9063 1245.2188,442.75 C1245.0625,442.4844 1244.7813,442.3438 1244.4844,442.3438 C1244.1875,442.3438 1243.9844,442.4375 1243.7656,442.75 L1243.5938,442.6719 Z " fill="#000000"/><text fill="#000000" font-family="sans-serif" font-size="12" lengthAdjust="spacing" textLength="75" x="1261.75" y="451.1543">EnderecoDB</text><line style="stroke:#A80036;stroke-width:1.5;" x1="1012" x2="1554" y1="463" y2="463"/><line style="stroke:#A80036;stroke-width:1.5;" x1="1012" x2="1554" y1="471" y2="471"/><text fill="#000000" font-family="sans-serif" font-size="11" lengthAdjust="spacing" textLength="532" x="1017" y="485.2104">+Endereco novoEndereco(String morada, Double latitude, Double longitude, Double altitude)</text><text fill="#000000" font-family="sans-serif" font-size="11" lengthAdjust="spacing" textLength="185" x="1017" y="498.0151">+validaEndereco(Endereco end)</text><text fill="#000000" font-family="sans-serif" font-size="11" lengthAdjust="spacing" textLength="190" x="1017" y="510.8198">+registaEndereco(Endereco end)</text><text fill="#000000" font-family="sans-serif" font-size="11" lengthAdjust="spacing" textLength="167" x="1017" y="523.6245">-addEndereco(Endereco end)</text><!--MD5=[e82dbf20ebaf0e6f68c784813d115b99]
class CartaoDB--><rect codeLine="59" fill="#FEFECE" filter="url(#f1hf4vc6rtd9td)" height="99.2188" id="CartaoDB" style="stroke:#A80036;stroke-width:1.5;" width="416" x="1330" y="592"/><ellipse cx="1505.75" cy="608" fill="#ADD1B2" rx="11" ry="11" style="stroke:#A80036;stroke-width:1.0;"/><path d="M1508.0938,603.6719 C1507.1563,603.2344 1506.5625,603.0938 1505.6875,603.0938 C1503.0625,603.0938 1501.0625,605.1719 1501.0625,607.8906 L1501.0625,609.0156 C1501.0625,611.5938 1503.1719,613.4844 1506.0625,613.4844 C1507.2813,613.4844 1508.4375,613.1875 1509.1875,612.6406 C1509.7656,612.2344 1510.0938,611.7813 1510.0938,611.3906 C1510.0938,610.9375 1509.7031,610.5469 1509.2344,610.5469 C1509.0156,610.5469 1508.8125,610.625 1508.625,610.8125 C1508.1719,611.2969 1508.1719,611.2969 1507.9844,611.3906 C1507.5625,611.6563 1506.875,611.7813 1506.1094,611.7813 C1504.0625,611.7813 1502.7656,610.6875 1502.7656,608.9844 L1502.7656,607.8906 C1502.7656,606.1094 1504.0156,604.7969 1505.75,604.7969 C1506.3281,604.7969 1506.9375,604.9531 1507.4063,605.2031 C1507.8906,605.4844 1508.0625,605.7031 1508.1563,606.1094 C1508.2188,606.5156 1508.25,606.6406 1508.3906,606.7656 C1508.5313,606.9063 1508.7656,607.0156 1508.9844,607.0156 C1509.25,607.0156 1509.5156,606.875 1509.6875,606.6563 C1509.7969,606.5 1509.8281,606.3125 1509.8281,605.8906 L1509.8281,604.4688 C1509.8281,604.0313 1509.8125,603.9063 1509.7188,603.75 C1509.5625,603.4844 1509.2813,603.3438 1508.9844,603.3438 C1508.6875,603.3438 1508.4844,603.4375 1508.2656,603.75 L1508.0938,603.6719 Z " fill="#000000"/><text fill="#000000" font-family="sans-serif" font-size="12" lengthAdjust="spacing" textLength="56" x="1526.25" y="612.1543">CartaoDB</text><line style="stroke:#A80036;stroke-width:1.5;" x1="1331" x2="1745" y1="624" y2="624"/><line style="stroke:#A80036;stroke-width:1.5;" x1="1331" x2="1745" y1="632" y2="632"/><text fill="#000000" font-family="sans-serif" font-size="11" lengthAdjust="spacing" textLength="404" x="1336" y="646.2104">+Cartao novoCartao(Integer numCC, String dataValidade, Integer CCV)</text><text fill="#000000" font-family="sans-serif" font-size="11" lengthAdjust="spacing" textLength="141" x="1336" y="659.0151">+validaCartao(Cartao cc)</text><text fill="#000000" font-family="sans-serif" font-size="11" lengthAdjust="spacing" textLength="146" x="1336" y="671.8198">+registaCartao(Cartao cc)</text><text fill="#000000" font-family="sans-serif" font-size="11" lengthAdjust="spacing" textLength="123" x="1336" y="684.6245">-addCartao(Cartao cc)</text><!--MD5=[71ca537e8ef433b13ff9c80f6a6e1275]
class DefinirClienteController--><rect codeLine="66" fill="#FEFECE" filter="url(#f1hf4vc6rtd9td)" height="124.8281" id="DefinirClienteController" style="stroke:#A80036;stroke-width:1.5;" width="716" x="745" y="116"/><ellipse cx="1029.25" cy="132" fill="#ADD1B2" rx="11" ry="11" style="stroke:#A80036;stroke-width:1.0;"/><path d="M1031.5938,127.6719 C1030.6563,127.2344 1030.0625,127.0938 1029.1875,127.0938 C1026.5625,127.0938 1024.5625,129.1719 1024.5625,131.8906 L1024.5625,133.0156 C1024.5625,135.5938 1026.6719,137.4844 1029.5625,137.4844 C1030.7813,137.4844 1031.9375,137.1875 1032.6875,136.6406 C1033.2656,136.2344 1033.5938,135.7813 1033.5938,135.3906 C1033.5938,134.9375 1033.2031,134.5469 1032.7344,134.5469 C1032.5156,134.5469 1032.3125,134.625 1032.125,134.8125 C1031.6719,135.2969 1031.6719,135.2969 1031.4844,135.3906 C1031.0625,135.6563 1030.375,135.7813 1029.6094,135.7813 C1027.5625,135.7813 1026.2656,134.6875 1026.2656,132.9844 L1026.2656,131.8906 C1026.2656,130.1094 1027.5156,128.7969 1029.25,128.7969 C1029.8281,128.7969 1030.4375,128.9531 1030.9063,129.2031 C1031.3906,129.4844 1031.5625,129.7031 1031.6563,130.1094 C1031.7188,130.5156 1031.75,130.6406 1031.8906,130.7656 C1032.0313,130.9063 1032.2656,131.0156 1032.4844,131.0156 C1032.75,131.0156 1033.0156,130.875 1033.1875,130.6563 C1033.2969,130.5 1033.3281,130.3125 1033.3281,129.8906 L1033.3281,128.4688 C1033.3281,128.0313 1033.3125,127.9063 1033.2188,127.75 C1033.0625,127.4844 1032.7813,127.3438 1032.4844,127.3438 C1032.1875,127.3438 1031.9844,127.4375 1031.7656,127.75 L1031.5938,127.6719 Z " fill="#000000"/><text fill="#000000" font-family="sans-serif" font-size="12" lengthAdjust="spacing" textLength="139" x="1049.75" y="136.1543">DefinirClienteController</text><line style="stroke:#A80036;stroke-width:1.5;" x1="746" x2="1460" y1="148" y2="148"/><line style="stroke:#A80036;stroke-width:1.5;" x1="746" x2="1460" y1="156" y2="156"/><text fill="#000000" font-family="sans-serif" font-size="11" lengthAdjust="spacing" textLength="704" x="751" y="170.2104">+novoCliente(Integer NIF, String nome, String email, String numSegSocial, String morada, Integer numCC, String password)</text><text fill="#000000" font-family="sans-serif" font-size="11" lengthAdjust="spacing" textLength="474" x="751" y="183.0151">+novoEndereco(String morada, Double latitude, Double longitude, Double altitude)</text><text fill="#000000" font-family="sans-serif" font-size="11" lengthAdjust="spacing" textLength="363" x="751" y="195.8198">+novoCartao(Integer numCC, String dataValidade, Integer CCV)</text><text fill="#000000" font-family="sans-serif" font-size="11" lengthAdjust="spacing" textLength="181" x="751" y="208.6245">+registaCliente(Cliente cliente)</text><text fill="#000000" font-family="sans-serif" font-size="11" lengthAdjust="spacing" textLength="190" x="751" y="221.4292">+registaEndereco(Endereco end)</text><text fill="#000000" font-family="sans-serif" font-size="11" lengthAdjust="spacing" textLength="146" x="751" y="234.2339">+registaCartao(Cartao cc)</text><!--MD5=[c0fb86b0564349bf5bdacc636ec0dd0e]
class DefinirClienteUI--><rect codeLine="75" fill="#FEFECE" filter="url(#f1hf4vc6rtd9td)" height="48" id="DefinirClienteUI" style="stroke:#A80036;stroke-width:1.5;" width="124" x="1041" y="7"/><ellipse cx="1056" cy="23" fill="#ADD1B2" rx="11" ry="11" style="stroke:#A80036;stroke-width:1.0;"/><path d="M1058.3438,18.6719 C1057.4063,18.2344 1056.8125,18.0938 1055.9375,18.0938 C1053.3125,18.0938 1051.3125,20.1719 1051.3125,22.8906 L1051.3125,24.0156 C1051.3125,26.5938 1053.4219,28.4844 1056.3125,28.4844 C1057.5313,28.4844 1058.6875,28.1875 1059.4375,27.6406 C1060.0156,27.2344 1060.3438,26.7813 1060.3438,26.3906 C1060.3438,25.9375 1059.9531,25.5469 1059.4844,25.5469 C1059.2656,25.5469 1059.0625,25.625 1058.875,25.8125 C1058.4219,26.2969 1058.4219,26.2969 1058.2344,26.3906 C1057.8125,26.6563 1057.125,26.7813 1056.3594,26.7813 C1054.3125,26.7813 1053.0156,25.6875 1053.0156,23.9844 L1053.0156,22.8906 C1053.0156,21.1094 1054.2656,19.7969 1056,19.7969 C1056.5781,19.7969 1057.1875,19.9531 1057.6563,20.2031 C1058.1406,20.4844 1058.3125,20.7031 1058.4063,21.1094 C1058.4688,21.5156 1058.5,21.6406 1058.6406,21.7656 C1058.7813,21.9063 1059.0156,22.0156 1059.2344,22.0156 C1059.5,22.0156 1059.7656,21.875 1059.9375,21.6563 C1060.0469,21.5 1060.0781,21.3125 1060.0781,20.8906 L1060.0781,19.4688 C1060.0781,19.0313 1060.0625,18.9063 1059.9688,18.75 C1059.8125,18.4844 1059.5313,18.3438 1059.2344,18.3438 C1058.9375,18.3438 1058.7344,18.4375 1058.5156,18.75 L1058.3438,18.6719 Z " fill="#000000"/><text fill="#000000" font-family="sans-serif" font-size="12" lengthAdjust="spacing" textLength="92" x="1070" y="27.1543">DefinirClienteUI</text><line style="stroke:#A80036;stroke-width:1.5;" x1="1042" x2="1164" y1="39" y2="39"/><line style="stroke:#A80036;stroke-width:1.5;" x1="1042" x2="1164" y1="47" y2="47"/><!--MD5=[2df4f06df0e0a044116713e3d31f1710]
link DefinirClienteUI to DefinirClienteController--><path codeLine="79" d="M1103,55.055 C1103,70.198 1103,90.845 1103,110.869 " fill="none" id="DefinirClienteUI-to-DefinirClienteController" style="stroke:#A80036;stroke-width:1.0;stroke-dasharray:7.0,7.0;"/><polygon fill="#A80036" points="1103,115.942,1107,106.942,1103,110.942,1099,106.942,1103,115.942" style="stroke:#A80036;stroke-width:1.0;"/><!--MD5=[6dd4ee26d1a1908e30b537e576994049]
link DefinirClienteController to ClienteDB--><path codeLine="80" d="M984.945,241.235 C948.354,260.37 908.464,281.23 873.436,299.547 " fill="none" id="DefinirClienteController-to-ClienteDB" style="stroke:#A80036;stroke-width:1.0;stroke-dasharray:7.0,7.0;"/><polygon fill="#A80036" points="868.749,301.998,878.5779,301.3711,873.1795,299.6806,874.87,294.2822,868.749,301.998" style="stroke:#A80036;stroke-width:1.0;"/><!--MD5=[089b4e78a0cdcc62b7c8bc283714b2d4]
link DefinirClienteController to UtilizadorDB--><path codeLine="81" d="M744.914,201.249 C527.909,217.263 284.971,241.365 243,271 C189.417,308.834 163.496,383.306 151.755,432.236 " fill="none" id="DefinirClienteController-to-UtilizadorDB" style="stroke:#A80036;stroke-width:1.0;stroke-dasharray:7.0,7.0;"/><polygon fill="#A80036" points="150.595,437.185,156.5437,429.3356,151.7363,432.317,148.7549,427.5096,150.595,437.185" style="stroke:#A80036;stroke-width:1.0;"/><!--MD5=[51a8cadb7bf239968095df55bd0a70f3]
link DefinirClienteController to EnderecoDB--><path codeLine="82" d="M1211.45,241.117 C1221.49,250.122 1230.63,260.088 1238,271 C1269.13,317.102 1279.22,380.886 1282.24,425.73 " fill="none" id="DefinirClienteController-to-EnderecoDB" style="stroke:#A80036;stroke-width:1.0;stroke-dasharray:7.0,7.0;"/><polygon fill="#A80036" points="1282.56,430.828,1285.9901,421.5958,1282.2478,425.8378,1278.0058,422.0954,1282.56,430.828" style="stroke:#A80036;stroke-width:1.0;"/><!--MD5=[3e86e6b07056fe67590604de84766931]
link DefinirClienteController to CartaoDB--><path codeLine="83" d="M1311.11,241.076 C1403.19,279.843 1502.56,340.202 1556,431 C1583.78,478.201 1572.82,542.034 1558.98,586.792 " fill="none" id="DefinirClienteController-to-CartaoDB" style="stroke:#A80036;stroke-width:1.0;stroke-dasharray:7.0,7.0;"/><polygon fill="#A80036" points="1557.46,591.607,1563.9914,584.2354,1558.9701,586.8405,1556.365,581.8192,1557.46,591.607" style="stroke:#A80036;stroke-width:1.0;"/><!--MD5=[3bd44b91ab14edcca89780065aa4fc28]
link DefinirClienteController to Cliente--><path codeLine="84" d="M1152.52,241.422 C1184.63,289.52 1214.03,355.479 1176,401 C1127.93,458.535 1076.89,397.13 1010,431 C950.825,460.965 896.57,511.879 856.626,556.01 " fill="none" id="DefinirClienteController-to-Cliente" style="stroke:#A80036;stroke-width:1.0;stroke-dasharray:7.0,7.0;"/><polygon fill="#A80036" points="853.049,559.987,862.0422,555.9717,856.3932,556.27,856.0949,550.621,853.049,559.987" style="stroke:#A80036;stroke-width:1.0;"/><!--MD5=[07de108b8cb8ef15a0d2594040aa4696]
link DefinirClienteController to Utilizador--><path codeLine="85" d="M744.897,189.579 C561.198,203.189 364.188,233.855 307,302 C245.811,374.912 254.748,662.722 262.391,794.714 " fill="none" id="DefinirClienteController-to-Utilizador" style="stroke:#A80036;stroke-width:1.0;stroke-dasharray:7.0,7.0;"/><polygon fill="#A80036" points="262.686,799.727,266.1494,790.5072,262.3917,794.7357,258.1632,790.978,262.686,799.727" style="stroke:#A80036;stroke-width:1.0;"/><!--MD5=[43597bbb85a4e4e141e0228991eb15a3]
link DefinirClienteController to Endereco--><path codeLine="86" d="M744.966,197.084 C586.734,213.096 425.329,243.664 376,302 C326.923,360.039 223.778,490.247 379,723 C392.047,742.563 490.061,775.91 587.209,804.98 " fill="none" id="DefinirClienteController-to-Endereco" style="stroke:#A80036;stroke-width:1.0;stroke-dasharray:7.0,7.0;"/><polygon fill="#A80036" points="592.128,806.449,584.6496,800.0402,587.3372,805.0178,582.3596,807.7054,592.128,806.449" style="stroke:#A80036;stroke-width:1.0;"/><!--MD5=[e1eca39f01303acf58882bc67989cc67]
link DefinirClienteController to Cartao--><path codeLine="87" d="M1374.37,241.059 C1420.69,257.242 1467.03,277.302 1508,302 C1646.08,385.234 1701.74,410.87 1763,560 C1790.53,627.011 1798.33,659.757 1763,723 C1742.04,760.518 1706.28,789.125 1669.37,810.318 " fill="none" id="DefinirClienteController-to-Cartao" style="stroke:#A80036;stroke-width:1.0;stroke-dasharray:7.0,7.0;"/><polygon fill="#A80036" points="1664.86,812.866,1674.6614,811.9008,1669.208,810.3973,1670.7115,804.9439,1664.86,812.866" style="stroke:#A80036;stroke-width:1.0;"/><!--MD5=[1ac7a80d7d1bce9ba8d5537593646246]
link ClienteDB to Cliente--><path codeLine="89" d="M778.191,401.03 C780.083,442.953 782.862,504.526 785.129,554.738 " fill="none" id="ClienteDB-to-Cliente" style="stroke:#A80036;stroke-width:1.0;"/><polygon fill="#A80036" points="785.36,559.869,788.9522,550.6986,785.1357,554.874,780.9603,551.0575,785.36,559.869" style="stroke:#A80036;stroke-width:1.0;"/><text fill="#000000" font-family="sans-serif" font-size="13" lengthAdjust="spacing" textLength="41" x="785" y="485.0669">possui</text><text fill="#000000" font-family="sans-serif" font-size="13" lengthAdjust="spacing" textLength="8" x="769.9366" y="421.1107">1</text><text fill="#000000" font-family="sans-serif" font-size="13" lengthAdjust="spacing" textLength="7" x="777.7241" y="548.9928">*</text><!--MD5=[5dc6565467687ed5b96e271d46605f30]
link UtilizadorDB to Utilizador--><path codeLine="90" d="M150.07,523.751 C158.905,572.598 175.857,655.002 200,723 C208.552,747.087 220.073,772.519 231.147,794.925 " fill="none" id="UtilizadorDB-to-Utilizador" style="stroke:#A80036;stroke-width:1.0;"/><polygon fill="#A80036" points="233.502,799.658,233.0749,789.8184,231.2751,795.1813,225.9122,793.3815,233.502,799.658" style="stroke:#A80036;stroke-width:1.0;"/><text fill="#000000" font-family="sans-serif" font-size="13" lengthAdjust="spacing" textLength="41" x="201" y="646.0669">possui</text><text fill="#000000" font-family="sans-serif" font-size="13" lengthAdjust="spacing" textLength="8" x="142.5593" y="543.8839">1</text><text fill="#000000" font-family="sans-serif" font-size="13" lengthAdjust="spacing" textLength="7" x="222.4553" y="789.0479">*</text><!--MD5=[c023e2c3fa599b931e4bde319636976a]
link EnderecoDB to Endereco--><path codeLine="91" d="M1274.23,530.219 C1259.44,612.187 1231.05,768.924 1230,770 C1199.84,800.888 1113.42,822.186 1025.15,836.4057 " fill="none" id="EnderecoDB-to-Endereco" style="stroke:#A80036;stroke-width:1.0;"/><polygon fill="#A80036" points="1020.14,837.2047,1029.6568,839.7406,1025.0779,836.4189,1028.3996,831.84,1020.14,837.2047" style="stroke:#A80036;stroke-width:1.0;"/><text fill="#000000" font-family="sans-serif" font-size="13" lengthAdjust="spacing" textLength="41" x="1269" y="646.0669">possui</text><text fill="#000000" font-family="sans-serif" font-size="13" lengthAdjust="spacing" textLength="8" x="1264.4342" y="550.3263">1</text><text fill="#000000" font-family="sans-serif" font-size="13" lengthAdjust="spacing" textLength="7" x="1027.7735" y="833.1976">*</text><!--MD5=[4f07296ad6c83f23dd45be75705310f2]
link CartaoDB to Cartao--><path codeLine="92" d="M1538,691.103 C1538,725.574 1538,771.85 1538,807.478 " fill="none" id="CartaoDB-to-Cartao" style="stroke:#A80036;stroke-width:1.0;"/><polygon fill="#A80036" points="1538,812.654,1542,803.654,1538,807.654,1534,803.654,1538,812.654" style="stroke:#A80036;stroke-width:1.0;"/><text fill="#000000" font-family="sans-serif" font-size="13" lengthAdjust="spacing" textLength="41" x="1539" y="766.0669">possui</text><text fill="#000000" font-family="sans-serif" font-size="13" lengthAdjust="spacing" textLength="8" x="1529.4375" y="711.194">1</text><text fill="#000000" font-family="sans-serif" font-size="13" lengthAdjust="spacing" textLength="7" x="1530.5297" y="802.0093">*</text><!--MD5=[43a7c1a046aa41d1c9842e3954366be4]
link Cliente to Endereco--><path codeLine="93" d="M789.736,723.115 C789.972,748.961 790.229,777.12 790.45,801.249 " fill="none" id="Cliente-to-Endereco" style="stroke:#A80036;stroke-width:1.0;"/><polygon fill="#A80036" points="790.496,806.335,794.4135,797.2988,790.4503,801.3352,786.4139,797.372,790.496,806.335" style="stroke:#A80036;stroke-width:1.0;"/><text fill="#000000" font-family="sans-serif" font-size="13" lengthAdjust="spacing" textLength="26" x="792" y="766.0669">tem</text><text fill="#000000" font-family="sans-serif" font-size="13" lengthAdjust="spacing" textLength="8" x="781.4351" y="743.3921">1</text><text fill="#000000" font-family="sans-serif" font-size="13" lengthAdjust="spacing" textLength="8" x="781.9189" y="795.2518">1</text><!--MD5=[0b9a64f88a8f68498a0520ea68e94a71]
link Cliente to Cartao--><path codeLine="94" d="M1064.44,723.037 C1165.79,752.669 1277.56,785.35 1367.06,811.518 " fill="none" id="Cliente-to-Cartao" style="stroke:#A80036;stroke-width:1.0;"/><polygon fill="#A80036" points="1372.11,812.995,1364.5905,806.6344,1367.3101,811.5946,1362.3499,814.3142,1372.11,812.995" style="stroke:#A80036;stroke-width:1.0;"/><text fill="#000000" font-family="sans-serif" font-size="13" lengthAdjust="spacing" textLength="26" x="1210" y="766.0669">tem</text><text fill="#000000" font-family="sans-serif" font-size="13" lengthAdjust="spacing" textLength="8" x="1081.4634" y="743.307">1</text><text fill="#000000" font-family="sans-serif" font-size="13" lengthAdjust="spacing" textLength="8" x="1346.5901" y="804.1788">1</text><!--MD5=[00a2b7b20e7d7828fa181bc7c0dc6998]
link Cliente to Utilizador--><path codeLine="95" d="M596.85,723.115 C538.038,747.789 474.202,774.57 418.496,797.942 " fill="none" id="Cliente-to-Utilizador" style="stroke:#A80036;stroke-width:1.0;"/><polygon fill="#A80036" points="413.817,799.904,423.6637,800.1114,418.4278,797.97,420.5692,792.7341,413.817,799.904" style="stroke:#A80036;stroke-width:1.0;"/><text fill="#000000" font-family="sans-serif" font-size="13" lengthAdjust="spacing" textLength="69" x="514" y="766.0669">atua como</text><text fill="#000000" font-family="sans-serif" font-size="13" lengthAdjust="spacing" textLength="8" x="570.7674" y="743.3921">1</text><text fill="#000000" font-family="sans-serif" font-size="13" lengthAdjust="spacing" textLength="8" x="422.3302" y="788.8837">1</text><!--MD5=[01f5a3d37e72d64b56ec96e63f36d04b]
@startuml
skinparam classAttributeIconSize 0

class Cliente {
  -Integer NIF
  -String nome
  -String email
  -String numSegSocial
  -String password
  -Integer creditos
  -String morada
  -Integer numCC
  +Cliente(Integer NIF, String nome, String email, String numSegSocial, Integer creditos, String morada, Integer numCC, String password)
}

class Utilizador {
  -Integer NIF
  -String nome
  -String email
  -String numSegSocial
  -String password
  +Utilizador(Integer NIF, String nome, String email, String numSegSocial, String password)
}

class Endereco {
  -String morada
  -Double latitude
  -Double longitude
  -Double altitude 
  +Endereco(String morada, Double latitude, Double longitude, Double altitude)
}

class Cartao {
  -Integer numCC
  -String dataValidade
  -Integer CCV
  +Cartao(Integer numCC, String dataValidade, Integer CCV))
}

class ClienteDB {
  +Cliente novoCliente(Integer NIF, String nome, String email, String numSegSocial, String morada, Integer numCC, String password))
  +validaCliente(Cliente cliente)
  +registaCliente(Cliente cliente)
  -addCliente(Cliente cliente)
}

class UtilizadorDB {
  +registaUtilizador(Cliente cliente)
  +validaUtilizador(Cliente cliente)
  -addUtilizador(Cliente cliente)
}

class EnderecoDB {
  +Endereco novoEndereco(String morada, Double latitude, Double longitude, Double altitude)
  +validaEndereco(Endereco end)
  +registaEndereco(Endereco end)
  -addEndereco(Endereco end)
}

class CartaoDB {
  +Cartao novoCartao(Integer numCC, String dataValidade, Integer CCV)
  +validaCartao(Cartao cc)
  +registaCartao(Cartao cc)
  -addCartao(Cartao cc)
}

class DefinirClienteController {
  +novoCliente(Integer NIF, String nome, String email, String numSegSocial, String morada, Integer numCC, String password)
  +novoEndereco(String morada, Double latitude, Double longitude, Double altitude)
  +novoCartao(Integer numCC, String dataValidade, Integer CCV)
  +registaCliente(Cliente cliente)
  +registaEndereco(Endereco end)
  +registaCartao(Cartao cc)
}

class DefinirClienteUI {
  
}

DefinirClienteUI ..> DefinirClienteController
DefinirClienteController ..> ClienteDB
DefinirClienteController ..> UtilizadorDB
DefinirClienteController ..> EnderecoDB
DefinirClienteController ..> CartaoDB
DefinirClienteController ..> Cliente
DefinirClienteController ..> Utilizador
DefinirClienteController ..> Endereco
DefinirClienteController ..> Cartao

ClienteDB "1" - -> "*" Cliente : possui
UtilizadorDB "1" - -> "*" Utilizador : possui
EnderecoDB "1" - -> "*" Endereco : possui
CartaoDB "1" - -> "*" Cartao : possui
Cliente "1" - -> "1" Endereco : tem
Cliente "1" - -> "1" Cartao : tem
Cliente "1" - -> "1" Utilizador : atua como
@enduml

PlantUML version 1.2020.27beta8(Unknown compile time)
(GPL source distribution)
Java Runtime: Java(TM) SE Runtime Environment
JVM: Java HotSpot(TM) 64-Bit Server VM
Default Encoding: UTF-8
Language: en
Country: US
--></g></svg>