<?xml version="1.0" encoding="UTF-8" standalone="no"?><svg xmlns="http://www.w3.org/2000/svg" xmlns:xlink="http://www.w3.org/1999/xlink" contentScriptType="application/ecmascript" contentStyleType="text/css" height="844px" preserveAspectRatio="none" style="width:943px;height:844px;" version="1.1" viewBox="0 0 943 844" width="943px" zoomAndPan="magnify"><defs><filter height="300%" id="f1fjgu6uvpffg7" width="300%" x="-1" y="-1"><feGaussianBlur result="blurOut" stdDeviation="2.0"/><feColorMatrix in="blurOut" result="blurOut2" type="matrix" values="0 0 0 0 0 0 0 0 0 0 0 0 0 0 0 0 0 0 .4 0"/><feOffset dx="4.0" dy="4.0" in="blurOut2" result="blurOut3"/><feBlend in="SourceGraphic" in2="blurOut3" mode="normal"/></filter></defs><g><!--MD5=[20a748d5ee336a9a91751b0a3d4f0beb]
class Cliente--><rect codeLine="3" fill="#FEFECE" filter="url(#f1fjgu6uvpffg7)" height="188.8516" id="Cliente" style="stroke:#A80036;stroke-width:1.5;" width="497" x="203" y="465"/><ellipse cx="426.75" cy="481" fill="#ADD1B2" rx="11" ry="11" style="stroke:#A80036;stroke-width:1.0;"/><path d="M429.0938,476.6719 C428.1563,476.2344 427.5625,476.0938 426.6875,476.0938 C424.0625,476.0938 422.0625,478.1719 422.0625,480.8906 L422.0625,482.0156 C422.0625,484.5938 424.1719,486.4844 427.0625,486.4844 C428.2813,486.4844 429.4375,486.1875 430.1875,485.6406 C430.7656,485.2344 431.0938,484.7813 431.0938,484.3906 C431.0938,483.9375 430.7031,483.5469 430.2344,483.5469 C430.0156,483.5469 429.8125,483.625 429.625,483.8125 C429.1719,484.2969 429.1719,484.2969 428.9844,484.3906 C428.5625,484.6563 427.875,484.7813 427.1094,484.7813 C425.0625,484.7813 423.7656,483.6875 423.7656,481.9844 L423.7656,480.8906 C423.7656,479.1094 425.0156,477.7969 426.75,477.7969 C427.3281,477.7969 427.9375,477.9531 428.4063,478.2031 C428.8906,478.4844 429.0625,478.7031 429.1563,479.1094 C429.2188,479.5156 429.25,479.6406 429.3906,479.7656 C429.5313,479.9063 429.7656,480.0156 429.9844,480.0156 C430.25,480.0156 430.5156,479.875 430.6875,479.6563 C430.7969,479.5 430.8281,479.3125 430.8281,478.8906 L430.8281,477.4688 C430.8281,477.0313 430.8125,476.9063 430.7188,476.75 C430.5625,476.4844 430.2813,476.3438 429.9844,476.3438 C429.6875,476.3438 429.4844,476.4375 429.2656,476.75 L429.0938,476.6719 Z " fill="#000000"/><text fill="#000000" font-family="sans-serif" font-size="12" lengthAdjust="spacing" textLength="41" x="447.25" y="485.1543">Cliente</text><line style="stroke:#A80036;stroke-width:1.5;" x1="204" x2="699" y1="497" y2="497"/><text fill="#000000" font-family="sans-serif" font-size="11" lengthAdjust="spacing" textLength="66" x="209" y="511.2104">-Integer NIF</text><text fill="#000000" font-family="sans-serif" font-size="11" lengthAdjust="spacing" textLength="74" x="209" y="524.0151">-String nome</text><text fill="#000000" font-family="sans-serif" font-size="11" lengthAdjust="spacing" textLength="73" x="209" y="536.8198">-String email</text><text fill="#000000" font-family="sans-serif" font-size="11" lengthAdjust="spacing" textLength="84" x="209" y="549.6245">-Endereco end</text><text fill="#000000" font-family="sans-serif" font-size="11" lengthAdjust="spacing" textLength="123" x="209" y="562.4292">-String numSegSocial</text><text fill="#000000" font-family="sans-serif" font-size="11" lengthAdjust="spacing" textLength="94" x="209" y="575.2339">-String password</text><text fill="#000000" font-family="sans-serif" font-size="11" lengthAdjust="spacing" textLength="90" x="209" y="588.0386">-Integer numCC</text><text fill="#000000" font-family="sans-serif" font-size="11" lengthAdjust="spacing" textLength="116" x="209" y="600.8433">-String dataValidade</text><text fill="#000000" font-family="sans-serif" font-size="11" lengthAdjust="spacing" textLength="73" x="209" y="613.6479">-Integer CCV</text><line style="stroke:#A80036;stroke-width:1.5;" x1="204" x2="699" y1="620.2422" y2="620.2422"/><text fill="#000000" font-family="sans-serif" font-size="11" lengthAdjust="spacing" textLength="485" x="209" y="634.4526">+Cliente(Integer NIF, String nome, String email, Endereco end, String numSegSocial,</text><text fill="#000000" font-family="sans-serif" font-size="11" lengthAdjust="spacing" textLength="382" x="213" y="647.2573">String password, Integer numCC, String dataValidade, Integer CCV)</text><!--MD5=[36c1942e8942a3e4f47e6de3733e3d18]
class Endereco--><rect codeLine="16" fill="#FEFECE" filter="url(#f1fjgu6uvpffg7)" height="99.2188" id="Endereco" style="stroke:#A80036;stroke-width:1.5;" width="363" x="270" y="731"/><ellipse cx="418.25" cy="747" fill="#ADD1B2" rx="11" ry="11" style="stroke:#A80036;stroke-width:1.0;"/><path d="M420.5938,742.6719 C419.6563,742.2344 419.0625,742.0938 418.1875,742.0938 C415.5625,742.0938 413.5625,744.1719 413.5625,746.8906 L413.5625,748.0156 C413.5625,750.5938 415.6719,752.4844 418.5625,752.4844 C419.7813,752.4844 420.9375,752.1875 421.6875,751.6406 C422.2656,751.2344 422.5938,750.7813 422.5938,750.3906 C422.5938,749.9375 422.2031,749.5469 421.7344,749.5469 C421.5156,749.5469 421.3125,749.625 421.125,749.8125 C420.6719,750.2969 420.6719,750.2969 420.4844,750.3906 C420.0625,750.6563 419.375,750.7813 418.6094,750.7813 C416.5625,750.7813 415.2656,749.6875 415.2656,747.9844 L415.2656,746.8906 C415.2656,745.1094 416.5156,743.7969 418.25,743.7969 C418.8281,743.7969 419.4375,743.9531 419.9063,744.2031 C420.3906,744.4844 420.5625,744.7031 420.6563,745.1094 C420.7188,745.5156 420.75,745.6406 420.8906,745.7656 C421.0313,745.9063 421.2656,746.0156 421.4844,746.0156 C421.75,746.0156 422.0156,745.875 422.1875,745.6563 C422.2969,745.5 422.3281,745.3125 422.3281,744.8906 L422.3281,743.4688 C422.3281,743.0313 422.3125,742.9063 422.2188,742.75 C422.0625,742.4844 421.7813,742.3438 421.4844,742.3438 C421.1875,742.3438 420.9844,742.4375 420.7656,742.75 L420.5938,742.6719 Z " fill="#000000"/><text fill="#000000" font-family="sans-serif" font-size="12" lengthAdjust="spacing" textLength="58" x="438.75" y="751.1543">Endereco</text><line style="stroke:#A80036;stroke-width:1.5;" x1="271" x2="632" y1="763" y2="763"/><text fill="#000000" font-family="sans-serif" font-size="11" lengthAdjust="spacing" textLength="84" x="276" y="777.2104">-String morada</text><text fill="#000000" font-family="sans-serif" font-size="11" lengthAdjust="spacing" textLength="92" x="276" y="790.0151">-Integer latitude</text><text fill="#000000" font-family="sans-serif" font-size="11" lengthAdjust="spacing" textLength="102" x="276" y="802.8198">-Integer longitude</text><line style="stroke:#A80036;stroke-width:1.5;" x1="271" x2="632" y1="809.4141" y2="809.4141"/><text fill="#000000" font-family="sans-serif" font-size="11" lengthAdjust="spacing" textLength="351" x="276" y="823.6245">+Endereco(String morada, Integer latitude, Integer longitude)</text><!--MD5=[3b6b8abd81b442aa81592fe2bb0f51b5]
class ClienteDB--><rect codeLine="23" fill="#FEFECE" filter="url(#f1fjgu6uvpffg7)" height="124.8281" id="ClienteDB" style="stroke:#A80036;stroke-width:1.5;" width="570" x="359.5" y="263"/><ellipse cx="611.25" cy="279" fill="#ADD1B2" rx="11" ry="11" style="stroke:#A80036;stroke-width:1.0;"/><path d="M613.5938,274.6719 C612.6563,274.2344 612.0625,274.0938 611.1875,274.0938 C608.5625,274.0938 606.5625,276.1719 606.5625,278.8906 L606.5625,280.0156 C606.5625,282.5938 608.6719,284.4844 611.5625,284.4844 C612.7813,284.4844 613.9375,284.1875 614.6875,283.6406 C615.2656,283.2344 615.5938,282.7813 615.5938,282.3906 C615.5938,281.9375 615.2031,281.5469 614.7344,281.5469 C614.5156,281.5469 614.3125,281.625 614.125,281.8125 C613.6719,282.2969 613.6719,282.2969 613.4844,282.3906 C613.0625,282.6563 612.375,282.7813 611.6094,282.7813 C609.5625,282.7813 608.2656,281.6875 608.2656,279.9844 L608.2656,278.8906 C608.2656,277.1094 609.5156,275.7969 611.25,275.7969 C611.8281,275.7969 612.4375,275.9531 612.9063,276.2031 C613.3906,276.4844 613.5625,276.7031 613.6563,277.1094 C613.7188,277.5156 613.75,277.6406 613.8906,277.7656 C614.0313,277.9063 614.2656,278.0156 614.4844,278.0156 C614.75,278.0156 615.0156,277.875 615.1875,277.6563 C615.2969,277.5 615.3281,277.3125 615.3281,276.8906 L615.3281,275.4688 C615.3281,275.0313 615.3125,274.9063 615.2188,274.75 C615.0625,274.4844 614.7813,274.3438 614.4844,274.3438 C614.1875,274.3438 613.9844,274.4375 613.7656,274.75 L613.5938,274.6719 Z " fill="#000000"/><text fill="#000000" font-family="sans-serif" font-size="12" lengthAdjust="spacing" textLength="58" x="631.75" y="283.1543">ClienteDB</text><line style="stroke:#A80036;stroke-width:1.5;" x1="360.5" x2="928.5" y1="295" y2="295"/><line style="stroke:#A80036;stroke-width:1.5;" x1="360.5" x2="928.5" y1="303" y2="303"/><text fill="#000000" font-family="sans-serif" font-size="11" lengthAdjust="spacing" textLength="437" x="365.5" y="317.2104">+Endereco novoEndereco(String morada, Integer latitude, Integer longitude)</text><text fill="#000000" font-family="sans-serif" font-size="11" lengthAdjust="spacing" textLength="558" x="365.5" y="330.0151">+Cliente novoCliente(Integer NIF, String nome, String email, Endereco end, String numSegSocial,</text><text fill="#000000" font-family="sans-serif" font-size="11" lengthAdjust="spacing" textLength="382" x="369.5" y="342.8198">String password, Integer numCC, String dataValidade, Integer CCV)</text><text fill="#000000" font-family="sans-serif" font-size="11" lengthAdjust="spacing" textLength="176" x="365.5" y="355.6245">+validaCliente(Cliente cliente)</text><text fill="#000000" font-family="sans-serif" font-size="11" lengthAdjust="spacing" textLength="181" x="365.5" y="368.4292">+registaCliente(Cliente cliente)</text><text fill="#000000" font-family="sans-serif" font-size="11" lengthAdjust="spacing" textLength="158" x="365.5" y="381.2339">-addCliente(Cliente cliente)</text><!--MD5=[71ca537e8ef433b13ff9c80f6a6e1275]
class DefinirClienteController--><rect codeLine="31" fill="#FEFECE" filter="url(#f1fjgu6uvpffg7)" height="86.4141" id="DefinirClienteController" style="stroke:#A80036;stroke-width:1.5;" width="599" x="7" y="116"/><ellipse cx="232.75" cy="132" fill="#ADD1B2" rx="11" ry="11" style="stroke:#A80036;stroke-width:1.0;"/><path d="M235.0938,127.6719 C234.1563,127.2344 233.5625,127.0938 232.6875,127.0938 C230.0625,127.0938 228.0625,129.1719 228.0625,131.8906 L228.0625,133.0156 C228.0625,135.5938 230.1719,137.4844 233.0625,137.4844 C234.2813,137.4844 235.4375,137.1875 236.1875,136.6406 C236.7656,136.2344 237.0938,135.7813 237.0938,135.3906 C237.0938,134.9375 236.7031,134.5469 236.2344,134.5469 C236.0156,134.5469 235.8125,134.625 235.625,134.8125 C235.1719,135.2969 235.1719,135.2969 234.9844,135.3906 C234.5625,135.6563 233.875,135.7813 233.1094,135.7813 C231.0625,135.7813 229.7656,134.6875 229.7656,132.9844 L229.7656,131.8906 C229.7656,130.1094 231.0156,128.7969 232.75,128.7969 C233.3281,128.7969 233.9375,128.9531 234.4063,129.2031 C234.8906,129.4844 235.0625,129.7031 235.1563,130.1094 C235.2188,130.5156 235.25,130.6406 235.3906,130.7656 C235.5313,130.9063 235.7656,131.0156 235.9844,131.0156 C236.25,131.0156 236.5156,130.875 236.6875,130.6563 C236.7969,130.5 236.8281,130.3125 236.8281,129.8906 L236.8281,128.4688 C236.8281,128.0313 236.8125,127.9063 236.7188,127.75 C236.5625,127.4844 236.2813,127.3438 235.9844,127.3438 C235.6875,127.3438 235.4844,127.4375 235.2656,127.75 L235.0938,127.6719 Z " fill="#000000"/><text fill="#000000" font-family="sans-serif" font-size="12" lengthAdjust="spacing" textLength="139" x="253.25" y="136.1543">DefinirClienteController</text><line style="stroke:#A80036;stroke-width:1.5;" x1="8" x2="605" y1="148" y2="148"/><line style="stroke:#A80036;stroke-width:1.5;" x1="8" x2="605" y1="156" y2="156"/><text fill="#000000" font-family="sans-serif" font-size="11" lengthAdjust="spacing" textLength="587" x="13" y="170.2104">+novoCliente(Integer NIF, String nome, String email, String morada, Integer latitude, Integer longitude,</text><text fill="#000000" font-family="sans-serif" font-size="11" lengthAdjust="spacing" textLength="508" x="17" y="183.0151">String numSegSocial, String password, Integer numCC, String dataValidade, Integer CCV)</text><text fill="#000000" font-family="sans-serif" font-size="11" lengthAdjust="spacing" textLength="97" x="13" y="195.8198">+registaCliente()</text><!--MD5=[c0fb86b0564349bf5bdacc636ec0dd0e]
class DefinirClienteUI--><rect codeLine="36" fill="#FEFECE" filter="url(#f1fjgu6uvpffg7)" height="48" id="DefinirClienteUI" style="stroke:#A80036;stroke-width:1.5;" width="124" x="244.5" y="7"/><ellipse cx="259.5" cy="23" fill="#ADD1B2" rx="11" ry="11" style="stroke:#A80036;stroke-width:1.0;"/><path d="M261.8438,18.6719 C260.9063,18.2344 260.3125,18.0938 259.4375,18.0938 C256.8125,18.0938 254.8125,20.1719 254.8125,22.8906 L254.8125,24.0156 C254.8125,26.5938 256.9219,28.4844 259.8125,28.4844 C261.0313,28.4844 262.1875,28.1875 262.9375,27.6406 C263.5156,27.2344 263.8438,26.7813 263.8438,26.3906 C263.8438,25.9375 263.4531,25.5469 262.9844,25.5469 C262.7656,25.5469 262.5625,25.625 262.375,25.8125 C261.9219,26.2969 261.9219,26.2969 261.7344,26.3906 C261.3125,26.6563 260.625,26.7813 259.8594,26.7813 C257.8125,26.7813 256.5156,25.6875 256.5156,23.9844 L256.5156,22.8906 C256.5156,21.1094 257.7656,19.7969 259.5,19.7969 C260.0781,19.7969 260.6875,19.9531 261.1563,20.2031 C261.6406,20.4844 261.8125,20.7031 261.9063,21.1094 C261.9688,21.5156 262,21.6406 262.1406,21.7656 C262.2813,21.9063 262.5156,22.0156 262.7344,22.0156 C263,22.0156 263.2656,21.875 263.4375,21.6563 C263.5469,21.5 263.5781,21.3125 263.5781,20.8906 L263.5781,19.4688 C263.5781,19.0313 263.5625,18.9063 263.4688,18.75 C263.3125,18.4844 263.0313,18.3438 262.7344,18.3438 C262.4375,18.3438 262.2344,18.4375 262.0156,18.75 L261.8438,18.6719 Z " fill="#000000"/><text fill="#000000" font-family="sans-serif" font-size="12" lengthAdjust="spacing" textLength="92" x="273.5" y="27.1543">DefinirClienteUI</text><line style="stroke:#A80036;stroke-width:1.5;" x1="245.5" x2="367.5" y1="39" y2="39"/><line style="stroke:#A80036;stroke-width:1.5;" x1="245.5" x2="367.5" y1="47" y2="47"/><!--MD5=[2df4f06df0e0a044116713e3d31f1710]
link DefinirClienteUI to DefinirClienteController--><path codeLine="40" d="M306.5,55.11 C306.5,70.631 306.5,91.639 306.5,110.625 " fill="none" id="DefinirClienteUI-to-DefinirClienteController" style="stroke:#A80036;stroke-width:1.0;stroke-dasharray:7.0,7.0;"/><polygon fill="#A80036" points="306.5,115.921,310.5,106.921,306.5,110.921,302.5,106.921,306.5,115.921" style="stroke:#A80036;stroke-width:1.0;"/><!--MD5=[6dd4ee26d1a1908e30b537e576994049]
link DefinirClienteController to ClienteDB--><path codeLine="41" d="M393.104,202.149 C429.568,219.895 472.806,240.939 513.052,260.526 " fill="none" id="DefinirClienteController-to-ClienteDB" style="stroke:#A80036;stroke-width:1.0;stroke-dasharray:7.0,7.0;"/><polygon fill="#A80036" points="517.945,262.907,511.6037,255.3712,513.4494,260.7185,508.1021,262.5642,517.945,262.907" style="stroke:#A80036;stroke-width:1.0;"/><!--MD5=[3bd44b91ab14edcca89780065aa4fc28]
link DefinirClienteController to Cliente--><path codeLine="42" d="M307.715,202.103 C310.248,248.896 317.988,326.033 341.5,388 C350.911,412.805 364.306,437.771 378.525,460.657 " fill="none" id="DefinirClienteController-to-Cliente" style="stroke:#A80036;stroke-width:1.0;stroke-dasharray:7.0,7.0;"/><polygon fill="#A80036" points="381.188,464.906,379.7961,455.156,378.532,460.6698,373.0182,459.4056,381.188,464.906" style="stroke:#A80036;stroke-width:1.0;"/><!--MD5=[43597bbb85a4e4e141e0228991eb15a3]
link DefinirClienteController to Endereco--><path codeLine="43" d="M276.036,202.183 C215.156,292.119 92.0133,506.523 185.5,654 C206.039,686.4 237.431,710.592 271.538,728.603 " fill="none" id="DefinirClienteController-to-Endereco" style="stroke:#A80036;stroke-width:1.0;stroke-dasharray:7.0,7.0;"/><polygon fill="#A80036" points="276.147,730.9916,269.9955,723.3001,271.7073,728.6917,266.3157,730.4035,276.147,730.9916" style="stroke:#A80036;stroke-width:1.0;"/><!--MD5=[2db626ce7fbe1507ecdb90e7794d7a0a]
link ClienteDB to Endereco--><path codeLine="44" d="M683.895,388.247 C722.79,457.844 769.507,571.958 717.5,654 C696.961,686.4 665.569,710.592 631.462,728.603 " fill="none" id="ClienteDB-to-Endereco" style="stroke:#A80036;stroke-width:1.0;stroke-dasharray:7.0,7.0;"/><polygon fill="#A80036" points="626.853,730.9916,636.6843,730.4035,631.2927,728.6917,633.0045,723.3001,626.853,730.9916" style="stroke:#A80036;stroke-width:1.0;"/><!--MD5=[1ac7a80d7d1bce9ba8d5537593646246]
link ClienteDB to Cliente--><path codeLine="46" d="M593.286,388.063 C574.736,410.362 553.298,436.132 532.798,460.774 " fill="none" id="ClienteDB-to-Cliente" style="stroke:#A80036;stroke-width:1.0;"/><polygon fill="#A80036" points="529.517,464.718,538.3472,460.356,532.7141,460.8737,532.1964,455.2406,529.517,464.718" style="stroke:#A80036;stroke-width:1.0;"/><text fill="#000000" font-family="sans-serif" font-size="13" lengthAdjust="spacing" textLength="41" x="565.5" y="431.0669">possui</text><text fill="#000000" font-family="sans-serif" font-size="13" lengthAdjust="spacing" textLength="8" x="579.247" y="407.8097">1</text><text fill="#000000" font-family="sans-serif" font-size="13" lengthAdjust="spacing" textLength="7" x="528.2222" y="453.9647">*</text><!--MD5=[43a7c1a046aa41d1c9842e3954366be4]
link Cliente to Endereco--><path codeLine="47" d="M451.5,654.011 C451.5,678.55 451.5,704.184 451.5,725.84 " fill="none" id="Cliente-to-Endereco" style="stroke:#A80036;stroke-width:1.0;"/><polygon fill="#A80036" points="451.5,730.969,455.5,721.969,451.5,725.969,447.5,721.969,451.5,730.969" style="stroke:#A80036;stroke-width:1.0;"/><text fill="#000000" font-family="sans-serif" font-size="13" lengthAdjust="spacing" textLength="26" x="452.5" y="697.0669">tem</text><text fill="#000000" font-family="sans-serif" font-size="13" lengthAdjust="spacing" textLength="8" x="443.1938" y="673.8989">1</text><text fill="#000000" font-family="sans-serif" font-size="13" lengthAdjust="spacing" textLength="8" x="442.9375" y="720.0099">1</text><!--MD5=[b9cbf5d8b3b3136856875aae3bbebf38]
@startuml
skinparam classAttributeIconSize 0

class Cliente {
  -Integer NIF
  -String nome
  -String email
  -Endereco end
  -String numSegSocial
  -String password
  -Integer numCC
  -String dataValidade
  -Integer CCV
  +Cliente(Integer NIF, String nome, String email, Endereco end, String numSegSocial,\n String password, Integer numCC, String dataValidade, Integer CCV)
}

class Endereco {
  -String morada
  -Integer latitude
  -Integer longitude
  +Endereco(String morada, Integer latitude, Integer longitude)
}

class ClienteDB {
  +Endereco novoEndereco(String morada, Integer latitude, Integer longitude)
  +Cliente novoCliente(Integer NIF, String nome, String email, Endereco end, String numSegSocial,\n String password, Integer numCC, String dataValidade, Integer CCV)
  +validaCliente(Cliente cliente)
  +registaCliente(Cliente cliente)
  -addCliente(Cliente cliente)
}

class DefinirClienteController {
  +novoCliente(Integer NIF, String nome, String email, String morada, Integer latitude, Integer longitude,\n String numSegSocial, String password, Integer numCC, String dataValidade, Integer CCV)
  +registaCliente()
}

class DefinirClienteUI {
  
}

DefinirClienteUI ..> DefinirClienteController
DefinirClienteController ..> ClienteDB
DefinirClienteController ..> Cliente
DefinirClienteController ..> Endereco
ClienteDB ..> Endereco

ClienteDB "1" - -> "*" Cliente : possui
Cliente "1" - -> "1" Endereco : tem
@enduml

PlantUML version 1.2020.27beta7(Unknown compile time)
(GPL source distribution)
Java Runtime: Java(TM) SE Runtime Environment
JVM: Java HotSpot(TM) 64-Bit Server VM
Default Encoding: UTF-8
Language: en
Country: US
--></g></svg>