<?xml version="1.0" encoding="UTF-8" standalone="no"?><svg xmlns="http://www.w3.org/2000/svg" xmlns:xlink="http://www.w3.org/1999/xlink" contentScriptType="application/ecmascript" contentStyleType="text/css" height="857px" preserveAspectRatio="none" style="width:991px;height:857px;" version="1.1" viewBox="0 0 991 857" width="991px" zoomAndPan="magnify"><defs><filter height="300%" id="f1mzyuxv9m4f9f" width="300%" x="-1" y="-1"><feGaussianBlur result="blurOut" stdDeviation="2.0"/><feColorMatrix in="blurOut" result="blurOut2" type="matrix" values="0 0 0 0 0 0 0 0 0 0 0 0 0 0 0 0 0 0 .4 0"/><feOffset dx="4.0" dy="4.0" in="blurOut2" result="blurOut3"/><feBlend in="SourceGraphic" in2="blurOut3" mode="normal"/></filter></defs><g><!--MD5=[20a748d5ee336a9a91751b0a3d4f0beb]
class Cliente--><rect codeLine="3" fill="#FEFECE" filter="url(#f1mzyuxv9m4f9f)" height="188.8516" id="Cliente" style="stroke:#A80036;stroke-width:1.5;" width="497" x="251" y="465"/><ellipse cx="474.75" cy="481" fill="#ADD1B2" rx="11" ry="11" style="stroke:#A80036;stroke-width:1.0;"/><path d="M477.0938,476.6719 C476.1563,476.2344 475.5625,476.0938 474.6875,476.0938 C472.0625,476.0938 470.0625,478.1719 470.0625,480.8906 L470.0625,482.0156 C470.0625,484.5938 472.1719,486.4844 475.0625,486.4844 C476.2813,486.4844 477.4375,486.1875 478.1875,485.6406 C478.7656,485.2344 479.0938,484.7813 479.0938,484.3906 C479.0938,483.9375 478.7031,483.5469 478.2344,483.5469 C478.0156,483.5469 477.8125,483.625 477.625,483.8125 C477.1719,484.2969 477.1719,484.2969 476.9844,484.3906 C476.5625,484.6563 475.875,484.7813 475.1094,484.7813 C473.0625,484.7813 471.7656,483.6875 471.7656,481.9844 L471.7656,480.8906 C471.7656,479.1094 473.0156,477.7969 474.75,477.7969 C475.3281,477.7969 475.9375,477.9531 476.4063,478.2031 C476.8906,478.4844 477.0625,478.7031 477.1563,479.1094 C477.2188,479.5156 477.25,479.6406 477.3906,479.7656 C477.5313,479.9063 477.7656,480.0156 477.9844,480.0156 C478.25,480.0156 478.5156,479.875 478.6875,479.6563 C478.7969,479.5 478.8281,479.3125 478.8281,478.8906 L478.8281,477.4688 C478.8281,477.0313 478.8125,476.9063 478.7188,476.75 C478.5625,476.4844 478.2813,476.3438 477.9844,476.3438 C477.6875,476.3438 477.4844,476.4375 477.2656,476.75 L477.0938,476.6719 Z " fill="#000000"/><text fill="#000000" font-family="sans-serif" font-size="12" lengthAdjust="spacing" textLength="41" x="495.25" y="485.1543">Cliente</text><line style="stroke:#A80036;stroke-width:1.5;" x1="252" x2="747" y1="497" y2="497"/><text fill="#000000" font-family="sans-serif" font-size="11" lengthAdjust="spacing" textLength="66" x="257" y="511.2104">-Integer NIF</text><text fill="#000000" font-family="sans-serif" font-size="11" lengthAdjust="spacing" textLength="74" x="257" y="524.0151">-String nome</text><text fill="#000000" font-family="sans-serif" font-size="11" lengthAdjust="spacing" textLength="73" x="257" y="536.8198">-String email</text><text fill="#000000" font-family="sans-serif" font-size="11" lengthAdjust="spacing" textLength="84" x="257" y="549.6245">-Endereco end</text><text fill="#000000" font-family="sans-serif" font-size="11" lengthAdjust="spacing" textLength="123" x="257" y="562.4292">-String numSegSocial</text><text fill="#000000" font-family="sans-serif" font-size="11" lengthAdjust="spacing" textLength="94" x="257" y="575.2339">-String password</text><text fill="#000000" font-family="sans-serif" font-size="11" lengthAdjust="spacing" textLength="90" x="257" y="588.0386">-Integer numCC</text><text fill="#000000" font-family="sans-serif" font-size="11" lengthAdjust="spacing" textLength="116" x="257" y="600.8433">-String dataValidade</text><text fill="#000000" font-family="sans-serif" font-size="11" lengthAdjust="spacing" textLength="73" x="257" y="613.6479">-Integer CCV</text><line style="stroke:#A80036;stroke-width:1.5;" x1="252" x2="747" y1="620.2422" y2="620.2422"/><text fill="#000000" font-family="sans-serif" font-size="11" lengthAdjust="spacing" textLength="485" x="257" y="634.4526">+Cliente(Integer NIF, String nome, String email, Endereco end, String numSegSocial,</text><text fill="#000000" font-family="sans-serif" font-size="11" lengthAdjust="spacing" textLength="382" x="261" y="647.2573">String password, Integer numCC, String dataValidade, Integer CCV)</text><!--MD5=[36c1942e8942a3e4f47e6de3733e3d18]
class Endereco--><rect codeLine="16" fill="#FEFECE" filter="url(#f1mzyuxv9m4f9f)" height="112.0234" id="Endereco" style="stroke:#A80036;stroke-width:1.5;" width="458" x="270.5" y="731"/><ellipse cx="466.25" cy="747" fill="#ADD1B2" rx="11" ry="11" style="stroke:#A80036;stroke-width:1.0;"/><path d="M468.5938,742.6719 C467.6563,742.2344 467.0625,742.0938 466.1875,742.0938 C463.5625,742.0938 461.5625,744.1719 461.5625,746.8906 L461.5625,748.0156 C461.5625,750.5938 463.6719,752.4844 466.5625,752.4844 C467.7813,752.4844 468.9375,752.1875 469.6875,751.6406 C470.2656,751.2344 470.5938,750.7813 470.5938,750.3906 C470.5938,749.9375 470.2031,749.5469 469.7344,749.5469 C469.5156,749.5469 469.3125,749.625 469.125,749.8125 C468.6719,750.2969 468.6719,750.2969 468.4844,750.3906 C468.0625,750.6563 467.375,750.7813 466.6094,750.7813 C464.5625,750.7813 463.2656,749.6875 463.2656,747.9844 L463.2656,746.8906 C463.2656,745.1094 464.5156,743.7969 466.25,743.7969 C466.8281,743.7969 467.4375,743.9531 467.9063,744.2031 C468.3906,744.4844 468.5625,744.7031 468.6563,745.1094 C468.7188,745.5156 468.75,745.6406 468.8906,745.7656 C469.0313,745.9063 469.2656,746.0156 469.4844,746.0156 C469.75,746.0156 470.0156,745.875 470.1875,745.6563 C470.2969,745.5 470.3281,745.3125 470.3281,744.8906 L470.3281,743.4688 C470.3281,743.0313 470.3125,742.9063 470.2188,742.75 C470.0625,742.4844 469.7813,742.3438 469.4844,742.3438 C469.1875,742.3438 468.9844,742.4375 468.7656,742.75 L468.5938,742.6719 Z " fill="#000000"/><text fill="#000000" font-family="sans-serif" font-size="12" lengthAdjust="spacing" textLength="58" x="486.75" y="751.1543">Endereco</text><line style="stroke:#A80036;stroke-width:1.5;" x1="271.5" x2="727.5" y1="763" y2="763"/><text fill="#000000" font-family="sans-serif" font-size="11" lengthAdjust="spacing" textLength="84" x="276.5" y="777.2104">-String morada</text><text fill="#000000" font-family="sans-serif" font-size="11" lengthAdjust="spacing" textLength="92" x="276.5" y="790.0151">-Double latitude</text><text fill="#000000" font-family="sans-serif" font-size="11" lengthAdjust="spacing" textLength="102" x="276.5" y="802.8198">-Double longitude</text><text fill="#000000" font-family="sans-serif" font-size="11" lengthAdjust="spacing" textLength="92" x="276.5" y="815.6245">-Double altitude</text><line style="stroke:#A80036;stroke-width:1.5;" x1="271.5" x2="727.5" y1="822.2188" y2="822.2188"/><text fill="#000000" font-family="sans-serif" font-size="11" lengthAdjust="spacing" textLength="446" x="276.5" y="836.4292">+Endereco(String morada, Double latitude, Double longitude, Double altitude)</text><!--MD5=[3b6b8abd81b442aa81592fe2bb0f51b5]
class ClienteDB--><rect codeLine="24" fill="#FEFECE" filter="url(#f1mzyuxv9m4f9f)" height="124.8281" id="ClienteDB" style="stroke:#A80036;stroke-width:1.5;" width="570" x="407.5" y="263"/><ellipse cx="659.25" cy="279" fill="#ADD1B2" rx="11" ry="11" style="stroke:#A80036;stroke-width:1.0;"/><path d="M661.5938,274.6719 C660.6563,274.2344 660.0625,274.0938 659.1875,274.0938 C656.5625,274.0938 654.5625,276.1719 654.5625,278.8906 L654.5625,280.0156 C654.5625,282.5938 656.6719,284.4844 659.5625,284.4844 C660.7813,284.4844 661.9375,284.1875 662.6875,283.6406 C663.2656,283.2344 663.5938,282.7813 663.5938,282.3906 C663.5938,281.9375 663.2031,281.5469 662.7344,281.5469 C662.5156,281.5469 662.3125,281.625 662.125,281.8125 C661.6719,282.2969 661.6719,282.2969 661.4844,282.3906 C661.0625,282.6563 660.375,282.7813 659.6094,282.7813 C657.5625,282.7813 656.2656,281.6875 656.2656,279.9844 L656.2656,278.8906 C656.2656,277.1094 657.5156,275.7969 659.25,275.7969 C659.8281,275.7969 660.4375,275.9531 660.9063,276.2031 C661.3906,276.4844 661.5625,276.7031 661.6563,277.1094 C661.7188,277.5156 661.75,277.6406 661.8906,277.7656 C662.0313,277.9063 662.2656,278.0156 662.4844,278.0156 C662.75,278.0156 663.0156,277.875 663.1875,277.6563 C663.2969,277.5 663.3281,277.3125 663.3281,276.8906 L663.3281,275.4688 C663.3281,275.0313 663.3125,274.9063 663.2188,274.75 C663.0625,274.4844 662.7813,274.3438 662.4844,274.3438 C662.1875,274.3438 661.9844,274.4375 661.7656,274.75 L661.5938,274.6719 Z " fill="#000000"/><text fill="#000000" font-family="sans-serif" font-size="12" lengthAdjust="spacing" textLength="58" x="679.75" y="283.1543">ClienteDB</text><line style="stroke:#A80036;stroke-width:1.5;" x1="408.5" x2="976.5" y1="295" y2="295"/><line style="stroke:#A80036;stroke-width:1.5;" x1="408.5" x2="976.5" y1="303" y2="303"/><text fill="#000000" font-family="sans-serif" font-size="11" lengthAdjust="spacing" textLength="532" x="413.5" y="317.2104">+Endereco novoEndereco(String morada, Double latitude, Double longitude, Double altitude)</text><text fill="#000000" font-family="sans-serif" font-size="11" lengthAdjust="spacing" textLength="558" x="413.5" y="330.0151">+Cliente novoCliente(Integer NIF, String nome, String email, Endereco end, String numSegSocial,</text><text fill="#000000" font-family="sans-serif" font-size="11" lengthAdjust="spacing" textLength="382" x="417.5" y="342.8198">String password, Integer numCC, String dataValidade, Integer CCV)</text><text fill="#000000" font-family="sans-serif" font-size="11" lengthAdjust="spacing" textLength="176" x="413.5" y="355.6245">+validaCliente(Cliente cliente)</text><text fill="#000000" font-family="sans-serif" font-size="11" lengthAdjust="spacing" textLength="181" x="413.5" y="368.4292">+registaCliente(Cliente cliente)</text><text fill="#000000" font-family="sans-serif" font-size="11" lengthAdjust="spacing" textLength="158" x="413.5" y="381.2339">-addCliente(Cliente cliente)</text><!--MD5=[71ca537e8ef433b13ff9c80f6a6e1275]
class DefinirClienteController--><rect codeLine="32" fill="#FEFECE" filter="url(#f1mzyuxv9m4f9f)" height="86.4141" id="DefinirClienteController" style="stroke:#A80036;stroke-width:1.5;" width="695" x="7" y="116"/><ellipse cx="280.75" cy="132" fill="#ADD1B2" rx="11" ry="11" style="stroke:#A80036;stroke-width:1.0;"/><path d="M283.0938,127.6719 C282.1563,127.2344 281.5625,127.0938 280.6875,127.0938 C278.0625,127.0938 276.0625,129.1719 276.0625,131.8906 L276.0625,133.0156 C276.0625,135.5938 278.1719,137.4844 281.0625,137.4844 C282.2813,137.4844 283.4375,137.1875 284.1875,136.6406 C284.7656,136.2344 285.0938,135.7813 285.0938,135.3906 C285.0938,134.9375 284.7031,134.5469 284.2344,134.5469 C284.0156,134.5469 283.8125,134.625 283.625,134.8125 C283.1719,135.2969 283.1719,135.2969 282.9844,135.3906 C282.5625,135.6563 281.875,135.7813 281.1094,135.7813 C279.0625,135.7813 277.7656,134.6875 277.7656,132.9844 L277.7656,131.8906 C277.7656,130.1094 279.0156,128.7969 280.75,128.7969 C281.3281,128.7969 281.9375,128.9531 282.4063,129.2031 C282.8906,129.4844 283.0625,129.7031 283.1563,130.1094 C283.2188,130.5156 283.25,130.6406 283.3906,130.7656 C283.5313,130.9063 283.7656,131.0156 283.9844,131.0156 C284.25,131.0156 284.5156,130.875 284.6875,130.6563 C284.7969,130.5 284.8281,130.3125 284.8281,129.8906 L284.8281,128.4688 C284.8281,128.0313 284.8125,127.9063 284.7188,127.75 C284.5625,127.4844 284.2813,127.3438 283.9844,127.3438 C283.6875,127.3438 283.4844,127.4375 283.2656,127.75 L283.0938,127.6719 Z " fill="#000000"/><text fill="#000000" font-family="sans-serif" font-size="12" lengthAdjust="spacing" textLength="139" x="301.25" y="136.1543">DefinirClienteController</text><line style="stroke:#A80036;stroke-width:1.5;" x1="8" x2="701" y1="148" y2="148"/><line style="stroke:#A80036;stroke-width:1.5;" x1="8" x2="701" y1="156" y2="156"/><text fill="#000000" font-family="sans-serif" font-size="11" lengthAdjust="spacing" textLength="679" x="13" y="170.2104">+novoCliente(Integer NIF, String nome, String email, String morada, Double latitude, Double longitude, Double altitude</text><text fill="#000000" font-family="sans-serif" font-size="11" lengthAdjust="spacing" textLength="508" x="17" y="183.0151">String numSegSocial, String password, Integer numCC, String dataValidade, Integer CCV)</text><text fill="#000000" font-family="sans-serif" font-size="11" lengthAdjust="spacing" textLength="97" x="13" y="195.8198">+registaCliente()</text><!--MD5=[c0fb86b0564349bf5bdacc636ec0dd0e]
class DefinirClienteUI--><rect codeLine="37" fill="#FEFECE" filter="url(#f1mzyuxv9m4f9f)" height="48" id="DefinirClienteUI" style="stroke:#A80036;stroke-width:1.5;" width="124" x="292.5" y="7"/><ellipse cx="307.5" cy="23" fill="#ADD1B2" rx="11" ry="11" style="stroke:#A80036;stroke-width:1.0;"/><path d="M309.8438,18.6719 C308.9063,18.2344 308.3125,18.0938 307.4375,18.0938 C304.8125,18.0938 302.8125,20.1719 302.8125,22.8906 L302.8125,24.0156 C302.8125,26.5938 304.9219,28.4844 307.8125,28.4844 C309.0313,28.4844 310.1875,28.1875 310.9375,27.6406 C311.5156,27.2344 311.8438,26.7813 311.8438,26.3906 C311.8438,25.9375 311.4531,25.5469 310.9844,25.5469 C310.7656,25.5469 310.5625,25.625 310.375,25.8125 C309.9219,26.2969 309.9219,26.2969 309.7344,26.3906 C309.3125,26.6563 308.625,26.7813 307.8594,26.7813 C305.8125,26.7813 304.5156,25.6875 304.5156,23.9844 L304.5156,22.8906 C304.5156,21.1094 305.7656,19.7969 307.5,19.7969 C308.0781,19.7969 308.6875,19.9531 309.1563,20.2031 C309.6406,20.4844 309.8125,20.7031 309.9063,21.1094 C309.9688,21.5156 310,21.6406 310.1406,21.7656 C310.2813,21.9063 310.5156,22.0156 310.7344,22.0156 C311,22.0156 311.2656,21.875 311.4375,21.6563 C311.5469,21.5 311.5781,21.3125 311.5781,20.8906 L311.5781,19.4688 C311.5781,19.0313 311.5625,18.9063 311.4688,18.75 C311.3125,18.4844 311.0313,18.3438 310.7344,18.3438 C310.4375,18.3438 310.2344,18.4375 310.0156,18.75 L309.8438,18.6719 Z " fill="#000000"/><text fill="#000000" font-family="sans-serif" font-size="12" lengthAdjust="spacing" textLength="92" x="321.5" y="27.1543">DefinirClienteUI</text><line style="stroke:#A80036;stroke-width:1.5;" x1="293.5" x2="415.5" y1="39" y2="39"/><line style="stroke:#A80036;stroke-width:1.5;" x1="293.5" x2="415.5" y1="47" y2="47"/><!--MD5=[2df4f06df0e0a044116713e3d31f1710]
link DefinirClienteUI to DefinirClienteController--><path codeLine="41" d="M354.5,55.11 C354.5,70.631 354.5,91.639 354.5,110.625 " fill="none" id="DefinirClienteUI-to-DefinirClienteController" style="stroke:#A80036;stroke-width:1.0;stroke-dasharray:7.0,7.0;"/><polygon fill="#A80036" points="354.5,115.921,358.5,106.921,354.5,110.921,350.5,106.921,354.5,115.921" style="stroke:#A80036;stroke-width:1.0;"/><!--MD5=[6dd4ee26d1a1908e30b537e576994049]
link DefinirClienteController to ClienteDB--><path codeLine="42" d="M441.104,202.149 C477.568,219.895 520.806,240.939 561.052,260.526 " fill="none" id="DefinirClienteController-to-ClienteDB" style="stroke:#A80036;stroke-width:1.0;stroke-dasharray:7.0,7.0;"/><polygon fill="#A80036" points="565.945,262.907,559.6037,255.3712,561.4494,260.7185,556.1021,262.5642,565.945,262.907" style="stroke:#A80036;stroke-width:1.0;"/><!--MD5=[3bd44b91ab14edcca89780065aa4fc28]
link DefinirClienteController to Cliente--><path codeLine="43" d="M355.715,202.103 C358.248,248.896 365.988,326.033 389.5,388 C398.911,412.805 412.306,437.771 426.525,460.657 " fill="none" id="DefinirClienteController-to-Cliente" style="stroke:#A80036;stroke-width:1.0;stroke-dasharray:7.0,7.0;"/><polygon fill="#A80036" points="429.188,464.906,427.7961,455.156,426.532,460.6698,421.0182,459.4056,429.188,464.906" style="stroke:#A80036;stroke-width:1.0;"/><!--MD5=[43597bbb85a4e4e141e0228991eb15a3]
link DefinirClienteController to Endereco--><path codeLine="44" d="M324.264,202.041 C263.823,291.701 141.478,505.605 233.5,654 C253.067,685.553 282.675,709.8 315.127,728.354 " fill="none" id="DefinirClienteController-to-Endereco" style="stroke:#A80036;stroke-width:1.0;stroke-dasharray:7.0,7.0;"/><polygon fill="#A80036" points="319.515,730.818,313.6276,722.9226,315.1558,728.3691,309.7093,729.8973,319.515,730.818" style="stroke:#A80036;stroke-width:1.0;"/><!--MD5=[2db626ce7fbe1507ecdb90e7794d7a0a]
link ClienteDB to Endereco--><path codeLine="45" d="M731.598,388.061 C770.222,457.487 816.692,571.447 765.5,654 C745.933,685.553 716.325,709.8 683.873,728.354 " fill="none" id="ClienteDB-to-Endereco" style="stroke:#A80036;stroke-width:1.0;stroke-dasharray:7.0,7.0;"/><polygon fill="#A80036" points="679.485,730.818,689.2907,729.8973,683.8442,728.3691,685.3724,722.9226,679.485,730.818" style="stroke:#A80036;stroke-width:1.0;"/><!--MD5=[1ac7a80d7d1bce9ba8d5537593646246]
link ClienteDB to Cliente--><path codeLine="47" d="M641.286,388.063 C622.736,410.362 601.298,436.132 580.798,460.774 " fill="none" id="ClienteDB-to-Cliente" style="stroke:#A80036;stroke-width:1.0;"/><polygon fill="#A80036" points="577.517,464.718,586.3472,460.356,580.7141,460.8737,580.1964,455.2406,577.517,464.718" style="stroke:#A80036;stroke-width:1.0;"/><text fill="#000000" font-family="sans-serif" font-size="13" lengthAdjust="spacing" textLength="41" x="613.5" y="431.0669">possui</text><text fill="#000000" font-family="sans-serif" font-size="13" lengthAdjust="spacing" textLength="8" x="627.247" y="407.8097">1</text><text fill="#000000" font-family="sans-serif" font-size="13" lengthAdjust="spacing" textLength="7" x="576.2222" y="453.9647">*</text><!--MD5=[43a7c1a046aa41d1c9842e3954366be4]
link Cliente to Endereco--><path codeLine="48" d="M499.5,654.173 C499.5,678.371 499.5,703.776 499.5,725.754 " fill="none" id="Cliente-to-Endereco" style="stroke:#A80036;stroke-width:1.0;"/><polygon fill="#A80036" points="499.5,730.972,503.5,721.972,499.5,725.972,495.5,721.972,499.5,730.972" style="stroke:#A80036;stroke-width:1.0;"/><text fill="#000000" font-family="sans-serif" font-size="13" lengthAdjust="spacing" textLength="26" x="500.5" y="697.0669">tem</text><text fill="#000000" font-family="sans-serif" font-size="13" lengthAdjust="spacing" textLength="8" x="491.1938" y="674.0733">1</text><text fill="#000000" font-family="sans-serif" font-size="13" lengthAdjust="spacing" textLength="8" x="490.9875" y="719.9064">1</text><!--MD5=[da785b6cc2301d0dc89c7b703515cee7]
@startuml
skinparam classAttributeIconSize 0

class Cliente {
  -Integer NIF
  -String nome
  -String email
  -Endereco end
  -String numSegSocial
  -String password
  -Integer numCC
  -String dataValidade
  -Integer CCV
  +Cliente(Integer NIF, String nome, String email, Endereco end, String numSegSocial,\n String password, Integer numCC, String dataValidade, Integer CCV)
}

class Endereco {
  -String morada
  -Double latitude
  -Double longitude
  -Double altitude 
  +Endereco(String morada, Double latitude, Double longitude, Double altitude)
}

class ClienteDB {
  +Endereco novoEndereco(String morada, Double latitude, Double longitude, Double altitude)
  +Cliente novoCliente(Integer NIF, String nome, String email, Endereco end, String numSegSocial,\n String password, Integer numCC, String dataValidade, Integer CCV)
  +validaCliente(Cliente cliente)
  +registaCliente(Cliente cliente)
  -addCliente(Cliente cliente)
}

class DefinirClienteController {
  +novoCliente(Integer NIF, String nome, String email, String morada, Double latitude, Double longitude, Double altitude \n String numSegSocial, String password, Integer numCC, String dataValidade, Integer CCV)
  +registaCliente()
}

class DefinirClienteUI {
  
}

DefinirClienteUI ..> DefinirClienteController
DefinirClienteController ..> ClienteDB
DefinirClienteController ..> Cliente
DefinirClienteController ..> Endereco
ClienteDB ..> Endereco

ClienteDB "1" - -> "*" Cliente : possui
Cliente "1" - -> "1" Endereco : tem
@enduml

PlantUML version 1.2020.27beta7(Unknown compile time)
(GPL source distribution)
Java Runtime: Java(TM) SE Runtime Environment
JVM: Java HotSpot(TM) 64-Bit Server VM
Default Encoding: UTF-8
Language: en
Country: US
--></g></svg>