<?xml version="1.0" encoding="UTF-8" standalone="no"?><svg xmlns="http://www.w3.org/2000/svg" xmlns:xlink="http://www.w3.org/1999/xlink" contentScriptType="application/ecmascript" contentStyleType="text/css" height="238px" preserveAspectRatio="none" style="width:475px;height:238px;" version="1.1" viewBox="0 0 475 238" width="475px" zoomAndPan="magnify"><defs><filter height="300%" id="fyaph3e6pyimx" width="300%" x="-1" y="-1"><feGaussianBlur result="blurOut" stdDeviation="2.0"/><feColorMatrix in="blurOut" result="blurOut2" type="matrix" values="0 0 0 0 0 0 0 0 0 0 0 0 0 0 0 0 0 0 .4 0"/><feOffset dx="4.0" dy="4.0" in="blurOut2" result="blurOut3"/><feBlend in="SourceGraphic" in2="blurOut3" mode="normal"/></filter></defs><g><!--MD5=[5dd1d6732c071e710b9290b531f2fa3b]
class Utilizador--><rect codeLine="5" fill="#FEFECE" filter="url(#fyaph3e6pyimx)" height="104.0234" id="Utilizador" style="stroke:#A80036;stroke-width:1.5;" width="155" x="306" y="7"/><ellipse cx="350.75" cy="23" fill="#ADD1B2" rx="11" ry="11" style="stroke:#A80036;stroke-width:1.0;"/><path d="M353.7188,28.6406 Q353.1406,28.9375 352.5,29.0781 Q351.8594,29.2344 351.1563,29.2344 Q348.6563,29.2344 347.3281,27.5938 Q346.0156,25.9375 346.0156,22.8125 Q346.0156,19.6875 347.3281,18.0313 Q348.6563,16.375 351.1563,16.375 Q351.8594,16.375 352.5,16.5313 Q353.1563,16.6875 353.7188,16.9844 L353.7188,19.7031 Q353.0938,19.125 352.5,18.8594 Q351.9063,18.5781 351.2813,18.5781 Q349.9375,18.5781 349.25,19.6563 Q348.5625,20.7188 348.5625,22.8125 Q348.5625,24.9063 349.25,25.9844 Q349.9375,27.0469 351.2813,27.0469 Q351.9063,27.0469 352.5,26.7813 Q353.0938,26.5 353.7188,25.9219 L353.7188,28.6406 Z " fill="#000000"/><text fill="#000000" font-family="sans-serif" font-size="12" lengthAdjust="spacingAndGlyphs" textLength="57" x="371.25" y="27.1543">Utilizador</text><line style="stroke:#A80036;stroke-width:1.5;" x1="307" x2="460" y1="39" y2="39"/><text fill="#000000" font-family="sans-serif" font-size="11" lengthAdjust="spacingAndGlyphs" textLength="21" x="312" y="53.2104">-NIF</text><text fill="#000000" font-family="sans-serif" font-size="11" lengthAdjust="spacingAndGlyphs" textLength="36" x="312" y="66.0151">-nome</text><text fill="#000000" font-family="sans-serif" font-size="11" lengthAdjust="spacingAndGlyphs" textLength="35" x="312" y="78.8198">-email</text><text fill="#000000" font-family="sans-serif" font-size="11" lengthAdjust="spacingAndGlyphs" textLength="143" x="312" y="91.6245">-numeroSegurancaSocial</text><text fill="#000000" font-family="sans-serif" font-size="11" lengthAdjust="spacingAndGlyphs" textLength="60" x="312" y="104.4292">-password</text><!--MD5=[36c1942e8942a3e4f47e6de3733e3d18]
class Endereco--><rect codeLine="13" fill="#FEFECE" filter="url(#fyaph3e6pyimx)" height="78.4141" id="Endereco" style="stroke:#A80036;stroke-width:1.5;" width="92" x="337.5" y="146"/><ellipse cx="352.5" cy="162" fill="#ADD1B2" rx="11" ry="11" style="stroke:#A80036;stroke-width:1.0;"/><path d="M355.4688,167.6406 Q354.8906,167.9375 354.25,168.0781 Q353.6094,168.2344 352.9063,168.2344 Q350.4063,168.2344 349.0781,166.5938 Q347.7656,164.9375 347.7656,161.8125 Q347.7656,158.6875 349.0781,157.0313 Q350.4063,155.375 352.9063,155.375 Q353.6094,155.375 354.25,155.5313 Q354.9063,155.6875 355.4688,155.9844 L355.4688,158.7031 Q354.8438,158.125 354.25,157.8594 Q353.6563,157.5781 353.0313,157.5781 Q351.6875,157.5781 351,158.6563 Q350.3125,159.7188 350.3125,161.8125 Q350.3125,163.9063 351,164.9844 Q351.6875,166.0469 353.0313,166.0469 Q353.6563,166.0469 354.25,165.7813 Q354.8438,165.5 355.4688,164.9219 L355.4688,167.6406 Z " fill="#000000"/><text fill="#000000" font-family="sans-serif" font-size="12" lengthAdjust="spacingAndGlyphs" textLength="60" x="366.5" y="166.1543">Endereco</text><line style="stroke:#A80036;stroke-width:1.5;" x1="338.5" x2="428.5" y1="178" y2="178"/><text fill="#000000" font-family="sans-serif" font-size="11" lengthAdjust="spacingAndGlyphs" textLength="48" x="343.5" y="192.2104">-morada</text><text fill="#000000" font-family="sans-serif" font-size="11" lengthAdjust="spacingAndGlyphs" textLength="46" x="343.5" y="205.0151">-latitude</text><text fill="#000000" font-family="sans-serif" font-size="11" lengthAdjust="spacingAndGlyphs" textLength="56" x="343.5" y="217.8198">-longitude</text><!--MD5=[20a748d5ee336a9a91751b0a3d4f0beb]
class Cliente--><rect codeLine="19" fill="#FEFECE" filter="url(#fyaph3e6pyimx)" height="142.4375" id="Cliente" style="stroke:#A80036;stroke-width:1.5;" width="155" x="7" y="51"/><ellipse cx="58.75" cy="67" fill="#ADD1B2" rx="11" ry="11" style="stroke:#A80036;stroke-width:1.0;"/><path d="M61.7188,72.6406 Q61.1406,72.9375 60.5,73.0781 Q59.8594,73.2344 59.1563,73.2344 Q56.6563,73.2344 55.3281,71.5938 Q54.0156,69.9375 54.0156,66.8125 Q54.0156,63.6875 55.3281,62.0313 Q56.6563,60.375 59.1563,60.375 Q59.8594,60.375 60.5,60.5313 Q61.1563,60.6875 61.7188,60.9844 L61.7188,63.7031 Q61.0938,63.125 60.5,62.8594 Q59.9063,62.5781 59.2813,62.5781 Q57.9375,62.5781 57.25,63.6563 Q56.5625,64.7188 56.5625,66.8125 Q56.5625,68.9063 57.25,69.9844 Q57.9375,71.0469 59.2813,71.0469 Q59.9063,71.0469 60.5,70.7813 Q61.0938,70.5 61.7188,69.9219 L61.7188,72.6406 Z " fill="#000000"/><text fill="#000000" font-family="sans-serif" font-size="12" lengthAdjust="spacingAndGlyphs" textLength="43" x="79.25" y="71.1543">Cliente</text><line style="stroke:#A80036;stroke-width:1.5;" x1="8" x2="161" y1="83" y2="83"/><text fill="#000000" font-family="sans-serif" font-size="11" lengthAdjust="spacingAndGlyphs" textLength="127" x="13" y="97.2104">-numeroCartaoCredito</text><text fill="#000000" font-family="sans-serif" font-size="11" lengthAdjust="spacingAndGlyphs" textLength="92" x="13" y="110.0151">-dataDeValidade</text><text fill="#000000" font-family="sans-serif" font-size="11" lengthAdjust="spacingAndGlyphs" textLength="27" x="13" y="122.8198">-CCV</text><text fill="#000000" font-family="sans-serif" font-size="11" lengthAdjust="spacingAndGlyphs" textLength="21" x="13" y="135.6245">-NIF</text><text fill="#000000" font-family="sans-serif" font-size="11" lengthAdjust="spacingAndGlyphs" textLength="36" x="13" y="148.4292">-nome</text><text fill="#000000" font-family="sans-serif" font-size="11" lengthAdjust="spacingAndGlyphs" textLength="35" x="13" y="161.2339">-email</text><text fill="#000000" font-family="sans-serif" font-size="11" lengthAdjust="spacingAndGlyphs" textLength="143" x="13" y="174.0386">-numeroSegurancaSocial</text><text fill="#000000" font-family="sans-serif" font-size="11" lengthAdjust="spacingAndGlyphs" textLength="60" x="13" y="186.8433">-password</text><!--MD5=[43a7c1a046aa41d1c9842e3954366be4]
link Cliente to Endereco--><path codeLine="30" d="M162.2782,138.388 C217.8214,150.0911 290.6744,165.4414 337.2999,175.2655 " fill="none" id="Cliente-Endereco" style="stroke:#A80036;stroke-width:1.0;"/><polygon fill="#000000" points="223.3926,139.5973,215.1478,134.8566,213.9359,140.6082,223.3926,139.5973" style="stroke:#000000;stroke-width:1.0;"/><text fill="#000000" font-family="sans-serif" font-size="13" lengthAdjust="spacingAndGlyphs" textLength="26" x="227.5" y="143.0669">tem</text><text fill="#000000" font-family="sans-serif" font-size="13" lengthAdjust="spacingAndGlyphs" textLength="8" x="170.0727" y="152.7172">1</text><text fill="#000000" font-family="sans-serif" font-size="13" lengthAdjust="spacingAndGlyphs" textLength="8" x="321.613" y="186.9687">1</text><!--MD5=[00a2b7b20e7d7828fa181bc7c0dc6998]
link Cliente to Utilizador--><path codeLine="31" d="M162.2782,105.612 C206.4878,96.2969 261.6638,84.6712 305.8519,75.3606 " fill="none" id="Cliente-Utilizador" style="stroke:#A80036;stroke-width:1.0;"/><polygon fill="#000000" points="201.8926,74.5355,192.4359,73.5246,193.6478,79.2762,201.8926,74.5355" style="stroke:#000000;stroke-width:1.0;"/><text fill="#000000" font-family="sans-serif" font-size="13" lengthAdjust="spacingAndGlyphs" textLength="69" x="206" y="80.0669">atua como</text><text fill="#000000" font-family="sans-serif" font-size="13" lengthAdjust="spacingAndGlyphs" textLength="8" x="170.0727" y="116.8172">1</text><text fill="#000000" font-family="sans-serif" font-size="13" lengthAdjust="spacingAndGlyphs" textLength="8" x="290.0698" y="89.7069">1</text><!--MD5=[fdbde3e6695d9ee4b26c7b49738fce90]
@startuml
skinparam classAttributeIconSize 0
hide methods
left to right direction

class Utilizador {
  -NIF
  -nome
  -email
  -numeroSegurancaSocial
  -password
}

class Endereco {
  -morada
  -latitude
  -longitude
}

class Cliente {
  -numeroCartaoCredito
  -dataDeValidade
  -CCV
  -NIF
  -nome
  -email
  -numeroSegurancaSocial
  -password
}

Cliente "1" - - "1" Endereco: tem >
Cliente "1" - - "1" Utilizador: atua como >
@enduml

PlantUML version 1.2020.22(Sun Dec 06 09:36:27 UTC 2020)
(GPL source distribution)
Java Runtime: OpenJDK Runtime Environment
JVM: OpenJDK 64-Bit Server VM
Default Encoding: UTF-8
Language: en
Country: US
--></g></svg>