<?xml version="1.0" encoding="UTF-8" standalone="no"?><svg xmlns="http://www.w3.org/2000/svg" xmlns:xlink="http://www.w3.org/1999/xlink" contentScriptType="application/ecmascript" contentStyleType="text/css" height="365px" preserveAspectRatio="none" style="width:475px;height:365px;" version="1.1" viewBox="0 0 475 365" width="475px" zoomAndPan="magnify"><defs><filter height="300%" id="f1s9m6s6ogq2y3" width="300%" x="-1" y="-1"><feGaussianBlur result="blurOut" stdDeviation="2.0"/><feColorMatrix in="blurOut" result="blurOut2" type="matrix" values="0 0 0 0 0 0 0 0 0 0 0 0 0 0 0 0 0 0 .4 0"/><feOffset dx="4.0" dy="4.0" in="blurOut2" result="blurOut3"/><feBlend in="SourceGraphic" in2="blurOut3" mode="normal"/></filter></defs><g><!--MD5=[5dd1d6732c071e710b9290b531f2fa3b]
class Utilizador--><rect codeLine="5" fill="#FEFECE" filter="url(#f1s9m6s6ogq2y3)" height="104.0234" id="Utilizador" style="stroke:#A80036;stroke-width:1.5;" width="155" x="306" y="7"/><ellipse cx="350.75" cy="23" fill="#ADD1B2" rx="11" ry="11" style="stroke:#A80036;stroke-width:1.0;"/><path d="M353.0938,18.6719 C352.1563,18.2344 351.5625,18.0938 350.6875,18.0938 C348.0625,18.0938 346.0625,20.1719 346.0625,22.8906 L346.0625,24.0156 C346.0625,26.5938 348.1719,28.4844 351.0625,28.4844 C352.2813,28.4844 353.4375,28.1875 354.1875,27.6406 C354.7656,27.2344 355.0938,26.7813 355.0938,26.3906 C355.0938,25.9375 354.7031,25.5469 354.2344,25.5469 C354.0156,25.5469 353.8125,25.625 353.625,25.8125 C353.1719,26.2969 353.1719,26.2969 352.9844,26.3906 C352.5625,26.6563 351.875,26.7813 351.1094,26.7813 C349.0625,26.7813 347.7656,25.6875 347.7656,23.9844 L347.7656,22.8906 C347.7656,21.1094 349.0156,19.7969 350.75,19.7969 C351.3281,19.7969 351.9375,19.9531 352.4063,20.2031 C352.8906,20.4844 353.0625,20.7031 353.1563,21.1094 C353.2188,21.5156 353.25,21.6406 353.3906,21.7656 C353.5313,21.9063 353.7656,22.0156 353.9844,22.0156 C354.25,22.0156 354.5156,21.875 354.6875,21.6563 C354.7969,21.5 354.8281,21.3125 354.8281,20.8906 L354.8281,19.4688 C354.8281,19.0313 354.8125,18.9063 354.7188,18.75 C354.5625,18.4844 354.2813,18.3438 353.9844,18.3438 C353.6875,18.3438 353.4844,18.4375 353.2656,18.75 L353.0938,18.6719 Z " fill="#000000"/><text fill="#000000" font-family="sans-serif" font-size="12" lengthAdjust="spacing" textLength="57" x="371.25" y="27.1543">Utilizador</text><line style="stroke:#A80036;stroke-width:1.5;" x1="307" x2="460" y1="39" y2="39"/><text fill="#000000" font-family="sans-serif" font-size="11" lengthAdjust="spacing" textLength="21" x="312" y="53.2104">-NIF</text><text fill="#000000" font-family="sans-serif" font-size="11" lengthAdjust="spacing" textLength="37" x="312" y="66.0151">-nome</text><text fill="#000000" font-family="sans-serif" font-size="11" lengthAdjust="spacing" textLength="36" x="312" y="78.8198">-email</text><text fill="#000000" font-family="sans-serif" font-size="11" lengthAdjust="spacing" textLength="143" x="312" y="91.6245">-numeroSegurancaSocial</text><text fill="#000000" font-family="sans-serif" font-size="11" lengthAdjust="spacing" textLength="57" x="312" y="104.4292">-password</text><!--MD5=[36c1942e8942a3e4f47e6de3733e3d18]
class Endereco--><rect codeLine="13" fill="#FEFECE" filter="url(#f1s9m6s6ogq2y3)" height="91.2188" id="Endereco" style="stroke:#A80036;stroke-width:1.5;" width="90" x="338.5" y="146.5"/><ellipse cx="353.5" cy="162.5" fill="#ADD1B2" rx="11" ry="11" style="stroke:#A80036;stroke-width:1.0;"/><path d="M355.8438,158.1719 C354.9063,157.7344 354.3125,157.5938 353.4375,157.5938 C350.8125,157.5938 348.8125,159.6719 348.8125,162.3906 L348.8125,163.5156 C348.8125,166.0938 350.9219,167.9844 353.8125,167.9844 C355.0313,167.9844 356.1875,167.6875 356.9375,167.1406 C357.5156,166.7344 357.8438,166.2813 357.8438,165.8906 C357.8438,165.4375 357.4531,165.0469 356.9844,165.0469 C356.7656,165.0469 356.5625,165.125 356.375,165.3125 C355.9219,165.7969 355.9219,165.7969 355.7344,165.8906 C355.3125,166.1563 354.625,166.2813 353.8594,166.2813 C351.8125,166.2813 350.5156,165.1875 350.5156,163.4844 L350.5156,162.3906 C350.5156,160.6094 351.7656,159.2969 353.5,159.2969 C354.0781,159.2969 354.6875,159.4531 355.1563,159.7031 C355.6406,159.9844 355.8125,160.2031 355.9063,160.6094 C355.9688,161.0156 356,161.1406 356.1406,161.2656 C356.2813,161.4063 356.5156,161.5156 356.7344,161.5156 C357,161.5156 357.2656,161.375 357.4375,161.1563 C357.5469,161 357.5781,160.8125 357.5781,160.3906 L357.5781,158.9688 C357.5781,158.5313 357.5625,158.4063 357.4688,158.25 C357.3125,157.9844 357.0313,157.8438 356.7344,157.8438 C356.4375,157.8438 356.2344,157.9375 356.0156,158.25 L355.8438,158.1719 Z " fill="#000000"/><text fill="#000000" font-family="sans-serif" font-size="12" lengthAdjust="spacing" textLength="58" x="367.5" y="166.6543">Endereco</text><line style="stroke:#A80036;stroke-width:1.5;" x1="339.5" x2="427.5" y1="178.5" y2="178.5"/><text fill="#000000" font-family="sans-serif" font-size="11" lengthAdjust="spacing" textLength="47" x="344.5" y="192.7104">-morada</text><text fill="#000000" font-family="sans-serif" font-size="11" lengthAdjust="spacing" textLength="47" x="344.5" y="205.5151">-latitude</text><text fill="#000000" font-family="sans-serif" font-size="11" lengthAdjust="spacing" textLength="57" x="344.5" y="218.3198">-longitude</text><text fill="#000000" font-family="sans-serif" font-size="11" lengthAdjust="spacing" textLength="47" x="344.5" y="231.1245">-altitude</text><!--MD5=[20a748d5ee336a9a91751b0a3d4f0beb]
class Cliente--><rect codeLine="20" fill="#FEFECE" filter="url(#f1s9m6s6ogq2y3)" height="104.0234" id="Cliente" style="stroke:#A80036;stroke-width:1.5;" width="155" x="7" y="140"/><ellipse cx="59.75" cy="156" fill="#ADD1B2" rx="11" ry="11" style="stroke:#A80036;stroke-width:1.0;"/><path d="M62.0938,151.6719 C61.1563,151.2344 60.5625,151.0938 59.6875,151.0938 C57.0625,151.0938 55.0625,153.1719 55.0625,155.8906 L55.0625,157.0156 C55.0625,159.5938 57.1719,161.4844 60.0625,161.4844 C61.2813,161.4844 62.4375,161.1875 63.1875,160.6406 C63.7656,160.2344 64.0938,159.7813 64.0938,159.3906 C64.0938,158.9375 63.7031,158.5469 63.2344,158.5469 C63.0156,158.5469 62.8125,158.625 62.625,158.8125 C62.1719,159.2969 62.1719,159.2969 61.9844,159.3906 C61.5625,159.6563 60.875,159.7813 60.1094,159.7813 C58.0625,159.7813 56.7656,158.6875 56.7656,156.9844 L56.7656,155.8906 C56.7656,154.1094 58.0156,152.7969 59.75,152.7969 C60.3281,152.7969 60.9375,152.9531 61.4063,153.2031 C61.8906,153.4844 62.0625,153.7031 62.1563,154.1094 C62.2188,154.5156 62.25,154.6406 62.3906,154.7656 C62.5313,154.9063 62.7656,155.0156 62.9844,155.0156 C63.25,155.0156 63.5156,154.875 63.6875,154.6563 C63.7969,154.5 63.8281,154.3125 63.8281,153.8906 L63.8281,152.4688 C63.8281,152.0313 63.8125,151.9063 63.7188,151.75 C63.5625,151.4844 63.2813,151.3438 62.9844,151.3438 C62.6875,151.3438 62.4844,151.4375 62.2656,151.75 L62.0938,151.6719 Z " fill="#000000"/><text fill="#000000" font-family="sans-serif" font-size="12" lengthAdjust="spacing" textLength="41" x="80.25" y="160.1543">Cliente</text><line style="stroke:#A80036;stroke-width:1.5;" x1="8" x2="161" y1="172" y2="172"/><text fill="#000000" font-family="sans-serif" font-size="11" lengthAdjust="spacing" textLength="21" x="13" y="186.2104">-NIF</text><text fill="#000000" font-family="sans-serif" font-size="11" lengthAdjust="spacing" textLength="37" x="13" y="199.0151">-nome</text><text fill="#000000" font-family="sans-serif" font-size="11" lengthAdjust="spacing" textLength="36" x="13" y="211.8198">-email</text><text fill="#000000" font-family="sans-serif" font-size="11" lengthAdjust="spacing" textLength="143" x="13" y="224.6245">-numeroSegurancaSocial</text><text fill="#000000" font-family="sans-serif" font-size="11" lengthAdjust="spacing" textLength="57" x="13" y="237.4292">-password</text><!--MD5=[a13ca1da61a66d544daddca6fa0a1a30]
class Cartao--><rect codeLine="28" fill="#FEFECE" filter="url(#f1s9m6s6ogq2y3)" height="78.4141" id="Cartao" style="stroke:#A80036;stroke-width:1.5;" width="138" x="314.5" y="273"/><ellipse cx="359.75" cy="289" fill="#ADD1B2" rx="11" ry="11" style="stroke:#A80036;stroke-width:1.0;"/><path d="M362.0938,284.6719 C361.1563,284.2344 360.5625,284.0938 359.6875,284.0938 C357.0625,284.0938 355.0625,286.1719 355.0625,288.8906 L355.0625,290.0156 C355.0625,292.5938 357.1719,294.4844 360.0625,294.4844 C361.2813,294.4844 362.4375,294.1875 363.1875,293.6406 C363.7656,293.2344 364.0938,292.7813 364.0938,292.3906 C364.0938,291.9375 363.7031,291.5469 363.2344,291.5469 C363.0156,291.5469 362.8125,291.625 362.625,291.8125 C362.1719,292.2969 362.1719,292.2969 361.9844,292.3906 C361.5625,292.6563 360.875,292.7813 360.1094,292.7813 C358.0625,292.7813 356.7656,291.6875 356.7656,289.9844 L356.7656,288.8906 C356.7656,287.1094 358.0156,285.7969 359.75,285.7969 C360.3281,285.7969 360.9375,285.9531 361.4063,286.2031 C361.8906,286.4844 362.0625,286.7031 362.1563,287.1094 C362.2188,287.5156 362.25,287.6406 362.3906,287.7656 C362.5313,287.9063 362.7656,288.0156 362.9844,288.0156 C363.25,288.0156 363.5156,287.875 363.6875,287.6563 C363.7969,287.5 363.8281,287.3125 363.8281,286.8906 L363.8281,285.4688 C363.8281,285.0313 363.8125,284.9063 363.7188,284.75 C363.5625,284.4844 363.2813,284.3438 362.9844,284.3438 C362.6875,284.3438 362.4844,284.4375 362.2656,284.75 L362.0938,284.6719 Z " fill="#000000"/><text fill="#000000" font-family="sans-serif" font-size="12" lengthAdjust="spacing" textLength="39" x="380.25" y="293.1543">Cartao</text><line style="stroke:#A80036;stroke-width:1.5;" x1="315.5" x2="451.5" y1="305" y2="305"/><text fill="#000000" font-family="sans-serif" font-size="11" lengthAdjust="spacing" textLength="126" x="320.5" y="319.2104">-numeroCartaoCredito</text><text fill="#000000" font-family="sans-serif" font-size="11" lengthAdjust="spacing" textLength="96" x="320.5" y="332.0151">-dataDeValidade</text><text fill="#000000" font-family="sans-serif" font-size="11" lengthAdjust="spacing" textLength="28" x="320.5" y="344.8198">-CCV</text><!--MD5=[43a7c1a046aa41d1c9842e3954366be4]
link Cliente to Endereco--><path codeLine="34" d="M162.371,192 C218.23,192 291.871,192 338.211,192 " fill="none" id="Cliente-Endereco" style="stroke:#A80036;stroke-width:1.0;"/><polygon fill="#000000" points="223.5,183.5664,214.4549,180.6275,214.4549,186.5053,223.5,183.5664" style="stroke:#000000;stroke-width:1.0;"/><text fill="#000000" font-family="sans-serif" font-size="13" lengthAdjust="spacing" textLength="26" x="227.5" y="188.0669">tem</text><text fill="#000000" font-family="sans-serif" font-size="13" lengthAdjust="spacing" textLength="8" x="169.9185" y="204.7633">1</text><text fill="#000000" font-family="sans-serif" font-size="13" lengthAdjust="spacing" textLength="8" x="322.3556" y="205.2554">1</text><!--MD5=[0b9a64f88a8f68498a0520ea68e94a71]
link Cliente to Cartao--><path codeLine="35" d="M162.371,223.059 C209.293,242.017 268.761,266.0448 314.056,284.3457 " fill="none" id="Cliente-Cartao" style="stroke:#A80036;stroke-width:1.0;"/><polygon fill="#000000" points="223.1359,230.4395,215.8505,224.3261,213.6485,229.776,223.1359,230.4395" style="stroke:#000000;stroke-width:1.0;"/><text fill="#000000" font-family="sans-serif" font-size="13" lengthAdjust="spacing" textLength="26" x="227.5" y="233.0669">tem</text><text fill="#000000" font-family="sans-serif" font-size="13" lengthAdjust="spacing" textLength="8" x="169.9185" y="238.6856">1</text><text fill="#000000" font-family="sans-serif" font-size="13" lengthAdjust="spacing" textLength="8" x="298.4821" y="294.3197">1</text><!--MD5=[00a2b7b20e7d7828fa181bc7c0dc6998]
link Cliente to Utilizador--><path codeLine="36" d="M162.371,157.576 C206.543,137.796 261.833,113.036 305.951,93.28 " fill="none" id="Cliente-Utilizador" style="stroke:#A80036;stroke-width:1.0;"/><polygon fill="#000000" points="201.5633,99.5229,192.107,100.5374,194.5093,105.9019,201.5633,99.5229" style="stroke:#000000;stroke-width:1.0;"/><text fill="#000000" font-family="sans-serif" font-size="13" lengthAdjust="spacing" textLength="69" x="206" y="106.0669">atua como</text><text fill="#000000" font-family="sans-serif" font-size="13" lengthAdjust="spacing" textLength="8" x="169.9185" y="167.1659">1</text><text fill="#000000" font-family="sans-serif" font-size="13" lengthAdjust="spacing" textLength="8" x="289.9235" y="109.465">1</text><!--MD5=[958d742959b1275623ed868c1c10bf6d]
@startuml
skinparam classAttributeIconSize 0
hide methods
left to right direction

class Utilizador {
  -NIF
  -nome
  -email
  -numeroSegurancaSocial
  -password
}

class Endereco {
  -morada
  -latitude
  -longitude
  -altitude
}

class Cliente {
  -NIF
  -nome
  -email
  -numeroSegurancaSocial
  -password
}

class Cartao {
  -numeroCartaoCredito
  -dataDeValidade
  -CCV
}

Cliente "1" - - "1" Endereco: tem >
Cliente "1" - - "1" Cartao: tem >
Cliente "1" - - "1" Utilizador: atua como >
@enduml

PlantUML version 1.2020.27beta8(Unknown compile time)
(GPL source distribution)
Java Runtime: Java(TM) SE Runtime Environment
JVM: Java HotSpot(TM) 64-Bit Server VM
Default Encoding: UTF-8
Language: en
Country: US
--></g></svg>