<?xml version="1.0" encoding="UTF-8" standalone="no"?><svg xmlns="http://www.w3.org/2000/svg" xmlns:xlink="http://www.w3.org/1999/xlink" contentScriptType="application/ecmascript" contentStyleType="text/css" height="219px" preserveAspectRatio="none" style="width:704px;height:219px;" version="1.1" viewBox="0 0 704 219" width="704px" zoomAndPan="magnify"><defs><filter height="300%" id="f15skyd5k1ehbq" width="300%" x="-1" y="-1"><feGaussianBlur result="blurOut" stdDeviation="2.0"/><feColorMatrix in="blurOut" result="blurOut2" type="matrix" values="0 0 0 0 0 0 0 0 0 0 0 0 0 0 0 0 0 0 .4 0"/><feOffset dx="4.0" dy="4.0" in="blurOut2" result="blurOut3"/><feBlend in="SourceGraphic" in2="blurOut3" mode="normal"/></filter></defs><g><!--MD5=[5dd1d6732c071e710b9290b531f2fa3b]
class Utilizador--><rect codeLine="5" fill="#FEFECE" filter="url(#f15skyd5k1ehbq)" height="104.0234" id="Utilizador" style="stroke:#A80036;stroke-width:1.5;" width="155" x="306" y="7"/><ellipse cx="350.75" cy="23" fill="#ADD1B2" rx="11" ry="11" style="stroke:#A80036;stroke-width:1.0;"/><path d="M353.7188,28.6406 Q353.1406,28.9375 352.5,29.0781 Q351.8594,29.2344 351.1563,29.2344 Q348.6563,29.2344 347.3281,27.5938 Q346.0156,25.9375 346.0156,22.8125 Q346.0156,19.6875 347.3281,18.0313 Q348.6563,16.375 351.1563,16.375 Q351.8594,16.375 352.5,16.5313 Q353.1563,16.6875 353.7188,16.9844 L353.7188,19.7031 Q353.0938,19.125 352.5,18.8594 Q351.9063,18.5781 351.2813,18.5781 Q349.9375,18.5781 349.25,19.6563 Q348.5625,20.7188 348.5625,22.8125 Q348.5625,24.9063 349.25,25.9844 Q349.9375,27.0469 351.2813,27.0469 Q351.9063,27.0469 352.5,26.7813 Q353.0938,26.5 353.7188,25.9219 L353.7188,28.6406 Z " fill="#000000"/><text fill="#000000" font-family="sans-serif" font-size="12" lengthAdjust="spacingAndGlyphs" textLength="57" x="371.25" y="27.1543">Utilizador</text><line style="stroke:#A80036;stroke-width:1.5;" x1="307" x2="460" y1="39" y2="39"/><text fill="#000000" font-family="sans-serif" font-size="11" lengthAdjust="spacingAndGlyphs" textLength="21" x="312" y="53.2104">-NIF</text><text fill="#000000" font-family="sans-serif" font-size="11" lengthAdjust="spacingAndGlyphs" textLength="36" x="312" y="66.0151">-nome</text><text fill="#000000" font-family="sans-serif" font-size="11" lengthAdjust="spacingAndGlyphs" textLength="35" x="312" y="78.8198">-email</text><text fill="#000000" font-family="sans-serif" font-size="11" lengthAdjust="spacingAndGlyphs" textLength="143" x="312" y="91.6245">-numeroSegurancaSocial</text><text fill="#000000" font-family="sans-serif" font-size="11" lengthAdjust="spacingAndGlyphs" textLength="60" x="312" y="104.4292">-password</text><!--MD5=[36c1942e8942a3e4f47e6de3733e3d18]
class Endereco--><rect codeLine="13" fill="#FEFECE" filter="url(#f15skyd5k1ehbq)" height="52.8047" id="Endereco" style="stroke:#A80036;stroke-width:1.5;" width="92" x="337.5" y="146.5"/><ellipse cx="352.5" cy="162.5" fill="#ADD1B2" rx="11" ry="11" style="stroke:#A80036;stroke-width:1.0;"/><path d="M355.4688,168.1406 Q354.8906,168.4375 354.25,168.5781 Q353.6094,168.7344 352.9063,168.7344 Q350.4063,168.7344 349.0781,167.0938 Q347.7656,165.4375 347.7656,162.3125 Q347.7656,159.1875 349.0781,157.5313 Q350.4063,155.875 352.9063,155.875 Q353.6094,155.875 354.25,156.0313 Q354.9063,156.1875 355.4688,156.4844 L355.4688,159.2031 Q354.8438,158.625 354.25,158.3594 Q353.6563,158.0781 353.0313,158.0781 Q351.6875,158.0781 351,159.1563 Q350.3125,160.2188 350.3125,162.3125 Q350.3125,164.4063 351,165.4844 Q351.6875,166.5469 353.0313,166.5469 Q353.6563,166.5469 354.25,166.2813 Q354.8438,166 355.4688,165.4219 L355.4688,168.1406 Z " fill="#000000"/><text fill="#000000" font-family="sans-serif" font-size="12" lengthAdjust="spacingAndGlyphs" textLength="60" x="366.5" y="166.6543">Endereco</text><line style="stroke:#A80036;stroke-width:1.5;" x1="338.5" x2="428.5" y1="178.5" y2="178.5"/><text fill="#000000" font-family="sans-serif" font-size="11" lengthAdjust="spacingAndGlyphs" textLength="48" x="343.5" y="192.7104">-morada</text><!--MD5=[f03aecda799784b0020fee2e72b95698]
class LocalizacaoGPS--><rect codeLine="17" fill="#FEFECE" filter="url(#f15skyd5k1ehbq)" height="65.6094" id="LocalizacaoGPS" style="stroke:#A80036;stroke-width:1.5;" width="128" x="562" y="140"/><ellipse cx="577" cy="156" fill="#ADD1B2" rx="11" ry="11" style="stroke:#A80036;stroke-width:1.0;"/><path d="M579.9688,161.6406 Q579.3906,161.9375 578.75,162.0781 Q578.1094,162.2344 577.4063,162.2344 Q574.9063,162.2344 573.5781,160.5938 Q572.2656,158.9375 572.2656,155.8125 Q572.2656,152.6875 573.5781,151.0313 Q574.9063,149.375 577.4063,149.375 Q578.1094,149.375 578.75,149.5313 Q579.4063,149.6875 579.9688,149.9844 L579.9688,152.7031 Q579.3438,152.125 578.75,151.8594 Q578.1563,151.5781 577.5313,151.5781 Q576.1875,151.5781 575.5,152.6563 Q574.8125,153.7188 574.8125,155.8125 Q574.8125,157.9063 575.5,158.9844 Q576.1875,160.0469 577.5313,160.0469 Q578.1563,160.0469 578.75,159.7813 Q579.3438,159.5 579.9688,158.9219 L579.9688,161.6406 Z " fill="#000000"/><text fill="#000000" font-family="sans-serif" font-size="12" lengthAdjust="spacingAndGlyphs" textLength="96" x="591" y="160.1543">LocalizacaoGPS</text><line style="stroke:#A80036;stroke-width:1.5;" x1="563" x2="689" y1="172" y2="172"/><text fill="#000000" font-family="sans-serif" font-size="11" lengthAdjust="spacingAndGlyphs" textLength="46" x="568" y="186.2104">-latitude</text><text fill="#000000" font-family="sans-serif" font-size="11" lengthAdjust="spacingAndGlyphs" textLength="56" x="568" y="199.0151">-longitude</text><!--MD5=[20a748d5ee336a9a91751b0a3d4f0beb]
class Cliente--><rect codeLine="22" fill="#FEFECE" filter="url(#f15skyd5k1ehbq)" height="142.4375" id="Cliente" style="stroke:#A80036;stroke-width:1.5;" width="155" x="7" y="45"/><ellipse cx="58.75" cy="61" fill="#ADD1B2" rx="11" ry="11" style="stroke:#A80036;stroke-width:1.0;"/><path d="M61.7188,66.6406 Q61.1406,66.9375 60.5,67.0781 Q59.8594,67.2344 59.1563,67.2344 Q56.6563,67.2344 55.3281,65.5938 Q54.0156,63.9375 54.0156,60.8125 Q54.0156,57.6875 55.3281,56.0313 Q56.6563,54.375 59.1563,54.375 Q59.8594,54.375 60.5,54.5313 Q61.1563,54.6875 61.7188,54.9844 L61.7188,57.7031 Q61.0938,57.125 60.5,56.8594 Q59.9063,56.5781 59.2813,56.5781 Q57.9375,56.5781 57.25,57.6563 Q56.5625,58.7188 56.5625,60.8125 Q56.5625,62.9063 57.25,63.9844 Q57.9375,65.0469 59.2813,65.0469 Q59.9063,65.0469 60.5,64.7813 Q61.0938,64.5 61.7188,63.9219 L61.7188,66.6406 Z " fill="#000000"/><text fill="#000000" font-family="sans-serif" font-size="12" lengthAdjust="spacingAndGlyphs" textLength="43" x="79.25" y="65.1543">Cliente</text><line style="stroke:#A80036;stroke-width:1.5;" x1="8" x2="161" y1="77" y2="77"/><text fill="#000000" font-family="sans-serif" font-size="11" lengthAdjust="spacingAndGlyphs" textLength="127" x="13" y="91.2104">-numeroCartaoCredito</text><text fill="#000000" font-family="sans-serif" font-size="11" lengthAdjust="spacingAndGlyphs" textLength="92" x="13" y="104.0151">-dataDeValidade</text><text fill="#000000" font-family="sans-serif" font-size="11" lengthAdjust="spacingAndGlyphs" textLength="27" x="13" y="116.8198">-CCV</text><text fill="#000000" font-family="sans-serif" font-size="11" lengthAdjust="spacingAndGlyphs" textLength="21" x="13" y="129.6245">-NIF</text><text fill="#000000" font-family="sans-serif" font-size="11" lengthAdjust="spacingAndGlyphs" textLength="36" x="13" y="142.4292">-nome</text><text fill="#000000" font-family="sans-serif" font-size="11" lengthAdjust="spacingAndGlyphs" textLength="35" x="13" y="155.2339">-email</text><text fill="#000000" font-family="sans-serif" font-size="11" lengthAdjust="spacingAndGlyphs" textLength="143" x="13" y="168.0386">-numeroSegurancaSocial</text><text fill="#000000" font-family="sans-serif" font-size="11" lengthAdjust="spacingAndGlyphs" textLength="60" x="13" y="180.8433">-password</text><!--MD5=[526e8b388de5574421fe4c78d4de4165]
link Endereco to LocalizacaoGPS--><path codeLine="33" d="M429.6832,173 C467.0615,173 520.1312,173 561.671,173 " fill="none" id="Endereco-LocalizacaoGPS" style="stroke:#A80036;stroke-width:1.0;"/><polygon fill="#000000" points="501,164.5664,491.9549,161.6275,491.9549,167.5053,501,164.5664" style="stroke:#000000;stroke-width:1.0;"/><text fill="#000000" font-family="sans-serif" font-size="13" lengthAdjust="spacingAndGlyphs" textLength="26" x="505" y="169.0669">tem</text><text fill="#000000" font-family="sans-serif" font-size="13" lengthAdjust="spacingAndGlyphs" textLength="8" x="437.3675" y="186.2405">1</text><text fill="#000000" font-family="sans-serif" font-size="13" lengthAdjust="spacingAndGlyphs" textLength="8" x="546.1975" y="185.9158">1</text><!--MD5=[43a7c1a046aa41d1c9842e3954366be4]
link Cliente to Endereco--><path codeLine="34" d="M162.2782,130.8273 C217.8214,141.4158 290.6744,155.3041 337.2999,164.1926 " fill="none" id="Cliente-Endereco" style="stroke:#A80036;stroke-width:1.0;"/><polygon fill="#000000" points="223.4115,129.5027,215.0768,124.922,213.9761,130.6958,223.4115,129.5027" style="stroke:#000000;stroke-width:1.0;"/><text fill="#000000" font-family="sans-serif" font-size="13" lengthAdjust="spacingAndGlyphs" textLength="26" x="227.5" y="133.0669">tem</text><text fill="#000000" font-family="sans-serif" font-size="13" lengthAdjust="spacingAndGlyphs" textLength="8" x="170.0727" y="145.0077">1</text><text fill="#000000" font-family="sans-serif" font-size="13" lengthAdjust="spacingAndGlyphs" textLength="8" x="321.613" y="176.0844">1</text><!--MD5=[00a2b7b20e7d7828fa181bc7c0dc6998]
link Cliente to Utilizador--><path codeLine="35" d="M162.2782,101.1727 C206.4878,92.7448 261.6638,82.2263 305.8519,73.8025 " fill="none" id="Cliente-Utilizador" style="stroke:#A80036;stroke-width:1.0;"/><polygon fill="#000000" points="201.9115,71.6301,192.4761,70.437,193.5768,76.2108,201.9115,71.6301" style="stroke:#000000;stroke-width:1.0;"/><text fill="#000000" font-family="sans-serif" font-size="13" lengthAdjust="spacingAndGlyphs" textLength="69" x="206" y="77.0669">atua como</text><text fill="#000000" font-family="sans-serif" font-size="13" lengthAdjust="spacingAndGlyphs" textLength="8" x="170.0727" y="112.5267">1</text><text fill="#000000" font-family="sans-serif" font-size="13" lengthAdjust="spacingAndGlyphs" textLength="8" x="290.0698" y="88.0003">1</text><!--MD5=[3fe82ff199d10bc9f2a8f523e924f6c3]
@startuml
skinparam classAttributeIconSize 0
hide methods
left to right direction

class Utilizador {
  -NIF
  -nome
  -email
  -numeroSegurancaSocial
  -password
}

class Endereco {
  -morada
}

class LocalizacaoGPS {
  -latitude
  -longitude
}

class Cliente {
  -numeroCartaoCredito
  -dataDeValidade
  -CCV
  -NIF
  -nome
  -email
  -numeroSegurancaSocial
  -password
}

Endereco "1" - - "1" LocalizacaoGPS: tem >
Cliente "1" - - "1" Endereco: tem >
Cliente "1" - - "1" Utilizador: atua como >
@enduml

PlantUML version 1.2020.22(Sun Dec 06 09:36:27 UTC 2020)
(GPL source distribution)
Java Runtime: OpenJDK Runtime Environment
JVM: OpenJDK 64-Bit Server VM
Default Encoding: UTF-8
Language: en
Country: US
--></g></svg>