<?xml version="1.0" encoding="UTF-8" standalone="no"?><svg xmlns="http://www.w3.org/2000/svg" xmlns:xlink="http://www.w3.org/1999/xlink" contentScriptType="application/ecmascript" contentStyleType="text/css" height="792px" preserveAspectRatio="none" style="width:2445px;height:792px;" version="1.1" viewBox="0 0 2445 792" width="2445px" zoomAndPan="magnify"><defs><filter height="300%" id="fp94nccnhace1" width="300%" x="-1" y="-1"><feGaussianBlur result="blurOut" stdDeviation="2.0"/><feColorMatrix in="blurOut" result="blurOut2" type="matrix" values="0 0 0 0 0 0 0 0 0 0 0 0 0 0 0 0 0 0 .4 0"/><feOffset dx="4.0" dy="4.0" in="blurOut2" result="blurOut3"/><feBlend in="SourceGraphic" in2="blurOut3" mode="normal"/></filter></defs><g><rect fill="#FFFFFF" filter="url(#fp94nccnhace1)" height="591.8516" style="stroke:#A80036;stroke-width:1.0;" width="10" x="29" y="98.2969"/><rect fill="#FFFFFF" filter="url(#fp94nccnhace1)" height="59.3984" style="stroke:#A80036;stroke-width:1.0;" width="10" x="673" y="119.4297"/><rect fill="#FFFFFF" filter="url(#fp94nccnhace1)" height="281.3906" style="stroke:#A80036;stroke-width:1.0;" width="10" x="673" y="207.9609"/><rect fill="#FFFFFF" filter="url(#fp94nccnhace1)" height="171.6641" style="stroke:#A80036;stroke-width:1.0;" width="10" x="673" y="518.4844"/><rect fill="#FFFFFF" filter="url(#fp94nccnhace1)" height="207.9922" style="stroke:#A80036;stroke-width:1.0;" width="10" x="1092" y="252.2266"/><rect fill="#FFFFFF" filter="url(#fp94nccnhace1)" height="106.3984" style="stroke:#A80036;stroke-width:1.0;" width="10" x="1092" y="547.6172"/><rect fill="#FFFFFF" filter="url(#fp94nccnhace1)" height="29.1328" style="stroke:#A80036;stroke-width:1.0;" width="10" x="1761" y="281.3594"/><rect fill="#FFFFFF" filter="url(#fp94nccnhace1)" height="29.1328" style="stroke:#A80036;stroke-width:1.0;" width="10" x="1761" y="355.7891"/><rect fill="#FFFFFF" filter="url(#fp94nccnhace1)" height="30" style="stroke:#A80036;stroke-width:1.0;" width="10" x="1761" y="430.2188"/><rect fill="#FFFFFF" filter="url(#fp94nccnhace1)" height="77.2656" style="stroke:#A80036;stroke-width:1.0;" width="10" x="1761" y="576.75"/><line style="stroke:#A80036;stroke-width:1.0;stroke-dasharray:5.0,5.0;" x1="34" x2="34" y1="88.2969" y2="708.1484"/><line style="stroke:#A80036;stroke-width:1.0;stroke-dasharray:5.0,5.0;" x1="678" x2="678" y1="88.2969" y2="708.1484"/><line style="stroke:#A80036;stroke-width:1.0;stroke-dasharray:5.0,5.0;" x1="1097" x2="1097" y1="88.2969" y2="708.1484"/><line style="stroke:#A80036;stroke-width:1.0;stroke-dasharray:5.0,5.0;" x1="1765.5" x2="1765.5" y1="88.2969" y2="708.1484"/><line style="stroke:#A80036;stroke-width:1.0;stroke-dasharray:5.0,5.0;" x1="2083" x2="2083" y1="322.0078" y2="708.1484"/><line style="stroke:#A80036;stroke-width:1.0;stroke-dasharray:5.0,5.0;" x1="2391" x2="2391" y1="396.4375" y2="708.1484"/><text fill="#000000" font-family="sans-serif" font-size="14" lengthAdjust="spacing" textLength="52" x="5" y="84.9951">Cliente</text><ellipse cx="34" cy="15" fill="#FEFECE" filter="url(#fp94nccnhace1)" rx="8" ry="8" style="stroke:#A80036;stroke-width:2.0;"/><path d="M34,23 L34,50 M21,31 L47,31 M34,50 L21,65 M34,50 L47,65 " fill="none" filter="url(#fp94nccnhace1)" style="stroke:#A80036;stroke-width:2.0;"/><text fill="#000000" font-family="sans-serif" font-size="14" lengthAdjust="spacing" textLength="52" x="5" y="720.1436">Cliente</text><ellipse cx="34" cy="733.4453" fill="#FEFECE" filter="url(#fp94nccnhace1)" rx="8" ry="8" style="stroke:#A80036;stroke-width:2.0;"/><path d="M34,741.4453 L34,768.4453 M21,749.4453 L47,749.4453 M34,768.4453 L21,783.4453 M34,768.4453 L47,783.4453 " fill="none" filter="url(#fp94nccnhace1)" style="stroke:#A80036;stroke-width:2.0;"/><rect fill="#FEFECE" filter="url(#fp94nccnhace1)" height="30.2969" style="stroke:#A80036;stroke-width:1.5;" width="144" x="604" y="53"/><text fill="#000000" font-family="sans-serif" font-size="14" lengthAdjust="spacing" textLength="130" x="611" y="72.9951">:RegistarClienteUI</text><rect fill="#FEFECE" filter="url(#fp94nccnhace1)" height="30.2969" style="stroke:#A80036;stroke-width:1.5;" width="144" x="604" y="707.1484"/><text fill="#000000" font-family="sans-serif" font-size="14" lengthAdjust="spacing" textLength="130" x="611" y="727.1436">:RegistarClienteUI</text><rect fill="#FEFECE" filter="url(#fp94nccnhace1)" height="30.2969" style="stroke:#A80036;stroke-width:1.5;" width="204" x="993" y="53"/><text fill="#000000" font-family="sans-serif" font-size="14" lengthAdjust="spacing" textLength="190" x="1000" y="72.9951">:RegistarClienteController</text><rect fill="#FEFECE" filter="url(#fp94nccnhace1)" height="30.2969" style="stroke:#A80036;stroke-width:1.5;" width="204" x="993" y="707.1484"/><text fill="#000000" font-family="sans-serif" font-size="14" lengthAdjust="spacing" textLength="190" x="1000" y="727.1436">:RegistarClienteController</text><rect fill="#FEFECE" filter="url(#fp94nccnhace1)" height="30.2969" style="stroke:#A80036;stroke-width:1.5;" width="87" x="1720.5" y="53"/><text fill="#000000" font-family="sans-serif" font-size="14" lengthAdjust="spacing" textLength="73" x="1727.5" y="72.9951">ClienteDB</text><rect fill="#FEFECE" filter="url(#fp94nccnhace1)" height="30.2969" style="stroke:#A80036;stroke-width:1.5;" width="87" x="1720.5" y="707.1484"/><text fill="#000000" font-family="sans-serif" font-size="14" lengthAdjust="spacing" textLength="73" x="1727.5" y="727.1436">ClienteDB</text><rect fill="#FEFECE" filter="url(#fp94nccnhace1)" height="30.2969" style="stroke:#A80036;stroke-width:1.5;" width="114" x="2024" y="707.1484"/><text fill="#000000" font-family="sans-serif" font-size="14" lengthAdjust="spacing" textLength="100" x="2031" y="727.1436">end:Endereco</text><rect fill="#FEFECE" filter="url(#fp94nccnhace1)" height="30.2969" style="stroke:#A80036;stroke-width:1.5;" width="83" x="2348" y="707.1484"/><text fill="#000000" font-family="sans-serif" font-size="14" lengthAdjust="spacing" textLength="69" x="2355" y="727.1436">cl:Cliente</text><rect fill="#FFFFFF" filter="url(#fp94nccnhace1)" height="591.8516" style="stroke:#A80036;stroke-width:1.0;" width="10" x="29" y="98.2969"/><rect fill="#FFFFFF" filter="url(#fp94nccnhace1)" height="59.3984" style="stroke:#A80036;stroke-width:1.0;" width="10" x="673" y="119.4297"/><rect fill="#FFFFFF" filter="url(#fp94nccnhace1)" height="281.3906" style="stroke:#A80036;stroke-width:1.0;" width="10" x="673" y="207.9609"/><rect fill="#FFFFFF" filter="url(#fp94nccnhace1)" height="171.6641" style="stroke:#A80036;stroke-width:1.0;" width="10" x="673" y="518.4844"/><rect fill="#FFFFFF" filter="url(#fp94nccnhace1)" height="207.9922" style="stroke:#A80036;stroke-width:1.0;" width="10" x="1092" y="252.2266"/><rect fill="#FFFFFF" filter="url(#fp94nccnhace1)" height="106.3984" style="stroke:#A80036;stroke-width:1.0;" width="10" x="1092" y="547.6172"/><rect fill="#FFFFFF" filter="url(#fp94nccnhace1)" height="29.1328" style="stroke:#A80036;stroke-width:1.0;" width="10" x="1761" y="281.3594"/><rect fill="#FFFFFF" filter="url(#fp94nccnhace1)" height="29.1328" style="stroke:#A80036;stroke-width:1.0;" width="10" x="1761" y="355.7891"/><rect fill="#FFFFFF" filter="url(#fp94nccnhace1)" height="30" style="stroke:#A80036;stroke-width:1.0;" width="10" x="1761" y="430.2188"/><rect fill="#FFFFFF" filter="url(#fp94nccnhace1)" height="77.2656" style="stroke:#A80036;stroke-width:1.0;" width="10" x="1761" y="576.75"/><polygon fill="#A80036" points="661,115.4297,671,119.4297,661,123.4297,665,119.4297" style="stroke:#A80036;stroke-width:1.0;"/><line style="stroke:#A80036;stroke-width:1.0;" x1="39" x2="667" y1="119.4297" y2="119.4297"/><text fill="#000000" font-family="sans-serif" font-size="13" font-weight="bold" lengthAdjust="spacing" textLength="9" x="46" y="114.3638">1</text><text fill="#000000" font-family="sans-serif" font-size="13" lengthAdjust="spacing" textLength="119" x="59" y="114.3638">inicia o seu registo</text><polygon fill="#A80036" points="50,174.8281,40,178.8281,50,182.8281,46,178.8281" style="stroke:#A80036;stroke-width:1.0;"/><line style="stroke:#A80036;stroke-width:1.0;stroke-dasharray:2.0,2.0;" x1="44" x2="677" y1="178.8281" y2="178.8281"/><text fill="#000000" font-family="sans-serif" font-size="13" font-weight="bold" lengthAdjust="spacing" textLength="9" x="56" y="158.6294">2</text><text fill="#000000" font-family="sans-serif" font-size="13" lengthAdjust="spacing" textLength="153" x="69" y="143.4966">solicita dados do cliente</text><text fill="#000000" font-family="sans-serif" font-size="13" lengthAdjust="spacing" textLength="493" x="69" y="158.6294">(NIF, nome, email, endereço residencial, localização GPS (latitude, longitude),</text><text fill="#000000" font-family="sans-serif" font-size="13" lengthAdjust="spacing" textLength="597" x="69" y="173.7622">número de segurança social, password, número de cartão de crédito, data de validade, CCV)</text><polygon fill="#A80036" points="661,203.9609,671,207.9609,661,211.9609,665,207.9609" style="stroke:#A80036;stroke-width:1.0;"/><line style="stroke:#A80036;stroke-width:1.0;" x1="39" x2="667" y1="207.9609" y2="207.9609"/><text fill="#000000" font-family="sans-serif" font-size="13" font-weight="bold" lengthAdjust="spacing" textLength="8" x="46" y="202.895">3</text><text fill="#000000" font-family="sans-serif" font-size="13" lengthAdjust="spacing" textLength="185" x="58" y="202.895">introduz os dados solicitados</text><polygon fill="#A80036" points="1080,248.2266,1090,252.2266,1080,256.2266,1084,252.2266" style="stroke:#A80036;stroke-width:1.0;"/><line style="stroke:#A80036;stroke-width:1.0;" x1="683" x2="1086" y1="252.2266" y2="252.2266"/><text fill="#000000" font-family="sans-serif" font-size="13" font-weight="bold" lengthAdjust="spacing" textLength="9" x="690" y="239.5942">4</text><text fill="#000000" font-family="sans-serif" font-size="13" lengthAdjust="spacing" textLength="373" x="703" y="232.0278">novoCliente(NIF, nome, email, morada, latitude, longitude,</text><text fill="#000000" font-family="sans-serif" font-size="13" lengthAdjust="spacing" textLength="347" x="703" y="247.1606">numSegSocial, password, numCC, dataValidade, CCV)</text><polygon fill="#A80036" points="1749,277.3594,1759,281.3594,1749,285.3594,1753,281.3594" style="stroke:#A80036;stroke-width:1.0;"/><line style="stroke:#A80036;stroke-width:1.0;" x1="1102" x2="1755" y1="281.3594" y2="281.3594"/><text fill="#000000" font-family="sans-serif" font-size="13" font-weight="bold" lengthAdjust="spacing" textLength="9" x="1109" y="276.2935">5</text><text fill="#000000" font-family="sans-serif" font-size="13" lengthAdjust="spacing" textLength="301" x="1122" y="276.2935">end=novoEndereco(morada, latitude, logitude)</text><polygon fill="#A80036" points="2012,306.4922,2022,310.4922,2012,314.4922,2016,310.4922" style="stroke:#A80036;stroke-width:1.0;"/><line style="stroke:#A80036;stroke-width:1.0;stroke-dasharray:2.0,2.0;" x1="1766" x2="2018" y1="310.4922" y2="310.4922"/><text fill="#000000" font-family="sans-serif" font-size="13" font-weight="bold" lengthAdjust="spacing" textLength="9" x="1773" y="305.4263">6</text><text fill="#000000" font-family="sans-serif" font-size="13" lengthAdjust="spacing" textLength="216" x="1786" y="305.4263">create(morada, latitude, logitude)</text><rect fill="#FEFECE" filter="url(#fp94nccnhace1)" height="30.2969" style="stroke:#A80036;stroke-width:1.5;" width="114" x="2024" y="289.3594"/><text fill="#000000" font-family="sans-serif" font-size="14" lengthAdjust="spacing" textLength="100" x="2031" y="309.3545">end:Endereco</text><polygon fill="#A80036" points="1749,351.7891,1759,355.7891,1749,359.7891,1753,355.7891" style="stroke:#A80036;stroke-width:1.0;"/><line style="stroke:#A80036;stroke-width:1.0;" x1="1102" x2="1755" y1="355.7891" y2="355.7891"/><text fill="#000000" font-family="sans-serif" font-size="13" font-weight="bold" lengthAdjust="spacing" textLength="9" x="1109" y="350.7231">7</text><text fill="#000000" font-family="sans-serif" font-size="13" lengthAdjust="spacing" textLength="627" x="1122" y="350.7231">cliente=novoCliente(NIF, nome, email, end, numSegSocial, password, numCC, dataValidade, CCV)</text><polygon fill="#A80036" points="2336,380.9219,2346,384.9219,2336,388.9219,2340,384.9219" style="stroke:#A80036;stroke-width:1.0;"/><line style="stroke:#A80036;stroke-width:1.0;stroke-dasharray:2.0,2.0;" x1="1766" x2="2342" y1="384.9219" y2="384.9219"/><text fill="#000000" font-family="sans-serif" font-size="13" font-weight="bold" lengthAdjust="spacing" textLength="9" x="1773" y="379.856">8</text><text fill="#000000" font-family="sans-serif" font-size="13" lengthAdjust="spacing" textLength="540" x="1786" y="379.856">create(NIF, nome, email, end, numSegSocial, password, numCC, dataValidade, CCV)</text><rect fill="#FEFECE" filter="url(#fp94nccnhace1)" height="30.2969" style="stroke:#A80036;stroke-width:1.5;" width="83" x="2348" y="363.7891"/><text fill="#000000" font-family="sans-serif" font-size="14" lengthAdjust="spacing" textLength="69" x="2355" y="383.7842">cl:Cliente</text><polygon fill="#A80036" points="1749,426.2188,1759,430.2188,1749,434.2188,1753,430.2188" style="stroke:#A80036;stroke-width:1.0;"/><line style="stroke:#A80036;stroke-width:1.0;" x1="1102" x2="1755" y1="430.2188" y2="430.2188"/><text fill="#000000" font-family="sans-serif" font-size="13" font-weight="bold" lengthAdjust="spacing" textLength="9" x="1109" y="425.1528">9</text><text fill="#000000" font-family="sans-serif" font-size="13" lengthAdjust="spacing" textLength="134" x="1122" y="425.1528">validaCliente(cliente)</text><polygon fill="#A80036" points="50,485.3516,40,489.3516,50,493.3516,46,489.3516" style="stroke:#A80036;stroke-width:1.0;"/><line style="stroke:#A80036;stroke-width:1.0;stroke-dasharray:2.0,2.0;" x1="44" x2="677" y1="489.3516" y2="489.3516"/><text fill="#000000" font-family="sans-serif" font-size="13" font-weight="bold" lengthAdjust="spacing" textLength="19" x="56" y="484.2856">10</text><text fill="#000000" font-family="sans-serif" font-size="13" lengthAdjust="spacing" textLength="252" x="79" y="484.2856">apresenta dados e solicita confirmação</text><polygon fill="#A80036" points="661,514.4844,671,518.4844,661,522.4844,665,518.4844" style="stroke:#A80036;stroke-width:1.0;"/><line style="stroke:#A80036;stroke-width:1.0;" x1="39" x2="667" y1="518.4844" y2="518.4844"/><text fill="#000000" font-family="sans-serif" font-size="13" font-weight="bold" lengthAdjust="spacing" textLength="18" x="46" y="513.4185">11</text><text fill="#000000" font-family="sans-serif" font-size="13" lengthAdjust="spacing" textLength="57" x="68" y="513.4185">confirma</text><polygon fill="#A80036" points="1080,543.6172,1090,547.6172,1080,551.6172,1084,547.6172" style="stroke:#A80036;stroke-width:1.0;"/><line style="stroke:#A80036;stroke-width:1.0;" x1="683" x2="1086" y1="547.6172" y2="547.6172"/><text fill="#000000" font-family="sans-serif" font-size="13" font-weight="bold" lengthAdjust="spacing" textLength="18" x="690" y="542.5513">12</text><text fill="#000000" font-family="sans-serif" font-size="13" lengthAdjust="spacing" textLength="98" x="712" y="542.5513">registaCliente()</text><polygon fill="#A80036" points="1749,572.75,1759,576.75,1749,580.75,1753,576.75" style="stroke:#A80036;stroke-width:1.0;"/><line style="stroke:#A80036;stroke-width:1.0;" x1="1102" x2="1755" y1="576.75" y2="576.75"/><text fill="#000000" font-family="sans-serif" font-size="13" font-weight="bold" lengthAdjust="spacing" textLength="17" x="1109" y="571.6841">13</text><text fill="#000000" font-family="sans-serif" font-size="13" lengthAdjust="spacing" textLength="140" x="1130" y="571.6841">registaCliente(cliente)</text><line style="stroke:#A80036;stroke-width:1.0;" x1="1771" x2="1813" y1="605.8828" y2="605.8828"/><line style="stroke:#A80036;stroke-width:1.0;" x1="1813" x2="1813" y1="605.8828" y2="618.8828"/><line style="stroke:#A80036;stroke-width:1.0;" x1="1772" x2="1813" y1="618.8828" y2="618.8828"/><polygon fill="#A80036" points="1782,614.8828,1772,618.8828,1782,622.8828,1778,618.8828" style="stroke:#A80036;stroke-width:1.0;"/><text fill="#000000" font-family="sans-serif" font-size="13" font-weight="bold" lengthAdjust="spacing" textLength="18" x="1778" y="600.8169">14</text><text fill="#000000" font-family="sans-serif" font-size="13" lengthAdjust="spacing" textLength="134" x="1800" y="600.8169">validaCliente(cliente)</text><line style="stroke:#A80036;stroke-width:1.0;" x1="1771" x2="1813" y1="653.0156" y2="653.0156"/><line style="stroke:#A80036;stroke-width:1.0;" x1="1813" x2="1813" y1="653.0156" y2="666.0156"/><line style="stroke:#A80036;stroke-width:1.0;" x1="1766" x2="1813" y1="666.0156" y2="666.0156"/><polygon fill="#A80036" points="1776,662.0156,1766,666.0156,1776,670.0156,1772,666.0156" style="stroke:#A80036;stroke-width:1.0;"/><text fill="#000000" font-family="sans-serif" font-size="13" font-weight="bold" lengthAdjust="spacing" textLength="18" x="1778" y="647.9497">15</text><text fill="#000000" font-family="sans-serif" font-size="13" lengthAdjust="spacing" textLength="120" x="1800" y="647.9497">addCliente(cliente)</text><polygon fill="#A80036" points="45,686.1484,35,690.1484,45,694.1484,41,690.1484" style="stroke:#A80036;stroke-width:1.0;"/><line style="stroke:#A80036;stroke-width:1.0;stroke-dasharray:2.0,2.0;" x1="39" x2="677" y1="690.1484" y2="690.1484"/><text fill="#000000" font-family="sans-serif" font-size="13" font-weight="bold" lengthAdjust="spacing" textLength="18" x="51" y="685.0825">16</text><text fill="#000000" font-family="sans-serif" font-size="13" lengthAdjust="spacing" textLength="154" x="73" y="685.0825">operação bem sucedida</text><!--MD5=[d170de7624044524053ddfeb9b619bd0]
@startuml
autonumber
actor "Cliente" as ADM

participant ":RegistarClienteUI" as UI
participant ":RegistarClienteController" as CTRL
participant "ClienteDB" as DB
participant "end:Endereco" as END
participant "cl:Cliente" as CLIENTE

activate ADM
ADM -> UI : inicia o seu registo
activate UI
UI - -> ADM : solicita dados do cliente \n(NIF, nome, email, endereço residencial, localização GPS (latitude, longitude), \nnúmero de segurança social, password, número de cartão de crédito, data de validade, CCV)
deactivate UI

ADM -> UI : introduz os dados solicitados
activate UI
UI -> CTRL : novoCliente(NIF, nome, email, morada, latitude, longitude, \nnumSegSocial, password, numCC, dataValidade, CCV)
activate CTRL

CTRL -> DB: end=novoEndereco(morada, latitude, logitude)
activate DB
DB - -> END ** : create(morada, latitude, logitude)
deactivate DB

CTRL -> DB: cliente=novoCliente(NIF, nome, email, end, numSegSocial, password, numCC, dataValidade, CCV)
activate DB
DB - -> CLIENTE ** : create(NIF, nome, email, end, numSegSocial, password, numCC, dataValidade, CCV)
deactivate DB

CTRL -> DB: validaCliente(cliente)
activate DB
deactivate DB

deactivate CTRL
UI - -> ADM : apresenta dados e solicita confirmação
deactivate UI

ADM -> UI : confirma
activate UI

UI -> CTRL: registaCliente()
activate CTRL
CTRL ->DB: registaCliente(cliente)
activate DB
DB -> DB: validaCliente(cliente)
DB -> DB: addCliente(cliente)

deactivate DB
deactivate CTRL

UI - -> ADM : operação bem sucedida
deactivate UI

deactivate ADM
@enduml

PlantUML version 1.2020.27beta7(Unknown compile time)
(GPL source distribution)
Java Runtime: Java(TM) SE Runtime Environment
JVM: Java HotSpot(TM) 64-Bit Server VM
Default Encoding: UTF-8
Language: en
Country: US
--></g></svg>