<?xml version="1.0" encoding="UTF-8" standalone="no"?><svg xmlns="http://www.w3.org/2000/svg" xmlns:xlink="http://www.w3.org/1999/xlink" contentScriptType="application/ecmascript" contentStyleType="text/css" height="1249px" preserveAspectRatio="none" style="width:3032px;height:1249px;" version="1.1" viewBox="0 0 3032 1249" width="3032px" zoomAndPan="magnify"><defs><filter height="300%" id="fju805dbwakz3" width="300%" x="-1" y="-1"><feGaussianBlur result="blurOut" stdDeviation="2.0"/><feColorMatrix in="blurOut" result="blurOut2" type="matrix" values="0 0 0 0 0 0 0 0 0 0 0 0 0 0 0 0 0 0 .4 0"/><feOffset dx="4.0" dy="4.0" in="blurOut2" result="blurOut3"/><feBlend in="SourceGraphic" in2="blurOut3" mode="normal"/></filter></defs><g><rect fill="#FFFFFF" filter="url(#fju805dbwakz3)" height="1048.7422" style="stroke:#A80036;stroke-width:1.0;" width="10" x="29" y="98.2969"/><rect fill="#FFFFFF" filter="url(#fju805dbwakz3)" height="59.3984" style="stroke:#A80036;stroke-width:1.0;" width="10" x="673" y="119.4297"/><rect fill="#FFFFFF" filter="url(#fju805dbwakz3)" height="339.8203" style="stroke:#A80036;stroke-width:1.0;" width="10" x="673" y="207.9609"/><rect fill="#FFFFFF" filter="url(#fju805dbwakz3)" height="570.125" style="stroke:#A80036;stroke-width:1.0;" width="10" x="673" y="576.9141"/><rect fill="#FFFFFF" filter="url(#fju805dbwakz3)" height="58.2656" style="stroke:#A80036;stroke-width:1.0;" width="10" x="1254" y="237.0938"/><rect fill="#FFFFFF" filter="url(#fju805dbwakz3)" height="58.2656" style="stroke:#A80036;stroke-width:1.0;" width="10" x="1254" y="340.6563"/><rect fill="#FFFFFF" filter="url(#fju805dbwakz3)" height="58.2656" style="stroke:#A80036;stroke-width:1.0;" width="10" x="1254" y="444.2188"/><rect fill="#FFFFFF" filter="url(#fju805dbwakz3)" height="219.7969" style="stroke:#A80036;stroke-width:1.0;" width="10" x="1254" y="606.0469"/><rect fill="#FFFFFF" filter="url(#fju805dbwakz3)" height="106.3984" style="stroke:#A80036;stroke-width:1.0;" width="10" x="1254" y="861.9766"/><rect fill="#FFFFFF" filter="url(#fju805dbwakz3)" height="106.3984" style="stroke:#A80036;stroke-width:1.0;" width="10" x="1254" y="1004.5078"/><rect fill="#FFFFFF" filter="url(#fju805dbwakz3)" height="29.1328" style="stroke:#A80036;stroke-width:1.0;" width="10" x="1887" y="266.2266"/><rect fill="#FFFFFF" filter="url(#fju805dbwakz3)" height="77.2656" style="stroke:#A80036;stroke-width:1.0;" width="10" x="1887" y="635.1797"/><rect fill="#FFFFFF" filter="url(#fju805dbwakz3)" height="77.2656" style="stroke:#A80036;stroke-width:1.0;" width="10" x="2067" y="748.5781"/><rect fill="#FFFFFF" filter="url(#fju805dbwakz3)" height="29.1328" style="stroke:#A80036;stroke-width:1.0;" width="10" x="2263" y="369.7891"/><rect fill="#FFFFFF" filter="url(#fju805dbwakz3)" height="77.2656" style="stroke:#A80036;stroke-width:1.0;" width="10" x="2263" y="891.1094"/><rect fill="#FFFFFF" filter="url(#fju805dbwakz3)" height="29.1328" style="stroke:#A80036;stroke-width:1.0;" width="10" x="2441" y="473.3516"/><rect fill="#FFFFFF" filter="url(#fju805dbwakz3)" height="77.2656" style="stroke:#A80036;stroke-width:1.0;" width="10" x="2441" y="1033.6406"/><line style="stroke:#A80036;stroke-width:1.0;stroke-dasharray:5.0,5.0;" x1="34" x2="34" y1="88.2969" y2="1165.0391"/><line style="stroke:#A80036;stroke-width:1.0;stroke-dasharray:5.0,5.0;" x1="678" x2="678" y1="88.2969" y2="1165.0391"/><line style="stroke:#A80036;stroke-width:1.0;stroke-dasharray:5.0,5.0;" x1="1259" x2="1259" y1="88.2969" y2="1165.0391"/><line style="stroke:#A80036;stroke-width:1.0;stroke-dasharray:5.0,5.0;" x1="1891.5" x2="1891.5" y1="88.2969" y2="1165.0391"/><line style="stroke:#A80036;stroke-width:1.0;stroke-dasharray:5.0,5.0;" x1="2071.5" x2="2071.5" y1="88.2969" y2="1165.0391"/><line style="stroke:#A80036;stroke-width:1.0;stroke-dasharray:5.0,5.0;" x1="2267.5" x2="2267.5" y1="88.2969" y2="1165.0391"/><line style="stroke:#A80036;stroke-width:1.0;stroke-dasharray:5.0,5.0;" x1="2445.5" x2="2445.5" y1="88.2969" y2="1165.0391"/><line style="stroke:#A80036;stroke-width:1.0;stroke-dasharray:5.0,5.0;" x1="2641" x2="2641" y1="410.4375" y2="1165.0391"/><line style="stroke:#A80036;stroke-width:1.0;stroke-dasharray:5.0,5.0;" x1="2765" x2="2765" y1="514" y2="1165.0391"/><line style="stroke:#A80036;stroke-width:1.0;stroke-dasharray:5.0,5.0;" x1="2872" x2="2872" y1="88.2969" y2="1165.0391"/><line style="stroke:#A80036;stroke-width:1.0;stroke-dasharray:5.0,5.0;" x1="2978" x2="2978" y1="306.875" y2="1165.0391"/><text fill="#000000" font-family="sans-serif" font-size="14" lengthAdjust="spacing" textLength="52" x="5" y="84.9951">Cliente</text><ellipse cx="34" cy="15" fill="#FEFECE" filter="url(#fju805dbwakz3)" rx="8" ry="8" style="stroke:#A80036;stroke-width:2.0;"/><path d="M34,23 L34,50 M21,31 L47,31 M34,50 L21,65 M34,50 L47,65 " fill="none" filter="url(#fju805dbwakz3)" style="stroke:#A80036;stroke-width:2.0;"/><text fill="#000000" font-family="sans-serif" font-size="14" lengthAdjust="spacing" textLength="52" x="5" y="1177.0342">Cliente</text><ellipse cx="34" cy="1190.3359" fill="#FEFECE" filter="url(#fju805dbwakz3)" rx="8" ry="8" style="stroke:#A80036;stroke-width:2.0;"/><path d="M34,1198.3359 L34,1225.3359 M21,1206.3359 L47,1206.3359 M34,1225.3359 L21,1240.3359 M34,1225.3359 L47,1240.3359 " fill="none" filter="url(#fju805dbwakz3)" style="stroke:#A80036;stroke-width:2.0;"/><rect fill="#FEFECE" filter="url(#fju805dbwakz3)" height="30.2969" style="stroke:#A80036;stroke-width:1.5;" width="144" x="604" y="53"/><text fill="#000000" font-family="sans-serif" font-size="14" lengthAdjust="spacing" textLength="130" x="611" y="72.9951">:RegistarClienteUI</text><rect fill="#FEFECE" filter="url(#fju805dbwakz3)" height="30.2969" style="stroke:#A80036;stroke-width:1.5;" width="144" x="604" y="1164.0391"/><text fill="#000000" font-family="sans-serif" font-size="14" lengthAdjust="spacing" textLength="130" x="611" y="1184.0342">:RegistarClienteUI</text><rect fill="#FEFECE" filter="url(#fju805dbwakz3)" height="30.2969" style="stroke:#A80036;stroke-width:1.5;" width="204" x="1155" y="53"/><text fill="#000000" font-family="sans-serif" font-size="14" lengthAdjust="spacing" textLength="190" x="1162" y="72.9951">:RegistarClienteController</text><rect fill="#FEFECE" filter="url(#fju805dbwakz3)" height="30.2969" style="stroke:#A80036;stroke-width:1.5;" width="204" x="1155" y="1164.0391"/><text fill="#000000" font-family="sans-serif" font-size="14" lengthAdjust="spacing" textLength="190" x="1162" y="1184.0342">:RegistarClienteController</text><rect fill="#FEFECE" filter="url(#fju805dbwakz3)" height="30.2969" style="stroke:#A80036;stroke-width:1.5;" width="87" x="1846.5" y="53"/><text fill="#000000" font-family="sans-serif" font-size="14" lengthAdjust="spacing" textLength="73" x="1853.5" y="72.9951">ClienteDB</text><rect fill="#FEFECE" filter="url(#fju805dbwakz3)" height="30.2969" style="stroke:#A80036;stroke-width:1.5;" width="87" x="1846.5" y="1164.0391"/><text fill="#000000" font-family="sans-serif" font-size="14" lengthAdjust="spacing" textLength="73" x="1853.5" y="1184.0342">ClienteDB</text><rect fill="#FEFECE" filter="url(#fju805dbwakz3)" height="30.2969" style="stroke:#A80036;stroke-width:1.5;" width="103" x="2018.5" y="53"/><text fill="#000000" font-family="sans-serif" font-size="14" lengthAdjust="spacing" textLength="89" x="2025.5" y="72.9951">UtilizadorDB</text><rect fill="#FEFECE" filter="url(#fju805dbwakz3)" height="30.2969" style="stroke:#A80036;stroke-width:1.5;" width="103" x="2018.5" y="1164.0391"/><text fill="#000000" font-family="sans-serif" font-size="14" lengthAdjust="spacing" textLength="89" x="2025.5" y="1184.0342">UtilizadorDB</text><rect fill="#FEFECE" filter="url(#fju805dbwakz3)" height="30.2969" style="stroke:#A80036;stroke-width:1.5;" width="103" x="2214.5" y="53"/><text fill="#000000" font-family="sans-serif" font-size="14" lengthAdjust="spacing" textLength="89" x="2221.5" y="72.9951">EnderecoDB</text><rect fill="#FEFECE" filter="url(#fju805dbwakz3)" height="30.2969" style="stroke:#A80036;stroke-width:1.5;" width="103" x="2214.5" y="1164.0391"/><text fill="#000000" font-family="sans-serif" font-size="14" lengthAdjust="spacing" textLength="89" x="2221.5" y="1184.0342">EnderecoDB</text><rect fill="#FEFECE" filter="url(#fju805dbwakz3)" height="30.2969" style="stroke:#A80036;stroke-width:1.5;" width="83" x="2402.5" y="53"/><text fill="#000000" font-family="sans-serif" font-size="14" lengthAdjust="spacing" textLength="69" x="2409.5" y="72.9951">CartaoDB</text><rect fill="#FEFECE" filter="url(#fju805dbwakz3)" height="30.2969" style="stroke:#A80036;stroke-width:1.5;" width="83" x="2402.5" y="1164.0391"/><text fill="#000000" font-family="sans-serif" font-size="14" lengthAdjust="spacing" textLength="69" x="2409.5" y="1184.0342">CartaoDB</text><rect fill="#FEFECE" filter="url(#fju805dbwakz3)" height="30.2969" style="stroke:#A80036;stroke-width:1.5;" width="114" x="2582" y="1164.0391"/><text fill="#000000" font-family="sans-serif" font-size="14" lengthAdjust="spacing" textLength="100" x="2589" y="1184.0342">end:Endereco</text><rect fill="#FEFECE" filter="url(#fju805dbwakz3)" height="30.2969" style="stroke:#A80036;stroke-width:1.5;" width="83" x="2722" y="1164.0391"/><text fill="#000000" font-family="sans-serif" font-size="14" lengthAdjust="spacing" textLength="69" x="2729" y="1184.0342">cc:Cartao</text><rect fill="#FEFECE" filter="url(#fju805dbwakz3)" height="30.2969" style="stroke:#A80036;stroke-width:1.5;" width="102" x="2819" y="53"/><text fill="#000000" font-family="sans-serif" font-size="14" lengthAdjust="spacing" textLength="88" x="2826" y="72.9951">us:Utilizador</text><rect fill="#FEFECE" filter="url(#fju805dbwakz3)" height="30.2969" style="stroke:#A80036;stroke-width:1.5;" width="102" x="2819" y="1164.0391"/><text fill="#000000" font-family="sans-serif" font-size="14" lengthAdjust="spacing" textLength="88" x="2826" y="1184.0342">us:Utilizador</text><rect fill="#FEFECE" filter="url(#fju805dbwakz3)" height="30.2969" style="stroke:#A80036;stroke-width:1.5;" width="83" x="2935" y="1164.0391"/><text fill="#000000" font-family="sans-serif" font-size="14" lengthAdjust="spacing" textLength="69" x="2942" y="1184.0342">cl:Cliente</text><rect fill="#FFFFFF" filter="url(#fju805dbwakz3)" height="1048.7422" style="stroke:#A80036;stroke-width:1.0;" width="10" x="29" y="98.2969"/><rect fill="#FFFFFF" filter="url(#fju805dbwakz3)" height="59.3984" style="stroke:#A80036;stroke-width:1.0;" width="10" x="673" y="119.4297"/><rect fill="#FFFFFF" filter="url(#fju805dbwakz3)" height="339.8203" style="stroke:#A80036;stroke-width:1.0;" width="10" x="673" y="207.9609"/><rect fill="#FFFFFF" filter="url(#fju805dbwakz3)" height="570.125" style="stroke:#A80036;stroke-width:1.0;" width="10" x="673" y="576.9141"/><rect fill="#FFFFFF" filter="url(#fju805dbwakz3)" height="58.2656" style="stroke:#A80036;stroke-width:1.0;" width="10" x="1254" y="237.0938"/><rect fill="#FFFFFF" filter="url(#fju805dbwakz3)" height="58.2656" style="stroke:#A80036;stroke-width:1.0;" width="10" x="1254" y="340.6563"/><rect fill="#FFFFFF" filter="url(#fju805dbwakz3)" height="58.2656" style="stroke:#A80036;stroke-width:1.0;" width="10" x="1254" y="444.2188"/><rect fill="#FFFFFF" filter="url(#fju805dbwakz3)" height="219.7969" style="stroke:#A80036;stroke-width:1.0;" width="10" x="1254" y="606.0469"/><rect fill="#FFFFFF" filter="url(#fju805dbwakz3)" height="106.3984" style="stroke:#A80036;stroke-width:1.0;" width="10" x="1254" y="861.9766"/><rect fill="#FFFFFF" filter="url(#fju805dbwakz3)" height="106.3984" style="stroke:#A80036;stroke-width:1.0;" width="10" x="1254" y="1004.5078"/><rect fill="#FFFFFF" filter="url(#fju805dbwakz3)" height="29.1328" style="stroke:#A80036;stroke-width:1.0;" width="10" x="1887" y="266.2266"/><rect fill="#FFFFFF" filter="url(#fju805dbwakz3)" height="77.2656" style="stroke:#A80036;stroke-width:1.0;" width="10" x="1887" y="635.1797"/><rect fill="#FFFFFF" filter="url(#fju805dbwakz3)" height="77.2656" style="stroke:#A80036;stroke-width:1.0;" width="10" x="2067" y="748.5781"/><rect fill="#FFFFFF" filter="url(#fju805dbwakz3)" height="29.1328" style="stroke:#A80036;stroke-width:1.0;" width="10" x="2263" y="369.7891"/><rect fill="#FFFFFF" filter="url(#fju805dbwakz3)" height="77.2656" style="stroke:#A80036;stroke-width:1.0;" width="10" x="2263" y="891.1094"/><rect fill="#FFFFFF" filter="url(#fju805dbwakz3)" height="29.1328" style="stroke:#A80036;stroke-width:1.0;" width="10" x="2441" y="473.3516"/><rect fill="#FFFFFF" filter="url(#fju805dbwakz3)" height="77.2656" style="stroke:#A80036;stroke-width:1.0;" width="10" x="2441" y="1033.6406"/><polygon fill="#A80036" points="661,115.4297,671,119.4297,661,123.4297,665,119.4297" style="stroke:#A80036;stroke-width:1.0;"/><line style="stroke:#A80036;stroke-width:1.0;" x1="39" x2="667" y1="119.4297" y2="119.4297"/><text fill="#000000" font-family="sans-serif" font-size="13" font-weight="bold" lengthAdjust="spacing" textLength="9" x="46" y="114.3638">1</text><text fill="#000000" font-family="sans-serif" font-size="13" lengthAdjust="spacing" textLength="119" x="59" y="114.3638">inicia o seu registo</text><polygon fill="#A80036" points="50,174.8281,40,178.8281,50,182.8281,46,178.8281" style="stroke:#A80036;stroke-width:1.0;"/><line style="stroke:#A80036;stroke-width:1.0;stroke-dasharray:2.0,2.0;" x1="44" x2="677" y1="178.8281" y2="178.8281"/><text fill="#000000" font-family="sans-serif" font-size="13" font-weight="bold" lengthAdjust="spacing" textLength="9" x="56" y="158.6294">2</text><text fill="#000000" font-family="sans-serif" font-size="13" lengthAdjust="spacing" textLength="153" x="69" y="143.4966">solicita dados do cliente</text><text fill="#000000" font-family="sans-serif" font-size="13" lengthAdjust="spacing" textLength="549" x="69" y="158.6294">(NIF, nome, email, endereço residencial, localização GPS (latitude, longitude, altitude),</text><text fill="#000000" font-family="sans-serif" font-size="13" lengthAdjust="spacing" textLength="597" x="69" y="173.7622">número de segurança social, password, número de cartão de crédito, data de validade, CCV)</text><polygon fill="#A80036" points="661,203.9609,671,207.9609,661,211.9609,665,207.9609" style="stroke:#A80036;stroke-width:1.0;"/><line style="stroke:#A80036;stroke-width:1.0;" x1="39" x2="667" y1="207.9609" y2="207.9609"/><text fill="#000000" font-family="sans-serif" font-size="13" font-weight="bold" lengthAdjust="spacing" textLength="8" x="46" y="202.895">3</text><text fill="#000000" font-family="sans-serif" font-size="13" lengthAdjust="spacing" textLength="185" x="58" y="202.895">introduz os dados solicitados</text><polygon fill="#A80036" points="1242,233.0938,1252,237.0938,1242,241.0938,1246,237.0938" style="stroke:#A80036;stroke-width:1.0;"/><line style="stroke:#A80036;stroke-width:1.0;" x1="683" x2="1248" y1="237.0938" y2="237.0938"/><text fill="#000000" font-family="sans-serif" font-size="13" font-weight="bold" lengthAdjust="spacing" textLength="9" x="690" y="232.0278">4</text><text fill="#000000" font-family="sans-serif" font-size="13" lengthAdjust="spacing" textLength="539" x="703" y="232.0278">novoCliente(NIF, nome, email, numeroSegurancaSocial, morada, numCC, password)</text><polygon fill="#A80036" points="1875,262.2266,1885,266.2266,1875,270.2266,1879,266.2266" style="stroke:#A80036;stroke-width:1.0;"/><line style="stroke:#A80036;stroke-width:1.0;" x1="1264" x2="1881" y1="266.2266" y2="266.2266"/><text fill="#000000" font-family="sans-serif" font-size="13" font-weight="bold" lengthAdjust="spacing" textLength="9" x="1271" y="261.1606">5</text><text fill="#000000" font-family="sans-serif" font-size="13" lengthAdjust="spacing" textLength="591" x="1284" y="261.1606">cliente=novoCliente(NIF, nome, email, numeroSegurancaSocial, morada, numCC, password)</text><polygon fill="#A80036" points="2923,291.3594,2933,295.3594,2923,299.3594,2927,295.3594" style="stroke:#A80036;stroke-width:1.0;"/><line style="stroke:#A80036;stroke-width:1.0;stroke-dasharray:2.0,2.0;" x1="1892" x2="2929" y1="295.3594" y2="295.3594"/><text fill="#000000" font-family="sans-serif" font-size="13" font-weight="bold" lengthAdjust="spacing" textLength="9" x="1899" y="290.2935">6</text><text fill="#000000" font-family="sans-serif" font-size="13" lengthAdjust="spacing" textLength="563" x="1912" y="290.2935">create(NIF, nome, email, numeroSegurancaSocial, creditos, morada, numCC, password)</text><rect fill="#FEFECE" filter="url(#fju805dbwakz3)" height="30.2969" style="stroke:#A80036;stroke-width:1.5;" width="83" x="2935" y="274.2266"/><text fill="#000000" font-family="sans-serif" font-size="14" lengthAdjust="spacing" textLength="69" x="2942" y="294.2217">cl:Cliente</text><polygon fill="#A80036" points="1242,336.6563,1252,340.6563,1242,344.6563,1246,340.6563" style="stroke:#A80036;stroke-width:1.0;"/><line style="stroke:#A80036;stroke-width:1.0;" x1="683" x2="1248" y1="340.6563" y2="340.6563"/><text fill="#000000" font-family="sans-serif" font-size="13" font-weight="bold" lengthAdjust="spacing" textLength="9" x="690" y="335.5903">7</text><text fill="#000000" font-family="sans-serif" font-size="13" lengthAdjust="spacing" textLength="323" x="703" y="335.5903">novoEndereco(morada, latitude, logitude, altitude)</text><polygon fill="#A80036" points="2251,365.7891,2261,369.7891,2251,373.7891,2255,369.7891" style="stroke:#A80036;stroke-width:1.0;"/><line style="stroke:#A80036;stroke-width:1.0;" x1="1264" x2="2257" y1="369.7891" y2="369.7891"/><text fill="#000000" font-family="sans-serif" font-size="13" font-weight="bold" lengthAdjust="spacing" textLength="9" x="1271" y="364.7231">8</text><text fill="#000000" font-family="sans-serif" font-size="13" lengthAdjust="spacing" textLength="357" x="1284" y="364.7231">end=novoEndereco(morada, latitude, logitude, altitude)</text><polygon fill="#A80036" points="2570,394.9219,2580,398.9219,2570,402.9219,2574,398.9219" style="stroke:#A80036;stroke-width:1.0;"/><line style="stroke:#A80036;stroke-width:1.0;stroke-dasharray:2.0,2.0;" x1="2268" x2="2576" y1="398.9219" y2="398.9219"/><text fill="#000000" font-family="sans-serif" font-size="13" font-weight="bold" lengthAdjust="spacing" textLength="9" x="2275" y="393.856">9</text><text fill="#000000" font-family="sans-serif" font-size="13" lengthAdjust="spacing" textLength="272" x="2288" y="393.856">create(morada, latitude, logitude, altitude)</text><rect fill="#FEFECE" filter="url(#fju805dbwakz3)" height="30.2969" style="stroke:#A80036;stroke-width:1.5;" width="114" x="2582" y="377.7891"/><text fill="#000000" font-family="sans-serif" font-size="14" lengthAdjust="spacing" textLength="100" x="2589" y="397.7842">end:Endereco</text><polygon fill="#A80036" points="1242,440.2188,1252,444.2188,1242,448.2188,1246,444.2188" style="stroke:#A80036;stroke-width:1.0;"/><line style="stroke:#A80036;stroke-width:1.0;" x1="683" x2="1248" y1="444.2188" y2="444.2188"/><text fill="#000000" font-family="sans-serif" font-size="13" font-weight="bold" lengthAdjust="spacing" textLength="19" x="690" y="439.1528">10</text><text fill="#000000" font-family="sans-serif" font-size="13" lengthAdjust="spacing" textLength="259" x="713" y="439.1528">novoCartao(numCC, dataValidade, CCV)</text><polygon fill="#A80036" points="2429,469.3516,2439,473.3516,2429,477.3516,2433,473.3516" style="stroke:#A80036;stroke-width:1.0;"/><line style="stroke:#A80036;stroke-width:1.0;" x1="1264" x2="2435" y1="473.3516" y2="473.3516"/><text fill="#000000" font-family="sans-serif" font-size="13" font-weight="bold" lengthAdjust="spacing" textLength="18" x="1271" y="468.2856">11</text><text fill="#000000" font-family="sans-serif" font-size="13" lengthAdjust="spacing" textLength="283" x="1293" y="468.2856">cc=novoCartao(numCC, dataValidade, CCV)</text><polygon fill="#A80036" points="2710,498.4844,2720,502.4844,2710,506.4844,2714,502.4844" style="stroke:#A80036;stroke-width:1.0;"/><line style="stroke:#A80036;stroke-width:1.0;stroke-dasharray:2.0,2.0;" x1="2446" x2="2716" y1="502.4844" y2="502.4844"/><text fill="#000000" font-family="sans-serif" font-size="13" font-weight="bold" lengthAdjust="spacing" textLength="18" x="2453" y="497.4185">12</text><text fill="#000000" font-family="sans-serif" font-size="13" lengthAdjust="spacing" textLength="225" x="2475" y="497.4185">create(numCC, dataValidade, CCV)</text><rect fill="#FEFECE" filter="url(#fju805dbwakz3)" height="30.2969" style="stroke:#A80036;stroke-width:1.5;" width="83" x="2722" y="481.3516"/><text fill="#000000" font-family="sans-serif" font-size="14" lengthAdjust="spacing" textLength="69" x="2729" y="501.3467">cc:Cartao</text><polygon fill="#A80036" points="50,543.7813,40,547.7813,50,551.7813,46,547.7813" style="stroke:#A80036;stroke-width:1.0;"/><line style="stroke:#A80036;stroke-width:1.0;stroke-dasharray:2.0,2.0;" x1="44" x2="677" y1="547.7813" y2="547.7813"/><text fill="#000000" font-family="sans-serif" font-size="13" font-weight="bold" lengthAdjust="spacing" textLength="17" x="56" y="542.7153">13</text><text fill="#000000" font-family="sans-serif" font-size="13" lengthAdjust="spacing" textLength="252" x="77" y="542.7153">apresenta dados e solicita confirmação</text><polygon fill="#A80036" points="661,572.9141,671,576.9141,661,580.9141,665,576.9141" style="stroke:#A80036;stroke-width:1.0;"/><line style="stroke:#A80036;stroke-width:1.0;" x1="39" x2="667" y1="576.9141" y2="576.9141"/><text fill="#000000" font-family="sans-serif" font-size="13" font-weight="bold" lengthAdjust="spacing" textLength="18" x="46" y="571.8481">14</text><text fill="#000000" font-family="sans-serif" font-size="13" lengthAdjust="spacing" textLength="57" x="68" y="571.8481">confirma</text><polygon fill="#A80036" points="1242,602.0469,1252,606.0469,1242,610.0469,1246,606.0469" style="stroke:#A80036;stroke-width:1.0;"/><line style="stroke:#A80036;stroke-width:1.0;" x1="683" x2="1248" y1="606.0469" y2="606.0469"/><text fill="#000000" font-family="sans-serif" font-size="13" font-weight="bold" lengthAdjust="spacing" textLength="18" x="690" y="600.981">15</text><text fill="#000000" font-family="sans-serif" font-size="13" lengthAdjust="spacing" textLength="140" x="712" y="600.981">registaCliente(cliente)</text><polygon fill="#A80036" points="1875,631.1797,1885,635.1797,1875,639.1797,1879,635.1797" style="stroke:#A80036;stroke-width:1.0;"/><line style="stroke:#A80036;stroke-width:1.0;" x1="1264" x2="1881" y1="635.1797" y2="635.1797"/><text fill="#000000" font-family="sans-serif" font-size="13" font-weight="bold" lengthAdjust="spacing" textLength="18" x="1271" y="630.1138">16</text><text fill="#000000" font-family="sans-serif" font-size="13" lengthAdjust="spacing" textLength="140" x="1293" y="630.1138">registaCliente(cliente)</text><line style="stroke:#A80036;stroke-width:1.0;" x1="1897" x2="1939" y1="664.3125" y2="664.3125"/><line style="stroke:#A80036;stroke-width:1.0;" x1="1939" x2="1939" y1="664.3125" y2="677.3125"/><line style="stroke:#A80036;stroke-width:1.0;" x1="1898" x2="1939" y1="677.3125" y2="677.3125"/><polygon fill="#A80036" points="1908,673.3125,1898,677.3125,1908,681.3125,1904,677.3125" style="stroke:#A80036;stroke-width:1.0;"/><text fill="#000000" font-family="sans-serif" font-size="13" font-weight="bold" lengthAdjust="spacing" textLength="18" x="1904" y="659.2466">17</text><text fill="#000000" font-family="sans-serif" font-size="13" lengthAdjust="spacing" textLength="134" x="1926" y="659.2466">validaCliente(cliente)</text><line style="stroke:#A80036;stroke-width:1.0;" x1="1897" x2="1939" y1="711.4453" y2="711.4453"/><line style="stroke:#A80036;stroke-width:1.0;" x1="1939" x2="1939" y1="711.4453" y2="724.4453"/><line style="stroke:#A80036;stroke-width:1.0;" x1="1892" x2="1939" y1="724.4453" y2="724.4453"/><polygon fill="#A80036" points="1902,720.4453,1892,724.4453,1902,728.4453,1898,724.4453" style="stroke:#A80036;stroke-width:1.0;"/><text fill="#000000" font-family="sans-serif" font-size="13" font-weight="bold" lengthAdjust="spacing" textLength="18" x="1904" y="706.3794">18</text><text fill="#000000" font-family="sans-serif" font-size="13" lengthAdjust="spacing" textLength="120" x="1926" y="706.3794">addCliente(cliente)</text><polygon fill="#A80036" points="2055,744.5781,2065,748.5781,2055,752.5781,2059,748.5781" style="stroke:#A80036;stroke-width:1.0;"/><line style="stroke:#A80036;stroke-width:1.0;" x1="1264" x2="2061" y1="748.5781" y2="748.5781"/><text fill="#000000" font-family="sans-serif" font-size="13" font-weight="bold" lengthAdjust="spacing" textLength="18" x="1271" y="743.5122">19</text><text fill="#000000" font-family="sans-serif" font-size="13" lengthAdjust="spacing" textLength="155" x="1293" y="743.5122">registaUtilizador(cliente)</text><line style="stroke:#A80036;stroke-width:1.0;" x1="2077" x2="2119" y1="777.7109" y2="777.7109"/><line style="stroke:#A80036;stroke-width:1.0;" x1="2119" x2="2119" y1="777.7109" y2="790.7109"/><line style="stroke:#A80036;stroke-width:1.0;" x1="2078" x2="2119" y1="790.7109" y2="790.7109"/><polygon fill="#A80036" points="2088,786.7109,2078,790.7109,2088,794.7109,2084,790.7109" style="stroke:#A80036;stroke-width:1.0;"/><text fill="#000000" font-family="sans-serif" font-size="13" font-weight="bold" lengthAdjust="spacing" textLength="19" x="2084" y="772.645">20</text><text fill="#000000" font-family="sans-serif" font-size="13" lengthAdjust="spacing" textLength="149" x="2107" y="772.645">validaUtilizador(cliente)</text><line style="stroke:#A80036;stroke-width:1.0;" x1="2077" x2="2119" y1="824.8438" y2="824.8438"/><line style="stroke:#A80036;stroke-width:1.0;" x1="2119" x2="2119" y1="824.8438" y2="837.8438"/><line style="stroke:#A80036;stroke-width:1.0;" x1="2072" x2="2119" y1="837.8438" y2="837.8438"/><polygon fill="#A80036" points="2082,833.8438,2072,837.8438,2082,841.8438,2078,837.8438" style="stroke:#A80036;stroke-width:1.0;"/><text fill="#000000" font-family="sans-serif" font-size="13" font-weight="bold" lengthAdjust="spacing" textLength="18" x="2084" y="819.7778">21</text><text fill="#000000" font-family="sans-serif" font-size="13" lengthAdjust="spacing" textLength="135" x="2106" y="819.7778">addUtilizador(cliente)</text><polygon fill="#A80036" points="1242,857.9766,1252,861.9766,1242,865.9766,1246,861.9766" style="stroke:#A80036;stroke-width:1.0;"/><line style="stroke:#A80036;stroke-width:1.0;" x1="683" x2="1248" y1="861.9766" y2="861.9766"/><text fill="#000000" font-family="sans-serif" font-size="13" font-weight="bold" lengthAdjust="spacing" textLength="18" x="690" y="856.9106">22</text><text fill="#000000" font-family="sans-serif" font-size="13" lengthAdjust="spacing" textLength="138" x="712" y="856.9106">registaEndereco(end)</text><polygon fill="#A80036" points="2251,887.1094,2261,891.1094,2251,895.1094,2255,891.1094" style="stroke:#A80036;stroke-width:1.0;"/><line style="stroke:#A80036;stroke-width:1.0;" x1="1264" x2="2257" y1="891.1094" y2="891.1094"/><text fill="#000000" font-family="sans-serif" font-size="13" font-weight="bold" lengthAdjust="spacing" textLength="17" x="1271" y="886.0435">23</text><text fill="#000000" font-family="sans-serif" font-size="13" lengthAdjust="spacing" textLength="138" x="1292" y="886.0435">registaEndereco(end)</text><line style="stroke:#A80036;stroke-width:1.0;" x1="2273" x2="2315" y1="920.2422" y2="920.2422"/><line style="stroke:#A80036;stroke-width:1.0;" x1="2315" x2="2315" y1="920.2422" y2="933.2422"/><line style="stroke:#A80036;stroke-width:1.0;" x1="2274" x2="2315" y1="933.2422" y2="933.2422"/><polygon fill="#A80036" points="2284,929.2422,2274,933.2422,2284,937.2422,2280,933.2422" style="stroke:#A80036;stroke-width:1.0;"/><text fill="#000000" font-family="sans-serif" font-size="13" font-weight="bold" lengthAdjust="spacing" textLength="18" x="2280" y="915.1763">24</text><text fill="#000000" font-family="sans-serif" font-size="13" lengthAdjust="spacing" textLength="132" x="2302" y="915.1763">validaEndereco(end)</text><line style="stroke:#A80036;stroke-width:1.0;" x1="2273" x2="2315" y1="967.375" y2="967.375"/><line style="stroke:#A80036;stroke-width:1.0;" x1="2315" x2="2315" y1="967.375" y2="980.375"/><line style="stroke:#A80036;stroke-width:1.0;" x1="2268" x2="2315" y1="980.375" y2="980.375"/><polygon fill="#A80036" points="2278,976.375,2268,980.375,2278,984.375,2274,980.375" style="stroke:#A80036;stroke-width:1.0;"/><text fill="#000000" font-family="sans-serif" font-size="13" font-weight="bold" lengthAdjust="spacing" textLength="18" x="2280" y="962.3091">25</text><text fill="#000000" font-family="sans-serif" font-size="13" lengthAdjust="spacing" textLength="118" x="2302" y="962.3091">addEndereco(end)</text><polygon fill="#A80036" points="1242,1000.5078,1252,1004.5078,1242,1008.5078,1246,1004.5078" style="stroke:#A80036;stroke-width:1.0;"/><line style="stroke:#A80036;stroke-width:1.0;" x1="683" x2="1248" y1="1004.5078" y2="1004.5078"/><text fill="#000000" font-family="sans-serif" font-size="13" font-weight="bold" lengthAdjust="spacing" textLength="18" x="690" y="999.4419">26</text><text fill="#000000" font-family="sans-serif" font-size="13" lengthAdjust="spacing" textLength="111" x="712" y="999.4419">registaCartao(cc)</text><polygon fill="#A80036" points="2429,1029.6406,2439,1033.6406,2429,1037.6406,2433,1033.6406" style="stroke:#A80036;stroke-width:1.0;"/><line style="stroke:#A80036;stroke-width:1.0;" x1="1264" x2="2435" y1="1033.6406" y2="1033.6406"/><text fill="#000000" font-family="sans-serif" font-size="13" font-weight="bold" lengthAdjust="spacing" textLength="18" x="1271" y="1028.5747">27</text><text fill="#000000" font-family="sans-serif" font-size="13" lengthAdjust="spacing" textLength="111" x="1293" y="1028.5747">registaCartao(cc)</text><line style="stroke:#A80036;stroke-width:1.0;" x1="2451" x2="2493" y1="1062.7734" y2="1062.7734"/><line style="stroke:#A80036;stroke-width:1.0;" x1="2493" x2="2493" y1="1062.7734" y2="1075.7734"/><line style="stroke:#A80036;stroke-width:1.0;" x1="2452" x2="2493" y1="1075.7734" y2="1075.7734"/><polygon fill="#A80036" points="2462,1071.7734,2452,1075.7734,2462,1079.7734,2458,1075.7734" style="stroke:#A80036;stroke-width:1.0;"/><text fill="#000000" font-family="sans-serif" font-size="13" font-weight="bold" lengthAdjust="spacing" textLength="18" x="2458" y="1057.7075">28</text><text fill="#000000" font-family="sans-serif" font-size="13" lengthAdjust="spacing" textLength="105" x="2480" y="1057.7075">validaCartao(cc)</text><line style="stroke:#A80036;stroke-width:1.0;" x1="2451" x2="2493" y1="1109.9063" y2="1109.9063"/><line style="stroke:#A80036;stroke-width:1.0;" x1="2493" x2="2493" y1="1109.9063" y2="1122.9063"/><line style="stroke:#A80036;stroke-width:1.0;" x1="2446" x2="2493" y1="1122.9063" y2="1122.9063"/><polygon fill="#A80036" points="2456,1118.9063,2446,1122.9063,2456,1126.9063,2452,1122.9063" style="stroke:#A80036;stroke-width:1.0;"/><text fill="#000000" font-family="sans-serif" font-size="13" font-weight="bold" lengthAdjust="spacing" textLength="18" x="2458" y="1104.8403">29</text><text fill="#000000" font-family="sans-serif" font-size="13" lengthAdjust="spacing" textLength="91" x="2480" y="1104.8403">addCartao(cc)</text><polygon fill="#A80036" points="45,1143.0391,35,1147.0391,45,1151.0391,41,1147.0391" style="stroke:#A80036;stroke-width:1.0;"/><line style="stroke:#A80036;stroke-width:1.0;stroke-dasharray:2.0,2.0;" x1="39" x2="677" y1="1147.0391" y2="1147.0391"/><text fill="#000000" font-family="sans-serif" font-size="13" font-weight="bold" lengthAdjust="spacing" textLength="18" x="51" y="1141.9731">30</text><text fill="#000000" font-family="sans-serif" font-size="13" lengthAdjust="spacing" textLength="154" x="73" y="1141.9731">operação bem sucedida</text><!--MD5=[a7f8e9c4e06ba71b15b542cb67a7a841]
@startuml
autonumber
actor "Cliente" as ADM

participant ":RegistarClienteUI" as UI
participant ":RegistarClienteController" as CTRL
participant "ClienteDB" as DB
participant "UtilizadorDB" as UDB
participant "EnderecoDB" as EDB
participant "CartaoDB" as CDB
participant "end:Endereco" as END
participant "cc:Cartao" as CARTAO
participant "us:Utilizador" as UTILIZADOR
participant "cl:Cliente" as CLIENTE

activate ADM
ADM -> UI : inicia o seu registo
activate UI
UI - -> ADM : solicita dados do cliente \n(NIF, nome, email, endereço residencial, localização GPS (latitude, longitude, altitude), \nnúmero de segurança social, password, número de cartão de crédito, data de validade, CCV)
deactivate UI

ADM -> UI : introduz os dados solicitados
activate UI
UI -> CTRL : novoCliente(NIF, nome, email, numeroSegurancaSocial, morada, numCC, password)
activate CTRL

CTRL -> DB: cliente=novoCliente(NIF, nome, email, numeroSegurancaSocial, morada, numCC, password)
activate DB
DB - -> CLIENTE ** : create(NIF, nome, email, numeroSegurancaSocial, creditos, morada, numCC, password)
deactivate DB
deactivate CTRL

UI -> CTRL : novoEndereco(morada, latitude, logitude, altitude)
activate CTRL
CTRL -> EDB: end=novoEndereco(morada, latitude, logitude, altitude)
activate EDB
EDB - -> END ** : create(morada, latitude, logitude, altitude)
deactivate EDB
deactivate CTRL

UI -> CTRL : novoCartao(numCC, dataValidade, CCV)
activate CTRL
CTRL -> CDB: cc=novoCartao(numCC, dataValidade, CCV)
activate CDB
CDB - -> CARTAO ** : create(numCC, dataValidade, CCV)
deactivate CDB

deactivate CTRL
UI - -> ADM : apresenta dados e solicita confirmação
deactivate UI

ADM -> UI : confirma
activate UI

UI -> CTRL: registaCliente(cliente)
activate CTRL
CTRL ->DB: registaCliente(cliente)
activate DB
DB -> DB: validaCliente(cliente)
DB -> DB: addCliente(cliente)
deactivate DB

CTRL ->UDB: registaUtilizador(cliente)
activate UDB
UDB -> UDB: validaUtilizador(cliente)
UDB -> UDB: addUtilizador(cliente)
deactivate UDB
deactivate CTRL

UI -> CTRL: registaEndereco(end)
activate CTRL
CTRL ->EDB: registaEndereco(end)
activate EDB
EDB -> EDB: validaEndereco(end)
EDB -> EDB: addEndereco(end)

deactivate EDB
deactivate CTRL

UI -> CTRL: registaCartao(cc)
activate CTRL
CTRL ->CDB: registaCartao(cc)
activate CDB
CDB -> CDB: validaCartao(cc)
CDB -> CDB: addCartao(cc)

deactivate CDB

deactivate CTRL

UI - -> ADM : operação bem sucedida
deactivate UI

deactivate ADM
@enduml

PlantUML version 1.2020.27beta8(Unknown compile time)
(GPL source distribution)
Java Runtime: Java(TM) SE Runtime Environment
JVM: Java HotSpot(TM) 64-Bit Server VM
Default Encoding: UTF-8
Language: en
Country: US
--></g></svg>