<?xml version="1.0" encoding="UTF-8" standalone="no"?><svg xmlns="http://www.w3.org/2000/svg" xmlns:xlink="http://www.w3.org/1999/xlink" contentScriptType="application/ecmascript" contentStyleType="text/css" height="964px" preserveAspectRatio="none" style="width:2541px;height:964px;" version="1.1" viewBox="0 0 2541 964" width="2541px" zoomAndPan="magnify"><defs><filter height="300%" id="fn2s65apc1bjp" width="300%" x="-1" y="-1"><feGaussianBlur result="blurOut" stdDeviation="2.0"/><feColorMatrix in="blurOut" result="blurOut2" type="matrix" values="0 0 0 0 0 0 0 0 0 0 0 0 0 0 0 0 0 0 .4 0"/><feOffset dx="4.0" dy="4.0" in="blurOut2" result="blurOut3"/><feBlend in="SourceGraphic" in2="blurOut3" mode="normal"/></filter></defs><g><rect fill="#FFFFFF" filter="url(#fn2s65apc1bjp)" height="764.3828" style="stroke:#A80036;stroke-width:1.0;" width="10" x="29" y="98.2969"/><rect fill="#FFFFFF" filter="url(#fn2s65apc1bjp)" height="59.3984" style="stroke:#A80036;stroke-width:1.0;" width="10" x="673" y="119.4297"/><rect fill="#FFFFFF" filter="url(#fn2s65apc1bjp)" height="340.5234" style="stroke:#A80036;stroke-width:1.0;" width="10" x="673" y="207.9609"/><rect fill="#FFFFFF" filter="url(#fn2s65apc1bjp)" height="285.0625" style="stroke:#A80036;stroke-width:1.0;" width="10" x="673" y="577.6172"/><rect fill="#FFFFFF" filter="url(#fn2s65apc1bjp)" height="267.125" style="stroke:#A80036;stroke-width:1.0;" width="10" x="1148" y="252.2266"/><rect fill="#FFFFFF" filter="url(#fn2s65apc1bjp)" height="219.7969" style="stroke:#A80036;stroke-width:1.0;" width="10" x="1148" y="606.75"/><rect fill="#FFFFFF" filter="url(#fn2s65apc1bjp)" height="29.1328" style="stroke:#A80036;stroke-width:1.0;" width="10" x="1817" y="414.9219"/><rect fill="#FFFFFF" filter="url(#fn2s65apc1bjp)" height="30" style="stroke:#A80036;stroke-width:1.0;" width="10" x="1817" y="489.3516"/><rect fill="#FFFFFF" filter="url(#fn2s65apc1bjp)" height="77.2656" style="stroke:#A80036;stroke-width:1.0;" width="10" x="1817" y="635.8828"/><rect fill="#FFFFFF" filter="url(#fn2s65apc1bjp)" height="29.1328" style="stroke:#A80036;stroke-width:1.0;" width="10" x="1997" y="281.3594"/><rect fill="#FFFFFF" filter="url(#fn2s65apc1bjp)" height="30" style="stroke:#A80036;stroke-width:1.0;" width="10" x="1997" y="355.7891"/><rect fill="#FFFFFF" filter="url(#fn2s65apc1bjp)" height="77.2656" style="stroke:#A80036;stroke-width:1.0;" width="10" x="1997" y="749.2813"/><line style="stroke:#A80036;stroke-width:1.0;stroke-dasharray:5.0,5.0;" x1="34" x2="34" y1="88.2969" y2="880.6797"/><line style="stroke:#A80036;stroke-width:1.0;stroke-dasharray:5.0,5.0;" x1="678" x2="678" y1="88.2969" y2="880.6797"/><line style="stroke:#A80036;stroke-width:1.0;stroke-dasharray:5.0,5.0;" x1="1153" x2="1153" y1="88.2969" y2="880.6797"/><line style="stroke:#A80036;stroke-width:1.0;stroke-dasharray:5.0,5.0;" x1="1821.5" x2="1821.5" y1="88.2969" y2="880.6797"/><line style="stroke:#A80036;stroke-width:1.0;stroke-dasharray:5.0,5.0;" x1="2001.5" x2="2001.5" y1="88.2969" y2="880.6797"/><line style="stroke:#A80036;stroke-width:1.0;stroke-dasharray:5.0,5.0;" x1="2375" x2="2375" y1="322.0078" y2="880.6797"/><line style="stroke:#A80036;stroke-width:1.0;stroke-dasharray:5.0,5.0;" x1="2487" x2="2487" y1="455.5703" y2="880.6797"/><text fill="#000000" font-family="sans-serif" font-size="14" lengthAdjust="spacing" textLength="52" x="5" y="84.9951">Cliente</text><ellipse cx="34" cy="15" fill="#FEFECE" filter="url(#fn2s65apc1bjp)" rx="8" ry="8" style="stroke:#A80036;stroke-width:2.0;"/><path d="M34,23 L34,50 M21,31 L47,31 M34,50 L21,65 M34,50 L47,65 " fill="none" filter="url(#fn2s65apc1bjp)" style="stroke:#A80036;stroke-width:2.0;"/><text fill="#000000" font-family="sans-serif" font-size="14" lengthAdjust="spacing" textLength="52" x="5" y="892.6748">Cliente</text><ellipse cx="34" cy="905.9766" fill="#FEFECE" filter="url(#fn2s65apc1bjp)" rx="8" ry="8" style="stroke:#A80036;stroke-width:2.0;"/><path d="M34,913.9766 L34,940.9766 M21,921.9766 L47,921.9766 M34,940.9766 L21,955.9766 M34,940.9766 L47,955.9766 " fill="none" filter="url(#fn2s65apc1bjp)" style="stroke:#A80036;stroke-width:2.0;"/><rect fill="#FEFECE" filter="url(#fn2s65apc1bjp)" height="30.2969" style="stroke:#A80036;stroke-width:1.5;" width="144" x="604" y="53"/><text fill="#000000" font-family="sans-serif" font-size="14" lengthAdjust="spacing" textLength="130" x="611" y="72.9951">:RegistarClienteUI</text><rect fill="#FEFECE" filter="url(#fn2s65apc1bjp)" height="30.2969" style="stroke:#A80036;stroke-width:1.5;" width="144" x="604" y="879.6797"/><text fill="#000000" font-family="sans-serif" font-size="14" lengthAdjust="spacing" textLength="130" x="611" y="899.6748">:RegistarClienteUI</text><rect fill="#FEFECE" filter="url(#fn2s65apc1bjp)" height="30.2969" style="stroke:#A80036;stroke-width:1.5;" width="204" x="1049" y="53"/><text fill="#000000" font-family="sans-serif" font-size="14" lengthAdjust="spacing" textLength="190" x="1056" y="72.9951">:RegistarClienteController</text><rect fill="#FEFECE" filter="url(#fn2s65apc1bjp)" height="30.2969" style="stroke:#A80036;stroke-width:1.5;" width="204" x="1049" y="879.6797"/><text fill="#000000" font-family="sans-serif" font-size="14" lengthAdjust="spacing" textLength="190" x="1056" y="899.6748">:RegistarClienteController</text><rect fill="#FEFECE" filter="url(#fn2s65apc1bjp)" height="30.2969" style="stroke:#A80036;stroke-width:1.5;" width="87" x="1776.5" y="53"/><text fill="#000000" font-family="sans-serif" font-size="14" lengthAdjust="spacing" textLength="73" x="1783.5" y="72.9951">ClienteDB</text><rect fill="#FEFECE" filter="url(#fn2s65apc1bjp)" height="30.2969" style="stroke:#A80036;stroke-width:1.5;" width="87" x="1776.5" y="879.6797"/><text fill="#000000" font-family="sans-serif" font-size="14" lengthAdjust="spacing" textLength="73" x="1783.5" y="899.6748">ClienteDB</text><rect fill="#FEFECE" filter="url(#fn2s65apc1bjp)" height="30.2969" style="stroke:#A80036;stroke-width:1.5;" width="103" x="1948.5" y="53"/><text fill="#000000" font-family="sans-serif" font-size="14" lengthAdjust="spacing" textLength="89" x="1955.5" y="72.9951">EnderecoDB</text><rect fill="#FEFECE" filter="url(#fn2s65apc1bjp)" height="30.2969" style="stroke:#A80036;stroke-width:1.5;" width="103" x="1948.5" y="879.6797"/><text fill="#000000" font-family="sans-serif" font-size="14" lengthAdjust="spacing" textLength="89" x="1955.5" y="899.6748">EnderecoDB</text><rect fill="#FEFECE" filter="url(#fn2s65apc1bjp)" height="30.2969" style="stroke:#A80036;stroke-width:1.5;" width="114" x="2316" y="879.6797"/><text fill="#000000" font-family="sans-serif" font-size="14" lengthAdjust="spacing" textLength="100" x="2323" y="899.6748">end:Endereco</text><rect fill="#FEFECE" filter="url(#fn2s65apc1bjp)" height="30.2969" style="stroke:#A80036;stroke-width:1.5;" width="83" x="2444" y="879.6797"/><text fill="#000000" font-family="sans-serif" font-size="14" lengthAdjust="spacing" textLength="69" x="2451" y="899.6748">cl:Cliente</text><rect fill="#FFFFFF" filter="url(#fn2s65apc1bjp)" height="764.3828" style="stroke:#A80036;stroke-width:1.0;" width="10" x="29" y="98.2969"/><rect fill="#FFFFFF" filter="url(#fn2s65apc1bjp)" height="59.3984" style="stroke:#A80036;stroke-width:1.0;" width="10" x="673" y="119.4297"/><rect fill="#FFFFFF" filter="url(#fn2s65apc1bjp)" height="340.5234" style="stroke:#A80036;stroke-width:1.0;" width="10" x="673" y="207.9609"/><rect fill="#FFFFFF" filter="url(#fn2s65apc1bjp)" height="285.0625" style="stroke:#A80036;stroke-width:1.0;" width="10" x="673" y="577.6172"/><rect fill="#FFFFFF" filter="url(#fn2s65apc1bjp)" height="267.125" style="stroke:#A80036;stroke-width:1.0;" width="10" x="1148" y="252.2266"/><rect fill="#FFFFFF" filter="url(#fn2s65apc1bjp)" height="219.7969" style="stroke:#A80036;stroke-width:1.0;" width="10" x="1148" y="606.75"/><rect fill="#FFFFFF" filter="url(#fn2s65apc1bjp)" height="29.1328" style="stroke:#A80036;stroke-width:1.0;" width="10" x="1817" y="414.9219"/><rect fill="#FFFFFF" filter="url(#fn2s65apc1bjp)" height="30" style="stroke:#A80036;stroke-width:1.0;" width="10" x="1817" y="489.3516"/><rect fill="#FFFFFF" filter="url(#fn2s65apc1bjp)" height="77.2656" style="stroke:#A80036;stroke-width:1.0;" width="10" x="1817" y="635.8828"/><rect fill="#FFFFFF" filter="url(#fn2s65apc1bjp)" height="29.1328" style="stroke:#A80036;stroke-width:1.0;" width="10" x="1997" y="281.3594"/><rect fill="#FFFFFF" filter="url(#fn2s65apc1bjp)" height="30" style="stroke:#A80036;stroke-width:1.0;" width="10" x="1997" y="355.7891"/><rect fill="#FFFFFF" filter="url(#fn2s65apc1bjp)" height="77.2656" style="stroke:#A80036;stroke-width:1.0;" width="10" x="1997" y="749.2813"/><polygon fill="#A80036" points="661,115.4297,671,119.4297,661,123.4297,665,119.4297" style="stroke:#A80036;stroke-width:1.0;"/><line style="stroke:#A80036;stroke-width:1.0;" x1="39" x2="667" y1="119.4297" y2="119.4297"/><text fill="#000000" font-family="sans-serif" font-size="13" font-weight="bold" lengthAdjust="spacing" textLength="9" x="46" y="114.3638">1</text><text fill="#000000" font-family="sans-serif" font-size="13" lengthAdjust="spacing" textLength="119" x="59" y="114.3638">inicia o seu registo</text><polygon fill="#A80036" points="50,174.8281,40,178.8281,50,182.8281,46,178.8281" style="stroke:#A80036;stroke-width:1.0;"/><line style="stroke:#A80036;stroke-width:1.0;stroke-dasharray:2.0,2.0;" x1="44" x2="677" y1="178.8281" y2="178.8281"/><text fill="#000000" font-family="sans-serif" font-size="13" font-weight="bold" lengthAdjust="spacing" textLength="9" x="56" y="158.6294">2</text><text fill="#000000" font-family="sans-serif" font-size="13" lengthAdjust="spacing" textLength="153" x="69" y="143.4966">solicita dados do cliente</text><text fill="#000000" font-family="sans-serif" font-size="13" lengthAdjust="spacing" textLength="549" x="69" y="158.6294">(NIF, nome, email, endereço residencial, localização GPS (latitude, longitude), altitude,</text><text fill="#000000" font-family="sans-serif" font-size="13" lengthAdjust="spacing" textLength="597" x="69" y="173.7622">número de segurança social, password, número de cartão de crédito, data de validade, CCV)</text><polygon fill="#A80036" points="661,203.9609,671,207.9609,661,211.9609,665,207.9609" style="stroke:#A80036;stroke-width:1.0;"/><line style="stroke:#A80036;stroke-width:1.0;" x1="39" x2="667" y1="207.9609" y2="207.9609"/><text fill="#000000" font-family="sans-serif" font-size="13" font-weight="bold" lengthAdjust="spacing" textLength="8" x="46" y="202.895">3</text><text fill="#000000" font-family="sans-serif" font-size="13" lengthAdjust="spacing" textLength="185" x="58" y="202.895">introduz os dados solicitados</text><polygon fill="#A80036" points="1136,248.2266,1146,252.2266,1136,256.2266,1140,252.2266" style="stroke:#A80036;stroke-width:1.0;"/><line style="stroke:#A80036;stroke-width:1.0;" x1="683" x2="1142" y1="252.2266" y2="252.2266"/><text fill="#000000" font-family="sans-serif" font-size="13" font-weight="bold" lengthAdjust="spacing" textLength="9" x="690" y="239.5942">4</text><text fill="#000000" font-family="sans-serif" font-size="13" lengthAdjust="spacing" textLength="429" x="703" y="232.0278">novoCliente(NIF, nome, email, morada, latitude, longitude, altitude,</text><text fill="#000000" font-family="sans-serif" font-size="13" lengthAdjust="spacing" textLength="347" x="703" y="247.1606">numSegSocial, password, numCC, dataValidade, CCV)</text><polygon fill="#A80036" points="1985,277.3594,1995,281.3594,1985,285.3594,1989,281.3594" style="stroke:#A80036;stroke-width:1.0;"/><line style="stroke:#A80036;stroke-width:1.0;" x1="1158" x2="1991" y1="281.3594" y2="281.3594"/><text fill="#000000" font-family="sans-serif" font-size="13" font-weight="bold" lengthAdjust="spacing" textLength="9" x="1165" y="276.2935">5</text><text fill="#000000" font-family="sans-serif" font-size="13" lengthAdjust="spacing" textLength="357" x="1178" y="276.2935">end=novoEndereco(morada, latitude, logitude, altitude)</text><polygon fill="#A80036" points="2304,306.4922,2314,310.4922,2304,314.4922,2308,310.4922" style="stroke:#A80036;stroke-width:1.0;"/><line style="stroke:#A80036;stroke-width:1.0;stroke-dasharray:2.0,2.0;" x1="2002" x2="2310" y1="310.4922" y2="310.4922"/><text fill="#000000" font-family="sans-serif" font-size="13" font-weight="bold" lengthAdjust="spacing" textLength="9" x="2009" y="305.4263">6</text><text fill="#000000" font-family="sans-serif" font-size="13" lengthAdjust="spacing" textLength="272" x="2022" y="305.4263">create(morada, latitude, logitude, altitude)</text><rect fill="#FEFECE" filter="url(#fn2s65apc1bjp)" height="30.2969" style="stroke:#A80036;stroke-width:1.5;" width="114" x="2316" y="289.3594"/><text fill="#000000" font-family="sans-serif" font-size="14" lengthAdjust="spacing" textLength="100" x="2323" y="309.3545">end:Endereco</text><polygon fill="#A80036" points="1985,351.7891,1995,355.7891,1985,359.7891,1989,355.7891" style="stroke:#A80036;stroke-width:1.0;"/><line style="stroke:#A80036;stroke-width:1.0;" x1="1158" x2="1991" y1="355.7891" y2="355.7891"/><text fill="#000000" font-family="sans-serif" font-size="13" font-weight="bold" lengthAdjust="spacing" textLength="9" x="1165" y="350.7231">7</text><text fill="#000000" font-family="sans-serif" font-size="13" lengthAdjust="spacing" textLength="132" x="1178" y="350.7231">validaEndereco(end)</text><polygon fill="#A80036" points="1805,410.9219,1815,414.9219,1805,418.9219,1809,414.9219" style="stroke:#A80036;stroke-width:1.0;"/><line style="stroke:#A80036;stroke-width:1.0;" x1="1158" x2="1811" y1="414.9219" y2="414.9219"/><text fill="#000000" font-family="sans-serif" font-size="13" font-weight="bold" lengthAdjust="spacing" textLength="9" x="1165" y="409.856">8</text><text fill="#000000" font-family="sans-serif" font-size="13" lengthAdjust="spacing" textLength="627" x="1178" y="409.856">cliente=novoCliente(NIF, nome, email, end, numSegSocial, password, numCC, dataValidade, CCV)</text><polygon fill="#A80036" points="2432,440.0547,2442,444.0547,2432,448.0547,2436,444.0547" style="stroke:#A80036;stroke-width:1.0;"/><line style="stroke:#A80036;stroke-width:1.0;stroke-dasharray:2.0,2.0;" x1="1822" x2="2438" y1="444.0547" y2="444.0547"/><text fill="#000000" font-family="sans-serif" font-size="13" font-weight="bold" lengthAdjust="spacing" textLength="9" x="1829" y="438.9888">9</text><text fill="#000000" font-family="sans-serif" font-size="13" lengthAdjust="spacing" textLength="540" x="1842" y="438.9888">create(NIF, nome, email, end, numSegSocial, password, numCC, dataValidade, CCV)</text><rect fill="#FEFECE" filter="url(#fn2s65apc1bjp)" height="30.2969" style="stroke:#A80036;stroke-width:1.5;" width="83" x="2444" y="422.9219"/><text fill="#000000" font-family="sans-serif" font-size="14" lengthAdjust="spacing" textLength="69" x="2451" y="442.917">cl:Cliente</text><polygon fill="#A80036" points="1805,485.3516,1815,489.3516,1805,493.3516,1809,489.3516" style="stroke:#A80036;stroke-width:1.0;"/><line style="stroke:#A80036;stroke-width:1.0;" x1="1158" x2="1811" y1="489.3516" y2="489.3516"/><text fill="#000000" font-family="sans-serif" font-size="13" font-weight="bold" lengthAdjust="spacing" textLength="19" x="1165" y="484.2856">10</text><text fill="#000000" font-family="sans-serif" font-size="13" lengthAdjust="spacing" textLength="134" x="1188" y="484.2856">validaCliente(cliente)</text><polygon fill="#A80036" points="50,544.4844,40,548.4844,50,552.4844,46,548.4844" style="stroke:#A80036;stroke-width:1.0;"/><line style="stroke:#A80036;stroke-width:1.0;stroke-dasharray:2.0,2.0;" x1="44" x2="677" y1="548.4844" y2="548.4844"/><text fill="#000000" font-family="sans-serif" font-size="13" font-weight="bold" lengthAdjust="spacing" textLength="18" x="56" y="543.4185">11</text><text fill="#000000" font-family="sans-serif" font-size="13" lengthAdjust="spacing" textLength="252" x="78" y="543.4185">apresenta dados e solicita confirmação</text><polygon fill="#A80036" points="661,573.6172,671,577.6172,661,581.6172,665,577.6172" style="stroke:#A80036;stroke-width:1.0;"/><line style="stroke:#A80036;stroke-width:1.0;" x1="39" x2="667" y1="577.6172" y2="577.6172"/><text fill="#000000" font-family="sans-serif" font-size="13" font-weight="bold" lengthAdjust="spacing" textLength="18" x="46" y="572.5513">12</text><text fill="#000000" font-family="sans-serif" font-size="13" lengthAdjust="spacing" textLength="57" x="68" y="572.5513">confirma</text><polygon fill="#A80036" points="1136,602.75,1146,606.75,1136,610.75,1140,606.75" style="stroke:#A80036;stroke-width:1.0;"/><line style="stroke:#A80036;stroke-width:1.0;" x1="683" x2="1142" y1="606.75" y2="606.75"/><text fill="#000000" font-family="sans-serif" font-size="13" font-weight="bold" lengthAdjust="spacing" textLength="17" x="690" y="601.6841">13</text><text fill="#000000" font-family="sans-serif" font-size="13" lengthAdjust="spacing" textLength="98" x="711" y="601.6841">registaCliente()</text><polygon fill="#A80036" points="1805,631.8828,1815,635.8828,1805,639.8828,1809,635.8828" style="stroke:#A80036;stroke-width:1.0;"/><line style="stroke:#A80036;stroke-width:1.0;" x1="1158" x2="1811" y1="635.8828" y2="635.8828"/><text fill="#000000" font-family="sans-serif" font-size="13" font-weight="bold" lengthAdjust="spacing" textLength="18" x="1165" y="630.8169">14</text><text fill="#000000" font-family="sans-serif" font-size="13" lengthAdjust="spacing" textLength="140" x="1187" y="630.8169">registaCliente(cliente)</text><line style="stroke:#A80036;stroke-width:1.0;" x1="1827" x2="1869" y1="665.0156" y2="665.0156"/><line style="stroke:#A80036;stroke-width:1.0;" x1="1869" x2="1869" y1="665.0156" y2="678.0156"/><line style="stroke:#A80036;stroke-width:1.0;" x1="1828" x2="1869" y1="678.0156" y2="678.0156"/><polygon fill="#A80036" points="1838,674.0156,1828,678.0156,1838,682.0156,1834,678.0156" style="stroke:#A80036;stroke-width:1.0;"/><text fill="#000000" font-family="sans-serif" font-size="13" font-weight="bold" lengthAdjust="spacing" textLength="18" x="1834" y="659.9497">15</text><text fill="#000000" font-family="sans-serif" font-size="13" lengthAdjust="spacing" textLength="134" x="1856" y="659.9497">validaCliente(cliente)</text><line style="stroke:#A80036;stroke-width:1.0;" x1="1827" x2="1869" y1="712.1484" y2="712.1484"/><line style="stroke:#A80036;stroke-width:1.0;" x1="1869" x2="1869" y1="712.1484" y2="725.1484"/><line style="stroke:#A80036;stroke-width:1.0;" x1="1822" x2="1869" y1="725.1484" y2="725.1484"/><polygon fill="#A80036" points="1832,721.1484,1822,725.1484,1832,729.1484,1828,725.1484" style="stroke:#A80036;stroke-width:1.0;"/><text fill="#000000" font-family="sans-serif" font-size="13" font-weight="bold" lengthAdjust="spacing" textLength="18" x="1834" y="707.0825">16</text><text fill="#000000" font-family="sans-serif" font-size="13" lengthAdjust="spacing" textLength="120" x="1856" y="707.0825">addCliente(cliente)</text><polygon fill="#A80036" points="1985,745.2813,1995,749.2813,1985,753.2813,1989,749.2813" style="stroke:#A80036;stroke-width:1.0;"/><line style="stroke:#A80036;stroke-width:1.0;" x1="1158" x2="1991" y1="749.2813" y2="749.2813"/><text fill="#000000" font-family="sans-serif" font-size="13" font-weight="bold" lengthAdjust="spacing" textLength="18" x="1165" y="744.2153">17</text><text fill="#000000" font-family="sans-serif" font-size="13" lengthAdjust="spacing" textLength="138" x="1187" y="744.2153">registaEndereco(end)</text><line style="stroke:#A80036;stroke-width:1.0;" x1="2007" x2="2049" y1="778.4141" y2="778.4141"/><line style="stroke:#A80036;stroke-width:1.0;" x1="2049" x2="2049" y1="778.4141" y2="791.4141"/><line style="stroke:#A80036;stroke-width:1.0;" x1="2008" x2="2049" y1="791.4141" y2="791.4141"/><polygon fill="#A80036" points="2018,787.4141,2008,791.4141,2018,795.4141,2014,791.4141" style="stroke:#A80036;stroke-width:1.0;"/><text fill="#000000" font-family="sans-serif" font-size="13" font-weight="bold" lengthAdjust="spacing" textLength="18" x="2014" y="773.3481">18</text><text fill="#000000" font-family="sans-serif" font-size="13" lengthAdjust="spacing" textLength="132" x="2036" y="773.3481">validaEndereco(end)</text><line style="stroke:#A80036;stroke-width:1.0;" x1="2007" x2="2049" y1="825.5469" y2="825.5469"/><line style="stroke:#A80036;stroke-width:1.0;" x1="2049" x2="2049" y1="825.5469" y2="838.5469"/><line style="stroke:#A80036;stroke-width:1.0;" x1="2002" x2="2049" y1="838.5469" y2="838.5469"/><polygon fill="#A80036" points="2012,834.5469,2002,838.5469,2012,842.5469,2008,838.5469" style="stroke:#A80036;stroke-width:1.0;"/><text fill="#000000" font-family="sans-serif" font-size="13" font-weight="bold" lengthAdjust="spacing" textLength="18" x="2014" y="820.481">19</text><text fill="#000000" font-family="sans-serif" font-size="13" lengthAdjust="spacing" textLength="118" x="2036" y="820.481">addEndereco(end)</text><polygon fill="#A80036" points="45,858.6797,35,862.6797,45,866.6797,41,862.6797" style="stroke:#A80036;stroke-width:1.0;"/><line style="stroke:#A80036;stroke-width:1.0;stroke-dasharray:2.0,2.0;" x1="39" x2="677" y1="862.6797" y2="862.6797"/><text fill="#000000" font-family="sans-serif" font-size="13" font-weight="bold" lengthAdjust="spacing" textLength="19" x="51" y="857.6138">20</text><text fill="#000000" font-family="sans-serif" font-size="13" lengthAdjust="spacing" textLength="154" x="74" y="857.6138">operação bem sucedida</text><!--MD5=[ec5c4d2488d5961eac137492cc4cb41f]
@startuml
autonumber
actor "Cliente" as ADM

participant ":RegistarClienteUI" as UI
participant ":RegistarClienteController" as CTRL
participant "ClienteDB" as DB
participant "EnderecoDB" as EDB
participant "end:Endereco" as END
participant "cl:Cliente" as CLIENTE

activate ADM
ADM -> UI : inicia o seu registo
activate UI
UI - -> ADM : solicita dados do cliente \n(NIF, nome, email, endereço residencial, localização GPS (latitude, longitude), altitude, \nnúmero de segurança social, password, número de cartão de crédito, data de validade, CCV)
deactivate UI

ADM -> UI : introduz os dados solicitados
activate UI
UI -> CTRL : novoCliente(NIF, nome, email, morada, latitude, longitude, altitude, \nnumSegSocial, password, numCC, dataValidade, CCV)
activate CTRL

CTRL -> EDB: end=novoEndereco(morada, latitude, logitude, altitude)
activate EDB
EDB - -> END ** : create(morada, latitude, logitude, altitude)
deactivate EDB

CTRL -> EDB: validaEndereco(end)
activate EDB
deactivate EDB

CTRL -> DB: cliente=novoCliente(NIF, nome, email, end, numSegSocial, password, numCC, dataValidade, CCV)
activate DB
DB - -> CLIENTE ** : create(NIF, nome, email, end, numSegSocial, password, numCC, dataValidade, CCV)
deactivate DB

CTRL -> DB: validaCliente(cliente)
activate DB
deactivate DB

deactivate CTRL
UI - -> ADM : apresenta dados e solicita confirmação
deactivate UI

ADM -> UI : confirma
activate UI

UI -> CTRL: registaCliente()
activate CTRL
CTRL ->DB: registaCliente(cliente)
activate DB
DB -> DB: validaCliente(cliente)
DB -> DB: addCliente(cliente)

deactivate DB

CTRL ->EDB: registaEndereco(end)
activate EDB
EDB -> EDB: validaEndereco(end)
EDB -> EDB: addEndereco(end)

deactivate EDB

deactivate CTRL

UI - -> ADM : operação bem sucedida
deactivate UI

deactivate ADM
@enduml

PlantUML version 1.2020.27beta7(Unknown compile time)
(GPL source distribution)
Java Runtime: Java(TM) SE Runtime Environment
JVM: Java HotSpot(TM) 64-Bit Server VM
Default Encoding: UTF-8
Language: en
Country: US
--></g></svg>