<?xml version="1.0" encoding="UTF-8" standalone="no"?><svg xmlns="http://www.w3.org/2000/svg" xmlns:xlink="http://www.w3.org/1999/xlink" contentScriptType="application/ecmascript" contentStyleType="text/css" height="1211px" preserveAspectRatio="none" style="width:2490px;height:1211px;" version="1.1" viewBox="0 0 2490 1211" width="2490px" zoomAndPan="magnify"><defs><filter height="300%" id="f261pqsbk8a3m" width="300%" x="-1" y="-1"><feGaussianBlur result="blurOut" stdDeviation="2.0"/><feColorMatrix in="blurOut" result="blurOut2" type="matrix" values="0 0 0 0 0 0 0 0 0 0 0 0 0 0 0 0 0 0 .4 0"/><feOffset dx="4.0" dy="4.0" in="blurOut2" result="blurOut3"/><feBlend in="SourceGraphic" in2="blurOut3" mode="normal"/></filter></defs><g><rect fill="#FFFFFF" filter="url(#f261pqsbk8a3m)" height="1011.3438" style="stroke:#A80036;stroke-width:1.0;" width="10" x="29" y="98.2969"/><rect fill="#FFFFFF" filter="url(#f261pqsbk8a3m)" height="59.3984" style="stroke:#A80036;stroke-width:1.0;" width="10" x="673" y="119.4297"/><rect fill="#FFFFFF" filter="url(#f261pqsbk8a3m)" height="474.0859" style="stroke:#A80036;stroke-width:1.0;" width="10" x="673" y="207.9609"/><rect fill="#FFFFFF" filter="url(#f261pqsbk8a3m)" height="398.4609" style="stroke:#A80036;stroke-width:1.0;" width="10" x="673" y="711.1797"/><rect fill="#FFFFFF" filter="url(#f261pqsbk8a3m)" height="400.6875" style="stroke:#A80036;stroke-width:1.0;" width="10" x="1148" y="252.2266"/><rect fill="#FFFFFF" filter="url(#f261pqsbk8a3m)" height="333.1953" style="stroke:#A80036;stroke-width:1.0;" width="10" x="1148" y="740.3125"/><rect fill="#FFFFFF" filter="url(#f261pqsbk8a3m)" height="29.1328" style="stroke:#A80036;stroke-width:1.0;" width="10" x="1666" y="548.4844"/><rect fill="#FFFFFF" filter="url(#f261pqsbk8a3m)" height="30" style="stroke:#A80036;stroke-width:1.0;" width="10" x="1666" y="622.9141"/><rect fill="#FFFFFF" filter="url(#f261pqsbk8a3m)" height="77.2656" style="stroke:#A80036;stroke-width:1.0;" width="10" x="1666" y="769.4453"/><rect fill="#FFFFFF" filter="url(#f261pqsbk8a3m)" height="29.1328" style="stroke:#A80036;stroke-width:1.0;" width="10" x="1846" y="281.3594"/><rect fill="#FFFFFF" filter="url(#f261pqsbk8a3m)" height="30" style="stroke:#A80036;stroke-width:1.0;" width="10" x="1846" y="355.7891"/><rect fill="#FFFFFF" filter="url(#f261pqsbk8a3m)" height="77.2656" style="stroke:#A80036;stroke-width:1.0;" width="10" x="1846" y="882.8438"/><rect fill="#FFFFFF" filter="url(#f261pqsbk8a3m)" height="29.1328" style="stroke:#A80036;stroke-width:1.0;" width="10" x="2024" y="414.9219"/><rect fill="#FFFFFF" filter="url(#f261pqsbk8a3m)" height="30" style="stroke:#A80036;stroke-width:1.0;" width="10" x="2024" y="489.3516"/><rect fill="#FFFFFF" filter="url(#f261pqsbk8a3m)" height="77.2656" style="stroke:#A80036;stroke-width:1.0;" width="10" x="2024" y="996.2422"/><line style="stroke:#A80036;stroke-width:1.0;stroke-dasharray:5.0,5.0;" x1="34" x2="34" y1="88.2969" y2="1127.6406"/><line style="stroke:#A80036;stroke-width:1.0;stroke-dasharray:5.0,5.0;" x1="678" x2="678" y1="88.2969" y2="1127.6406"/><line style="stroke:#A80036;stroke-width:1.0;stroke-dasharray:5.0,5.0;" x1="1153" x2="1153" y1="88.2969" y2="1127.6406"/><line style="stroke:#A80036;stroke-width:1.0;stroke-dasharray:5.0,5.0;" x1="1670.5" x2="1670.5" y1="88.2969" y2="1127.6406"/><line style="stroke:#A80036;stroke-width:1.0;stroke-dasharray:5.0,5.0;" x1="1850.5" x2="1850.5" y1="88.2969" y2="1127.6406"/><line style="stroke:#A80036;stroke-width:1.0;stroke-dasharray:5.0,5.0;" x1="2028.5" x2="2028.5" y1="88.2969" y2="1127.6406"/><line style="stroke:#A80036;stroke-width:1.0;stroke-dasharray:5.0,5.0;" x1="2224" x2="2224" y1="322.0078" y2="1127.6406"/><line style="stroke:#A80036;stroke-width:1.0;stroke-dasharray:5.0,5.0;" x1="2339" x2="2339" y1="455.5703" y2="1127.6406"/><line style="stroke:#A80036;stroke-width:1.0;stroke-dasharray:5.0,5.0;" x1="2436" x2="2436" y1="589.1328" y2="1127.6406"/><text fill="#000000" font-family="sans-serif" font-size="14" lengthAdjust="spacing" textLength="52" x="5" y="84.9951">Cliente</text><ellipse cx="34" cy="15" fill="#FEFECE" filter="url(#f261pqsbk8a3m)" rx="8" ry="8" style="stroke:#A80036;stroke-width:2.0;"/><path d="M34,23 L34,50 M21,31 L47,31 M34,50 L21,65 M34,50 L47,65 " fill="none" filter="url(#f261pqsbk8a3m)" style="stroke:#A80036;stroke-width:2.0;"/><text fill="#000000" font-family="sans-serif" font-size="14" lengthAdjust="spacing" textLength="52" x="5" y="1139.6357">Cliente</text><ellipse cx="34" cy="1152.9375" fill="#FEFECE" filter="url(#f261pqsbk8a3m)" rx="8" ry="8" style="stroke:#A80036;stroke-width:2.0;"/><path d="M34,1160.9375 L34,1187.9375 M21,1168.9375 L47,1168.9375 M34,1187.9375 L21,1202.9375 M34,1187.9375 L47,1202.9375 " fill="none" filter="url(#f261pqsbk8a3m)" style="stroke:#A80036;stroke-width:2.0;"/><rect fill="#FEFECE" filter="url(#f261pqsbk8a3m)" height="30.2969" style="stroke:#A80036;stroke-width:1.5;" width="144" x="604" y="53"/><text fill="#000000" font-family="sans-serif" font-size="14" lengthAdjust="spacing" textLength="130" x="611" y="72.9951">:RegistarClienteUI</text><rect fill="#FEFECE" filter="url(#f261pqsbk8a3m)" height="30.2969" style="stroke:#A80036;stroke-width:1.5;" width="144" x="604" y="1126.6406"/><text fill="#000000" font-family="sans-serif" font-size="14" lengthAdjust="spacing" textLength="130" x="611" y="1146.6357">:RegistarClienteUI</text><rect fill="#FEFECE" filter="url(#f261pqsbk8a3m)" height="30.2969" style="stroke:#A80036;stroke-width:1.5;" width="204" x="1049" y="53"/><text fill="#000000" font-family="sans-serif" font-size="14" lengthAdjust="spacing" textLength="190" x="1056" y="72.9951">:RegistarClienteController</text><rect fill="#FEFECE" filter="url(#f261pqsbk8a3m)" height="30.2969" style="stroke:#A80036;stroke-width:1.5;" width="204" x="1049" y="1126.6406"/><text fill="#000000" font-family="sans-serif" font-size="14" lengthAdjust="spacing" textLength="190" x="1056" y="1146.6357">:RegistarClienteController</text><rect fill="#FEFECE" filter="url(#f261pqsbk8a3m)" height="30.2969" style="stroke:#A80036;stroke-width:1.5;" width="87" x="1625.5" y="53"/><text fill="#000000" font-family="sans-serif" font-size="14" lengthAdjust="spacing" textLength="73" x="1632.5" y="72.9951">ClienteDB</text><rect fill="#FEFECE" filter="url(#f261pqsbk8a3m)" height="30.2969" style="stroke:#A80036;stroke-width:1.5;" width="87" x="1625.5" y="1126.6406"/><text fill="#000000" font-family="sans-serif" font-size="14" lengthAdjust="spacing" textLength="73" x="1632.5" y="1146.6357">ClienteDB</text><rect fill="#FEFECE" filter="url(#f261pqsbk8a3m)" height="30.2969" style="stroke:#A80036;stroke-width:1.5;" width="103" x="1797.5" y="53"/><text fill="#000000" font-family="sans-serif" font-size="14" lengthAdjust="spacing" textLength="89" x="1804.5" y="72.9951">EnderecoDB</text><rect fill="#FEFECE" filter="url(#f261pqsbk8a3m)" height="30.2969" style="stroke:#A80036;stroke-width:1.5;" width="103" x="1797.5" y="1126.6406"/><text fill="#000000" font-family="sans-serif" font-size="14" lengthAdjust="spacing" textLength="89" x="1804.5" y="1146.6357">EnderecoDB</text><rect fill="#FEFECE" filter="url(#f261pqsbk8a3m)" height="30.2969" style="stroke:#A80036;stroke-width:1.5;" width="83" x="1985.5" y="53"/><text fill="#000000" font-family="sans-serif" font-size="14" lengthAdjust="spacing" textLength="69" x="1992.5" y="72.9951">CartaoDB</text><rect fill="#FEFECE" filter="url(#f261pqsbk8a3m)" height="30.2969" style="stroke:#A80036;stroke-width:1.5;" width="83" x="1985.5" y="1126.6406"/><text fill="#000000" font-family="sans-serif" font-size="14" lengthAdjust="spacing" textLength="69" x="1992.5" y="1146.6357">CartaoDB</text><rect fill="#FEFECE" filter="url(#f261pqsbk8a3m)" height="30.2969" style="stroke:#A80036;stroke-width:1.5;" width="114" x="2165" y="1126.6406"/><text fill="#000000" font-family="sans-serif" font-size="14" lengthAdjust="spacing" textLength="100" x="2172" y="1146.6357">end:Endereco</text><rect fill="#FEFECE" filter="url(#f261pqsbk8a3m)" height="30.2969" style="stroke:#A80036;stroke-width:1.5;" width="83" x="2296" y="1126.6406"/><text fill="#000000" font-family="sans-serif" font-size="14" lengthAdjust="spacing" textLength="69" x="2303" y="1146.6357">cc:Cartao</text><rect fill="#FEFECE" filter="url(#f261pqsbk8a3m)" height="30.2969" style="stroke:#A80036;stroke-width:1.5;" width="83" x="2393" y="1126.6406"/><text fill="#000000" font-family="sans-serif" font-size="14" lengthAdjust="spacing" textLength="69" x="2400" y="1146.6357">cl:Cliente</text><rect fill="#FFFFFF" filter="url(#f261pqsbk8a3m)" height="1011.3438" style="stroke:#A80036;stroke-width:1.0;" width="10" x="29" y="98.2969"/><rect fill="#FFFFFF" filter="url(#f261pqsbk8a3m)" height="59.3984" style="stroke:#A80036;stroke-width:1.0;" width="10" x="673" y="119.4297"/><rect fill="#FFFFFF" filter="url(#f261pqsbk8a3m)" height="474.0859" style="stroke:#A80036;stroke-width:1.0;" width="10" x="673" y="207.9609"/><rect fill="#FFFFFF" filter="url(#f261pqsbk8a3m)" height="398.4609" style="stroke:#A80036;stroke-width:1.0;" width="10" x="673" y="711.1797"/><rect fill="#FFFFFF" filter="url(#f261pqsbk8a3m)" height="400.6875" style="stroke:#A80036;stroke-width:1.0;" width="10" x="1148" y="252.2266"/><rect fill="#FFFFFF" filter="url(#f261pqsbk8a3m)" height="333.1953" style="stroke:#A80036;stroke-width:1.0;" width="10" x="1148" y="740.3125"/><rect fill="#FFFFFF" filter="url(#f261pqsbk8a3m)" height="29.1328" style="stroke:#A80036;stroke-width:1.0;" width="10" x="1666" y="548.4844"/><rect fill="#FFFFFF" filter="url(#f261pqsbk8a3m)" height="30" style="stroke:#A80036;stroke-width:1.0;" width="10" x="1666" y="622.9141"/><rect fill="#FFFFFF" filter="url(#f261pqsbk8a3m)" height="77.2656" style="stroke:#A80036;stroke-width:1.0;" width="10" x="1666" y="769.4453"/><rect fill="#FFFFFF" filter="url(#f261pqsbk8a3m)" height="29.1328" style="stroke:#A80036;stroke-width:1.0;" width="10" x="1846" y="281.3594"/><rect fill="#FFFFFF" filter="url(#f261pqsbk8a3m)" height="30" style="stroke:#A80036;stroke-width:1.0;" width="10" x="1846" y="355.7891"/><rect fill="#FFFFFF" filter="url(#f261pqsbk8a3m)" height="77.2656" style="stroke:#A80036;stroke-width:1.0;" width="10" x="1846" y="882.8438"/><rect fill="#FFFFFF" filter="url(#f261pqsbk8a3m)" height="29.1328" style="stroke:#A80036;stroke-width:1.0;" width="10" x="2024" y="414.9219"/><rect fill="#FFFFFF" filter="url(#f261pqsbk8a3m)" height="30" style="stroke:#A80036;stroke-width:1.0;" width="10" x="2024" y="489.3516"/><rect fill="#FFFFFF" filter="url(#f261pqsbk8a3m)" height="77.2656" style="stroke:#A80036;stroke-width:1.0;" width="10" x="2024" y="996.2422"/><polygon fill="#A80036" points="661,115.4297,671,119.4297,661,123.4297,665,119.4297" style="stroke:#A80036;stroke-width:1.0;"/><line style="stroke:#A80036;stroke-width:1.0;" x1="39" x2="667" y1="119.4297" y2="119.4297"/><text fill="#000000" font-family="sans-serif" font-size="13" font-weight="bold" lengthAdjust="spacing" textLength="9" x="46" y="114.3638">1</text><text fill="#000000" font-family="sans-serif" font-size="13" lengthAdjust="spacing" textLength="119" x="59" y="114.3638">inicia o seu registo</text><polygon fill="#A80036" points="50,174.8281,40,178.8281,50,182.8281,46,178.8281" style="stroke:#A80036;stroke-width:1.0;"/><line style="stroke:#A80036;stroke-width:1.0;stroke-dasharray:2.0,2.0;" x1="44" x2="677" y1="178.8281" y2="178.8281"/><text fill="#000000" font-family="sans-serif" font-size="13" font-weight="bold" lengthAdjust="spacing" textLength="9" x="56" y="158.6294">2</text><text fill="#000000" font-family="sans-serif" font-size="13" lengthAdjust="spacing" textLength="153" x="69" y="143.4966">solicita dados do cliente</text><text fill="#000000" font-family="sans-serif" font-size="13" lengthAdjust="spacing" textLength="549" x="69" y="158.6294">(NIF, nome, email, endereço residencial, localização GPS (latitude, longitude), altitude,</text><text fill="#000000" font-family="sans-serif" font-size="13" lengthAdjust="spacing" textLength="597" x="69" y="173.7622">número de segurança social, password, número de cartão de crédito, data de validade, CCV)</text><polygon fill="#A80036" points="661,203.9609,671,207.9609,661,211.9609,665,207.9609" style="stroke:#A80036;stroke-width:1.0;"/><line style="stroke:#A80036;stroke-width:1.0;" x1="39" x2="667" y1="207.9609" y2="207.9609"/><text fill="#000000" font-family="sans-serif" font-size="13" font-weight="bold" lengthAdjust="spacing" textLength="8" x="46" y="202.895">3</text><text fill="#000000" font-family="sans-serif" font-size="13" lengthAdjust="spacing" textLength="185" x="58" y="202.895">introduz os dados solicitados</text><polygon fill="#A80036" points="1136,248.2266,1146,252.2266,1136,256.2266,1140,252.2266" style="stroke:#A80036;stroke-width:1.0;"/><line style="stroke:#A80036;stroke-width:1.0;" x1="683" x2="1142" y1="252.2266" y2="252.2266"/><text fill="#000000" font-family="sans-serif" font-size="13" font-weight="bold" lengthAdjust="spacing" textLength="9" x="690" y="239.5942">4</text><text fill="#000000" font-family="sans-serif" font-size="13" lengthAdjust="spacing" textLength="429" x="703" y="232.0278">novoCliente(NIF, nome, email, morada, latitude, longitude, altitude,</text><text fill="#000000" font-family="sans-serif" font-size="13" lengthAdjust="spacing" textLength="347" x="703" y="247.1606">numSegSocial, password, numCC, dataValidade, CCV)</text><polygon fill="#A80036" points="1834,277.3594,1844,281.3594,1834,285.3594,1838,281.3594" style="stroke:#A80036;stroke-width:1.0;"/><line style="stroke:#A80036;stroke-width:1.0;" x1="1158" x2="1840" y1="281.3594" y2="281.3594"/><text fill="#000000" font-family="sans-serif" font-size="13" font-weight="bold" lengthAdjust="spacing" textLength="9" x="1165" y="276.2935">5</text><text fill="#000000" font-family="sans-serif" font-size="13" lengthAdjust="spacing" textLength="357" x="1178" y="276.2935">end=novoEndereco(morada, latitude, logitude, altitude)</text><polygon fill="#A80036" points="2153,306.4922,2163,310.4922,2153,314.4922,2157,310.4922" style="stroke:#A80036;stroke-width:1.0;"/><line style="stroke:#A80036;stroke-width:1.0;stroke-dasharray:2.0,2.0;" x1="1851" x2="2159" y1="310.4922" y2="310.4922"/><text fill="#000000" font-family="sans-serif" font-size="13" font-weight="bold" lengthAdjust="spacing" textLength="9" x="1858" y="305.4263">6</text><text fill="#000000" font-family="sans-serif" font-size="13" lengthAdjust="spacing" textLength="272" x="1871" y="305.4263">create(morada, latitude, logitude, altitude)</text><rect fill="#FEFECE" filter="url(#f261pqsbk8a3m)" height="30.2969" style="stroke:#A80036;stroke-width:1.5;" width="114" x="2165" y="289.3594"/><text fill="#000000" font-family="sans-serif" font-size="14" lengthAdjust="spacing" textLength="100" x="2172" y="309.3545">end:Endereco</text><polygon fill="#A80036" points="1834,351.7891,1844,355.7891,1834,359.7891,1838,355.7891" style="stroke:#A80036;stroke-width:1.0;"/><line style="stroke:#A80036;stroke-width:1.0;" x1="1158" x2="1840" y1="355.7891" y2="355.7891"/><text fill="#000000" font-family="sans-serif" font-size="13" font-weight="bold" lengthAdjust="spacing" textLength="9" x="1165" y="350.7231">7</text><text fill="#000000" font-family="sans-serif" font-size="13" lengthAdjust="spacing" textLength="132" x="1178" y="350.7231">validaEndereco(end)</text><polygon fill="#A80036" points="2012,410.9219,2022,414.9219,2012,418.9219,2016,414.9219" style="stroke:#A80036;stroke-width:1.0;"/><line style="stroke:#A80036;stroke-width:1.0;" x1="1158" x2="2018" y1="414.9219" y2="414.9219"/><text fill="#000000" font-family="sans-serif" font-size="13" font-weight="bold" lengthAdjust="spacing" textLength="9" x="1165" y="409.856">8</text><text fill="#000000" font-family="sans-serif" font-size="13" lengthAdjust="spacing" textLength="283" x="1178" y="409.856">cc=novoCartao(numCC, dataValidade, CCV)</text><polygon fill="#A80036" points="2284,440.0547,2294,444.0547,2284,448.0547,2288,444.0547" style="stroke:#A80036;stroke-width:1.0;"/><line style="stroke:#A80036;stroke-width:1.0;stroke-dasharray:2.0,2.0;" x1="2029" x2="2290" y1="444.0547" y2="444.0547"/><text fill="#000000" font-family="sans-serif" font-size="13" font-weight="bold" lengthAdjust="spacing" textLength="9" x="2036" y="438.9888">9</text><text fill="#000000" font-family="sans-serif" font-size="13" lengthAdjust="spacing" textLength="225" x="2049" y="438.9888">create(numCC, dataValidade, CCV)</text><rect fill="#FEFECE" filter="url(#f261pqsbk8a3m)" height="30.2969" style="stroke:#A80036;stroke-width:1.5;" width="83" x="2296" y="422.9219"/><text fill="#000000" font-family="sans-serif" font-size="14" lengthAdjust="spacing" textLength="69" x="2303" y="442.917">cc:Cartao</text><polygon fill="#A80036" points="2012,485.3516,2022,489.3516,2012,493.3516,2016,489.3516" style="stroke:#A80036;stroke-width:1.0;"/><line style="stroke:#A80036;stroke-width:1.0;" x1="1158" x2="2018" y1="489.3516" y2="489.3516"/><text fill="#000000" font-family="sans-serif" font-size="13" font-weight="bold" lengthAdjust="spacing" textLength="19" x="1165" y="484.2856">10</text><text fill="#000000" font-family="sans-serif" font-size="13" lengthAdjust="spacing" textLength="105" x="1188" y="484.2856">validaCartao(cc)</text><polygon fill="#A80036" points="1654,544.4844,1664,548.4844,1654,552.4844,1658,548.4844" style="stroke:#A80036;stroke-width:1.0;"/><line style="stroke:#A80036;stroke-width:1.0;" x1="1158" x2="1660" y1="548.4844" y2="548.4844"/><text fill="#000000" font-family="sans-serif" font-size="13" font-weight="bold" lengthAdjust="spacing" textLength="18" x="1165" y="543.4185">11</text><text fill="#000000" font-family="sans-serif" font-size="13" lengthAdjust="spacing" textLength="467" x="1187" y="543.4185">cliente=novoCliente(NIF, nome, email, end, numSegSocial, password, cc)</text><polygon fill="#A80036" points="2381,573.6172,2391,577.6172,2381,581.6172,2385,577.6172" style="stroke:#A80036;stroke-width:1.0;"/><line style="stroke:#A80036;stroke-width:1.0;stroke-dasharray:2.0,2.0;" x1="1671" x2="2387" y1="577.6172" y2="577.6172"/><text fill="#000000" font-family="sans-serif" font-size="13" font-weight="bold" lengthAdjust="spacing" textLength="18" x="1678" y="572.5513">12</text><text fill="#000000" font-family="sans-serif" font-size="13" lengthAdjust="spacing" textLength="380" x="1700" y="572.5513">create(NIF, nome, email, end, numSegSocial, password, cc)</text><rect fill="#FEFECE" filter="url(#f261pqsbk8a3m)" height="30.2969" style="stroke:#A80036;stroke-width:1.5;" width="83" x="2393" y="556.4844"/><text fill="#000000" font-family="sans-serif" font-size="14" lengthAdjust="spacing" textLength="69" x="2400" y="576.4795">cl:Cliente</text><polygon fill="#A80036" points="1654,618.9141,1664,622.9141,1654,626.9141,1658,622.9141" style="stroke:#A80036;stroke-width:1.0;"/><line style="stroke:#A80036;stroke-width:1.0;" x1="1158" x2="1660" y1="622.9141" y2="622.9141"/><text fill="#000000" font-family="sans-serif" font-size="13" font-weight="bold" lengthAdjust="spacing" textLength="17" x="1165" y="617.8481">13</text><text fill="#000000" font-family="sans-serif" font-size="13" lengthAdjust="spacing" textLength="134" x="1186" y="617.8481">validaCliente(cliente)</text><polygon fill="#A80036" points="50,678.0469,40,682.0469,50,686.0469,46,682.0469" style="stroke:#A80036;stroke-width:1.0;"/><line style="stroke:#A80036;stroke-width:1.0;stroke-dasharray:2.0,2.0;" x1="44" x2="677" y1="682.0469" y2="682.0469"/><text fill="#000000" font-family="sans-serif" font-size="13" font-weight="bold" lengthAdjust="spacing" textLength="18" x="56" y="676.981">14</text><text fill="#000000" font-family="sans-serif" font-size="13" lengthAdjust="spacing" textLength="252" x="78" y="676.981">apresenta dados e solicita confirmação</text><polygon fill="#A80036" points="661,707.1797,671,711.1797,661,715.1797,665,711.1797" style="stroke:#A80036;stroke-width:1.0;"/><line style="stroke:#A80036;stroke-width:1.0;" x1="39" x2="667" y1="711.1797" y2="711.1797"/><text fill="#000000" font-family="sans-serif" font-size="13" font-weight="bold" lengthAdjust="spacing" textLength="18" x="46" y="706.1138">15</text><text fill="#000000" font-family="sans-serif" font-size="13" lengthAdjust="spacing" textLength="57" x="68" y="706.1138">confirma</text><polygon fill="#A80036" points="1136,736.3125,1146,740.3125,1136,744.3125,1140,740.3125" style="stroke:#A80036;stroke-width:1.0;"/><line style="stroke:#A80036;stroke-width:1.0;" x1="683" x2="1142" y1="740.3125" y2="740.3125"/><text fill="#000000" font-family="sans-serif" font-size="13" font-weight="bold" lengthAdjust="spacing" textLength="18" x="690" y="735.2466">16</text><text fill="#000000" font-family="sans-serif" font-size="13" lengthAdjust="spacing" textLength="98" x="712" y="735.2466">registaCliente()</text><polygon fill="#A80036" points="1654,765.4453,1664,769.4453,1654,773.4453,1658,769.4453" style="stroke:#A80036;stroke-width:1.0;"/><line style="stroke:#A80036;stroke-width:1.0;" x1="1158" x2="1660" y1="769.4453" y2="769.4453"/><text fill="#000000" font-family="sans-serif" font-size="13" font-weight="bold" lengthAdjust="spacing" textLength="18" x="1165" y="764.3794">17</text><text fill="#000000" font-family="sans-serif" font-size="13" lengthAdjust="spacing" textLength="140" x="1187" y="764.3794">registaCliente(cliente)</text><line style="stroke:#A80036;stroke-width:1.0;" x1="1676" x2="1718" y1="798.5781" y2="798.5781"/><line style="stroke:#A80036;stroke-width:1.0;" x1="1718" x2="1718" y1="798.5781" y2="811.5781"/><line style="stroke:#A80036;stroke-width:1.0;" x1="1677" x2="1718" y1="811.5781" y2="811.5781"/><polygon fill="#A80036" points="1687,807.5781,1677,811.5781,1687,815.5781,1683,811.5781" style="stroke:#A80036;stroke-width:1.0;"/><text fill="#000000" font-family="sans-serif" font-size="13" font-weight="bold" lengthAdjust="spacing" textLength="18" x="1683" y="793.5122">18</text><text fill="#000000" font-family="sans-serif" font-size="13" lengthAdjust="spacing" textLength="134" x="1705" y="793.5122">validaCliente(cliente)</text><line style="stroke:#A80036;stroke-width:1.0;" x1="1676" x2="1718" y1="845.7109" y2="845.7109"/><line style="stroke:#A80036;stroke-width:1.0;" x1="1718" x2="1718" y1="845.7109" y2="858.7109"/><line style="stroke:#A80036;stroke-width:1.0;" x1="1671" x2="1718" y1="858.7109" y2="858.7109"/><polygon fill="#A80036" points="1681,854.7109,1671,858.7109,1681,862.7109,1677,858.7109" style="stroke:#A80036;stroke-width:1.0;"/><text fill="#000000" font-family="sans-serif" font-size="13" font-weight="bold" lengthAdjust="spacing" textLength="18" x="1683" y="840.645">19</text><text fill="#000000" font-family="sans-serif" font-size="13" lengthAdjust="spacing" textLength="120" x="1705" y="840.645">addCliente(cliente)</text><polygon fill="#A80036" points="1834,878.8438,1844,882.8438,1834,886.8438,1838,882.8438" style="stroke:#A80036;stroke-width:1.0;"/><line style="stroke:#A80036;stroke-width:1.0;" x1="1158" x2="1840" y1="882.8438" y2="882.8438"/><text fill="#000000" font-family="sans-serif" font-size="13" font-weight="bold" lengthAdjust="spacing" textLength="19" x="1165" y="877.7778">20</text><text fill="#000000" font-family="sans-serif" font-size="13" lengthAdjust="spacing" textLength="138" x="1188" y="877.7778">registaEndereco(end)</text><line style="stroke:#A80036;stroke-width:1.0;" x1="1856" x2="1898" y1="911.9766" y2="911.9766"/><line style="stroke:#A80036;stroke-width:1.0;" x1="1898" x2="1898" y1="911.9766" y2="924.9766"/><line style="stroke:#A80036;stroke-width:1.0;" x1="1857" x2="1898" y1="924.9766" y2="924.9766"/><polygon fill="#A80036" points="1867,920.9766,1857,924.9766,1867,928.9766,1863,924.9766" style="stroke:#A80036;stroke-width:1.0;"/><text fill="#000000" font-family="sans-serif" font-size="13" font-weight="bold" lengthAdjust="spacing" textLength="18" x="1863" y="906.9106">21</text><text fill="#000000" font-family="sans-serif" font-size="13" lengthAdjust="spacing" textLength="132" x="1885" y="906.9106">validaEndereco(end)</text><line style="stroke:#A80036;stroke-width:1.0;" x1="1856" x2="1898" y1="959.1094" y2="959.1094"/><line style="stroke:#A80036;stroke-width:1.0;" x1="1898" x2="1898" y1="959.1094" y2="972.1094"/><line style="stroke:#A80036;stroke-width:1.0;" x1="1851" x2="1898" y1="972.1094" y2="972.1094"/><polygon fill="#A80036" points="1861,968.1094,1851,972.1094,1861,976.1094,1857,972.1094" style="stroke:#A80036;stroke-width:1.0;"/><text fill="#000000" font-family="sans-serif" font-size="13" font-weight="bold" lengthAdjust="spacing" textLength="18" x="1863" y="954.0435">22</text><text fill="#000000" font-family="sans-serif" font-size="13" lengthAdjust="spacing" textLength="118" x="1885" y="954.0435">addEndereco(end)</text><polygon fill="#A80036" points="2012,992.2422,2022,996.2422,2012,1000.2422,2016,996.2422" style="stroke:#A80036;stroke-width:1.0;"/><line style="stroke:#A80036;stroke-width:1.0;" x1="1158" x2="2018" y1="996.2422" y2="996.2422"/><text fill="#000000" font-family="sans-serif" font-size="13" font-weight="bold" lengthAdjust="spacing" textLength="17" x="1165" y="991.1763">23</text><text fill="#000000" font-family="sans-serif" font-size="13" lengthAdjust="spacing" textLength="111" x="1186" y="991.1763">registaCartao(cc)</text><line style="stroke:#A80036;stroke-width:1.0;" x1="2034" x2="2076" y1="1025.375" y2="1025.375"/><line style="stroke:#A80036;stroke-width:1.0;" x1="2076" x2="2076" y1="1025.375" y2="1038.375"/><line style="stroke:#A80036;stroke-width:1.0;" x1="2035" x2="2076" y1="1038.375" y2="1038.375"/><polygon fill="#A80036" points="2045,1034.375,2035,1038.375,2045,1042.375,2041,1038.375" style="stroke:#A80036;stroke-width:1.0;"/><text fill="#000000" font-family="sans-serif" font-size="13" font-weight="bold" lengthAdjust="spacing" textLength="18" x="2041" y="1020.3091">24</text><text fill="#000000" font-family="sans-serif" font-size="13" lengthAdjust="spacing" textLength="105" x="2063" y="1020.3091">validaCartao(cc)</text><line style="stroke:#A80036;stroke-width:1.0;" x1="2034" x2="2076" y1="1072.5078" y2="1072.5078"/><line style="stroke:#A80036;stroke-width:1.0;" x1="2076" x2="2076" y1="1072.5078" y2="1085.5078"/><line style="stroke:#A80036;stroke-width:1.0;" x1="2029" x2="2076" y1="1085.5078" y2="1085.5078"/><polygon fill="#A80036" points="2039,1081.5078,2029,1085.5078,2039,1089.5078,2035,1085.5078" style="stroke:#A80036;stroke-width:1.0;"/><text fill="#000000" font-family="sans-serif" font-size="13" font-weight="bold" lengthAdjust="spacing" textLength="18" x="2041" y="1067.4419">25</text><text fill="#000000" font-family="sans-serif" font-size="13" lengthAdjust="spacing" textLength="91" x="2063" y="1067.4419">addCartao(cc)</text><polygon fill="#A80036" points="45,1105.6406,35,1109.6406,45,1113.6406,41,1109.6406" style="stroke:#A80036;stroke-width:1.0;"/><line style="stroke:#A80036;stroke-width:1.0;stroke-dasharray:2.0,2.0;" x1="39" x2="677" y1="1109.6406" y2="1109.6406"/><text fill="#000000" font-family="sans-serif" font-size="13" font-weight="bold" lengthAdjust="spacing" textLength="18" x="51" y="1104.5747">26</text><text fill="#000000" font-family="sans-serif" font-size="13" lengthAdjust="spacing" textLength="154" x="73" y="1104.5747">operação bem sucedida</text><!--MD5=[d8f8a0182207d7547e2a8e345166a19c]
@startuml
autonumber
actor "Cliente" as ADM

participant ":RegistarClienteUI" as UI
participant ":RegistarClienteController" as CTRL
participant "ClienteDB" as DB
participant "EnderecoDB" as EDB
participant "CartaoDB" as CDB
participant "end:Endereco" as END
participant "cc:Cartao" as CARTAO
participant "cl:Cliente" as CLIENTE

activate ADM
ADM -> UI : inicia o seu registo
activate UI
UI - -> ADM : solicita dados do cliente \n(NIF, nome, email, endereço residencial, localização GPS (latitude, longitude), altitude, \nnúmero de segurança social, password, número de cartão de crédito, data de validade, CCV)
deactivate UI

ADM -> UI : introduz os dados solicitados
activate UI
UI -> CTRL : novoCliente(NIF, nome, email, morada, latitude, longitude, altitude, \nnumSegSocial, password, numCC, dataValidade, CCV)
activate CTRL

CTRL -> EDB: end=novoEndereco(morada, latitude, logitude, altitude)
activate EDB
EDB - -> END ** : create(morada, latitude, logitude, altitude)
deactivate EDB

CTRL -> EDB: validaEndereco(end)
activate EDB
deactivate EDB

CTRL -> CDB: cc=novoCartao(numCC, dataValidade, CCV)
activate CDB
CDB - -> CARTAO ** : create(numCC, dataValidade, CCV)
deactivate CDB

CTRL -> CDB: validaCartao(cc)
activate CDB
deactivate CDB

CTRL -> DB: cliente=novoCliente(NIF, nome, email, end, numSegSocial, password, cc)
activate DB
DB - -> CLIENTE ** : create(NIF, nome, email, end, numSegSocial, password, cc)
deactivate DB

CTRL -> DB: validaCliente(cliente)
activate DB
deactivate DB

deactivate CTRL
UI - -> ADM : apresenta dados e solicita confirmação
deactivate UI

ADM -> UI : confirma
activate UI

UI -> CTRL: registaCliente()
activate CTRL
CTRL ->DB: registaCliente(cliente)
activate DB
DB -> DB: validaCliente(cliente)
DB -> DB: addCliente(cliente)

deactivate DB

CTRL ->EDB: registaEndereco(end)
activate EDB
EDB -> EDB: validaEndereco(end)
EDB -> EDB: addEndereco(end)

deactivate EDB

CTRL ->CDB: registaCartao(cc)
activate CDB
CDB -> CDB: validaCartao(cc)
CDB -> CDB: addCartao(cc)

deactivate CDB

deactivate CTRL

UI - -> ADM : operação bem sucedida
deactivate UI

deactivate ADM
@enduml

PlantUML version 1.2020.27beta7(Unknown compile time)
(GPL source distribution)
Java Runtime: Java(TM) SE Runtime Environment
JVM: Java HotSpot(TM) 64-Bit Server VM
Default Encoding: UTF-8
Language: en
Country: US
--></g></svg>