<?xml version="1.0" encoding="UTF-8" standalone="no"?><svg xmlns="http://www.w3.org/2000/svg" xmlns:xlink="http://www.w3.org/1999/xlink" contentScriptType="application/ecmascript" contentStyleType="text/css" height="382px" preserveAspectRatio="none" style="width:722px;height:382px;" version="1.1" viewBox="0 0 722 382" width="722px" zoomAndPan="magnify"><defs><filter height="300%" id="f1udfuyjukamjm" width="300%" x="-1" y="-1"><feGaussianBlur result="blurOut" stdDeviation="2.0"/><feColorMatrix in="blurOut" result="blurOut2" type="matrix" values="0 0 0 0 0 0 0 0 0 0 0 0 0 0 0 0 0 0 .4 0"/><feOffset dx="4.0" dy="4.0" in="blurOut2" result="blurOut3"/><feBlend in="SourceGraphic" in2="blurOut3" mode="normal"/></filter></defs><g><rect fill="#FFFFFF" filter="url(#f1udfuyjukamjm)" height="181.9297" style="stroke:#A80036;stroke-width:1.0;" width="10" x="27" y="98.2969"/><rect fill="#FFFFFF" filter="url(#f1udfuyjukamjm)" height="44.2656" style="stroke:#A80036;stroke-width:1.0;" width="10" x="668" y="119.4297"/><rect fill="#FFFFFF" filter="url(#f1udfuyjukamjm)" height="29.1328" style="stroke:#A80036;stroke-width:1.0;" width="10" x="668" y="192.8281"/><rect fill="#FFFFFF" filter="url(#f1udfuyjukamjm)" height="29.1328" style="stroke:#A80036;stroke-width:1.0;" width="10" x="668" y="251.0938"/><line style="stroke:#A80036;stroke-width:1.0;stroke-dasharray:5.0,5.0;" x1="32" x2="32" y1="88.2969" y2="298.2266"/><line style="stroke:#A80036;stroke-width:1.0;stroke-dasharray:5.0,5.0;" x1="673" x2="673" y1="88.2969" y2="298.2266"/><text fill="#000000" font-family="sans-serif" font-size="14" lengthAdjust="spacingAndGlyphs" textLength="48" x="5" y="84.9951">Cliente</text><ellipse cx="32" cy="15" fill="#FEFECE" filter="url(#f1udfuyjukamjm)" rx="8" ry="8" style="stroke:#A80036;stroke-width:2.0;"/><path d="M32,23 L32,50 M19,31 L45,31 M32,50 L19,65 M32,50 L45,65 " fill="none" filter="url(#f1udfuyjukamjm)" style="stroke:#A80036;stroke-width:2.0;"/><text fill="#000000" font-family="sans-serif" font-size="14" lengthAdjust="spacingAndGlyphs" textLength="48" x="5" y="310.2217">Cliente</text><ellipse cx="32" cy="323.5234" fill="#FEFECE" filter="url(#f1udfuyjukamjm)" rx="8" ry="8" style="stroke:#A80036;stroke-width:2.0;"/><path d="M32,331.5234 L32,358.5234 M19,339.5234 L45,339.5234 M32,358.5234 L19,373.5234 M32,358.5234 L45,373.5234 " fill="none" filter="url(#f1udfuyjukamjm)" style="stroke:#A80036;stroke-width:2.0;"/><rect fill="#FEFECE" filter="url(#f1udfuyjukamjm)" height="30.2969" style="stroke:#A80036;stroke-width:1.5;" width="74" x="634" y="53"/><text fill="#000000" font-family="sans-serif" font-size="14" lengthAdjust="spacingAndGlyphs" textLength="60" x="641" y="72.9951">:Sistema</text><rect fill="#FEFECE" filter="url(#f1udfuyjukamjm)" height="30.2969" style="stroke:#A80036;stroke-width:1.5;" width="74" x="634" y="297.2266"/><text fill="#000000" font-family="sans-serif" font-size="14" lengthAdjust="spacingAndGlyphs" textLength="60" x="641" y="317.2217">:Sistema</text><rect fill="#FFFFFF" filter="url(#f1udfuyjukamjm)" height="181.9297" style="stroke:#A80036;stroke-width:1.0;" width="10" x="27" y="98.2969"/><rect fill="#FFFFFF" filter="url(#f1udfuyjukamjm)" height="44.2656" style="stroke:#A80036;stroke-width:1.0;" width="10" x="668" y="119.4297"/><rect fill="#FFFFFF" filter="url(#f1udfuyjukamjm)" height="29.1328" style="stroke:#A80036;stroke-width:1.0;" width="10" x="668" y="192.8281"/><rect fill="#FFFFFF" filter="url(#f1udfuyjukamjm)" height="29.1328" style="stroke:#A80036;stroke-width:1.0;" width="10" x="668" y="251.0938"/><polygon fill="#A80036" points="656,115.4297,666,119.4297,656,123.4297,660,119.4297" style="stroke:#A80036;stroke-width:1.0;"/><line style="stroke:#A80036;stroke-width:1.0;" x1="37" x2="662" y1="119.4297" y2="119.4297"/><text fill="#000000" font-family="sans-serif" font-size="13" font-weight="bold" lengthAdjust="spacingAndGlyphs" textLength="9" x="44" y="114.3638">1</text><text fill="#000000" font-family="sans-serif" font-size="13" lengthAdjust="spacingAndGlyphs" textLength="131" x="57" y="114.3638">Pretende registar-se</text><polygon fill="#A80036" points="48,159.6953,38,163.6953,48,167.6953,44,163.6953" style="stroke:#A80036;stroke-width:1.0;"/><line style="stroke:#A80036;stroke-width:1.0;stroke-dasharray:2.0,2.0;" x1="42" x2="672" y1="163.6953" y2="163.6953"/><text fill="#000000" font-family="sans-serif" font-size="13" font-weight="bold" lengthAdjust="spacingAndGlyphs" textLength="9" x="54" y="151.063">2</text><text fill="#000000" font-family="sans-serif" font-size="13" lengthAdjust="spacingAndGlyphs" textLength="461" x="67" y="143.4966">solicita dados do cliente (NIF, nome, email, morada (latitude, longitude),</text><text fill="#000000" font-family="sans-serif" font-size="13" lengthAdjust="spacingAndGlyphs" textLength="594" x="67" y="158.6294">número de segurança social, password, número de cartão de crédito, data de validade, CCV)</text><polygon fill="#A80036" points="656,188.8281,666,192.8281,656,196.8281,660,192.8281" style="stroke:#A80036;stroke-width:1.0;"/><line style="stroke:#A80036;stroke-width:1.0;" x1="37" x2="662" y1="192.8281" y2="192.8281"/><text fill="#000000" font-family="sans-serif" font-size="13" font-weight="bold" lengthAdjust="spacingAndGlyphs" textLength="9" x="44" y="187.7622">3</text><text fill="#000000" font-family="sans-serif" font-size="13" lengthAdjust="spacingAndGlyphs" textLength="185" x="57" y="187.7622">introduz os dados solicitados</text><polygon fill="#A80036" points="48,217.9609,38,221.9609,48,225.9609,44,221.9609" style="stroke:#A80036;stroke-width:1.0;"/><line style="stroke:#A80036;stroke-width:1.0;stroke-dasharray:2.0,2.0;" x1="42" x2="672" y1="221.9609" y2="221.9609"/><text fill="#000000" font-family="sans-serif" font-size="13" font-weight="bold" lengthAdjust="spacingAndGlyphs" textLength="9" x="54" y="216.895">4</text><text fill="#000000" font-family="sans-serif" font-size="13" lengthAdjust="spacingAndGlyphs" textLength="251" x="67" y="216.895">apresenta dados e solicita confirmação</text><polygon fill="#A80036" points="656,247.0938,666,251.0938,656,255.0938,660,251.0938" style="stroke:#A80036;stroke-width:1.0;"/><line style="stroke:#A80036;stroke-width:1.0;" x1="37" x2="662" y1="251.0938" y2="251.0938"/><text fill="#000000" font-family="sans-serif" font-size="13" font-weight="bold" lengthAdjust="spacingAndGlyphs" textLength="9" x="44" y="246.0278">5</text><text fill="#000000" font-family="sans-serif" font-size="13" lengthAdjust="spacingAndGlyphs" textLength="56" x="57" y="246.0278">confirma</text><polygon fill="#A80036" points="43,276.2266,33,280.2266,43,284.2266,39,280.2266" style="stroke:#A80036;stroke-width:1.0;"/><line style="stroke:#A80036;stroke-width:1.0;stroke-dasharray:2.0,2.0;" x1="37" x2="672" y1="280.2266" y2="280.2266"/><text fill="#000000" font-family="sans-serif" font-size="13" font-weight="bold" lengthAdjust="spacingAndGlyphs" textLength="9" x="49" y="275.1606">6</text><text fill="#000000" font-family="sans-serif" font-size="13" lengthAdjust="spacingAndGlyphs" textLength="154" x="62" y="275.1606">operação bem sucedida</text><!--MD5=[048b488152c3a71ddc79e3e870a408c8]
@startuml
autonumber
actor "Cliente" as CL

activate CL
CL -> ":Sistema" : Pretende registar-se
activate ":Sistema"
":Sistema" - -> CL : solicita dados do cliente (NIF, nome, email, morada (latitude, longitude), \nnúmero de segurança social, password, número de cartão de crédito, data de validade, CCV)
deactivate ":Sistema"

CL -> ":Sistema" : introduz os dados solicitados
activate ":Sistema"
":Sistema" - -> CL : apresenta dados e solicita confirmação
deactivate ":Sistema"

CL -> ":Sistema" : confirma
activate ":Sistema"
":Sistema" - -> CL : operação bem sucedida
deactivate ":Sistema"

deactivate CL
@enduml

PlantUML version 1.2020.22(Sun Dec 06 09:36:27 UTC 2020)
(GPL source distribution)
Java Runtime: OpenJDK Runtime Environment
JVM: OpenJDK 64-Bit Server VM
Default Encoding: UTF-8
Language: en
Country: US
--></g></svg>