<?xml version="1.0" encoding="UTF-8" standalone="no"?><svg xmlns="http://www.w3.org/2000/svg" xmlns:xlink="http://www.w3.org/1999/xlink" contentScriptType="application/ecmascript" contentStyleType="text/css" height="310px" preserveAspectRatio="none" style="width:341px;height:310px;" version="1.1" viewBox="0 0 341 310" width="341px" zoomAndPan="magnify"><defs><filter height="300%" id="f50kqoy6eek9" width="300%" x="-1" y="-1"><feGaussianBlur result="blurOut" stdDeviation="2.0"/><feColorMatrix in="blurOut" result="blurOut2" type="matrix" values="0 0 0 0 0 0 0 0 0 0 0 0 0 0 0 0 0 0 .4 0"/><feOffset dx="4.0" dy="4.0" in="blurOut2" result="blurOut3"/><feBlend in="SourceGraphic" in2="blurOut3" mode="normal"/></filter></defs><g><!--MD5=[6702278d4dc2e5fb5cb52bce102fc058]
class EmailDB--><rect codeLine="3" fill="#FEFECE" filter="url(#f50kqoy6eek9)" height="60.8047" id="EmailDB" style="stroke:#A80036;stroke-width:1.5;" width="320" x="7" y="236"/><ellipse cx="138.75" cy="252" fill="#ADD1B2" rx="11" ry="11" style="stroke:#A80036;stroke-width:1.0;"/><path d="M141.0938,247.6719 C140.1563,247.2344 139.5625,247.0938 138.6875,247.0938 C136.0625,247.0938 134.0625,249.1719 134.0625,251.8906 L134.0625,253.0156 C134.0625,255.5938 136.1719,257.4844 139.0625,257.4844 C140.2813,257.4844 141.4375,257.1875 142.1875,256.6406 C142.7656,256.2344 143.0938,255.7813 143.0938,255.3906 C143.0938,254.9375 142.7031,254.5469 142.2344,254.5469 C142.0156,254.5469 141.8125,254.625 141.625,254.8125 C141.1719,255.2969 141.1719,255.2969 140.9844,255.3906 C140.5625,255.6563 139.875,255.7813 139.1094,255.7813 C137.0625,255.7813 135.7656,254.6875 135.7656,252.9844 L135.7656,251.8906 C135.7656,250.1094 137.0156,248.7969 138.75,248.7969 C139.3281,248.7969 139.9375,248.9531 140.4063,249.2031 C140.8906,249.4844 141.0625,249.7031 141.1563,250.1094 C141.2188,250.5156 141.25,250.6406 141.3906,250.7656 C141.5313,250.9063 141.7656,251.0156 141.9844,251.0156 C142.25,251.0156 142.5156,250.875 142.6875,250.6563 C142.7969,250.5 142.8281,250.3125 142.8281,249.8906 L142.8281,248.4688 C142.8281,248.0313 142.8125,247.9063 142.7188,247.75 C142.5625,247.4844 142.2813,247.3438 141.9844,247.3438 C141.6875,247.3438 141.4844,247.4375 141.2656,247.75 L141.0938,247.6719 Z " fill="#000000"/><text fill="#000000" font-family="sans-serif" font-size="12" lengthAdjust="spacing" textLength="48" x="159.25" y="256.1543">EmailDB</text><line style="stroke:#A80036;stroke-width:1.5;" x1="8" x2="326" y1="268" y2="268"/><line style="stroke:#A80036;stroke-width:1.5;" x1="8" x2="326" y1="276" y2="276"/><text fill="#000000" font-family="sans-serif" font-size="11" lengthAdjust="spacing" textLength="308" x="13" y="290.2104">+sendEmali(emailOrig,emailDest,assunto,mensagem)</text><!--MD5=[be8d1f6688924a18459276293f425e0d]
class EnviarNotaTransferenciaController--><rect codeLine="7" fill="#FEFECE" filter="url(#f50kqoy6eek9)" height="60.8047" id="EnviarNotaTransferenciaController" style="stroke:#A80036;stroke-width:1.5;" width="286" x="24" y="115"/><ellipse cx="61.5" cy="131" fill="#ADD1B2" rx="11" ry="11" style="stroke:#A80036;stroke-width:1.0;"/><path d="M63.8438,126.6719 C62.9063,126.2344 62.3125,126.0938 61.4375,126.0938 C58.8125,126.0938 56.8125,128.1719 56.8125,130.8906 L56.8125,132.0156 C56.8125,134.5938 58.9219,136.4844 61.8125,136.4844 C63.0313,136.4844 64.1875,136.1875 64.9375,135.6406 C65.5156,135.2344 65.8438,134.7813 65.8438,134.3906 C65.8438,133.9375 65.4531,133.5469 64.9844,133.5469 C64.7656,133.5469 64.5625,133.625 64.375,133.8125 C63.9219,134.2969 63.9219,134.2969 63.7344,134.3906 C63.3125,134.6563 62.625,134.7813 61.8594,134.7813 C59.8125,134.7813 58.5156,133.6875 58.5156,131.9844 L58.5156,130.8906 C58.5156,129.1094 59.7656,127.7969 61.5,127.7969 C62.0781,127.7969 62.6875,127.9531 63.1563,128.2031 C63.6406,128.4844 63.8125,128.7031 63.9063,129.1094 C63.9688,129.5156 64,129.6406 64.1406,129.7656 C64.2813,129.9063 64.5156,130.0156 64.7344,130.0156 C65,130.0156 65.2656,129.875 65.4375,129.6563 C65.5469,129.5 65.5781,129.3125 65.5781,128.8906 L65.5781,127.4688 C65.5781,127.0313 65.5625,126.9063 65.4688,126.75 C65.3125,126.4844 65.0313,126.3438 64.7344,126.3438 C64.4375,126.3438 64.2344,126.4375 64.0156,126.75 L63.8438,126.6719 Z " fill="#000000"/><text fill="#000000" font-family="sans-serif" font-size="12" lengthAdjust="spacing" textLength="204" x="80.5" y="135.1543">EnviarNotaTransferenciaController</text><line style="stroke:#A80036;stroke-width:1.5;" x1="25" x2="309" y1="147" y2="147"/><line style="stroke:#A80036;stroke-width:1.5;" x1="25" x2="309" y1="155" y2="155"/><text fill="#000000" font-family="sans-serif" font-size="11" lengthAdjust="spacing" textLength="274" x="30" y="169.2104">+enviarNotaTransferencia(fOrig,fDest,prod,qntd)</text><!--MD5=[787124873128bbb853e74a8c3260d642]
class EnviarNotaTransferenciaUI--><rect codeLine="11" fill="#FEFECE" filter="url(#f50kqoy6eek9)" height="48" id="EnviarNotaTransferenciaUI" style="stroke:#A80036;stroke-width:1.5;" width="189" x="72.5" y="7"/><ellipse cx="87.5" cy="23" fill="#ADD1B2" rx="11" ry="11" style="stroke:#A80036;stroke-width:1.0;"/><path d="M89.8438,18.6719 C88.9063,18.2344 88.3125,18.0938 87.4375,18.0938 C84.8125,18.0938 82.8125,20.1719 82.8125,22.8906 L82.8125,24.0156 C82.8125,26.5938 84.9219,28.4844 87.8125,28.4844 C89.0313,28.4844 90.1875,28.1875 90.9375,27.6406 C91.5156,27.2344 91.8438,26.7813 91.8438,26.3906 C91.8438,25.9375 91.4531,25.5469 90.9844,25.5469 C90.7656,25.5469 90.5625,25.625 90.375,25.8125 C89.9219,26.2969 89.9219,26.2969 89.7344,26.3906 C89.3125,26.6563 88.625,26.7813 87.8594,26.7813 C85.8125,26.7813 84.5156,25.6875 84.5156,23.9844 L84.5156,22.8906 C84.5156,21.1094 85.7656,19.7969 87.5,19.7969 C88.0781,19.7969 88.6875,19.9531 89.1563,20.2031 C89.6406,20.4844 89.8125,20.7031 89.9063,21.1094 C89.9688,21.5156 90,21.6406 90.1406,21.7656 C90.2813,21.9063 90.5156,22.0156 90.7344,22.0156 C91,22.0156 91.2656,21.875 91.4375,21.6563 C91.5469,21.5 91.5781,21.3125 91.5781,20.8906 L91.5781,19.4688 C91.5781,19.0313 91.5625,18.9063 91.4688,18.75 C91.3125,18.4844 91.0313,18.3438 90.7344,18.3438 C90.4375,18.3438 90.2344,18.4375 90.0156,18.75 L89.8438,18.6719 Z " fill="#000000"/><text fill="#000000" font-family="sans-serif" font-size="12" lengthAdjust="spacing" textLength="157" x="101.5" y="27.1543">EnviarNotaTransferenciaUI</text><line style="stroke:#A80036;stroke-width:1.5;" x1="73.5" x2="260.5" y1="39" y2="39"/><line style="stroke:#A80036;stroke-width:1.5;" x1="73.5" x2="260.5" y1="47" y2="47"/><!--MD5=[4e15badef73fabba4d1aff2ffdc7c330]
link EnviarNotaTransferenciaUI to EnviarNotaTransferenciaController--><path codeLine="14" d="M167,55.038 C167,70.65 167,91.582 167,109.273 " fill="none" id="EnviarNotaTransferenciaUI-to-EnviarNotaTransferenciaController" style="stroke:#A80036;stroke-width:1.0;stroke-dasharray:7.0,7.0;"/><polygon fill="#A80036" points="167,114.65,171,105.65,167,109.65,163,105.65,167,114.65" style="stroke:#A80036;stroke-width:1.0;"/><!--MD5=[1360275f7518e7d14e1744e1fa947899]
link EnviarNotaTransferenciaController to EmailDB--><path codeLine="15" d="M167,176.222 C167,192.692 167,213.2642 167,230.5082 " fill="none" id="EnviarNotaTransferenciaController-to-EmailDB" style="stroke:#A80036;stroke-width:1.0;stroke-dasharray:7.0,7.0;"/><polygon fill="#A80036" points="167,235.7447,171,226.7447,167,230.7447,163,226.7447,167,235.7447" style="stroke:#A80036;stroke-width:1.0;"/><!--MD5=[52dc18eea440fb8bfa7483b10eab4cc9]
@startuml
skinparam classAttributeIconSize 0

class EmailDB {
  +sendEmali(emailOrig,emailDest,assunto,mensagem)
}

class EnviarNotaTransferenciaController {
    +enviarNotaTransferencia(fOrig,fDest,prod,qntd)
}

class EnviarNotaTransferenciaUI {
}

EnviarNotaTransferenciaUI ..> EnviarNotaTransferenciaController
EnviarNotaTransferenciaController ..> EmailDB
@enduml

PlantUML version 1.2021.01beta3(Unknown compile time)
(GPL source distribution)
Java Runtime: Java(TM) SE Runtime Environment
JVM: Java HotSpot(TM) 64-Bit Server VM
Default Encoding: UTF-8
Language: en
Country: US
--></g></svg>