<?xml version="1.0" encoding="UTF-8" standalone="no"?><svg xmlns="http://www.w3.org/2000/svg" xmlns:xlink="http://www.w3.org/1999/xlink" contentScriptType="application/ecmascript" contentStyleType="text/css" height="526px" preserveAspectRatio="none" style="width:1066px;height:526px;" version="1.1" viewBox="0 0 1066 526" width="1066px" zoomAndPan="magnify"><defs><filter height="300%" id="fb5lndvvty8o1" width="300%" x="-1" y="-1"><feGaussianBlur result="blurOut" stdDeviation="2.0"/><feColorMatrix in="blurOut" result="blurOut2" type="matrix" values="0 0 0 0 0 0 0 0 0 0 0 0 0 0 0 0 0 0 .4 0"/><feOffset dx="4.0" dy="4.0" in="blurOut2" result="blurOut3"/><feBlend in="SourceGraphic" in2="blurOut3" mode="normal"/></filter></defs><g><rect fill="#FFFFFF" filter="url(#fb5lndvvty8o1)" height="326.1953" style="stroke:#A80036;stroke-width:1.0;" width="10" x="35" y="98.2969"/><rect fill="#FFFFFF" filter="url(#fb5lndvvty8o1)" height="289.9297" style="stroke:#A80036;stroke-width:1.0;" width="10" x="287" y="134.5625"/><rect fill="#FFFFFF" filter="url(#fb5lndvvty8o1)" height="224.6641" style="stroke:#A80036;stroke-width:1.0;" width="10" x="539" y="163.6953"/><rect fill="#FFFFFF" filter="url(#fb5lndvvty8o1)" height="30" style="stroke:#A80036;stroke-width:1.0;" width="10" x="739" y="192.8281"/><rect fill="#FFFFFF" filter="url(#fb5lndvvty8o1)" height="30" style="stroke:#A80036;stroke-width:1.0;" width="10" x="857" y="251.9609"/><rect fill="#FFFFFF" filter="url(#fb5lndvvty8o1)" height="77.2656" style="stroke:#A80036;stroke-width:1.0;" width="10" x="857" y="311.0938"/><line style="stroke:#A80036;stroke-width:1.0;stroke-dasharray:5.0,5.0;" x1="40" x2="40" y1="88.2969" y2="442.4922"/><line style="stroke:#A80036;stroke-width:1.0;stroke-dasharray:5.0,5.0;" x1="292" x2="292" y1="88.2969" y2="442.4922"/><line style="stroke:#A80036;stroke-width:1.0;stroke-dasharray:5.0,5.0;" x1="544" x2="544" y1="88.2969" y2="442.4922"/><line style="stroke:#A80036;stroke-width:1.0;stroke-dasharray:5.0,5.0;" x1="744" x2="744" y1="88.2969" y2="442.4922"/><line style="stroke:#A80036;stroke-width:1.0;stroke-dasharray:5.0,5.0;" x1="862" x2="862" y1="88.2969" y2="442.4922"/><text fill="#000000" font-family="sans-serif" font-size="14" lengthAdjust="spacing" textLength="64" x="5" y="84.9951">Farmácia</text><ellipse cx="40" cy="15" fill="#FEFECE" filter="url(#fb5lndvvty8o1)" rx="8" ry="8" style="stroke:#A80036;stroke-width:2.0;"/><path d="M40,23 L40,50 M27,31 L53,31 M40,50 L27,65 M40,50 L53,65 " fill="none" filter="url(#fb5lndvvty8o1)" style="stroke:#A80036;stroke-width:2.0;"/><text fill="#000000" font-family="sans-serif" font-size="14" lengthAdjust="spacing" textLength="64" x="5" y="454.4873">Farmácia</text><ellipse cx="40" cy="467.7891" fill="#FEFECE" filter="url(#fb5lndvvty8o1)" rx="8" ry="8" style="stroke:#A80036;stroke-width:2.0;"/><path d="M40,475.7891 L40,502.7891 M27,483.7891 L53,483.7891 M40,502.7891 L27,517.7891 M40,502.7891 L53,517.7891 " fill="none" filter="url(#fb5lndvvty8o1)" style="stroke:#A80036;stroke-width:2.0;"/><rect fill="#FEFECE" filter="url(#fb5lndvvty8o1)" height="30.2969" style="stroke:#A80036;stroke-width:1.5;" width="208" x="186" y="53"/><text fill="#000000" font-family="sans-serif" font-size="14" lengthAdjust="spacing" textLength="194" x="193" y="72.9951">:EnviarNotaTransferenciaUI</text><rect fill="#FEFECE" filter="url(#fb5lndvvty8o1)" height="30.2969" style="stroke:#A80036;stroke-width:1.5;" width="208" x="186" y="441.4922"/><text fill="#000000" font-family="sans-serif" font-size="14" lengthAdjust="spacing" textLength="194" x="193" y="461.4873">:EnviarNotaTransferenciaUI</text><rect fill="#FEFECE" filter="url(#fb5lndvvty8o1)" height="30.2969" style="stroke:#A80036;stroke-width:1.5;" width="268" x="408" y="53"/><text fill="#000000" font-family="sans-serif" font-size="14" lengthAdjust="spacing" textLength="254" x="415" y="72.9951">:EnviarNotaTransferenciaController</text><rect fill="#FEFECE" filter="url(#fb5lndvvty8o1)" height="30.2969" style="stroke:#A80036;stroke-width:1.5;" width="268" x="408" y="441.4922"/><text fill="#000000" font-family="sans-serif" font-size="14" lengthAdjust="spacing" textLength="254" x="415" y="461.4873">:EnviarNotaTransferenciaController</text><rect fill="#FEFECE" filter="url(#fb5lndvvty8o1)" height="30.2969" style="stroke:#A80036;stroke-width:1.5;" width="104" x="690" y="53"/><text fill="#000000" font-family="sans-serif" font-size="14" lengthAdjust="spacing" textLength="90" x="697" y="72.9951">:ProdutosDB</text><rect fill="#FEFECE" filter="url(#fb5lndvvty8o1)" height="30.2969" style="stroke:#A80036;stroke-width:1.5;" width="104" x="690" y="441.4922"/><text fill="#000000" font-family="sans-serif" font-size="14" lengthAdjust="spacing" textLength="90" x="697" y="461.4873">:ProdutosDB</text><rect fill="#FEFECE" filter="url(#fb5lndvvty8o1)" height="30.2969" style="stroke:#A80036;stroke-width:1.5;" width="104" x="808" y="53"/><text fill="#000000" font-family="sans-serif" font-size="14" lengthAdjust="spacing" textLength="90" x="815" y="72.9951">:FarmaciaDB</text><rect fill="#FEFECE" filter="url(#fb5lndvvty8o1)" height="30.2969" style="stroke:#A80036;stroke-width:1.5;" width="104" x="808" y="441.4922"/><text fill="#000000" font-family="sans-serif" font-size="14" lengthAdjust="spacing" textLength="90" x="815" y="461.4873">:FarmaciaDB</text><rect fill="#FFFFFF" filter="url(#fb5lndvvty8o1)" height="326.1953" style="stroke:#A80036;stroke-width:1.0;" width="10" x="35" y="98.2969"/><rect fill="#FFFFFF" filter="url(#fb5lndvvty8o1)" height="289.9297" style="stroke:#A80036;stroke-width:1.0;" width="10" x="287" y="134.5625"/><rect fill="#FFFFFF" filter="url(#fb5lndvvty8o1)" height="224.6641" style="stroke:#A80036;stroke-width:1.0;" width="10" x="539" y="163.6953"/><rect fill="#FFFFFF" filter="url(#fb5lndvvty8o1)" height="30" style="stroke:#A80036;stroke-width:1.0;" width="10" x="739" y="192.8281"/><rect fill="#FFFFFF" filter="url(#fb5lndvvty8o1)" height="30" style="stroke:#A80036;stroke-width:1.0;" width="10" x="857" y="251.9609"/><rect fill="#FFFFFF" filter="url(#fb5lndvvty8o1)" height="77.2656" style="stroke:#A80036;stroke-width:1.0;" width="10" x="857" y="311.0938"/><polygon fill="#A80036" points="275,130.5625,285,134.5625,275,138.5625,279,134.5625" style="stroke:#A80036;stroke-width:1.0;"/><line style="stroke:#A80036;stroke-width:1.0;" x1="45" x2="281" y1="134.5625" y2="134.5625"/><text fill="#000000" font-family="sans-serif" font-size="13" font-weight="bold" lengthAdjust="spacing" textLength="9" x="52" y="121.9302">1</text><text fill="#000000" font-family="sans-serif" font-size="13" lengthAdjust="spacing" textLength="210" x="65" y="114.3638">envia uma nota de transferência</text><text fill="#000000" font-family="sans-serif" font-size="13" lengthAdjust="spacing" textLength="170" x="69" y="129.4966">com os produtos enviados</text><polygon fill="#A80036" points="527,159.6953,537,163.6953,527,167.6953,531,163.6953" style="stroke:#A80036;stroke-width:1.0;"/><line style="stroke:#A80036;stroke-width:1.0;" x1="297" x2="533" y1="163.6953" y2="163.6953"/><text fill="#000000" font-family="sans-serif" font-size="13" font-weight="bold" lengthAdjust="spacing" textLength="9" x="304" y="158.6294">2</text><text fill="#000000" font-family="sans-serif" font-size="13" lengthAdjust="spacing" textLength="172" x="317" y="158.6294">enviarNotaTrans(prods,nif)</text><polygon fill="#A80036" points="727,188.8281,737,192.8281,727,196.8281,731,192.8281" style="stroke:#A80036;stroke-width:1.0;"/><line style="stroke:#A80036;stroke-width:1.0;" x1="549" x2="733" y1="192.8281" y2="192.8281"/><text fill="#000000" font-family="sans-serif" font-size="13" font-weight="bold" lengthAdjust="spacing" textLength="8" x="556" y="187.7622">3</text><text fill="#000000" font-family="sans-serif" font-size="13" lengthAdjust="spacing" textLength="147" x="568" y="187.7622">lp = getListaProdutos()</text><polygon fill="#A80036" points="845,247.9609,855,251.9609,845,255.9609,849,251.9609" style="stroke:#A80036;stroke-width:1.0;"/><line style="stroke:#A80036;stroke-width:1.0;" x1="549" x2="851" y1="251.9609" y2="251.9609"/><text fill="#000000" font-family="sans-serif" font-size="13" font-weight="bold" lengthAdjust="spacing" textLength="9" x="556" y="246.895">4</text><text fill="#000000" font-family="sans-serif" font-size="13" lengthAdjust="spacing" textLength="155" x="569" y="246.895">farm = getFarmacia(nif)</text><polygon fill="#A80036" points="845,307.0938,855,311.0938,845,315.0938,849,311.0938" style="stroke:#A80036;stroke-width:1.0;"/><line style="stroke:#A80036;stroke-width:1.0;" x1="549" x2="851" y1="311.0938" y2="311.0938"/><text fill="#000000" font-family="sans-serif" font-size="13" font-weight="bold" lengthAdjust="spacing" textLength="9" x="556" y="306.0278">5</text><text fill="#000000" font-family="sans-serif" font-size="13" lengthAdjust="spacing" textLength="172" x="569" y="306.0278">enviarNotaTrans(prods,nif)</text><line style="stroke:#A80036;stroke-width:1.0;" x1="867" x2="909" y1="340.2266" y2="340.2266"/><line style="stroke:#A80036;stroke-width:1.0;" x1="909" x2="909" y1="340.2266" y2="353.2266"/><line style="stroke:#A80036;stroke-width:1.0;" x1="868" x2="909" y1="353.2266" y2="353.2266"/><polygon fill="#A80036" points="878,349.2266,868,353.2266,878,357.2266,874,353.2266" style="stroke:#A80036;stroke-width:1.0;"/><text fill="#000000" font-family="sans-serif" font-size="13" font-weight="bold" lengthAdjust="spacing" textLength="9" x="874" y="335.1606">6</text><text fill="#000000" font-family="sans-serif" font-size="13" lengthAdjust="spacing" textLength="128" x="887" y="335.1606">validaInfo(prods,nif)</text><line style="stroke:#A80036;stroke-width:1.0;" x1="867" x2="909" y1="387.3594" y2="387.3594"/><line style="stroke:#A80036;stroke-width:1.0;" x1="909" x2="909" y1="387.3594" y2="400.3594"/><line style="stroke:#A80036;stroke-width:1.0;" x1="862" x2="909" y1="400.3594" y2="400.3594"/><polygon fill="#A80036" points="872,396.3594,862,400.3594,872,404.3594,868,400.3594" style="stroke:#A80036;stroke-width:1.0;"/><text fill="#000000" font-family="sans-serif" font-size="13" font-weight="bold" lengthAdjust="spacing" textLength="9" x="874" y="382.2935">7</text><text fill="#000000" font-family="sans-serif" font-size="13" lengthAdjust="spacing" textLength="172" x="887" y="382.2935">enviarNotaTrans(prods,nif)</text><polygon fill="#A80036" points="51,420.4922,41,424.4922,51,428.4922,47,424.4922" style="stroke:#A80036;stroke-width:1.0;"/><line style="stroke:#A80036;stroke-width:1.0;stroke-dasharray:2.0,2.0;" x1="45" x2="291" y1="424.4922" y2="424.4922"/><text fill="#000000" font-family="sans-serif" font-size="13" font-weight="bold" lengthAdjust="spacing" textLength="9" x="57" y="419.4263">8</text><text fill="#000000" font-family="sans-serif" font-size="13" lengthAdjust="spacing" textLength="154" x="70" y="419.4263">operação bem sucedida</text><!--MD5=[5633f7864cfc6543ab48fd943ef4cade]
@startuml
autonumber

actor "Farmácia" as FARM
participant ":EnviarNotaTransferenciaUI" as UI
participant ":EnviarNotaTransferenciaController" as CTL
participant ":ProdutosDB" as PDB
participant ":FarmaciaDB" as FDB

activate FARM
FARM -> UI : envia uma nota de transferência\n com os produtos enviados
activate UI
UI -> CTL : enviarNotaTrans(prods,nif)
activate CTL

CTL -> PDB : lp = getListaProdutos()
activate PDB
deactivate PDB

CTL -> FDB : farm = getFarmacia(nif)
activate FDB
deactivate FDB

CTL -> FDB : enviarNotaTrans(prods,nif)
activate FDB

FDB -> FDB : validaInfo(prods,nif)

FDB -> FDB : enviarNotaTrans(prods,nif)

deactivate FDB

deactivate CTL

UI - -> FARM : operação bem sucedida
deactivate UI

deactivate FARM
@enduml

PlantUML version 1.2020.27beta8(Unknown compile time)
(GPL source distribution)
Java Runtime: Java(TM) SE Runtime Environment
JVM: Java HotSpot(TM) 64-Bit Server VM
Default Encoding: UTF-8
Language: en
Country: US
--></g></svg>