<?xml version="1.0" encoding="UTF-8" standalone="no"?><svg xmlns="http://www.w3.org/2000/svg" xmlns:xlink="http://www.w3.org/1999/xlink" contentScriptType="application/ecmascript" contentStyleType="text/css" height="527px" preserveAspectRatio="none" style="width:536px;height:527px;" version="1.1" viewBox="0 0 536 527" width="536px" zoomAndPan="magnify"><defs><filter height="300%" id="fyjxevarye9qj" width="300%" x="-1" y="-1"><feGaussianBlur result="blurOut" stdDeviation="2.0"/><feColorMatrix in="blurOut" result="blurOut2" type="matrix" values="0 0 0 0 0 0 0 0 0 0 0 0 0 0 0 0 0 0 .4 0"/><feOffset dx="4.0" dy="4.0" in="blurOut2" result="blurOut3"/><feBlend in="SourceGraphic" in2="blurOut3" mode="normal"/></filter></defs><g><!--MD5=[d4dacc50d49878ba7c621dfc80a2e1ce]
class Produto--><rect codeLine="3" fill="#FEFECE" filter="url(#fyjxevarye9qj)" height="112.0234" id="Produto" style="stroke:#A80036;stroke-width:1.5;" width="202" x="7" y="401"/><ellipse cx="80.75" cy="417" fill="#ADD1B2" rx="11" ry="11" style="stroke:#A80036;stroke-width:1.0;"/><path d="M83.0938,412.6719 C82.1563,412.2344 81.5625,412.0938 80.6875,412.0938 C78.0625,412.0938 76.0625,414.1719 76.0625,416.8906 L76.0625,418.0156 C76.0625,420.5938 78.1719,422.4844 81.0625,422.4844 C82.2813,422.4844 83.4375,422.1875 84.1875,421.6406 C84.7656,421.2344 85.0938,420.7813 85.0938,420.3906 C85.0938,419.9375 84.7031,419.5469 84.2344,419.5469 C84.0156,419.5469 83.8125,419.625 83.625,419.8125 C83.1719,420.2969 83.1719,420.2969 82.9844,420.3906 C82.5625,420.6563 81.875,420.7813 81.1094,420.7813 C79.0625,420.7813 77.7656,419.6875 77.7656,417.9844 L77.7656,416.8906 C77.7656,415.1094 79.0156,413.7969 80.75,413.7969 C81.3281,413.7969 81.9375,413.9531 82.4063,414.2031 C82.8906,414.4844 83.0625,414.7031 83.1563,415.1094 C83.2188,415.5156 83.25,415.6406 83.3906,415.7656 C83.5313,415.9063 83.7656,416.0156 83.9844,416.0156 C84.25,416.0156 84.5156,415.875 84.6875,415.6563 C84.7969,415.5 84.8281,415.3125 84.8281,414.8906 L84.8281,413.4688 C84.8281,413.0313 84.8125,412.9063 84.7188,412.75 C84.5625,412.4844 84.2813,412.3438 83.9844,412.3438 C83.6875,412.3438 83.4844,412.4375 83.2656,412.75 L83.0938,412.6719 Z " fill="#000000"/><text fill="#000000" font-family="sans-serif" font-size="12" lengthAdjust="spacing" textLength="46" x="101.25" y="421.1543">Produto</text><line style="stroke:#A80036;stroke-width:1.5;" x1="8" x2="208" y1="433" y2="433"/><text fill="#000000" font-family="sans-serif" font-size="11" lengthAdjust="spacing" textLength="59" x="13" y="447.2104">-Integer id</text><text fill="#000000" font-family="sans-serif" font-size="11" lengthAdjust="spacing" textLength="72" x="13" y="460.0151">-String desig</text><text fill="#000000" font-family="sans-serif" font-size="11" lengthAdjust="spacing" textLength="77" x="13" y="472.8198">-Double peso</text><text fill="#000000" font-family="sans-serif" font-size="11" lengthAdjust="spacing" textLength="115" x="13" y="485.6245">-Double preco_base</text><line style="stroke:#A80036;stroke-width:1.5;" x1="8" x2="208" y1="492.2188" y2="492.2188"/><text fill="#000000" font-family="sans-serif" font-size="11" lengthAdjust="spacing" textLength="190" x="13" y="506.4292">+Produto(desig,peso,preco_base)</text><!--MD5=[c7a66176ac6677a496c6f1e27f3083bc]
class ProdutosDB--><rect codeLine="11" fill="#FEFECE" filter="url(#fyjxevarye9qj)" height="60.8047" id="ProdutosDB" style="stroke:#A80036;stroke-width:1.5;" width="122" x="124" y="250.5"/><ellipse cx="148" cy="266.5" fill="#ADD1B2" rx="11" ry="11" style="stroke:#A80036;stroke-width:1.0;"/><path d="M150.3438,262.1719 C149.4063,261.7344 148.8125,261.5938 147.9375,261.5938 C145.3125,261.5938 143.3125,263.6719 143.3125,266.3906 L143.3125,267.5156 C143.3125,270.0938 145.4219,271.9844 148.3125,271.9844 C149.5313,271.9844 150.6875,271.6875 151.4375,271.1406 C152.0156,270.7344 152.3438,270.2813 152.3438,269.8906 C152.3438,269.4375 151.9531,269.0469 151.4844,269.0469 C151.2656,269.0469 151.0625,269.125 150.875,269.3125 C150.4219,269.7969 150.4219,269.7969 150.2344,269.8906 C149.8125,270.1563 149.125,270.2813 148.3594,270.2813 C146.3125,270.2813 145.0156,269.1875 145.0156,267.4844 L145.0156,266.3906 C145.0156,264.6094 146.2656,263.2969 148,263.2969 C148.5781,263.2969 149.1875,263.4531 149.6563,263.7031 C150.1406,263.9844 150.3125,264.2031 150.4063,264.6094 C150.4688,265.0156 150.5,265.1406 150.6406,265.2656 C150.7813,265.4063 151.0156,265.5156 151.2344,265.5156 C151.5,265.5156 151.7656,265.375 151.9375,265.1563 C152.0469,265 152.0781,264.8125 152.0781,264.3906 L152.0781,262.9688 C152.0781,262.5313 152.0625,262.4063 151.9688,262.25 C151.8125,261.9844 151.5313,261.8438 151.2344,261.8438 C150.9375,261.8438 150.7344,261.9375 150.5156,262.25 L150.3438,262.1719 Z " fill="#000000"/><text fill="#000000" font-family="sans-serif" font-size="12" lengthAdjust="spacing" textLength="70" x="164" y="270.6543">ProdutosDB</text><line style="stroke:#A80036;stroke-width:1.5;" x1="125" x2="245" y1="282.5" y2="282.5"/><line style="stroke:#A80036;stroke-width:1.5;" x1="125" x2="245" y1="290.5" y2="290.5"/><text fill="#000000" font-family="sans-serif" font-size="11" lengthAdjust="spacing" textLength="110" x="130" y="304.7104">+getListaProdutos()</text><!--MD5=[6613c9cd406ef433ff06f5e98b28abd9]
class Farmacia--><rect codeLine="15" fill="#FEFECE" filter="url(#fyjxevarye9qj)" height="73.6094" id="Farmacia" style="stroke:#A80036;stroke-width:1.5;" width="94" x="281" y="420"/><ellipse cx="299.6" cy="436" fill="#ADD1B2" rx="11" ry="11" style="stroke:#A80036;stroke-width:1.0;"/><path d="M301.9438,431.6719 C301.0063,431.2344 300.4125,431.0938 299.5375,431.0938 C296.9125,431.0938 294.9125,433.1719 294.9125,435.8906 L294.9125,437.0156 C294.9125,439.5938 297.0219,441.4844 299.9125,441.4844 C301.1313,441.4844 302.2875,441.1875 303.0375,440.6406 C303.6156,440.2344 303.9438,439.7813 303.9438,439.3906 C303.9438,438.9375 303.5531,438.5469 303.0844,438.5469 C302.8656,438.5469 302.6625,438.625 302.475,438.8125 C302.0219,439.2969 302.0219,439.2969 301.8344,439.3906 C301.4125,439.6563 300.725,439.7813 299.9594,439.7813 C297.9125,439.7813 296.6156,438.6875 296.6156,436.9844 L296.6156,435.8906 C296.6156,434.1094 297.8656,432.7969 299.6,432.7969 C300.1781,432.7969 300.7875,432.9531 301.2563,433.2031 C301.7406,433.4844 301.9125,433.7031 302.0063,434.1094 C302.0688,434.5156 302.1,434.6406 302.2406,434.7656 C302.3813,434.9063 302.6156,435.0156 302.8344,435.0156 C303.1,435.0156 303.3656,434.875 303.5375,434.6563 C303.6469,434.5 303.6781,434.3125 303.6781,433.8906 L303.6781,432.4688 C303.6781,432.0313 303.6625,431.9063 303.5688,431.75 C303.4125,431.4844 303.1313,431.3438 302.8344,431.3438 C302.5375,431.3438 302.3344,431.4375 302.1156,431.75 L301.9438,431.6719 Z " fill="#000000"/><text fill="#000000" font-family="sans-serif" font-size="12" lengthAdjust="spacing" textLength="54" x="314.4" y="440.1543">Farmacia</text><line style="stroke:#A80036;stroke-width:1.5;" x1="282" x2="374" y1="452" y2="452"/><text fill="#000000" font-family="sans-serif" font-size="11" lengthAdjust="spacing" textLength="63" x="287" y="466.2104">-Integer nif</text><line style="stroke:#A80036;stroke-width:1.5;" x1="282" x2="374" y1="472.8047" y2="472.8047"/><text fill="#000000" font-family="sans-serif" font-size="11" lengthAdjust="spacing" textLength="82" x="287" y="487.0151">+Farmacia(nif)</text><!--MD5=[364aec0fc02518cb9ab31cd04b585b1a]
class FarmaciaDB--><rect codeLine="20" fill="#FEFECE" filter="url(#fyjxevarye9qj)" height="86.4141" id="FarmaciaDB" style="stroke:#A80036;stroke-width:1.5;" width="170" x="352" y="238"/><ellipse cx="397.25" cy="254" fill="#ADD1B2" rx="11" ry="11" style="stroke:#A80036;stroke-width:1.0;"/><path d="M399.5938,249.6719 C398.6563,249.2344 398.0625,249.0938 397.1875,249.0938 C394.5625,249.0938 392.5625,251.1719 392.5625,253.8906 L392.5625,255.0156 C392.5625,257.5938 394.6719,259.4844 397.5625,259.4844 C398.7813,259.4844 399.9375,259.1875 400.6875,258.6406 C401.2656,258.2344 401.5938,257.7813 401.5938,257.3906 C401.5938,256.9375 401.2031,256.5469 400.7344,256.5469 C400.5156,256.5469 400.3125,256.625 400.125,256.8125 C399.6719,257.2969 399.6719,257.2969 399.4844,257.3906 C399.0625,257.6563 398.375,257.7813 397.6094,257.7813 C395.5625,257.7813 394.2656,256.6875 394.2656,254.9844 L394.2656,253.8906 C394.2656,252.1094 395.5156,250.7969 397.25,250.7969 C397.8281,250.7969 398.4375,250.9531 398.9063,251.2031 C399.3906,251.4844 399.5625,251.7031 399.6563,252.1094 C399.7188,252.5156 399.75,252.6406 399.8906,252.7656 C400.0313,252.9063 400.2656,253.0156 400.4844,253.0156 C400.75,253.0156 401.0156,252.875 401.1875,252.6563 C401.2969,252.5 401.3281,252.3125 401.3281,251.8906 L401.3281,250.4688 C401.3281,250.0313 401.3125,249.9063 401.2188,249.75 C401.0625,249.4844 400.7813,249.3438 400.4844,249.3438 C400.1875,249.3438 399.9844,249.4375 399.7656,249.75 L399.5938,249.6719 Z " fill="#000000"/><text fill="#000000" font-family="sans-serif" font-size="12" lengthAdjust="spacing" textLength="71" x="417.75" y="258.1543">FarmaciaDB</text><line style="stroke:#A80036;stroke-width:1.5;" x1="353" x2="521" y1="270" y2="270"/><line style="stroke:#A80036;stroke-width:1.5;" x1="353" x2="521" y1="278" y2="278"/><text fill="#000000" font-family="sans-serif" font-size="11" lengthAdjust="spacing" textLength="101" x="358" y="292.2104">+getFarmacia(nif)</text><text fill="#000000" font-family="sans-serif" font-size="11" lengthAdjust="spacing" textLength="158" x="358" y="305.0151">+enviarNotaTrans(prods,nif)</text><text fill="#000000" font-family="sans-serif" font-size="11" lengthAdjust="spacing" textLength="120" x="358" y="317.8198">+validaInfo(prods,nif)</text><!--MD5=[be8d1f6688924a18459276293f425e0d]
class EnviarNotaTransferenciaController--><rect codeLine="26" fill="#FEFECE" filter="url(#fyjxevarye9qj)" height="60.8047" id="EnviarNotaTransferenciaController" style="stroke:#A80036;stroke-width:1.5;" width="236" x="142" y="116"/><ellipse cx="157" cy="132" fill="#ADD1B2" rx="11" ry="11" style="stroke:#A80036;stroke-width:1.0;"/><path d="M159.3438,127.6719 C158.4063,127.2344 157.8125,127.0938 156.9375,127.0938 C154.3125,127.0938 152.3125,129.1719 152.3125,131.8906 L152.3125,133.0156 C152.3125,135.5938 154.4219,137.4844 157.3125,137.4844 C158.5313,137.4844 159.6875,137.1875 160.4375,136.6406 C161.0156,136.2344 161.3438,135.7813 161.3438,135.3906 C161.3438,134.9375 160.9531,134.5469 160.4844,134.5469 C160.2656,134.5469 160.0625,134.625 159.875,134.8125 C159.4219,135.2969 159.4219,135.2969 159.2344,135.3906 C158.8125,135.6563 158.125,135.7813 157.3594,135.7813 C155.3125,135.7813 154.0156,134.6875 154.0156,132.9844 L154.0156,131.8906 C154.0156,130.1094 155.2656,128.7969 157,128.7969 C157.5781,128.7969 158.1875,128.9531 158.6563,129.2031 C159.1406,129.4844 159.3125,129.7031 159.4063,130.1094 C159.4688,130.5156 159.5,130.6406 159.6406,130.7656 C159.7813,130.9063 160.0156,131.0156 160.2344,131.0156 C160.5,131.0156 160.7656,130.875 160.9375,130.6563 C161.0469,130.5 161.0781,130.3125 161.0781,129.8906 L161.0781,128.4688 C161.0781,128.0313 161.0625,127.9063 160.9688,127.75 C160.8125,127.4844 160.5313,127.3438 160.2344,127.3438 C159.9375,127.3438 159.7344,127.4375 159.5156,127.75 L159.3438,127.6719 Z " fill="#000000"/><text fill="#000000" font-family="sans-serif" font-size="12" lengthAdjust="spacing" textLength="204" x="171" y="136.1543">EnviarNotaTransferenciaController</text><line style="stroke:#A80036;stroke-width:1.5;" x1="143" x2="377" y1="148" y2="148"/><line style="stroke:#A80036;stroke-width:1.5;" x1="143" x2="377" y1="156" y2="156"/><text fill="#000000" font-family="sans-serif" font-size="11" lengthAdjust="spacing" textLength="158" x="148" y="170.2104">+enviarNotaTrans(prods,nif)</text><!--MD5=[787124873128bbb853e74a8c3260d642]
class EnviarNotaTransferenciaUI--><rect codeLine="30" fill="#FEFECE" filter="url(#fyjxevarye9qj)" height="48" id="EnviarNotaTransferenciaUI" style="stroke:#A80036;stroke-width:1.5;" width="189" x="165.5" y="7"/><ellipse cx="180.5" cy="23" fill="#ADD1B2" rx="11" ry="11" style="stroke:#A80036;stroke-width:1.0;"/><path d="M182.8438,18.6719 C181.9063,18.2344 181.3125,18.0938 180.4375,18.0938 C177.8125,18.0938 175.8125,20.1719 175.8125,22.8906 L175.8125,24.0156 C175.8125,26.5938 177.9219,28.4844 180.8125,28.4844 C182.0313,28.4844 183.1875,28.1875 183.9375,27.6406 C184.5156,27.2344 184.8438,26.7813 184.8438,26.3906 C184.8438,25.9375 184.4531,25.5469 183.9844,25.5469 C183.7656,25.5469 183.5625,25.625 183.375,25.8125 C182.9219,26.2969 182.9219,26.2969 182.7344,26.3906 C182.3125,26.6563 181.625,26.7813 180.8594,26.7813 C178.8125,26.7813 177.5156,25.6875 177.5156,23.9844 L177.5156,22.8906 C177.5156,21.1094 178.7656,19.7969 180.5,19.7969 C181.0781,19.7969 181.6875,19.9531 182.1563,20.2031 C182.6406,20.4844 182.8125,20.7031 182.9063,21.1094 C182.9688,21.5156 183,21.6406 183.1406,21.7656 C183.2813,21.9063 183.5156,22.0156 183.7344,22.0156 C184,22.0156 184.2656,21.875 184.4375,21.6563 C184.5469,21.5 184.5781,21.3125 184.5781,20.8906 L184.5781,19.4688 C184.5781,19.0313 184.5625,18.9063 184.4688,18.75 C184.3125,18.4844 184.0313,18.3438 183.7344,18.3438 C183.4375,18.3438 183.2344,18.4375 183.0156,18.75 L182.8438,18.6719 Z " fill="#000000"/><text fill="#000000" font-family="sans-serif" font-size="12" lengthAdjust="spacing" textLength="157" x="194.5" y="27.1543">EnviarNotaTransferenciaUI</text><line style="stroke:#A80036;stroke-width:1.5;" x1="166.5" x2="353.5" y1="39" y2="39"/><line style="stroke:#A80036;stroke-width:1.5;" x1="166.5" x2="353.5" y1="47" y2="47"/><!--MD5=[4e15badef73fabba4d1aff2ffdc7c330]
link EnviarNotaTransferenciaUI to EnviarNotaTransferenciaController--><path codeLine="33" d="M260,55.242 C260,71.112 260,92.427 260,110.359 " fill="none" id="EnviarNotaTransferenciaUI-to-EnviarNotaTransferenciaController" style="stroke:#A80036;stroke-width:1.0;stroke-dasharray:7.0,7.0;"/><polygon fill="#A80036" points="260,115.805,264,106.805,260,110.805,256,106.805,260,115.805" style="stroke:#A80036;stroke-width:1.0;"/><!--MD5=[4c4968a67f6147f9ed3c7246a5b1ab56]
link EnviarNotaTransferenciaController to ProdutosDB--><path codeLine="34" d="M243.169,177.236 C231.637,197.608 216.313,224.68 204.289,245.924 " fill="none" id="EnviarNotaTransferenciaController-to-ProdutosDB" style="stroke:#A80036;stroke-width:1.0;stroke-dasharray:7.0,7.0;"/><polygon fill="#A80036" points="201.775,250.364,209.6892,244.5018,204.2378,246.0126,202.727,240.5613,201.775,250.364" style="stroke:#A80036;stroke-width:1.0;"/><!--MD5=[21359201c24cf8ec02892fe8967025dc]
link EnviarNotaTransferenciaController to Produto--><path codeLine="35" d="M175.701,177.167 C148.539,191.19 121.479,210.95 106,238 C78.7035,285.702 83.0169,349.428 91.8629,395.653 " fill="none" id="EnviarNotaTransferenciaController-to-Produto" style="stroke:#A80036;stroke-width:1.0;stroke-dasharray:7.0,7.0;"/><polygon fill="#A80036" points="92.8466,400.634,95.0274,391.0296,91.878,395.7287,87.1789,392.5793,92.8466,400.634" style="stroke:#A80036;stroke-width:1.0;"/><!--MD5=[c3c1ed09bbc4d74b7ce8f29ba1696b41]
link EnviarNotaTransferenciaController to FarmaciaDB--><path codeLine="36" d="M299.722,177.236 C322.362,194.183 351.194,215.767 376.585,234.774 " fill="none" id="EnviarNotaTransferenciaController-to-FarmaciaDB" style="stroke:#A80036;stroke-width:1.0;stroke-dasharray:7.0,7.0;"/><polygon fill="#A80036" points="380.629,237.802,375.8202,229.2069,376.6259,234.8061,371.0267,235.6119,380.629,237.802" style="stroke:#A80036;stroke-width:1.0;"/><!--MD5=[6bcb1b1a4c882e35bb2c3ece46633abb]
link EnviarNotaTransferenciaController to Farmacia--><path codeLine="37" d="M266.52,177.08 C278.71,232.381 304.974,351.537 318.9,414.7172 " fill="none" id="EnviarNotaTransferenciaController-to-Farmacia" style="stroke:#A80036;stroke-width:1.0;stroke-dasharray:7.0,7.0;"/><polygon fill="#A80036" points="320.045,419.9103,322.0139,410.2603,318.9687,415.0275,314.2015,411.9823,320.045,419.9103" style="stroke:#A80036;stroke-width:1.0;"/><!--MD5=[bbd3ef872394a4705faf2324ce30b073]
link ProdutosDB to Produto--><path codeLine="39" d="M171.938,311.517 C161.717,334.614 147.166,367.496 134.527,396.057 " fill="none" id="ProdutosDB-to-Produto" style="stroke:#A80036;stroke-width:1.0;"/><polygon fill="#A80036" points="132.353,400.968,139.6537,394.3574,134.3769,396.3959,132.3384,391.1192,132.353,400.968" style="stroke:#A80036;stroke-width:1.0;"/><text fill="#000000" font-family="sans-serif" font-size="13" lengthAdjust="spacing" textLength="97" x="153" y="367.0669">tem registados</text><text fill="#000000" font-family="sans-serif" font-size="13" lengthAdjust="spacing" textLength="8" x="160.419" y="331.4587">1</text><text fill="#000000" font-family="sans-serif" font-size="13" lengthAdjust="spacing" textLength="7" x="128.0248" y="389.9019">*</text><!--MD5=[3c539b0dd2212e8322efef71ee8cdfc2]
link FarmaciaDB to Farmacia--><path codeLine="40" d="M410.614,324.121 C393.211,351.902 370.54,388.092 353.351,415.5318 " fill="none" id="FarmaciaDB-to-Farmacia" style="stroke:#A80036;stroke-width:1.0;"/><polygon fill="#A80036" points="350.641,419.858,358.8088,414.3546,353.2955,415.6208,352.0293,410.1075,350.641,419.858" style="stroke:#A80036;stroke-width:1.0;"/><text fill="#000000" font-family="sans-serif" font-size="13" lengthAdjust="spacing" textLength="97" x="390" y="367.0669">tem registadas</text><text fill="#000000" font-family="sans-serif" font-size="13" lengthAdjust="spacing" textLength="8" x="397.5813" y="344.5487">1</text><text fill="#000000" font-family="sans-serif" font-size="13" lengthAdjust="spacing" textLength="7" x="347.0505" y="409.0197">*</text><!--MD5=[d9699eda6bff245ecdc6fb11534892d2]
@startuml
skinparam classAttributeIconSize 0

class Produto {
  -Integer id
  -String desig
  -Double peso
  -Double preco_base
  +Produto(desig,peso,preco_base)
}

class ProdutosDB {
  +getListaProdutos()
}

class Farmacia {
  -Integer nif
  +Farmacia(nif)
}

class FarmaciaDB {
  +getFarmacia(nif)
  +enviarNotaTrans(prods,nif)
  +validaInfo(prods,nif)
}

class EnviarNotaTransferenciaController {
    +enviarNotaTrans(prods,nif)
}

class EnviarNotaTransferenciaUI {
}

EnviarNotaTransferenciaUI ..> EnviarNotaTransferenciaController
EnviarNotaTransferenciaController ..> ProdutosDB
EnviarNotaTransferenciaController ..> Produto
EnviarNotaTransferenciaController ..> FarmaciaDB
EnviarNotaTransferenciaController ..> Farmacia

ProdutosDB "1" - -> "*" Produto : tem registados
FarmaciaDB "1" - -> "*" Farmacia : tem registadas
@enduml

PlantUML version 1.2020.27beta8(Unknown compile time)
(GPL source distribution)
Java Runtime: Java(TM) SE Runtime Environment
JVM: Java HotSpot(TM) 64-Bit Server VM
Default Encoding: UTF-8
Language: en
Country: US
--></g></svg>