<?xml version="1.0" encoding="UTF-8" standalone="no"?><svg xmlns="http://www.w3.org/2000/svg" xmlns:xlink="http://www.w3.org/1999/xlink" contentScriptType="application/ecmascript" contentStyleType="text/css" height="250px" preserveAspectRatio="none" style="width:516px;height:250px;" version="1.1" viewBox="0 0 516 250" width="516px" zoomAndPan="magnify"><defs><filter height="300%" id="f1jdr0q383zxda" width="300%" x="-1" y="-1"><feGaussianBlur result="blurOut" stdDeviation="2.0"/><feColorMatrix in="blurOut" result="blurOut2" type="matrix" values="0 0 0 0 0 0 0 0 0 0 0 0 0 0 0 0 0 0 .4 0"/><feOffset dx="4.0" dy="4.0" in="blurOut2" result="blurOut3"/><feBlend in="SourceGraphic" in2="blurOut3" mode="normal"/></filter></defs><g><rect fill="#FFFFFF" filter="url(#f1jdr0q383zxda)" height="50.2656" style="stroke:#A80036;stroke-width:1.0;" width="10" x="35" y="98.2969"/><rect fill="#FFFFFF" filter="url(#f1jdr0q383zxda)" height="29.1328" style="stroke:#A80036;stroke-width:1.0;" width="10" x="461" y="119.4297"/><line style="stroke:#A80036;stroke-width:1.0;stroke-dasharray:5.0,5.0;" x1="40" x2="40" y1="88.2969" y2="166.5625"/><line style="stroke:#A80036;stroke-width:1.0;stroke-dasharray:5.0,5.0;" x1="465.5" x2="465.5" y1="88.2969" y2="166.5625"/><text fill="#000000" font-family="sans-serif" font-size="14" lengthAdjust="spacing" textLength="64" x="5" y="84.9951">Farmácia</text><ellipse cx="40" cy="15" fill="#FEFECE" filter="url(#f1jdr0q383zxda)" rx="8" ry="8" style="stroke:#A80036;stroke-width:2.0;"/><path d="M40,23 L40,50 M27,31 L53,31 M40,50 L27,65 M40,50 L53,65 " fill="none" filter="url(#f1jdr0q383zxda)" style="stroke:#A80036;stroke-width:2.0;"/><text fill="#000000" font-family="sans-serif" font-size="14" lengthAdjust="spacing" textLength="64" x="5" y="178.5576">Farmácia</text><ellipse cx="40" cy="191.8594" fill="#FEFECE" filter="url(#f1jdr0q383zxda)" rx="8" ry="8" style="stroke:#A80036;stroke-width:2.0;"/><path d="M40,199.8594 L40,226.8594 M27,207.8594 L53,207.8594 M40,226.8594 L27,241.8594 M40,226.8594 L53,241.8594 " fill="none" filter="url(#f1jdr0q383zxda)" style="stroke:#A80036;stroke-width:2.0;"/><rect fill="#FEFECE" filter="url(#f1jdr0q383zxda)" height="30.2969" style="stroke:#A80036;stroke-width:1.5;" width="77" x="425.5" y="53"/><text fill="#000000" font-family="sans-serif" font-size="14" lengthAdjust="spacing" textLength="63" x="432.5" y="72.9951">:Sistema</text><rect fill="#FEFECE" filter="url(#f1jdr0q383zxda)" height="30.2969" style="stroke:#A80036;stroke-width:1.5;" width="77" x="425.5" y="165.5625"/><text fill="#000000" font-family="sans-serif" font-size="14" lengthAdjust="spacing" textLength="63" x="432.5" y="185.5576">:Sistema</text><rect fill="#FFFFFF" filter="url(#f1jdr0q383zxda)" height="50.2656" style="stroke:#A80036;stroke-width:1.0;" width="10" x="35" y="98.2969"/><rect fill="#FFFFFF" filter="url(#f1jdr0q383zxda)" height="29.1328" style="stroke:#A80036;stroke-width:1.0;" width="10" x="461" y="119.4297"/><polygon fill="#A80036" points="449,115.4297,459,119.4297,449,123.4297,453,119.4297" style="stroke:#A80036;stroke-width:1.0;"/><line style="stroke:#A80036;stroke-width:1.0;" x1="45" x2="455" y1="119.4297" y2="119.4297"/><text fill="#000000" font-family="sans-serif" font-size="13" font-weight="bold" lengthAdjust="spacing" textLength="9" x="52" y="114.3638">1</text><text fill="#000000" font-family="sans-serif" font-size="13" lengthAdjust="spacing" textLength="384" x="65" y="114.3638">envia uma nota de transferencia com os produtos enviados</text><polygon fill="#A80036" points="51,144.5625,41,148.5625,51,152.5625,47,148.5625" style="stroke:#A80036;stroke-width:1.0;"/><line style="stroke:#A80036;stroke-width:1.0;stroke-dasharray:2.0,2.0;" x1="45" x2="465" y1="148.5625" y2="148.5625"/><text fill="#000000" font-family="sans-serif" font-size="13" font-weight="bold" lengthAdjust="spacing" textLength="9" x="57" y="143.4966">2</text><text fill="#000000" font-family="sans-serif" font-size="13" lengthAdjust="spacing" textLength="154" x="70" y="143.4966">operação bem sucedida</text><!--MD5=[c18ed55006aca84af9b5e940187ec922]
@startuml
autonumber

actor "Farmácia" as FARM

activate FARM
FARM -> ":Sistema": envia uma nota de transferencia com os produtos enviados
activate ":Sistema"
":Sistema" - -> FARM: operação bem sucedida
deactivate ":Sistema"
deactivate FARM
@enduml

PlantUML version 1.2020.27beta8(Unknown compile time)
(GPL source distribution)
Java Runtime: Java(TM) SE Runtime Environment
JVM: Java HotSpot(TM) 64-Bit Server VM
Default Encoding: UTF-8
Language: en
Country: US
--></g></svg>