<?xml version="1.0" encoding="UTF-8" standalone="no"?><svg xmlns="http://www.w3.org/2000/svg" xmlns:xlink="http://www.w3.org/1999/xlink" contentScriptType="application/ecmascript" contentStyleType="text/css" height="154px" preserveAspectRatio="none" style="width:345px;height:154px;" version="1.1" viewBox="0 0 345 154" width="345px" zoomAndPan="magnify"><defs><filter height="300%" id="fszr3u2qp1y5v" width="300%" x="-1" y="-1"><feGaussianBlur result="blurOut" stdDeviation="2.0"/><feColorMatrix in="blurOut" result="blurOut2" type="matrix" values="0 0 0 0 0 0 0 0 0 0 0 0 0 0 0 0 0 0 .4 0"/><feOffset dx="4.0" dy="4.0" in="blurOut2" result="blurOut3"/><feBlend in="SourceGraphic" in2="blurOut3" mode="normal"/></filter></defs><g><!--MD5=[d4dacc50d49878ba7c621dfc80a2e1ce]
class Produto--><rect codeLine="5" fill="#FEFECE" filter="url(#fszr3u2qp1y5v)" height="91.2188" id="Produto" style="stroke:#A80036;stroke-width:1.5;" width="81" x="250.8507" y="49"/><ellipse cx="267.2007" cy="65" fill="#ADD1B2" rx="11" ry="11" style="stroke:#A80036;stroke-width:1.0;"/><path d="M269.5445,60.6719 C268.607,60.2344 268.0132,60.0938 267.1382,60.0938 C264.5132,60.0938 262.5132,62.1719 262.5132,64.8906 L262.5132,66.0156 C262.5132,68.5938 264.6226,70.4844 267.5132,70.4844 C268.732,70.4844 269.8882,70.1875 270.6382,69.6406 C271.2163,69.2344 271.5445,68.7813 271.5445,68.3906 C271.5445,67.9375 271.1538,67.5469 270.6851,67.5469 C270.4663,67.5469 270.2632,67.625 270.0757,67.8125 C269.6226,68.2969 269.6226,68.2969 269.4351,68.3906 C269.0132,68.6563 268.3257,68.7813 267.5601,68.7813 C265.5132,68.7813 264.2163,67.6875 264.2163,65.9844 L264.2163,64.8906 C264.2163,63.1094 265.4663,61.7969 267.2007,61.7969 C267.7788,61.7969 268.3882,61.9531 268.857,62.2031 C269.3413,62.4844 269.5132,62.7031 269.607,63.1094 C269.6695,63.5156 269.7007,63.6406 269.8413,63.7656 C269.982,63.9063 270.2163,64.0156 270.4351,64.0156 C270.7007,64.0156 270.9663,63.875 271.1382,63.6563 C271.2476,63.5 271.2788,63.3125 271.2788,62.8906 L271.2788,61.4688 C271.2788,61.0313 271.2632,60.9063 271.1695,60.75 C271.0132,60.4844 270.732,60.3438 270.4351,60.3438 C270.1382,60.3438 269.9351,60.4375 269.7163,60.75 L269.5445,60.6719 Z " fill="#000000"/><text fill="#000000" font-family="sans-serif" font-size="12" lengthAdjust="spacing" textLength="46" x="281.5007" y="69.1543">Produto</text><line style="stroke:#A80036;stroke-width:1.5;" x1="251.8507" x2="330.8507" y1="81" y2="81"/><text fill="#000000" font-family="sans-serif" font-size="11" lengthAdjust="spacing" textLength="56" x="256.8507" y="95.2104">-idProduto</text><text fill="#000000" font-family="sans-serif" font-size="11" lengthAdjust="spacing" textLength="69" x="256.8507" y="108.0151">-designacao</text><text fill="#000000" font-family="sans-serif" font-size="11" lengthAdjust="spacing" textLength="32" x="256.8507" y="120.8198">-peso</text><text fill="#000000" font-family="sans-serif" font-size="11" lengthAdjust="spacing" textLength="65" x="256.8507" y="133.6245">-precoBase</text><!--MD5=[6613c9cd406ef433ff06f5e98b28abd9]
class Farmacia--><rect codeLine="12" fill="#FEFECE" filter="url(#fszr3u2qp1y5v)" height="52.8047" id="Farmacia" style="stroke:#A80036;stroke-width:1.5;" width="86" x="63.8507" y="68"/><ellipse cx="78.8507" cy="84" fill="#ADD1B2" rx="11" ry="11" style="stroke:#A80036;stroke-width:1.0;"/><path d="M81.1945,79.6719 C80.257,79.2344 79.6632,79.0938 78.7882,79.0938 C76.1632,79.0938 74.1632,81.1719 74.1632,83.8906 L74.1632,85.0156 C74.1632,87.5938 76.2726,89.4844 79.1632,89.4844 C80.382,89.4844 81.5382,89.1875 82.2882,88.6406 C82.8663,88.2344 83.1945,87.7813 83.1945,87.3906 C83.1945,86.9375 82.8038,86.5469 82.3351,86.5469 C82.1163,86.5469 81.9132,86.625 81.7257,86.8125 C81.2726,87.2969 81.2726,87.2969 81.0851,87.3906 C80.6632,87.6563 79.9757,87.7813 79.2101,87.7813 C77.1632,87.7813 75.8663,86.6875 75.8663,84.9844 L75.8663,83.8906 C75.8663,82.1094 77.1163,80.7969 78.8507,80.7969 C79.4288,80.7969 80.0382,80.9531 80.507,81.2031 C80.9913,81.4844 81.1632,81.7031 81.257,82.1094 C81.3195,82.5156 81.3507,82.6406 81.4913,82.7656 C81.632,82.9063 81.8663,83.0156 82.0851,83.0156 C82.3507,83.0156 82.6163,82.875 82.7882,82.6563 C82.8976,82.5 82.9288,82.3125 82.9288,81.8906 L82.9288,80.4688 C82.9288,80.0313 82.9132,79.9063 82.8195,79.75 C82.6632,79.4844 82.382,79.3438 82.0851,79.3438 C81.7882,79.3438 81.5851,79.4375 81.3663,79.75 L81.1945,79.6719 Z " fill="#000000"/><text fill="#000000" font-family="sans-serif" font-size="12" lengthAdjust="spacing" textLength="54" x="92.8507" y="88.1543">Farmacia</text><line style="stroke:#A80036;stroke-width:1.5;" x1="64.8507" x2="148.8507" y1="100" y2="100"/><text fill="#000000" font-family="sans-serif" font-size="11" lengthAdjust="spacing" textLength="21" x="69.8507" y="114.2104">-NIF</text><!--MD5=[b925eed8574a8ca4aaf557e1ca097bb2]
link Farmacia to Farmacia--><path codeLine="16" d="M91.121,67.95 C86.6934,50.2393 91.9366,33 106.8507,33 C121.7647,33 127.0077,50.2393 122.5807,67.95 " fill="none" id="Farmacia-Farmacia" style="stroke:#A80036;stroke-width:1.0;"/><polygon fill="#000000" points="16,18.3537,24.0622,23.3986,25.4878,17.6963,16,18.3537" style="stroke:#000000;stroke-width:1.0;"/><text fill="#000000" font-family="sans-serif" font-size="13" lengthAdjust="spacing" textLength="157" x="34.8507" y="24.0669">envia nota transferência</text><text fill="#000000" font-family="sans-serif" font-size="13" lengthAdjust="spacing" textLength="8" x="78.3119" y="56.7572">1</text><text fill="#000000" font-family="sans-serif" font-size="13" lengthAdjust="spacing" textLength="8" x="117.4395" y="56.7572">1</text><!--MD5=[db4a5ac14aaeb2d946b80db0d46ff947]
link Farmacia to Produto--><path codeLine="17" d="M150.1787,94.5 C180.5047,94.5 221.0647,94.5 250.7507,94.5 " fill="none" id="Farmacia-Produto" style="stroke:#A80036;stroke-width:1.0;"/><polygon fill="#000000" points="189.8507,86.0664,180.8056,83.1275,180.8056,89.0053,189.8507,86.0664" style="stroke:#000000;stroke-width:1.0;"/><text fill="#000000" font-family="sans-serif" font-size="13" lengthAdjust="spacing" textLength="26" x="193.8507" y="90.5669">tem</text><text fill="#000000" font-family="sans-serif" font-size="13" lengthAdjust="spacing" textLength="8" x="157.7216" y="107.7884">1</text><text fill="#000000" font-family="sans-serif" font-size="13" lengthAdjust="spacing" textLength="7" x="235.8954" y="107.8952">*</text><!--MD5=[e82b46bb5b5f47ce4a7cbd2144dc8395]
@startuml
skinparam classAttributeIconSize 0
hide methods
left to right direction

class Produto {
  -idProduto
  -designacao
  -peso
  -precoBase
}

class Farmacia {
  -NIF
}

Farmacia "1" - - "1" Farmacia: envia nota transferência >
Farmacia "1" - - "*" Produto: tem >
@enduml

PlantUML version 1.2020.27beta8(Unknown compile time)
(GPL source distribution)
Java Runtime: Java(TM) SE Runtime Environment
JVM: Java HotSpot(TM) 64-Bit Server VM
Default Encoding: UTF-8
Language: en
Country: US
--></g></svg>