<?xml version="1.0" encoding="UTF-8" standalone="no"?><svg xmlns="http://www.w3.org/2000/svg" xmlns:xlink="http://www.w3.org/1999/xlink" contentScriptType="application/ecmascript" contentStyleType="text/css" height="590px" preserveAspectRatio="none" style="width:430px;height:590px;" version="1.1" viewBox="0 0 430 590" width="430px" zoomAndPan="magnify"><defs><filter height="300%" id="fu5yjlpxrfygg" width="300%" x="-1" y="-1"><feGaussianBlur result="blurOut" stdDeviation="2.0"/><feColorMatrix in="blurOut" result="blurOut2" type="matrix" values="0 0 0 0 0 0 0 0 0 0 0 0 0 0 0 0 0 0 .4 0"/><feOffset dx="4.0" dy="4.0" in="blurOut2" result="blurOut3"/><feBlend in="SourceGraphic" in2="blurOut3" mode="normal"/></filter></defs><g><!--MD5=[380d12a68ed0046a60f31008a02875d0]
class AplicacaoPOT--><rect codeLine="3" fill="#FEFECE" filter="url(#fu5yjlpxrfygg)" height="73.6094" id="AplicacaoPOT" style="stroke:#A80036;stroke-width:1.5;" width="130" x="7" y="275.5"/><ellipse cx="29.65" cy="291.5" fill="#ADD1B2" rx="11" ry="11" style="stroke:#A80036;stroke-width:1.0;"/><path d="M31.9938,287.1719 C31.0563,286.7344 30.4625,286.5938 29.5875,286.5938 C26.9625,286.5938 24.9625,288.6719 24.9625,291.3906 L24.9625,292.5156 C24.9625,295.0938 27.0719,296.9844 29.9625,296.9844 C31.1813,296.9844 32.3375,296.6875 33.0875,296.1406 C33.6656,295.7344 33.9938,295.2813 33.9938,294.8906 C33.9938,294.4375 33.6031,294.0469 33.1344,294.0469 C32.9156,294.0469 32.7125,294.125 32.525,294.3125 C32.0719,294.7969 32.0719,294.7969 31.8844,294.8906 C31.4625,295.1563 30.775,295.2813 30.0094,295.2813 C27.9625,295.2813 26.6656,294.1875 26.6656,292.4844 L26.6656,291.3906 C26.6656,289.6094 27.9156,288.2969 29.65,288.2969 C30.2281,288.2969 30.8375,288.4531 31.3063,288.7031 C31.7906,288.9844 31.9625,289.2031 32.0563,289.6094 C32.1188,290.0156 32.15,290.1406 32.2906,290.2656 C32.4313,290.4063 32.6656,290.5156 32.8844,290.5156 C33.15,290.5156 33.4156,290.375 33.5875,290.1563 C33.6969,290 33.7281,289.8125 33.7281,289.3906 L33.7281,287.9688 C33.7281,287.5313 33.7125,287.4063 33.6188,287.25 C33.4625,286.9844 33.1813,286.8438 32.8844,286.8438 C32.5875,286.8438 32.3844,286.9375 32.1656,287.25 L31.9938,287.1719 Z " fill="#000000"/><text fill="#000000" font-family="sans-serif" font-size="12" lengthAdjust="spacing" textLength="81" x="45.35" y="295.6543">AplicacaoPOT</text><line style="stroke:#A80036;stroke-width:1.5;" x1="8" x2="136" y1="307.5" y2="307.5"/><line style="stroke:#A80036;stroke-width:1.5;" x1="8" x2="136" y1="315.5" y2="315.5"/><text fill="#000000" font-family="sans-serif" font-size="11" lengthAdjust="spacing" textLength="118" x="13" y="329.7104">+static getInstance()</text><text fill="#000000" font-family="sans-serif" font-size="11" lengthAdjust="spacing" textLength="107" x="13" y="342.5151">+getSessaoAtual()</text><!--MD5=[3f1202280bfe3359d2f91fb9b6e32986]
class Estafeta--><rect codeLine="9" fill="#FEFECE" filter="url(#fu5yjlpxrfygg)" height="137.6328" id="Estafeta" style="stroke:#A80036;stroke-width:1.5;" width="240" x="119" y="439"/><ellipse cx="210.75" cy="455" fill="#ADD1B2" rx="11" ry="11" style="stroke:#A80036;stroke-width:1.0;"/><path d="M213.0938,450.6719 C212.1563,450.2344 211.5625,450.0938 210.6875,450.0938 C208.0625,450.0938 206.0625,452.1719 206.0625,454.8906 L206.0625,456.0156 C206.0625,458.5938 208.1719,460.4844 211.0625,460.4844 C212.2813,460.4844 213.4375,460.1875 214.1875,459.6406 C214.7656,459.2344 215.0938,458.7813 215.0938,458.3906 C215.0938,457.9375 214.7031,457.5469 214.2344,457.5469 C214.0156,457.5469 213.8125,457.625 213.625,457.8125 C213.1719,458.2969 213.1719,458.2969 212.9844,458.3906 C212.5625,458.6563 211.875,458.7813 211.1094,458.7813 C209.0625,458.7813 207.7656,457.6875 207.7656,455.9844 L207.7656,454.8906 C207.7656,453.1094 209.0156,451.7969 210.75,451.7969 C211.3281,451.7969 211.9375,451.9531 212.4063,452.2031 C212.8906,452.4844 213.0625,452.7031 213.1563,453.1094 C213.2188,453.5156 213.25,453.6406 213.3906,453.7656 C213.5313,453.9063 213.7656,454.0156 213.9844,454.0156 C214.25,454.0156 214.5156,453.875 214.6875,453.6563 C214.7969,453.5 214.8281,453.3125 214.8281,452.8906 L214.8281,451.4688 C214.8281,451.0313 214.8125,450.9063 214.7188,450.75 C214.5625,450.4844 214.2813,450.3438 213.9844,450.3438 C213.6875,450.3438 213.4844,450.4375 213.2656,450.75 L213.0938,450.6719 Z " fill="#000000"/><text fill="#000000" font-family="sans-serif" font-size="12" lengthAdjust="spacing" textLength="48" x="231.25" y="459.1543">Estafeta</text><line style="stroke:#A80036;stroke-width:1.5;" x1="120" x2="358" y1="471" y2="471"/><text fill="#000000" font-family="sans-serif" font-size="11" lengthAdjust="spacing" textLength="55" x="125" y="485.2104">-String nif</text><text fill="#000000" font-family="sans-serif" font-size="11" lengthAdjust="spacing" textLength="74" x="125" y="498.0151">-String nome</text><text fill="#000000" font-family="sans-serif" font-size="11" lengthAdjust="spacing" textLength="73" x="125" y="510.8198">-String email</text><text fill="#000000" font-family="sans-serif" font-size="11" lengthAdjust="spacing" textLength="77" x="125" y="523.6245">-Double peso</text><text fill="#000000" font-family="sans-serif" font-size="11" lengthAdjust="spacing" textLength="68" x="125" y="536.4292">-Integer nss</text><text fill="#000000" font-family="sans-serif" font-size="11" lengthAdjust="spacing" textLength="64" x="125" y="549.2339">-String pwd</text><line style="stroke:#A80036;stroke-width:1.5;" x1="120" x2="358" y1="555.8281" y2="555.8281"/><text fill="#000000" font-family="sans-serif" font-size="11" lengthAdjust="spacing" textLength="228" x="125" y="570.0386">+Estafeta(nif,nome,email,peso,nss,pwd)</text><!--MD5=[4ac2c1498d2c03198090a24b8c54d335]
class EstafetaDB--><rect codeLine="19" fill="#FEFECE" filter="url(#fu5yjlpxrfygg)" height="99.2188" id="EstafetaDB" style="stroke:#A80036;stroke-width:1.5;" width="173" x="243.5" y="263"/><ellipse cx="293.25" cy="279" fill="#ADD1B2" rx="11" ry="11" style="stroke:#A80036;stroke-width:1.0;"/><path d="M295.5938,274.6719 C294.6563,274.2344 294.0625,274.0938 293.1875,274.0938 C290.5625,274.0938 288.5625,276.1719 288.5625,278.8906 L288.5625,280.0156 C288.5625,282.5938 290.6719,284.4844 293.5625,284.4844 C294.7813,284.4844 295.9375,284.1875 296.6875,283.6406 C297.2656,283.2344 297.5938,282.7813 297.5938,282.3906 C297.5938,281.9375 297.2031,281.5469 296.7344,281.5469 C296.5156,281.5469 296.3125,281.625 296.125,281.8125 C295.6719,282.2969 295.6719,282.2969 295.4844,282.3906 C295.0625,282.6563 294.375,282.7813 293.6094,282.7813 C291.5625,282.7813 290.2656,281.6875 290.2656,279.9844 L290.2656,278.8906 C290.2656,277.1094 291.5156,275.7969 293.25,275.7969 C293.8281,275.7969 294.4375,275.9531 294.9063,276.2031 C295.3906,276.4844 295.5625,276.7031 295.6563,277.1094 C295.7188,277.5156 295.75,277.6406 295.8906,277.7656 C296.0313,277.9063 296.2656,278.0156 296.4844,278.0156 C296.75,278.0156 297.0156,277.875 297.1875,277.6563 C297.2969,277.5 297.3281,277.3125 297.3281,276.8906 L297.3281,275.4688 C297.3281,275.0313 297.3125,274.9063 297.2188,274.75 C297.0625,274.4844 296.7813,274.3438 296.4844,274.3438 C296.1875,274.3438 295.9844,274.4375 295.7656,274.75 L295.5938,274.6719 Z " fill="#000000"/><text fill="#000000" font-family="sans-serif" font-size="12" lengthAdjust="spacing" textLength="65" x="313.75" y="283.1543">EstafetaDB</text><line style="stroke:#A80036;stroke-width:1.5;" x1="244.5" x2="415.5" y1="295" y2="295"/><line style="stroke:#A80036;stroke-width:1.5;" x1="244.5" x2="415.5" y1="303" y2="303"/><text fill="#000000" font-family="sans-serif" font-size="11" lengthAdjust="spacing" textLength="115" x="249.5" y="317.2104">+getListaEstafetas()</text><text fill="#000000" font-family="sans-serif" font-size="11" lengthAdjust="spacing" textLength="161" x="249.5" y="330.0151">+getEstafetaByEmail(email)</text><text fill="#000000" font-family="sans-serif" font-size="11" lengthAdjust="spacing" textLength="131" x="249.5" y="342.8198">+atualizarEstafeta(est)</text><text fill="#000000" font-family="sans-serif" font-size="11" lengthAdjust="spacing" textLength="116" x="249.5" y="355.6245">+validaEstafeta(est)</text><!--MD5=[0d3384f2af0e00f649b5e1ab009522d4]
class AtualizarEstafetaController--><rect codeLine="26" fill="#FEFECE" filter="url(#fu5yjlpxrfygg)" height="86.4141" id="AtualizarEstafetaController" style="stroke:#A80036;stroke-width:1.5;" width="190" x="95" y="116"/><ellipse cx="110" cy="132" fill="#ADD1B2" rx="11" ry="11" style="stroke:#A80036;stroke-width:1.0;"/><path d="M112.3438,127.6719 C111.4063,127.2344 110.8125,127.0938 109.9375,127.0938 C107.3125,127.0938 105.3125,129.1719 105.3125,131.8906 L105.3125,133.0156 C105.3125,135.5938 107.4219,137.4844 110.3125,137.4844 C111.5313,137.4844 112.6875,137.1875 113.4375,136.6406 C114.0156,136.2344 114.3438,135.7813 114.3438,135.3906 C114.3438,134.9375 113.9531,134.5469 113.4844,134.5469 C113.2656,134.5469 113.0625,134.625 112.875,134.8125 C112.4219,135.2969 112.4219,135.2969 112.2344,135.3906 C111.8125,135.6563 111.125,135.7813 110.3594,135.7813 C108.3125,135.7813 107.0156,134.6875 107.0156,132.9844 L107.0156,131.8906 C107.0156,130.1094 108.2656,128.7969 110,128.7969 C110.5781,128.7969 111.1875,128.9531 111.6563,129.2031 C112.1406,129.4844 112.3125,129.7031 112.4063,130.1094 C112.4688,130.5156 112.5,130.6406 112.6406,130.7656 C112.7813,130.9063 113.0156,131.0156 113.2344,131.0156 C113.5,131.0156 113.7656,130.875 113.9375,130.6563 C114.0469,130.5 114.0781,130.3125 114.0781,129.8906 L114.0781,128.4688 C114.0781,128.0313 114.0625,127.9063 113.9688,127.75 C113.8125,127.4844 113.5313,127.3438 113.2344,127.3438 C112.9375,127.3438 112.7344,127.4375 112.5156,127.75 L112.3438,127.6719 Z " fill="#000000"/><text fill="#000000" font-family="sans-serif" font-size="12" lengthAdjust="spacing" textLength="158" x="124" y="136.1543">AtualizarEstafetaController</text><line style="stroke:#A80036;stroke-width:1.5;" x1="96" x2="284" y1="148" y2="148"/><line style="stroke:#A80036;stroke-width:1.5;" x1="96" x2="284" y1="156" y2="156"/><text fill="#000000" font-family="sans-serif" font-size="11" lengthAdjust="spacing" textLength="161" x="101" y="170.2104">+getEstafetaByEmail(email)</text><text fill="#000000" font-family="sans-serif" font-size="11" lengthAdjust="spacing" textLength="131" x="101" y="183.0151">+atualizarEstafeta(est)</text><text fill="#000000" font-family="sans-serif" font-size="11" lengthAdjust="spacing" textLength="115" x="101" y="195.8198">+getListaEstafetas()</text><!--MD5=[fa83a4abb374b90d4a4dc26708631948]
class AtualizarEstafetaUI--><rect codeLine="32" fill="#FEFECE" filter="url(#fu5yjlpxrfygg)" height="48" id="AtualizarEstafetaUI" style="stroke:#A80036;stroke-width:1.5;" width="143" x="118.5" y="7"/><ellipse cx="133.5" cy="23" fill="#ADD1B2" rx="11" ry="11" style="stroke:#A80036;stroke-width:1.0;"/><path d="M135.8438,18.6719 C134.9063,18.2344 134.3125,18.0938 133.4375,18.0938 C130.8125,18.0938 128.8125,20.1719 128.8125,22.8906 L128.8125,24.0156 C128.8125,26.5938 130.9219,28.4844 133.8125,28.4844 C135.0313,28.4844 136.1875,28.1875 136.9375,27.6406 C137.5156,27.2344 137.8438,26.7813 137.8438,26.3906 C137.8438,25.9375 137.4531,25.5469 136.9844,25.5469 C136.7656,25.5469 136.5625,25.625 136.375,25.8125 C135.9219,26.2969 135.9219,26.2969 135.7344,26.3906 C135.3125,26.6563 134.625,26.7813 133.8594,26.7813 C131.8125,26.7813 130.5156,25.6875 130.5156,23.9844 L130.5156,22.8906 C130.5156,21.1094 131.7656,19.7969 133.5,19.7969 C134.0781,19.7969 134.6875,19.9531 135.1563,20.2031 C135.6406,20.4844 135.8125,20.7031 135.9063,21.1094 C135.9688,21.5156 136,21.6406 136.1406,21.7656 C136.2813,21.9063 136.5156,22.0156 136.7344,22.0156 C137,22.0156 137.2656,21.875 137.4375,21.6563 C137.5469,21.5 137.5781,21.3125 137.5781,20.8906 L137.5781,19.4688 C137.5781,19.0313 137.5625,18.9063 137.4688,18.75 C137.3125,18.4844 137.0313,18.3438 136.7344,18.3438 C136.4375,18.3438 136.2344,18.4375 136.0156,18.75 L135.8438,18.6719 Z " fill="#000000"/><text fill="#000000" font-family="sans-serif" font-size="12" lengthAdjust="spacing" textLength="111" x="147.5" y="27.1543">AtualizarEstafetaUI</text><line style="stroke:#A80036;stroke-width:1.5;" x1="119.5" x2="260.5" y1="39" y2="39"/><line style="stroke:#A80036;stroke-width:1.5;" x1="119.5" x2="260.5" y1="47" y2="47"/><!--MD5=[4647613ef2627236954d0f089e972c49]
link AtualizarEstafetaUI to AtualizarEstafetaController--><path codeLine="35" d="M190,55.11 C190,70.631 190,91.639 190,110.625 " fill="none" id="AtualizarEstafetaUI-to-AtualizarEstafetaController" style="stroke:#A80036;stroke-width:1.0;stroke-dasharray:7.0,7.0;"/><polygon fill="#A80036" points="190,115.921,194,106.921,190,110.921,186,106.921,190,115.921" style="stroke:#A80036;stroke-width:1.0;"/><!--MD5=[d60a4a1ecb831dd49fb3e57cf86a3282]
link AtualizarEstafetaController to EstafetaDB--><path codeLine="36" d="M228.998,202.201 C245.306,219.849 264.427,240.541 281.619,259.145 " fill="none" id="AtualizarEstafetaController-to-EstafetaDB" style="stroke:#A80036;stroke-width:1.0;stroke-dasharray:7.0,7.0;"/><polygon fill="#A80036" points="285.031,262.837,281.8604,253.5124,281.6375,259.1649,275.9851,258.942,285.031,262.837" style="stroke:#A80036;stroke-width:1.0;"/><!--MD5=[c18032344f3be304bf06bf31e8beae50]
link AtualizarEstafetaController to Estafeta--><path codeLine="37" d="M195.959,202.202 C204.079,259.703 218.742,363.54 228.672,433.859 " fill="none" id="AtualizarEstafetaController-to-Estafeta" style="stroke:#A80036;stroke-width:1.0;stroke-dasharray:7.0,7.0;"/><polygon fill="#A80036" points="229.378,438.863,232.0788,429.3917,228.6781,433.9122,224.1576,430.5115,229.378,438.863" style="stroke:#A80036;stroke-width:1.0;"/><!--MD5=[2cce7831fa35d1666a48d06678d8edff]
link AtualizarEstafetaController to AplicacaoPOT--><path codeLine="38" d="M157.13,202.201 C140.316,223.789 119.954,249.932 103.3605,271.236 " fill="none" id="AtualizarEstafetaController-to-AplicacaoPOT" style="stroke:#A80036;stroke-width:1.0;stroke-dasharray:7.0,7.0;"/><polygon fill="#A80036" points="100.0941,275.43,108.7805,270.7881,103.1668,271.4855,102.4693,265.8718,100.0941,275.43" style="stroke:#A80036;stroke-width:1.0;"/><!--MD5=[a3e63c72779e49a48819b249af53bae4]
link EstafetaDB to Estafeta--><path codeLine="40" d="M307.037,362.328 C296.819,384.055 284.573,410.096 273.303,434.059 " fill="none" id="EstafetaDB-to-Estafeta" style="stroke:#A80036;stroke-width:1.0;"/><polygon fill="#A80036" points="271.063,438.822,278.5131,432.3802,273.191,434.2975,271.2738,428.9754,271.063,438.822" style="stroke:#A80036;stroke-width:1.0;"/><text fill="#000000" font-family="sans-serif" font-size="13" lengthAdjust="spacing" textLength="97" x="294" y="405.0669">tem registados</text><text fill="#000000" font-family="sans-serif" font-size="13" lengthAdjust="spacing" textLength="8" x="295.2453" y="382.4506">1</text><text fill="#000000" font-family="sans-serif" font-size="13" lengthAdjust="spacing" textLength="7" x="267.0086" y="428.0073">*</text><!--MD5=[ae5559ab93427c5240abc9c4c9907d1f]
@startuml
skinparam classAttributeIconSize 0

class AplicacaoPOT
{
  +static getInstance()
  +getSessaoAtual()
}

class Estafeta {
  -String nif
  -String nome
  -String email
  -Double peso
  -Integer nss
  -String pwd
  +Estafeta(nif,nome,email,peso,nss,pwd)
}

class EstafetaDB {
  +getListaEstafetas()
  +getEstafetaByEmail(email)
  +atualizarEstafeta(est)
  +validaEstafeta(est)
}

class AtualizarEstafetaController {
    +getEstafetaByEmail(email)
    +atualizarEstafeta(est)
    +getListaEstafetas()
}

class AtualizarEstafetaUI {
}

AtualizarEstafetaUI ..> AtualizarEstafetaController
AtualizarEstafetaController ..> EstafetaDB
AtualizarEstafetaController ..> Estafeta
AtualizarEstafetaController ..> AplicacaoPOT

EstafetaDB "1" - -> "*" Estafeta : tem registados
@enduml

PlantUML version 1.2020.27beta8(Unknown compile time)
(GPL source distribution)
Java Runtime: Java(TM) SE Runtime Environment
JVM: Java HotSpot(TM) 64-Bit Server VM
Default Encoding: UTF-8
Language: en
Country: US
--></g></svg>