<?xml version="1.0" encoding="UTF-8" standalone="no"?><svg xmlns="http://www.w3.org/2000/svg" xmlns:xlink="http://www.w3.org/1999/xlink" contentScriptType="application/ecmascript" contentStyleType="text/css" height="577px" preserveAspectRatio="none" style="width:415px;height:577px;" version="1.1" viewBox="0 0 415 577" width="415px" zoomAndPan="magnify"><defs><filter height="300%" id="fw34fii3atm4j" width="300%" x="-1" y="-1"><feGaussianBlur result="blurOut" stdDeviation="2.0"/><feColorMatrix in="blurOut" result="blurOut2" type="matrix" values="0 0 0 0 0 0 0 0 0 0 0 0 0 0 0 0 0 0 .4 0"/><feOffset dx="4.0" dy="4.0" in="blurOut2" result="blurOut3"/><feBlend in="SourceGraphic" in2="blurOut3" mode="normal"/></filter></defs><g><!--MD5=[380d12a68ed0046a60f31008a02875d0]
class AplicacaoPOT--><rect codeLine="3" fill="#FEFECE" filter="url(#fw34fii3atm4j)" height="73.6094" id="AplicacaoPOT" style="stroke:#A80036;stroke-width:1.5;" width="130" x="7" y="275.5"/><ellipse cx="29.65" cy="291.5" fill="#ADD1B2" rx="11" ry="11" style="stroke:#A80036;stroke-width:1.0;"/><path d="M31.9938,287.1719 C31.0563,286.7344 30.4625,286.5938 29.5875,286.5938 C26.9625,286.5938 24.9625,288.6719 24.9625,291.3906 L24.9625,292.5156 C24.9625,295.0938 27.0719,296.9844 29.9625,296.9844 C31.1813,296.9844 32.3375,296.6875 33.0875,296.1406 C33.6656,295.7344 33.9938,295.2813 33.9938,294.8906 C33.9938,294.4375 33.6031,294.0469 33.1344,294.0469 C32.9156,294.0469 32.7125,294.125 32.525,294.3125 C32.0719,294.7969 32.0719,294.7969 31.8844,294.8906 C31.4625,295.1563 30.775,295.2813 30.0094,295.2813 C27.9625,295.2813 26.6656,294.1875 26.6656,292.4844 L26.6656,291.3906 C26.6656,289.6094 27.9156,288.2969 29.65,288.2969 C30.2281,288.2969 30.8375,288.4531 31.3063,288.7031 C31.7906,288.9844 31.9625,289.2031 32.0563,289.6094 C32.1188,290.0156 32.15,290.1406 32.2906,290.2656 C32.4313,290.4063 32.6656,290.5156 32.8844,290.5156 C33.15,290.5156 33.4156,290.375 33.5875,290.1563 C33.6969,290 33.7281,289.8125 33.7281,289.3906 L33.7281,287.9688 C33.7281,287.5313 33.7125,287.4063 33.6188,287.25 C33.4625,286.9844 33.1813,286.8438 32.8844,286.8438 C32.5875,286.8438 32.3844,286.9375 32.1656,287.25 L31.9938,287.1719 Z " fill="#000000"/><text fill="#000000" font-family="sans-serif" font-size="12" lengthAdjust="spacing" textLength="81" x="45.35" y="295.6543">AplicacaoPOT</text><line style="stroke:#A80036;stroke-width:1.5;" x1="8" x2="136" y1="307.5" y2="307.5"/><line style="stroke:#A80036;stroke-width:1.5;" x1="8" x2="136" y1="315.5" y2="315.5"/><text fill="#000000" font-family="sans-serif" font-size="11" lengthAdjust="spacing" textLength="118" x="13" y="329.7104">+static getInstance()</text><text fill="#000000" font-family="sans-serif" font-size="11" lengthAdjust="spacing" textLength="107" x="13" y="342.5151">+getSessaoAtual()</text><!--MD5=[3f1202280bfe3359d2f91fb9b6e32986]
class Estafeta--><rect codeLine="9" fill="#FEFECE" filter="url(#fw34fii3atm4j)" height="124.8281" id="Estafeta" style="stroke:#A80036;stroke-width:1.5;" width="209" x="132.5" y="439"/><ellipse cx="208.75" cy="455" fill="#ADD1B2" rx="11" ry="11" style="stroke:#A80036;stroke-width:1.0;"/><path d="M211.0938,450.6719 C210.1563,450.2344 209.5625,450.0938 208.6875,450.0938 C206.0625,450.0938 204.0625,452.1719 204.0625,454.8906 L204.0625,456.0156 C204.0625,458.5938 206.1719,460.4844 209.0625,460.4844 C210.2813,460.4844 211.4375,460.1875 212.1875,459.6406 C212.7656,459.2344 213.0938,458.7813 213.0938,458.3906 C213.0938,457.9375 212.7031,457.5469 212.2344,457.5469 C212.0156,457.5469 211.8125,457.625 211.625,457.8125 C211.1719,458.2969 211.1719,458.2969 210.9844,458.3906 C210.5625,458.6563 209.875,458.7813 209.1094,458.7813 C207.0625,458.7813 205.7656,457.6875 205.7656,455.9844 L205.7656,454.8906 C205.7656,453.1094 207.0156,451.7969 208.75,451.7969 C209.3281,451.7969 209.9375,451.9531 210.4063,452.2031 C210.8906,452.4844 211.0625,452.7031 211.1563,453.1094 C211.2188,453.5156 211.25,453.6406 211.3906,453.7656 C211.5313,453.9063 211.7656,454.0156 211.9844,454.0156 C212.25,454.0156 212.5156,453.875 212.6875,453.6563 C212.7969,453.5 212.8281,453.3125 212.8281,452.8906 L212.8281,451.4688 C212.8281,451.0313 212.8125,450.9063 212.7188,450.75 C212.5625,450.4844 212.2813,450.3438 211.9844,450.3438 C211.6875,450.3438 211.4844,450.4375 211.2656,450.75 L211.0938,450.6719 Z " fill="#000000"/><text fill="#000000" font-family="sans-serif" font-size="12" lengthAdjust="spacing" textLength="48" x="229.25" y="459.1543">Estafeta</text><line style="stroke:#A80036;stroke-width:1.5;" x1="133.5" x2="340.5" y1="471" y2="471"/><text fill="#000000" font-family="sans-serif" font-size="11" lengthAdjust="spacing" textLength="55" x="138.5" y="485.2104">-String nif</text><text fill="#000000" font-family="sans-serif" font-size="11" lengthAdjust="spacing" textLength="74" x="138.5" y="498.0151">-String nome</text><text fill="#000000" font-family="sans-serif" font-size="11" lengthAdjust="spacing" textLength="73" x="138.5" y="510.8198">-String email</text><text fill="#000000" font-family="sans-serif" font-size="11" lengthAdjust="spacing" textLength="68" x="138.5" y="523.6245">-Integer nss</text><text fill="#000000" font-family="sans-serif" font-size="11" lengthAdjust="spacing" textLength="64" x="138.5" y="536.4292">-String pwd</text><line style="stroke:#A80036;stroke-width:1.5;" x1="133.5" x2="340.5" y1="543.0234" y2="543.0234"/><text fill="#000000" font-family="sans-serif" font-size="11" lengthAdjust="spacing" textLength="197" x="138.5" y="557.2339">+Estafeta(nif,nome,email,nss,pwd)</text><!--MD5=[4ac2c1498d2c03198090a24b8c54d335]
class EstafetaDB--><rect codeLine="18" fill="#FEFECE" filter="url(#fw34fii3atm4j)" height="99.2188" id="EstafetaDB" style="stroke:#A80036;stroke-width:1.5;" width="158" x="243" y="263"/><ellipse cx="285.45" cy="279" fill="#ADD1B2" rx="11" ry="11" style="stroke:#A80036;stroke-width:1.0;"/><path d="M287.7938,274.6719 C286.8563,274.2344 286.2625,274.0938 285.3875,274.0938 C282.7625,274.0938 280.7625,276.1719 280.7625,278.8906 L280.7625,280.0156 C280.7625,282.5938 282.8719,284.4844 285.7625,284.4844 C286.9813,284.4844 288.1375,284.1875 288.8875,283.6406 C289.4656,283.2344 289.7938,282.7813 289.7938,282.3906 C289.7938,281.9375 289.4031,281.5469 288.9344,281.5469 C288.7156,281.5469 288.5125,281.625 288.325,281.8125 C287.8719,282.2969 287.8719,282.2969 287.6844,282.3906 C287.2625,282.6563 286.575,282.7813 285.8094,282.7813 C283.7625,282.7813 282.4656,281.6875 282.4656,279.9844 L282.4656,278.8906 C282.4656,277.1094 283.7156,275.7969 285.45,275.7969 C286.0281,275.7969 286.6375,275.9531 287.1063,276.2031 C287.5906,276.4844 287.7625,276.7031 287.8563,277.1094 C287.9188,277.5156 287.95,277.6406 288.0906,277.7656 C288.2313,277.9063 288.4656,278.0156 288.6844,278.0156 C288.95,278.0156 289.2156,277.875 289.3875,277.6563 C289.4969,277.5 289.5281,277.3125 289.5281,276.8906 L289.5281,275.4688 C289.5281,275.0313 289.5125,274.9063 289.4188,274.75 C289.2625,274.4844 288.9813,274.3438 288.6844,274.3438 C288.3875,274.3438 288.1844,274.4375 287.9656,274.75 L287.7938,274.6719 Z " fill="#000000"/><text fill="#000000" font-family="sans-serif" font-size="12" lengthAdjust="spacing" textLength="65" x="305.55" y="283.1543">EstafetaDB</text><line style="stroke:#A80036;stroke-width:1.5;" x1="244" x2="400" y1="295" y2="295"/><line style="stroke:#A80036;stroke-width:1.5;" x1="244" x2="400" y1="303" y2="303"/><text fill="#000000" font-family="sans-serif" font-size="11" lengthAdjust="spacing" textLength="115" x="249" y="317.2104">+getListaEstafetas()</text><text fill="#000000" font-family="sans-serif" font-size="11" lengthAdjust="spacing" textLength="146" x="249" y="330.0151">+getEstafetaByNIF(nifEst)</text><text fill="#000000" font-family="sans-serif" font-size="11" lengthAdjust="spacing" textLength="131" x="249" y="342.8198">+atualizarEstafeta(est)</text><text fill="#000000" font-family="sans-serif" font-size="11" lengthAdjust="spacing" textLength="130" x="249" y="355.6245">+validaListaEstafetas()</text><!--MD5=[0d3384f2af0e00f649b5e1ab009522d4]
class AtualizarEstafetaController--><rect codeLine="25" fill="#FEFECE" filter="url(#fw34fii3atm4j)" height="86.4141" id="AtualizarEstafetaController" style="stroke:#A80036;stroke-width:1.5;" width="190" x="95" y="116"/><ellipse cx="110" cy="132" fill="#ADD1B2" rx="11" ry="11" style="stroke:#A80036;stroke-width:1.0;"/><path d="M112.3438,127.6719 C111.4063,127.2344 110.8125,127.0938 109.9375,127.0938 C107.3125,127.0938 105.3125,129.1719 105.3125,131.8906 L105.3125,133.0156 C105.3125,135.5938 107.4219,137.4844 110.3125,137.4844 C111.5313,137.4844 112.6875,137.1875 113.4375,136.6406 C114.0156,136.2344 114.3438,135.7813 114.3438,135.3906 C114.3438,134.9375 113.9531,134.5469 113.4844,134.5469 C113.2656,134.5469 113.0625,134.625 112.875,134.8125 C112.4219,135.2969 112.4219,135.2969 112.2344,135.3906 C111.8125,135.6563 111.125,135.7813 110.3594,135.7813 C108.3125,135.7813 107.0156,134.6875 107.0156,132.9844 L107.0156,131.8906 C107.0156,130.1094 108.2656,128.7969 110,128.7969 C110.5781,128.7969 111.1875,128.9531 111.6563,129.2031 C112.1406,129.4844 112.3125,129.7031 112.4063,130.1094 C112.4688,130.5156 112.5,130.6406 112.6406,130.7656 C112.7813,130.9063 113.0156,131.0156 113.2344,131.0156 C113.5,131.0156 113.7656,130.875 113.9375,130.6563 C114.0469,130.5 114.0781,130.3125 114.0781,129.8906 L114.0781,128.4688 C114.0781,128.0313 114.0625,127.9063 113.9688,127.75 C113.8125,127.4844 113.5313,127.3438 113.2344,127.3438 C112.9375,127.3438 112.7344,127.4375 112.5156,127.75 L112.3438,127.6719 Z " fill="#000000"/><text fill="#000000" font-family="sans-serif" font-size="12" lengthAdjust="spacing" textLength="158" x="124" y="136.1543">AtualizarEstafetaController</text><line style="stroke:#A80036;stroke-width:1.5;" x1="96" x2="284" y1="148" y2="148"/><line style="stroke:#A80036;stroke-width:1.5;" x1="96" x2="284" y1="156" y2="156"/><text fill="#000000" font-family="sans-serif" font-size="11" lengthAdjust="spacing" textLength="146" x="101" y="170.2104">+getEstafetaByNIF(nifEst)</text><text fill="#000000" font-family="sans-serif" font-size="11" lengthAdjust="spacing" textLength="113" x="101" y="183.0151">+atualizarEstafeta()</text><text fill="#000000" font-family="sans-serif" font-size="11" lengthAdjust="spacing" textLength="115" x="101" y="195.8198">+getListaEstafetas()</text><!--MD5=[fa83a4abb374b90d4a4dc26708631948]
class AtualizarEstafetaUI--><rect codeLine="31" fill="#FEFECE" filter="url(#fw34fii3atm4j)" height="48" id="AtualizarEstafetaUI" style="stroke:#A80036;stroke-width:1.5;" width="143" x="118.5" y="7"/><ellipse cx="133.5" cy="23" fill="#ADD1B2" rx="11" ry="11" style="stroke:#A80036;stroke-width:1.0;"/><path d="M135.8438,18.6719 C134.9063,18.2344 134.3125,18.0938 133.4375,18.0938 C130.8125,18.0938 128.8125,20.1719 128.8125,22.8906 L128.8125,24.0156 C128.8125,26.5938 130.9219,28.4844 133.8125,28.4844 C135.0313,28.4844 136.1875,28.1875 136.9375,27.6406 C137.5156,27.2344 137.8438,26.7813 137.8438,26.3906 C137.8438,25.9375 137.4531,25.5469 136.9844,25.5469 C136.7656,25.5469 136.5625,25.625 136.375,25.8125 C135.9219,26.2969 135.9219,26.2969 135.7344,26.3906 C135.3125,26.6563 134.625,26.7813 133.8594,26.7813 C131.8125,26.7813 130.5156,25.6875 130.5156,23.9844 L130.5156,22.8906 C130.5156,21.1094 131.7656,19.7969 133.5,19.7969 C134.0781,19.7969 134.6875,19.9531 135.1563,20.2031 C135.6406,20.4844 135.8125,20.7031 135.9063,21.1094 C135.9688,21.5156 136,21.6406 136.1406,21.7656 C136.2813,21.9063 136.5156,22.0156 136.7344,22.0156 C137,22.0156 137.2656,21.875 137.4375,21.6563 C137.5469,21.5 137.5781,21.3125 137.5781,20.8906 L137.5781,19.4688 C137.5781,19.0313 137.5625,18.9063 137.4688,18.75 C137.3125,18.4844 137.0313,18.3438 136.7344,18.3438 C136.4375,18.3438 136.2344,18.4375 136.0156,18.75 L135.8438,18.6719 Z " fill="#000000"/><text fill="#000000" font-family="sans-serif" font-size="12" lengthAdjust="spacing" textLength="111" x="147.5" y="27.1543">AtualizarEstafetaUI</text><line style="stroke:#A80036;stroke-width:1.5;" x1="119.5" x2="260.5" y1="39" y2="39"/><line style="stroke:#A80036;stroke-width:1.5;" x1="119.5" x2="260.5" y1="47" y2="47"/><!--MD5=[4647613ef2627236954d0f089e972c49]
link AtualizarEstafetaUI to AtualizarEstafetaController--><path codeLine="34" d="M190,55.11 C190,70.631 190,91.639 190,110.625 " fill="none" id="AtualizarEstafetaUI-to-AtualizarEstafetaController" style="stroke:#A80036;stroke-width:1.0;stroke-dasharray:7.0,7.0;"/><polygon fill="#A80036" points="190,115.921,194,106.921,190,110.921,186,106.921,190,115.921" style="stroke:#A80036;stroke-width:1.0;"/><!--MD5=[d60a4a1ecb831dd49fb3e57cf86a3282]
link AtualizarEstafetaController to EstafetaDB--><path codeLine="35" d="M226.769,202.201 C242.017,219.702 259.874,240.196 275.978,258.68 " fill="none" id="AtualizarEstafetaController-to-EstafetaDB" style="stroke:#A80036;stroke-width:1.0;stroke-dasharray:7.0,7.0;"/><polygon fill="#A80036" points="279.6,262.837,276.7043,253.4235,276.3157,259.067,270.6722,258.6784,279.6,262.837" style="stroke:#A80036;stroke-width:1.0;"/><!--MD5=[c18032344f3be304bf06bf31e8beae50]
link AtualizarEstafetaController to Estafeta--><path codeLine="36" d="M195.81,202.093 C203.805,260.014 218.284,364.906 227.77,433.63 " fill="none" id="AtualizarEstafetaController-to-Estafeta" style="stroke:#A80036;stroke-width:1.0;stroke-dasharray:7.0,7.0;"/><polygon fill="#A80036" points="228.501,438.926,231.2347,429.4641,227.8183,433.9728,223.3096,430.5565,228.501,438.926" style="stroke:#A80036;stroke-width:1.0;"/><!--MD5=[2cce7831fa35d1666a48d06678d8edff]
link AtualizarEstafetaController to AplicacaoPOT--><path codeLine="37" d="M157.13,202.201 C140.316,223.789 119.954,249.932 103.3605,271.236 " fill="none" id="AtualizarEstafetaController-to-AplicacaoPOT" style="stroke:#A80036;stroke-width:1.0;stroke-dasharray:7.0,7.0;"/><polygon fill="#A80036" points="100.0941,275.43,108.7805,270.7881,103.1668,271.4855,102.4693,265.8718,100.0941,275.43" style="stroke:#A80036;stroke-width:1.0;"/><!--MD5=[a3e63c72779e49a48819b249af53bae4]
link EstafetaDB to Estafeta--><path codeLine="39" d="M299.889,362.144 C289.928,384.058 278.009,410.28 267.239,433.975 " fill="none" id="EstafetaDB-to-Estafeta" style="stroke:#A80036;stroke-width:1.0;"/><polygon fill="#A80036" points="265.101,438.678,272.4664,432.1396,267.1698,434.1261,265.1833,428.8295,265.101,438.678" style="stroke:#A80036;stroke-width:1.0;"/><text fill="#000000" font-family="sans-serif" font-size="13" lengthAdjust="spacing" textLength="97" x="286" y="405.0669">tem registadas</text><text fill="#000000" font-family="sans-serif" font-size="13" lengthAdjust="spacing" textLength="8" x="288.2171" y="382.2407">1</text><text fill="#000000" font-family="sans-serif" font-size="13" lengthAdjust="spacing" textLength="7" x="260.7917" y="428.0701">*</text><!--MD5=[9b246356b41dca0948e73bb0793353c7]
@startuml
skinparam classAttributeIconSize 0

class AplicacaoPOT
{
  +static getInstance()
  +getSessaoAtual()
}

class Estafeta {
  -String nif
  -String nome
  -String email
  -Integer nss
  -String pwd
  +Estafeta(nif,nome,email,nss,pwd)
}

class EstafetaDB {
  +getListaEstafetas()
  +getEstafetaByNIF(nifEst)
  +atualizarEstafeta(est)
  +validaListaEstafetas()
}

class AtualizarEstafetaController {
    +getEstafetaByNIF(nifEst)
    +atualizarEstafeta()
    +getListaEstafetas()
}

class AtualizarEstafetaUI {
}

AtualizarEstafetaUI ..> AtualizarEstafetaController
AtualizarEstafetaController ..> EstafetaDB
AtualizarEstafetaController ..> Estafeta
AtualizarEstafetaController ..> AplicacaoPOT

EstafetaDB "1" - -> "*" Estafeta : tem registadas
@enduml

PlantUML version 1.2020.27beta7(Unknown compile time)
(GPL source distribution)
Java Runtime: Java(TM) SE Runtime Environment
JVM: Java HotSpot(TM) 64-Bit Server VM
Default Encoding: UTF-8
Language: en
Country: US
--></g></svg>