<?xml version="1.0" encoding="UTF-8" standalone="no"?><svg xmlns="http://www.w3.org/2000/svg" xmlns:xlink="http://www.w3.org/1999/xlink" contentScriptType="application/ecmascript" contentStyleType="text/css" height="264px" preserveAspectRatio="none" style="width:858px;height:264px;" version="1.1" viewBox="0 0 858 264" width="858px" zoomAndPan="magnify"><defs><filter height="300%" id="f1w3yuo6wsni2m" width="300%" x="-1" y="-1"><feGaussianBlur result="blurOut" stdDeviation="2.0"/><feColorMatrix in="blurOut" result="blurOut2" type="matrix" values="0 0 0 0 0 0 0 0 0 0 0 0 0 0 0 0 0 0 .4 0"/><feOffset dx="4.0" dy="4.0" in="blurOut2" result="blurOut3"/><feBlend in="SourceGraphic" in2="blurOut3" mode="normal"/></filter></defs><g><!--MD5=[1a083dbe42a284ae0ea7f6f701783206]
class Parque--><rect codeLine="5" fill="#FEFECE" filter="url(#f1w3yuo6wsni2m)" height="78.4141" id="Parque" style="stroke:#A80036;stroke-width:1.5;" width="104" x="479.5" y="33"/><ellipse cx="508.45" cy="49" fill="#ADD1B2" rx="11" ry="11" style="stroke:#A80036;stroke-width:1.0;"/><path d="M510.7938,44.6719 C509.8563,44.2344 509.2625,44.0938 508.3875,44.0938 C505.7625,44.0938 503.7625,46.1719 503.7625,48.8906 L503.7625,50.0156 C503.7625,52.5938 505.8719,54.4844 508.7625,54.4844 C509.9813,54.4844 511.1375,54.1875 511.8875,53.6406 C512.4656,53.2344 512.7938,52.7813 512.7938,52.3906 C512.7938,51.9375 512.4031,51.5469 511.9344,51.5469 C511.7156,51.5469 511.5125,51.625 511.325,51.8125 C510.8719,52.2969 510.8719,52.2969 510.6844,52.3906 C510.2625,52.6563 509.575,52.7813 508.8094,52.7813 C506.7625,52.7813 505.4656,51.6875 505.4656,49.9844 L505.4656,48.8906 C505.4656,47.1094 506.7156,45.7969 508.45,45.7969 C509.0281,45.7969 509.6375,45.9531 510.1063,46.2031 C510.5906,46.4844 510.7625,46.7031 510.8563,47.1094 C510.9188,47.5156 510.95,47.6406 511.0906,47.7656 C511.2313,47.9063 511.4656,48.0156 511.6844,48.0156 C511.95,48.0156 512.2156,47.875 512.3875,47.6563 C512.4969,47.5 512.5281,47.3125 512.5281,46.8906 L512.5281,45.4688 C512.5281,45.0313 512.5125,44.9063 512.4188,44.75 C512.2625,44.4844 511.9813,44.3438 511.6844,44.3438 C511.3875,44.3438 511.1844,44.4375 510.9656,44.75 L510.7938,44.6719 Z " fill="#000000"/><text fill="#000000" font-family="sans-serif" font-size="12" lengthAdjust="spacing" textLength="41" x="525.55" y="53.1543">Parque</text><line style="stroke:#A80036;stroke-width:1.5;" x1="480.5" x2="582.5" y1="65" y2="65"/><text fill="#000000" font-family="sans-serif" font-size="11" lengthAdjust="spacing" textLength="53" x="485.5" y="79.2104">-idParque</text><text fill="#000000" font-family="sans-serif" font-size="11" lengthAdjust="spacing" textLength="92" x="485.5" y="92.0151">-numeroMaximo</text><text fill="#000000" font-family="sans-serif" font-size="11" lengthAdjust="spacing" textLength="25" x="485.5" y="104.8198">-tipo</text><!--MD5=[6613c9cd406ef433ff06f5e98b28abd9]
class Farmacia--><rect codeLine="11" fill="#FEFECE" filter="url(#f1w3yuo6wsni2m)" height="78.4141" id="Farmacia" style="stroke:#A80036;stroke-width:1.5;" width="86" x="7" y="66"/><ellipse cx="22" cy="82" fill="#ADD1B2" rx="11" ry="11" style="stroke:#A80036;stroke-width:1.0;"/><path d="M24.3438,77.6719 C23.4063,77.2344 22.8125,77.0938 21.9375,77.0938 C19.3125,77.0938 17.3125,79.1719 17.3125,81.8906 L17.3125,83.0156 C17.3125,85.5938 19.4219,87.4844 22.3125,87.4844 C23.5313,87.4844 24.6875,87.1875 25.4375,86.6406 C26.0156,86.2344 26.3438,85.7813 26.3438,85.3906 C26.3438,84.9375 25.9531,84.5469 25.4844,84.5469 C25.2656,84.5469 25.0625,84.625 24.875,84.8125 C24.4219,85.2969 24.4219,85.2969 24.2344,85.3906 C23.8125,85.6563 23.125,85.7813 22.3594,85.7813 C20.3125,85.7813 19.0156,84.6875 19.0156,82.9844 L19.0156,81.8906 C19.0156,80.1094 20.2656,78.7969 22,78.7969 C22.5781,78.7969 23.1875,78.9531 23.6563,79.2031 C24.1406,79.4844 24.3125,79.7031 24.4063,80.1094 C24.4688,80.5156 24.5,80.6406 24.6406,80.7656 C24.7813,80.9063 25.0156,81.0156 25.2344,81.0156 C25.5,81.0156 25.7656,80.875 25.9375,80.6563 C26.0469,80.5 26.0781,80.3125 26.0781,79.8906 L26.0781,78.4688 C26.0781,78.0313 26.0625,77.9063 25.9688,77.75 C25.8125,77.4844 25.5313,77.3438 25.2344,77.3438 C24.9375,77.3438 24.7344,77.4375 24.5156,77.75 L24.3438,77.6719 Z " fill="#000000"/><text fill="#000000" font-family="sans-serif" font-size="12" lengthAdjust="spacing" textLength="54" x="36" y="86.1543">Farmacia</text><line style="stroke:#A80036;stroke-width:1.5;" x1="8" x2="92" y1="98" y2="98"/><text fill="#000000" font-family="sans-serif" font-size="11" lengthAdjust="spacing" textLength="21" x="13" y="112.2104">-NIF</text><text fill="#000000" font-family="sans-serif" font-size="11" lengthAdjust="spacing" textLength="36" x="13" y="125.0151">-email</text><text fill="#000000" font-family="sans-serif" font-size="11" lengthAdjust="spacing" textLength="47" x="13" y="137.8198">-morada</text><!--MD5=[5dd1d6732c071e710b9290b531f2fa3b]
class Utilizador--><rect codeLine="17" fill="#FEFECE" filter="url(#f1w3yuo6wsni2m)" height="104.0234" id="Utilizador" style="stroke:#A80036;stroke-width:1.5;" width="155" x="454" y="146"/><ellipse cx="498.75" cy="162" fill="#ADD1B2" rx="11" ry="11" style="stroke:#A80036;stroke-width:1.0;"/><path d="M501.0938,157.6719 C500.1563,157.2344 499.5625,157.0938 498.6875,157.0938 C496.0625,157.0938 494.0625,159.1719 494.0625,161.8906 L494.0625,163.0156 C494.0625,165.5938 496.1719,167.4844 499.0625,167.4844 C500.2813,167.4844 501.4375,167.1875 502.1875,166.6406 C502.7656,166.2344 503.0938,165.7813 503.0938,165.3906 C503.0938,164.9375 502.7031,164.5469 502.2344,164.5469 C502.0156,164.5469 501.8125,164.625 501.625,164.8125 C501.1719,165.2969 501.1719,165.2969 500.9844,165.3906 C500.5625,165.6563 499.875,165.7813 499.1094,165.7813 C497.0625,165.7813 495.7656,164.6875 495.7656,162.9844 L495.7656,161.8906 C495.7656,160.1094 497.0156,158.7969 498.75,158.7969 C499.3281,158.7969 499.9375,158.9531 500.4063,159.2031 C500.8906,159.4844 501.0625,159.7031 501.1563,160.1094 C501.2188,160.5156 501.25,160.6406 501.3906,160.7656 C501.5313,160.9063 501.7656,161.0156 501.9844,161.0156 C502.25,161.0156 502.5156,160.875 502.6875,160.6563 C502.7969,160.5 502.8281,160.3125 502.8281,159.8906 L502.8281,158.4688 C502.8281,158.0313 502.8125,157.9063 502.7188,157.75 C502.5625,157.4844 502.2813,157.3438 501.9844,157.3438 C501.6875,157.3438 501.4844,157.4375 501.2656,157.75 L501.0938,157.6719 Z " fill="#000000"/><text fill="#000000" font-family="sans-serif" font-size="12" lengthAdjust="spacing" textLength="57" x="519.25" y="166.1543">Utilizador</text><line style="stroke:#A80036;stroke-width:1.5;" x1="455" x2="608" y1="178" y2="178"/><text fill="#000000" font-family="sans-serif" font-size="11" lengthAdjust="spacing" textLength="21" x="460" y="192.2104">-NIF</text><text fill="#000000" font-family="sans-serif" font-size="11" lengthAdjust="spacing" textLength="37" x="460" y="205.0151">-nome</text><text fill="#000000" font-family="sans-serif" font-size="11" lengthAdjust="spacing" textLength="36" x="460" y="217.8198">-email</text><text fill="#000000" font-family="sans-serif" font-size="11" lengthAdjust="spacing" textLength="143" x="460" y="230.6245">-numeroSegurancaSocial</text><text fill="#000000" font-family="sans-serif" font-size="11" lengthAdjust="spacing" textLength="57" x="460" y="243.4292">-password</text><!--MD5=[8505c5852735283b5a8424161266bb9f]
class Veiculo--><rect codeLine="25" fill="#FEFECE" filter="url(#f1w3yuo6wsni2m)" height="129.6328" id="Veiculo" style="stroke:#A80036;stroke-width:1.5;" width="134" x="710" y="7"/><ellipse cx="751.1" cy="23" fill="#ADD1B2" rx="11" ry="11" style="stroke:#A80036;stroke-width:1.0;"/><path d="M753.4438,18.6719 C752.5063,18.2344 751.9125,18.0938 751.0375,18.0938 C748.4125,18.0938 746.4125,20.1719 746.4125,22.8906 L746.4125,24.0156 C746.4125,26.5938 748.5219,28.4844 751.4125,28.4844 C752.6313,28.4844 753.7875,28.1875 754.5375,27.6406 C755.1156,27.2344 755.4438,26.7813 755.4438,26.3906 C755.4438,25.9375 755.0531,25.5469 754.5844,25.5469 C754.3656,25.5469 754.1625,25.625 753.975,25.8125 C753.5219,26.2969 753.5219,26.2969 753.3344,26.3906 C752.9125,26.6563 752.225,26.7813 751.4594,26.7813 C749.4125,26.7813 748.1156,25.6875 748.1156,23.9844 L748.1156,22.8906 C748.1156,21.1094 749.3656,19.7969 751.1,19.7969 C751.6781,19.7969 752.2875,19.9531 752.7563,20.2031 C753.2406,20.4844 753.4125,20.7031 753.5063,21.1094 C753.5688,21.5156 753.6,21.6406 753.7406,21.7656 C753.8813,21.9063 754.1156,22.0156 754.3344,22.0156 C754.6,22.0156 754.8656,21.875 755.0375,21.6563 C755.1469,21.5 755.1781,21.3125 755.1781,20.8906 L755.1781,19.4688 C755.1781,19.0313 755.1625,18.9063 755.0688,18.75 C754.9125,18.4844 754.6313,18.3438 754.3344,18.3438 C754.0375,18.3438 753.8344,18.4375 753.6156,18.75 L753.4438,18.6719 Z " fill="#000000"/><text fill="#000000" font-family="sans-serif" font-size="12" lengthAdjust="spacing" textLength="44" x="770.9" y="27.1543">Veiculo</text><line style="stroke:#A80036;stroke-width:1.5;" x1="711" x2="843" y1="39" y2="39"/><text fill="#000000" font-family="sans-serif" font-size="11" lengthAdjust="spacing" textLength="56" x="716" y="53.2104">-idVeiculo</text><text fill="#000000" font-family="sans-serif" font-size="11" lengthAdjust="spacing" textLength="25" x="716" y="66.0151">-tipo</text><text fill="#000000" font-family="sans-serif" font-size="11" lengthAdjust="spacing" textLength="122" x="716" y="78.8198">-percentagemBateria</text><text fill="#000000" font-family="sans-serif" font-size="11" lengthAdjust="spacing" textLength="76" x="716" y="91.6245">-pesoMaximo</text><text fill="#000000" font-family="sans-serif" font-size="11" lengthAdjust="spacing" textLength="74" x="716" y="104.4292">-pesoVeiculo</text><text fill="#000000" font-family="sans-serif" font-size="11" lengthAdjust="spacing" textLength="53" x="716" y="117.2339">-potencia</text><text fill="#000000" font-family="sans-serif" font-size="11" lengthAdjust="spacing" textLength="68" x="716" y="130.0386">-areaFrontal</text><!--MD5=[fdcda49d453d44c676d62f3f6af62207]
class Administrador--><rect fill="#FEFECE" filter="url(#f1w3yuo6wsni2m)" height="40" id="Administrador" style="stroke:#A80036;stroke-width:1.5;" width="116" x="194" y="142"/><ellipse cx="209" cy="158" fill="#ADD1B2" rx="11" ry="11" style="stroke:#A80036;stroke-width:1.0;"/><path d="M211.3438,153.6719 C210.4063,153.2344 209.8125,153.0938 208.9375,153.0938 C206.3125,153.0938 204.3125,155.1719 204.3125,157.8906 L204.3125,159.0156 C204.3125,161.5938 206.4219,163.4844 209.3125,163.4844 C210.5313,163.4844 211.6875,163.1875 212.4375,162.6406 C213.0156,162.2344 213.3438,161.7813 213.3438,161.3906 C213.3438,160.9375 212.9531,160.5469 212.4844,160.5469 C212.2656,160.5469 212.0625,160.625 211.875,160.8125 C211.4219,161.2969 211.4219,161.2969 211.2344,161.3906 C210.8125,161.6563 210.125,161.7813 209.3594,161.7813 C207.3125,161.7813 206.0156,160.6875 206.0156,158.9844 L206.0156,157.8906 C206.0156,156.1094 207.2656,154.7969 209,154.7969 C209.5781,154.7969 210.1875,154.9531 210.6563,155.2031 C211.1406,155.4844 211.3125,155.7031 211.4063,156.1094 C211.4688,156.5156 211.5,156.6406 211.6406,156.7656 C211.7813,156.9063 212.0156,157.0156 212.2344,157.0156 C212.5,157.0156 212.7656,156.875 212.9375,156.6563 C213.0469,156.5 213.0781,156.3125 213.0781,155.8906 L213.0781,154.4688 C213.0781,154.0313 213.0625,153.9063 212.9688,153.75 C212.8125,153.4844 212.5313,153.3438 212.2344,153.3438 C211.9375,153.3438 211.7344,153.4375 211.5156,153.75 L211.3438,153.6719 Z " fill="#000000"/><text fill="#000000" font-family="sans-serif" font-size="12" lengthAdjust="spacing" textLength="84" x="223" y="162.1543">Administrador</text><line style="stroke:#A80036;stroke-width:1.5;" x1="195" x2="309" y1="174" y2="174"/><!--MD5=[b4161b205744775e44f73e41ced309e0]
link Administrador to Utilizador--><path codeLine="35" d="M310.187,179.5731 C320.052,182.0866 330.265,184.3685 340,186 C377.095,192.2164 418.743,195.2794 453.616,196.7633 " fill="none" id="Administrador-Utilizador" style="stroke:#A80036;stroke-width:1.0;"/><polygon fill="#000000" points="349.9645,178.1614,341.3334,174.167,340.6339,180.0031,349.9645,178.1614" style="stroke:#000000;stroke-width:1.0;"/><text fill="#000000" font-family="sans-serif" font-size="13" lengthAdjust="spacing" textLength="69" x="354" y="182.0669">atua como</text><text fill="#000000" font-family="sans-serif" font-size="13" lengthAdjust="spacing" textLength="8" x="318.1547" y="194.861">1</text><text fill="#000000" font-family="sans-serif" font-size="13" lengthAdjust="spacing" textLength="8" x="438.0673" y="209.4126">1</text><!--MD5=[6ba179a0a54b0b32b52757b8e4d27c6d]
link Administrador to Parque--><path codeLine="36" d="M310.109,148.066 C343.582,139.462 386.52,127.67 424,115 C442.323,108.806 462.051,101.132 479.488,93.99 " fill="none" id="Administrador-Parque" style="stroke:#A80036;stroke-width:1.0;"/><polygon fill="#000000" points="359.2631,105.0457,349.7527,104.997,351.5404,110.5964,359.2631,105.0457" style="stroke:#000000;stroke-width:1.0;"/><text fill="#000000" font-family="sans-serif" font-size="13" lengthAdjust="spacing" textLength="50" x="363.5" y="111.0669">remove</text><text fill="#000000" font-family="sans-serif" font-size="13" lengthAdjust="spacing" textLength="8" x="318.0667" y="159.317">1</text><text fill="#000000" font-family="sans-serif" font-size="13" lengthAdjust="spacing" textLength="23" x="448.3505" y="109.8173">1..*</text><!--MD5=[4f96609c99ecadb81dc825d0ae539cef]
link Farmacia to Parque--><path codeLine="37" d="M93.1322,102.1 C181.116,96.045 384.083,82.077 479.36,75.52 " fill="none" id="Farmacia-Parque" style="stroke:#A80036;stroke-width:1.0;"/><polygon fill="#000000" points="241.4882,78.2231,232.2627,75.9121,232.6662,81.7761,241.4882,78.2231" style="stroke:#000000;stroke-width:1.0;"/><text fill="#000000" font-family="sans-serif" font-size="13" lengthAdjust="spacing" textLength="26" x="245.5" y="83.0669">tem</text><text fill="#000000" font-family="sans-serif" font-size="13" lengthAdjust="spacing" textLength="8" x="100.9385" y="97.4211">1</text><text fill="#000000" font-family="sans-serif" font-size="13" lengthAdjust="spacing" textLength="8" x="463.4653" y="89.1168">1</text><!--MD5=[1eb578f81baca05fae5600e8efb79c07]
link Farmacia to Administrador--><path codeLine="38" d="M93.4149,117.088 C122.654,125.421 161.858,136.594 193.847,145.711 " fill="none" id="Farmacia-Administrador" style="stroke:#A80036;stroke-width:1.0;"/><polygon fill="#000000" points="132.8085,118.9368,124.9153,113.6313,123.3043,119.2841,132.8085,118.9368" style="stroke:#000000;stroke-width:1.0;"/><text fill="#000000" font-family="sans-serif" font-size="13" lengthAdjust="spacing" textLength="26" x="137" y="122.0669">tem</text><text fill="#000000" font-family="sans-serif" font-size="13" lengthAdjust="spacing" textLength="8" x="100.9716" y="132.2543">1</text><text fill="#000000" font-family="sans-serif" font-size="13" lengthAdjust="spacing" textLength="8" x="177.8836" y="156.6603">1</text><!--MD5=[639e2fc5a451b1bb392d1ae296701488]
link Parque to Veiculo--><path codeLine="39" d="M583.546,72 C620.223,72 670.001,72 709.743,72 " fill="none" id="Parque-Veiculo" style="stroke:#A80036;stroke-width:1.0;"/><polygon fill="#000000" points="649,63.5664,639.9549,60.6275,639.9549,66.5053,649,63.5664" style="stroke:#000000;stroke-width:1.0;"/><text fill="#000000" font-family="sans-serif" font-size="13" lengthAdjust="spacing" textLength="26" x="653" y="68.0669">tem</text><text fill="#000000" font-family="sans-serif" font-size="13" lengthAdjust="spacing" textLength="8" x="591.4275" y="85.1018">1</text><text fill="#000000" font-family="sans-serif" font-size="13" lengthAdjust="spacing" textLength="23" x="678.9904" y="84.8298">0..*</text><!--MD5=[5fb33e7bd9eb5f3ab7976bff0045fa6f]
@startuml
skinparam classAttributeIconSize 0
hide methods
left to right direction

class Parque {
  -idParque
  -numeroMaximo
  -tipo
}

class Farmacia {
  -NIF
  -email
  -morada
}

class Utilizador {
  -NIF
  -nome
  -email
  -numeroSegurancaSocial
  -password
}

class Veiculo {
  -idVeiculo
  -tipo
  -percentagemBateria
  -pesoMaximo
  -pesoVeiculo
  -potencia
  -areaFrontal
}

Administrador "1" - - "1" Utilizador: atua como >
Administrador "1" - - "1..*" Parque: remove >
Farmacia "1" - - "1" Parque: tem >
Farmacia "1" - - "1" Administrador: tem >
Parque "1" - - "0..*" Veiculo: tem >
@enduml

PlantUML version 1.2021.01beta3(Unknown compile time)
(GPL source distribution)
Java Runtime: Java(TM) SE Runtime Environment
JVM: Java HotSpot(TM) 64-Bit Server VM
Default Encoding: UTF-8
Language: en
Country: US
--></g></svg>