<?xml version="1.0" encoding="UTF-8" standalone="no"?><svg xmlns="http://www.w3.org/2000/svg" xmlns:xlink="http://www.w3.org/1999/xlink" contentScriptType="application/ecmascript" contentStyleType="text/css" height="343.75px" preserveAspectRatio="none" style="width:1186px;height:343px;" version="1.1" viewBox="0 0 1186 343" width="1186.25px" zoomAndPan="magnify"><defs><filter height="300%" id="ftpf3brw9b7v8" width="300%" x="-1" y="-1"><feGaussianBlur result="blurOut" stdDeviation="2.5"/><feColorMatrix in="blurOut" result="blurOut2" type="matrix" values="0 0 0 0 0 0 0 0 0 0 0 0 0 0 0 0 0 0 .4 0"/><feOffset dx="5.0" dy="5.0" in="blurOut2" result="blurOut3"/><feBlend in="SourceGraphic" in2="blurOut3" mode="normal"/></filter></defs><g><!--MD5=[1a083dbe42a284ae0ea7f6f701783206]
class Parque--><rect codeLine="5" fill="#FEFECE" filter="url(#ftpf3brw9b7v8)" height="101.8848" id="Parque" style="stroke:#A80036;stroke-width:1.875;" width="110" x="570" y="43.125"/><ellipse cx="597.75" cy="63.125" fill="#ADD1B2" rx="13.75" ry="13.75" style="stroke:#A80036;stroke-width:1.25;"/><path d="M600.25,58.75 Q600.5039,58.125 600.7969,57.8125 Q601.0898,57.5 601.4219,57.5 Q602.0078,57.5 602.3789,57.8516 Q602.75,58.2031 602.75,59.0234 L602.75,60.9766 Q602.75,61.7969 602.3984,62.1484 Q602.0469,62.5 601.5,62.5 Q601.0117,62.5 600.6992,62.2852 Q600.3867,62.0703 600.25,61.5039 Q600.1914,61.1133 599.9766,60.8984 Q599.5859,60.4883 598.8828,60.2539 Q598.1797,60 597.4766,60 Q596.5977,60 595.8555,60.3516 Q595.1328,60.7031 594.5664,61.4844 Q594,62.2656 594,63.3398 L594,64.4922 Q594,65.7813 595.0547,66.6406 Q596.1094,67.5 597.9844,67.5 Q599.0977,67.5 599.8789,67.2461 Q600.3281,67.1094 600.8359,66.6602 Q601.168,66.4063 601.3438,66.3281 Q601.5195,66.25 601.7344,66.25 Q602.1445,66.25 602.4375,66.582 Q602.75,66.8945 602.75,67.3438 Q602.75,67.7734 602.3203,68.2813 Q601.6953,69.0234 600.6992,69.4336 Q599.3906,70 597.7891,70 Q595.9141,70 594.4102,69.2578 Q593.1992,68.6719 592.3398,67.4023 Q591.5,66.1328 591.5,64.6289 L591.5,63.2617 Q591.5,61.6992 592.2422,60.332 Q593.0039,58.9648 594.3125,58.2422 Q595.6406,57.5 597.125,57.5 Q598.0234,57.5 598.8047,57.8125 Q599.5859,58.125 600.25,58.75 Z " fill="#000000"/><text fill="#000000" font-family="sans-serif" font-size="15" lengthAdjust="spacing" textLength="50" x="617.25" y="69.2627">Parque</text><line style="stroke:#A80036;stroke-width:1.875;" x1="571.25" x2="678.75" y1="83.125" y2="83.125"/><text fill="#000000" font-family="sans-serif" font-size="13.75" lengthAdjust="spacing" textLength="57.5" x="577.5" y="102.3987">-idParque</text><text fill="#000000" font-family="sans-serif" font-size="13.75" lengthAdjust="spacing" textLength="95" x="577.5" y="119.6936">-numeroMaximo</text><text fill="#000000" font-family="sans-serif" font-size="13.75" lengthAdjust="spacing" textLength="26.25" x="577.5" y="136.9885">-tipo</text><!--MD5=[6613c9cd406ef433ff06f5e98b28abd9]
class Farmacia--><rect codeLine="11" fill="#FEFECE" filter="url(#ftpf3brw9b7v8)" height="84.5898" id="Farmacia" style="stroke:#A80036;stroke-width:1.875;" width="105" x="8.75" y="108.125"/><ellipse cx="27.5" cy="128.125" fill="#ADD1B2" rx="13.75" ry="13.75" style="stroke:#A80036;stroke-width:1.25;"/><path d="M30,123.75 Q30.2539,123.125 30.5469,122.8125 Q30.8398,122.5 31.1719,122.5 Q31.7578,122.5 32.1289,122.8516 Q32.5,123.2031 32.5,124.0234 L32.5,125.9766 Q32.5,126.7969 32.1484,127.1484 Q31.7969,127.5 31.25,127.5 Q30.7617,127.5 30.4492,127.2852 Q30.1367,127.0703 30,126.5039 Q29.9414,126.1133 29.7266,125.8984 Q29.3359,125.4883 28.6328,125.2539 Q27.9297,125 27.2266,125 Q26.3477,125 25.6055,125.3516 Q24.8828,125.7031 24.3164,126.4844 Q23.75,127.2656 23.75,128.3398 L23.75,129.4922 Q23.75,130.7813 24.8047,131.6406 Q25.8594,132.5 27.7344,132.5 Q28.8477,132.5 29.6289,132.2461 Q30.0781,132.1094 30.5859,131.6602 Q30.918,131.4063 31.0938,131.3281 Q31.2695,131.25 31.4844,131.25 Q31.8945,131.25 32.1875,131.582 Q32.5,131.8945 32.5,132.3438 Q32.5,132.7734 32.0703,133.2813 Q31.4453,134.0234 30.4492,134.4336 Q29.1406,135 27.5391,135 Q25.6641,135 24.1602,134.2578 Q22.9492,133.6719 22.0898,132.4023 Q21.25,131.1328 21.25,129.6289 L21.25,128.2617 Q21.25,126.6992 21.9922,125.332 Q22.7539,123.9648 24.0625,123.2422 Q25.3906,122.5 26.875,122.5 Q27.7734,122.5 28.5547,122.8125 Q29.3359,123.125 30,123.75 Z " fill="#000000"/><text fill="#000000" font-family="sans-serif" font-size="15" lengthAdjust="spacing" textLength="65" x="45" y="134.2627">Farmacia</text><line style="stroke:#A80036;stroke-width:1.875;" x1="10" x2="112.5" y1="148.125" y2="148.125"/><text fill="#000000" font-family="sans-serif" font-size="13.75" lengthAdjust="spacing" textLength="23.75" x="16.25" y="167.3987">-NIF</text><text fill="#000000" font-family="sans-serif" font-size="13.75" lengthAdjust="spacing" textLength="35" x="16.25" y="184.6936">-email</text><!--MD5=[5dd1d6732c071e710b9290b531f2fa3b]
class Utilizador--><rect codeLine="16" fill="#FEFECE" filter="url(#ftpf3brw9b7v8)" height="136.4746" id="Utilizador" style="stroke:#A80036;stroke-width:1.875;" width="167.5" x="541.25" y="190"/><ellipse cx="588.6875" cy="210" fill="#ADD1B2" rx="13.75" ry="13.75" style="stroke:#A80036;stroke-width:1.25;"/><path d="M591.1875,205.625 Q591.4414,205 591.7344,204.6875 Q592.0273,204.375 592.3594,204.375 Q592.9453,204.375 593.3164,204.7266 Q593.6875,205.0781 593.6875,205.8984 L593.6875,207.8516 Q593.6875,208.6719 593.3359,209.0234 Q592.9844,209.375 592.4375,209.375 Q591.9492,209.375 591.6367,209.1602 Q591.3242,208.9453 591.1875,208.3789 Q591.1289,207.9883 590.9141,207.7734 Q590.5234,207.3633 589.8203,207.1289 Q589.1172,206.875 588.4141,206.875 Q587.5352,206.875 586.793,207.2266 Q586.0703,207.5781 585.5039,208.3594 Q584.9375,209.1406 584.9375,210.2148 L584.9375,211.3672 Q584.9375,212.6563 585.9922,213.5156 Q587.0469,214.375 588.9219,214.375 Q590.0352,214.375 590.8164,214.1211 Q591.2656,213.9844 591.7734,213.5352 Q592.1055,213.2813 592.2813,213.2031 Q592.457,213.125 592.6719,213.125 Q593.082,213.125 593.375,213.457 Q593.6875,213.7695 593.6875,214.2188 Q593.6875,214.6484 593.2578,215.1563 Q592.6328,215.8984 591.6367,216.3086 Q590.3281,216.875 588.7266,216.875 Q586.8516,216.875 585.3477,216.1328 Q584.1367,215.5469 583.2773,214.2773 Q582.4375,213.0078 582.4375,211.5039 L582.4375,210.1367 Q582.4375,208.5742 583.1797,207.207 Q583.9414,205.8398 585.25,205.1172 Q586.5781,204.375 588.0625,204.375 Q588.9609,204.375 589.7422,204.6875 Q590.5234,205 591.1875,205.625 Z " fill="#000000"/><text fill="#000000" font-family="sans-serif" font-size="15" lengthAdjust="spacing" textLength="63.75" x="612.5625" y="216.1377">Utilizador</text><line style="stroke:#A80036;stroke-width:1.875;" x1="542.5" x2="707.5" y1="230" y2="230"/><text fill="#000000" font-family="sans-serif" font-size="13.75" lengthAdjust="spacing" textLength="23.75" x="548.75" y="249.2737">-NIF</text><text fill="#000000" font-family="sans-serif" font-size="13.75" lengthAdjust="spacing" textLength="37.5" x="548.75" y="266.5686">-nome</text><text fill="#000000" font-family="sans-serif" font-size="13.75" lengthAdjust="spacing" textLength="35" x="548.75" y="283.8635">-email</text><text fill="#000000" font-family="sans-serif" font-size="13.75" lengthAdjust="spacing" textLength="152.5" x="548.75" y="301.1584">-numeroSegurancaSocial</text><text fill="#000000" font-family="sans-serif" font-size="13.75" lengthAdjust="spacing" textLength="67.5" x="548.75" y="318.4534">-password</text><!--MD5=[8505c5852735283b5a8424161266bb9f]
class Veiculo--><rect codeLine="24" fill="#FEFECE" filter="url(#ftpf3brw9b7v8)" height="171.0645" id="Veiculo" style="stroke:#A80036;stroke-width:1.875;" width="141.25" x="830" y="8.75"/><ellipse cx="871.8125" cy="28.75" fill="#ADD1B2" rx="13.75" ry="13.75" style="stroke:#A80036;stroke-width:1.25;"/><path d="M874.3125,24.375 Q874.5664,23.75 874.8594,23.4375 Q875.1523,23.125 875.4844,23.125 Q876.0703,23.125 876.4414,23.4766 Q876.8125,23.8281 876.8125,24.6484 L876.8125,26.6016 Q876.8125,27.4219 876.4609,27.7734 Q876.1094,28.125 875.5625,28.125 Q875.0742,28.125 874.7617,27.9102 Q874.4492,27.6953 874.3125,27.1289 Q874.2539,26.7383 874.0391,26.5234 Q873.6484,26.1133 872.9453,25.8789 Q872.2422,25.625 871.5391,25.625 Q870.6602,25.625 869.918,25.9766 Q869.1953,26.3281 868.6289,27.1094 Q868.0625,27.8906 868.0625,28.9648 L868.0625,30.1172 Q868.0625,31.4063 869.1172,32.2656 Q870.1719,33.125 872.0469,33.125 Q873.1602,33.125 873.9414,32.8711 Q874.3906,32.7344 874.8984,32.2852 Q875.2305,32.0313 875.4063,31.9531 Q875.582,31.875 875.7969,31.875 Q876.207,31.875 876.5,32.207 Q876.8125,32.5195 876.8125,32.9688 Q876.8125,33.3984 876.3828,33.9063 Q875.7578,34.6484 874.7617,35.0586 Q873.4531,35.625 871.8516,35.625 Q869.9766,35.625 868.4727,34.8828 Q867.2617,34.2969 866.4023,33.0273 Q865.5625,31.7578 865.5625,30.2539 L865.5625,28.8867 Q865.5625,27.3242 866.3047,25.957 Q867.0664,24.5898 868.375,23.8672 Q869.7031,23.125 871.1875,23.125 Q872.0859,23.125 872.8672,23.4375 Q873.6484,23.75 874.3125,24.375 Z " fill="#000000"/><text fill="#000000" font-family="sans-serif" font-size="15" lengthAdjust="spacing" textLength="50" x="894.4375" y="34.8877">Veiculo</text><line style="stroke:#A80036;stroke-width:1.875;" x1="831.25" x2="970" y1="48.75" y2="48.75"/><text fill="#000000" font-family="sans-serif" font-size="13.75" lengthAdjust="spacing" textLength="60" x="837.5" y="68.0237">-idVeiculo</text><text fill="#000000" font-family="sans-serif" font-size="13.75" lengthAdjust="spacing" textLength="65" x="837.5" y="85.3186">-descricao</text><text fill="#000000" font-family="sans-serif" font-size="13.75" lengthAdjust="spacing" textLength="126.25" x="837.5" y="102.6135">-percentagemBateria</text><text fill="#000000" font-family="sans-serif" font-size="13.75" lengthAdjust="spacing" textLength="80" x="837.5" y="119.9084">-pesoMaximo</text><text fill="#000000" font-family="sans-serif" font-size="13.75" lengthAdjust="spacing" textLength="80" x="837.5" y="137.2034">-pesoVeiculo</text><text fill="#000000" font-family="sans-serif" font-size="13.75" lengthAdjust="spacing" textLength="56.25" x="837.5" y="154.4983">-potencia</text><text fill="#000000" font-family="sans-serif" font-size="13.75" lengthAdjust="spacing" textLength="73.75" x="837.5" y="171.7932">-areaFrontal</text><!--MD5=[2e3f1e60e74253ff42e47f8bfdb04ee2]
class Drone--><rect codeLine="34" fill="#FEFECE" filter="url(#ftpf3brw9b7v8)" height="84.5898" id="Drone" style="stroke:#A80036;stroke-width:1.875;" width="95" x="1073.75" y="51.875"/><ellipse cx="1098.125" cy="71.875" fill="#ADD1B2" rx="13.75" ry="13.75" style="stroke:#A80036;stroke-width:1.25;"/><path d="M1100.625,67.5 Q1100.8789,66.875 1101.1719,66.5625 Q1101.4648,66.25 1101.7969,66.25 Q1102.3828,66.25 1102.7539,66.6016 Q1103.125,66.9531 1103.125,67.7734 L1103.125,69.7266 Q1103.125,70.5469 1102.7734,70.8984 Q1102.4219,71.25 1101.875,71.25 Q1101.3867,71.25 1101.0742,71.0352 Q1100.7617,70.8203 1100.625,70.2539 Q1100.5664,69.8633 1100.3516,69.6484 Q1099.9609,69.2383 1099.2578,69.0039 Q1098.5547,68.75 1097.8516,68.75 Q1096.9727,68.75 1096.2305,69.1016 Q1095.5078,69.4531 1094.9414,70.2344 Q1094.375,71.0156 1094.375,72.0898 L1094.375,73.2422 Q1094.375,74.5313 1095.4297,75.3906 Q1096.4844,76.25 1098.3594,76.25 Q1099.4727,76.25 1100.2539,75.9961 Q1100.7031,75.8594 1101.2109,75.4102 Q1101.543,75.1563 1101.7188,75.0781 Q1101.8945,75 1102.1094,75 Q1102.5195,75 1102.8125,75.332 Q1103.125,75.6445 1103.125,76.0938 Q1103.125,76.5234 1102.6953,77.0313 Q1102.0703,77.7734 1101.0742,78.1836 Q1099.7656,78.75 1098.1641,78.75 Q1096.2891,78.75 1094.7852,78.0078 Q1093.5742,77.4219 1092.7148,76.1523 Q1091.875,74.8828 1091.875,73.3789 L1091.875,72.0117 Q1091.875,70.4492 1092.6172,69.082 Q1093.3789,67.7148 1094.6875,66.9922 Q1096.0156,66.25 1097.5,66.25 Q1098.3984,66.25 1099.1797,66.5625 Q1099.9609,66.875 1100.625,67.5 Z " fill="#000000"/><text fill="#000000" font-family="sans-serif" font-size="15" lengthAdjust="spacing" textLength="42.5" x="1116.875" y="78.0127">Drone</text><line style="stroke:#A80036;stroke-width:1.875;" x1="1075" x2="1167.5" y1="91.875" y2="91.875"/><text fill="#000000" font-family="sans-serif" font-size="13.75" lengthAdjust="spacing" textLength="51.25" x="1081.25" y="111.1487">-idDrone</text><text fill="#000000" font-family="sans-serif" font-size="13.75" lengthAdjust="spacing" textLength="80" x="1081.25" y="128.4436">-hoverPower</text><!--MD5=[fdcda49d453d44c676d62f3f6af62207]
class Administrador--><rect fill="#FEFECE" filter="url(#ftpf3brw9b7v8)" height="50" id="Administrador" style="stroke:#A80036;stroke-width:1.875;" width="136.25" x="235" y="181.875"/><ellipse cx="253.75" cy="201.875" fill="#ADD1B2" rx="13.75" ry="13.75" style="stroke:#A80036;stroke-width:1.25;"/><path d="M256.25,197.5 Q256.5039,196.875 256.7969,196.5625 Q257.0898,196.25 257.4219,196.25 Q258.0078,196.25 258.3789,196.6016 Q258.75,196.9531 258.75,197.7734 L258.75,199.7266 Q258.75,200.5469 258.3984,200.8984 Q258.0469,201.25 257.5,201.25 Q257.0117,201.25 256.6992,201.0352 Q256.3867,200.8203 256.25,200.2539 Q256.1914,199.8633 255.9766,199.6484 Q255.5859,199.2383 254.8828,199.0039 Q254.1797,198.75 253.4766,198.75 Q252.5977,198.75 251.8555,199.1016 Q251.1328,199.4531 250.5664,200.2344 Q250,201.0156 250,202.0898 L250,203.2422 Q250,204.5313 251.0547,205.3906 Q252.1094,206.25 253.9844,206.25 Q255.0977,206.25 255.8789,205.9961 Q256.3281,205.8594 256.8359,205.4102 Q257.168,205.1563 257.3438,205.0781 Q257.5195,205 257.7344,205 Q258.1445,205 258.4375,205.332 Q258.75,205.6445 258.75,206.0938 Q258.75,206.5234 258.3203,207.0313 Q257.6953,207.7734 256.6992,208.1836 Q255.3906,208.75 253.7891,208.75 Q251.9141,208.75 250.4102,208.0078 Q249.1992,207.4219 248.3398,206.1523 Q247.5,204.8828 247.5,203.3789 L247.5,202.0117 Q247.5,200.4492 248.2422,199.082 Q249.0039,197.7148 250.3125,196.9922 Q251.6406,196.25 253.125,196.25 Q254.0234,196.25 254.8047,196.5625 Q255.5859,196.875 256.25,197.5 Z " fill="#000000"/><text fill="#000000" font-family="sans-serif" font-size="15" lengthAdjust="spacing" textLength="96.25" x="271.25" y="208.0127">Administrador</text><line style="stroke:#A80036;stroke-width:1.875;" x1="236.25" x2="370" y1="221.875" y2="221.875"/><!--MD5=[b4161b205744775e44f73e41ced309e0]
link Administrador to Utilizador--><path codeLine="39" d="M371.0875,231.9625 C383.4625,235.8375 396.3875,239.375 408.75,241.875 C451.8625,250.5875 500.6875,254.725 540.9125,256.65 " fill="none" id="Administrador-Utilizador" style="stroke:#A80036;stroke-width:1.25;"/><polygon fill="#000000" points="421.185,231.7438,410.5247,226.4819,409.4678,233.7528,421.185,231.7438" style="stroke:#000000;stroke-width:1.25;"/><text fill="#000000" font-family="sans-serif" font-size="16.25" lengthAdjust="spacing" textLength="76.25" x="426.25" y="237.4939">atua como</text><text fill="#000000" font-family="sans-serif" font-size="16.25" lengthAdjust="spacing" textLength="8.75" x="380.2215" y="258.7616">1</text><text fill="#000000" font-family="sans-serif" font-size="16.25" lengthAdjust="spacing" textLength="8.75" x="522.4869" y="274.4631">1</text><!--MD5=[6ba179a0a54b0b32b52757b8e4d27c6d]
link Administrador to Parque--><path codeLine="40" d="M371.6375,190.15 C410.675,179.7875 460.5125,165.4125 503.75,149.375 C525.6625,141.25 549.1625,130.8625 569.5125,121.3125 " fill="none" id="Administrador-Parque" style="stroke:#A80036;stroke-width:1.25;"/><polygon fill="#000000" points="433.403,136.2912,421.5173,136.5364,423.9314,143.4758,433.403,136.2912" style="stroke:#000000;stroke-width:1.25;"/><text fill="#000000" font-family="sans-serif" font-size="16.25" lengthAdjust="spacing" textLength="51.25" x="438.75" y="144.9939">remove</text><text fill="#000000" font-family="sans-serif" font-size="16.25" lengthAdjust="spacing" textLength="8.75" x="381.4318" y="206.1448">1</text><text fill="#000000" font-family="sans-serif" font-size="16.25" lengthAdjust="spacing" textLength="25" x="534.9518" y="143.4499">1..*</text><!--MD5=[4f96609c99ecadb81dc825d0ae539cef]
link Farmacia to Parque--><path codeLine="41" d="M114.1125,144.675 C126.2875,143.3125 139.225,141.8875 151.25,140.625 C302.9,124.6625 482.125,107.6125 569.875,99.3875 " fill="none" id="Farmacia-Parque" style="stroke:#A80036;stroke-width:1.25;"/><polygon fill="#000000" points="292.4694,107.7267,280.8552,105.189,281.5817,112.5004,292.4694,107.7267" style="stroke:#000000;stroke-width:1.25;"/><text fill="#000000" font-family="sans-serif" font-size="16.25" lengthAdjust="spacing" textLength="27.5" x="297.5" y="114.9939">tem</text><text fill="#000000" font-family="sans-serif" font-size="16.25" lengthAdjust="spacing" textLength="8.75" x="123.5925" y="162.285">1</text><text fill="#000000" font-family="sans-serif" font-size="16.25" lengthAdjust="spacing" textLength="8.75" x="551.2703" y="118.8302">1</text><!--MD5=[1eb578f81baca05fae5600e8efb79c07]
link Farmacia to Administrador--><path codeLine="42" d="M113.85,162.6875 C149.1625,170.9875 196.3875,182.0875 234.6875,191.0875 " fill="none" id="Farmacia-Administrador" style="stroke:#A80036;stroke-width:1.25;"/><polygon fill="#000000" points="163.5842,163.5247,153.4183,157.3617,151.7373,164.5141,163.5842,163.5247" style="stroke:#000000;stroke-width:1.25;"/><text fill="#000000" font-family="sans-serif" font-size="16.25" lengthAdjust="spacing" textLength="27.5" x="168.75" y="168.7439">tem</text><text fill="#000000" font-family="sans-serif" font-size="16.25" lengthAdjust="spacing" textLength="8.75" x="123.6426" y="183.4214">1</text><text fill="#000000" font-family="sans-serif" font-size="16.25" lengthAdjust="spacing" textLength="8.75" x="216.1533" y="207.2082">1</text><!--MD5=[639e2fc5a451b1bb392d1ae296701488]
link Parque to Veiculo--><path codeLine="43" d="M680.2125,94.375 C723.1125,94.375 783.45,94.375 829.9625,94.375 " fill="none" id="Parque-Veiculo" style="stroke:#A80036;stroke-width:1.25;"/><polygon fill="#000000" points="758.75,83.3447,747.4436,79.6711,747.4436,87.0184,758.75,83.3447" style="stroke:#000000;stroke-width:1.25;"/><text fill="#000000" font-family="sans-serif" font-size="16.25" lengthAdjust="spacing" textLength="27.5" x="763.75" y="89.9939">tem</text><text fill="#000000" font-family="sans-serif" font-size="16.25" lengthAdjust="spacing" textLength="8.75" x="690.0817" y="112.9875">1</text><text fill="#000000" font-family="sans-serif" font-size="16.25" lengthAdjust="spacing" textLength="25" x="794.8271" y="112.5007">0..*</text><!--MD5=[460034a14c91c8062cdb3d6e7324968c]
link Veiculo to Drone--><path codeLine="44" d="M971.4875,94.375 C1004.9,94.375 1044.025,94.375 1073.725,94.375 " fill="none" id="Veiculo-Drone" style="stroke:#A80036;stroke-width:1.25;"/><polygon fill="#000000" points="1008.75,83.3447,1020.0564,87.0184,1020.0564,79.6711,1008.75,83.3447" style="stroke:#000000;stroke-width:1.25;"/><text fill="#000000" font-family="sans-serif" font-size="16.25" lengthAdjust="spacing" textLength="8.75" x="1026.25" y="89.9939">é</text><text fill="#000000" font-family="sans-serif" font-size="16.25" lengthAdjust="spacing" textLength="8.75" x="981.1273" y="112.5652">1</text><text fill="#000000" font-family="sans-serif" font-size="16.25" lengthAdjust="spacing" textLength="8.75" x="1055.0816" y="113.2311">1</text><!--MD5=[18c1c52d4b35a4de88b72dfa20fc9202]
@startuml
skinparam classAttributeIconSize 0
hide methods
left to right direction

class Parque {
  -idParque
  -numeroMaximo
  -tipo
}

class Farmacia {
  -NIF
  -email
}

class Utilizador {
  -NIF
  -nome
  -email
  -numeroSegurancaSocial
  -password
}

class Veiculo {
  -idVeiculo
  -descricao
  -percentagemBateria
  -pesoMaximo
  -pesoVeiculo
  -potencia
  -areaFrontal
}

class Drone{
  -idDrone
  -hoverPower
}

Administrador "1" - - "1" Utilizador: atua como >
Administrador "1" - - "1..*" Parque: remove >
Farmacia "1" - - "1" Parque: tem >
Farmacia "1" - - "1" Administrador: tem >
Parque "1" - - "0..*" Veiculo: tem >
Veiculo "1" - - "1" Drone: é <

@enduml

PlantUML version 1.2021.00(Sun Jan 10 10:25:05 GMT 2021)
(GPL source distribution)
Java Runtime: OpenJDK Runtime Environment
JVM: OpenJDK 64-Bit Server VM
Default Encoding: Cp1252
Language: pt
Country: PT
--></g></svg>