<?xml version="1.0" encoding="UTF-8" standalone="no"?><svg xmlns="http://www.w3.org/2000/svg" xmlns:xlink="http://www.w3.org/1999/xlink" contentScriptType="application/ecmascript" contentStyleType="text/css" height="1027.5px" preserveAspectRatio="none" style="width:728px;height:1027px;" version="1.1" viewBox="0 0 728 1027" width="728.75px" zoomAndPan="magnify"><defs><filter height="300%" id="f1jx20jidayirh" width="300%" x="-1" y="-1"><feGaussianBlur result="blurOut" stdDeviation="2.5"/><feColorMatrix in="blurOut" result="blurOut2" type="matrix" values="0 0 0 0 0 0 0 0 0 0 0 0 0 0 0 0 0 0 .4 0"/><feOffset dx="5.0" dy="5.0" in="blurOut2" result="blurOut3"/><feBlend in="SourceGraphic" in2="blurOut3" mode="normal"/></filter></defs><g><!--MD5=[fdc0efc5253b4b251338dbb2cf88d917]
class VeiculoDB--><rect codeLine="3" fill="#FEFECE" filter="url(#f1jx20jidayirh)" height="94.5898" id="VeiculoDB" style="stroke:#A80036;stroke-width:1.875;" width="247.5" x="463.75" y="419.375"/><ellipse cx="546.5625" cy="439.375" fill="#ADD1B2" rx="13.75" ry="13.75" style="stroke:#A80036;stroke-width:1.25;"/><path d="M549.0625,435 Q549.3164,434.375 549.6094,434.0625 Q549.9023,433.75 550.2344,433.75 Q550.8203,433.75 551.1914,434.1016 Q551.5625,434.4531 551.5625,435.2734 L551.5625,437.2266 Q551.5625,438.0469 551.2109,438.3984 Q550.8594,438.75 550.3125,438.75 Q549.8242,438.75 549.5117,438.5352 Q549.1992,438.3203 549.0625,437.7539 Q549.0039,437.3633 548.7891,437.1484 Q548.3984,436.7383 547.6953,436.5039 Q546.9922,436.25 546.2891,436.25 Q545.4102,436.25 544.668,436.6016 Q543.9453,436.9531 543.3789,437.7344 Q542.8125,438.5156 542.8125,439.5898 L542.8125,440.7422 Q542.8125,442.0313 543.8672,442.8906 Q544.9219,443.75 546.7969,443.75 Q547.9102,443.75 548.6914,443.4961 Q549.1406,443.3594 549.6484,442.9102 Q549.9805,442.6563 550.1563,442.5781 Q550.332,442.5 550.5469,442.5 Q550.957,442.5 551.25,442.832 Q551.5625,443.1445 551.5625,443.5938 Q551.5625,444.0234 551.1328,444.5313 Q550.5078,445.2734 549.5117,445.6836 Q548.2031,446.25 546.6016,446.25 Q544.7266,446.25 543.2227,445.5078 Q542.0117,444.9219 541.1523,443.6523 Q540.3125,442.3828 540.3125,440.8789 L540.3125,439.5117 Q540.3125,437.9492 541.0547,436.582 Q541.8164,435.2148 543.125,434.4922 Q544.4531,433.75 545.9375,433.75 Q546.8359,433.75 547.6172,434.0625 Q548.3984,434.375 549.0625,435 Z " fill="#000000"/><text fill="#000000" font-family="sans-serif" font-size="15" lengthAdjust="spacing" textLength="71.25" x="572.1875" y="445.5127">VeiculoDB</text><line style="stroke:#A80036;stroke-width:1.875;" x1="465" x2="710" y1="459.375" y2="459.375"/><line style="stroke:#A80036;stroke-width:1.875;" x1="465" x2="710" y1="469.375" y2="469.375"/><text fill="#000000" font-family="sans-serif" font-size="13.75" lengthAdjust="spacing" textLength="232.5" x="471.25" y="488.6487">+updateDrone(idVeiculo, hoverPower)</text><text fill="#000000" font-family="sans-serif" font-size="13.75" lengthAdjust="spacing" textLength="146.25" x="471.25" y="505.9436">+updateVeiculo(veiculo)</text><!--MD5=[d33e3bc465a31e8542823eb8b9ff0009]
class VeiculoController--><rect codeLine="8" fill="#FEFECE" filter="url(#f1jx20jidayirh)" height="94.5898" id="VeiculoController" style="stroke:#A80036;stroke-width:1.875;" width="247.5" x="463.75" y="201.25"/><ellipse cx="523.4375" cy="221.25" fill="#ADD1B2" rx="13.75" ry="13.75" style="stroke:#A80036;stroke-width:1.25;"/><path d="M525.9375,216.875 Q526.1914,216.25 526.4844,215.9375 Q526.7773,215.625 527.1094,215.625 Q527.6953,215.625 528.0664,215.9766 Q528.4375,216.3281 528.4375,217.1484 L528.4375,219.1016 Q528.4375,219.9219 528.0859,220.2734 Q527.7344,220.625 527.1875,220.625 Q526.6992,220.625 526.3867,220.4102 Q526.0742,220.1953 525.9375,219.6289 Q525.8789,219.2383 525.6641,219.0234 Q525.2734,218.6133 524.5703,218.3789 Q523.8672,218.125 523.1641,218.125 Q522.2852,218.125 521.543,218.4766 Q520.8203,218.8281 520.2539,219.6094 Q519.6875,220.3906 519.6875,221.4648 L519.6875,222.6172 Q519.6875,223.9063 520.7422,224.7656 Q521.7969,225.625 523.6719,225.625 Q524.7852,225.625 525.5664,225.3711 Q526.0156,225.2344 526.5234,224.7852 Q526.8555,224.5313 527.0313,224.4531 Q527.207,224.375 527.4219,224.375 Q527.832,224.375 528.125,224.707 Q528.4375,225.0195 528.4375,225.4688 Q528.4375,225.8984 528.0078,226.4063 Q527.3828,227.1484 526.3867,227.5586 Q525.0781,228.125 523.4766,228.125 Q521.6016,228.125 520.0977,227.3828 Q518.8867,226.7969 518.0273,225.5273 Q517.1875,224.2578 517.1875,222.7539 L517.1875,221.3867 Q517.1875,219.8242 517.9297,218.457 Q518.6914,217.0898 520,216.3672 Q521.3281,215.625 522.8125,215.625 Q523.7109,215.625 524.4922,215.9375 Q525.2734,216.25 525.9375,216.875 Z " fill="#000000"/><text fill="#000000" font-family="sans-serif" font-size="15" lengthAdjust="spacing" textLength="117.5" x="549.0625" y="227.3877">VeiculoController</text><line style="stroke:#A80036;stroke-width:1.875;" x1="465" x2="710" y1="241.25" y2="241.25"/><line style="stroke:#A80036;stroke-width:1.875;" x1="465" x2="710" y1="251.25" y2="251.25"/><text fill="#000000" font-family="sans-serif" font-size="13.75" lengthAdjust="spacing" textLength="232.5" x="471.25" y="270.5237">+updateDrone(idVeiculo, hoverPower)</text><text fill="#000000" font-family="sans-serif" font-size="13.75" lengthAdjust="spacing" textLength="146.25" x="471.25" y="287.8186">+updateVeiculo(veiculo)</text><!--MD5=[ce5ba2aa1b14889a8bbee678eb648f66]
class AdminUI--><rect codeLine="13" fill="#FEFECE" filter="url(#f1jx20jidayirh)" height="60" id="AdminUI" style="stroke:#A80036;stroke-width:1.875;" width="98.75" x="538.125" y="26.25"/><ellipse cx="556.875" cy="46.25" fill="#ADD1B2" rx="13.75" ry="13.75" style="stroke:#A80036;stroke-width:1.25;"/><path d="M559.375,41.875 Q559.6289,41.25 559.9219,40.9375 Q560.2148,40.625 560.5469,40.625 Q561.1328,40.625 561.5039,40.9766 Q561.875,41.3281 561.875,42.1484 L561.875,44.1016 Q561.875,44.9219 561.5234,45.2734 Q561.1719,45.625 560.625,45.625 Q560.1367,45.625 559.8242,45.4102 Q559.5117,45.1953 559.375,44.6289 Q559.3164,44.2383 559.1016,44.0234 Q558.7109,43.6133 558.0078,43.3789 Q557.3047,43.125 556.6016,43.125 Q555.7227,43.125 554.9805,43.4766 Q554.2578,43.8281 553.6914,44.6094 Q553.125,45.3906 553.125,46.4648 L553.125,47.6172 Q553.125,48.9063 554.1797,49.7656 Q555.2344,50.625 557.1094,50.625 Q558.2227,50.625 559.0039,50.3711 Q559.4531,50.2344 559.9609,49.7852 Q560.293,49.5313 560.4688,49.4531 Q560.6445,49.375 560.8594,49.375 Q561.2695,49.375 561.5625,49.707 Q561.875,50.0195 561.875,50.4688 Q561.875,50.8984 561.4453,51.4063 Q560.8203,52.1484 559.8242,52.5586 Q558.5156,53.125 556.9141,53.125 Q555.0391,53.125 553.5352,52.3828 Q552.3242,51.7969 551.4648,50.5273 Q550.625,49.2578 550.625,47.7539 L550.625,46.3867 Q550.625,44.8242 551.3672,43.457 Q552.1289,42.0898 553.4375,41.3672 Q554.7656,40.625 556.25,40.625 Q557.1484,40.625 557.9297,40.9375 Q558.7109,41.25 559.375,41.875 Z " fill="#000000"/><text fill="#000000" font-family="sans-serif" font-size="15" lengthAdjust="spacing" textLength="58.75" x="574.375" y="52.3877">AdminUI</text><line style="stroke:#A80036;stroke-width:1.875;" x1="539.375" x2="635.625" y1="66.25" y2="66.25"/><line style="stroke:#A80036;stroke-width:1.875;" x1="539.375" x2="635.625" y1="76.25" y2="76.25"/><!--MD5=[1a083dbe42a284ae0ea7f6f701783206]
class Parque--><rect codeLine="17" fill="#FEFECE" filter="url(#f1jx20jidayirh)" height="111.8848" id="Parque" style="stroke:#A80036;stroke-width:1.875;" width="155" x="8.75" y="410.625"/><ellipse cx="56.75" cy="430.625" fill="#ADD1B2" rx="13.75" ry="13.75" style="stroke:#A80036;stroke-width:1.25;"/><path d="M59.25,426.25 Q59.5039,425.625 59.7969,425.3125 Q60.0898,425 60.4219,425 Q61.0078,425 61.3789,425.3516 Q61.75,425.7031 61.75,426.5234 L61.75,428.4766 Q61.75,429.2969 61.3984,429.6484 Q61.0469,430 60.5,430 Q60.0117,430 59.6992,429.7852 Q59.3867,429.5703 59.25,429.0039 Q59.1914,428.6133 58.9766,428.3984 Q58.5859,427.9883 57.8828,427.7539 Q57.1797,427.5 56.4766,427.5 Q55.5977,427.5 54.8555,427.8516 Q54.1328,428.2031 53.5664,428.9844 Q53,429.7656 53,430.8398 L53,431.9922 Q53,433.2813 54.0547,434.1406 Q55.1094,435 56.9844,435 Q58.0977,435 58.8789,434.7461 Q59.3281,434.6094 59.8359,434.1602 Q60.168,433.9063 60.3438,433.8281 Q60.5195,433.75 60.7344,433.75 Q61.1445,433.75 61.4375,434.082 Q61.75,434.3945 61.75,434.8438 Q61.75,435.2734 61.3203,435.7813 Q60.6953,436.5234 59.6992,436.9336 Q58.3906,437.5 56.7891,437.5 Q54.9141,437.5 53.4102,436.7578 Q52.1992,436.1719 51.3398,434.9023 Q50.5,433.6328 50.5,432.1289 L50.5,430.7617 Q50.5,429.1992 51.2422,427.832 Q52.0039,426.4648 53.3125,425.7422 Q54.6406,425 56.125,425 Q57.0234,425 57.8047,425.3125 Q58.5859,425.625 59.25,426.25 Z " fill="#000000"/><text fill="#000000" font-family="sans-serif" font-size="15" lengthAdjust="spacing" textLength="50" x="80.75" y="436.7627">Parque</text><line style="stroke:#A80036;stroke-width:1.875;" x1="10" x2="162.5" y1="450.625" y2="450.625"/><text fill="#000000" font-family="sans-serif" font-size="13.75" lengthAdjust="spacing" textLength="102.5" x="16.25" y="469.8987">-Integer idParque</text><text fill="#000000" font-family="sans-serif" font-size="13.75" lengthAdjust="spacing" textLength="140" x="16.25" y="487.1936">-Integer numeroMaximo</text><text fill="#000000" font-family="sans-serif" font-size="13.75" lengthAdjust="spacing" textLength="65" x="16.25" y="504.4885">-String tipo</text><line style="stroke:#A80036;stroke-width:1.875;" x1="10" x2="162.5" y1="512.5098" y2="512.5098"/><!--MD5=[6613c9cd406ef433ff06f5e98b28abd9]
class Farmacia--><rect codeLine="23" fill="#FEFECE" filter="url(#f1jx20jidayirh)" height="94.5898" id="Farmacia" style="stroke:#A80036;stroke-width:1.875;" width="105" x="92.5" y="8.75"/><ellipse cx="111.25" cy="28.75" fill="#ADD1B2" rx="13.75" ry="13.75" style="stroke:#A80036;stroke-width:1.25;"/><path d="M113.75,24.375 Q114.0039,23.75 114.2969,23.4375 Q114.5898,23.125 114.9219,23.125 Q115.5078,23.125 115.8789,23.4766 Q116.25,23.8281 116.25,24.6484 L116.25,26.6016 Q116.25,27.4219 115.8984,27.7734 Q115.5469,28.125 115,28.125 Q114.5117,28.125 114.1992,27.9102 Q113.8867,27.6953 113.75,27.1289 Q113.6914,26.7383 113.4766,26.5234 Q113.0859,26.1133 112.3828,25.8789 Q111.6797,25.625 110.9766,25.625 Q110.0977,25.625 109.3555,25.9766 Q108.6328,26.3281 108.0664,27.1094 Q107.5,27.8906 107.5,28.9648 L107.5,30.1172 Q107.5,31.4063 108.5547,32.2656 Q109.6094,33.125 111.4844,33.125 Q112.5977,33.125 113.3789,32.8711 Q113.8281,32.7344 114.3359,32.2852 Q114.668,32.0313 114.8438,31.9531 Q115.0195,31.875 115.2344,31.875 Q115.6445,31.875 115.9375,32.207 Q116.25,32.5195 116.25,32.9688 Q116.25,33.3984 115.8203,33.9063 Q115.1953,34.6484 114.1992,35.0586 Q112.8906,35.625 111.2891,35.625 Q109.4141,35.625 107.9102,34.8828 Q106.6992,34.2969 105.8398,33.0273 Q105,31.7578 105,30.2539 L105,28.8867 Q105,27.3242 105.7422,25.957 Q106.5039,24.5898 107.8125,23.8672 Q109.1406,23.125 110.625,23.125 Q111.5234,23.125 112.3047,23.4375 Q113.0859,23.75 113.75,24.375 Z " fill="#000000"/><text fill="#000000" font-family="sans-serif" font-size="15" lengthAdjust="spacing" textLength="65" x="128.75" y="34.8877">Farmacia</text><line style="stroke:#A80036;stroke-width:1.875;" x1="93.75" x2="196.25" y1="48.75" y2="48.75"/><text fill="#000000" font-family="sans-serif" font-size="13.75" lengthAdjust="spacing" textLength="68.75" x="100" y="68.0237">-Integer NIF</text><text fill="#000000" font-family="sans-serif" font-size="13.75" lengthAdjust="spacing" textLength="73.75" x="100" y="85.3186">-String email</text><line style="stroke:#A80036;stroke-width:1.875;" x1="93.75" x2="196.25" y1="93.3398" y2="93.3398"/><!--MD5=[5dd1d6732c071e710b9290b531f2fa3b]
class Utilizador--><rect codeLine="28" fill="#FEFECE" filter="url(#f1jx20jidayirh)" height="146.4746" id="Utilizador" style="stroke:#A80036;stroke-width:1.875;" width="212.5" x="207.5" y="393.75"/><ellipse cx="276.5625" cy="413.75" fill="#ADD1B2" rx="13.75" ry="13.75" style="stroke:#A80036;stroke-width:1.25;"/><path d="M279.0625,409.375 Q279.3164,408.75 279.6094,408.4375 Q279.9023,408.125 280.2344,408.125 Q280.8203,408.125 281.1914,408.4766 Q281.5625,408.8281 281.5625,409.6484 L281.5625,411.6016 Q281.5625,412.4219 281.2109,412.7734 Q280.8594,413.125 280.3125,413.125 Q279.8242,413.125 279.5117,412.9102 Q279.1992,412.6953 279.0625,412.1289 Q279.0039,411.7383 278.7891,411.5234 Q278.3984,411.1133 277.6953,410.8789 Q276.9922,410.625 276.2891,410.625 Q275.4102,410.625 274.668,410.9766 Q273.9453,411.3281 273.3789,412.1094 Q272.8125,412.8906 272.8125,413.9648 L272.8125,415.1172 Q272.8125,416.4063 273.8672,417.2656 Q274.9219,418.125 276.7969,418.125 Q277.9102,418.125 278.6914,417.8711 Q279.1406,417.7344 279.6484,417.2852 Q279.9805,417.0313 280.1563,416.9531 Q280.332,416.875 280.5469,416.875 Q280.957,416.875 281.25,417.207 Q281.5625,417.5195 281.5625,417.9688 Q281.5625,418.3984 281.1328,418.9063 Q280.5078,419.6484 279.5117,420.0586 Q278.2031,420.625 276.6016,420.625 Q274.7266,420.625 273.2227,419.8828 Q272.0117,419.2969 271.1523,418.0273 Q270.3125,416.7578 270.3125,415.2539 L270.3125,413.8867 Q270.3125,412.3242 271.0547,410.957 Q271.8164,409.5898 273.125,408.8672 Q274.4531,408.125 275.9375,408.125 Q276.8359,408.125 277.6172,408.4375 Q278.3984,408.75 279.0625,409.375 Z " fill="#000000"/><text fill="#000000" font-family="sans-serif" font-size="15" lengthAdjust="spacing" textLength="63.75" x="302.1875" y="419.8877">Utilizador</text><line style="stroke:#A80036;stroke-width:1.875;" x1="208.75" x2="418.75" y1="433.75" y2="433.75"/><text fill="#000000" font-family="sans-serif" font-size="13.75" lengthAdjust="spacing" textLength="68.75" x="215" y="453.0237">-Integer NIF</text><text fill="#000000" font-family="sans-serif" font-size="13.75" lengthAdjust="spacing" textLength="76.25" x="215" y="470.3186">-String nome</text><text fill="#000000" font-family="sans-serif" font-size="13.75" lengthAdjust="spacing" textLength="73.75" x="215" y="487.6135">-String email</text><text fill="#000000" font-family="sans-serif" font-size="13.75" lengthAdjust="spacing" textLength="197.5" x="215" y="504.9084">-Integer numeroSegurancaSocial</text><text fill="#000000" font-family="sans-serif" font-size="13.75" lengthAdjust="spacing" textLength="106.25" x="215" y="522.2034">-String password</text><line style="stroke:#A80036;stroke-width:1.875;" x1="208.75" x2="418.75" y1="530.2246" y2="530.2246"/><!--MD5=[8505c5852735283b5a8424161266bb9f]
class Veiculo--><rect codeLine="36" fill="#FEFECE" filter="url(#f1jx20jidayirh)" height="181.0645" id="Veiculo" style="stroke:#A80036;stroke-width:1.875;" width="186.25" x="243.125" y="637.5"/><ellipse cx="305.9375" cy="657.5" fill="#ADD1B2" rx="13.75" ry="13.75" style="stroke:#A80036;stroke-width:1.25;"/><path d="M308.4375,653.125 Q308.6914,652.5 308.9844,652.1875 Q309.2773,651.875 309.6094,651.875 Q310.1953,651.875 310.5664,652.2266 Q310.9375,652.5781 310.9375,653.3984 L310.9375,655.3516 Q310.9375,656.1719 310.5859,656.5234 Q310.2344,656.875 309.6875,656.875 Q309.1992,656.875 308.8867,656.6602 Q308.5742,656.4453 308.4375,655.8789 Q308.3789,655.4883 308.1641,655.2734 Q307.7734,654.8633 307.0703,654.6289 Q306.3672,654.375 305.6641,654.375 Q304.7852,654.375 304.043,654.7266 Q303.3203,655.0781 302.7539,655.8594 Q302.1875,656.6406 302.1875,657.7148 L302.1875,658.8672 Q302.1875,660.1563 303.2422,661.0156 Q304.2969,661.875 306.1719,661.875 Q307.2852,661.875 308.0664,661.6211 Q308.5156,661.4844 309.0234,661.0352 Q309.3555,660.7813 309.5313,660.7031 Q309.707,660.625 309.9219,660.625 Q310.332,660.625 310.625,660.957 Q310.9375,661.2695 310.9375,661.7188 Q310.9375,662.1484 310.5078,662.6563 Q309.8828,663.3984 308.8867,663.8086 Q307.5781,664.375 305.9766,664.375 Q304.1016,664.375 302.5977,663.6328 Q301.3867,663.0469 300.5273,661.7773 Q299.6875,660.5078 299.6875,659.0039 L299.6875,657.6367 Q299.6875,656.0742 300.4297,654.707 Q301.1914,653.3398 302.5,652.6172 Q303.8281,651.875 305.3125,651.875 Q306.2109,651.875 306.9922,652.1875 Q307.7734,652.5 308.4375,653.125 Z " fill="#000000"/><text fill="#000000" font-family="sans-serif" font-size="15" lengthAdjust="spacing" textLength="50" x="331.5625" y="663.6377">Veiculo</text><line style="stroke:#A80036;stroke-width:1.875;" x1="244.375" x2="428.125" y1="677.5" y2="677.5"/><text fill="#000000" font-family="sans-serif" font-size="13.75" lengthAdjust="spacing" textLength="105" x="250.625" y="696.7737">-Integer idVeiculo</text><text fill="#000000" font-family="sans-serif" font-size="13.75" lengthAdjust="spacing" textLength="103.75" x="250.625" y="714.0686">-String descricao</text><text fill="#000000" font-family="sans-serif" font-size="13.75" lengthAdjust="spacing" textLength="171.25" x="250.625" y="731.3635">-Double percentagemBateria</text><text fill="#000000" font-family="sans-serif" font-size="13.75" lengthAdjust="spacing" textLength="125" x="250.625" y="748.6584">-Double pesoMaximo</text><text fill="#000000" font-family="sans-serif" font-size="13.75" lengthAdjust="spacing" textLength="125" x="250.625" y="765.9534">-Double pesoVeiculo</text><text fill="#000000" font-family="sans-serif" font-size="13.75" lengthAdjust="spacing" textLength="101.25" x="250.625" y="783.2483">-Double potencia</text><text fill="#000000" font-family="sans-serif" font-size="13.75" lengthAdjust="spacing" textLength="118.75" x="250.625" y="800.5432">-Double areaFrontal</text><line style="stroke:#A80036;stroke-width:1.875;" x1="244.375" x2="428.125" y1="808.5645" y2="808.5645"/><!--MD5=[2e3f1e60e74253ff42e47f8bfdb04ee2]
class Drone--><rect codeLine="46" fill="#FEFECE" filter="url(#f1jx20jidayirh)" height="94.5898" id="Drone" style="stroke:#A80036;stroke-width:1.875;" width="140" x="266.25" y="916.25"/><ellipse cx="310.875" cy="936.25" fill="#ADD1B2" rx="13.75" ry="13.75" style="stroke:#A80036;stroke-width:1.25;"/><path d="M313.375,931.875 Q313.6289,931.25 313.9219,930.9375 Q314.2148,930.625 314.5469,930.625 Q315.1328,930.625 315.5039,930.9766 Q315.875,931.3281 315.875,932.1484 L315.875,934.1016 Q315.875,934.9219 315.5234,935.2734 Q315.1719,935.625 314.625,935.625 Q314.1367,935.625 313.8242,935.4102 Q313.5117,935.1953 313.375,934.6289 Q313.3164,934.2383 313.1016,934.0234 Q312.7109,933.6133 312.0078,933.3789 Q311.3047,933.125 310.6016,933.125 Q309.7227,933.125 308.9805,933.4766 Q308.2578,933.8281 307.6914,934.6094 Q307.125,935.3906 307.125,936.4648 L307.125,937.6172 Q307.125,938.9063 308.1797,939.7656 Q309.2344,940.625 311.1094,940.625 Q312.2227,940.625 313.0039,940.3711 Q313.4531,940.2344 313.9609,939.7852 Q314.293,939.5313 314.4688,939.4531 Q314.6445,939.375 314.8594,939.375 Q315.2695,939.375 315.5625,939.707 Q315.875,940.0195 315.875,940.4688 Q315.875,940.8984 315.4453,941.4063 Q314.8203,942.1484 313.8242,942.5586 Q312.5156,943.125 310.9141,943.125 Q309.0391,943.125 307.5352,942.3828 Q306.3242,941.7969 305.4648,940.5273 Q304.625,939.2578 304.625,937.7539 L304.625,936.3867 Q304.625,934.8242 305.3672,933.457 Q306.1289,932.0898 307.4375,931.3672 Q308.7656,930.625 310.25,930.625 Q311.1484,930.625 311.9297,930.9375 Q312.7109,931.25 313.375,931.875 Z " fill="#000000"/><text fill="#000000" font-family="sans-serif" font-size="15" lengthAdjust="spacing" textLength="42.5" x="334.125" y="942.3877">Drone</text><line style="stroke:#A80036;stroke-width:1.875;" x1="267.5" x2="405" y1="956.25" y2="956.25"/><text fill="#000000" font-family="sans-serif" font-size="13.75" lengthAdjust="spacing" textLength="96.25" x="273.75" y="975.5237">-Integer idDrone</text><text fill="#000000" font-family="sans-serif" font-size="13.75" lengthAdjust="spacing" textLength="125" x="273.75" y="992.8186">-Double hoverPower</text><line style="stroke:#A80036;stroke-width:1.875;" x1="267.5" x2="405" y1="1000.8398" y2="1000.8398"/><!--MD5=[fdcda49d453d44c676d62f3f6af62207]
class Administrador--><rect fill="#FEFECE" filter="url(#f1jx20jidayirh)" height="60" id="Administrador" style="stroke:#A80036;stroke-width:1.875;" width="136.25" x="176.875" y="218.75"/><ellipse cx="195.625" cy="238.75" fill="#ADD1B2" rx="13.75" ry="13.75" style="stroke:#A80036;stroke-width:1.25;"/><path d="M198.125,234.375 Q198.3789,233.75 198.6719,233.4375 Q198.9648,233.125 199.2969,233.125 Q199.8828,233.125 200.2539,233.4766 Q200.625,233.8281 200.625,234.6484 L200.625,236.6016 Q200.625,237.4219 200.2734,237.7734 Q199.9219,238.125 199.375,238.125 Q198.8867,238.125 198.5742,237.9102 Q198.2617,237.6953 198.125,237.1289 Q198.0664,236.7383 197.8516,236.5234 Q197.4609,236.1133 196.7578,235.8789 Q196.0547,235.625 195.3516,235.625 Q194.4727,235.625 193.7305,235.9766 Q193.0078,236.3281 192.4414,237.1094 Q191.875,237.8906 191.875,238.9648 L191.875,240.1172 Q191.875,241.4063 192.9297,242.2656 Q193.9844,243.125 195.8594,243.125 Q196.9727,243.125 197.7539,242.8711 Q198.2031,242.7344 198.7109,242.2852 Q199.043,242.0313 199.2188,241.9531 Q199.3945,241.875 199.6094,241.875 Q200.0195,241.875 200.3125,242.207 Q200.625,242.5195 200.625,242.9688 Q200.625,243.3984 200.1953,243.9063 Q199.5703,244.6484 198.5742,245.0586 Q197.2656,245.625 195.6641,245.625 Q193.7891,245.625 192.2852,244.8828 Q191.0742,244.2969 190.2148,243.0273 Q189.375,241.7578 189.375,240.2539 L189.375,238.8867 Q189.375,237.3242 190.1172,235.957 Q190.8789,234.5898 192.1875,233.8672 Q193.5156,233.125 195,233.125 Q195.8984,233.125 196.6797,233.4375 Q197.4609,233.75 198.125,234.375 Z " fill="#000000"/><text fill="#000000" font-family="sans-serif" font-size="15" lengthAdjust="spacing" textLength="96.25" x="213.125" y="244.8877">Administrador</text><line style="stroke:#A80036;stroke-width:1.875;" x1="178.125" x2="311.875" y1="258.75" y2="258.75"/><line style="stroke:#A80036;stroke-width:1.875;" x1="178.125" x2="311.875" y1="268.75" y2="268.75"/><!--MD5=[b4161b205744775e44f73e41ced309e0]
link Administrador to Utilizador--><path codeLine="51" d="M254.275,279.075 C263.5875,308.275 278.2875,354.4125 290.75,393.5 " fill="none" id="Administrador-Utilizador" style="stroke:#A80036;stroke-width:1.25;"/><polygon fill="#000000" points="285.6482,351.1745,285.7145,339.2865,278.7142,341.5179,285.6482,351.1745" style="stroke:#000000;stroke-width:1.25;"/><text fill="#000000" font-family="sans-serif" font-size="16.25" lengthAdjust="spacing" textLength="76.25" x="295" y="351.8689">atua como</text><text fill="#000000" font-family="sans-serif" font-size="16.25" lengthAdjust="spacing" textLength="8.75" x="246.7194" y="305.8267">1</text><text fill="#000000" font-family="sans-serif" font-size="16.25" lengthAdjust="spacing" textLength="8.75" x="278.6637" y="380.2207">1</text><!--MD5=[6ba179a0a54b0b32b52757b8e4d27c6d]
link Administrador to Parque--><path codeLine="52" d="M223.5875,279.075 C198.875,312.65 157.6875,368.6 126.8375,410.4875 " fill="none" id="Administrador-Parque" style="stroke:#A80036;stroke-width:1.25;"/><polygon fill="#000000" points="182.5445,350.2528,192.2062,343.3259,186.2895,338.9699,182.5445,350.2528" style="stroke:#000000;stroke-width:1.25;"/><text fill="#000000" font-family="sans-serif" font-size="16.25" lengthAdjust="spacing" textLength="51.25" x="197.5" y="351.8689">remove</text><text fill="#000000" font-family="sans-serif" font-size="16.25" lengthAdjust="spacing" textLength="8.75" x="208.5518" y="305.8267">1</text><text fill="#000000" font-family="sans-serif" font-size="16.25" lengthAdjust="spacing" textLength="25" x="106.3139" y="396.8599">1..*</text><!--MD5=[4f96609c99ecadb81dc825d0ae539cef]
link Farmacia to Parque--><path codeLine="53" d="M131.225,104.0375 C123.4625,131.975 114.2625,168.375 108.75,201.25 C96.725,273.0375 90.975,356.9125 88.3375,410.6125 " fill="none" id="Farmacia-Parque" style="stroke:#A80036;stroke-width:1.25;"/><polygon fill="#000000" points="114.1341,255.1595,119.3388,244.4711,112.0623,243.4532,114.1341,255.1595" style="stroke:#000000;stroke-width:1.25;"/><text fill="#000000" font-family="sans-serif" font-size="16.25" lengthAdjust="spacing" textLength="27.5" x="126.25" y="255.6189">tem</text><text fill="#000000" font-family="sans-serif" font-size="16.25" lengthAdjust="spacing" textLength="8.75" x="119.5823" y="130.184">1</text><text fill="#000000" font-family="sans-serif" font-size="16.25" lengthAdjust="spacing" textLength="8.75" x="79.2229" y="397.0049">1</text><!--MD5=[1eb578f81baca05fae5600e8efb79c07]
link Farmacia to Administrador--><path codeLine="54" d="M169.4625,103.975 C188.3125,139.8 213.7875,188.1875 229.8,218.625 " fill="none" id="Farmacia-Administrador" style="stroke:#A80036;stroke-width:1.25;"/><polygon fill="#000000" points="207.9107,158.2506,205.8961,146.5343,199.3942,149.9561,207.9107,158.2506" style="stroke:#000000;stroke-width:1.25;"/><text fill="#000000" font-family="sans-serif" font-size="16.25" lengthAdjust="spacing" textLength="27.5" x="216.25" y="159.3689">tem</text><text fill="#000000" font-family="sans-serif" font-size="16.25" lengthAdjust="spacing" textLength="8.75" x="163.9139" y="130.1115">1</text><text fill="#000000" font-family="sans-serif" font-size="16.25" lengthAdjust="spacing" textLength="8.75" x="216.0339" y="205.2682">1</text><!--MD5=[639e2fc5a451b1bb392d1ae296701488]
link Parque to Veiculo--><path codeLine="55" d="M139.575,523.3125 C171.55,556.4125 212.9875,599.3 249.575,637.1625 " fill="none" id="Parque-Veiculo" style="stroke:#A80036;stroke-width:1.25;"/><polygon fill="#000000" points="221.8428,593.4645,216.6286,582.7808,211.3447,587.886,221.8428,593.4645" style="stroke:#000000;stroke-width:1.25;"/><text fill="#000000" font-family="sans-serif" font-size="16.25" lengthAdjust="spacing" textLength="27.5" x="228.75" y="595.6189">tem</text><text fill="#000000" font-family="sans-serif" font-size="16.25" lengthAdjust="spacing" textLength="8.75" x="137.4027" y="549.1798">1</text><text fill="#000000" font-family="sans-serif" font-size="16.25" lengthAdjust="spacing" textLength="25" x="214.3476" y="623.6519">0..*</text><!--MD5=[6355171bb87232b3a58c2e48ef243e25]
link VeiculoDB to Veiculo--><path codeLine="56" d="M542.5875,514.3875 C509.55,548.4 463.6125,595.7125 423.475,637.05 " fill="none" id="VeiculoDB-Veiculo" style="stroke:#A80036;stroke-width:1.25;"/><text fill="#000000" font-family="sans-serif" font-size="16.25" lengthAdjust="spacing" textLength="117.5" x="478.75" y="595.6189">tem registados&gt;</text><text fill="#000000" font-family="sans-serif" font-size="16.25" lengthAdjust="spacing" textLength="8.75" x="525.6743" y="540.8523">1</text><text fill="#000000" font-family="sans-serif" font-size="16.25" lengthAdjust="spacing" textLength="6.25" x="425.5036" y="624.0001">*</text><!--MD5=[460034a14c91c8062cdb3d6e7324968c]
link Veiculo to Drone--><path codeLine="57" d="M336.25,818.8375 C336.25,851.9625 336.25,888.1875 336.25,915.975 " fill="none" id="Veiculo-Drone" style="stroke:#A80036;stroke-width:1.25;"/><polygon fill="#000000" points="342.5,861.4697,338.8263,872.7761,346.1737,872.7761,342.5,861.4697" style="stroke:#000000;stroke-width:1.25;"/><text fill="#000000" font-family="sans-serif" font-size="16.25" lengthAdjust="spacing" textLength="8.75" x="353.75" y="874.3689">é</text><text fill="#000000" font-family="sans-serif" font-size="16.25" lengthAdjust="spacing" textLength="8.75" x="327.083" y="845.3353">1</text><text fill="#000000" font-family="sans-serif" font-size="16.25" lengthAdjust="spacing" textLength="8.75" x="326.7207" y="902.6284">1</text><!--MD5=[c148a9967b59ce8b4979c4d05239daea]
link AdminUI to VeiculoController--><path codeLine="59" d="M587.5,86.3625 C587.5,114.9875 587.5,159.5375 587.5,194.55 " fill="none" id="AdminUI-to-VeiculoController" style="stroke:#A80036;stroke-width:1.25;stroke-dasharray:7.0,7.0;"/><polygon fill="#A80036" points="587.5,200.975,592.5,189.725,587.5,194.725,582.5,189.725,587.5,200.975" style="stroke:#A80036;stroke-width:1.25;"/><!--MD5=[322f6ca557b7ed134f7f82c3154736a7]
link VeiculoController to VeiculoDB--><path codeLine="61" d="M587.5,296.2625 C587.5,330.3875 587.5,376.9 587.5,412.55 " fill="none" id="VeiculoController-to-VeiculoDB" style="stroke:#A80036;stroke-width:1.25;stroke-dasharray:7.0,7.0;"/><polygon fill="#A80036" points="587.5,419.075,592.5,407.825,587.5,412.825,582.5,407.825,587.5,419.075" style="stroke:#A80036;stroke-width:1.25;"/><!--MD5=[464cd80049ea95aa8a85772c63054e4a]
@startuml
skinparam classAttributeIconSize 0

class VeiculoDB {
  +updateDrone(idVeiculo, hoverPower)
  +updateVeiculo(veiculo)
}

class VeiculoController {
  +updateDrone(idVeiculo, hoverPower)
  +updateVeiculo(veiculo)
}

class AdminUI {
}


class Parque {
  -Integer idParque
  -Integer numeroMaximo
  -String tipo
}

class Farmacia {
  -Integer NIF
  -String email
}

class Utilizador {
  -Integer NIF
  -String nome
  -String email
  -Integer numeroSegurancaSocial
  -String password
}

class Veiculo {
  -Integer idVeiculo
  -String descricao
  -Double percentagemBateria
  -Double pesoMaximo
  -Double pesoVeiculo
  -Double potencia
  -Double areaFrontal
}

class Drone{
  -Integer idDrone
  -Double hoverPower
}

Administrador "1" - - "1" Utilizador: atua como >
Administrador "1" - - "1..*" Parque: remove >
Farmacia "1" - - "1" Parque: tem >
Farmacia "1" - - "1" Administrador: tem >
Parque "1" - - "0..*" Veiculo: tem > 
VeiculoDB "1" - - "*" Veiculo: tem registados> 
Veiculo "1" - - "1" Drone: é <

AdminUI ..> VeiculoController 

VeiculoController ..> VeiculoDB

@enduml

PlantUML version 1.2021.00(Sun Jan 10 10:25:05 GMT 2021)
(GPL source distribution)
Java Runtime: OpenJDK Runtime Environment
JVM: OpenJDK 64-Bit Server VM
Default Encoding: Cp1252
Language: pt
Country: PT
--></g></svg>