<?xml version="1.0" encoding="UTF-8" standalone="no"?><svg xmlns="http://www.w3.org/2000/svg" xmlns:xlink="http://www.w3.org/1999/xlink" contentScriptType="application/ecmascript" contentStyleType="text/css" height="881px" preserveAspectRatio="none" style="width:1533px;height:881px;" version="1.1" viewBox="0 0 1533 881" width="1533px" zoomAndPan="magnify"><defs><filter height="300%" id="f16a6qv7dpsjvx" width="300%" x="-1" y="-1"><feGaussianBlur result="blurOut" stdDeviation="2.0"/><feColorMatrix in="blurOut" result="blurOut2" type="matrix" values="0 0 0 0 0 0 0 0 0 0 0 0 0 0 0 0 0 0 .4 0"/><feOffset dx="4.0" dy="4.0" in="blurOut2" result="blurOut3"/><feBlend in="SourceGraphic" in2="blurOut3" mode="normal"/></filter></defs><g><rect fill="#FFFFFF" filter="url(#f16a6qv7dpsjvx)" height="680.5547" style="stroke:#A80036;stroke-width:1.0;" width="10" x="54" y="98.2969"/><rect fill="#FFFFFF" filter="url(#f16a6qv7dpsjvx)" height="500.7578" style="stroke:#A80036;stroke-width:1.0;" width="10" x="424" y="119.4297"/><rect fill="#FFFFFF" filter="url(#f16a6qv7dpsjvx)" height="138.5313" style="stroke:#A80036;stroke-width:1.0;" width="10" x="424" y="649.3203"/><rect fill="#FFFFFF" filter="url(#f16a6qv7dpsjvx)" height="177.3984" style="stroke:#A80036;stroke-width:1.0;" width="10" x="705" y="148.5625"/><rect fill="#FFFFFF" filter="url(#f16a6qv7dpsjvx)" height="197.8281" style="stroke:#A80036;stroke-width:1.0;" width="10" x="705" y="379.2266"/><rect fill="#FFFFFF" filter="url(#f16a6qv7dpsjvx)" height="29.1328" style="stroke:#A80036;stroke-width:1.0;" width="10" x="705" y="678.4531"/><rect fill="#FFFFFF" filter="url(#f16a6qv7dpsjvx)" height="30" style="stroke:#A80036;stroke-width:1.0;" width="10" x="885" y="177.6953"/><rect fill="#FFFFFF" filter="url(#f16a6qv7dpsjvx)" height="30" style="stroke:#A80036;stroke-width:1.0;" width="10" x="1013.5" y="236.8281"/><rect fill="#FFFFFF" filter="url(#f16a6qv7dpsjvx)" height="30" style="stroke:#A80036;stroke-width:1.0;" width="10" x="1135.5" y="295.9609"/><rect fill="#FFFFFF" filter="url(#f16a6qv7dpsjvx)" height="30" style="stroke:#A80036;stroke-width:1.0;" width="10" x="1135.5" y="408.3594"/><rect fill="#FFFFFF" filter="url(#f16a6qv7dpsjvx)" height="29.1328" style="stroke:#A80036;stroke-width:1.0;" width="10" x="1135.5" y="467.4922"/><rect fill="#FFFFFF" filter="url(#f16a6qv7dpsjvx)" height="35.1328" style="stroke:#A80036;stroke-width:1.0;" width="10" x="1135.5" y="541.9219"/><rect fill="#FFFFFF" filter="url(#f16a6qv7dpsjvx)" height="64.2656" style="stroke:#A80036;stroke-width:1.0;" width="10" x="1135.5" y="678.4531"/><rect fill="#FFFFFF" filter="url(#f16a6qv7dpsjvx)" height="251.0938" style="stroke:#000000;stroke-width:2.0;" width="1180" x="339.5" y="340.9609"/><line style="stroke:#A80036;stroke-width:1.0;stroke-dasharray:5.0,5.0;" x1="59" x2="59" y1="88.2969" y2="796.8516"/><line style="stroke:#A80036;stroke-width:1.0;stroke-dasharray:5.0,5.0;" x1="428.5" x2="428.5" y1="88.2969" y2="796.8516"/><line style="stroke:#A80036;stroke-width:1.0;stroke-dasharray:5.0,5.0;" x1="709.5" x2="709.5" y1="88.2969" y2="796.8516"/><line style="stroke:#A80036;stroke-width:1.0;stroke-dasharray:5.0,5.0;" x1="889.5" x2="889.5" y1="88.2969" y2="796.8516"/><line style="stroke:#A80036;stroke-width:1.0;stroke-dasharray:5.0,5.0;" x1="1018.5" x2="1018.5" y1="88.2969" y2="796.8516"/><line style="stroke:#A80036;stroke-width:1.0;stroke-dasharray:5.0,5.0;" x1="1140.5" x2="1140.5" y1="88.2969" y2="796.8516"/><line style="stroke:#A80036;stroke-width:1.0;stroke-dasharray:5.0,5.0;" x1="1452.5" x2="1452.5" y1="508.1406" y2="796.8516"/><text fill="#000000" font-family="sans-serif" font-size="14" lengthAdjust="spacing" textLength="102" x="5" y="84.9951">Administrador</text><ellipse cx="59" cy="15" fill="#FEFECE" filter="url(#f16a6qv7dpsjvx)" rx="8" ry="8" style="stroke:#A80036;stroke-width:2.0;"/><path d="M59,23 L59,50 M46,31 L72,31 M59,50 L46,65 M59,50 L72,65 " fill="none" filter="url(#f16a6qv7dpsjvx)" style="stroke:#A80036;stroke-width:2.0;"/><text fill="#000000" font-family="sans-serif" font-size="14" lengthAdjust="spacing" textLength="102" x="5" y="808.8467">Administrador</text><ellipse cx="59" cy="822.1484" fill="#FEFECE" filter="url(#f16a6qv7dpsjvx)" rx="8" ry="8" style="stroke:#A80036;stroke-width:2.0;"/><path d="M59,830.1484 L59,857.1484 M46,838.1484 L72,838.1484 M59,857.1484 L46,872.1484 M59,857.1484 L72,872.1484 " fill="none" filter="url(#f16a6qv7dpsjvx)" style="stroke:#A80036;stroke-width:2.0;"/><rect fill="#FEFECE" filter="url(#f16a6qv7dpsjvx)" height="30.2969" style="stroke:#A80036;stroke-width:1.5;" width="155" x="349.5" y="53"/><text fill="#000000" font-family="sans-serif" font-size="14" lengthAdjust="spacing" textLength="141" x="356.5" y="72.9951">:InserirItensStockUI</text><rect fill="#FEFECE" filter="url(#f16a6qv7dpsjvx)" height="30.2969" style="stroke:#A80036;stroke-width:1.5;" width="155" x="349.5" y="795.8516"/><text fill="#000000" font-family="sans-serif" font-size="14" lengthAdjust="spacing" textLength="141" x="356.5" y="815.8467">:InserirItensStockUI</text><rect fill="#FEFECE" filter="url(#f16a6qv7dpsjvx)" height="30.2969" style="stroke:#A80036;stroke-width:1.5;" width="215" x="600.5" y="53"/><text fill="#000000" font-family="sans-serif" font-size="14" lengthAdjust="spacing" textLength="201" x="607.5" y="72.9951">:InserirItensStockController</text><rect fill="#FEFECE" filter="url(#f16a6qv7dpsjvx)" height="30.2969" style="stroke:#A80036;stroke-width:1.5;" width="215" x="600.5" y="795.8516"/><text fill="#000000" font-family="sans-serif" font-size="14" lengthAdjust="spacing" textLength="201" x="607.5" y="815.8467">:InserirItensStockController</text><rect fill="#FEFECE" filter="url(#f16a6qv7dpsjvx)" height="30.2969" style="stroke:#A80036;stroke-width:1.5;" width="117" x="829.5" y="53"/><text fill="#000000" font-family="sans-serif" font-size="14" lengthAdjust="spacing" textLength="103" x="836.5" y="72.9951">:AplicacaoPOT</text><rect fill="#FEFECE" filter="url(#f16a6qv7dpsjvx)" height="30.2969" style="stroke:#A80036;stroke-width:1.5;" width="117" x="829.5" y="795.8516"/><text fill="#000000" font-family="sans-serif" font-size="14" lengthAdjust="spacing" textLength="103" x="836.5" y="815.8467">:AplicacaoPOT</text><rect fill="#FEFECE" filter="url(#f16a6qv7dpsjvx)" height="46.5938" style="stroke:#A80036;stroke-width:1.5;" width="112" x="960.5" y="36.7031"/><text fill="#000000" font-family="sans-serif" font-size="14" lengthAdjust="spacing" textLength="33" x="1000" y="56.6982">app:</text><text fill="#000000" font-family="sans-serif" font-size="14" lengthAdjust="spacing" textLength="98" x="967.5" y="72.9951">AplicacaoPOT</text><rect fill="#FEFECE" filter="url(#f16a6qv7dpsjvx)" height="46.5938" style="stroke:#A80036;stroke-width:1.5;" width="112" x="960.5" y="795.8516"/><text fill="#000000" font-family="sans-serif" font-size="14" lengthAdjust="spacing" textLength="33" x="1000" y="815.8467">app:</text><text fill="#000000" font-family="sans-serif" font-size="14" lengthAdjust="spacing" textLength="98" x="967.5" y="832.1436">AplicacaoPOT</text><rect fill="#FEFECE" filter="url(#f16a6qv7dpsjvx)" height="30.2969" style="stroke:#A80036;stroke-width:1.5;" width="104" x="1086.5" y="53"/><text fill="#000000" font-family="sans-serif" font-size="14" lengthAdjust="spacing" textLength="90" x="1093.5" y="72.9951">:ProdutosDB</text><rect fill="#FEFECE" filter="url(#f16a6qv7dpsjvx)" height="30.2969" style="stroke:#A80036;stroke-width:1.5;" width="104" x="1086.5" y="795.8516"/><text fill="#000000" font-family="sans-serif" font-size="14" lengthAdjust="spacing" textLength="90" x="1093.5" y="815.8467">:ProdutosDB</text><rect fill="#FEFECE" filter="url(#f16a6qv7dpsjvx)" height="30.2969" style="stroke:#A80036;stroke-width:1.5;" width="110" x="1395.5" y="795.8516"/><text fill="#000000" font-family="sans-serif" font-size="14" lengthAdjust="spacing" textLength="96" x="1402.5" y="815.8467">prod:Produto</text><rect fill="#FFFFFF" filter="url(#f16a6qv7dpsjvx)" height="680.5547" style="stroke:#A80036;stroke-width:1.0;" width="10" x="54" y="98.2969"/><rect fill="#FFFFFF" filter="url(#f16a6qv7dpsjvx)" height="500.7578" style="stroke:#A80036;stroke-width:1.0;" width="10" x="424" y="119.4297"/><rect fill="#FFFFFF" filter="url(#f16a6qv7dpsjvx)" height="138.5313" style="stroke:#A80036;stroke-width:1.0;" width="10" x="424" y="649.3203"/><rect fill="#FFFFFF" filter="url(#f16a6qv7dpsjvx)" height="177.3984" style="stroke:#A80036;stroke-width:1.0;" width="10" x="705" y="148.5625"/><rect fill="#FFFFFF" filter="url(#f16a6qv7dpsjvx)" height="197.8281" style="stroke:#A80036;stroke-width:1.0;" width="10" x="705" y="379.2266"/><rect fill="#FFFFFF" filter="url(#f16a6qv7dpsjvx)" height="29.1328" style="stroke:#A80036;stroke-width:1.0;" width="10" x="705" y="678.4531"/><rect fill="#FFFFFF" filter="url(#f16a6qv7dpsjvx)" height="30" style="stroke:#A80036;stroke-width:1.0;" width="10" x="885" y="177.6953"/><rect fill="#FFFFFF" filter="url(#f16a6qv7dpsjvx)" height="30" style="stroke:#A80036;stroke-width:1.0;" width="10" x="1013.5" y="236.8281"/><rect fill="#FFFFFF" filter="url(#f16a6qv7dpsjvx)" height="30" style="stroke:#A80036;stroke-width:1.0;" width="10" x="1135.5" y="295.9609"/><rect fill="#FFFFFF" filter="url(#f16a6qv7dpsjvx)" height="30" style="stroke:#A80036;stroke-width:1.0;" width="10" x="1135.5" y="408.3594"/><rect fill="#FFFFFF" filter="url(#f16a6qv7dpsjvx)" height="29.1328" style="stroke:#A80036;stroke-width:1.0;" width="10" x="1135.5" y="467.4922"/><rect fill="#FFFFFF" filter="url(#f16a6qv7dpsjvx)" height="35.1328" style="stroke:#A80036;stroke-width:1.0;" width="10" x="1135.5" y="541.9219"/><rect fill="#FFFFFF" filter="url(#f16a6qv7dpsjvx)" height="64.2656" style="stroke:#A80036;stroke-width:1.0;" width="10" x="1135.5" y="678.4531"/><polygon fill="#A80036" points="412,115.4297,422,119.4297,412,123.4297,416,119.4297" style="stroke:#A80036;stroke-width:1.0;"/><line style="stroke:#A80036;stroke-width:1.0;" x1="64" x2="418" y1="119.4297" y2="119.4297"/><text fill="#000000" font-family="sans-serif" font-size="13" font-weight="bold" lengthAdjust="spacing" textLength="9" x="71" y="114.3638">1</text><text fill="#000000" font-family="sans-serif" font-size="13" lengthAdjust="spacing" textLength="171" x="84" y="114.3638">nova inserção de produtos</text><polygon fill="#A80036" points="693,144.5625,703,148.5625,693,152.5625,697,148.5625" style="stroke:#A80036;stroke-width:1.0;"/><line style="stroke:#A80036;stroke-width:1.0;" x1="434" x2="699" y1="148.5625" y2="148.5625"/><text fill="#000000" font-family="sans-serif" font-size="13" font-weight="bold" lengthAdjust="spacing" textLength="9" x="441" y="143.4966">2</text><text fill="#000000" font-family="sans-serif" font-size="13" lengthAdjust="spacing" textLength="147" x="454" y="143.4966">lp = getListaProdutos()</text><polygon fill="#A80036" points="873,173.6953,883,177.6953,873,181.6953,877,177.6953" style="stroke:#A80036;stroke-width:1.0;"/><line style="stroke:#A80036;stroke-width:1.0;" x1="715" x2="879" y1="177.6953" y2="177.6953"/><text fill="#000000" font-family="sans-serif" font-size="13" font-weight="bold" lengthAdjust="spacing" textLength="8" x="722" y="172.6294">3</text><text fill="#000000" font-family="sans-serif" font-size="13" lengthAdjust="spacing" textLength="127" x="734" y="172.6294">app = getInstance()</text><polygon fill="#A80036" points="1001.5,232.8281,1011.5,236.8281,1001.5,240.8281,1005.5,236.8281" style="stroke:#A80036;stroke-width:1.0;"/><line style="stroke:#A80036;stroke-width:1.0;" x1="715" x2="1007.5" y1="236.8281" y2="236.8281"/><text fill="#000000" font-family="sans-serif" font-size="13" font-weight="bold" lengthAdjust="spacing" textLength="9" x="722" y="231.7622">4</text><text fill="#000000" font-family="sans-serif" font-size="13" lengthAdjust="spacing" textLength="173" x="735" y="231.7622">sessao = getSessaoAtual()</text><polygon fill="#A80036" points="1123.5,291.9609,1133.5,295.9609,1123.5,299.9609,1127.5,295.9609" style="stroke:#A80036;stroke-width:1.0;"/><line style="stroke:#A80036;stroke-width:1.0;" x1="715" x2="1129.5" y1="295.9609" y2="295.9609"/><text fill="#000000" font-family="sans-serif" font-size="13" font-weight="bold" lengthAdjust="spacing" textLength="9" x="722" y="290.895">5</text><text fill="#000000" font-family="sans-serif" font-size="13" lengthAdjust="spacing" textLength="147" x="735" y="290.895">lp = getListaProdutos()</text><path d="M339.5,340.9609 L417.5,340.9609 L417.5,347.9609 L407.5,357.9609 L339.5,357.9609 L339.5,340.9609 " fill="#EEEEEE" style="stroke:#000000;stroke-width:1.0;"/><rect fill="none" height="251.0938" style="stroke:#000000;stroke-width:2.0;" width="1180" x="339.5" y="340.9609"/><text fill="#000000" font-family="sans-serif" font-size="13" font-weight="bold" lengthAdjust="spacing" textLength="33" x="354.5" y="354.0278">loop</text><polygon fill="#A80036" points="693,375.2266,703,379.2266,693,383.2266,697,379.2266" style="stroke:#A80036;stroke-width:1.0;"/><line style="stroke:#A80036;stroke-width:1.0;" x1="434" x2="699" y1="379.2266" y2="379.2266"/><text fill="#000000" font-family="sans-serif" font-size="13" font-weight="bold" lengthAdjust="spacing" textLength="9" x="441" y="374.1606">6</text><text fill="#000000" font-family="sans-serif" font-size="13" lengthAdjust="spacing" textLength="239" x="454" y="374.1606">novoProduto(desig,peso,preco_base)</text><polygon fill="#A80036" points="1123.5,404.3594,1133.5,408.3594,1123.5,412.3594,1127.5,408.3594" style="stroke:#A80036;stroke-width:1.0;"/><line style="stroke:#A80036;stroke-width:1.0;" x1="715" x2="1129.5" y1="408.3594" y2="408.3594"/><text fill="#000000" font-family="sans-serif" font-size="13" font-weight="bold" lengthAdjust="spacing" textLength="9" x="722" y="403.2935">7</text><text fill="#000000" font-family="sans-serif" font-size="13" lengthAdjust="spacing" textLength="110" x="735" y="403.2935">id = generateID()</text><polygon fill="#A80036" points="1123.5,463.4922,1133.5,467.4922,1123.5,471.4922,1127.5,467.4922" style="stroke:#A80036;stroke-width:1.0;"/><line style="stroke:#A80036;stroke-width:1.0;" x1="715" x2="1129.5" y1="467.4922" y2="467.4922"/><text fill="#000000" font-family="sans-serif" font-size="13" font-weight="bold" lengthAdjust="spacing" textLength="9" x="722" y="462.4263">8</text><text fill="#000000" font-family="sans-serif" font-size="13" lengthAdjust="spacing" textLength="301" x="735" y="462.4263">prod = novoProduto(id,desig,peso,preco_base)</text><polygon fill="#A80036" points="1383.5,492.625,1393.5,496.625,1383.5,500.625,1387.5,496.625" style="stroke:#A80036;stroke-width:1.0;"/><line style="stroke:#A80036;stroke-width:1.0;stroke-dasharray:2.0,2.0;" x1="1140.5" x2="1389.5" y1="496.625" y2="496.625"/><text fill="#000000" font-family="sans-serif" font-size="13" font-weight="bold" lengthAdjust="spacing" textLength="9" x="1147.5" y="491.5591">9</text><text fill="#000000" font-family="sans-serif" font-size="13" lengthAdjust="spacing" textLength="213" x="1160.5" y="491.5591">create(id,desig,peso,preco_base)</text><rect fill="#FEFECE" filter="url(#f16a6qv7dpsjvx)" height="30.2969" style="stroke:#A80036;stroke-width:1.5;" width="110" x="1395.5" y="475.4922"/><text fill="#000000" font-family="sans-serif" font-size="14" lengthAdjust="spacing" textLength="96" x="1402.5" y="495.4873">prod:Produto</text><polygon fill="#A80036" points="1123.5,537.9219,1133.5,541.9219,1123.5,545.9219,1127.5,541.9219" style="stroke:#A80036;stroke-width:1.0;"/><line style="stroke:#A80036;stroke-width:1.0;" x1="715" x2="1129.5" y1="541.9219" y2="541.9219"/><text fill="#000000" font-family="sans-serif" font-size="13" font-weight="bold" lengthAdjust="spacing" textLength="19" x="722" y="536.856">10</text><text fill="#000000" font-family="sans-serif" font-size="13" lengthAdjust="spacing" textLength="127" x="745" y="536.856">validaProduto(prod)</text><line style="stroke:#A80036;stroke-width:1.0;" x1="1145.5" x2="1187.5" y1="576.0547" y2="576.0547"/><line style="stroke:#A80036;stroke-width:1.0;" x1="1187.5" x2="1187.5" y1="576.0547" y2="589.0547"/><line style="stroke:#A80036;stroke-width:1.0;" x1="1140.5" x2="1187.5" y1="589.0547" y2="589.0547"/><polygon fill="#A80036" points="1150.5,585.0547,1140.5,589.0547,1150.5,593.0547,1146.5,589.0547" style="stroke:#A80036;stroke-width:1.0;"/><text fill="#000000" font-family="sans-serif" font-size="13" font-weight="bold" lengthAdjust="spacing" textLength="18" x="1152.5" y="570.9888">11</text><text fill="#000000" font-family="sans-serif" font-size="13" lengthAdjust="spacing" textLength="129" x="1174.5" y="570.9888">addListaProds(prod)</text><polygon fill="#A80036" points="75,616.1875,65,620.1875,75,624.1875,71,620.1875" style="stroke:#A80036;stroke-width:1.0;"/><line style="stroke:#A80036;stroke-width:1.0;stroke-dasharray:2.0,2.0;" x1="69" x2="428" y1="620.1875" y2="620.1875"/><text fill="#000000" font-family="sans-serif" font-size="13" font-weight="bold" lengthAdjust="spacing" textLength="18" x="81" y="615.1216">12</text><text fill="#000000" font-family="sans-serif" font-size="13" lengthAdjust="spacing" textLength="314" x="103" y="615.1216">apresenta dados dos itens e solicita confirmação</text><polygon fill="#A80036" points="412,645.3203,422,649.3203,412,653.3203,416,649.3203" style="stroke:#A80036;stroke-width:1.0;"/><line style="stroke:#A80036;stroke-width:1.0;" x1="64" x2="418" y1="649.3203" y2="649.3203"/><text fill="#000000" font-family="sans-serif" font-size="13" font-weight="bold" lengthAdjust="spacing" textLength="17" x="71" y="644.2544">13</text><text fill="#000000" font-family="sans-serif" font-size="13" lengthAdjust="spacing" textLength="57" x="92" y="644.2544">confirma</text><polygon fill="#A80036" points="693,674.4531,703,678.4531,693,682.4531,697,678.4531" style="stroke:#A80036;stroke-width:1.0;"/><line style="stroke:#A80036;stroke-width:1.0;" x1="434" x2="699" y1="678.4531" y2="678.4531"/><text fill="#000000" font-family="sans-serif" font-size="13" font-weight="bold" lengthAdjust="spacing" textLength="18" x="441" y="673.3872">14</text><text fill="#000000" font-family="sans-serif" font-size="13" lengthAdjust="spacing" textLength="91" x="463" y="673.3872">addProdutos()</text><polygon fill="#A80036" points="1123.5,703.5859,1133.5,707.5859,1123.5,711.5859,1127.5,707.5859" style="stroke:#A80036;stroke-width:1.0;"/><line style="stroke:#A80036;stroke-width:1.0;" x1="710" x2="1129.5" y1="707.5859" y2="707.5859"/><text fill="#000000" font-family="sans-serif" font-size="13" font-weight="bold" lengthAdjust="spacing" textLength="18" x="717" y="702.52">15</text><text fill="#000000" font-family="sans-serif" font-size="13" lengthAdjust="spacing" textLength="130" x="739" y="702.52">addProdutos(lprods)</text><line style="stroke:#A80036;stroke-width:1.0;" x1="1145.5" x2="1187.5" y1="741.7188" y2="741.7188"/><line style="stroke:#A80036;stroke-width:1.0;" x1="1187.5" x2="1187.5" y1="741.7188" y2="754.7188"/><line style="stroke:#A80036;stroke-width:1.0;" x1="1140.5" x2="1187.5" y1="754.7188" y2="754.7188"/><polygon fill="#A80036" points="1150.5,750.7188,1140.5,754.7188,1150.5,758.7188,1146.5,754.7188" style="stroke:#A80036;stroke-width:1.0;"/><text fill="#000000" font-family="sans-serif" font-size="13" font-weight="bold" lengthAdjust="spacing" textLength="18" x="1152.5" y="736.6528">16</text><text fill="#000000" font-family="sans-serif" font-size="13" lengthAdjust="spacing" textLength="174" x="1174.5" y="736.6528">validaListaProdutos(lprods)</text><polygon fill="#A80036" points="70,774.8516,60,778.8516,70,782.8516,66,778.8516" style="stroke:#A80036;stroke-width:1.0;"/><line style="stroke:#A80036;stroke-width:1.0;stroke-dasharray:2.0,2.0;" x1="64" x2="423" y1="778.8516" y2="778.8516"/><text fill="#000000" font-family="sans-serif" font-size="13" font-weight="bold" lengthAdjust="spacing" textLength="18" x="76" y="773.7856">17</text><text fill="#000000" font-family="sans-serif" font-size="13" lengthAdjust="spacing" textLength="190" x="98" y="773.7856">informa sucesso da operação</text><!--MD5=[2d118111cacb0705d3a07ee677bde5ae]
@startuml
autonumber

actor "Administrador" as ADM
participant ":InserirItensStockUI" as UI
participant ":InserirItensStockController" as CTL
participant ":AplicacaoPOT" as _APP
participant "app:\nAplicacaoPOT" as APP
participant ":ProdutosDB" as PDB
participant "prod:Produto" as PROD

activate ADM
ADM -> UI : nova inserção de produtos
activate UI
UI -> CTL : lp = getListaProdutos()
activate CTL
CTL -> _APP : app = getInstance()
activate _APP
deactivate _APP
CTL -> APP : sessao = getSessaoAtual()
activate APP
deactivate APP

CTL -> PDB : lp = getListaProdutos()
activate PDB
deactivate PDB

deactivate CTL

loop
UI -> CTL : novoProduto(desig,peso,preco_base)
activate CTL

CTL -> PDB: id = generateID()
activate PDB
deactivate PDB

CTL -> PDB: prod = novoProduto(id,desig,peso,preco_base)
activate PDB

PDB - -> PROD ** : create(id,desig,peso,preco_base)

deactivate PDB

CTL -> PDB : validaProduto(prod)
activate PDB
PDB -> PDB : addListaProds(prod)
deactivate PDB

deactivate CTL
end

UI - -> ADM : apresenta dados dos itens e solicita confirmação
deactivate UI
ADM -> UI : confirma
activate UI
UI -> CTL : addProdutos()
activate PDB

activate CTL
CTL -> PDB :addProdutos(lprods)
deactivate CTL

PDB -> PDB : validaListaProdutos(lprods)
deactivate PDB
UI - -> ADM: informa sucesso da operação

deactivate ADM
@enduml

PlantUML version 1.2020.27beta7(Unknown compile time)
(GPL source distribution)
Java Runtime: Java(TM) SE Runtime Environment
JVM: Java HotSpot(TM) 64-Bit Server VM
Default Encoding: UTF-8
Language: en
Country: US
--></g></svg>