<?xml version="1.0" encoding="UTF-8" standalone="no"?><svg xmlns="http://www.w3.org/2000/svg" xmlns:xlink="http://www.w3.org/1999/xlink" contentScriptType="application/ecmascript" contentStyleType="text/css" height="367px" preserveAspectRatio="none" style="width:509px;height:367px;" version="1.1" viewBox="0 0 509 367" width="509px" zoomAndPan="magnify"><defs><filter height="300%" id="f1xut2hty5uyn1" width="300%" x="-1" y="-1"><feGaussianBlur result="blurOut" stdDeviation="2.0"/><feColorMatrix in="blurOut" result="blurOut2" type="matrix" values="0 0 0 0 0 0 0 0 0 0 0 0 0 0 0 0 0 0 .4 0"/><feOffset dx="4.0" dy="4.0" in="blurOut2" result="blurOut3"/><feBlend in="SourceGraphic" in2="blurOut3" mode="normal"/></filter></defs><g><rect fill="#FFFFFF" filter="url(#f1xut2hty5uyn1)" height="166.7969" style="stroke:#A80036;stroke-width:1.0;" width="10" x="54" y="98.2969"/><rect fill="#FFFFFF" filter="url(#f1xut2hty5uyn1)" height="29.1328" style="stroke:#A80036;stroke-width:1.0;" width="10" x="454" y="119.4297"/><rect fill="#FFFFFF" filter="url(#f1xut2hty5uyn1)" height="29.1328" style="stroke:#A80036;stroke-width:1.0;" width="10" x="454" y="177.6953"/><rect fill="#FFFFFF" filter="url(#f1xut2hty5uyn1)" height="29.1328" style="stroke:#A80036;stroke-width:1.0;" width="10" x="454" y="235.9609"/><line style="stroke:#A80036;stroke-width:1.0;stroke-dasharray:5.0,5.0;" x1="59" x2="59" y1="88.2969" y2="283.0938"/><line style="stroke:#A80036;stroke-width:1.0;stroke-dasharray:5.0,5.0;" x1="458.5" x2="458.5" y1="88.2969" y2="283.0938"/><text fill="#000000" font-family="sans-serif" font-size="14" lengthAdjust="spacing" textLength="102" x="5" y="84.9951">Administrador</text><ellipse cx="59" cy="15" fill="#FEFECE" filter="url(#f1xut2hty5uyn1)" rx="8" ry="8" style="stroke:#A80036;stroke-width:2.0;"/><path d="M59,23 L59,50 M46,31 L72,31 M59,50 L46,65 M59,50 L72,65 " fill="none" filter="url(#f1xut2hty5uyn1)" style="stroke:#A80036;stroke-width:2.0;"/><text fill="#000000" font-family="sans-serif" font-size="14" lengthAdjust="spacing" textLength="102" x="5" y="295.0889">Administrador</text><ellipse cx="59" cy="308.3906" fill="#FEFECE" filter="url(#f1xut2hty5uyn1)" rx="8" ry="8" style="stroke:#A80036;stroke-width:2.0;"/><path d="M59,316.3906 L59,343.3906 M46,324.3906 L72,324.3906 M59,343.3906 L46,358.3906 M59,343.3906 L72,358.3906 " fill="none" filter="url(#f1xut2hty5uyn1)" style="stroke:#A80036;stroke-width:2.0;"/><rect fill="#FEFECE" filter="url(#f1xut2hty5uyn1)" height="30.2969" style="stroke:#A80036;stroke-width:1.5;" width="77" x="418.5" y="53"/><text fill="#000000" font-family="sans-serif" font-size="14" lengthAdjust="spacing" textLength="63" x="425.5" y="72.9951">:Sistema</text><rect fill="#FEFECE" filter="url(#f1xut2hty5uyn1)" height="30.2969" style="stroke:#A80036;stroke-width:1.5;" width="77" x="418.5" y="282.0938"/><text fill="#000000" font-family="sans-serif" font-size="14" lengthAdjust="spacing" textLength="63" x="425.5" y="302.0889">:Sistema</text><rect fill="#FFFFFF" filter="url(#f1xut2hty5uyn1)" height="166.7969" style="stroke:#A80036;stroke-width:1.0;" width="10" x="54" y="98.2969"/><rect fill="#FFFFFF" filter="url(#f1xut2hty5uyn1)" height="29.1328" style="stroke:#A80036;stroke-width:1.0;" width="10" x="454" y="119.4297"/><rect fill="#FFFFFF" filter="url(#f1xut2hty5uyn1)" height="29.1328" style="stroke:#A80036;stroke-width:1.0;" width="10" x="454" y="177.6953"/><rect fill="#FFFFFF" filter="url(#f1xut2hty5uyn1)" height="29.1328" style="stroke:#A80036;stroke-width:1.0;" width="10" x="454" y="235.9609"/><polygon fill="#A80036" points="442,115.4297,452,119.4297,442,123.4297,446,119.4297" style="stroke:#A80036;stroke-width:1.0;"/><line style="stroke:#A80036;stroke-width:1.0;" x1="64" x2="448" y1="119.4297" y2="119.4297"/><text fill="#000000" font-family="sans-serif" font-size="13" font-weight="bold" lengthAdjust="spacing" textLength="9" x="71" y="114.3638">1</text><text fill="#000000" font-family="sans-serif" font-size="13" lengthAdjust="spacing" textLength="237" x="84" y="114.3638">Pretende inserir novos itens no stock</text><polygon fill="#A80036" points="75,144.5625,65,148.5625,75,152.5625,71,148.5625" style="stroke:#A80036;stroke-width:1.0;"/><line style="stroke:#A80036;stroke-width:1.0;stroke-dasharray:2.0,2.0;" x1="69" x2="458" y1="148.5625" y2="148.5625"/><text fill="#000000" font-family="sans-serif" font-size="13" font-weight="bold" lengthAdjust="spacing" textLength="9" x="81" y="143.4966">2</text><text fill="#000000" font-family="sans-serif" font-size="13" lengthAdjust="spacing" textLength="353" x="94" y="143.4966">solicita dados do item (designacao, peso e preco base)</text><polygon fill="#A80036" points="442,173.6953,452,177.6953,442,181.6953,446,177.6953" style="stroke:#A80036;stroke-width:1.0;"/><line style="stroke:#A80036;stroke-width:1.0;" x1="64" x2="448" y1="177.6953" y2="177.6953"/><text fill="#000000" font-family="sans-serif" font-size="13" font-weight="bold" lengthAdjust="spacing" textLength="8" x="71" y="172.6294">3</text><text fill="#000000" font-family="sans-serif" font-size="13" lengthAdjust="spacing" textLength="185" x="83" y="172.6294">introduz os dados solicitados</text><polygon fill="#A80036" points="75,202.8281,65,206.8281,75,210.8281,71,206.8281" style="stroke:#A80036;stroke-width:1.0;"/><line style="stroke:#A80036;stroke-width:1.0;stroke-dasharray:2.0,2.0;" x1="69" x2="458" y1="206.8281" y2="206.8281"/><text fill="#000000" font-family="sans-serif" font-size="13" font-weight="bold" lengthAdjust="spacing" textLength="9" x="81" y="201.7622">4</text><text fill="#000000" font-family="sans-serif" font-size="13" lengthAdjust="spacing" textLength="252" x="94" y="201.7622">apresenta dados e solicita confirmação</text><polygon fill="#A80036" points="442,231.9609,452,235.9609,442,239.9609,446,235.9609" style="stroke:#A80036;stroke-width:1.0;"/><line style="stroke:#A80036;stroke-width:1.0;" x1="64" x2="448" y1="235.9609" y2="235.9609"/><text fill="#000000" font-family="sans-serif" font-size="13" font-weight="bold" lengthAdjust="spacing" textLength="9" x="71" y="230.895">5</text><text fill="#000000" font-family="sans-serif" font-size="13" lengthAdjust="spacing" textLength="57" x="84" y="230.895">confirma</text><polygon fill="#A80036" points="70,261.0938,60,265.0938,70,269.0938,66,265.0938" style="stroke:#A80036;stroke-width:1.0;"/><line style="stroke:#A80036;stroke-width:1.0;stroke-dasharray:2.0,2.0;" x1="64" x2="458" y1="265.0938" y2="265.0938"/><text fill="#000000" font-family="sans-serif" font-size="13" font-weight="bold" lengthAdjust="spacing" textLength="9" x="76" y="260.0278">6</text><text fill="#000000" font-family="sans-serif" font-size="13" lengthAdjust="spacing" textLength="154" x="89" y="260.0278">operação bem sucedida</text><!--MD5=[d1279913a3287fe1a2a182fa4959bdc0]
@startuml
autonumber
actor "Administrador" as ADM

activate ADM
ADM -> ":Sistema" : Pretende inserir novos itens no stock
activate ":Sistema"

":Sistema" - -> ADM : solicita dados do item (designacao, peso e preco base)
deactivate ":Sistema"

ADM -> ":Sistema" : introduz os dados solicitados
activate ":Sistema"

":Sistema" - -> ADM : apresenta dados e solicita confirmação
deactivate ":Sistema"

ADM -> ":Sistema" : confirma
activate ":Sistema"
":Sistema" - -> ADM : operação bem sucedida
deactivate ":Sistema"

deactivate ADM
@enduml

PlantUML version 1.2020.27beta8(Unknown compile time)
(GPL source distribution)
Java Runtime: Java(TM) SE Runtime Environment
JVM: Java HotSpot(TM) 64-Bit Server VM
Default Encoding: UTF-8
Language: en
Country: US
--></g></svg>