<?xml version="1.0" encoding="UTF-8" standalone="no"?><svg xmlns="http://www.w3.org/2000/svg" xmlns:xlink="http://www.w3.org/1999/xlink" contentScriptType="application/ecmascript" contentStyleType="text/css" height="578px" preserveAspectRatio="none" style="width:533px;height:578px;" version="1.1" viewBox="0 0 533 578" width="533px" zoomAndPan="magnify"><defs><filter height="300%" id="f1o7ce55e5628h" width="300%" x="-1" y="-1"><feGaussianBlur result="blurOut" stdDeviation="2.0"/><feColorMatrix in="blurOut" result="blurOut2" type="matrix" values="0 0 0 0 0 0 0 0 0 0 0 0 0 0 0 0 0 0 .4 0"/><feOffset dx="4.0" dy="4.0" in="blurOut2" result="blurOut3"/><feBlend in="SourceGraphic" in2="blurOut3" mode="normal"/></filter></defs><g><!--MD5=[380d12a68ed0046a60f31008a02875d0]
class AplicacaoPOT--><rect codeLine="3" fill="#FEFECE" filter="url(#f1o7ce55e5628h)" height="73.6094" id="AplicacaoPOT" style="stroke:#A80036;stroke-width:1.5;" width="130" x="7" y="282"/><ellipse cx="29.65" cy="298" fill="#ADD1B2" rx="11" ry="11" style="stroke:#A80036;stroke-width:1.0;"/><path d="M31.9938,293.6719 C31.0563,293.2344 30.4625,293.0938 29.5875,293.0938 C26.9625,293.0938 24.9625,295.1719 24.9625,297.8906 L24.9625,299.0156 C24.9625,301.5938 27.0719,303.4844 29.9625,303.4844 C31.1813,303.4844 32.3375,303.1875 33.0875,302.6406 C33.6656,302.2344 33.9938,301.7813 33.9938,301.3906 C33.9938,300.9375 33.6031,300.5469 33.1344,300.5469 C32.9156,300.5469 32.7125,300.625 32.525,300.8125 C32.0719,301.2969 32.0719,301.2969 31.8844,301.3906 C31.4625,301.6563 30.775,301.7813 30.0094,301.7813 C27.9625,301.7813 26.6656,300.6875 26.6656,298.9844 L26.6656,297.8906 C26.6656,296.1094 27.9156,294.7969 29.65,294.7969 C30.2281,294.7969 30.8375,294.9531 31.3063,295.2031 C31.7906,295.4844 31.9625,295.7031 32.0563,296.1094 C32.1188,296.5156 32.15,296.6406 32.2906,296.7656 C32.4313,296.9063 32.6656,297.0156 32.8844,297.0156 C33.15,297.0156 33.4156,296.875 33.5875,296.6563 C33.6969,296.5 33.7281,296.3125 33.7281,295.8906 L33.7281,294.4688 C33.7281,294.0313 33.7125,293.9063 33.6188,293.75 C33.4625,293.4844 33.1813,293.3438 32.8844,293.3438 C32.5875,293.3438 32.3844,293.4375 32.1656,293.75 L31.9938,293.6719 Z " fill="#000000"/><text fill="#000000" font-family="sans-serif" font-size="12" lengthAdjust="spacing" textLength="81" x="45.35" y="302.1543">AplicacaoPOT</text><line style="stroke:#A80036;stroke-width:1.5;" x1="8" x2="136" y1="314" y2="314"/><line style="stroke:#A80036;stroke-width:1.5;" x1="8" x2="136" y1="322" y2="322"/><text fill="#000000" font-family="sans-serif" font-size="11" lengthAdjust="spacing" textLength="118" x="13" y="336.2104">+static getInstance()</text><text fill="#000000" font-family="sans-serif" font-size="11" lengthAdjust="spacing" textLength="107" x="13" y="349.0151">+getSessaoAtual()</text><!--MD5=[d4dacc50d49878ba7c621dfc80a2e1ce]
class Produto--><rect codeLine="9" fill="#FEFECE" filter="url(#f1o7ce55e5628h)" height="112.0234" id="Produto" style="stroke:#A80036;stroke-width:1.5;" width="202" x="151" y="452"/><ellipse cx="224.75" cy="468" fill="#ADD1B2" rx="11" ry="11" style="stroke:#A80036;stroke-width:1.0;"/><path d="M227.0938,463.6719 C226.1563,463.2344 225.5625,463.0938 224.6875,463.0938 C222.0625,463.0938 220.0625,465.1719 220.0625,467.8906 L220.0625,469.0156 C220.0625,471.5938 222.1719,473.4844 225.0625,473.4844 C226.2813,473.4844 227.4375,473.1875 228.1875,472.6406 C228.7656,472.2344 229.0938,471.7813 229.0938,471.3906 C229.0938,470.9375 228.7031,470.5469 228.2344,470.5469 C228.0156,470.5469 227.8125,470.625 227.625,470.8125 C227.1719,471.2969 227.1719,471.2969 226.9844,471.3906 C226.5625,471.6563 225.875,471.7813 225.1094,471.7813 C223.0625,471.7813 221.7656,470.6875 221.7656,468.9844 L221.7656,467.8906 C221.7656,466.1094 223.0156,464.7969 224.75,464.7969 C225.3281,464.7969 225.9375,464.9531 226.4063,465.2031 C226.8906,465.4844 227.0625,465.7031 227.1563,466.1094 C227.2188,466.5156 227.25,466.6406 227.3906,466.7656 C227.5313,466.9063 227.7656,467.0156 227.9844,467.0156 C228.25,467.0156 228.5156,466.875 228.6875,466.6563 C228.7969,466.5 228.8281,466.3125 228.8281,465.8906 L228.8281,464.4688 C228.8281,464.0313 228.8125,463.9063 228.7188,463.75 C228.5625,463.4844 228.2813,463.3438 227.9844,463.3438 C227.6875,463.3438 227.4844,463.4375 227.2656,463.75 L227.0938,463.6719 Z " fill="#000000"/><text fill="#000000" font-family="sans-serif" font-size="12" lengthAdjust="spacing" textLength="46" x="245.25" y="472.1543">Produto</text><line style="stroke:#A80036;stroke-width:1.5;" x1="152" x2="352" y1="484" y2="484"/><text fill="#000000" font-family="sans-serif" font-size="11" lengthAdjust="spacing" textLength="59" x="157" y="498.2104">-Integer id</text><text fill="#000000" font-family="sans-serif" font-size="11" lengthAdjust="spacing" textLength="72" x="157" y="511.0151">-String desig</text><text fill="#000000" font-family="sans-serif" font-size="11" lengthAdjust="spacing" textLength="77" x="157" y="523.8198">-Double peso</text><text fill="#000000" font-family="sans-serif" font-size="11" lengthAdjust="spacing" textLength="115" x="157" y="536.6245">-Double preco_base</text><line style="stroke:#A80036;stroke-width:1.5;" x1="152" x2="352" y1="543.2188" y2="543.2188"/><text fill="#000000" font-family="sans-serif" font-size="11" lengthAdjust="spacing" textLength="190" x="157" y="557.4292">+Produto(desig,peso,preco_base)</text><!--MD5=[c7a66176ac6677a496c6f1e27f3083bc]
class ProdutosDB--><rect codeLine="17" fill="#FEFECE" filter="url(#f1o7ce55e5628h)" height="112.0234" id="ProdutosDB" style="stroke:#A80036;stroke-width:1.5;" width="276" x="243" y="263"/><ellipse cx="341.75" cy="279" fill="#ADD1B2" rx="11" ry="11" style="stroke:#A80036;stroke-width:1.0;"/><path d="M344.0938,274.6719 C343.1563,274.2344 342.5625,274.0938 341.6875,274.0938 C339.0625,274.0938 337.0625,276.1719 337.0625,278.8906 L337.0625,280.0156 C337.0625,282.5938 339.1719,284.4844 342.0625,284.4844 C343.2813,284.4844 344.4375,284.1875 345.1875,283.6406 C345.7656,283.2344 346.0938,282.7813 346.0938,282.3906 C346.0938,281.9375 345.7031,281.5469 345.2344,281.5469 C345.0156,281.5469 344.8125,281.625 344.625,281.8125 C344.1719,282.2969 344.1719,282.2969 343.9844,282.3906 C343.5625,282.6563 342.875,282.7813 342.1094,282.7813 C340.0625,282.7813 338.7656,281.6875 338.7656,279.9844 L338.7656,278.8906 C338.7656,277.1094 340.0156,275.7969 341.75,275.7969 C342.3281,275.7969 342.9375,275.9531 343.4063,276.2031 C343.8906,276.4844 344.0625,276.7031 344.1563,277.1094 C344.2188,277.5156 344.25,277.6406 344.3906,277.7656 C344.5313,277.9063 344.7656,278.0156 344.9844,278.0156 C345.25,278.0156 345.5156,277.875 345.6875,277.6563 C345.7969,277.5 345.8281,277.3125 345.8281,276.8906 L345.8281,275.4688 C345.8281,275.0313 345.8125,274.9063 345.7188,274.75 C345.5625,274.4844 345.2813,274.3438 344.9844,274.3438 C344.6875,274.3438 344.4844,274.4375 344.2656,274.75 L344.0938,274.6719 Z " fill="#000000"/><text fill="#000000" font-family="sans-serif" font-size="12" lengthAdjust="spacing" textLength="70" x="362.25" y="283.1543">ProdutosDB</text><line style="stroke:#A80036;stroke-width:1.5;" x1="244" x2="518" y1="295" y2="295"/><line style="stroke:#A80036;stroke-width:1.5;" x1="244" x2="518" y1="303" y2="303"/><text fill="#000000" font-family="sans-serif" font-size="11" lengthAdjust="spacing" textLength="264" x="249" y="317.2104">+Produto novoProduto(desig,peso,preco_base)</text><text fill="#000000" font-family="sans-serif" font-size="11" lengthAdjust="spacing" textLength="110" x="249" y="330.0151">+getListaProdutos()</text><text fill="#000000" font-family="sans-serif" font-size="11" lengthAdjust="spacing" textLength="118" x="249" y="342.8198">+validaProduto(prod)</text><text fill="#000000" font-family="sans-serif" font-size="11" lengthAdjust="spacing" textLength="123" x="249" y="355.6245">+registaProduto(prod)</text><text fill="#000000" font-family="sans-serif" font-size="11" lengthAdjust="spacing" textLength="105" x="249" y="368.4292">+addProduto(prod)</text><!--MD5=[20383f3e966ccbfa3e0a8a9a61058a93]
class InserirItensStockController--><rect codeLine="25" fill="#FEFECE" filter="url(#f1o7ce55e5628h)" height="86.4141" id="InserirItensStockController" style="stroke:#A80036;stroke-width:1.5;" width="230" x="75" y="116"/><ellipse cx="107.1" cy="132" fill="#ADD1B2" rx="11" ry="11" style="stroke:#A80036;stroke-width:1.0;"/><path d="M109.4438,127.6719 C108.5063,127.2344 107.9125,127.0938 107.0375,127.0938 C104.4125,127.0938 102.4125,129.1719 102.4125,131.8906 L102.4125,133.0156 C102.4125,135.5938 104.5219,137.4844 107.4125,137.4844 C108.6313,137.4844 109.7875,137.1875 110.5375,136.6406 C111.1156,136.2344 111.4438,135.7813 111.4438,135.3906 C111.4438,134.9375 111.0531,134.5469 110.5844,134.5469 C110.3656,134.5469 110.1625,134.625 109.975,134.8125 C109.5219,135.2969 109.5219,135.2969 109.3344,135.3906 C108.9125,135.6563 108.225,135.7813 107.4594,135.7813 C105.4125,135.7813 104.1156,134.6875 104.1156,132.9844 L104.1156,131.8906 C104.1156,130.1094 105.3656,128.7969 107.1,128.7969 C107.6781,128.7969 108.2875,128.9531 108.7563,129.2031 C109.2406,129.4844 109.4125,129.7031 109.5063,130.1094 C109.5688,130.5156 109.6,130.6406 109.7406,130.7656 C109.8813,130.9063 110.1156,131.0156 110.3344,131.0156 C110.6,131.0156 110.8656,130.875 111.0375,130.6563 C111.1469,130.5 111.1781,130.3125 111.1781,129.8906 L111.1781,128.4688 C111.1781,128.0313 111.1625,127.9063 111.0688,127.75 C110.9125,127.4844 110.6313,127.3438 110.3344,127.3438 C110.0375,127.3438 109.8344,127.4375 109.6156,127.75 L109.4438,127.6719 Z " fill="#000000"/><text fill="#000000" font-family="sans-serif" font-size="12" lengthAdjust="spacing" textLength="160" x="124.9" y="136.1543">InserirItensStockController</text><line style="stroke:#A80036;stroke-width:1.5;" x1="76" x2="304" y1="148" y2="148"/><line style="stroke:#A80036;stroke-width:1.5;" x1="76" x2="304" y1="156" y2="156"/><text fill="#000000" font-family="sans-serif" font-size="11" lengthAdjust="spacing" textLength="218" x="81" y="170.2104">+novoProduto(desig,peso,preco_base)</text><text fill="#000000" font-family="sans-serif" font-size="11" lengthAdjust="spacing" textLength="123" x="81" y="183.0151">+registaProduto(prod)</text><text fill="#000000" font-family="sans-serif" font-size="11" lengthAdjust="spacing" textLength="110" x="81" y="195.8198">+getListaProdutos()</text><!--MD5=[f44a3898af6fc32d8c41f51b0f4e460a]
class InserirItensStockUI--><rect codeLine="31" fill="#FEFECE" filter="url(#f1o7ce55e5628h)" height="48" id="InserirItensStockUI" style="stroke:#A80036;stroke-width:1.5;" width="145" x="117.5" y="7"/><ellipse cx="132.5" cy="23" fill="#ADD1B2" rx="11" ry="11" style="stroke:#A80036;stroke-width:1.0;"/><path d="M134.8438,18.6719 C133.9063,18.2344 133.3125,18.0938 132.4375,18.0938 C129.8125,18.0938 127.8125,20.1719 127.8125,22.8906 L127.8125,24.0156 C127.8125,26.5938 129.9219,28.4844 132.8125,28.4844 C134.0313,28.4844 135.1875,28.1875 135.9375,27.6406 C136.5156,27.2344 136.8438,26.7813 136.8438,26.3906 C136.8438,25.9375 136.4531,25.5469 135.9844,25.5469 C135.7656,25.5469 135.5625,25.625 135.375,25.8125 C134.9219,26.2969 134.9219,26.2969 134.7344,26.3906 C134.3125,26.6563 133.625,26.7813 132.8594,26.7813 C130.8125,26.7813 129.5156,25.6875 129.5156,23.9844 L129.5156,22.8906 C129.5156,21.1094 130.7656,19.7969 132.5,19.7969 C133.0781,19.7969 133.6875,19.9531 134.1563,20.2031 C134.6406,20.4844 134.8125,20.7031 134.9063,21.1094 C134.9688,21.5156 135,21.6406 135.1406,21.7656 C135.2813,21.9063 135.5156,22.0156 135.7344,22.0156 C136,22.0156 136.2656,21.875 136.4375,21.6563 C136.5469,21.5 136.5781,21.3125 136.5781,20.8906 L136.5781,19.4688 C136.5781,19.0313 136.5625,18.9063 136.4688,18.75 C136.3125,18.4844 136.0313,18.3438 135.7344,18.3438 C135.4375,18.3438 135.2344,18.4375 135.0156,18.75 L134.8438,18.6719 Z " fill="#000000"/><text fill="#000000" font-family="sans-serif" font-size="12" lengthAdjust="spacing" textLength="113" x="146.5" y="27.1543">InserirItensStockUI</text><line style="stroke:#A80036;stroke-width:1.5;" x1="118.5" x2="261.5" y1="39" y2="39"/><line style="stroke:#A80036;stroke-width:1.5;" x1="118.5" x2="261.5" y1="47" y2="47"/><!--MD5=[190b7abe38382bcd473537e2f42ab0fd]
link InserirItensStockUI to InserirItensStockController--><path codeLine="34" d="M190,55.11 C190,70.631 190,91.639 190,110.625 " fill="none" id="InserirItensStockUI-to-InserirItensStockController" style="stroke:#A80036;stroke-width:1.0;stroke-dasharray:7.0,7.0;"/><polygon fill="#A80036" points="190,115.921,194,106.921,190,110.921,186,106.921,190,115.921" style="stroke:#A80036;stroke-width:1.0;"/><!--MD5=[a356b334672a704d119bc08d591a3ae0]
link InserirItensStockController to ProdutosDB--><path codeLine="35" d="M240.934,202.134 C262.245,219.763 287.373,240.549 310.419,259.613 " fill="none" id="InserirItensStockController-to-ProdutosDB" style="stroke:#A80036;stroke-width:1.0;stroke-dasharray:7.0,7.0;"/><polygon fill="#A80036" points="314.396,262.904,310.0108,254.0853,310.5433,259.717,304.9116,260.2496,314.396,262.904" style="stroke:#A80036;stroke-width:1.0;"/><!--MD5=[b65db16dc8e7c1cc1ac9f047f6079743]
link InserirItensStockController to Produto--><path codeLine="36" d="M196.34,202.108 C202.997,245.516 214.006,315.114 225,375 C229.32,398.528 234.497,424.323 239.157,446.819 " fill="none" id="InserirItensStockController-to-Produto" style="stroke:#A80036;stroke-width:1.0;stroke-dasharray:7.0,7.0;"/><polygon fill="#A80036" points="240.205,451.864,242.2933,442.2391,239.1893,446.9683,234.4601,443.8642,240.205,451.864" style="stroke:#A80036;stroke-width:1.0;"/><!--MD5=[19b449a860a09019a10a9efe2ad9f956]
link InserirItensStockController to AplicacaoPOT--><path codeLine="37" d="M158.378,202.341 C140.897,225.748 119.297,254.671 102.0691,277.738 " fill="none" id="InserirItensStockController-to-AplicacaoPOT" style="stroke:#A80036;stroke-width:1.0;stroke-dasharray:7.0,7.0;"/><polygon fill="#A80036" points="98.9052,281.974,107.4951,277.1559,101.8968,277.9677,101.085,272.3694,98.9052,281.974" style="stroke:#A80036;stroke-width:1.0;"/><!--MD5=[bbd3ef872394a4705faf2324ce30b073]
link ProdutosDB to Produto--><path codeLine="39" d="M342.993,375.095 C327.251,397.915 308.961,424.429 292.925,447.675 " fill="none" id="ProdutosDB-to-Produto" style="stroke:#A80036;stroke-width:1.0;"/><polygon fill="#A80036" points="289.958,451.976,298.3606,446.8382,292.7968,447.86,291.775,442.2962,289.958,451.976" style="stroke:#A80036;stroke-width:1.0;"/><text fill="#000000" font-family="sans-serif" font-size="13" lengthAdjust="spacing" textLength="97" x="321" y="418.0669">tem registadas</text><text fill="#000000" font-family="sans-serif" font-size="13" lengthAdjust="spacing" textLength="8" x="329.8734" y="394.9192">1</text><text fill="#000000" font-family="sans-serif" font-size="13" lengthAdjust="spacing" textLength="7" x="287.3729" y="440.9109">*</text><!--MD5=[a13e1c309c9233039ce9bb375222703c]
@startuml
skinparam classAttributeIconSize 0

class AplicacaoPOT
{
  +static getInstance()
  +getSessaoAtual()
}

class Produto {
  -Integer id
  -String desig
  -Double peso
  -Double preco_base
  +Produto(desig,peso,preco_base)
}

class ProdutosDB {
  +Produto novoProduto(desig,peso,preco_base)
  +getListaProdutos()
  +validaProduto(prod)
  +registaProduto(prod)
  +addProduto(prod)
}

class InserirItensStockController {
    +novoProduto(desig,peso,preco_base)
    +registaProduto(prod)
    +getListaProdutos()
}

class InserirItensStockUI {
}

InserirItensStockUI ..> InserirItensStockController
InserirItensStockController ..> ProdutosDB
InserirItensStockController ..> Produto
InserirItensStockController ..> AplicacaoPOT

ProdutosDB "1" - -> "*" Produto : tem registadas
@enduml

PlantUML version 1.2020.27beta8(Unknown compile time)
(GPL source distribution)
Java Runtime: Java(TM) SE Runtime Environment
JVM: Java HotSpot(TM) 64-Bit Server VM
Default Encoding: UTF-8
Language: en
Country: US
--></g></svg>