<?xml version="1.0" encoding="UTF-8" standalone="no"?><svg xmlns="http://www.w3.org/2000/svg" xmlns:xlink="http://www.w3.org/1999/xlink" contentScriptType="application/ecmascript" contentStyleType="text/css" height="820px" preserveAspectRatio="none" style="width:1503px;height:820px;" version="1.1" viewBox="0 0 1503 820" width="1503px" zoomAndPan="magnify"><defs><filter height="300%" id="f1g6zmygani7a8" width="300%" x="-1" y="-1"><feGaussianBlur result="blurOut" stdDeviation="2.0"/><feColorMatrix in="blurOut" result="blurOut2" type="matrix" values="0 0 0 0 0 0 0 0 0 0 0 0 0 0 0 0 0 0 .4 0"/><feOffset dx="4.0" dy="4.0" in="blurOut2" result="blurOut3"/><feBlend in="SourceGraphic" in2="blurOut3" mode="normal"/></filter></defs><g><rect fill="#FFFFFF" filter="url(#f1g6zmygani7a8)" height="620.2891" style="stroke:#A80036;stroke-width:1.0;" width="10" x="54" y="98.2969"/><rect fill="#FFFFFF" filter="url(#f1g6zmygani7a8)" height="398.3594" style="stroke:#A80036;stroke-width:1.0;" width="10" x="423" y="119.4297"/><rect fill="#FFFFFF" filter="url(#f1g6zmygani7a8)" height="180.6641" style="stroke:#A80036;stroke-width:1.0;" width="10" x="423" y="546.9219"/><rect fill="#FFFFFF" filter="url(#f1g6zmygani7a8)" height="177.3984" style="stroke:#A80036;stroke-width:1.0;" width="10" x="704" y="148.5625"/><rect fill="#FFFFFF" filter="url(#f1g6zmygani7a8)" height="133.5625" style="stroke:#A80036;stroke-width:1.0;" width="10" x="704" y="355.0938"/><rect fill="#FFFFFF" filter="url(#f1g6zmygani7a8)" height="106.3984" style="stroke:#A80036;stroke-width:1.0;" width="10" x="704" y="576.0547"/><rect fill="#FFFFFF" filter="url(#f1g6zmygani7a8)" height="30" style="stroke:#A80036;stroke-width:1.0;" width="10" x="884" y="177.6953"/><rect fill="#FFFFFF" filter="url(#f1g6zmygani7a8)" height="30" style="stroke:#A80036;stroke-width:1.0;" width="10" x="1012.5" y="236.8281"/><rect fill="#FFFFFF" filter="url(#f1g6zmygani7a8)" height="30" style="stroke:#A80036;stroke-width:1.0;" width="10" x="1134.5" y="295.9609"/><rect fill="#FFFFFF" filter="url(#f1g6zmygani7a8)" height="29.1328" style="stroke:#A80036;stroke-width:1.0;" width="10" x="1134.5" y="384.2266"/><rect fill="#FFFFFF" filter="url(#f1g6zmygani7a8)" height="30" style="stroke:#A80036;stroke-width:1.0;" width="10" x="1134.5" y="458.6563"/><rect fill="#FFFFFF" filter="url(#f1g6zmygani7a8)" height="77.2656" style="stroke:#A80036;stroke-width:1.0;" width="10" x="1134.5" y="605.1875"/><line style="stroke:#A80036;stroke-width:1.0;stroke-dasharray:5.0,5.0;" x1="59" x2="59" y1="88.2969" y2="736.5859"/><line style="stroke:#A80036;stroke-width:1.0;stroke-dasharray:5.0,5.0;" x1="427.5" x2="427.5" y1="88.2969" y2="736.5859"/><line style="stroke:#A80036;stroke-width:1.0;stroke-dasharray:5.0,5.0;" x1="708.5" x2="708.5" y1="88.2969" y2="736.5859"/><line style="stroke:#A80036;stroke-width:1.0;stroke-dasharray:5.0,5.0;" x1="888.5" x2="888.5" y1="88.2969" y2="736.5859"/><line style="stroke:#A80036;stroke-width:1.0;stroke-dasharray:5.0,5.0;" x1="1017.5" x2="1017.5" y1="88.2969" y2="736.5859"/><line style="stroke:#A80036;stroke-width:1.0;stroke-dasharray:5.0,5.0;" x1="1139.5" x2="1139.5" y1="88.2969" y2="736.5859"/><line style="stroke:#A80036;stroke-width:1.0;stroke-dasharray:5.0,5.0;" x1="1436.5" x2="1436.5" y1="424.875" y2="736.5859"/><text fill="#000000" font-family="sans-serif" font-size="14" lengthAdjust="spacing" textLength="102" x="5" y="84.9951">Administrador</text><ellipse cx="59" cy="15" fill="#FEFECE" filter="url(#f1g6zmygani7a8)" rx="8" ry="8" style="stroke:#A80036;stroke-width:2.0;"/><path d="M59,23 L59,50 M46,31 L72,31 M59,50 L46,65 M59,50 L72,65 " fill="none" filter="url(#f1g6zmygani7a8)" style="stroke:#A80036;stroke-width:2.0;"/><text fill="#000000" font-family="sans-serif" font-size="14" lengthAdjust="spacing" textLength="102" x="5" y="748.5811">Administrador</text><ellipse cx="59" cy="761.8828" fill="#FEFECE" filter="url(#f1g6zmygani7a8)" rx="8" ry="8" style="stroke:#A80036;stroke-width:2.0;"/><path d="M59,769.8828 L59,796.8828 M46,777.8828 L72,777.8828 M59,796.8828 L46,811.8828 M59,796.8828 L72,811.8828 " fill="none" filter="url(#f1g6zmygani7a8)" style="stroke:#A80036;stroke-width:2.0;"/><rect fill="#FEFECE" filter="url(#f1g6zmygani7a8)" height="30.2969" style="stroke:#A80036;stroke-width:1.5;" width="155" x="348.5" y="53"/><text fill="#000000" font-family="sans-serif" font-size="14" lengthAdjust="spacing" textLength="141" x="355.5" y="72.9951">:InserirItensStockUI</text><rect fill="#FEFECE" filter="url(#f1g6zmygani7a8)" height="30.2969" style="stroke:#A80036;stroke-width:1.5;" width="155" x="348.5" y="735.5859"/><text fill="#000000" font-family="sans-serif" font-size="14" lengthAdjust="spacing" textLength="141" x="355.5" y="755.5811">:InserirItensStockUI</text><rect fill="#FEFECE" filter="url(#f1g6zmygani7a8)" height="30.2969" style="stroke:#A80036;stroke-width:1.5;" width="215" x="599.5" y="53"/><text fill="#000000" font-family="sans-serif" font-size="14" lengthAdjust="spacing" textLength="201" x="606.5" y="72.9951">:InserirItensStockController</text><rect fill="#FEFECE" filter="url(#f1g6zmygani7a8)" height="30.2969" style="stroke:#A80036;stroke-width:1.5;" width="215" x="599.5" y="735.5859"/><text fill="#000000" font-family="sans-serif" font-size="14" lengthAdjust="spacing" textLength="201" x="606.5" y="755.5811">:InserirItensStockController</text><rect fill="#FEFECE" filter="url(#f1g6zmygani7a8)" height="30.2969" style="stroke:#A80036;stroke-width:1.5;" width="117" x="828.5" y="53"/><text fill="#000000" font-family="sans-serif" font-size="14" lengthAdjust="spacing" textLength="103" x="835.5" y="72.9951">:AplicacaoPOT</text><rect fill="#FEFECE" filter="url(#f1g6zmygani7a8)" height="30.2969" style="stroke:#A80036;stroke-width:1.5;" width="117" x="828.5" y="735.5859"/><text fill="#000000" font-family="sans-serif" font-size="14" lengthAdjust="spacing" textLength="103" x="835.5" y="755.5811">:AplicacaoPOT</text><rect fill="#FEFECE" filter="url(#f1g6zmygani7a8)" height="46.5938" style="stroke:#A80036;stroke-width:1.5;" width="112" x="959.5" y="36.7031"/><text fill="#000000" font-family="sans-serif" font-size="14" lengthAdjust="spacing" textLength="33" x="999" y="56.6982">app:</text><text fill="#000000" font-family="sans-serif" font-size="14" lengthAdjust="spacing" textLength="98" x="966.5" y="72.9951">AplicacaoPOT</text><rect fill="#FEFECE" filter="url(#f1g6zmygani7a8)" height="46.5938" style="stroke:#A80036;stroke-width:1.5;" width="112" x="959.5" y="735.5859"/><text fill="#000000" font-family="sans-serif" font-size="14" lengthAdjust="spacing" textLength="33" x="999" y="755.5811">app:</text><text fill="#000000" font-family="sans-serif" font-size="14" lengthAdjust="spacing" textLength="98" x="966.5" y="771.8779">AplicacaoPOT</text><rect fill="#FEFECE" filter="url(#f1g6zmygani7a8)" height="30.2969" style="stroke:#A80036;stroke-width:1.5;" width="104" x="1085.5" y="53"/><text fill="#000000" font-family="sans-serif" font-size="14" lengthAdjust="spacing" textLength="90" x="1092.5" y="72.9951">:ProdutosDB</text><rect fill="#FEFECE" filter="url(#f1g6zmygani7a8)" height="30.2969" style="stroke:#A80036;stroke-width:1.5;" width="104" x="1085.5" y="735.5859"/><text fill="#000000" font-family="sans-serif" font-size="14" lengthAdjust="spacing" textLength="90" x="1092.5" y="755.5811">:ProdutosDB</text><rect fill="#FEFECE" filter="url(#f1g6zmygani7a8)" height="30.2969" style="stroke:#A80036;stroke-width:1.5;" width="110" x="1379.5" y="735.5859"/><text fill="#000000" font-family="sans-serif" font-size="14" lengthAdjust="spacing" textLength="96" x="1386.5" y="755.5811">prod:Produto</text><rect fill="#FFFFFF" filter="url(#f1g6zmygani7a8)" height="620.2891" style="stroke:#A80036;stroke-width:1.0;" width="10" x="54" y="98.2969"/><rect fill="#FFFFFF" filter="url(#f1g6zmygani7a8)" height="398.3594" style="stroke:#A80036;stroke-width:1.0;" width="10" x="423" y="119.4297"/><rect fill="#FFFFFF" filter="url(#f1g6zmygani7a8)" height="180.6641" style="stroke:#A80036;stroke-width:1.0;" width="10" x="423" y="546.9219"/><rect fill="#FFFFFF" filter="url(#f1g6zmygani7a8)" height="177.3984" style="stroke:#A80036;stroke-width:1.0;" width="10" x="704" y="148.5625"/><rect fill="#FFFFFF" filter="url(#f1g6zmygani7a8)" height="133.5625" style="stroke:#A80036;stroke-width:1.0;" width="10" x="704" y="355.0938"/><rect fill="#FFFFFF" filter="url(#f1g6zmygani7a8)" height="106.3984" style="stroke:#A80036;stroke-width:1.0;" width="10" x="704" y="576.0547"/><rect fill="#FFFFFF" filter="url(#f1g6zmygani7a8)" height="30" style="stroke:#A80036;stroke-width:1.0;" width="10" x="884" y="177.6953"/><rect fill="#FFFFFF" filter="url(#f1g6zmygani7a8)" height="30" style="stroke:#A80036;stroke-width:1.0;" width="10" x="1012.5" y="236.8281"/><rect fill="#FFFFFF" filter="url(#f1g6zmygani7a8)" height="30" style="stroke:#A80036;stroke-width:1.0;" width="10" x="1134.5" y="295.9609"/><rect fill="#FFFFFF" filter="url(#f1g6zmygani7a8)" height="29.1328" style="stroke:#A80036;stroke-width:1.0;" width="10" x="1134.5" y="384.2266"/><rect fill="#FFFFFF" filter="url(#f1g6zmygani7a8)" height="30" style="stroke:#A80036;stroke-width:1.0;" width="10" x="1134.5" y="458.6563"/><rect fill="#FFFFFF" filter="url(#f1g6zmygani7a8)" height="77.2656" style="stroke:#A80036;stroke-width:1.0;" width="10" x="1134.5" y="605.1875"/><polygon fill="#A80036" points="411,115.4297,421,119.4297,411,123.4297,415,119.4297" style="stroke:#A80036;stroke-width:1.0;"/><line style="stroke:#A80036;stroke-width:1.0;" x1="64" x2="417" y1="119.4297" y2="119.4297"/><text fill="#000000" font-family="sans-serif" font-size="13" font-weight="bold" lengthAdjust="spacing" textLength="9" x="71" y="114.3638">1</text><text fill="#000000" font-family="sans-serif" font-size="13" lengthAdjust="spacing" textLength="164" x="84" y="114.3638">nova inserção de produto</text><polygon fill="#A80036" points="692,144.5625,702,148.5625,692,152.5625,696,148.5625" style="stroke:#A80036;stroke-width:1.0;"/><line style="stroke:#A80036;stroke-width:1.0;" x1="433" x2="698" y1="148.5625" y2="148.5625"/><text fill="#000000" font-family="sans-serif" font-size="13" font-weight="bold" lengthAdjust="spacing" textLength="9" x="440" y="143.4966">2</text><text fill="#000000" font-family="sans-serif" font-size="13" lengthAdjust="spacing" textLength="118" x="453" y="143.4966">getListaProdutos()</text><polygon fill="#A80036" points="872,173.6953,882,177.6953,872,181.6953,876,177.6953" style="stroke:#A80036;stroke-width:1.0;"/><line style="stroke:#A80036;stroke-width:1.0;" x1="714" x2="878" y1="177.6953" y2="177.6953"/><text fill="#000000" font-family="sans-serif" font-size="13" font-weight="bold" lengthAdjust="spacing" textLength="8" x="721" y="172.6294">3</text><text fill="#000000" font-family="sans-serif" font-size="13" lengthAdjust="spacing" textLength="127" x="733" y="172.6294">app = getInstance()</text><polygon fill="#A80036" points="1000.5,232.8281,1010.5,236.8281,1000.5,240.8281,1004.5,236.8281" style="stroke:#A80036;stroke-width:1.0;"/><line style="stroke:#A80036;stroke-width:1.0;" x1="714" x2="1006.5" y1="236.8281" y2="236.8281"/><text fill="#000000" font-family="sans-serif" font-size="13" font-weight="bold" lengthAdjust="spacing" textLength="9" x="721" y="231.7622">4</text><text fill="#000000" font-family="sans-serif" font-size="13" lengthAdjust="spacing" textLength="173" x="734" y="231.7622">sessao = getSessaoAtual()</text><polygon fill="#A80036" points="1122.5,291.9609,1132.5,295.9609,1122.5,299.9609,1126.5,295.9609" style="stroke:#A80036;stroke-width:1.0;"/><line style="stroke:#A80036;stroke-width:1.0;" x1="714" x2="1128.5" y1="295.9609" y2="295.9609"/><text fill="#000000" font-family="sans-serif" font-size="13" font-weight="bold" lengthAdjust="spacing" textLength="9" x="721" y="290.895">5</text><text fill="#000000" font-family="sans-serif" font-size="13" lengthAdjust="spacing" textLength="147" x="734" y="290.895">lp = getListaProdutos()</text><polygon fill="#A80036" points="692,351.0938,702,355.0938,692,359.0938,696,355.0938" style="stroke:#A80036;stroke-width:1.0;"/><line style="stroke:#A80036;stroke-width:1.0;" x1="433" x2="698" y1="355.0938" y2="355.0938"/><text fill="#000000" font-family="sans-serif" font-size="13" font-weight="bold" lengthAdjust="spacing" textLength="9" x="440" y="350.0278">6</text><text fill="#000000" font-family="sans-serif" font-size="13" lengthAdjust="spacing" textLength="239" x="453" y="350.0278">novoProduto(desig,peso,preco_base)</text><polygon fill="#A80036" points="1122.5,380.2266,1132.5,384.2266,1122.5,388.2266,1126.5,384.2266" style="stroke:#A80036;stroke-width:1.0;"/><line style="stroke:#A80036;stroke-width:1.0;" x1="714" x2="1128.5" y1="384.2266" y2="384.2266"/><text fill="#000000" font-family="sans-serif" font-size="13" font-weight="bold" lengthAdjust="spacing" textLength="9" x="721" y="379.1606">7</text><text fill="#000000" font-family="sans-serif" font-size="13" lengthAdjust="spacing" textLength="286" x="734" y="379.1606">prod = novoProduto(desig,peso,preco_base)</text><polygon fill="#A80036" points="1367.5,409.3594,1377.5,413.3594,1367.5,417.3594,1371.5,413.3594" style="stroke:#A80036;stroke-width:1.0;"/><line style="stroke:#A80036;stroke-width:1.0;stroke-dasharray:2.0,2.0;" x1="1139.5" x2="1373.5" y1="413.3594" y2="413.3594"/><text fill="#000000" font-family="sans-serif" font-size="13" font-weight="bold" lengthAdjust="spacing" textLength="9" x="1146.5" y="408.2935">8</text><text fill="#000000" font-family="sans-serif" font-size="13" lengthAdjust="spacing" textLength="198" x="1159.5" y="408.2935">create(desig,peso,preco_base)</text><rect fill="#FEFECE" filter="url(#f1g6zmygani7a8)" height="30.2969" style="stroke:#A80036;stroke-width:1.5;" width="110" x="1379.5" y="392.2266"/><text fill="#000000" font-family="sans-serif" font-size="14" lengthAdjust="spacing" textLength="96" x="1386.5" y="412.2217">prod:Produto</text><polygon fill="#A80036" points="1122.5,454.6563,1132.5,458.6563,1122.5,462.6563,1126.5,458.6563" style="stroke:#A80036;stroke-width:1.0;"/><line style="stroke:#A80036;stroke-width:1.0;" x1="714" x2="1128.5" y1="458.6563" y2="458.6563"/><text fill="#000000" font-family="sans-serif" font-size="13" font-weight="bold" lengthAdjust="spacing" textLength="9" x="721" y="453.5903">9</text><text fill="#000000" font-family="sans-serif" font-size="13" lengthAdjust="spacing" textLength="127" x="734" y="453.5903">validaProduto(prod)</text><polygon fill="#A80036" points="75,513.7891,65,517.7891,75,521.7891,71,517.7891" style="stroke:#A80036;stroke-width:1.0;"/><line style="stroke:#A80036;stroke-width:1.0;stroke-dasharray:2.0,2.0;" x1="69" x2="427" y1="517.7891" y2="517.7891"/><text fill="#000000" font-family="sans-serif" font-size="13" font-weight="bold" lengthAdjust="spacing" textLength="19" x="81" y="512.7231">10</text><text fill="#000000" font-family="sans-serif" font-size="13" lengthAdjust="spacing" textLength="312" x="104" y="512.7231">apresenta dados dos item e solicita confirmação</text><polygon fill="#A80036" points="411,542.9219,421,546.9219,411,550.9219,415,546.9219" style="stroke:#A80036;stroke-width:1.0;"/><line style="stroke:#A80036;stroke-width:1.0;" x1="64" x2="417" y1="546.9219" y2="546.9219"/><text fill="#000000" font-family="sans-serif" font-size="13" font-weight="bold" lengthAdjust="spacing" textLength="18" x="71" y="541.856">11</text><text fill="#000000" font-family="sans-serif" font-size="13" lengthAdjust="spacing" textLength="57" x="93" y="541.856">confirma</text><polygon fill="#A80036" points="692,572.0547,702,576.0547,692,580.0547,696,576.0547" style="stroke:#A80036;stroke-width:1.0;"/><line style="stroke:#A80036;stroke-width:1.0;" x1="433" x2="698" y1="576.0547" y2="576.0547"/><text fill="#000000" font-family="sans-serif" font-size="13" font-weight="bold" lengthAdjust="spacing" textLength="18" x="440" y="570.9888">12</text><text fill="#000000" font-family="sans-serif" font-size="13" lengthAdjust="spacing" textLength="133" x="462" y="570.9888">registaProduto(prod)</text><polygon fill="#A80036" points="1122.5,601.1875,1132.5,605.1875,1122.5,609.1875,1126.5,605.1875" style="stroke:#A80036;stroke-width:1.0;"/><line style="stroke:#A80036;stroke-width:1.0;" x1="714" x2="1128.5" y1="605.1875" y2="605.1875"/><text fill="#000000" font-family="sans-serif" font-size="13" font-weight="bold" lengthAdjust="spacing" textLength="17" x="721" y="600.1216">13</text><text fill="#000000" font-family="sans-serif" font-size="13" lengthAdjust="spacing" textLength="133" x="742" y="600.1216">registaProduto(prod)</text><line style="stroke:#A80036;stroke-width:1.0;" x1="1144.5" x2="1186.5" y1="634.3203" y2="634.3203"/><line style="stroke:#A80036;stroke-width:1.0;" x1="1186.5" x2="1186.5" y1="634.3203" y2="647.3203"/><line style="stroke:#A80036;stroke-width:1.0;" x1="1145.5" x2="1186.5" y1="647.3203" y2="647.3203"/><polygon fill="#A80036" points="1155.5,643.3203,1145.5,647.3203,1155.5,651.3203,1151.5,647.3203" style="stroke:#A80036;stroke-width:1.0;"/><text fill="#000000" font-family="sans-serif" font-size="13" font-weight="bold" lengthAdjust="spacing" textLength="18" x="1151.5" y="629.2544">14</text><text fill="#000000" font-family="sans-serif" font-size="13" lengthAdjust="spacing" textLength="127" x="1173.5" y="629.2544">validaProduto(prod)</text><line style="stroke:#A80036;stroke-width:1.0;" x1="1144.5" x2="1186.5" y1="681.4531" y2="681.4531"/><line style="stroke:#A80036;stroke-width:1.0;" x1="1186.5" x2="1186.5" y1="681.4531" y2="694.4531"/><line style="stroke:#A80036;stroke-width:1.0;" x1="1139.5" x2="1186.5" y1="694.4531" y2="694.4531"/><polygon fill="#A80036" points="1149.5,690.4531,1139.5,694.4531,1149.5,698.4531,1145.5,694.4531" style="stroke:#A80036;stroke-width:1.0;"/><text fill="#000000" font-family="sans-serif" font-size="13" font-weight="bold" lengthAdjust="spacing" textLength="18" x="1151.5" y="676.3872">15</text><text fill="#000000" font-family="sans-serif" font-size="13" lengthAdjust="spacing" textLength="113" x="1173.5" y="676.3872">addProduto(prod)</text><polygon fill="#A80036" points="70,714.5859,60,718.5859,70,722.5859,66,718.5859" style="stroke:#A80036;stroke-width:1.0;"/><line style="stroke:#A80036;stroke-width:1.0;stroke-dasharray:2.0,2.0;" x1="64" x2="422" y1="718.5859" y2="718.5859"/><text fill="#000000" font-family="sans-serif" font-size="13" font-weight="bold" lengthAdjust="spacing" textLength="18" x="76" y="713.52">16</text><text fill="#000000" font-family="sans-serif" font-size="13" lengthAdjust="spacing" textLength="190" x="98" y="713.52">informa sucesso da operação</text><!--MD5=[6510c2f7bb5808e332e864f726a63e70]
@startuml
autonumber

actor "Administrador" as ADM
participant ":InserirItensStockUI" as UI
participant ":InserirItensStockController" as CTL
participant ":AplicacaoPOT" as _APP
participant "app:\nAplicacaoPOT" as APP
participant ":ProdutosDB" as PDB
participant "prod:Produto" as PROD

activate ADM
ADM -> UI : nova inserção de produto
activate UI
UI -> CTL : getListaProdutos()
activate CTL
CTL -> _APP : app = getInstance()
activate _APP
deactivate _APP
CTL -> APP : sessao = getSessaoAtual()
activate APP
deactivate APP

CTL -> PDB : lp = getListaProdutos()
activate PDB
deactivate PDB

deactivate CTL

UI -> CTL : novoProduto(desig,peso,preco_base)
activate CTL

CTL -> PDB: prod = novoProduto(desig,peso,preco_base)
activate PDB

PDB - -> PROD ** : create(desig,peso,preco_base)

deactivate PDB

CTL -> PDB : validaProduto(prod)
activate PDB
deactivate PDB

deactivate CTL

UI - -> ADM : apresenta dados dos item e solicita confirmação
deactivate UI
ADM -> UI : confirma
activate UI
UI -> CTL : registaProduto(prod)

activate CTL
CTL -> PDB :registaProduto(prod)

activate PDB
PDB -> PDB : validaProduto(prod)

PDB -> PDB : addProduto(prod)
deactivate PDB
deactivate CTL
UI - -> ADM: informa sucesso da operação

deactivate ADM
@enduml

PlantUML version 1.2020.27beta8(Unknown compile time)
(GPL source distribution)
Java Runtime: Java(TM) SE Runtime Environment
JVM: Java HotSpot(TM) 64-Bit Server VM
Default Encoding: UTF-8
Language: en
Country: US
--></g></svg>