<?xml version="1.0" encoding="UTF-8" standalone="no"?><svg xmlns="http://www.w3.org/2000/svg" xmlns:xlink="http://www.w3.org/1999/xlink" contentScriptType="application/ecmascript" contentStyleType="text/css" height="591px" preserveAspectRatio="none" style="width:546px;height:591px;" version="1.1" viewBox="0 0 546 591" width="546px" zoomAndPan="magnify"><defs><filter height="300%" id="f2bapdll1ef17" width="300%" x="-1" y="-1"><feGaussianBlur result="blurOut" stdDeviation="2.0"/><feColorMatrix in="blurOut" result="blurOut2" type="matrix" values="0 0 0 0 0 0 0 0 0 0 0 0 0 0 0 0 0 0 .4 0"/><feOffset dx="4.0" dy="4.0" in="blurOut2" result="blurOut3"/><feBlend in="SourceGraphic" in2="blurOut3" mode="normal"/></filter></defs><g><!--MD5=[380d12a68ed0046a60f31008a02875d0]
class AplicacaoPOT--><rect codeLine="3" fill="#FEFECE" filter="url(#f2bapdll1ef17)" height="73.6094" id="AplicacaoPOT" style="stroke:#A80036;stroke-width:1.5;" width="130" x="7" y="288.5"/><ellipse cx="29.65" cy="304.5" fill="#ADD1B2" rx="11" ry="11" style="stroke:#A80036;stroke-width:1.0;"/><path d="M31.9938,300.1719 C31.0563,299.7344 30.4625,299.5938 29.5875,299.5938 C26.9625,299.5938 24.9625,301.6719 24.9625,304.3906 L24.9625,305.5156 C24.9625,308.0938 27.0719,309.9844 29.9625,309.9844 C31.1813,309.9844 32.3375,309.6875 33.0875,309.1406 C33.6656,308.7344 33.9938,308.2813 33.9938,307.8906 C33.9938,307.4375 33.6031,307.0469 33.1344,307.0469 C32.9156,307.0469 32.7125,307.125 32.525,307.3125 C32.0719,307.7969 32.0719,307.7969 31.8844,307.8906 C31.4625,308.1563 30.775,308.2813 30.0094,308.2813 C27.9625,308.2813 26.6656,307.1875 26.6656,305.4844 L26.6656,304.3906 C26.6656,302.6094 27.9156,301.2969 29.65,301.2969 C30.2281,301.2969 30.8375,301.4531 31.3063,301.7031 C31.7906,301.9844 31.9625,302.2031 32.0563,302.6094 C32.1188,303.0156 32.15,303.1406 32.2906,303.2656 C32.4313,303.4063 32.6656,303.5156 32.8844,303.5156 C33.15,303.5156 33.4156,303.375 33.5875,303.1563 C33.6969,303 33.7281,302.8125 33.7281,302.3906 L33.7281,300.9688 C33.7281,300.5313 33.7125,300.4063 33.6188,300.25 C33.4625,299.9844 33.1813,299.8438 32.8844,299.8438 C32.5875,299.8438 32.3844,299.9375 32.1656,300.25 L31.9938,300.1719 Z " fill="#000000"/><text fill="#000000" font-family="sans-serif" font-size="12" lengthAdjust="spacing" textLength="81" x="45.35" y="308.6543">AplicacaoPOT</text><line style="stroke:#A80036;stroke-width:1.5;" x1="8" x2="136" y1="320.5" y2="320.5"/><line style="stroke:#A80036;stroke-width:1.5;" x1="8" x2="136" y1="328.5" y2="328.5"/><text fill="#000000" font-family="sans-serif" font-size="11" lengthAdjust="spacing" textLength="118" x="13" y="342.7104">+static getInstance()</text><text fill="#000000" font-family="sans-serif" font-size="11" lengthAdjust="spacing" textLength="107" x="13" y="355.5151">+getSessaoAtual()</text><!--MD5=[d4dacc50d49878ba7c621dfc80a2e1ce]
class Produto--><rect codeLine="9" fill="#FEFECE" filter="url(#f2bapdll1ef17)" height="112.0234" id="Produto" style="stroke:#A80036;stroke-width:1.5;" width="215" x="146.5" y="465"/><ellipse cx="226.75" cy="481" fill="#ADD1B2" rx="11" ry="11" style="stroke:#A80036;stroke-width:1.0;"/><path d="M229.0938,476.6719 C228.1563,476.2344 227.5625,476.0938 226.6875,476.0938 C224.0625,476.0938 222.0625,478.1719 222.0625,480.8906 L222.0625,482.0156 C222.0625,484.5938 224.1719,486.4844 227.0625,486.4844 C228.2813,486.4844 229.4375,486.1875 230.1875,485.6406 C230.7656,485.2344 231.0938,484.7813 231.0938,484.3906 C231.0938,483.9375 230.7031,483.5469 230.2344,483.5469 C230.0156,483.5469 229.8125,483.625 229.625,483.8125 C229.1719,484.2969 229.1719,484.2969 228.9844,484.3906 C228.5625,484.6563 227.875,484.7813 227.1094,484.7813 C225.0625,484.7813 223.7656,483.6875 223.7656,481.9844 L223.7656,480.8906 C223.7656,479.1094 225.0156,477.7969 226.75,477.7969 C227.3281,477.7969 227.9375,477.9531 228.4063,478.2031 C228.8906,478.4844 229.0625,478.7031 229.1563,479.1094 C229.2188,479.5156 229.25,479.6406 229.3906,479.7656 C229.5313,479.9063 229.7656,480.0156 229.9844,480.0156 C230.25,480.0156 230.5156,479.875 230.6875,479.6563 C230.7969,479.5 230.8281,479.3125 230.8281,478.8906 L230.8281,477.4688 C230.8281,477.0313 230.8125,476.9063 230.7188,476.75 C230.5625,476.4844 230.2813,476.3438 229.9844,476.3438 C229.6875,476.3438 229.4844,476.4375 229.2656,476.75 L229.0938,476.6719 Z " fill="#000000"/><text fill="#000000" font-family="sans-serif" font-size="12" lengthAdjust="spacing" textLength="46" x="247.25" y="485.1543">Produto</text><line style="stroke:#A80036;stroke-width:1.5;" x1="147.5" x2="360.5" y1="497" y2="497"/><text fill="#000000" font-family="sans-serif" font-size="11" lengthAdjust="spacing" textLength="59" x="152.5" y="511.2104">-Integer id</text><text fill="#000000" font-family="sans-serif" font-size="11" lengthAdjust="spacing" textLength="72" x="152.5" y="524.0151">-String desig</text><text fill="#000000" font-family="sans-serif" font-size="11" lengthAdjust="spacing" textLength="77" x="152.5" y="536.8198">-Double peso</text><text fill="#000000" font-family="sans-serif" font-size="11" lengthAdjust="spacing" textLength="115" x="152.5" y="549.6245">-Double preco_base</text><line style="stroke:#A80036;stroke-width:1.5;" x1="147.5" x2="360.5" y1="556.2188" y2="556.2188"/><text fill="#000000" font-family="sans-serif" font-size="11" lengthAdjust="spacing" textLength="203" x="152.5" y="570.4292">+Produto(id,desig,peso,preco_base)</text><!--MD5=[c7a66176ac6677a496c6f1e27f3083bc]
class ProdutosDB--><rect codeLine="17" fill="#FEFECE" filter="url(#f2bapdll1ef17)" height="124.8281" id="ProdutosDB" style="stroke:#A80036;stroke-width:1.5;" width="289" x="243.5" y="263"/><ellipse cx="348.75" cy="279" fill="#ADD1B2" rx="11" ry="11" style="stroke:#A80036;stroke-width:1.0;"/><path d="M351.0938,274.6719 C350.1563,274.2344 349.5625,274.0938 348.6875,274.0938 C346.0625,274.0938 344.0625,276.1719 344.0625,278.8906 L344.0625,280.0156 C344.0625,282.5938 346.1719,284.4844 349.0625,284.4844 C350.2813,284.4844 351.4375,284.1875 352.1875,283.6406 C352.7656,283.2344 353.0938,282.7813 353.0938,282.3906 C353.0938,281.9375 352.7031,281.5469 352.2344,281.5469 C352.0156,281.5469 351.8125,281.625 351.625,281.8125 C351.1719,282.2969 351.1719,282.2969 350.9844,282.3906 C350.5625,282.6563 349.875,282.7813 349.1094,282.7813 C347.0625,282.7813 345.7656,281.6875 345.7656,279.9844 L345.7656,278.8906 C345.7656,277.1094 347.0156,275.7969 348.75,275.7969 C349.3281,275.7969 349.9375,275.9531 350.4063,276.2031 C350.8906,276.4844 351.0625,276.7031 351.1563,277.1094 C351.2188,277.5156 351.25,277.6406 351.3906,277.7656 C351.5313,277.9063 351.7656,278.0156 351.9844,278.0156 C352.25,278.0156 352.5156,277.875 352.6875,277.6563 C352.7969,277.5 352.8281,277.3125 352.8281,276.8906 L352.8281,275.4688 C352.8281,275.0313 352.8125,274.9063 352.7188,274.75 C352.5625,274.4844 352.2813,274.3438 351.9844,274.3438 C351.6875,274.3438 351.4844,274.4375 351.2656,274.75 L351.0938,274.6719 Z " fill="#000000"/><text fill="#000000" font-family="sans-serif" font-size="12" lengthAdjust="spacing" textLength="70" x="369.25" y="283.1543">ProdutosDB</text><line style="stroke:#A80036;stroke-width:1.5;" x1="244.5" x2="531.5" y1="295" y2="295"/><line style="stroke:#A80036;stroke-width:1.5;" x1="244.5" x2="531.5" y1="303" y2="303"/><text fill="#000000" font-family="sans-serif" font-size="11" lengthAdjust="spacing" textLength="277" x="249.5" y="317.2104">+Produto novoProduto(id,desig,peso,preco_base)</text><text fill="#000000" font-family="sans-serif" font-size="11" lengthAdjust="spacing" textLength="110" x="249.5" y="330.0151">+getListaProdutos()</text><text fill="#000000" font-family="sans-serif" font-size="11" lengthAdjust="spacing" textLength="118" x="249.5" y="342.8198">+validaProduto(prod)</text><text fill="#000000" font-family="sans-serif" font-size="11" lengthAdjust="spacing" textLength="119" x="249.5" y="355.6245">+addListaProds(prod)</text><text fill="#000000" font-family="sans-serif" font-size="11" lengthAdjust="spacing" textLength="120" x="249.5" y="368.4292">+addProdutos(lprods)</text><text fill="#000000" font-family="sans-serif" font-size="11" lengthAdjust="spacing" textLength="159" x="249.5" y="381.2339">+validaListaProdutos(lprods)</text><!--MD5=[20383f3e966ccbfa3e0a8a9a61058a93]
class InserirItensStockController--><rect codeLine="26" fill="#FEFECE" filter="url(#f2bapdll1ef17)" height="86.4141" id="InserirItensStockController" style="stroke:#A80036;stroke-width:1.5;" width="243" x="68.5" y="116"/><ellipse cx="106.45" cy="132" fill="#ADD1B2" rx="11" ry="11" style="stroke:#A80036;stroke-width:1.0;"/><path d="M108.7938,127.6719 C107.8563,127.2344 107.2625,127.0938 106.3875,127.0938 C103.7625,127.0938 101.7625,129.1719 101.7625,131.8906 L101.7625,133.0156 C101.7625,135.5938 103.8719,137.4844 106.7625,137.4844 C107.9813,137.4844 109.1375,137.1875 109.8875,136.6406 C110.4656,136.2344 110.7938,135.7813 110.7938,135.3906 C110.7938,134.9375 110.4031,134.5469 109.9344,134.5469 C109.7156,134.5469 109.5125,134.625 109.325,134.8125 C108.8719,135.2969 108.8719,135.2969 108.6844,135.3906 C108.2625,135.6563 107.575,135.7813 106.8094,135.7813 C104.7625,135.7813 103.4656,134.6875 103.4656,132.9844 L103.4656,131.8906 C103.4656,130.1094 104.7156,128.7969 106.45,128.7969 C107.0281,128.7969 107.6375,128.9531 108.1063,129.2031 C108.5906,129.4844 108.7625,129.7031 108.8563,130.1094 C108.9188,130.5156 108.95,130.6406 109.0906,130.7656 C109.2313,130.9063 109.4656,131.0156 109.6844,131.0156 C109.95,131.0156 110.2156,130.875 110.3875,130.6563 C110.4969,130.5 110.5281,130.3125 110.5281,129.8906 L110.5281,128.4688 C110.5281,128.0313 110.5125,127.9063 110.4188,127.75 C110.2625,127.4844 109.9813,127.3438 109.6844,127.3438 C109.3875,127.3438 109.1844,127.4375 108.9656,127.75 L108.7938,127.6719 Z " fill="#000000"/><text fill="#000000" font-family="sans-serif" font-size="12" lengthAdjust="spacing" textLength="160" x="125.55" y="136.1543">InserirItensStockController</text><line style="stroke:#A80036;stroke-width:1.5;" x1="69.5" x2="310.5" y1="148" y2="148"/><line style="stroke:#A80036;stroke-width:1.5;" x1="69.5" x2="310.5" y1="156" y2="156"/><text fill="#000000" font-family="sans-serif" font-size="11" lengthAdjust="spacing" textLength="231" x="74.5" y="170.2104">+novoProduto(id,desig,peso,preco_base)</text><text fill="#000000" font-family="sans-serif" font-size="11" lengthAdjust="spacing" textLength="86" x="74.5" y="183.0151">+addProdutos()</text><text fill="#000000" font-family="sans-serif" font-size="11" lengthAdjust="spacing" textLength="110" x="74.5" y="195.8198">+getListaProdutos()</text><!--MD5=[f44a3898af6fc32d8c41f51b0f4e460a]
class InserirItensStockUI--><rect codeLine="32" fill="#FEFECE" filter="url(#f2bapdll1ef17)" height="48" id="InserirItensStockUI" style="stroke:#A80036;stroke-width:1.5;" width="145" x="117.5" y="7"/><ellipse cx="132.5" cy="23" fill="#ADD1B2" rx="11" ry="11" style="stroke:#A80036;stroke-width:1.0;"/><path d="M134.8438,18.6719 C133.9063,18.2344 133.3125,18.0938 132.4375,18.0938 C129.8125,18.0938 127.8125,20.1719 127.8125,22.8906 L127.8125,24.0156 C127.8125,26.5938 129.9219,28.4844 132.8125,28.4844 C134.0313,28.4844 135.1875,28.1875 135.9375,27.6406 C136.5156,27.2344 136.8438,26.7813 136.8438,26.3906 C136.8438,25.9375 136.4531,25.5469 135.9844,25.5469 C135.7656,25.5469 135.5625,25.625 135.375,25.8125 C134.9219,26.2969 134.9219,26.2969 134.7344,26.3906 C134.3125,26.6563 133.625,26.7813 132.8594,26.7813 C130.8125,26.7813 129.5156,25.6875 129.5156,23.9844 L129.5156,22.8906 C129.5156,21.1094 130.7656,19.7969 132.5,19.7969 C133.0781,19.7969 133.6875,19.9531 134.1563,20.2031 C134.6406,20.4844 134.8125,20.7031 134.9063,21.1094 C134.9688,21.5156 135,21.6406 135.1406,21.7656 C135.2813,21.9063 135.5156,22.0156 135.7344,22.0156 C136,22.0156 136.2656,21.875 136.4375,21.6563 C136.5469,21.5 136.5781,21.3125 136.5781,20.8906 L136.5781,19.4688 C136.5781,19.0313 136.5625,18.9063 136.4688,18.75 C136.3125,18.4844 136.0313,18.3438 135.7344,18.3438 C135.4375,18.3438 135.2344,18.4375 135.0156,18.75 L134.8438,18.6719 Z " fill="#000000"/><text fill="#000000" font-family="sans-serif" font-size="12" lengthAdjust="spacing" textLength="113" x="146.5" y="27.1543">InserirItensStockUI</text><line style="stroke:#A80036;stroke-width:1.5;" x1="118.5" x2="261.5" y1="39" y2="39"/><line style="stroke:#A80036;stroke-width:1.5;" x1="118.5" x2="261.5" y1="47" y2="47"/><!--MD5=[190b7abe38382bcd473537e2f42ab0fd]
link InserirItensStockUI to InserirItensStockController--><path codeLine="35" d="M190,55.11 C190,70.631 190,91.639 190,110.625 " fill="none" id="InserirItensStockUI-to-InserirItensStockController" style="stroke:#A80036;stroke-width:1.0;stroke-dasharray:7.0,7.0;"/><polygon fill="#A80036" points="190,115.921,194,106.921,190,110.921,186,106.921,190,115.921" style="stroke:#A80036;stroke-width:1.0;"/><!--MD5=[a356b334672a704d119bc08d591a3ae0]
link InserirItensStockController to ProdutosDB--><path codeLine="36" d="M240.733,202.149 C261.746,219.607 286.599,240.255 309.847,259.569 " fill="none" id="InserirItensStockController-to-ProdutosDB" style="stroke:#A80036;stroke-width:1.0;stroke-dasharray:7.0,7.0;"/><polygon fill="#A80036" points="313.864,262.907,309.4965,254.0795,310.0177,259.7123,304.385,260.2335,313.864,262.907" style="stroke:#A80036;stroke-width:1.0;"/><!--MD5=[b65db16dc8e7c1cc1ac9f047f6079743]
link InserirItensStockController to Produto--><path codeLine="37" d="M195.977,202.135 C202.638,247.979 214.052,323.374 226,388 C230.355,411.558 235.699,437.359 240.547,459.852 " fill="none" id="InserirItensStockController-to-Produto" style="stroke:#A80036;stroke-width:1.0;stroke-dasharray:7.0,7.0;"/><polygon fill="#A80036" points="241.638,464.896,243.6448,455.2538,240.5809,460.009,235.8256,456.9451,241.638,464.896" style="stroke:#A80036;stroke-width:1.0;"/><!--MD5=[19b449a860a09019a10a9efe2ad9f956]
link InserirItensStockController to AplicacaoPOT--><path codeLine="38" d="M159.612,202.363 C141.538,227.56 118.736,259.347 100.9256,284.176 " fill="none" id="InserirItensStockController-to-AplicacaoPOT" style="stroke:#A80036;stroke-width:1.0;stroke-dasharray:7.0,7.0;"/><polygon fill="#A80036" points="97.8865,288.412,106.3825,283.4303,100.8008,284.3491,99.8819,278.7674,97.8865,288.412" style="stroke:#A80036;stroke-width:1.0;"/><!--MD5=[bbd3ef872394a4705faf2324ce30b073]
link ProdutosDB to Produto--><path codeLine="40" d="M345.233,388.257 C329.226,411.372 311.085,437.567 295.22,460.477 " fill="none" id="ProdutosDB-to-Produto" style="stroke:#A80036;stroke-width:1.0;"/><polygon fill="#A80036" points="292.286,464.715,300.6971,459.5912,295.1316,460.6037,294.1191,455.0382,292.286,464.715" style="stroke:#A80036;stroke-width:1.0;"/><text fill="#000000" font-family="sans-serif" font-size="13" lengthAdjust="spacing" textLength="97" x="322" y="431.0669">tem registadas</text><text fill="#000000" font-family="sans-serif" font-size="13" lengthAdjust="spacing" textLength="8" x="332.1179" y="408.0249">1</text><text fill="#000000" font-family="sans-serif" font-size="13" lengthAdjust="spacing" textLength="7" x="289.5255" y="454.0148">*</text><!--MD5=[bcff4ad9671d0479c0257048a606b46e]
@startuml
skinparam classAttributeIconSize 0

class AplicacaoPOT
{
  +static getInstance()
  +getSessaoAtual()
}

class Produto {
  -Integer id
  -String desig
  -Double peso
  -Double preco_base
  +Produto(id,desig,peso,preco_base)
}

class ProdutosDB {
  +Produto novoProduto(id,desig,peso,preco_base)
  +getListaProdutos()
  +validaProduto(prod)
  +addListaProds(prod)
  +addProdutos(lprods)
  +validaListaProdutos(lprods)
}

class InserirItensStockController {
    +novoProduto(id,desig,peso,preco_base)
    +addProdutos()
    +getListaProdutos()
}

class InserirItensStockUI {
}

InserirItensStockUI ..> InserirItensStockController
InserirItensStockController ..> ProdutosDB
InserirItensStockController ..> Produto
InserirItensStockController ..> AplicacaoPOT

ProdutosDB "1" - -> "*" Produto : tem registadas
@enduml

PlantUML version 1.2020.27beta7(Unknown compile time)
(GPL source distribution)
Java Runtime: Java(TM) SE Runtime Environment
JVM: Java HotSpot(TM) 64-Bit Server VM
Default Encoding: UTF-8
Language: en
Country: US
--></g></svg>