<?xml version="1.0" encoding="UTF-8" standalone="no"?><svg xmlns="http://www.w3.org/2000/svg" xmlns:xlink="http://www.w3.org/1999/xlink" contentScriptType="application/ecmascript" contentStyleType="text/css" height="527px" preserveAspectRatio="none" style="width:646px;height:527px;" version="1.1" viewBox="0 0 646 527" width="646px" zoomAndPan="magnify"><defs><filter height="300%" id="f1jvarbz8gm53q" width="300%" x="-1" y="-1"><feGaussianBlur result="blurOut" stdDeviation="2.0"/><feColorMatrix in="blurOut" result="blurOut2" type="matrix" values="0 0 0 0 0 0 0 0 0 0 0 0 0 0 0 0 0 0 .4 0"/><feOffset dx="4.0" dy="4.0" in="blurOut2" result="blurOut3"/><feBlend in="SourceGraphic" in2="blurOut3" mode="normal"/></filter></defs><g><!--MD5=[ac303f713d9f979882ac64afbf326271]
class TransferenciaProduto--><rect codeLine="3" fill="#FEFECE" filter="url(#f1jvarbz8gm53q)" height="73.6094" id="TransferenciaProduto" style="stroke:#A80036;stroke-width:1.5;" width="160" x="7" y="426.5"/><ellipse cx="22" cy="442.5" fill="#ADD1B2" rx="11" ry="11" style="stroke:#A80036;stroke-width:1.0;"/><path d="M24.3438,438.1719 C23.4063,437.7344 22.8125,437.5938 21.9375,437.5938 C19.3125,437.5938 17.3125,439.6719 17.3125,442.3906 L17.3125,443.5156 C17.3125,446.0938 19.4219,447.9844 22.3125,447.9844 C23.5313,447.9844 24.6875,447.6875 25.4375,447.1406 C26.0156,446.7344 26.3438,446.2813 26.3438,445.8906 C26.3438,445.4375 25.9531,445.0469 25.4844,445.0469 C25.2656,445.0469 25.0625,445.125 24.875,445.3125 C24.4219,445.7969 24.4219,445.7969 24.2344,445.8906 C23.8125,446.1563 23.125,446.2813 22.3594,446.2813 C20.3125,446.2813 19.0156,445.1875 19.0156,443.4844 L19.0156,442.3906 C19.0156,440.6094 20.2656,439.2969 22,439.2969 C22.5781,439.2969 23.1875,439.4531 23.6563,439.7031 C24.1406,439.9844 24.3125,440.2031 24.4063,440.6094 C24.4688,441.0156 24.5,441.1406 24.6406,441.2656 C24.7813,441.4063 25.0156,441.5156 25.2344,441.5156 C25.5,441.5156 25.7656,441.375 25.9375,441.1563 C26.0469,441 26.0781,440.8125 26.0781,440.3906 L26.0781,438.9688 C26.0781,438.5313 26.0625,438.4063 25.9688,438.25 C25.8125,437.9844 25.5313,437.8438 25.2344,437.8438 C24.9375,437.8438 24.7344,437.9375 24.5156,438.25 L24.3438,438.1719 Z " fill="#000000"/><text fill="#000000" font-family="sans-serif" font-size="12" lengthAdjust="spacing" textLength="128" x="36" y="446.6543">TransferenciaProduto</text><line style="stroke:#A80036;stroke-width:1.5;" x1="8" x2="166" y1="458.5" y2="458.5"/><text fill="#000000" font-family="sans-serif" font-size="11" lengthAdjust="spacing" textLength="137" x="13" y="472.7104">-Integer idTransferencia</text><text fill="#000000" font-family="sans-serif" font-size="11" lengthAdjust="spacing" textLength="113" x="13" y="485.5151">-Integer quantidade</text><line style="stroke:#A80036;stroke-width:1.5;" x1="8" x2="166" y1="492.1094" y2="492.1094"/><!--MD5=[383de3b1d80aa80dbaf6b5a66e387003]
class TransferenciaDB--><rect codeLine="8" fill="#FEFECE" filter="url(#f1jvarbz8gm53q)" height="73.6094" id="TransferenciaDB" style="stroke:#A80036;stroke-width:1.5;" width="238" x="62" y="257"/><ellipse cx="127.25" cy="273" fill="#ADD1B2" rx="11" ry="11" style="stroke:#A80036;stroke-width:1.0;"/><path d="M129.5938,268.6719 C128.6563,268.2344 128.0625,268.0938 127.1875,268.0938 C124.5625,268.0938 122.5625,270.1719 122.5625,272.8906 L122.5625,274.0156 C122.5625,276.5938 124.6719,278.4844 127.5625,278.4844 C128.7813,278.4844 129.9375,278.1875 130.6875,277.6406 C131.2656,277.2344 131.5938,276.7813 131.5938,276.3906 C131.5938,275.9375 131.2031,275.5469 130.7344,275.5469 C130.5156,275.5469 130.3125,275.625 130.125,275.8125 C129.6719,276.2969 129.6719,276.2969 129.4844,276.3906 C129.0625,276.6563 128.375,276.7813 127.6094,276.7813 C125.5625,276.7813 124.2656,275.6875 124.2656,273.9844 L124.2656,272.8906 C124.2656,271.1094 125.5156,269.7969 127.25,269.7969 C127.8281,269.7969 128.4375,269.9531 128.9063,270.2031 C129.3906,270.4844 129.5625,270.7031 129.6563,271.1094 C129.7188,271.5156 129.75,271.6406 129.8906,271.7656 C130.0313,271.9063 130.2656,272.0156 130.4844,272.0156 C130.75,272.0156 131.0156,271.875 131.1875,271.6563 C131.2969,271.5 131.3281,271.3125 131.3281,270.8906 L131.3281,269.4688 C131.3281,269.0313 131.3125,268.9063 131.2188,268.75 C131.0625,268.4844 130.7813,268.3438 130.4844,268.3438 C130.1875,268.3438 129.9844,268.4375 129.7656,268.75 L129.5938,268.6719 Z " fill="#000000"/><text fill="#000000" font-family="sans-serif" font-size="12" lengthAdjust="spacing" textLength="99" x="147.75" y="277.1543">TransferenciaDB</text><line style="stroke:#A80036;stroke-width:1.5;" x1="63" x2="299" y1="289" y2="289"/><line style="stroke:#A80036;stroke-width:1.5;" x1="63" x2="299" y1="297" y2="297"/><text fill="#000000" font-family="sans-serif" font-size="11" lengthAdjust="spacing" textLength="226" x="68" y="311.2104">+addTransferencia(fOrig,fDest,prod,qtd)</text><text fill="#000000" font-family="sans-serif" font-size="11" lengthAdjust="spacing" textLength="190" x="68" y="324.0151">+enviaStock(fOrig,fDest,prod,qtd)</text><!--MD5=[6613c9cd406ef433ff06f5e98b28abd9]
class Farmacia--><rect codeLine="13" fill="#FEFECE" filter="url(#f1jvarbz8gm53q)" height="99.2188" id="Farmacia" style="stroke:#A80036;stroke-width:1.5;" width="175" x="280.5" y="414"/><ellipse cx="336.75" cy="430" fill="#ADD1B2" rx="11" ry="11" style="stroke:#A80036;stroke-width:1.0;"/><path d="M339.0938,425.6719 C338.1563,425.2344 337.5625,425.0938 336.6875,425.0938 C334.0625,425.0938 332.0625,427.1719 332.0625,429.8906 L332.0625,431.0156 C332.0625,433.5938 334.1719,435.4844 337.0625,435.4844 C338.2813,435.4844 339.4375,435.1875 340.1875,434.6406 C340.7656,434.2344 341.0938,433.7813 341.0938,433.3906 C341.0938,432.9375 340.7031,432.5469 340.2344,432.5469 C340.0156,432.5469 339.8125,432.625 339.625,432.8125 C339.1719,433.2969 339.1719,433.2969 338.9844,433.3906 C338.5625,433.6563 337.875,433.7813 337.1094,433.7813 C335.0625,433.7813 333.7656,432.6875 333.7656,430.9844 L333.7656,429.8906 C333.7656,428.1094 335.0156,426.7969 336.75,426.7969 C337.3281,426.7969 337.9375,426.9531 338.4063,427.2031 C338.8906,427.4844 339.0625,427.7031 339.1563,428.1094 C339.2188,428.5156 339.25,428.6406 339.3906,428.7656 C339.5313,428.9063 339.7656,429.0156 339.9844,429.0156 C340.25,429.0156 340.5156,428.875 340.6875,428.6563 C340.7969,428.5 340.8281,428.3125 340.8281,427.8906 L340.8281,426.4688 C340.8281,426.0313 340.8125,425.9063 340.7188,425.75 C340.5625,425.4844 340.2813,425.3438 339.9844,425.3438 C339.6875,425.3438 339.4844,425.4375 339.2656,425.75 L339.0938,425.6719 Z " fill="#000000"/><text fill="#000000" font-family="sans-serif" font-size="12" lengthAdjust="spacing" textLength="54" x="357.25" y="434.1543">Farmacia</text><line style="stroke:#A80036;stroke-width:1.5;" x1="281.5" x2="454.5" y1="446" y2="446"/><text fill="#000000" font-family="sans-serif" font-size="11" lengthAdjust="spacing" textLength="63" x="286.5" y="460.2104">-Integer nif</text><text fill="#000000" font-family="sans-serif" font-size="11" lengthAdjust="spacing" textLength="73" x="286.5" y="473.0151">-String email</text><text fill="#000000" font-family="sans-serif" font-size="11" lengthAdjust="spacing" textLength="84" x="286.5" y="485.8198">-String morada</text><line style="stroke:#A80036;stroke-width:1.5;" x1="281.5" x2="454.5" y1="492.4141" y2="492.4141"/><text fill="#000000" font-family="sans-serif" font-size="11" lengthAdjust="spacing" textLength="163" x="286.5" y="506.6245">+Farmacia(nif,email,morada)</text><!--MD5=[364aec0fc02518cb9ab31cd04b585b1a]
class FarmaciaDB--><rect codeLine="20" fill="#FEFECE" filter="url(#f1jvarbz8gm53q)" height="86.4141" id="FarmaciaDB" style="stroke:#A80036;stroke-width:1.5;" width="226" x="406" y="251"/><ellipse cx="479.25" cy="267" fill="#ADD1B2" rx="11" ry="11" style="stroke:#A80036;stroke-width:1.0;"/><path d="M481.5938,262.6719 C480.6563,262.2344 480.0625,262.0938 479.1875,262.0938 C476.5625,262.0938 474.5625,264.1719 474.5625,266.8906 L474.5625,268.0156 C474.5625,270.5938 476.6719,272.4844 479.5625,272.4844 C480.7813,272.4844 481.9375,272.1875 482.6875,271.6406 C483.2656,271.2344 483.5938,270.7813 483.5938,270.3906 C483.5938,269.9375 483.2031,269.5469 482.7344,269.5469 C482.5156,269.5469 482.3125,269.625 482.125,269.8125 C481.6719,270.2969 481.6719,270.2969 481.4844,270.3906 C481.0625,270.6563 480.375,270.7813 479.6094,270.7813 C477.5625,270.7813 476.2656,269.6875 476.2656,267.9844 L476.2656,266.8906 C476.2656,265.1094 477.5156,263.7969 479.25,263.7969 C479.8281,263.7969 480.4375,263.9531 480.9063,264.2031 C481.3906,264.4844 481.5625,264.7031 481.6563,265.1094 C481.7188,265.5156 481.75,265.6406 481.8906,265.7656 C482.0313,265.9063 482.2656,266.0156 482.4844,266.0156 C482.75,266.0156 483.0156,265.875 483.1875,265.6563 C483.2969,265.5 483.3281,265.3125 483.3281,264.8906 L483.3281,263.4688 C483.3281,263.0313 483.3125,262.9063 483.2188,262.75 C483.0625,262.4844 482.7813,262.3438 482.4844,262.3438 C482.1875,262.3438 481.9844,262.4375 481.7656,262.75 L481.5938,262.6719 Z " fill="#000000"/><text fill="#000000" font-family="sans-serif" font-size="12" lengthAdjust="spacing" textLength="71" x="499.75" y="271.1543">FarmaciaDB</text><line style="stroke:#A80036;stroke-width:1.5;" x1="407" x2="631" y1="283" y2="283"/><line style="stroke:#A80036;stroke-width:1.5;" x1="407" x2="631" y1="291" y2="291"/><text fill="#000000" font-family="sans-serif" font-size="11" lengthAdjust="spacing" textLength="214" x="412" y="305.2104">+getLstFarmaciasByProdutos(p,quant)</text><text fill="#000000" font-family="sans-serif" font-size="11" lengthAdjust="spacing" textLength="133" x="412" y="318.0151">+generateGrafo(farms)</text><text fill="#000000" font-family="sans-serif" font-size="11" lengthAdjust="spacing" textLength="178" x="412" y="330.8198">+getFarmaciaProxima(grafo,nif)</text><!--MD5=[79e34f5fc5afe5d8697a84a65bb14793]
class PedirItemFarmaciaController--><rect codeLine="26" fill="#FEFECE" filter="url(#f1jvarbz8gm53q)" height="73.6094" id="PedirItemFarmaciaController" style="stroke:#A80036;stroke-width:1.5;" width="235" x="181.5" y="116"/><ellipse cx="211.8" cy="132" fill="#ADD1B2" rx="11" ry="11" style="stroke:#A80036;stroke-width:1.0;"/><path d="M214.1438,127.6719 C213.2063,127.2344 212.6125,127.0938 211.7375,127.0938 C209.1125,127.0938 207.1125,129.1719 207.1125,131.8906 L207.1125,133.0156 C207.1125,135.5938 209.2219,137.4844 212.1125,137.4844 C213.3313,137.4844 214.4875,137.1875 215.2375,136.6406 C215.8156,136.2344 216.1438,135.7813 216.1438,135.3906 C216.1438,134.9375 215.7531,134.5469 215.2844,134.5469 C215.0656,134.5469 214.8625,134.625 214.675,134.8125 C214.2219,135.2969 214.2219,135.2969 214.0344,135.3906 C213.6125,135.6563 212.925,135.7813 212.1594,135.7813 C210.1125,135.7813 208.8156,134.6875 208.8156,132.9844 L208.8156,131.8906 C208.8156,130.1094 210.0656,128.7969 211.8,128.7969 C212.3781,128.7969 212.9875,128.9531 213.4563,129.2031 C213.9406,129.4844 214.1125,129.7031 214.2063,130.1094 C214.2688,130.5156 214.3,130.6406 214.4406,130.7656 C214.5813,130.9063 214.8156,131.0156 215.0344,131.0156 C215.3,131.0156 215.5656,130.875 215.7375,130.6563 C215.8469,130.5 215.8781,130.3125 215.8781,129.8906 L215.8781,128.4688 C215.8781,128.0313 215.8625,127.9063 215.7688,127.75 C215.6125,127.4844 215.3313,127.3438 215.0344,127.3438 C214.7375,127.3438 214.5344,127.4375 214.3156,127.75 L214.1438,127.6719 Z " fill="#000000"/><text fill="#000000" font-family="sans-serif" font-size="12" lengthAdjust="spacing" textLength="169" x="229.2" y="136.1543">PedirItemFarmaciaController</text><line style="stroke:#A80036;stroke-width:1.5;" x1="182.5" x2="415.5" y1="148" y2="148"/><line style="stroke:#A80036;stroke-width:1.5;" x1="182.5" x2="415.5" y1="156" y2="156"/><text fill="#000000" font-family="sans-serif" font-size="11" lengthAdjust="spacing" textLength="223" x="187.5" y="170.2104">+getListaFarmaciaByProduto(prod,qntd)</text><text fill="#000000" font-family="sans-serif" font-size="11" lengthAdjust="spacing" textLength="204" x="187.5" y="183.0151">+realizaPedido(fOrig,fDest,prod,qtd)</text><!--MD5=[eea4431c546890387bbf4e5135859974]
class RealizaEncomendaUI--><rect codeLine="31" fill="#FEFECE" filter="url(#f1jvarbz8gm53q)" height="48" id="RealizaEncomendaUI" style="stroke:#A80036;stroke-width:1.5;" width="156" x="221" y="7"/><ellipse cx="236" cy="23" fill="#ADD1B2" rx="11" ry="11" style="stroke:#A80036;stroke-width:1.0;"/><path d="M238.3438,18.6719 C237.4063,18.2344 236.8125,18.0938 235.9375,18.0938 C233.3125,18.0938 231.3125,20.1719 231.3125,22.8906 L231.3125,24.0156 C231.3125,26.5938 233.4219,28.4844 236.3125,28.4844 C237.5313,28.4844 238.6875,28.1875 239.4375,27.6406 C240.0156,27.2344 240.3438,26.7813 240.3438,26.3906 C240.3438,25.9375 239.9531,25.5469 239.4844,25.5469 C239.2656,25.5469 239.0625,25.625 238.875,25.8125 C238.4219,26.2969 238.4219,26.2969 238.2344,26.3906 C237.8125,26.6563 237.125,26.7813 236.3594,26.7813 C234.3125,26.7813 233.0156,25.6875 233.0156,23.9844 L233.0156,22.8906 C233.0156,21.1094 234.2656,19.7969 236,19.7969 C236.5781,19.7969 237.1875,19.9531 237.6563,20.2031 C238.1406,20.4844 238.3125,20.7031 238.4063,21.1094 C238.4688,21.5156 238.5,21.6406 238.6406,21.7656 C238.7813,21.9063 239.0156,22.0156 239.2344,22.0156 C239.5,22.0156 239.7656,21.875 239.9375,21.6563 C240.0469,21.5 240.0781,21.3125 240.0781,20.8906 L240.0781,19.4688 C240.0781,19.0313 240.0625,18.9063 239.9688,18.75 C239.8125,18.4844 239.5313,18.3438 239.2344,18.3438 C238.9375,18.3438 238.7344,18.4375 238.5156,18.75 L238.3438,18.6719 Z " fill="#000000"/><text fill="#000000" font-family="sans-serif" font-size="12" lengthAdjust="spacing" textLength="124" x="250" y="27.1543">RealizaEncomendaUI</text><line style="stroke:#A80036;stroke-width:1.5;" x1="222" x2="376" y1="39" y2="39"/><line style="stroke:#A80036;stroke-width:1.5;" x1="222" x2="376" y1="47" y2="47"/><!--MD5=[7f59b03946bc2dfd6b2e4a964bf55a33]
link RealizaEncomendaUI to PedirItemFarmaciaController--><path codeLine="34" d="M299,55.137 C299,70.825 299,92.003 299,110.555 " fill="none" id="RealizaEncomendaUI-to-PedirItemFarmaciaController" style="stroke:#A80036;stroke-width:1.0;stroke-dasharray:7.0,7.0;"/><polygon fill="#A80036" points="299,115.711,303,106.711,299,110.711,295,106.711,299,115.711" style="stroke:#A80036;stroke-width:1.0;"/><!--MD5=[e1213c5e2e3bb398efff75d696296bd7]
link PedirItemFarmaciaController to TransferenciaDB--><path codeLine="35" d="M268.305,190.158 C252.044,209.312 232.024,232.895 215.259,252.644 " fill="none" id="PedirItemFarmaciaController-to-TransferenciaDB" style="stroke:#A80036;stroke-width:1.0;stroke-dasharray:7.0,7.0;"/><polygon fill="#A80036" points="211.951,256.54,220.825,252.2677,215.1869,252.7283,214.7263,247.0903,211.951,256.54" style="stroke:#A80036;stroke-width:1.0;"/><!--MD5=[da1eceea5f743dc74218d2366f16cf72]
link PedirItemFarmaciaController to TransferenciaProduto--><path codeLine="36" d="M181.276,168.799 C130.232,181.714 75.122,205.864 44,251 C8.6304,302.296 37.3539,376.192 61.8288,421.6829 " fill="none" id="PedirItemFarmaciaController-to-TransferenciaProduto" style="stroke:#A80036;stroke-width:1.0;stroke-dasharray:7.0,7.0;"/><polygon fill="#A80036" points="64.3326,426.2673,63.5292,416.4513,61.9359,421.8791,56.5081,420.2859,64.3326,426.2673" style="stroke:#A80036;stroke-width:1.0;"/><!--MD5=[0eb90b374fa07c99e027518ea92009ab]
link PedirItemFarmaciaController to FarmaciaDB--><path codeLine="37" d="M356.228,190.158 C384.259,207.868 418.282,229.365 447.96,248.116 " fill="none" id="PedirItemFarmaciaController-to-FarmaciaDB" style="stroke:#A80036;stroke-width:1.0;stroke-dasharray:7.0,7.0;"/><polygon fill="#A80036" points="452.306,250.861,446.8349,242.6716,448.0793,248.1899,442.561,249.4343,452.306,250.861" style="stroke:#A80036;stroke-width:1.0;"/><!--MD5=[f2dd6f2e8d7fe0f98d8db25cd2307cc1]
link PedirItemFarmaciaController to Farmacia--><path codeLine="38" d="M307.118,190.296 C319.194,244.286 341.965,346.098 355.977,408.746 " fill="none" id="PedirItemFarmaciaController-to-Farmacia" style="stroke:#A80036;stroke-width:1.0;stroke-dasharray:7.0,7.0;"/><polygon fill="#A80036" points="357.138,413.9353,359.0766,404.2791,356.0464,409.0559,351.2696,406.0257,357.138,413.9353" style="stroke:#A80036;stroke-width:1.0;"/><!--MD5=[3c539b0dd2212e8322efef71ee8cdfc2]
link FarmaciaDB to Farmacia--><path codeLine="40" d="M480.896,337.267 C460.993,359.346 436.45,386.57 415.338,409.99 " fill="none" id="FarmaciaDB-to-Farmacia" style="stroke:#A80036;stroke-width:1.0;"/><polygon fill="#A80036" points="411.98,413.7145,420.9764,409.7064,415.3272,410.0002,415.0335,404.3509,411.98,413.7145" style="stroke:#A80036;stroke-width:1.0;"/><text fill="#000000" font-family="sans-serif" font-size="13" lengthAdjust="spacing" textLength="97" x="454" y="380.0669">tem registados</text><text fill="#000000" font-family="sans-serif" font-size="13" lengthAdjust="spacing" textLength="8" x="466.1857" y="357.4025">1</text><text fill="#000000" font-family="sans-serif" font-size="13" lengthAdjust="spacing" textLength="7" x="410.4195" y="403.0773">*</text><!--MD5=[4ae7c921f6fd745b3dda6d4c0523c391]
link TransferenciaDB to TransferenciaProduto--><path codeLine="41" d="M160.603,331.345 C145.699,357.904 125.472,393.946 109.993,421.5276 " fill="none" id="TransferenciaDB-to-TransferenciaProduto" style="stroke:#A80036;stroke-width:1.0;"/><polygon fill="#A80036" points="107.357,426.2259,115.2502,420.3354,109.8042,421.8657,108.2739,416.4198,107.357,426.2259" style="stroke:#A80036;stroke-width:1.0;"/><text fill="#000000" font-family="sans-serif" font-size="13" lengthAdjust="spacing" textLength="97" x="141" y="380.0669">tem registadas</text><text fill="#000000" font-family="sans-serif" font-size="13" lengthAdjust="spacing" textLength="8" x="148.7147" y="350.6008">1</text><text fill="#000000" font-family="sans-serif" font-size="13" lengthAdjust="spacing" textLength="7" x="103.3594" y="415.3641">*</text><!--MD5=[eb9689287bbe0bd731d20dc4866255cf]
@startuml
skinparam classAttributeIconSize 0

class TransferenciaProduto {
  -Integer idTransferencia
  -Integer quantidade
}

class TransferenciaDB {
  +addTransferencia(fOrig,fDest,prod,qtd)
  +enviaStock(fOrig,fDest,prod,qtd)
}

class Farmacia {
  -Integer nif
  -String email
  -String morada
  +Farmacia(nif,email,morada)
}

class FarmaciaDB {
  +getLstFarmaciasByProdutos(p,quant)
  +generateGrafo(farms)
  +getFarmaciaProxima(grafo,nif)
}

class PedirItemFarmaciaController {
    +getListaFarmaciaByProduto(prod,qntd)
    +realizaPedido(fOrig,fDest,prod,qtd)
}

class RealizaEncomendaUI {
}

RealizaEncomendaUI ..> PedirItemFarmaciaController
PedirItemFarmaciaController ..> TransferenciaDB
PedirItemFarmaciaController ..> TransferenciaProduto
PedirItemFarmaciaController ..> FarmaciaDB
PedirItemFarmaciaController ..> Farmacia

FarmaciaDB "1" - -> "*" Farmacia : tem registados
TransferenciaDB "1" - -> "*" TransferenciaProduto : tem registadas
@enduml

PlantUML version 1.2021.01beta3(Unknown compile time)
(GPL source distribution)
Java Runtime: Java(TM) SE Runtime Environment
JVM: Java HotSpot(TM) 64-Bit Server VM
Default Encoding: UTF-8
Language: en
Country: US
--></g></svg>