<?xml version="1.0" encoding="UTF-8" standalone="no"?><svg xmlns="http://www.w3.org/2000/svg" xmlns:xlink="http://www.w3.org/1999/xlink" contentScriptType="application/ecmascript" contentStyleType="text/css" height="382px" preserveAspectRatio="none" style="width:487px;height:382px;" version="1.1" viewBox="0 0 487 382" width="487px" zoomAndPan="magnify"><defs><filter height="300%" id="f1wwz0es4s2s4z" width="300%" x="-1" y="-1"><feGaussianBlur result="blurOut" stdDeviation="2.0"/><feColorMatrix in="blurOut" result="blurOut2" type="matrix" values="0 0 0 0 0 0 0 0 0 0 0 0 0 0 0 0 0 0 .4 0"/><feOffset dx="4.0" dy="4.0" in="blurOut2" result="blurOut3"/><feBlend in="SourceGraphic" in2="blurOut3" mode="normal"/></filter></defs><g><rect fill="#FFFFFF" filter="url(#f1wwz0es4s2s4z)" height="181.9297" style="stroke:#A80036;stroke-width:1.0;" width="10" x="35" y="98.2969"/><rect fill="#FFFFFF" filter="url(#f1wwz0es4s2s4z)" height="29.1328" style="stroke:#A80036;stroke-width:1.0;" width="10" x="432" y="119.4297"/><rect fill="#FFFFFF" filter="url(#f1wwz0es4s2s4z)" height="44.2656" style="stroke:#A80036;stroke-width:1.0;" width="10" x="432" y="177.6953"/><rect fill="#FFFFFF" filter="url(#f1wwz0es4s2s4z)" height="29.1328" style="stroke:#A80036;stroke-width:1.0;" width="10" x="432" y="251.0938"/><line style="stroke:#A80036;stroke-width:1.0;stroke-dasharray:5.0,5.0;" x1="40" x2="40" y1="88.2969" y2="298.2266"/><line style="stroke:#A80036;stroke-width:1.0;stroke-dasharray:5.0,5.0;" x1="436.5" x2="436.5" y1="88.2969" y2="298.2266"/><text fill="#000000" font-family="sans-serif" font-size="14" lengthAdjust="spacing" textLength="64" x="5" y="84.9951">Farmácia</text><ellipse cx="40" cy="15" fill="#FEFECE" filter="url(#f1wwz0es4s2s4z)" rx="8" ry="8" style="stroke:#A80036;stroke-width:2.0;"/><path d="M40,23 L40,50 M27,31 L53,31 M40,50 L27,65 M40,50 L53,65 " fill="none" filter="url(#f1wwz0es4s2s4z)" style="stroke:#A80036;stroke-width:2.0;"/><text fill="#000000" font-family="sans-serif" font-size="14" lengthAdjust="spacing" textLength="64" x="5" y="310.2217">Farmácia</text><ellipse cx="40" cy="323.5234" fill="#FEFECE" filter="url(#f1wwz0es4s2s4z)" rx="8" ry="8" style="stroke:#A80036;stroke-width:2.0;"/><path d="M40,331.5234 L40,358.5234 M27,339.5234 L53,339.5234 M40,358.5234 L27,373.5234 M40,358.5234 L53,373.5234 " fill="none" filter="url(#f1wwz0es4s2s4z)" style="stroke:#A80036;stroke-width:2.0;"/><rect fill="#FEFECE" filter="url(#f1wwz0es4s2s4z)" height="30.2969" style="stroke:#A80036;stroke-width:1.5;" width="77" x="396.5" y="53"/><text fill="#000000" font-family="sans-serif" font-size="14" lengthAdjust="spacing" textLength="63" x="403.5" y="72.9951">:Sistema</text><rect fill="#FEFECE" filter="url(#f1wwz0es4s2s4z)" height="30.2969" style="stroke:#A80036;stroke-width:1.5;" width="77" x="396.5" y="297.2266"/><text fill="#000000" font-family="sans-serif" font-size="14" lengthAdjust="spacing" textLength="63" x="403.5" y="317.2217">:Sistema</text><rect fill="#FFFFFF" filter="url(#f1wwz0es4s2s4z)" height="181.9297" style="stroke:#A80036;stroke-width:1.0;" width="10" x="35" y="98.2969"/><rect fill="#FFFFFF" filter="url(#f1wwz0es4s2s4z)" height="29.1328" style="stroke:#A80036;stroke-width:1.0;" width="10" x="432" y="119.4297"/><rect fill="#FFFFFF" filter="url(#f1wwz0es4s2s4z)" height="44.2656" style="stroke:#A80036;stroke-width:1.0;" width="10" x="432" y="177.6953"/><rect fill="#FFFFFF" filter="url(#f1wwz0es4s2s4z)" height="29.1328" style="stroke:#A80036;stroke-width:1.0;" width="10" x="432" y="251.0938"/><polygon fill="#A80036" points="420,115.4297,430,119.4297,420,123.4297,424,119.4297" style="stroke:#A80036;stroke-width:1.0;"/><line style="stroke:#A80036;stroke-width:1.0;" x1="45" x2="426" y1="119.4297" y2="119.4297"/><text fill="#000000" font-family="sans-serif" font-size="13" font-weight="bold" lengthAdjust="spacing" textLength="9" x="52" y="114.3638">1</text><text fill="#000000" font-family="sans-serif" font-size="13" lengthAdjust="spacing" textLength="238" x="65" y="114.3638">Pretende pedir item a outra farmácia</text><polygon fill="#A80036" points="56,144.5625,46,148.5625,56,152.5625,52,148.5625" style="stroke:#A80036;stroke-width:1.0;"/><line style="stroke:#A80036;stroke-width:1.0;stroke-dasharray:2.0,2.0;" x1="50" x2="436" y1="148.5625" y2="148.5625"/><text fill="#000000" font-family="sans-serif" font-size="13" font-weight="bold" lengthAdjust="spacing" textLength="9" x="62" y="143.4966">2</text><text fill="#000000" font-family="sans-serif" font-size="13" lengthAdjust="spacing" textLength="314" x="75" y="143.4966">solicita dados do item a pedir (designacao, peso)</text><polygon fill="#A80036" points="420,173.6953,430,177.6953,420,181.6953,424,177.6953" style="stroke:#A80036;stroke-width:1.0;"/><line style="stroke:#A80036;stroke-width:1.0;" x1="45" x2="426" y1="177.6953" y2="177.6953"/><text fill="#000000" font-family="sans-serif" font-size="13" font-weight="bold" lengthAdjust="spacing" textLength="8" x="52" y="172.6294">3</text><text fill="#000000" font-family="sans-serif" font-size="13" lengthAdjust="spacing" textLength="185" x="64" y="172.6294">introduz os dados solicitados</text><polygon fill="#A80036" points="56,217.9609,46,221.9609,56,225.9609,52,221.9609" style="stroke:#A80036;stroke-width:1.0;"/><line style="stroke:#A80036;stroke-width:1.0;stroke-dasharray:2.0,2.0;" x1="50" x2="436" y1="221.9609" y2="221.9609"/><text fill="#000000" font-family="sans-serif" font-size="13" font-weight="bold" lengthAdjust="spacing" textLength="9" x="62" y="209.3286">4</text><text fill="#000000" font-family="sans-serif" font-size="13" lengthAdjust="spacing" textLength="350" x="75" y="201.7622">mostra a farmácia mais próxima com o item desejado</text><text fill="#000000" font-family="sans-serif" font-size="13" lengthAdjust="spacing" textLength="271" x="79" y="216.895">e pede confirmação para realizar o pedido</text><polygon fill="#A80036" points="420,247.0938,430,251.0938,420,255.0938,424,251.0938" style="stroke:#A80036;stroke-width:1.0;"/><line style="stroke:#A80036;stroke-width:1.0;" x1="45" x2="426" y1="251.0938" y2="251.0938"/><text fill="#000000" font-family="sans-serif" font-size="13" font-weight="bold" lengthAdjust="spacing" textLength="9" x="52" y="246.0278">5</text><text fill="#000000" font-family="sans-serif" font-size="13" lengthAdjust="spacing" textLength="57" x="65" y="246.0278">confirma</text><polygon fill="#A80036" points="51,276.2266,41,280.2266,51,284.2266,47,280.2266" style="stroke:#A80036;stroke-width:1.0;"/><line style="stroke:#A80036;stroke-width:1.0;stroke-dasharray:2.0,2.0;" x1="45" x2="436" y1="280.2266" y2="280.2266"/><text fill="#000000" font-family="sans-serif" font-size="13" font-weight="bold" lengthAdjust="spacing" textLength="9" x="57" y="275.1606">6</text><text fill="#000000" font-family="sans-serif" font-size="13" lengthAdjust="spacing" textLength="154" x="70" y="275.1606">operação bem sucedida</text><!--MD5=[1be8ec5b151fed34c9244ebf68469258]
@startuml
autonumber
actor "Farmácia" as FARM

activate FARM
FARM -> ":Sistema" : Pretende pedir item a outra farmácia
activate ":Sistema"

":Sistema" - -> FARM : solicita dados do item a pedir (designacao, peso)
deactivate ":Sistema"

FARM -> ":Sistema" : introduz os dados solicitados
activate ":Sistema"

":Sistema" - -> FARM : mostra a farmácia mais próxima com o item desejado\n e pede confirmação para realizar o pedido
deactivate ":Sistema"

FARM -> ":Sistema" : confirma
activate ":Sistema"
":Sistema" - -> FARM : operação bem sucedida
deactivate ":Sistema"

deactivate FARM
@enduml

PlantUML version 1.2020.27beta8(Unknown compile time)
(GPL source distribution)
Java Runtime: Java(TM) SE Runtime Environment
JVM: Java HotSpot(TM) 64-Bit Server VM
Default Encoding: UTF-8
Language: en
Country: US
--></g></svg>