<?xml version="1.0" encoding="UTF-8" standalone="no"?><svg xmlns="http://www.w3.org/2000/svg" xmlns:xlink="http://www.w3.org/1999/xlink" contentScriptType="application/ecmascript" contentStyleType="text/css" height="578px" preserveAspectRatio="none" style="width:658px;height:578px;" version="1.1" viewBox="0 0 658 578" width="658px" zoomAndPan="magnify"><defs><filter height="300%" id="fa7af84tpm1v7" width="300%" x="-1" y="-1"><feGaussianBlur result="blurOut" stdDeviation="2.0"/><feColorMatrix in="blurOut" result="blurOut2" type="matrix" values="0 0 0 0 0 0 0 0 0 0 0 0 0 0 0 0 0 0 .4 0"/><feOffset dx="4.0" dy="4.0" in="blurOut2" result="blurOut3"/><feBlend in="SourceGraphic" in2="blurOut3" mode="normal"/></filter></defs><g><!--MD5=[d4dacc50d49878ba7c621dfc80a2e1ce]
class Produto--><rect codeLine="3" fill="#FEFECE" filter="url(#fa7af84tpm1v7)" height="112.0234" id="Produto" style="stroke:#A80036;stroke-width:1.5;" width="202" x="7" y="452"/><ellipse cx="80.75" cy="468" fill="#ADD1B2" rx="11" ry="11" style="stroke:#A80036;stroke-width:1.0;"/><path d="M83.0938,463.6719 C82.1563,463.2344 81.5625,463.0938 80.6875,463.0938 C78.0625,463.0938 76.0625,465.1719 76.0625,467.8906 L76.0625,469.0156 C76.0625,471.5938 78.1719,473.4844 81.0625,473.4844 C82.2813,473.4844 83.4375,473.1875 84.1875,472.6406 C84.7656,472.2344 85.0938,471.7813 85.0938,471.3906 C85.0938,470.9375 84.7031,470.5469 84.2344,470.5469 C84.0156,470.5469 83.8125,470.625 83.625,470.8125 C83.1719,471.2969 83.1719,471.2969 82.9844,471.3906 C82.5625,471.6563 81.875,471.7813 81.1094,471.7813 C79.0625,471.7813 77.7656,470.6875 77.7656,468.9844 L77.7656,467.8906 C77.7656,466.1094 79.0156,464.7969 80.75,464.7969 C81.3281,464.7969 81.9375,464.9531 82.4063,465.2031 C82.8906,465.4844 83.0625,465.7031 83.1563,466.1094 C83.2188,466.5156 83.25,466.6406 83.3906,466.7656 C83.5313,466.9063 83.7656,467.0156 83.9844,467.0156 C84.25,467.0156 84.5156,466.875 84.6875,466.6563 C84.7969,466.5 84.8281,466.3125 84.8281,465.8906 L84.8281,464.4688 C84.8281,464.0313 84.8125,463.9063 84.7188,463.75 C84.5625,463.4844 84.2813,463.3438 83.9844,463.3438 C83.6875,463.3438 83.4844,463.4375 83.2656,463.75 L83.0938,463.6719 Z " fill="#000000"/><text fill="#000000" font-family="sans-serif" font-size="12" lengthAdjust="spacing" textLength="46" x="101.25" y="472.1543">Produto</text><line style="stroke:#A80036;stroke-width:1.5;" x1="8" x2="208" y1="484" y2="484"/><text fill="#000000" font-family="sans-serif" font-size="11" lengthAdjust="spacing" textLength="59" x="13" y="498.2104">-Integer id</text><text fill="#000000" font-family="sans-serif" font-size="11" lengthAdjust="spacing" textLength="72" x="13" y="511.0151">-String desig</text><text fill="#000000" font-family="sans-serif" font-size="11" lengthAdjust="spacing" textLength="77" x="13" y="523.8198">-Double peso</text><text fill="#000000" font-family="sans-serif" font-size="11" lengthAdjust="spacing" textLength="115" x="13" y="536.6245">-Double preco_base</text><line style="stroke:#A80036;stroke-width:1.5;" x1="8" x2="208" y1="543.2188" y2="543.2188"/><text fill="#000000" font-family="sans-serif" font-size="11" lengthAdjust="spacing" textLength="190" x="13" y="557.4292">+Produto(desig,peso,preco_base)</text><!--MD5=[c7a66176ac6677a496c6f1e27f3083bc]
class ProdutosDB--><rect codeLine="11" fill="#FEFECE" filter="url(#fa7af84tpm1v7)" height="60.8047" id="ProdutosDB" style="stroke:#A80036;stroke-width:1.5;" width="122" x="124" y="288.5"/><ellipse cx="148" cy="304.5" fill="#ADD1B2" rx="11" ry="11" style="stroke:#A80036;stroke-width:1.0;"/><path d="M150.3438,300.1719 C149.4063,299.7344 148.8125,299.5938 147.9375,299.5938 C145.3125,299.5938 143.3125,301.6719 143.3125,304.3906 L143.3125,305.5156 C143.3125,308.0938 145.4219,309.9844 148.3125,309.9844 C149.5313,309.9844 150.6875,309.6875 151.4375,309.1406 C152.0156,308.7344 152.3438,308.2813 152.3438,307.8906 C152.3438,307.4375 151.9531,307.0469 151.4844,307.0469 C151.2656,307.0469 151.0625,307.125 150.875,307.3125 C150.4219,307.7969 150.4219,307.7969 150.2344,307.8906 C149.8125,308.1563 149.125,308.2813 148.3594,308.2813 C146.3125,308.2813 145.0156,307.1875 145.0156,305.4844 L145.0156,304.3906 C145.0156,302.6094 146.2656,301.2969 148,301.2969 C148.5781,301.2969 149.1875,301.4531 149.6563,301.7031 C150.1406,301.9844 150.3125,302.2031 150.4063,302.6094 C150.4688,303.0156 150.5,303.1406 150.6406,303.2656 C150.7813,303.4063 151.0156,303.5156 151.2344,303.5156 C151.5,303.5156 151.7656,303.375 151.9375,303.1563 C152.0469,303 152.0781,302.8125 152.0781,302.3906 L152.0781,300.9688 C152.0781,300.5313 152.0625,300.4063 151.9688,300.25 C151.8125,299.9844 151.5313,299.8438 151.2344,299.8438 C150.9375,299.8438 150.7344,299.9375 150.5156,300.25 L150.3438,300.1719 Z " fill="#000000"/><text fill="#000000" font-family="sans-serif" font-size="12" lengthAdjust="spacing" textLength="70" x="164" y="308.6543">ProdutosDB</text><line style="stroke:#A80036;stroke-width:1.5;" x1="125" x2="245" y1="320.5" y2="320.5"/><line style="stroke:#A80036;stroke-width:1.5;" x1="125" x2="245" y1="328.5" y2="328.5"/><text fill="#000000" font-family="sans-serif" font-size="11" lengthAdjust="spacing" textLength="110" x="130" y="342.7104">+getListaProdutos()</text><!--MD5=[6613c9cd406ef433ff06f5e98b28abd9]
class Farmacia--><rect codeLine="15" fill="#FEFECE" filter="url(#fa7af84tpm1v7)" height="73.6094" id="Farmacia" style="stroke:#A80036;stroke-width:1.5;" width="94" x="281" y="471"/><ellipse cx="299.6" cy="487" fill="#ADD1B2" rx="11" ry="11" style="stroke:#A80036;stroke-width:1.0;"/><path d="M301.9438,482.6719 C301.0063,482.2344 300.4125,482.0938 299.5375,482.0938 C296.9125,482.0938 294.9125,484.1719 294.9125,486.8906 L294.9125,488.0156 C294.9125,490.5938 297.0219,492.4844 299.9125,492.4844 C301.1313,492.4844 302.2875,492.1875 303.0375,491.6406 C303.6156,491.2344 303.9438,490.7813 303.9438,490.3906 C303.9438,489.9375 303.5531,489.5469 303.0844,489.5469 C302.8656,489.5469 302.6625,489.625 302.475,489.8125 C302.0219,490.2969 302.0219,490.2969 301.8344,490.3906 C301.4125,490.6563 300.725,490.7813 299.9594,490.7813 C297.9125,490.7813 296.6156,489.6875 296.6156,487.9844 L296.6156,486.8906 C296.6156,485.1094 297.8656,483.7969 299.6,483.7969 C300.1781,483.7969 300.7875,483.9531 301.2563,484.2031 C301.7406,484.4844 301.9125,484.7031 302.0063,485.1094 C302.0688,485.5156 302.1,485.6406 302.2406,485.7656 C302.3813,485.9063 302.6156,486.0156 302.8344,486.0156 C303.1,486.0156 303.3656,485.875 303.5375,485.6563 C303.6469,485.5 303.6781,485.3125 303.6781,484.8906 L303.6781,483.4688 C303.6781,483.0313 303.6625,482.9063 303.5688,482.75 C303.4125,482.4844 303.1313,482.3438 302.8344,482.3438 C302.5375,482.3438 302.3344,482.4375 302.1156,482.75 L301.9438,482.6719 Z " fill="#000000"/><text fill="#000000" font-family="sans-serif" font-size="12" lengthAdjust="spacing" textLength="54" x="314.4" y="491.1543">Farmacia</text><line style="stroke:#A80036;stroke-width:1.5;" x1="282" x2="374" y1="503" y2="503"/><text fill="#000000" font-family="sans-serif" font-size="11" lengthAdjust="spacing" textLength="63" x="287" y="517.2104">-Integer nif</text><line style="stroke:#A80036;stroke-width:1.5;" x1="282" x2="374" y1="523.8047" y2="523.8047"/><text fill="#000000" font-family="sans-serif" font-size="11" lengthAdjust="spacing" textLength="82" x="287" y="538.0151">+Farmacia(nif)</text><!--MD5=[364aec0fc02518cb9ab31cd04b585b1a]
class FarmaciaDB--><rect codeLine="20" fill="#FEFECE" filter="url(#fa7af84tpm1v7)" height="112.0234" id="FarmaciaDB" style="stroke:#A80036;stroke-width:1.5;" width="292" x="352" y="263"/><ellipse cx="458.25" cy="279" fill="#ADD1B2" rx="11" ry="11" style="stroke:#A80036;stroke-width:1.0;"/><path d="M460.5938,274.6719 C459.6563,274.2344 459.0625,274.0938 458.1875,274.0938 C455.5625,274.0938 453.5625,276.1719 453.5625,278.8906 L453.5625,280.0156 C453.5625,282.5938 455.6719,284.4844 458.5625,284.4844 C459.7813,284.4844 460.9375,284.1875 461.6875,283.6406 C462.2656,283.2344 462.5938,282.7813 462.5938,282.3906 C462.5938,281.9375 462.2031,281.5469 461.7344,281.5469 C461.5156,281.5469 461.3125,281.625 461.125,281.8125 C460.6719,282.2969 460.6719,282.2969 460.4844,282.3906 C460.0625,282.6563 459.375,282.7813 458.6094,282.7813 C456.5625,282.7813 455.2656,281.6875 455.2656,279.9844 L455.2656,278.8906 C455.2656,277.1094 456.5156,275.7969 458.25,275.7969 C458.8281,275.7969 459.4375,275.9531 459.9063,276.2031 C460.3906,276.4844 460.5625,276.7031 460.6563,277.1094 C460.7188,277.5156 460.75,277.6406 460.8906,277.7656 C461.0313,277.9063 461.2656,278.0156 461.4844,278.0156 C461.75,278.0156 462.0156,277.875 462.1875,277.6563 C462.2969,277.5 462.3281,277.3125 462.3281,276.8906 L462.3281,275.4688 C462.3281,275.0313 462.3125,274.9063 462.2188,274.75 C462.0625,274.4844 461.7813,274.3438 461.4844,274.3438 C461.1875,274.3438 460.9844,274.4375 460.7656,274.75 L460.5938,274.6719 Z " fill="#000000"/><text fill="#000000" font-family="sans-serif" font-size="12" lengthAdjust="spacing" textLength="71" x="478.75" y="283.1543">FarmaciaDB</text><line style="stroke:#A80036;stroke-width:1.5;" x1="353" x2="643" y1="295" y2="295"/><line style="stroke:#A80036;stroke-width:1.5;" x1="353" x2="643" y1="303" y2="303"/><text fill="#000000" font-family="sans-serif" font-size="11" lengthAdjust="spacing" textLength="280" x="358" y="317.2104">+getFarmacia(desig,peso,precoBase,quantidade)</text><text fill="#000000" font-family="sans-serif" font-size="11" lengthAdjust="spacing" textLength="128" x="358" y="330.0151">+validaFarmacia(farm)</text><text fill="#000000" font-family="sans-serif" font-size="11" lengthAdjust="spacing" textLength="120" x="358" y="342.8198">+realizaPedido(farm)</text><text fill="#000000" font-family="sans-serif" font-size="11" lengthAdjust="spacing" textLength="115" x="358" y="355.6245">+validaPedido(farm)</text><text fill="#000000" font-family="sans-serif" font-size="11" lengthAdjust="spacing" textLength="113" x="358" y="368.4292">+enviaPeiddo(farm)</text><!--MD5=[79e34f5fc5afe5d8697a84a65bb14793]
class PedirItemFarmaciaController--><rect codeLine="28" fill="#FEFECE" filter="url(#fa7af84tpm1v7)" height="86.4141" id="PedirItemFarmaciaController" style="stroke:#A80036;stroke-width:1.5;" width="297" x="111.5" y="116"/><ellipse cx="171.25" cy="132" fill="#ADD1B2" rx="11" ry="11" style="stroke:#A80036;stroke-width:1.0;"/><path d="M173.5938,127.6719 C172.6563,127.2344 172.0625,127.0938 171.1875,127.0938 C168.5625,127.0938 166.5625,129.1719 166.5625,131.8906 L166.5625,133.0156 C166.5625,135.5938 168.6719,137.4844 171.5625,137.4844 C172.7813,137.4844 173.9375,137.1875 174.6875,136.6406 C175.2656,136.2344 175.5938,135.7813 175.5938,135.3906 C175.5938,134.9375 175.2031,134.5469 174.7344,134.5469 C174.5156,134.5469 174.3125,134.625 174.125,134.8125 C173.6719,135.2969 173.6719,135.2969 173.4844,135.3906 C173.0625,135.6563 172.375,135.7813 171.6094,135.7813 C169.5625,135.7813 168.2656,134.6875 168.2656,132.9844 L168.2656,131.8906 C168.2656,130.1094 169.5156,128.7969 171.25,128.7969 C171.8281,128.7969 172.4375,128.9531 172.9063,129.2031 C173.3906,129.4844 173.5625,129.7031 173.6563,130.1094 C173.7188,130.5156 173.75,130.6406 173.8906,130.7656 C174.0313,130.9063 174.2656,131.0156 174.4844,131.0156 C174.75,131.0156 175.0156,130.875 175.1875,130.6563 C175.2969,130.5 175.3281,130.3125 175.3281,129.8906 L175.3281,128.4688 C175.3281,128.0313 175.3125,127.9063 175.2188,127.75 C175.0625,127.4844 174.7813,127.3438 174.4844,127.3438 C174.1875,127.3438 173.9844,127.4375 173.7656,127.75 L173.5938,127.6719 Z " fill="#000000"/><text fill="#000000" font-family="sans-serif" font-size="12" lengthAdjust="spacing" textLength="169" x="191.75" y="136.1543">PedirItemFarmaciaController</text><line style="stroke:#A80036;stroke-width:1.5;" x1="112.5" x2="407.5" y1="148" y2="148"/><line style="stroke:#A80036;stroke-width:1.5;" x1="112.5" x2="407.5" y1="156" y2="156"/><text fill="#000000" font-family="sans-serif" font-size="11" lengthAdjust="spacing" textLength="120" x="117.5" y="170.2104">+realizaPedido(farm)</text><text fill="#000000" font-family="sans-serif" font-size="11" lengthAdjust="spacing" textLength="285" x="117.5" y="183.0151">+getFarmacia(desig,peso,preco_base,quantidade)</text><text fill="#000000" font-family="sans-serif" font-size="11" lengthAdjust="spacing" textLength="110" x="117.5" y="195.8198">+getListaProdutos()</text><!--MD5=[afdb36f5de35eeee8fe2beb4f556ece3]
class PedirItemFarmaciaUI--><rect codeLine="34" fill="#FEFECE" filter="url(#fa7af84tpm1v7)" height="48" id="PedirItemFarmaciaUI" style="stroke:#A80036;stroke-width:1.5;" width="154" x="183" y="7"/><ellipse cx="198" cy="23" fill="#ADD1B2" rx="11" ry="11" style="stroke:#A80036;stroke-width:1.0;"/><path d="M200.3438,18.6719 C199.4063,18.2344 198.8125,18.0938 197.9375,18.0938 C195.3125,18.0938 193.3125,20.1719 193.3125,22.8906 L193.3125,24.0156 C193.3125,26.5938 195.4219,28.4844 198.3125,28.4844 C199.5313,28.4844 200.6875,28.1875 201.4375,27.6406 C202.0156,27.2344 202.3438,26.7813 202.3438,26.3906 C202.3438,25.9375 201.9531,25.5469 201.4844,25.5469 C201.2656,25.5469 201.0625,25.625 200.875,25.8125 C200.4219,26.2969 200.4219,26.2969 200.2344,26.3906 C199.8125,26.6563 199.125,26.7813 198.3594,26.7813 C196.3125,26.7813 195.0156,25.6875 195.0156,23.9844 L195.0156,22.8906 C195.0156,21.1094 196.2656,19.7969 198,19.7969 C198.5781,19.7969 199.1875,19.9531 199.6563,20.2031 C200.1406,20.4844 200.3125,20.7031 200.4063,21.1094 C200.4688,21.5156 200.5,21.6406 200.6406,21.7656 C200.7813,21.9063 201.0156,22.0156 201.2344,22.0156 C201.5,22.0156 201.7656,21.875 201.9375,21.6563 C202.0469,21.5 202.0781,21.3125 202.0781,20.8906 L202.0781,19.4688 C202.0781,19.0313 202.0625,18.9063 201.9688,18.75 C201.8125,18.4844 201.5313,18.3438 201.2344,18.3438 C200.9375,18.3438 200.7344,18.4375 200.5156,18.75 L200.3438,18.6719 Z " fill="#000000"/><text fill="#000000" font-family="sans-serif" font-size="12" lengthAdjust="spacing" textLength="122" x="212" y="27.1543">PedirItemFarmaciaUI</text><line style="stroke:#A80036;stroke-width:1.5;" x1="184" x2="336" y1="39" y2="39"/><line style="stroke:#A80036;stroke-width:1.5;" x1="184" x2="336" y1="47" y2="47"/><!--MD5=[32ec9a347e341e58dac1a5c82d48ef52]
link PedirItemFarmaciaUI to PedirItemFarmaciaController--><path codeLine="37" d="M260,55.11 C260,70.631 260,91.639 260,110.625 " fill="none" id="PedirItemFarmaciaUI-to-PedirItemFarmaciaController" style="stroke:#A80036;stroke-width:1.0;stroke-dasharray:7.0,7.0;"/><polygon fill="#A80036" points="260,115.921,264,106.921,260,110.921,256,106.921,260,115.921" style="stroke:#A80036;stroke-width:1.0;"/><!--MD5=[d20399d341f163de7c5e0be6e8ad53d5]
link PedirItemFarmaciaController to ProdutosDB--><path codeLine="38" d="M239.901,202.341 C227.861,227.707 212.744,259.552 201.423,283.402 " fill="none" id="PedirItemFarmaciaController-to-ProdutosDB" style="stroke:#A80036;stroke-width:1.0;stroke-dasharray:7.0,7.0;"/><polygon fill="#A80036" points="199.212,288.061,206.685,281.6459,201.3562,283.5441,199.458,278.2152,199.212,288.061" style="stroke:#A80036;stroke-width:1.0;"/><!--MD5=[f44325ccc282479ea3feb74e82465c59]
link PedirItemFarmaciaController to Produto--><path codeLine="39" d="M166.118,202.074 C142.212,217.608 119.489,237.75 106,263 C75.737,319.649 82.0205,394.778 92.1771,446.63 " fill="none" id="PedirItemFarmaciaController-to-Produto" style="stroke:#A80036;stroke-width:1.0;stroke-dasharray:7.0,7.0;"/><polygon fill="#A80036" points="93.1709,451.574,95.3182,441.9621,92.1852,446.6721,87.4752,443.5392,93.1709,451.574" style="stroke:#A80036;stroke-width:1.0;"/><!--MD5=[0eb90b374fa07c99e027518ea92009ab]
link PedirItemFarmaciaController to FarmaciaDB--><path codeLine="40" d="M323.467,202.134 C350.242,219.908 381.851,240.893 410.762,260.086 " fill="none" id="PedirItemFarmaciaController-to-FarmaciaDB" style="stroke:#A80036;stroke-width:1.0;stroke-dasharray:7.0,7.0;"/><polygon fill="#A80036" points="415.007,262.904,409.7196,254.5948,410.8408,260.1394,405.2962,261.2607,415.007,262.904" style="stroke:#A80036;stroke-width:1.0;"/><!--MD5=[f2dd6f2e8d7fe0f98d8db25cd2307cc1]
link PedirItemFarmaciaController to Farmacia--><path codeLine="41" d="M268.27,202.202 C281.413,269.27 306.909,399.375 319.927,465.8053 " fill="none" id="PedirItemFarmaciaController-to-Farmacia" style="stroke:#A80036;stroke-width:1.0;stroke-dasharray:7.0,7.0;"/><polygon fill="#A80036" points="320.919,470.8654,323.1137,461.2642,319.9575,465.9587,315.263,462.8026,320.919,470.8654" style="stroke:#A80036;stroke-width:1.0;"/><!--MD5=[bbd3ef872394a4705faf2324ce30b073]
link ProdutosDB to Produto--><path codeLine="43" d="M172.799,349.631 C162.048,375.741 146.055,414.58 132.648,447.139 " fill="none" id="ProdutosDB-to-Produto" style="stroke:#A80036;stroke-width:1.0;"/><polygon fill="#A80036" points="130.69,451.895,137.8146,445.095,132.5932,447.2714,130.4168,442.0499,130.69,451.895" style="stroke:#A80036;stroke-width:1.0;"/><text fill="#000000" font-family="sans-serif" font-size="13" lengthAdjust="spacing" textLength="97" x="150" y="418.0669">tem registados</text><text fill="#000000" font-family="sans-serif" font-size="13" lengthAdjust="spacing" textLength="8" x="161.4575" y="369.5963">1</text><text fill="#000000" font-family="sans-serif" font-size="13" lengthAdjust="spacing" textLength="7" x="126.1487" y="440.8195">*</text><!--MD5=[3c539b0dd2212e8322efef71ee8cdfc2]
link FarmaciaDB to Farmacia--><path codeLine="44" d="M447.914,375.095 C421.122,404.565 388.73,440.197 364.369,466.9944 " fill="none" id="FarmaciaDB-to-Farmacia" style="stroke:#A80036;stroke-width:1.0;"/><polygon fill="#A80036" points="360.834,470.8822,369.8477,466.9132,364.1973,467.1824,363.928,461.532,360.834,470.8822" style="stroke:#A80036;stroke-width:1.0;"/><text fill="#000000" font-family="sans-serif" font-size="13" lengthAdjust="spacing" textLength="97" x="419" y="418.0669">tem registadas</text><text fill="#000000" font-family="sans-serif" font-size="13" lengthAdjust="spacing" textLength="8" x="433.3223" y="394.9192">1</text><text fill="#000000" font-family="sans-serif" font-size="13" lengthAdjust="spacing" textLength="7" x="359.0591" y="460.0479">*</text><!--MD5=[c88af3fde5e7ebcc301d9d0b7b15fc6a]
@startuml
skinparam classAttributeIconSize 0

class Produto {
  -Integer id
  -String desig
  -Double peso
  -Double preco_base
  +Produto(desig,peso,preco_base)
}

class ProdutosDB {
  +getListaProdutos()
}

class Farmacia {
  -Integer nif
  +Farmacia(nif)
}

class FarmaciaDB {
  +getFarmacia(desig,peso,precoBase,quantidade)
  +validaFarmacia(farm)
  +realizaPedido(farm)
  +validaPedido(farm)
  +enviaPeiddo(farm)
}

class PedirItemFarmaciaController {
    +realizaPedido(farm)
    +getFarmacia(desig,peso,preco_base,quantidade)
    +getListaProdutos()
}

class PedirItemFarmaciaUI {
}

PedirItemFarmaciaUI ..> PedirItemFarmaciaController
PedirItemFarmaciaController ..> ProdutosDB
PedirItemFarmaciaController ..> Produto
PedirItemFarmaciaController ..> FarmaciaDB
PedirItemFarmaciaController ..> Farmacia

ProdutosDB "1" - -> "*" Produto : tem registados
FarmaciaDB "1" - -> "*" Farmacia : tem registadas
@enduml

PlantUML version 1.2020.27beta8(Unknown compile time)
(GPL source distribution)
Java Runtime: Java(TM) SE Runtime Environment
JVM: Java HotSpot(TM) 64-Bit Server VM
Default Encoding: UTF-8
Language: en
Country: US
--></g></svg>