<?xml version="1.0" encoding="UTF-8" standalone="no"?><svg xmlns="http://www.w3.org/2000/svg" xmlns:xlink="http://www.w3.org/1999/xlink" contentScriptType="application/ecmascript" contentStyleType="text/css" height="231px" preserveAspectRatio="none" style="width:713px;height:231px;" version="1.1" viewBox="0 0 713 231" width="713px" zoomAndPan="magnify"><defs><filter height="300%" id="f1hittsg3tpnwy" width="300%" x="-1" y="-1"><feGaussianBlur result="blurOut" stdDeviation="2.0"/><feColorMatrix in="blurOut" result="blurOut2" type="matrix" values="0 0 0 0 0 0 0 0 0 0 0 0 0 0 0 0 0 0 .4 0"/><feOffset dx="4.0" dy="4.0" in="blurOut2" result="blurOut3"/><feBlend in="SourceGraphic" in2="blurOut3" mode="normal"/></filter></defs><g><!--MD5=[d4dacc50d49878ba7c621dfc80a2e1ce]
class Produto--><rect codeLine="5" fill="#FEFECE" filter="url(#f1hittsg3tpnwy)" height="91.2188" id="Produto" style="stroke:#A80036;stroke-width:1.5;" width="81" x="581.4672" y="25.5"/><ellipse cx="597.8172" cy="41.5" fill="#ADD1B2" rx="11" ry="11" style="stroke:#A80036;stroke-width:1.0;"/><path d="M600.161,37.1719 C599.2235,36.7344 598.6297,36.5938 597.7547,36.5938 C595.1297,36.5938 593.1297,38.6719 593.1297,41.3906 L593.1297,42.5156 C593.1297,45.0938 595.2391,46.9844 598.1297,46.9844 C599.3485,46.9844 600.5047,46.6875 601.2547,46.1406 C601.8329,45.7344 602.161,45.2813 602.161,44.8906 C602.161,44.4375 601.7704,44.0469 601.3016,44.0469 C601.0829,44.0469 600.8797,44.125 600.6922,44.3125 C600.2391,44.7969 600.2391,44.7969 600.0516,44.8906 C599.6297,45.1563 598.9422,45.2813 598.1766,45.2813 C596.1297,45.2813 594.8329,44.1875 594.8329,42.4844 L594.8329,41.3906 C594.8329,39.6094 596.0829,38.2969 597.8172,38.2969 C598.3954,38.2969 599.0047,38.4531 599.4735,38.7031 C599.9579,38.9844 600.1297,39.2031 600.2235,39.6094 C600.286,40.0156 600.3172,40.1406 600.4579,40.2656 C600.5985,40.4063 600.8329,40.5156 601.0516,40.5156 C601.3172,40.5156 601.5829,40.375 601.7547,40.1563 C601.8641,40 601.8954,39.8125 601.8954,39.3906 L601.8954,37.9688 C601.8954,37.5313 601.8797,37.4063 601.786,37.25 C601.6297,36.9844 601.3485,36.8438 601.0516,36.8438 C600.7547,36.8438 600.5516,36.9375 600.3329,37.25 L600.161,37.1719 Z " fill="#000000"/><text fill="#000000" font-family="sans-serif" font-size="12" lengthAdjust="spacing" textLength="46" x="612.1172" y="45.6543">Produto</text><line style="stroke:#A80036;stroke-width:1.5;" x1="582.4672" x2="661.4672" y1="57.5" y2="57.5"/><text fill="#000000" font-family="sans-serif" font-size="11" lengthAdjust="spacing" textLength="56" x="587.4672" y="71.7104">-idProduto</text><text fill="#000000" font-family="sans-serif" font-size="11" lengthAdjust="spacing" textLength="69" x="587.4672" y="84.5151">-designacao</text><text fill="#000000" font-family="sans-serif" font-size="11" lengthAdjust="spacing" textLength="32" x="587.4672" y="97.3198">-peso</text><text fill="#000000" font-family="sans-serif" font-size="11" lengthAdjust="spacing" textLength="65" x="587.4672" y="110.1245">-precoBase</text><!--MD5=[ac303f713d9f979882ac64afbf326271]
class TransferenciaProduto--><rect codeLine="12" fill="#FEFECE" filter="url(#f1hittsg3tpnwy)" height="65.6094" id="TransferenciaProduto" style="stroke:#A80036;stroke-width:1.5;" width="160" x="237.4672" y="141"/><ellipse cx="252.4672" cy="157" fill="#ADD1B2" rx="11" ry="11" style="stroke:#A80036;stroke-width:1.0;"/><path d="M254.811,152.6719 C253.8735,152.2344 253.2797,152.0938 252.4047,152.0938 C249.7797,152.0938 247.7797,154.1719 247.7797,156.8906 L247.7797,158.0156 C247.7797,160.5938 249.8891,162.4844 252.7797,162.4844 C253.9985,162.4844 255.1547,162.1875 255.9047,161.6406 C256.4829,161.2344 256.811,160.7813 256.811,160.3906 C256.811,159.9375 256.4204,159.5469 255.9516,159.5469 C255.7329,159.5469 255.5297,159.625 255.3422,159.8125 C254.8891,160.2969 254.8891,160.2969 254.7016,160.3906 C254.2797,160.6563 253.5922,160.7813 252.8266,160.7813 C250.7797,160.7813 249.4829,159.6875 249.4829,157.9844 L249.4829,156.8906 C249.4829,155.1094 250.7329,153.7969 252.4672,153.7969 C253.0454,153.7969 253.6547,153.9531 254.1235,154.2031 C254.6079,154.4844 254.7797,154.7031 254.8735,155.1094 C254.936,155.5156 254.9672,155.6406 255.1079,155.7656 C255.2485,155.9063 255.4829,156.0156 255.7016,156.0156 C255.9672,156.0156 256.2329,155.875 256.4047,155.6563 C256.5141,155.5 256.5454,155.3125 256.5454,154.8906 L256.5454,153.4688 C256.5454,153.0313 256.5297,152.9063 256.436,152.75 C256.2797,152.4844 255.9985,152.3438 255.7016,152.3438 C255.4047,152.3438 255.2016,152.4375 254.9829,152.75 L254.811,152.6719 Z " fill="#000000"/><text fill="#000000" font-family="sans-serif" font-size="12" lengthAdjust="spacing" textLength="128" x="266.4672" y="161.1543">TransferenciaProduto</text><line style="stroke:#A80036;stroke-width:1.5;" x1="238.4672" x2="396.4672" y1="173" y2="173"/><text fill="#000000" font-family="sans-serif" font-size="11" lengthAdjust="spacing" textLength="92" x="243.4672" y="187.2104">-idTransferencia</text><text fill="#000000" font-family="sans-serif" font-size="11" lengthAdjust="spacing" textLength="68" x="243.4672" y="200.0151">-quantidade</text><!--MD5=[1ba30c488416121cd0b4d64686b21549]
class EstadoTransferencia--><rect codeLine="17" fill="#FEFECE" filter="url(#f1hittsg3tpnwy)" height="65.6094" id="EstadoTransferencia" style="stroke:#A80036;stroke-width:1.5;" width="155" x="544.4672" y="152"/><ellipse cx="559.4672" cy="168" fill="#ADD1B2" rx="11" ry="11" style="stroke:#A80036;stroke-width:1.0;"/><path d="M561.811,163.6719 C560.8735,163.2344 560.2797,163.0938 559.4047,163.0938 C556.7797,163.0938 554.7797,165.1719 554.7797,167.8906 L554.7797,169.0156 C554.7797,171.5938 556.8891,173.4844 559.7797,173.4844 C560.9985,173.4844 562.1547,173.1875 562.9047,172.6406 C563.4829,172.2344 563.811,171.7813 563.811,171.3906 C563.811,170.9375 563.4204,170.5469 562.9516,170.5469 C562.7329,170.5469 562.5297,170.625 562.3422,170.8125 C561.8891,171.2969 561.8891,171.2969 561.7016,171.3906 C561.2797,171.6563 560.5922,171.7813 559.8266,171.7813 C557.7797,171.7813 556.4829,170.6875 556.4829,168.9844 L556.4829,167.8906 C556.4829,166.1094 557.7329,164.7969 559.4672,164.7969 C560.0454,164.7969 560.6547,164.9531 561.1235,165.2031 C561.6079,165.4844 561.7797,165.7031 561.8735,166.1094 C561.936,166.5156 561.9672,166.6406 562.1079,166.7656 C562.2485,166.9063 562.4829,167.0156 562.7016,167.0156 C562.9672,167.0156 563.2329,166.875 563.4047,166.6563 C563.5141,166.5 563.5454,166.3125 563.5454,165.8906 L563.5454,164.4688 C563.5454,164.0313 563.5297,163.9063 563.436,163.75 C563.2797,163.4844 562.9985,163.3438 562.7016,163.3438 C562.4047,163.3438 562.2016,163.4375 561.9829,163.75 L561.811,163.6719 Z " fill="#000000"/><text fill="#000000" font-family="sans-serif" font-size="12" lengthAdjust="spacing" textLength="123" x="573.4672" y="172.1543">EstadoTransferencia</text><line style="stroke:#A80036;stroke-width:1.5;" x1="545.4672" x2="698.4672" y1="184" y2="184"/><text fill="#000000" font-family="sans-serif" font-size="11" lengthAdjust="spacing" textLength="14" x="550.4672" y="198.2104">-id</text><text fill="#000000" font-family="sans-serif" font-size="11" lengthAdjust="spacing" textLength="69" x="550.4672" y="211.0151">-designacao</text><!--MD5=[6613c9cd406ef433ff06f5e98b28abd9]
class Farmacia--><rect codeLine="22" fill="#FEFECE" filter="url(#f1hittsg3tpnwy)" height="78.4141" id="Farmacia" style="stroke:#A80036;stroke-width:1.5;" width="86" x="34.4672" y="68"/><ellipse cx="49.4672" cy="84" fill="#ADD1B2" rx="11" ry="11" style="stroke:#A80036;stroke-width:1.0;"/><path d="M51.811,79.6719 C50.8735,79.2344 50.2797,79.0938 49.4047,79.0938 C46.7797,79.0938 44.7797,81.1719 44.7797,83.8906 L44.7797,85.0156 C44.7797,87.5938 46.8891,89.4844 49.7797,89.4844 C50.9985,89.4844 52.1547,89.1875 52.9047,88.6406 C53.4829,88.2344 53.811,87.7813 53.811,87.3906 C53.811,86.9375 53.4204,86.5469 52.9516,86.5469 C52.7329,86.5469 52.5297,86.625 52.3422,86.8125 C51.8891,87.2969 51.8891,87.2969 51.7016,87.3906 C51.2797,87.6563 50.5922,87.7813 49.8266,87.7813 C47.7797,87.7813 46.4829,86.6875 46.4829,84.9844 L46.4829,83.8906 C46.4829,82.1094 47.7329,80.7969 49.4672,80.7969 C50.0454,80.7969 50.6547,80.9531 51.1235,81.2031 C51.6079,81.4844 51.7797,81.7031 51.8735,82.1094 C51.936,82.5156 51.9672,82.6406 52.1079,82.7656 C52.2485,82.9063 52.4829,83.0156 52.7016,83.0156 C52.9672,83.0156 53.2329,82.875 53.4047,82.6563 C53.5141,82.5 53.5454,82.3125 53.5454,81.8906 L53.5454,80.4688 C53.5454,80.0313 53.5297,79.9063 53.436,79.75 C53.2797,79.4844 52.9985,79.3438 52.7016,79.3438 C52.4047,79.3438 52.2016,79.4375 51.9829,79.75 L51.811,79.6719 Z " fill="#000000"/><text fill="#000000" font-family="sans-serif" font-size="12" lengthAdjust="spacing" textLength="54" x="63.4672" y="88.1543">Farmacia</text><line style="stroke:#A80036;stroke-width:1.5;" x1="35.4672" x2="119.4672" y1="100" y2="100"/><text fill="#000000" font-family="sans-serif" font-size="11" lengthAdjust="spacing" textLength="21" x="40.4672" y="114.2104">-NIF</text><text fill="#000000" font-family="sans-serif" font-size="11" lengthAdjust="spacing" textLength="36" x="40.4672" y="127.0151">-email</text><text fill="#000000" font-family="sans-serif" font-size="11" lengthAdjust="spacing" textLength="47" x="40.4672" y="139.8198">-morada</text><!--MD5=[b925eed8574a8ca4aaf557e1ca097bb2]
link Farmacia to Farmacia--><path codeLine="28" d="M59.1303,67.789 C56.9994,49.267 63.1117,33 77.4672,33 C91.8227,33 97.935,49.267 95.8041,67.789 " fill="none" id="Farmacia-Farmacia" style="stroke:#A80036;stroke-width:1.0;"/><polygon fill="#000000" points="16,18.9949,24.6499,22.9484,25.3217,17.1091,16,18.9949" style="stroke:#000000;stroke-width:1.0;"/><text fill="#000000" font-family="sans-serif" font-size="13" lengthAdjust="spacing" textLength="98" x="34.9672" y="24.0669">pede produto a</text><text fill="#000000" font-family="sans-serif" font-size="13" lengthAdjust="spacing" textLength="8" x="47.2912" y="56.8033">1</text><text fill="#000000" font-family="sans-serif" font-size="13" lengthAdjust="spacing" textLength="7" x="91.3542" y="56.8033">*</text><!--MD5=[db4a5ac14aaeb2d946b80db0d46ff947]
link Farmacia to Produto--><path codeLine="29" d="M120.5852,104.205 C222.6542,97.432 482.1242,80.214 581.4552,73.622 " fill="none" id="Farmacia-Produto" style="stroke:#A80036;stroke-width:1.0;"/><polygon fill="#000000" points="306.9563,77.2353,297.7364,74.9018,298.1256,80.7667,306.9563,77.2353" style="stroke:#000000;stroke-width:1.0;"/><text fill="#000000" font-family="sans-serif" font-size="13" lengthAdjust="spacing" textLength="26" x="310.9672" y="82.0669">tem</text><text fill="#000000" font-family="sans-serif" font-size="13" lengthAdjust="spacing" textLength="8" x="128.3892" y="117.0279">1</text><text fill="#000000" font-family="sans-serif" font-size="13" lengthAdjust="spacing" textLength="7" x="566.3405" y="69.7816">*</text><!--MD5=[3f6503f1a57f2d55f08379ac406fcd0b]
link Farmacia to TransferenciaProduto--><path codeLine="31" d="M120.4692,118.824 C152.7632,127.9153 198.3162,140.739 237.3792,151.7358 " fill="none" id="Farmacia-TransferenciaProduto" style="stroke:#A80036;stroke-width:1.0;"/><polygon fill="#000000" points="160.2802,120.9213,152.3699,115.6413,150.7771,121.2992,160.2802,120.9213" style="stroke:#000000;stroke-width:1.0;"/><text fill="#000000" font-family="sans-serif" font-size="13" lengthAdjust="spacing" textLength="42" x="164.4672" y="124.0669">realiza</text><text fill="#000000" font-family="sans-serif" font-size="13" lengthAdjust="spacing" textLength="8" x="128.5477" y="134.188">1</text><text fill="#000000" font-family="sans-serif" font-size="13" lengthAdjust="spacing" textLength="7" x="222.4123" y="162.4204">*</text><!--MD5=[c855b1766254e06f87c76fb6bd0b050a]
link TransferenciaProduto to EstadoTransferencia--><path codeLine="32" d="M397.6332,178.6293 C407.6732,179.1365 417.8092,179.6095 427.4672,180 C465.9132,181.5545 508.6772,182.7187 544.2052,183.5308 " fill="none" id="TransferenciaProduto-EstadoTransferencia" style="stroke:#A80036;stroke-width:1.0;"/><polygon fill="#000000" points="460.4644,171.7335,451.5226,168.4939,451.3262,174.3685,460.4644,171.7335" style="stroke:#000000;stroke-width:1.0;"/><text fill="#000000" font-family="sans-serif" font-size="13" lengthAdjust="spacing" textLength="26" x="464.4672" y="176.0669">tem</text><text fill="#000000" font-family="sans-serif" font-size="13" lengthAdjust="spacing" textLength="8" x="405.3923" y="191.8385">1</text><text fill="#000000" font-family="sans-serif" font-size="13" lengthAdjust="spacing" textLength="7" x="529.46" y="196.1975">*</text><!--MD5=[36ce0647da86725cfb4b25b0e75164d8]
link TransferenciaProduto to Produto--><path codeLine="33" d="M397.6572,151.4591 C433.5542,140.8067 476.3942,127.4851 514.4672,114 C536.8342,106.078 561.4192,96.229 581.3272,87.957 " fill="none" id="TransferenciaProduto-Produto" style="stroke:#A80036;stroke-width:1.0;"/><polygon fill="#000000" points="437.1928,103.9326,427.6839,104.1106,429.6045,109.6658,437.1928,103.9326" style="stroke:#000000;stroke-width:1.0;"/><text fill="#000000" font-family="sans-serif" font-size="13" lengthAdjust="spacing" textLength="72" x="441.4672" y="110.0669">referente a</text><text fill="#000000" font-family="sans-serif" font-size="13" lengthAdjust="spacing" textLength="8" x="405.4185" y="162.1635">1</text><text fill="#000000" font-family="sans-serif" font-size="13" lengthAdjust="spacing" textLength="8" x="565.3757" y="104.3726">1</text><!--MD5=[0b18fddde0a7e51d4782c3eb22c6cf16]
@startuml
skinparam classAttributeIconSize 0
hide methods
left to right direction

class Produto {
  -idProduto
  -designacao
  -peso
  -precoBase
}

class TransferenciaProduto {
  -idTransferencia
  -quantidade
}

class EstadoTransferencia {
  -id
  -designacao
}

class Farmacia {
  -NIF
  -email
  -morada
}

Farmacia "1" - - "*" Farmacia: pede produto a >
Farmacia "1" - - "*" Produto: tem >

Farmacia "1" - - "*" TransferenciaProduto: realiza >
TransferenciaProduto "1" - - "*" EstadoTransferencia: tem >
TransferenciaProduto "1" - - "1" Produto: referente a >
@enduml

PlantUML version 1.2021.01beta3(Unknown compile time)
(GPL source distribution)
Java Runtime: Java(TM) SE Runtime Environment
JVM: Java HotSpot(TM) 64-Bit Server VM
Default Encoding: UTF-8
Language: en
Country: US
--></g></svg>