<?xml version="1.0" encoding="UTF-8" standalone="no"?><svg xmlns="http://www.w3.org/2000/svg" xmlns:xlink="http://www.w3.org/1999/xlink" contentScriptType="application/ecmascript" contentStyleType="text/css" height="745px" preserveAspectRatio="none" style="width:1466px;height:745px;" version="1.1" viewBox="0 0 1466 745" width="1466px" zoomAndPan="magnify"><defs><filter height="300%" id="f51hhf4raof9a" width="300%" x="-1" y="-1"><feGaussianBlur result="blurOut" stdDeviation="2.0"/><feColorMatrix in="blurOut" result="blurOut2" type="matrix" values="0 0 0 0 0 0 0 0 0 0 0 0 0 0 0 0 0 0 .4 0"/><feOffset dx="4.0" dy="4.0" in="blurOut2" result="blurOut3"/><feBlend in="SourceGraphic" in2="blurOut3" mode="normal"/></filter></defs><g><rect fill="#FFFFFF" filter="url(#f51hhf4raof9a)" height="544.9922" style="stroke:#A80036;stroke-width:1.0;" width="10" x="54" y="98.2969"/><rect fill="#FFFFFF" filter="url(#f51hhf4raof9a)" height="117.3984" style="stroke:#A80036;stroke-width:1.0;" width="10" x="540" y="119.4297"/><rect fill="#FFFFFF" filter="url(#f51hhf4raof9a)" height="176.5313" style="stroke:#A80036;stroke-width:1.0;" width="10" x="540" y="265.9609"/><rect fill="#FFFFFF" filter="url(#f51hhf4raof9a)" height="180.6641" style="stroke:#A80036;stroke-width:1.0;" width="10" x="540" y="471.625"/><rect fill="#FFFFFF" filter="url(#f51hhf4raof9a)" height="59.1328" style="stroke:#A80036;stroke-width:1.0;" width="10" x="895" y="148.5625"/><rect fill="#FFFFFF" filter="url(#f51hhf4raof9a)" height="118.2656" style="stroke:#A80036;stroke-width:1.0;" width="10" x="895" y="295.0938"/><rect fill="#FFFFFF" filter="url(#f51hhf4raof9a)" height="106.3984" style="stroke:#A80036;stroke-width:1.0;" width="10" x="895" y="500.7578"/><rect fill="#FFFFFF" filter="url(#f51hhf4raof9a)" height="30" style="stroke:#A80036;stroke-width:1.0;" width="10" x="1083" y="177.6953"/><rect fill="#FFFFFF" filter="url(#f51hhf4raof9a)" height="30" style="stroke:#A80036;stroke-width:1.0;" width="10" x="1299" y="324.2266"/><rect fill="#FFFFFF" filter="url(#f51hhf4raof9a)" height="30" style="stroke:#A80036;stroke-width:1.0;" width="10" x="1299" y="383.3594"/><rect fill="#FFFFFF" filter="url(#f51hhf4raof9a)" height="77.2656" style="stroke:#A80036;stroke-width:1.0;" width="10" x="1299" y="529.8906"/><line style="stroke:#A80036;stroke-width:1.0;stroke-dasharray:5.0,5.0;" x1="59" x2="59" y1="88.2969" y2="661.2891"/><line style="stroke:#A80036;stroke-width:1.0;stroke-dasharray:5.0,5.0;" x1="544.5" x2="544.5" y1="88.2969" y2="661.2891"/><line style="stroke:#A80036;stroke-width:1.0;stroke-dasharray:5.0,5.0;" x1="899.5" x2="899.5" y1="88.2969" y2="661.2891"/><line style="stroke:#A80036;stroke-width:1.0;stroke-dasharray:5.0,5.0;" x1="1088" x2="1088" y1="88.2969" y2="661.2891"/><line style="stroke:#A80036;stroke-width:1.0;stroke-dasharray:5.0,5.0;" x1="1304" x2="1304" y1="88.2969" y2="661.2891"/><text fill="#000000" font-family="sans-serif" font-size="14" lengthAdjust="spacing" textLength="102" x="5" y="84.9951">Administrador</text><ellipse cx="59" cy="15" fill="#FEFECE" filter="url(#f51hhf4raof9a)" rx="8" ry="8" style="stroke:#A80036;stroke-width:2.0;"/><path d="M59,23 L59,50 M46,31 L72,31 M59,50 L46,65 M59,50 L72,65 " fill="none" filter="url(#f51hhf4raof9a)" style="stroke:#A80036;stroke-width:2.0;"/><text fill="#000000" font-family="sans-serif" font-size="14" lengthAdjust="spacing" textLength="102" x="5" y="673.2842">Administrador</text><ellipse cx="59" cy="686.5859" fill="#FEFECE" filter="url(#f51hhf4raof9a)" rx="8" ry="8" style="stroke:#A80036;stroke-width:2.0;"/><path d="M59,694.5859 L59,721.5859 M46,702.5859 L72,702.5859 M59,721.5859 L46,736.5859 M59,721.5859 L72,736.5859 " fill="none" filter="url(#f51hhf4raof9a)" style="stroke:#A80036;stroke-width:2.0;"/><rect fill="#FEFECE" filter="url(#f51hhf4raof9a)" height="30.2969" style="stroke:#A80036;stroke-width:1.5;" width="167" x="459.5" y="53"/><text fill="#000000" font-family="sans-serif" font-size="14" lengthAdjust="spacing" textLength="153" x="466.5" y="72.9951">:PedirItemFarmaciaUI</text><rect fill="#FEFECE" filter="url(#f51hhf4raof9a)" height="30.2969" style="stroke:#A80036;stroke-width:1.5;" width="167" x="459.5" y="660.2891"/><text fill="#000000" font-family="sans-serif" font-size="14" lengthAdjust="spacing" textLength="153" x="466.5" y="680.2842">:PedirItemFarmaciaUI</text><rect fill="#FEFECE" filter="url(#f51hhf4raof9a)" height="30.2969" style="stroke:#A80036;stroke-width:1.5;" width="227" x="784.5" y="53"/><text fill="#000000" font-family="sans-serif" font-size="14" lengthAdjust="spacing" textLength="213" x="791.5" y="72.9951">:PedirItemFarmaciaController</text><rect fill="#FEFECE" filter="url(#f51hhf4raof9a)" height="30.2969" style="stroke:#A80036;stroke-width:1.5;" width="227" x="784.5" y="660.2891"/><text fill="#000000" font-family="sans-serif" font-size="14" lengthAdjust="spacing" textLength="213" x="791.5" y="680.2842">:PedirItemFarmaciaController</text><rect fill="#FEFECE" filter="url(#f51hhf4raof9a)" height="30.2969" style="stroke:#A80036;stroke-width:1.5;" width="104" x="1034" y="53"/><text fill="#000000" font-family="sans-serif" font-size="14" lengthAdjust="spacing" textLength="90" x="1041" y="72.9951">:ProdutosDB</text><rect fill="#FEFECE" filter="url(#f51hhf4raof9a)" height="30.2969" style="stroke:#A80036;stroke-width:1.5;" width="104" x="1034" y="660.2891"/><text fill="#000000" font-family="sans-serif" font-size="14" lengthAdjust="spacing" textLength="90" x="1041" y="680.2842">:ProdutosDB</text><rect fill="#FEFECE" filter="url(#f51hhf4raof9a)" height="30.2969" style="stroke:#A80036;stroke-width:1.5;" width="104" x="1250" y="53"/><text fill="#000000" font-family="sans-serif" font-size="14" lengthAdjust="spacing" textLength="90" x="1257" y="72.9951">:FarmaciaDB</text><rect fill="#FEFECE" filter="url(#f51hhf4raof9a)" height="30.2969" style="stroke:#A80036;stroke-width:1.5;" width="104" x="1250" y="660.2891"/><text fill="#000000" font-family="sans-serif" font-size="14" lengthAdjust="spacing" textLength="90" x="1257" y="680.2842">:FarmaciaDB</text><rect fill="#FFFFFF" filter="url(#f51hhf4raof9a)" height="544.9922" style="stroke:#A80036;stroke-width:1.0;" width="10" x="54" y="98.2969"/><rect fill="#FFFFFF" filter="url(#f51hhf4raof9a)" height="117.3984" style="stroke:#A80036;stroke-width:1.0;" width="10" x="540" y="119.4297"/><rect fill="#FFFFFF" filter="url(#f51hhf4raof9a)" height="176.5313" style="stroke:#A80036;stroke-width:1.0;" width="10" x="540" y="265.9609"/><rect fill="#FFFFFF" filter="url(#f51hhf4raof9a)" height="180.6641" style="stroke:#A80036;stroke-width:1.0;" width="10" x="540" y="471.625"/><rect fill="#FFFFFF" filter="url(#f51hhf4raof9a)" height="59.1328" style="stroke:#A80036;stroke-width:1.0;" width="10" x="895" y="148.5625"/><rect fill="#FFFFFF" filter="url(#f51hhf4raof9a)" height="118.2656" style="stroke:#A80036;stroke-width:1.0;" width="10" x="895" y="295.0938"/><rect fill="#FFFFFF" filter="url(#f51hhf4raof9a)" height="106.3984" style="stroke:#A80036;stroke-width:1.0;" width="10" x="895" y="500.7578"/><rect fill="#FFFFFF" filter="url(#f51hhf4raof9a)" height="30" style="stroke:#A80036;stroke-width:1.0;" width="10" x="1083" y="177.6953"/><rect fill="#FFFFFF" filter="url(#f51hhf4raof9a)" height="30" style="stroke:#A80036;stroke-width:1.0;" width="10" x="1299" y="324.2266"/><rect fill="#FFFFFF" filter="url(#f51hhf4raof9a)" height="30" style="stroke:#A80036;stroke-width:1.0;" width="10" x="1299" y="383.3594"/><rect fill="#FFFFFF" filter="url(#f51hhf4raof9a)" height="77.2656" style="stroke:#A80036;stroke-width:1.0;" width="10" x="1299" y="529.8906"/><polygon fill="#A80036" points="528,115.4297,538,119.4297,528,123.4297,532,119.4297" style="stroke:#A80036;stroke-width:1.0;"/><line style="stroke:#A80036;stroke-width:1.0;" x1="64" x2="534" y1="119.4297" y2="119.4297"/><text fill="#000000" font-family="sans-serif" font-size="13" font-weight="bold" lengthAdjust="spacing" textLength="9" x="71" y="114.3638">1</text><text fill="#000000" font-family="sans-serif" font-size="13" lengthAdjust="spacing" textLength="153" x="84" y="114.3638">novo pedido de produto</text><polygon fill="#A80036" points="883,144.5625,893,148.5625,883,152.5625,887,148.5625" style="stroke:#A80036;stroke-width:1.0;"/><line style="stroke:#A80036;stroke-width:1.0;" x1="550" x2="889" y1="148.5625" y2="148.5625"/><text fill="#000000" font-family="sans-serif" font-size="13" font-weight="bold" lengthAdjust="spacing" textLength="9" x="557" y="143.4966">2</text><text fill="#000000" font-family="sans-serif" font-size="13" lengthAdjust="spacing" textLength="118" x="570" y="143.4966">getListaProdutos()</text><polygon fill="#A80036" points="1071,173.6953,1081,177.6953,1071,181.6953,1075,177.6953" style="stroke:#A80036;stroke-width:1.0;"/><line style="stroke:#A80036;stroke-width:1.0;" x1="905" x2="1077" y1="177.6953" y2="177.6953"/><text fill="#000000" font-family="sans-serif" font-size="13" font-weight="bold" lengthAdjust="spacing" textLength="8" x="912" y="172.6294">3</text><text fill="#000000" font-family="sans-serif" font-size="13" lengthAdjust="spacing" textLength="147" x="924" y="172.6294">lp = getListaProdutos()</text><polygon fill="#A80036" points="75,232.8281,65,236.8281,75,240.8281,71,236.8281" style="stroke:#A80036;stroke-width:1.0;"/><line style="stroke:#A80036;stroke-width:1.0;stroke-dasharray:2.0,2.0;" x1="69" x2="544" y1="236.8281" y2="236.8281"/><text fill="#000000" font-family="sans-serif" font-size="13" font-weight="bold" lengthAdjust="spacing" textLength="9" x="81" y="231.7622">4</text><text fill="#000000" font-family="sans-serif" font-size="13" lengthAdjust="spacing" textLength="413" x="94" y="231.7622">solicita dados do item (designacao,peso,preco base,quantidade)</text><polygon fill="#A80036" points="528,261.9609,538,265.9609,528,269.9609,532,265.9609" style="stroke:#A80036;stroke-width:1.0;"/><line style="stroke:#A80036;stroke-width:1.0;" x1="64" x2="534" y1="265.9609" y2="265.9609"/><text fill="#000000" font-family="sans-serif" font-size="13" font-weight="bold" lengthAdjust="spacing" textLength="9" x="71" y="260.895">5</text><text fill="#000000" font-family="sans-serif" font-size="13" lengthAdjust="spacing" textLength="185" x="84" y="260.895">introduz os dados solicitados</text><polygon fill="#A80036" points="883,291.0938,893,295.0938,883,299.0938,887,295.0938" style="stroke:#A80036;stroke-width:1.0;"/><line style="stroke:#A80036;stroke-width:1.0;" x1="550" x2="889" y1="295.0938" y2="295.0938"/><text fill="#000000" font-family="sans-serif" font-size="13" font-weight="bold" lengthAdjust="spacing" textLength="9" x="557" y="290.0278">6</text><text fill="#000000" font-family="sans-serif" font-size="13" lengthAdjust="spacing" textLength="313" x="570" y="290.0278">getFarmacia(desig,peso,preco_base,quantidade)</text><polygon fill="#A80036" points="1287,320.2266,1297,324.2266,1287,328.2266,1291,324.2266" style="stroke:#A80036;stroke-width:1.0;"/><line style="stroke:#A80036;stroke-width:1.0;" x1="905" x2="1293" y1="324.2266" y2="324.2266"/><text fill="#000000" font-family="sans-serif" font-size="13" font-weight="bold" lengthAdjust="spacing" textLength="9" x="912" y="319.1606">7</text><text fill="#000000" font-family="sans-serif" font-size="13" lengthAdjust="spacing" textLength="362" x="925" y="319.1606">farm = getFarmacia(desig,peso,preco_base,quantidade)</text><polygon fill="#A80036" points="1287,379.3594,1297,383.3594,1287,387.3594,1291,383.3594" style="stroke:#A80036;stroke-width:1.0;"/><line style="stroke:#A80036;stroke-width:1.0;" x1="905" x2="1293" y1="383.3594" y2="383.3594"/><text fill="#000000" font-family="sans-serif" font-size="13" font-weight="bold" lengthAdjust="spacing" textLength="9" x="912" y="378.2935">8</text><text fill="#000000" font-family="sans-serif" font-size="13" lengthAdjust="spacing" textLength="138" x="925" y="378.2935">validaFarmacia(farm)</text><polygon fill="#A80036" points="75,438.4922,65,442.4922,75,446.4922,71,442.4922" style="stroke:#A80036;stroke-width:1.0;"/><line style="stroke:#A80036;stroke-width:1.0;stroke-dasharray:2.0,2.0;" x1="69" x2="544" y1="442.4922" y2="442.4922"/><text fill="#000000" font-family="sans-serif" font-size="13" font-weight="bold" lengthAdjust="spacing" textLength="9" x="81" y="437.4263">9</text><text fill="#000000" font-family="sans-serif" font-size="13" lengthAdjust="spacing" textLength="439" x="94" y="437.4263">apresenta farmácia mais próxima com o item e solitica confirmação</text><polygon fill="#A80036" points="528,467.625,538,471.625,528,475.625,532,471.625" style="stroke:#A80036;stroke-width:1.0;"/><line style="stroke:#A80036;stroke-width:1.0;" x1="64" x2="534" y1="471.625" y2="471.625"/><text fill="#000000" font-family="sans-serif" font-size="13" font-weight="bold" lengthAdjust="spacing" textLength="19" x="71" y="466.5591">10</text><text fill="#000000" font-family="sans-serif" font-size="13" lengthAdjust="spacing" textLength="57" x="94" y="466.5591">confirma</text><polygon fill="#A80036" points="883,496.7578,893,500.7578,883,504.7578,887,500.7578" style="stroke:#A80036;stroke-width:1.0;"/><line style="stroke:#A80036;stroke-width:1.0;" x1="550" x2="889" y1="500.7578" y2="500.7578"/><text fill="#000000" font-family="sans-serif" font-size="13" font-weight="bold" lengthAdjust="spacing" textLength="18" x="557" y="495.6919">11</text><text fill="#000000" font-family="sans-serif" font-size="13" lengthAdjust="spacing" textLength="126" x="579" y="495.6919">realizaPedido(farm)</text><polygon fill="#A80036" points="1287,525.8906,1297,529.8906,1287,533.8906,1291,529.8906" style="stroke:#A80036;stroke-width:1.0;"/><line style="stroke:#A80036;stroke-width:1.0;" x1="905" x2="1293" y1="529.8906" y2="529.8906"/><text fill="#000000" font-family="sans-serif" font-size="13" font-weight="bold" lengthAdjust="spacing" textLength="18" x="912" y="524.8247">12</text><text fill="#000000" font-family="sans-serif" font-size="13" lengthAdjust="spacing" textLength="126" x="934" y="524.8247">realizaPedido(farm)</text><line style="stroke:#A80036;stroke-width:1.0;" x1="1309" x2="1351" y1="559.0234" y2="559.0234"/><line style="stroke:#A80036;stroke-width:1.0;" x1="1351" x2="1351" y1="559.0234" y2="572.0234"/><line style="stroke:#A80036;stroke-width:1.0;" x1="1310" x2="1351" y1="572.0234" y2="572.0234"/><polygon fill="#A80036" points="1320,568.0234,1310,572.0234,1320,576.0234,1316,572.0234" style="stroke:#A80036;stroke-width:1.0;"/><text fill="#000000" font-family="sans-serif" font-size="13" font-weight="bold" lengthAdjust="spacing" textLength="17" x="1316" y="553.9575">13</text><text fill="#000000" font-family="sans-serif" font-size="13" lengthAdjust="spacing" textLength="122" x="1337" y="553.9575">validaPedido(farm)</text><line style="stroke:#A80036;stroke-width:1.0;" x1="1309" x2="1351" y1="606.1563" y2="606.1563"/><line style="stroke:#A80036;stroke-width:1.0;" x1="1351" x2="1351" y1="606.1563" y2="619.1563"/><line style="stroke:#A80036;stroke-width:1.0;" x1="1304" x2="1351" y1="619.1563" y2="619.1563"/><polygon fill="#A80036" points="1314,615.1563,1304,619.1563,1314,623.1563,1310,619.1563" style="stroke:#A80036;stroke-width:1.0;"/><text fill="#000000" font-family="sans-serif" font-size="13" font-weight="bold" lengthAdjust="spacing" textLength="18" x="1316" y="601.0903">14</text><text fill="#000000" font-family="sans-serif" font-size="13" lengthAdjust="spacing" textLength="119" x="1338" y="601.0903">enviaPedido(farm)</text><polygon fill="#A80036" points="70,639.2891,60,643.2891,70,647.2891,66,643.2891" style="stroke:#A80036;stroke-width:1.0;"/><line style="stroke:#A80036;stroke-width:1.0;stroke-dasharray:2.0,2.0;" x1="64" x2="539" y1="643.2891" y2="643.2891"/><text fill="#000000" font-family="sans-serif" font-size="13" font-weight="bold" lengthAdjust="spacing" textLength="18" x="76" y="638.2231">15</text><text fill="#000000" font-family="sans-serif" font-size="13" lengthAdjust="spacing" textLength="190" x="98" y="638.2231">informa sucesso da operação</text><!--MD5=[4943a8ac74e16ef3055a1ee5f10609db]
@startuml
autonumber

actor "Administrador" as ADM
participant ":PedirItemFarmaciaUI" as UI
participant ":PedirItemFarmaciaController" as CTL
participant ":ProdutosDB" as PDB
participant ":FarmaciaDB" as FDB

activate ADM
ADM -> UI : novo pedido de produto
activate UI
UI -> CTL : getListaProdutos()
activate CTL

CTL -> PDB : lp = getListaProdutos()
activate PDB
deactivate PDB

deactivate CTL

UI - -> ADM : solicita dados do item (designacao,peso,preco base,quantidade)
deactivate UI

ADM -> UI : introduz os dados solicitados
activate UI
UI -> CTL : getFarmacia(desig,peso,preco_base,quantidade)
activate CTL

CTL -> FDB: farm = getFarmacia(desig,peso,preco_base,quantidade)
activate FDB

deactivate FDB

CTL -> FDB : validaFarmacia(farm)
activate FDB
deactivate FDB

deactivate CTL

UI - -> ADM : apresenta farmácia mais próxima com o item e solitica confirmação
deactivate UI
ADM -> UI : confirma
activate UI
UI -> CTL : realizaPedido(farm)

activate CTL
CTL -> FDB :realizaPedido(farm)

activate FDB
FDB -> FDB : validaPedido(farm)

FDB -> FDB : enviaPedido(farm)
deactivate FDB
deactivate CTL
UI - -> ADM: informa sucesso da operação

deactivate ADM
@enduml

PlantUML version 1.2020.27beta8(Unknown compile time)
(GPL source distribution)
Java Runtime: Java(TM) SE Runtime Environment
JVM: Java HotSpot(TM) 64-Bit Server VM
Default Encoding: UTF-8
Language: en
Country: US
--></g></svg>