<?xml version="1.0" encoding="UTF-8" standalone="no"?><svg xmlns="http://www.w3.org/2000/svg" xmlns:xlink="http://www.w3.org/1999/xlink" contentScriptType="application/ecmascript" contentStyleType="text/css" height="324px" preserveAspectRatio="none" style="width:487px;height:324px;" version="1.1" viewBox="0 0 487 324" width="487px" zoomAndPan="magnify"><defs><filter height="300%" id="f1v60w9g927739" width="300%" x="-1" y="-1"><feGaussianBlur result="blurOut" stdDeviation="2.0"/><feColorMatrix in="blurOut" result="blurOut2" type="matrix" values="0 0 0 0 0 0 0 0 0 0 0 0 0 0 0 0 0 0 .4 0"/><feOffset dx="4.0" dy="4.0" in="blurOut2" result="blurOut3"/><feBlend in="SourceGraphic" in2="blurOut3" mode="normal"/></filter></defs><g><rect fill="#FFFFFF" filter="url(#f1v60w9g927739)" height="123.6641" style="stroke:#A80036;stroke-width:1.0;" width="10" x="35" y="98.2969"/><rect fill="#FFFFFF" filter="url(#f1v60w9g927739)" height="44.2656" style="stroke:#A80036;stroke-width:1.0;" width="10" x="432" y="119.4297"/><rect fill="#FFFFFF" filter="url(#f1v60w9g927739)" height="29.1328" style="stroke:#A80036;stroke-width:1.0;" width="10" x="432" y="192.8281"/><line style="stroke:#A80036;stroke-width:1.0;stroke-dasharray:5.0,5.0;" x1="40" x2="40" y1="88.2969" y2="239.9609"/><line style="stroke:#A80036;stroke-width:1.0;stroke-dasharray:5.0,5.0;" x1="436.5" x2="436.5" y1="88.2969" y2="239.9609"/><text fill="#000000" font-family="sans-serif" font-size="14" lengthAdjust="spacing" textLength="64" x="5" y="84.9951">Farmácia</text><ellipse cx="40" cy="15" fill="#FEFECE" filter="url(#f1v60w9g927739)" rx="8" ry="8" style="stroke:#A80036;stroke-width:2.0;"/><path d="M40,23 L40,50 M27,31 L53,31 M40,50 L27,65 M40,50 L53,65 " fill="none" filter="url(#f1v60w9g927739)" style="stroke:#A80036;stroke-width:2.0;"/><text fill="#000000" font-family="sans-serif" font-size="14" lengthAdjust="spacing" textLength="64" x="5" y="251.9561">Farmácia</text><ellipse cx="40" cy="265.2578" fill="#FEFECE" filter="url(#f1v60w9g927739)" rx="8" ry="8" style="stroke:#A80036;stroke-width:2.0;"/><path d="M40,273.2578 L40,300.2578 M27,281.2578 L53,281.2578 M40,300.2578 L27,315.2578 M40,300.2578 L53,315.2578 " fill="none" filter="url(#f1v60w9g927739)" style="stroke:#A80036;stroke-width:2.0;"/><rect fill="#FEFECE" filter="url(#f1v60w9g927739)" height="30.2969" style="stroke:#A80036;stroke-width:1.5;" width="77" x="396.5" y="53"/><text fill="#000000" font-family="sans-serif" font-size="14" lengthAdjust="spacing" textLength="63" x="403.5" y="72.9951">:Sistema</text><rect fill="#FEFECE" filter="url(#f1v60w9g927739)" height="30.2969" style="stroke:#A80036;stroke-width:1.5;" width="77" x="396.5" y="238.9609"/><text fill="#000000" font-family="sans-serif" font-size="14" lengthAdjust="spacing" textLength="63" x="403.5" y="258.9561">:Sistema</text><rect fill="#FFFFFF" filter="url(#f1v60w9g927739)" height="123.6641" style="stroke:#A80036;stroke-width:1.0;" width="10" x="35" y="98.2969"/><rect fill="#FFFFFF" filter="url(#f1v60w9g927739)" height="44.2656" style="stroke:#A80036;stroke-width:1.0;" width="10" x="432" y="119.4297"/><rect fill="#FFFFFF" filter="url(#f1v60w9g927739)" height="29.1328" style="stroke:#A80036;stroke-width:1.0;" width="10" x="432" y="192.8281"/><polygon fill="#A80036" points="420,115.4297,430,119.4297,420,123.4297,424,119.4297" style="stroke:#A80036;stroke-width:1.0;"/><line style="stroke:#A80036;stroke-width:1.0;" x1="45" x2="426" y1="119.4297" y2="119.4297"/><text fill="#000000" font-family="sans-serif" font-size="13" font-weight="bold" lengthAdjust="spacing" textLength="9" x="52" y="114.3638">1</text><text fill="#000000" font-family="sans-serif" font-size="13" lengthAdjust="spacing" textLength="238" x="65" y="114.3638">Pretende pedir item a outra farmácia</text><polygon fill="#A80036" points="56,159.6953,46,163.6953,56,167.6953,52,163.6953" style="stroke:#A80036;stroke-width:1.0;"/><line style="stroke:#A80036;stroke-width:1.0;stroke-dasharray:2.0,2.0;" x1="50" x2="436" y1="163.6953" y2="163.6953"/><text fill="#000000" font-family="sans-serif" font-size="13" font-weight="bold" lengthAdjust="spacing" textLength="9" x="62" y="151.063">2</text><text fill="#000000" font-family="sans-serif" font-size="13" lengthAdjust="spacing" textLength="350" x="75" y="143.4966">mostra a farmácia mais próxima com o item desejado</text><text fill="#000000" font-family="sans-serif" font-size="13" lengthAdjust="spacing" textLength="271" x="79" y="158.6294">e pede confirmação para realizar o pedido</text><polygon fill="#A80036" points="420,188.8281,430,192.8281,420,196.8281,424,192.8281" style="stroke:#A80036;stroke-width:1.0;"/><line style="stroke:#A80036;stroke-width:1.0;" x1="45" x2="426" y1="192.8281" y2="192.8281"/><text fill="#000000" font-family="sans-serif" font-size="13" font-weight="bold" lengthAdjust="spacing" textLength="8" x="52" y="187.7622">3</text><text fill="#000000" font-family="sans-serif" font-size="13" lengthAdjust="spacing" textLength="57" x="64" y="187.7622">confirma</text><polygon fill="#A80036" points="51,217.9609,41,221.9609,51,225.9609,47,221.9609" style="stroke:#A80036;stroke-width:1.0;"/><line style="stroke:#A80036;stroke-width:1.0;stroke-dasharray:2.0,2.0;" x1="45" x2="436" y1="221.9609" y2="221.9609"/><text fill="#000000" font-family="sans-serif" font-size="13" font-weight="bold" lengthAdjust="spacing" textLength="9" x="57" y="216.895">4</text><text fill="#000000" font-family="sans-serif" font-size="13" lengthAdjust="spacing" textLength="154" x="70" y="216.895">operação bem sucedida</text><!--MD5=[b502f2f704e4d70d84869e09883670e5]
@startuml
autonumber
actor "Farmácia" as FARM

activate FARM
FARM -> ":Sistema" : Pretende pedir item a outra farmácia
activate ":Sistema"

":Sistema" - -> FARM : mostra a farmácia mais próxima com o item desejado\n e pede confirmação para realizar o pedido
deactivate ":Sistema"

FARM -> ":Sistema" : confirma
activate ":Sistema"
":Sistema" - -> FARM : operação bem sucedida
deactivate ":Sistema"

deactivate FARM
@enduml

PlantUML version 1.2021.01beta3(Unknown compile time)
(GPL source distribution)
Java Runtime: Java(TM) SE Runtime Environment
JVM: Java HotSpot(TM) 64-Bit Server VM
Default Encoding: UTF-8
Language: en
Country: US
--></g></svg>