<?xml version="1.0" encoding="UTF-8" standalone="no"?><svg xmlns="http://www.w3.org/2000/svg" xmlns:xlink="http://www.w3.org/1999/xlink" contentScriptType="application/ecmascript" contentStyleType="text/css" height="154px" preserveAspectRatio="none" style="width:316px;height:154px;" version="1.1" viewBox="0 0 316 154" width="316px" zoomAndPan="magnify"><defs><filter height="300%" id="fp4rls2qs3efz" width="300%" x="-1" y="-1"><feGaussianBlur result="blurOut" stdDeviation="2.0"/><feColorMatrix in="blurOut" result="blurOut2" type="matrix" values="0 0 0 0 0 0 0 0 0 0 0 0 0 0 0 0 0 0 .4 0"/><feOffset dx="4.0" dy="4.0" in="blurOut2" result="blurOut3"/><feBlend in="SourceGraphic" in2="blurOut3" mode="normal"/></filter></defs><g><!--MD5=[d4dacc50d49878ba7c621dfc80a2e1ce]
class Produto--><rect codeLine="5" fill="#FEFECE" filter="url(#fp4rls2qs3efz)" height="91.2188" id="Produto" style="stroke:#A80036;stroke-width:1.5;" width="81" x="221.3507" y="49"/><ellipse cx="237.7007" cy="65" fill="#ADD1B2" rx="11" ry="11" style="stroke:#A80036;stroke-width:1.0;"/><path d="M240.0445,60.6719 C239.107,60.2344 238.5132,60.0938 237.6382,60.0938 C235.0132,60.0938 233.0132,62.1719 233.0132,64.8906 L233.0132,66.0156 C233.0132,68.5938 235.1226,70.4844 238.0132,70.4844 C239.232,70.4844 240.3882,70.1875 241.1382,69.6406 C241.7163,69.2344 242.0445,68.7813 242.0445,68.3906 C242.0445,67.9375 241.6538,67.5469 241.1851,67.5469 C240.9663,67.5469 240.7632,67.625 240.5757,67.8125 C240.1226,68.2969 240.1226,68.2969 239.9351,68.3906 C239.5132,68.6563 238.8257,68.7813 238.0601,68.7813 C236.0132,68.7813 234.7163,67.6875 234.7163,65.9844 L234.7163,64.8906 C234.7163,63.1094 235.9663,61.7969 237.7007,61.7969 C238.2788,61.7969 238.8882,61.9531 239.357,62.2031 C239.8413,62.4844 240.0132,62.7031 240.107,63.1094 C240.1695,63.5156 240.2007,63.6406 240.3413,63.7656 C240.482,63.9063 240.7163,64.0156 240.9351,64.0156 C241.2007,64.0156 241.4663,63.875 241.6382,63.6563 C241.7476,63.5 241.7788,63.3125 241.7788,62.8906 L241.7788,61.4688 C241.7788,61.0313 241.7632,60.9063 241.6695,60.75 C241.5132,60.4844 241.232,60.3438 240.9351,60.3438 C240.6382,60.3438 240.4351,60.4375 240.2163,60.75 L240.0445,60.6719 Z " fill="#000000"/><text fill="#000000" font-family="sans-serif" font-size="12" lengthAdjust="spacing" textLength="46" x="252.0007" y="69.1543">Produto</text><line style="stroke:#A80036;stroke-width:1.5;" x1="222.3507" x2="301.3507" y1="81" y2="81"/><text fill="#000000" font-family="sans-serif" font-size="11" lengthAdjust="spacing" textLength="56" x="227.3507" y="95.2104">-idProduto</text><text fill="#000000" font-family="sans-serif" font-size="11" lengthAdjust="spacing" textLength="69" x="227.3507" y="108.0151">-designacao</text><text fill="#000000" font-family="sans-serif" font-size="11" lengthAdjust="spacing" textLength="32" x="227.3507" y="120.8198">-peso</text><text fill="#000000" font-family="sans-serif" font-size="11" lengthAdjust="spacing" textLength="65" x="227.3507" y="133.6245">-precoBase</text><!--MD5=[6613c9cd406ef433ff06f5e98b28abd9]
class Farmacia--><rect codeLine="12" fill="#FEFECE" filter="url(#fp4rls2qs3efz)" height="52.8047" id="Farmacia" style="stroke:#A80036;stroke-width:1.5;" width="86" x="34.3507" y="68"/><ellipse cx="49.3507" cy="84" fill="#ADD1B2" rx="11" ry="11" style="stroke:#A80036;stroke-width:1.0;"/><path d="M51.6945,79.6719 C50.757,79.2344 50.1632,79.0938 49.2882,79.0938 C46.6632,79.0938 44.6632,81.1719 44.6632,83.8906 L44.6632,85.0156 C44.6632,87.5938 46.7726,89.4844 49.6632,89.4844 C50.882,89.4844 52.0382,89.1875 52.7882,88.6406 C53.3663,88.2344 53.6945,87.7813 53.6945,87.3906 C53.6945,86.9375 53.3038,86.5469 52.8351,86.5469 C52.6163,86.5469 52.4132,86.625 52.2257,86.8125 C51.7726,87.2969 51.7726,87.2969 51.5851,87.3906 C51.1632,87.6563 50.4757,87.7813 49.7101,87.7813 C47.6632,87.7813 46.3663,86.6875 46.3663,84.9844 L46.3663,83.8906 C46.3663,82.1094 47.6163,80.7969 49.3507,80.7969 C49.9288,80.7969 50.5382,80.9531 51.007,81.2031 C51.4913,81.4844 51.6632,81.7031 51.757,82.1094 C51.8195,82.5156 51.8507,82.6406 51.9913,82.7656 C52.132,82.9063 52.3663,83.0156 52.5851,83.0156 C52.8507,83.0156 53.1163,82.875 53.2882,82.6563 C53.3976,82.5 53.4288,82.3125 53.4288,81.8906 L53.4288,80.4688 C53.4288,80.0313 53.4132,79.9063 53.3195,79.75 C53.1632,79.4844 52.882,79.3438 52.5851,79.3438 C52.2882,79.3438 52.0851,79.4375 51.8663,79.75 L51.6945,79.6719 Z " fill="#000000"/><text fill="#000000" font-family="sans-serif" font-size="12" lengthAdjust="spacing" textLength="54" x="63.3507" y="88.1543">Farmacia</text><line style="stroke:#A80036;stroke-width:1.5;" x1="35.3507" x2="119.3507" y1="100" y2="100"/><text fill="#000000" font-family="sans-serif" font-size="11" lengthAdjust="spacing" textLength="21" x="40.3507" y="114.2104">-NIF</text><!--MD5=[b925eed8574a8ca4aaf557e1ca097bb2]
link Farmacia to Farmacia--><path codeLine="16" d="M61.621,67.95 C57.1934,50.2393 62.4366,33 77.3507,33 C92.2648,33 97.508,50.2393 93.0804,67.95 " fill="none" id="Farmacia-Farmacia" style="stroke:#A80036;stroke-width:1.0;"/><polygon fill="#000000" points="16,18.3537,24.0622,23.3986,25.4878,17.6963,16,18.3537" style="stroke:#000000;stroke-width:1.0;"/><text fill="#000000" font-family="sans-serif" font-size="13" lengthAdjust="spacing" textLength="98" x="34.8507" y="24.0669">pede produto a</text><text fill="#000000" font-family="sans-serif" font-size="13" lengthAdjust="spacing" textLength="8" x="48.8119" y="56.7572">1</text><text fill="#000000" font-family="sans-serif" font-size="13" lengthAdjust="spacing" textLength="7" x="89.0614" y="56.7572">*</text><!--MD5=[db4a5ac14aaeb2d946b80db0d46ff947]
link Farmacia to Produto--><path codeLine="17" d="M120.6787,94.5 C151.0047,94.5 191.5647,94.5 221.2507,94.5 " fill="none" id="Farmacia-Produto" style="stroke:#A80036;stroke-width:1.0;"/><polygon fill="#000000" points="160.3507,86.0664,151.3056,83.1275,151.3056,89.0053,160.3507,86.0664" style="stroke:#000000;stroke-width:1.0;"/><text fill="#000000" font-family="sans-serif" font-size="13" lengthAdjust="spacing" textLength="26" x="164.3507" y="90.5669">tem</text><text fill="#000000" font-family="sans-serif" font-size="13" lengthAdjust="spacing" textLength="8" x="128.2216" y="107.7884">1</text><text fill="#000000" font-family="sans-serif" font-size="13" lengthAdjust="spacing" textLength="7" x="206.3954" y="107.8952">*</text><!--MD5=[0689d0f071e4883b1fdef1d377021ada]
@startuml
skinparam classAttributeIconSize 0
hide methods
left to right direction

class Produto {
  -idProduto
  -designacao
  -peso
  -precoBase
}

class Farmacia {
  -NIF
}

Farmacia "1" - - "*" Farmacia: pede produto a >
Farmacia "1" - - "*" Produto: tem >
@enduml

PlantUML version 1.2020.27beta8(Unknown compile time)
(GPL source distribution)
Java Runtime: Java(TM) SE Runtime Environment
JVM: Java HotSpot(TM) 64-Bit Server VM
Default Encoding: UTF-8
Language: en
Country: US
--></g></svg>