<?xml version="1.0" encoding="UTF-8" standalone="no"?><svg xmlns="http://www.w3.org/2000/svg" xmlns:xlink="http://www.w3.org/1999/xlink" contentScriptType="application/ecmascript" contentStyleType="text/css" height="251px" preserveAspectRatio="none" style="width:662px;height:251px;" version="1.1" viewBox="0 0 662 251" width="662px" zoomAndPan="magnify"><defs><filter height="300%" id="f1ds3zfueko0dg" width="300%" x="-1" y="-1"><feGaussianBlur result="blurOut" stdDeviation="2.0"/><feColorMatrix in="blurOut" result="blurOut2" type="matrix" values="0 0 0 0 0 0 0 0 0 0 0 0 0 0 0 0 0 0 .4 0"/><feOffset dx="4.0" dy="4.0" in="blurOut2" result="blurOut3"/><feBlend in="SourceGraphic" in2="blurOut3" mode="normal"/></filter></defs><g><!--MD5=[d4dacc50d49878ba7c621dfc80a2e1ce]
class Produto--><rect codeLine="5" fill="#FEFECE" filter="url(#f1ds3zfueko0dg)" height="91.2188" id="Produto" style="stroke:#A80036;stroke-width:1.5;" width="81" x="530" y="7"/><ellipse cx="546.35" cy="23" fill="#ADD1B2" rx="11" ry="11" style="stroke:#A80036;stroke-width:1.0;"/><path d="M548.6938,18.6719 C547.7563,18.2344 547.1625,18.0938 546.2875,18.0938 C543.6625,18.0938 541.6625,20.1719 541.6625,22.8906 L541.6625,24.0156 C541.6625,26.5938 543.7719,28.4844 546.6625,28.4844 C547.8813,28.4844 549.0375,28.1875 549.7875,27.6406 C550.3656,27.2344 550.6938,26.7813 550.6938,26.3906 C550.6938,25.9375 550.3031,25.5469 549.8344,25.5469 C549.6156,25.5469 549.4125,25.625 549.225,25.8125 C548.7719,26.2969 548.7719,26.2969 548.5844,26.3906 C548.1625,26.6563 547.475,26.7813 546.7094,26.7813 C544.6625,26.7813 543.3656,25.6875 543.3656,23.9844 L543.3656,22.8906 C543.3656,21.1094 544.6156,19.7969 546.35,19.7969 C546.9281,19.7969 547.5375,19.9531 548.0063,20.2031 C548.4906,20.4844 548.6625,20.7031 548.7563,21.1094 C548.8188,21.5156 548.85,21.6406 548.9906,21.7656 C549.1313,21.9063 549.3656,22.0156 549.5844,22.0156 C549.85,22.0156 550.1156,21.875 550.2875,21.6563 C550.3969,21.5 550.4281,21.3125 550.4281,20.8906 L550.4281,19.4688 C550.4281,19.0313 550.4125,18.9063 550.3188,18.75 C550.1625,18.4844 549.8813,18.3438 549.5844,18.3438 C549.2875,18.3438 549.0844,18.4375 548.8656,18.75 L548.6938,18.6719 Z " fill="#000000"/><text fill="#000000" font-family="sans-serif" font-size="12" lengthAdjust="spacing" textLength="46" x="560.65" y="27.1543">Produto</text><line style="stroke:#A80036;stroke-width:1.5;" x1="531" x2="610" y1="39" y2="39"/><text fill="#000000" font-family="sans-serif" font-size="11" lengthAdjust="spacing" textLength="56" x="536" y="53.2104">-idProduto</text><text fill="#000000" font-family="sans-serif" font-size="11" lengthAdjust="spacing" textLength="69" x="536" y="66.0151">-designacao</text><text fill="#000000" font-family="sans-serif" font-size="11" lengthAdjust="spacing" textLength="32" x="536" y="78.8198">-peso</text><text fill="#000000" font-family="sans-serif" font-size="11" lengthAdjust="spacing" textLength="65" x="536" y="91.6245">-precoBase</text><!--MD5=[6613c9cd406ef433ff06f5e98b28abd9]
class Farmacia--><rect codeLine="12" fill="#FEFECE" filter="url(#f1ds3zfueko0dg)" height="65.6094" id="Farmacia" style="stroke:#A80036;stroke-width:1.5;" width="86" x="7" y="52.5"/><ellipse cx="22" cy="68.5" fill="#ADD1B2" rx="11" ry="11" style="stroke:#A80036;stroke-width:1.0;"/><path d="M24.3438,64.1719 C23.4063,63.7344 22.8125,63.5938 21.9375,63.5938 C19.3125,63.5938 17.3125,65.6719 17.3125,68.3906 L17.3125,69.5156 C17.3125,72.0938 19.4219,73.9844 22.3125,73.9844 C23.5313,73.9844 24.6875,73.6875 25.4375,73.1406 C26.0156,72.7344 26.3438,72.2813 26.3438,71.8906 C26.3438,71.4375 25.9531,71.0469 25.4844,71.0469 C25.2656,71.0469 25.0625,71.125 24.875,71.3125 C24.4219,71.7969 24.4219,71.7969 24.2344,71.8906 C23.8125,72.1563 23.125,72.2813 22.3594,72.2813 C20.3125,72.2813 19.0156,71.1875 19.0156,69.4844 L19.0156,68.3906 C19.0156,66.6094 20.2656,65.2969 22,65.2969 C22.5781,65.2969 23.1875,65.4531 23.6563,65.7031 C24.1406,65.9844 24.3125,66.2031 24.4063,66.6094 C24.4688,67.0156 24.5,67.1406 24.6406,67.2656 C24.7813,67.4063 25.0156,67.5156 25.2344,67.5156 C25.5,67.5156 25.7656,67.375 25.9375,67.1563 C26.0469,67 26.0781,66.8125 26.0781,66.3906 L26.0781,64.9688 C26.0781,64.5313 26.0625,64.4063 25.9688,64.25 C25.8125,63.9844 25.5313,63.8438 25.2344,63.8438 C24.9375,63.8438 24.7344,63.9375 24.5156,64.25 L24.3438,64.1719 Z " fill="#000000"/><text fill="#000000" font-family="sans-serif" font-size="12" lengthAdjust="spacing" textLength="54" x="36" y="72.6543">Farmacia</text><line style="stroke:#A80036;stroke-width:1.5;" x1="8" x2="92" y1="84.5" y2="84.5"/><text fill="#000000" font-family="sans-serif" font-size="11" lengthAdjust="spacing" textLength="21" x="13" y="98.7104">-NIF</text><text fill="#000000" font-family="sans-serif" font-size="11" lengthAdjust="spacing" textLength="36" x="13" y="111.5151">-email</text><!--MD5=[5dd1d6732c071e710b9290b531f2fa3b]
class Utilizador--><rect codeLine="17" fill="#FEFECE" filter="url(#f1ds3zfueko0dg)" height="104.0234" id="Utilizador" style="stroke:#A80036;stroke-width:1.5;" width="155" x="493" y="133.5"/><ellipse cx="537.75" cy="149.5" fill="#ADD1B2" rx="11" ry="11" style="stroke:#A80036;stroke-width:1.0;"/><path d="M540.0938,145.1719 C539.1563,144.7344 538.5625,144.5938 537.6875,144.5938 C535.0625,144.5938 533.0625,146.6719 533.0625,149.3906 L533.0625,150.5156 C533.0625,153.0938 535.1719,154.9844 538.0625,154.9844 C539.2813,154.9844 540.4375,154.6875 541.1875,154.1406 C541.7656,153.7344 542.0938,153.2813 542.0938,152.8906 C542.0938,152.4375 541.7031,152.0469 541.2344,152.0469 C541.0156,152.0469 540.8125,152.125 540.625,152.3125 C540.1719,152.7969 540.1719,152.7969 539.9844,152.8906 C539.5625,153.1563 538.875,153.2813 538.1094,153.2813 C536.0625,153.2813 534.7656,152.1875 534.7656,150.4844 L534.7656,149.3906 C534.7656,147.6094 536.0156,146.2969 537.75,146.2969 C538.3281,146.2969 538.9375,146.4531 539.4063,146.7031 C539.8906,146.9844 540.0625,147.2031 540.1563,147.6094 C540.2188,148.0156 540.25,148.1406 540.3906,148.2656 C540.5313,148.4063 540.7656,148.5156 540.9844,148.5156 C541.25,148.5156 541.5156,148.375 541.6875,148.1563 C541.7969,148 541.8281,147.8125 541.8281,147.3906 L541.8281,145.9688 C541.8281,145.5313 541.8125,145.4063 541.7188,145.25 C541.5625,144.9844 541.2813,144.8438 540.9844,144.8438 C540.6875,144.8438 540.4844,144.9375 540.2656,145.25 L540.0938,145.1719 Z " fill="#000000"/><text fill="#000000" font-family="sans-serif" font-size="12" lengthAdjust="spacing" textLength="57" x="558.25" y="153.6543">Utilizador</text><line style="stroke:#A80036;stroke-width:1.5;" x1="494" x2="647" y1="165.5" y2="165.5"/><text fill="#000000" font-family="sans-serif" font-size="11" lengthAdjust="spacing" textLength="21" x="499" y="179.7104">-NIF</text><text fill="#000000" font-family="sans-serif" font-size="11" lengthAdjust="spacing" textLength="37" x="499" y="192.5151">-nome</text><text fill="#000000" font-family="sans-serif" font-size="11" lengthAdjust="spacing" textLength="36" x="499" y="205.3198">-email</text><text fill="#000000" font-family="sans-serif" font-size="11" lengthAdjust="spacing" textLength="143" x="499" y="218.1245">-numeroSegurancaSocial</text><text fill="#000000" font-family="sans-serif" font-size="11" lengthAdjust="spacing" textLength="57" x="499" y="230.9292">-password</text><!--MD5=[fdcda49d453d44c676d62f3f6af62207]
class Administrador--><rect fill="#FEFECE" filter="url(#f1ds3zfueko0dg)" height="40" id="Administrador" style="stroke:#A80036;stroke-width:1.5;" width="116" x="194" y="122.5"/><ellipse cx="209" cy="138.5" fill="#ADD1B2" rx="11" ry="11" style="stroke:#A80036;stroke-width:1.0;"/><path d="M211.3438,134.1719 C210.4063,133.7344 209.8125,133.5938 208.9375,133.5938 C206.3125,133.5938 204.3125,135.6719 204.3125,138.3906 L204.3125,139.5156 C204.3125,142.0938 206.4219,143.9844 209.3125,143.9844 C210.5313,143.9844 211.6875,143.6875 212.4375,143.1406 C213.0156,142.7344 213.3438,142.2813 213.3438,141.8906 C213.3438,141.4375 212.9531,141.0469 212.4844,141.0469 C212.2656,141.0469 212.0625,141.125 211.875,141.3125 C211.4219,141.7969 211.4219,141.7969 211.2344,141.8906 C210.8125,142.1563 210.125,142.2813 209.3594,142.2813 C207.3125,142.2813 206.0156,141.1875 206.0156,139.4844 L206.0156,138.3906 C206.0156,136.6094 207.2656,135.2969 209,135.2969 C209.5781,135.2969 210.1875,135.4531 210.6563,135.7031 C211.1406,135.9844 211.3125,136.2031 211.4063,136.6094 C211.4688,137.0156 211.5,137.1406 211.6406,137.2656 C211.7813,137.4063 212.0156,137.5156 212.2344,137.5156 C212.5,137.5156 212.7656,137.375 212.9375,137.1563 C213.0469,137 213.0781,136.8125 213.0781,136.3906 L213.0781,134.9688 C213.0781,134.5313 213.0625,134.4063 212.9688,134.25 C212.8125,133.9844 212.5313,133.8438 212.2344,133.8438 C211.9375,133.8438 211.7344,133.9375 211.5156,134.25 L211.3438,134.1719 Z " fill="#000000"/><text fill="#000000" font-family="sans-serif" font-size="12" lengthAdjust="spacing" textLength="84" x="223" y="142.6543">Administrador</text><line style="stroke:#A80036;stroke-width:1.5;" x1="195" x2="309" y1="154.5" y2="154.5"/><!--MD5=[b4161b205744775e44f73e41ced309e0]
link Administrador to Utilizador--><path codeLine="25" d="M308.634,162.6366 C318.947,165.7288 329.713,168.5395 340,170.5 C390.401,180.1053 448.029,183.8472 492.929,185.1918 " fill="none" id="Administrador-Utilizador" style="stroke:#A80036;stroke-width:1.0;"/><polygon fill="#000000" points="369.463,162.6738,360.8419,158.6578,360.1279,164.4922,369.463,162.6738" style="stroke:#000000;stroke-width:1.0;"/><text fill="#000000" font-family="sans-serif" font-size="13" lengthAdjust="spacing" textLength="69" x="373.5" y="166.5669">atua como</text><text fill="#000000" font-family="sans-serif" font-size="13" lengthAdjust="spacing" textLength="8" x="315.4373" y="182.495">1</text><text fill="#000000" font-family="sans-serif" font-size="13" lengthAdjust="spacing" textLength="8" x="476.8994" y="197.972">1</text><!--MD5=[651704aa6f94d771ebfe007ead522536]
link Administrador to Produto--><path codeLine="26" d="M310.26,132.313 C352.86,124.102 412.17,111.333 463,95.5 C485.56,88.473 510.053,78.738 529.857,70.308 " fill="none" id="Administrador-Produto" style="stroke:#A80036;stroke-width:1.0;"/><polygon fill="#000000" points="349.8119,85.7077,340.3085,85.3373,341.9057,90.9939,349.8119,85.7077" style="stroke:#000000;stroke-width:1.0;"/><text fill="#000000" font-family="sans-serif" font-size="13" lengthAdjust="spacing" textLength="108" x="354" y="91.5669">atualiza no stock</text><text fill="#000000" font-family="sans-serif" font-size="13" lengthAdjust="spacing" textLength="8" x="317.8479" y="144.0605">1</text><text fill="#000000" font-family="sans-serif" font-size="13" lengthAdjust="spacing" textLength="7" x="514.994" y="86.8752">*</text><!--MD5=[db4a5ac14aaeb2d946b80db0d46ff947]
link Farmacia to Produto--><path codeLine="27" d="M93.431,82.799 C191.748,76.542 434.038,61.122 529.714,55.032 " fill="none" id="Farmacia-Produto" style="stroke:#A80036;stroke-width:1.0;"/><polygon fill="#000000" points="241.4899,61.7488,232.2764,59.3903,232.6498,65.2563,241.4899,61.7488" style="stroke:#000000;stroke-width:1.0;"/><text fill="#000000" font-family="sans-serif" font-size="13" lengthAdjust="spacing" textLength="26" x="245.5" y="66.5669">tem</text><text fill="#000000" font-family="sans-serif" font-size="13" lengthAdjust="spacing" textLength="8" x="100.9903" y="95.6724">1</text><text fill="#000000" font-family="sans-serif" font-size="13" lengthAdjust="spacing" textLength="7" x="515.1023" y="68.8158">*</text><!--MD5=[1eb578f81baca05fae5600e8efb79c07]
link Farmacia to Administrador--><path codeLine="28" d="M93.4149,97.588 C122.654,105.921 161.858,117.094 193.847,126.211 " fill="none" id="Farmacia-Administrador" style="stroke:#A80036;stroke-width:1.0;"/><polygon fill="#000000" points="132.8085,99.4368,124.9153,94.1313,123.3043,99.7841,132.8085,99.4368" style="stroke:#000000;stroke-width:1.0;"/><text fill="#000000" font-family="sans-serif" font-size="13" lengthAdjust="spacing" textLength="26" x="137" y="102.5669">tem</text><text fill="#000000" font-family="sans-serif" font-size="13" lengthAdjust="spacing" textLength="8" x="100.9716" y="112.8184">1</text><text fill="#000000" font-family="sans-serif" font-size="13" lengthAdjust="spacing" textLength="8" x="177.8836" y="137.1603">1</text><!--MD5=[db777bcfb5de00c3cf7cd19968c8c153]
@startuml
skinparam classAttributeIconSize 0
hide methods
left to right direction

class Produto {
  -idProduto
  -designacao
  -peso
  -precoBase
}

class Farmacia {
  -NIF
  -email
}

class Utilizador {
  -NIF
  -nome
  -email
  -numeroSegurancaSocial
  -password
}

Administrador "1" - - "1" Utilizador: atua como >
Administrador "1" - - "*" Produto: atualiza no stock >
Farmacia "1" - - "*" Produto: tem >
Farmacia "1" - - "1" Administrador: tem >
@enduml

PlantUML version 1.2021.01beta7(Unknown compile time)
(GPL source distribution)
Java Runtime: Java(TM) SE Runtime Environment
JVM: Java HotSpot(TM) 64-Bit Server VM
Default Encoding: UTF-8
Language: en
Country: US
--></g></svg>