<?xml version="1.0" encoding="UTF-8" standalone="no"?><svg xmlns="http://www.w3.org/2000/svg" xmlns:xlink="http://www.w3.org/1999/xlink" contentScriptType="application/ecmascript" contentStyleType="text/css" height="804px" preserveAspectRatio="none" style="width:1262px;height:804px;" version="1.1" viewBox="0 0 1262 804" width="1262px" zoomAndPan="magnify"><defs><filter height="300%" id="fwbfao8jwv6i8" width="300%" x="-1" y="-1"><feGaussianBlur result="blurOut" stdDeviation="2.0"/><feColorMatrix in="blurOut" result="blurOut2" type="matrix" values="0 0 0 0 0 0 0 0 0 0 0 0 0 0 0 0 0 0 .4 0"/><feOffset dx="4.0" dy="4.0" in="blurOut2" result="blurOut3"/><feBlend in="SourceGraphic" in2="blurOut3" mode="normal"/></filter></defs><g><rect fill="#FFFFFF" filter="url(#fwbfao8jwv6i8)" height="604.125" style="stroke:#A80036;stroke-width:1.0;" width="10" x="54" y="98.2969"/><rect fill="#FFFFFF" filter="url(#fwbfao8jwv6i8)" height="235.6641" style="stroke:#A80036;stroke-width:1.0;" width="10" x="416" y="119.4297"/><rect fill="#FFFFFF" filter="url(#fwbfao8jwv6i8)" height="117.3984" style="stroke:#A80036;stroke-width:1.0;" width="10" x="416" y="384.2266"/><rect fill="#FFFFFF" filter="url(#fwbfao8jwv6i8)" height="171.6641" style="stroke:#A80036;stroke-width:1.0;" width="10" x="416" y="530.7578"/><rect fill="#FFFFFF" filter="url(#fwbfao8jwv6i8)" height="177.3984" style="stroke:#A80036;stroke-width:1.0;" width="10" x="633" y="148.5625"/><rect fill="#FFFFFF" filter="url(#fwbfao8jwv6i8)" height="59.1328" style="stroke:#A80036;stroke-width:1.0;" width="10" x="633" y="413.3594"/><rect fill="#FFFFFF" filter="url(#fwbfao8jwv6i8)" height="106.3984" style="stroke:#A80036;stroke-width:1.0;" width="10" x="633" y="559.8906"/><rect fill="#FFFFFF" filter="url(#fwbfao8jwv6i8)" height="30" style="stroke:#A80036;stroke-width:1.0;" width="10" x="822" y="177.6953"/><rect fill="#FFFFFF" filter="url(#fwbfao8jwv6i8)" height="30" style="stroke:#A80036;stroke-width:1.0;" width="10" x="950.5" y="236.8281"/><rect fill="#FFFFFF" filter="url(#fwbfao8jwv6i8)" height="30" style="stroke:#A80036;stroke-width:1.0;" width="10" x="1072.5" y="295.9609"/><rect fill="#FFFFFF" filter="url(#fwbfao8jwv6i8)" height="30" style="stroke:#A80036;stroke-width:1.0;" width="10" x="1072.5" y="442.4922"/><rect fill="#FFFFFF" filter="url(#fwbfao8jwv6i8)" height="77.2656" style="stroke:#A80036;stroke-width:1.0;" width="10" x="1072.5" y="589.0234"/><line style="stroke:#A80036;stroke-width:1.0;stroke-dasharray:5.0,5.0;" x1="59" x2="59" y1="88.2969" y2="720.4219"/><line style="stroke:#A80036;stroke-width:1.0;stroke-dasharray:5.0,5.0;" x1="420.5" x2="420.5" y1="88.2969" y2="720.4219"/><line style="stroke:#A80036;stroke-width:1.0;stroke-dasharray:5.0,5.0;" x1="637.5" x2="637.5" y1="88.2969" y2="720.4219"/><line style="stroke:#A80036;stroke-width:1.0;stroke-dasharray:5.0,5.0;" x1="826.5" x2="826.5" y1="88.2969" y2="720.4219"/><line style="stroke:#A80036;stroke-width:1.0;stroke-dasharray:5.0,5.0;" x1="955.5" x2="955.5" y1="88.2969" y2="720.4219"/><line style="stroke:#A80036;stroke-width:1.0;stroke-dasharray:5.0,5.0;" x1="1077.5" x2="1077.5" y1="88.2969" y2="720.4219"/><text fill="#000000" font-family="sans-serif" font-size="14" lengthAdjust="spacing" textLength="102" x="5" y="84.9951">Administrador</text><ellipse cx="59" cy="15" fill="#FEFECE" filter="url(#fwbfao8jwv6i8)" rx="8" ry="8" style="stroke:#A80036;stroke-width:2.0;"/><path d="M59,23 L59,50 M46,31 L72,31 M59,50 L46,65 M59,50 L72,65 " fill="none" filter="url(#fwbfao8jwv6i8)" style="stroke:#A80036;stroke-width:2.0;"/><text fill="#000000" font-family="sans-serif" font-size="14" lengthAdjust="spacing" textLength="102" x="5" y="732.417">Administrador</text><ellipse cx="59" cy="745.7188" fill="#FEFECE" filter="url(#fwbfao8jwv6i8)" rx="8" ry="8" style="stroke:#A80036;stroke-width:2.0;"/><path d="M59,753.7188 L59,780.7188 M46,761.7188 L72,761.7188 M59,780.7188 L46,795.7188 M59,780.7188 L72,795.7188 " fill="none" filter="url(#fwbfao8jwv6i8)" style="stroke:#A80036;stroke-width:2.0;"/><rect fill="#FEFECE" filter="url(#fwbfao8jwv6i8)" height="30.2969" style="stroke:#A80036;stroke-width:1.5;" width="173" x="332.5" y="53"/><text fill="#000000" font-family="sans-serif" font-size="14" lengthAdjust="spacing" textLength="159" x="339.5" y="72.9951">:AtualizarItensStockUI</text><rect fill="#FEFECE" filter="url(#fwbfao8jwv6i8)" height="30.2969" style="stroke:#A80036;stroke-width:1.5;" width="173" x="332.5" y="719.4219"/><text fill="#000000" font-family="sans-serif" font-size="14" lengthAdjust="spacing" textLength="159" x="339.5" y="739.417">:AtualizarItensStockUI</text><rect fill="#FEFECE" filter="url(#fwbfao8jwv6i8)" height="30.2969" style="stroke:#A80036;stroke-width:1.5;" width="233" x="519.5" y="53"/><text fill="#000000" font-family="sans-serif" font-size="14" lengthAdjust="spacing" textLength="219" x="526.5" y="72.9951">:AtualizarItensStockController</text><rect fill="#FEFECE" filter="url(#fwbfao8jwv6i8)" height="30.2969" style="stroke:#A80036;stroke-width:1.5;" width="233" x="519.5" y="719.4219"/><text fill="#000000" font-family="sans-serif" font-size="14" lengthAdjust="spacing" textLength="219" x="526.5" y="739.417">:AtualizarItensStockController</text><rect fill="#FEFECE" filter="url(#fwbfao8jwv6i8)" height="30.2969" style="stroke:#A80036;stroke-width:1.5;" width="117" x="766.5" y="53"/><text fill="#000000" font-family="sans-serif" font-size="14" lengthAdjust="spacing" textLength="103" x="773.5" y="72.9951">:AplicacaoPOT</text><rect fill="#FEFECE" filter="url(#fwbfao8jwv6i8)" height="30.2969" style="stroke:#A80036;stroke-width:1.5;" width="117" x="766.5" y="719.4219"/><text fill="#000000" font-family="sans-serif" font-size="14" lengthAdjust="spacing" textLength="103" x="773.5" y="739.417">:AplicacaoPOT</text><rect fill="#FEFECE" filter="url(#fwbfao8jwv6i8)" height="46.5938" style="stroke:#A80036;stroke-width:1.5;" width="112" x="897.5" y="36.7031"/><text fill="#000000" font-family="sans-serif" font-size="14" lengthAdjust="spacing" textLength="33" x="937" y="56.6982">app:</text><text fill="#000000" font-family="sans-serif" font-size="14" lengthAdjust="spacing" textLength="98" x="904.5" y="72.9951">AplicacaoPOT</text><rect fill="#FEFECE" filter="url(#fwbfao8jwv6i8)" height="46.5938" style="stroke:#A80036;stroke-width:1.5;" width="112" x="897.5" y="719.4219"/><text fill="#000000" font-family="sans-serif" font-size="14" lengthAdjust="spacing" textLength="33" x="937" y="739.417">app:</text><text fill="#000000" font-family="sans-serif" font-size="14" lengthAdjust="spacing" textLength="98" x="904.5" y="755.7139">AplicacaoPOT</text><rect fill="#FEFECE" filter="url(#fwbfao8jwv6i8)" height="30.2969" style="stroke:#A80036;stroke-width:1.5;" width="104" x="1023.5" y="53"/><text fill="#000000" font-family="sans-serif" font-size="14" lengthAdjust="spacing" textLength="90" x="1030.5" y="72.9951">:ProdutosDB</text><rect fill="#FEFECE" filter="url(#fwbfao8jwv6i8)" height="30.2969" style="stroke:#A80036;stroke-width:1.5;" width="104" x="1023.5" y="719.4219"/><text fill="#000000" font-family="sans-serif" font-size="14" lengthAdjust="spacing" textLength="90" x="1030.5" y="739.417">:ProdutosDB</text><rect fill="#FFFFFF" filter="url(#fwbfao8jwv6i8)" height="604.125" style="stroke:#A80036;stroke-width:1.0;" width="10" x="54" y="98.2969"/><rect fill="#FFFFFF" filter="url(#fwbfao8jwv6i8)" height="235.6641" style="stroke:#A80036;stroke-width:1.0;" width="10" x="416" y="119.4297"/><rect fill="#FFFFFF" filter="url(#fwbfao8jwv6i8)" height="117.3984" style="stroke:#A80036;stroke-width:1.0;" width="10" x="416" y="384.2266"/><rect fill="#FFFFFF" filter="url(#fwbfao8jwv6i8)" height="171.6641" style="stroke:#A80036;stroke-width:1.0;" width="10" x="416" y="530.7578"/><rect fill="#FFFFFF" filter="url(#fwbfao8jwv6i8)" height="177.3984" style="stroke:#A80036;stroke-width:1.0;" width="10" x="633" y="148.5625"/><rect fill="#FFFFFF" filter="url(#fwbfao8jwv6i8)" height="59.1328" style="stroke:#A80036;stroke-width:1.0;" width="10" x="633" y="413.3594"/><rect fill="#FFFFFF" filter="url(#fwbfao8jwv6i8)" height="106.3984" style="stroke:#A80036;stroke-width:1.0;" width="10" x="633" y="559.8906"/><rect fill="#FFFFFF" filter="url(#fwbfao8jwv6i8)" height="30" style="stroke:#A80036;stroke-width:1.0;" width="10" x="822" y="177.6953"/><rect fill="#FFFFFF" filter="url(#fwbfao8jwv6i8)" height="30" style="stroke:#A80036;stroke-width:1.0;" width="10" x="950.5" y="236.8281"/><rect fill="#FFFFFF" filter="url(#fwbfao8jwv6i8)" height="30" style="stroke:#A80036;stroke-width:1.0;" width="10" x="1072.5" y="295.9609"/><rect fill="#FFFFFF" filter="url(#fwbfao8jwv6i8)" height="30" style="stroke:#A80036;stroke-width:1.0;" width="10" x="1072.5" y="442.4922"/><rect fill="#FFFFFF" filter="url(#fwbfao8jwv6i8)" height="77.2656" style="stroke:#A80036;stroke-width:1.0;" width="10" x="1072.5" y="589.0234"/><polygon fill="#A80036" points="404,115.4297,414,119.4297,404,123.4297,408,119.4297" style="stroke:#A80036;stroke-width:1.0;"/><line style="stroke:#A80036;stroke-width:1.0;" x1="64" x2="410" y1="119.4297" y2="119.4297"/><text fill="#000000" font-family="sans-serif" font-size="13" font-weight="bold" lengthAdjust="spacing" textLength="9" x="71" y="114.3638">1</text><text fill="#000000" font-family="sans-serif" font-size="13" lengthAdjust="spacing" textLength="162" x="84" y="114.3638">nova atualização de item</text><polygon fill="#A80036" points="621,144.5625,631,148.5625,621,152.5625,625,148.5625" style="stroke:#A80036;stroke-width:1.0;"/><line style="stroke:#A80036;stroke-width:1.0;" x1="426" x2="627" y1="148.5625" y2="148.5625"/><text fill="#000000" font-family="sans-serif" font-size="13" font-weight="bold" lengthAdjust="spacing" textLength="9" x="433" y="143.4966">2</text><text fill="#000000" font-family="sans-serif" font-size="13" lengthAdjust="spacing" textLength="118" x="446" y="143.4966">getListaProdutos()</text><polygon fill="#A80036" points="810,173.6953,820,177.6953,810,181.6953,814,177.6953" style="stroke:#A80036;stroke-width:1.0;"/><line style="stroke:#A80036;stroke-width:1.0;" x1="643" x2="816" y1="177.6953" y2="177.6953"/><text fill="#000000" font-family="sans-serif" font-size="13" font-weight="bold" lengthAdjust="spacing" textLength="8" x="650" y="172.6294">3</text><text fill="#000000" font-family="sans-serif" font-size="13" lengthAdjust="spacing" textLength="127" x="662" y="172.6294">app = getInstance()</text><polygon fill="#A80036" points="938.5,232.8281,948.5,236.8281,938.5,240.8281,942.5,236.8281" style="stroke:#A80036;stroke-width:1.0;"/><line style="stroke:#A80036;stroke-width:1.0;" x1="643" x2="944.5" y1="236.8281" y2="236.8281"/><text fill="#000000" font-family="sans-serif" font-size="13" font-weight="bold" lengthAdjust="spacing" textLength="9" x="650" y="231.7622">4</text><text fill="#000000" font-family="sans-serif" font-size="13" lengthAdjust="spacing" textLength="173" x="663" y="231.7622">sessao = getSessaoAtual()</text><polygon fill="#A80036" points="1060.5,291.9609,1070.5,295.9609,1060.5,299.9609,1064.5,295.9609" style="stroke:#A80036;stroke-width:1.0;"/><line style="stroke:#A80036;stroke-width:1.0;" x1="643" x2="1066.5" y1="295.9609" y2="295.9609"/><text fill="#000000" font-family="sans-serif" font-size="13" font-weight="bold" lengthAdjust="spacing" textLength="9" x="650" y="290.895">5</text><text fill="#000000" font-family="sans-serif" font-size="13" lengthAdjust="spacing" textLength="147" x="663" y="290.895">lp = getListaProdutos()</text><polygon fill="#A80036" points="75,351.0938,65,355.0938,75,359.0938,71,355.0938" style="stroke:#A80036;stroke-width:1.0;"/><line style="stroke:#A80036;stroke-width:1.0;stroke-dasharray:2.0,2.0;" x1="69" x2="420" y1="355.0938" y2="355.0938"/><text fill="#000000" font-family="sans-serif" font-size="13" font-weight="bold" lengthAdjust="spacing" textLength="9" x="81" y="350.0278">6</text><text fill="#000000" font-family="sans-serif" font-size="13" lengthAdjust="spacing" textLength="220" x="94" y="350.0278">apresenta a lista de itens no stock</text><polygon fill="#A80036" points="404,380.2266,414,384.2266,404,388.2266,408,384.2266" style="stroke:#A80036;stroke-width:1.0;"/><line style="stroke:#A80036;stroke-width:1.0;" x1="64" x2="410" y1="384.2266" y2="384.2266"/><text fill="#000000" font-family="sans-serif" font-size="13" font-weight="bold" lengthAdjust="spacing" textLength="9" x="71" y="379.1606">7</text><text fill="#000000" font-family="sans-serif" font-size="13" lengthAdjust="spacing" textLength="176" x="84" y="379.1606">seleciona o item a atualizar</text><polygon fill="#A80036" points="621,409.3594,631,413.3594,621,417.3594,625,413.3594" style="stroke:#A80036;stroke-width:1.0;"/><line style="stroke:#A80036;stroke-width:1.0;" x1="426" x2="627" y1="413.3594" y2="413.3594"/><text fill="#000000" font-family="sans-serif" font-size="13" font-weight="bold" lengthAdjust="spacing" textLength="9" x="433" y="408.2935">8</text><text fill="#000000" font-family="sans-serif" font-size="13" lengthAdjust="spacing" textLength="150" x="446" y="408.2935">getProdutoByID(idProd)</text><polygon fill="#A80036" points="1060.5,438.4922,1070.5,442.4922,1060.5,446.4922,1064.5,442.4922" style="stroke:#A80036;stroke-width:1.0;"/><line style="stroke:#A80036;stroke-width:1.0;" x1="643" x2="1066.5" y1="442.4922" y2="442.4922"/><text fill="#000000" font-family="sans-serif" font-size="13" font-weight="bold" lengthAdjust="spacing" textLength="9" x="650" y="437.4263">9</text><text fill="#000000" font-family="sans-serif" font-size="13" lengthAdjust="spacing" textLength="197" x="663" y="437.4263">prod = getProdutobyID(idProd)</text><polygon fill="#A80036" points="75,497.625,65,501.625,75,505.625,71,501.625" style="stroke:#A80036;stroke-width:1.0;"/><line style="stroke:#A80036;stroke-width:1.0;stroke-dasharray:2.0,2.0;" x1="69" x2="420" y1="501.625" y2="501.625"/><text fill="#000000" font-family="sans-serif" font-size="13" font-weight="bold" lengthAdjust="spacing" textLength="19" x="81" y="496.5591">10</text><text fill="#000000" font-family="sans-serif" font-size="13" lengthAdjust="spacing" textLength="305" x="104" y="496.5591">apresenta dados do item e solicita confirmação</text><polygon fill="#A80036" points="404,526.7578,414,530.7578,404,534.7578,408,530.7578" style="stroke:#A80036;stroke-width:1.0;"/><line style="stroke:#A80036;stroke-width:1.0;" x1="64" x2="410" y1="530.7578" y2="530.7578"/><text fill="#000000" font-family="sans-serif" font-size="13" font-weight="bold" lengthAdjust="spacing" textLength="18" x="71" y="525.6919">11</text><text fill="#000000" font-family="sans-serif" font-size="13" lengthAdjust="spacing" textLength="57" x="93" y="525.6919">confirma</text><polygon fill="#A80036" points="621,555.8906,631,559.8906,621,563.8906,625,559.8906" style="stroke:#A80036;stroke-width:1.0;"/><line style="stroke:#A80036;stroke-width:1.0;" x1="426" x2="627" y1="559.8906" y2="559.8906"/><text fill="#000000" font-family="sans-serif" font-size="13" font-weight="bold" lengthAdjust="spacing" textLength="18" x="433" y="554.8247">12</text><text fill="#000000" font-family="sans-serif" font-size="13" lengthAdjust="spacing" textLength="144" x="455" y="554.8247">atualizarProduto(prod)</text><polygon fill="#A80036" points="1060.5,585.0234,1070.5,589.0234,1060.5,593.0234,1064.5,589.0234" style="stroke:#A80036;stroke-width:1.0;"/><line style="stroke:#A80036;stroke-width:1.0;" x1="643" x2="1066.5" y1="589.0234" y2="589.0234"/><text fill="#000000" font-family="sans-serif" font-size="13" font-weight="bold" lengthAdjust="spacing" textLength="17" x="650" y="583.9575">13</text><text fill="#000000" font-family="sans-serif" font-size="13" lengthAdjust="spacing" textLength="144" x="671" y="583.9575">atualizarProduto(prod)</text><line style="stroke:#A80036;stroke-width:1.0;" x1="1082.5" x2="1124.5" y1="618.1563" y2="618.1563"/><line style="stroke:#A80036;stroke-width:1.0;" x1="1124.5" x2="1124.5" y1="618.1563" y2="631.1563"/><line style="stroke:#A80036;stroke-width:1.0;" x1="1083.5" x2="1124.5" y1="631.1563" y2="631.1563"/><polygon fill="#A80036" points="1093.5,627.1563,1083.5,631.1563,1093.5,635.1563,1089.5,631.1563" style="stroke:#A80036;stroke-width:1.0;"/><text fill="#000000" font-family="sans-serif" font-size="13" font-weight="bold" lengthAdjust="spacing" textLength="18" x="1089.5" y="613.0903">14</text><text fill="#000000" font-family="sans-serif" font-size="13" lengthAdjust="spacing" textLength="127" x="1111.5" y="613.0903">validaProduto(prod)</text><line style="stroke:#A80036;stroke-width:1.0;" x1="1082.5" x2="1124.5" y1="665.2891" y2="665.2891"/><line style="stroke:#A80036;stroke-width:1.0;" x1="1124.5" x2="1124.5" y1="665.2891" y2="678.2891"/><line style="stroke:#A80036;stroke-width:1.0;" x1="1077.5" x2="1124.5" y1="678.2891" y2="678.2891"/><polygon fill="#A80036" points="1087.5,674.2891,1077.5,678.2891,1087.5,682.2891,1083.5,678.2891" style="stroke:#A80036;stroke-width:1.0;"/><text fill="#000000" font-family="sans-serif" font-size="13" font-weight="bold" lengthAdjust="spacing" textLength="18" x="1089.5" y="660.2231">15</text><text fill="#000000" font-family="sans-serif" font-size="13" lengthAdjust="spacing" textLength="144" x="1111.5" y="660.2231">atualizarProduto(prod)</text><polygon fill="#A80036" points="70,698.4219,60,702.4219,70,706.4219,66,702.4219" style="stroke:#A80036;stroke-width:1.0;"/><line style="stroke:#A80036;stroke-width:1.0;stroke-dasharray:2.0,2.0;" x1="64" x2="420" y1="702.4219" y2="702.4219"/><text fill="#000000" font-family="sans-serif" font-size="13" font-weight="bold" lengthAdjust="spacing" textLength="18" x="76" y="697.356">16</text><text fill="#000000" font-family="sans-serif" font-size="13" lengthAdjust="spacing" textLength="190" x="98" y="697.356">informa sucesso da operação</text><!--MD5=[22010f82d738c6fd18035cef9fb67a84]
@startuml
autonumber

actor "Administrador" as ADM
participant ":AtualizarItensStockUI" as UI
participant ":AtualizarItensStockController" as CTL
participant ":AplicacaoPOT" as _APP
participant "app:\nAplicacaoPOT" as APP
participant ":ProdutosDB" as PDB

activate ADM
ADM -> UI : nova atualização de item
activate UI
UI -> CTL : getListaProdutos()
activate CTL
CTL -> _APP : app = getInstance()
activate _APP
deactivate _APP
CTL -> APP : sessao = getSessaoAtual()
activate APP
deactivate APP

CTL -> PDB : lp = getListaProdutos()
activate PDB
deactivate PDB

deactivate CTL

UI - -> ADM : apresenta a lista de itens no stock
deactivate UI
ADM -> UI : seleciona o item a atualizar
activate UI
UI -> CTL : getProdutoByID(idProd)
activate CTL
CTL -> PDB : prod = getProdutobyID(idProd)

activate PDB
deactivate PDB
deactivate CTL
UI - -> ADM : apresenta dados do item e solicita confirmação
deactivate UI
ADM -> UI : confirma
activate UI
UI -> CTL : atualizarProduto(prod)

activate CTL

CTL -> PDB : atualizarProduto(prod)
activate PDB
PDB -> PDB : validaProduto(prod)

PDB -> PDB : atualizarProduto(prod)


deactivate PDB
deactivate CTL

UI - -> ADM: informa sucesso da operação
deactivate UI
deactivate ADM
@enduml

PlantUML version 1.2020.27beta8(Unknown compile time)
(GPL source distribution)
Java Runtime: Java(TM) SE Runtime Environment
JVM: Java HotSpot(TM) 64-Bit Server VM
Default Encoding: UTF-8
Language: en
Country: US
--></g></svg>