<?xml version="1.0" encoding="UTF-8" standalone="no"?><svg xmlns="http://www.w3.org/2000/svg" xmlns:xlink="http://www.w3.org/1999/xlink" contentScriptType="application/ecmascript" contentStyleType="text/css" height="1173px" preserveAspectRatio="none" style="width:1047px;height:1173px;" version="1.1" viewBox="0 0 1047 1173" width="1047px" zoomAndPan="magnify"><defs><filter height="300%" id="fwtggq8xmsr36" width="300%" x="-1" y="-1"><feGaussianBlur result="blurOut" stdDeviation="2.0"/><feColorMatrix in="blurOut" result="blurOut2" type="matrix" values="0 0 0 0 0 0 0 0 0 0 0 0 0 0 0 0 0 0 .4 0"/><feOffset dx="4.0" dy="4.0" in="blurOut2" result="blurOut3"/><feBlend in="SourceGraphic" in2="blurOut3" mode="normal"/></filter></defs><g><!--MD5=[380d12a68ed0046a60f31008a02875d0]
class AplicacaoPOT--><rect codeLine="3" fill="#FEFECE" filter="url(#fwtggq8xmsr36)" height="73.6094" id="AplicacaoPOT" style="stroke:#A80036;stroke-width:1.5;" width="130" x="7" y="315"/><ellipse cx="29.65" cy="331" fill="#ADD1B2" rx="11" ry="11" style="stroke:#A80036;stroke-width:1.0;"/><path d="M31.9938,326.6719 C31.0563,326.2344 30.4625,326.0938 29.5875,326.0938 C26.9625,326.0938 24.9625,328.1719 24.9625,330.8906 L24.9625,332.0156 C24.9625,334.5938 27.0719,336.4844 29.9625,336.4844 C31.1813,336.4844 32.3375,336.1875 33.0875,335.6406 C33.6656,335.2344 33.9938,334.7813 33.9938,334.3906 C33.9938,333.9375 33.6031,333.5469 33.1344,333.5469 C32.9156,333.5469 32.7125,333.625 32.525,333.8125 C32.0719,334.2969 32.0719,334.2969 31.8844,334.3906 C31.4625,334.6563 30.775,334.7813 30.0094,334.7813 C27.9625,334.7813 26.6656,333.6875 26.6656,331.9844 L26.6656,330.8906 C26.6656,329.1094 27.9156,327.7969 29.65,327.7969 C30.2281,327.7969 30.8375,327.9531 31.3063,328.2031 C31.7906,328.4844 31.9625,328.7031 32.0563,329.1094 C32.1188,329.5156 32.15,329.6406 32.2906,329.7656 C32.4313,329.9063 32.6656,330.0156 32.8844,330.0156 C33.15,330.0156 33.4156,329.875 33.5875,329.6563 C33.6969,329.5 33.7281,329.3125 33.7281,328.8906 L33.7281,327.4688 C33.7281,327.0313 33.7125,326.9063 33.6188,326.75 C33.4625,326.4844 33.1813,326.3438 32.8844,326.3438 C32.5875,326.3438 32.3844,326.4375 32.1656,326.75 L31.9938,326.6719 Z " fill="#000000"/><text fill="#000000" font-family="sans-serif" font-size="12" lengthAdjust="spacing" textLength="81" x="45.35" y="335.1543">AplicacaoPOT</text><line style="stroke:#A80036;stroke-width:1.5;" x1="8" x2="136" y1="347" y2="347"/><line style="stroke:#A80036;stroke-width:1.5;" x1="8" x2="136" y1="355" y2="355"/><text fill="#000000" font-family="sans-serif" font-size="11" lengthAdjust="spacing" textLength="118" x="13" y="369.2104">+static getInstance()</text><text fill="#000000" font-family="sans-serif" font-size="11" lengthAdjust="spacing" textLength="107" x="13" y="382.0151">+getSessaoAtual()</text><!--MD5=[1e13576e8c070e32200b62ceaa1f39ec]
class SessaoUtilizador--><rect codeLine="8" fill="#FEFECE" filter="url(#fwtggq8xmsr36)" height="60.8047" id="SessaoUtilizador" style="stroke:#A80036;stroke-width:1.5;" width="134" x="172" y="321.5"/><ellipse cx="187" cy="337.5" fill="#ADD1B2" rx="11" ry="11" style="stroke:#A80036;stroke-width:1.0;"/><path d="M189.3438,333.1719 C188.4063,332.7344 187.8125,332.5938 186.9375,332.5938 C184.3125,332.5938 182.3125,334.6719 182.3125,337.3906 L182.3125,338.5156 C182.3125,341.0938 184.4219,342.9844 187.3125,342.9844 C188.5313,342.9844 189.6875,342.6875 190.4375,342.1406 C191.0156,341.7344 191.3438,341.2813 191.3438,340.8906 C191.3438,340.4375 190.9531,340.0469 190.4844,340.0469 C190.2656,340.0469 190.0625,340.125 189.875,340.3125 C189.4219,340.7969 189.4219,340.7969 189.2344,340.8906 C188.8125,341.1563 188.125,341.2813 187.3594,341.2813 C185.3125,341.2813 184.0156,340.1875 184.0156,338.4844 L184.0156,337.3906 C184.0156,335.6094 185.2656,334.2969 187,334.2969 C187.5781,334.2969 188.1875,334.4531 188.6563,334.7031 C189.1406,334.9844 189.3125,335.2031 189.4063,335.6094 C189.4688,336.0156 189.5,336.1406 189.6406,336.2656 C189.7813,336.4063 190.0156,336.5156 190.2344,336.5156 C190.5,336.5156 190.7656,336.375 190.9375,336.1563 C191.0469,336 191.0781,335.8125 191.0781,335.3906 L191.0781,333.9688 C191.0781,333.5313 191.0625,333.4063 190.9688,333.25 C190.8125,332.9844 190.5313,332.8438 190.2344,332.8438 C189.9375,332.8438 189.7344,332.9375 189.5156,333.25 L189.3438,333.1719 Z " fill="#000000"/><text fill="#000000" font-family="sans-serif" font-size="12" lengthAdjust="spacing" textLength="102" x="201" y="341.6543">SessaoUtilizador</text><line style="stroke:#A80036;stroke-width:1.5;" x1="173" x2="305" y1="353.5" y2="353.5"/><line style="stroke:#A80036;stroke-width:1.5;" x1="173" x2="305" y1="361.5" y2="361.5"/><text fill="#000000" font-family="sans-serif" font-size="11" lengthAdjust="spacing" textLength="120" x="178" y="375.7104">+getEmailUtilizador()</text><!--MD5=[48d7298b3bd1f8b3e8f77915e881d788]
class ScooterDB--><rect codeLine="12" fill="#FEFECE" filter="url(#fwtggq8xmsr36)" height="60.8047" id="ScooterDB" style="stroke:#A80036;stroke-width:1.5;" width="118" x="286" y="444.5"/><ellipse cx="310.45" cy="460.5" fill="#ADD1B2" rx="11" ry="11" style="stroke:#A80036;stroke-width:1.0;"/><path d="M312.7938,456.1719 C311.8563,455.7344 311.2625,455.5938 310.3875,455.5938 C307.7625,455.5938 305.7625,457.6719 305.7625,460.3906 L305.7625,461.5156 C305.7625,464.0938 307.8719,465.9844 310.7625,465.9844 C311.9813,465.9844 313.1375,465.6875 313.8875,465.1406 C314.4656,464.7344 314.7938,464.2813 314.7938,463.8906 C314.7938,463.4375 314.4031,463.0469 313.9344,463.0469 C313.7156,463.0469 313.5125,463.125 313.325,463.3125 C312.8719,463.7969 312.8719,463.7969 312.6844,463.8906 C312.2625,464.1563 311.575,464.2813 310.8094,464.2813 C308.7625,464.2813 307.4656,463.1875 307.4656,461.4844 L307.4656,460.3906 C307.4656,458.6094 308.7156,457.2969 310.45,457.2969 C311.0281,457.2969 311.6375,457.4531 312.1063,457.7031 C312.5906,457.9844 312.7625,458.2031 312.8563,458.6094 C312.9188,459.0156 312.95,459.1406 313.0906,459.2656 C313.2313,459.4063 313.4656,459.5156 313.6844,459.5156 C313.95,459.5156 314.2156,459.375 314.3875,459.1563 C314.4969,459 314.5281,458.8125 314.5281,458.3906 L314.5281,456.9688 C314.5281,456.5313 314.5125,456.4063 314.4188,456.25 C314.2625,455.9844 313.9813,455.8438 313.6844,455.8438 C313.3875,455.8438 313.1844,455.9375 312.9656,456.25 L312.7938,456.1719 Z " fill="#000000"/><text fill="#000000" font-family="sans-serif" font-size="12" lengthAdjust="spacing" textLength="65" x="326.55" y="464.6543">ScooterDB</text><line style="stroke:#A80036;stroke-width:1.5;" x1="287" x2="403" y1="476.5" y2="476.5"/><line style="stroke:#A80036;stroke-width:1.5;" x1="287" x2="403" y1="484.5" y2="484.5"/><text fill="#000000" font-family="sans-serif" font-size="11" lengthAdjust="spacing" textLength="106" x="292" y="498.7104">+getListaScooter()</text><!--MD5=[eedb9d86e2ada2a30e84607ee2eb675b]
class EncomendaDB--><rect codeLine="16" fill="#FEFECE" filter="url(#fwtggq8xmsr36)" height="60.8047" id="EncomendaDB" style="stroke:#A80036;stroke-width:1.5;" width="137" x="868.5" y="716"/><ellipse cx="891.6" cy="732" fill="#ADD1B2" rx="11" ry="11" style="stroke:#A80036;stroke-width:1.0;"/><path d="M893.9438,727.6719 C893.0063,727.2344 892.4125,727.0938 891.5375,727.0938 C888.9125,727.0938 886.9125,729.1719 886.9125,731.8906 L886.9125,733.0156 C886.9125,735.5938 889.0219,737.4844 891.9125,737.4844 C893.1313,737.4844 894.2875,737.1875 895.0375,736.6406 C895.6156,736.2344 895.9438,735.7813 895.9438,735.3906 C895.9438,734.9375 895.5531,734.5469 895.0844,734.5469 C894.8656,734.5469 894.6625,734.625 894.475,734.8125 C894.0219,735.2969 894.0219,735.2969 893.8344,735.3906 C893.4125,735.6563 892.725,735.7813 891.9594,735.7813 C889.9125,735.7813 888.6156,734.6875 888.6156,732.9844 L888.6156,731.8906 C888.6156,730.1094 889.8656,728.7969 891.6,728.7969 C892.1781,728.7969 892.7875,728.9531 893.2563,729.2031 C893.7406,729.4844 893.9125,729.7031 894.0063,730.1094 C894.0688,730.5156 894.1,730.6406 894.2406,730.7656 C894.3813,730.9063 894.6156,731.0156 894.8344,731.0156 C895.1,731.0156 895.3656,730.875 895.5375,730.6563 C895.6469,730.5 895.6781,730.3125 895.6781,729.8906 L895.6781,728.4688 C895.6781,728.0313 895.6625,727.9063 895.5688,727.75 C895.4125,727.4844 895.1313,727.3438 894.8344,727.3438 C894.5375,727.3438 894.3344,727.4375 894.1156,727.75 L893.9438,727.6719 Z " fill="#000000"/><text fill="#000000" font-family="sans-serif" font-size="12" lengthAdjust="spacing" textLength="87" x="907.4" y="736.1543">EncomendaDB</text><line style="stroke:#A80036;stroke-width:1.5;" x1="869.5" x2="1004.5" y1="748" y2="748"/><line style="stroke:#A80036;stroke-width:1.5;" x1="869.5" x2="1004.5" y1="756" y2="756"/><text fill="#000000" font-family="sans-serif" font-size="11" lengthAdjust="spacing" textLength="125" x="874.5" y="770.2104">+getListaEncomenda(</text><!--MD5=[3179f819b5ca0f9c8a1bd58e9144681b]
class Entrega--><rect codeLine="20" fill="#FEFECE" filter="url(#fwtggq8xmsr36)" height="163.2422" id="Entrega" style="stroke:#A80036;stroke-width:1.5;" width="501" x="386.5" y="807"/><ellipse cx="609.75" cy="823" fill="#ADD1B2" rx="11" ry="11" style="stroke:#A80036;stroke-width:1.0;"/><path d="M612.0938,818.6719 C611.1563,818.2344 610.5625,818.0938 609.6875,818.0938 C607.0625,818.0938 605.0625,820.1719 605.0625,822.8906 L605.0625,824.0156 C605.0625,826.5938 607.1719,828.4844 610.0625,828.4844 C611.2813,828.4844 612.4375,828.1875 613.1875,827.6406 C613.7656,827.2344 614.0938,826.7813 614.0938,826.3906 C614.0938,825.9375 613.7031,825.5469 613.2344,825.5469 C613.0156,825.5469 612.8125,825.625 612.625,825.8125 C612.1719,826.2969 612.1719,826.2969 611.9844,826.3906 C611.5625,826.6563 610.875,826.7813 610.1094,826.7813 C608.0625,826.7813 606.7656,825.6875 606.7656,823.9844 L606.7656,822.8906 C606.7656,821.1094 608.0156,819.7969 609.75,819.7969 C610.3281,819.7969 610.9375,819.9531 611.4063,820.2031 C611.8906,820.4844 612.0625,820.7031 612.1563,821.1094 C612.2188,821.5156 612.25,821.6406 612.3906,821.7656 C612.5313,821.9063 612.7656,822.0156 612.9844,822.0156 C613.25,822.0156 613.5156,821.875 613.6875,821.6563 C613.7969,821.5 613.8281,821.3125 613.8281,820.8906 L613.8281,819.4688 C613.8281,819.0313 613.8125,818.9063 613.7188,818.75 C613.5625,818.4844 613.2813,818.3438 612.9844,818.3438 C612.6875,818.3438 612.4844,818.4375 612.2656,818.75 L612.0938,818.6719 Z " fill="#000000"/><text fill="#000000" font-family="sans-serif" font-size="12" lengthAdjust="spacing" textLength="46" x="630.25" y="827.1543">Entrega</text><line style="stroke:#A80036;stroke-width:1.5;" x1="387.5" x2="886.5" y1="839" y2="839"/><text fill="#000000" font-family="sans-serif" font-size="11" lengthAdjust="spacing" textLength="103" x="392.5" y="853.2104">-Integer idEntrega</text><text fill="#000000" font-family="sans-serif" font-size="11" lengthAdjust="spacing" textLength="95" x="392.5" y="866.0151">-String dataInicio</text><text fill="#000000" font-family="sans-serif" font-size="11" lengthAdjust="spacing" textLength="86" x="392.5" y="878.8198">-String dataFim</text><line style="stroke:#A80036;stroke-width:1.5;" x1="387.5" x2="886.5" y1="885.4141" y2="885.4141"/><text fill="#000000" font-family="sans-serif" font-size="11" lengthAdjust="spacing" textLength="221" x="392.5" y="899.6245">+create(idEntrega, dataInicio, dataFim)</text><text fill="#000000" font-family="sans-serif" font-size="11" lengthAdjust="spacing" textLength="103" x="392.5" y="912.4292">+addEstafeta(est)</text><text fill="#000000" font-family="sans-serif" font-size="11" lengthAdjust="spacing" textLength="489" x="392.5" y="925.2339">+novaEncomenda(idEncomenda, dataPedida, preco, estadoEncomenda, listaProdutos)</text><text fill="#000000" font-family="sans-serif" font-size="11" lengthAdjust="spacing" textLength="120" x="392.5" y="938.0386">+addEncomenda(en)</text><text fill="#000000" font-family="sans-serif" font-size="11" lengthAdjust="spacing" textLength="403" x="392.5" y="950.8433">+novaScooter(idScooter, percentagemBateria, potencia, pesoMaximo)</text><text fill="#000000" font-family="sans-serif" font-size="11" lengthAdjust="spacing" textLength="88" x="392.5" y="963.6479">+addScooter(s)</text><!--MD5=[598a246086efa0137d5aa96a640f0789]
class EntregaDB--><rect codeLine="32" fill="#FEFECE" filter="url(#fwtggq8xmsr36)" height="112.0234" id="EntregaDB" style="stroke:#A80036;stroke-width:1.5;" width="268" x="571" y="419"/><ellipse cx="669.25" cy="435" fill="#ADD1B2" rx="11" ry="11" style="stroke:#A80036;stroke-width:1.0;"/><path d="M671.5938,430.6719 C670.6563,430.2344 670.0625,430.0938 669.1875,430.0938 C666.5625,430.0938 664.5625,432.1719 664.5625,434.8906 L664.5625,436.0156 C664.5625,438.5938 666.6719,440.4844 669.5625,440.4844 C670.7813,440.4844 671.9375,440.1875 672.6875,439.6406 C673.2656,439.2344 673.5938,438.7813 673.5938,438.3906 C673.5938,437.9375 673.2031,437.5469 672.7344,437.5469 C672.5156,437.5469 672.3125,437.625 672.125,437.8125 C671.6719,438.2969 671.6719,438.2969 671.4844,438.3906 C671.0625,438.6563 670.375,438.7813 669.6094,438.7813 C667.5625,438.7813 666.2656,437.6875 666.2656,435.9844 L666.2656,434.8906 C666.2656,433.1094 667.5156,431.7969 669.25,431.7969 C669.8281,431.7969 670.4375,431.9531 670.9063,432.2031 C671.3906,432.4844 671.5625,432.7031 671.6563,433.1094 C671.7188,433.5156 671.75,433.6406 671.8906,433.7656 C672.0313,433.9063 672.2656,434.0156 672.4844,434.0156 C672.75,434.0156 673.0156,433.875 673.1875,433.6563 C673.2969,433.5 673.3281,433.3125 673.3281,432.8906 L673.3281,431.4688 C673.3281,431.0313 673.3125,430.9063 673.2188,430.75 C673.0625,430.4844 672.7813,430.3438 672.4844,430.3438 C672.1875,430.3438 671.9844,430.4375 671.7656,430.75 L671.5938,430.6719 Z " fill="#000000"/><text fill="#000000" font-family="sans-serif" font-size="12" lengthAdjust="spacing" textLength="63" x="689.75" y="439.1543">EntregaDB</text><line style="stroke:#A80036;stroke-width:1.5;" x1="572" x2="838" y1="451" y2="451"/><line style="stroke:#A80036;stroke-width:1.5;" x1="572" x2="838" y1="459" y2="459"/><text fill="#000000" font-family="sans-serif" font-size="11" lengthAdjust="spacing" textLength="124" x="577" y="473.2104">+generateIdEntrega()</text><text fill="#000000" font-family="sans-serif" font-size="11" lengthAdjust="spacing" textLength="256" x="577" y="486.0151">+novaEntrega(idEntrega, dataInicio, dataFim)</text><text fill="#000000" font-family="sans-serif" font-size="11" lengthAdjust="spacing" textLength="123" x="577" y="498.8198">+registaEntrega(entr)</text><text fill="#000000" font-family="sans-serif" font-size="11" lengthAdjust="spacing" textLength="118" x="577" y="511.6245">+validaEntrega(entr)</text><text fill="#000000" font-family="sans-serif" font-size="11" lengthAdjust="spacing" textLength="105" x="577" y="524.4292">+addEntrega(entr)</text><!--MD5=[4ac2c1498d2c03198090a24b8c54d335]
class EstafetaDB--><rect codeLine="40" fill="#FEFECE" filter="url(#fwtggq8xmsr36)" height="60.8047" id="EstafetaDB" style="stroke:#A80036;stroke-width:1.5;" width="173" x="412.5" y="321.5"/><ellipse cx="462.25" cy="337.5" fill="#ADD1B2" rx="11" ry="11" style="stroke:#A80036;stroke-width:1.0;"/><path d="M464.5938,333.1719 C463.6563,332.7344 463.0625,332.5938 462.1875,332.5938 C459.5625,332.5938 457.5625,334.6719 457.5625,337.3906 L457.5625,338.5156 C457.5625,341.0938 459.6719,342.9844 462.5625,342.9844 C463.7813,342.9844 464.9375,342.6875 465.6875,342.1406 C466.2656,341.7344 466.5938,341.2813 466.5938,340.8906 C466.5938,340.4375 466.2031,340.0469 465.7344,340.0469 C465.5156,340.0469 465.3125,340.125 465.125,340.3125 C464.6719,340.7969 464.6719,340.7969 464.4844,340.8906 C464.0625,341.1563 463.375,341.2813 462.6094,341.2813 C460.5625,341.2813 459.2656,340.1875 459.2656,338.4844 L459.2656,337.3906 C459.2656,335.6094 460.5156,334.2969 462.25,334.2969 C462.8281,334.2969 463.4375,334.4531 463.9063,334.7031 C464.3906,334.9844 464.5625,335.2031 464.6563,335.6094 C464.7188,336.0156 464.75,336.1406 464.8906,336.2656 C465.0313,336.4063 465.2656,336.5156 465.4844,336.5156 C465.75,336.5156 466.0156,336.375 466.1875,336.1563 C466.2969,336 466.3281,335.8125 466.3281,335.3906 L466.3281,333.9688 C466.3281,333.5313 466.3125,333.4063 466.2188,333.25 C466.0625,332.9844 465.7813,332.8438 465.4844,332.8438 C465.1875,332.8438 464.9844,332.9375 464.7656,333.25 L464.5938,333.1719 Z " fill="#000000"/><text fill="#000000" font-family="sans-serif" font-size="12" lengthAdjust="spacing" textLength="65" x="482.75" y="341.6543">EstafetaDB</text><line style="stroke:#A80036;stroke-width:1.5;" x1="413.5" x2="584.5" y1="353.5" y2="353.5"/><line style="stroke:#A80036;stroke-width:1.5;" x1="413.5" x2="584.5" y1="361.5" y2="361.5"/><text fill="#000000" font-family="sans-serif" font-size="11" lengthAdjust="spacing" textLength="161" x="418.5" y="375.7104">+getEstafetaByEmail(email)</text><!--MD5=[0b96431f48c75c7948e638dd0365dea1]
class RegistarEntregaController--><rect codeLine="44" fill="#FEFECE" filter="url(#fwtggq8xmsr36)" height="137.6328" id="RegistarEntregaController" style="stroke:#A80036;stroke-width:1.5;" width="501" x="153.5" y="116"/><ellipse cx="322.75" cy="132" fill="#ADD1B2" rx="11" ry="11" style="stroke:#A80036;stroke-width:1.0;"/><path d="M325.0938,127.6719 C324.1563,127.2344 323.5625,127.0938 322.6875,127.0938 C320.0625,127.0938 318.0625,129.1719 318.0625,131.8906 L318.0625,133.0156 C318.0625,135.5938 320.1719,137.4844 323.0625,137.4844 C324.2813,137.4844 325.4375,137.1875 326.1875,136.6406 C326.7656,136.2344 327.0938,135.7813 327.0938,135.3906 C327.0938,134.9375 326.7031,134.5469 326.2344,134.5469 C326.0156,134.5469 325.8125,134.625 325.625,134.8125 C325.1719,135.2969 325.1719,135.2969 324.9844,135.3906 C324.5625,135.6563 323.875,135.7813 323.1094,135.7813 C321.0625,135.7813 319.7656,134.6875 319.7656,132.9844 L319.7656,131.8906 C319.7656,130.1094 321.0156,128.7969 322.75,128.7969 C323.3281,128.7969 323.9375,128.9531 324.4063,129.2031 C324.8906,129.4844 325.0625,129.7031 325.1563,130.1094 C325.2188,130.5156 325.25,130.6406 325.3906,130.7656 C325.5313,130.9063 325.7656,131.0156 325.9844,131.0156 C326.25,131.0156 326.5156,130.875 326.6875,130.6563 C326.7969,130.5 326.8281,130.3125 326.8281,129.8906 L326.8281,128.4688 C326.8281,128.0313 326.8125,127.9063 326.7188,127.75 C326.5625,127.4844 326.2813,127.3438 325.9844,127.3438 C325.6875,127.3438 325.4844,127.4375 325.2656,127.75 L325.0938,127.6719 Z " fill="#000000"/><text fill="#000000" font-family="sans-serif" font-size="12" lengthAdjust="spacing" textLength="154" x="343.25" y="136.1543">RegistarEntregaController</text><line style="stroke:#A80036;stroke-width:1.5;" x1="154.5" x2="653.5" y1="148" y2="148"/><line style="stroke:#A80036;stroke-width:1.5;" x1="154.5" x2="653.5" y1="156" y2="156"/><text fill="#000000" font-family="sans-serif" font-size="11" lengthAdjust="spacing" textLength="83" x="159.5" y="170.2104">+getEstafeta()</text><text fill="#000000" font-family="sans-serif" font-size="11" lengthAdjust="spacing" textLength="195" x="159.5" y="183.0151">+novaEntrega(dataInicio, dataFim)</text><text fill="#000000" font-family="sans-serif" font-size="11" lengthAdjust="spacing" textLength="129" x="159.5" y="195.8198">+getListaEncomenda()</text><text fill="#000000" font-family="sans-serif" font-size="11" lengthAdjust="spacing" textLength="489" x="159.5" y="208.6245">+novaEncomenda(idEncomenda, dataPedida, preco, estadoEncomenda, listaProdutos)</text><text fill="#000000" font-family="sans-serif" font-size="11" lengthAdjust="spacing" textLength="106" x="159.5" y="221.4292">+getListaScooter()</text><text fill="#000000" font-family="sans-serif" font-size="11" lengthAdjust="spacing" textLength="403" x="159.5" y="234.2339">+novaScooter(idScooter, percentagemBateria, potencia, pesoMaximo)</text><text fill="#000000" font-family="sans-serif" font-size="11" lengthAdjust="spacing" textLength="100" x="159.5" y="247.0386">+registaEntrega()</text><!--MD5=[7a561ec8a1cf4ba3fadee4d155dd8051]
class RegistarEntregaUI--><rect codeLine="54" fill="#FEFECE" filter="url(#fwtggq8xmsr36)" height="48" id="RegistarEntregaUI" style="stroke:#A80036;stroke-width:1.5;" width="139" x="334.5" y="7"/><ellipse cx="349.5" cy="23" fill="#ADD1B2" rx="11" ry="11" style="stroke:#A80036;stroke-width:1.0;"/><path d="M351.8438,18.6719 C350.9063,18.2344 350.3125,18.0938 349.4375,18.0938 C346.8125,18.0938 344.8125,20.1719 344.8125,22.8906 L344.8125,24.0156 C344.8125,26.5938 346.9219,28.4844 349.8125,28.4844 C351.0313,28.4844 352.1875,28.1875 352.9375,27.6406 C353.5156,27.2344 353.8438,26.7813 353.8438,26.3906 C353.8438,25.9375 353.4531,25.5469 352.9844,25.5469 C352.7656,25.5469 352.5625,25.625 352.375,25.8125 C351.9219,26.2969 351.9219,26.2969 351.7344,26.3906 C351.3125,26.6563 350.625,26.7813 349.8594,26.7813 C347.8125,26.7813 346.5156,25.6875 346.5156,23.9844 L346.5156,22.8906 C346.5156,21.1094 347.7656,19.7969 349.5,19.7969 C350.0781,19.7969 350.6875,19.9531 351.1563,20.2031 C351.6406,20.4844 351.8125,20.7031 351.9063,21.1094 C351.9688,21.5156 352,21.6406 352.1406,21.7656 C352.2813,21.9063 352.5156,22.0156 352.7344,22.0156 C353,22.0156 353.2656,21.875 353.4375,21.6563 C353.5469,21.5 353.5781,21.3125 353.5781,20.8906 L353.5781,19.4688 C353.5781,19.0313 353.5625,18.9063 353.4688,18.75 C353.3125,18.4844 353.0313,18.3438 352.7344,18.3438 C352.4375,18.3438 352.2344,18.4375 352.0156,18.75 L351.8438,18.6719 Z " fill="#000000"/><text fill="#000000" font-family="sans-serif" font-size="12" lengthAdjust="spacing" textLength="107" x="363.5" y="27.1543">RegistarEntregaUI</text><line style="stroke:#A80036;stroke-width:1.5;" x1="335.5" x2="472.5" y1="39" y2="39"/><line style="stroke:#A80036;stroke-width:1.5;" x1="335.5" x2="472.5" y1="47" y2="47"/><!--MD5=[c55f92ccbf0646788158d42f3399cc78]
class Encomenda--><rect codeLine="57" fill="#FEFECE" filter="url(#fwtggq8xmsr36)" height="99.2188" id="Encomenda" style="stroke:#A80036;stroke-width:1.5;" width="111" x="667.5" y="1053.5"/><ellipse cx="686.55" cy="1069.5" fill="#ADD1B2" rx="11" ry="11" style="stroke:#A80036;stroke-width:1.0;"/><path d="M688.8938,1065.1719 C687.9563,1064.7344 687.3625,1064.5938 686.4875,1064.5938 C683.8625,1064.5938 681.8625,1066.6719 681.8625,1069.3906 L681.8625,1070.5156 C681.8625,1073.0938 683.9719,1074.9844 686.8625,1074.9844 C688.0813,1074.9844 689.2375,1074.6875 689.9875,1074.1406 C690.5656,1073.7344 690.8938,1073.2813 690.8938,1072.8906 C690.8938,1072.4375 690.5031,1072.0469 690.0344,1072.0469 C689.8156,1072.0469 689.6125,1072.125 689.425,1072.3125 C688.9719,1072.7969 688.9719,1072.7969 688.7844,1072.8906 C688.3625,1073.1563 687.675,1073.2813 686.9094,1073.2813 C684.8625,1073.2813 683.5656,1072.1875 683.5656,1070.4844 L683.5656,1069.3906 C683.5656,1067.6094 684.8156,1066.2969 686.55,1066.2969 C687.1281,1066.2969 687.7375,1066.4531 688.2063,1066.7031 C688.6906,1066.9844 688.8625,1067.2031 688.9563,1067.6094 C689.0188,1068.0156 689.05,1068.1406 689.1906,1068.2656 C689.3313,1068.4063 689.5656,1068.5156 689.7844,1068.5156 C690.05,1068.5156 690.3156,1068.375 690.4875,1068.1563 C690.5969,1068 690.6281,1067.8125 690.6281,1067.3906 L690.6281,1065.9688 C690.6281,1065.5313 690.6125,1065.4063 690.5188,1065.25 C690.3625,1064.9844 690.0813,1064.8438 689.7844,1064.8438 C689.4875,1064.8438 689.2844,1064.9375 689.0656,1065.25 L688.8938,1065.1719 Z " fill="#000000"/><text fill="#000000" font-family="sans-serif" font-size="12" lengthAdjust="spacing" textLength="70" x="701.45" y="1073.6543">Encomenda</text><line style="stroke:#A80036;stroke-width:1.5;" x1="668.5" x2="777.5" y1="1085.5" y2="1085.5"/><text fill="#000000" font-family="sans-serif" font-size="11" lengthAdjust="spacing" textLength="81" x="673.5" y="1099.7104">-idEncomenda</text><text fill="#000000" font-family="sans-serif" font-size="11" lengthAdjust="spacing" textLength="67" x="673.5" y="1112.5151">-dataPedida</text><text fill="#000000" font-family="sans-serif" font-size="11" lengthAdjust="spacing" textLength="36" x="673.5" y="1125.3198">-preco</text><text fill="#000000" font-family="sans-serif" font-size="11" lengthAdjust="spacing" textLength="99" x="673.5" y="1138.1245">-pesoEncomenda</text><line style="stroke:#A80036;stroke-width:1.5;" x1="668.5" x2="777.5" y1="1144.7188" y2="1144.7188"/><!--MD5=[3f1202280bfe3359d2f91fb9b6e32986]
class Estafeta--><rect codeLine="64" fill="#FEFECE" filter="url(#fwtggq8xmsr36)" height="124.8281" id="Estafeta" style="stroke:#A80036;stroke-width:1.5;" width="155" x="412.5" y="561"/><ellipse cx="461.75" cy="577" fill="#ADD1B2" rx="11" ry="11" style="stroke:#A80036;stroke-width:1.0;"/><path d="M464.0938,572.6719 C463.1563,572.2344 462.5625,572.0938 461.6875,572.0938 C459.0625,572.0938 457.0625,574.1719 457.0625,576.8906 L457.0625,578.0156 C457.0625,580.5938 459.1719,582.4844 462.0625,582.4844 C463.2813,582.4844 464.4375,582.1875 465.1875,581.6406 C465.7656,581.2344 466.0938,580.7813 466.0938,580.3906 C466.0938,579.9375 465.7031,579.5469 465.2344,579.5469 C465.0156,579.5469 464.8125,579.625 464.625,579.8125 C464.1719,580.2969 464.1719,580.2969 463.9844,580.3906 C463.5625,580.6563 462.875,580.7813 462.1094,580.7813 C460.0625,580.7813 458.7656,579.6875 458.7656,577.9844 L458.7656,576.8906 C458.7656,575.1094 460.0156,573.7969 461.75,573.7969 C462.3281,573.7969 462.9375,573.9531 463.4063,574.2031 C463.8906,574.4844 464.0625,574.7031 464.1563,575.1094 C464.2188,575.5156 464.25,575.6406 464.3906,575.7656 C464.5313,575.9063 464.7656,576.0156 464.9844,576.0156 C465.25,576.0156 465.5156,575.875 465.6875,575.6563 C465.7969,575.5 465.8281,575.3125 465.8281,574.8906 L465.8281,573.4688 C465.8281,573.0313 465.8125,572.9063 465.7188,572.75 C465.5625,572.4844 465.2813,572.3438 464.9844,572.3438 C464.6875,572.3438 464.4844,572.4375 464.2656,572.75 L464.0938,572.6719 Z " fill="#000000"/><text fill="#000000" font-family="sans-serif" font-size="12" lengthAdjust="spacing" textLength="48" x="482.25" y="581.1543">Estafeta</text><line style="stroke:#A80036;stroke-width:1.5;" x1="413.5" x2="566.5" y1="593" y2="593"/><text fill="#000000" font-family="sans-serif" font-size="11" lengthAdjust="spacing" textLength="21" x="418.5" y="607.2104">-NIF</text><text fill="#000000" font-family="sans-serif" font-size="11" lengthAdjust="spacing" textLength="37" x="418.5" y="620.0151">-nome</text><text fill="#000000" font-family="sans-serif" font-size="11" lengthAdjust="spacing" textLength="36" x="418.5" y="632.8198">-email</text><text fill="#000000" font-family="sans-serif" font-size="11" lengthAdjust="spacing" textLength="143" x="418.5" y="645.6245">-numeroSegurancaSocial</text><text fill="#000000" font-family="sans-serif" font-size="11" lengthAdjust="spacing" textLength="57" x="418.5" y="658.4292">-password</text><text fill="#000000" font-family="sans-serif" font-size="11" lengthAdjust="spacing" textLength="79" x="418.5" y="671.2339">-pesoEstafeta</text><line style="stroke:#A80036;stroke-width:1.5;" x1="413.5" x2="566.5" y1="677.8281" y2="677.8281"/><!--MD5=[f4402668d5d5bb8485350c0fdb60ac8e]
class Scooter--><rect codeLine="73" fill="#FEFECE" filter="url(#fwtggq8xmsr36)" height="112.0234" id="Scooter" style="stroke:#A80036;stroke-width:1.5;" width="134" x="382" y="1047"/><ellipse cx="421.3" cy="1063" fill="#ADD1B2" rx="11" ry="11" style="stroke:#A80036;stroke-width:1.0;"/><path d="M423.6438,1058.6719 C422.7063,1058.2344 422.1125,1058.0938 421.2375,1058.0938 C418.6125,1058.0938 416.6125,1060.1719 416.6125,1062.8906 L416.6125,1064.0156 C416.6125,1066.5938 418.7219,1068.4844 421.6125,1068.4844 C422.8313,1068.4844 423.9875,1068.1875 424.7375,1067.6406 C425.3156,1067.2344 425.6438,1066.7813 425.6438,1066.3906 C425.6438,1065.9375 425.2531,1065.5469 424.7844,1065.5469 C424.5656,1065.5469 424.3625,1065.625 424.175,1065.8125 C423.7219,1066.2969 423.7219,1066.2969 423.5344,1066.3906 C423.1125,1066.6563 422.425,1066.7813 421.6594,1066.7813 C419.6125,1066.7813 418.3156,1065.6875 418.3156,1063.9844 L418.3156,1062.8906 C418.3156,1061.1094 419.5656,1059.7969 421.3,1059.7969 C421.8781,1059.7969 422.4875,1059.9531 422.9563,1060.2031 C423.4406,1060.4844 423.6125,1060.7031 423.7063,1061.1094 C423.7688,1061.5156 423.8,1061.6406 423.9406,1061.7656 C424.0813,1061.9063 424.3156,1062.0156 424.5344,1062.0156 C424.8,1062.0156 425.0656,1061.875 425.2375,1061.6563 C425.3469,1061.5 425.3781,1061.3125 425.3781,1060.8906 L425.3781,1059.4688 C425.3781,1059.0313 425.3625,1058.9063 425.2688,1058.75 C425.1125,1058.4844 424.8313,1058.3438 424.5344,1058.3438 C424.2375,1058.3438 424.0344,1058.4375 423.8156,1058.75 L423.6438,1058.6719 Z " fill="#000000"/><text fill="#000000" font-family="sans-serif" font-size="12" lengthAdjust="spacing" textLength="48" x="440.7" y="1067.1543">Scooter</text><line style="stroke:#A80036;stroke-width:1.5;" x1="383" x2="515" y1="1079" y2="1079"/><text fill="#000000" font-family="sans-serif" font-size="11" lengthAdjust="spacing" textLength="58" x="388" y="1093.2104">-idScooter</text><text fill="#000000" font-family="sans-serif" font-size="11" lengthAdjust="spacing" textLength="122" x="388" y="1106.0151">-percentagemBateria</text><text fill="#000000" font-family="sans-serif" font-size="11" lengthAdjust="spacing" textLength="76" x="388" y="1118.8198">-pesoMaximo</text><text fill="#000000" font-family="sans-serif" font-size="11" lengthAdjust="spacing" textLength="76" x="388" y="1131.6245">-pesoScooter</text><text fill="#000000" font-family="sans-serif" font-size="11" lengthAdjust="spacing" textLength="53" x="388" y="1144.4292">-potencia</text><line style="stroke:#A80036;stroke-width:1.5;" x1="383" x2="515" y1="1151.0234" y2="1151.0234"/><!--MD5=[1593fa6ac82b73031c98001dcbb43056]
link RegistarEntregaUI to RegistarEntregaController--><path codeLine="81" d="M404,55.09 C404,70.09 404,90.56 404,110.77 " fill="none" id="RegistarEntregaUI-to-RegistarEntregaController" style="stroke:#A80036;stroke-width:1.0;stroke-dasharray:7.0,7.0;"/><polygon fill="#A80036" points="404,115.9,408,106.9,404,110.9,400,106.9,404,115.9" style="stroke:#A80036;stroke-width:1.0;"/><!--MD5=[f3f72dc95338026d83cf258b0336abf9]
link RegistarEntregaController to EstafetaDB--><path codeLine="83" d="M443.189,254.064 C455.628,275.669 468.852,298.637 479.304,316.791 " fill="none" id="RegistarEntregaController-to-EstafetaDB" style="stroke:#A80036;stroke-width:1.0;stroke-dasharray:7.0,7.0;"/><polygon fill="#A80036" points="481.899,321.299,480.873,311.5037,479.4034,316.9663,473.9408,315.4967,481.899,321.299" style="stroke:#A80036;stroke-width:1.0;"/><!--MD5=[51c8078cdce16ec2931503df013aa567]
link RegistarEntregaController to EntregaDB--><path codeLine="84" d="M527.018,254.051 C553.722,271.906 580.636,292.529 603,315 C631.776,343.913 656.668,382.265 674.658,414.059 " fill="none" id="RegistarEntregaController-to-EntregaDB" style="stroke:#A80036;stroke-width:1.0;stroke-dasharray:7.0,7.0;"/><polygon fill="#A80036" points="677.262,418.7,676.3451,408.8939,674.8148,414.3398,669.3688,412.8095,677.262,418.7" style="stroke:#A80036;stroke-width:1.0;"/><!--MD5=[d9064612604f914b9782a6af88293211]
link RegistarEntregaController to EncomendaDB--><path codeLine="85" d="M622.58,254.042 C706.799,290.489 796.87,343.78 856,419 C925.159,506.978 936.167,646.172 937.33,710.624 " fill="none" id="RegistarEntregaController-to-EncomendaDB" style="stroke:#A80036;stroke-width:1.0;stroke-dasharray:7.0,7.0;"/><polygon fill="#A80036" points="937.406,715.88,941.2744,706.8227,937.3332,710.8805,933.2753,706.9392,937.406,715.88" style="stroke:#A80036;stroke-width:1.0;"/><!--MD5=[efb788ef30840c93bcc318b186081c80]
link RegistarEntregaController to ScooterDB--><path codeLine="86" d="M390.018,254.252 C378.107,312.392 361.478,393.563 352.124,439.224 " fill="none" id="RegistarEntregaController-to-ScooterDB" style="stroke:#A80036;stroke-width:1.0;stroke-dasharray:7.0,7.0;"/><polygon fill="#A80036" points="351.076,444.341,356.7998,436.3261,352.0788,439.4426,348.9624,434.7216,351.076,444.341" style="stroke:#A80036;stroke-width:1.0;"/><!--MD5=[2f7ce0bd8a6eb8b37f480aeb7a8943c1]
link RegistarEntregaController to AplicacaoPOT--><path codeLine="87" d="M267.046,254.064 C224.139,275.389 178.56,298.041 142.26,316.081 " fill="none" id="RegistarEntregaController-to-AplicacaoPOT" style="stroke:#A80036;stroke-width:1.0;stroke-dasharray:7.0,7.0;"/><polygon fill="#A80036" points="137.428,318.483,147.2678,318.0597,141.9056,316.2578,143.7074,310.8956,137.428,318.483" style="stroke:#A80036;stroke-width:1.0;"/><!--MD5=[13e18cca587fedea4b01b5758c9bdbf6]
link RegistarEntregaController to SessaoUtilizador--><path codeLine="88" d="M335.936,254.064 C313.965,276.035 290.584,299.416 272.29,317.71 " fill="none" id="RegistarEntregaController-to-SessaoUtilizador" style="stroke:#A80036;stroke-width:1.0;stroke-dasharray:7.0,7.0;"/><polygon fill="#A80036" points="268.701,321.299,277.8934,317.7635,272.2365,317.7635,272.2365,312.1066,268.701,321.299" style="stroke:#A80036;stroke-width:1.0;"/><!--MD5=[4c7211caded616e3e77a70a7b669ae10]
link EntregaDB to Entrega--><path codeLine="90" d="M695.9,531.07 C684.444,600.395 664.639,720.243 651.188,801.641 " fill="none" id="EntregaDB-to-Entrega" style="stroke:#A80036;stroke-width:1.0;"/><polygon fill="#A80036" points="650.311,806.946,655.7234,798.7177,651.1253,802.0128,647.8302,797.4147,650.311,806.946" style="stroke:#A80036;stroke-width:1.0;"/><text fill="#000000" font-family="sans-serif" font-size="13" lengthAdjust="spacing" textLength="97" x="692" y="628.0669">tem registadas</text><text fill="#000000" font-family="sans-serif" font-size="13" lengthAdjust="spacing" textLength="8" x="686.2216" y="551.2888">1</text><text fill="#000000" font-family="sans-serif" font-size="13" lengthAdjust="spacing" textLength="7" x="644.2155" y="795.7982">*</text><!--MD5=[a3e63c72779e49a48819b249af53bae4]
link EstafetaDB to Estafeta--><path codeLine="91" d="M473.313,382.548 C465.54,393.297 458.006,406.013 454,419 C439.327,466.566 444.725,482.094 454,531 C455.554,539.195 457.826,547.594 460.486,555.822 " fill="none" id="EstafetaDB-to-Estafeta" style="stroke:#A80036;stroke-width:1.0;"/><polygon fill="#A80036" points="462.189,560.92,463.1306,551.1163,460.6044,556.1777,455.543,553.6516,462.189,560.92" style="stroke:#A80036;stroke-width:1.0;"/><text fill="#000000" font-family="sans-serif" font-size="13" lengthAdjust="spacing" textLength="97" x="455" y="479.5669">tem registadas</text><text fill="#000000" font-family="sans-serif" font-size="13" lengthAdjust="spacing" textLength="8" x="459.1901" y="402.4961">1</text><text fill="#000000" font-family="sans-serif" font-size="13" lengthAdjust="spacing" textLength="7" x="451.5687" y="549.9015">*</text><!--MD5=[7177515c401312a3f4890a50ab42ecc9]
link EncomendaDB to Encomenda--><path codeLine="92" d="M939.725,777.283 C942.394,822.387 941.705,909.192 905,970 C876.586,1017.073 824.334,1052.31 783.083,1074.4822 " fill="none" id="EncomendaDB-to-Encomenda" style="stroke:#A80036;stroke-width:1.0;"/><polygon fill="#A80036" points="778.619,1076.8539,788.4437,1076.1639,783.0346,1074.5081,784.6904,1069.099,778.619,1076.8539" style="stroke:#A80036;stroke-width:1.0;"/><text fill="#000000" font-family="sans-serif" font-size="13" lengthAdjust="spacing" textLength="97" x="942" y="893.0669">tem registadas</text><text fill="#000000" font-family="sans-serif" font-size="13" lengthAdjust="spacing" textLength="8" x="931.474" y="796.9192">1</text><text fill="#000000" font-family="sans-serif" font-size="13" lengthAdjust="spacing" textLength="7" x="786.5631" y="1069.3938">*</text><!--MD5=[44650545f701211ba2acbe8172184bfb]
link ScooterDB to Scooter--><path codeLine="93" d="M341.501,505.53 C333.297,583.522 317.222,800.642 369,970 C376.749,995.346 390.452,1020.81 404.351,1042.518 " fill="none" id="ScooterDB-to-Scooter" style="stroke:#A80036;stroke-width:1.0;"/><polygon fill="#A80036" points="407.132,1046.809,405.5926,1037.0812,404.4121,1042.6135,398.8798,1041.433,407.132,1046.809" style="stroke:#A80036;stroke-width:1.0;"/><text fill="#000000" font-family="sans-serif" font-size="13" lengthAdjust="spacing" textLength="97" x="337" y="751.0669">tem registadas</text><text fill="#000000" font-family="sans-serif" font-size="13" lengthAdjust="spacing" textLength="8" x="331.9543" y="525.4744">1</text><text fill="#000000" font-family="sans-serif" font-size="13" lengthAdjust="spacing" textLength="7" x="394.6028" y="1036.1202">*</text><!--MD5=[39609d66ce6d06d1779a14455c909f6f]
link Entrega to Encomenda--><path codeLine="95" d="M669.636,970.14 C680.992,998.201 693.374,1028.797 703.35,1053.446 " fill="none" id="Entrega-Encomenda" style="stroke:#A80036;stroke-width:1.0;"/><polygon fill="#000000" points="694.8757,1013.2012,694.2068,1003.7142,688.7582,1005.9193,694.8757,1013.2012" style="stroke:#000000;stroke-width:1.0;"/><text fill="#000000" font-family="sans-serif" font-size="13" lengthAdjust="spacing" textLength="41" x="702" y="1013.0669">possui</text><text fill="#000000" font-family="sans-serif" font-size="13" lengthAdjust="spacing" textLength="8" x="664.2759" y="990.4194">1</text><text fill="#000000" font-family="sans-serif" font-size="13" lengthAdjust="spacing" textLength="7" x="693.0945" y="1042.4836">*</text><!--MD5=[328dae9b2f192140d45e51cd90ecd75a]
link Estafeta to Entrega--><path codeLine="96" d="M524.465,686.162 C544.577,722.145 570.182,767.955 591.886,806.786 " fill="none" id="Estafeta-Entrega" style="stroke:#A80036;stroke-width:1.0;"/><polygon fill="#000000" points="580.4395,750.9309,578.5918,741.6016,573.461,744.4693,580.4395,750.9309" style="stroke:#000000;stroke-width:1.0;"/><text fill="#000000" font-family="sans-serif" font-size="13" lengthAdjust="spacing" textLength="42" x="587" y="751.0669">realiza</text><text fill="#000000" font-family="sans-serif" font-size="13" lengthAdjust="spacing" textLength="8" x="519.7971" y="705.9195">1</text><text fill="#000000" font-family="sans-serif" font-size="13" lengthAdjust="spacing" textLength="7" x="580.5563" y="795.9024">*</text><!--MD5=[f440ac15537f19f21c80dc932ffd2bf8]
link Entrega to Scooter--><path codeLine="97" d="M565.657,970.14 C543.013,995.736 518.502,1023.44 497.821,1046.817 " fill="none" id="Entrega-Scooter" style="stroke:#A80036;stroke-width:1.0;"/><polygon fill="#000000" points="546.313,1004.8216,538.1185,1009.6487,542.5208,1013.5434,546.313,1004.8216" style="stroke:#000000;stroke-width:1.0;"/><text fill="#000000" font-family="sans-serif" font-size="13" lengthAdjust="spacing" textLength="42" x="552" y="1013.0669">realiza</text><text fill="#000000" font-family="sans-serif" font-size="13" lengthAdjust="spacing" textLength="7" x="551.7574" y="990.4194">*</text><text fill="#000000" font-family="sans-serif" font-size="13" lengthAdjust="spacing" textLength="8" x="495.2836" y="1036.1292">1</text><!--MD5=[0237d36fabc997b36757a4f1084f05cd]
@startuml
skinparam classAttributeIconSize 0

class AplicacaoPOT{
  +static getInstance()
  +getSessaoAtual()
}

class SessaoUtilizador{
  +getEmailUtilizador()
}

class ScooterDB {
  +getListaScooter()
}

class EncomendaDB {
  +getListaEncomenda(
}

class Entrega {
  -Integer idEntrega
  -String dataInicio
  -String dataFim
  +create(idEntrega, dataInicio, dataFim)
  +addEstafeta(est)
  +novaEncomenda(idEncomenda, dataPedida, preco, estadoEncomenda, listaProdutos)
  +addEncomenda(en)
  +novaScooter(idScooter, percentagemBateria, potencia, pesoMaximo)
  +addScooter(s)
}

class EntregaDB {
  +generateIdEntrega()
  +novaEntrega(idEntrega, dataInicio, dataFim)
  +registaEntrega(entr)
  +validaEntrega(entr)
  +addEntrega(entr)
}

class EstafetaDB {
  +getEstafetaByEmail(email)
}

class RegistarEntregaController {
  +getEstafeta()
  +novaEntrega(dataInicio, dataFim)
  +getListaEncomenda()
  +novaEncomenda(idEncomenda, dataPedida, preco, estadoEncomenda, listaProdutos)
  +getListaScooter()
  +novaScooter(idScooter, percentagemBateria, potencia, pesoMaximo)
  +registaEntrega()
}

class RegistarEntregaUI {
}

class Encomenda {
  -idEncomenda
  -dataPedida
  -preco
  -pesoEncomenda
}

class Estafeta {
  -NIF
  -nome
  -email
  -numeroSegurancaSocial
  -password
  -pesoEstafeta
}

class Scooter {
  -idScooter
  -percentagemBateria
  -pesoMaximo
  -pesoScooter
  -potencia
}

RegistarEntregaUI ..> RegistarEntregaController

RegistarEntregaController ..> EstafetaDB
RegistarEntregaController ..> EntregaDB
RegistarEntregaController ..> EncomendaDB
RegistarEntregaController ..> ScooterDB
RegistarEntregaController ..> AplicacaoPOT
RegistarEntregaController ..> SessaoUtilizador

EntregaDB "1" - -> "*" Entrega : tem registadas
EstafetaDB "1" - -> "*" Estafeta : tem registadas
EncomendaDB "1" - -> "*" Encomenda : tem registadas
ScooterDB "1" - -> "*" Scooter : tem registadas

Entrega "1" - - "*" Encomenda : possui >
Estafeta "1" - - "*" Entrega: realiza >
Entrega "*" - - "1" Scooter: realiza <
@enduml

PlantUML version 1.2020.27beta7(Unknown compile time)
(GPL source distribution)
Java Runtime: Java(TM) SE Runtime Environment
JVM: Java HotSpot(TM) 64-Bit Server VM
Default Encoding: UTF-8
Language: en
Country: US
--></g></svg>