<?xml version="1.0" encoding="UTF-8" standalone="no"?><svg xmlns="http://www.w3.org/2000/svg" xmlns:xlink="http://www.w3.org/1999/xlink" contentScriptType="application/ecmascript" contentStyleType="text/css" height="545px" preserveAspectRatio="none" style="width:1014px;height:545px;" version="1.1" viewBox="0 0 1014 545" width="1014px" zoomAndPan="magnify"><defs><filter height="300%" id="fek157d3errk8" width="300%" x="-1" y="-1"><feGaussianBlur result="blurOut" stdDeviation="2.0"/><feColorMatrix in="blurOut" result="blurOut2" type="matrix" values="0 0 0 0 0 0 0 0 0 0 0 0 0 0 0 0 0 0 .4 0"/><feOffset dx="4.0" dy="4.0" in="blurOut2" result="blurOut3"/><feBlend in="SourceGraphic" in2="blurOut3" mode="normal"/></filter></defs><g><!--MD5=[3179f819b5ca0f9c8a1bd58e9144681b]
class Entrega--><rect codeLine="5" fill="#FEFECE" filter="url(#fek157d3errk8)" height="78.4141" id="Entrega" style="stroke:#A80036;stroke-width:1.5;" width="78" x="317.5" y="349.563"/><ellipse cx="332.5" cy="365.563" fill="#ADD1B2" rx="11" ry="11" style="stroke:#A80036;stroke-width:1.0;"/><path d="M334.8438,361.2349 C333.9063,360.7974 333.3125,360.6568 332.4375,360.6568 C329.8125,360.6568 327.8125,362.7349 327.8125,365.4536 L327.8125,366.5786 C327.8125,369.1568 329.9219,371.0474 332.8125,371.0474 C334.0313,371.0474 335.1875,370.7505 335.9375,370.2036 C336.5156,369.7974 336.8438,369.3443 336.8438,368.9536 C336.8438,368.5005 336.4531,368.1099 335.9844,368.1099 C335.7656,368.1099 335.5625,368.188 335.375,368.3755 C334.9219,368.8599 334.9219,368.8599 334.7344,368.9536 C334.3125,369.2193 333.625,369.3443 332.8594,369.3443 C330.8125,369.3443 329.5156,368.2505 329.5156,366.5474 L329.5156,365.4536 C329.5156,363.6724 330.7656,362.3599 332.5,362.3599 C333.0781,362.3599 333.6875,362.5161 334.1563,362.7661 C334.6406,363.0474 334.8125,363.2661 334.9063,363.6724 C334.9688,364.0786 335,364.2036 335.1406,364.3286 C335.2813,364.4693 335.5156,364.5786 335.7344,364.5786 C336,364.5786 336.2656,364.438 336.4375,364.2193 C336.5469,364.063 336.5781,363.8755 336.5781,363.4536 L336.5781,362.0318 C336.5781,361.5943 336.5625,361.4693 336.4688,361.313 C336.3125,361.0474 336.0313,360.9068 335.7344,360.9068 C335.4375,360.9068 335.2344,361.0005 335.0156,361.313 L334.8438,361.2349 Z " fill="#000000"/><text fill="#000000" font-family="sans-serif" font-size="12" lengthAdjust="spacing" textLength="46" x="346.5" y="369.7173">Entrega</text><line style="stroke:#A80036;stroke-width:1.5;" x1="318.5" x2="394.5" y1="381.563" y2="381.563"/><text fill="#000000" font-family="sans-serif" font-size="11" lengthAdjust="spacing" textLength="58" x="323.5" y="395.7734">-idEntrega</text><text fill="#000000" font-family="sans-serif" font-size="11" lengthAdjust="spacing" textLength="58" x="323.5" y="408.5781">-dataInicio</text><text fill="#000000" font-family="sans-serif" font-size="11" lengthAdjust="spacing" textLength="49" x="323.5" y="421.3828">-dataFim</text><!--MD5=[c55f92ccbf0646788158d42f3399cc78]
class Encomenda--><rect codeLine="11" fill="#FEFECE" filter="url(#fek157d3errk8)" height="78.4141" id="Encomenda" style="stroke:#A80036;stroke-width:1.5;" width="102" x="625.5" y="170.563"/><ellipse cx="640.5" cy="186.563" fill="#ADD1B2" rx="11" ry="11" style="stroke:#A80036;stroke-width:1.0;"/><path d="M642.8438,182.2349 C641.9063,181.7974 641.3125,181.6568 640.4375,181.6568 C637.8125,181.6568 635.8125,183.7349 635.8125,186.4536 L635.8125,187.5786 C635.8125,190.1568 637.9219,192.0474 640.8125,192.0474 C642.0313,192.0474 643.1875,191.7505 643.9375,191.2036 C644.5156,190.7974 644.8438,190.3443 644.8438,189.9536 C644.8438,189.5005 644.4531,189.1099 643.9844,189.1099 C643.7656,189.1099 643.5625,189.188 643.375,189.3755 C642.9219,189.8599 642.9219,189.8599 642.7344,189.9536 C642.3125,190.2193 641.625,190.3443 640.8594,190.3443 C638.8125,190.3443 637.5156,189.2505 637.5156,187.5474 L637.5156,186.4536 C637.5156,184.6724 638.7656,183.3599 640.5,183.3599 C641.0781,183.3599 641.6875,183.5161 642.1563,183.7661 C642.6406,184.0474 642.8125,184.2661 642.9063,184.6724 C642.9688,185.0786 643,185.2036 643.1406,185.3286 C643.2813,185.4693 643.5156,185.5786 643.7344,185.5786 C644,185.5786 644.2656,185.438 644.4375,185.2193 C644.5469,185.063 644.5781,184.8755 644.5781,184.4536 L644.5781,183.0318 C644.5781,182.5943 644.5625,182.4693 644.4688,182.313 C644.3125,182.0474 644.0313,181.9068 643.7344,181.9068 C643.4375,181.9068 643.2344,182.0005 643.0156,182.313 L642.8438,182.2349 Z " fill="#000000"/><text fill="#000000" font-family="sans-serif" font-size="12" lengthAdjust="spacing" textLength="70" x="654.5" y="190.7173">Encomenda</text><line style="stroke:#A80036;stroke-width:1.5;" x1="626.5" x2="726.5" y1="202.563" y2="202.563"/><text fill="#000000" font-family="sans-serif" font-size="11" lengthAdjust="spacing" textLength="81" x="631.5" y="216.7734">-idEncomenda</text><text fill="#000000" font-family="sans-serif" font-size="11" lengthAdjust="spacing" textLength="67" x="631.5" y="229.5781">-dataPedida</text><text fill="#000000" font-family="sans-serif" font-size="11" lengthAdjust="spacing" textLength="36" x="631.5" y="242.3828">-preco</text><!--MD5=[533e824b6b94274ee39bf5a43d7cce2a]
class EstadoEncomenda--><rect codeLine="17" fill="#FEFECE" filter="url(#fek157d3errk8)" height="65.6094" id="EstadoEncomenda" style="stroke:#A80036;stroke-width:1.5;" width="145" x="855" y="200.563"/><ellipse cx="870.9" cy="216.563" fill="#ADD1B2" rx="11" ry="11" style="stroke:#A80036;stroke-width:1.0;"/><path d="M873.2438,212.2349 C872.3063,211.7974 871.7125,211.6568 870.8375,211.6568 C868.2125,211.6568 866.2125,213.7349 866.2125,216.4536 L866.2125,217.5786 C866.2125,220.1568 868.3219,222.0474 871.2125,222.0474 C872.4313,222.0474 873.5875,221.7505 874.3375,221.2036 C874.9156,220.7974 875.2438,220.3443 875.2438,219.9536 C875.2438,219.5005 874.8531,219.1099 874.3844,219.1099 C874.1656,219.1099 873.9625,219.188 873.775,219.3755 C873.3219,219.8599 873.3219,219.8599 873.1344,219.9536 C872.7125,220.2193 872.025,220.3443 871.2594,220.3443 C869.2125,220.3443 867.9156,219.2505 867.9156,217.5474 L867.9156,216.4536 C867.9156,214.6724 869.1656,213.3599 870.9,213.3599 C871.4781,213.3599 872.0875,213.5161 872.5563,213.7661 C873.0406,214.0474 873.2125,214.2661 873.3063,214.6724 C873.3688,215.0786 873.4,215.2036 873.5406,215.3286 C873.6813,215.4693 873.9156,215.5786 874.1344,215.5786 C874.4,215.5786 874.6656,215.438 874.8375,215.2193 C874.9469,215.063 874.9781,214.8755 874.9781,214.4536 L874.9781,213.0318 C874.9781,212.5943 874.9625,212.4693 874.8688,212.313 C874.7125,212.0474 874.4313,211.9068 874.1344,211.9068 C873.8375,211.9068 873.6344,212.0005 873.4156,212.313 L873.2438,212.2349 Z " fill="#000000"/><text fill="#000000" font-family="sans-serif" font-size="12" lengthAdjust="spacing" textLength="111" x="885.1" y="220.7173">EstadoEncomenda</text><line style="stroke:#A80036;stroke-width:1.5;" x1="856" x2="999" y1="232.563" y2="232.563"/><text fill="#000000" font-family="sans-serif" font-size="11" lengthAdjust="spacing" textLength="133" x="861" y="246.7734">-id_estado_encomenda</text><text fill="#000000" font-family="sans-serif" font-size="11" lengthAdjust="spacing" textLength="69" x="861" y="259.5781">-designacao</text><!--MD5=[d4dacc50d49878ba7c621dfc80a2e1ce]
class Produto--><rect codeLine="22" fill="#FEFECE" filter="url(#fek157d3errk8)" height="91.2188" id="Produto" style="stroke:#A80036;stroke-width:1.5;" width="81" x="887" y="74.063"/><ellipse cx="903.35" cy="90.063" fill="#ADD1B2" rx="11" ry="11" style="stroke:#A80036;stroke-width:1.0;"/><path d="M905.6938,85.7349 C904.7563,85.2974 904.1625,85.1567 903.2875,85.1567 C900.6625,85.1567 898.6625,87.2349 898.6625,89.9536 L898.6625,91.0786 C898.6625,93.6567 900.7719,95.5474 903.6625,95.5474 C904.8813,95.5474 906.0375,95.2505 906.7875,94.7036 C907.3656,94.2974 907.6938,93.8442 907.6938,93.4536 C907.6938,93.0005 907.3031,92.6099 906.8344,92.6099 C906.6156,92.6099 906.4125,92.688 906.225,92.8755 C905.7719,93.3599 905.7719,93.3599 905.5844,93.4536 C905.1625,93.7192 904.475,93.8442 903.7094,93.8442 C901.6625,93.8442 900.3656,92.7505 900.3656,91.0474 L900.3656,89.9536 C900.3656,88.1724 901.6156,86.8599 903.35,86.8599 C903.9281,86.8599 904.5375,87.0161 905.0063,87.2661 C905.4906,87.5474 905.6625,87.7661 905.7563,88.1724 C905.8188,88.5786 905.85,88.7036 905.9906,88.8286 C906.1313,88.9692 906.3656,89.0786 906.5844,89.0786 C906.85,89.0786 907.1156,88.938 907.2875,88.7192 C907.3969,88.563 907.4281,88.3755 907.4281,87.9536 L907.4281,86.5317 C907.4281,86.0942 907.4125,85.9692 907.3188,85.813 C907.1625,85.5474 906.8813,85.4067 906.5844,85.4067 C906.2875,85.4067 906.0844,85.5005 905.8656,85.813 L905.6938,85.7349 Z " fill="#000000"/><text fill="#000000" font-family="sans-serif" font-size="12" lengthAdjust="spacing" textLength="46" x="917.65" y="94.2173">Produto</text><line style="stroke:#A80036;stroke-width:1.5;" x1="888" x2="967" y1="106.063" y2="106.063"/><text fill="#000000" font-family="sans-serif" font-size="11" lengthAdjust="spacing" textLength="56" x="893" y="120.2734">-idProduto</text><text fill="#000000" font-family="sans-serif" font-size="11" lengthAdjust="spacing" textLength="69" x="893" y="133.0781">-designacao</text><text fill="#000000" font-family="sans-serif" font-size="11" lengthAdjust="spacing" textLength="32" x="893" y="145.8828">-peso</text><text fill="#000000" font-family="sans-serif" font-size="11" lengthAdjust="spacing" textLength="65" x="893" y="158.6875">-precoBase</text><!--MD5=[3f1202280bfe3359d2f91fb9b6e32986]
class Estafeta--><rect codeLine="29" fill="#FEFECE" filter="url(#fek157d3errk8)" height="104.0234" id="Estafeta" style="stroke:#A80036;stroke-width:1.5;" width="155" x="7" y="229.563"/><ellipse cx="56.25" cy="245.563" fill="#ADD1B2" rx="11" ry="11" style="stroke:#A80036;stroke-width:1.0;"/><path d="M58.5938,241.2349 C57.6563,240.7974 57.0625,240.6568 56.1875,240.6568 C53.5625,240.6568 51.5625,242.7349 51.5625,245.4536 L51.5625,246.5786 C51.5625,249.1568 53.6719,251.0474 56.5625,251.0474 C57.7813,251.0474 58.9375,250.7505 59.6875,250.2036 C60.2656,249.7974 60.5938,249.3443 60.5938,248.9536 C60.5938,248.5005 60.2031,248.1099 59.7344,248.1099 C59.5156,248.1099 59.3125,248.188 59.125,248.3755 C58.6719,248.8599 58.6719,248.8599 58.4844,248.9536 C58.0625,249.2193 57.375,249.3443 56.6094,249.3443 C54.5625,249.3443 53.2656,248.2505 53.2656,246.5474 L53.2656,245.4536 C53.2656,243.6724 54.5156,242.3599 56.25,242.3599 C56.8281,242.3599 57.4375,242.5161 57.9063,242.7661 C58.3906,243.0474 58.5625,243.2661 58.6563,243.6724 C58.7188,244.0786 58.75,244.2036 58.8906,244.3286 C59.0313,244.4693 59.2656,244.5786 59.4844,244.5786 C59.75,244.5786 60.0156,244.438 60.1875,244.2193 C60.2969,244.063 60.3281,243.8755 60.3281,243.4536 L60.3281,242.0318 C60.3281,241.5943 60.3125,241.4693 60.2188,241.313 C60.0625,241.0474 59.7813,240.9068 59.4844,240.9068 C59.1875,240.9068 58.9844,241.0005 58.7656,241.313 L58.5938,241.2349 Z " fill="#000000"/><text fill="#000000" font-family="sans-serif" font-size="12" lengthAdjust="spacing" textLength="48" x="76.75" y="249.7173">Estafeta</text><line style="stroke:#A80036;stroke-width:1.5;" x1="8" x2="161" y1="261.563" y2="261.563"/><text fill="#000000" font-family="sans-serif" font-size="11" lengthAdjust="spacing" textLength="21" x="13" y="275.7734">-NIF</text><text fill="#000000" font-family="sans-serif" font-size="11" lengthAdjust="spacing" textLength="37" x="13" y="288.5781">-nome</text><text fill="#000000" font-family="sans-serif" font-size="11" lengthAdjust="spacing" textLength="36" x="13" y="301.3828">-email</text><text fill="#000000" font-family="sans-serif" font-size="11" lengthAdjust="spacing" textLength="143" x="13" y="314.1875">-numeroSegurancaSocial</text><text fill="#000000" font-family="sans-serif" font-size="11" lengthAdjust="spacing" textLength="57" x="13" y="326.9922">-password</text><!--MD5=[b1b5bcb3873f5e6d986aef558b6021e9]
class EstadoEstafeta--><rect codeLine="37" fill="#FEFECE" filter="url(#fek157d3errk8)" height="65.6094" id="EstadoEstafeta" style="stroke:#A80036;stroke-width:1.5;" width="125" x="294" y="248.563"/><ellipse cx="310.8" cy="264.563" fill="#ADD1B2" rx="11" ry="11" style="stroke:#A80036;stroke-width:1.0;"/><path d="M313.1438,260.2349 C312.2063,259.7974 311.6125,259.6568 310.7375,259.6568 C308.1125,259.6568 306.1125,261.7349 306.1125,264.4536 L306.1125,265.5786 C306.1125,268.1568 308.2219,270.0474 311.1125,270.0474 C312.3313,270.0474 313.4875,269.7505 314.2375,269.2036 C314.8156,268.7974 315.1438,268.3443 315.1438,267.9536 C315.1438,267.5005 314.7531,267.1099 314.2844,267.1099 C314.0656,267.1099 313.8625,267.188 313.675,267.3755 C313.2219,267.8599 313.2219,267.8599 313.0344,267.9536 C312.6125,268.2193 311.925,268.3443 311.1594,268.3443 C309.1125,268.3443 307.8156,267.2505 307.8156,265.5474 L307.8156,264.4536 C307.8156,262.6724 309.0656,261.3599 310.8,261.3599 C311.3781,261.3599 311.9875,261.5161 312.4563,261.7661 C312.9406,262.0474 313.1125,262.2661 313.2063,262.6724 C313.2688,263.0786 313.3,263.2036 313.4406,263.3286 C313.5813,263.4693 313.8156,263.5786 314.0344,263.5786 C314.3,263.5786 314.5656,263.438 314.7375,263.2193 C314.8469,263.063 314.8781,262.8755 314.8781,262.4536 L314.8781,261.0318 C314.8781,260.5943 314.8625,260.4693 314.7688,260.313 C314.6125,260.0474 314.3313,259.9068 314.0344,259.9068 C313.7375,259.9068 313.5344,260.0005 313.3156,260.313 L313.1438,260.2349 Z " fill="#000000"/><text fill="#000000" font-family="sans-serif" font-size="12" lengthAdjust="spacing" textLength="89" x="325.2" y="268.7173">EstadoEstafeta</text><line style="stroke:#A80036;stroke-width:1.5;" x1="295" x2="418" y1="280.563" y2="280.563"/><text fill="#000000" font-family="sans-serif" font-size="11" lengthAdjust="spacing" textLength="113" x="300" y="294.7734">-id_estado_estafeta</text><text fill="#000000" font-family="sans-serif" font-size="11" lengthAdjust="spacing" textLength="69" x="300" y="307.5781">-designacao</text><!--MD5=[5dd1d6732c071e710b9290b531f2fa3b]
class Utilizador--><rect codeLine="42" fill="#FEFECE" filter="url(#fek157d3errk8)" height="104.0234" id="Utilizador" style="stroke:#A80036;stroke-width:1.5;" width="155" x="599" y="22.563"/><ellipse cx="643.75" cy="38.563" fill="#ADD1B2" rx="11" ry="11" style="stroke:#A80036;stroke-width:1.0;"/><path d="M646.0938,34.2349 C645.1563,33.7974 644.5625,33.6567 643.6875,33.6567 C641.0625,33.6567 639.0625,35.7349 639.0625,38.4536 L639.0625,39.5786 C639.0625,42.1567 641.1719,44.0474 644.0625,44.0474 C645.2813,44.0474 646.4375,43.7505 647.1875,43.2036 C647.7656,42.7974 648.0938,42.3442 648.0938,41.9536 C648.0938,41.5005 647.7031,41.1099 647.2344,41.1099 C647.0156,41.1099 646.8125,41.188 646.625,41.3755 C646.1719,41.8599 646.1719,41.8599 645.9844,41.9536 C645.5625,42.2192 644.875,42.3442 644.1094,42.3442 C642.0625,42.3442 640.7656,41.2505 640.7656,39.5474 L640.7656,38.4536 C640.7656,36.6724 642.0156,35.3599 643.75,35.3599 C644.3281,35.3599 644.9375,35.5161 645.4063,35.7661 C645.8906,36.0474 646.0625,36.2661 646.1563,36.6724 C646.2188,37.0786 646.25,37.2036 646.3906,37.3286 C646.5313,37.4692 646.7656,37.5786 646.9844,37.5786 C647.25,37.5786 647.5156,37.438 647.6875,37.2192 C647.7969,37.063 647.8281,36.8755 647.8281,36.4536 L647.8281,35.0317 C647.8281,34.5942 647.8125,34.4692 647.7188,34.313 C647.5625,34.0474 647.2813,33.9067 646.9844,33.9067 C646.6875,33.9067 646.4844,34.0005 646.2656,34.313 L646.0938,34.2349 Z " fill="#000000"/><text fill="#000000" font-family="sans-serif" font-size="12" lengthAdjust="spacing" textLength="57" x="664.25" y="42.7173">Utilizador</text><line style="stroke:#A80036;stroke-width:1.5;" x1="600" x2="753" y1="54.563" y2="54.563"/><text fill="#000000" font-family="sans-serif" font-size="11" lengthAdjust="spacing" textLength="21" x="605" y="68.7734">-NIF</text><text fill="#000000" font-family="sans-serif" font-size="11" lengthAdjust="spacing" textLength="37" x="605" y="81.5781">-nome</text><text fill="#000000" font-family="sans-serif" font-size="11" lengthAdjust="spacing" textLength="36" x="605" y="94.3828">-email</text><text fill="#000000" font-family="sans-serif" font-size="11" lengthAdjust="spacing" textLength="143" x="605" y="107.1875">-numeroSegurancaSocial</text><text fill="#000000" font-family="sans-serif" font-size="11" lengthAdjust="spacing" textLength="57" x="605" y="119.9922">-password</text><!--MD5=[36c1942e8942a3e4f47e6de3733e3d18]
class Endereco--><rect codeLine="50" fill="#FEFECE" filter="url(#fek157d3errk8)" height="52.8047" id="Endereco" style="stroke:#A80036;stroke-width:1.5;" width="90" x="631.5" y="320.063"/><ellipse cx="646.5" cy="336.063" fill="#ADD1B2" rx="11" ry="11" style="stroke:#A80036;stroke-width:1.0;"/><path d="M648.8438,331.7349 C647.9063,331.2974 647.3125,331.1568 646.4375,331.1568 C643.8125,331.1568 641.8125,333.2349 641.8125,335.9536 L641.8125,337.0786 C641.8125,339.6568 643.9219,341.5474 646.8125,341.5474 C648.0313,341.5474 649.1875,341.2505 649.9375,340.7036 C650.5156,340.2974 650.8438,339.8443 650.8438,339.4536 C650.8438,339.0005 650.4531,338.6099 649.9844,338.6099 C649.7656,338.6099 649.5625,338.688 649.375,338.8755 C648.9219,339.3599 648.9219,339.3599 648.7344,339.4536 C648.3125,339.7193 647.625,339.8443 646.8594,339.8443 C644.8125,339.8443 643.5156,338.7505 643.5156,337.0474 L643.5156,335.9536 C643.5156,334.1724 644.7656,332.8599 646.5,332.8599 C647.0781,332.8599 647.6875,333.0161 648.1563,333.2661 C648.6406,333.5474 648.8125,333.7661 648.9063,334.1724 C648.9688,334.5786 649,334.7036 649.1406,334.8286 C649.2813,334.9693 649.5156,335.0786 649.7344,335.0786 C650,335.0786 650.2656,334.938 650.4375,334.7193 C650.5469,334.563 650.5781,334.3755 650.5781,333.9536 L650.5781,332.5318 C650.5781,332.0943 650.5625,331.9693 650.4688,331.813 C650.3125,331.5474 650.0313,331.4068 649.7344,331.4068 C649.4375,331.4068 649.2344,331.5005 649.0156,331.813 L648.8438,331.7349 Z " fill="#000000"/><text fill="#000000" font-family="sans-serif" font-size="12" lengthAdjust="spacing" textLength="58" x="660.5" y="340.2173">Endereco</text><line style="stroke:#A80036;stroke-width:1.5;" x1="632.5" x2="720.5" y1="352.063" y2="352.063"/><text fill="#000000" font-family="sans-serif" font-size="11" lengthAdjust="spacing" textLength="47" x="637.5" y="366.2734">-morada</text><!--MD5=[f03aecda799784b0020fee2e72b95698]
class LocalizacaoGPS--><rect codeLine="54" fill="#FEFECE" filter="url(#fek157d3errk8)" height="65.6094" id="LocalizacaoGPS" style="stroke:#A80036;stroke-width:1.5;" width="125" x="865" y="313.563"/><ellipse cx="880" cy="329.563" fill="#ADD1B2" rx="11" ry="11" style="stroke:#A80036;stroke-width:1.0;"/><path d="M882.3438,325.2349 C881.4063,324.7974 880.8125,324.6568 879.9375,324.6568 C877.3125,324.6568 875.3125,326.7349 875.3125,329.4536 L875.3125,330.5786 C875.3125,333.1568 877.4219,335.0474 880.3125,335.0474 C881.5313,335.0474 882.6875,334.7505 883.4375,334.2036 C884.0156,333.7974 884.3438,333.3443 884.3438,332.9536 C884.3438,332.5005 883.9531,332.1099 883.4844,332.1099 C883.2656,332.1099 883.0625,332.188 882.875,332.3755 C882.4219,332.8599 882.4219,332.8599 882.2344,332.9536 C881.8125,333.2193 881.125,333.3443 880.3594,333.3443 C878.3125,333.3443 877.0156,332.2505 877.0156,330.5474 L877.0156,329.4536 C877.0156,327.6724 878.2656,326.3599 880,326.3599 C880.5781,326.3599 881.1875,326.5161 881.6563,326.7661 C882.1406,327.0474 882.3125,327.2661 882.4063,327.6724 C882.4688,328.0786 882.5,328.2036 882.6406,328.3286 C882.7813,328.4693 883.0156,328.5786 883.2344,328.5786 C883.5,328.5786 883.7656,328.438 883.9375,328.2193 C884.0469,328.063 884.0781,327.8755 884.0781,327.4536 L884.0781,326.0318 C884.0781,325.5943 884.0625,325.4693 883.9688,325.313 C883.8125,325.0474 883.5313,324.9068 883.2344,324.9068 C882.9375,324.9068 882.7344,325.0005 882.5156,325.313 L882.3438,325.2349 Z " fill="#000000"/><text fill="#000000" font-family="sans-serif" font-size="12" lengthAdjust="spacing" textLength="93" x="894" y="333.7173">LocalizacaoGPS</text><line style="stroke:#A80036;stroke-width:1.5;" x1="866" x2="989" y1="345.563" y2="345.563"/><text fill="#000000" font-family="sans-serif" font-size="11" lengthAdjust="spacing" textLength="47" x="871" y="359.7734">-latitude</text><text fill="#000000" font-family="sans-serif" font-size="11" lengthAdjust="spacing" textLength="57" x="871" y="372.5781">-longitude</text><!--MD5=[1a083dbe42a284ae0ea7f6f701783206]
class Parque--><rect codeLine="59" fill="#FEFECE" filter="url(#fek157d3errk8)" height="52.8047" id="Parque" style="stroke:#A80036;stroke-width:1.5;" width="104" x="304.5" y="466.063"/><ellipse cx="333.45" cy="482.063" fill="#ADD1B2" rx="11" ry="11" style="stroke:#A80036;stroke-width:1.0;"/><path d="M335.7938,477.7349 C334.8563,477.2974 334.2625,477.1568 333.3875,477.1568 C330.7625,477.1568 328.7625,479.2349 328.7625,481.9536 L328.7625,483.0786 C328.7625,485.6568 330.8719,487.5474 333.7625,487.5474 C334.9813,487.5474 336.1375,487.2505 336.8875,486.7036 C337.4656,486.2974 337.7938,485.8443 337.7938,485.4536 C337.7938,485.0005 337.4031,484.6099 336.9344,484.6099 C336.7156,484.6099 336.5125,484.688 336.325,484.8755 C335.8719,485.3599 335.8719,485.3599 335.6844,485.4536 C335.2625,485.7193 334.575,485.8443 333.8094,485.8443 C331.7625,485.8443 330.4656,484.7505 330.4656,483.0474 L330.4656,481.9536 C330.4656,480.1724 331.7156,478.8599 333.45,478.8599 C334.0281,478.8599 334.6375,479.0161 335.1063,479.2661 C335.5906,479.5474 335.7625,479.7661 335.8563,480.1724 C335.9188,480.5786 335.95,480.7036 336.0906,480.8286 C336.2313,480.9693 336.4656,481.0786 336.6844,481.0786 C336.95,481.0786 337.2156,480.938 337.3875,480.7193 C337.4969,480.563 337.5281,480.3755 337.5281,479.9536 L337.5281,478.5318 C337.5281,478.0943 337.5125,477.9693 337.4188,477.813 C337.2625,477.5474 336.9813,477.4068 336.6844,477.4068 C336.3875,477.4068 336.1844,477.5005 335.9656,477.813 L335.7938,477.7349 Z " fill="#000000"/><text fill="#000000" font-family="sans-serif" font-size="12" lengthAdjust="spacing" textLength="41" x="350.55" y="486.2173">Parque</text><line style="stroke:#A80036;stroke-width:1.5;" x1="305.5" x2="407.5" y1="498.063" y2="498.063"/><text fill="#000000" font-family="sans-serif" font-size="11" lengthAdjust="spacing" textLength="92" x="310.5" y="512.2734">-numeroMaximo</text><!--MD5=[f4402668d5d5bb8485350c0fdb60ac8e]
class Scooter--><rect codeLine="63" fill="#FEFECE" filter="url(#fek157d3errk8)" height="78.4141" id="Scooter" style="stroke:#A80036;stroke-width:1.5;" width="134" x="609.5" y="453.563"/><ellipse cx="648.8" cy="469.563" fill="#ADD1B2" rx="11" ry="11" style="stroke:#A80036;stroke-width:1.0;"/><path d="M651.1438,465.2349 C650.2063,464.7974 649.6125,464.6568 648.7375,464.6568 C646.1125,464.6568 644.1125,466.7349 644.1125,469.4536 L644.1125,470.5786 C644.1125,473.1568 646.2219,475.0474 649.1125,475.0474 C650.3313,475.0474 651.4875,474.7505 652.2375,474.2036 C652.8156,473.7974 653.1438,473.3443 653.1438,472.9536 C653.1438,472.5005 652.7531,472.1099 652.2844,472.1099 C652.0656,472.1099 651.8625,472.188 651.675,472.3755 C651.2219,472.8599 651.2219,472.8599 651.0344,472.9536 C650.6125,473.2193 649.925,473.3443 649.1594,473.3443 C647.1125,473.3443 645.8156,472.2505 645.8156,470.5474 L645.8156,469.4536 C645.8156,467.6724 647.0656,466.3599 648.8,466.3599 C649.3781,466.3599 649.9875,466.5161 650.4563,466.7661 C650.9406,467.0474 651.1125,467.2661 651.2063,467.6724 C651.2688,468.0786 651.3,468.2036 651.4406,468.3286 C651.5813,468.4693 651.8156,468.5786 652.0344,468.5786 C652.3,468.5786 652.5656,468.438 652.7375,468.2193 C652.8469,468.063 652.8781,467.8755 652.8781,467.4536 L652.8781,466.0318 C652.8781,465.5943 652.8625,465.4693 652.7688,465.313 C652.6125,465.0474 652.3313,464.9068 652.0344,464.9068 C651.7375,464.9068 651.5344,465.0005 651.3156,465.313 L651.1438,465.2349 Z " fill="#000000"/><text fill="#000000" font-family="sans-serif" font-size="12" lengthAdjust="spacing" textLength="48" x="668.2" y="473.7173">Scooter</text><line style="stroke:#A80036;stroke-width:1.5;" x1="610.5" x2="742.5" y1="485.563" y2="485.563"/><text fill="#000000" font-family="sans-serif" font-size="11" lengthAdjust="spacing" textLength="58" x="615.5" y="499.7734">-idScooter</text><text fill="#000000" font-family="sans-serif" font-size="11" lengthAdjust="spacing" textLength="122" x="615.5" y="512.5781">-percentagemBateria</text><text fill="#000000" font-family="sans-serif" font-size="11" lengthAdjust="spacing" textLength="76" x="615.5" y="525.3828">-pesoMaximo</text><!--MD5=[20a748d5ee336a9a91751b0a3d4f0beb]
class Cliente--><rect codeLine="69" fill="#FEFECE" filter="url(#fek157d3errk8)" height="142.4375" id="Cliente" style="stroke:#A80036;stroke-width:1.5;" width="155" x="279" y="71.563"/><ellipse cx="331.75" cy="87.563" fill="#ADD1B2" rx="11" ry="11" style="stroke:#A80036;stroke-width:1.0;"/><path d="M334.0938,83.2349 C333.1563,82.7974 332.5625,82.6567 331.6875,82.6567 C329.0625,82.6567 327.0625,84.7349 327.0625,87.4536 L327.0625,88.5786 C327.0625,91.1567 329.1719,93.0474 332.0625,93.0474 C333.2813,93.0474 334.4375,92.7505 335.1875,92.2036 C335.7656,91.7974 336.0938,91.3442 336.0938,90.9536 C336.0938,90.5005 335.7031,90.1099 335.2344,90.1099 C335.0156,90.1099 334.8125,90.188 334.625,90.3755 C334.1719,90.8599 334.1719,90.8599 333.9844,90.9536 C333.5625,91.2192 332.875,91.3442 332.1094,91.3442 C330.0625,91.3442 328.7656,90.2505 328.7656,88.5474 L328.7656,87.4536 C328.7656,85.6724 330.0156,84.3599 331.75,84.3599 C332.3281,84.3599 332.9375,84.5161 333.4063,84.7661 C333.8906,85.0474 334.0625,85.2661 334.1563,85.6724 C334.2188,86.0786 334.25,86.2036 334.3906,86.3286 C334.5313,86.4692 334.7656,86.5786 334.9844,86.5786 C335.25,86.5786 335.5156,86.438 335.6875,86.2192 C335.7969,86.063 335.8281,85.8755 335.8281,85.4536 L335.8281,84.0317 C335.8281,83.5942 335.8125,83.4692 335.7188,83.313 C335.5625,83.0474 335.2813,82.9067 334.9844,82.9067 C334.6875,82.9067 334.4844,83.0005 334.2656,83.313 L334.0938,83.2349 Z " fill="#000000"/><text fill="#000000" font-family="sans-serif" font-size="12" lengthAdjust="spacing" textLength="41" x="352.25" y="91.7173">Cliente</text><line style="stroke:#A80036;stroke-width:1.5;" x1="280" x2="433" y1="103.563" y2="103.563"/><text fill="#000000" font-family="sans-serif" font-size="11" lengthAdjust="spacing" textLength="126" x="285" y="117.7734">-numeroCartaoCredito</text><text fill="#000000" font-family="sans-serif" font-size="11" lengthAdjust="spacing" textLength="96" x="285" y="130.5781">-dataDeValidade</text><text fill="#000000" font-family="sans-serif" font-size="11" lengthAdjust="spacing" textLength="28" x="285" y="143.3828">-CCV</text><text fill="#000000" font-family="sans-serif" font-size="11" lengthAdjust="spacing" textLength="21" x="285" y="156.1875">-NIF</text><text fill="#000000" font-family="sans-serif" font-size="11" lengthAdjust="spacing" textLength="37" x="285" y="168.9922">-nome</text><text fill="#000000" font-family="sans-serif" font-size="11" lengthAdjust="spacing" textLength="36" x="285" y="181.7969">-email</text><text fill="#000000" font-family="sans-serif" font-size="11" lengthAdjust="spacing" textLength="143" x="285" y="194.6016">-numeroSegurancaSocial</text><text fill="#000000" font-family="sans-serif" font-size="11" lengthAdjust="spacing" textLength="57" x="285" y="207.4063">-password</text><!--MD5=[055d9a59c94791d1e5417ead9eff8d01]
link Encomenda to EstadoEncomenda--><path codeLine="80" d="M727.589,214.391 C764.087,217.909 814.062,222.726 854.788,226.651 " fill="none" id="Encomenda-EstadoEncomenda" style="stroke:#A80036;stroke-width:1.0;"/><polygon fill="#000000" points="793.9769,211.6091,785.2555,207.816,784.6916,213.6667,793.9769,211.6091" style="stroke:#000000;stroke-width:1.0;"/><text fill="#000000" font-family="sans-serif" font-size="13" lengthAdjust="spacing" textLength="26" x="798" y="215.6299">tem</text><text fill="#000000" font-family="sans-serif" font-size="13" lengthAdjust="spacing" textLength="8" x="735.3359" y="228.1717">1</text><text fill="#000000" font-family="sans-serif" font-size="13" lengthAdjust="spacing" textLength="8" x="838.8771" y="238.8055">1</text><!--MD5=[39609d66ce6d06d1779a14455c909f6f]
link Entrega to Encomenda--><path codeLine="81" d="M395.76,373.47 C439.075,355.749 511.138,324.328 569,289.563 C589.12,277.475 610.027,262.396 627.934,248.599 " fill="none" id="Entrega-Encomenda" style="stroke:#A80036;stroke-width:1.0;"/><polygon fill="#000000" points="497.9035,278.7611,488.5454,280.4571,491.3296,285.6338,497.9035,278.7611" style="stroke:#000000;stroke-width:1.0;"/><text fill="#000000" font-family="sans-serif" font-size="13" lengthAdjust="spacing" textLength="41" x="502.5" y="285.6299">possui</text><text fill="#000000" font-family="sans-serif" font-size="13" lengthAdjust="spacing" textLength="8" x="403.4657" y="384.1593">1</text><text fill="#000000" font-family="sans-serif" font-size="13" lengthAdjust="spacing" textLength="7" x="611.6597" y="268.9301">*</text><!--MD5=[328dae9b2f192140d45e51cd90ecd75a]
link Estafeta to Entrega--><path codeLine="82" d="M162.149,311.939 C212.818,332.019 277.068,357.481 317.241,373.401 " fill="none" id="Estafeta-Entrega" style="stroke:#A80036;stroke-width:1.0;"/><polygon fill="#000000" points="201.6483,317.9715,194.3222,311.9069,192.1567,317.3713,201.6483,317.9715" style="stroke:#000000;stroke-width:1.0;"/><text fill="#000000" font-family="sans-serif" font-size="13" lengthAdjust="spacing" textLength="42" x="206" y="320.6299">realiza</text><text fill="#000000" font-family="sans-serif" font-size="13" lengthAdjust="spacing" textLength="8" x="169.9312" y="327.6212">1</text><text fill="#000000" font-family="sans-serif" font-size="13" lengthAdjust="spacing" textLength="7" x="302.6246" y="384.0781">*</text><!--MD5=[b39feb7ad9ed03cb1a05d76e3f369af6]
link Estafeta to EstadoEstafeta--><path codeLine="83" d="M162.149,281.563 C203.776,281.563 254.568,281.563 293.646,281.563 " fill="none" id="Estafeta-EstadoEstafeta" style="stroke:#A80036;stroke-width:1.0;"/><polygon fill="#000000" points="210,273.1294,200.9549,270.1905,200.9549,276.0683,210,273.1294" style="stroke:#000000;stroke-width:1.0;"/><text fill="#000000" font-family="sans-serif" font-size="13" lengthAdjust="spacing" textLength="26" x="214" y="277.6299">tem</text><text fill="#000000" font-family="sans-serif" font-size="13" lengthAdjust="spacing" textLength="8" x="169.9312" y="294.35">1</text><text fill="#000000" font-family="sans-serif" font-size="13" lengthAdjust="spacing" textLength="8" x="277.916" y="294.5273">1</text><!--MD5=[aa5a8ec5fd097e3d415964f18fa48efb]
link Estafeta to Utilizador--><path codeLine="84" d="M111.857,229.509 C143.174,174.118 201.144,89.603 279,53.563 C381.748,6 515.87,28.115 598.81,50.076 " fill="none" id="Estafeta-Utilizador" style="stroke:#A80036;stroke-width:1.0;"/><polygon fill="#000000" points="324.1916,15.4006,314.6882,15.7703,316.7205,21.2857,324.1916,15.4006" style="stroke:#000000;stroke-width:1.0;"/><text fill="#000000" font-family="sans-serif" font-size="13" lengthAdjust="spacing" textLength="69" x="328.5" y="21.6299">atua como</text><text fill="#000000" font-family="sans-serif" font-size="13" lengthAdjust="spacing" textLength="8" x="106.9961" y="218.5807">1</text><text fill="#000000" font-family="sans-serif" font-size="13" lengthAdjust="spacing" textLength="8" x="583.0239" y="60.529">1</text><!--MD5=[526e8b388de5574421fe4c78d4de4165]
link Endereco to LocalizacaoGPS--><path codeLine="85" d="M721.729,346.563 C761.558,346.563 820.494,346.563 864.925,346.563 " fill="none" id="Endereco-LocalizacaoGPS" style="stroke:#A80036;stroke-width:1.0;"/><polygon fill="#000000" points="794,338.1294,784.9549,335.1905,784.9549,341.0683,794,338.1294" style="stroke:#000000;stroke-width:1.0;"/><text fill="#000000" font-family="sans-serif" font-size="13" lengthAdjust="spacing" textLength="26" x="798" y="342.6299">tem</text><text fill="#000000" font-family="sans-serif" font-size="13" lengthAdjust="spacing" textLength="8" x="729.5749" y="359.8514">1</text><text fill="#000000" font-family="sans-serif" font-size="13" lengthAdjust="spacing" textLength="8" x="848.8112" y="359.5759">1</text><!--MD5=[43a7c1a046aa41d1c9842e3954366be4]
link Cliente to Endereco--><path codeLine="86" d="M434.093,199.607 C443.986,206.262 454.115,212.743 464,218.563 C508.541,244.787 524.621,242.065 569,268.563 C594.777,283.954 622.061,304.018 642.559,319.943 " fill="none" id="Cliente-Endereco" style="stroke:#A80036;stroke-width:1.0;"/><polygon fill="#000000" points="505.3303,212.6291,498.966,205.5618,496.0274,210.6524,505.3303,212.6291" style="stroke:#000000;stroke-width:1.0;"/><text fill="#000000" font-family="sans-serif" font-size="13" lengthAdjust="spacing" textLength="26" x="510" y="214.6299">tem</text><text fill="#000000" font-family="sans-serif" font-size="13" lengthAdjust="spacing" textLength="8" x="442.1248" y="218.0124">1</text><text fill="#000000" font-family="sans-serif" font-size="13" lengthAdjust="spacing" textLength="8" x="625.7851" y="309.1576">1</text><!--MD5=[00a2b7b20e7d7828fa181bc7c0dc6998]
link Cliente to Utilizador--><path codeLine="87" d="M434.074,126.189 C483.97,115.519 548.836,101.648 598.765,90.972 " fill="none" id="Cliente-Utilizador" style="stroke:#A80036;stroke-width:1.0;"/><polygon fill="#000000" points="484.3895,89.0839,474.9298,88.1013,476.1589,93.8492,484.3895,89.0839" style="stroke:#000000;stroke-width:1.0;"/><text fill="#000000" font-family="sans-serif" font-size="13" lengthAdjust="spacing" textLength="69" x="488.5" y="94.6299">atua como</text><text fill="#000000" font-family="sans-serif" font-size="13" lengthAdjust="spacing" textLength="8" x="442.1039" y="137.3674">1</text><text fill="#000000" font-family="sans-serif" font-size="13" lengthAdjust="spacing" textLength="8" x="582.9746" y="105.3229">1</text><!--MD5=[beec9e5f2ed2709028dd31c1dc478e7b]
link Cliente to Encomenda--><path codeLine="88" d="M434.011,165.972 C444.052,168.709 454.241,171.32 464,173.563 C518.632,186.12 582.126,196.355 625.181,202.658 " fill="none" id="Cliente-Encomenda" style="stroke:#A80036;stroke-width:1.0;"/><polygon fill="#000000" points="473.9104,166.0717,465.5813,161.4808,464.4735,167.2533,473.9104,166.0717" style="stroke:#000000;stroke-width:1.0;"/><text fill="#000000" font-family="sans-serif" font-size="13" lengthAdjust="spacing" textLength="90" x="478" y="169.6299">realiza e paga</text><text fill="#000000" font-family="sans-serif" font-size="13" lengthAdjust="spacing" textLength="8" x="442.0347" y="181.0665">1</text><text fill="#000000" font-family="sans-serif" font-size="13" lengthAdjust="spacing" textLength="7" x="610.4721" y="214.7888">*</text><!--MD5=[f440ac15537f19f21c80dc932ffd2bf8]
link Entrega to Scooter--><path codeLine="89" d="M395.788,390.201 C439.128,393.112 511.213,401.187 569,423.563 C588.209,431.001 607.593,442.2104 624.462,453.4437 " fill="none" id="Entrega-Scooter" style="stroke:#A80036;stroke-width:1.0;"/><polygon fill="#000000" points="488.1809,387.7966,496.1153,393.0402,497.6821,387.3751,488.1809,387.7966" style="stroke:#000000;stroke-width:1.0;"/><text fill="#000000" font-family="sans-serif" font-size="13" lengthAdjust="spacing" textLength="42" x="502" y="393.6299">realiza</text><text fill="#000000" font-family="sans-serif" font-size="13" lengthAdjust="spacing" textLength="7" x="403.4096" y="403.8706">*</text><text fill="#000000" font-family="sans-serif" font-size="13" lengthAdjust="spacing" textLength="8" x="606.8305" y="442.4737">1</text><!--MD5=[60097591193c89dbde5dfd99b98b5263]
link Encomenda to Produto--><path codeLine="90" d="M727.589,191.458 C774.455,174.519 843.539,149.549 886.732,133.937 " fill="none" id="Encomenda-Produto" style="stroke:#A80036;stroke-width:1.0;"/><polygon fill="#000000" points="793.7023,145.4298,784.1968,145.7405,786.1948,151.2683,793.7023,145.4298" style="stroke:#000000;stroke-width:1.0;"/><text fill="#000000" font-family="sans-serif" font-size="13" lengthAdjust="spacing" textLength="26" x="798" y="151.6299">tem</text><text fill="#000000" font-family="sans-serif" font-size="13" lengthAdjust="spacing" textLength="8" x="735.3359" y="202.0138">1</text><text fill="#000000" font-family="sans-serif" font-size="13" lengthAdjust="spacing" textLength="7" x="872.1234" y="149.7561">*</text><!--MD5=[65c0b4ced80642714d633a5480d06ed6]
link Parque to Endereco--><path codeLine="91" d="M408.781,485.2242 C462.156,477.001 541.702,462.9299 569,448.563 C603.89,430.201 635.343,397.019 654.868,373.492 " fill="none" id="Parque-Endereco" style="stroke:#A80036;stroke-width:1.0;"/><polygon fill="#000000" points="505.5527,438.0623,496.1018,439.1257,498.5318,444.4777,505.5527,438.0623" style="stroke:#000000;stroke-width:1.0;"/><text fill="#000000" font-family="sans-serif" font-size="13" lengthAdjust="spacing" textLength="26" x="510" y="444.6299">tem</text><text fill="#000000" font-family="sans-serif" font-size="13" lengthAdjust="spacing" textLength="8" x="416.3438" y="497.3348">1</text><text fill="#000000" font-family="sans-serif" font-size="13" lengthAdjust="spacing" textLength="8" x="641.261" y="393.1261">1</text><!--MD5=[1dbffbca5cb534c4a76478e59708cd36]
link Parque to Scooter--><path codeLine="92" d="M408.636,497.7642 C426.169,499.3135 445.924,500.8006 464,501.563 C510.625,503.5296 522.375,503.5296 569,501.563 C582.07,501.0117 596.018,500.0815 609.37,499.0229 " fill="none" id="Parque-Scooter" style="stroke:#A80036;stroke-width:1.0;"/><polygon fill="#000000" points="498.4999,493.1608,489.4734,490.1652,489.4366,496.0429,498.4999,493.1608" style="stroke:#000000;stroke-width:1.0;"/><text fill="#000000" font-family="sans-serif" font-size="13" lengthAdjust="spacing" textLength="41" x="502.5" y="497.6299">possui</text><text fill="#000000" font-family="sans-serif" font-size="13" lengthAdjust="spacing" textLength="8" x="416.5301" y="511.6403">1</text><text fill="#000000" font-family="sans-serif" font-size="13" lengthAdjust="spacing" textLength="7" x="594.6448" y="512.6013">*</text><!--MD5=[925bfb3099e30405cf97a9e4a0e15619]
@startuml
skinparam classAttributeIconSize 0
hide methods
left to right direction

class Entrega {
  -idEntrega
  -dataInicio
  -dataFim
}

class Encomenda {
  -idEncomenda
  -dataPedida
  -preco
}

class EstadoEncomenda {
  -id_estado_encomenda
  -designacao
}

class Produto {
  -idProduto
  -designacao
  -peso
  -precoBase
}

class Estafeta {
  -NIF
  -nome
  -email
  -numeroSegurancaSocial
  -password
}

class EstadoEstafeta {
  -id_estado_estafeta
  -designacao
}

class Utilizador {
  -NIF
  -nome
  -email
  -numeroSegurancaSocial
  -password
}

class Endereco {
  -morada
}

class LocalizacaoGPS {
  -latitude
  -longitude
}

class Parque {
  -numeroMaximo
}

class Scooter {
  -idScooter
  -percentagemBateria
  -pesoMaximo
}

class Cliente {
  -numeroCartaoCredito
  -dataDeValidade
  -CCV
  -NIF
  -nome
  -email
  -numeroSegurancaSocial
  -password
}

Encomenda "1" - - "1" EstadoEncomenda : tem >
Entrega "1" - - "*" Encomenda : possui >
Estafeta "1" - - "*" Entrega: realiza >
Estafeta "1" - - "1" EstadoEstafeta: tem >
Estafeta "1" - - "1" Utilizador: atua como >
Endereco "1" - - "1" LocalizacaoGPS: tem >
Cliente "1" - - "1" Endereco: tem >
Cliente "1" - - "1" Utilizador: atua como >
Cliente "1" - - "*" Encomenda: realiza e paga >
Entrega "*" - - "1" Scooter: realiza <
Encomenda "1" - - "*" Produto: tem >
Parque "1" - - "1" Endereco: tem >
Parque "1" - - "*" Scooter: possui >
@enduml

PlantUML version 1.2020.27beta7(Unknown compile time)
(GPL source distribution)
Java Runtime: Java(TM) SE Runtime Environment
JVM: Java HotSpot(TM) 64-Bit Server VM
Default Encoding: UTF-8
Language: en
Country: US
--></g></svg>