<?xml version="1.0" encoding="UTF-8" standalone="no"?><svg xmlns="http://www.w3.org/2000/svg" xmlns:xlink="http://www.w3.org/1999/xlink" contentScriptType="application/ecmascript" contentStyleType="text/css" height="1609px" preserveAspectRatio="none" style="width:2848px;height:1609px;" version="1.1" viewBox="0 0 2848 1609" width="2848px" zoomAndPan="magnify"><defs><filter height="300%" id="fth316mfdbwp6" width="300%" x="-1" y="-1"><feGaussianBlur result="blurOut" stdDeviation="2.0"/><feColorMatrix in="blurOut" result="blurOut2" type="matrix" values="0 0 0 0 0 0 0 0 0 0 0 0 0 0 0 0 0 0 .4 0"/><feOffset dx="4.0" dy="4.0" in="blurOut2" result="blurOut3"/><feBlend in="SourceGraphic" in2="blurOut3" mode="normal"/></filter></defs><g><rect fill="#FFFFFF" filter="url(#fth316mfdbwp6)" height="1408.9453" style="stroke:#A80036;stroke-width:1.0;" width="10" x="48.5" y="98.2969"/><rect fill="#FFFFFF" filter="url(#fth316mfdbwp6)" height="369.7969" style="stroke:#A80036;stroke-width:1.0;" width="10" x="850.5" y="119.4297"/><rect fill="#FFFFFF" filter="url(#fth316mfdbwp6)" height="375.4922" style="stroke:#A80036;stroke-width:1.0;" width="10" x="850.5" y="518.3594"/><rect fill="#FFFFFF" filter="url(#fth316mfdbwp6)" height="224.7969" style="stroke:#A80036;stroke-width:1.0;" width="10" x="850.5" y="922.9844"/><rect fill="#FFFFFF" filter="url(#fth316mfdbwp6)" height="129.5313" style="stroke:#A80036;stroke-width:1.0;" width="10" x="850.5" y="1176.9141"/><rect fill="#FFFFFF" filter="url(#fth316mfdbwp6)" height="171.6641" style="stroke:#A80036;stroke-width:1.0;" width="10" x="850.5" y="1335.5781"/><rect fill="#FFFFFF" filter="url(#fth316mfdbwp6)" height="311.5313" style="stroke:#A80036;stroke-width:1.0;" width="10" x="1449.5" y="148.5625"/><rect fill="#FFFFFF" filter="url(#fth316mfdbwp6)" height="168.6953" style="stroke:#A80036;stroke-width:1.0;" width="10" x="1449.5" y="547.4922"/><rect fill="#FFFFFF" filter="url(#fth316mfdbwp6)" height="59.1328" style="stroke:#A80036;stroke-width:1.0;" width="10" x="1449.5" y="752.3203"/><rect fill="#FFFFFF" filter="url(#fth316mfdbwp6)" height="29.1328" style="stroke:#A80036;stroke-width:1.0;" width="10" x="1449.5" y="952.1172"/><rect fill="#FFFFFF" filter="url(#fth316mfdbwp6)" height="59.1328" style="stroke:#A80036;stroke-width:1.0;" width="10" x="1449.5" y="1059.5156"/><rect fill="#FFFFFF" filter="url(#fth316mfdbwp6)" height="29.1328" style="stroke:#A80036;stroke-width:1.0;" width="10" x="1449.5" y="1206.0469"/><rect fill="#FFFFFF" filter="url(#fth316mfdbwp6)" height="142.5313" style="stroke:#A80036;stroke-width:1.0;" width="10" x="1449.5" y="1364.7109"/><rect fill="#FFFFFF" filter="url(#fth316mfdbwp6)" height="30" style="stroke:#A80036;stroke-width:1.0;" width="10" x="1624" y="177.6953"/><rect fill="#FFFFFF" filter="url(#fth316mfdbwp6)" height="30" style="stroke:#A80036;stroke-width:1.0;" width="10" x="1752.5" y="261.8281"/><rect fill="#FFFFFF" filter="url(#fth316mfdbwp6)" height="30" style="stroke:#A80036;stroke-width:1.0;" width="10" x="1893" y="345.9609"/><rect fill="#FFFFFF" filter="url(#fth316mfdbwp6)" height="30" style="stroke:#A80036;stroke-width:1.0;" width="10" x="2025.5" y="430.0938"/><rect fill="#FFFFFF" filter="url(#fth316mfdbwp6)" height="30" style="stroke:#A80036;stroke-width:1.0;" width="10" x="2138.5" y="576.625"/><rect fill="#FFFFFF" filter="url(#fth316mfdbwp6)" height="80.4297" style="stroke:#A80036;stroke-width:1.0;" width="10" x="2138.5" y="635.7578"/><rect fill="#FFFFFF" filter="url(#fth316mfdbwp6)" height="77.2656" style="stroke:#A80036;stroke-width:1.0;" width="10" x="2138.5" y="1393.8438"/><rect fill="#FFFFFF" filter="url(#fth316mfdbwp6)" height="41.2969" style="stroke:#A80036;stroke-width:1.0;" width="10" x="2486" y="674.8906"/><rect fill="#FFFFFF" filter="url(#fth316mfdbwp6)" height="35.1328" style="stroke:#A80036;stroke-width:1.0;" width="10" x="2486" y="981.25"/><rect fill="#FFFFFF" filter="url(#fth316mfdbwp6)" height="35.1328" style="stroke:#A80036;stroke-width:1.0;" width="10" x="2486" y="1235.1797"/><rect fill="#FFFFFF" filter="url(#fth316mfdbwp6)" height="30" style="stroke:#A80036;stroke-width:1.0;" width="10" x="2658" y="781.4531"/><rect fill="#FFFFFF" filter="url(#fth316mfdbwp6)" height="30" style="stroke:#A80036;stroke-width:1.0;" width="10" x="2782.5" y="1088.6484"/><rect fill="#FFFFFF" filter="url(#fth316mfdbwp6)" height="175.7969" style="stroke:#000000;stroke-width:2.0;" width="2653" x="10" y="855.5859"/><line style="stroke:#A80036;stroke-width:1.0;stroke-dasharray:5.0,5.0;" x1="53" x2="53" y1="88.2969" y2="1525.2422"/><line style="stroke:#A80036;stroke-width:1.0;stroke-dasharray:5.0,5.0;" x1="855" x2="855" y1="88.2969" y2="1525.2422"/><line style="stroke:#A80036;stroke-width:1.0;stroke-dasharray:5.0,5.0;" x1="1454" x2="1454" y1="88.2969" y2="1525.2422"/><line style="stroke:#A80036;stroke-width:1.0;stroke-dasharray:5.0,5.0;" x1="1629" x2="1629" y1="88.2969" y2="1525.2422"/><line style="stroke:#A80036;stroke-width:1.0;stroke-dasharray:5.0,5.0;" x1="1757" x2="1757" y1="88.2969" y2="1525.2422"/><line style="stroke:#A80036;stroke-width:1.0;stroke-dasharray:5.0,5.0;" x1="1898" x2="1898" y1="88.2969" y2="1525.2422"/><line style="stroke:#A80036;stroke-width:1.0;stroke-dasharray:5.0,5.0;" x1="2030" x2="2030" y1="88.2969" y2="1525.2422"/><line style="stroke:#A80036;stroke-width:1.0;stroke-dasharray:5.0,5.0;" x1="2143" x2="2143" y1="88.2969" y2="1525.2422"/><line style="stroke:#A80036;stroke-width:1.0;stroke-dasharray:5.0,5.0;" x1="2490.5" x2="2490.5" y1="676.4063" y2="1525.2422"/><line style="stroke:#A80036;stroke-width:1.0;stroke-dasharray:5.0,5.0;" x1="2663" x2="2663" y1="88.2969" y2="1525.2422"/><line style="stroke:#A80036;stroke-width:1.0;stroke-dasharray:5.0,5.0;" x1="2787" x2="2787" y1="88.2969" y2="1525.2422"/><text fill="#000000" font-family="sans-serif" font-size="14" lengthAdjust="spacing" textLength="61" x="20" y="84.9951">Estafeta</text><ellipse cx="53.5" cy="15" fill="#FEFECE" filter="url(#fth316mfdbwp6)" rx="8" ry="8" style="stroke:#A80036;stroke-width:2.0;"/><path d="M53.5,23 L53.5,50 M40.5,31 L66.5,31 M53.5,50 L40.5,65 M53.5,50 L66.5,65 " fill="none" filter="url(#fth316mfdbwp6)" style="stroke:#A80036;stroke-width:2.0;"/><text fill="#000000" font-family="sans-serif" font-size="14" lengthAdjust="spacing" textLength="61" x="20" y="1537.2373">Estafeta</text><ellipse cx="53.5" cy="1550.5391" fill="#FEFECE" filter="url(#fth316mfdbwp6)" rx="8" ry="8" style="stroke:#A80036;stroke-width:2.0;"/><path d="M53.5,1558.5391 L53.5,1585.5391 M40.5,1566.5391 L66.5,1566.5391 M53.5,1585.5391 L40.5,1600.5391 M53.5,1585.5391 L66.5,1600.5391 " fill="none" filter="url(#fth316mfdbwp6)" style="stroke:#A80036;stroke-width:2.0;"/><rect fill="#FEFECE" filter="url(#fth316mfdbwp6)" height="30.2969" style="stroke:#A80036;stroke-width:1.5;" width="149" x="779" y="53"/><text fill="#000000" font-family="sans-serif" font-size="14" lengthAdjust="spacing" textLength="135" x="786" y="72.9951">:RegistarEntregaUI</text><rect fill="#FEFECE" filter="url(#fth316mfdbwp6)" height="30.2969" style="stroke:#A80036;stroke-width:1.5;" width="149" x="779" y="1524.2422"/><text fill="#000000" font-family="sans-serif" font-size="14" lengthAdjust="spacing" textLength="135" x="786" y="1544.2373">:RegistarEntregaUI</text><rect fill="#FEFECE" filter="url(#fth316mfdbwp6)" height="30.2969" style="stroke:#A80036;stroke-width:1.5;" width="209" x="1348" y="53"/><text fill="#000000" font-family="sans-serif" font-size="14" lengthAdjust="spacing" textLength="195" x="1355" y="72.9951">:RegistarEntregaController</text><rect fill="#FEFECE" filter="url(#fth316mfdbwp6)" height="30.2969" style="stroke:#A80036;stroke-width:1.5;" width="209" x="1348" y="1524.2422"/><text fill="#000000" font-family="sans-serif" font-size="14" lengthAdjust="spacing" textLength="195" x="1355" y="1544.2373">:RegistarEntregaController</text><rect fill="#FEFECE" filter="url(#fth316mfdbwp6)" height="30.2969" style="stroke:#A80036;stroke-width:1.5;" width="112" x="1571" y="53"/><text fill="#000000" font-family="sans-serif" font-size="14" lengthAdjust="spacing" textLength="98" x="1578" y="72.9951">AplicacaoPOT</text><rect fill="#FEFECE" filter="url(#fth316mfdbwp6)" height="30.2969" style="stroke:#A80036;stroke-width:1.5;" width="112" x="1571" y="1524.2422"/><text fill="#000000" font-family="sans-serif" font-size="14" lengthAdjust="spacing" textLength="98" x="1578" y="1544.2373">AplicacaoPOT</text><rect fill="#FEFECE" filter="url(#fth316mfdbwp6)" height="46.5938" style="stroke:#A80036;stroke-width:1.5;" width="117" x="1697" y="36.7031"/><text fill="#000000" font-family="sans-serif" font-size="14" lengthAdjust="spacing" textLength="28" x="1741.5" y="56.6982">app</text><text fill="#000000" font-family="sans-serif" font-size="14" lengthAdjust="spacing" textLength="103" x="1704" y="72.9951">:AplicacaoPOT</text><rect fill="#FEFECE" filter="url(#fth316mfdbwp6)" height="46.5938" style="stroke:#A80036;stroke-width:1.5;" width="117" x="1697" y="1524.2422"/><text fill="#000000" font-family="sans-serif" font-size="14" lengthAdjust="spacing" textLength="28" x="1741.5" y="1544.2373">app</text><text fill="#000000" font-family="sans-serif" font-size="14" lengthAdjust="spacing" textLength="103" x="1704" y="1560.5342">:AplicacaoPOT</text><rect fill="#FEFECE" filter="url(#fth316mfdbwp6)" height="46.5938" style="stroke:#A80036;stroke-width:1.5;" width="136" x="1828" y="36.7031"/><text fill="#000000" font-family="sans-serif" font-size="14" lengthAdjust="spacing" textLength="47" x="1872.5" y="56.6982">sessao</text><text fill="#000000" font-family="sans-serif" font-size="14" lengthAdjust="spacing" textLength="122" x="1835" y="72.9951">:SessaoUtilizador</text><rect fill="#FEFECE" filter="url(#fth316mfdbwp6)" height="46.5938" style="stroke:#A80036;stroke-width:1.5;" width="136" x="1828" y="1524.2422"/><text fill="#000000" font-family="sans-serif" font-size="14" lengthAdjust="spacing" textLength="47" x="1872.5" y="1544.2373">sessao</text><text fill="#000000" font-family="sans-serif" font-size="14" lengthAdjust="spacing" textLength="122" x="1835" y="1560.5342">:SessaoUtilizador</text><rect fill="#FEFECE" filter="url(#fth316mfdbwp6)" height="30.2969" style="stroke:#A80036;stroke-width:1.5;" width="101" x="1978" y="53"/><text fill="#000000" font-family="sans-serif" font-size="14" lengthAdjust="spacing" textLength="87" x="1985" y="72.9951">:EstafetaDB</text><rect fill="#FEFECE" filter="url(#fth316mfdbwp6)" height="30.2969" style="stroke:#A80036;stroke-width:1.5;" width="101" x="1978" y="1524.2422"/><text fill="#000000" font-family="sans-serif" font-size="14" lengthAdjust="spacing" textLength="87" x="1985" y="1544.2373">:EstafetaDB</text><rect fill="#FEFECE" filter="url(#fth316mfdbwp6)" height="30.2969" style="stroke:#A80036;stroke-width:1.5;" width="97" x="2093" y="53"/><text fill="#000000" font-family="sans-serif" font-size="14" lengthAdjust="spacing" textLength="83" x="2100" y="72.9951">:EntregaDB</text><rect fill="#FEFECE" filter="url(#fth316mfdbwp6)" height="30.2969" style="stroke:#A80036;stroke-width:1.5;" width="97" x="2093" y="1524.2422"/><text fill="#000000" font-family="sans-serif" font-size="14" lengthAdjust="spacing" textLength="83" x="2100" y="1544.2373">:EntregaDB</text><rect fill="#FEFECE" filter="url(#fth316mfdbwp6)" height="30.2969" style="stroke:#A80036;stroke-width:1.5;" width="107" x="2435.5" y="1524.2422"/><text fill="#000000" font-family="sans-serif" font-size="14" lengthAdjust="spacing" textLength="93" x="2442.5" y="1544.2373">entr:Entrega</text><rect fill="#FEFECE" filter="url(#fth316mfdbwp6)" height="30.2969" style="stroke:#A80036;stroke-width:1.5;" width="124" x="2599" y="53"/><text fill="#000000" font-family="sans-serif" font-size="14" lengthAdjust="spacing" textLength="110" x="2606" y="72.9951">:EncomendaDB</text><rect fill="#FEFECE" filter="url(#fth316mfdbwp6)" height="30.2969" style="stroke:#A80036;stroke-width:1.5;" width="124" x="2599" y="1524.2422"/><text fill="#000000" font-family="sans-serif" font-size="14" lengthAdjust="spacing" textLength="110" x="2606" y="1544.2373">:EncomendaDB</text><rect fill="#FEFECE" filter="url(#fth316mfdbwp6)" height="30.2969" style="stroke:#A80036;stroke-width:1.5;" width="97" x="2737" y="53"/><text fill="#000000" font-family="sans-serif" font-size="14" lengthAdjust="spacing" textLength="83" x="2744" y="72.9951">:ScooterDB</text><rect fill="#FEFECE" filter="url(#fth316mfdbwp6)" height="30.2969" style="stroke:#A80036;stroke-width:1.5;" width="97" x="2737" y="1524.2422"/><text fill="#000000" font-family="sans-serif" font-size="14" lengthAdjust="spacing" textLength="83" x="2744" y="1544.2373">:ScooterDB</text><rect fill="#FFFFFF" filter="url(#fth316mfdbwp6)" height="1408.9453" style="stroke:#A80036;stroke-width:1.0;" width="10" x="48.5" y="98.2969"/><rect fill="#FFFFFF" filter="url(#fth316mfdbwp6)" height="369.7969" style="stroke:#A80036;stroke-width:1.0;" width="10" x="850.5" y="119.4297"/><rect fill="#FFFFFF" filter="url(#fth316mfdbwp6)" height="375.4922" style="stroke:#A80036;stroke-width:1.0;" width="10" x="850.5" y="518.3594"/><rect fill="#FFFFFF" filter="url(#fth316mfdbwp6)" height="224.7969" style="stroke:#A80036;stroke-width:1.0;" width="10" x="850.5" y="922.9844"/><rect fill="#FFFFFF" filter="url(#fth316mfdbwp6)" height="129.5313" style="stroke:#A80036;stroke-width:1.0;" width="10" x="850.5" y="1176.9141"/><rect fill="#FFFFFF" filter="url(#fth316mfdbwp6)" height="171.6641" style="stroke:#A80036;stroke-width:1.0;" width="10" x="850.5" y="1335.5781"/><rect fill="#FFFFFF" filter="url(#fth316mfdbwp6)" height="311.5313" style="stroke:#A80036;stroke-width:1.0;" width="10" x="1449.5" y="148.5625"/><rect fill="#FFFFFF" filter="url(#fth316mfdbwp6)" height="168.6953" style="stroke:#A80036;stroke-width:1.0;" width="10" x="1449.5" y="547.4922"/><rect fill="#FFFFFF" filter="url(#fth316mfdbwp6)" height="59.1328" style="stroke:#A80036;stroke-width:1.0;" width="10" x="1449.5" y="752.3203"/><rect fill="#FFFFFF" filter="url(#fth316mfdbwp6)" height="29.1328" style="stroke:#A80036;stroke-width:1.0;" width="10" x="1449.5" y="952.1172"/><rect fill="#FFFFFF" filter="url(#fth316mfdbwp6)" height="59.1328" style="stroke:#A80036;stroke-width:1.0;" width="10" x="1449.5" y="1059.5156"/><rect fill="#FFFFFF" filter="url(#fth316mfdbwp6)" height="29.1328" style="stroke:#A80036;stroke-width:1.0;" width="10" x="1449.5" y="1206.0469"/><rect fill="#FFFFFF" filter="url(#fth316mfdbwp6)" height="142.5313" style="stroke:#A80036;stroke-width:1.0;" width="10" x="1449.5" y="1364.7109"/><rect fill="#FFFFFF" filter="url(#fth316mfdbwp6)" height="30" style="stroke:#A80036;stroke-width:1.0;" width="10" x="1624" y="177.6953"/><rect fill="#FFFFFF" filter="url(#fth316mfdbwp6)" height="30" style="stroke:#A80036;stroke-width:1.0;" width="10" x="1752.5" y="261.8281"/><rect fill="#FFFFFF" filter="url(#fth316mfdbwp6)" height="30" style="stroke:#A80036;stroke-width:1.0;" width="10" x="1893" y="345.9609"/><rect fill="#FFFFFF" filter="url(#fth316mfdbwp6)" height="30" style="stroke:#A80036;stroke-width:1.0;" width="10" x="2025.5" y="430.0938"/><rect fill="#FFFFFF" filter="url(#fth316mfdbwp6)" height="30" style="stroke:#A80036;stroke-width:1.0;" width="10" x="2138.5" y="576.625"/><rect fill="#FFFFFF" filter="url(#fth316mfdbwp6)" height="80.4297" style="stroke:#A80036;stroke-width:1.0;" width="10" x="2138.5" y="635.7578"/><rect fill="#FFFFFF" filter="url(#fth316mfdbwp6)" height="77.2656" style="stroke:#A80036;stroke-width:1.0;" width="10" x="2138.5" y="1393.8438"/><rect fill="#FFFFFF" filter="url(#fth316mfdbwp6)" height="41.2969" style="stroke:#A80036;stroke-width:1.0;" width="10" x="2486" y="674.8906"/><rect fill="#FFFFFF" filter="url(#fth316mfdbwp6)" height="35.1328" style="stroke:#A80036;stroke-width:1.0;" width="10" x="2486" y="981.25"/><rect fill="#FFFFFF" filter="url(#fth316mfdbwp6)" height="35.1328" style="stroke:#A80036;stroke-width:1.0;" width="10" x="2486" y="1235.1797"/><rect fill="#FFFFFF" filter="url(#fth316mfdbwp6)" height="30" style="stroke:#A80036;stroke-width:1.0;" width="10" x="2658" y="781.4531"/><rect fill="#FFFFFF" filter="url(#fth316mfdbwp6)" height="30" style="stroke:#A80036;stroke-width:1.0;" width="10" x="2782.5" y="1088.6484"/><polygon fill="#A80036" points="838.5,115.4297,848.5,119.4297,838.5,123.4297,842.5,119.4297" style="stroke:#A80036;stroke-width:1.0;"/><line style="stroke:#A80036;stroke-width:1.0;" x1="58.5" x2="844.5" y1="119.4297" y2="119.4297"/><text fill="#000000" font-family="sans-serif" font-size="13" font-weight="bold" lengthAdjust="spacing" textLength="9" x="65.5" y="114.3638">1</text><text fill="#000000" font-family="sans-serif" font-size="13" lengthAdjust="spacing" textLength="154" x="78.5" y="114.3638">inicia registo de entrega</text><polygon fill="#A80036" points="1437.5,144.5625,1447.5,148.5625,1437.5,152.5625,1441.5,148.5625" style="stroke:#A80036;stroke-width:1.0;"/><line style="stroke:#A80036;stroke-width:1.0;" x1="860.5" x2="1443.5" y1="148.5625" y2="148.5625"/><text fill="#000000" font-family="sans-serif" font-size="13" font-weight="bold" lengthAdjust="spacing" textLength="9" x="867.5" y="143.4966">2</text><text fill="#000000" font-family="sans-serif" font-size="13" lengthAdjust="spacing" textLength="85" x="880.5" y="143.4966">getEstafeta()</text><polygon fill="#A80036" points="1612,173.6953,1622,177.6953,1612,181.6953,1616,177.6953" style="stroke:#A80036;stroke-width:1.0;"/><line style="stroke:#A80036;stroke-width:1.0;" x1="1459.5" x2="1618" y1="177.6953" y2="177.6953"/><text fill="#000000" font-family="sans-serif" font-size="13" font-weight="bold" lengthAdjust="spacing" textLength="8" x="1466.5" y="172.6294">3</text><text fill="#000000" font-family="sans-serif" font-size="13" lengthAdjust="spacing" textLength="127" x="1478.5" y="172.6294">app = getInstance()</text><polygon fill="#A80036" points="1740.5,257.8281,1750.5,261.8281,1740.5,265.8281,1744.5,261.8281" style="stroke:#A80036;stroke-width:1.0;"/><line style="stroke:#A80036;stroke-width:1.0;" x1="1459.5" x2="1746.5" y1="261.8281" y2="261.8281"/><text fill="#000000" font-family="sans-serif" font-size="13" font-weight="bold" lengthAdjust="spacing" textLength="9" x="1466.5" y="256.7622">4</text><text fill="#000000" font-family="sans-serif" font-size="13" lengthAdjust="spacing" textLength="173" x="1479.5" y="256.7622">sessao = getSessaoAtual()</text><polygon fill="#A80036" points="1881,341.9609,1891,345.9609,1881,349.9609,1885,345.9609" style="stroke:#A80036;stroke-width:1.0;"/><line style="stroke:#A80036;stroke-width:1.0;" x1="1459.5" x2="1887" y1="345.9609" y2="345.9609"/><text fill="#000000" font-family="sans-serif" font-size="13" font-weight="bold" lengthAdjust="spacing" textLength="9" x="1466.5" y="340.895">5</text><text fill="#000000" font-family="sans-serif" font-size="13" lengthAdjust="spacing" textLength="178" x="1479.5" y="340.895">email = getEmailUtilizador()</text><polygon fill="#A80036" points="2013.5,426.0938,2023.5,430.0938,2013.5,434.0938,2017.5,430.0938" style="stroke:#A80036;stroke-width:1.0;"/><line style="stroke:#A80036;stroke-width:1.0;" x1="1459.5" x2="2019.5" y1="430.0938" y2="430.0938"/><text fill="#000000" font-family="sans-serif" font-size="13" font-weight="bold" lengthAdjust="spacing" textLength="9" x="1466.5" y="425.0278">6</text><text fill="#000000" font-family="sans-serif" font-size="13" lengthAdjust="spacing" textLength="201" x="1479.5" y="425.0278">est=getEstafetaByEmail(email)</text><polygon fill="#A80036" points="69.5,485.2266,59.5,489.2266,69.5,493.2266,65.5,489.2266" style="stroke:#A80036;stroke-width:1.0;"/><line style="stroke:#A80036;stroke-width:1.0;stroke-dasharray:2.0,2.0;" x1="63.5" x2="854.5" y1="489.2266" y2="489.2266"/><text fill="#000000" font-family="sans-serif" font-size="13" font-weight="bold" lengthAdjust="spacing" textLength="9" x="75.5" y="484.1606">7</text><text fill="#000000" font-family="sans-serif" font-size="13" lengthAdjust="spacing" textLength="241" x="88.5" y="484.1606">solicita os dados (dataInicio, dataFim)</text><polygon fill="#A80036" points="838.5,514.3594,848.5,518.3594,838.5,522.3594,842.5,518.3594" style="stroke:#A80036;stroke-width:1.0;"/><line style="stroke:#A80036;stroke-width:1.0;" x1="58.5" x2="844.5" y1="518.3594" y2="518.3594"/><text fill="#000000" font-family="sans-serif" font-size="13" font-weight="bold" lengthAdjust="spacing" textLength="9" x="65.5" y="513.2935">8</text><text fill="#000000" font-family="sans-serif" font-size="13" lengthAdjust="spacing" textLength="166" x="78.5" y="513.2935">introduz dados solicitados</text><polygon fill="#A80036" points="1437.5,543.4922,1447.5,547.4922,1437.5,551.4922,1441.5,547.4922" style="stroke:#A80036;stroke-width:1.0;"/><line style="stroke:#A80036;stroke-width:1.0;" x1="860.5" x2="1443.5" y1="547.4922" y2="547.4922"/><text fill="#000000" font-family="sans-serif" font-size="13" font-weight="bold" lengthAdjust="spacing" textLength="9" x="867.5" y="542.4263">9</text><text fill="#000000" font-family="sans-serif" font-size="13" lengthAdjust="spacing" textLength="213" x="880.5" y="542.4263">novaEntrega(dataInicio, dataFim)</text><polygon fill="#A80036" points="2126.5,572.625,2136.5,576.625,2126.5,580.625,2130.5,576.625" style="stroke:#A80036;stroke-width:1.0;"/><line style="stroke:#A80036;stroke-width:1.0;" x1="1459.5" x2="2132.5" y1="576.625" y2="576.625"/><text fill="#000000" font-family="sans-serif" font-size="13" font-weight="bold" lengthAdjust="spacing" textLength="19" x="1466.5" y="571.5591">10</text><text fill="#000000" font-family="sans-serif" font-size="13" lengthAdjust="spacing" textLength="200" x="1489.5" y="571.5591">idEntrega=generateIdEntrega()</text><polygon fill="#A80036" points="2126.5,631.7578,2136.5,635.7578,2126.5,639.7578,2130.5,635.7578" style="stroke:#A80036;stroke-width:1.0;"/><line style="stroke:#A80036;stroke-width:1.0;" x1="1459.5" x2="2132.5" y1="635.7578" y2="635.7578"/><text fill="#000000" font-family="sans-serif" font-size="13" font-weight="bold" lengthAdjust="spacing" textLength="18" x="1466.5" y="630.6919">11</text><text fill="#000000" font-family="sans-serif" font-size="13" lengthAdjust="spacing" textLength="318" x="1488.5" y="630.6919">entr=novaEntrega(idEntrega, dataInicio, dataFim)</text><polygon fill="#A80036" points="2423.5,660.8906,2433.5,664.8906,2423.5,668.8906,2427.5,664.8906" style="stroke:#A80036;stroke-width:1.0;"/><line style="stroke:#A80036;stroke-width:1.0;" x1="2148.5" x2="2429.5" y1="664.8906" y2="664.8906"/><text fill="#000000" font-family="sans-serif" font-size="13" font-weight="bold" lengthAdjust="spacing" textLength="18" x="2155.5" y="659.8247">12</text><text fill="#000000" font-family="sans-serif" font-size="13" lengthAdjust="spacing" textLength="241" x="2177.5" y="659.8247">create(idEntrega, dataInicio, dataFim)</text><rect fill="#FEFECE" filter="url(#fth316mfdbwp6)" height="30.2969" style="stroke:#A80036;stroke-width:1.5;" width="107" x="2435.5" y="643.7578"/><text fill="#000000" font-family="sans-serif" font-size="14" lengthAdjust="spacing" textLength="93" x="2442.5" y="663.7529">entr:Entrega</text><line style="stroke:#A80036;stroke-width:1.0;" x1="2496" x2="2538" y1="715.1875" y2="715.1875"/><line style="stroke:#A80036;stroke-width:1.0;" x1="2538" x2="2538" y1="715.1875" y2="728.1875"/><line style="stroke:#A80036;stroke-width:1.0;" x1="2491" x2="2538" y1="728.1875" y2="728.1875"/><polygon fill="#A80036" points="2501,724.1875,2491,728.1875,2501,732.1875,2497,728.1875" style="stroke:#A80036;stroke-width:1.0;"/><text fill="#000000" font-family="sans-serif" font-size="13" font-weight="bold" lengthAdjust="spacing" textLength="17" x="2503" y="710.1216">13</text><text fill="#000000" font-family="sans-serif" font-size="13" lengthAdjust="spacing" textLength="108" x="2524" y="710.1216">addEstafeta(est)</text><polygon fill="#A80036" points="1437.5,748.3203,1447.5,752.3203,1437.5,756.3203,1441.5,752.3203" style="stroke:#A80036;stroke-width:1.0;"/><line style="stroke:#A80036;stroke-width:1.0;" x1="860.5" x2="1443.5" y1="752.3203" y2="752.3203"/><text fill="#000000" font-family="sans-serif" font-size="13" font-weight="bold" lengthAdjust="spacing" textLength="18" x="867.5" y="747.2544">14</text><text fill="#000000" font-family="sans-serif" font-size="13" lengthAdjust="spacing" textLength="137" x="889.5" y="747.2544">getListaEncomenda()</text><polygon fill="#A80036" points="2646,777.4531,2656,781.4531,2646,785.4531,2650,781.4531" style="stroke:#A80036;stroke-width:1.0;"/><line style="stroke:#A80036;stroke-width:1.0;" x1="1459.5" x2="2652" y1="781.4531" y2="781.4531"/><text fill="#000000" font-family="sans-serif" font-size="13" font-weight="bold" lengthAdjust="spacing" textLength="18" x="1466.5" y="776.3872">15</text><text fill="#000000" font-family="sans-serif" font-size="13" lengthAdjust="spacing" textLength="173" x="1488.5" y="776.3872">lenc=getListaEncomenda()</text><polygon fill="#A80036" points="69.5,836.5859,59.5,840.5859,69.5,844.5859,65.5,840.5859" style="stroke:#A80036;stroke-width:1.0;"/><line style="stroke:#A80036;stroke-width:1.0;stroke-dasharray:2.0,2.0;" x1="63.5" x2="849.5" y1="840.5859" y2="840.5859"/><text fill="#000000" font-family="sans-serif" font-size="13" font-weight="bold" lengthAdjust="spacing" textLength="18" x="75.5" y="835.52">16</text><text fill="#000000" font-family="sans-serif" font-size="13" lengthAdjust="spacing" textLength="195" x="97.5" y="835.52">mostra a lista de encomendas</text><path d="M10,855.5859 L88,855.5859 L88,862.5859 L78,872.5859 L10,872.5859 L10,855.5859 " fill="#EEEEEE" style="stroke:#000000;stroke-width:1.0;"/><rect fill="none" height="175.7969" style="stroke:#000000;stroke-width:2.0;" width="2653" x="10" y="855.5859"/><text fill="#000000" font-family="sans-serif" font-size="13" font-weight="bold" lengthAdjust="spacing" textLength="33" x="25" y="868.6528">loop</text><polygon fill="#A80036" points="69.5,889.8516,59.5,893.8516,69.5,897.8516,65.5,893.8516" style="stroke:#A80036;stroke-width:1.0;"/><line style="stroke:#A80036;stroke-width:1.0;stroke-dasharray:2.0,2.0;" x1="63.5" x2="854.5" y1="893.8516" y2="893.8516"/><text fill="#000000" font-family="sans-serif" font-size="13" font-weight="bold" lengthAdjust="spacing" textLength="18" x="75.5" y="888.7856">17</text><text fill="#000000" font-family="sans-serif" font-size="13" lengthAdjust="spacing" textLength="701" x="97.5" y="888.7856">solicita a introdução de uma encomenda(idEncomenda, dataPedida, preco, estadoEncomenda, listaProdutos)</text><polygon fill="#A80036" points="838.5,918.9844,848.5,922.9844,838.5,926.9844,842.5,922.9844" style="stroke:#A80036;stroke-width:1.0;"/><line style="stroke:#A80036;stroke-width:1.0;" x1="58.5" x2="844.5" y1="922.9844" y2="922.9844"/><text fill="#000000" font-family="sans-serif" font-size="13" font-weight="bold" lengthAdjust="spacing" textLength="18" x="65.5" y="917.9185">18</text><text fill="#000000" font-family="sans-serif" font-size="13" lengthAdjust="spacing" textLength="185" x="87.5" y="917.9185">introduz os dados solicitados</text><polygon fill="#A80036" points="1437.5,948.1172,1447.5,952.1172,1437.5,956.1172,1441.5,952.1172" style="stroke:#A80036;stroke-width:1.0;"/><line style="stroke:#A80036;stroke-width:1.0;" x1="860.5" x2="1443.5" y1="952.1172" y2="952.1172"/><text fill="#000000" font-family="sans-serif" font-size="13" font-weight="bold" lengthAdjust="spacing" textLength="18" x="867.5" y="947.0513">19</text><text fill="#000000" font-family="sans-serif" font-size="13" lengthAdjust="spacing" textLength="548" x="889.5" y="947.0513">novaEncomenda(idEncomenda, dataPedida, preco, estadoEncomenda, listaProdutos)</text><polygon fill="#A80036" points="2474,977.25,2484,981.25,2474,985.25,2478,981.25" style="stroke:#A80036;stroke-width:1.0;"/><line style="stroke:#A80036;stroke-width:1.0;" x1="1454.5" x2="2480" y1="981.25" y2="981.25"/><text fill="#000000" font-family="sans-serif" font-size="13" font-weight="bold" lengthAdjust="spacing" textLength="19" x="1461.5" y="976.1841">20</text><text fill="#000000" font-family="sans-serif" font-size="13" lengthAdjust="spacing" textLength="578" x="1484.5" y="976.1841">en=novaEncomenda(idEncomenda, dataPedida, preco,  estadoEncomenda, listaProdutos)</text><line style="stroke:#A80036;stroke-width:1.0;" x1="2496" x2="2538" y1="1015.3828" y2="1015.3828"/><line style="stroke:#A80036;stroke-width:1.0;" x1="2538" x2="2538" y1="1015.3828" y2="1028.3828"/><line style="stroke:#A80036;stroke-width:1.0;" x1="2491" x2="2538" y1="1028.3828" y2="1028.3828"/><polygon fill="#A80036" points="2501,1024.3828,2491,1028.3828,2501,1032.3828,2497,1028.3828" style="stroke:#A80036;stroke-width:1.0;"/><text fill="#000000" font-family="sans-serif" font-size="13" font-weight="bold" lengthAdjust="spacing" textLength="18" x="2503" y="1010.3169">21</text><text fill="#000000" font-family="sans-serif" font-size="13" lengthAdjust="spacing" textLength="126" x="2525" y="1010.3169">addEncomenda(en)</text><polygon fill="#A80036" points="1437.5,1055.5156,1447.5,1059.5156,1437.5,1063.5156,1441.5,1059.5156" style="stroke:#A80036;stroke-width:1.0;"/><line style="stroke:#A80036;stroke-width:1.0;" x1="860.5" x2="1443.5" y1="1059.5156" y2="1059.5156"/><text fill="#000000" font-family="sans-serif" font-size="13" font-weight="bold" lengthAdjust="spacing" textLength="18" x="867.5" y="1054.4497">22</text><text fill="#000000" font-family="sans-serif" font-size="13" lengthAdjust="spacing" textLength="110" x="889.5" y="1054.4497">getListaScooter()</text><polygon fill="#A80036" points="2770.5,1084.6484,2780.5,1088.6484,2770.5,1092.6484,2774.5,1088.6484" style="stroke:#A80036;stroke-width:1.0;"/><line style="stroke:#A80036;stroke-width:1.0;" x1="1459.5" x2="2776.5" y1="1088.6484" y2="1088.6484"/><text fill="#000000" font-family="sans-serif" font-size="13" font-weight="bold" lengthAdjust="spacing" textLength="17" x="1466.5" y="1083.5825">23</text><text fill="#000000" font-family="sans-serif" font-size="13" lengthAdjust="spacing" textLength="130" x="1487.5" y="1083.5825">ls=getListaScooter()</text><polygon fill="#A80036" points="69.5,1143.7813,59.5,1147.7813,69.5,1151.7813,65.5,1147.7813" style="stroke:#A80036;stroke-width:1.0;"/><line style="stroke:#A80036;stroke-width:1.0;stroke-dasharray:2.0,2.0;" x1="63.5" x2="854.5" y1="1147.7813" y2="1147.7813"/><text fill="#000000" font-family="sans-serif" font-size="13" font-weight="bold" lengthAdjust="spacing" textLength="18" x="75.5" y="1142.7153">24</text><text fill="#000000" font-family="sans-serif" font-size="13" lengthAdjust="spacing" textLength="746" x="97.5" y="1142.7153">mostra a lista de scooters e solicita escolha de uma scooter(idScooter, percentagemBateria, potencia, pesoMaximo)</text><polygon fill="#A80036" points="838.5,1172.9141,848.5,1176.9141,838.5,1180.9141,842.5,1176.9141" style="stroke:#A80036;stroke-width:1.0;"/><line style="stroke:#A80036;stroke-width:1.0;" x1="58.5" x2="844.5" y1="1176.9141" y2="1176.9141"/><text fill="#000000" font-family="sans-serif" font-size="13" font-weight="bold" lengthAdjust="spacing" textLength="18" x="65.5" y="1171.8481">25</text><text fill="#000000" font-family="sans-serif" font-size="13" lengthAdjust="spacing" textLength="185" x="87.5" y="1171.8481">introduz os dados solicitados</text><polygon fill="#A80036" points="1437.5,1202.0469,1447.5,1206.0469,1437.5,1210.0469,1441.5,1206.0469" style="stroke:#A80036;stroke-width:1.0;"/><line style="stroke:#A80036;stroke-width:1.0;" x1="860.5" x2="1443.5" y1="1206.0469" y2="1206.0469"/><text fill="#000000" font-family="sans-serif" font-size="13" font-weight="bold" lengthAdjust="spacing" textLength="18" x="867.5" y="1200.981">26</text><text fill="#000000" font-family="sans-serif" font-size="13" lengthAdjust="spacing" textLength="442" x="889.5" y="1200.981">novaScooter(idScooter, percentagemBateria, potencia, pesoMaximo)</text><polygon fill="#A80036" points="2474,1231.1797,2484,1235.1797,2474,1239.1797,2478,1235.1797" style="stroke:#A80036;stroke-width:1.0;"/><line style="stroke:#A80036;stroke-width:1.0;" x1="1454.5" x2="2480" y1="1235.1797" y2="1235.1797"/><text fill="#000000" font-family="sans-serif" font-size="13" font-weight="bold" lengthAdjust="spacing" textLength="18" x="1461.5" y="1230.1138">27</text><text fill="#000000" font-family="sans-serif" font-size="13" lengthAdjust="spacing" textLength="459" x="1483.5" y="1230.1138">s=novaScooter(idScooter, percentagemBateria, potencia, pesoMaximo)</text><line style="stroke:#A80036;stroke-width:1.0;" x1="2496" x2="2538" y1="1269.3125" y2="1269.3125"/><line style="stroke:#A80036;stroke-width:1.0;" x1="2538" x2="2538" y1="1269.3125" y2="1282.3125"/><line style="stroke:#A80036;stroke-width:1.0;" x1="2491" x2="2538" y1="1282.3125" y2="1282.3125"/><polygon fill="#A80036" points="2501,1278.3125,2491,1282.3125,2501,1286.3125,2497,1282.3125" style="stroke:#A80036;stroke-width:1.0;"/><text fill="#000000" font-family="sans-serif" font-size="13" font-weight="bold" lengthAdjust="spacing" textLength="18" x="2503" y="1264.2466">28</text><text fill="#000000" font-family="sans-serif" font-size="13" lengthAdjust="spacing" textLength="90" x="2525" y="1264.2466">addScooter(s)</text><polygon fill="#A80036" points="69.5,1302.4453,59.5,1306.4453,69.5,1310.4453,65.5,1306.4453" style="stroke:#A80036;stroke-width:1.0;"/><line style="stroke:#A80036;stroke-width:1.0;stroke-dasharray:2.0,2.0;" x1="63.5" x2="854.5" y1="1306.4453" y2="1306.4453"/><text fill="#000000" font-family="sans-serif" font-size="13" font-weight="bold" lengthAdjust="spacing" textLength="18" x="75.5" y="1301.3794">29</text><text fill="#000000" font-family="sans-serif" font-size="13" lengthAdjust="spacing" textLength="252" x="97.5" y="1301.3794">apresenta dados e solicita confirmação</text><polygon fill="#A80036" points="838.5,1331.5781,848.5,1335.5781,838.5,1339.5781,842.5,1335.5781" style="stroke:#A80036;stroke-width:1.0;"/><line style="stroke:#A80036;stroke-width:1.0;" x1="58.5" x2="844.5" y1="1335.5781" y2="1335.5781"/><text fill="#000000" font-family="sans-serif" font-size="13" font-weight="bold" lengthAdjust="spacing" textLength="18" x="65.5" y="1330.5122">30</text><text fill="#000000" font-family="sans-serif" font-size="13" lengthAdjust="spacing" textLength="119" x="87.5" y="1330.5122">confirma os dados</text><polygon fill="#A80036" points="1437.5,1360.7109,1447.5,1364.7109,1437.5,1368.7109,1441.5,1364.7109" style="stroke:#A80036;stroke-width:1.0;"/><line style="stroke:#A80036;stroke-width:1.0;" x1="860.5" x2="1443.5" y1="1364.7109" y2="1364.7109"/><text fill="#000000" font-family="sans-serif" font-size="13" font-weight="bold" lengthAdjust="spacing" textLength="17" x="867.5" y="1359.645">31</text><text fill="#000000" font-family="sans-serif" font-size="13" lengthAdjust="spacing" textLength="104" x="888.5" y="1359.645">registaEntrega()</text><polygon fill="#A80036" points="2126.5,1389.8438,2136.5,1393.8438,2126.5,1397.8438,2130.5,1393.8438" style="stroke:#A80036;stroke-width:1.0;"/><line style="stroke:#A80036;stroke-width:1.0;" x1="1459.5" x2="2132.5" y1="1393.8438" y2="1393.8438"/><text fill="#000000" font-family="sans-serif" font-size="13" font-weight="bold" lengthAdjust="spacing" textLength="17" x="1466.5" y="1388.7778">32</text><text fill="#000000" font-family="sans-serif" font-size="13" lengthAdjust="spacing" textLength="130" x="1487.5" y="1388.7778">registaEntrega(entr)</text><line style="stroke:#A80036;stroke-width:1.0;" x1="2148.5" x2="2190.5" y1="1422.9766" y2="1422.9766"/><line style="stroke:#A80036;stroke-width:1.0;" x1="2190.5" x2="2190.5" y1="1422.9766" y2="1435.9766"/><line style="stroke:#A80036;stroke-width:1.0;" x1="2149.5" x2="2190.5" y1="1435.9766" y2="1435.9766"/><polygon fill="#A80036" points="2159.5,1431.9766,2149.5,1435.9766,2159.5,1439.9766,2155.5,1435.9766" style="stroke:#A80036;stroke-width:1.0;"/><text fill="#000000" font-family="sans-serif" font-size="13" font-weight="bold" lengthAdjust="spacing" textLength="16" x="2155.5" y="1417.9106">33</text><text fill="#000000" font-family="sans-serif" font-size="13" lengthAdjust="spacing" textLength="124" x="2175.5" y="1417.9106">validaEntrega(entr)</text><line style="stroke:#A80036;stroke-width:1.0;" x1="2148.5" x2="2190.5" y1="1470.1094" y2="1470.1094"/><line style="stroke:#A80036;stroke-width:1.0;" x1="2190.5" x2="2190.5" y1="1470.1094" y2="1483.1094"/><line style="stroke:#A80036;stroke-width:1.0;" x1="2143.5" x2="2190.5" y1="1483.1094" y2="1483.1094"/><polygon fill="#A80036" points="2153.5,1479.1094,2143.5,1483.1094,2153.5,1487.1094,2149.5,1483.1094" style="stroke:#A80036;stroke-width:1.0;"/><text fill="#000000" font-family="sans-serif" font-size="13" font-weight="bold" lengthAdjust="spacing" textLength="17" x="2155.5" y="1465.0435">34</text><text fill="#000000" font-family="sans-serif" font-size="13" lengthAdjust="spacing" textLength="110" x="2176.5" y="1465.0435">addEntrega(entr)</text><polygon fill="#A80036" points="64.5,1503.2422,54.5,1507.2422,64.5,1511.2422,60.5,1507.2422" style="stroke:#A80036;stroke-width:1.0;"/><line style="stroke:#A80036;stroke-width:1.0;stroke-dasharray:2.0,2.0;" x1="58.5" x2="854.5" y1="1507.2422" y2="1507.2422"/><text fill="#000000" font-family="sans-serif" font-size="13" font-weight="bold" lengthAdjust="spacing" textLength="17" x="70.5" y="1502.1763">35</text><text fill="#000000" font-family="sans-serif" font-size="13" lengthAdjust="spacing" textLength="208" x="91.5" y="1502.1763">informa operação bem sucedida</text><!--MD5=[c850ad41dd01b9bd97ce3037d5cbb911]
@startuml
autonumber
actor "Estafeta" as EST

participant ":RegistarEntregaUI" as UI
participant ":RegistarEntregaController" as CTRL
participant "AplicacaoPOT" as _APP
participant "app\n:AplicacaoPOT" as APP
participant "sessao\n:SessaoUtilizador" as SESSAO

participant ":EstafetaDB" as ESTDB
participant ":EntregaDB" as ENTRDB
participant "entr:Entrega" as ENTR

participant ":EncomendaDB" as RENC
participant ":ScooterDB" as RS


activate EST
EST -> UI : inicia registo de entrega
activate UI
UI -> CTRL : getEstafeta()
activate CTRL
CTRL -> _APP: app = getInstance()
activate _APP
|||
deactivate _APP
CTRL -> APP: sessao = getSessaoAtual()
activate APP
|||
deactivate APP

CTRL -> SESSAO: email = getEmailUtilizador()
activate SESSAO
|||
deactivate SESSAO
CTRL -> ESTDB : est=getEstafetaByEmail(email)
activate ESTDB
deactivate ESTDB
deactivate CTRL
UI - -> EST : solicita os dados (dataInicio, dataFim)
deactivate UI

EST -> UI : introduz dados solicitados
activate UI
UI -> CTRL : novaEntrega(dataInicio, dataFim)
activate CTRL
CTRL -> ENTRDB : idEntrega=generateIdEntrega()
activate ENTRDB
deactivate ENTRDB
CTRL -> ENTRDB : entr=novaEntrega(idEntrega, dataInicio, dataFim)
activate ENTRDB
ENTRDB -> ENTR ** : create(idEntrega, dataInicio, dataFim)
activate ENTR
ENTR -> ENTR : addEstafeta(est)
deactivate ENTR
deactivate ENTRDB
deactivate CTRL
UI -> CTRL : getListaEncomenda()
activate CTRL
CTRL -> RENC : lenc=getListaEncomenda()
activate RENC
deactivate RENC
deactivate CTRL
UI - -> EST : mostra a lista de encomendas
loop
UI - -> EST : solicita a introdução de uma encomenda(idEncomenda, dataPedida, preco, estadoEncomenda, listaProdutos)
deactivate UI


EST -> UI : introduz os dados solicitados
activate UI
UI -> CTRL : novaEncomenda(idEncomenda, dataPedida, preco, estadoEncomenda, listaProdutos)
activate CTRL
CTRL -> ENTR : en=novaEncomenda(idEncomenda, dataPedida, preco,  estadoEncomenda, listaProdutos)
deactivate CTRL
activate ENTR
ENTR -> ENTR : addEncomenda(en)
deactivate ENTR
end loop
UI -> CTRL : getListaScooter()
activate CTRL
CTRL -> RS : ls=getListaScooter()
activate RS
deactivate RS
deactivate CTRL
UI - -> EST : mostra a lista de scooters e solicita escolha de uma scooter(idScooter, percentagemBateria, potencia, pesoMaximo)
deactivate UI


EST -> UI : introduz os dados solicitados
activate UI
UI -> CTRL : novaScooter(idScooter, percentagemBateria, potencia, pesoMaximo)
activate CTRL
CTRL -> ENTR : s=novaScooter(idScooter, percentagemBateria, potencia, pesoMaximo)
deactivate CTRL
activate ENTR
ENTR -> ENTR : addScooter(s)
deactivate ENTR
UI - -> EST : apresenta dados e solicita confirmação
deactivate UI


EST -> UI : confirma os dados
activate UI
UI -> CTRL : registaEntrega()
activate CTRL
CTRL-> ENTRDB : registaEntrega(entr)
activate ENTRDB
ENTRDB -> ENTRDB : validaEntrega(entr)
ENTRDB -> ENTRDB : addEntrega(entr)
deactivate ENTRDB

UI - -> EST : informa operação bem sucedida
deactivate CTRL
deactivate UI

deactivate EST
@enduml

PlantUML version 1.2020.27beta7(Unknown compile time)
(GPL source distribution)
Java Runtime: Java(TM) SE Runtime Environment
JVM: Java HotSpot(TM) 64-Bit Server VM
Default Encoding: UTF-8
Language: en
Country: US
--></g></svg>