<?xml version="1.0" encoding="UTF-8" standalone="no"?><svg xmlns="http://www.w3.org/2000/svg" xmlns:xlink="http://www.w3.org/1999/xlink" contentScriptType="application/ecmascript" contentStyleType="text/css" height="311px" preserveAspectRatio="none" style="width:726px;height:311px;" version="1.1" viewBox="0 0 726 311" width="726px" zoomAndPan="magnify"><defs><filter height="300%" id="f1er85ijw8fzxk" width="300%" x="-1" y="-1"><feGaussianBlur result="blurOut" stdDeviation="2.0"/><feColorMatrix in="blurOut" result="blurOut2" type="matrix" values="0 0 0 0 0 0 0 0 0 0 0 0 0 0 0 0 0 0 .4 0"/><feOffset dx="4.0" dy="4.0" in="blurOut2" result="blurOut3"/><feBlend in="SourceGraphic" in2="blurOut3" mode="normal"/></filter></defs><g><!--MD5=[3179f819b5ca0f9c8a1bd58e9144681b]
class Entrega--><rect codeLine="5" fill="#FEFECE" filter="url(#f1er85ijw8fzxk)" height="78.4141" id="Entrega" style="stroke:#A80036;stroke-width:1.5;" width="78" x="344.5" y="80.5"/><ellipse cx="359.5" cy="96.5" fill="#ADD1B2" rx="11" ry="11" style="stroke:#A80036;stroke-width:1.0;"/><path d="M361.8438,92.1719 C360.9063,91.7344 360.3125,91.5938 359.4375,91.5938 C356.8125,91.5938 354.8125,93.6719 354.8125,96.3906 L354.8125,97.5156 C354.8125,100.0938 356.9219,101.9844 359.8125,101.9844 C361.0313,101.9844 362.1875,101.6875 362.9375,101.1406 C363.5156,100.7344 363.8438,100.2813 363.8438,99.8906 C363.8438,99.4375 363.4531,99.0469 362.9844,99.0469 C362.7656,99.0469 362.5625,99.125 362.375,99.3125 C361.9219,99.7969 361.9219,99.7969 361.7344,99.8906 C361.3125,100.1563 360.625,100.2813 359.8594,100.2813 C357.8125,100.2813 356.5156,99.1875 356.5156,97.4844 L356.5156,96.3906 C356.5156,94.6094 357.7656,93.2969 359.5,93.2969 C360.0781,93.2969 360.6875,93.4531 361.1563,93.7031 C361.6406,93.9844 361.8125,94.2031 361.9063,94.6094 C361.9688,95.0156 362,95.1406 362.1406,95.2656 C362.2813,95.4063 362.5156,95.5156 362.7344,95.5156 C363,95.5156 363.2656,95.375 363.4375,95.1563 C363.5469,95 363.5781,94.8125 363.5781,94.3906 L363.5781,92.9688 C363.5781,92.5313 363.5625,92.4063 363.4688,92.25 C363.3125,91.9844 363.0313,91.8438 362.7344,91.8438 C362.4375,91.8438 362.2344,91.9375 362.0156,92.25 L361.8438,92.1719 Z " fill="#000000"/><text fill="#000000" font-family="sans-serif" font-size="12" lengthAdjust="spacing" textLength="46" x="373.5" y="100.6543">Entrega</text><line style="stroke:#A80036;stroke-width:1.5;" x1="345.5" x2="421.5" y1="112.5" y2="112.5"/><text fill="#000000" font-family="sans-serif" font-size="11" lengthAdjust="spacing" textLength="58" x="350.5" y="126.7104">-idEntrega</text><text fill="#000000" font-family="sans-serif" font-size="11" lengthAdjust="spacing" textLength="58" x="350.5" y="139.5151">-dataInicio</text><text fill="#000000" font-family="sans-serif" font-size="11" lengthAdjust="spacing" textLength="49" x="350.5" y="152.3198">-dataFim</text><!--MD5=[c55f92ccbf0646788158d42f3399cc78]
class Encomenda--><rect codeLine="11" fill="#FEFECE" filter="url(#f1er85ijw8fzxk)" height="91.2188" id="Encomenda" style="stroke:#A80036;stroke-width:1.5;" width="111" x="589.5" y="7"/><ellipse cx="608.55" cy="23" fill="#ADD1B2" rx="11" ry="11" style="stroke:#A80036;stroke-width:1.0;"/><path d="M610.8938,18.6719 C609.9563,18.2344 609.3625,18.0938 608.4875,18.0938 C605.8625,18.0938 603.8625,20.1719 603.8625,22.8906 L603.8625,24.0156 C603.8625,26.5938 605.9719,28.4844 608.8625,28.4844 C610.0813,28.4844 611.2375,28.1875 611.9875,27.6406 C612.5656,27.2344 612.8938,26.7813 612.8938,26.3906 C612.8938,25.9375 612.5031,25.5469 612.0344,25.5469 C611.8156,25.5469 611.6125,25.625 611.425,25.8125 C610.9719,26.2969 610.9719,26.2969 610.7844,26.3906 C610.3625,26.6563 609.675,26.7813 608.9094,26.7813 C606.8625,26.7813 605.5656,25.6875 605.5656,23.9844 L605.5656,22.8906 C605.5656,21.1094 606.8156,19.7969 608.55,19.7969 C609.1281,19.7969 609.7375,19.9531 610.2063,20.2031 C610.6906,20.4844 610.8625,20.7031 610.9563,21.1094 C611.0188,21.5156 611.05,21.6406 611.1906,21.7656 C611.3313,21.9063 611.5656,22.0156 611.7844,22.0156 C612.05,22.0156 612.3156,21.875 612.4875,21.6563 C612.5969,21.5 612.6281,21.3125 612.6281,20.8906 L612.6281,19.4688 C612.6281,19.0313 612.6125,18.9063 612.5188,18.75 C612.3625,18.4844 612.0813,18.3438 611.7844,18.3438 C611.4875,18.3438 611.2844,18.4375 611.0656,18.75 L610.8938,18.6719 Z " fill="#000000"/><text fill="#000000" font-family="sans-serif" font-size="12" lengthAdjust="spacing" textLength="70" x="623.45" y="27.1543">Encomenda</text><line style="stroke:#A80036;stroke-width:1.5;" x1="590.5" x2="699.5" y1="39" y2="39"/><text fill="#000000" font-family="sans-serif" font-size="11" lengthAdjust="spacing" textLength="81" x="595.5" y="53.2104">-idEncomenda</text><text fill="#000000" font-family="sans-serif" font-size="11" lengthAdjust="spacing" textLength="67" x="595.5" y="66.0151">-dataPedida</text><text fill="#000000" font-family="sans-serif" font-size="11" lengthAdjust="spacing" textLength="36" x="595.5" y="78.8198">-preco</text><text fill="#000000" font-family="sans-serif" font-size="11" lengthAdjust="spacing" textLength="99" x="595.5" y="91.6245">-pesoEncomenda</text><!--MD5=[3f1202280bfe3359d2f91fb9b6e32986]
class Estafeta--><rect codeLine="18" fill="#FEFECE" filter="url(#f1er85ijw8fzxk)" height="116.8281" id="Estafeta" style="stroke:#A80036;stroke-width:1.5;" width="155" x="7" y="142"/><ellipse cx="56.25" cy="158" fill="#ADD1B2" rx="11" ry="11" style="stroke:#A80036;stroke-width:1.0;"/><path d="M58.5938,153.6719 C57.6563,153.2344 57.0625,153.0938 56.1875,153.0938 C53.5625,153.0938 51.5625,155.1719 51.5625,157.8906 L51.5625,159.0156 C51.5625,161.5938 53.6719,163.4844 56.5625,163.4844 C57.7813,163.4844 58.9375,163.1875 59.6875,162.6406 C60.2656,162.2344 60.5938,161.7813 60.5938,161.3906 C60.5938,160.9375 60.2031,160.5469 59.7344,160.5469 C59.5156,160.5469 59.3125,160.625 59.125,160.8125 C58.6719,161.2969 58.6719,161.2969 58.4844,161.3906 C58.0625,161.6563 57.375,161.7813 56.6094,161.7813 C54.5625,161.7813 53.2656,160.6875 53.2656,158.9844 L53.2656,157.8906 C53.2656,156.1094 54.5156,154.7969 56.25,154.7969 C56.8281,154.7969 57.4375,154.9531 57.9063,155.2031 C58.3906,155.4844 58.5625,155.7031 58.6563,156.1094 C58.7188,156.5156 58.75,156.6406 58.8906,156.7656 C59.0313,156.9063 59.2656,157.0156 59.4844,157.0156 C59.75,157.0156 60.0156,156.875 60.1875,156.6563 C60.2969,156.5 60.3281,156.3125 60.3281,155.8906 L60.3281,154.4688 C60.3281,154.0313 60.3125,153.9063 60.2188,153.75 C60.0625,153.4844 59.7813,153.3438 59.4844,153.3438 C59.1875,153.3438 58.9844,153.4375 58.7656,153.75 L58.5938,153.6719 Z " fill="#000000"/><text fill="#000000" font-family="sans-serif" font-size="12" lengthAdjust="spacing" textLength="48" x="76.75" y="162.1543">Estafeta</text><line style="stroke:#A80036;stroke-width:1.5;" x1="8" x2="161" y1="174" y2="174"/><text fill="#000000" font-family="sans-serif" font-size="11" lengthAdjust="spacing" textLength="21" x="13" y="188.2104">-NIF</text><text fill="#000000" font-family="sans-serif" font-size="11" lengthAdjust="spacing" textLength="37" x="13" y="201.0151">-nome</text><text fill="#000000" font-family="sans-serif" font-size="11" lengthAdjust="spacing" textLength="36" x="13" y="213.8198">-email</text><text fill="#000000" font-family="sans-serif" font-size="11" lengthAdjust="spacing" textLength="143" x="13" y="226.6245">-numeroSegurancaSocial</text><text fill="#000000" font-family="sans-serif" font-size="11" lengthAdjust="spacing" textLength="57" x="13" y="239.4292">-password</text><text fill="#000000" font-family="sans-serif" font-size="11" lengthAdjust="spacing" textLength="79" x="13" y="252.2339">-pesoEstafeta</text><!--MD5=[f4402668d5d5bb8485350c0fdb60ac8e]
class Scooter--><rect codeLine="27" fill="#FEFECE" filter="url(#f1er85ijw8fzxk)" height="104.0234" id="Scooter" style="stroke:#A80036;stroke-width:1.5;" width="134" x="578" y="133.5"/><ellipse cx="617.3" cy="149.5" fill="#ADD1B2" rx="11" ry="11" style="stroke:#A80036;stroke-width:1.0;"/><path d="M619.6438,145.1719 C618.7063,144.7344 618.1125,144.5938 617.2375,144.5938 C614.6125,144.5938 612.6125,146.6719 612.6125,149.3906 L612.6125,150.5156 C612.6125,153.0938 614.7219,154.9844 617.6125,154.9844 C618.8313,154.9844 619.9875,154.6875 620.7375,154.1406 C621.3156,153.7344 621.6438,153.2813 621.6438,152.8906 C621.6438,152.4375 621.2531,152.0469 620.7844,152.0469 C620.5656,152.0469 620.3625,152.125 620.175,152.3125 C619.7219,152.7969 619.7219,152.7969 619.5344,152.8906 C619.1125,153.1563 618.425,153.2813 617.6594,153.2813 C615.6125,153.2813 614.3156,152.1875 614.3156,150.4844 L614.3156,149.3906 C614.3156,147.6094 615.5656,146.2969 617.3,146.2969 C617.8781,146.2969 618.4875,146.4531 618.9563,146.7031 C619.4406,146.9844 619.6125,147.2031 619.7063,147.6094 C619.7688,148.0156 619.8,148.1406 619.9406,148.2656 C620.0813,148.4063 620.3156,148.5156 620.5344,148.5156 C620.8,148.5156 621.0656,148.375 621.2375,148.1563 C621.3469,148 621.3781,147.8125 621.3781,147.3906 L621.3781,145.9688 C621.3781,145.5313 621.3625,145.4063 621.2688,145.25 C621.1125,144.9844 620.8313,144.8438 620.5344,144.8438 C620.2375,144.8438 620.0344,144.9375 619.8156,145.25 L619.6438,145.1719 Z " fill="#000000"/><text fill="#000000" font-family="sans-serif" font-size="12" lengthAdjust="spacing" textLength="48" x="636.7" y="153.6543">Scooter</text><line style="stroke:#A80036;stroke-width:1.5;" x1="579" x2="711" y1="165.5" y2="165.5"/><text fill="#000000" font-family="sans-serif" font-size="11" lengthAdjust="spacing" textLength="58" x="584" y="179.7104">-idScooter</text><text fill="#000000" font-family="sans-serif" font-size="11" lengthAdjust="spacing" textLength="122" x="584" y="192.5151">-percentagemBateria</text><text fill="#000000" font-family="sans-serif" font-size="11" lengthAdjust="spacing" textLength="76" x="584" y="205.3198">-pesoMaximo</text><text fill="#000000" font-family="sans-serif" font-size="11" lengthAdjust="spacing" textLength="76" x="584" y="218.1245">-pesoScooter</text><text fill="#000000" font-family="sans-serif" font-size="11" lengthAdjust="spacing" textLength="53" x="584" y="230.9292">-potencia</text><!--MD5=[5dd1d6732c071e710b9290b531f2fa3b]
class Utilizador--><rect codeLine="35" fill="#FEFECE" filter="url(#f1er85ijw8fzxk)" height="104.0234" id="Utilizador" style="stroke:#A80036;stroke-width:1.5;" width="155" x="306" y="193.5"/><ellipse cx="350.75" cy="209.5" fill="#ADD1B2" rx="11" ry="11" style="stroke:#A80036;stroke-width:1.0;"/><path d="M353.0938,205.1719 C352.1563,204.7344 351.5625,204.5938 350.6875,204.5938 C348.0625,204.5938 346.0625,206.6719 346.0625,209.3906 L346.0625,210.5156 C346.0625,213.0938 348.1719,214.9844 351.0625,214.9844 C352.2813,214.9844 353.4375,214.6875 354.1875,214.1406 C354.7656,213.7344 355.0938,213.2813 355.0938,212.8906 C355.0938,212.4375 354.7031,212.0469 354.2344,212.0469 C354.0156,212.0469 353.8125,212.125 353.625,212.3125 C353.1719,212.7969 353.1719,212.7969 352.9844,212.8906 C352.5625,213.1563 351.875,213.2813 351.1094,213.2813 C349.0625,213.2813 347.7656,212.1875 347.7656,210.4844 L347.7656,209.3906 C347.7656,207.6094 349.0156,206.2969 350.75,206.2969 C351.3281,206.2969 351.9375,206.4531 352.4063,206.7031 C352.8906,206.9844 353.0625,207.2031 353.1563,207.6094 C353.2188,208.0156 353.25,208.1406 353.3906,208.2656 C353.5313,208.4063 353.7656,208.5156 353.9844,208.5156 C354.25,208.5156 354.5156,208.375 354.6875,208.1563 C354.7969,208 354.8281,207.8125 354.8281,207.3906 L354.8281,205.9688 C354.8281,205.5313 354.8125,205.4063 354.7188,205.25 C354.5625,204.9844 354.2813,204.8438 353.9844,204.8438 C353.6875,204.8438 353.4844,204.9375 353.2656,205.25 L353.0938,205.1719 Z " fill="#000000"/><text fill="#000000" font-family="sans-serif" font-size="12" lengthAdjust="spacing" textLength="57" x="371.25" y="213.6543">Utilizador</text><line style="stroke:#A80036;stroke-width:1.5;" x1="307" x2="460" y1="225.5" y2="225.5"/><text fill="#000000" font-family="sans-serif" font-size="11" lengthAdjust="spacing" textLength="21" x="312" y="239.7104">-NIF</text><text fill="#000000" font-family="sans-serif" font-size="11" lengthAdjust="spacing" textLength="37" x="312" y="252.5151">-nome</text><text fill="#000000" font-family="sans-serif" font-size="11" lengthAdjust="spacing" textLength="36" x="312" y="265.3198">-email</text><text fill="#000000" font-family="sans-serif" font-size="11" lengthAdjust="spacing" textLength="143" x="312" y="278.1245">-numeroSegurancaSocial</text><text fill="#000000" font-family="sans-serif" font-size="11" lengthAdjust="spacing" textLength="57" x="312" y="290.9292">-password</text><!--MD5=[aa5a8ec5fd097e3d415964f18fa48efb]
link Estafeta to Utilizador--><path codeLine="43" d="M162.371,212.1471 C206.543,218.8398 261.833,227.2172 305.951,233.9017 " fill="none" id="Estafeta-Utilizador" style="stroke:#A80036;stroke-width:1.0;"/><polygon fill="#000000" points="201.9436,209.8154,193.4408,205.5547,192.5603,211.3662,201.9436,209.8154" style="stroke:#000000;stroke-width:1.0;"/><text fill="#000000" font-family="sans-serif" font-size="13" lengthAdjust="spacing" textLength="69" x="206" y="213.5669">atua como</text><text fill="#000000" font-family="sans-serif" font-size="13" lengthAdjust="spacing" textLength="8" x="169.9185" y="225.9932">1</text><text fill="#000000" font-family="sans-serif" font-size="13" lengthAdjust="spacing" textLength="8" x="289.9235" y="245.5706">1</text><!--MD5=[39609d66ce6d06d1779a14455c909f6f]
link Entrega to Encomenda--><path codeLine="44" d="M422.511,109.686 C466.434,98.345 539.073,79.591 589.12,66.669 " fill="none" id="Entrega-Encomenda" style="stroke:#A80036;stroke-width:1.0;"/><polygon fill="#000000" points="501.3412,67.8164,491.8486,67.232,493.3181,72.9233,501.3412,67.8164" style="stroke:#000000;stroke-width:1.0;"/><text fill="#000000" font-family="sans-serif" font-size="13" lengthAdjust="spacing" textLength="41" x="505.5" y="73.5669">possui</text><text fill="#000000" font-family="sans-serif" font-size="13" lengthAdjust="spacing" textLength="8" x="430.4412" y="121.3003">1</text><text fill="#000000" font-family="sans-serif" font-size="13" lengthAdjust="spacing" textLength="7" x="574.5119" y="81.5067">*</text><!--MD5=[328dae9b2f192140d45e51cd90ecd75a]
link Estafeta to Entrega--><path codeLine="45" d="M162.371,179.535 C220.809,163.598 298.706,142.353 344.448,129.878 " fill="none" id="Estafeta-Entrega" style="stroke:#A80036;stroke-width:1.0;"/><polygon fill="#000000" points="215.3238,139.7508,205.8242,139.2954,207.3707,144.9661,215.3238,139.7508" style="stroke:#000000;stroke-width:1.0;"/><text fill="#000000" font-family="sans-serif" font-size="13" lengthAdjust="spacing" textLength="42" x="219.5" y="145.5669">realiza</text><text fill="#000000" font-family="sans-serif" font-size="13" lengthAdjust="spacing" textLength="8" x="169.9185" y="190.3746">1</text><text fill="#000000" font-family="sans-serif" font-size="13" lengthAdjust="spacing" textLength="7" x="329.6025" y="145.2152">*</text><!--MD5=[f440ac15537f19f21c80dc932ffd2bf8]
link Entrega to Scooter--><path codeLine="46" d="M422.511,129.168 C463.267,139.533 528.746,156.187 577.96,168.704 " fill="none" id="Entrega-Scooter" style="stroke:#A80036;stroke-width:1.0;"/><polygon fill="#000000" points="491.1543,136.834,499.1959,141.9117,500.6447,136.2152,491.1543,136.834" style="stroke:#000000;stroke-width:1.0;"/><text fill="#000000" font-family="sans-serif" font-size="13" lengthAdjust="spacing" textLength="42" x="505" y="142.5669">realiza</text><text fill="#000000" font-family="sans-serif" font-size="13" lengthAdjust="spacing" textLength="7" x="430.6147" y="144.4807">*</text><text fill="#000000" font-family="sans-serif" font-size="13" lengthAdjust="spacing" textLength="8" x="562.19" y="179.7601">1</text><!--MD5=[e07dbc9f09b963420ec5ae9867489c39]
@startuml
skinparam classAttributeIconSize 0
hide methods
left to right direction

class Entrega {
  -idEntrega
  -dataInicio
  -dataFim
}

class Encomenda {
  -idEncomenda
  -dataPedida
  -preco
  -pesoEncomenda
}

class Estafeta {
  -NIF
  -nome
  -email
  -numeroSegurancaSocial
  -password
  -pesoEstafeta
}

class Scooter {
  -idScooter
  -percentagemBateria
  -pesoMaximo
  -pesoScooter
  -potencia
}

class Utilizador {
  -NIF
  -nome
  -email
  -numeroSegurancaSocial
  -password
}

Estafeta "1" - - "1" Utilizador: atua como >
Entrega "1" - - "*" Encomenda : possui >
Estafeta "1" - - "*" Entrega: realiza >
Entrega "*" - - "1" Scooter: realiza <
@enduml

PlantUML version 1.2020.27beta7(Unknown compile time)
(GPL source distribution)
Java Runtime: Java(TM) SE Runtime Environment
JVM: Java HotSpot(TM) 64-Bit Server VM
Default Encoding: UTF-8
Language: en
Country: US
--></g></svg>