<?xml version="1.0" encoding="UTF-8" standalone="no"?><svg xmlns="http://www.w3.org/2000/svg" xmlns:xlink="http://www.w3.org/1999/xlink" contentScriptType="application/ecmascript" contentStyleType="text/css" height="382px" preserveAspectRatio="none" style="width:472px;height:382px;" version="1.1" viewBox="0 0 472 382" width="472px" zoomAndPan="magnify"><defs><filter height="300%" id="f1paty1ymdp8zy" width="300%" x="-1" y="-1"><feGaussianBlur result="blurOut" stdDeviation="2.0"/><feColorMatrix in="blurOut" result="blurOut2" type="matrix" values="0 0 0 0 0 0 0 0 0 0 0 0 0 0 0 0 0 0 .4 0"/><feOffset dx="4.0" dy="4.0" in="blurOut2" result="blurOut3"/><feBlend in="SourceGraphic" in2="blurOut3" mode="normal"/></filter></defs><g><rect fill="#FFFFFF" filter="url(#f1paty1ymdp8zy)" height="181.9297" style="stroke:#A80036;stroke-width:1.0;" width="10" x="33.5" y="98.2969"/><rect fill="#FFFFFF" filter="url(#f1paty1ymdp8zy)" height="44.2656" style="stroke:#A80036;stroke-width:1.0;" width="10" x="416.5" y="119.4297"/><rect fill="#FFFFFF" filter="url(#f1paty1ymdp8zy)" height="29.1328" style="stroke:#A80036;stroke-width:1.0;" width="10" x="416.5" y="192.8281"/><rect fill="#FFFFFF" filter="url(#f1paty1ymdp8zy)" height="29.1328" style="stroke:#A80036;stroke-width:1.0;" width="10" x="416.5" y="251.0938"/><line style="stroke:#A80036;stroke-width:1.0;stroke-dasharray:5.0,5.0;" x1="38" x2="38" y1="88.2969" y2="298.2266"/><line style="stroke:#A80036;stroke-width:1.0;stroke-dasharray:5.0,5.0;" x1="421" x2="421" y1="88.2969" y2="298.2266"/><text fill="#000000" font-family="sans-serif" font-size="14" lengthAdjust="spacing" textLength="61" x="5" y="84.9951">Estafeta</text><ellipse cx="38.5" cy="15" fill="#FEFECE" filter="url(#f1paty1ymdp8zy)" rx="8" ry="8" style="stroke:#A80036;stroke-width:2.0;"/><path d="M38.5,23 L38.5,50 M25.5,31 L51.5,31 M38.5,50 L25.5,65 M38.5,50 L51.5,65 " fill="none" filter="url(#f1paty1ymdp8zy)" style="stroke:#A80036;stroke-width:2.0;"/><text fill="#000000" font-family="sans-serif" font-size="14" lengthAdjust="spacing" textLength="61" x="5" y="310.2217">Estafeta</text><ellipse cx="38.5" cy="323.5234" fill="#FEFECE" filter="url(#f1paty1ymdp8zy)" rx="8" ry="8" style="stroke:#A80036;stroke-width:2.0;"/><path d="M38.5,331.5234 L38.5,358.5234 M25.5,339.5234 L51.5,339.5234 M38.5,358.5234 L25.5,373.5234 M38.5,358.5234 L51.5,373.5234 " fill="none" filter="url(#f1paty1ymdp8zy)" style="stroke:#A80036;stroke-width:2.0;"/><rect fill="#FEFECE" filter="url(#f1paty1ymdp8zy)" height="30.2969" style="stroke:#A80036;stroke-width:1.5;" width="77" x="381" y="53"/><text fill="#000000" font-family="sans-serif" font-size="14" lengthAdjust="spacing" textLength="63" x="388" y="72.9951">:Sistema</text><rect fill="#FEFECE" filter="url(#f1paty1ymdp8zy)" height="30.2969" style="stroke:#A80036;stroke-width:1.5;" width="77" x="381" y="297.2266"/><text fill="#000000" font-family="sans-serif" font-size="14" lengthAdjust="spacing" textLength="63" x="388" y="317.2217">:Sistema</text><rect fill="#FFFFFF" filter="url(#f1paty1ymdp8zy)" height="181.9297" style="stroke:#A80036;stroke-width:1.0;" width="10" x="33.5" y="98.2969"/><rect fill="#FFFFFF" filter="url(#f1paty1ymdp8zy)" height="44.2656" style="stroke:#A80036;stroke-width:1.0;" width="10" x="416.5" y="119.4297"/><rect fill="#FFFFFF" filter="url(#f1paty1ymdp8zy)" height="29.1328" style="stroke:#A80036;stroke-width:1.0;" width="10" x="416.5" y="192.8281"/><rect fill="#FFFFFF" filter="url(#f1paty1ymdp8zy)" height="29.1328" style="stroke:#A80036;stroke-width:1.0;" width="10" x="416.5" y="251.0938"/><polygon fill="#A80036" points="404.5,115.4297,414.5,119.4297,404.5,123.4297,408.5,119.4297" style="stroke:#A80036;stroke-width:1.0;"/><line style="stroke:#A80036;stroke-width:1.0;" x1="43.5" x2="410.5" y1="119.4297" y2="119.4297"/><text fill="#000000" font-family="sans-serif" font-size="13" font-weight="bold" lengthAdjust="spacing" textLength="9" x="50.5" y="114.3638">1</text><text fill="#000000" font-family="sans-serif" font-size="13" lengthAdjust="spacing" textLength="86" x="63.5" y="114.3638">nova entrega</text><polygon fill="#A80036" points="54.5,159.6953,44.5,163.6953,54.5,167.6953,50.5,163.6953" style="stroke:#A80036;stroke-width:1.0;"/><line style="stroke:#A80036;stroke-width:1.0;stroke-dasharray:2.0,2.0;" x1="48.5" x2="420.5" y1="163.6953" y2="163.6953"/><text fill="#000000" font-family="sans-serif" font-size="13" font-weight="bold" lengthAdjust="spacing" textLength="9" x="60.5" y="151.063">2</text><text fill="#000000" font-family="sans-serif" font-size="13" lengthAdjust="spacing" textLength="141" x="73.5" y="143.4966">solicita dados entrega</text><text fill="#000000" font-family="sans-serif" font-size="13" lengthAdjust="spacing" textLength="336" x="73.5" y="158.6294">(idEntrega,dataInicio, dataFim, encomenda, scooter)</text><polygon fill="#A80036" points="404.5,188.8281,414.5,192.8281,404.5,196.8281,408.5,192.8281" style="stroke:#A80036;stroke-width:1.0;"/><line style="stroke:#A80036;stroke-width:1.0;" x1="43.5" x2="410.5" y1="192.8281" y2="192.8281"/><text fill="#000000" font-family="sans-serif" font-size="13" font-weight="bold" lengthAdjust="spacing" textLength="8" x="50.5" y="187.7622">3</text><text fill="#000000" font-family="sans-serif" font-size="13" lengthAdjust="spacing" textLength="185" x="62.5" y="187.7622">introduz os dados solicitados</text><polygon fill="#A80036" points="54.5,217.9609,44.5,221.9609,54.5,225.9609,50.5,221.9609" style="stroke:#A80036;stroke-width:1.0;"/><line style="stroke:#A80036;stroke-width:1.0;stroke-dasharray:2.0,2.0;" x1="48.5" x2="420.5" y1="221.9609" y2="221.9609"/><text fill="#000000" font-family="sans-serif" font-size="13" font-weight="bold" lengthAdjust="spacing" textLength="9" x="60.5" y="216.895">4</text><text fill="#000000" font-family="sans-serif" font-size="13" lengthAdjust="spacing" textLength="252" x="73.5" y="216.895">apresenta dados e solicita confirmação</text><polygon fill="#A80036" points="404.5,247.0938,414.5,251.0938,404.5,255.0938,408.5,251.0938" style="stroke:#A80036;stroke-width:1.0;"/><line style="stroke:#A80036;stroke-width:1.0;" x1="43.5" x2="410.5" y1="251.0938" y2="251.0938"/><text fill="#000000" font-family="sans-serif" font-size="13" font-weight="bold" lengthAdjust="spacing" textLength="9" x="50.5" y="246.0278">5</text><text fill="#000000" font-family="sans-serif" font-size="13" lengthAdjust="spacing" textLength="57" x="63.5" y="246.0278">confirma</text><polygon fill="#A80036" points="49.5,276.2266,39.5,280.2266,49.5,284.2266,45.5,280.2266" style="stroke:#A80036;stroke-width:1.0;"/><line style="stroke:#A80036;stroke-width:1.0;stroke-dasharray:2.0,2.0;" x1="43.5" x2="420.5" y1="280.2266" y2="280.2266"/><text fill="#000000" font-family="sans-serif" font-size="13" font-weight="bold" lengthAdjust="spacing" textLength="9" x="55.5" y="275.1606">6</text><text fill="#000000" font-family="sans-serif" font-size="13" lengthAdjust="spacing" textLength="154" x="68.5" y="275.1606">operação bem sucedida</text><!--MD5=[f98458251861e9ee616e715191eb4695]
@startuml
autonumber
actor "Estafeta" as ADM

activate ADM
ADM -> ":Sistema" : nova entrega
activate ":Sistema"
":Sistema" - -> ADM : solicita dados entrega \n(idEntrega,dataInicio, dataFim, encomenda, scooter)
deactivate ":Sistema"

ADM -> ":Sistema" : introduz os dados solicitados
activate ":Sistema"
":Sistema" - -> ADM : apresenta dados e solicita confirmação
deactivate ":Sistema"

ADM -> ":Sistema" : confirma
activate ":Sistema"
":Sistema" - -> ADM : operação bem sucedida
deactivate ":Sistema"

deactivate ADM
@enduml

PlantUML version 1.2020.27beta7(Unknown compile time)
(GPL source distribution)
Java Runtime: Java(TM) SE Runtime Environment
JVM: Java HotSpot(TM) 64-Bit Server VM
Default Encoding: UTF-8
Language: en
Country: US
--></g></svg>