<?xml version="1.0" encoding="UTF-8" standalone="no"?><svg xmlns="http://www.w3.org/2000/svg" xmlns:xlink="http://www.w3.org/1999/xlink" contentScriptType="application/ecmascript" contentStyleType="text/css" height="407px" preserveAspectRatio="none" style="width:972px;height:407px;" version="1.1" viewBox="0 0 972 407" width="972px" zoomAndPan="magnify"><defs><filter height="300%" id="f4twkg6tymgk6" width="300%" x="-1" y="-1"><feGaussianBlur result="blurOut" stdDeviation="2.0"/><feColorMatrix in="blurOut" result="blurOut2" type="matrix" values="0 0 0 0 0 0 0 0 0 0 0 0 0 0 0 0 0 0 .4 0"/><feOffset dx="4.0" dy="4.0" in="blurOut2" result="blurOut3"/><feBlend in="SourceGraphic" in2="blurOut3" mode="normal"/></filter></defs><g><!--MD5=[3179f819b5ca0f9c8a1bd58e9144681b]
class Entrega--><rect codeLine="5" fill="#FEFECE" filter="url(#f4twkg6tymgk6)" height="78.4141" id="Entrega" style="stroke:#A80036;stroke-width:1.5;" width="78" x="344.5" y="176"/><ellipse cx="359.5" cy="192" fill="#ADD1B2" rx="11" ry="11" style="stroke:#A80036;stroke-width:1.0;"/><path d="M361.8438,187.6719 C360.9063,187.2344 360.3125,187.0938 359.4375,187.0938 C356.8125,187.0938 354.8125,189.1719 354.8125,191.8906 L354.8125,193.0156 C354.8125,195.5938 356.9219,197.4844 359.8125,197.4844 C361.0313,197.4844 362.1875,197.1875 362.9375,196.6406 C363.5156,196.2344 363.8438,195.7813 363.8438,195.3906 C363.8438,194.9375 363.4531,194.5469 362.9844,194.5469 C362.7656,194.5469 362.5625,194.625 362.375,194.8125 C361.9219,195.2969 361.9219,195.2969 361.7344,195.3906 C361.3125,195.6563 360.625,195.7813 359.8594,195.7813 C357.8125,195.7813 356.5156,194.6875 356.5156,192.9844 L356.5156,191.8906 C356.5156,190.1094 357.7656,188.7969 359.5,188.7969 C360.0781,188.7969 360.6875,188.9531 361.1563,189.2031 C361.6406,189.4844 361.8125,189.7031 361.9063,190.1094 C361.9688,190.5156 362,190.6406 362.1406,190.7656 C362.2813,190.9063 362.5156,191.0156 362.7344,191.0156 C363,191.0156 363.2656,190.875 363.4375,190.6563 C363.5469,190.5 363.5781,190.3125 363.5781,189.8906 L363.5781,188.4688 C363.5781,188.0313 363.5625,187.9063 363.4688,187.75 C363.3125,187.4844 363.0313,187.3438 362.7344,187.3438 C362.4375,187.3438 362.2344,187.4375 362.0156,187.75 L361.8438,187.6719 Z " fill="#000000"/><text fill="#000000" font-family="sans-serif" font-size="12" lengthAdjust="spacing" textLength="46" x="373.5" y="196.1543">Entrega</text><line style="stroke:#A80036;stroke-width:1.5;" x1="345.5" x2="421.5" y1="208" y2="208"/><text fill="#000000" font-family="sans-serif" font-size="11" lengthAdjust="spacing" textLength="58" x="350.5" y="222.2104">-idEntrega</text><text fill="#000000" font-family="sans-serif" font-size="11" lengthAdjust="spacing" textLength="58" x="350.5" y="235.0151">-dataInicio</text><text fill="#000000" font-family="sans-serif" font-size="11" lengthAdjust="spacing" textLength="49" x="350.5" y="247.8198">-dataFim</text><!--MD5=[c55f92ccbf0646788158d42f3399cc78]
class Encomenda--><rect codeLine="11" fill="#FEFECE" filter="url(#f4twkg6tymgk6)" height="104.0234" id="Encomenda" style="stroke:#A80036;stroke-width:1.5;" width="111" x="589.5" y="45"/><ellipse cx="608.55" cy="61" fill="#ADD1B2" rx="11" ry="11" style="stroke:#A80036;stroke-width:1.0;"/><path d="M610.8938,56.6719 C609.9563,56.2344 609.3625,56.0938 608.4875,56.0938 C605.8625,56.0938 603.8625,58.1719 603.8625,60.8906 L603.8625,62.0156 C603.8625,64.5938 605.9719,66.4844 608.8625,66.4844 C610.0813,66.4844 611.2375,66.1875 611.9875,65.6406 C612.5656,65.2344 612.8938,64.7813 612.8938,64.3906 C612.8938,63.9375 612.5031,63.5469 612.0344,63.5469 C611.8156,63.5469 611.6125,63.625 611.425,63.8125 C610.9719,64.2969 610.9719,64.2969 610.7844,64.3906 C610.3625,64.6563 609.675,64.7813 608.9094,64.7813 C606.8625,64.7813 605.5656,63.6875 605.5656,61.9844 L605.5656,60.8906 C605.5656,59.1094 606.8156,57.7969 608.55,57.7969 C609.1281,57.7969 609.7375,57.9531 610.2063,58.2031 C610.6906,58.4844 610.8625,58.7031 610.9563,59.1094 C611.0188,59.5156 611.05,59.6406 611.1906,59.7656 C611.3313,59.9063 611.5656,60.0156 611.7844,60.0156 C612.05,60.0156 612.3156,59.875 612.4875,59.6563 C612.5969,59.5 612.6281,59.3125 612.6281,58.8906 L612.6281,57.4688 C612.6281,57.0313 612.6125,56.9063 612.5188,56.75 C612.3625,56.4844 612.0813,56.3438 611.7844,56.3438 C611.4875,56.3438 611.2844,56.4375 611.0656,56.75 L610.8938,56.6719 Z " fill="#000000"/><text fill="#000000" font-family="sans-serif" font-size="12" lengthAdjust="spacing" textLength="70" x="623.45" y="65.1543">Encomenda</text><line style="stroke:#A80036;stroke-width:1.5;" x1="590.5" x2="699.5" y1="77" y2="77"/><text fill="#000000" font-family="sans-serif" font-size="11" lengthAdjust="spacing" textLength="81" x="595.5" y="91.2104">-idEncomenda</text><text fill="#000000" font-family="sans-serif" font-size="11" lengthAdjust="spacing" textLength="67" x="595.5" y="104.0151">-dataPedida</text><text fill="#000000" font-family="sans-serif" font-size="11" lengthAdjust="spacing" textLength="36" x="595.5" y="116.8198">-preco</text><text fill="#000000" font-family="sans-serif" font-size="11" lengthAdjust="spacing" textLength="99" x="595.5" y="129.6245">-pesoEncomenda</text><text fill="#000000" font-family="sans-serif" font-size="11" lengthAdjust="spacing" textLength="29" x="595.5" y="142.4292">-taxa</text><!--MD5=[3f1202280bfe3359d2f91fb9b6e32986]
class Estafeta--><rect codeLine="19" fill="#FEFECE" filter="url(#f4twkg6tymgk6)" height="116.8281" id="Estafeta" style="stroke:#A80036;stroke-width:1.5;" width="155" x="7" y="237.5"/><ellipse cx="56.25" cy="253.5" fill="#ADD1B2" rx="11" ry="11" style="stroke:#A80036;stroke-width:1.0;"/><path d="M58.5938,249.1719 C57.6563,248.7344 57.0625,248.5938 56.1875,248.5938 C53.5625,248.5938 51.5625,250.6719 51.5625,253.3906 L51.5625,254.5156 C51.5625,257.0938 53.6719,258.9844 56.5625,258.9844 C57.7813,258.9844 58.9375,258.6875 59.6875,258.1406 C60.2656,257.7344 60.5938,257.2813 60.5938,256.8906 C60.5938,256.4375 60.2031,256.0469 59.7344,256.0469 C59.5156,256.0469 59.3125,256.125 59.125,256.3125 C58.6719,256.7969 58.6719,256.7969 58.4844,256.8906 C58.0625,257.1563 57.375,257.2813 56.6094,257.2813 C54.5625,257.2813 53.2656,256.1875 53.2656,254.4844 L53.2656,253.3906 C53.2656,251.6094 54.5156,250.2969 56.25,250.2969 C56.8281,250.2969 57.4375,250.4531 57.9063,250.7031 C58.3906,250.9844 58.5625,251.2031 58.6563,251.6094 C58.7188,252.0156 58.75,252.1406 58.8906,252.2656 C59.0313,252.4063 59.2656,252.5156 59.4844,252.5156 C59.75,252.5156 60.0156,252.375 60.1875,252.1563 C60.2969,252 60.3281,251.8125 60.3281,251.3906 L60.3281,249.9688 C60.3281,249.5313 60.3125,249.4063 60.2188,249.25 C60.0625,248.9844 59.7813,248.8438 59.4844,248.8438 C59.1875,248.8438 58.9844,248.9375 58.7656,249.25 L58.5938,249.1719 Z " fill="#000000"/><text fill="#000000" font-family="sans-serif" font-size="12" lengthAdjust="spacing" textLength="48" x="76.75" y="257.6543">Estafeta</text><line style="stroke:#A80036;stroke-width:1.5;" x1="8" x2="161" y1="269.5" y2="269.5"/><text fill="#000000" font-family="sans-serif" font-size="11" lengthAdjust="spacing" textLength="21" x="13" y="283.7104">-NIF</text><text fill="#000000" font-family="sans-serif" font-size="11" lengthAdjust="spacing" textLength="37" x="13" y="296.5151">-nome</text><text fill="#000000" font-family="sans-serif" font-size="11" lengthAdjust="spacing" textLength="36" x="13" y="309.3198">-email</text><text fill="#000000" font-family="sans-serif" font-size="11" lengthAdjust="spacing" textLength="143" x="13" y="322.1245">-numeroSegurancaSocial</text><text fill="#000000" font-family="sans-serif" font-size="11" lengthAdjust="spacing" textLength="57" x="13" y="334.9292">-password</text><text fill="#000000" font-family="sans-serif" font-size="11" lengthAdjust="spacing" textLength="79" x="13" y="347.7339">-pesoEstafeta</text><!--MD5=[f4402668d5d5bb8485350c0fdb60ac8e]
class Scooter--><rect codeLine="28" fill="#FEFECE" filter="url(#f4twkg6tymgk6)" height="116.8281" id="Scooter" style="stroke:#A80036;stroke-width:1.5;" width="134" x="578" y="184.5"/><ellipse cx="617.3" cy="200.5" fill="#ADD1B2" rx="11" ry="11" style="stroke:#A80036;stroke-width:1.0;"/><path d="M619.6438,196.1719 C618.7063,195.7344 618.1125,195.5938 617.2375,195.5938 C614.6125,195.5938 612.6125,197.6719 612.6125,200.3906 L612.6125,201.5156 C612.6125,204.0938 614.7219,205.9844 617.6125,205.9844 C618.8313,205.9844 619.9875,205.6875 620.7375,205.1406 C621.3156,204.7344 621.6438,204.2813 621.6438,203.8906 C621.6438,203.4375 621.2531,203.0469 620.7844,203.0469 C620.5656,203.0469 620.3625,203.125 620.175,203.3125 C619.7219,203.7969 619.7219,203.7969 619.5344,203.8906 C619.1125,204.1563 618.425,204.2813 617.6594,204.2813 C615.6125,204.2813 614.3156,203.1875 614.3156,201.4844 L614.3156,200.3906 C614.3156,198.6094 615.5656,197.2969 617.3,197.2969 C617.8781,197.2969 618.4875,197.4531 618.9563,197.7031 C619.4406,197.9844 619.6125,198.2031 619.7063,198.6094 C619.7688,199.0156 619.8,199.1406 619.9406,199.2656 C620.0813,199.4063 620.3156,199.5156 620.5344,199.5156 C620.8,199.5156 621.0656,199.375 621.2375,199.1563 C621.3469,199 621.3781,198.8125 621.3781,198.3906 L621.3781,196.9688 C621.3781,196.5313 621.3625,196.4063 621.2688,196.25 C621.1125,195.9844 620.8313,195.8438 620.5344,195.8438 C620.2375,195.8438 620.0344,195.9375 619.8156,196.25 L619.6438,196.1719 Z " fill="#000000"/><text fill="#000000" font-family="sans-serif" font-size="12" lengthAdjust="spacing" textLength="48" x="636.7" y="204.6543">Scooter</text><line style="stroke:#A80036;stroke-width:1.5;" x1="579" x2="711" y1="216.5" y2="216.5"/><text fill="#000000" font-family="sans-serif" font-size="11" lengthAdjust="spacing" textLength="58" x="584" y="230.7104">-idScooter</text><text fill="#000000" font-family="sans-serif" font-size="11" lengthAdjust="spacing" textLength="122" x="584" y="243.5151">-percentagemBateria</text><text fill="#000000" font-family="sans-serif" font-size="11" lengthAdjust="spacing" textLength="76" x="584" y="256.3198">-pesoMaximo</text><text fill="#000000" font-family="sans-serif" font-size="11" lengthAdjust="spacing" textLength="76" x="584" y="269.1245">-pesoScooter</text><text fill="#000000" font-family="sans-serif" font-size="11" lengthAdjust="spacing" textLength="53" x="584" y="281.9292">-potencia</text><text fill="#000000" font-family="sans-serif" font-size="11" lengthAdjust="spacing" textLength="68" x="584" y="294.7339">-areaFrontal</text><!--MD5=[5dd1d6732c071e710b9290b531f2fa3b]
class Utilizador--><rect codeLine="37" fill="#FEFECE" filter="url(#f4twkg6tymgk6)" height="104.0234" id="Utilizador" style="stroke:#A80036;stroke-width:1.5;" width="155" x="306" y="289"/><ellipse cx="350.75" cy="305" fill="#ADD1B2" rx="11" ry="11" style="stroke:#A80036;stroke-width:1.0;"/><path d="M353.0938,300.6719 C352.1563,300.2344 351.5625,300.0938 350.6875,300.0938 C348.0625,300.0938 346.0625,302.1719 346.0625,304.8906 L346.0625,306.0156 C346.0625,308.5938 348.1719,310.4844 351.0625,310.4844 C352.2813,310.4844 353.4375,310.1875 354.1875,309.6406 C354.7656,309.2344 355.0938,308.7813 355.0938,308.3906 C355.0938,307.9375 354.7031,307.5469 354.2344,307.5469 C354.0156,307.5469 353.8125,307.625 353.625,307.8125 C353.1719,308.2969 353.1719,308.2969 352.9844,308.3906 C352.5625,308.6563 351.875,308.7813 351.1094,308.7813 C349.0625,308.7813 347.7656,307.6875 347.7656,305.9844 L347.7656,304.8906 C347.7656,303.1094 349.0156,301.7969 350.75,301.7969 C351.3281,301.7969 351.9375,301.9531 352.4063,302.2031 C352.8906,302.4844 353.0625,302.7031 353.1563,303.1094 C353.2188,303.5156 353.25,303.6406 353.3906,303.7656 C353.5313,303.9063 353.7656,304.0156 353.9844,304.0156 C354.25,304.0156 354.5156,303.875 354.6875,303.6563 C354.7969,303.5 354.8281,303.3125 354.8281,302.8906 L354.8281,301.4688 C354.8281,301.0313 354.8125,300.9063 354.7188,300.75 C354.5625,300.4844 354.2813,300.3438 353.9844,300.3438 C353.6875,300.3438 353.4844,300.4375 353.2656,300.75 L353.0938,300.6719 Z " fill="#000000"/><text fill="#000000" font-family="sans-serif" font-size="12" lengthAdjust="spacing" textLength="57" x="371.25" y="309.1543">Utilizador</text><line style="stroke:#A80036;stroke-width:1.5;" x1="307" x2="460" y1="321" y2="321"/><text fill="#000000" font-family="sans-serif" font-size="11" lengthAdjust="spacing" textLength="21" x="312" y="335.2104">-NIF</text><text fill="#000000" font-family="sans-serif" font-size="11" lengthAdjust="spacing" textLength="37" x="312" y="348.0151">-nome</text><text fill="#000000" font-family="sans-serif" font-size="11" lengthAdjust="spacing" textLength="36" x="312" y="360.8198">-email</text><text fill="#000000" font-family="sans-serif" font-size="11" lengthAdjust="spacing" textLength="143" x="312" y="373.6245">-numeroSegurancaSocial</text><text fill="#000000" font-family="sans-serif" font-size="11" lengthAdjust="spacing" textLength="57" x="312" y="386.4292">-password</text><!--MD5=[533e824b6b94274ee39bf5a43d7cce2a]
class EstadoEncomenda--><rect codeLine="45" fill="#FEFECE" filter="url(#f4twkg6tymgk6)" height="65.6094" id="EstadoEncomenda" style="stroke:#A80036;stroke-width:1.5;" width="145" x="813" y="7"/><ellipse cx="828.9" cy="23" fill="#ADD1B2" rx="11" ry="11" style="stroke:#A80036;stroke-width:1.0;"/><path d="M831.2438,18.6719 C830.3063,18.2344 829.7125,18.0938 828.8375,18.0938 C826.2125,18.0938 824.2125,20.1719 824.2125,22.8906 L824.2125,24.0156 C824.2125,26.5938 826.3219,28.4844 829.2125,28.4844 C830.4313,28.4844 831.5875,28.1875 832.3375,27.6406 C832.9156,27.2344 833.2438,26.7813 833.2438,26.3906 C833.2438,25.9375 832.8531,25.5469 832.3844,25.5469 C832.1656,25.5469 831.9625,25.625 831.775,25.8125 C831.3219,26.2969 831.3219,26.2969 831.1344,26.3906 C830.7125,26.6563 830.025,26.7813 829.2594,26.7813 C827.2125,26.7813 825.9156,25.6875 825.9156,23.9844 L825.9156,22.8906 C825.9156,21.1094 827.1656,19.7969 828.9,19.7969 C829.4781,19.7969 830.0875,19.9531 830.5563,20.2031 C831.0406,20.4844 831.2125,20.7031 831.3063,21.1094 C831.3688,21.5156 831.4,21.6406 831.5406,21.7656 C831.6813,21.9063 831.9156,22.0156 832.1344,22.0156 C832.4,22.0156 832.6656,21.875 832.8375,21.6563 C832.9469,21.5 832.9781,21.3125 832.9781,20.8906 L832.9781,19.4688 C832.9781,19.0313 832.9625,18.9063 832.8688,18.75 C832.7125,18.4844 832.4313,18.3438 832.1344,18.3438 C831.8375,18.3438 831.6344,18.4375 831.4156,18.75 L831.2438,18.6719 Z " fill="#000000"/><text fill="#000000" font-family="sans-serif" font-size="12" lengthAdjust="spacing" textLength="111" x="843.1" y="27.1543">EstadoEncomenda</text><line style="stroke:#A80036;stroke-width:1.5;" x1="814" x2="957" y1="39" y2="39"/><text fill="#000000" font-family="sans-serif" font-size="11" lengthAdjust="spacing" textLength="133" x="819" y="53.2104">-id_estado_encomenda</text><text fill="#000000" font-family="sans-serif" font-size="11" lengthAdjust="spacing" textLength="69" x="819" y="66.0151">-designacao</text><!--MD5=[d4dacc50d49878ba7c621dfc80a2e1ce]
class Produto--><rect codeLine="50" fill="#FEFECE" filter="url(#f4twkg6tymgk6)" height="91.2188" id="Produto" style="stroke:#A80036;stroke-width:1.5;" width="81" x="845" y="108.5"/><ellipse cx="861.35" cy="124.5" fill="#ADD1B2" rx="11" ry="11" style="stroke:#A80036;stroke-width:1.0;"/><path d="M863.6938,120.1719 C862.7563,119.7344 862.1625,119.5938 861.2875,119.5938 C858.6625,119.5938 856.6625,121.6719 856.6625,124.3906 L856.6625,125.5156 C856.6625,128.0938 858.7719,129.9844 861.6625,129.9844 C862.8813,129.9844 864.0375,129.6875 864.7875,129.1406 C865.3656,128.7344 865.6938,128.2813 865.6938,127.8906 C865.6938,127.4375 865.3031,127.0469 864.8344,127.0469 C864.6156,127.0469 864.4125,127.125 864.225,127.3125 C863.7719,127.7969 863.7719,127.7969 863.5844,127.8906 C863.1625,128.1563 862.475,128.2813 861.7094,128.2813 C859.6625,128.2813 858.3656,127.1875 858.3656,125.4844 L858.3656,124.3906 C858.3656,122.6094 859.6156,121.2969 861.35,121.2969 C861.9281,121.2969 862.5375,121.4531 863.0063,121.7031 C863.4906,121.9844 863.6625,122.2031 863.7563,122.6094 C863.8188,123.0156 863.85,123.1406 863.9906,123.2656 C864.1313,123.4063 864.3656,123.5156 864.5844,123.5156 C864.85,123.5156 865.1156,123.375 865.2875,123.1563 C865.3969,123 865.4281,122.8125 865.4281,122.3906 L865.4281,120.9688 C865.4281,120.5313 865.4125,120.4063 865.3188,120.25 C865.1625,119.9844 864.8813,119.8438 864.5844,119.8438 C864.2875,119.8438 864.0844,119.9375 863.8656,120.25 L863.6938,120.1719 Z " fill="#000000"/><text fill="#000000" font-family="sans-serif" font-size="12" lengthAdjust="spacing" textLength="46" x="875.65" y="128.6543">Produto</text><line style="stroke:#A80036;stroke-width:1.5;" x1="846" x2="925" y1="140.5" y2="140.5"/><text fill="#000000" font-family="sans-serif" font-size="11" lengthAdjust="spacing" textLength="56" x="851" y="154.7104">-idProduto</text><text fill="#000000" font-family="sans-serif" font-size="11" lengthAdjust="spacing" textLength="69" x="851" y="167.5151">-designacao</text><text fill="#000000" font-family="sans-serif" font-size="11" lengthAdjust="spacing" textLength="32" x="851" y="180.3198">-peso</text><text fill="#000000" font-family="sans-serif" font-size="11" lengthAdjust="spacing" textLength="65" x="851" y="193.1245">-precoBase</text><!--MD5=[aa5a8ec5fd097e3d415964f18fa48efb]
link Estafeta to Utilizador--><path codeLine="57" d="M162.371,307.6471 C206.543,314.3398 261.833,322.7172 305.951,329.4017 " fill="none" id="Estafeta-Utilizador" style="stroke:#A80036;stroke-width:1.0;"/><polygon fill="#000000" points="201.9436,305.3154,193.4408,301.0547,192.5603,306.8662,201.9436,305.3154" style="stroke:#000000;stroke-width:1.0;"/><text fill="#000000" font-family="sans-serif" font-size="13" lengthAdjust="spacing" textLength="69" x="206" y="309.0669">atua como</text><text fill="#000000" font-family="sans-serif" font-size="13" lengthAdjust="spacing" textLength="8" x="169.9185" y="321.4932">1</text><text fill="#000000" font-family="sans-serif" font-size="13" lengthAdjust="spacing" textLength="8" x="289.9235" y="341.0706">1</text><!--MD5=[39609d66ce6d06d1779a14455c909f6f]
link Entrega to Encomenda--><path codeLine="58" d="M422.511,197.715 C466.434,177.743 539.073,144.712 589.12,121.955 " fill="none" id="Entrega-Encomenda" style="stroke:#A80036;stroke-width:1.0;"/><polygon fill="#000000" points="501.0515,130.4967,491.6012,131.5655,494.0342,136.9161,501.0515,130.4967" style="stroke:#000000;stroke-width:1.0;"/><text fill="#000000" font-family="sans-serif" font-size="13" lengthAdjust="spacing" textLength="41" x="505.5" y="137.0669">possui</text><text fill="#000000" font-family="sans-serif" font-size="13" lengthAdjust="spacing" textLength="8" x="430.4412" y="207.9519">1</text><text fill="#000000" font-family="sans-serif" font-size="13" lengthAdjust="spacing" textLength="7" x="574.5119" y="138.1872">*</text><!--MD5=[328dae9b2f192140d45e51cd90ecd75a]
link Estafeta to Entrega--><path codeLine="59" d="M162.371,275.035 C220.809,259.098 298.706,237.853 344.448,225.378 " fill="none" id="Estafeta-Entrega" style="stroke:#A80036;stroke-width:1.0;"/><polygon fill="#000000" points="215.3238,235.2508,205.8242,234.7954,207.3707,240.4661,215.3238,235.2508" style="stroke:#000000;stroke-width:1.0;"/><text fill="#000000" font-family="sans-serif" font-size="13" lengthAdjust="spacing" textLength="42" x="219.5" y="241.0669">realiza</text><text fill="#000000" font-family="sans-serif" font-size="13" lengthAdjust="spacing" textLength="8" x="169.9185" y="285.8746">1</text><text fill="#000000" font-family="sans-serif" font-size="13" lengthAdjust="spacing" textLength="7" x="329.6025" y="240.7152">*</text><!--MD5=[f440ac15537f19f21c80dc932ffd2bf8]
link Entrega to Scooter--><path codeLine="60" d="M422.511,219.101 C463.267,223.499 528.746,230.564 577.96,235.874 " fill="none" id="Entrega-Scooter" style="stroke:#A80036;stroke-width:1.0;"/><polygon fill="#000000" points="491.0289,217.03,499.7065,220.9223,500.337,215.0784,491.0289,217.03" style="stroke:#000000;stroke-width:1.0;"/><text fill="#000000" font-family="sans-serif" font-size="13" lengthAdjust="spacing" textLength="42" x="505" y="222.0669">realiza</text><text fill="#000000" font-family="sans-serif" font-size="13" lengthAdjust="spacing" textLength="7" x="430.6147" y="233.3525">*</text><text fill="#000000" font-family="sans-serif" font-size="13" lengthAdjust="spacing" textLength="8" x="562.19" y="247.9985">1</text><!--MD5=[60097591193c89dbde5dfd99b98b5263]
link Encomenda to Produto--><path codeLine="61" d="M700.717,110.077 C744.725,120.595 805.513,135.123 844.916,144.54 " fill="none" id="Encomenda-Produto" style="stroke:#A80036;stroke-width:1.0;"/><polygon fill="#000000" points="751.863,112.7287,743.7489,107.7677,742.3826,113.4846,751.863,112.7287" style="stroke:#000000;stroke-width:1.0;"/><text fill="#000000" font-family="sans-serif" font-size="13" lengthAdjust="spacing" textLength="26" x="756" y="116.0669">tem</text><text fill="#000000" font-family="sans-serif" font-size="13" lengthAdjust="spacing" textLength="8" x="708.3682" y="124.7873">1</text><text fill="#000000" font-family="sans-serif" font-size="13" lengthAdjust="spacing" textLength="7" x="830.0635" y="156.2501">*</text><!--MD5=[055d9a59c94791d1e5417ead9eff8d01]
link Encomenda to EstadoEncomenda--><path codeLine="62" d="M700.717,83.923 C733.998,75.969 776.876,65.721 812.844,57.125 " fill="none" id="Encomenda-EstadoEncomenda" style="stroke:#A80036;stroke-width:1.0;"/><polygon fill="#000000" points="751.863,55.4042,742.3826,54.6483,743.7489,60.3651,751.863,55.4042" style="stroke:#000000;stroke-width:1.0;"/><text fill="#000000" font-family="sans-serif" font-size="13" lengthAdjust="spacing" textLength="26" x="756" y="61.0669">tem</text><text fill="#000000" font-family="sans-serif" font-size="13" lengthAdjust="spacing" textLength="8" x="708.3682" y="95.2823">1</text><text fill="#000000" font-family="sans-serif" font-size="13" lengthAdjust="spacing" textLength="8" x="796.9389" y="71.7583">1</text><!--MD5=[a52ddae6d5b800fcc91da3e6308778a4]
@startuml
skinparam classAttributeIconSize 0
hide methods
left to right direction

class Entrega {
  -idEntrega
  -dataInicio
  -dataFim
}

class Encomenda {
  -idEncomenda
  -dataPedida
  -preco
  -pesoEncomenda
  -taxa
}

class Estafeta {
  -NIF
  -nome
  -email
  -numeroSegurancaSocial
  -password
  -pesoEstafeta
}

class Scooter {
  -idScooter
  -percentagemBateria
  -pesoMaximo
  -pesoScooter
  -potencia
  -areaFrontal
}

class Utilizador {
  -NIF
  -nome
  -email
  -numeroSegurancaSocial
  -password
}

class EstadoEncomenda {
  -id_estado_encomenda
  -designacao
}

class Produto {
  -idProduto
  -designacao
  -peso
  -precoBase
}

Estafeta "1" - - "1" Utilizador: atua como >
Entrega "1" - - "*" Encomenda : possui >
Estafeta "1" - - "*" Entrega: realiza >
Entrega "*" - - "1" Scooter: realiza <
Encomenda "1" - - "*" Produto: tem >
Encomenda "1" - - "1" EstadoEncomenda : tem >
@enduml

PlantUML version 1.2020.27beta8(Unknown compile time)
(GPL source distribution)
Java Runtime: Java(TM) SE Runtime Environment
JVM: Java HotSpot(TM) 64-Bit Server VM
Default Encoding: UTF-8
Language: en
Country: US
--></g></svg>