<?xml version="1.0" encoding="UTF-8" standalone="no"?><svg xmlns="http://www.w3.org/2000/svg" xmlns:xlink="http://www.w3.org/1999/xlink" contentScriptType="application/ecmascript" contentStyleType="text/css" height="1349px" preserveAspectRatio="none" style="width:1165px;height:1349px;" version="1.1" viewBox="0 0 1165 1349" width="1165px" zoomAndPan="magnify"><defs><filter height="300%" id="f1ap93ybd0xtb3" width="300%" x="-1" y="-1"><feGaussianBlur result="blurOut" stdDeviation="2.0"/><feColorMatrix in="blurOut" result="blurOut2" type="matrix" values="0 0 0 0 0 0 0 0 0 0 0 0 0 0 0 0 0 0 .4 0"/><feOffset dx="4.0" dy="4.0" in="blurOut2" result="blurOut3"/><feBlend in="SourceGraphic" in2="blurOut3" mode="normal"/></filter></defs><g><!--MD5=[380d12a68ed0046a60f31008a02875d0]
class AplicacaoPOT--><rect codeLine="3" fill="#FEFECE" filter="url(#f1ap93ybd0xtb3)" height="73.6094" id="AplicacaoPOT" style="stroke:#A80036;stroke-width:1.5;" width="130" x="7" y="315"/><ellipse cx="29.65" cy="331" fill="#ADD1B2" rx="11" ry="11" style="stroke:#A80036;stroke-width:1.0;"/><path d="M31.9938,326.6719 C31.0563,326.2344 30.4625,326.0938 29.5875,326.0938 C26.9625,326.0938 24.9625,328.1719 24.9625,330.8906 L24.9625,332.0156 C24.9625,334.5938 27.0719,336.4844 29.9625,336.4844 C31.1813,336.4844 32.3375,336.1875 33.0875,335.6406 C33.6656,335.2344 33.9938,334.7813 33.9938,334.3906 C33.9938,333.9375 33.6031,333.5469 33.1344,333.5469 C32.9156,333.5469 32.7125,333.625 32.525,333.8125 C32.0719,334.2969 32.0719,334.2969 31.8844,334.3906 C31.4625,334.6563 30.775,334.7813 30.0094,334.7813 C27.9625,334.7813 26.6656,333.6875 26.6656,331.9844 L26.6656,330.8906 C26.6656,329.1094 27.9156,327.7969 29.65,327.7969 C30.2281,327.7969 30.8375,327.9531 31.3063,328.2031 C31.7906,328.4844 31.9625,328.7031 32.0563,329.1094 C32.1188,329.5156 32.15,329.6406 32.2906,329.7656 C32.4313,329.9063 32.6656,330.0156 32.8844,330.0156 C33.15,330.0156 33.4156,329.875 33.5875,329.6563 C33.6969,329.5 33.7281,329.3125 33.7281,328.8906 L33.7281,327.4688 C33.7281,327.0313 33.7125,326.9063 33.6188,326.75 C33.4625,326.4844 33.1813,326.3438 32.8844,326.3438 C32.5875,326.3438 32.3844,326.4375 32.1656,326.75 L31.9938,326.6719 Z " fill="#000000"/><text fill="#000000" font-family="sans-serif" font-size="12" lengthAdjust="spacing" textLength="81" x="45.35" y="335.1543">AplicacaoPOT</text><line style="stroke:#A80036;stroke-width:1.5;" x1="8" x2="136" y1="347" y2="347"/><line style="stroke:#A80036;stroke-width:1.5;" x1="8" x2="136" y1="355" y2="355"/><text fill="#000000" font-family="sans-serif" font-size="11" lengthAdjust="spacing" textLength="118" x="13" y="369.2104">+static getInstance()</text><text fill="#000000" font-family="sans-serif" font-size="11" lengthAdjust="spacing" textLength="107" x="13" y="382.0151">+getSessaoAtual()</text><!--MD5=[1e13576e8c070e32200b62ceaa1f39ec]
class SessaoUtilizador--><rect codeLine="8" fill="#FEFECE" filter="url(#f1ap93ybd0xtb3)" height="60.8047" id="SessaoUtilizador" style="stroke:#A80036;stroke-width:1.5;" width="134" x="172" y="321.5"/><ellipse cx="187" cy="337.5" fill="#ADD1B2" rx="11" ry="11" style="stroke:#A80036;stroke-width:1.0;"/><path d="M189.3438,333.1719 C188.4063,332.7344 187.8125,332.5938 186.9375,332.5938 C184.3125,332.5938 182.3125,334.6719 182.3125,337.3906 L182.3125,338.5156 C182.3125,341.0938 184.4219,342.9844 187.3125,342.9844 C188.5313,342.9844 189.6875,342.6875 190.4375,342.1406 C191.0156,341.7344 191.3438,341.2813 191.3438,340.8906 C191.3438,340.4375 190.9531,340.0469 190.4844,340.0469 C190.2656,340.0469 190.0625,340.125 189.875,340.3125 C189.4219,340.7969 189.4219,340.7969 189.2344,340.8906 C188.8125,341.1563 188.125,341.2813 187.3594,341.2813 C185.3125,341.2813 184.0156,340.1875 184.0156,338.4844 L184.0156,337.3906 C184.0156,335.6094 185.2656,334.2969 187,334.2969 C187.5781,334.2969 188.1875,334.4531 188.6563,334.7031 C189.1406,334.9844 189.3125,335.2031 189.4063,335.6094 C189.4688,336.0156 189.5,336.1406 189.6406,336.2656 C189.7813,336.4063 190.0156,336.5156 190.2344,336.5156 C190.5,336.5156 190.7656,336.375 190.9375,336.1563 C191.0469,336 191.0781,335.8125 191.0781,335.3906 L191.0781,333.9688 C191.0781,333.5313 191.0625,333.4063 190.9688,333.25 C190.8125,332.9844 190.5313,332.8438 190.2344,332.8438 C189.9375,332.8438 189.7344,332.9375 189.5156,333.25 L189.3438,333.1719 Z " fill="#000000"/><text fill="#000000" font-family="sans-serif" font-size="12" lengthAdjust="spacing" textLength="102" x="201" y="341.6543">SessaoUtilizador</text><line style="stroke:#A80036;stroke-width:1.5;" x1="173" x2="305" y1="353.5" y2="353.5"/><line style="stroke:#A80036;stroke-width:1.5;" x1="173" x2="305" y1="361.5" y2="361.5"/><text fill="#000000" font-family="sans-serif" font-size="11" lengthAdjust="spacing" textLength="120" x="178" y="375.7104">+getEmailUtilizador()</text><!--MD5=[48d7298b3bd1f8b3e8f77915e881d788]
class ScooterDB--><rect codeLine="12" fill="#FEFECE" filter="url(#f1ap93ybd0xtb3)" height="60.8047" id="ScooterDB" style="stroke:#A80036;stroke-width:1.5;" width="118" x="277" y="444.5"/><ellipse cx="301.45" cy="460.5" fill="#ADD1B2" rx="11" ry="11" style="stroke:#A80036;stroke-width:1.0;"/><path d="M303.7938,456.1719 C302.8563,455.7344 302.2625,455.5938 301.3875,455.5938 C298.7625,455.5938 296.7625,457.6719 296.7625,460.3906 L296.7625,461.5156 C296.7625,464.0938 298.8719,465.9844 301.7625,465.9844 C302.9813,465.9844 304.1375,465.6875 304.8875,465.1406 C305.4656,464.7344 305.7938,464.2813 305.7938,463.8906 C305.7938,463.4375 305.4031,463.0469 304.9344,463.0469 C304.7156,463.0469 304.5125,463.125 304.325,463.3125 C303.8719,463.7969 303.8719,463.7969 303.6844,463.8906 C303.2625,464.1563 302.575,464.2813 301.8094,464.2813 C299.7625,464.2813 298.4656,463.1875 298.4656,461.4844 L298.4656,460.3906 C298.4656,458.6094 299.7156,457.2969 301.45,457.2969 C302.0281,457.2969 302.6375,457.4531 303.1063,457.7031 C303.5906,457.9844 303.7625,458.2031 303.8563,458.6094 C303.9188,459.0156 303.95,459.1406 304.0906,459.2656 C304.2313,459.4063 304.4656,459.5156 304.6844,459.5156 C304.95,459.5156 305.2156,459.375 305.3875,459.1563 C305.4969,459 305.5281,458.8125 305.5281,458.3906 L305.5281,456.9688 C305.5281,456.5313 305.5125,456.4063 305.4188,456.25 C305.2625,455.9844 304.9813,455.8438 304.6844,455.8438 C304.3875,455.8438 304.1844,455.9375 303.9656,456.25 L303.7938,456.1719 Z " fill="#000000"/><text fill="#000000" font-family="sans-serif" font-size="12" lengthAdjust="spacing" textLength="65" x="317.55" y="464.6543">ScooterDB</text><line style="stroke:#A80036;stroke-width:1.5;" x1="278" x2="394" y1="476.5" y2="476.5"/><line style="stroke:#A80036;stroke-width:1.5;" x1="278" x2="394" y1="484.5" y2="484.5"/><text fill="#000000" font-family="sans-serif" font-size="11" lengthAdjust="spacing" textLength="106" x="283" y="498.7104">+getListaScooter()</text><!--MD5=[eedb9d86e2ada2a30e84607ee2eb675b]
class EncomendaDB--><rect codeLine="16" fill="#FEFECE" filter="url(#f1ap93ybd0xtb3)" height="60.8047" id="EncomendaDB" style="stroke:#A80036;stroke-width:1.5;" width="137" x="977.5" y="716"/><ellipse cx="1000.6" cy="732" fill="#ADD1B2" rx="11" ry="11" style="stroke:#A80036;stroke-width:1.0;"/><path d="M1002.9438,727.6719 C1002.0063,727.2344 1001.4125,727.0938 1000.5375,727.0938 C997.9125,727.0938 995.9125,729.1719 995.9125,731.8906 L995.9125,733.0156 C995.9125,735.5938 998.0219,737.4844 1000.9125,737.4844 C1002.1313,737.4844 1003.2875,737.1875 1004.0375,736.6406 C1004.6156,736.2344 1004.9438,735.7813 1004.9438,735.3906 C1004.9438,734.9375 1004.5531,734.5469 1004.0844,734.5469 C1003.8656,734.5469 1003.6625,734.625 1003.475,734.8125 C1003.0219,735.2969 1003.0219,735.2969 1002.8344,735.3906 C1002.4125,735.6563 1001.725,735.7813 1000.9594,735.7813 C998.9125,735.7813 997.6156,734.6875 997.6156,732.9844 L997.6156,731.8906 C997.6156,730.1094 998.8656,728.7969 1000.6,728.7969 C1001.1781,728.7969 1001.7875,728.9531 1002.2563,729.2031 C1002.7406,729.4844 1002.9125,729.7031 1003.0063,730.1094 C1003.0688,730.5156 1003.1,730.6406 1003.2406,730.7656 C1003.3813,730.9063 1003.6156,731.0156 1003.8344,731.0156 C1004.1,731.0156 1004.3656,730.875 1004.5375,730.6563 C1004.6469,730.5 1004.6781,730.3125 1004.6781,729.8906 L1004.6781,728.4688 C1004.6781,728.0313 1004.6625,727.9063 1004.5688,727.75 C1004.4125,727.4844 1004.1313,727.3438 1003.8344,727.3438 C1003.5375,727.3438 1003.3344,727.4375 1003.1156,727.75 L1002.9438,727.6719 Z " fill="#000000"/><text fill="#000000" font-family="sans-serif" font-size="12" lengthAdjust="spacing" textLength="87" x="1016.4" y="736.1543">EncomendaDB</text><line style="stroke:#A80036;stroke-width:1.5;" x1="978.5" x2="1113.5" y1="748" y2="748"/><line style="stroke:#A80036;stroke-width:1.5;" x1="978.5" x2="1113.5" y1="756" y2="756"/><text fill="#000000" font-family="sans-serif" font-size="11" lengthAdjust="spacing" textLength="125" x="983.5" y="770.2104">+getListaEncomenda(</text><!--MD5=[3179f819b5ca0f9c8a1bd58e9144681b]
class Entrega--><rect codeLine="20" fill="#FEFECE" filter="url(#f1ap93ybd0xtb3)" height="163.2422" id="Entrega" style="stroke:#A80036;stroke-width:1.5;" width="635" x="378.5" y="807"/><ellipse cx="668.75" cy="823" fill="#ADD1B2" rx="11" ry="11" style="stroke:#A80036;stroke-width:1.0;"/><path d="M671.0938,818.6719 C670.1563,818.2344 669.5625,818.0938 668.6875,818.0938 C666.0625,818.0938 664.0625,820.1719 664.0625,822.8906 L664.0625,824.0156 C664.0625,826.5938 666.1719,828.4844 669.0625,828.4844 C670.2813,828.4844 671.4375,828.1875 672.1875,827.6406 C672.7656,827.2344 673.0938,826.7813 673.0938,826.3906 C673.0938,825.9375 672.7031,825.5469 672.2344,825.5469 C672.0156,825.5469 671.8125,825.625 671.625,825.8125 C671.1719,826.2969 671.1719,826.2969 670.9844,826.3906 C670.5625,826.6563 669.875,826.7813 669.1094,826.7813 C667.0625,826.7813 665.7656,825.6875 665.7656,823.9844 L665.7656,822.8906 C665.7656,821.1094 667.0156,819.7969 668.75,819.7969 C669.3281,819.7969 669.9375,819.9531 670.4063,820.2031 C670.8906,820.4844 671.0625,820.7031 671.1563,821.1094 C671.2188,821.5156 671.25,821.6406 671.3906,821.7656 C671.5313,821.9063 671.7656,822.0156 671.9844,822.0156 C672.25,822.0156 672.5156,821.875 672.6875,821.6563 C672.7969,821.5 672.8281,821.3125 672.8281,820.8906 L672.8281,819.4688 C672.8281,819.0313 672.8125,818.9063 672.7188,818.75 C672.5625,818.4844 672.2813,818.3438 671.9844,818.3438 C671.6875,818.3438 671.4844,818.4375 671.2656,818.75 L671.0938,818.6719 Z " fill="#000000"/><text fill="#000000" font-family="sans-serif" font-size="12" lengthAdjust="spacing" textLength="46" x="689.25" y="827.1543">Entrega</text><line style="stroke:#A80036;stroke-width:1.5;" x1="379.5" x2="1012.5" y1="839" y2="839"/><text fill="#000000" font-family="sans-serif" font-size="11" lengthAdjust="spacing" textLength="103" x="384.5" y="853.2104">-Integer idEntrega</text><text fill="#000000" font-family="sans-serif" font-size="11" lengthAdjust="spacing" textLength="95" x="384.5" y="866.0151">-String dataInicio</text><text fill="#000000" font-family="sans-serif" font-size="11" lengthAdjust="spacing" textLength="86" x="384.5" y="878.8198">-String dataFim</text><line style="stroke:#A80036;stroke-width:1.5;" x1="379.5" x2="1012.5" y1="885.4141" y2="885.4141"/><text fill="#000000" font-family="sans-serif" font-size="11" lengthAdjust="spacing" textLength="221" x="384.5" y="899.6245">+create(idEntrega, dataInicio, dataFim)</text><text fill="#000000" font-family="sans-serif" font-size="11" lengthAdjust="spacing" textLength="103" x="384.5" y="912.4292">+addEstafeta(est)</text><text fill="#000000" font-family="sans-serif" font-size="11" lengthAdjust="spacing" textLength="623" x="384.5" y="925.2339">+novaEncomenda(idEncomenda, dataPedida, preco, pesoEncomenda, taxa, estadoEncomenda, listaProdutos)</text><text fill="#000000" font-family="sans-serif" font-size="11" lengthAdjust="spacing" textLength="120" x="384.5" y="938.0386">+addEncomenda(en)</text><text fill="#000000" font-family="sans-serif" font-size="11" lengthAdjust="spacing" textLength="482" x="384.5" y="950.8433">+novaScooter(idScooter, percentagemBateria, pesoMaximo, pesoScooter, potencia)</text><text fill="#000000" font-family="sans-serif" font-size="11" lengthAdjust="spacing" textLength="88" x="384.5" y="963.6479">+addScooter(s)</text><!--MD5=[598a246086efa0137d5aa96a640f0789]
class EntregaDB--><rect codeLine="32" fill="#FEFECE" filter="url(#f1ap93ybd0xtb3)" height="112.0234" id="EntregaDB" style="stroke:#A80036;stroke-width:1.5;" width="268" x="592" y="419"/><ellipse cx="690.25" cy="435" fill="#ADD1B2" rx="11" ry="11" style="stroke:#A80036;stroke-width:1.0;"/><path d="M692.5938,430.6719 C691.6563,430.2344 691.0625,430.0938 690.1875,430.0938 C687.5625,430.0938 685.5625,432.1719 685.5625,434.8906 L685.5625,436.0156 C685.5625,438.5938 687.6719,440.4844 690.5625,440.4844 C691.7813,440.4844 692.9375,440.1875 693.6875,439.6406 C694.2656,439.2344 694.5938,438.7813 694.5938,438.3906 C694.5938,437.9375 694.2031,437.5469 693.7344,437.5469 C693.5156,437.5469 693.3125,437.625 693.125,437.8125 C692.6719,438.2969 692.6719,438.2969 692.4844,438.3906 C692.0625,438.6563 691.375,438.7813 690.6094,438.7813 C688.5625,438.7813 687.2656,437.6875 687.2656,435.9844 L687.2656,434.8906 C687.2656,433.1094 688.5156,431.7969 690.25,431.7969 C690.8281,431.7969 691.4375,431.9531 691.9063,432.2031 C692.3906,432.4844 692.5625,432.7031 692.6563,433.1094 C692.7188,433.5156 692.75,433.6406 692.8906,433.7656 C693.0313,433.9063 693.2656,434.0156 693.4844,434.0156 C693.75,434.0156 694.0156,433.875 694.1875,433.6563 C694.2969,433.5 694.3281,433.3125 694.3281,432.8906 L694.3281,431.4688 C694.3281,431.0313 694.3125,430.9063 694.2188,430.75 C694.0625,430.4844 693.7813,430.3438 693.4844,430.3438 C693.1875,430.3438 692.9844,430.4375 692.7656,430.75 L692.5938,430.6719 Z " fill="#000000"/><text fill="#000000" font-family="sans-serif" font-size="12" lengthAdjust="spacing" textLength="63" x="710.75" y="439.1543">EntregaDB</text><line style="stroke:#A80036;stroke-width:1.5;" x1="593" x2="859" y1="451" y2="451"/><line style="stroke:#A80036;stroke-width:1.5;" x1="593" x2="859" y1="459" y2="459"/><text fill="#000000" font-family="sans-serif" font-size="11" lengthAdjust="spacing" textLength="124" x="598" y="473.2104">+generateIdEntrega()</text><text fill="#000000" font-family="sans-serif" font-size="11" lengthAdjust="spacing" textLength="256" x="598" y="486.0151">+novaEntrega(idEntrega, dataInicio, dataFim)</text><text fill="#000000" font-family="sans-serif" font-size="11" lengthAdjust="spacing" textLength="123" x="598" y="498.8198">+registaEntrega(entr)</text><text fill="#000000" font-family="sans-serif" font-size="11" lengthAdjust="spacing" textLength="118" x="598" y="511.6245">+validaEntrega(entr)</text><text fill="#000000" font-family="sans-serif" font-size="11" lengthAdjust="spacing" textLength="105" x="598" y="524.4292">+addEntrega(entr)</text><!--MD5=[4ac2c1498d2c03198090a24b8c54d335]
class EstafetaDB--><rect codeLine="40" fill="#FEFECE" filter="url(#f1ap93ybd0xtb3)" height="60.8047" id="EstafetaDB" style="stroke:#A80036;stroke-width:1.5;" width="173" x="412.5" y="321.5"/><ellipse cx="462.25" cy="337.5" fill="#ADD1B2" rx="11" ry="11" style="stroke:#A80036;stroke-width:1.0;"/><path d="M464.5938,333.1719 C463.6563,332.7344 463.0625,332.5938 462.1875,332.5938 C459.5625,332.5938 457.5625,334.6719 457.5625,337.3906 L457.5625,338.5156 C457.5625,341.0938 459.6719,342.9844 462.5625,342.9844 C463.7813,342.9844 464.9375,342.6875 465.6875,342.1406 C466.2656,341.7344 466.5938,341.2813 466.5938,340.8906 C466.5938,340.4375 466.2031,340.0469 465.7344,340.0469 C465.5156,340.0469 465.3125,340.125 465.125,340.3125 C464.6719,340.7969 464.6719,340.7969 464.4844,340.8906 C464.0625,341.1563 463.375,341.2813 462.6094,341.2813 C460.5625,341.2813 459.2656,340.1875 459.2656,338.4844 L459.2656,337.3906 C459.2656,335.6094 460.5156,334.2969 462.25,334.2969 C462.8281,334.2969 463.4375,334.4531 463.9063,334.7031 C464.3906,334.9844 464.5625,335.2031 464.6563,335.6094 C464.7188,336.0156 464.75,336.1406 464.8906,336.2656 C465.0313,336.4063 465.2656,336.5156 465.4844,336.5156 C465.75,336.5156 466.0156,336.375 466.1875,336.1563 C466.2969,336 466.3281,335.8125 466.3281,335.3906 L466.3281,333.9688 C466.3281,333.5313 466.3125,333.4063 466.2188,333.25 C466.0625,332.9844 465.7813,332.8438 465.4844,332.8438 C465.1875,332.8438 464.9844,332.9375 464.7656,333.25 L464.5938,333.1719 Z " fill="#000000"/><text fill="#000000" font-family="sans-serif" font-size="12" lengthAdjust="spacing" textLength="65" x="482.75" y="341.6543">EstafetaDB</text><line style="stroke:#A80036;stroke-width:1.5;" x1="413.5" x2="584.5" y1="353.5" y2="353.5"/><line style="stroke:#A80036;stroke-width:1.5;" x1="413.5" x2="584.5" y1="361.5" y2="361.5"/><text fill="#000000" font-family="sans-serif" font-size="11" lengthAdjust="spacing" textLength="161" x="418.5" y="375.7104">+getEstafetaByEmail(email)</text><!--MD5=[0b96431f48c75c7948e638dd0365dea1]
class RegistarEntregaController--><rect codeLine="44" fill="#FEFECE" filter="url(#f1ap93ybd0xtb3)" height="137.6328" id="RegistarEntregaController" style="stroke:#A80036;stroke-width:1.5;" width="635" x="86.5" y="116"/><ellipse cx="322.75" cy="132" fill="#ADD1B2" rx="11" ry="11" style="stroke:#A80036;stroke-width:1.0;"/><path d="M325.0938,127.6719 C324.1563,127.2344 323.5625,127.0938 322.6875,127.0938 C320.0625,127.0938 318.0625,129.1719 318.0625,131.8906 L318.0625,133.0156 C318.0625,135.5938 320.1719,137.4844 323.0625,137.4844 C324.2813,137.4844 325.4375,137.1875 326.1875,136.6406 C326.7656,136.2344 327.0938,135.7813 327.0938,135.3906 C327.0938,134.9375 326.7031,134.5469 326.2344,134.5469 C326.0156,134.5469 325.8125,134.625 325.625,134.8125 C325.1719,135.2969 325.1719,135.2969 324.9844,135.3906 C324.5625,135.6563 323.875,135.7813 323.1094,135.7813 C321.0625,135.7813 319.7656,134.6875 319.7656,132.9844 L319.7656,131.8906 C319.7656,130.1094 321.0156,128.7969 322.75,128.7969 C323.3281,128.7969 323.9375,128.9531 324.4063,129.2031 C324.8906,129.4844 325.0625,129.7031 325.1563,130.1094 C325.2188,130.5156 325.25,130.6406 325.3906,130.7656 C325.5313,130.9063 325.7656,131.0156 325.9844,131.0156 C326.25,131.0156 326.5156,130.875 326.6875,130.6563 C326.7969,130.5 326.8281,130.3125 326.8281,129.8906 L326.8281,128.4688 C326.8281,128.0313 326.8125,127.9063 326.7188,127.75 C326.5625,127.4844 326.2813,127.3438 325.9844,127.3438 C325.6875,127.3438 325.4844,127.4375 325.2656,127.75 L325.0938,127.6719 Z " fill="#000000"/><text fill="#000000" font-family="sans-serif" font-size="12" lengthAdjust="spacing" textLength="154" x="343.25" y="136.1543">RegistarEntregaController</text><line style="stroke:#A80036;stroke-width:1.5;" x1="87.5" x2="720.5" y1="148" y2="148"/><line style="stroke:#A80036;stroke-width:1.5;" x1="87.5" x2="720.5" y1="156" y2="156"/><text fill="#000000" font-family="sans-serif" font-size="11" lengthAdjust="spacing" textLength="83" x="92.5" y="170.2104">+getEstafeta()</text><text fill="#000000" font-family="sans-serif" font-size="11" lengthAdjust="spacing" textLength="195" x="92.5" y="183.0151">+novaEntrega(dataInicio, dataFim)</text><text fill="#000000" font-family="sans-serif" font-size="11" lengthAdjust="spacing" textLength="129" x="92.5" y="195.8198">+getListaEncomenda()</text><text fill="#000000" font-family="sans-serif" font-size="11" lengthAdjust="spacing" textLength="623" x="92.5" y="208.6245">+novaEncomenda(idEncomenda, dataPedida, preco, pesoEncomenda, taxa, estadoEncomenda, listaProdutos)</text><text fill="#000000" font-family="sans-serif" font-size="11" lengthAdjust="spacing" textLength="106" x="92.5" y="221.4292">+getListaScooter()</text><text fill="#000000" font-family="sans-serif" font-size="11" lengthAdjust="spacing" textLength="482" x="92.5" y="234.2339">+novaScooter(idScooter, percentagemBateria, pesoMaximo, pesoScooter, potencia)</text><text fill="#000000" font-family="sans-serif" font-size="11" lengthAdjust="spacing" textLength="100" x="92.5" y="247.0386">+registaEntrega()</text><!--MD5=[7a561ec8a1cf4ba3fadee4d155dd8051]
class RegistarEntregaUI--><rect codeLine="54" fill="#FEFECE" filter="url(#f1ap93ybd0xtb3)" height="48" id="RegistarEntregaUI" style="stroke:#A80036;stroke-width:1.5;" width="139" x="334.5" y="7"/><ellipse cx="349.5" cy="23" fill="#ADD1B2" rx="11" ry="11" style="stroke:#A80036;stroke-width:1.0;"/><path d="M351.8438,18.6719 C350.9063,18.2344 350.3125,18.0938 349.4375,18.0938 C346.8125,18.0938 344.8125,20.1719 344.8125,22.8906 L344.8125,24.0156 C344.8125,26.5938 346.9219,28.4844 349.8125,28.4844 C351.0313,28.4844 352.1875,28.1875 352.9375,27.6406 C353.5156,27.2344 353.8438,26.7813 353.8438,26.3906 C353.8438,25.9375 353.4531,25.5469 352.9844,25.5469 C352.7656,25.5469 352.5625,25.625 352.375,25.8125 C351.9219,26.2969 351.9219,26.2969 351.7344,26.3906 C351.3125,26.6563 350.625,26.7813 349.8594,26.7813 C347.8125,26.7813 346.5156,25.6875 346.5156,23.9844 L346.5156,22.8906 C346.5156,21.1094 347.7656,19.7969 349.5,19.7969 C350.0781,19.7969 350.6875,19.9531 351.1563,20.2031 C351.6406,20.4844 351.8125,20.7031 351.9063,21.1094 C351.9688,21.5156 352,21.6406 352.1406,21.7656 C352.2813,21.9063 352.5156,22.0156 352.7344,22.0156 C353,22.0156 353.2656,21.875 353.4375,21.6563 C353.5469,21.5 353.5781,21.3125 353.5781,20.8906 L353.5781,19.4688 C353.5781,19.0313 353.5625,18.9063 353.4688,18.75 C353.3125,18.4844 353.0313,18.3438 352.7344,18.3438 C352.4375,18.3438 352.2344,18.4375 352.0156,18.75 L351.8438,18.6719 Z " fill="#000000"/><text fill="#000000" font-family="sans-serif" font-size="12" lengthAdjust="spacing" textLength="107" x="363.5" y="27.1543">RegistarEntregaUI</text><line style="stroke:#A80036;stroke-width:1.5;" x1="335.5" x2="472.5" y1="39" y2="39"/><line style="stroke:#A80036;stroke-width:1.5;" x1="335.5" x2="472.5" y1="47" y2="47"/><!--MD5=[c55f92ccbf0646788158d42f3399cc78]
class Encomenda--><rect codeLine="57" fill="#FEFECE" filter="url(#f1ap93ybd0xtb3)" height="112.0234" id="Encomenda" style="stroke:#A80036;stroke-width:1.5;" width="156" x="732" y="1047"/><ellipse cx="771.3" cy="1063" fill="#ADD1B2" rx="11" ry="11" style="stroke:#A80036;stroke-width:1.0;"/><path d="M773.6438,1058.6719 C772.7063,1058.2344 772.1125,1058.0938 771.2375,1058.0938 C768.6125,1058.0938 766.6125,1060.1719 766.6125,1062.8906 L766.6125,1064.0156 C766.6125,1066.5938 768.7219,1068.4844 771.6125,1068.4844 C772.8313,1068.4844 773.9875,1068.1875 774.7375,1067.6406 C775.3156,1067.2344 775.6438,1066.7813 775.6438,1066.3906 C775.6438,1065.9375 775.2531,1065.5469 774.7844,1065.5469 C774.5656,1065.5469 774.3625,1065.625 774.175,1065.8125 C773.7219,1066.2969 773.7219,1066.2969 773.5344,1066.3906 C773.1125,1066.6563 772.425,1066.7813 771.6594,1066.7813 C769.6125,1066.7813 768.3156,1065.6875 768.3156,1063.9844 L768.3156,1062.8906 C768.3156,1061.1094 769.5656,1059.7969 771.3,1059.7969 C771.8781,1059.7969 772.4875,1059.9531 772.9563,1060.2031 C773.4406,1060.4844 773.6125,1060.7031 773.7063,1061.1094 C773.7688,1061.5156 773.8,1061.6406 773.9406,1061.7656 C774.0813,1061.9063 774.3156,1062.0156 774.5344,1062.0156 C774.8,1062.0156 775.0656,1061.875 775.2375,1061.6563 C775.3469,1061.5 775.3781,1061.3125 775.3781,1060.8906 L775.3781,1059.4688 C775.3781,1059.0313 775.3625,1058.9063 775.2688,1058.75 C775.1125,1058.4844 774.8313,1058.3438 774.5344,1058.3438 C774.2375,1058.3438 774.0344,1058.4375 773.8156,1058.75 L773.6438,1058.6719 Z " fill="#000000"/><text fill="#000000" font-family="sans-serif" font-size="12" lengthAdjust="spacing" textLength="70" x="790.7" y="1067.1543">Encomenda</text><line style="stroke:#A80036;stroke-width:1.5;" x1="733" x2="887" y1="1079" y2="1079"/><text fill="#000000" font-family="sans-serif" font-size="11" lengthAdjust="spacing" textLength="126" x="738" y="1093.2104">-Integer idEncomenda</text><text fill="#000000" font-family="sans-serif" font-size="11" lengthAdjust="spacing" textLength="104" x="738" y="1106.0151">-String dataPedida</text><text fill="#000000" font-family="sans-serif" font-size="11" lengthAdjust="spacing" textLength="81" x="738" y="1118.8198">-Double preco</text><text fill="#000000" font-family="sans-serif" font-size="11" lengthAdjust="spacing" textLength="144" x="738" y="1131.6245">-Double pesoEncomenda</text><text fill="#000000" font-family="sans-serif" font-size="11" lengthAdjust="spacing" textLength="74" x="738" y="1144.4292">-Double taxa</text><line style="stroke:#A80036;stroke-width:1.5;" x1="733" x2="887" y1="1151.0234" y2="1151.0234"/><!--MD5=[3f1202280bfe3359d2f91fb9b6e32986]
class Estafeta--><rect codeLine="65" fill="#FEFECE" filter="url(#f1ap93ybd0xtb3)" height="124.8281" id="Estafeta" style="stroke:#A80036;stroke-width:1.5;" width="200" x="412" y="561"/><ellipse cx="483.75" cy="577" fill="#ADD1B2" rx="11" ry="11" style="stroke:#A80036;stroke-width:1.0;"/><path d="M486.0938,572.6719 C485.1563,572.2344 484.5625,572.0938 483.6875,572.0938 C481.0625,572.0938 479.0625,574.1719 479.0625,576.8906 L479.0625,578.0156 C479.0625,580.5938 481.1719,582.4844 484.0625,582.4844 C485.2813,582.4844 486.4375,582.1875 487.1875,581.6406 C487.7656,581.2344 488.0938,580.7813 488.0938,580.3906 C488.0938,579.9375 487.7031,579.5469 487.2344,579.5469 C487.0156,579.5469 486.8125,579.625 486.625,579.8125 C486.1719,580.2969 486.1719,580.2969 485.9844,580.3906 C485.5625,580.6563 484.875,580.7813 484.1094,580.7813 C482.0625,580.7813 480.7656,579.6875 480.7656,577.9844 L480.7656,576.8906 C480.7656,575.1094 482.0156,573.7969 483.75,573.7969 C484.3281,573.7969 484.9375,573.9531 485.4063,574.2031 C485.8906,574.4844 486.0625,574.7031 486.1563,575.1094 C486.2188,575.5156 486.25,575.6406 486.3906,575.7656 C486.5313,575.9063 486.7656,576.0156 486.9844,576.0156 C487.25,576.0156 487.5156,575.875 487.6875,575.6563 C487.7969,575.5 487.8281,575.3125 487.8281,574.8906 L487.8281,573.4688 C487.8281,573.0313 487.8125,572.9063 487.7188,572.75 C487.5625,572.4844 487.2813,572.3438 486.9844,572.3438 C486.6875,572.3438 486.4844,572.4375 486.2656,572.75 L486.0938,572.6719 Z " fill="#000000"/><text fill="#000000" font-family="sans-serif" font-size="12" lengthAdjust="spacing" textLength="48" x="504.25" y="581.1543">Estafeta</text><line style="stroke:#A80036;stroke-width:1.5;" x1="413" x2="611" y1="593" y2="593"/><text fill="#000000" font-family="sans-serif" font-size="11" lengthAdjust="spacing" textLength="58" x="418" y="607.2104">-String NIF</text><text fill="#000000" font-family="sans-serif" font-size="11" lengthAdjust="spacing" textLength="74" x="418" y="620.0151">-String nome</text><text fill="#000000" font-family="sans-serif" font-size="11" lengthAdjust="spacing" textLength="73" x="418" y="632.8198">-String email</text><text fill="#000000" font-family="sans-serif" font-size="11" lengthAdjust="spacing" textLength="188" x="418" y="645.6245">-Integer numeroSegurancaSocial</text><text fill="#000000" font-family="sans-serif" font-size="11" lengthAdjust="spacing" textLength="94" x="418" y="658.4292">-String password</text><text fill="#000000" font-family="sans-serif" font-size="11" lengthAdjust="spacing" textLength="124" x="418" y="671.2339">-Double pesoEstafeta</text><line style="stroke:#A80036;stroke-width:1.5;" x1="413" x2="611" y1="677.8281" y2="677.8281"/><!--MD5=[f4402668d5d5bb8485350c0fdb60ac8e]
class Scooter--><rect codeLine="74" fill="#FEFECE" filter="url(#f1ap93ybd0xtb3)" height="112.0234" id="Scooter" style="stroke:#A80036;stroke-width:1.5;" width="179" x="376.5" y="1047"/><ellipse cx="437.75" cy="1063" fill="#ADD1B2" rx="11" ry="11" style="stroke:#A80036;stroke-width:1.0;"/><path d="M440.0938,1058.6719 C439.1563,1058.2344 438.5625,1058.0938 437.6875,1058.0938 C435.0625,1058.0938 433.0625,1060.1719 433.0625,1062.8906 L433.0625,1064.0156 C433.0625,1066.5938 435.1719,1068.4844 438.0625,1068.4844 C439.2813,1068.4844 440.4375,1068.1875 441.1875,1067.6406 C441.7656,1067.2344 442.0938,1066.7813 442.0938,1066.3906 C442.0938,1065.9375 441.7031,1065.5469 441.2344,1065.5469 C441.0156,1065.5469 440.8125,1065.625 440.625,1065.8125 C440.1719,1066.2969 440.1719,1066.2969 439.9844,1066.3906 C439.5625,1066.6563 438.875,1066.7813 438.1094,1066.7813 C436.0625,1066.7813 434.7656,1065.6875 434.7656,1063.9844 L434.7656,1062.8906 C434.7656,1061.1094 436.0156,1059.7969 437.75,1059.7969 C438.3281,1059.7969 438.9375,1059.9531 439.4063,1060.2031 C439.8906,1060.4844 440.0625,1060.7031 440.1563,1061.1094 C440.2188,1061.5156 440.25,1061.6406 440.3906,1061.7656 C440.5313,1061.9063 440.7656,1062.0156 440.9844,1062.0156 C441.25,1062.0156 441.5156,1061.875 441.6875,1061.6563 C441.7969,1061.5 441.8281,1061.3125 441.8281,1060.8906 L441.8281,1059.4688 C441.8281,1059.0313 441.8125,1058.9063 441.7188,1058.75 C441.5625,1058.4844 441.2813,1058.3438 440.9844,1058.3438 C440.6875,1058.3438 440.4844,1058.4375 440.2656,1058.75 L440.0938,1058.6719 Z " fill="#000000"/><text fill="#000000" font-family="sans-serif" font-size="12" lengthAdjust="spacing" textLength="48" x="458.25" y="1067.1543">Scooter</text><line style="stroke:#A80036;stroke-width:1.5;" x1="377.5" x2="554.5" y1="1079" y2="1079"/><text fill="#000000" font-family="sans-serif" font-size="11" lengthAdjust="spacing" textLength="103" x="382.5" y="1093.2104">-Integer idScooter</text><text fill="#000000" font-family="sans-serif" font-size="11" lengthAdjust="spacing" textLength="167" x="382.5" y="1106.0151">-Double percentagemBateria</text><text fill="#000000" font-family="sans-serif" font-size="11" lengthAdjust="spacing" textLength="121" x="382.5" y="1118.8198">-Double pesoMaximo</text><text fill="#000000" font-family="sans-serif" font-size="11" lengthAdjust="spacing" textLength="121" x="382.5" y="1131.6245">-Double pesoScooter</text><text fill="#000000" font-family="sans-serif" font-size="11" lengthAdjust="spacing" textLength="98" x="382.5" y="1144.4292">-Double potencia</text><line style="stroke:#A80036;stroke-width:1.5;" x1="377.5" x2="554.5" y1="1151.0234" y2="1151.0234"/><!--MD5=[533e824b6b94274ee39bf5a43d7cce2a]
class EstadoEncomenda--><rect codeLine="82" fill="#FEFECE" filter="url(#f1ap93ybd0xtb3)" height="73.6094" id="EstadoEncomenda" style="stroke:#A80036;stroke-width:1.5;" width="190" x="620" y="1248.5"/><ellipse cx="656.15" cy="1264.5" fill="#ADD1B2" rx="11" ry="11" style="stroke:#A80036;stroke-width:1.0;"/><path d="M658.4938,1260.1719 C657.5563,1259.7344 656.9625,1259.5938 656.0875,1259.5938 C653.4625,1259.5938 651.4625,1261.6719 651.4625,1264.3906 L651.4625,1265.5156 C651.4625,1268.0938 653.5719,1269.9844 656.4625,1269.9844 C657.6813,1269.9844 658.8375,1269.6875 659.5875,1269.1406 C660.1656,1268.7344 660.4938,1268.2813 660.4938,1267.8906 C660.4938,1267.4375 660.1031,1267.0469 659.6344,1267.0469 C659.4156,1267.0469 659.2125,1267.125 659.025,1267.3125 C658.5719,1267.7969 658.5719,1267.7969 658.3844,1267.8906 C657.9625,1268.1563 657.275,1268.2813 656.5094,1268.2813 C654.4625,1268.2813 653.1656,1267.1875 653.1656,1265.4844 L653.1656,1264.3906 C653.1656,1262.6094 654.4156,1261.2969 656.15,1261.2969 C656.7281,1261.2969 657.3375,1261.4531 657.8063,1261.7031 C658.2906,1261.9844 658.4625,1262.2031 658.5563,1262.6094 C658.6188,1263.0156 658.65,1263.1406 658.7906,1263.2656 C658.9313,1263.4063 659.1656,1263.5156 659.3844,1263.5156 C659.65,1263.5156 659.9156,1263.375 660.0875,1263.1563 C660.1969,1263 660.2281,1262.8125 660.2281,1262.3906 L660.2281,1260.9688 C660.2281,1260.5313 660.2125,1260.4063 660.1188,1260.25 C659.9625,1259.9844 659.6813,1259.8438 659.3844,1259.8438 C659.0875,1259.8438 658.8844,1259.9375 658.6656,1260.25 L658.4938,1260.1719 Z " fill="#000000"/><text fill="#000000" font-family="sans-serif" font-size="12" lengthAdjust="spacing" textLength="111" x="674.85" y="1268.6543">EstadoEncomenda</text><line style="stroke:#A80036;stroke-width:1.5;" x1="621" x2="809" y1="1280.5" y2="1280.5"/><text fill="#000000" font-family="sans-serif" font-size="11" lengthAdjust="spacing" textLength="178" x="626" y="1294.7104">-Integer id_estado_encomenda</text><text fill="#000000" font-family="sans-serif" font-size="11" lengthAdjust="spacing" textLength="106" x="626" y="1307.5151">-String designacao</text><line style="stroke:#A80036;stroke-width:1.5;" x1="621" x2="809" y1="1314.1094" y2="1314.1094"/><!--MD5=[d4dacc50d49878ba7c621dfc80a2e1ce]
class Produto--><rect codeLine="87" fill="#FEFECE" filter="url(#f1ap93ybd0xtb3)" height="99.2188" id="Produto" style="stroke:#A80036;stroke-width:1.5;" width="122" x="845" y="1236"/><ellipse cx="879.8" cy="1252" fill="#ADD1B2" rx="11" ry="11" style="stroke:#A80036;stroke-width:1.0;"/><path d="M882.1438,1247.6719 C881.2063,1247.2344 880.6125,1247.0938 879.7375,1247.0938 C877.1125,1247.0938 875.1125,1249.1719 875.1125,1251.8906 L875.1125,1253.0156 C875.1125,1255.5938 877.2219,1257.4844 880.1125,1257.4844 C881.3313,1257.4844 882.4875,1257.1875 883.2375,1256.6406 C883.8156,1256.2344 884.1438,1255.7813 884.1438,1255.3906 C884.1438,1254.9375 883.7531,1254.5469 883.2844,1254.5469 C883.0656,1254.5469 882.8625,1254.625 882.675,1254.8125 C882.2219,1255.2969 882.2219,1255.2969 882.0344,1255.3906 C881.6125,1255.6563 880.925,1255.7813 880.1594,1255.7813 C878.1125,1255.7813 876.8156,1254.6875 876.8156,1252.9844 L876.8156,1251.8906 C876.8156,1250.1094 878.0656,1248.7969 879.8,1248.7969 C880.3781,1248.7969 880.9875,1248.9531 881.4563,1249.2031 C881.9406,1249.4844 882.1125,1249.7031 882.2063,1250.1094 C882.2688,1250.5156 882.3,1250.6406 882.4406,1250.7656 C882.5813,1250.9063 882.8156,1251.0156 883.0344,1251.0156 C883.3,1251.0156 883.5656,1250.875 883.7375,1250.6563 C883.8469,1250.5 883.8781,1250.3125 883.8781,1249.8906 L883.8781,1248.4688 C883.8781,1248.0313 883.8625,1247.9063 883.7688,1247.75 C883.6125,1247.4844 883.3313,1247.3438 883.0344,1247.3438 C882.7375,1247.3438 882.5344,1247.4375 882.3156,1247.75 L882.1438,1247.6719 Z " fill="#000000"/><text fill="#000000" font-family="sans-serif" font-size="12" lengthAdjust="spacing" textLength="46" x="898.2" y="1256.1543">Produto</text><line style="stroke:#A80036;stroke-width:1.5;" x1="846" x2="966" y1="1268" y2="1268"/><text fill="#000000" font-family="sans-serif" font-size="11" lengthAdjust="spacing" textLength="101" x="851" y="1282.2104">-Integer idProduto</text><text fill="#000000" font-family="sans-serif" font-size="11" lengthAdjust="spacing" textLength="106" x="851" y="1295.0151">-String designacao</text><text fill="#000000" font-family="sans-serif" font-size="11" lengthAdjust="spacing" textLength="77" x="851" y="1307.8198">-Double peso</text><text fill="#000000" font-family="sans-serif" font-size="11" lengthAdjust="spacing" textLength="110" x="851" y="1320.6245">-Double precoBase</text><line style="stroke:#A80036;stroke-width:1.5;" x1="846" x2="966" y1="1327.2188" y2="1327.2188"/><!--MD5=[1593fa6ac82b73031c98001dcbb43056]
link RegistarEntregaUI to RegistarEntregaController--><path codeLine="94" d="M404,55.09 C404,70.09 404,90.56 404,110.77 " fill="none" id="RegistarEntregaUI-to-RegistarEntregaController" style="stroke:#A80036;stroke-width:1.0;stroke-dasharray:7.0,7.0;"/><polygon fill="#A80036" points="404,115.9,408,106.9,404,110.9,400,106.9,404,115.9" style="stroke:#A80036;stroke-width:1.0;"/><!--MD5=[f3f72dc95338026d83cf258b0336abf9]
link RegistarEntregaController to EstafetaDB--><path codeLine="96" d="M443.189,254.06 C455.628,275.67 468.852,298.64 479.304,316.79 " fill="none" id="RegistarEntregaController-to-EstafetaDB" style="stroke:#A80036;stroke-width:1.0;stroke-dasharray:7.0,7.0;"/><polygon fill="#A80036" points="481.899,321.3,480.8658,311.5055,479.4002,316.9692,473.9365,315.5036,481.899,321.3" style="stroke:#A80036;stroke-width:1.0;"/><!--MD5=[51c8078cdce16ec2931503df013aa567]
link RegistarEntregaController to EntregaDB--><path codeLine="97" d="M523.515,254.15 C550.949,272.26 579.063,292.98 603,315 C634.954,344.398 664.901,382.775 687.244,414.461 " fill="none" id="RegistarEntregaController-to-EntregaDB" style="stroke:#A80036;stroke-width:1.0;stroke-dasharray:7.0,7.0;"/><polygon fill="#A80036" points="690.207,418.687,688.3142,409.0217,687.336,414.5934,681.7644,413.6153,690.207,418.687" style="stroke:#A80036;stroke-width:1.0;"/><!--MD5=[d9064612604f914b9782a6af88293211]
link RegistarEntregaController to EncomendaDB--><path codeLine="98" d="M610.359,254.11 C700.529,291.75 802.477,345.948 877,419 C964.735,505.004 1016.08,646.262 1036.16,711.061 " fill="none" id="RegistarEntregaController-to-EncomendaDB" style="stroke:#A80036;stroke-width:1.0;stroke-dasharray:7.0,7.0;"/><polygon fill="#A80036" points="1037.66,715.968,1038.8464,706.1909,1036.1945,711.1876,1031.1977,708.5357,1037.66,715.968" style="stroke:#A80036;stroke-width:1.0;"/><!--MD5=[efb788ef30840c93bcc318b186081c80]
link RegistarEntregaController to ScooterDB--><path codeLine="99" d="M387.885,254.25 C374.157,312.39 354.992,393.563 344.211,439.224 " fill="none" id="RegistarEntregaController-to-ScooterDB" style="stroke:#A80036;stroke-width:1.0;stroke-dasharray:7.0,7.0;"/><polygon fill="#A80036" points="343.003,444.341,348.9637,436.5007,344.1517,439.4747,341.1777,434.6628,343.003,444.341" style="stroke:#A80036;stroke-width:1.0;"/><!--MD5=[2f7ce0bd8a6eb8b37f480aeb7a8943c1]
link RegistarEntregaController to AplicacaoPOT--><path codeLine="100" d="M267.046,254.06 C224.139,275.39 178.56,298.04 142.26,316.08 " fill="none" id="RegistarEntregaController-to-AplicacaoPOT" style="stroke:#A80036;stroke-width:1.0;stroke-dasharray:7.0,7.0;"/><polygon fill="#A80036" points="137.428,318.48,147.2675,318.0504,141.9041,316.2519,143.7026,310.8886,137.428,318.48" style="stroke:#A80036;stroke-width:1.0;"/><!--MD5=[13e18cca587fedea4b01b5758c9bdbf6]
link RegistarEntregaController to SessaoUtilizador--><path codeLine="101" d="M335.936,254.06 C313.965,276.04 290.584,299.42 272.29,317.71 " fill="none" id="RegistarEntregaController-to-SessaoUtilizador" style="stroke:#A80036;stroke-width:1.0;stroke-dasharray:7.0,7.0;"/><polygon fill="#A80036" points="268.701,321.3,277.8898,317.7552,272.233,317.7609,272.2272,312.104,268.701,321.3" style="stroke:#A80036;stroke-width:1.0;"/><!--MD5=[4c7211caded616e3e77a70a7b669ae10]
link EntregaDB to Entrega--><path codeLine="103" d="M721.985,531.07 C716.931,600.395 708.194,720.243 702.259,801.641 " fill="none" id="EntregaDB-to-Entrega" style="stroke:#A80036;stroke-width:1.0;"/><polygon fill="#A80036" points="701.873,806.946,706.518,798.2613,702.2373,801.9593,698.5393,797.6785,701.873,806.946" style="stroke:#A80036;stroke-width:1.0;"/><text fill="#000000" font-family="sans-serif" font-size="13" lengthAdjust="spacing" textLength="97" x="721" y="628.0669">tem registadas</text><text fill="#000000" font-family="sans-serif" font-size="13" lengthAdjust="spacing" textLength="8" x="712.9581" y="551.2888">1</text><text fill="#000000" font-family="sans-serif" font-size="13" lengthAdjust="spacing" textLength="7" x="695.0918" y="795.7982">*</text><!--MD5=[a3e63c72779e49a48819b249af53bae4]
link EstafetaDB to Estafeta--><path codeLine="104" d="M485.737,382.62 C481.406,393.787 477.158,406.752 475,419 C466.363,468.023 465.495,482.138 475,531 C476.599,539.218 478.935,547.632 481.669,555.868 " fill="none" id="EstafetaDB-to-Estafeta" style="stroke:#A80036;stroke-width:1.0;"/><polygon fill="#A80036" points="483.42,560.97,484.2801,551.1588,481.7961,556.2411,476.7138,553.757,483.42,560.97" style="stroke:#A80036;stroke-width:1.0;"/><text fill="#000000" font-family="sans-serif" font-size="13" lengthAdjust="spacing" textLength="97" x="476" y="479.5669">tem registadas</text><text fill="#000000" font-family="sans-serif" font-size="13" lengthAdjust="spacing" textLength="8" x="474.1765" y="402.583">1</text><text fill="#000000" font-family="sans-serif" font-size="13" lengthAdjust="spacing" textLength="7" x="472.7108" y="549.9573">*</text><!--MD5=[7177515c401312a3f4890a50ab42ecc9]
link EncomendaDB to Encomenda--><path codeLine="105" d="M1052.13,777.094 C1059.82,822.33 1067.92,909.757 1031,970 C1000.006,1020.571 941.749,1054.184 892.829,1074.831 " fill="none" id="EncomendaDB-to-Encomenda" style="stroke:#A80036;stroke-width:1.0;"/><polygon fill="#A80036" points="888.125,1076.789,897.9711,1077.023,892.741,1074.8674,894.8966,1069.6374,888.125,1076.789" style="stroke:#A80036;stroke-width:1.0;"/><text fill="#000000" font-family="sans-serif" font-size="13" lengthAdjust="spacing" textLength="97" x="1060" y="893.0669">tem registadas</text><text fill="#000000" font-family="sans-serif" font-size="13" lengthAdjust="spacing" textLength="8" x="1044.5693" y="797.0516">1</text><text fill="#000000" font-family="sans-serif" font-size="13" lengthAdjust="spacing" textLength="7" x="895.9049" y="1070.648">*</text><!--MD5=[44650545f701211ba2acbe8172184bfb]
link ScooterDB to Scooter--><path codeLine="106" d="M331.412,505.66 C320.494,584.42 298.322,804.117 361,970 C370.987,996.432 388.364,1021.692 406.14,1042.908 " fill="none" id="ScooterDB-to-Scooter" style="stroke:#A80036;stroke-width:1.0;"/><polygon fill="#A80036" points="409.462,1046.822,406.6867,1037.3723,406.2261,1043.0103,400.588,1042.5497,409.462,1046.822" style="stroke:#A80036;stroke-width:1.0;"/><text fill="#000000" font-family="sans-serif" font-size="13" lengthAdjust="spacing" textLength="97" x="323" y="751.0669">tem registadas</text><text fill="#000000" font-family="sans-serif" font-size="13" lengthAdjust="spacing" textLength="8" x="321.7212" y="525.2719">1</text><text fill="#000000" font-family="sans-serif" font-size="13" lengthAdjust="spacing" textLength="7" x="394.7696" y="1035.7372">*</text><!--MD5=[055d9a59c94791d1e5417ead9eff8d01]
link Encomenda to EstadoEncomenda--><path codeLine="107" d="M780.981,1159.137 C765.702,1188.166 747.402,1222.937 733.954,1248.4881 " fill="none" id="Encomenda-EstadoEncomenda" style="stroke:#A80036;stroke-width:1.0;"/><polygon fill="#000000" points="765.6713,1201.991,772.4847,1195.3556,767.2833,1192.618,765.6713,1201.991" style="stroke:#000000;stroke-width:1.0;"/><text fill="#000000" font-family="sans-serif" font-size="13" lengthAdjust="spacing" textLength="26" x="777" y="1202.0669">tem</text><text fill="#000000" font-family="sans-serif" font-size="13" lengthAdjust="spacing" textLength="8" x="768.9568" y="1178.9663">1</text><text fill="#000000" font-family="sans-serif" font-size="13" lengthAdjust="spacing" textLength="8" x="728.7111" y="1237.3962">1</text><!--MD5=[39609d66ce6d06d1779a14455c909f6f]
link Entrega to Encomenda--><path codeLine="108" d="M739.261,970.14 C752.992,995.736 767.855,1023.44 780.396,1046.817 " fill="none" id="Entrega-Encomenda" style="stroke:#A80036;stroke-width:1.0;"/><polygon fill="#000000" points="771.3637,1012.9724,769.6775,1003.6125,764.4979,1006.3912,771.3637,1012.9724" style="stroke:#000000;stroke-width:1.0;"/><text fill="#000000" font-family="sans-serif" font-size="13" lengthAdjust="spacing" textLength="41" x="778" y="1013.0669">possui</text><text fill="#000000" font-family="sans-serif" font-size="13" lengthAdjust="spacing" textLength="8" x="734.8804" y="990.4194">1</text><text fill="#000000" font-family="sans-serif" font-size="13" lengthAdjust="spacing" textLength="7" x="769.3615" y="1036.1292">*</text><!--MD5=[328dae9b2f192140d45e51cd90ecd75a]
link Estafeta to Entrega--><path codeLine="109" d="M555.14,686.162 C580.314,722.145 612.364,767.955 639.531,806.786 " fill="none" id="Estafeta-Entrega" style="stroke:#A80036;stroke-width:1.0;"/><polygon fill="#000000" points="623.8663,750.6633,621.0892,741.5672,616.273,744.9367,623.8663,750.6633" style="stroke:#000000;stroke-width:1.0;"/><text fill="#000000" font-family="sans-serif" font-size="13" lengthAdjust="spacing" textLength="42" x="630" y="751.0669">realiza</text><text fill="#000000" font-family="sans-serif" font-size="13" lengthAdjust="spacing" textLength="8" x="551.4209" y="705.9195">1</text><text fill="#000000" font-family="sans-serif" font-size="13" lengthAdjust="spacing" textLength="7" x="627.19" y="795.9024">*</text><!--MD5=[f440ac15537f19f21c80dc932ffd2bf8]
link Entrega to Scooter--><path codeLine="110" d="M608.719,970.14 C581.015,995.736 551.03,1023.44 525.728,1046.817 " fill="none" id="Entrega-Scooter" style="stroke:#A80036;stroke-width:1.0;"/><polygon fill="#000000" points="583.6725,1005.1733,575.0345,1009.1528,579.0233,1013.4701,583.6725,1005.1733" style="stroke:#000000;stroke-width:1.0;"/><text fill="#000000" font-family="sans-serif" font-size="13" lengthAdjust="spacing" textLength="42" x="589" y="1013.0669">realiza</text><text fill="#000000" font-family="sans-serif" font-size="13" lengthAdjust="spacing" textLength="7" x="593.3501" y="990.4194">*</text><text fill="#000000" font-family="sans-serif" font-size="13" lengthAdjust="spacing" textLength="8" x="524.5199" y="1036.1292">1</text><!--MD5=[60097591193c89dbde5dfd99b98b5263]
link Encomenda to Produto--><path codeLine="111" d="M839.325,1159.137 C852.338,1183.604 867.521,1212.151 880.108,1235.8176 " fill="none" id="Encomenda-Produto" style="stroke:#A80036;stroke-width:1.0;"/><polygon fill="#000000" points="871.3479,1201.9809,869.6953,1192.615,864.5058,1195.3751,871.3479,1201.9809" style="stroke:#000000;stroke-width:1.0;"/><text fill="#000000" font-family="sans-serif" font-size="13" lengthAdjust="spacing" textLength="26" x="878" y="1202.0669">tem</text><text fill="#000000" font-family="sans-serif" font-size="13" lengthAdjust="spacing" textLength="8" x="834.4115" y="1178.9663">1</text><text fill="#000000" font-family="sans-serif" font-size="13" lengthAdjust="spacing" textLength="7" x="868.9748" y="1224.8376">*</text><!--MD5=[a632738178c2f918fed35352f5c80af2]
@startuml
skinparam classAttributeIconSize 0

class AplicacaoPOT{
  +static getInstance()
  +getSessaoAtual()
}

class SessaoUtilizador{
  +getEmailUtilizador()
}

class ScooterDB {
  +getListaScooter()
}

class EncomendaDB {
  +getListaEncomenda(
}

class Entrega {
  -Integer idEntrega
  -String dataInicio
  -String dataFim
  +create(idEntrega, dataInicio, dataFim)
  +addEstafeta(est)
  +novaEncomenda(idEncomenda, dataPedida, preco, pesoEncomenda, taxa, estadoEncomenda, listaProdutos)
  +addEncomenda(en)
  +novaScooter(idScooter, percentagemBateria, pesoMaximo, pesoScooter, potencia)
  +addScooter(s)
}

class EntregaDB {
  +generateIdEntrega()
  +novaEntrega(idEntrega, dataInicio, dataFim)
  +registaEntrega(entr)
  +validaEntrega(entr)
  +addEntrega(entr)
}

class EstafetaDB {
  +getEstafetaByEmail(email)
}

class RegistarEntregaController {
  +getEstafeta()
  +novaEntrega(dataInicio, dataFim)
  +getListaEncomenda()
  +novaEncomenda(idEncomenda, dataPedida, preco, pesoEncomenda, taxa, estadoEncomenda, listaProdutos)
  +getListaScooter()
  +novaScooter(idScooter, percentagemBateria, pesoMaximo, pesoScooter, potencia)
  +registaEntrega()
}

class RegistarEntregaUI {
}

class Encomenda {
  -Integer idEncomenda
  -String dataPedida
  -Double preco
  -Double pesoEncomenda
  -Double taxa
}

class Estafeta {
  -String NIF
  -String nome
  -String email
  -Integer numeroSegurancaSocial
  -String password
  -Double pesoEstafeta
}

class Scooter {
  -Integer idScooter
  -Double percentagemBateria
  -Double pesoMaximo
  -Double pesoScooter
  -Double potencia
}

class EstadoEncomenda {
  -Integer id_estado_encomenda
  -String designacao
}

class Produto {
  -Integer idProduto
  -String designacao
  -Double peso
  -Double precoBase
}

RegistarEntregaUI ..> RegistarEntregaController

RegistarEntregaController ..> EstafetaDB
RegistarEntregaController ..> EntregaDB
RegistarEntregaController ..> EncomendaDB
RegistarEntregaController ..> ScooterDB
RegistarEntregaController ..> AplicacaoPOT
RegistarEntregaController ..> SessaoUtilizador

EntregaDB "1" - -> "*" Entrega : tem registadas
EstafetaDB "1" - -> "*" Estafeta : tem registadas
EncomendaDB "1" - -> "*" Encomenda : tem registadas
ScooterDB "1" - -> "*" Scooter : tem registadas
Encomenda "1" - - "1" EstadoEncomenda : tem >
Entrega "1" - - "*" Encomenda : possui >
Estafeta "1" - - "*" Entrega: realiza >
Entrega "*" - - "1" Scooter: realiza <
Encomenda "1" - - "*" Produto: tem >
@enduml

PlantUML version 1.2020.27beta7(Unknown compile time)
(GPL source distribution)
Java Runtime: Java(TM) SE Runtime Environment
JVM: Java HotSpot(TM) 64-Bit Server VM
Default Encoding: UTF-8
Language: en
Country: US
--></g></svg>