<?xml version="1.0" encoding="UTF-8" standalone="no"?><svg xmlns="http://www.w3.org/2000/svg" xmlns:xlink="http://www.w3.org/1999/xlink" contentScriptType="application/ecmascript" contentStyleType="text/css" height="648px" preserveAspectRatio="none" style="width:563px;height:648px;" version="1.1" viewBox="0 0 563 648" width="563px" zoomAndPan="magnify"><defs><filter height="300%" id="fhbawhcma5a51" width="300%" x="-1" y="-1"><feGaussianBlur result="blurOut" stdDeviation="2.0"/><feColorMatrix in="blurOut" result="blurOut2" type="matrix" values="0 0 0 0 0 0 0 0 0 0 0 0 0 0 0 0 0 0 .4 0"/><feOffset dx="4.0" dy="4.0" in="blurOut2" result="blurOut3"/><feBlend in="SourceGraphic" in2="blurOut3" mode="normal"/></filter></defs><g><!--MD5=[fdc0efc5253b4b251338dbb2cf88d917]
class VeiculoDB--><rect codeLine="3" fill="#FEFECE" filter="url(#fhbawhcma5a51)" height="60.8047" id="VeiculoDB" style="stroke:#A80036;stroke-width:1.5;" width="110" x="426.5" y="333.5"/><ellipse cx="449.15" cy="349.5" fill="#ADD1B2" rx="11" ry="11" style="stroke:#A80036;stroke-width:1.0;"/><path d="M451.4938,345.1719 C450.5563,344.7344 449.9625,344.5938 449.0875,344.5938 C446.4625,344.5938 444.4625,346.6719 444.4625,349.3906 L444.4625,350.5156 C444.4625,353.0938 446.5719,354.9844 449.4625,354.9844 C450.6813,354.9844 451.8375,354.6875 452.5875,354.1406 C453.1656,353.7344 453.4938,353.2813 453.4938,352.8906 C453.4938,352.4375 453.1031,352.0469 452.6344,352.0469 C452.4156,352.0469 452.2125,352.125 452.025,352.3125 C451.5719,352.7969 451.5719,352.7969 451.3844,352.8906 C450.9625,353.1563 450.275,353.2813 449.5094,353.2813 C447.4625,353.2813 446.1656,352.1875 446.1656,350.4844 L446.1656,349.3906 C446.1656,347.6094 447.4156,346.2969 449.15,346.2969 C449.7281,346.2969 450.3375,346.4531 450.8063,346.7031 C451.2906,346.9844 451.4625,347.2031 451.5563,347.6094 C451.6188,348.0156 451.65,348.1406 451.7906,348.2656 C451.9313,348.4063 452.1656,348.5156 452.3844,348.5156 C452.65,348.5156 452.9156,348.375 453.0875,348.1563 C453.1969,348 453.2281,347.8125 453.2281,347.3906 L453.2281,345.9688 C453.2281,345.5313 453.2125,345.4063 453.1188,345.25 C452.9625,344.9844 452.6813,344.8438 452.3844,344.8438 C452.0875,344.8438 451.8844,344.9375 451.6656,345.25 L451.4938,345.1719 Z " fill="#000000"/><text fill="#000000" font-family="sans-serif" font-size="12" lengthAdjust="spacing" textLength="61" x="464.85" y="353.6543">VeiculoDB</text><line style="stroke:#A80036;stroke-width:1.5;" x1="427.5" x2="535.5" y1="365.5" y2="365.5"/><line style="stroke:#A80036;stroke-width:1.5;" x1="427.5" x2="535.5" y1="373.5" y2="373.5"/><text fill="#000000" font-family="sans-serif" font-size="11" lengthAdjust="spacing" textLength="98" x="432.5" y="387.7104">+update(veiculo)</text><!--MD5=[d33e3bc465a31e8542823eb8b9ff0009]
class VeiculoController--><rect codeLine="7" fill="#FEFECE" filter="url(#fhbawhcma5a51)" height="60.8047" id="VeiculoController" style="stroke:#A80036;stroke-width:1.5;" width="135" x="414" y="170"/><ellipse cx="429" cy="186" fill="#ADD1B2" rx="11" ry="11" style="stroke:#A80036;stroke-width:1.0;"/><path d="M431.3438,181.6719 C430.4063,181.2344 429.8125,181.0938 428.9375,181.0938 C426.3125,181.0938 424.3125,183.1719 424.3125,185.8906 L424.3125,187.0156 C424.3125,189.5938 426.4219,191.4844 429.3125,191.4844 C430.5313,191.4844 431.6875,191.1875 432.4375,190.6406 C433.0156,190.2344 433.3438,189.7813 433.3438,189.3906 C433.3438,188.9375 432.9531,188.5469 432.4844,188.5469 C432.2656,188.5469 432.0625,188.625 431.875,188.8125 C431.4219,189.2969 431.4219,189.2969 431.2344,189.3906 C430.8125,189.6563 430.125,189.7813 429.3594,189.7813 C427.3125,189.7813 426.0156,188.6875 426.0156,186.9844 L426.0156,185.8906 C426.0156,184.1094 427.2656,182.7969 429,182.7969 C429.5781,182.7969 430.1875,182.9531 430.6563,183.2031 C431.1406,183.4844 431.3125,183.7031 431.4063,184.1094 C431.4688,184.5156 431.5,184.6406 431.6406,184.7656 C431.7813,184.9063 432.0156,185.0156 432.2344,185.0156 C432.5,185.0156 432.7656,184.875 432.9375,184.6563 C433.0469,184.5 433.0781,184.3125 433.0781,183.8906 L433.0781,182.4688 C433.0781,182.0313 433.0625,181.9063 432.9688,181.75 C432.8125,181.4844 432.5313,181.3438 432.2344,181.3438 C431.9375,181.3438 431.7344,181.4375 431.5156,181.75 L431.3438,181.6719 Z " fill="#000000"/><text fill="#000000" font-family="sans-serif" font-size="12" lengthAdjust="spacing" textLength="103" x="443" y="190.1543">VeiculoController</text><line style="stroke:#A80036;stroke-width:1.5;" x1="415" x2="548" y1="202" y2="202"/><line style="stroke:#A80036;stroke-width:1.5;" x1="415" x2="548" y1="210" y2="210"/><text fill="#000000" font-family="sans-serif" font-size="11" lengthAdjust="spacing" textLength="98" x="420" y="224.2104">+update(veiculo)</text><!--MD5=[ce5ba2aa1b14889a8bbee678eb648f66]
class AdminUI--><rect codeLine="11" fill="#FEFECE" filter="url(#fhbawhcma5a51)" height="48" id="AdminUI" style="stroke:#A80036;stroke-width:1.5;" width="81" x="441" y="26"/><ellipse cx="456" cy="42" fill="#ADD1B2" rx="11" ry="11" style="stroke:#A80036;stroke-width:1.0;"/><path d="M458.3438,37.6719 C457.4063,37.2344 456.8125,37.0938 455.9375,37.0938 C453.3125,37.0938 451.3125,39.1719 451.3125,41.8906 L451.3125,43.0156 C451.3125,45.5938 453.4219,47.4844 456.3125,47.4844 C457.5313,47.4844 458.6875,47.1875 459.4375,46.6406 C460.0156,46.2344 460.3438,45.7813 460.3438,45.3906 C460.3438,44.9375 459.9531,44.5469 459.4844,44.5469 C459.2656,44.5469 459.0625,44.625 458.875,44.8125 C458.4219,45.2969 458.4219,45.2969 458.2344,45.3906 C457.8125,45.6563 457.125,45.7813 456.3594,45.7813 C454.3125,45.7813 453.0156,44.6875 453.0156,42.9844 L453.0156,41.8906 C453.0156,40.1094 454.2656,38.7969 456,38.7969 C456.5781,38.7969 457.1875,38.9531 457.6563,39.2031 C458.1406,39.4844 458.3125,39.7031 458.4063,40.1094 C458.4688,40.5156 458.5,40.6406 458.6406,40.7656 C458.7813,40.9063 459.0156,41.0156 459.2344,41.0156 C459.5,41.0156 459.7656,40.875 459.9375,40.6563 C460.0469,40.5 460.0781,40.3125 460.0781,39.8906 L460.0781,38.4688 C460.0781,38.0313 460.0625,37.9063 459.9688,37.75 C459.8125,37.4844 459.5313,37.3438 459.2344,37.3438 C458.9375,37.3438 458.7344,37.4375 458.5156,37.75 L458.3438,37.6719 Z " fill="#000000"/><text fill="#000000" font-family="sans-serif" font-size="12" lengthAdjust="spacing" textLength="49" x="470" y="46.1543">AdminUI</text><line style="stroke:#A80036;stroke-width:1.5;" x1="442" x2="521" y1="58" y2="58"/><line style="stroke:#A80036;stroke-width:1.5;" x1="442" x2="521" y1="66" y2="66"/><!--MD5=[1a083dbe42a284ae0ea7f6f701783206]
class Parque--><rect codeLine="15" fill="#FEFECE" filter="url(#fhbawhcma5a51)" height="86.4141" id="Parque" style="stroke:#A80036;stroke-width:1.5;" width="149" x="7" y="321"/><ellipse cx="56.75" cy="337" fill="#ADD1B2" rx="11" ry="11" style="stroke:#A80036;stroke-width:1.0;"/><path d="M59.0938,332.6719 C58.1563,332.2344 57.5625,332.0938 56.6875,332.0938 C54.0625,332.0938 52.0625,334.1719 52.0625,336.8906 L52.0625,338.0156 C52.0625,340.5938 54.1719,342.4844 57.0625,342.4844 C58.2813,342.4844 59.4375,342.1875 60.1875,341.6406 C60.7656,341.2344 61.0938,340.7813 61.0938,340.3906 C61.0938,339.9375 60.7031,339.5469 60.2344,339.5469 C60.0156,339.5469 59.8125,339.625 59.625,339.8125 C59.1719,340.2969 59.1719,340.2969 58.9844,340.3906 C58.5625,340.6563 57.875,340.7813 57.1094,340.7813 C55.0625,340.7813 53.7656,339.6875 53.7656,337.9844 L53.7656,336.8906 C53.7656,335.1094 55.0156,333.7969 56.75,333.7969 C57.3281,333.7969 57.9375,333.9531 58.4063,334.2031 C58.8906,334.4844 59.0625,334.7031 59.1563,335.1094 C59.2188,335.5156 59.25,335.6406 59.3906,335.7656 C59.5313,335.9063 59.7656,336.0156 59.9844,336.0156 C60.25,336.0156 60.5156,335.875 60.6875,335.6563 C60.7969,335.5 60.8281,335.3125 60.8281,334.8906 L60.8281,333.4688 C60.8281,333.0313 60.8125,332.9063 60.7188,332.75 C60.5625,332.4844 60.2813,332.3438 59.9844,332.3438 C59.6875,332.3438 59.4844,332.4375 59.2656,332.75 L59.0938,332.6719 Z " fill="#000000"/><text fill="#000000" font-family="sans-serif" font-size="12" lengthAdjust="spacing" textLength="41" x="77.25" y="341.1543">Parque</text><line style="stroke:#A80036;stroke-width:1.5;" x1="8" x2="155" y1="353" y2="353"/><text fill="#000000" font-family="sans-serif" font-size="11" lengthAdjust="spacing" textLength="98" x="13" y="367.2104">-Integer idParque</text><text fill="#000000" font-family="sans-serif" font-size="11" lengthAdjust="spacing" textLength="137" x="13" y="380.0151">-Integer numeroMaximo</text><text fill="#000000" font-family="sans-serif" font-size="11" lengthAdjust="spacing" textLength="62" x="13" y="392.8198">-String tipo</text><line style="stroke:#A80036;stroke-width:1.5;" x1="8" x2="155" y1="399.4141" y2="399.4141"/><!--MD5=[6613c9cd406ef433ff06f5e98b28abd9]
class Farmacia--><rect codeLine="21" fill="#FEFECE" filter="url(#fhbawhcma5a51)" height="86.4141" id="Farmacia" style="stroke:#A80036;stroke-width:1.5;" width="96" x="81.5" y="7"/><ellipse cx="101" cy="23" fill="#ADD1B2" rx="11" ry="11" style="stroke:#A80036;stroke-width:1.0;"/><path d="M103.3438,18.6719 C102.4063,18.2344 101.8125,18.0938 100.9375,18.0938 C98.3125,18.0938 96.3125,20.1719 96.3125,22.8906 L96.3125,24.0156 C96.3125,26.5938 98.4219,28.4844 101.3125,28.4844 C102.5313,28.4844 103.6875,28.1875 104.4375,27.6406 C105.0156,27.2344 105.3438,26.7813 105.3438,26.3906 C105.3438,25.9375 104.9531,25.5469 104.4844,25.5469 C104.2656,25.5469 104.0625,25.625 103.875,25.8125 C103.4219,26.2969 103.4219,26.2969 103.2344,26.3906 C102.8125,26.6563 102.125,26.7813 101.3594,26.7813 C99.3125,26.7813 98.0156,25.6875 98.0156,23.9844 L98.0156,22.8906 C98.0156,21.1094 99.2656,19.7969 101,19.7969 C101.5781,19.7969 102.1875,19.9531 102.6563,20.2031 C103.1406,20.4844 103.3125,20.7031 103.4063,21.1094 C103.4688,21.5156 103.5,21.6406 103.6406,21.7656 C103.7813,21.9063 104.0156,22.0156 104.2344,22.0156 C104.5,22.0156 104.7656,21.875 104.9375,21.6563 C105.0469,21.5 105.0781,21.3125 105.0781,20.8906 L105.0781,19.4688 C105.0781,19.0313 105.0625,18.9063 104.9688,18.75 C104.8125,18.4844 104.5313,18.3438 104.2344,18.3438 C103.9375,18.3438 103.7344,18.4375 103.5156,18.75 L103.3438,18.6719 Z " fill="#000000"/><text fill="#000000" font-family="sans-serif" font-size="12" lengthAdjust="spacing" textLength="54" x="116" y="27.1543">Farmacia</text><line style="stroke:#A80036;stroke-width:1.5;" x1="82.5" x2="176.5" y1="39" y2="39"/><text fill="#000000" font-family="sans-serif" font-size="11" lengthAdjust="spacing" textLength="66" x="87.5" y="53.2104">-Integer NIF</text><text fill="#000000" font-family="sans-serif" font-size="11" lengthAdjust="spacing" textLength="73" x="87.5" y="66.0151">-String email</text><text fill="#000000" font-family="sans-serif" font-size="11" lengthAdjust="spacing" textLength="84" x="87.5" y="78.8198">-String morada</text><line style="stroke:#A80036;stroke-width:1.5;" x1="82.5" x2="176.5" y1="85.4141" y2="85.4141"/><!--MD5=[5dd1d6732c071e710b9290b531f2fa3b]
class Utilizador--><rect codeLine="27" fill="#FEFECE" filter="url(#fhbawhcma5a51)" height="112.0234" id="Utilizador" style="stroke:#A80036;stroke-width:1.5;" width="200" x="191.5" y="308"/><ellipse cx="258.75" cy="324" fill="#ADD1B2" rx="11" ry="11" style="stroke:#A80036;stroke-width:1.0;"/><path d="M261.0938,319.6719 C260.1563,319.2344 259.5625,319.0938 258.6875,319.0938 C256.0625,319.0938 254.0625,321.1719 254.0625,323.8906 L254.0625,325.0156 C254.0625,327.5938 256.1719,329.4844 259.0625,329.4844 C260.2813,329.4844 261.4375,329.1875 262.1875,328.6406 C262.7656,328.2344 263.0938,327.7813 263.0938,327.3906 C263.0938,326.9375 262.7031,326.5469 262.2344,326.5469 C262.0156,326.5469 261.8125,326.625 261.625,326.8125 C261.1719,327.2969 261.1719,327.2969 260.9844,327.3906 C260.5625,327.6563 259.875,327.7813 259.1094,327.7813 C257.0625,327.7813 255.7656,326.6875 255.7656,324.9844 L255.7656,323.8906 C255.7656,322.1094 257.0156,320.7969 258.75,320.7969 C259.3281,320.7969 259.9375,320.9531 260.4063,321.2031 C260.8906,321.4844 261.0625,321.7031 261.1563,322.1094 C261.2188,322.5156 261.25,322.6406 261.3906,322.7656 C261.5313,322.9063 261.7656,323.0156 261.9844,323.0156 C262.25,323.0156 262.5156,322.875 262.6875,322.6563 C262.7969,322.5 262.8281,322.3125 262.8281,321.8906 L262.8281,320.4688 C262.8281,320.0313 262.8125,319.9063 262.7188,319.75 C262.5625,319.4844 262.2813,319.3438 261.9844,319.3438 C261.6875,319.3438 261.4844,319.4375 261.2656,319.75 L261.0938,319.6719 Z " fill="#000000"/><text fill="#000000" font-family="sans-serif" font-size="12" lengthAdjust="spacing" textLength="57" x="279.25" y="328.1543">Utilizador</text><line style="stroke:#A80036;stroke-width:1.5;" x1="192.5" x2="390.5" y1="340" y2="340"/><text fill="#000000" font-family="sans-serif" font-size="11" lengthAdjust="spacing" textLength="66" x="197.5" y="354.2104">-Integer NIF</text><text fill="#000000" font-family="sans-serif" font-size="11" lengthAdjust="spacing" textLength="74" x="197.5" y="367.0151">-String nome</text><text fill="#000000" font-family="sans-serif" font-size="11" lengthAdjust="spacing" textLength="73" x="197.5" y="379.8198">-String email</text><text fill="#000000" font-family="sans-serif" font-size="11" lengthAdjust="spacing" textLength="188" x="197.5" y="392.6245">-Integer numeroSegurancaSocial</text><text fill="#000000" font-family="sans-serif" font-size="11" lengthAdjust="spacing" textLength="94" x="197.5" y="405.4292">-String password</text><line style="stroke:#A80036;stroke-width:1.5;" x1="192.5" x2="390.5" y1="412.0234" y2="412.0234"/><!--MD5=[8505c5852735283b5a8424161266bb9f]
class Veiculo--><rect codeLine="35" fill="#FEFECE" filter="url(#fhbawhcma5a51)" height="137.6328" id="Veiculo" style="stroke:#A80036;stroke-width:1.5;" width="179" x="231" y="497"/><ellipse cx="294.25" cy="513" fill="#ADD1B2" rx="11" ry="11" style="stroke:#A80036;stroke-width:1.0;"/><path d="M296.5938,508.6719 C295.6563,508.2344 295.0625,508.0938 294.1875,508.0938 C291.5625,508.0938 289.5625,510.1719 289.5625,512.8906 L289.5625,514.0156 C289.5625,516.5938 291.6719,518.4844 294.5625,518.4844 C295.7813,518.4844 296.9375,518.1875 297.6875,517.6406 C298.2656,517.2344 298.5938,516.7813 298.5938,516.3906 C298.5938,515.9375 298.2031,515.5469 297.7344,515.5469 C297.5156,515.5469 297.3125,515.625 297.125,515.8125 C296.6719,516.2969 296.6719,516.2969 296.4844,516.3906 C296.0625,516.6563 295.375,516.7813 294.6094,516.7813 C292.5625,516.7813 291.2656,515.6875 291.2656,513.9844 L291.2656,512.8906 C291.2656,511.1094 292.5156,509.7969 294.25,509.7969 C294.8281,509.7969 295.4375,509.9531 295.9063,510.2031 C296.3906,510.4844 296.5625,510.7031 296.6563,511.1094 C296.7188,511.5156 296.75,511.6406 296.8906,511.7656 C297.0313,511.9063 297.2656,512.0156 297.4844,512.0156 C297.75,512.0156 298.0156,511.875 298.1875,511.6563 C298.2969,511.5 298.3281,511.3125 298.3281,510.8906 L298.3281,509.4688 C298.3281,509.0313 298.3125,508.9063 298.2188,508.75 C298.0625,508.4844 297.7813,508.3438 297.4844,508.3438 C297.1875,508.3438 296.9844,508.4375 296.7656,508.75 L296.5938,508.6719 Z " fill="#000000"/><text fill="#000000" font-family="sans-serif" font-size="12" lengthAdjust="spacing" textLength="44" x="314.75" y="517.1543">Veiculo</text><line style="stroke:#A80036;stroke-width:1.5;" x1="232" x2="409" y1="529" y2="529"/><text fill="#000000" font-family="sans-serif" font-size="11" lengthAdjust="spacing" textLength="101" x="237" y="543.2104">-Integer idVeiculo</text><text fill="#000000" font-family="sans-serif" font-size="11" lengthAdjust="spacing" textLength="62" x="237" y="556.0151">-String tipo</text><text fill="#000000" font-family="sans-serif" font-size="11" lengthAdjust="spacing" textLength="167" x="237" y="568.8198">-Double percentagemBateria</text><text fill="#000000" font-family="sans-serif" font-size="11" lengthAdjust="spacing" textLength="121" x="237" y="581.6245">-Double pesoMaximo</text><text fill="#000000" font-family="sans-serif" font-size="11" lengthAdjust="spacing" textLength="119" x="237" y="594.4292">-Double pesoVeiculo</text><text fill="#000000" font-family="sans-serif" font-size="11" lengthAdjust="spacing" textLength="98" x="237" y="607.2339">-Double potencia</text><text fill="#000000" font-family="sans-serif" font-size="11" lengthAdjust="spacing" textLength="113" x="237" y="620.0386">-Double areaFrontal</text><line style="stroke:#A80036;stroke-width:1.5;" x1="232" x2="409" y1="626.6328" y2="626.6328"/><!--MD5=[fdcda49d453d44c676d62f3f6af62207]
class Administrador--><rect fill="#FEFECE" filter="url(#fhbawhcma5a51)" height="48" id="Administrador" style="stroke:#A80036;stroke-width:1.5;" width="116" x="157.5" y="176.5"/><ellipse cx="172.5" cy="192.5" fill="#ADD1B2" rx="11" ry="11" style="stroke:#A80036;stroke-width:1.0;"/><path d="M174.8438,188.1719 C173.9063,187.7344 173.3125,187.5938 172.4375,187.5938 C169.8125,187.5938 167.8125,189.6719 167.8125,192.3906 L167.8125,193.5156 C167.8125,196.0938 169.9219,197.9844 172.8125,197.9844 C174.0313,197.9844 175.1875,197.6875 175.9375,197.1406 C176.5156,196.7344 176.8438,196.2813 176.8438,195.8906 C176.8438,195.4375 176.4531,195.0469 175.9844,195.0469 C175.7656,195.0469 175.5625,195.125 175.375,195.3125 C174.9219,195.7969 174.9219,195.7969 174.7344,195.8906 C174.3125,196.1563 173.625,196.2813 172.8594,196.2813 C170.8125,196.2813 169.5156,195.1875 169.5156,193.4844 L169.5156,192.3906 C169.5156,190.6094 170.7656,189.2969 172.5,189.2969 C173.0781,189.2969 173.6875,189.4531 174.1563,189.7031 C174.6406,189.9844 174.8125,190.2031 174.9063,190.6094 C174.9688,191.0156 175,191.1406 175.1406,191.2656 C175.2813,191.4063 175.5156,191.5156 175.7344,191.5156 C176,191.5156 176.2656,191.375 176.4375,191.1563 C176.5469,191 176.5781,190.8125 176.5781,190.3906 L176.5781,188.9688 C176.5781,188.5313 176.5625,188.4063 176.4688,188.25 C176.3125,187.9844 176.0313,187.8438 175.7344,187.8438 C175.4375,187.8438 175.2344,187.9375 175.0156,188.25 L174.8438,188.1719 Z " fill="#000000"/><text fill="#000000" font-family="sans-serif" font-size="12" lengthAdjust="spacing" textLength="84" x="186.5" y="196.6543">Administrador</text><line style="stroke:#A80036;stroke-width:1.5;" x1="158.5" x2="272.5" y1="208.5" y2="208.5"/><line style="stroke:#A80036;stroke-width:1.5;" x1="158.5" x2="272.5" y1="216.5" y2="216.5"/><!--MD5=[b4161b205744775e44f73e41ced309e0]
link Administrador to Utilizador--><path codeLine="45" d="M226.389,224.639 C236.568,246.269 252.162,279.407 265.538,307.83 " fill="none" id="Administrador-Utilizador" style="stroke:#A80036;stroke-width:1.0;"/><polygon fill="#000000" points="258.629,274.0905,257.4368,264.6549,252.1184,267.1577,258.629,274.0905" style="stroke:#000000;stroke-width:1.0;"/><text fill="#000000" font-family="sans-serif" font-size="13" lengthAdjust="spacing" textLength="69" x="265.5" y="274.0669">atua como</text><text fill="#000000" font-family="sans-serif" font-size="13" lengthAdjust="spacing" textLength="8" x="220.0682" y="244.4341">1</text><text fill="#000000" font-family="sans-serif" font-size="13" lengthAdjust="spacing" textLength="8" x="253.6991" y="296.7462">1</text><!--MD5=[6ba179a0a54b0b32b52757b8e4d27c6d]
link Administrador to Parque--><path codeLine="46" d="M196.301,224.639 C175.532,249.671 141.975,290.114 116.492,320.826 " fill="none" id="Administrador-Parque" style="stroke:#A80036;stroke-width:1.0;"/><polygon fill="#000000" points="166.3073,273.4143,174.3447,268.33,169.8212,264.5767,166.3073,273.4143" style="stroke:#000000;stroke-width:1.0;"/><text fill="#000000" font-family="sans-serif" font-size="13" lengthAdjust="spacing" textLength="50" x="178.5" y="274.0669">remove</text><text fill="#000000" font-family="sans-serif" font-size="13" lengthAdjust="spacing" textLength="8" x="182.6462" y="244.4341">1</text><text fill="#000000" font-family="sans-serif" font-size="13" lengthAdjust="spacing" textLength="23" x="97.2364" y="309.7943">1..*</text><!--MD5=[4f96609c99ecadb81dc825d0ae539cef]
link Farmacia to Parque--><path codeLine="47" d="M116.718,93.033 C110.309,115.643 102.9775,144.125 98.5,170 C89.5814,221.539 85.2252,281.676 83.1794,320.949 " fill="none" id="Farmacia-Parque" style="stroke:#A80036;stroke-width:1.0;"/><polygon fill="#000000" points="102.7721,205.5131,106.9965,196.9923,101.1813,196.1366,102.7721,205.5131" style="stroke:#000000;stroke-width:1.0;"/><text fill="#000000" font-family="sans-serif" font-size="13" lengthAdjust="spacing" textLength="26" x="112.5" y="205.0669">tem</text><text fill="#000000" font-family="sans-serif" font-size="13" lengthAdjust="spacing" textLength="8" x="105.9385" y="113.4461">1</text><text fill="#000000" font-family="sans-serif" font-size="13" lengthAdjust="spacing" textLength="8" x="74.8096" y="309.9369">1</text><!--MD5=[1eb578f81baca05fae5600e8efb79c07]
link Farmacia to Administrador--><path codeLine="48" d="M153.914,93.157 C169.507,120.082 189.138,153.979 201.989,176.169 " fill="none" id="Farmacia-Administrador" style="stroke:#A80036;stroke-width:1.0;"/><polygon fill="#000000" points="188.0058,135.8932,186.016,126.5931,180.9296,129.5388,188.0058,135.8932" style="stroke:#000000;stroke-width:1.0;"/><text fill="#000000" font-family="sans-serif" font-size="13" lengthAdjust="spacing" textLength="26" x="194.5" y="136.0669">tem</text><text fill="#000000" font-family="sans-serif" font-size="13" lengthAdjust="spacing" textLength="8" x="149.2951" y="113.5907">1</text><text fill="#000000" font-family="sans-serif" font-size="13" lengthAdjust="spacing" textLength="8" x="189.7207" y="165.4933">1</text><!--MD5=[639e2fc5a451b1bb392d1ae296701488]
link Parque to Veiculo--><path codeLine="49" d="M131.894,407.17 C162.982,433.186 203.578,467.157 239.139,496.916 " fill="none" id="Parque-Veiculo" style="stroke:#A80036;stroke-width:1.0;"/><polygon fill="#000000" points="210.3345,461.7752,205.2839,453.7165,201.5117,458.2243,210.3345,461.7752" style="stroke:#000000;stroke-width:1.0;"/><text fill="#000000" font-family="sans-serif" font-size="13" lengthAdjust="spacing" textLength="26" x="215.5" y="463.0669">tem</text><text fill="#000000" font-family="sans-serif" font-size="13" lengthAdjust="spacing" textLength="8" x="131.578" y="427.6058">1</text><text fill="#000000" font-family="sans-serif" font-size="13" lengthAdjust="spacing" textLength="23" x="206.5627" y="486.111">0..*</text><!--MD5=[6355171bb87232b3a58c2e48ef243e25]
link VeiculoDB to Veiculo--><path codeLine="50" d="M457.744,394.511 C436.139,421.349 403.438,461.971 375.376,496.831 " fill="none" id="VeiculoDB-Veiculo" style="stroke:#A80036;stroke-width:1.0;"/><text fill="#000000" font-family="sans-serif" font-size="13" lengthAdjust="spacing" textLength="107" x="412.5" y="463.0669">tem registados&gt;</text><text fill="#000000" font-family="sans-serif" font-size="13" lengthAdjust="spacing" textLength="8" x="444.0193" y="414.4515">1</text><text fill="#000000" font-family="sans-serif" font-size="13" lengthAdjust="spacing" textLength="7" x="373.6742" y="486.0172">*</text><!--MD5=[c148a9967b59ce8b4979c4d05239daea]
link AdminUI to VeiculoController--><path codeLine="52" d="M481.5,74.203 C481.5,98.47 481.5,136.836 481.5,164.726 " fill="none" id="AdminUI-to-VeiculoController" style="stroke:#A80036;stroke-width:1.0;stroke-dasharray:7.0,7.0;"/><polygon fill="#A80036" points="481.5,169.806,485.5,160.806,481.5,164.806,477.5,160.806,481.5,169.806" style="stroke:#A80036;stroke-width:1.0;"/><!--MD5=[322f6ca557b7ed134f7f82c3154736a7]
link VeiculoController to VeiculoDB--><path codeLine="54" d="M481.5,231.122 C481.5,258.468 481.5,299.105 481.5,328.034 " fill="none" id="VeiculoController-to-VeiculoDB" style="stroke:#A80036;stroke-width:1.0;stroke-dasharray:7.0,7.0;"/><polygon fill="#A80036" points="481.5,333.293,485.5,324.293,481.5,328.293,477.5,324.293,481.5,333.293" style="stroke:#A80036;stroke-width:1.0;"/><!--MD5=[7ea29e235f5bbc8b60b0277e34de77ff]
@startuml
skinparam classAttributeIconSize 0

class VeiculoDB {
  +update(veiculo)
}

class VeiculoController {
    +update(veiculo)
}

class AdminUI {
}


class Parque {
  -Integer idParque
  -Integer numeroMaximo
  -String tipo
}

class Farmacia {
  -Integer NIF
  -String email
  -String morada
}

class Utilizador {
  -Integer NIF
  -String nome
  -String email
  -Integer numeroSegurancaSocial
  -String password
}

class Veiculo {
  -Integer idVeiculo
  -String tipo
  -Double percentagemBateria
  -Double pesoMaximo
  -Double pesoVeiculo
  -Double potencia
  -Double areaFrontal
}

Administrador "1" - - "1" Utilizador: atua como >
Administrador "1" - - "1..*" Parque: remove >
Farmacia "1" - - "1" Parque: tem >
Farmacia "1" - - "1" Administrador: tem >
Parque "1" - - "0..*" Veiculo: tem > 
VeiculoDB "1" - - "*" Veiculo: tem registados> 

AdminUI ..> VeiculoController 

VeiculoController ..> VeiculoDB
@enduml

PlantUML version 1.2021.01beta3(Unknown compile time)
(GPL source distribution)
Java Runtime: Java(TM) SE Runtime Environment
JVM: Java HotSpot(TM) 64-Bit Server VM
Default Encoding: UTF-8
Language: en
Country: US
--></g></svg>