<?xml version="1.0" encoding="UTF-8" standalone="no"?><svg xmlns="http://www.w3.org/2000/svg" xmlns:xlink="http://www.w3.org/1999/xlink" contentScriptType="application/ecmascript" contentStyleType="text/css" height="251px" preserveAspectRatio="none" style="width:893px;height:251px;" version="1.1" viewBox="0 0 893 251" width="893px" zoomAndPan="magnify"><defs><filter height="300%" id="f1qtxfb2de48el" width="300%" x="-1" y="-1"><feGaussianBlur result="blurOut" stdDeviation="2.0"/><feColorMatrix in="blurOut" result="blurOut2" type="matrix" values="0 0 0 0 0 0 0 0 0 0 0 0 0 0 0 0 0 0 .4 0"/><feOffset dx="4.0" dy="4.0" in="blurOut2" result="blurOut3"/><feBlend in="SourceGraphic" in2="blurOut3" mode="normal"/></filter></defs><g><!--MD5=[b56da2ea67fe42c9f9e3d702d5ecb0d2]
class ParqueDrone--><rect codeLine="5" fill="#FEFECE" filter="url(#f1qtxfb2de48el)" height="65.6094" id="ParqueDrone" style="stroke:#A80036;stroke-width:1.5;" width="139" x="462" y="32.5"/><ellipse cx="490.05" cy="48.5" fill="#ADD1B2" rx="11" ry="11" style="stroke:#A80036;stroke-width:1.0;"/><path d="M492.3938,44.1719 C491.4563,43.7344 490.8625,43.5938 489.9875,43.5938 C487.3625,43.5938 485.3625,45.6719 485.3625,48.3906 L485.3625,49.5156 C485.3625,52.0938 487.4719,53.9844 490.3625,53.9844 C491.5813,53.9844 492.7375,53.6875 493.4875,53.1406 C494.0656,52.7344 494.3938,52.2813 494.3938,51.8906 C494.3938,51.4375 494.0031,51.0469 493.5344,51.0469 C493.3156,51.0469 493.1125,51.125 492.925,51.3125 C492.4719,51.7969 492.4719,51.7969 492.2844,51.8906 C491.8625,52.1563 491.175,52.2813 490.4094,52.2813 C488.3625,52.2813 487.0656,51.1875 487.0656,49.4844 L487.0656,48.3906 C487.0656,46.6094 488.3156,45.2969 490.05,45.2969 C490.6281,45.2969 491.2375,45.4531 491.7063,45.7031 C492.1906,45.9844 492.3625,46.2031 492.4563,46.6094 C492.5188,47.0156 492.55,47.1406 492.6906,47.2656 C492.8313,47.4063 493.0656,47.5156 493.2844,47.5156 C493.55,47.5156 493.8156,47.375 493.9875,47.1563 C494.0969,47 494.1281,46.8125 494.1281,46.3906 L494.1281,44.9688 C494.1281,44.5313 494.1125,44.4063 494.0188,44.25 C493.8625,43.9844 493.5813,43.8438 493.2844,43.8438 C492.9875,43.8438 492.7844,43.9375 492.5656,44.25 L492.3938,44.1719 Z " fill="#000000"/><text fill="#000000" font-family="sans-serif" font-size="12" lengthAdjust="spacing" textLength="78" x="506.95" y="52.6543">ParqueDrone</text><line style="stroke:#A80036;stroke-width:1.5;" x1="463" x2="600" y1="64.5" y2="64.5"/><text fill="#000000" font-family="sans-serif" font-size="11" lengthAdjust="spacing" textLength="127" x="468" y="78.7104">-numeroMaximoDrone</text><text fill="#000000" font-family="sans-serif" font-size="11" lengthAdjust="spacing" textLength="25" x="468" y="91.5151">-tipo</text><!--MD5=[6613c9cd406ef433ff06f5e98b28abd9]
class Farmacia--><rect codeLine="10" fill="#FEFECE" filter="url(#f1qtxfb2de48el)" height="52.8047" id="Farmacia" style="stroke:#A80036;stroke-width:1.5;" width="86" x="7" y="72"/><ellipse cx="22" cy="88" fill="#ADD1B2" rx="11" ry="11" style="stroke:#A80036;stroke-width:1.0;"/><path d="M24.3438,83.6719 C23.4063,83.2344 22.8125,83.0938 21.9375,83.0938 C19.3125,83.0938 17.3125,85.1719 17.3125,87.8906 L17.3125,89.0156 C17.3125,91.5938 19.4219,93.4844 22.3125,93.4844 C23.5313,93.4844 24.6875,93.1875 25.4375,92.6406 C26.0156,92.2344 26.3438,91.7813 26.3438,91.3906 C26.3438,90.9375 25.9531,90.5469 25.4844,90.5469 C25.2656,90.5469 25.0625,90.625 24.875,90.8125 C24.4219,91.2969 24.4219,91.2969 24.2344,91.3906 C23.8125,91.6563 23.125,91.7813 22.3594,91.7813 C20.3125,91.7813 19.0156,90.6875 19.0156,88.9844 L19.0156,87.8906 C19.0156,86.1094 20.2656,84.7969 22,84.7969 C22.5781,84.7969 23.1875,84.9531 23.6563,85.2031 C24.1406,85.4844 24.3125,85.7031 24.4063,86.1094 C24.4688,86.5156 24.5,86.6406 24.6406,86.7656 C24.7813,86.9063 25.0156,87.0156 25.2344,87.0156 C25.5,87.0156 25.7656,86.875 25.9375,86.6563 C26.0469,86.5 26.0781,86.3125 26.0781,85.8906 L26.0781,84.4688 C26.0781,84.0313 26.0625,83.9063 25.9688,83.75 C25.8125,83.4844 25.5313,83.3438 25.2344,83.3438 C24.9375,83.3438 24.7344,83.4375 24.5156,83.75 L24.3438,83.6719 Z " fill="#000000"/><text fill="#000000" font-family="sans-serif" font-size="12" lengthAdjust="spacing" textLength="54" x="36" y="92.1543">Farmacia</text><line style="stroke:#A80036;stroke-width:1.5;" x1="8" x2="92" y1="104" y2="104"/><text fill="#000000" font-family="sans-serif" font-size="11" lengthAdjust="spacing" textLength="21" x="13" y="118.2104">-NIF</text><!--MD5=[5dd1d6732c071e710b9290b531f2fa3b]
class Utilizador--><rect codeLine="14" fill="#FEFECE" filter="url(#f1qtxfb2de48el)" height="104.0234" id="Utilizador" style="stroke:#A80036;stroke-width:1.5;" width="155" x="454" y="133.5"/><ellipse cx="498.75" cy="149.5" fill="#ADD1B2" rx="11" ry="11" style="stroke:#A80036;stroke-width:1.0;"/><path d="M501.0938,145.1719 C500.1563,144.7344 499.5625,144.5938 498.6875,144.5938 C496.0625,144.5938 494.0625,146.6719 494.0625,149.3906 L494.0625,150.5156 C494.0625,153.0938 496.1719,154.9844 499.0625,154.9844 C500.2813,154.9844 501.4375,154.6875 502.1875,154.1406 C502.7656,153.7344 503.0938,153.2813 503.0938,152.8906 C503.0938,152.4375 502.7031,152.0469 502.2344,152.0469 C502.0156,152.0469 501.8125,152.125 501.625,152.3125 C501.1719,152.7969 501.1719,152.7969 500.9844,152.8906 C500.5625,153.1563 499.875,153.2813 499.1094,153.2813 C497.0625,153.2813 495.7656,152.1875 495.7656,150.4844 L495.7656,149.3906 C495.7656,147.6094 497.0156,146.2969 498.75,146.2969 C499.3281,146.2969 499.9375,146.4531 500.4063,146.7031 C500.8906,146.9844 501.0625,147.2031 501.1563,147.6094 C501.2188,148.0156 501.25,148.1406 501.3906,148.2656 C501.5313,148.4063 501.7656,148.5156 501.9844,148.5156 C502.25,148.5156 502.5156,148.375 502.6875,148.1563 C502.7969,148 502.8281,147.8125 502.8281,147.3906 L502.8281,145.9688 C502.8281,145.5313 502.8125,145.4063 502.7188,145.25 C502.5625,144.9844 502.2813,144.8438 501.9844,144.8438 C501.6875,144.8438 501.4844,144.9375 501.2656,145.25 L501.0938,145.1719 Z " fill="#000000"/><text fill="#000000" font-family="sans-serif" font-size="12" lengthAdjust="spacing" textLength="57" x="519.25" y="153.6543">Utilizador</text><line style="stroke:#A80036;stroke-width:1.5;" x1="455" x2="608" y1="165.5" y2="165.5"/><text fill="#000000" font-family="sans-serif" font-size="11" lengthAdjust="spacing" textLength="21" x="460" y="179.7104">-NIF</text><text fill="#000000" font-family="sans-serif" font-size="11" lengthAdjust="spacing" textLength="37" x="460" y="192.5151">-nome</text><text fill="#000000" font-family="sans-serif" font-size="11" lengthAdjust="spacing" textLength="36" x="460" y="205.3198">-email</text><text fill="#000000" font-family="sans-serif" font-size="11" lengthAdjust="spacing" textLength="143" x="460" y="218.1245">-numeroSegurancaSocial</text><text fill="#000000" font-family="sans-serif" font-size="11" lengthAdjust="spacing" textLength="57" x="460" y="230.9292">-password</text><!--MD5=[2e3f1e60e74253ff42e47f8bfdb04ee2]
class Drone--><rect codeLine="22" fill="#FEFECE" filter="url(#f1qtxfb2de48el)" height="116.8281" id="Drone" style="stroke:#A80036;stroke-width:1.5;" width="169" x="710" y="7"/><ellipse cx="771.75" cy="23" fill="#ADD1B2" rx="11" ry="11" style="stroke:#A80036;stroke-width:1.0;"/><path d="M774.0938,18.6719 C773.1563,18.2344 772.5625,18.0938 771.6875,18.0938 C769.0625,18.0938 767.0625,20.1719 767.0625,22.8906 L767.0625,24.0156 C767.0625,26.5938 769.1719,28.4844 772.0625,28.4844 C773.2813,28.4844 774.4375,28.1875 775.1875,27.6406 C775.7656,27.2344 776.0938,26.7813 776.0938,26.3906 C776.0938,25.9375 775.7031,25.5469 775.2344,25.5469 C775.0156,25.5469 774.8125,25.625 774.625,25.8125 C774.1719,26.2969 774.1719,26.2969 773.9844,26.3906 C773.5625,26.6563 772.875,26.7813 772.1094,26.7813 C770.0625,26.7813 768.7656,25.6875 768.7656,23.9844 L768.7656,22.8906 C768.7656,21.1094 770.0156,19.7969 771.75,19.7969 C772.3281,19.7969 772.9375,19.9531 773.4063,20.2031 C773.8906,20.4844 774.0625,20.7031 774.1563,21.1094 C774.2188,21.5156 774.25,21.6406 774.3906,21.7656 C774.5313,21.9063 774.7656,22.0156 774.9844,22.0156 C775.25,22.0156 775.5156,21.875 775.6875,21.6563 C775.7969,21.5 775.8281,21.3125 775.8281,20.8906 L775.8281,19.4688 C775.8281,19.0313 775.8125,18.9063 775.7188,18.75 C775.5625,18.4844 775.2813,18.3438 774.9844,18.3438 C774.6875,18.3438 774.4844,18.4375 774.2656,18.75 L774.0938,18.6719 Z " fill="#000000"/><text fill="#000000" font-family="sans-serif" font-size="12" lengthAdjust="spacing" textLength="37" x="792.25" y="27.1543">Drone</text><line style="stroke:#A80036;stroke-width:1.5;" x1="711" x2="878" y1="39" y2="39"/><text fill="#000000" font-family="sans-serif" font-size="11" lengthAdjust="spacing" textLength="49" x="716" y="53.2104">-idDrone</text><text fill="#000000" font-family="sans-serif" font-size="11" lengthAdjust="spacing" textLength="157" x="716" y="66.0151">-percentagemBateriaDrone</text><text fill="#000000" font-family="sans-serif" font-size="11" lengthAdjust="spacing" textLength="67" x="716" y="78.8198">-pesoDrone</text><text fill="#000000" font-family="sans-serif" font-size="11" lengthAdjust="spacing" textLength="111" x="716" y="91.6245">-pesoMaximoDrone</text><text fill="#000000" font-family="sans-serif" font-size="11" lengthAdjust="spacing" textLength="88" x="716" y="104.4292">-potenciaDrone</text><text fill="#000000" font-family="sans-serif" font-size="11" lengthAdjust="spacing" textLength="103" x="716" y="117.2339">-areaFrontalDrone</text><!--MD5=[fdcda49d453d44c676d62f3f6af62207]
class Administrador--><rect fill="#FEFECE" filter="url(#f1qtxfb2de48el)" height="40" id="Administrador" style="stroke:#A80036;stroke-width:1.5;" width="116" x="194" y="135.5"/><ellipse cx="209" cy="151.5" fill="#ADD1B2" rx="11" ry="11" style="stroke:#A80036;stroke-width:1.0;"/><path d="M211.3438,147.1719 C210.4063,146.7344 209.8125,146.5938 208.9375,146.5938 C206.3125,146.5938 204.3125,148.6719 204.3125,151.3906 L204.3125,152.5156 C204.3125,155.0938 206.4219,156.9844 209.3125,156.9844 C210.5313,156.9844 211.6875,156.6875 212.4375,156.1406 C213.0156,155.7344 213.3438,155.2813 213.3438,154.8906 C213.3438,154.4375 212.9531,154.0469 212.4844,154.0469 C212.2656,154.0469 212.0625,154.125 211.875,154.3125 C211.4219,154.7969 211.4219,154.7969 211.2344,154.8906 C210.8125,155.1563 210.125,155.2813 209.3594,155.2813 C207.3125,155.2813 206.0156,154.1875 206.0156,152.4844 L206.0156,151.3906 C206.0156,149.6094 207.2656,148.2969 209,148.2969 C209.5781,148.2969 210.1875,148.4531 210.6563,148.7031 C211.1406,148.9844 211.3125,149.2031 211.4063,149.6094 C211.4688,150.0156 211.5,150.1406 211.6406,150.2656 C211.7813,150.4063 212.0156,150.5156 212.2344,150.5156 C212.5,150.5156 212.7656,150.375 212.9375,150.1563 C213.0469,150 213.0781,149.8125 213.0781,149.3906 L213.0781,147.9688 C213.0781,147.5313 213.0625,147.4063 212.9688,147.25 C212.8125,146.9844 212.5313,146.8438 212.2344,146.8438 C211.9375,146.8438 211.7344,146.9375 211.5156,147.25 L211.3438,147.1719 Z " fill="#000000"/><text fill="#000000" font-family="sans-serif" font-size="12" lengthAdjust="spacing" textLength="84" x="223" y="155.6543">Administrador</text><line style="stroke:#A80036;stroke-width:1.5;" x1="195" x2="309" y1="167.5" y2="167.5"/><!--MD5=[b4161b205744775e44f73e41ced309e0]
link Administrador to Utilizador--><path codeLine="31" d="M310.263,170.9479 C320.12,173.1389 330.31,175.1144 340,176.5 C377.201,181.8195 418.862,184.1912 453.714,185.1833 " fill="none" id="Administrador-Utilizador" style="stroke:#A80036;stroke-width:1.0;"/><polygon fill="#000000" points="349.9756,168.5602,341.2649,164.7424,340.6845,170.5915,349.9756,168.5602" style="stroke:#000000;stroke-width:1.0;"/><text fill="#000000" font-family="sans-serif" font-size="13" lengthAdjust="spacing" textLength="69" x="354" y="172.5669">atua como</text><text fill="#000000" font-family="sans-serif" font-size="13" lengthAdjust="spacing" textLength="8" x="317.8513" y="185.8197">1</text><text fill="#000000" font-family="sans-serif" font-size="13" lengthAdjust="spacing" textLength="8" x="437.9188" y="197.9401">1</text><!--MD5=[daa298020a47cca1ac73cea71f23e503]
link Administrador to ParqueDrone--><path codeLine="32" d="M310.109,141.5659 C343.582,132.962 386.52,121.17 424,108.5 C436.373,104.317 449.386,99.46 461.902,94.547 " fill="none" id="Administrador-ParqueDrone" style="stroke:#A80036;stroke-width:1.0;"/><polygon fill="#000000" points="359.2761,98.587,349.7665,98.456,351.5056,104.0706,359.2761,98.587" style="stroke:#000000;stroke-width:1.0;"/><text fill="#000000" font-family="sans-serif" font-size="13" lengthAdjust="spacing" textLength="50" x="363.5" y="104.5669">remove</text><text fill="#000000" font-family="sans-serif" font-size="13" lengthAdjust="spacing" textLength="8" x="318.0667" y="152.8169">1</text><text fill="#000000" font-family="sans-serif" font-size="13" lengthAdjust="spacing" textLength="23" x="430.9189" y="110.2373">1..*</text><!--MD5=[9de42b2b96a97139aa33077fb1ab7b90]
link Farmacia to ParqueDrone--><path codeLine="33" d="M93.1322,95.6 C175.974,89.899 360.752,77.182 461.597,70.242 " fill="none" id="Farmacia-ParqueDrone" style="stroke:#A80036;stroke-width:1.0;"/><polygon fill="#000000" points="241.4882,71.7231,232.2627,69.4121,232.6662,75.2761,241.4882,71.7231" style="stroke:#000000;stroke-width:1.0;"/><text fill="#000000" font-family="sans-serif" font-size="13" lengthAdjust="spacing" textLength="26" x="245.5" y="76.5669">tem</text><text fill="#000000" font-family="sans-serif" font-size="13" lengthAdjust="spacing" textLength="8" x="100.9385" y="90.9716">1</text><text fill="#000000" font-family="sans-serif" font-size="13" lengthAdjust="spacing" textLength="8" x="445.9758" y="83.5983">1</text><!--MD5=[1eb578f81baca05fae5600e8efb79c07]
link Farmacia to Administrador--><path codeLine="34" d="M93.4149,110.588 C122.654,118.921 161.858,130.094 193.847,139.2114 " fill="none" id="Farmacia-Administrador" style="stroke:#A80036;stroke-width:1.0;"/><polygon fill="#000000" points="132.8085,112.4368,124.9153,107.1313,123.3043,112.7841,132.8085,112.4368" style="stroke:#000000;stroke-width:1.0;"/><text fill="#000000" font-family="sans-serif" font-size="13" lengthAdjust="spacing" textLength="26" x="137" y="115.5669">tem</text><text fill="#000000" font-family="sans-serif" font-size="13" lengthAdjust="spacing" textLength="8" x="100.9716" y="125.8029">1</text><text fill="#000000" font-family="sans-serif" font-size="13" lengthAdjust="spacing" textLength="8" x="177.8836" y="150.1608">1</text><!--MD5=[a492323ce227479fdc7695cc520ac772]
link ParqueDrone to Drone--><path codeLine="35" d="M601.075,65.5 C634.302,65.5 674.503,65.5 709.549,65.5 " fill="none" id="ParqueDrone-Drone" style="stroke:#A80036;stroke-width:1.0;"/><polygon fill="#000000" points="649,57.0664,639.9549,54.1275,639.9549,60.0053,649,57.0664" style="stroke:#000000;stroke-width:1.0;"/><text fill="#000000" font-family="sans-serif" font-size="13" lengthAdjust="spacing" textLength="26" x="653" y="61.5669">tem</text><text fill="#000000" font-family="sans-serif" font-size="13" lengthAdjust="spacing" textLength="8" x="609.1223" y="78.4158">1</text><text fill="#000000" font-family="sans-serif" font-size="13" lengthAdjust="spacing" textLength="23" x="678.8631" y="78.1767">0..*</text><!--MD5=[907ef7ca78fc602408b27fbe8ebeff42]
@startuml
skinparam classAttributeIconSize 0
hide methods
left to right direction

class ParqueDrone {
  -numeroMaximoDrone
  -tipo
}

class Farmacia {
  -NIF
}

class Utilizador {
  -NIF
  -nome
  -email
  -numeroSegurancaSocial
  -password
}

class Drone {
  -idDrone
  -percentagemBateriaDrone
  -pesoDrone
  -pesoMaximoDrone
  -potenciaDrone
  -areaFrontalDrone
}

Administrador "1" - - "1" Utilizador: atua como >
Administrador "1" - - "1..*" ParqueDrone: remove >
Farmacia "1" - - "1" ParqueDrone: tem >
Farmacia "1" - - "1" Administrador: tem >
ParqueDrone "1" - - "0..*" Drone: tem >
@enduml

PlantUML version 1.2020.27beta8(Unknown compile time)
(GPL source distribution)
Java Runtime: Java(TM) SE Runtime Environment
JVM: Java HotSpot(TM) 64-Bit Server VM
Default Encoding: UTF-8
Language: en
Country: US
--></g></svg>