<?xml version="1.0" encoding="UTF-8" standalone="no"?><svg xmlns="http://www.w3.org/2000/svg" xmlns:xlink="http://www.w3.org/1999/xlink" contentScriptType="application/ecmascript" contentStyleType="text/css" height="455px" preserveAspectRatio="none" style="width:1055px;height:455px;" version="1.1" viewBox="0 0 1055 455" width="1055px" zoomAndPan="magnify"><defs><filter height="300%" id="fi70qosh1ls35" width="300%" x="-1" y="-1"><feGaussianBlur result="blurOut" stdDeviation="2.0"/><feColorMatrix in="blurOut" result="blurOut2" type="matrix" values="0 0 0 0 0 0 0 0 0 0 0 0 0 0 0 0 0 0 .4 0"/><feOffset dx="4.0" dy="4.0" in="blurOut2" result="blurOut3"/><feBlend in="SourceGraphic" in2="blurOut3" mode="normal"/></filter></defs><g><rect fill="#FFFFFF" filter="url(#fi70qosh1ls35)" height="255.0625" style="stroke:#A80036;stroke-width:1.0;" width="10" x="54" y="98.2969"/><rect fill="#FFFFFF" filter="url(#fi70qosh1ls35)" height="29.1328" style="stroke:#A80036;stroke-width:1.0;" width="10" x="708" y="119.4297"/><rect fill="#FFFFFF" filter="url(#fi70qosh1ls35)" height="117.3984" style="stroke:#A80036;stroke-width:1.0;" width="10" x="708" y="177.6953"/><rect fill="#FFFFFF" filter="url(#fi70qosh1ls35)" height="29.1328" style="stroke:#A80036;stroke-width:1.0;" width="10" x="708" y="324.2266"/><rect fill="#FFFFFF" filter="url(#fi70qosh1ls35)" height="59.1328" style="stroke:#A80036;stroke-width:1.0;" width="10" x="850" y="206.8281"/><rect fill="#FFFFFF" filter="url(#fi70qosh1ls35)" height="30" style="stroke:#A80036;stroke-width:1.0;" width="10" x="992" y="235.9609"/><line style="stroke:#A80036;stroke-width:1.0;stroke-dasharray:5.0,5.0;" x1="59" x2="59" y1="88.2969" y2="371.3594"/><line style="stroke:#A80036;stroke-width:1.0;stroke-dasharray:5.0,5.0;" x1="713" x2="713" y1="88.2969" y2="371.3594"/><line style="stroke:#A80036;stroke-width:1.0;stroke-dasharray:5.0,5.0;" x1="855" x2="855" y1="88.2969" y2="371.3594"/><line style="stroke:#A80036;stroke-width:1.0;stroke-dasharray:5.0,5.0;" x1="997" x2="997" y1="88.2969" y2="371.3594"/><text fill="#000000" font-family="sans-serif" font-size="14" lengthAdjust="spacing" textLength="102" x="5" y="84.9951">Administrador</text><ellipse cx="59" cy="15" fill="#FEFECE" filter="url(#fi70qosh1ls35)" rx="8" ry="8" style="stroke:#A80036;stroke-width:2.0;"/><path d="M59,23 L59,50 M46,31 L72,31 M59,50 L46,65 M59,50 L72,65 " fill="none" filter="url(#fi70qosh1ls35)" style="stroke:#A80036;stroke-width:2.0;"/><text fill="#000000" font-family="sans-serif" font-size="14" lengthAdjust="spacing" textLength="102" x="5" y="383.3545">Administrador</text><ellipse cx="59" cy="396.6563" fill="#FEFECE" filter="url(#fi70qosh1ls35)" rx="8" ry="8" style="stroke:#A80036;stroke-width:2.0;"/><path d="M59,404.6563 L59,431.6563 M46,412.6563 L72,412.6563 M59,431.6563 L46,446.6563 M59,431.6563 L72,446.6563 " fill="none" filter="url(#fi70qosh1ls35)" style="stroke:#A80036;stroke-width:2.0;"/><rect fill="#FEFECE" filter="url(#fi70qosh1ls35)" height="30.2969" style="stroke:#A80036;stroke-width:1.5;" width="78" x="672" y="53"/><text fill="#000000" font-family="sans-serif" font-size="14" lengthAdjust="spacing" textLength="64" x="679" y="72.9951">:AdminUI</text><rect fill="#FEFECE" filter="url(#fi70qosh1ls35)" height="30.2969" style="stroke:#A80036;stroke-width:1.5;" width="78" x="672" y="370.3594"/><text fill="#000000" font-family="sans-serif" font-size="14" lengthAdjust="spacing" textLength="64" x="679" y="390.3545">:AdminUI</text><rect fill="#FEFECE" filter="url(#fi70qosh1ls35)" height="30.2969" style="stroke:#A80036;stroke-width:1.5;" width="144" x="781" y="53"/><text fill="#000000" font-family="sans-serif" font-size="14" lengthAdjust="spacing" textLength="130" x="788" y="72.9951">:VeiculoController</text><rect fill="#FEFECE" filter="url(#fi70qosh1ls35)" height="30.2969" style="stroke:#A80036;stroke-width:1.5;" width="144" x="781" y="370.3594"/><text fill="#000000" font-family="sans-serif" font-size="14" lengthAdjust="spacing" textLength="130" x="788" y="390.3545">:VeiculoController</text><rect fill="#FEFECE" filter="url(#fi70qosh1ls35)" height="30.2969" style="stroke:#A80036;stroke-width:1.5;" width="92" x="949" y="53"/><text fill="#000000" font-family="sans-serif" font-size="14" lengthAdjust="spacing" textLength="78" x="956" y="72.9951">:VeiculoDB</text><rect fill="#FEFECE" filter="url(#fi70qosh1ls35)" height="30.2969" style="stroke:#A80036;stroke-width:1.5;" width="92" x="949" y="370.3594"/><text fill="#000000" font-family="sans-serif" font-size="14" lengthAdjust="spacing" textLength="78" x="956" y="390.3545">:VeiculoDB</text><rect fill="#FFFFFF" filter="url(#fi70qosh1ls35)" height="255.0625" style="stroke:#A80036;stroke-width:1.0;" width="10" x="54" y="98.2969"/><rect fill="#FFFFFF" filter="url(#fi70qosh1ls35)" height="29.1328" style="stroke:#A80036;stroke-width:1.0;" width="10" x="708" y="119.4297"/><rect fill="#FFFFFF" filter="url(#fi70qosh1ls35)" height="117.3984" style="stroke:#A80036;stroke-width:1.0;" width="10" x="708" y="177.6953"/><rect fill="#FFFFFF" filter="url(#fi70qosh1ls35)" height="29.1328" style="stroke:#A80036;stroke-width:1.0;" width="10" x="708" y="324.2266"/><rect fill="#FFFFFF" filter="url(#fi70qosh1ls35)" height="59.1328" style="stroke:#A80036;stroke-width:1.0;" width="10" x="850" y="206.8281"/><rect fill="#FFFFFF" filter="url(#fi70qosh1ls35)" height="30" style="stroke:#A80036;stroke-width:1.0;" width="10" x="992" y="235.9609"/><polygon fill="#A80036" points="696,115.4297,706,119.4297,696,123.4297,700,119.4297" style="stroke:#A80036;stroke-width:1.0;"/><line style="stroke:#A80036;stroke-width:1.0;" x1="64" x2="702" y1="119.4297" y2="119.4297"/><text fill="#000000" font-family="sans-serif" font-size="13" font-weight="bold" lengthAdjust="spacing" textLength="9" x="71" y="114.3638">1</text><text fill="#000000" font-family="sans-serif" font-size="13" lengthAdjust="spacing" textLength="166" x="84" y="114.3638">inicia a remoção de drone</text><polygon fill="#A80036" points="75,144.5625,65,148.5625,75,152.5625,71,148.5625" style="stroke:#A80036;stroke-width:1.0;"/><line style="stroke:#A80036;stroke-width:1.0;stroke-dasharray:2.0,2.0;" x1="69" x2="712" y1="148.5625" y2="148.5625"/><text fill="#000000" font-family="sans-serif" font-size="13" font-weight="bold" lengthAdjust="spacing" textLength="9" x="81" y="143.4966">2</text><text fill="#000000" font-family="sans-serif" font-size="13" lengthAdjust="spacing" textLength="607" x="94" y="143.4966">solicita dados do drone(percentagemBateria, pesoMaximo, pesoVeiculo, potencia, areaFrontal)</text><polygon fill="#A80036" points="696,173.6953,706,177.6953,696,181.6953,700,177.6953" style="stroke:#A80036;stroke-width:1.0;"/><line style="stroke:#A80036;stroke-width:1.0;" x1="64" x2="702" y1="177.6953" y2="177.6953"/><text fill="#000000" font-family="sans-serif" font-size="13" font-weight="bold" lengthAdjust="spacing" textLength="8" x="71" y="172.6294">3</text><text fill="#000000" font-family="sans-serif" font-size="13" lengthAdjust="spacing" textLength="185" x="83" y="172.6294">introduz os dados solicitados</text><polygon fill="#A80036" points="838,202.8281,848,206.8281,838,210.8281,842,206.8281" style="stroke:#A80036;stroke-width:1.0;"/><line style="stroke:#A80036;stroke-width:1.0;" x1="718" x2="844" y1="206.8281" y2="206.8281"/><text fill="#000000" font-family="sans-serif" font-size="13" font-weight="bold" lengthAdjust="spacing" textLength="9" x="725" y="201.7622">4</text><text fill="#000000" font-family="sans-serif" font-size="13" lengthAdjust="spacing" textLength="100" x="738" y="201.7622">update(veiculo)</text><polygon fill="#A80036" points="980,231.9609,990,235.9609,980,239.9609,984,235.9609" style="stroke:#A80036;stroke-width:1.0;"/><line style="stroke:#A80036;stroke-width:1.0;" x1="860" x2="986" y1="235.9609" y2="235.9609"/><text fill="#000000" font-family="sans-serif" font-size="13" font-weight="bold" lengthAdjust="spacing" textLength="9" x="867" y="230.895">5</text><text fill="#000000" font-family="sans-serif" font-size="13" lengthAdjust="spacing" textLength="100" x="880" y="230.895">update(veiculo)</text><polygon fill="#A80036" points="75,291.0938,65,295.0938,75,299.0938,71,295.0938" style="stroke:#A80036;stroke-width:1.0;"/><line style="stroke:#A80036;stroke-width:1.0;stroke-dasharray:2.0,2.0;" x1="69" x2="712" y1="295.0938" y2="295.0938"/><text fill="#000000" font-family="sans-serif" font-size="13" font-weight="bold" lengthAdjust="spacing" textLength="9" x="81" y="290.0278">6</text><text fill="#000000" font-family="sans-serif" font-size="13" lengthAdjust="spacing" textLength="271" x="94" y="290.0278">apresenta os dados e solicita confirmação</text><polygon fill="#A80036" points="696,320.2266,706,324.2266,696,328.2266,700,324.2266" style="stroke:#A80036;stroke-width:1.0;"/><line style="stroke:#A80036;stroke-width:1.0;" x1="64" x2="702" y1="324.2266" y2="324.2266"/><text fill="#000000" font-family="sans-serif" font-size="13" font-weight="bold" lengthAdjust="spacing" textLength="9" x="71" y="319.1606">7</text><text fill="#000000" font-family="sans-serif" font-size="13" lengthAdjust="spacing" textLength="57" x="84" y="319.1606">confirma</text><polygon fill="#A80036" points="70,349.3594,60,353.3594,70,357.3594,66,353.3594" style="stroke:#A80036;stroke-width:1.0;"/><line style="stroke:#A80036;stroke-width:1.0;stroke-dasharray:2.0,2.0;" x1="64" x2="712" y1="353.3594" y2="353.3594"/><text fill="#000000" font-family="sans-serif" font-size="13" font-weight="bold" lengthAdjust="spacing" textLength="9" x="76" y="348.2935">8</text><text fill="#000000" font-family="sans-serif" font-size="13" lengthAdjust="spacing" textLength="315" x="89" y="348.2935">informa o administrador do sucesso da operação</text><!--MD5=[44084e4e57759ae9ac0bc6d3c1d9601d]
@startuml
autonumber

actor "Administrador" as ADMIN

participant ":AdminUI" as UI
participant ":VeiculoController" as CTRL
participant ":VeiculoDB" as DRDB


activate ADMIN
ADMIN -> UI : inicia a remoção de drone
activate UI
  
UI - -> ADMIN : solicita dados do drone(percentagemBateria, pesoMaximo, pesoVeiculo, potencia, areaFrontal)
deactivate UI

ADMIN -> UI : introduz os dados solicitados
activate UI 
UI -> CTRL : update(veiculo)
activate CTRL
CTRL -> DRDB : update(veiculo)
activate DRDB
deactivate DRDB
deactivate CTRL
UI - -> ADMIN : apresenta os dados e solicita confirmação
deactivate UI

ADMIN -> UI : confirma
activate UI
UI - -> ADMIN : informa o administrador do sucesso da operação
deactivate UI
deactivate ADMIN
@enduml

PlantUML version 1.2021.01beta3(Unknown compile time)
(GPL source distribution)
Java Runtime: Java(TM) SE Runtime Environment
JVM: Java HotSpot(TM) 64-Bit Server VM
Default Encoding: UTF-8
Language: en
Country: US
--></g></svg>