<?xml version="1.0" encoding="UTF-8" standalone="no"?><svg xmlns="http://www.w3.org/2000/svg" xmlns:xlink="http://www.w3.org/1999/xlink" contentScriptType="application/ecmascript" contentStyleType="text/css" height="657px" preserveAspectRatio="none" style="width:1577px;height:657px;" version="1.1" viewBox="0 0 1577 657" width="1577px" zoomAndPan="magnify"><defs><filter height="300%" id="firge0lx7zny6" width="300%" x="-1" y="-1"><feGaussianBlur result="blurOut" stdDeviation="2.0"/><feColorMatrix in="blurOut" result="blurOut2" type="matrix" values="0 0 0 0 0 0 0 0 0 0 0 0 0 0 0 0 0 0 .4 0"/><feOffset dx="4.0" dy="4.0" in="blurOut2" result="blurOut3"/><feBlend in="SourceGraphic" in2="blurOut3" mode="normal"/></filter></defs><g><rect fill="#FFFFFF" filter="url(#firge0lx7zny6)" height="457.2578" style="stroke:#A80036;stroke-width:1.0;" width="10" x="54" y="98.2969"/><rect fill="#FFFFFF" filter="url(#firge0lx7zny6)" height="44.2656" style="stroke:#A80036;stroke-width:1.0;" width="10" x="421" y="119.4297"/><rect fill="#FFFFFF" filter="url(#firge0lx7zny6)" height="161.9297" style="stroke:#A80036;stroke-width:1.0;" width="10" x="421" y="192.8281"/><rect fill="#FFFFFF" filter="url(#firge0lx7zny6)" height="171.6641" style="stroke:#A80036;stroke-width:1.0;" width="10" x="421" y="383.8906"/><rect fill="#FFFFFF" filter="url(#firge0lx7zny6)" height="88.5313" style="stroke:#A80036;stroke-width:1.0;" width="10" x="782" y="237.0938"/><rect fill="#FFFFFF" filter="url(#firge0lx7zny6)" height="142.5313" style="stroke:#A80036;stroke-width:1.0;" width="10" x="782" y="413.0234"/><rect fill="#FFFFFF" filter="url(#firge0lx7zny6)" height="44.2656" style="stroke:#A80036;stroke-width:1.0;" width="10" x="1143" y="281.3594"/><rect fill="#FFFFFF" filter="url(#firge0lx7zny6)" height="77.2656" style="stroke:#A80036;stroke-width:1.0;" width="10" x="1143" y="442.1563"/><line style="stroke:#A80036;stroke-width:1.0;stroke-dasharray:5.0,5.0;" x1="59" x2="59" y1="88.2969" y2="573.5547"/><line style="stroke:#A80036;stroke-width:1.0;stroke-dasharray:5.0,5.0;" x1="425.5" x2="425.5" y1="88.2969" y2="573.5547"/><line style="stroke:#A80036;stroke-width:1.0;stroke-dasharray:5.0,5.0;" x1="786.5" x2="786.5" y1="88.2969" y2="573.5547"/><line style="stroke:#A80036;stroke-width:1.0;stroke-dasharray:5.0,5.0;" x1="1148" x2="1148" y1="88.2969" y2="573.5547"/><line style="stroke:#A80036;stroke-width:1.0;stroke-dasharray:5.0,5.0;" x1="1508.5" x2="1508.5" y1="88.2969" y2="573.5547"/><text fill="#000000" font-family="sans-serif" font-size="14" lengthAdjust="spacing" textLength="102" x="5" y="84.9951">Administrador</text><ellipse cx="59" cy="15" fill="#FEFECE" filter="url(#firge0lx7zny6)" rx="8" ry="8" style="stroke:#A80036;stroke-width:2.0;"/><path d="M59,23 L59,50 M46,31 L72,31 M59,50 L46,65 M59,50 L72,65 " fill="none" filter="url(#firge0lx7zny6)" style="stroke:#A80036;stroke-width:2.0;"/><text fill="#000000" font-family="sans-serif" font-size="14" lengthAdjust="spacing" textLength="102" x="5" y="585.5498">Administrador</text><ellipse cx="59" cy="598.8516" fill="#FEFECE" filter="url(#firge0lx7zny6)" rx="8" ry="8" style="stroke:#A80036;stroke-width:2.0;"/><path d="M59,606.8516 L59,633.8516 M46,614.8516 L72,614.8516 M59,633.8516 L46,648.8516 M59,633.8516 L72,648.8516 " fill="none" filter="url(#firge0lx7zny6)" style="stroke:#A80036;stroke-width:2.0;"/><rect fill="#FEFECE" filter="url(#firge0lx7zny6)" height="30.2969" style="stroke:#A80036;stroke-width:1.5;" width="139" x="354.5" y="53"/><text fill="#000000" font-family="sans-serif" font-size="14" lengthAdjust="spacing" textLength="125" x="361.5" y="72.9951">:AtualizarDroneUI</text><rect fill="#FEFECE" filter="url(#firge0lx7zny6)" height="30.2969" style="stroke:#A80036;stroke-width:1.5;" width="139" x="354.5" y="572.5547"/><text fill="#000000" font-family="sans-serif" font-size="14" lengthAdjust="spacing" textLength="125" x="361.5" y="592.5498">:AtualizarDroneUI</text><rect fill="#FEFECE" filter="url(#firge0lx7zny6)" height="30.2969" style="stroke:#A80036;stroke-width:1.5;" width="199" x="685.5" y="53"/><text fill="#000000" font-family="sans-serif" font-size="14" lengthAdjust="spacing" textLength="185" x="692.5" y="72.9951">:AtualizarDroneController</text><rect fill="#FEFECE" filter="url(#firge0lx7zny6)" height="30.2969" style="stroke:#A80036;stroke-width:1.5;" width="199" x="685.5" y="572.5547"/><text fill="#000000" font-family="sans-serif" font-size="14" lengthAdjust="spacing" textLength="185" x="692.5" y="592.5498">:AtualizarDroneController</text><rect fill="#FEFECE" filter="url(#firge0lx7zny6)" height="30.2969" style="stroke:#A80036;stroke-width:1.5;" width="92" x="1100" y="53"/><text fill="#000000" font-family="sans-serif" font-size="14" lengthAdjust="spacing" textLength="78" x="1107" y="72.9951">:VeiculoDB</text><rect fill="#FEFECE" filter="url(#firge0lx7zny6)" height="30.2969" style="stroke:#A80036;stroke-width:1.5;" width="92" x="1100" y="572.5547"/><text fill="#000000" font-family="sans-serif" font-size="14" lengthAdjust="spacing" textLength="78" x="1107" y="592.5498">:VeiculoDB</text><rect fill="#FEFECE" filter="url(#firge0lx7zny6)" height="30.2969" style="stroke:#A80036;stroke-width:1.5;" width="113" x="1450.5" y="53"/><text fill="#000000" font-family="sans-serif" font-size="14" lengthAdjust="spacing" textLength="99" x="1457.5" y="72.9951">drone:Veiculo</text><rect fill="#FEFECE" filter="url(#firge0lx7zny6)" height="30.2969" style="stroke:#A80036;stroke-width:1.5;" width="113" x="1450.5" y="572.5547"/><text fill="#000000" font-family="sans-serif" font-size="14" lengthAdjust="spacing" textLength="99" x="1457.5" y="592.5498">drone:Veiculo</text><rect fill="#FFFFFF" filter="url(#firge0lx7zny6)" height="457.2578" style="stroke:#A80036;stroke-width:1.0;" width="10" x="54" y="98.2969"/><rect fill="#FFFFFF" filter="url(#firge0lx7zny6)" height="44.2656" style="stroke:#A80036;stroke-width:1.0;" width="10" x="421" y="119.4297"/><rect fill="#FFFFFF" filter="url(#firge0lx7zny6)" height="161.9297" style="stroke:#A80036;stroke-width:1.0;" width="10" x="421" y="192.8281"/><rect fill="#FFFFFF" filter="url(#firge0lx7zny6)" height="171.6641" style="stroke:#A80036;stroke-width:1.0;" width="10" x="421" y="383.8906"/><rect fill="#FFFFFF" filter="url(#firge0lx7zny6)" height="88.5313" style="stroke:#A80036;stroke-width:1.0;" width="10" x="782" y="237.0938"/><rect fill="#FFFFFF" filter="url(#firge0lx7zny6)" height="142.5313" style="stroke:#A80036;stroke-width:1.0;" width="10" x="782" y="413.0234"/><rect fill="#FFFFFF" filter="url(#firge0lx7zny6)" height="44.2656" style="stroke:#A80036;stroke-width:1.0;" width="10" x="1143" y="281.3594"/><rect fill="#FFFFFF" filter="url(#firge0lx7zny6)" height="77.2656" style="stroke:#A80036;stroke-width:1.0;" width="10" x="1143" y="442.1563"/><polygon fill="#A80036" points="409,115.4297,419,119.4297,409,123.4297,413,119.4297" style="stroke:#A80036;stroke-width:1.0;"/><line style="stroke:#A80036;stroke-width:1.0;" x1="64" x2="415" y1="119.4297" y2="119.4297"/><text fill="#000000" font-family="sans-serif" font-size="13" font-weight="bold" lengthAdjust="spacing" textLength="9" x="71" y="114.3638">1</text><text fill="#000000" font-family="sans-serif" font-size="13" lengthAdjust="spacing" textLength="218" x="84" y="114.3638">inicia a atualização de novo drone</text><polygon fill="#A80036" points="75,159.6953,65,163.6953,75,167.6953,71,163.6953" style="stroke:#A80036;stroke-width:1.0;"/><line style="stroke:#A80036;stroke-width:1.0;" x1="69" x2="425" y1="163.6953" y2="163.6953"/><text fill="#000000" font-family="sans-serif" font-size="13" font-weight="bold" lengthAdjust="spacing" textLength="9" x="81" y="151.063">2</text><text fill="#000000" font-family="sans-serif" font-size="13" lengthAdjust="spacing" textLength="320" x="94" y="143.4966">solicita dados do drone(tipo, percentagemBateria,</text><text fill="#000000" font-family="sans-serif" font-size="13" lengthAdjust="spacing" textLength="315" x="98" y="158.6294">pesoMaximo, pesoVeiculo, potencia, areaFrontal)</text><polygon fill="#A80036" points="409,188.8281,419,192.8281,409,196.8281,413,192.8281" style="stroke:#A80036;stroke-width:1.0;"/><line style="stroke:#A80036;stroke-width:1.0;" x1="64" x2="415" y1="192.8281" y2="192.8281"/><text fill="#000000" font-family="sans-serif" font-size="13" font-weight="bold" lengthAdjust="spacing" textLength="8" x="71" y="187.7622">3</text><text fill="#000000" font-family="sans-serif" font-size="13" lengthAdjust="spacing" textLength="101" x="83" y="187.7622">insere os dados</text><polygon fill="#A80036" points="770,233.0938,780,237.0938,770,241.0938,774,237.0938" style="stroke:#A80036;stroke-width:1.0;"/><line style="stroke:#A80036;stroke-width:1.0;" x1="431" x2="776" y1="237.0938" y2="237.0938"/><text fill="#000000" font-family="sans-serif" font-size="13" font-weight="bold" lengthAdjust="spacing" textLength="9" x="438" y="224.4614">4</text><text fill="#000000" font-family="sans-serif" font-size="13" lengthAdjust="spacing" textLength="231" x="451" y="216.895">setDrone(tipo, percentagemBateria,</text><text fill="#000000" font-family="sans-serif" font-size="13" lengthAdjust="spacing" textLength="315" x="455" y="232.0278">pesoMaximo, pesoVeiculo, potencia, areaFrontal)</text><polygon fill="#A80036" points="1131,277.3594,1141,281.3594,1131,285.3594,1135,281.3594" style="stroke:#A80036;stroke-width:1.0;"/><line style="stroke:#A80036;stroke-width:1.0;" x1="792" x2="1137" y1="281.3594" y2="281.3594"/><text fill="#000000" font-family="sans-serif" font-size="13" font-weight="bold" lengthAdjust="spacing" textLength="9" x="799" y="268.7271">5</text><text fill="#000000" font-family="sans-serif" font-size="13" lengthAdjust="spacing" textLength="231" x="812" y="261.1606">setDrone(tipo, percentagemBateria,</text><text fill="#000000" font-family="sans-serif" font-size="13" lengthAdjust="spacing" textLength="315" x="816" y="276.2935">pesoMaximo, pesoVeiculo, potencia, areaFrontal)</text><polygon fill="#A80036" points="1497,321.625,1507,325.625,1497,329.625,1501,325.625" style="stroke:#A80036;stroke-width:1.0;"/><line style="stroke:#A80036;stroke-width:1.0;" x1="1148" x2="1503" y1="325.625" y2="325.625"/><text fill="#000000" font-family="sans-serif" font-size="13" font-weight="bold" lengthAdjust="spacing" textLength="9" x="1155" y="312.9927">6</text><text fill="#000000" font-family="sans-serif" font-size="13" lengthAdjust="spacing" textLength="278" x="1168" y="305.4263">drone=setDrone(tipo, percentagemBateria,</text><text fill="#000000" font-family="sans-serif" font-size="13" lengthAdjust="spacing" textLength="315" x="1172" y="320.5591">pesoMaximo, pesoVeiculo, potencia, areaFrontal)</text><polygon fill="#A80036" points="75,350.7578,65,354.7578,75,358.7578,71,354.7578" style="stroke:#A80036;stroke-width:1.0;"/><line style="stroke:#A80036;stroke-width:1.0;stroke-dasharray:2.0,2.0;" x1="69" x2="425" y1="354.7578" y2="354.7578"/><text fill="#000000" font-family="sans-serif" font-size="13" font-weight="bold" lengthAdjust="spacing" textLength="9" x="81" y="349.6919">7</text><text fill="#000000" font-family="sans-serif" font-size="13" lengthAdjust="spacing" textLength="279" x="94" y="349.6919">apresenta dos dados e solicita confirmação</text><polygon fill="#A80036" points="409,379.8906,419,383.8906,409,387.8906,413,383.8906" style="stroke:#A80036;stroke-width:1.0;"/><line style="stroke:#A80036;stroke-width:1.0;" x1="64" x2="415" y1="383.8906" y2="383.8906"/><text fill="#000000" font-family="sans-serif" font-size="13" font-weight="bold" lengthAdjust="spacing" textLength="9" x="71" y="378.8247">8</text><text fill="#000000" font-family="sans-serif" font-size="13" lengthAdjust="spacing" textLength="180" x="84" y="378.8247">confirma os dados do drone</text><polygon fill="#A80036" points="770,409.0234,780,413.0234,770,417.0234,774,413.0234" style="stroke:#A80036;stroke-width:1.0;"/><line style="stroke:#A80036;stroke-width:1.0;" x1="431" x2="776" y1="413.0234" y2="413.0234"/><text fill="#000000" font-family="sans-serif" font-size="13" font-weight="bold" lengthAdjust="spacing" textLength="9" x="438" y="407.9575">9</text><text fill="#000000" font-family="sans-serif" font-size="13" lengthAdjust="spacing" textLength="94" x="451" y="407.9575">updateDrone()</text><polygon fill="#A80036" points="1131,438.1563,1141,442.1563,1131,446.1563,1135,442.1563" style="stroke:#A80036;stroke-width:1.0;"/><line style="stroke:#A80036;stroke-width:1.0;" x1="792" x2="1137" y1="442.1563" y2="442.1563"/><text fill="#000000" font-family="sans-serif" font-size="13" font-weight="bold" lengthAdjust="spacing" textLength="19" x="799" y="437.0903">10</text><text fill="#000000" font-family="sans-serif" font-size="13" lengthAdjust="spacing" textLength="131" x="822" y="437.0903">updateDrone(drone)</text><line style="stroke:#A80036;stroke-width:1.0;" x1="1153" x2="1195" y1="471.2891" y2="471.2891"/><line style="stroke:#A80036;stroke-width:1.0;" x1="1195" x2="1195" y1="471.2891" y2="484.2891"/><line style="stroke:#A80036;stroke-width:1.0;" x1="1154" x2="1195" y1="484.2891" y2="484.2891"/><polygon fill="#A80036" points="1164,480.2891,1154,484.2891,1164,488.2891,1160,484.2891" style="stroke:#A80036;stroke-width:1.0;"/><text fill="#000000" font-family="sans-serif" font-size="13" font-weight="bold" lengthAdjust="spacing" textLength="18" x="1160" y="466.2231">11</text><text fill="#000000" font-family="sans-serif" font-size="13" lengthAdjust="spacing" textLength="124" x="1182" y="466.2231">validaDrone(drone)</text><line style="stroke:#A80036;stroke-width:1.0;" x1="1153" x2="1195" y1="518.4219" y2="518.4219"/><line style="stroke:#A80036;stroke-width:1.0;" x1="1195" x2="1195" y1="518.4219" y2="531.4219"/><line style="stroke:#A80036;stroke-width:1.0;" x1="1148" x2="1195" y1="531.4219" y2="531.4219"/><polygon fill="#A80036" points="1158,527.4219,1148,531.4219,1158,535.4219,1154,531.4219" style="stroke:#A80036;stroke-width:1.0;"/><text fill="#000000" font-family="sans-serif" font-size="13" font-weight="bold" lengthAdjust="spacing" textLength="18" x="1160" y="513.356">12</text><text fill="#000000" font-family="sans-serif" font-size="13" lengthAdjust="spacing" textLength="110" x="1182" y="513.356">addDrone(drone)</text><polygon fill="#A80036" points="70,551.5547,60,555.5547,70,559.5547,66,555.5547" style="stroke:#A80036;stroke-width:1.0;"/><line style="stroke:#A80036;stroke-width:1.0;stroke-dasharray:2.0,2.0;" x1="64" x2="425" y1="555.5547" y2="555.5547"/><text fill="#000000" font-family="sans-serif" font-size="13" font-weight="bold" lengthAdjust="spacing" textLength="17" x="76" y="550.4888">13</text><text fill="#000000" font-family="sans-serif" font-size="13" lengthAdjust="spacing" textLength="208" x="97" y="550.4888">informa operação bem sucedida</text><!--MD5=[c4910e1f279c372824ac5ba4888ebecb]
@startuml
autonumber

actor "Administrador" as ADMIN

participant ":AtualizarDroneUI" as UI
participant ":AtualizarDroneController" as CTRL
participant ":VeiculoDB" as DRDB
participant "drone:Veiculo" as VEI
activate ADMIN
ADMIN -> UI : inicia a atualização de novo drone
activate UI
UI -> ADMIN : solicita dados do drone(tipo, percentagemBateria,\n pesoMaximo, pesoVeiculo, potencia, areaFrontal)
deactivate UI
ADMIN -> UI : insere os dados
activate UI
UI -> CTRL : setDrone(tipo, percentagemBateria,\n pesoMaximo, pesoVeiculo, potencia, areaFrontal)
activate CTRL
CTRL -> DRDB : setDrone(tipo, percentagemBateria,\n pesoMaximo, pesoVeiculo, potencia, areaFrontal)
activate DRDB
DRDB -> VEI : drone=setDrone(tipo, percentagemBateria,\n pesoMaximo, pesoVeiculo, potencia, areaFrontal)
deactivate DRDB
deactivate CTRL
  
UI - -> ADMIN : apresenta dos dados e solicita confirmação
deactivate UI

ADMIN -> UI : confirma os dados do drone
activate UI 
UI -> CTRL : updateDrone()
activate CTRL
CTRL -> DRDB : updateDrone(drone)
activate DRDB
DRDB -> DRDB : validaDrone(drone)
DRDB -> DRDB : addDrone(drone)
deactivate DRDB

UI - -> ADMIN : informa operação bem sucedida
deactivate CTRL
deactivate UI
deactivate ADMIN
@enduml

PlantUML version 1.2020.27beta8(Unknown compile time)
(GPL source distribution)
Java Runtime: Java(TM) SE Runtime Environment
JVM: Java HotSpot(TM) 64-Bit Server VM
Default Encoding: UTF-8
Language: en
Country: US
--></g></svg>