<?xml version="1.0" encoding="UTF-8" standalone="no"?><svg xmlns="http://www.w3.org/2000/svg" xmlns:xlink="http://www.w3.org/1999/xlink" contentScriptType="application/ecmascript" contentStyleType="text/css" height="649px" preserveAspectRatio="none" style="width:861px;height:649px;" version="1.1" viewBox="0 0 861 649" width="861px" zoomAndPan="magnify"><defs><filter height="300%" id="f886z05ll327j" width="300%" x="-1" y="-1"><feGaussianBlur result="blurOut" stdDeviation="2.0"/><feColorMatrix in="blurOut" result="blurOut2" type="matrix" values="0 0 0 0 0 0 0 0 0 0 0 0 0 0 0 0 0 0 .4 0"/><feOffset dx="4.0" dy="4.0" in="blurOut2" result="blurOut3"/><feBlend in="SourceGraphic" in2="blurOut3" mode="normal"/></filter></defs><g><!--MD5=[fdc0efc5253b4b251338dbb2cf88d917]
class VeiculoDB--><rect codeLine="3" fill="#FEFECE" filter="url(#f886z05ll327j)" height="99.2188" id="VeiculoDB" style="stroke:#A80036;stroke-width:1.5;" width="511" x="336.5" y="302.5"/><ellipse cx="557.25" cy="318.5" fill="#ADD1B2" rx="11" ry="11" style="stroke:#A80036;stroke-width:1.0;"/><path d="M559.5938,314.1719 C558.6563,313.7344 558.0625,313.5938 557.1875,313.5938 C554.5625,313.5938 552.5625,315.6719 552.5625,318.3906 L552.5625,319.5156 C552.5625,322.0938 554.6719,323.9844 557.5625,323.9844 C558.7813,323.9844 559.9375,323.6875 560.6875,323.1406 C561.2656,322.7344 561.5938,322.2813 561.5938,321.8906 C561.5938,321.4375 561.2031,321.0469 560.7344,321.0469 C560.5156,321.0469 560.3125,321.125 560.125,321.3125 C559.6719,321.7969 559.6719,321.7969 559.4844,321.8906 C559.0625,322.1563 558.375,322.2813 557.6094,322.2813 C555.5625,322.2813 554.2656,321.1875 554.2656,319.4844 L554.2656,318.3906 C554.2656,316.6094 555.5156,315.2969 557.25,315.2969 C557.8281,315.2969 558.4375,315.4531 558.9063,315.7031 C559.3906,315.9844 559.5625,316.2031 559.6563,316.6094 C559.7188,317.0156 559.75,317.1406 559.8906,317.2656 C560.0313,317.4063 560.2656,317.5156 560.4844,317.5156 C560.75,317.5156 561.0156,317.375 561.1875,317.1563 C561.2969,317 561.3281,316.8125 561.3281,316.3906 L561.3281,314.9688 C561.3281,314.5313 561.3125,314.4063 561.2188,314.25 C561.0625,313.9844 560.7813,313.8438 560.4844,313.8438 C560.1875,313.8438 559.9844,313.9375 559.7656,314.25 L559.5938,314.1719 Z " fill="#000000"/><text fill="#000000" font-family="sans-serif" font-size="12" lengthAdjust="spacing" textLength="61" x="577.75" y="322.6543">VeiculoDB</text><line style="stroke:#A80036;stroke-width:1.5;" x1="337.5" x2="846.5" y1="334.5" y2="334.5"/><line style="stroke:#A80036;stroke-width:1.5;" x1="337.5" x2="846.5" y1="342.5" y2="342.5"/><text fill="#000000" font-family="sans-serif" font-size="11" lengthAdjust="spacing" textLength="499" x="342.5" y="356.7104">+setDrone(tipo, percentagemBateria, pesoMaximo, pesoVeiculo, potencia, areaFrontal)</text><text fill="#000000" font-family="sans-serif" font-size="11" lengthAdjust="spacing" textLength="125" x="342.5" y="369.5151">+updateDrone(drone)</text><text fill="#000000" font-family="sans-serif" font-size="11" lengthAdjust="spacing" textLength="119" x="342.5" y="382.3198">+validaDrone(drone)</text><text fill="#000000" font-family="sans-serif" font-size="11" lengthAdjust="spacing" textLength="106" x="342.5" y="395.1245">+addDrone(drone)</text><!--MD5=[026f9a00207461d115ddda5b78cd1a08]
class AtualizarDroneController--><rect codeLine="10" fill="#FEFECE" filter="url(#f886z05ll327j)" height="73.6094" id="AtualizarDroneController" style="stroke:#A80036;stroke-width:1.5;" width="511" x="336.5" y="145"/><ellipse cx="514.25" cy="161" fill="#ADD1B2" rx="11" ry="11" style="stroke:#A80036;stroke-width:1.0;"/><path d="M516.5938,156.6719 C515.6563,156.2344 515.0625,156.0938 514.1875,156.0938 C511.5625,156.0938 509.5625,158.1719 509.5625,160.8906 L509.5625,162.0156 C509.5625,164.5938 511.6719,166.4844 514.5625,166.4844 C515.7813,166.4844 516.9375,166.1875 517.6875,165.6406 C518.2656,165.2344 518.5938,164.7813 518.5938,164.3906 C518.5938,163.9375 518.2031,163.5469 517.7344,163.5469 C517.5156,163.5469 517.3125,163.625 517.125,163.8125 C516.6719,164.2969 516.6719,164.2969 516.4844,164.3906 C516.0625,164.6563 515.375,164.7813 514.6094,164.7813 C512.5625,164.7813 511.2656,163.6875 511.2656,161.9844 L511.2656,160.8906 C511.2656,159.1094 512.5156,157.7969 514.25,157.7969 C514.8281,157.7969 515.4375,157.9531 515.9063,158.2031 C516.3906,158.4844 516.5625,158.7031 516.6563,159.1094 C516.7188,159.5156 516.75,159.6406 516.8906,159.7656 C517.0313,159.9063 517.2656,160.0156 517.4844,160.0156 C517.75,160.0156 518.0156,159.875 518.1875,159.6563 C518.2969,159.5 518.3281,159.3125 518.3281,158.8906 L518.3281,157.4688 C518.3281,157.0313 518.3125,156.9063 518.2188,156.75 C518.0625,156.4844 517.7813,156.3438 517.4844,156.3438 C517.1875,156.3438 516.9844,156.4375 516.7656,156.75 L516.5938,156.6719 Z " fill="#000000"/><text fill="#000000" font-family="sans-serif" font-size="12" lengthAdjust="spacing" textLength="147" x="534.75" y="165.1543">AtualizarDroneController</text><line style="stroke:#A80036;stroke-width:1.5;" x1="337.5" x2="846.5" y1="177" y2="177"/><line style="stroke:#A80036;stroke-width:1.5;" x1="337.5" x2="846.5" y1="185" y2="185"/><text fill="#000000" font-family="sans-serif" font-size="11" lengthAdjust="spacing" textLength="499" x="342.5" y="199.2104">+setDrone(tipo, percentagemBateria, pesoMaximo, pesoVeiculo, potencia, areaFrontal)</text><text fill="#000000" font-family="sans-serif" font-size="11" lengthAdjust="spacing" textLength="92" x="342.5" y="212.0151">+updateDrone()</text><!--MD5=[50c82c2f3968b87829ca85bcae2437a8]
class AtualizarDroneUI--><rect codeLine="15" fill="#FEFECE" filter="url(#f886z05ll327j)" height="48" id="AtualizarDroneUI" style="stroke:#A80036;stroke-width:1.5;" width="132" x="526" y="13.5"/><ellipse cx="541" cy="29.5" fill="#ADD1B2" rx="11" ry="11" style="stroke:#A80036;stroke-width:1.0;"/><path d="M543.3438,25.1719 C542.4063,24.7344 541.8125,24.5938 540.9375,24.5938 C538.3125,24.5938 536.3125,26.6719 536.3125,29.3906 L536.3125,30.5156 C536.3125,33.0938 538.4219,34.9844 541.3125,34.9844 C542.5313,34.9844 543.6875,34.6875 544.4375,34.1406 C545.0156,33.7344 545.3438,33.2813 545.3438,32.8906 C545.3438,32.4375 544.9531,32.0469 544.4844,32.0469 C544.2656,32.0469 544.0625,32.125 543.875,32.3125 C543.4219,32.7969 543.4219,32.7969 543.2344,32.8906 C542.8125,33.1563 542.125,33.2813 541.3594,33.2813 C539.3125,33.2813 538.0156,32.1875 538.0156,30.4844 L538.0156,29.3906 C538.0156,27.6094 539.2656,26.2969 541,26.2969 C541.5781,26.2969 542.1875,26.4531 542.6563,26.7031 C543.1406,26.9844 543.3125,27.2031 543.4063,27.6094 C543.4688,28.0156 543.5,28.1406 543.6406,28.2656 C543.7813,28.4063 544.0156,28.5156 544.2344,28.5156 C544.5,28.5156 544.7656,28.375 544.9375,28.1563 C545.0469,28 545.0781,27.8125 545.0781,27.3906 L545.0781,25.9688 C545.0781,25.5313 545.0625,25.4063 544.9688,25.25 C544.8125,24.9844 544.5313,24.8438 544.2344,24.8438 C543.9375,24.8438 543.7344,24.9375 543.5156,25.25 L543.3438,25.1719 Z " fill="#000000"/><text fill="#000000" font-family="sans-serif" font-size="12" lengthAdjust="spacing" textLength="100" x="555" y="33.6543">AtualizarDroneUI</text><line style="stroke:#A80036;stroke-width:1.5;" x1="527" x2="657" y1="45.5" y2="45.5"/><line style="stroke:#A80036;stroke-width:1.5;" x1="527" x2="657" y1="53.5" y2="53.5"/><!--MD5=[8505c5852735283b5a8424161266bb9f]
class Veiculo--><rect codeLine="18" fill="#FEFECE" filter="url(#f886z05ll327j)" height="150.4375" id="Veiculo" style="stroke:#A80036;stroke-width:1.5;" width="511" x="126.5" y="485"/><ellipse cx="355.75" cy="501" fill="#ADD1B2" rx="11" ry="11" style="stroke:#A80036;stroke-width:1.0;"/><path d="M358.0938,496.6719 C357.1563,496.2344 356.5625,496.0938 355.6875,496.0938 C353.0625,496.0938 351.0625,498.1719 351.0625,500.8906 L351.0625,502.0156 C351.0625,504.5938 353.1719,506.4844 356.0625,506.4844 C357.2813,506.4844 358.4375,506.1875 359.1875,505.6406 C359.7656,505.2344 360.0938,504.7813 360.0938,504.3906 C360.0938,503.9375 359.7031,503.5469 359.2344,503.5469 C359.0156,503.5469 358.8125,503.625 358.625,503.8125 C358.1719,504.2969 358.1719,504.2969 357.9844,504.3906 C357.5625,504.6563 356.875,504.7813 356.1094,504.7813 C354.0625,504.7813 352.7656,503.6875 352.7656,501.9844 L352.7656,500.8906 C352.7656,499.1094 354.0156,497.7969 355.75,497.7969 C356.3281,497.7969 356.9375,497.9531 357.4063,498.2031 C357.8906,498.4844 358.0625,498.7031 358.1563,499.1094 C358.2188,499.5156 358.25,499.6406 358.3906,499.7656 C358.5313,499.9063 358.7656,500.0156 358.9844,500.0156 C359.25,500.0156 359.5156,499.875 359.6875,499.6563 C359.7969,499.5 359.8281,499.3125 359.8281,498.8906 L359.8281,497.4688 C359.8281,497.0313 359.8125,496.9063 359.7188,496.75 C359.5625,496.4844 359.2813,496.3438 358.9844,496.3438 C358.6875,496.3438 358.4844,496.4375 358.2656,496.75 L358.0938,496.6719 Z " fill="#000000"/><text fill="#000000" font-family="sans-serif" font-size="12" lengthAdjust="spacing" textLength="44" x="376.25" y="505.1543">Veiculo</text><line style="stroke:#A80036;stroke-width:1.5;" x1="127.5" x2="636.5" y1="517" y2="517"/><text fill="#000000" font-family="sans-serif" font-size="11" lengthAdjust="spacing" textLength="56" x="132.5" y="531.2104">-idVeiculo</text><text fill="#000000" font-family="sans-serif" font-size="11" lengthAdjust="spacing" textLength="25" x="132.5" y="544.0151">-tipo</text><text fill="#000000" font-family="sans-serif" font-size="11" lengthAdjust="spacing" textLength="122" x="132.5" y="556.8198">-percentagemBateria</text><text fill="#000000" font-family="sans-serif" font-size="11" lengthAdjust="spacing" textLength="76" x="132.5" y="569.6245">-pesoMaximo</text><text fill="#000000" font-family="sans-serif" font-size="11" lengthAdjust="spacing" textLength="74" x="132.5" y="582.4292">-pesoVeiculo</text><text fill="#000000" font-family="sans-serif" font-size="11" lengthAdjust="spacing" textLength="53" x="132.5" y="595.2339">-potencia</text><text fill="#000000" font-family="sans-serif" font-size="11" lengthAdjust="spacing" textLength="68" x="132.5" y="608.0386">-areaFrontal</text><line style="stroke:#A80036;stroke-width:1.5;" x1="127.5" x2="636.5" y1="614.6328" y2="614.6328"/><text fill="#000000" font-family="sans-serif" font-size="11" lengthAdjust="spacing" textLength="499" x="132.5" y="628.8433">+setDrone(tipo, percentagemBateria, pesoMaximo, pesoVeiculo, potencia, areaFrontal)</text><!--MD5=[1a083dbe42a284ae0ea7f6f701783206]
class Parque--><rect codeLine="29" fill="#FEFECE" filter="url(#f886z05ll327j)" height="73.6094" id="Parque" style="stroke:#A80036;stroke-width:1.5;" width="104" x="7" y="315"/><ellipse cx="35.95" cy="331" fill="#ADD1B2" rx="11" ry="11" style="stroke:#A80036;stroke-width:1.0;"/><path d="M38.2938,326.6719 C37.3563,326.2344 36.7625,326.0938 35.8875,326.0938 C33.2625,326.0938 31.2625,328.1719 31.2625,330.8906 L31.2625,332.0156 C31.2625,334.5938 33.3719,336.4844 36.2625,336.4844 C37.4813,336.4844 38.6375,336.1875 39.3875,335.6406 C39.9656,335.2344 40.2938,334.7813 40.2938,334.3906 C40.2938,333.9375 39.9031,333.5469 39.4344,333.5469 C39.2156,333.5469 39.0125,333.625 38.825,333.8125 C38.3719,334.2969 38.3719,334.2969 38.1844,334.3906 C37.7625,334.6563 37.075,334.7813 36.3094,334.7813 C34.2625,334.7813 32.9656,333.6875 32.9656,331.9844 L32.9656,330.8906 C32.9656,329.1094 34.2156,327.7969 35.95,327.7969 C36.5281,327.7969 37.1375,327.9531 37.6063,328.2031 C38.0906,328.4844 38.2625,328.7031 38.3563,329.1094 C38.4188,329.5156 38.45,329.6406 38.5906,329.7656 C38.7313,329.9063 38.9656,330.0156 39.1844,330.0156 C39.45,330.0156 39.7156,329.875 39.8875,329.6563 C39.9969,329.5 40.0281,329.3125 40.0281,328.8906 L40.0281,327.4688 C40.0281,327.0313 40.0125,326.9063 39.9188,326.75 C39.7625,326.4844 39.4813,326.3438 39.1844,326.3438 C38.8875,326.3438 38.6844,326.4375 38.4656,326.75 L38.2938,326.6719 Z " fill="#000000"/><text fill="#000000" font-family="sans-serif" font-size="12" lengthAdjust="spacing" textLength="41" x="53.05" y="335.1543">Parque</text><line style="stroke:#A80036;stroke-width:1.5;" x1="8" x2="110" y1="347" y2="347"/><text fill="#000000" font-family="sans-serif" font-size="11" lengthAdjust="spacing" textLength="92" x="13" y="361.2104">-numeroMaximo</text><text fill="#000000" font-family="sans-serif" font-size="11" lengthAdjust="spacing" textLength="25" x="13" y="374.0151">-tipo</text><line style="stroke:#A80036;stroke-width:1.5;" x1="8" x2="110" y1="380.6094" y2="380.6094"/><!--MD5=[6613c9cd406ef433ff06f5e98b28abd9]
class Farmacia--><rect codeLine="34" fill="#FEFECE" filter="url(#f886z05ll327j)" height="60.8047" id="Farmacia" style="stroke:#A80036;stroke-width:1.5;" width="86" x="64" y="7"/><ellipse cx="79" cy="23" fill="#ADD1B2" rx="11" ry="11" style="stroke:#A80036;stroke-width:1.0;"/><path d="M81.3438,18.6719 C80.4063,18.2344 79.8125,18.0938 78.9375,18.0938 C76.3125,18.0938 74.3125,20.1719 74.3125,22.8906 L74.3125,24.0156 C74.3125,26.5938 76.4219,28.4844 79.3125,28.4844 C80.5313,28.4844 81.6875,28.1875 82.4375,27.6406 C83.0156,27.2344 83.3438,26.7813 83.3438,26.3906 C83.3438,25.9375 82.9531,25.5469 82.4844,25.5469 C82.2656,25.5469 82.0625,25.625 81.875,25.8125 C81.4219,26.2969 81.4219,26.2969 81.2344,26.3906 C80.8125,26.6563 80.125,26.7813 79.3594,26.7813 C77.3125,26.7813 76.0156,25.6875 76.0156,23.9844 L76.0156,22.8906 C76.0156,21.1094 77.2656,19.7969 79,19.7969 C79.5781,19.7969 80.1875,19.9531 80.6563,20.2031 C81.1406,20.4844 81.3125,20.7031 81.4063,21.1094 C81.4688,21.5156 81.5,21.6406 81.6406,21.7656 C81.7813,21.9063 82.0156,22.0156 82.2344,22.0156 C82.5,22.0156 82.7656,21.875 82.9375,21.6563 C83.0469,21.5 83.0781,21.3125 83.0781,20.8906 L83.0781,19.4688 C83.0781,19.0313 83.0625,18.9063 82.9688,18.75 C82.8125,18.4844 82.5313,18.3438 82.2344,18.3438 C81.9375,18.3438 81.7344,18.4375 81.5156,18.75 L81.3438,18.6719 Z " fill="#000000"/><text fill="#000000" font-family="sans-serif" font-size="12" lengthAdjust="spacing" textLength="54" x="93" y="27.1543">Farmacia</text><line style="stroke:#A80036;stroke-width:1.5;" x1="65" x2="149" y1="39" y2="39"/><text fill="#000000" font-family="sans-serif" font-size="11" lengthAdjust="spacing" textLength="21" x="70" y="53.2104">-NIF</text><line style="stroke:#A80036;stroke-width:1.5;" x1="65" x2="149" y1="59.8047" y2="59.8047"/><!--MD5=[5dd1d6732c071e710b9290b531f2fa3b]
class Utilizador--><rect codeLine="38" fill="#FEFECE" filter="url(#f886z05ll327j)" height="112.0234" id="Utilizador" style="stroke:#A80036;stroke-width:1.5;" width="155" x="146.5" y="296"/><ellipse cx="191.25" cy="312" fill="#ADD1B2" rx="11" ry="11" style="stroke:#A80036;stroke-width:1.0;"/><path d="M193.5938,307.6719 C192.6563,307.2344 192.0625,307.0938 191.1875,307.0938 C188.5625,307.0938 186.5625,309.1719 186.5625,311.8906 L186.5625,313.0156 C186.5625,315.5938 188.6719,317.4844 191.5625,317.4844 C192.7813,317.4844 193.9375,317.1875 194.6875,316.6406 C195.2656,316.2344 195.5938,315.7813 195.5938,315.3906 C195.5938,314.9375 195.2031,314.5469 194.7344,314.5469 C194.5156,314.5469 194.3125,314.625 194.125,314.8125 C193.6719,315.2969 193.6719,315.2969 193.4844,315.3906 C193.0625,315.6563 192.375,315.7813 191.6094,315.7813 C189.5625,315.7813 188.2656,314.6875 188.2656,312.9844 L188.2656,311.8906 C188.2656,310.1094 189.5156,308.7969 191.25,308.7969 C191.8281,308.7969 192.4375,308.9531 192.9063,309.2031 C193.3906,309.4844 193.5625,309.7031 193.6563,310.1094 C193.7188,310.5156 193.75,310.6406 193.8906,310.7656 C194.0313,310.9063 194.2656,311.0156 194.4844,311.0156 C194.75,311.0156 195.0156,310.875 195.1875,310.6563 C195.2969,310.5 195.3281,310.3125 195.3281,309.8906 L195.3281,308.4688 C195.3281,308.0313 195.3125,307.9063 195.2188,307.75 C195.0625,307.4844 194.7813,307.3438 194.4844,307.3438 C194.1875,307.3438 193.9844,307.4375 193.7656,307.75 L193.5938,307.6719 Z " fill="#000000"/><text fill="#000000" font-family="sans-serif" font-size="12" lengthAdjust="spacing" textLength="57" x="211.75" y="316.1543">Utilizador</text><line style="stroke:#A80036;stroke-width:1.5;" x1="147.5" x2="300.5" y1="328" y2="328"/><text fill="#000000" font-family="sans-serif" font-size="11" lengthAdjust="spacing" textLength="21" x="152.5" y="342.2104">-NIF</text><text fill="#000000" font-family="sans-serif" font-size="11" lengthAdjust="spacing" textLength="37" x="152.5" y="355.0151">-nome</text><text fill="#000000" font-family="sans-serif" font-size="11" lengthAdjust="spacing" textLength="36" x="152.5" y="367.8198">-email</text><text fill="#000000" font-family="sans-serif" font-size="11" lengthAdjust="spacing" textLength="143" x="152.5" y="380.6245">-numeroSegurancaSocial</text><text fill="#000000" font-family="sans-serif" font-size="11" lengthAdjust="spacing" textLength="57" x="152.5" y="393.4292">-password</text><line style="stroke:#A80036;stroke-width:1.5;" x1="147.5" x2="300.5" y1="400.0234" y2="400.0234"/><!--MD5=[fdcda49d453d44c676d62f3f6af62207]
class Administrador--><rect fill="#FEFECE" filter="url(#f886z05ll327j)" height="48" id="Administrador" style="stroke:#A80036;stroke-width:1.5;" width="116" x="135" y="158"/><ellipse cx="150" cy="174" fill="#ADD1B2" rx="11" ry="11" style="stroke:#A80036;stroke-width:1.0;"/><path d="M152.3438,169.6719 C151.4063,169.2344 150.8125,169.0938 149.9375,169.0938 C147.3125,169.0938 145.3125,171.1719 145.3125,173.8906 L145.3125,175.0156 C145.3125,177.5938 147.4219,179.4844 150.3125,179.4844 C151.5313,179.4844 152.6875,179.1875 153.4375,178.6406 C154.0156,178.2344 154.3438,177.7813 154.3438,177.3906 C154.3438,176.9375 153.9531,176.5469 153.4844,176.5469 C153.2656,176.5469 153.0625,176.625 152.875,176.8125 C152.4219,177.2969 152.4219,177.2969 152.2344,177.3906 C151.8125,177.6563 151.125,177.7813 150.3594,177.7813 C148.3125,177.7813 147.0156,176.6875 147.0156,174.9844 L147.0156,173.8906 C147.0156,172.1094 148.2656,170.7969 150,170.7969 C150.5781,170.7969 151.1875,170.9531 151.6563,171.2031 C152.1406,171.4844 152.3125,171.7031 152.4063,172.1094 C152.4688,172.5156 152.5,172.6406 152.6406,172.7656 C152.7813,172.9063 153.0156,173.0156 153.2344,173.0156 C153.5,173.0156 153.7656,172.875 153.9375,172.6563 C154.0469,172.5 154.0781,172.3125 154.0781,171.8906 L154.0781,170.4688 C154.0781,170.0313 154.0625,169.9063 153.9688,169.75 C153.8125,169.4844 153.5313,169.3438 153.2344,169.3438 C152.9375,169.3438 152.7344,169.4375 152.5156,169.75 L152.3438,169.6719 Z " fill="#000000"/><text fill="#000000" font-family="sans-serif" font-size="12" lengthAdjust="spacing" textLength="84" x="164" y="178.1543">Administrador</text><line style="stroke:#A80036;stroke-width:1.5;" x1="136" x2="250" y1="190" y2="190"/><line style="stroke:#A80036;stroke-width:1.5;" x1="136" x2="250" y1="198" y2="198"/><!--MD5=[b4161b205744775e44f73e41ced309e0]
link Administrador to Utilizador--><path codeLine="46" d="M197.245,206.007 C201.49,229.013 208.179,265.261 213.807,295.758 " fill="none" id="Administrador-Utilizador" style="stroke:#A80036;stroke-width:1.0;"/><polygon fill="#000000" points="213.9073,262.4834,215.1561,253.0552,209.3758,254.1218,213.9073,262.4834" style="stroke:#000000;stroke-width:1.0;"/><text fill="#000000" font-family="sans-serif" font-size="13" lengthAdjust="spacing" textLength="69" x="222" y="262.0669">atua como</text><text fill="#000000" font-family="sans-serif" font-size="13" lengthAdjust="spacing" textLength="8" x="189.3078" y="226.1646">1</text><text fill="#000000" font-family="sans-serif" font-size="13" lengthAdjust="spacing" textLength="8" x="204.0772" y="285.063">1</text><!--MD5=[6ba179a0a54b0b32b52757b8e4d27c6d]
link Administrador to Parque--><path codeLine="47" d="M170.689,206.271 C159.105,218.666 144.919,234.342 133,249 C115.746,270.218 97.6991,295.034 83.7467,314.875 " fill="none" id="Administrador-Parque" style="stroke:#A80036;stroke-width:1.0;"/><polygon fill="#000000" points="134.8752,261.4697,142.8223,256.2453,138.2337,252.5719,134.8752,261.4697" style="stroke:#000000;stroke-width:1.0;"/><text fill="#000000" font-family="sans-serif" font-size="13" lengthAdjust="spacing" textLength="50" x="147" y="262.0669">remove</text><text fill="#000000" font-family="sans-serif" font-size="13" lengthAdjust="spacing" textLength="8" x="156.2757" y="226.0983">1</text><text fill="#000000" font-family="sans-serif" font-size="13" lengthAdjust="spacing" textLength="23" x="63.1063" y="304.0397">1..*</text><!--MD5=[4f96609c99ecadb81dc825d0ae539cef]
link Farmacia to Parque--><path codeLine="48" d="M96.5421,68.409 C89.5868,89.543 80.8657,118.679 76,145 C65.1062,203.93 61.191,273.639 59.7854,314.985 " fill="none" id="Farmacia-Parque" style="stroke:#A80036;stroke-width:1.0;"/><polygon fill="#000000" points="80.2628,187.0118,84.5032,178.4988,78.6896,177.6322,80.2628,187.0118" style="stroke:#000000;stroke-width:1.0;"/><text fill="#000000" font-family="sans-serif" font-size="13" lengthAdjust="spacing" textLength="26" x="90" y="186.5669">tem</text><text fill="#000000" font-family="sans-serif" font-size="13" lengthAdjust="spacing" textLength="8" x="85.7861" y="87.8289">1</text><text fill="#000000" font-family="sans-serif" font-size="13" lengthAdjust="spacing" textLength="8" x="51.1927" y="303.8927">1</text><!--MD5=[1eb578f81baca05fae5600e8efb79c07]
link Farmacia to Administrador--><path codeLine="49" d="M124.819,68.026 C140.858,94.602 164.114,133.136 178.894,157.626 " fill="none" id="Farmacia-Administrador" style="stroke:#A80036;stroke-width:1.0;"/><polygon fill="#000000" points="160.5835,110.8472,158.4261,101.5846,153.3937,104.6217,160.5835,110.8472" style="stroke:#000000;stroke-width:1.0;"/><text fill="#000000" font-family="sans-serif" font-size="13" lengthAdjust="spacing" textLength="26" x="167" y="111.0669">tem</text><text fill="#000000" font-family="sans-serif" font-size="13" lengthAdjust="spacing" textLength="8" x="119.6692" y="87.9696">1</text><text fill="#000000" font-family="sans-serif" font-size="13" lengthAdjust="spacing" textLength="8" x="166.4807" y="146.9398">1</text><!--MD5=[639e2fc5a451b1bb392d1ae296701488]
link Parque to Veiculo--><path codeLine="50" d="M103.17,389.081 C111.604,395.574 120.466,402.136 129,408 C167.575,434.506 210.896,461.355 250.642,484.915 " fill="none" id="Parque-Veiculo" style="stroke:#A80036;stroke-width:1.0;"/><polygon fill="#000000" points="206.1925,449.2909,200.2096,441.898,197.0068,446.8265,206.1925,449.2909" style="stroke:#000000;stroke-width:1.0;"/><text fill="#000000" font-family="sans-serif" font-size="13" lengthAdjust="spacing" textLength="26" x="211" y="451.0669">tem</text><text fill="#000000" font-family="sans-serif" font-size="13" lengthAdjust="spacing" textLength="8" x="101.8232" y="408.575">1</text><text fill="#000000" font-family="sans-serif" font-size="13" lengthAdjust="spacing" textLength="23" x="213.5794" y="473.8374">0..*</text><!--MD5=[15f363f53c5a0d3bd43137c2050cdd39]
link AtualizarDroneUI to AtualizarDroneController--><path codeLine="52" d="M592,61.712 C592,82.77 592,114.306 592,139.665 " fill="none" id="AtualizarDroneUI-to-AtualizarDroneController" style="stroke:#A80036;stroke-width:1.0;stroke-dasharray:7.0,7.0;"/><polygon fill="#A80036" points="592,144.977,596,135.977,592,139.977,588,135.977,592,144.977" style="stroke:#A80036;stroke-width:1.0;"/><!--MD5=[6179aa592d4ea46750198ed4766c98a6]
link AtualizarDroneController to VeiculoDB--><path codeLine="54" d="M592,219.04 C592,241.818 592,271.671 592,297.221 " fill="none" id="AtualizarDroneController-to-VeiculoDB" style="stroke:#A80036;stroke-width:1.0;stroke-dasharray:7.0,7.0;"/><polygon fill="#A80036" points="592,302.27,596,293.27,592,297.27,588,293.27,592,302.27" style="stroke:#A80036;stroke-width:1.0;"/><!--MD5=[6355171bb87232b3a58c2e48ef243e25]
link VeiculoDB to Veiculo--><path codeLine="55" d="M542.499,401.558 C517.155,426.419 485.759,457.218 457.474,484.964 " fill="none" id="VeiculoDB-Veiculo" style="stroke:#A80036;stroke-width:1.0;"/><polygon fill="#000000" points="501.4306,450.0678,509.9457,445.8317,505.8296,441.6357,501.4306,450.0678" style="stroke:#000000;stroke-width:1.0;"/><text fill="#000000" font-family="sans-serif" font-size="13" lengthAdjust="spacing" textLength="97" x="514" y="451.0669">tem registadas</text><text fill="#000000" font-family="sans-serif" font-size="13" lengthAdjust="spacing" textLength="8" x="526.9754" y="421.6426">1</text><text fill="#000000" font-family="sans-serif" font-size="13" lengthAdjust="spacing" textLength="7" x="457.5589" y="473.8913">*</text><!--MD5=[dcefef8b18d606a8342a7a2176bdaf0d]
@startuml
skinparam classAttributeIconSize 0

class VeiculoDB {
  +setDrone(tipo, percentagemBateria, pesoMaximo, pesoVeiculo, potencia, areaFrontal)
  +updateDrone(drone)
  +validaDrone(drone)
  +addDrone(drone)
}

class AtualizarDroneController {
    +setDrone(tipo, percentagemBateria, pesoMaximo, pesoVeiculo, potencia, areaFrontal)
    +updateDrone()
}

class AtualizarDroneUI {
}

class Veiculo {
   -idVeiculo
   -tipo
   -percentagemBateria
   -pesoMaximo
   -pesoVeiculo
   -potencia
   -areaFrontal
   +setDrone(tipo, percentagemBateria, pesoMaximo, pesoVeiculo, potencia, areaFrontal)
}

class Parque {
  -numeroMaximo
  -tipo
}

class Farmacia {
  -NIF
}

class Utilizador {
  -NIF
  -nome
  -email
  -numeroSegurancaSocial
  -password
}

Administrador "1" - - "1" Utilizador: atua como >
Administrador "1" - - "1..*" Parque: remove >
Farmacia "1" - - "1" Parque: tem >
Farmacia "1" - - "1" Administrador: tem >
Parque "1" - - "0..*" Veiculo: tem > 

AtualizarDroneUI ..> AtualizarDroneController 

AtualizarDroneController ..> VeiculoDB
VeiculoDB "1" - - "*" Veiculo: tem registadas >
@enduml

PlantUML version 1.2020.27beta8(Unknown compile time)
(GPL source distribution)
Java Runtime: Java(TM) SE Runtime Environment
JVM: Java HotSpot(TM) 64-Bit Server VM
Default Encoding: UTF-8
Language: en
Country: US
--></g></svg>