<?xml version="1.0" encoding="UTF-8" standalone="no"?><svg xmlns="http://www.w3.org/2000/svg" xmlns:xlink="http://www.w3.org/1999/xlink" contentScriptType="application/ecmascript" contentStyleType="text/css" height="1298px" preserveAspectRatio="none" style="width:1469px;height:1298px;" version="1.1" viewBox="0 0 1469 1298" width="1469px" zoomAndPan="magnify"><defs><filter height="300%" id="f9os0plm3zlfo" width="300%" x="-1" y="-1"><feGaussianBlur result="blurOut" stdDeviation="2.0"/><feColorMatrix in="blurOut" result="blurOut2" type="matrix" values="0 0 0 0 0 0 0 0 0 0 0 0 0 0 0 0 0 0 .4 0"/><feOffset dx="4.0" dy="4.0" in="blurOut2" result="blurOut3"/><feBlend in="SourceGraphic" in2="blurOut3" mode="normal"/></filter></defs><g><!--MD5=[380d12a68ed0046a60f31008a02875d0]
class AplicacaoPOT--><rect codeLine="3" fill="#FEFECE" filter="url(#f9os0plm3zlfo)" height="73.6094" id="AplicacaoPOT" style="stroke:#A80036;stroke-width:1.5;" width="130" x="7" y="327"/><ellipse cx="29.65" cy="343" fill="#ADD1B2" rx="11" ry="11" style="stroke:#A80036;stroke-width:1.0;"/><path d="M31.9938,338.6719 C31.0563,338.2344 30.4625,338.0938 29.5875,338.0938 C26.9625,338.0938 24.9625,340.1719 24.9625,342.8906 L24.9625,344.0156 C24.9625,346.5938 27.0719,348.4844 29.9625,348.4844 C31.1813,348.4844 32.3375,348.1875 33.0875,347.6406 C33.6656,347.2344 33.9938,346.7813 33.9938,346.3906 C33.9938,345.9375 33.6031,345.5469 33.1344,345.5469 C32.9156,345.5469 32.7125,345.625 32.525,345.8125 C32.0719,346.2969 32.0719,346.2969 31.8844,346.3906 C31.4625,346.6563 30.775,346.7813 30.0094,346.7813 C27.9625,346.7813 26.6656,345.6875 26.6656,343.9844 L26.6656,342.8906 C26.6656,341.1094 27.9156,339.7969 29.65,339.7969 C30.2281,339.7969 30.8375,339.9531 31.3063,340.2031 C31.7906,340.4844 31.9625,340.7031 32.0563,341.1094 C32.1188,341.5156 32.15,341.6406 32.2906,341.7656 C32.4313,341.9063 32.6656,342.0156 32.8844,342.0156 C33.15,342.0156 33.4156,341.875 33.5875,341.6563 C33.6969,341.5 33.7281,341.3125 33.7281,340.8906 L33.7281,339.4688 C33.7281,339.0313 33.7125,338.9063 33.6188,338.75 C33.4625,338.4844 33.1813,338.3438 32.8844,338.3438 C32.5875,338.3438 32.3844,338.4375 32.1656,338.75 L31.9938,338.6719 Z " fill="#000000"/><text fill="#000000" font-family="sans-serif" font-size="12" lengthAdjust="spacing" textLength="81" x="45.35" y="347.1543">AplicacaoPOT</text><line style="stroke:#A80036;stroke-width:1.5;" x1="8" x2="136" y1="359" y2="359"/><line style="stroke:#A80036;stroke-width:1.5;" x1="8" x2="136" y1="367" y2="367"/><text fill="#000000" font-family="sans-serif" font-size="11" lengthAdjust="spacing" textLength="118" x="13" y="381.2104">+static getInstance()</text><text fill="#000000" font-family="sans-serif" font-size="11" lengthAdjust="spacing" textLength="107" x="13" y="394.0151">+getSessaoAtual()</text><!--MD5=[1e13576e8c070e32200b62ceaa1f39ec]
class SessaoUtilizador--><rect codeLine="8" fill="#FEFECE" filter="url(#f9os0plm3zlfo)" height="60.8047" id="SessaoUtilizador" style="stroke:#A80036;stroke-width:1.5;" width="134" x="172" y="333.5"/><ellipse cx="187" cy="349.5" fill="#ADD1B2" rx="11" ry="11" style="stroke:#A80036;stroke-width:1.0;"/><path d="M189.3438,345.1719 C188.4063,344.7344 187.8125,344.5938 186.9375,344.5938 C184.3125,344.5938 182.3125,346.6719 182.3125,349.3906 L182.3125,350.5156 C182.3125,353.0938 184.4219,354.9844 187.3125,354.9844 C188.5313,354.9844 189.6875,354.6875 190.4375,354.1406 C191.0156,353.7344 191.3438,353.2813 191.3438,352.8906 C191.3438,352.4375 190.9531,352.0469 190.4844,352.0469 C190.2656,352.0469 190.0625,352.125 189.875,352.3125 C189.4219,352.7969 189.4219,352.7969 189.2344,352.8906 C188.8125,353.1563 188.125,353.2813 187.3594,353.2813 C185.3125,353.2813 184.0156,352.1875 184.0156,350.4844 L184.0156,349.3906 C184.0156,347.6094 185.2656,346.2969 187,346.2969 C187.5781,346.2969 188.1875,346.4531 188.6563,346.7031 C189.1406,346.9844 189.3125,347.2031 189.4063,347.6094 C189.4688,348.0156 189.5,348.1406 189.6406,348.2656 C189.7813,348.4063 190.0156,348.5156 190.2344,348.5156 C190.5,348.5156 190.7656,348.375 190.9375,348.1563 C191.0469,348 191.0781,347.8125 191.0781,347.3906 L191.0781,345.9688 C191.0781,345.5313 191.0625,345.4063 190.9688,345.25 C190.8125,344.9844 190.5313,344.8438 190.2344,344.8438 C189.9375,344.8438 189.7344,344.9375 189.5156,345.25 L189.3438,345.1719 Z " fill="#000000"/><text fill="#000000" font-family="sans-serif" font-size="12" lengthAdjust="spacing" textLength="102" x="201" y="353.6543">SessaoUtilizador</text><line style="stroke:#A80036;stroke-width:1.5;" x1="173" x2="305" y1="365.5" y2="365.5"/><line style="stroke:#A80036;stroke-width:1.5;" x1="173" x2="305" y1="373.5" y2="373.5"/><text fill="#000000" font-family="sans-serif" font-size="11" lengthAdjust="spacing" textLength="120" x="178" y="387.7104">+getEmailUtilizador()</text><!--MD5=[a8381305e32feabadf74eb10f0c047ba]
class EnderecoDB--><rect codeLine="12" fill="#FEFECE" filter="url(#f9os0plm3zlfo)" height="73.6094" id="EnderecoDB" style="stroke:#A80036;stroke-width:1.5;" width="187" x="219.5" y="431"/><ellipse cx="271.25" cy="447" fill="#ADD1B2" rx="11" ry="11" style="stroke:#A80036;stroke-width:1.0;"/><path d="M273.5938,442.6719 C272.6563,442.2344 272.0625,442.0938 271.1875,442.0938 C268.5625,442.0938 266.5625,444.1719 266.5625,446.8906 L266.5625,448.0156 C266.5625,450.5938 268.6719,452.4844 271.5625,452.4844 C272.7813,452.4844 273.9375,452.1875 274.6875,451.6406 C275.2656,451.2344 275.5938,450.7813 275.5938,450.3906 C275.5938,449.9375 275.2031,449.5469 274.7344,449.5469 C274.5156,449.5469 274.3125,449.625 274.125,449.8125 C273.6719,450.2969 273.6719,450.2969 273.4844,450.3906 C273.0625,450.6563 272.375,450.7813 271.6094,450.7813 C269.5625,450.7813 268.2656,449.6875 268.2656,447.9844 L268.2656,446.8906 C268.2656,445.1094 269.5156,443.7969 271.25,443.7969 C271.8281,443.7969 272.4375,443.9531 272.9063,444.2031 C273.3906,444.4844 273.5625,444.7031 273.6563,445.1094 C273.7188,445.5156 273.75,445.6406 273.8906,445.7656 C274.0313,445.9063 274.2656,446.0156 274.4844,446.0156 C274.75,446.0156 275.0156,445.875 275.1875,445.6563 C275.2969,445.5 275.3281,445.3125 275.3281,444.8906 L275.3281,443.4688 C275.3281,443.0313 275.3125,442.9063 275.2188,442.75 C275.0625,442.4844 274.7813,442.3438 274.4844,442.3438 C274.1875,442.3438 273.9844,442.4375 273.7656,442.75 L273.5938,442.6719 Z " fill="#000000"/><text fill="#000000" font-family="sans-serif" font-size="12" lengthAdjust="spacing" textLength="75" x="291.75" y="451.1543">EnderecoDB</text><line style="stroke:#A80036;stroke-width:1.5;" x1="220.5" x2="405.5" y1="463" y2="463"/><line style="stroke:#A80036;stroke-width:1.5;" x1="220.5" x2="405.5" y1="471" y2="471"/><text fill="#000000" font-family="sans-serif" font-size="11" lengthAdjust="spacing" textLength="129" x="225.5" y="485.2104">+getEnderecoParque()</text><text fill="#000000" font-family="sans-serif" font-size="11" lengthAdjust="spacing" textLength="175" x="225.5" y="498.0151">+getEnderecoByNifCliente(nif)</text><!--MD5=[48d7298b3bd1f8b3e8f77915e881d788]
class ScooterDB--><rect codeLine="17" fill="#FEFECE" filter="url(#f9os0plm3zlfo)" height="60.8047" id="ScooterDB" style="stroke:#A80036;stroke-width:1.5;" width="171" x="525.5" y="690"/><ellipse cx="574.25" cy="706" fill="#ADD1B2" rx="11" ry="11" style="stroke:#A80036;stroke-width:1.0;"/><path d="M576.5938,701.6719 C575.6563,701.2344 575.0625,701.0938 574.1875,701.0938 C571.5625,701.0938 569.5625,703.1719 569.5625,705.8906 L569.5625,707.0156 C569.5625,709.5938 571.6719,711.4844 574.5625,711.4844 C575.7813,711.4844 576.9375,711.1875 577.6875,710.6406 C578.2656,710.2344 578.5938,709.7813 578.5938,709.3906 C578.5938,708.9375 578.2031,708.5469 577.7344,708.5469 C577.5156,708.5469 577.3125,708.625 577.125,708.8125 C576.6719,709.2969 576.6719,709.2969 576.4844,709.3906 C576.0625,709.6563 575.375,709.7813 574.6094,709.7813 C572.5625,709.7813 571.2656,708.6875 571.2656,706.9844 L571.2656,705.8906 C571.2656,704.1094 572.5156,702.7969 574.25,702.7969 C574.8281,702.7969 575.4375,702.9531 575.9063,703.2031 C576.3906,703.4844 576.5625,703.7031 576.6563,704.1094 C576.7188,704.5156 576.75,704.6406 576.8906,704.7656 C577.0313,704.9063 577.2656,705.0156 577.4844,705.0156 C577.75,705.0156 578.0156,704.875 578.1875,704.6563 C578.2969,704.5 578.3281,704.3125 578.3281,703.8906 L578.3281,702.4688 C578.3281,702.0313 578.3125,701.9063 578.2188,701.75 C578.0625,701.4844 577.7813,701.3438 577.4844,701.3438 C577.1875,701.3438 576.9844,701.4375 576.7656,701.75 L576.5938,701.6719 Z " fill="#000000"/><text fill="#000000" font-family="sans-serif" font-size="12" lengthAdjust="spacing" textLength="65" x="594.75" y="710.1543">ScooterDB</text><line style="stroke:#A80036;stroke-width:1.5;" x1="526.5" x2="695.5" y1="722" y2="722"/><line style="stroke:#A80036;stroke-width:1.5;" x1="526.5" x2="695.5" y1="730" y2="730"/><text fill="#000000" font-family="sans-serif" font-size="11" lengthAdjust="spacing" textLength="159" x="531.5" y="744.2104">+getScooterById(idScooter)</text><!--MD5=[eedb9d86e2ada2a30e84607ee2eb675b]
class EncomendaDB--><rect codeLine="21" fill="#FEFECE" filter="url(#f9os0plm3zlfo)" height="60.8047" id="EncomendaDB" style="stroke:#A80036;stroke-width:1.5;" width="220" x="903" y="437.5"/><ellipse cx="965.25" cy="453.5" fill="#ADD1B2" rx="11" ry="11" style="stroke:#A80036;stroke-width:1.0;"/><path d="M967.5938,449.1719 C966.6563,448.7344 966.0625,448.5938 965.1875,448.5938 C962.5625,448.5938 960.5625,450.6719 960.5625,453.3906 L960.5625,454.5156 C960.5625,457.0938 962.6719,458.9844 965.5625,458.9844 C966.7813,458.9844 967.9375,458.6875 968.6875,458.1406 C969.2656,457.7344 969.5938,457.2813 969.5938,456.8906 C969.5938,456.4375 969.2031,456.0469 968.7344,456.0469 C968.5156,456.0469 968.3125,456.125 968.125,456.3125 C967.6719,456.7969 967.6719,456.7969 967.4844,456.8906 C967.0625,457.1563 966.375,457.2813 965.6094,457.2813 C963.5625,457.2813 962.2656,456.1875 962.2656,454.4844 L962.2656,453.3906 C962.2656,451.6094 963.5156,450.2969 965.25,450.2969 C965.8281,450.2969 966.4375,450.4531 966.9063,450.7031 C967.3906,450.9844 967.5625,451.2031 967.6563,451.6094 C967.7188,452.0156 967.75,452.1406 967.8906,452.2656 C968.0313,452.4063 968.2656,452.5156 968.4844,452.5156 C968.75,452.5156 969.0156,452.375 969.1875,452.1563 C969.2969,452 969.3281,451.8125 969.3281,451.3906 L969.3281,449.9688 C969.3281,449.5313 969.3125,449.4063 969.2188,449.25 C969.0625,448.9844 968.7813,448.8438 968.4844,448.8438 C968.1875,448.8438 967.9844,448.9375 967.7656,449.25 L967.5938,449.1719 Z " fill="#000000"/><text fill="#000000" font-family="sans-serif" font-size="12" lengthAdjust="spacing" textLength="87" x="985.75" y="457.6543">EncomendaDB</text><line style="stroke:#A80036;stroke-width:1.5;" x1="904" x2="1122" y1="469.5" y2="469.5"/><line style="stroke:#A80036;stroke-width:1.5;" x1="904" x2="1122" y1="477.5" y2="477.5"/><text fill="#000000" font-family="sans-serif" font-size="11" lengthAdjust="spacing" textLength="208" x="909" y="491.7104">+getListaEncomendaById(idEntrega)</text><!--MD5=[3179f819b5ca0f9c8a1bd58e9144681b]
class Entrega--><rect codeLine="25" fill="#FEFECE" filter="url(#f9os0plm3zlfo)" height="86.4141" id="Entrega" style="stroke:#A80036;stroke-width:1.5;" width="115" x="780.5" y="800.5"/><ellipse cx="812.15" cy="816.5" fill="#ADD1B2" rx="11" ry="11" style="stroke:#A80036;stroke-width:1.0;"/><path d="M814.4938,812.1719 C813.5563,811.7344 812.9625,811.5938 812.0875,811.5938 C809.4625,811.5938 807.4625,813.6719 807.4625,816.3906 L807.4625,817.5156 C807.4625,820.0938 809.5719,821.9844 812.4625,821.9844 C813.6813,821.9844 814.8375,821.6875 815.5875,821.1406 C816.1656,820.7344 816.4938,820.2813 816.4938,819.8906 C816.4938,819.4375 816.1031,819.0469 815.6344,819.0469 C815.4156,819.0469 815.2125,819.125 815.025,819.3125 C814.5719,819.7969 814.5719,819.7969 814.3844,819.8906 C813.9625,820.1563 813.275,820.2813 812.5094,820.2813 C810.4625,820.2813 809.1656,819.1875 809.1656,817.4844 L809.1656,816.3906 C809.1656,814.6094 810.4156,813.2969 812.15,813.2969 C812.7281,813.2969 813.3375,813.4531 813.8063,813.7031 C814.2906,813.9844 814.4625,814.2031 814.5563,814.6094 C814.6188,815.0156 814.65,815.1406 814.7906,815.2656 C814.9313,815.4063 815.1656,815.5156 815.3844,815.5156 C815.65,815.5156 815.9156,815.375 816.0875,815.1563 C816.1969,815 816.2281,814.8125 816.2281,814.3906 L816.2281,812.9688 C816.2281,812.5313 816.2125,812.4063 816.1188,812.25 C815.9625,811.9844 815.6813,811.8438 815.3844,811.8438 C815.0875,811.8438 814.8844,811.9375 814.6656,812.25 L814.4938,812.1719 Z " fill="#000000"/><text fill="#000000" font-family="sans-serif" font-size="12" lengthAdjust="spacing" textLength="46" x="829.85" y="820.6543">Entrega</text><line style="stroke:#A80036;stroke-width:1.5;" x1="781.5" x2="894.5" y1="832.5" y2="832.5"/><text fill="#000000" font-family="sans-serif" font-size="11" lengthAdjust="spacing" textLength="103" x="786.5" y="846.7104">-Integer idEntrega</text><text fill="#000000" font-family="sans-serif" font-size="11" lengthAdjust="spacing" textLength="95" x="786.5" y="859.5151">-String dataInicio</text><text fill="#000000" font-family="sans-serif" font-size="11" lengthAdjust="spacing" textLength="86" x="786.5" y="872.3198">-String dataFim</text><line style="stroke:#A80036;stroke-width:1.5;" x1="781.5" x2="894.5" y1="878.9141" y2="878.9141"/><!--MD5=[598a246086efa0137d5aa96a640f0789]
class EntregaDB--><rect codeLine="31" fill="#FEFECE" filter="url(#f9os0plm3zlfo)" height="86.4141" id="EntregaDB" style="stroke:#A80036;stroke-width:1.5;" width="329" x="716.5" y="554.5"/><ellipse cx="845.25" cy="570.5" fill="#ADD1B2" rx="11" ry="11" style="stroke:#A80036;stroke-width:1.0;"/><path d="M847.5938,566.1719 C846.6563,565.7344 846.0625,565.5938 845.1875,565.5938 C842.5625,565.5938 840.5625,567.6719 840.5625,570.3906 L840.5625,571.5156 C840.5625,574.0938 842.6719,575.9844 845.5625,575.9844 C846.7813,575.9844 847.9375,575.6875 848.6875,575.1406 C849.2656,574.7344 849.5938,574.2813 849.5938,573.8906 C849.5938,573.4375 849.2031,573.0469 848.7344,573.0469 C848.5156,573.0469 848.3125,573.125 848.125,573.3125 C847.6719,573.7969 847.6719,573.7969 847.4844,573.8906 C847.0625,574.1563 846.375,574.2813 845.6094,574.2813 C843.5625,574.2813 842.2656,573.1875 842.2656,571.4844 L842.2656,570.3906 C842.2656,568.6094 843.5156,567.2969 845.25,567.2969 C845.8281,567.2969 846.4375,567.4531 846.9063,567.7031 C847.3906,567.9844 847.5625,568.2031 847.6563,568.6094 C847.7188,569.0156 847.75,569.1406 847.8906,569.2656 C848.0313,569.4063 848.2656,569.5156 848.4844,569.5156 C848.75,569.5156 849.0156,569.375 849.1875,569.1563 C849.2969,569 849.3281,568.8125 849.3281,568.3906 L849.3281,566.9688 C849.3281,566.5313 849.3125,566.4063 849.2188,566.25 C849.0625,565.9844 848.7813,565.8438 848.4844,565.8438 C848.1875,565.8438 847.9844,565.9375 847.7656,566.25 L847.5938,566.1719 Z " fill="#000000"/><text fill="#000000" font-family="sans-serif" font-size="12" lengthAdjust="spacing" textLength="63" x="865.75" y="574.6543">EntregaDB</text><line style="stroke:#A80036;stroke-width:1.5;" x1="717.5" x2="1044.5" y1="586.5" y2="586.5"/><line style="stroke:#A80036;stroke-width:1.5;" x1="717.5" x2="1044.5" y1="594.5" y2="594.5"/><text fill="#000000" font-family="sans-serif" font-size="11" lengthAdjust="spacing" textLength="244" x="722.5" y="608.7104">+getListaEntregaByNifEstafeta(nifEstafeta)</text><text fill="#000000" font-family="sans-serif" font-size="11" lengthAdjust="spacing" textLength="177" x="722.5" y="621.5151">+getEntregaById(int idEntrega)</text><text fill="#000000" font-family="sans-serif" font-size="11" lengthAdjust="spacing" textLength="317" x="722.5" y="634.3198">+generateGraph(listEnderecos, est, scooter, pesoTotal)</text><!--MD5=[4ac2c1498d2c03198090a24b8c54d335]
class EstafetaDB--><rect codeLine="37" fill="#FEFECE" filter="url(#f9os0plm3zlfo)" height="60.8047" id="EstafetaDB" style="stroke:#A80036;stroke-width:1.5;" width="173" x="489.5" y="333.5"/><ellipse cx="539.25" cy="349.5" fill="#ADD1B2" rx="11" ry="11" style="stroke:#A80036;stroke-width:1.0;"/><path d="M541.5938,345.1719 C540.6563,344.7344 540.0625,344.5938 539.1875,344.5938 C536.5625,344.5938 534.5625,346.6719 534.5625,349.3906 L534.5625,350.5156 C534.5625,353.0938 536.6719,354.9844 539.5625,354.9844 C540.7813,354.9844 541.9375,354.6875 542.6875,354.1406 C543.2656,353.7344 543.5938,353.2813 543.5938,352.8906 C543.5938,352.4375 543.2031,352.0469 542.7344,352.0469 C542.5156,352.0469 542.3125,352.125 542.125,352.3125 C541.6719,352.7969 541.6719,352.7969 541.4844,352.8906 C541.0625,353.1563 540.375,353.2813 539.6094,353.2813 C537.5625,353.2813 536.2656,352.1875 536.2656,350.4844 L536.2656,349.3906 C536.2656,347.6094 537.5156,346.2969 539.25,346.2969 C539.8281,346.2969 540.4375,346.4531 540.9063,346.7031 C541.3906,346.9844 541.5625,347.2031 541.6563,347.6094 C541.7188,348.0156 541.75,348.1406 541.8906,348.2656 C542.0313,348.4063 542.2656,348.5156 542.4844,348.5156 C542.75,348.5156 543.0156,348.375 543.1875,348.1563 C543.2969,348 543.3281,347.8125 543.3281,347.3906 L543.3281,345.9688 C543.3281,345.5313 543.3125,345.4063 543.2188,345.25 C543.0625,344.9844 542.7813,344.8438 542.4844,344.8438 C542.1875,344.8438 541.9844,344.9375 541.7656,345.25 L541.5938,345.1719 Z " fill="#000000"/><text fill="#000000" font-family="sans-serif" font-size="12" lengthAdjust="spacing" textLength="65" x="559.75" y="353.6543">EstafetaDB</text><line style="stroke:#A80036;stroke-width:1.5;" x1="490.5" x2="661.5" y1="365.5" y2="365.5"/><line style="stroke:#A80036;stroke-width:1.5;" x1="490.5" x2="661.5" y1="373.5" y2="373.5"/><text fill="#000000" font-family="sans-serif" font-size="11" lengthAdjust="spacing" textLength="161" x="495.5" y="387.7104">+getEstafetaByEmail(email)</text><!--MD5=[19833fe0d0b0ef0c9c5e7594e33b0f6b]
class IniciarEntregaController--><rect codeLine="41" fill="#FEFECE" filter="url(#f9os0plm3zlfo)" height="150.4375" id="IniciarEntregaController" style="stroke:#A80036;stroke-width:1.5;" width="329" x="265.5" y="116"/><ellipse cx="355.75" cy="132" fill="#ADD1B2" rx="11" ry="11" style="stroke:#A80036;stroke-width:1.0;"/><path d="M358.0938,127.6719 C357.1563,127.2344 356.5625,127.0938 355.6875,127.0938 C353.0625,127.0938 351.0625,129.1719 351.0625,131.8906 L351.0625,133.0156 C351.0625,135.5938 353.1719,137.4844 356.0625,137.4844 C357.2813,137.4844 358.4375,137.1875 359.1875,136.6406 C359.7656,136.2344 360.0938,135.7813 360.0938,135.3906 C360.0938,134.9375 359.7031,134.5469 359.2344,134.5469 C359.0156,134.5469 358.8125,134.625 358.625,134.8125 C358.1719,135.2969 358.1719,135.2969 357.9844,135.3906 C357.5625,135.6563 356.875,135.7813 356.1094,135.7813 C354.0625,135.7813 352.7656,134.6875 352.7656,132.9844 L352.7656,131.8906 C352.7656,130.1094 354.0156,128.7969 355.75,128.7969 C356.3281,128.7969 356.9375,128.9531 357.4063,129.2031 C357.8906,129.4844 358.0625,129.7031 358.1563,130.1094 C358.2188,130.5156 358.25,130.6406 358.3906,130.7656 C358.5313,130.9063 358.7656,131.0156 358.9844,131.0156 C359.25,131.0156 359.5156,130.875 359.6875,130.6563 C359.7969,130.5 359.8281,130.3125 359.8281,129.8906 L359.8281,128.4688 C359.8281,128.0313 359.8125,127.9063 359.7188,127.75 C359.5625,127.4844 359.2813,127.3438 358.9844,127.3438 C358.6875,127.3438 358.4844,127.4375 358.2656,127.75 L358.0938,127.6719 Z " fill="#000000"/><text fill="#000000" font-family="sans-serif" font-size="12" lengthAdjust="spacing" textLength="140" x="376.25" y="136.1543">IniciarEntregaController</text><line style="stroke:#A80036;stroke-width:1.5;" x1="266.5" x2="593.5" y1="148" y2="148"/><line style="stroke:#A80036;stroke-width:1.5;" x1="266.5" x2="593.5" y1="156" y2="156"/><text fill="#000000" font-family="sans-serif" font-size="11" lengthAdjust="spacing" textLength="83" x="271.5" y="170.2104">+getEstafeta()</text><text fill="#000000" font-family="sans-serif" font-size="11" lengthAdjust="spacing" textLength="244" x="271.5" y="183.0151">+getListaEntregaByNifEstafeta(nifEstafeta)</text><text fill="#000000" font-family="sans-serif" font-size="11" lengthAdjust="spacing" textLength="208" x="271.5" y="195.8198">+getListaEncomendaById(idEntrega)</text><text fill="#000000" font-family="sans-serif" font-size="11" lengthAdjust="spacing" textLength="177" x="271.5" y="208.6245">+getEntregaById(int idEntrega)</text><text fill="#000000" font-family="sans-serif" font-size="11" lengthAdjust="spacing" textLength="159" x="271.5" y="221.4292">+getScooterById(idScooter)</text><text fill="#000000" font-family="sans-serif" font-size="11" lengthAdjust="spacing" textLength="129" x="271.5" y="234.2339">+getEnderecoParque()</text><text fill="#000000" font-family="sans-serif" font-size="11" lengthAdjust="spacing" textLength="175" x="271.5" y="247.0386">+getEnderecoByNifCliente(nif)</text><text fill="#000000" font-family="sans-serif" font-size="11" lengthAdjust="spacing" textLength="317" x="271.5" y="259.8433">+generateGraph(listEnderecos, est, scooter, pesoTotal)</text><!--MD5=[faed70f1496af0dbeb2f76658d58e8b7]
class IniciarEntregaUI--><rect codeLine="52" fill="#FEFECE" filter="url(#f9os0plm3zlfo)" height="48" id="IniciarEntregaUI" style="stroke:#A80036;stroke-width:1.5;" width="125" x="367.5" y="7"/><ellipse cx="382.5" cy="23" fill="#ADD1B2" rx="11" ry="11" style="stroke:#A80036;stroke-width:1.0;"/><path d="M384.8438,18.6719 C383.9063,18.2344 383.3125,18.0938 382.4375,18.0938 C379.8125,18.0938 377.8125,20.1719 377.8125,22.8906 L377.8125,24.0156 C377.8125,26.5938 379.9219,28.4844 382.8125,28.4844 C384.0313,28.4844 385.1875,28.1875 385.9375,27.6406 C386.5156,27.2344 386.8438,26.7813 386.8438,26.3906 C386.8438,25.9375 386.4531,25.5469 385.9844,25.5469 C385.7656,25.5469 385.5625,25.625 385.375,25.8125 C384.9219,26.2969 384.9219,26.2969 384.7344,26.3906 C384.3125,26.6563 383.625,26.7813 382.8594,26.7813 C380.8125,26.7813 379.5156,25.6875 379.5156,23.9844 L379.5156,22.8906 C379.5156,21.1094 380.7656,19.7969 382.5,19.7969 C383.0781,19.7969 383.6875,19.9531 384.1563,20.2031 C384.6406,20.4844 384.8125,20.7031 384.9063,21.1094 C384.9688,21.5156 385,21.6406 385.1406,21.7656 C385.2813,21.9063 385.5156,22.0156 385.7344,22.0156 C386,22.0156 386.2656,21.875 386.4375,21.6563 C386.5469,21.5 386.5781,21.3125 386.5781,20.8906 L386.5781,19.4688 C386.5781,19.0313 386.5625,18.9063 386.4688,18.75 C386.3125,18.4844 386.0313,18.3438 385.7344,18.3438 C385.4375,18.3438 385.2344,18.4375 385.0156,18.75 L384.8438,18.6719 Z " fill="#000000"/><text fill="#000000" font-family="sans-serif" font-size="12" lengthAdjust="spacing" textLength="93" x="396.5" y="27.1543">IniciarEntregaUI</text><line style="stroke:#A80036;stroke-width:1.5;" x1="368.5" x2="491.5" y1="39" y2="39"/><line style="stroke:#A80036;stroke-width:1.5;" x1="368.5" x2="491.5" y1="47" y2="47"/><!--MD5=[c55f92ccbf0646788158d42f3399cc78]
class Encomenda--><rect codeLine="55" fill="#FEFECE" filter="url(#f9os0plm3zlfo)" height="112.0234" id="Encomenda" style="stroke:#A80036;stroke-width:1.5;" width="156" x="1021" y="989.5"/><ellipse cx="1060.3" cy="1005.5" fill="#ADD1B2" rx="11" ry="11" style="stroke:#A80036;stroke-width:1.0;"/><path d="M1062.6438,1001.1719 C1061.7063,1000.7344 1061.1125,1000.5938 1060.2375,1000.5938 C1057.6125,1000.5938 1055.6125,1002.6719 1055.6125,1005.3906 L1055.6125,1006.5156 C1055.6125,1009.0938 1057.7219,1010.9844 1060.6125,1010.9844 C1061.8313,1010.9844 1062.9875,1010.6875 1063.7375,1010.1406 C1064.3156,1009.7344 1064.6438,1009.2813 1064.6438,1008.8906 C1064.6438,1008.4375 1064.2531,1008.0469 1063.7844,1008.0469 C1063.5656,1008.0469 1063.3625,1008.125 1063.175,1008.3125 C1062.7219,1008.7969 1062.7219,1008.7969 1062.5344,1008.8906 C1062.1125,1009.1563 1061.425,1009.2813 1060.6594,1009.2813 C1058.6125,1009.2813 1057.3156,1008.1875 1057.3156,1006.4844 L1057.3156,1005.3906 C1057.3156,1003.6094 1058.5656,1002.2969 1060.3,1002.2969 C1060.8781,1002.2969 1061.4875,1002.4531 1061.9563,1002.7031 C1062.4406,1002.9844 1062.6125,1003.2031 1062.7063,1003.6094 C1062.7688,1004.0156 1062.8,1004.1406 1062.9406,1004.2656 C1063.0813,1004.4063 1063.3156,1004.5156 1063.5344,1004.5156 C1063.8,1004.5156 1064.0656,1004.375 1064.2375,1004.1563 C1064.3469,1004 1064.3781,1003.8125 1064.3781,1003.3906 L1064.3781,1001.9688 C1064.3781,1001.5313 1064.3625,1001.4063 1064.2688,1001.25 C1064.1125,1000.9844 1063.8313,1000.8438 1063.5344,1000.8438 C1063.2375,1000.8438 1063.0344,1000.9375 1062.8156,1001.25 L1062.6438,1001.1719 Z " fill="#000000"/><text fill="#000000" font-family="sans-serif" font-size="12" lengthAdjust="spacing" textLength="70" x="1079.7" y="1009.6543">Encomenda</text><line style="stroke:#A80036;stroke-width:1.5;" x1="1022" x2="1176" y1="1021.5" y2="1021.5"/><text fill="#000000" font-family="sans-serif" font-size="11" lengthAdjust="spacing" textLength="126" x="1027" y="1035.7104">-Integer idEncomenda</text><text fill="#000000" font-family="sans-serif" font-size="11" lengthAdjust="spacing" textLength="104" x="1027" y="1048.5151">-String dataPedida</text><text fill="#000000" font-family="sans-serif" font-size="11" lengthAdjust="spacing" textLength="81" x="1027" y="1061.3198">-Double preco</text><text fill="#000000" font-family="sans-serif" font-size="11" lengthAdjust="spacing" textLength="144" x="1027" y="1074.1245">-Double pesoEncomenda</text><text fill="#000000" font-family="sans-serif" font-size="11" lengthAdjust="spacing" textLength="74" x="1027" y="1086.9292">-Double taxa</text><line style="stroke:#A80036;stroke-width:1.5;" x1="1022" x2="1176" y1="1093.5234" y2="1093.5234"/><!--MD5=[3f1202280bfe3359d2f91fb9b6e32986]
class Estafeta--><rect codeLine="63" fill="#FEFECE" filter="url(#f9os0plm3zlfo)" height="124.8281" id="Estafeta" style="stroke:#A80036;stroke-width:1.5;" width="200" x="481" y="535"/><ellipse cx="552.75" cy="551" fill="#ADD1B2" rx="11" ry="11" style="stroke:#A80036;stroke-width:1.0;"/><path d="M555.0938,546.6719 C554.1563,546.2344 553.5625,546.0938 552.6875,546.0938 C550.0625,546.0938 548.0625,548.1719 548.0625,550.8906 L548.0625,552.0156 C548.0625,554.5938 550.1719,556.4844 553.0625,556.4844 C554.2813,556.4844 555.4375,556.1875 556.1875,555.6406 C556.7656,555.2344 557.0938,554.7813 557.0938,554.3906 C557.0938,553.9375 556.7031,553.5469 556.2344,553.5469 C556.0156,553.5469 555.8125,553.625 555.625,553.8125 C555.1719,554.2969 555.1719,554.2969 554.9844,554.3906 C554.5625,554.6563 553.875,554.7813 553.1094,554.7813 C551.0625,554.7813 549.7656,553.6875 549.7656,551.9844 L549.7656,550.8906 C549.7656,549.1094 551.0156,547.7969 552.75,547.7969 C553.3281,547.7969 553.9375,547.9531 554.4063,548.2031 C554.8906,548.4844 555.0625,548.7031 555.1563,549.1094 C555.2188,549.5156 555.25,549.6406 555.3906,549.7656 C555.5313,549.9063 555.7656,550.0156 555.9844,550.0156 C556.25,550.0156 556.5156,549.875 556.6875,549.6563 C556.7969,549.5 556.8281,549.3125 556.8281,548.8906 L556.8281,547.4688 C556.8281,547.0313 556.8125,546.9063 556.7188,546.75 C556.5625,546.4844 556.2813,546.3438 555.9844,546.3438 C555.6875,546.3438 555.4844,546.4375 555.2656,546.75 L555.0938,546.6719 Z " fill="#000000"/><text fill="#000000" font-family="sans-serif" font-size="12" lengthAdjust="spacing" textLength="48" x="573.25" y="555.1543">Estafeta</text><line style="stroke:#A80036;stroke-width:1.5;" x1="482" x2="680" y1="567" y2="567"/><text fill="#000000" font-family="sans-serif" font-size="11" lengthAdjust="spacing" textLength="66" x="487" y="581.2104">-Integer NIF</text><text fill="#000000" font-family="sans-serif" font-size="11" lengthAdjust="spacing" textLength="74" x="487" y="594.0151">-String nome</text><text fill="#000000" font-family="sans-serif" font-size="11" lengthAdjust="spacing" textLength="73" x="487" y="606.8198">-String email</text><text fill="#000000" font-family="sans-serif" font-size="11" lengthAdjust="spacing" textLength="188" x="487" y="619.6245">-Integer numeroSegurancaSocial</text><text fill="#000000" font-family="sans-serif" font-size="11" lengthAdjust="spacing" textLength="94" x="487" y="632.4292">-String password</text><text fill="#000000" font-family="sans-serif" font-size="11" lengthAdjust="spacing" textLength="124" x="487" y="645.2339">-Double pesoEstafeta</text><line style="stroke:#A80036;stroke-width:1.5;" x1="482" x2="680" y1="651.8281" y2="651.8281"/><!--MD5=[f4402668d5d5bb8485350c0fdb60ac8e]
class Scooter--><rect codeLine="72" fill="#FEFECE" filter="url(#f9os0plm3zlfo)" height="124.8281" id="Scooter" style="stroke:#A80036;stroke-width:1.5;" width="179" x="551.5" y="983"/><ellipse cx="612.75" cy="999" fill="#ADD1B2" rx="11" ry="11" style="stroke:#A80036;stroke-width:1.0;"/><path d="M615.0938,994.6719 C614.1563,994.2344 613.5625,994.0938 612.6875,994.0938 C610.0625,994.0938 608.0625,996.1719 608.0625,998.8906 L608.0625,1000.0156 C608.0625,1002.5938 610.1719,1004.4844 613.0625,1004.4844 C614.2813,1004.4844 615.4375,1004.1875 616.1875,1003.6406 C616.7656,1003.2344 617.0938,1002.7813 617.0938,1002.3906 C617.0938,1001.9375 616.7031,1001.5469 616.2344,1001.5469 C616.0156,1001.5469 615.8125,1001.625 615.625,1001.8125 C615.1719,1002.2969 615.1719,1002.2969 614.9844,1002.3906 C614.5625,1002.6563 613.875,1002.7813 613.1094,1002.7813 C611.0625,1002.7813 609.7656,1001.6875 609.7656,999.9844 L609.7656,998.8906 C609.7656,997.1094 611.0156,995.7969 612.75,995.7969 C613.3281,995.7969 613.9375,995.9531 614.4063,996.2031 C614.8906,996.4844 615.0625,996.7031 615.1563,997.1094 C615.2188,997.5156 615.25,997.6406 615.3906,997.7656 C615.5313,997.9063 615.7656,998.0156 615.9844,998.0156 C616.25,998.0156 616.5156,997.875 616.6875,997.6563 C616.7969,997.5 616.8281,997.3125 616.8281,996.8906 L616.8281,995.4688 C616.8281,995.0313 616.8125,994.9063 616.7188,994.75 C616.5625,994.4844 616.2813,994.3438 615.9844,994.3438 C615.6875,994.3438 615.4844,994.4375 615.2656,994.75 L615.0938,994.6719 Z " fill="#000000"/><text fill="#000000" font-family="sans-serif" font-size="12" lengthAdjust="spacing" textLength="48" x="633.25" y="1003.1543">Scooter</text><line style="stroke:#A80036;stroke-width:1.5;" x1="552.5" x2="729.5" y1="1015" y2="1015"/><text fill="#000000" font-family="sans-serif" font-size="11" lengthAdjust="spacing" textLength="103" x="557.5" y="1029.2104">-Integer idScooter</text><text fill="#000000" font-family="sans-serif" font-size="11" lengthAdjust="spacing" textLength="167" x="557.5" y="1042.0151">-Double percentagemBateria</text><text fill="#000000" font-family="sans-serif" font-size="11" lengthAdjust="spacing" textLength="121" x="557.5" y="1054.8198">-Double pesoMaximo</text><text fill="#000000" font-family="sans-serif" font-size="11" lengthAdjust="spacing" textLength="121" x="557.5" y="1067.6245">-Double pesoScooter</text><text fill="#000000" font-family="sans-serif" font-size="11" lengthAdjust="spacing" textLength="98" x="557.5" y="1080.4292">-Double potencia</text><text fill="#000000" font-family="sans-serif" font-size="11" lengthAdjust="spacing" textLength="113" x="557.5" y="1093.2339">-Double areaFrontal</text><line style="stroke:#A80036;stroke-width:1.5;" x1="552.5" x2="729.5" y1="1099.8281" y2="1099.8281"/><!--MD5=[36c1942e8942a3e4f47e6de3733e3d18]
class Endereco--><rect codeLine="81" fill="#FEFECE" filter="url(#f9os0plm3zlfo)" height="99.2188" id="Endereco" style="stroke:#A80036;stroke-width:1.5;" width="114" x="402" y="996"/><ellipse cx="427.8" cy="1012" fill="#ADD1B2" rx="11" ry="11" style="stroke:#A80036;stroke-width:1.0;"/><path d="M430.1438,1007.6719 C429.2063,1007.2344 428.6125,1007.0938 427.7375,1007.0938 C425.1125,1007.0938 423.1125,1009.1719 423.1125,1011.8906 L423.1125,1013.0156 C423.1125,1015.5938 425.2219,1017.4844 428.1125,1017.4844 C429.3313,1017.4844 430.4875,1017.1875 431.2375,1016.6406 C431.8156,1016.2344 432.1438,1015.7813 432.1438,1015.3906 C432.1438,1014.9375 431.7531,1014.5469 431.2844,1014.5469 C431.0656,1014.5469 430.8625,1014.625 430.675,1014.8125 C430.2219,1015.2969 430.2219,1015.2969 430.0344,1015.3906 C429.6125,1015.6563 428.925,1015.7813 428.1594,1015.7813 C426.1125,1015.7813 424.8156,1014.6875 424.8156,1012.9844 L424.8156,1011.8906 C424.8156,1010.1094 426.0656,1008.7969 427.8,1008.7969 C428.3781,1008.7969 428.9875,1008.9531 429.4563,1009.2031 C429.9406,1009.4844 430.1125,1009.7031 430.2063,1010.1094 C430.2688,1010.5156 430.3,1010.6406 430.4406,1010.7656 C430.5813,1010.9063 430.8156,1011.0156 431.0344,1011.0156 C431.3,1011.0156 431.5656,1010.875 431.7375,1010.6563 C431.8469,1010.5 431.8781,1010.3125 431.8781,1009.8906 L431.8781,1008.4688 C431.8781,1008.0313 431.8625,1007.9063 431.7688,1007.75 C431.6125,1007.4844 431.3313,1007.3438 431.0344,1007.3438 C430.7375,1007.3438 430.5344,1007.4375 430.3156,1007.75 L430.1438,1007.6719 Z " fill="#000000"/><text fill="#000000" font-family="sans-serif" font-size="12" lengthAdjust="spacing" textLength="58" x="444.2" y="1016.1543">Endereco</text><line style="stroke:#A80036;stroke-width:1.5;" x1="403" x2="515" y1="1028" y2="1028"/><text fill="#000000" font-family="sans-serif" font-size="11" lengthAdjust="spacing" textLength="84" x="408" y="1042.2104">-String morada</text><text fill="#000000" font-family="sans-serif" font-size="11" lengthAdjust="spacing" textLength="92" x="408" y="1055.0151">-Double latitude</text><text fill="#000000" font-family="sans-serif" font-size="11" lengthAdjust="spacing" textLength="102" x="408" y="1067.8198">-Double longitude</text><text fill="#000000" font-family="sans-serif" font-size="11" lengthAdjust="spacing" textLength="92" x="408" y="1080.6245">-Double altitude</text><line style="stroke:#A80036;stroke-width:1.5;" x1="403" x2="515" y1="1087.2188" y2="1087.2188"/><!--MD5=[1a083dbe42a284ae0ea7f6f701783206]
class Parque--><rect codeLine="88" fill="#FEFECE" filter="url(#f9os0plm3zlfo)" height="60.8047" id="Parque" style="stroke:#A80036;stroke-width:1.5;" width="149" x="411.5" y="813"/><ellipse cx="461.25" cy="829" fill="#ADD1B2" rx="11" ry="11" style="stroke:#A80036;stroke-width:1.0;"/><path d="M463.5938,824.6719 C462.6563,824.2344 462.0625,824.0938 461.1875,824.0938 C458.5625,824.0938 456.5625,826.1719 456.5625,828.8906 L456.5625,830.0156 C456.5625,832.5938 458.6719,834.4844 461.5625,834.4844 C462.7813,834.4844 463.9375,834.1875 464.6875,833.6406 C465.2656,833.2344 465.5938,832.7813 465.5938,832.3906 C465.5938,831.9375 465.2031,831.5469 464.7344,831.5469 C464.5156,831.5469 464.3125,831.625 464.125,831.8125 C463.6719,832.2969 463.6719,832.2969 463.4844,832.3906 C463.0625,832.6563 462.375,832.7813 461.6094,832.7813 C459.5625,832.7813 458.2656,831.6875 458.2656,829.9844 L458.2656,828.8906 C458.2656,827.1094 459.5156,825.7969 461.25,825.7969 C461.8281,825.7969 462.4375,825.9531 462.9063,826.2031 C463.3906,826.4844 463.5625,826.7031 463.6563,827.1094 C463.7188,827.5156 463.75,827.6406 463.8906,827.7656 C464.0313,827.9063 464.2656,828.0156 464.4844,828.0156 C464.75,828.0156 465.0156,827.875 465.1875,827.6563 C465.2969,827.5 465.3281,827.3125 465.3281,826.8906 L465.3281,825.4688 C465.3281,825.0313 465.3125,824.9063 465.2188,824.75 C465.0625,824.4844 464.7813,824.3438 464.4844,824.3438 C464.1875,824.3438 463.9844,824.4375 463.7656,824.75 L463.5938,824.6719 Z " fill="#000000"/><text fill="#000000" font-family="sans-serif" font-size="12" lengthAdjust="spacing" textLength="41" x="481.75" y="833.1543">Parque</text><line style="stroke:#A80036;stroke-width:1.5;" x1="412.5" x2="559.5" y1="845" y2="845"/><text fill="#000000" font-family="sans-serif" font-size="11" lengthAdjust="spacing" textLength="137" x="417.5" y="859.2104">-Integer numeroMaximo</text><line style="stroke:#A80036;stroke-width:1.5;" x1="412.5" x2="559.5" y1="865.8047" y2="865.8047"/><!--MD5=[20a748d5ee336a9a91751b0a3d4f0beb]
class Cliente--><rect codeLine="92" fill="#FEFECE" filter="url(#f9os0plm3zlfo)" height="124.8281" id="Cliente" style="stroke:#A80036;stroke-width:1.5;" width="200" x="1152" y="781"/><ellipse cx="1227.25" cy="797" fill="#ADD1B2" rx="11" ry="11" style="stroke:#A80036;stroke-width:1.0;"/><path d="M1229.5938,792.6719 C1228.6563,792.2344 1228.0625,792.0938 1227.1875,792.0938 C1224.5625,792.0938 1222.5625,794.1719 1222.5625,796.8906 L1222.5625,798.0156 C1222.5625,800.5938 1224.6719,802.4844 1227.5625,802.4844 C1228.7813,802.4844 1229.9375,802.1875 1230.6875,801.6406 C1231.2656,801.2344 1231.5938,800.7813 1231.5938,800.3906 C1231.5938,799.9375 1231.2031,799.5469 1230.7344,799.5469 C1230.5156,799.5469 1230.3125,799.625 1230.125,799.8125 C1229.6719,800.2969 1229.6719,800.2969 1229.4844,800.3906 C1229.0625,800.6563 1228.375,800.7813 1227.6094,800.7813 C1225.5625,800.7813 1224.2656,799.6875 1224.2656,797.9844 L1224.2656,796.8906 C1224.2656,795.1094 1225.5156,793.7969 1227.25,793.7969 C1227.8281,793.7969 1228.4375,793.9531 1228.9063,794.2031 C1229.3906,794.4844 1229.5625,794.7031 1229.6563,795.1094 C1229.7188,795.5156 1229.75,795.6406 1229.8906,795.7656 C1230.0313,795.9063 1230.2656,796.0156 1230.4844,796.0156 C1230.75,796.0156 1231.0156,795.875 1231.1875,795.6563 C1231.2969,795.5 1231.3281,795.3125 1231.3281,794.8906 L1231.3281,793.4688 C1231.3281,793.0313 1231.3125,792.9063 1231.2188,792.75 C1231.0625,792.4844 1230.7813,792.3438 1230.4844,792.3438 C1230.1875,792.3438 1229.9844,792.4375 1229.7656,792.75 L1229.5938,792.6719 Z " fill="#000000"/><text fill="#000000" font-family="sans-serif" font-size="12" lengthAdjust="spacing" textLength="41" x="1247.75" y="801.1543">Cliente</text><line style="stroke:#A80036;stroke-width:1.5;" x1="1153" x2="1351" y1="813" y2="813"/><text fill="#000000" font-family="sans-serif" font-size="11" lengthAdjust="spacing" textLength="66" x="1158" y="827.2104">-Integer NIF</text><text fill="#000000" font-family="sans-serif" font-size="11" lengthAdjust="spacing" textLength="74" x="1158" y="840.0151">-String nome</text><text fill="#000000" font-family="sans-serif" font-size="11" lengthAdjust="spacing" textLength="73" x="1158" y="852.8198">-String email</text><text fill="#000000" font-family="sans-serif" font-size="11" lengthAdjust="spacing" textLength="188" x="1158" y="865.6245">-Integer numeroSegurancaSocial</text><text fill="#000000" font-family="sans-serif" font-size="11" lengthAdjust="spacing" textLength="94" x="1158" y="878.4292">-String password</text><text fill="#000000" font-family="sans-serif" font-size="11" lengthAdjust="spacing" textLength="94" x="1158" y="891.2339">-Integer creditos</text><line style="stroke:#A80036;stroke-width:1.5;" x1="1153" x2="1351" y1="897.8281" y2="897.8281"/><!--MD5=[a13ca1da61a66d544daddca6fa0a1a30]
class Cartao--><rect codeLine="102" fill="#FEFECE" filter="url(#f9os0plm3zlfo)" height="86.4141" id="Cartao" style="stroke:#A80036;stroke-width:1.5;" width="145" x="1310.5" y="1002.5"/><ellipse cx="1359.25" cy="1018.5" fill="#ADD1B2" rx="11" ry="11" style="stroke:#A80036;stroke-width:1.0;"/><path d="M1361.5938,1014.1719 C1360.6563,1013.7344 1360.0625,1013.5938 1359.1875,1013.5938 C1356.5625,1013.5938 1354.5625,1015.6719 1354.5625,1018.3906 L1354.5625,1019.5156 C1354.5625,1022.0938 1356.6719,1023.9844 1359.5625,1023.9844 C1360.7813,1023.9844 1361.9375,1023.6875 1362.6875,1023.1406 C1363.2656,1022.7344 1363.5938,1022.2813 1363.5938,1021.8906 C1363.5938,1021.4375 1363.2031,1021.0469 1362.7344,1021.0469 C1362.5156,1021.0469 1362.3125,1021.125 1362.125,1021.3125 C1361.6719,1021.7969 1361.6719,1021.7969 1361.4844,1021.8906 C1361.0625,1022.1563 1360.375,1022.2813 1359.6094,1022.2813 C1357.5625,1022.2813 1356.2656,1021.1875 1356.2656,1019.4844 L1356.2656,1018.3906 C1356.2656,1016.6094 1357.5156,1015.2969 1359.25,1015.2969 C1359.8281,1015.2969 1360.4375,1015.4531 1360.9063,1015.7031 C1361.3906,1015.9844 1361.5625,1016.2031 1361.6563,1016.6094 C1361.7188,1017.0156 1361.75,1017.1406 1361.8906,1017.2656 C1362.0313,1017.4063 1362.2656,1017.5156 1362.4844,1017.5156 C1362.75,1017.5156 1363.0156,1017.375 1363.1875,1017.1563 C1363.2969,1017 1363.3281,1016.8125 1363.3281,1016.3906 L1363.3281,1014.9688 C1363.3281,1014.5313 1363.3125,1014.4063 1363.2188,1014.25 C1363.0625,1013.9844 1362.7813,1013.8438 1362.4844,1013.8438 C1362.1875,1013.8438 1361.9844,1013.9375 1361.7656,1014.25 L1361.5938,1014.1719 Z " fill="#000000"/><text fill="#000000" font-family="sans-serif" font-size="12" lengthAdjust="spacing" textLength="39" x="1379.75" y="1022.6543">Cartao</text><line style="stroke:#A80036;stroke-width:1.5;" x1="1311.5" x2="1454.5" y1="1034.5" y2="1034.5"/><text fill="#000000" font-family="sans-serif" font-size="11" lengthAdjust="spacing" textLength="130" x="1316.5" y="1048.7104">-Integer numeroCartao</text><text fill="#000000" font-family="sans-serif" font-size="11" lengthAdjust="spacing" textLength="133" x="1316.5" y="1061.5151">-String dataDeValidade</text><text fill="#000000" font-family="sans-serif" font-size="11" lengthAdjust="spacing" textLength="73" x="1316.5" y="1074.3198">-Integer CCV</text><line style="stroke:#A80036;stroke-width:1.5;" x1="1311.5" x2="1454.5" y1="1080.9141" y2="1080.9141"/><!--MD5=[533e824b6b94274ee39bf5a43d7cce2a]
class EstadoEncomenda--><rect codeLine="108" fill="#FEFECE" filter="url(#f9os0plm3zlfo)" height="73.6094" id="EstadoEncomenda" style="stroke:#A80036;stroke-width:1.5;" width="190" x="909" y="1197.5"/><ellipse cx="945.15" cy="1213.5" fill="#ADD1B2" rx="11" ry="11" style="stroke:#A80036;stroke-width:1.0;"/><path d="M947.4938,1209.1719 C946.5563,1208.7344 945.9625,1208.5938 945.0875,1208.5938 C942.4625,1208.5938 940.4625,1210.6719 940.4625,1213.3906 L940.4625,1214.5156 C940.4625,1217.0938 942.5719,1218.9844 945.4625,1218.9844 C946.6813,1218.9844 947.8375,1218.6875 948.5875,1218.1406 C949.1656,1217.7344 949.4938,1217.2813 949.4938,1216.8906 C949.4938,1216.4375 949.1031,1216.0469 948.6344,1216.0469 C948.4156,1216.0469 948.2125,1216.125 948.025,1216.3125 C947.5719,1216.7969 947.5719,1216.7969 947.3844,1216.8906 C946.9625,1217.1563 946.275,1217.2813 945.5094,1217.2813 C943.4625,1217.2813 942.1656,1216.1875 942.1656,1214.4844 L942.1656,1213.3906 C942.1656,1211.6094 943.4156,1210.2969 945.15,1210.2969 C945.7281,1210.2969 946.3375,1210.4531 946.8063,1210.7031 C947.2906,1210.9844 947.4625,1211.2031 947.5563,1211.6094 C947.6188,1212.0156 947.65,1212.1406 947.7906,1212.2656 C947.9313,1212.4063 948.1656,1212.5156 948.3844,1212.5156 C948.65,1212.5156 948.9156,1212.375 949.0875,1212.1563 C949.1969,1212 949.2281,1211.8125 949.2281,1211.3906 L949.2281,1209.9688 C949.2281,1209.5313 949.2125,1209.4063 949.1188,1209.25 C948.9625,1208.9844 948.6813,1208.8438 948.3844,1208.8438 C948.0875,1208.8438 947.8844,1208.9375 947.6656,1209.25 L947.4938,1209.1719 Z " fill="#000000"/><text fill="#000000" font-family="sans-serif" font-size="12" lengthAdjust="spacing" textLength="111" x="963.85" y="1217.6543">EstadoEncomenda</text><line style="stroke:#A80036;stroke-width:1.5;" x1="910" x2="1098" y1="1229.5" y2="1229.5"/><text fill="#000000" font-family="sans-serif" font-size="11" lengthAdjust="spacing" textLength="178" x="915" y="1243.7104">-Integer id_estado_encomenda</text><text fill="#000000" font-family="sans-serif" font-size="11" lengthAdjust="spacing" textLength="106" x="915" y="1256.5151">-String designacao</text><line style="stroke:#A80036;stroke-width:1.5;" x1="910" x2="1098" y1="1263.1094" y2="1263.1094"/><!--MD5=[d4dacc50d49878ba7c621dfc80a2e1ce]
class Produto--><rect codeLine="113" fill="#FEFECE" filter="url(#f9os0plm3zlfo)" height="99.2188" id="Produto" style="stroke:#A80036;stroke-width:1.5;" width="122" x="1134" y="1185"/><ellipse cx="1168.8" cy="1201" fill="#ADD1B2" rx="11" ry="11" style="stroke:#A80036;stroke-width:1.0;"/><path d="M1171.1438,1196.6719 C1170.2063,1196.2344 1169.6125,1196.0938 1168.7375,1196.0938 C1166.1125,1196.0938 1164.1125,1198.1719 1164.1125,1200.8906 L1164.1125,1202.0156 C1164.1125,1204.5938 1166.2219,1206.4844 1169.1125,1206.4844 C1170.3313,1206.4844 1171.4875,1206.1875 1172.2375,1205.6406 C1172.8156,1205.2344 1173.1438,1204.7813 1173.1438,1204.3906 C1173.1438,1203.9375 1172.7531,1203.5469 1172.2844,1203.5469 C1172.0656,1203.5469 1171.8625,1203.625 1171.675,1203.8125 C1171.2219,1204.2969 1171.2219,1204.2969 1171.0344,1204.3906 C1170.6125,1204.6563 1169.925,1204.7813 1169.1594,1204.7813 C1167.1125,1204.7813 1165.8156,1203.6875 1165.8156,1201.9844 L1165.8156,1200.8906 C1165.8156,1199.1094 1167.0656,1197.7969 1168.8,1197.7969 C1169.3781,1197.7969 1169.9875,1197.9531 1170.4563,1198.2031 C1170.9406,1198.4844 1171.1125,1198.7031 1171.2063,1199.1094 C1171.2688,1199.5156 1171.3,1199.6406 1171.4406,1199.7656 C1171.5813,1199.9063 1171.8156,1200.0156 1172.0344,1200.0156 C1172.3,1200.0156 1172.5656,1199.875 1172.7375,1199.6563 C1172.8469,1199.5 1172.8781,1199.3125 1172.8781,1198.8906 L1172.8781,1197.4688 C1172.8781,1197.0313 1172.8625,1196.9063 1172.7688,1196.75 C1172.6125,1196.4844 1172.3313,1196.3438 1172.0344,1196.3438 C1171.7375,1196.3438 1171.5344,1196.4375 1171.3156,1196.75 L1171.1438,1196.6719 Z " fill="#000000"/><text fill="#000000" font-family="sans-serif" font-size="12" lengthAdjust="spacing" textLength="46" x="1187.2" y="1205.1543">Produto</text><line style="stroke:#A80036;stroke-width:1.5;" x1="1135" x2="1255" y1="1217" y2="1217"/><text fill="#000000" font-family="sans-serif" font-size="11" lengthAdjust="spacing" textLength="101" x="1140" y="1231.2104">-Integer idProduto</text><text fill="#000000" font-family="sans-serif" font-size="11" lengthAdjust="spacing" textLength="106" x="1140" y="1244.0151">-String designacao</text><text fill="#000000" font-family="sans-serif" font-size="11" lengthAdjust="spacing" textLength="77" x="1140" y="1256.8198">-Double peso</text><text fill="#000000" font-family="sans-serif" font-size="11" lengthAdjust="spacing" textLength="110" x="1140" y="1269.6245">-Double precoBase</text><line style="stroke:#A80036;stroke-width:1.5;" x1="1135" x2="1255" y1="1276.2188" y2="1276.2188"/><!--MD5=[6af3a5e7d8ae03b4afed09b9952bb816]
link IniciarEntregaUI to IniciarEntregaController--><path codeLine="120" d="M430,55.31 C430,70.19 430,90.43 430,110.69 " fill="none" id="IniciarEntregaUI-to-IniciarEntregaController" style="stroke:#A80036;stroke-width:1.0;stroke-dasharray:7.0,7.0;"/><polygon fill="#A80036" points="430,115.84,434,106.84,430,110.84,426,106.84,430,115.84" style="stroke:#A80036;stroke-width:1.0;"/><!--MD5=[77823d11e5c345d9fdec5f272ba43763]
link IniciarEntregaController to EstafetaDB--><path codeLine="122" d="M493.189,266.01 C511.96,287.995 531.614,311.013 547.061,329.106 " fill="none" id="IniciarEntregaController-to-EstafetaDB" style="stroke:#A80036;stroke-width:1.0;stroke-dasharray:7.0,7.0;"/><polygon fill="#A80036" points="550.492,333.124,547.6897,323.6822,547.2452,329.3216,541.6059,328.8771,550.492,333.124" style="stroke:#A80036;stroke-width:1.0;"/><!--MD5=[512376957d718326176963b6d07bfab9]
link IniciarEntregaController to EnderecoDB--><path codeLine="123" d="M398.492,266.06 C376.66,317.372 348.403,383.787 330.483,425.907 " fill="none" id="IniciarEntregaController-to-EnderecoDB" style="stroke:#A80036;stroke-width:1.0;stroke-dasharray:7.0,7.0;"/><polygon fill="#A80036" points="328.458,430.667,335.6615,423.9506,330.415,426.0659,328.2997,420.8194,328.458,430.667" style="stroke:#A80036;stroke-width:1.0;"/><!--MD5=[bb851df602f30980c12a7969554fdf39]
link IniciarEntregaController to ScooterDB--><path codeLine="124" d="M425.952,266.44 C421.156,382.4 418.704,599.18 463,660 C477.079,679.332 498.501,692.391 520.71,701.211 " fill="none" id="IniciarEntregaController-to-ScooterDB" style="stroke:#A80036;stroke-width:1.0;stroke-dasharray:7.0,7.0;"/><polygon fill="#A80036" points="525.458,703.03,518.484,696.0757,520.7887,701.2417,515.6227,703.5465,525.458,703.03" style="stroke:#A80036;stroke-width:1.0;"/><!--MD5=[22c56d9dbc09ea1c216c39fea23d44fd]
link IniciarEntregaController to EntregaDB--><path codeLine="125" d="M592.113,266.11 C622.905,283.81 653.686,304.265 680,327 C755.975,392.641 820.602,491.75 854.828,549.712 " fill="none" id="IniciarEntregaController-to-EntregaDB" style="stroke:#A80036;stroke-width:1.0;stroke-dasharray:7.0,7.0;"/><polygon fill="#A80036" points="857.44,554.157,856.3287,544.371,854.9067,549.8463,849.4315,548.4243,857.44,554.157" style="stroke:#A80036;stroke-width:1.0;"/><!--MD5=[62ebfbd9579120f83caae090d1b7a216]
link IniciarEntregaController to EncomendaDB--><path codeLine="126" d="M594.749,217.73 C667.395,233.53 751.978,258.22 822,296 C887.949,331.581 949.766,394.325 984.362,433.112 " fill="none" id="IniciarEntregaController-to-EncomendaDB" style="stroke:#A80036;stroke-width:1.0;stroke-dasharray:7.0,7.0;"/><polygon fill="#A80036" points="988.034,437.254,985.0564,427.866,984.717,433.5127,979.0703,433.1733,988.034,437.254" style="stroke:#A80036;stroke-width:1.0;"/><!--MD5=[b6f4cc89b72257035a0432594cf5e691]
link IniciarEntregaController to AplicacaoPOT--><path codeLine="127" d="M275.058,266.01 C228.571,288.213 179.879,311.471 141.833,329.644 " fill="none" id="IniciarEntregaController-to-AplicacaoPOT" style="stroke:#A80036;stroke-width:1.0;stroke-dasharray:7.0,7.0;"/><polygon fill="#A80036" points="137.246,331.835,147.0912,331.5664,141.758,329.6805,143.6439,324.3472,137.246,331.835" style="stroke:#A80036;stroke-width:1.0;"/><!--MD5=[2969567573402783d990b08175b6013d]
link IniciarEntregaController to SessaoUtilizador--><path codeLine="128" d="M347.335,266.01 C322.468,288.272 296.419,311.594 276.097,329.788 " fill="none" id="IniciarEntregaController-to-SessaoUtilizador" style="stroke:#A80036;stroke-width:1.0;stroke-dasharray:7.0,7.0;"/><polygon fill="#A80036" points="272.37,333.124,281.7434,330.1008,276.0951,329.7888,276.4071,324.1406,272.37,333.124" style="stroke:#A80036;stroke-width:1.0;"/><!--MD5=[4c7211caded616e3e77a70a7b669ae10]
link EntregaDB to Entrega--><path codeLine="130" d="M873.559,640.723 C865.967,683.801 854.211,750.511 846.317,795.307 " fill="none" id="EntregaDB-to-Entrega" style="stroke:#A80036;stroke-width:1.0;"/><polygon fill="#A80036" points="845.422,800.386,850.9222,792.2161,846.2891,795.4618,843.0435,790.8287,845.422,800.386" style="stroke:#A80036;stroke-width:1.0;"/><text fill="#000000" font-family="sans-serif" font-size="13" lengthAdjust="spacing" textLength="97" x="866" y="725.0669">tem registadas</text><text fill="#000000" font-family="sans-serif" font-size="13" lengthAdjust="spacing" textLength="8" x="863.7356" y="660.8515">1</text><text fill="#000000" font-family="sans-serif" font-size="13" lengthAdjust="spacing" textLength="7" x="839.0471" y="789.3639">*</text><!--MD5=[a3e63c72779e49a48819b249af53bae4]
link EstafetaDB to Estafeta--><path codeLine="131" d="M576.643,394.791 C577.375,428.656 578.592,485.009 579.554,529.556 " fill="none" id="EstafetaDB-to-Estafeta" style="stroke:#A80036;stroke-width:1.0;"/><polygon fill="#A80036" points="579.664,534.652,583.4702,525.5683,579.5569,529.6531,575.4721,525.7398,579.664,534.652" style="stroke:#A80036;stroke-width:1.0;"/><text fill="#000000" font-family="sans-serif" font-size="13" lengthAdjust="spacing" textLength="97" x="580" y="472.5669">tem registadas</text><text fill="#000000" font-family="sans-serif" font-size="13" lengthAdjust="spacing" textLength="8" x="567.9821" y="414.4287">1</text><text fill="#000000" font-family="sans-serif" font-size="13" lengthAdjust="spacing" textLength="7" x="572.1351" y="524.0412">*</text><!--MD5=[7177515c401312a3f4890a50ab42ecc9]
link EncomendaDB to Encomenda--><path codeLine="132" d="M1041.23,498.648 C1049.73,509.31 1058.1,521.947 1063,535 C1120.69,688.517 1113.81,886.132 1105.55,984.01 " fill="none" id="EncomendaDB-to-Encomenda" style="stroke:#A80036;stroke-width:1.0;"/><polygon fill="#A80036" points="1105.11,989.167,1109.8686,980.544,1105.5396,984.1855,1101.8981,979.8566,1105.11,989.167" style="stroke:#A80036;stroke-width:1.0;"/><text fill="#000000" font-family="sans-serif" font-size="13" lengthAdjust="spacing" textLength="97" x="1108" y="725.0669">tem registadas</text><text fill="#000000" font-family="sans-serif" font-size="13" lengthAdjust="spacing" textLength="8" x="1038.0003" y="518.2576">1</text><text fill="#000000" font-family="sans-serif" font-size="13" lengthAdjust="spacing" textLength="7" x="1098.4281" y="978.4609">*</text><!--MD5=[c023e2c3fa599b931e4bde319636976a]
link EnderecoDB to Endereco--><path codeLine="133" d="M316.542,505.165 C324.649,580.974 347.538,761.472 394,906 C403.336,935.043 417.378,965.903 430.025,991.104 " fill="none" id="EnderecoDB-to-Endereco" style="stroke:#A80036;stroke-width:1.0;"/><polygon fill="#A80036" points="432.368,995.742,431.8781,985.9053,430.1125,991.2796,424.7382,989.5141,432.368,995.742" style="stroke:#A80036;stroke-width:1.0;"/><text fill="#000000" font-family="sans-serif" font-size="13" lengthAdjust="spacing" textLength="97" x="356" y="725.0669">tem registadas</text><text fill="#000000" font-family="sans-serif" font-size="13" lengthAdjust="spacing" textLength="8" x="308.4661" y="524.6729">1</text><text fill="#000000" font-family="sans-serif" font-size="13" lengthAdjust="spacing" textLength="7" x="421.319" y="985.1091">*</text><!--MD5=[44650545f701211ba2acbe8172184bfb]
link ScooterDB to Scooter--><path codeLine="134" d="M613.742,751.02 C618.479,802.019 628.307,907.836 634.776,977.486 " fill="none" id="ScooterDB-to-Scooter" style="stroke:#A80036;stroke-width:1.0;"/><polygon fill="#A80036" points="635.274,982.855,638.4237,973.5234,634.8111,977.8765,630.458,974.2639,635.274,982.855" style="stroke:#A80036;stroke-width:1.0;"/><text fill="#000000" font-family="sans-serif" font-size="13" lengthAdjust="spacing" textLength="97" x="629" y="848.0669">tem registadas</text><text fill="#000000" font-family="sans-serif" font-size="13" lengthAdjust="spacing" textLength="8" x="605.4825" y="770.9624">1</text><text fill="#000000" font-family="sans-serif" font-size="13" lengthAdjust="spacing" textLength="7" x="627.2072" y="971.829">*</text><!--MD5=[0b9a64f88a8f68498a0520ea68e94a71]
link Cliente to Cartao--><path codeLine="136" d="M1321.02,906.072 C1329.46,915.546 1337.41,925.641 1344,936 C1356.89,956.267 1366.27,981.374 1372.59,1002.33 " fill="none" id="Cliente-Cartao" style="stroke:#A80036;stroke-width:1.0;"/><polygon fill="#000000" points="1361.3612,948.9737,1359.6803,939.6129,1354.4992,942.3887,1361.3612,948.9737" style="stroke:#000000;stroke-width:1.0;"/><text fill="#000000" font-family="sans-serif" font-size="13" lengthAdjust="spacing" textLength="26" x="1368" y="949.0669">tem</text><text fill="#000000" font-family="sans-serif" font-size="13" lengthAdjust="spacing" textLength="8" x="1320.1316" y="925.8197">1</text><text fill="#000000" font-family="sans-serif" font-size="13" lengthAdjust="spacing" textLength="8" x="1362.2934" y="991.299">1</text><!--MD5=[1dbffbca5cb534c4a76478e59708cd36]
link Parque to Scooter--><path codeLine="137" d="M503.376,874.464 C516.79,896.802 536.326,927.691 556,953 C562.633,961.532 569.905,970.211 577.316,978.655 " fill="none" id="Parque-to-Scooter" style="stroke:#A80036;stroke-width:1.0;"/><polygon fill="#A80036" points="580.963,982.78,577.9967,973.3884,577.6505,979.0347,572.0043,978.6884,580.963,982.78" style="stroke:#A80036;stroke-width:1.0;"/><polygon fill="#000000" points="563.8937,948.644,561.0557,939.5667,556.2622,942.9684,563.8937,948.644" style="stroke:#000000;stroke-width:1.0;"/><text fill="#000000" font-family="sans-serif" font-size="13" lengthAdjust="spacing" textLength="41" x="570" y="949.0669">possui</text><text fill="#000000" font-family="sans-serif" font-size="13" lengthAdjust="spacing" textLength="8" x="497.9258" y="893.8944">1</text><text fill="#000000" font-family="sans-serif" font-size="13" lengthAdjust="spacing" textLength="7" x="566.6165" y="971.7453">*</text><!--MD5=[65c0b4ced80642714d633a5480d06ed6]
link Parque to Endereco--><path codeLine="138" d="M480.269,874.085 C476.946,891.961 472.865,915.232 470,936 C467.562,953.677 465.428,973.045 463.705,990.462 " fill="none" id="Parque-to-Endereco" style="stroke:#A80036;stroke-width:1.0;"/><polygon fill="#A80036" points="463.183,995.801,468.0407,987.2334,463.6701,990.8248,460.0787,986.4542,463.183,995.801" style="stroke:#A80036;stroke-width:1.0;"/><polygon fill="#000000" points="474.2954,949.5165,478.4796,940.9758,472.6604,940.1476,474.2954,949.5165" style="stroke:#000000;stroke-width:1.0;"/><text fill="#000000" font-family="sans-serif" font-size="13" lengthAdjust="spacing" textLength="26" x="484" y="949.0669">tem</text><text fill="#000000" font-family="sans-serif" font-size="13" lengthAdjust="spacing" textLength="8" x="470.262" y="894.0408">1</text><text fill="#000000" font-family="sans-serif" font-size="13" lengthAdjust="spacing" textLength="8" x="455.2087" y="984.8182">1</text><!--MD5=[39609d66ce6d06d1779a14455c909f6f]
link Entrega to Encomenda--><path codeLine="139" d="M893.032,886.67 C930.848,915.648 981.544,954.495 1023.18,986.398 " fill="none" id="Entrega-to-Encomenda" style="stroke:#A80036;stroke-width:1.0;"/><polygon fill="#A80036" points="1027.18,989.463,1022.4717,980.8125,1023.2121,986.4207,1017.6039,987.1611,1027.18,989.463" style="stroke:#A80036;stroke-width:1.0;"/><polygon fill="#000000" points="985.9688,947.6076,980.5767,939.7733,977.0016,944.4389,985.9688,947.6076" style="stroke:#000000;stroke-width:1.0;"/><text fill="#000000" font-family="sans-serif" font-size="13" lengthAdjust="spacing" textLength="41" x="991" y="949.0669">possui</text><text fill="#000000" font-family="sans-serif" font-size="13" lengthAdjust="spacing" textLength="8" x="893.4842" y="907.1058">1</text><text fill="#000000" font-family="sans-serif" font-size="13" lengthAdjust="spacing" textLength="7" x="1010.5296" y="978.3962">*</text><!--MD5=[328dae9b2f192140d45e51cd90ecd75a]
link Estafeta to Entrega--><path codeLine="140" d="M677.621,660.07 C690.302,669.544 702.775,679.64 714,690 C748.797,722.116 782.305,764.225 805.697,796.055 " fill="none" id="Estafeta-to-Entrega" style="stroke:#A80036;stroke-width:1.0;"/><polygon fill="#A80036" points="808.786,800.278,806.6997,790.6527,805.8335,796.2428,800.2434,795.3766,808.786,800.278" style="stroke:#A80036;stroke-width:1.0;"/><polygon fill="#000000" points="778.4281,724.2062,774.366,715.6068,770.0872,719.6367,778.4281,724.2062" style="stroke:#000000;stroke-width:1.0;"/><text fill="#000000" font-family="sans-serif" font-size="13" lengthAdjust="spacing" textLength="42" x="784" y="725.0669">realiza</text><text fill="#000000" font-family="sans-serif" font-size="13" lengthAdjust="spacing" textLength="8" x="679.7514" y="679.8175">1</text><text fill="#000000" font-family="sans-serif" font-size="13" lengthAdjust="spacing" textLength="7" x="796.7767" y="789.5566">*</text><!--MD5=[f440ac15537f19f21c80dc932ffd2bf8]
link Entrega to Scooter--><path codeLine="141" d="M796.221,886.915 C769.848,913.69 735.245,948.82 705.404,979.115 " fill="none" id="Entrega-to-Scooter" style="stroke:#A80036;stroke-width:1.0;"/><polygon fill="#A80036" points="701.79,982.785,710.9564,979.1827,705.2997,979.2238,705.2586,973.5671,701.79,982.785" style="stroke:#A80036;stroke-width:1.0;"/><polygon fill="#000000" points="754.5087,941.0043,746.0676,945.3859,750.2552,949.5106,754.5087,941.0043" style="stroke:#000000;stroke-width:1.0;"/><text fill="#000000" font-family="sans-serif" font-size="13" lengthAdjust="spacing" textLength="42" x="760" y="949.0669">realiza</text><text fill="#000000" font-family="sans-serif" font-size="13" lengthAdjust="spacing" textLength="7" x="782.0047" y="907.0741">*</text><text fill="#000000" font-family="sans-serif" font-size="13" lengthAdjust="spacing" textLength="8" x="700.3563" y="971.7509">1</text><!--MD5=[43a7c1a046aa41d1c9842e3954366be4]
link Cliente to Endereco--><path codeLine="142" d="M1153.26,906.014 C1118.96,924.42 1079.44,942.484 1041,953 C932.136,982.781 639.105,941.875 534,983 C527.247,985.642 520.644,989.136 514.332,993.119 " fill="none" id="Cliente-to-Endereco" style="stroke:#A80036;stroke-width:1.0;"/><polygon fill="#A80036" points="510.009,995.951,519.7294,994.3654,514.1915,993.2112,515.3457,987.6734,510.009,995.951" style="stroke:#A80036;stroke-width:1.0;"/><polygon fill="#000000" points="1090.0458,945.2418,1099.405,946.932,1098.611,941.108,1090.0458,945.2418" style="stroke:#000000;stroke-width:1.0;"/><text fill="#000000" font-family="sans-serif" font-size="13" lengthAdjust="spacing" textLength="26" x="1104" y="949.0669">tem</text><text fill="#000000" font-family="sans-serif" font-size="13" lengthAdjust="spacing" textLength="8" x="1136.1097" y="924.3301">1</text><text fill="#000000" font-family="sans-serif" font-size="13" lengthAdjust="spacing" textLength="8" x="508.6196" y="984.9893">1</text><!--MD5=[beec9e5f2ed2709028dd31c1dc478e7b]
link Cliente to Encomenda--><path codeLine="143" d="M1226.79,906.239 C1218.99,922.171 1209.61,938.813 1199,953 C1190.53,964.33 1180.52,975.384 1170.17,985.667 " fill="none" id="Cliente-to-Encomenda" style="stroke:#A80036;stroke-width:1.0;"/><polygon fill="#A80036" points="1166.34,989.42,1175.5669,985.9756,1169.9104,985.9196,1169.9664,980.2631,1166.34,989.42" style="stroke:#A80036;stroke-width:1.0;"/><polygon fill="#000000" points="1213.0977,948.6378,1220.7411,942.9785,1215.9549,939.5666,1213.0977,948.6378" style="stroke:#000000;stroke-width:1.0;"/><text fill="#000000" font-family="sans-serif" font-size="13" lengthAdjust="spacing" textLength="90" x="1225" y="949.0669">realiza e paga</text><text fill="#000000" font-family="sans-serif" font-size="13" lengthAdjust="spacing" textLength="8" x="1215.5952" y="926.0049">1</text><text fill="#000000" font-family="sans-serif" font-size="13" lengthAdjust="spacing" textLength="7" x="1167.5195" y="978.3477">*</text><!--MD5=[055d9a59c94791d1e5417ead9eff8d01]
link Encomenda to EstadoEncomenda--><path codeLine="144" d="M1071.01,1101.595 C1055.3,1132.515 1036.15,1170.217 1022.35,1197.3822 " fill="none" id="Encomenda-EstadoEncomenda" style="stroke:#A80036;stroke-width:1.0;"/><polygon fill="#000000" points="1054.7354,1151.0242,1061.4523,1144.2911,1056.2118,1141.6289,1054.7354,1151.0242" style="stroke:#000000;stroke-width:1.0;"/><text fill="#000000" font-family="sans-serif" font-size="13" lengthAdjust="spacing" textLength="26" x="1066" y="1151.0669">tem</text><text fill="#000000" font-family="sans-serif" font-size="13" lengthAdjust="spacing" textLength="8" x="1059.1112" y="1121.4192">1</text><text fill="#000000" font-family="sans-serif" font-size="13" lengthAdjust="spacing" textLength="8" x="1016.9061" y="1186.5479">1</text><!--MD5=[60097591193c89dbde5dfd99b98b5263]
link Encomenda to Produto--><path codeLine="145" d="M1127.28,1101.595 C1140.83,1127.99 1156.92,1159.327 1170.02,1184.8333 " fill="none" id="Encomenda-Produto" style="stroke:#A80036;stroke-width:1.0;"/><polygon fill="#000000" points="1160.2839,1151.0143,1158.7667,1141.6255,1153.5379,1144.3104,1160.2839,1151.0143" style="stroke:#000000;stroke-width:1.0;"/><text fill="#000000" font-family="sans-serif" font-size="13" lengthAdjust="spacing" textLength="26" x="1167" y="1151.0669">tem</text><text fill="#000000" font-family="sans-serif" font-size="13" lengthAdjust="spacing" textLength="8" x="1122.2391" y="1121.4192">1</text><text fill="#000000" font-family="sans-serif" font-size="13" lengthAdjust="spacing" textLength="7" x="1159.015" y="1173.8547">*</text><!--MD5=[a186c72a42bdad3f2e548e580a385fa1]
@startuml
skinparam classAttributeIconSize 0

class AplicacaoPOT{
  +static getInstance()
  +getSessaoAtual()
}

class SessaoUtilizador{
  +getEmailUtilizador()
}

class EnderecoDB {
  +getEnderecoParque()
  +getEnderecoByNifCliente(nif)
}

class ScooterDB {
  +getScooterById(idScooter)
}

class EncomendaDB {
  +getListaEncomendaById(idEntrega)
}

class Entrega {
  -Integer idEntrega
  -String dataInicio
  -String dataFim
}

class EntregaDB {
  +getListaEntregaByNifEstafeta(nifEstafeta)
  +getEntregaById(int idEntrega)
  +generateGraph(listEnderecos, est, scooter, pesoTotal)
}

class EstafetaDB {
  +getEstafetaByEmail(email)
}

class IniciarEntregaController {
  +getEstafeta()
  +getListaEntregaByNifEstafeta(nifEstafeta)
  +getListaEncomendaById(idEntrega)
  +getEntregaById(int idEntrega)
  +getScooterById(idScooter)
  +getEnderecoParque()
  +getEnderecoByNifCliente(nif)
  +generateGraph(listEnderecos, est, scooter, pesoTotal)
}

class IniciarEntregaUI {
}

class Encomenda {
  -Integer idEncomenda
  -String dataPedida
  -Double preco
  -Double pesoEncomenda
  -Double taxa
}

class Estafeta {
  -Integer NIF
  -String nome
  -String email
  -Integer numeroSegurancaSocial
  -String password
  -Double pesoEstafeta
}

class Scooter {
  -Integer idScooter
  -Double percentagemBateria
  -Double pesoMaximo
  -Double pesoScooter
  -Double potencia
  -Double areaFrontal
}

class Endereco {
  -String morada
  -Double latitude
  -Double longitude
  -Double altitude
}

class Parque {
  -Integer numeroMaximo
}

class Cliente {
  -Integer NIF
  -String nome
  -String email
  -Integer numeroSegurancaSocial
  -String password
  -Integer creditos
}


class Cartao {
  -Integer numeroCartao
  -String dataDeValidade
  -Integer CCV
}

class EstadoEncomenda {
  -Integer id_estado_encomenda
  -String designacao
}

class Produto {
  -Integer idProduto
  -String designacao
  -Double peso
  -Double precoBase
}

IniciarEntregaUI ..> IniciarEntregaController

IniciarEntregaController ..> EstafetaDB
IniciarEntregaController ..> EnderecoDB
IniciarEntregaController ..> ScooterDB
IniciarEntregaController ..> EntregaDB
IniciarEntregaController ..> EncomendaDB
IniciarEntregaController ..> AplicacaoPOT
IniciarEntregaController ..> SessaoUtilizador

EntregaDB "1" - -> "*" Entrega : tem registadas
EstafetaDB "1" - -> "*" Estafeta : tem registadas
EncomendaDB "1" - -> "*" Encomenda : tem registadas
EnderecoDB "1" - -> "*" Endereco : tem registadas
ScooterDB "1" - -> "*" Scooter : tem registadas

Cliente "1" - - "1" Cartao : tem >
Parque "1" - -> "*" Scooter: possui >
Parque "1" - -> "1" Endereco: tem >
Entrega "1" - -> "*" Encomenda : possui >
Estafeta "1" - -> "*" Entrega: realiza >
Entrega "*" - -> "1" Scooter: realiza <
Cliente "1" - -> "1" Endereco: tem >
Cliente "1" - -> "*" Encomenda: realiza e paga >
Encomenda "1" - - "1" EstadoEncomenda : tem >
Encomenda "1" - - "*" Produto: tem >
@enduml

PlantUML version 1.2020.27beta8(Unknown compile time)
(GPL source distribution)
Java Runtime: Java(TM) SE Runtime Environment
JVM: Java HotSpot(TM) 64-Bit Server VM
Default Encoding: UTF-8
Language: en
Country: US
--></g></svg>