<?xml version="1.0" encoding="UTF-8" standalone="no"?><svg xmlns="http://www.w3.org/2000/svg" xmlns:xlink="http://www.w3.org/1999/xlink" contentScriptType="application/ecmascript" contentStyleType="text/css" height="637px" preserveAspectRatio="none" style="width:823px;height:637px;" version="1.1" viewBox="0 0 823 637" width="823px" zoomAndPan="magnify"><defs><filter height="300%" id="f1bptuw9rie0d1" width="300%" x="-1" y="-1"><feGaussianBlur result="blurOut" stdDeviation="2.0"/><feColorMatrix in="blurOut" result="blurOut2" type="matrix" values="0 0 0 0 0 0 0 0 0 0 0 0 0 0 0 0 0 0 .4 0"/><feOffset dx="4.0" dy="4.0" in="blurOut2" result="blurOut3"/><feBlend in="SourceGraphic" in2="blurOut3" mode="normal"/></filter></defs><g><!--MD5=[3179f819b5ca0f9c8a1bd58e9144681b]
class Entrega--><rect codeLine="5" fill="#FEFECE" filter="url(#f1bptuw9rie0d1)" height="95.3438" id="Entrega" style="stroke:#A80036;stroke-width:1.5;" width="77" x="203.5" y="119.5"/><ellipse cx="219.4" cy="135.5" fill="#ADD1B2" rx="11" ry="11" style="stroke:#A80036;stroke-width:1.0;"/><path d="M221.4,132 Q221.6031,131.5 221.8375,131.25 Q222.0719,131 222.3375,131 Q222.8063,131 223.1031,131.2813 Q223.4,131.5625 223.4,132.2188 L223.4,133.7813 Q223.4,134.4375 223.1188,134.7188 Q222.8375,135 222.4,135 Q222.0094,135 221.7594,134.8281 Q221.5094,134.6563 221.4,134.2031 Q221.3531,133.8906 221.1813,133.7188 Q220.8688,133.3906 220.3063,133.2031 Q219.7438,133 219.1813,133 Q218.4781,133 217.8844,133.2813 Q217.3063,133.5625 216.8531,134.1875 Q216.4,134.8125 216.4,135.6719 L216.4,136.5938 Q216.4,137.625 217.2438,138.3125 Q218.0875,139 219.5875,139 Q220.4781,139 221.1031,138.7969 Q221.4625,138.6875 221.8688,138.3281 Q222.1344,138.125 222.275,138.0625 Q222.4156,138 222.5875,138 Q222.9156,138 223.15,138.2656 Q223.4,138.5156 223.4,138.875 Q223.4,139.2188 223.0563,139.625 Q222.5563,140.2188 221.7594,140.5469 Q220.7125,141 219.4313,141 Q217.9313,141 216.7281,140.4063 Q215.7594,139.9375 215.0719,138.9219 Q214.4,137.9063 214.4,136.7031 L214.4,135.6094 Q214.4,134.3594 214.9938,133.2656 Q215.6031,132.1719 216.65,131.5938 Q217.7125,131 218.9,131 Q219.6188,131 220.2438,131.25 Q220.8688,131.5 221.4,132 Z " fill="#000000"/><text fill="#000000" font-family="sans-serif" font-size="12" lengthAdjust="spacing" textLength="43" x="233.6" y="140.4102">Entrega</text><line style="stroke:#A80036;stroke-width:1.5;" x1="204.5" x2="279.5" y1="151.5" y2="151.5"/><text fill="#000000" font-family="sans-serif" font-size="11" lengthAdjust="spacing" textLength="49" x="209.5" y="166.9189">-idEntrega</text><text fill="#000000" font-family="sans-serif" font-size="11" lengthAdjust="spacing" textLength="49" x="209.5" y="180.7549">-dataInicio</text><text fill="#000000" font-family="sans-serif" font-size="11" lengthAdjust="spacing" textLength="41" x="209.5" y="194.5908">-dataFim</text><text fill="#000000" font-family="sans-serif" font-size="11" lengthAdjust="spacing" textLength="65" x="209.5" y="208.4268">-pesoEntrega</text><!--MD5=[c55f92ccbf0646788158d42f3399cc78]
class Encomenda--><rect codeLine="12" fill="#FEFECE" filter="url(#f1bptuw9rie0d1)" height="109.1797" id="Encomenda" style="stroke:#A80036;stroke-width:1.5;" width="99" x="457.5" y="228.5"/><ellipse cx="472.5" cy="244.5" fill="#ADD1B2" rx="11" ry="11" style="stroke:#A80036;stroke-width:1.0;"/><path d="M474.5,241 Q474.7031,240.5 474.9375,240.25 Q475.1719,240 475.4375,240 Q475.9063,240 476.2031,240.2813 Q476.5,240.5625 476.5,241.2188 L476.5,242.7813 Q476.5,243.4375 476.2188,243.7188 Q475.9375,244 475.5,244 Q475.1094,244 474.8594,243.8281 Q474.6094,243.6563 474.5,243.2031 Q474.4531,242.8906 474.2813,242.7188 Q473.9688,242.3906 473.4063,242.2031 Q472.8438,242 472.2813,242 Q471.5781,242 470.9844,242.2813 Q470.4063,242.5625 469.9531,243.1875 Q469.5,243.8125 469.5,244.6719 L469.5,245.5938 Q469.5,246.625 470.3438,247.3125 Q471.1875,248 472.6875,248 Q473.5781,248 474.2031,247.7969 Q474.5625,247.6875 474.9688,247.3281 Q475.2344,247.125 475.375,247.0625 Q475.5156,247 475.6875,247 Q476.0156,247 476.25,247.2656 Q476.5,247.5156 476.5,247.875 Q476.5,248.2188 476.1563,248.625 Q475.6563,249.2188 474.8594,249.5469 Q473.8125,250 472.5313,250 Q471.0313,250 469.8281,249.4063 Q468.8594,248.9375 468.1719,247.9219 Q467.5,246.9063 467.5,245.7031 L467.5,244.6094 Q467.5,243.3594 468.0938,242.2656 Q468.7031,241.1719 469.75,240.5938 Q470.8125,240 472,240 Q472.7188,240 473.3438,240.25 Q473.9688,240.5 474.5,241 Z " fill="#000000"/><text fill="#000000" font-family="sans-serif" font-size="12" lengthAdjust="spacing" textLength="67" x="486.5" y="249.4102">Encomenda</text><line style="stroke:#A80036;stroke-width:1.5;" x1="458.5" x2="555.5" y1="260.5" y2="260.5"/><text fill="#000000" font-family="sans-serif" font-size="11" lengthAdjust="spacing" textLength="68" x="463.5" y="275.9189">-idEncomenda</text><text fill="#000000" font-family="sans-serif" font-size="11" lengthAdjust="spacing" textLength="57" x="463.5" y="289.7549">-dataPedida</text><text fill="#000000" font-family="sans-serif" font-size="11" lengthAdjust="spacing" textLength="32" x="463.5" y="303.5908">-preco</text><text fill="#000000" font-family="sans-serif" font-size="11" lengthAdjust="spacing" textLength="84" x="463.5" y="317.4268">-pesoEncomenda</text><text fill="#000000" font-family="sans-serif" font-size="11" lengthAdjust="spacing" textLength="25" x="463.5" y="331.2627">-taxa</text><!--MD5=[3f1202280bfe3359d2f91fb9b6e32986]
class Estafeta--><rect codeLine="20" fill="#FEFECE" filter="url(#f1bptuw9rie0d1)" height="53.8359" id="Estafeta" style="stroke:#A80036;stroke-width:1.5;" width="80" x="7" y="517"/><ellipse cx="23.35" cy="533" fill="#ADD1B2" rx="11" ry="11" style="stroke:#A80036;stroke-width:1.0;"/><path d="M25.35,529.5 Q25.5531,529 25.7875,528.75 Q26.0219,528.5 26.2875,528.5 Q26.7563,528.5 27.0531,528.7813 Q27.35,529.0625 27.35,529.7188 L27.35,531.2813 Q27.35,531.9375 27.0688,532.2188 Q26.7875,532.5 26.35,532.5 Q25.9594,532.5 25.7094,532.3281 Q25.4594,532.1563 25.35,531.7031 Q25.3031,531.3906 25.1313,531.2188 Q24.8188,530.8906 24.2563,530.7031 Q23.6938,530.5 23.1313,530.5 Q22.4281,530.5 21.8344,530.7813 Q21.2563,531.0625 20.8031,531.6875 Q20.35,532.3125 20.35,533.1719 L20.35,534.0938 Q20.35,535.125 21.1938,535.8125 Q22.0375,536.5 23.5375,536.5 Q24.4281,536.5 25.0531,536.2969 Q25.4125,536.1875 25.8188,535.8281 Q26.0844,535.625 26.225,535.5625 Q26.3656,535.5 26.5375,535.5 Q26.8656,535.5 27.1,535.7656 Q27.35,536.0156 27.35,536.375 Q27.35,536.7188 27.0063,537.125 Q26.5063,537.7188 25.7094,538.0469 Q24.6625,538.5 23.3813,538.5 Q21.8813,538.5 20.6781,537.9063 Q19.7094,537.4375 19.0219,536.4219 Q18.35,535.4063 18.35,534.2031 L18.35,533.1094 Q18.35,531.8594 18.9438,530.7656 Q19.5531,529.6719 20.6,529.0938 Q21.6625,528.5 22.85,528.5 Q23.5688,528.5 24.1938,528.75 Q24.8188,529 25.35,529.5 Z " fill="#000000"/><text fill="#000000" font-family="sans-serif" font-size="12" lengthAdjust="spacing" textLength="45" x="37.65" y="537.9102">Estafeta</text><line style="stroke:#A80036;stroke-width:1.5;" x1="8" x2="86" y1="549" y2="549"/><text fill="#000000" font-family="sans-serif" font-size="11" lengthAdjust="spacing" textLength="68" x="13" y="564.4189">-pesoEstafeta</text><!--MD5=[36c1942e8942a3e4f47e6de3733e3d18]
class Endereco--><rect codeLine="24" fill="#FEFECE" filter="url(#f1bptuw9rie0d1)" height="95.3438" id="Endereco" style="stroke:#A80036;stroke-width:1.5;" width="85" x="464.5" y="376.5"/><ellipse cx="479.5" cy="392.5" fill="#ADD1B2" rx="11" ry="11" style="stroke:#A80036;stroke-width:1.0;"/><path d="M481.5,389 Q481.7031,388.5 481.9375,388.25 Q482.1719,388 482.4375,388 Q482.9063,388 483.2031,388.2813 Q483.5,388.5625 483.5,389.2188 L483.5,390.7813 Q483.5,391.4375 483.2188,391.7188 Q482.9375,392 482.5,392 Q482.1094,392 481.8594,391.8281 Q481.6094,391.6563 481.5,391.2031 Q481.4531,390.8906 481.2813,390.7188 Q480.9688,390.3906 480.4063,390.2031 Q479.8438,390 479.2813,390 Q478.5781,390 477.9844,390.2813 Q477.4063,390.5625 476.9531,391.1875 Q476.5,391.8125 476.5,392.6719 L476.5,393.5938 Q476.5,394.625 477.3438,395.3125 Q478.1875,396 479.6875,396 Q480.5781,396 481.2031,395.7969 Q481.5625,395.6875 481.9688,395.3281 Q482.2344,395.125 482.375,395.0625 Q482.5156,395 482.6875,395 Q483.0156,395 483.25,395.2656 Q483.5,395.5156 483.5,395.875 Q483.5,396.2188 483.1563,396.625 Q482.6563,397.2188 481.8594,397.5469 Q480.8125,398 479.5313,398 Q478.0313,398 476.8281,397.4063 Q475.8594,396.9375 475.1719,395.9219 Q474.5,394.9063 474.5,393.7031 L474.5,392.6094 Q474.5,391.3594 475.0938,390.2656 Q475.7031,389.1719 476.75,388.5938 Q477.8125,388 479,388 Q479.7188,388 480.3438,388.25 Q480.9688,388.5 481.5,389 Z " fill="#000000"/><text fill="#000000" font-family="sans-serif" font-size="12" lengthAdjust="spacing" textLength="53" x="493.5" y="397.4102">Endereco</text><line style="stroke:#A80036;stroke-width:1.5;" x1="465.5" x2="548.5" y1="408.5" y2="408.5"/><text fill="#000000" font-family="sans-serif" font-size="11" lengthAdjust="spacing" textLength="40" x="470.5" y="423.9189">-morada</text><text fill="#000000" font-family="sans-serif" font-size="11" lengthAdjust="spacing" textLength="38" x="470.5" y="437.7549">-latitude</text><text fill="#000000" font-family="sans-serif" font-size="11" lengthAdjust="spacing" textLength="47" x="470.5" y="451.5908">-longitude</text><text fill="#000000" font-family="sans-serif" font-size="11" lengthAdjust="spacing" textLength="38" x="470.5" y="465.4268">-altitude</text><!--MD5=[f4402668d5d5bb8485350c0fdb60ac8e]
class Scooter--><rect codeLine="31" fill="#FEFECE" filter="url(#f1bptuw9rie0d1)" height="53.8359" id="Scooter" style="stroke:#A80036;stroke-width:1.5;" width="74" x="703" y="7"/><ellipse cx="718" cy="23" fill="#ADD1B2" rx="11" ry="11" style="stroke:#A80036;stroke-width:1.0;"/><path d="M720,19.5 Q720.2031,19 720.4375,18.75 Q720.6719,18.5 720.9375,18.5 Q721.4063,18.5 721.7031,18.7813 Q722,19.0625 722,19.7188 L722,21.2813 Q722,21.9375 721.7188,22.2188 Q721.4375,22.5 721,22.5 Q720.6094,22.5 720.3594,22.3281 Q720.1094,22.1563 720,21.7031 Q719.9531,21.3906 719.7813,21.2188 Q719.4688,20.8906 718.9063,20.7031 Q718.3438,20.5 717.7813,20.5 Q717.0781,20.5 716.4844,20.7813 Q715.9063,21.0625 715.4531,21.6875 Q715,22.3125 715,23.1719 L715,24.0938 Q715,25.125 715.8438,25.8125 Q716.6875,26.5 718.1875,26.5 Q719.0781,26.5 719.7031,26.2969 Q720.0625,26.1875 720.4688,25.8281 Q720.7344,25.625 720.875,25.5625 Q721.0156,25.5 721.1875,25.5 Q721.5156,25.5 721.75,25.7656 Q722,26.0156 722,26.375 Q722,26.7188 721.6563,27.125 Q721.1563,27.7188 720.3594,28.0469 Q719.3125,28.5 718.0313,28.5 Q716.5313,28.5 715.3281,27.9063 Q714.3594,27.4375 713.6719,26.4219 Q713,25.4063 713,24.2031 L713,23.1094 Q713,21.8594 713.5938,20.7656 Q714.2031,19.6719 715.25,19.0938 Q716.3125,18.5 717.5,18.5 Q718.2188,18.5 718.8438,18.75 Q719.4688,19 720,19.5 Z " fill="#000000"/><text fill="#000000" font-family="sans-serif" font-size="12" lengthAdjust="spacing" textLength="42" x="732" y="27.9102">Scooter</text><line style="stroke:#A80036;stroke-width:1.5;" x1="704" x2="776" y1="39" y2="39"/><text fill="#000000" font-family="sans-serif" font-size="11" lengthAdjust="spacing" textLength="50" x="709" y="54.4189">-idScooter</text><!--MD5=[20a748d5ee336a9a91751b0a3d4f0beb]
class Cliente--><rect codeLine="35" fill="#FEFECE" filter="url(#f1bptuw9rie0d1)" height="53.8359" id="Cliente" style="stroke:#A80036;stroke-width:1.5;" width="71" x="206.5" y="430"/><ellipse cx="221.5" cy="446" fill="#ADD1B2" rx="11" ry="11" style="stroke:#A80036;stroke-width:1.0;"/><path d="M223.5,442.5 Q223.7031,442 223.9375,441.75 Q224.1719,441.5 224.4375,441.5 Q224.9063,441.5 225.2031,441.7813 Q225.5,442.0625 225.5,442.7188 L225.5,444.2813 Q225.5,444.9375 225.2188,445.2188 Q224.9375,445.5 224.5,445.5 Q224.1094,445.5 223.8594,445.3281 Q223.6094,445.1563 223.5,444.7031 Q223.4531,444.3906 223.2813,444.2188 Q222.9688,443.8906 222.4063,443.7031 Q221.8438,443.5 221.2813,443.5 Q220.5781,443.5 219.9844,443.7813 Q219.4063,444.0625 218.9531,444.6875 Q218.5,445.3125 218.5,446.1719 L218.5,447.0938 Q218.5,448.125 219.3438,448.8125 Q220.1875,449.5 221.6875,449.5 Q222.5781,449.5 223.2031,449.2969 Q223.5625,449.1875 223.9688,448.8281 Q224.2344,448.625 224.375,448.5625 Q224.5156,448.5 224.6875,448.5 Q225.0156,448.5 225.25,448.7656 Q225.5,449.0156 225.5,449.375 Q225.5,449.7188 225.1563,450.125 Q224.6563,450.7188 223.8594,451.0469 Q222.8125,451.5 221.5313,451.5 Q220.0313,451.5 218.8281,450.9063 Q217.8594,450.4375 217.1719,449.4219 Q216.5,448.4063 216.5,447.2031 L216.5,446.1094 Q216.5,444.8594 217.0938,443.7656 Q217.7031,442.6719 218.75,442.0938 Q219.8125,441.5 221,441.5 Q221.7188,441.5 222.3438,441.75 Q222.9688,442 223.5,442.5 Z " fill="#000000"/><text fill="#000000" font-family="sans-serif" font-size="12" lengthAdjust="spacing" textLength="39" x="235.5" y="450.9102">Cliente</text><line style="stroke:#A80036;stroke-width:1.5;" x1="207.5" x2="276.5" y1="462" y2="462"/><text fill="#000000" font-family="sans-serif" font-size="11" lengthAdjust="spacing" textLength="43" x="212.5" y="477.4189">-creditos</text><!--MD5=[533e824b6b94274ee39bf5a43d7cce2a]
class EstadoEncomenda--><rect codeLine="40" fill="#FEFECE" filter="url(#f1bptuw9rie0d1)" height="67.6719" id="EstadoEncomenda" style="stroke:#A80036;stroke-width:1.5;" width="138" x="671" y="232"/><ellipse cx="686" cy="248" fill="#ADD1B2" rx="11" ry="11" style="stroke:#A80036;stroke-width:1.0;"/><path d="M688,244.5 Q688.2031,244 688.4375,243.75 Q688.6719,243.5 688.9375,243.5 Q689.4063,243.5 689.7031,243.7813 Q690,244.0625 690,244.7188 L690,246.2813 Q690,246.9375 689.7188,247.2188 Q689.4375,247.5 689,247.5 Q688.6094,247.5 688.3594,247.3281 Q688.1094,247.1563 688,246.7031 Q687.9531,246.3906 687.7813,246.2188 Q687.4688,245.8906 686.9063,245.7031 Q686.3438,245.5 685.7813,245.5 Q685.0781,245.5 684.4844,245.7813 Q683.9063,246.0625 683.4531,246.6875 Q683,247.3125 683,248.1719 L683,249.0938 Q683,250.125 683.8438,250.8125 Q684.6875,251.5 686.1875,251.5 Q687.0781,251.5 687.7031,251.2969 Q688.0625,251.1875 688.4688,250.8281 Q688.7344,250.625 688.875,250.5625 Q689.0156,250.5 689.1875,250.5 Q689.5156,250.5 689.75,250.7656 Q690,251.0156 690,251.375 Q690,251.7188 689.6563,252.125 Q689.1563,252.7188 688.3594,253.0469 Q687.3125,253.5 686.0313,253.5 Q684.5313,253.5 683.3281,252.9063 Q682.3594,252.4375 681.6719,251.4219 Q681,250.4063 681,249.2031 L681,248.1094 Q681,246.8594 681.5938,245.7656 Q682.2031,244.6719 683.25,244.0938 Q684.3125,243.5 685.5,243.5 Q686.2188,243.5 686.8438,243.75 Q687.4688,244 688,244.5 Z " fill="#000000"/><text fill="#000000" font-family="sans-serif" font-size="12" lengthAdjust="spacing" textLength="106" x="700" y="252.9102">EstadoEncomenda</text><line style="stroke:#A80036;stroke-width:1.5;" x1="672" x2="808" y1="264" y2="264"/><text fill="#000000" font-family="sans-serif" font-size="11" lengthAdjust="spacing" textLength="101" x="677" y="279.4189">-idEstadoEncomenda</text><text fill="#000000" font-family="sans-serif" font-size="11" lengthAdjust="spacing" textLength="60" x="677" y="293.2549">-designacao</text><!--MD5=[d4dacc50d49878ba7c621dfc80a2e1ce]
class Produto--><rect codeLine="45" fill="#FEFECE" filter="url(#f1bptuw9rie0d1)" height="95.3438" id="Produto" style="stroke:#A80036;stroke-width:1.5;" width="75" x="702.5" y="335.5"/><ellipse cx="717.5" cy="351.5" fill="#ADD1B2" rx="11" ry="11" style="stroke:#A80036;stroke-width:1.0;"/><path d="M719.5,348 Q719.7031,347.5 719.9375,347.25 Q720.1719,347 720.4375,347 Q720.9063,347 721.2031,347.2813 Q721.5,347.5625 721.5,348.2188 L721.5,349.7813 Q721.5,350.4375 721.2188,350.7188 Q720.9375,351 720.5,351 Q720.1094,351 719.8594,350.8281 Q719.6094,350.6563 719.5,350.2031 Q719.4531,349.8906 719.2813,349.7188 Q718.9688,349.3906 718.4063,349.2031 Q717.8438,349 717.2813,349 Q716.5781,349 715.9844,349.2813 Q715.4063,349.5625 714.9531,350.1875 Q714.5,350.8125 714.5,351.6719 L714.5,352.5938 Q714.5,353.625 715.3438,354.3125 Q716.1875,355 717.6875,355 Q718.5781,355 719.2031,354.7969 Q719.5625,354.6875 719.9688,354.3281 Q720.2344,354.125 720.375,354.0625 Q720.5156,354 720.6875,354 Q721.0156,354 721.25,354.2656 Q721.5,354.5156 721.5,354.875 Q721.5,355.2188 721.1563,355.625 Q720.6563,356.2188 719.8594,356.5469 Q718.8125,357 717.5313,357 Q716.0313,357 714.8281,356.4063 Q713.8594,355.9375 713.1719,354.9219 Q712.5,353.9063 712.5,352.7031 L712.5,351.6094 Q712.5,350.3594 713.0938,349.2656 Q713.7031,348.1719 714.75,347.5938 Q715.8125,347 717,347 Q717.7188,347 718.3438,347.25 Q718.9688,347.5 719.5,348 Z " fill="#000000"/><text fill="#000000" font-family="sans-serif" font-size="12" lengthAdjust="spacing" textLength="43" x="731.5" y="356.4102">Produto</text><line style="stroke:#A80036;stroke-width:1.5;" x1="703.5" x2="776.5" y1="367.5" y2="367.5"/><text fill="#000000" font-family="sans-serif" font-size="11" lengthAdjust="spacing" textLength="49" x="708.5" y="382.9189">-idProduto</text><text fill="#000000" font-family="sans-serif" font-size="11" lengthAdjust="spacing" textLength="60" x="708.5" y="396.7549">-designacao</text><text fill="#000000" font-family="sans-serif" font-size="11" lengthAdjust="spacing" textLength="28" x="708.5" y="410.5908">-peso</text><text fill="#000000" font-family="sans-serif" font-size="11" lengthAdjust="spacing" textLength="57" x="708.5" y="424.4268">-precoBase</text><!--MD5=[5dd1d6732c071e710b9290b531f2fa3b]
class Utilizador--><rect codeLine="52" fill="#FEFECE" filter="url(#f1bptuw9rie0d1)" height="109.1797" id="Utilizador" style="stroke:#A80036;stroke-width:1.5;" width="134" x="440" y="514.5"/><ellipse cx="477.95" cy="530.5" fill="#ADD1B2" rx="11" ry="11" style="stroke:#A80036;stroke-width:1.0;"/><path d="M479.95,527 Q480.1531,526.5 480.3875,526.25 Q480.6219,526 480.8875,526 Q481.3563,526 481.6531,526.2813 Q481.95,526.5625 481.95,527.2188 L481.95,528.7813 Q481.95,529.4375 481.6688,529.7188 Q481.3875,530 480.95,530 Q480.5594,530 480.3094,529.8281 Q480.0594,529.6563 479.95,529.2031 Q479.9031,528.8906 479.7313,528.7188 Q479.4188,528.3906 478.8563,528.2031 Q478.2938,528 477.7313,528 Q477.0281,528 476.4344,528.2813 Q475.8563,528.5625 475.4031,529.1875 Q474.95,529.8125 474.95,530.6719 L474.95,531.5938 Q474.95,532.625 475.7938,533.3125 Q476.6375,534 478.1375,534 Q479.0281,534 479.6531,533.7969 Q480.0125,533.6875 480.4188,533.3281 Q480.6844,533.125 480.825,533.0625 Q480.9656,533 481.1375,533 Q481.4656,533 481.7,533.2656 Q481.95,533.5156 481.95,533.875 Q481.95,534.2188 481.6063,534.625 Q481.1063,535.2188 480.3094,535.5469 Q479.2625,536 477.9813,536 Q476.4813,536 475.2781,535.4063 Q474.3094,534.9375 473.6219,533.9219 Q472.95,532.9063 472.95,531.7031 L472.95,530.6094 Q472.95,529.3594 473.5438,528.2656 Q474.1531,527.1719 475.2,526.5938 Q476.2625,526 477.45,526 Q478.1688,526 478.7938,526.25 Q479.4188,526.5 479.95,527 Z " fill="#000000"/><text fill="#000000" font-family="sans-serif" font-size="12" lengthAdjust="spacing" textLength="51" x="497.05" y="535.4102">Utilizador</text><line style="stroke:#A80036;stroke-width:1.5;" x1="441" x2="573" y1="546.5" y2="546.5"/><text fill="#000000" font-family="sans-serif" font-size="11" lengthAdjust="spacing" textLength="19" x="446" y="561.9189">-NIF</text><text fill="#000000" font-family="sans-serif" font-size="11" lengthAdjust="spacing" textLength="30" x="446" y="575.7549">-nome</text><text fill="#000000" font-family="sans-serif" font-size="11" lengthAdjust="spacing" textLength="28" x="446" y="589.5908">-email</text><text fill="#000000" font-family="sans-serif" font-size="11" lengthAdjust="spacing" textLength="122" x="446" y="603.4268">-numeroSegurancaSocial</text><text fill="#000000" font-family="sans-serif" font-size="11" lengthAdjust="spacing" textLength="54" x="446" y="617.2627">-password</text><!--MD5=[8505c5852735283b5a8424161266bb9f]
class Veiculo--><rect codeLine="60" fill="#FEFECE" filter="url(#f1bptuw9rie0d1)" height="150.6875" id="Veiculo" style="stroke:#A80036;stroke-width:1.5;" width="113" x="450.5" y="37.5"/><ellipse cx="483.95" cy="53.5" fill="#ADD1B2" rx="11" ry="11" style="stroke:#A80036;stroke-width:1.0;"/><path d="M485.95,50 Q486.1531,49.5 486.3875,49.25 Q486.6219,49 486.8875,49 Q487.3563,49 487.6531,49.2813 Q487.95,49.5625 487.95,50.2188 L487.95,51.7813 Q487.95,52.4375 487.6688,52.7188 Q487.3875,53 486.95,53 Q486.5594,53 486.3094,52.8281 Q486.0594,52.6563 485.95,52.2031 Q485.9031,51.8906 485.7313,51.7188 Q485.4188,51.3906 484.8563,51.2031 Q484.2938,51 483.7313,51 Q483.0281,51 482.4344,51.2813 Q481.8563,51.5625 481.4031,52.1875 Q480.95,52.8125 480.95,53.6719 L480.95,54.5938 Q480.95,55.625 481.7938,56.3125 Q482.6375,57 484.1375,57 Q485.0281,57 485.6531,56.7969 Q486.0125,56.6875 486.4188,56.3281 Q486.6844,56.125 486.825,56.0625 Q486.9656,56 487.1375,56 Q487.4656,56 487.7,56.2656 Q487.95,56.5156 487.95,56.875 Q487.95,57.2188 487.6063,57.625 Q487.1063,58.2188 486.3094,58.5469 Q485.2625,59 483.9813,59 Q482.4813,59 481.2781,58.4063 Q480.3094,57.9375 479.6219,56.9219 Q478.95,55.9063 478.95,54.7031 L478.95,53.6094 Q478.95,52.3594 479.5438,51.2656 Q480.1531,50.1719 481.2,49.5938 Q482.2625,49 483.45,49 Q484.1688,49 484.7938,49.25 Q485.4188,49.5 485.95,50 Z " fill="#000000"/><text fill="#000000" font-family="sans-serif" font-size="12" lengthAdjust="spacing" textLength="40" x="502.05" y="58.4102">Veiculo</text><line style="stroke:#A80036;stroke-width:1.5;" x1="451.5" x2="562.5" y1="69.5" y2="69.5"/><text fill="#000000" font-family="sans-serif" font-size="11" lengthAdjust="spacing" textLength="46" x="456.5" y="84.9189">-idveiculo</text><text fill="#000000" font-family="sans-serif" font-size="11" lengthAdjust="spacing" textLength="52" x="456.5" y="98.7549">-descricao</text><text fill="#000000" font-family="sans-serif" font-size="11" lengthAdjust="spacing" textLength="60" x="456.5" y="112.5908">-capacidade</text><text fill="#000000" font-family="sans-serif" font-size="11" lengthAdjust="spacing" textLength="101" x="456.5" y="126.4268">-percentagemBateria</text><text fill="#000000" font-family="sans-serif" font-size="11" lengthAdjust="spacing" textLength="64" x="456.5" y="140.2627">-pesoMaximo</text><text fill="#000000" font-family="sans-serif" font-size="11" lengthAdjust="spacing" textLength="64" x="456.5" y="154.0986">-pesoVeiculo</text><text fill="#000000" font-family="sans-serif" font-size="11" lengthAdjust="spacing" textLength="45" x="456.5" y="167.9346">-potencia</text><text fill="#000000" font-family="sans-serif" font-size="11" lengthAdjust="spacing" textLength="59" x="456.5" y="181.7705">-areaFrontal</text><!--MD5=[2e3f1e60e74253ff42e47f8bfdb04ee2]
class Drone--><rect codeLine="71" fill="#FEFECE" filter="url(#f1bptuw9rie0d1)" height="67.6719" id="Drone" style="stroke:#A80036;stroke-width:1.5;" width="66" x="707" y="96"/><ellipse cx="722" cy="112" fill="#ADD1B2" rx="11" ry="11" style="stroke:#A80036;stroke-width:1.0;"/><path d="M724,108.5 Q724.2031,108 724.4375,107.75 Q724.6719,107.5 724.9375,107.5 Q725.4063,107.5 725.7031,107.7813 Q726,108.0625 726,108.7188 L726,110.2813 Q726,110.9375 725.7188,111.2188 Q725.4375,111.5 725,111.5 Q724.6094,111.5 724.3594,111.3281 Q724.1094,111.1563 724,110.7031 Q723.9531,110.3906 723.7813,110.2188 Q723.4688,109.8906 722.9063,109.7031 Q722.3438,109.5 721.7813,109.5 Q721.0781,109.5 720.4844,109.7813 Q719.9063,110.0625 719.4531,110.6875 Q719,111.3125 719,112.1719 L719,113.0938 Q719,114.125 719.8438,114.8125 Q720.6875,115.5 722.1875,115.5 Q723.0781,115.5 723.7031,115.2969 Q724.0625,115.1875 724.4688,114.8281 Q724.7344,114.625 724.875,114.5625 Q725.0156,114.5 725.1875,114.5 Q725.5156,114.5 725.75,114.7656 Q726,115.0156 726,115.375 Q726,115.7188 725.6563,116.125 Q725.1563,116.7188 724.3594,117.0469 Q723.3125,117.5 722.0313,117.5 Q720.5313,117.5 719.3281,116.9063 Q718.3594,116.4375 717.6719,115.4219 Q717,114.4063 717,113.2031 L717,112.1094 Q717,110.8594 717.5938,109.7656 Q718.2031,108.6719 719.25,108.0938 Q720.3125,107.5 721.5,107.5 Q722.2188,107.5 722.8438,107.75 Q723.4688,108 724,108.5 Z " fill="#000000"/><text fill="#000000" font-family="sans-serif" font-size="12" lengthAdjust="spacing" textLength="34" x="736" y="116.9102">Drone</text><line style="stroke:#A80036;stroke-width:1.5;" x1="708" x2="772" y1="128" y2="128"/><text fill="#000000" font-family="sans-serif" font-size="11" lengthAdjust="spacing" textLength="41" x="713" y="143.4189">-idDrone</text><text fill="#000000" font-family="sans-serif" font-size="11" lengthAdjust="spacing" textLength="38" x="713" y="157.2549">-largura</text><!--MD5=[6613c9cd406ef433ff06f5e98b28abd9]
class Farmacia--><rect codeLine="76" fill="#FEFECE" filter="url(#f1bptuw9rie0d1)" height="67.6719" id="Farmacia" style="stroke:#A80036;stroke-width:1.5;" width="84" x="200" y="250"/><ellipse cx="215" cy="266" fill="#ADD1B2" rx="11" ry="11" style="stroke:#A80036;stroke-width:1.0;"/><path d="M217,262.5 Q217.2031,262 217.4375,261.75 Q217.6719,261.5 217.9375,261.5 Q218.4063,261.5 218.7031,261.7813 Q219,262.0625 219,262.7188 L219,264.2813 Q219,264.9375 218.7188,265.2188 Q218.4375,265.5 218,265.5 Q217.6094,265.5 217.3594,265.3281 Q217.1094,265.1563 217,264.7031 Q216.9531,264.3906 216.7813,264.2188 Q216.4688,263.8906 215.9063,263.7031 Q215.3438,263.5 214.7813,263.5 Q214.0781,263.5 213.4844,263.7813 Q212.9063,264.0625 212.4531,264.6875 Q212,265.3125 212,266.1719 L212,267.0938 Q212,268.125 212.8438,268.8125 Q213.6875,269.5 215.1875,269.5 Q216.0781,269.5 216.7031,269.2969 Q217.0625,269.1875 217.4688,268.8281 Q217.7344,268.625 217.875,268.5625 Q218.0156,268.5 218.1875,268.5 Q218.5156,268.5 218.75,268.7656 Q219,269.0156 219,269.375 Q219,269.7188 218.6563,270.125 Q218.1563,270.7188 217.3594,271.0469 Q216.3125,271.5 215.0313,271.5 Q213.5313,271.5 212.3281,270.9063 Q211.3594,270.4375 210.6719,269.4219 Q210,268.4063 210,267.2031 L210,266.1094 Q210,264.8594 210.5938,263.7656 Q211.2031,262.6719 212.25,262.0938 Q213.3125,261.5 214.5,261.5 Q215.2188,261.5 215.8438,261.75 Q216.4688,262 217,262.5 Z " fill="#000000"/><text fill="#000000" font-family="sans-serif" font-size="12" lengthAdjust="spacing" textLength="52" x="229" y="270.9102">Farmacia</text><line style="stroke:#A80036;stroke-width:1.5;" x1="201" x2="283" y1="282" y2="282"/><text fill="#000000" font-family="sans-serif" font-size="11" lengthAdjust="spacing" textLength="19" x="206" y="297.4189">-NIF</text><text fill="#000000" font-family="sans-serif" font-size="11" lengthAdjust="spacing" textLength="28" x="206" y="311.2549">-email</text><!--MD5=[055d9a59c94791d1e5417ead9eff8d01]
link Encomenda to EstadoEncomenda--><path codeLine="81" d="M556.71,279.42 C589.8,276.98 634.04,273.72 670.65,271.03 " fill="none" id="Encomenda-EstadoEncomenda" style="stroke:#A80036;stroke-width:1.0;"/><polygon fill="#000000" points="613.9865,264.8086,604.75,262.5418,605.1817,268.4038,613.9865,264.8086" style="stroke:#000000;stroke-width:1.0;"/><text fill="#000000" font-family="sans-serif" font-size="13" lengthAdjust="spacing" textLength="22" x="618" y="270.4951">tem</text><text fill="#000000" font-family="sans-serif" font-size="13" lengthAdjust="spacing" textLength="7" x="564.5252" y="293.5769">1</text><text fill="#000000" font-family="sans-serif" font-size="13" lengthAdjust="spacing" textLength="7" x="656.1373" y="285.9039">1</text><!--MD5=[39609d66ce6d06d1779a14455c909f6f]
link Entrega to Encomenda--><path codeLine="82" d="M280.76,170.95 C315.69,175.71 368.37,185.75 410,206 C426.52,214.04 442.78,225.36 457.08,236.86 " fill="none" id="Entrega-Encomenda" style="stroke:#A80036;stroke-width:1.0;"/><polygon fill="#000000" points="345.1835,170.9265,337.74,165.0065,335.6819,170.5123,345.1835,170.9265" style="stroke:#000000;stroke-width:1.0;"/><text fill="#000000" font-family="sans-serif" font-size="13" lengthAdjust="spacing" textLength="38" x="349.5" y="174.4951">possui</text><text fill="#000000" font-family="sans-serif" font-size="13" lengthAdjust="spacing" textLength="7" x="288.5517" y="186.6491">1</text><text fill="#000000" font-family="sans-serif" font-size="13" lengthAdjust="spacing" textLength="5" x="444.3808" y="244.7659">*</text><!--MD5=[328dae9b2f192140d45e51cd90ecd75a]
link Estafeta to Entrega--><path codeLine="83" d="M60.04,516.78 C84.57,461.95 142.84,334.65 200,232 C203.18,226.29 206.65,220.38 210.17,214.56 " fill="none" id="Estafeta-Entrega" style="stroke:#A80036;stroke-width:1.0;"/><polygon fill="#000000" points="124.2244,277.6979,117.5683,284.491,122.8324,287.106,124.2244,277.6979" style="stroke:#000000;stroke-width:1.0;"/><text fill="#000000" font-family="sans-serif" font-size="13" lengthAdjust="spacing" textLength="38" x="131" y="287.4951">realiza</text><text fill="#000000" font-family="sans-serif" font-size="13" lengthAdjust="spacing" textLength="7" x="55.2461" y="506.1901">1</text><text fill="#000000" font-family="sans-serif" font-size="13" lengthAdjust="spacing" textLength="5" x="200.1278" y="236.2161">*</text><!--MD5=[43a7c1a046aa41d1c9842e3954366be4]
link Cliente to Endereco--><path codeLine="84" d="M277.54,461.54 C311.54,465.1 364.78,468.2 410,460 C428.39,456.67 447.84,450.01 464.4,443.32 " fill="none" id="Cliente-Endereco" style="stroke:#A80036;stroke-width:1.0;"/><polygon fill="#000000" points="353.4764,450.6906,344.1888,448.6433,344.7592,454.4934,353.4764,450.6906" style="stroke:#000000;stroke-width:1.0;"/><text fill="#000000" font-family="sans-serif" font-size="13" lengthAdjust="spacing" textLength="22" x="357.5" y="456.4951">tem</text><text fill="#000000" font-family="sans-serif" font-size="13" lengthAdjust="spacing" textLength="7" x="285.592" y="477.6747">1</text><text fill="#000000" font-family="sans-serif" font-size="13" lengthAdjust="spacing" textLength="7" x="449.4766" y="461.5114">1</text><!--MD5=[beec9e5f2ed2709028dd31c1dc478e7b]
link Cliente to Encomenda--><path codeLine="85" d="M277.83,446.97 C320.1,434.37 388.43,412.52 410,397 C427.47,384.43 426.28,375.57 440,359 C445.8,352 451.96,344.71 458.11,337.53 " fill="none" id="Cliente-Encomenda" style="stroke:#A80036;stroke-width:1.0;"/><polygon fill="#000000" points="323.2741,385.5812,314.0171,387.7626,317.0673,392.7871,323.2741,385.5812" style="stroke:#000000;stroke-width:1.0;"/><text fill="#000000" font-family="sans-serif" font-size="13" lengthAdjust="spacing" textLength="81" x="328" y="393.4951">realiza e paga</text><text fill="#000000" font-family="sans-serif" font-size="13" lengthAdjust="spacing" textLength="7" x="285.5731" y="460.1162">1</text><text fill="#000000" font-family="sans-serif" font-size="13" lengthAdjust="spacing" textLength="5" x="446.5257" y="359.0478">*</text><!--MD5=[cd2aeefe8c457d184a69396a9f9cb06a]
link Entrega to Veiculo--><path codeLine="86" d="M280.81,156.27 C291.5,153.41 303.17,150.43 314,148 C359.62,137.76 411.85,128.38 450.31,121.92 " fill="none" id="Entrega-Veiculo" style="stroke:#A80036;stroke-width:1.0;"/><polygon fill="#000000" points="335.5996,122.1689,345.0482,123.2527,343.8808,117.492,335.5996,122.1689" style="stroke:#000000;stroke-width:1.0;"/><text fill="#000000" font-family="sans-serif" font-size="13" lengthAdjust="spacing" textLength="38" x="349.5" y="126.4951">realiza</text><text fill="#000000" font-family="sans-serif" font-size="13" lengthAdjust="spacing" textLength="5" x="288.4265" y="150.3125">*</text><text fill="#000000" font-family="sans-serif" font-size="13" lengthAdjust="spacing" textLength="7" x="435.5982" y="137.6255">1</text><!--MD5=[60097591193c89dbde5dfd99b98b5263]
link Encomenda to Produto--><path codeLine="87" d="M556.71,304.09 C600.26,322.94 663.11,350.15 702.47,367.19 " fill="none" id="Encomenda-Produto" style="stroke:#A80036;stroke-width:1.0;"/><polygon fill="#000000" points="613.5885,321.1622,606.4554,314.8717,604.1203,320.2658,613.5885,321.1622" style="stroke:#000000;stroke-width:1.0;"/><text fill="#000000" font-family="sans-serif" font-size="13" lengthAdjust="spacing" textLength="22" x="618" y="324.4951">tem</text><text fill="#000000" font-family="sans-serif" font-size="13" lengthAdjust="spacing" textLength="7" x="564.5252" y="321.8703">1</text><text fill="#000000" font-family="sans-serif" font-size="13" lengthAdjust="spacing" textLength="5" x="689.5891" y="379.1483">*</text><!--MD5=[aa5a8ec5fd097e3d415964f18fa48efb]
link Estafeta to Utilizador--><path codeLine="88" d="M87.05,546.13 C165.47,550.41 342.85,560.09 439.76,565.38 " fill="none" id="Estafeta-Utilizador" style="stroke:#A80036;stroke-width:1.0;"/><polygon fill="#000000" points="213.9926,543.4483,205.1211,540.0208,204.8008,545.8899,213.9926,543.4483" style="stroke:#000000;stroke-width:1.0;"/><text fill="#000000" font-family="sans-serif" font-size="13" lengthAdjust="spacing" textLength="61" x="218" y="548.4951">atua como</text><text fill="#000000" font-family="sans-serif" font-size="13" lengthAdjust="spacing" textLength="7" x="95.0795" y="561.5404">1</text><text fill="#000000" font-family="sans-serif" font-size="13" lengthAdjust="spacing" textLength="7" x="425.0228" y="579.3636">1</text><!--MD5=[00a2b7b20e7d7828fa181bc7c0dc6998]
link Cliente to Utilizador--><path codeLine="89" d="M277.83,474.2 C289.29,479.71 302.13,485.75 314,491 C355.46,509.33 402.62,528.51 439.83,543.27 " fill="none" id="Cliente-Utilizador" style="stroke:#A80036;stroke-width:1.0;"/><polygon fill="#000000" points="333.5994,484.1368,326.4316,477.8858,324.1264,483.2928,333.5994,484.1368" style="stroke:#000000;stroke-width:1.0;"/><text fill="#000000" font-family="sans-serif" font-size="13" lengthAdjust="spacing" textLength="61" x="338" y="487.4951">atua como</text><text fill="#000000" font-family="sans-serif" font-size="13" lengthAdjust="spacing" textLength="7" x="285.5731" y="492.7071">1</text><text fill="#000000" font-family="sans-serif" font-size="13" lengthAdjust="spacing" textLength="7" x="425.1005" y="554.8353">1</text><!--MD5=[460034a14c91c8062cdb3d6e7324968c]
link Veiculo to Drone--><path codeLine="90" d="M563.62,117.09 C608.48,120.39 669.99,124.92 706.98,127.64 " fill="none" id="Veiculo-Drone" style="stroke:#A80036;stroke-width:1.0;"/><polygon fill="#000000" points="611.5135,111.8088,620.3185,115.4037,620.7499,109.5417,611.5135,111.8088" style="stroke:#000000;stroke-width:1.0;"/><text fill="#000000" font-family="sans-serif" font-size="13" lengthAdjust="spacing" textLength="7" x="625.5" y="117.4951">é</text><text fill="#000000" font-family="sans-serif" font-size="13" lengthAdjust="spacing" textLength="7" x="571.3229" y="132.1767">1</text><text fill="#000000" font-family="sans-serif" font-size="13" lengthAdjust="spacing" textLength="7" x="691.9913" y="142.4432">1</text><!--MD5=[0fa340c3d135fb564aedca6a2c40d6f7]
link Veiculo to Scooter--><path codeLine="91" d="M563.62,93.98 C606.88,79.18 665.62,59.1 702.92,46.34 " fill="none" id="Veiculo-Scooter" style="stroke:#A80036;stroke-width:1.0;"/><polygon fill="#000000" points="611.769,61.7938,621.2785,61.6476,619.3764,56.086,611.769,61.7938" style="stroke:#000000;stroke-width:1.0;"/><text fill="#000000" font-family="sans-serif" font-size="13" lengthAdjust="spacing" textLength="7" x="625.5" y="65.4951">é</text><text fill="#000000" font-family="sans-serif" font-size="13" lengthAdjust="spacing" textLength="7" x="571.3229" y="106.1057">1</text><text fill="#000000" font-family="sans-serif" font-size="13" lengthAdjust="spacing" textLength="7" x="687.9308" y="63.8903">1</text><!--MD5=[5a27d3a82ae5518cc3aa88a6b9414b77]
link Farmacia to Encomenda--><path codeLine="92" d="M284.29,285.36 C294.03,285.63 304.38,285.86 314,286 C356.66,286.6 367.34,286.67 410,286 C425.34,285.76 442.05,285.31 457.17,284.82 " fill="none" id="Farmacia-Encomenda" style="stroke:#A80036;stroke-width:1.0;"/><polygon fill="#000000" points="353.5,277.1602,344.4458,274.2495,344.4641,280.1273,353.5,277.1602" style="stroke:#000000;stroke-width:1.0;"/><text fill="#000000" font-family="sans-serif" font-size="13" lengthAdjust="spacing" textLength="22" x="357.5" y="282.4951">tem</text><text fill="#000000" font-family="sans-serif" font-size="13" lengthAdjust="spacing" textLength="7" x="291.874" y="300.4617">1</text><text fill="#000000" font-family="sans-serif" font-size="13" lengthAdjust="spacing" textLength="5" x="444.484" y="299.7701">*</text><!--MD5=[79d5a61b37419f60a30a60f3bc0e499f]
link Farmacia to Veiculo--><path codeLine="93" d="M284.08,272.56 C330.01,259.56 399.39,239.21 410,232 C427.12,220.36 442.73,204.77 456.14,188.71 " fill="none" id="Farmacia-Veiculo" style="stroke:#A80036;stroke-width:1.0;"/><polygon fill="#000000" points="344.9947,220.9854,335.5762,222.3059,338.1512,227.5898,344.9947,220.9854" style="stroke:#000000;stroke-width:1.0;"/><text fill="#000000" font-family="sans-serif" font-size="13" lengthAdjust="spacing" textLength="38" x="349.5" y="228.4951">possui</text><text fill="#000000" font-family="sans-serif" font-size="13" lengthAdjust="spacing" textLength="7" x="291.9141" y="266.7723">1</text><text fill="#000000" font-family="sans-serif" font-size="13" lengthAdjust="spacing" textLength="5" x="446.3876" y="209.6901">*</text><!--MD5=[e9cb6b9ea8421b6538fc03abcb01a9a8]
link Farmacia to Endereco--><path codeLine="94" d="M284.09,305.87 C333.21,332.02 414.95,375.53 464.33,401.82 " fill="none" id="Farmacia-Endereco" style="stroke:#A80036;stroke-width:1.0;"/><polygon fill="#000000" points="352.9136,319.5253,346.3104,312.6807,343.5483,317.8692,352.9136,319.5253" style="stroke:#000000;stroke-width:1.0;"/><text fill="#000000" font-family="sans-serif" font-size="13" lengthAdjust="spacing" textLength="22" x="357.5" y="322.4951">tem</text><text fill="#000000" font-family="sans-serif" font-size="13" lengthAdjust="spacing" textLength="7" x="291.9258" y="324.5574">1</text><text fill="#000000" font-family="sans-serif" font-size="13" lengthAdjust="spacing" textLength="7" x="449.3945" y="412.8786">1</text><!--MD5=[cdf989229069239abc32fc897259c41f]
@startuml
skinparam classAttributeIconSize 0
hide methods
left to right direction

class Entrega {
  -idEntrega
  -dataInicio
  -dataFim
  -pesoEntrega
}

class Encomenda {
  -idEncomenda
  -dataPedida
  -preco
  -pesoEncomenda
  -taxa
}

class Estafeta {
  -pesoEstafeta
}

class Endereco {
  -morada
  -latitude
  -longitude
  -altitude
}

class Scooter {
  -idScooter
}

class Cliente {
  -creditos
}


class EstadoEncomenda {
  -idEstadoEncomenda
  -designacao
}

class Produto {
  -idProduto
  -designacao
  -peso
  -precoBase
}

class Utilizador {
  -NIF
  -nome
  -email
  -numeroSegurancaSocial
  -password
}

class Veiculo {
  -idveiculo
  -descricao
  -capacidade
  -percentagemBateria
  -pesoMaximo
  -pesoVeiculo
  -potencia
  -areaFrontal
}

class Drone {
  -idDrone
  -largura
}

class Farmacia {
  -NIF
  -email
}

Encomenda "1" - - "1" EstadoEncomenda : tem >
Entrega "1" - - "*" Encomenda : possui >
Estafeta "1" - - "*" Entrega: realiza >
Cliente "1" - - "1" Endereco: tem >
Cliente "1" - - "*" Encomenda: realiza e paga >
Entrega "*" - - "1" Veiculo: realiza <
Encomenda "1" - - "*" Produto: tem >
Estafeta "1" - - "1" Utilizador: atua como >
Cliente "1" - - "1" Utilizador: atua como >
Veiculo "1" - - "1" Drone: é <
Veiculo "1" - - "1" Scooter: é <
Farmacia "1" - - "*" Encomenda: tem >
Farmacia "1" - - "*" Veiculo: possui >
Farmacia "1" - - "1" Endereco: tem >

@enduml

PlantUML version 1.2021.00(Sun Jan 10 10:25:05 GMT 2021)
(GPL source distribution)
Java Runtime: OpenJDK Runtime Environment
JVM: OpenJDK 64-Bit Server VM
Default Encoding: Cp1252
Language: pt
Country: PT
--></g></svg>