<?xml version="1.0" encoding="UTF-8" standalone="no"?><svg xmlns="http://www.w3.org/2000/svg" xmlns:xlink="http://www.w3.org/1999/xlink" contentScriptType="application/ecmascript" contentStyleType="text/css" height="1497.44px" preserveAspectRatio="none" style="width:1544px;height:1497px;" version="1.1" viewBox="0 0 1544 1497" width="1544.48px" zoomAndPan="magnify"><defs><filter height="300%" id="f1vp37hyl8bqjn" width="300%" x="-1" y="-1"><feGaussianBlur result="blurOut" stdDeviation="2.24"/><feColorMatrix in="blurOut" result="blurOut2" type="matrix" values="0 0 0 0 0 0 0 0 0 0 0 0 0 0 0 0 0 0 .4 0"/><feOffset dx="4.48" dy="4.48" in="blurOut2" result="blurOut3"/><feBlend in="SourceGraphic" in2="blurOut3" mode="normal"/></filter></defs><g><!--MD5=[1e13576e8c070e32200b62ceaa1f39ec]
class SessaoUtilizador--><rect codeLine="3" fill="#FEFECE" filter="url(#f1vp37hyl8bqjn)" height="100.2488" id="SessaoUtilizador" style="stroke:#A80036;stroke-width:1.6800000000000002;" width="141.12" x="41.44" y="392"/><ellipse cx="58.24" cy="409.92" fill="#ADD1B2" rx="12.32" ry="12.32" style="stroke:#A80036;stroke-width:1.12;"/><path d="M60.48,406 Q60.7075,405.44 60.97,405.16 Q61.2325,404.88 61.53,404.88 Q62.055,404.88 62.3875,405.195 Q62.72,405.51 62.72,406.245 L62.72,407.995 Q62.72,408.73 62.405,409.045 Q62.09,409.36 61.6,409.36 Q61.1625,409.36 60.8825,409.1675 Q60.6025,408.975 60.48,408.4675 Q60.4275,408.1175 60.235,407.925 Q59.885,407.5575 59.255,407.3475 Q58.625,407.12 57.995,407.12 Q57.2075,407.12 56.5425,407.435 Q55.895,407.75 55.3875,408.45 Q54.88,409.15 54.88,410.1125 L54.88,411.145 Q54.88,412.3 55.825,413.07 Q56.77,413.84 58.45,413.84 Q59.4475,413.84 60.1475,413.6125 Q60.55,413.49 61.005,413.0875 Q61.3025,412.86 61.46,412.79 Q61.6175,412.72 61.81,412.72 Q62.1775,412.72 62.44,413.0175 Q62.72,413.2975 62.72,413.7 Q62.72,414.085 62.335,414.54 Q61.775,415.205 60.8825,415.5725 Q59.71,416.08 58.275,416.08 Q56.595,416.08 55.2475,415.415 Q54.1625,414.89 53.3925,413.7525 Q52.64,412.615 52.64,411.2675 L52.64,410.0425 Q52.64,408.6425 53.305,407.4175 Q53.9875,406.1925 55.16,405.545 Q56.35,404.88 57.68,404.88 Q58.485,404.88 59.185,405.16 Q59.885,405.44 60.48,406 Z " fill="#000000"/><text fill="#000000" font-family="sans-serif" font-size="13.44" lengthAdjust="spacing" textLength="105.28" x="73.92" y="415.4194">SessaoUtilizador</text><line style="stroke:#A80036;stroke-width:1.6800000000000002;" x1="42.56" x2="181.44" y1="427.84" y2="427.84"/><line style="stroke:#A80036;stroke-width:1.6800000000000002;" x1="42.56" x2="181.44" y1="436.8" y2="436.8"/><text fill="#000000" font-family="sans-serif" font-size="12.32" lengthAdjust="spacing" textLength="47.04" x="48.16" y="454.0692">+getNif()</text><text fill="#000000" font-family="sans-serif" font-size="12.32" lengthAdjust="spacing" textLength="110.88" x="48.16" y="469.5655">+static getInstance()</text><text fill="#000000" font-family="sans-serif" font-size="12.32" lengthAdjust="spacing" textLength="101.92" x="48.16" y="485.0617">+getSessaoAtual()</text><!--MD5=[364aec0fc02518cb9ab31cd04b585b1a]
class FarmaciaDB--><rect codeLine="9" fill="#FEFECE" filter="url(#f1vp37hyl8bqjn)" height="69.2563" id="FarmaciaDB" style="stroke:#A80036;stroke-width:1.6800000000000002;" width="118.72" x="680.96" y="407.68"/><ellipse cx="700.28" cy="425.6" fill="#ADD1B2" rx="12.32" ry="12.32" style="stroke:#A80036;stroke-width:1.12;"/><path d="M702.52,421.68 Q702.7475,421.12 703.01,420.84 Q703.2725,420.56 703.57,420.56 Q704.095,420.56 704.4275,420.875 Q704.76,421.19 704.76,421.925 L704.76,423.675 Q704.76,424.41 704.445,424.725 Q704.13,425.04 703.64,425.04 Q703.2025,425.04 702.9225,424.8475 Q702.6425,424.655 702.52,424.1475 Q702.4675,423.7975 702.275,423.605 Q701.925,423.2375 701.295,423.0275 Q700.665,422.8 700.035,422.8 Q699.2475,422.8 698.5825,423.115 Q697.935,423.43 697.4275,424.13 Q696.92,424.83 696.92,425.7925 L696.92,426.825 Q696.92,427.98 697.865,428.75 Q698.81,429.52 700.49,429.52 Q701.4875,429.52 702.1875,429.2925 Q702.59,429.17 703.045,428.7675 Q703.3425,428.54 703.5,428.47 Q703.6575,428.4 703.85,428.4 Q704.2175,428.4 704.48,428.6975 Q704.76,428.9775 704.76,429.38 Q704.76,429.765 704.375,430.22 Q703.815,430.885 702.9225,431.2525 Q701.75,431.76 700.315,431.76 Q698.635,431.76 697.2875,431.095 Q696.2025,430.57 695.4325,429.4325 Q694.68,428.295 694.68,426.9475 L694.68,425.7225 Q694.68,424.3225 695.345,423.0975 Q696.0275,421.8725 697.2,421.225 Q698.39,420.56 699.72,420.56 Q700.525,420.56 701.225,420.84 Q701.925,421.12 702.52,421.68 Z " fill="#000000"/><text fill="#000000" font-family="sans-serif" font-size="13.44" lengthAdjust="spacing" textLength="77.28" x="716.52" y="431.0994">FarmaciaDB</text><line style="stroke:#A80036;stroke-width:1.6800000000000002;" x1="682.08" x2="798.56" y1="443.52" y2="443.52"/><line style="stroke:#A80036;stroke-width:1.6800000000000002;" x1="682.08" x2="798.56" y1="452.48" y2="452.48"/><text fill="#000000" font-family="sans-serif" font-size="12.32" lengthAdjust="spacing" textLength="105.28" x="687.68" y="469.7492">+getLstFarmacias()</text><!--MD5=[fdc0efc5253b4b251338dbb2cf88d917]
class VeiculoDB--><rect codeLine="13" fill="#FEFECE" filter="url(#f1vp37hyl8bqjn)" height="69.2563" id="VeiculoDB" style="stroke:#A80036;stroke-width:1.6800000000000002;" width="331.52" x="1197.28" y="779.52"/><ellipse cx="1326.36" cy="797.44" fill="#ADD1B2" rx="12.32" ry="12.32" style="stroke:#A80036;stroke-width:1.12;"/><path d="M1328.6,793.52 Q1328.8275,792.96 1329.09,792.68 Q1329.3525,792.4 1329.65,792.4 Q1330.175,792.4 1330.5075,792.715 Q1330.84,793.03 1330.84,793.765 L1330.84,795.515 Q1330.84,796.25 1330.525,796.565 Q1330.21,796.88 1329.72,796.88 Q1329.2825,796.88 1329.0025,796.6875 Q1328.7225,796.495 1328.6,795.9875 Q1328.5475,795.6375 1328.355,795.445 Q1328.005,795.0775 1327.375,794.8675 Q1326.745,794.64 1326.115,794.64 Q1325.3275,794.64 1324.6625,794.955 Q1324.015,795.27 1323.5075,795.97 Q1323,796.67 1323,797.6325 L1323,798.665 Q1323,799.82 1323.945,800.59 Q1324.89,801.36 1326.57,801.36 Q1327.5675,801.36 1328.2675,801.1325 Q1328.67,801.01 1329.125,800.6075 Q1329.4225,800.38 1329.58,800.31 Q1329.7375,800.24 1329.93,800.24 Q1330.2975,800.24 1330.56,800.5375 Q1330.84,800.8175 1330.84,801.22 Q1330.84,801.605 1330.455,802.06 Q1329.895,802.725 1329.0025,803.0925 Q1327.83,803.6 1326.395,803.6 Q1324.715,803.6 1323.3675,802.935 Q1322.2825,802.41 1321.5125,801.2725 Q1320.76,800.135 1320.76,798.7875 L1320.76,797.5625 Q1320.76,796.1625 1321.425,794.9375 Q1322.1075,793.7125 1323.28,793.065 Q1324.47,792.4 1325.8,792.4 Q1326.605,792.4 1327.305,792.68 Q1328.005,792.96 1328.6,793.52 Z " fill="#000000"/><text fill="#000000" font-family="sans-serif" font-size="13.44" lengthAdjust="spacing" textLength="63.84" x="1349.32" y="802.9394">VeiculoDB</text><line style="stroke:#A80036;stroke-width:1.6800000000000002;" x1="1198.4" x2="1527.68" y1="815.36" y2="815.36"/><line style="stroke:#A80036;stroke-width:1.6800000000000002;" x1="1198.4" x2="1527.68" y1="824.32" y2="824.32"/><text fill="#000000" font-family="sans-serif" font-size="12.32" lengthAdjust="spacing" textLength="318.08" x="1204" y="841.5892">+getListaVeiculoEntrega(pesoMaximoEntrega, nifFarmacia)</text><!--MD5=[a8381305e32feabadf74eb10f0c047ba]
class EnderecoDB--><rect codeLine="17" fill="#FEFECE" filter="url(#f1vp37hyl8bqjn)" height="100.2488" id="EnderecoDB" style="stroke:#A80036;stroke-width:1.6800000000000002;" width="198.24" x="346.64" y="526.4"/><ellipse cx="401.8" cy="544.32" fill="#ADD1B2" rx="12.32" ry="12.32" style="stroke:#A80036;stroke-width:1.12;"/><path d="M404.04,540.4 Q404.2675,539.84 404.53,539.56 Q404.7925,539.28 405.09,539.28 Q405.615,539.28 405.9475,539.595 Q406.28,539.91 406.28,540.645 L406.28,542.395 Q406.28,543.13 405.965,543.445 Q405.65,543.76 405.16,543.76 Q404.7225,543.76 404.4425,543.5675 Q404.1625,543.375 404.04,542.8675 Q403.9875,542.5175 403.795,542.325 Q403.445,541.9575 402.815,541.7475 Q402.185,541.52 401.555,541.52 Q400.7675,541.52 400.1025,541.835 Q399.455,542.15 398.9475,542.85 Q398.44,543.55 398.44,544.5125 L398.44,545.545 Q398.44,546.7 399.385,547.47 Q400.33,548.24 402.01,548.24 Q403.0075,548.24 403.7075,548.0125 Q404.11,547.89 404.565,547.4875 Q404.8625,547.26 405.02,547.19 Q405.1775,547.12 405.37,547.12 Q405.7375,547.12 406,547.4175 Q406.28,547.6975 406.28,548.1 Q406.28,548.485 405.895,548.94 Q405.335,549.605 404.4425,549.9725 Q403.27,550.48 401.835,550.48 Q400.155,550.48 398.8075,549.815 Q397.7225,549.29 396.9525,548.1525 Q396.2,547.015 396.2,545.6675 L396.2,544.4425 Q396.2,543.0425 396.865,541.8175 Q397.5475,540.5925 398.72,539.945 Q399.91,539.28 401.24,539.28 Q402.045,539.28 402.745,539.56 Q403.445,539.84 404.04,540.4 Z " fill="#000000"/><text fill="#000000" font-family="sans-serif" font-size="13.44" lengthAdjust="spacing" textLength="78.4" x="424.76" y="549.8194">EnderecoDB</text><line style="stroke:#A80036;stroke-width:1.6800000000000002;" x1="347.76" x2="543.76" y1="562.24" y2="562.24"/><line style="stroke:#A80036;stroke-width:1.6800000000000002;" x1="347.76" x2="543.76" y1="571.2" y2="571.2"/><text fill="#000000" font-family="sans-serif" font-size="12.32" lengthAdjust="spacing" textLength="162.4" x="353.36" y="588.4692">+getEnderecoByNifCliente(nif)</text><text fill="#000000" font-family="sans-serif" font-size="12.32" lengthAdjust="spacing" textLength="184.8" x="353.36" y="603.9655">+getEnderecoOrigem(nifFarmacia)</text><text fill="#000000" font-family="sans-serif" font-size="12.32" lengthAdjust="spacing" textLength="150.08" x="353.36" y="619.4617">+getLstEnderecosScooter()</text><!--MD5=[eedb9d86e2ada2a30e84607ee2eb675b]
class EncomendaDB--><rect codeLine="23" fill="#FEFECE" filter="url(#f1vp37hyl8bqjn)" height="69.2563" id="EncomendaDB" style="stroke:#A80036;stroke-width:1.6800000000000002;" width="197.12" x="7.84" y="779.52"/><ellipse cx="54.88" cy="797.44" fill="#ADD1B2" rx="12.32" ry="12.32" style="stroke:#A80036;stroke-width:1.12;"/><path d="M57.12,793.52 Q57.3475,792.96 57.61,792.68 Q57.8725,792.4 58.17,792.4 Q58.695,792.4 59.0275,792.715 Q59.36,793.03 59.36,793.765 L59.36,795.515 Q59.36,796.25 59.045,796.565 Q58.73,796.88 58.24,796.88 Q57.8025,796.88 57.5225,796.6875 Q57.2425,796.495 57.12,795.9875 Q57.0675,795.6375 56.875,795.445 Q56.525,795.0775 55.895,794.8675 Q55.265,794.64 54.635,794.64 Q53.8475,794.64 53.1825,794.955 Q52.535,795.27 52.0275,795.97 Q51.52,796.67 51.52,797.6325 L51.52,798.665 Q51.52,799.82 52.465,800.59 Q53.41,801.36 55.09,801.36 Q56.0875,801.36 56.7875,801.1325 Q57.19,801.01 57.645,800.6075 Q57.9425,800.38 58.1,800.31 Q58.2575,800.24 58.45,800.24 Q58.8175,800.24 59.08,800.5375 Q59.36,800.8175 59.36,801.22 Q59.36,801.605 58.975,802.06 Q58.415,802.725 57.5225,803.0925 Q56.35,803.6 54.915,803.6 Q53.235,803.6 51.8875,802.935 Q50.8025,802.41 50.0325,801.2725 Q49.28,800.135 49.28,798.7875 L49.28,797.5625 Q49.28,796.1625 49.945,794.9375 Q50.6275,793.7125 51.8,793.065 Q52.99,792.4 54.32,792.4 Q55.125,792.4 55.825,792.68 Q56.525,792.96 57.12,793.52 Z " fill="#000000"/><text fill="#000000" font-family="sans-serif" font-size="13.44" lengthAdjust="spacing" textLength="94.08" x="77.28" y="802.9394">EncomendaDB</text><line style="stroke:#A80036;stroke-width:1.6800000000000002;" x1="8.96" x2="203.84" y1="815.36" y2="815.36"/><line style="stroke:#A80036;stroke-width:1.6800000000000002;" x1="8.96" x2="203.84" y1="824.32" y2="824.32"/><text fill="#000000" font-family="sans-serif" font-size="12.32" lengthAdjust="spacing" textLength="183.68" x="14.56" y="841.5892">+getListaEncomenda(nifFarmacia)</text><!--MD5=[3179f819b5ca0f9c8a1bd58e9144681b]
class Entrega--><rect codeLine="27" fill="#FEFECE" filter="url(#f1vp37hyl8bqjn)" height="115.745" id="Entrega" style="stroke:#A80036;stroke-width:1.6800000000000002;" width="126.56" x="966" y="890.4"/><ellipse cx="1001.952" cy="908.32" fill="#ADD1B2" rx="12.32" ry="12.32" style="stroke:#A80036;stroke-width:1.12;"/><path d="M1004.192,904.4 Q1004.4195,903.84 1004.682,903.56 Q1004.9445,903.28 1005.242,903.28 Q1005.767,903.28 1006.0995,903.595 Q1006.432,903.91 1006.432,904.645 L1006.432,906.395 Q1006.432,907.13 1006.117,907.445 Q1005.802,907.76 1005.312,907.76 Q1004.8745,907.76 1004.5945,907.5675 Q1004.3145,907.375 1004.192,906.8675 Q1004.1395,906.5175 1003.947,906.325 Q1003.597,905.9575 1002.967,905.7475 Q1002.337,905.52 1001.707,905.52 Q1000.9195,905.52 1000.2545,905.835 Q999.607,906.15 999.0995,906.85 Q998.592,907.55 998.592,908.5125 L998.592,909.545 Q998.592,910.7 999.537,911.47 Q1000.482,912.24 1002.162,912.24 Q1003.1595,912.24 1003.8595,912.0125 Q1004.262,911.89 1004.717,911.4875 Q1005.0145,911.26 1005.172,911.19 Q1005.3295,911.12 1005.522,911.12 Q1005.8895,911.12 1006.152,911.4175 Q1006.432,911.6975 1006.432,912.1 Q1006.432,912.485 1006.047,912.94 Q1005.487,913.605 1004.5945,913.9725 Q1003.422,914.48 1001.987,914.48 Q1000.307,914.48 998.9595,913.815 Q997.8745,913.29 997.1045,912.1525 Q996.352,911.015 996.352,909.6675 L996.352,908.4425 Q996.352,907.0425 997.017,905.8175 Q997.6995,904.5925 998.872,903.945 Q1000.062,903.28 1001.392,903.28 Q1002.197,903.28 1002.897,903.56 Q1003.597,903.84 1004.192,904.4 Z " fill="#000000"/><text fill="#000000" font-family="sans-serif" font-size="13.44" lengthAdjust="spacing" textLength="48.16" x="1021.888" y="913.8194">Entrega</text><line style="stroke:#A80036;stroke-width:1.6800000000000002;" x1="967.12" x2="1091.44" y1="926.24" y2="926.24"/><text fill="#000000" font-family="sans-serif" font-size="12.32" lengthAdjust="spacing" textLength="95.2" x="972.72" y="943.5092">-Integer idEntrega</text><text fill="#000000" font-family="sans-serif" font-size="12.32" lengthAdjust="spacing" textLength="89.6" x="972.72" y="959.0055">-String dataInicio</text><text fill="#000000" font-family="sans-serif" font-size="12.32" lengthAdjust="spacing" textLength="80.64" x="972.72" y="974.5017">-String dataFim</text><text fill="#000000" font-family="sans-serif" font-size="12.32" lengthAdjust="spacing" textLength="113.12" x="972.72" y="989.998">-Double pesoEntrega</text><line style="stroke:#A80036;stroke-width:1.6800000000000002;" x1="967.12" x2="1091.44" y1="997.185" y2="997.185"/><!--MD5=[598a246086efa0137d5aa96a640f0789]
class EntregaDB--><rect codeLine="34" fill="#FEFECE" filter="url(#f1vp37hyl8bqjn)" height="84.7525" id="EntregaDB" style="stroke:#A80036;stroke-width:1.6800000000000002;" width="498.4" x="838.32" y="534.24"/><ellipse cx="1049.16" cy="552.16" fill="#ADD1B2" rx="12.32" ry="12.32" style="stroke:#A80036;stroke-width:1.12;"/><path d="M1051.4,548.24 Q1051.6275,547.68 1051.89,547.4 Q1052.1525,547.12 1052.45,547.12 Q1052.975,547.12 1053.3075,547.435 Q1053.64,547.75 1053.64,548.485 L1053.64,550.235 Q1053.64,550.97 1053.325,551.285 Q1053.01,551.6 1052.52,551.6 Q1052.0825,551.6 1051.8025,551.4075 Q1051.5225,551.215 1051.4,550.7075 Q1051.3475,550.3575 1051.155,550.165 Q1050.805,549.7975 1050.175,549.5875 Q1049.545,549.36 1048.915,549.36 Q1048.1275,549.36 1047.4625,549.675 Q1046.815,549.99 1046.3075,550.69 Q1045.8,551.39 1045.8,552.3525 L1045.8,553.385 Q1045.8,554.54 1046.745,555.31 Q1047.69,556.08 1049.37,556.08 Q1050.3675,556.08 1051.0675,555.8525 Q1051.47,555.73 1051.925,555.3275 Q1052.2225,555.1 1052.38,555.03 Q1052.5375,554.96 1052.73,554.96 Q1053.0975,554.96 1053.36,555.2575 Q1053.64,555.5375 1053.64,555.94 Q1053.64,556.325 1053.255,556.78 Q1052.695,557.445 1051.8025,557.8125 Q1050.63,558.32 1049.195,558.32 Q1047.515,558.32 1046.1675,557.655 Q1045.0825,557.13 1044.3125,555.9925 Q1043.56,554.855 1043.56,553.5075 L1043.56,552.2825 Q1043.56,550.8825 1044.225,549.6575 Q1044.9075,548.4325 1046.08,547.785 Q1047.27,547.12 1048.6,547.12 Q1049.405,547.12 1050.105,547.4 Q1050.805,547.68 1051.4,548.24 Z " fill="#000000"/><text fill="#000000" font-family="sans-serif" font-size="13.44" lengthAdjust="spacing" textLength="67.2" x="1072.12" y="557.6594">EntregaDB</text><line style="stroke:#A80036;stroke-width:1.6800000000000002;" x1="839.44" x2="1335.6" y1="570.08" y2="570.08"/><line style="stroke:#A80036;stroke-width:1.6800000000000002;" x1="839.44" x2="1335.6" y1="579.04" y2="579.04"/><text fill="#000000" font-family="sans-serif" font-size="12.32" lengthAdjust="spacing" textLength="478.24" x="845.04" y="596.3092">+generateGraphScooter(listEnderecosScooter, listEnderecos, est, veiculo, pesoEntrega)</text><text fill="#000000" font-family="sans-serif" font-size="12.32" lengthAdjust="spacing" textLength="484.96" x="845.04" y="611.8055">+getPath(graphScooter, listEnderecos, finalShortPathScooter, endereco, 0, veiculo, 0, list)</text><!--MD5=[4ac2c1498d2c03198090a24b8c54d335]
class EstafetaDB--><rect codeLine="39" fill="#FEFECE" filter="url(#f1vp37hyl8bqjn)" height="69.2563" id="EstafetaDB" style="stroke:#A80036;stroke-width:1.6800000000000002;" width="135.52" x="505.68" y="407.68"/><ellipse cx="536.088" cy="425.6" fill="#ADD1B2" rx="12.32" ry="12.32" style="stroke:#A80036;stroke-width:1.12;"/><path d="M538.328,421.68 Q538.5555,421.12 538.818,420.84 Q539.0805,420.56 539.378,420.56 Q539.903,420.56 540.2355,420.875 Q540.568,421.19 540.568,421.925 L540.568,423.675 Q540.568,424.41 540.253,424.725 Q539.938,425.04 539.448,425.04 Q539.0105,425.04 538.7305,424.8475 Q538.4505,424.655 538.328,424.1475 Q538.2755,423.7975 538.083,423.605 Q537.733,423.2375 537.103,423.0275 Q536.473,422.8 535.843,422.8 Q535.0555,422.8 534.3905,423.115 Q533.743,423.43 533.2355,424.13 Q532.728,424.83 532.728,425.7925 L532.728,426.825 Q532.728,427.98 533.673,428.75 Q534.618,429.52 536.298,429.52 Q537.2955,429.52 537.9955,429.2925 Q538.398,429.17 538.853,428.7675 Q539.1505,428.54 539.308,428.47 Q539.4655,428.4 539.658,428.4 Q540.0255,428.4 540.288,428.6975 Q540.568,428.9775 540.568,429.38 Q540.568,429.765 540.183,430.22 Q539.623,430.885 538.7305,431.2525 Q537.558,431.76 536.123,431.76 Q534.443,431.76 533.0955,431.095 Q532.0105,430.57 531.2405,429.4325 Q530.488,428.295 530.488,426.9475 L530.488,425.7225 Q530.488,424.3225 531.153,423.0975 Q531.8355,421.8725 533.008,421.225 Q534.198,420.56 535.528,420.56 Q536.333,420.56 537.033,420.84 Q537.733,421.12 538.328,421.68 Z " fill="#000000"/><text fill="#000000" font-family="sans-serif" font-size="13.44" lengthAdjust="spacing" textLength="69.44" x="554.792" y="431.0994">EstafetaDB</text><line style="stroke:#A80036;stroke-width:1.6800000000000002;" x1="506.8" x2="640.08" y1="443.52" y2="443.52"/><line style="stroke:#A80036;stroke-width:1.6800000000000002;" x1="506.8" x2="640.08" y1="452.48" y2="452.48"/><text fill="#000000" font-family="sans-serif" font-size="12.32" lengthAdjust="spacing" textLength="122.08" x="512.4" y="469.7492">+getEstafetaByNIF(nif)</text><!--MD5=[0b96431f48c75c7948e638dd0365dea1]
class RegistarEntregaController--><rect codeLine="43" fill="#FEFECE" filter="url(#f1vp37hyl8bqjn)" height="193.2263" id="RegistarEntregaController" style="stroke:#A80036;stroke-width:1.6800000000000002;" width="498.4" x="324.24" y="129.92"/><ellipse cx="488.04" cy="147.84" fill="#ADD1B2" rx="12.32" ry="12.32" style="stroke:#A80036;stroke-width:1.12;"/><path d="M490.28,143.92 Q490.5075,143.36 490.77,143.08 Q491.0325,142.8 491.33,142.8 Q491.855,142.8 492.1875,143.115 Q492.52,143.43 492.52,144.165 L492.52,145.915 Q492.52,146.65 492.205,146.965 Q491.89,147.28 491.4,147.28 Q490.9625,147.28 490.6825,147.0875 Q490.4025,146.895 490.28,146.3875 Q490.2275,146.0375 490.035,145.845 Q489.685,145.4775 489.055,145.2675 Q488.425,145.04 487.795,145.04 Q487.0075,145.04 486.3425,145.355 Q485.695,145.67 485.1875,146.37 Q484.68,147.07 484.68,148.0325 L484.68,149.065 Q484.68,150.22 485.625,150.99 Q486.57,151.76 488.25,151.76 Q489.2475,151.76 489.9475,151.5325 Q490.35,151.41 490.805,151.0075 Q491.1025,150.78 491.26,150.71 Q491.4175,150.64 491.61,150.64 Q491.9775,150.64 492.24,150.9375 Q492.52,151.2175 492.52,151.62 Q492.52,152.005 492.135,152.46 Q491.575,153.125 490.6825,153.4925 Q489.51,154 488.075,154 Q486.395,154 485.0475,153.335 Q483.9625,152.81 483.1925,151.6725 Q482.44,150.535 482.44,149.1875 L482.44,147.9625 Q482.44,146.5625 483.105,145.3375 Q483.7875,144.1125 484.96,143.465 Q486.15,142.8 487.48,142.8 Q488.285,142.8 488.985,143.08 Q489.685,143.36 490.28,143.92 Z " fill="#000000"/><text fill="#000000" font-family="sans-serif" font-size="13.44" lengthAdjust="spacing" textLength="161.28" x="511" y="153.3394">RegistarEntregaController</text><line style="stroke:#A80036;stroke-width:1.6800000000000002;" x1="325.36" x2="821.52" y1="165.76" y2="165.76"/><line style="stroke:#A80036;stroke-width:1.6800000000000002;" x1="325.36" x2="821.52" y1="174.72" y2="174.72"/><text fill="#000000" font-family="sans-serif" font-size="12.32" lengthAdjust="spacing" textLength="77.28" x="330.96" y="191.9892">+getEstafeta()</text><text fill="#000000" font-family="sans-serif" font-size="12.32" lengthAdjust="spacing" textLength="105.28" x="330.96" y="207.4855">+getLstFarmacias()</text><text fill="#000000" font-family="sans-serif" font-size="12.32" lengthAdjust="spacing" textLength="183.68" x="330.96" y="222.9817">+getListaEncomenda(nifFarmacia)</text><text fill="#000000" font-family="sans-serif" font-size="12.32" lengthAdjust="spacing" textLength="162.4" x="330.96" y="238.478">+getEnderecoByNifCliente(nif)</text><text fill="#000000" font-family="sans-serif" font-size="12.32" lengthAdjust="spacing" textLength="184.8" x="330.96" y="253.9742">+getEnderecoOrigem(nifFarmacia)</text><text fill="#000000" font-family="sans-serif" font-size="12.32" lengthAdjust="spacing" textLength="150.08" x="330.96" y="269.4705">+getLstEnderecosScooter()</text><text fill="#000000" font-family="sans-serif" font-size="12.32" lengthAdjust="spacing" textLength="318.08" x="330.96" y="284.9667">+getListaVeiculoEntrega(pesoMaximoEntrega, nifFarmacia)</text><text fill="#000000" font-family="sans-serif" font-size="12.32" lengthAdjust="spacing" textLength="478.24" x="330.96" y="300.463">+generateGraphScooter(listEnderecosScooter, listEnderecos, est, veiculo, pesoEntrega)</text><text fill="#000000" font-family="sans-serif" font-size="12.32" lengthAdjust="spacing" textLength="484.96" x="330.96" y="315.9592">+getPath(graphScooter, listEnderecos, finalShortPathScooter, endereco, 0, veiculo, 0, list)</text><!--MD5=[7a561ec8a1cf4ba3fadee4d155dd8051]
class RegistarEntregaUI--><rect codeLine="55" fill="#FEFECE" filter="url(#f1vp37hyl8bqjn)" height="53.76" id="RegistarEntregaUI" style="stroke:#A80036;stroke-width:1.6800000000000002;" width="150.08" x="498.4" y="7.84"/><ellipse cx="515.2" cy="25.76" fill="#ADD1B2" rx="12.32" ry="12.32" style="stroke:#A80036;stroke-width:1.12;"/><path d="M517.44,21.84 Q517.6675,21.28 517.93,21 Q518.1925,20.72 518.49,20.72 Q519.015,20.72 519.3475,21.035 Q519.68,21.35 519.68,22.085 L519.68,23.835 Q519.68,24.57 519.365,24.885 Q519.05,25.2 518.56,25.2 Q518.1225,25.2 517.8425,25.0075 Q517.5625,24.815 517.44,24.3075 Q517.3875,23.9575 517.195,23.765 Q516.845,23.3975 516.215,23.1875 Q515.585,22.96 514.955,22.96 Q514.1675,22.96 513.5025,23.275 Q512.855,23.59 512.3475,24.29 Q511.84,24.99 511.84,25.9525 L511.84,26.985 Q511.84,28.14 512.785,28.91 Q513.73,29.68 515.41,29.68 Q516.4075,29.68 517.1075,29.4525 Q517.51,29.33 517.965,28.9275 Q518.2625,28.7 518.42,28.63 Q518.5775,28.56 518.77,28.56 Q519.1375,28.56 519.4,28.8575 Q519.68,29.1375 519.68,29.54 Q519.68,29.925 519.295,30.38 Q518.735,31.045 517.8425,31.4125 Q516.67,31.92 515.235,31.92 Q513.555,31.92 512.2075,31.255 Q511.1225,30.73 510.3525,29.5925 Q509.6,28.455 509.6,27.1075 L509.6,25.8825 Q509.6,24.4825 510.265,23.2575 Q510.9475,22.0325 512.12,21.385 Q513.31,20.72 514.64,20.72 Q515.445,20.72 516.145,21 Q516.845,21.28 517.44,21.84 Z " fill="#000000"/><text fill="#000000" font-family="sans-serif" font-size="13.44" lengthAdjust="spacing" textLength="114.24" x="530.88" y="31.2594">RegistarEntregaUI</text><line style="stroke:#A80036;stroke-width:1.6800000000000002;" x1="499.52" x2="647.36" y1="43.68" y2="43.68"/><line style="stroke:#A80036;stroke-width:1.6800000000000002;" x1="499.52" x2="647.36" y1="52.64" y2="52.64"/><!--MD5=[c55f92ccbf0646788158d42f3399cc78]
class Encomenda--><rect codeLine="58" fill="#FEFECE" filter="url(#f1vp37hyl8bqjn)" height="131.2413" id="Encomenda" style="stroke:#A80036;stroke-width:1.6800000000000002;" width="147.84" x="413.28" y="1124.48"/><ellipse cx="446.712" cy="1142.4" fill="#ADD1B2" rx="12.32" ry="12.32" style="stroke:#A80036;stroke-width:1.12;"/><path d="M448.952,1138.48 Q449.1795,1137.92 449.442,1137.64 Q449.7045,1137.36 450.002,1137.36 Q450.527,1137.36 450.8595,1137.675 Q451.192,1137.99 451.192,1138.725 L451.192,1140.475 Q451.192,1141.21 450.877,1141.525 Q450.562,1141.84 450.072,1141.84 Q449.6345,1141.84 449.3545,1141.6475 Q449.0745,1141.455 448.952,1140.9475 Q448.8995,1140.5975 448.707,1140.405 Q448.357,1140.0375 447.727,1139.8275 Q447.097,1139.6 446.467,1139.6 Q445.6795,1139.6 445.0145,1139.915 Q444.367,1140.23 443.8595,1140.93 Q443.352,1141.63 443.352,1142.5925 L443.352,1143.625 Q443.352,1144.78 444.297,1145.55 Q445.242,1146.32 446.922,1146.32 Q447.9195,1146.32 448.6195,1146.0925 Q449.022,1145.97 449.477,1145.5675 Q449.7745,1145.34 449.932,1145.27 Q450.0895,1145.2 450.282,1145.2 Q450.6495,1145.2 450.912,1145.4975 Q451.192,1145.7775 451.192,1146.18 Q451.192,1146.565 450.807,1147.02 Q450.247,1147.685 449.3545,1148.0525 Q448.182,1148.56 446.747,1148.56 Q445.067,1148.56 443.7195,1147.895 Q442.6345,1147.37 441.8645,1146.2325 Q441.112,1145.095 441.112,1143.7475 L441.112,1142.5225 Q441.112,1141.1225 441.777,1139.8975 Q442.4595,1138.6725 443.632,1138.025 Q444.822,1137.36 446.152,1137.36 Q446.957,1137.36 447.657,1137.64 Q448.357,1137.92 448.952,1138.48 Z " fill="#000000"/><text fill="#000000" font-family="sans-serif" font-size="13.44" lengthAdjust="spacing" textLength="75.04" x="466.088" y="1147.8994">Encomenda</text><line style="stroke:#A80036;stroke-width:1.6800000000000002;" x1="414.4" x2="560" y1="1160.32" y2="1160.32"/><text fill="#000000" font-family="sans-serif" font-size="12.32" lengthAdjust="spacing" textLength="116.48" x="420" y="1177.5892">-Integer idEncomenda</text><text fill="#000000" font-family="sans-serif" font-size="12.32" lengthAdjust="spacing" textLength="98.56" x="420" y="1193.0855">-String dataPedida</text><text fill="#000000" font-family="sans-serif" font-size="12.32" lengthAdjust="spacing" textLength="76.16" x="420" y="1208.5817">-Double preco</text><text fill="#000000" font-family="sans-serif" font-size="12.32" lengthAdjust="spacing" textLength="134.4" x="420" y="1224.078">-Double pesoEncomenda</text><text fill="#000000" font-family="sans-serif" font-size="12.32" lengthAdjust="spacing" textLength="68.32" x="420" y="1239.5742">-Double taxa</text><line style="stroke:#A80036;stroke-width:1.6800000000000002;" x1="414.4" x2="560" y1="1246.7613" y2="1246.7613"/><!--MD5=[3f1202280bfe3359d2f91fb9b6e32986]
class Estafeta--><rect codeLine="66" fill="#FEFECE" filter="url(#f1vp37hyl8bqjn)" height="69.2563" id="Estafeta" style="stroke:#A80036;stroke-width:1.6800000000000002;" width="129.92" x="652.96" y="668.64"/><ellipse cx="689.416" cy="686.56" fill="#ADD1B2" rx="12.32" ry="12.32" style="stroke:#A80036;stroke-width:1.12;"/><path d="M691.656,682.64 Q691.8835,682.08 692.146,681.8 Q692.4085,681.52 692.706,681.52 Q693.231,681.52 693.5635,681.835 Q693.896,682.15 693.896,682.885 L693.896,684.635 Q693.896,685.37 693.581,685.685 Q693.266,686 692.776,686 Q692.3385,686 692.0585,685.8075 Q691.7785,685.615 691.656,685.1075 Q691.6035,684.7575 691.411,684.565 Q691.061,684.1975 690.431,683.9875 Q689.801,683.76 689.171,683.76 Q688.3835,683.76 687.7185,684.075 Q687.071,684.39 686.5635,685.09 Q686.056,685.79 686.056,686.7525 L686.056,687.785 Q686.056,688.94 687.001,689.71 Q687.946,690.48 689.626,690.48 Q690.6235,690.48 691.3235,690.2525 Q691.726,690.13 692.181,689.7275 Q692.4785,689.5 692.636,689.43 Q692.7935,689.36 692.986,689.36 Q693.3535,689.36 693.616,689.6575 Q693.896,689.9375 693.896,690.34 Q693.896,690.725 693.511,691.18 Q692.951,691.845 692.0585,692.2125 Q690.886,692.72 689.451,692.72 Q687.771,692.72 686.4235,692.055 Q685.3385,691.53 684.5685,690.3925 Q683.816,689.255 683.816,687.9075 L683.816,686.6825 Q683.816,685.2825 684.481,684.0575 Q685.1635,682.8325 686.336,682.185 Q687.526,681.52 688.856,681.52 Q689.661,681.52 690.361,681.8 Q691.061,682.08 691.656,682.64 Z " fill="#000000"/><text fill="#000000" font-family="sans-serif" font-size="13.44" lengthAdjust="spacing" textLength="50.4" x="709.464" y="692.0594">Estafeta</text><line style="stroke:#A80036;stroke-width:1.6800000000000002;" x1="654.08" x2="781.76" y1="704.48" y2="704.48"/><text fill="#000000" font-family="sans-serif" font-size="12.32" lengthAdjust="spacing" textLength="116.48" x="659.68" y="721.7492">-Double pesoEstafeta</text><line style="stroke:#A80036;stroke-width:1.6800000000000002;" x1="654.08" x2="781.76" y1="728.9363" y2="728.9363"/><!--MD5=[f4402668d5d5bb8485350c0fdb60ac8e]
class Scooter--><rect codeLine="70" fill="#FEFECE" filter="url(#f1vp37hyl8bqjn)" height="69.2563" id="Scooter" style="stroke:#A80036;stroke-width:1.6800000000000002;" width="109.76" x="1044.96" y="1389.36"/><ellipse cx="1073.856" cy="1407.28" fill="#ADD1B2" rx="12.32" ry="12.32" style="stroke:#A80036;stroke-width:1.12;"/><path d="M1076.096,1403.36 Q1076.3235,1402.8 1076.586,1402.52 Q1076.8485,1402.24 1077.146,1402.24 Q1077.671,1402.24 1078.0035,1402.555 Q1078.336,1402.87 1078.336,1403.605 L1078.336,1405.355 Q1078.336,1406.09 1078.021,1406.405 Q1077.706,1406.72 1077.216,1406.72 Q1076.7785,1406.72 1076.4985,1406.5275 Q1076.2185,1406.335 1076.096,1405.8275 Q1076.0435,1405.4775 1075.851,1405.285 Q1075.501,1404.9175 1074.871,1404.7075 Q1074.241,1404.48 1073.611,1404.48 Q1072.8235,1404.48 1072.1585,1404.795 Q1071.511,1405.11 1071.0035,1405.81 Q1070.496,1406.51 1070.496,1407.4725 L1070.496,1408.505 Q1070.496,1409.66 1071.441,1410.43 Q1072.386,1411.2 1074.066,1411.2 Q1075.0635,1411.2 1075.7635,1410.9725 Q1076.166,1410.85 1076.621,1410.4475 Q1076.9185,1410.22 1077.076,1410.15 Q1077.2335,1410.08 1077.426,1410.08 Q1077.7935,1410.08 1078.056,1410.3775 Q1078.336,1410.6575 1078.336,1411.06 Q1078.336,1411.445 1077.951,1411.9 Q1077.391,1412.565 1076.4985,1412.9325 Q1075.326,1413.44 1073.891,1413.44 Q1072.211,1413.44 1070.8635,1412.775 Q1069.7785,1412.25 1069.0085,1411.1125 Q1068.256,1409.975 1068.256,1408.6275 L1068.256,1407.4025 Q1068.256,1406.0025 1068.921,1404.7775 Q1069.6035,1403.5525 1070.776,1402.905 Q1071.966,1402.24 1073.296,1402.24 Q1074.101,1402.24 1074.801,1402.52 Q1075.501,1402.8 1076.096,1403.36 Z " fill="#000000"/><text fill="#000000" font-family="sans-serif" font-size="13.44" lengthAdjust="spacing" textLength="47.04" x="1092.224" y="1412.7794">Scooter</text><line style="stroke:#A80036;stroke-width:1.6800000000000002;" x1="1046.08" x2="1153.6" y1="1425.2" y2="1425.2"/><text fill="#000000" font-family="sans-serif" font-size="12.32" lengthAdjust="spacing" textLength="96.32" x="1051.68" y="1442.4692">-Integer idScooter</text><line style="stroke:#A80036;stroke-width:1.6800000000000002;" x1="1046.08" x2="1153.6" y1="1449.6563" y2="1449.6563"/><!--MD5=[36c1942e8942a3e4f47e6de3733e3d18]
class Endereco--><rect codeLine="74" fill="#FEFECE" filter="url(#f1vp37hyl8bqjn)" height="115.745" id="Endereco" style="stroke:#A80036;stroke-width:1.6800000000000002;" width="106.4" x="633.36" y="890.4"/><ellipse cx="655.2" cy="908.32" fill="#ADD1B2" rx="12.32" ry="12.32" style="stroke:#A80036;stroke-width:1.12;"/><path d="M657.44,904.4 Q657.6675,903.84 657.93,903.56 Q658.1925,903.28 658.49,903.28 Q659.015,903.28 659.3475,903.595 Q659.68,903.91 659.68,904.645 L659.68,906.395 Q659.68,907.13 659.365,907.445 Q659.05,907.76 658.56,907.76 Q658.1225,907.76 657.8425,907.5675 Q657.5625,907.375 657.44,906.8675 Q657.3875,906.5175 657.195,906.325 Q656.845,905.9575 656.215,905.7475 Q655.585,905.52 654.955,905.52 Q654.1675,905.52 653.5025,905.835 Q652.855,906.15 652.3475,906.85 Q651.84,907.55 651.84,908.5125 L651.84,909.545 Q651.84,910.7 652.785,911.47 Q653.73,912.24 655.41,912.24 Q656.4075,912.24 657.1075,912.0125 Q657.51,911.89 657.965,911.4875 Q658.2625,911.26 658.42,911.19 Q658.5775,911.12 658.77,911.12 Q659.1375,911.12 659.4,911.4175 Q659.68,911.6975 659.68,912.1 Q659.68,912.485 659.295,912.94 Q658.735,913.605 657.8425,913.9725 Q656.67,914.48 655.235,914.48 Q653.555,914.48 652.2075,913.815 Q651.1225,913.29 650.3525,912.1525 Q649.6,911.015 649.6,909.6675 L649.6,908.4425 Q649.6,907.0425 650.265,905.8175 Q650.9475,904.5925 652.12,903.945 Q653.31,903.28 654.64,903.28 Q655.445,903.28 656.145,903.56 Q656.845,903.84 657.44,904.4 Z " fill="#000000"/><text fill="#000000" font-family="sans-serif" font-size="13.44" lengthAdjust="spacing" textLength="59.36" x="672" y="913.8194">Endereco</text><line style="stroke:#A80036;stroke-width:1.6800000000000002;" x1="634.48" x2="738.64" y1="926.24" y2="926.24"/><text fill="#000000" font-family="sans-serif" font-size="12.32" lengthAdjust="spacing" textLength="79.52" x="640.08" y="943.5092">-String morada</text><text fill="#000000" font-family="sans-serif" font-size="12.32" lengthAdjust="spacing" textLength="82.88" x="640.08" y="959.0055">-Double latitude</text><text fill="#000000" font-family="sans-serif" font-size="12.32" lengthAdjust="spacing" textLength="92.96" x="640.08" y="974.5017">-Double longitude</text><text fill="#000000" font-family="sans-serif" font-size="12.32" lengthAdjust="spacing" textLength="82.88" x="640.08" y="989.998">-Double altitude</text><line style="stroke:#A80036;stroke-width:1.6800000000000002;" x1="634.48" x2="738.64" y1="997.185" y2="997.185"/><!--MD5=[20a748d5ee336a9a91751b0a3d4f0beb]
class Cliente--><rect codeLine="81" fill="#FEFECE" filter="url(#f1vp37hyl8bqjn)" height="69.2563" id="Cliente" style="stroke:#A80036;stroke-width:1.6800000000000002;" width="101.92" x="301.84" y="668.64"/><ellipse cx="328.72" cy="686.56" fill="#ADD1B2" rx="12.32" ry="12.32" style="stroke:#A80036;stroke-width:1.12;"/><path d="M330.96,682.64 Q331.1875,682.08 331.45,681.8 Q331.7125,681.52 332.01,681.52 Q332.535,681.52 332.8675,681.835 Q333.2,682.15 333.2,682.885 L333.2,684.635 Q333.2,685.37 332.885,685.685 Q332.57,686 332.08,686 Q331.6425,686 331.3625,685.8075 Q331.0825,685.615 330.96,685.1075 Q330.9075,684.7575 330.715,684.565 Q330.365,684.1975 329.735,683.9875 Q329.105,683.76 328.475,683.76 Q327.6875,683.76 327.0225,684.075 Q326.375,684.39 325.8675,685.09 Q325.36,685.79 325.36,686.7525 L325.36,687.785 Q325.36,688.94 326.305,689.71 Q327.25,690.48 328.93,690.48 Q329.9275,690.48 330.6275,690.2525 Q331.03,690.13 331.485,689.7275 Q331.7825,689.5 331.94,689.43 Q332.0975,689.36 332.29,689.36 Q332.6575,689.36 332.92,689.6575 Q333.2,689.9375 333.2,690.34 Q333.2,690.725 332.815,691.18 Q332.255,691.845 331.3625,692.2125 Q330.19,692.72 328.755,692.72 Q327.075,692.72 325.7275,692.055 Q324.6425,691.53 323.8725,690.3925 Q323.12,689.255 323.12,687.9075 L323.12,686.6825 Q323.12,685.2825 323.785,684.0575 Q324.4675,682.8325 325.64,682.185 Q326.83,681.52 328.16,681.52 Q328.965,681.52 329.665,681.8 Q330.365,682.08 330.96,682.64 Z " fill="#000000"/><text fill="#000000" font-family="sans-serif" font-size="13.44" lengthAdjust="spacing" textLength="43.68" x="346.64" y="692.0594">Cliente</text><line style="stroke:#A80036;stroke-width:1.6800000000000002;" x1="302.96" x2="402.64" y1="704.48" y2="704.48"/><text fill="#000000" font-family="sans-serif" font-size="12.32" lengthAdjust="spacing" textLength="88.48" x="308.56" y="721.7492">-Integer creditos</text><line style="stroke:#A80036;stroke-width:1.6800000000000002;" x1="302.96" x2="402.64" y1="728.9363" y2="728.9363"/><!--MD5=[533e824b6b94274ee39bf5a43d7cce2a]
class EstadoEncomenda--><rect codeLine="85" fill="#FEFECE" filter="url(#f1vp37hyl8bqjn)" height="84.7525" id="EstadoEncomenda" style="stroke:#A80036;stroke-width:1.6800000000000002;" width="166.88" x="380.24" y="1381.52"/><ellipse cx="402.584" cy="1399.44" fill="#ADD1B2" rx="12.32" ry="12.32" style="stroke:#A80036;stroke-width:1.12;"/><path d="M404.824,1395.52 Q405.0515,1394.96 405.314,1394.68 Q405.5765,1394.4 405.874,1394.4 Q406.399,1394.4 406.7315,1394.715 Q407.064,1395.03 407.064,1395.765 L407.064,1397.515 Q407.064,1398.25 406.749,1398.565 Q406.434,1398.88 405.944,1398.88 Q405.5065,1398.88 405.2265,1398.6875 Q404.9465,1398.495 404.824,1397.9875 Q404.7715,1397.6375 404.579,1397.445 Q404.229,1397.0775 403.599,1396.8675 Q402.969,1396.64 402.339,1396.64 Q401.5515,1396.64 400.8865,1396.955 Q400.239,1397.27 399.7315,1397.97 Q399.224,1398.67 399.224,1399.6325 L399.224,1400.665 Q399.224,1401.82 400.169,1402.59 Q401.114,1403.36 402.794,1403.36 Q403.7915,1403.36 404.4915,1403.1325 Q404.894,1403.01 405.349,1402.6075 Q405.6465,1402.38 405.804,1402.31 Q405.9615,1402.24 406.154,1402.24 Q406.5215,1402.24 406.784,1402.5375 Q407.064,1402.8175 407.064,1403.22 Q407.064,1403.605 406.679,1404.06 Q406.119,1404.725 405.2265,1405.0925 Q404.054,1405.6 402.619,1405.6 Q400.939,1405.6 399.5915,1404.935 Q398.5065,1404.41 397.7365,1403.2725 Q396.984,1402.135 396.984,1400.7875 L396.984,1399.5625 Q396.984,1398.1625 397.649,1396.9375 Q398.3315,1395.7125 399.504,1395.065 Q400.694,1394.4 402.024,1394.4 Q402.829,1394.4 403.529,1394.68 Q404.229,1394.96 404.824,1395.52 Z " fill="#000000"/><text fill="#000000" font-family="sans-serif" font-size="13.44" lengthAdjust="spacing" textLength="118.72" x="419.496" y="1404.9394">EstadoEncomenda</text><line style="stroke:#A80036;stroke-width:1.6800000000000002;" x1="381.36" x2="546" y1="1417.36" y2="1417.36"/><text fill="#000000" font-family="sans-serif" font-size="12.32" lengthAdjust="spacing" textLength="153.44" x="386.96" y="1434.6292">-Integer idEstadoEncomenda</text><text fill="#000000" font-family="sans-serif" font-size="12.32" lengthAdjust="spacing" textLength="101.92" x="386.96" y="1450.1255">-String designacao</text><line style="stroke:#A80036;stroke-width:1.6800000000000002;" x1="381.36" x2="546" y1="1457.3125" y2="1457.3125"/><!--MD5=[d4dacc50d49878ba7c621dfc80a2e1ce]
class Produto--><rect codeLine="90" fill="#FEFECE" filter="url(#f1vp37hyl8bqjn)" height="115.745" id="Produto" style="stroke:#A80036;stroke-width:1.6800000000000002;" width="117.6" x="586.32" y="1366.4"/><ellipse cx="618.24" cy="1384.32" fill="#ADD1B2" rx="12.32" ry="12.32" style="stroke:#A80036;stroke-width:1.12;"/><path d="M620.48,1380.4 Q620.7075,1379.84 620.97,1379.56 Q621.2325,1379.28 621.53,1379.28 Q622.055,1379.28 622.3875,1379.595 Q622.72,1379.91 622.72,1380.645 L622.72,1382.395 Q622.72,1383.13 622.405,1383.445 Q622.09,1383.76 621.6,1383.76 Q621.1625,1383.76 620.8825,1383.5675 Q620.6025,1383.375 620.48,1382.8675 Q620.4275,1382.5175 620.235,1382.325 Q619.885,1381.9575 619.255,1381.7475 Q618.625,1381.52 617.995,1381.52 Q617.2075,1381.52 616.5425,1381.835 Q615.895,1382.15 615.3875,1382.85 Q614.88,1383.55 614.88,1384.5125 L614.88,1385.545 Q614.88,1386.7 615.825,1387.47 Q616.77,1388.24 618.45,1388.24 Q619.4475,1388.24 620.1475,1388.0125 Q620.55,1387.89 621.005,1387.4875 Q621.3025,1387.26 621.46,1387.19 Q621.6175,1387.12 621.81,1387.12 Q622.1775,1387.12 622.44,1387.4175 Q622.72,1387.6975 622.72,1388.1 Q622.72,1388.485 622.335,1388.94 Q621.775,1389.605 620.8825,1389.9725 Q619.71,1390.48 618.275,1390.48 Q616.595,1390.48 615.2475,1389.815 Q614.1625,1389.29 613.3925,1388.1525 Q612.64,1387.015 612.64,1385.6675 L612.64,1384.4425 Q612.64,1383.0425 613.305,1381.8175 Q613.9875,1380.5925 615.16,1379.945 Q616.35,1379.28 617.68,1379.28 Q618.485,1379.28 619.185,1379.56 Q619.885,1379.84 620.48,1380.4 Z " fill="#000000"/><text fill="#000000" font-family="sans-serif" font-size="13.44" lengthAdjust="spacing" textLength="48.16" x="637.28" y="1389.8194">Produto</text><line style="stroke:#A80036;stroke-width:1.6800000000000002;" x1="587.44" x2="702.8" y1="1402.24" y2="1402.24"/><text fill="#000000" font-family="sans-serif" font-size="12.32" lengthAdjust="spacing" textLength="95.2" x="593.04" y="1419.5092">-Integer idProduto</text><text fill="#000000" font-family="sans-serif" font-size="12.32" lengthAdjust="spacing" textLength="101.92" x="593.04" y="1435.0055">-String designacao</text><text fill="#000000" font-family="sans-serif" font-size="12.32" lengthAdjust="spacing" textLength="71.68" x="593.04" y="1450.5017">-Double peso</text><text fill="#000000" font-family="sans-serif" font-size="12.32" lengthAdjust="spacing" textLength="104.16" x="593.04" y="1465.998">-Double precoBase</text><line style="stroke:#A80036;stroke-width:1.6800000000000002;" x1="587.44" x2="702.8" y1="1473.185" y2="1473.185"/><!--MD5=[5dd1d6732c071e710b9290b531f2fa3b]
class Utilizador--><rect codeLine="97" fill="#FEFECE" filter="url(#f1vp37hyl8bqjn)" height="131.2413" id="Utilizador" style="stroke:#A80036;stroke-width:1.6800000000000002;" width="190.4" x="403.2" y="882.56"/><ellipse cx="465.08" cy="900.48" fill="#ADD1B2" rx="12.32" ry="12.32" style="stroke:#A80036;stroke-width:1.12;"/><path d="M467.32,896.56 Q467.5475,896 467.81,895.72 Q468.0725,895.44 468.37,895.44 Q468.895,895.44 469.2275,895.755 Q469.56,896.07 469.56,896.805 L469.56,898.555 Q469.56,899.29 469.245,899.605 Q468.93,899.92 468.44,899.92 Q468.0025,899.92 467.7225,899.7275 Q467.4425,899.535 467.32,899.0275 Q467.2675,898.6775 467.075,898.485 Q466.725,898.1175 466.095,897.9075 Q465.465,897.68 464.835,897.68 Q464.0475,897.68 463.3825,897.995 Q462.735,898.31 462.2275,899.01 Q461.72,899.71 461.72,900.6725 L461.72,901.705 Q461.72,902.86 462.665,903.63 Q463.61,904.4 465.29,904.4 Q466.2875,904.4 466.9875,904.1725 Q467.39,904.05 467.845,903.6475 Q468.1425,903.42 468.3,903.35 Q468.4575,903.28 468.65,903.28 Q469.0175,903.28 469.28,903.5775 Q469.56,903.8575 469.56,904.26 Q469.56,904.645 469.175,905.1 Q468.615,905.765 467.7225,906.1325 Q466.55,906.64 465.115,906.64 Q463.435,906.64 462.0875,905.975 Q461.0025,905.45 460.2325,904.3125 Q459.48,903.175 459.48,901.8275 L459.48,900.6025 Q459.48,899.2025 460.145,897.9775 Q460.8275,896.7525 462,896.105 Q463.19,895.44 464.52,895.44 Q465.325,895.44 466.025,895.72 Q466.725,896 467.32,896.56 Z " fill="#000000"/><text fill="#000000" font-family="sans-serif" font-size="13.44" lengthAdjust="spacing" textLength="57.12" x="488.04" y="905.9794">Utilizador</text><line style="stroke:#A80036;stroke-width:1.6800000000000002;" x1="404.32" x2="592.48" y1="918.4" y2="918.4"/><text fill="#000000" font-family="sans-serif" font-size="12.32" lengthAdjust="spacing" textLength="61.6" x="409.92" y="935.6692">-Integer NIF</text><text fill="#000000" font-family="sans-serif" font-size="12.32" lengthAdjust="spacing" textLength="68.32" x="409.92" y="951.1655">-String nome</text><text fill="#000000" font-family="sans-serif" font-size="12.32" lengthAdjust="spacing" textLength="66.08" x="409.92" y="966.6617">-String email</text><text fill="#000000" font-family="sans-serif" font-size="12.32" lengthAdjust="spacing" textLength="176.96" x="409.92" y="982.158">-Integer numeroSegurancaSocial</text><text fill="#000000" font-family="sans-serif" font-size="12.32" lengthAdjust="spacing" textLength="95.2" x="409.92" y="997.6542">-String password</text><line style="stroke:#A80036;stroke-width:1.6800000000000002;" x1="404.32" x2="592.48" y1="1004.8413" y2="1004.8413"/><!--MD5=[8505c5852735283b5a8424161266bb9f]
class Veiculo--><rect codeLine="105" fill="#FEFECE" filter="url(#f1vp37hyl8bqjn)" height="177.73" id="Veiculo" style="stroke:#A80036;stroke-width:1.6800000000000002;" width="166.88" x="1088.08" y="1100.96"/><ellipse cx="1144.36" cy="1118.88" fill="#ADD1B2" rx="12.32" ry="12.32" style="stroke:#A80036;stroke-width:1.12;"/><path d="M1146.6,1114.96 Q1146.8275,1114.4 1147.09,1114.12 Q1147.3525,1113.84 1147.65,1113.84 Q1148.175,1113.84 1148.5075,1114.155 Q1148.84,1114.47 1148.84,1115.205 L1148.84,1116.955 Q1148.84,1117.69 1148.525,1118.005 Q1148.21,1118.32 1147.72,1118.32 Q1147.2825,1118.32 1147.0025,1118.1275 Q1146.7225,1117.935 1146.6,1117.4275 Q1146.5475,1117.0775 1146.355,1116.885 Q1146.005,1116.5175 1145.375,1116.3075 Q1144.745,1116.08 1144.115,1116.08 Q1143.3275,1116.08 1142.6625,1116.395 Q1142.015,1116.71 1141.5075,1117.41 Q1141,1118.11 1141,1119.0725 L1141,1120.105 Q1141,1121.26 1141.945,1122.03 Q1142.89,1122.8 1144.57,1122.8 Q1145.5675,1122.8 1146.2675,1122.5725 Q1146.67,1122.45 1147.125,1122.0475 Q1147.4225,1121.82 1147.58,1121.75 Q1147.7375,1121.68 1147.93,1121.68 Q1148.2975,1121.68 1148.56,1121.9775 Q1148.84,1122.2575 1148.84,1122.66 Q1148.84,1123.045 1148.455,1123.5 Q1147.895,1124.165 1147.0025,1124.5325 Q1145.83,1125.04 1144.395,1125.04 Q1142.715,1125.04 1141.3675,1124.375 Q1140.2825,1123.85 1139.5125,1122.7125 Q1138.76,1121.575 1138.76,1120.2275 L1138.76,1119.0025 Q1138.76,1117.6025 1139.425,1116.3775 Q1140.1075,1115.1525 1141.28,1114.505 Q1142.47,1113.84 1143.8,1113.84 Q1144.605,1113.84 1145.305,1114.12 Q1146.005,1114.4 1146.6,1114.96 Z " fill="#000000"/><text fill="#000000" font-family="sans-serif" font-size="13.44" lengthAdjust="spacing" textLength="44.8" x="1167.32" y="1124.3794">Veiculo</text><line style="stroke:#A80036;stroke-width:1.6800000000000002;" x1="1089.2" x2="1253.84" y1="1136.8" y2="1136.8"/><text fill="#000000" font-family="sans-serif" font-size="12.32" lengthAdjust="spacing" textLength="91.84" x="1094.8" y="1154.0692">-Integer idveiculo</text><text fill="#000000" font-family="sans-serif" font-size="12.32" lengthAdjust="spacing" textLength="92.96" x="1094.8" y="1169.5655">-String descricao</text><text fill="#000000" font-family="sans-serif" font-size="12.32" lengthAdjust="spacing" textLength="107.52" x="1094.8" y="1185.0617">-Double capacidade</text><text fill="#000000" font-family="sans-serif" font-size="12.32" lengthAdjust="spacing" textLength="153.44" x="1094.8" y="1200.558">-Double percentagemBateria</text><text fill="#000000" font-family="sans-serif" font-size="12.32" lengthAdjust="spacing" textLength="112" x="1094.8" y="1216.0542">-Double pesoMaximo</text><text fill="#000000" font-family="sans-serif" font-size="12.32" lengthAdjust="spacing" textLength="112" x="1094.8" y="1231.5505">-Double pesoVeiculo</text><text fill="#000000" font-family="sans-serif" font-size="12.32" lengthAdjust="spacing" textLength="90.72" x="1094.8" y="1247.0467">-Double potencia</text><text fill="#000000" font-family="sans-serif" font-size="12.32" lengthAdjust="spacing" textLength="106.4" x="1094.8" y="1262.543">-Double areaFrontal</text><line style="stroke:#A80036;stroke-width:1.6800000000000002;" x1="1089.2" x2="1253.84" y1="1269.73" y2="1269.73"/><!--MD5=[2e3f1e60e74253ff42e47f8bfdb04ee2]
class Drone--><rect codeLine="116" fill="#FEFECE" filter="url(#f1vp37hyl8bqjn)" height="84.7525" id="Drone" style="stroke:#A80036;stroke-width:1.6800000000000002;" width="99.68" x="1194.48" y="1381.52"/><ellipse cx="1222.872" cy="1399.44" fill="#ADD1B2" rx="12.32" ry="12.32" style="stroke:#A80036;stroke-width:1.12;"/><path d="M1225.112,1395.52 Q1225.3395,1394.96 1225.602,1394.68 Q1225.8645,1394.4 1226.162,1394.4 Q1226.687,1394.4 1227.0195,1394.715 Q1227.352,1395.03 1227.352,1395.765 L1227.352,1397.515 Q1227.352,1398.25 1227.037,1398.565 Q1226.722,1398.88 1226.232,1398.88 Q1225.7945,1398.88 1225.5145,1398.6875 Q1225.2345,1398.495 1225.112,1397.9875 Q1225.0595,1397.6375 1224.867,1397.445 Q1224.517,1397.0775 1223.887,1396.8675 Q1223.257,1396.64 1222.627,1396.64 Q1221.8395,1396.64 1221.1745,1396.955 Q1220.527,1397.27 1220.0195,1397.97 Q1219.512,1398.67 1219.512,1399.6325 L1219.512,1400.665 Q1219.512,1401.82 1220.457,1402.59 Q1221.402,1403.36 1223.082,1403.36 Q1224.0795,1403.36 1224.7795,1403.1325 Q1225.182,1403.01 1225.637,1402.6075 Q1225.9345,1402.38 1226.092,1402.31 Q1226.2495,1402.24 1226.442,1402.24 Q1226.8095,1402.24 1227.072,1402.5375 Q1227.352,1402.8175 1227.352,1403.22 Q1227.352,1403.605 1226.967,1404.06 Q1226.407,1404.725 1225.5145,1405.0925 Q1224.342,1405.6 1222.907,1405.6 Q1221.227,1405.6 1219.8795,1404.935 Q1218.7945,1404.41 1218.0245,1403.2725 Q1217.272,1402.135 1217.272,1400.7875 L1217.272,1399.5625 Q1217.272,1398.1625 1217.937,1396.9375 Q1218.6195,1395.7125 1219.792,1395.065 Q1220.982,1394.4 1222.312,1394.4 Q1223.117,1394.4 1223.817,1394.68 Q1224.517,1394.96 1225.112,1395.52 Z " fill="#000000"/><text fill="#000000" font-family="sans-serif" font-size="13.44" lengthAdjust="spacing" textLength="38.08" x="1241.128" y="1404.9394">Drone</text><line style="stroke:#A80036;stroke-width:1.6800000000000002;" x1="1195.6" x2="1293.04" y1="1417.36" y2="1417.36"/><text fill="#000000" font-family="sans-serif" font-size="12.32" lengthAdjust="spacing" textLength="86.24" x="1201.2" y="1434.6292">-Integer idDrone</text><text fill="#000000" font-family="sans-serif" font-size="12.32" lengthAdjust="spacing" textLength="82.88" x="1201.2" y="1450.1255">-Double largura</text><line style="stroke:#A80036;stroke-width:1.6800000000000002;" x1="1195.6" x2="1293.04" y1="1457.3125" y2="1457.3125"/><!--MD5=[6613c9cd406ef433ff06f5e98b28abd9]
class Farmacia--><rect codeLine="121" fill="#FEFECE" filter="url(#f1vp37hyl8bqjn)" height="84.7525" id="Farmacia" style="stroke:#A80036;stroke-width:1.6800000000000002;" width="94.08" x="827.68" y="660.8"/><ellipse cx="844.48" cy="678.72" fill="#ADD1B2" rx="12.32" ry="12.32" style="stroke:#A80036;stroke-width:1.12;"/><path d="M846.72,674.8 Q846.9475,674.24 847.21,673.96 Q847.4725,673.68 847.77,673.68 Q848.295,673.68 848.6275,673.995 Q848.96,674.31 848.96,675.045 L848.96,676.795 Q848.96,677.53 848.645,677.845 Q848.33,678.16 847.84,678.16 Q847.4025,678.16 847.1225,677.9675 Q846.8425,677.775 846.72,677.2675 Q846.6675,676.9175 846.475,676.725 Q846.125,676.3575 845.495,676.1475 Q844.865,675.92 844.235,675.92 Q843.4475,675.92 842.7825,676.235 Q842.135,676.55 841.6275,677.25 Q841.12,677.95 841.12,678.9125 L841.12,679.945 Q841.12,681.1 842.065,681.87 Q843.01,682.64 844.69,682.64 Q845.6875,682.64 846.3875,682.4125 Q846.79,682.29 847.245,681.8875 Q847.5425,681.66 847.7,681.59 Q847.8575,681.52 848.05,681.52 Q848.4175,681.52 848.68,681.8175 Q848.96,682.0975 848.96,682.5 Q848.96,682.885 848.575,683.34 Q848.015,684.005 847.1225,684.3725 Q845.95,684.88 844.515,684.88 Q842.835,684.88 841.4875,684.215 Q840.4025,683.69 839.6325,682.5525 Q838.88,681.415 838.88,680.0675 L838.88,678.8425 Q838.88,677.4425 839.545,676.2175 Q840.2275,674.9925 841.4,674.345 Q842.59,673.68 843.92,673.68 Q844.725,673.68 845.425,673.96 Q846.125,674.24 846.72,674.8 Z " fill="#000000"/><text fill="#000000" font-family="sans-serif" font-size="13.44" lengthAdjust="spacing" textLength="58.24" x="860.16" y="684.2194">Farmacia</text><line style="stroke:#A80036;stroke-width:1.6800000000000002;" x1="828.8" x2="920.64" y1="696.64" y2="696.64"/><text fill="#000000" font-family="sans-serif" font-size="12.32" lengthAdjust="spacing" textLength="61.6" x="834.4" y="713.9092">-Integer NIF</text><text fill="#000000" font-family="sans-serif" font-size="12.32" lengthAdjust="spacing" textLength="66.08" x="834.4" y="729.4055">-String email</text><line style="stroke:#A80036;stroke-width:1.6800000000000002;" x1="828.8" x2="920.64" y1="736.5925" y2="736.5925"/><!--MD5=[1593fa6ac82b73031c98001dcbb43056]
link RegistarEntregaUI to RegistarEntregaController--><path codeLine="126" d="M573.44,61.8352 C573.44,78.3104 573.44,100.8 573.44,123.8384 " fill="none" id="RegistarEntregaUI-to-RegistarEntregaController" style="stroke:#A80036;stroke-width:1.12;stroke-dasharray:7.0,7.0;"/><polygon fill="#A80036" points="573.44,129.696,577.92,119.616,573.44,124.096,568.96,119.616,573.44,129.696" style="stroke:#A80036;stroke-width:1.12;"/><!--MD5=[f3f72dc95338026d83cf258b0336abf9]
link RegistarEntregaController to EstafetaDB--><path codeLine="128" d="M573.44,323.9936 C573.44,351.4 573.44,379.7584 573.44,401.7216 " fill="none" id="RegistarEntregaController-to-EstafetaDB" style="stroke:#A80036;stroke-width:1.12;stroke-dasharray:7.0,7.0;"/><polygon fill="#A80036" points="573.44,407.456,577.92,397.376,573.44,401.856,568.96,397.376,573.44,407.456" style="stroke:#A80036;stroke-width:1.12;"/><!--MD5=[c4ee7c2502e62de156616eca66236bb0]
link RegistarEntregaController to EnderecoDB--><path codeLine="129" d="M516.7232,323.9376 C505.4,345.8 494.4352,369.2864 486.08,392 C470.6688,433.8768 460.2192,483.4032 453.824,520.464 " fill="none" id="RegistarEntregaController-to-EnderecoDB" style="stroke:#A80036;stroke-width:1.12;stroke-dasharray:7.0,7.0;"/><polygon fill="#A80036" points="452.8384,526.2992,458.9535,517.1186,453.7824,520.7793,450.1217,515.6083,452.8384,526.2992" style="stroke:#A80036;stroke-width:1.12;"/><!--MD5=[f320307c57c5190d0fa79ae2b4d97c8e]
link RegistarEntregaController to FarmaciaDB--><path codeLine="130" d="M648.5808,323.9936 C670.2976,351.7584 692.7648,380.4864 710.0352,402.5616 " fill="none" id="RegistarEntregaController-to-FarmaciaDB" style="stroke:#A80036;stroke-width:1.12;stroke-dasharray:7.0,7.0;"/><polygon fill="#A80036" points="713.8656,407.456,711.1812,396.7569,710.4143,403.046,704.1252,402.279,713.8656,407.456" style="stroke:#A80036;stroke-width:1.12;"/><!--MD5=[51c8078cdce16ec2931503df013aa567]
link RegistarEntregaController to EntregaDB--><path codeLine="131" d="M718.2896,323.8928 C751.6992,346.1584 787.0576,369.8352 819.84,392 C889.4144,439.0288 968.6768,493.5392 1022.784,530.8912 " fill="none" id="RegistarEntregaController-to-EntregaDB" style="stroke:#A80036;stroke-width:1.12;stroke-dasharray:7.0,7.0;"/><polygon fill="#A80036" points="1027.6112,534.2288,1021.8429,524.8265,1022.9966,531.0562,1016.7668,532.2099,1027.6112,534.2288" style="stroke:#A80036;stroke-width:1.12;"/><!--MD5=[d9064612604f914b9782a6af88293211]
link RegistarEntregaController to EncomendaDB--><path codeLine="132" d="M492.9792,323.68 C444.416,381.8976 381.5952,457.9568 327.04,526.4 C256.9728,614.2976 177.0384,719.432 135.2736,774.7376 " fill="none" id="RegistarEntregaController-to-EncomendaDB" style="stroke:#A80036;stroke-width:1.12;stroke-dasharray:7.0,7.0;"/><polygon fill="#A80036" points="131.8464,779.2848,141.4998,773.9474,135.2243,774.8183,134.3534,768.5427,131.8464,779.2848" style="stroke:#A80036;stroke-width:1.12;"/><!--MD5=[e3047c0947376f82d5af689ab4f30ae6]
link RegistarEntregaController to VeiculoDB--><path codeLine="133" d="M822.6624,256.6144 C996.2176,290.584 1217.4624,364.728 1338.4,526.4 C1392.8992,599.2672 1382.3264,713.5632 1371.6864,773.472 " fill="none" id="RegistarEntregaController-to-VeiculoDB" style="stroke:#A80036;stroke-width:1.12;stroke-dasharray:7.0,7.0;"/><polygon fill="#A80036" points="1370.656,779.0944,1376.8786,769.9863,1371.6648,773.586,1368.0651,768.3723,1370.656,779.0944" style="stroke:#A80036;stroke-width:1.12;"/><!--MD5=[13e18cca587fedea4b01b5758c9bdbf6]
link RegistarEntregaController to SessaoUtilizador--><path codeLine="134" d="M323.8704,304.4496 C285.656,319.8272 247.4416,337.4672 212.8,357.28 C197.7024,365.9152 182.6384,376.88 168.9408,388.0016 " fill="none" id="RegistarEntregaController-to-SessaoUtilizador" style="stroke:#A80036;stroke-width:1.12;stroke-dasharray:7.0,7.0;"/><polygon fill="#A80036" points="164.3488,391.776,174.9801,388.8346,168.6744,388.2194,169.2896,381.9137,164.3488,391.776" style="stroke:#A80036;stroke-width:1.12;"/><!--MD5=[4c7211caded616e3e77a70a7b669ae10]
link EntregaDB to Entrega--><path codeLine="136" d="M1080.9568,619.5392 C1070.7648,684.1072 1051.0752,808.8528 1039.1584,884.3408 " fill="none" id="EntregaDB-to-Entrega" style="stroke:#A80036;stroke-width:1.12;"/><polygon fill="#A80036" points="1038.2512,890.1424,1044.2361,880.8764,1039.1172,884.6098,1035.3839,879.4909,1038.2512,890.1424" style="stroke:#A80036;stroke-width:1.12;"/><text fill="#000000" font-family="sans-serif" font-size="14.56" lengthAdjust="spacing" textLength="96.32" x="1074.08" y="709.5145">tem registadas</text><text fill="#000000" font-family="sans-serif" font-size="14.56" lengthAdjust="spacing" textLength="7.84" x="1071.446" y="642.954">1</text><text fill="#000000" font-family="sans-serif" font-size="14.56" lengthAdjust="spacing" textLength="5.6" x="1033.4805" y="878.3482">*</text><!--MD5=[a3e63c72779e49a48819b249af53bae4]
link EstafetaDB to Estafeta--><path codeLine="137" d="M569.5312,477.2544 C566.7424,516.4768 567.6608,581.6384 596.96,627.2 C609.28,646.3632 628.4096,661.4496 647.8528,672.9184 " fill="none" id="EstafetaDB-to-Estafeta" style="stroke:#A80036;stroke-width:1.12;"/><polygon fill="#A80036" points="652.8032,675.7632,646.2803,666.8678,647.943,672.9814,641.8294,674.6441,652.8032,675.7632" style="stroke:#A80036;stroke-width:1.12;"/><text fill="#000000" font-family="sans-serif" font-size="14.56" lengthAdjust="spacing" textLength="96.32" x="598.08" y="582.9545">tem registadas</text><text fill="#000000" font-family="sans-serif" font-size="14.56" lengthAdjust="spacing" textLength="7.84" x="560.1499" y="501.0517">1</text><text fill="#000000" font-family="sans-serif" font-size="14.56" lengthAdjust="spacing" textLength="5.6" x="638.5014" y="668.3109">*</text><!--MD5=[7177515c401312a3f4890a50ab42ecc9]
link EncomendaDB to Encomenda--><path codeLine="138" d="M96.9136,848.9824 C87.1248,891.1168 77.392,963.816 109.76,1013.6 C175.8512,1115.2512 317.4864,1158.9536 407.2208,1176.9968 " fill="none" id="EncomendaDB-to-Encomenda" style="stroke:#A80036;stroke-width:1.12;"/><polygon fill="#A80036" points="413.056,1178.1504,404.0361,1171.8007,407.5623,1177.0644,402.2986,1180.5906,413.056,1178.1504" style="stroke:#A80036;stroke-width:1.12;"/><text fill="#000000" font-family="sans-serif" font-size="14.56" lengthAdjust="spacing" textLength="96.32" x="110.88" y="954.2345">tem registadas</text><text fill="#000000" font-family="sans-serif" font-size="14.56" lengthAdjust="spacing" textLength="7.84" x="86.4342" y="872.7577">1</text><text fill="#000000" font-family="sans-serif" font-size="14.56" lengthAdjust="spacing" textLength="5.6" x="398.5594" y="1172.95">*</text><!--MD5=[c023e2c3fa599b931e4bde319636976a]
link EnderecoDB to Endereco--><path codeLine="139" d="M461.0144,627.4576 C474.7568,664.6192 498.3776,714.3136 534.24,745.92 C566.1488,774.0432 593.768,749.4368 623.84,779.52 C652.064,807.7552 667.7664,849.8896 676.3904,884.8224 " fill="none" id="EnderecoDB-to-Endereco" style="stroke:#A80036;stroke-width:1.12;"/><polygon fill="#A80036" points="677.7232,890.3664,679.7452,879.5226,676.4254,884.9189,671.0291,881.5991,677.7232,890.3664" style="stroke:#A80036;stroke-width:1.12;"/><text fill="#000000" font-family="sans-serif" font-size="14.56" lengthAdjust="spacing" textLength="96.32" x="535.36" y="709.5145">tem registadas</text><text fill="#000000" font-family="sans-serif" font-size="14.56" lengthAdjust="spacing" textLength="7.84" x="454.6975" y="650.6467">1</text><text fill="#000000" font-family="sans-serif" font-size="14.56" lengthAdjust="spacing" textLength="5.6" x="670.4868" y="878.1856">*</text><!--MD5=[3c539b0dd2212e8322efef71ee8cdfc2]
link FarmaciaDB to Farmacia--><path codeLine="140" d="M724.4272,477.1648 C708.3552,516.5888 689.864,582.232 720.16,627.2 C742.3696,660.1616 767.3344,643.3392 803.04,660.8 C809.424,663.9136 816.0096,667.3744 822.4832,670.9248 " fill="none" id="FarmaciaDB-to-Farmacia" style="stroke:#A80036;stroke-width:1.12;"/><polygon fill="#A80036" points="827.4112,673.6576,820.7534,664.8627,822.5091,670.9502,816.4216,672.706,827.4112,673.6576" style="stroke:#A80036;stroke-width:1.12;"/><text fill="#000000" font-family="sans-serif" font-size="14.56" lengthAdjust="spacing" textLength="96.32" x="721.28" y="582.9545">tem registadas</text><text fill="#000000" font-family="sans-serif" font-size="14.56" lengthAdjust="spacing" textLength="7.84" x="712.6866" y="500.9445">1</text><text fill="#000000" font-family="sans-serif" font-size="14.56" lengthAdjust="spacing" textLength="5.6" x="813.1988" y="664.2725">*</text><!--MD5=[6355171bb87232b3a58c2e48ef243e25]
link VeiculoDB to Veiculo--><path codeLine="141" d="M1345.7024,849.1616 C1317.456,904.2544 1260.5264,1015.28 1219.4336,1095.4384 " fill="none" id="VeiculoDB-to-Veiculo" style="stroke:#A80036;stroke-width:1.12;"/><polygon fill="#A80036" points="1216.7456,1100.6688,1225.3231,1093.7331,1219.2948,1095.6827,1217.3452,1089.6544,1216.7456,1100.6688" style="stroke:#A80036;stroke-width:1.12;"/><text fill="#000000" font-family="sans-serif" font-size="14.56" lengthAdjust="spacing" textLength="96.32" x="1329.44" y="954.2345">tem registadas</text><text fill="#000000" font-family="sans-serif" font-size="14.56" lengthAdjust="spacing" textLength="7.84" x="1333.6773" y="872.9722">1</text><text fill="#000000" font-family="sans-serif" font-size="14.56" lengthAdjust="spacing" textLength="5.6" x="1215.0567" y="1088.8364">*</text><!--MD5=[aa5a8ec5fd097e3d415964f18fa48efb]
link Estafeta to Utilizador--><path codeLine="143" d="M652.7136,729.7472 C627.6704,741.8992 600.2976,758.464 580.16,779.52 C552.4288,808.5056 532.3808,848.7024 519.0864,882.4368 " fill="none" id="Estafeta-Utilizador" style="stroke:#A80036;stroke-width:1.12;"/><polygon fill="#000000" points="582.072,818.651,591.2206,813.1953,586.2667,808.8598,582.072,818.651" style="stroke:#000000;stroke-width:1.12;"/><text fill="#000000" font-family="sans-serif" font-size="14.56" lengthAdjust="spacing" textLength="68.32" x="595.84" y="820.3945">atua como</text><text fill="#000000" font-family="sans-serif" font-size="14.56" lengthAdjust="spacing" textLength="7.84" x="636.0168" y="729.2116">1</text><text fill="#000000" font-family="sans-serif" font-size="14.56" lengthAdjust="spacing" textLength="7.84" x="513.2898" y="870.5508">1</text><!--MD5=[00a2b7b20e7d7828fa181bc7c0dc6998]
link Cliente to Utilizador--><path codeLine="144" d="M331.3072,738.1584 C314.6864,768.88 297.64,814.5872 318.08,848.96 C320.8352,853.5968 361.2672,875.7392 403.144,897.8032 " fill="none" id="Cliente-Utilizador" style="stroke:#A80036;stroke-width:1.12;"/><polygon fill="#000000" points="325.978,819.5437,324.8226,808.9547,318.8192,811.6561,325.978,819.5437" style="stroke:#000000;stroke-width:1.12;"/><text fill="#000000" font-family="sans-serif" font-size="14.56" lengthAdjust="spacing" textLength="68.32" x="333.76" y="820.3945">atua como</text><text fill="#000000" font-family="sans-serif" font-size="14.56" lengthAdjust="spacing" textLength="7.84" x="327.8476" y="761.9447">1</text><text fill="#000000" font-family="sans-serif" font-size="14.56" lengthAdjust="spacing" textLength="7.84" x="386.4711" y="889.7305">1</text><!--MD5=[460034a14c91c8062cdb3d6e7324968c]
link Veiculo to Drone--><path codeLine="145" d="M1199.1504,1279.096 C1210.1712,1314.1968 1222.3344,1352.9264 1231.2608,1381.352 " fill="none" id="Veiculo-Drone" style="stroke:#A80036;stroke-width:1.12;"/><polygon fill="#000000" points="1218.0023,1317.5741,1217.8969,1328.2254,1224.1777,1326.2531,1218.0023,1317.5741" style="stroke:#000000;stroke-width:1.12;"/><text fill="#000000" font-family="sans-serif" font-size="14.56" lengthAdjust="spacing" textLength="7.84" x="1229.76" y="1328.8745"></text><text fill="#000000" font-family="sans-serif" font-size="14.56" lengthAdjust="spacing" textLength="7.84" x="1193.348" y="1302.6692">1</text><text fill="#000000" font-family="sans-serif" font-size="14.56" lengthAdjust="spacing" textLength="7.84" x="1220.3964" y="1369.4074">1</text><!--MD5=[0fa340c3d135fb564aedca6a2c40d6f7]
link Veiculo to Scooter--><path codeLine="146" d="M1144.3152,1279.096 C1132.432,1317.5232 1119.2048,1360.3184 1110.2896,1389.1584 " fill="none" id="Veiculo-Scooter" style="stroke:#A80036;stroke-width:1.12;"/><polygon fill="#000000" points="1140.694,1317.5667,1134.5571,1326.2731,1140.8466,1328.2174,1140.694,1317.5667" style="stroke:#000000;stroke-width:1.12;"/><text fill="#000000" font-family="sans-serif" font-size="14.56" lengthAdjust="spacing" textLength="7.84" x="1149.12" y="1328.8745"></text><text fill="#000000" font-family="sans-serif" font-size="14.56" lengthAdjust="spacing" textLength="7.84" x="1133.8004" y="1302.6692">1</text><text fill="#000000" font-family="sans-serif" font-size="14.56" lengthAdjust="spacing" textLength="7.84" x="1103.7963" y="1377.3619">1</text><!--MD5=[cd2aeefe8c457d184a69396a9f9cb06a]
link Entrega to Veiculo--><path codeLine="147" d="M1052.3184,1005.9728 C1061.0992,1025.8304 1071.7392,1047.9952 1083.04,1067.36 C1089.48,1078.4032 1096.704,1089.6704 1104.1632,1100.68 " fill="none" id="Entrega-Veiculo" style="stroke:#A80036;stroke-width:1.12;"/><polygon fill="#000000" points="1085.951,1052.5647,1087.9282,1063.0314,1093.7027,1059.8703,1085.951,1052.5647" style="stroke:#000000;stroke-width:1.12;"/><text fill="#000000" font-family="sans-serif" font-size="14.56" lengthAdjust="spacing" textLength="42.56" x="1098.72" y="1063.4345">realiza</text><text fill="#000000" font-family="sans-serif" font-size="14.56" lengthAdjust="spacing" textLength="5.6" x="1049.4379" y="1030.0713">*</text><text fill="#000000" font-family="sans-serif" font-size="14.56" lengthAdjust="spacing" textLength="7.84" x="1089.7524" y="1088.8486">1</text><!--MD5=[60097591193c89dbde5dfd99b98b5263]
link Encomenda to Produto--><path codeLine="148" d="M531.1936,1255.6992 C554.8256,1290.3968 583.6992,1332.8 606.4688,1366.2208 " fill="none" id="Encomenda-Produto" style="stroke:#A80036;stroke-width:1.12;"/><polygon fill="#000000" points="590.0324,1327.5453,587.0502,1317.3195,581.6091,1321.0253,590.0324,1327.5453" style="stroke:#000000;stroke-width:1.12;"/><text fill="#000000" font-family="sans-serif" font-size="14.56" lengthAdjust="spacing" textLength="24.64" x="596.96" y="1328.8745">tem</text><text fill="#000000" font-family="sans-serif" font-size="14.56" lengthAdjust="spacing" textLength="7.84" x="528.2376" y="1279.9246">1</text><text fill="#000000" font-family="sans-serif" font-size="14.56" lengthAdjust="spacing" textLength="5.6" x="595.2988" y="1354.4371">*</text><!--MD5=[39609d66ce6d06d1779a14455c909f6f]
link Entrega to Encomenda--><path codeLine="149" d="M985.1296,1005.816 C965.44,1027.7904 940.6432,1051.4336 913.92,1067.36 C801.4272,1134.392 650.1712,1165.9872 561.232,1179.6512 " fill="none" id="Entrega-Encomenda" style="stroke:#A80036;stroke-width:1.12;"/><polygon fill="#000000" points="938.9787,1059.6016,949.6006,1058.8034,947.1028,1052.7124,938.9787,1059.6016" style="stroke:#000000;stroke-width:1.12;"/><text fill="#000000" font-family="sans-serif" font-size="14.56" lengthAdjust="spacing" textLength="42.56" x="954.24" y="1063.4345">possui</text><text fill="#000000" font-family="sans-serif" font-size="14.56" lengthAdjust="spacing" textLength="7.84" x="970.5297" y="1030.3103">1</text><text fill="#000000" font-family="sans-serif" font-size="14.56" lengthAdjust="spacing" textLength="5.6" x="570.1157" y="1174.6243">*</text><!--MD5=[328dae9b2f192140d45e51cd90ecd75a]
link Estafeta to Entrega--><path codeLine="150" d="M702.5648,738.248 C690.4464,770.5824 679.504,818.776 705.6,848.96 C739.3232,887.9696 887.1744,863.7776 935.2,882.56 C945.5264,886.592 955.8304,891.9456 965.6416,897.848 " fill="none" id="Estafeta-Entrega" style="stroke:#A80036;stroke-width:1.12;"/><polygon fill="#000000" points="715.9878,817.3415,709.0339,809.2728,705.6193,814.9012,715.9878,817.3415" style="stroke:#000000;stroke-width:1.12;"/><text fill="#000000" font-family="sans-serif" font-size="14.56" lengthAdjust="spacing" textLength="42.56" x="721.28" y="820.3945">realiza</text><text fill="#000000" font-family="sans-serif" font-size="14.56" lengthAdjust="spacing" textLength="7.84" x="690.93" y="762.052">1</text><text fill="#000000" font-family="sans-serif" font-size="14.56" lengthAdjust="spacing" textLength="5.6" x="951.5292" y="887.4591">*</text><!--MD5=[43a7c1a046aa41d1c9842e3954366be4]
link Cliente to Endereco--><path codeLine="151" d="M379.9712,738.3824 C410.9504,776.2384 460.4432,834.1424 484.96,848.96 C535.1808,879.312 560.784,855.0976 612.64,882.56 C619.7072,886.3008 626.6736,890.848 633.3376,895.7648 " fill="none" id="Cliente-Endereco" style="stroke:#A80036;stroke-width:1.12;"/><polygon fill="#000000" points="495.317,817.3917,488.4484,809.2503,484.9747,814.8424,495.317,817.3917" style="stroke:#000000;stroke-width:1.12;"/><text fill="#000000" font-family="sans-serif" font-size="14.56" lengthAdjust="spacing" textLength="24.64" x="500.64" y="820.3945">tem</text><text fill="#000000" font-family="sans-serif" font-size="14.56" lengthAdjust="spacing" textLength="7.84" x="376.5635" y="761.9361">1</text><text fill="#000000" font-family="sans-serif" font-size="14.56" lengthAdjust="spacing" textLength="7.84" x="616.3905" y="883.1943">1</text><!--MD5=[beec9e5f2ed2709028dd31c1dc478e7b]
link Cliente to Encomenda--><path codeLine="152" d="M324.9904,738.3264 C315.9632,750.68 306.6336,765.1504 300.16,779.52 C257.1968,874.8992 231,918.9376 275.52,1013.6 C303.8448,1073.8336 364.1568,1120.4704 413.1792,1150.4416 " fill="none" id="Cliente-Encomenda" style="stroke:#A80036;stroke-width:1.12;"/><polygon fill="#000000" points="282.2918,953.7529,283.3907,943.1579,276.9533,944.5355,282.2918,953.7529" style="stroke:#000000;stroke-width:1.12;"/><text fill="#000000" font-family="sans-serif" font-size="14.56" lengthAdjust="spacing" textLength="90.72" x="291.2" y="954.2345">realiza e paga</text><text fill="#000000" font-family="sans-serif" font-size="14.56" lengthAdjust="spacing" textLength="7.84" x="311.1019" y="761.8694">1</text><text fill="#000000" font-family="sans-serif" font-size="14.56" lengthAdjust="spacing" textLength="5.6" x="398.6968" y="1142.0373">*</text><!--MD5=[5a27d3a82ae5518cc3aa88a6b9414b77]
link Farmacia to Encomenda--><path codeLine="153" d="M875.4032,745.9872 C874.72,775.4432 871.4272,815.5168 860.16,848.96 C832.776,930.272 819.336,952.2464 759.36,1013.6 C701.4112,1072.8816 619.8976,1122.0384 561.1984,1153.0624 " fill="none" id="Farmacia-Encomenda" style="stroke:#A80036;stroke-width:1.12;"/><polygon fill="#000000" points="850.0183,952.7099,858.8139,946.7017,853.6025,942.6792,850.0183,952.7099" style="stroke:#000000;stroke-width:1.12;"/><text fill="#000000" font-family="sans-serif" font-size="14.56" lengthAdjust="spacing" textLength="24.64" x="863.52" y="954.2345">tem</text><text fill="#000000" font-family="sans-serif" font-size="14.56" lengthAdjust="spacing" textLength="7.84" x="867.0271" y="769.7089">1</text><text fill="#000000" font-family="sans-serif" font-size="14.56" lengthAdjust="spacing" textLength="5.6" x="570.0782" y="1144.9612">*</text><!--MD5=[79d5a61b37419f60a30a60f3bc0e499f]
link Farmacia to Veiculo--><path codeLine="154" d="M922.1296,726.7568 C976.864,755.048 1065.344,809.1328 1112.16,882.56 C1153.8016,947.8784 1167.4432,1035.7984 1171.3744,1100.7024 " fill="none" id="Farmacia-Veiculo" style="stroke:#A80036;stroke-width:1.12;"/><polygon fill="#000000" points="1167.9059,952.9367,1165.0262,942.6814,1159.5483,946.3326,1167.9059,952.9367" style="stroke:#000000;stroke-width:1.12;"/><text fill="#000000" font-family="sans-serif" font-size="14.56" lengthAdjust="spacing" textLength="42.56" x="1174.88" y="954.2345">possui</text><text fill="#000000" font-family="sans-serif" font-size="14.56" lengthAdjust="spacing" textLength="7.84" x="930.6311" y="726.4055">1</text><text fill="#000000" font-family="sans-serif" font-size="14.56" lengthAdjust="spacing" textLength="5.6" x="1165.5029" y="1088.8731">*</text><!--MD5=[e9cb6b9ea8421b6538fc03abcb01a9a8]
link Farmacia to Endereco--><path codeLine="155" d="M839.3392,746.0768 C830.7936,756.7392 821.912,768.3536 814.24,779.52 C794.024,808.9312 794.864,820.064 773.92,848.96 C763.6272,863.1728 751.6208,877.6992 739.8608,891.072 " fill="none" id="Farmacia-Endereco" style="stroke:#A80036;stroke-width:1.12;"/><polygon fill="#000000" points="816.6719,819.0546,825.1173,812.5633,819.6888,808.8389,816.6719,819.0546" style="stroke:#000000;stroke-width:1.12;"/><text fill="#000000" font-family="sans-serif" font-size="14.56" lengthAdjust="spacing" textLength="24.64" x="829.92" y="820.3945">tem</text><text fill="#000000" font-family="sans-serif" font-size="14.56" lengthAdjust="spacing" textLength="7.84" x="825.2356" y="769.488">1</text><text fill="#000000" font-family="sans-serif" font-size="14.56" lengthAdjust="spacing" textLength="7.84" x="748.6227" y="878.1659">1</text><!--MD5=[055d9a59c94791d1e5417ead9eff8d01]
link Encomenda to EstadoEncomenda--><path codeLine="156" d="M480.648,1255.6992 C476.5712,1295.896 471.4416,1346.408 467.9024,1381.352 " fill="none" id="Encomenda-EstadoEncomenda" style="stroke:#A80036;stroke-width:1.12;"/><polygon fill="#000000" points="479.9149,1328.4883,484.212,1318.7417,477.6624,1318.0773,479.9149,1328.4883" style="stroke:#000000;stroke-width:1.12;"/><text fill="#000000" font-family="sans-serif" font-size="14.56" lengthAdjust="spacing" textLength="24.64" x="490.56" y="1328.8745">tem</text><text fill="#000000" font-family="sans-serif" font-size="14.56" lengthAdjust="spacing" textLength="7.84" x="471.5317" y="1279.9246">1</text><text fill="#000000" font-family="sans-serif" font-size="14.56" lengthAdjust="spacing" textLength="7.84" x="460.1163" y="1369.4074">1</text><!--MD5=[63d4a6f6f63ea0b54bc5e0e0669bcc1d]
@startuml
skinparam classAttributeIconSize 0

class SessaoUtilizador{
  +getNif()
  +static getInstance()
  +getSessaoAtual()
}

class FarmaciaDB{
  +getLstFarmacias()
}

class VeiculoDB{
  +getListaVeiculoEntrega(pesoMaximoEntrega, nifFarmacia)
}

class EnderecoDB {
  +getEnderecoByNifCliente(nif)
  +getEnderecoOrigem(nifFarmacia)
  +getLstEnderecosScooter()
}

class EncomendaDB {
  +getListaEncomenda(nifFarmacia)
}

class Entrega {
  -Integer idEntrega
  -String dataInicio
  -String dataFim
  -Double pesoEntrega
}

class EntregaDB {
  +generateGraphScooter(listEnderecosScooter, listEnderecos, est, veiculo, pesoEntrega)
  +getPath(graphScooter, listEnderecos, finalShortPathScooter, endereco, 0, veiculo, 0, list)
}

class EstafetaDB {
  +getEstafetaByNIF(nif)
}

class RegistarEntregaController {
  +getEstafeta()
  +getLstFarmacias()
  +getListaEncomenda(nifFarmacia)
  +getEnderecoByNifCliente(nif)
  +getEnderecoOrigem(nifFarmacia)
  +getLstEnderecosScooter()
  +getListaVeiculoEntrega(pesoMaximoEntrega, nifFarmacia)
  +generateGraphScooter(listEnderecosScooter, listEnderecos, est, veiculo, pesoEntrega)
  +getPath(graphScooter, listEnderecos, finalShortPathScooter, endereco, 0, veiculo, 0, list)
}

class RegistarEntregaUI {
}

class Encomenda {
  -Integer idEncomenda
  -String dataPedida
  -Double preco
  -Double pesoEncomenda
  -Double taxa
}

class Estafeta {
  -Double pesoEstafeta
}

class Scooter {
  -Integer idScooter
}

class Endereco {
  -String morada
  -Double latitude
  -Double longitude
  -Double altitude
}

class Cliente {
  -Integer creditos
}

class EstadoEncomenda {
  -Integer idEstadoEncomenda
  -String designacao
}

class Produto {
  -Integer idProduto
  -String designacao
  -Double peso
  -Double precoBase
}

class Utilizador {
  -Integer NIF
  -String nome
  -String email
  -Integer numeroSegurancaSocial
  -String password
}

class Veiculo {
  -Integer idveiculo
  -String descricao
  -Double capacidade
  -Double percentagemBateria
  -Double pesoMaximo
  -Double pesoVeiculo
  -Double potencia
  -Double areaFrontal
}

class Drone {
  -Integer idDrone
  -Double largura
}

class Farmacia {
  -Integer NIF
  -String email
}

RegistarEntregaUI ..> RegistarEntregaController

RegistarEntregaController ..> EstafetaDB
RegistarEntregaController ..> EnderecoDB
RegistarEntregaController ..> FarmaciaDB
RegistarEntregaController ..> EntregaDB
RegistarEntregaController ..> EncomendaDB
RegistarEntregaController ..> VeiculoDB
RegistarEntregaController ..> SessaoUtilizador

EntregaDB "1" - -> "*" Entrega : tem registadas
EstafetaDB "1" - -> "*" Estafeta : tem registadas
EncomendaDB "1" - -> "*" Encomenda : tem registadas
EnderecoDB "1" - -> "*" Endereco : tem registadas
FarmaciaDB "1" - -> "*" Farmacia : tem registadas
VeiculoDB "1" - -> "*" Veiculo : tem registadas

Estafeta "1" - - "1" Utilizador: atua como >
Cliente "1" - - "1" Utilizador: atua como >
Veiculo "1" - - "1" Drone:  <
Veiculo "1" - - "1" Scooter:  <
Entrega "*" - - "1" Veiculo: realiza <
Encomenda "1" - - "*" Produto: tem >
Entrega "1" - - "*" Encomenda : possui >
Estafeta "1" - - "*" Entrega: realiza >
Cliente "1" - - "1" Endereco: tem >
Cliente "1" - - "*" Encomenda: realiza e paga >
Farmacia "1" - - "*" Encomenda: tem >
Farmacia "1" - - "*" Veiculo: possui >
Farmacia "1" - - "1" Endereco: tem >
Encomenda "1" - - "1" EstadoEncomenda : tem >

@enduml

PlantUML version 1.2021.00(Sun Jan 10 10:25:05 GMT 2021)
(GPL source distribution)
Java Runtime: OpenJDK Runtime Environment
JVM: OpenJDK 64-Bit Server VM
Default Encoding: Cp1252
Language: pt
Country: PT
--></g></svg>