<?xml version="1.0" encoding="UTF-8" standalone="no"?><svg xmlns="http://www.w3.org/2000/svg" xmlns:xlink="http://www.w3.org/1999/xlink" contentScriptType="application/ecmascript" contentStyleType="text/css" height="796.25px" preserveAspectRatio="none" style="width:1028px;height:796px;" version="1.1" viewBox="0 0 1028 796" width="1028.75px" zoomAndPan="magnify"><defs><filter height="300%" id="fc0prhqi9kziw" width="300%" x="-1" y="-1"><feGaussianBlur result="blurOut" stdDeviation="2.5"/><feColorMatrix in="blurOut" result="blurOut2" type="matrix" values="0 0 0 0 0 0 0 0 0 0 0 0 0 0 0 0 0 0 .4 0"/><feOffset dx="5.0" dy="5.0" in="blurOut2" result="blurOut3"/><feBlend in="SourceGraphic" in2="blurOut3" mode="normal"/></filter></defs><g><!--MD5=[3179f819b5ca0f9c8a1bd58e9144681b]
class Entrega--><rect codeLine="5" fill="#FEFECE" filter="url(#fc0prhqi9kziw)" height="119.1797" id="Entrega" style="stroke:#A80036;stroke-width:1.875;" width="96.25" x="254.375" y="149.375"/><ellipse cx="274.25" cy="169.375" fill="#ADD1B2" rx="13.75" ry="13.75" style="stroke:#A80036;stroke-width:1.25;"/><path d="M276.75,165 Q277.0039,164.375 277.2969,164.0625 Q277.5898,163.75 277.9219,163.75 Q278.5078,163.75 278.8789,164.1016 Q279.25,164.4531 279.25,165.2734 L279.25,167.2266 Q279.25,168.0469 278.8984,168.3984 Q278.5469,168.75 278,168.75 Q277.5117,168.75 277.1992,168.5352 Q276.8867,168.3203 276.75,167.7539 Q276.6914,167.3633 276.4766,167.1484 Q276.0859,166.7383 275.3828,166.5039 Q274.6797,166.25 273.9766,166.25 Q273.0977,166.25 272.3555,166.6016 Q271.6328,166.9531 271.0664,167.7344 Q270.5,168.5156 270.5,169.5898 L270.5,170.7422 Q270.5,172.0313 271.5547,172.8906 Q272.6094,173.75 274.4844,173.75 Q275.5977,173.75 276.3789,173.4961 Q276.8281,173.3594 277.3359,172.9102 Q277.668,172.6563 277.8438,172.5781 Q278.0195,172.5 278.2344,172.5 Q278.6445,172.5 278.9375,172.832 Q279.25,173.1445 279.25,173.5938 Q279.25,174.0234 278.8203,174.5313 Q278.1953,175.2734 277.1992,175.6836 Q275.8906,176.25 274.2891,176.25 Q272.4141,176.25 270.9102,175.5078 Q269.6992,174.9219 268.8398,173.6523 Q268,172.3828 268,170.8789 L268,169.5117 Q268,167.9492 268.7422,166.582 Q269.5039,165.2148 270.8125,164.4922 Q272.1406,163.75 273.625,163.75 Q274.5234,163.75 275.3047,164.0625 Q276.0859,164.375 276.75,165 Z " fill="#000000"/><text fill="#000000" font-family="sans-serif" font-size="15" lengthAdjust="spacing" textLength="53.75" x="292" y="175.5127">Entrega</text><line style="stroke:#A80036;stroke-width:1.875;" x1="255.625" x2="349.375" y1="189.375" y2="189.375"/><text fill="#000000" font-family="sans-serif" font-size="13.75" lengthAdjust="spacing" textLength="61.25" x="261.875" y="208.6487">-idEntrega</text><text fill="#000000" font-family="sans-serif" font-size="13.75" lengthAdjust="spacing" textLength="61.25" x="261.875" y="225.9436">-dataInicio</text><text fill="#000000" font-family="sans-serif" font-size="13.75" lengthAdjust="spacing" textLength="51.25" x="261.875" y="243.2385">-dataFim</text><text fill="#000000" font-family="sans-serif" font-size="13.75" lengthAdjust="spacing" textLength="81.25" x="261.875" y="260.5334">-pesoEntrega</text><!--MD5=[c55f92ccbf0646788158d42f3399cc78]
class Encomenda--><rect codeLine="12" fill="#FEFECE" filter="url(#fc0prhqi9kziw)" height="136.4746" id="Encomenda" style="stroke:#A80036;stroke-width:1.875;" width="123.75" x="571.875" y="285.625"/><ellipse cx="590.625" cy="305.625" fill="#ADD1B2" rx="13.75" ry="13.75" style="stroke:#A80036;stroke-width:1.25;"/><path d="M593.125,301.25 Q593.3789,300.625 593.6719,300.3125 Q593.9648,300 594.2969,300 Q594.8828,300 595.2539,300.3516 Q595.625,300.7031 595.625,301.5234 L595.625,303.4766 Q595.625,304.2969 595.2734,304.6484 Q594.9219,305 594.375,305 Q593.8867,305 593.5742,304.7852 Q593.2617,304.5703 593.125,304.0039 Q593.0664,303.6133 592.8516,303.3984 Q592.4609,302.9883 591.7578,302.7539 Q591.0547,302.5 590.3516,302.5 Q589.4727,302.5 588.7305,302.8516 Q588.0078,303.2031 587.4414,303.9844 Q586.875,304.7656 586.875,305.8398 L586.875,306.9922 Q586.875,308.2813 587.9297,309.1406 Q588.9844,310 590.8594,310 Q591.9727,310 592.7539,309.7461 Q593.2031,309.6094 593.7109,309.1602 Q594.043,308.9063 594.2188,308.8281 Q594.3945,308.75 594.6094,308.75 Q595.0195,308.75 595.3125,309.082 Q595.625,309.3945 595.625,309.8438 Q595.625,310.2734 595.1953,310.7813 Q594.5703,311.5234 593.5742,311.9336 Q592.2656,312.5 590.6641,312.5 Q588.7891,312.5 587.2852,311.7578 Q586.0742,311.1719 585.2148,309.9023 Q584.375,308.6328 584.375,307.1289 L584.375,305.7617 Q584.375,304.1992 585.1172,302.832 Q585.8789,301.4648 587.1875,300.7422 Q588.5156,300 590,300 Q590.8984,300 591.6797,300.3125 Q592.4609,300.625 593.125,301.25 Z " fill="#000000"/><text fill="#000000" font-family="sans-serif" font-size="15" lengthAdjust="spacing" textLength="83.75" x="608.125" y="311.7627">Encomenda</text><line style="stroke:#A80036;stroke-width:1.875;" x1="573.125" x2="694.375" y1="325.625" y2="325.625"/><text fill="#000000" font-family="sans-serif" font-size="13.75" lengthAdjust="spacing" textLength="85" x="579.375" y="344.8987">-idEncomenda</text><text fill="#000000" font-family="sans-serif" font-size="13.75" lengthAdjust="spacing" textLength="71.25" x="579.375" y="362.1936">-dataPedida</text><text fill="#000000" font-family="sans-serif" font-size="13.75" lengthAdjust="spacing" textLength="40" x="579.375" y="379.4885">-preco</text><text fill="#000000" font-family="sans-serif" font-size="13.75" lengthAdjust="spacing" textLength="105" x="579.375" y="396.7834">-pesoEncomenda</text><text fill="#000000" font-family="sans-serif" font-size="13.75" lengthAdjust="spacing" textLength="31.25" x="579.375" y="414.0784">-taxa</text><!--MD5=[3f1202280bfe3359d2f91fb9b6e32986]
class Estafeta--><rect codeLine="20" fill="#FEFECE" filter="url(#fc0prhqi9kziw)" height="67.2949" id="Estafeta" style="stroke:#A80036;stroke-width:1.875;" width="100" x="8.75" y="646.25"/><ellipse cx="29.1875" cy="666.25" fill="#ADD1B2" rx="13.75" ry="13.75" style="stroke:#A80036;stroke-width:1.25;"/><path d="M31.6875,661.875 Q31.9414,661.25 32.2344,660.9375 Q32.5273,660.625 32.8594,660.625 Q33.4453,660.625 33.8164,660.9766 Q34.1875,661.3281 34.1875,662.1484 L34.1875,664.1016 Q34.1875,664.9219 33.8359,665.2734 Q33.4844,665.625 32.9375,665.625 Q32.4492,665.625 32.1367,665.4102 Q31.8242,665.1953 31.6875,664.6289 Q31.6289,664.2383 31.4141,664.0234 Q31.0234,663.6133 30.3203,663.3789 Q29.6172,663.125 28.9141,663.125 Q28.0352,663.125 27.293,663.4766 Q26.5703,663.8281 26.0039,664.6094 Q25.4375,665.3906 25.4375,666.4648 L25.4375,667.6172 Q25.4375,668.9063 26.4922,669.7656 Q27.5469,670.625 29.4219,670.625 Q30.5352,670.625 31.3164,670.3711 Q31.7656,670.2344 32.2734,669.7852 Q32.6055,669.5313 32.7813,669.4531 Q32.957,669.375 33.1719,669.375 Q33.582,669.375 33.875,669.707 Q34.1875,670.0195 34.1875,670.4688 Q34.1875,670.8984 33.7578,671.4063 Q33.1328,672.1484 32.1367,672.5586 Q30.8281,673.125 29.2266,673.125 Q27.3516,673.125 25.8477,672.3828 Q24.6367,671.7969 23.7773,670.5273 Q22.9375,669.2578 22.9375,667.7539 L22.9375,666.3867 Q22.9375,664.8242 23.6797,663.457 Q24.4414,662.0898 25.75,661.3672 Q27.0781,660.625 28.5625,660.625 Q29.4609,660.625 30.2422,660.9375 Q31.0234,661.25 31.6875,661.875 Z " fill="#000000"/><text fill="#000000" font-family="sans-serif" font-size="15" lengthAdjust="spacing" textLength="56.25" x="47.0625" y="672.3877">Estafeta</text><line style="stroke:#A80036;stroke-width:1.875;" x1="10" x2="107.5" y1="686.25" y2="686.25"/><text fill="#000000" font-family="sans-serif" font-size="13.75" lengthAdjust="spacing" textLength="85" x="16.25" y="705.5237">-pesoEstafeta</text><!--MD5=[36c1942e8942a3e4f47e6de3733e3d18]
class Endereco--><rect codeLine="24" fill="#FEFECE" filter="url(#fc0prhqi9kziw)" height="119.1797" id="Endereco" style="stroke:#A80036;stroke-width:1.875;" width="106.25" x="580.625" y="470.625"/><ellipse cx="599.375" cy="490.625" fill="#ADD1B2" rx="13.75" ry="13.75" style="stroke:#A80036;stroke-width:1.25;"/><path d="M601.875,486.25 Q602.1289,485.625 602.4219,485.3125 Q602.7148,485 603.0469,485 Q603.6328,485 604.0039,485.3516 Q604.375,485.7031 604.375,486.5234 L604.375,488.4766 Q604.375,489.2969 604.0234,489.6484 Q603.6719,490 603.125,490 Q602.6367,490 602.3242,489.7852 Q602.0117,489.5703 601.875,489.0039 Q601.8164,488.6133 601.6016,488.3984 Q601.2109,487.9883 600.5078,487.7539 Q599.8047,487.5 599.1016,487.5 Q598.2227,487.5 597.4805,487.8516 Q596.7578,488.2031 596.1914,488.9844 Q595.625,489.7656 595.625,490.8398 L595.625,491.9922 Q595.625,493.2813 596.6797,494.1406 Q597.7344,495 599.6094,495 Q600.7227,495 601.5039,494.7461 Q601.9531,494.6094 602.4609,494.1602 Q602.793,493.9063 602.9688,493.8281 Q603.1445,493.75 603.3594,493.75 Q603.7695,493.75 604.0625,494.082 Q604.375,494.3945 604.375,494.8438 Q604.375,495.2734 603.9453,495.7813 Q603.3203,496.5234 602.3242,496.9336 Q601.0156,497.5 599.4141,497.5 Q597.5391,497.5 596.0352,496.7578 Q594.8242,496.1719 593.9648,494.9023 Q593.125,493.6328 593.125,492.1289 L593.125,490.7617 Q593.125,489.1992 593.8672,487.832 Q594.6289,486.4648 595.9375,485.7422 Q597.2656,485 598.75,485 Q599.6484,485 600.4297,485.3125 Q601.2109,485.625 601.875,486.25 Z " fill="#000000"/><text fill="#000000" font-family="sans-serif" font-size="15" lengthAdjust="spacing" textLength="66.25" x="616.875" y="496.7627">Endereco</text><line style="stroke:#A80036;stroke-width:1.875;" x1="581.875" x2="685.625" y1="510.625" y2="510.625"/><text fill="#000000" font-family="sans-serif" font-size="13.75" lengthAdjust="spacing" textLength="50" x="588.125" y="529.8987">-morada</text><text fill="#000000" font-family="sans-serif" font-size="13.75" lengthAdjust="spacing" textLength="47.5" x="588.125" y="547.1936">-latitude</text><text fill="#000000" font-family="sans-serif" font-size="13.75" lengthAdjust="spacing" textLength="58.75" x="588.125" y="564.4885">-longitude</text><text fill="#000000" font-family="sans-serif" font-size="13.75" lengthAdjust="spacing" textLength="47.5" x="588.125" y="581.7834">-altitude</text><!--MD5=[f4402668d5d5bb8485350c0fdb60ac8e]
class Scooter--><rect codeLine="31" fill="#FEFECE" filter="url(#fc0prhqi9kziw)" height="67.2949" id="Scooter" style="stroke:#A80036;stroke-width:1.875;" width="92.5" x="878.75" y="8.75"/><ellipse cx="897.5" cy="28.75" fill="#ADD1B2" rx="13.75" ry="13.75" style="stroke:#A80036;stroke-width:1.25;"/><path d="M900,24.375 Q900.2539,23.75 900.5469,23.4375 Q900.8398,23.125 901.1719,23.125 Q901.7578,23.125 902.1289,23.4766 Q902.5,23.8281 902.5,24.6484 L902.5,26.6016 Q902.5,27.4219 902.1484,27.7734 Q901.7969,28.125 901.25,28.125 Q900.7617,28.125 900.4492,27.9102 Q900.1367,27.6953 900,27.1289 Q899.9414,26.7383 899.7266,26.5234 Q899.3359,26.1133 898.6328,25.8789 Q897.9297,25.625 897.2266,25.625 Q896.3477,25.625 895.6055,25.9766 Q894.8828,26.3281 894.3164,27.1094 Q893.75,27.8906 893.75,28.9648 L893.75,30.1172 Q893.75,31.4063 894.8047,32.2656 Q895.8594,33.125 897.7344,33.125 Q898.8477,33.125 899.6289,32.8711 Q900.0781,32.7344 900.5859,32.2852 Q900.918,32.0313 901.0938,31.9531 Q901.2695,31.875 901.4844,31.875 Q901.8945,31.875 902.1875,32.207 Q902.5,32.5195 902.5,32.9688 Q902.5,33.3984 902.0703,33.9063 Q901.4453,34.6484 900.4492,35.0586 Q899.1406,35.625 897.5391,35.625 Q895.6641,35.625 894.1602,34.8828 Q892.9492,34.2969 892.0898,33.0273 Q891.25,31.7578 891.25,30.2539 L891.25,28.8867 Q891.25,27.3242 891.9922,25.957 Q892.7539,24.5898 894.0625,23.8672 Q895.3906,23.125 896.875,23.125 Q897.7734,23.125 898.5547,23.4375 Q899.3359,23.75 900,24.375 Z " fill="#000000"/><text fill="#000000" font-family="sans-serif" font-size="15" lengthAdjust="spacing" textLength="52.5" x="915" y="34.8877">Scooter</text><line style="stroke:#A80036;stroke-width:1.875;" x1="880" x2="970" y1="48.75" y2="48.75"/><text fill="#000000" font-family="sans-serif" font-size="13.75" lengthAdjust="spacing" textLength="62.5" x="886.25" y="68.0237">-idScooter</text><!--MD5=[20a748d5ee336a9a91751b0a3d4f0beb]
class Cliente--><rect codeLine="35" fill="#FEFECE" filter="url(#fc0prhqi9kziw)" height="67.2949" id="Cliente" style="stroke:#A80036;stroke-width:1.875;" width="88.75" x="258.125" y="537.5"/><ellipse cx="276.875" cy="557.5" fill="#ADD1B2" rx="13.75" ry="13.75" style="stroke:#A80036;stroke-width:1.25;"/><path d="M279.375,553.125 Q279.6289,552.5 279.9219,552.1875 Q280.2148,551.875 280.5469,551.875 Q281.1328,551.875 281.5039,552.2266 Q281.875,552.5781 281.875,553.3984 L281.875,555.3516 Q281.875,556.1719 281.5234,556.5234 Q281.1719,556.875 280.625,556.875 Q280.1367,556.875 279.8242,556.6602 Q279.5117,556.4453 279.375,555.8789 Q279.3164,555.4883 279.1016,555.2734 Q278.7109,554.8633 278.0078,554.6289 Q277.3047,554.375 276.6016,554.375 Q275.7227,554.375 274.9805,554.7266 Q274.2578,555.0781 273.6914,555.8594 Q273.125,556.6406 273.125,557.7148 L273.125,558.8672 Q273.125,560.1563 274.1797,561.0156 Q275.2344,561.875 277.1094,561.875 Q278.2227,561.875 279.0039,561.6211 Q279.4531,561.4844 279.9609,561.0352 Q280.293,560.7813 280.4688,560.7031 Q280.6445,560.625 280.8594,560.625 Q281.2695,560.625 281.5625,560.957 Q281.875,561.2695 281.875,561.7188 Q281.875,562.1484 281.4453,562.6563 Q280.8203,563.3984 279.8242,563.8086 Q278.5156,564.375 276.9141,564.375 Q275.0391,564.375 273.5352,563.6328 Q272.3242,563.0469 271.4648,561.7773 Q270.625,560.5078 270.625,559.0039 L270.625,557.6367 Q270.625,556.0742 271.3672,554.707 Q272.1289,553.3398 273.4375,552.6172 Q274.7656,551.875 276.25,551.875 Q277.1484,551.875 277.9297,552.1875 Q278.7109,552.5 279.375,553.125 Z " fill="#000000"/><text fill="#000000" font-family="sans-serif" font-size="15" lengthAdjust="spacing" textLength="48.75" x="294.375" y="563.6377">Cliente</text><line style="stroke:#A80036;stroke-width:1.875;" x1="259.375" x2="345.625" y1="577.5" y2="577.5"/><text fill="#000000" font-family="sans-serif" font-size="13.75" lengthAdjust="spacing" textLength="53.75" x="265.625" y="596.7737">-creditos</text><!--MD5=[533e824b6b94274ee39bf5a43d7cce2a]
class EstadoEncomenda--><rect codeLine="40" fill="#FEFECE" filter="url(#fc0prhqi9kziw)" height="84.5898" id="EstadoEncomenda" style="stroke:#A80036;stroke-width:1.875;" width="172.5" x="838.75" y="290"/><ellipse cx="857.5" cy="310" fill="#ADD1B2" rx="13.75" ry="13.75" style="stroke:#A80036;stroke-width:1.25;"/><path d="M860,305.625 Q860.2539,305 860.5469,304.6875 Q860.8398,304.375 861.1719,304.375 Q861.7578,304.375 862.1289,304.7266 Q862.5,305.0781 862.5,305.8984 L862.5,307.8516 Q862.5,308.6719 862.1484,309.0234 Q861.7969,309.375 861.25,309.375 Q860.7617,309.375 860.4492,309.1602 Q860.1367,308.9453 860,308.3789 Q859.9414,307.9883 859.7266,307.7734 Q859.3359,307.3633 858.6328,307.1289 Q857.9297,306.875 857.2266,306.875 Q856.3477,306.875 855.6055,307.2266 Q854.8828,307.5781 854.3164,308.3594 Q853.75,309.1406 853.75,310.2148 L853.75,311.3672 Q853.75,312.6563 854.8047,313.5156 Q855.8594,314.375 857.7344,314.375 Q858.8477,314.375 859.6289,314.1211 Q860.0781,313.9844 860.5859,313.5352 Q860.918,313.2813 861.0938,313.2031 Q861.2695,313.125 861.4844,313.125 Q861.8945,313.125 862.1875,313.457 Q862.5,313.7695 862.5,314.2188 Q862.5,314.6484 862.0703,315.1563 Q861.4453,315.8984 860.4492,316.3086 Q859.1406,316.875 857.5391,316.875 Q855.6641,316.875 854.1602,316.1328 Q852.9492,315.5469 852.0898,314.2773 Q851.25,313.0078 851.25,311.5039 L851.25,310.1367 Q851.25,308.5742 851.9922,307.207 Q852.7539,305.8398 854.0625,305.1172 Q855.3906,304.375 856.875,304.375 Q857.7734,304.375 858.5547,304.6875 Q859.3359,305 860,305.625 Z " fill="#000000"/><text fill="#000000" font-family="sans-serif" font-size="15" lengthAdjust="spacing" textLength="132.5" x="875" y="316.1377">EstadoEncomenda</text><line style="stroke:#A80036;stroke-width:1.875;" x1="840" x2="1010" y1="330" y2="330"/><text fill="#000000" font-family="sans-serif" font-size="13.75" lengthAdjust="spacing" textLength="126.25" x="846.25" y="349.2737">-idEstadoEncomenda</text><text fill="#000000" font-family="sans-serif" font-size="13.75" lengthAdjust="spacing" textLength="75" x="846.25" y="366.5686">-designacao</text><!--MD5=[d4dacc50d49878ba7c621dfc80a2e1ce]
class Produto--><rect codeLine="45" fill="#FEFECE" filter="url(#fc0prhqi9kziw)" height="119.1797" id="Produto" style="stroke:#A80036;stroke-width:1.875;" width="93.75" x="878.125" y="419.375"/><ellipse cx="896.875" cy="439.375" fill="#ADD1B2" rx="13.75" ry="13.75" style="stroke:#A80036;stroke-width:1.25;"/><path d="M899.375,435 Q899.6289,434.375 899.9219,434.0625 Q900.2148,433.75 900.5469,433.75 Q901.1328,433.75 901.5039,434.1016 Q901.875,434.4531 901.875,435.2734 L901.875,437.2266 Q901.875,438.0469 901.5234,438.3984 Q901.1719,438.75 900.625,438.75 Q900.1367,438.75 899.8242,438.5352 Q899.5117,438.3203 899.375,437.7539 Q899.3164,437.3633 899.1016,437.1484 Q898.7109,436.7383 898.0078,436.5039 Q897.3047,436.25 896.6016,436.25 Q895.7227,436.25 894.9805,436.6016 Q894.2578,436.9531 893.6914,437.7344 Q893.125,438.5156 893.125,439.5898 L893.125,440.7422 Q893.125,442.0313 894.1797,442.8906 Q895.2344,443.75 897.1094,443.75 Q898.2227,443.75 899.0039,443.4961 Q899.4531,443.3594 899.9609,442.9102 Q900.293,442.6563 900.4688,442.5781 Q900.6445,442.5 900.8594,442.5 Q901.2695,442.5 901.5625,442.832 Q901.875,443.1445 901.875,443.5938 Q901.875,444.0234 901.4453,444.5313 Q900.8203,445.2734 899.8242,445.6836 Q898.5156,446.25 896.9141,446.25 Q895.0391,446.25 893.5352,445.5078 Q892.3242,444.9219 891.4648,443.6523 Q890.625,442.3828 890.625,440.8789 L890.625,439.5117 Q890.625,437.9492 891.3672,436.582 Q892.1289,435.2148 893.4375,434.4922 Q894.7656,433.75 896.25,433.75 Q897.1484,433.75 897.9297,434.0625 Q898.7109,434.375 899.375,435 Z " fill="#000000"/><text fill="#000000" font-family="sans-serif" font-size="15" lengthAdjust="spacing" textLength="53.75" x="914.375" y="445.5127">Produto</text><line style="stroke:#A80036;stroke-width:1.875;" x1="879.375" x2="970.625" y1="459.375" y2="459.375"/><text fill="#000000" font-family="sans-serif" font-size="13.75" lengthAdjust="spacing" textLength="61.25" x="885.625" y="478.6487">-idProduto</text><text fill="#000000" font-family="sans-serif" font-size="13.75" lengthAdjust="spacing" textLength="75" x="885.625" y="495.9436">-designacao</text><text fill="#000000" font-family="sans-serif" font-size="13.75" lengthAdjust="spacing" textLength="35" x="885.625" y="513.2385">-peso</text><text fill="#000000" font-family="sans-serif" font-size="13.75" lengthAdjust="spacing" textLength="71.25" x="885.625" y="530.5334">-precoBase</text><!--MD5=[5dd1d6732c071e710b9290b531f2fa3b]
class Utilizador--><rect codeLine="52" fill="#FEFECE" filter="url(#fc0prhqi9kziw)" height="136.4746" id="Utilizador" style="stroke:#A80036;stroke-width:1.875;" width="167.5" x="550" y="643.125"/><ellipse cx="597.4375" cy="663.125" fill="#ADD1B2" rx="13.75" ry="13.75" style="stroke:#A80036;stroke-width:1.25;"/><path d="M599.9375,658.75 Q600.1914,658.125 600.4844,657.8125 Q600.7773,657.5 601.1094,657.5 Q601.6953,657.5 602.0664,657.8516 Q602.4375,658.2031 602.4375,659.0234 L602.4375,660.9766 Q602.4375,661.7969 602.0859,662.1484 Q601.7344,662.5 601.1875,662.5 Q600.6992,662.5 600.3867,662.2852 Q600.0742,662.0703 599.9375,661.5039 Q599.8789,661.1133 599.6641,660.8984 Q599.2734,660.4883 598.5703,660.2539 Q597.8672,660 597.1641,660 Q596.2852,660 595.543,660.3516 Q594.8203,660.7031 594.2539,661.4844 Q593.6875,662.2656 593.6875,663.3398 L593.6875,664.4922 Q593.6875,665.7813 594.7422,666.6406 Q595.7969,667.5 597.6719,667.5 Q598.7852,667.5 599.5664,667.2461 Q600.0156,667.1094 600.5234,666.6602 Q600.8555,666.4063 601.0313,666.3281 Q601.207,666.25 601.4219,666.25 Q601.832,666.25 602.125,666.582 Q602.4375,666.8945 602.4375,667.3438 Q602.4375,667.7734 602.0078,668.2813 Q601.3828,669.0234 600.3867,669.4336 Q599.0781,670 597.4766,670 Q595.6016,670 594.0977,669.2578 Q592.8867,668.6719 592.0273,667.4023 Q591.1875,666.1328 591.1875,664.6289 L591.1875,663.2617 Q591.1875,661.6992 591.9297,660.332 Q592.6914,658.9648 594,658.2422 Q595.3281,657.5 596.8125,657.5 Q597.7109,657.5 598.4922,657.8125 Q599.2734,658.125 599.9375,658.75 Z " fill="#000000"/><text fill="#000000" font-family="sans-serif" font-size="15" lengthAdjust="spacing" textLength="63.75" x="621.3125" y="669.2627">Utilizador</text><line style="stroke:#A80036;stroke-width:1.875;" x1="551.25" x2="716.25" y1="683.125" y2="683.125"/><text fill="#000000" font-family="sans-serif" font-size="13.75" lengthAdjust="spacing" textLength="23.75" x="557.5" y="702.3987">-NIF</text><text fill="#000000" font-family="sans-serif" font-size="13.75" lengthAdjust="spacing" textLength="37.5" x="557.5" y="719.6936">-nome</text><text fill="#000000" font-family="sans-serif" font-size="13.75" lengthAdjust="spacing" textLength="35" x="557.5" y="736.9885">-email</text><text fill="#000000" font-family="sans-serif" font-size="13.75" lengthAdjust="spacing" textLength="152.5" x="557.5" y="754.2834">-numeroSegurancaSocial</text><text fill="#000000" font-family="sans-serif" font-size="13.75" lengthAdjust="spacing" textLength="67.5" x="557.5" y="771.5784">-password</text><!--MD5=[8505c5852735283b5a8424161266bb9f]
class Veiculo--><rect codeLine="60" fill="#FEFECE" filter="url(#fc0prhqi9kziw)" height="188.3594" id="Veiculo" style="stroke:#A80036;stroke-width:1.875;" width="141.25" x="563.125" y="46.875"/><ellipse cx="604.9375" cy="66.875" fill="#ADD1B2" rx="13.75" ry="13.75" style="stroke:#A80036;stroke-width:1.25;"/><path d="M607.4375,62.5 Q607.6914,61.875 607.9844,61.5625 Q608.2773,61.25 608.6094,61.25 Q609.1953,61.25 609.5664,61.6016 Q609.9375,61.9531 609.9375,62.7734 L609.9375,64.7266 Q609.9375,65.5469 609.5859,65.8984 Q609.2344,66.25 608.6875,66.25 Q608.1992,66.25 607.8867,66.0352 Q607.5742,65.8203 607.4375,65.2539 Q607.3789,64.8633 607.1641,64.6484 Q606.7734,64.2383 606.0703,64.0039 Q605.3672,63.75 604.6641,63.75 Q603.7852,63.75 603.043,64.1016 Q602.3203,64.4531 601.7539,65.2344 Q601.1875,66.0156 601.1875,67.0898 L601.1875,68.2422 Q601.1875,69.5313 602.2422,70.3906 Q603.2969,71.25 605.1719,71.25 Q606.2852,71.25 607.0664,70.9961 Q607.5156,70.8594 608.0234,70.4102 Q608.3555,70.1563 608.5313,70.0781 Q608.707,70 608.9219,70 Q609.332,70 609.625,70.332 Q609.9375,70.6445 609.9375,71.0938 Q609.9375,71.5234 609.5078,72.0313 Q608.8828,72.7734 607.8867,73.1836 Q606.5781,73.75 604.9766,73.75 Q603.1016,73.75 601.5977,73.0078 Q600.3867,72.4219 599.5273,71.1523 Q598.6875,69.8828 598.6875,68.3789 L598.6875,67.0117 Q598.6875,65.4492 599.4297,64.082 Q600.1914,62.7148 601.5,61.9922 Q602.8281,61.25 604.3125,61.25 Q605.2109,61.25 605.9922,61.5625 Q606.7734,61.875 607.4375,62.5 Z " fill="#000000"/><text fill="#000000" font-family="sans-serif" font-size="15" lengthAdjust="spacing" textLength="50" x="627.5625" y="73.0127">Veiculo</text><line style="stroke:#A80036;stroke-width:1.875;" x1="564.375" x2="703.125" y1="86.875" y2="86.875"/><text fill="#000000" font-family="sans-serif" font-size="13.75" lengthAdjust="spacing" textLength="57.5" x="570.625" y="106.1487">-idveiculo</text><text fill="#000000" font-family="sans-serif" font-size="13.75" lengthAdjust="spacing" textLength="65" x="570.625" y="123.4436">-descricao</text><text fill="#000000" font-family="sans-serif" font-size="13.75" lengthAdjust="spacing" textLength="75" x="570.625" y="140.7385">-capacidade</text><text fill="#000000" font-family="sans-serif" font-size="13.75" lengthAdjust="spacing" textLength="126.25" x="570.625" y="158.0334">-percentagemBateria</text><text fill="#000000" font-family="sans-serif" font-size="13.75" lengthAdjust="spacing" textLength="80" x="570.625" y="175.3284">-pesoMaximo</text><text fill="#000000" font-family="sans-serif" font-size="13.75" lengthAdjust="spacing" textLength="80" x="570.625" y="192.6233">-pesoVeiculo</text><text fill="#000000" font-family="sans-serif" font-size="13.75" lengthAdjust="spacing" textLength="56.25" x="570.625" y="209.9182">-potencia</text><text fill="#000000" font-family="sans-serif" font-size="13.75" lengthAdjust="spacing" textLength="73.75" x="570.625" y="227.2131">-areaFrontal</text><!--MD5=[2e3f1e60e74253ff42e47f8bfdb04ee2]
class Drone--><rect codeLine="71" fill="#FEFECE" filter="url(#fc0prhqi9kziw)" height="84.5898" id="Drone" style="stroke:#A80036;stroke-width:1.875;" width="95" x="877.5" y="120"/><ellipse cx="901.875" cy="140" fill="#ADD1B2" rx="13.75" ry="13.75" style="stroke:#A80036;stroke-width:1.25;"/><path d="M904.375,135.625 Q904.6289,135 904.9219,134.6875 Q905.2148,134.375 905.5469,134.375 Q906.1328,134.375 906.5039,134.7266 Q906.875,135.0781 906.875,135.8984 L906.875,137.8516 Q906.875,138.6719 906.5234,139.0234 Q906.1719,139.375 905.625,139.375 Q905.1367,139.375 904.8242,139.1602 Q904.5117,138.9453 904.375,138.3789 Q904.3164,137.9883 904.1016,137.7734 Q903.7109,137.3633 903.0078,137.1289 Q902.3047,136.875 901.6016,136.875 Q900.7227,136.875 899.9805,137.2266 Q899.2578,137.5781 898.6914,138.3594 Q898.125,139.1406 898.125,140.2148 L898.125,141.3672 Q898.125,142.6563 899.1797,143.5156 Q900.2344,144.375 902.1094,144.375 Q903.2227,144.375 904.0039,144.1211 Q904.4531,143.9844 904.9609,143.5352 Q905.293,143.2813 905.4688,143.2031 Q905.6445,143.125 905.8594,143.125 Q906.2695,143.125 906.5625,143.457 Q906.875,143.7695 906.875,144.2188 Q906.875,144.6484 906.4453,145.1563 Q905.8203,145.8984 904.8242,146.3086 Q903.5156,146.875 901.9141,146.875 Q900.0391,146.875 898.5352,146.1328 Q897.3242,145.5469 896.4648,144.2773 Q895.625,143.0078 895.625,141.5039 L895.625,140.1367 Q895.625,138.5742 896.3672,137.207 Q897.1289,135.8398 898.4375,135.1172 Q899.7656,134.375 901.25,134.375 Q902.1484,134.375 902.9297,134.6875 Q903.7109,135 904.375,135.625 Z " fill="#000000"/><text fill="#000000" font-family="sans-serif" font-size="15" lengthAdjust="spacing" textLength="42.5" x="920.625" y="146.1377">Drone</text><line style="stroke:#A80036;stroke-width:1.875;" x1="878.75" x2="971.25" y1="160" y2="160"/><text fill="#000000" font-family="sans-serif" font-size="13.75" lengthAdjust="spacing" textLength="51.25" x="885" y="179.2737">-idDrone</text><text fill="#000000" font-family="sans-serif" font-size="13.75" lengthAdjust="spacing" textLength="80" x="885" y="196.5686">-hoverPower</text><!--MD5=[6613c9cd406ef433ff06f5e98b28abd9]
class Farmacia--><rect codeLine="76" fill="#FEFECE" filter="url(#fc0prhqi9kziw)" height="84.5898" id="Farmacia" style="stroke:#A80036;stroke-width:1.875;" width="105" x="250" y="312.5"/><ellipse cx="268.75" cy="332.5" fill="#ADD1B2" rx="13.75" ry="13.75" style="stroke:#A80036;stroke-width:1.25;"/><path d="M271.25,328.125 Q271.5039,327.5 271.7969,327.1875 Q272.0898,326.875 272.4219,326.875 Q273.0078,326.875 273.3789,327.2266 Q273.75,327.5781 273.75,328.3984 L273.75,330.3516 Q273.75,331.1719 273.3984,331.5234 Q273.0469,331.875 272.5,331.875 Q272.0117,331.875 271.6992,331.6602 Q271.3867,331.4453 271.25,330.8789 Q271.1914,330.4883 270.9766,330.2734 Q270.5859,329.8633 269.8828,329.6289 Q269.1797,329.375 268.4766,329.375 Q267.5977,329.375 266.8555,329.7266 Q266.1328,330.0781 265.5664,330.8594 Q265,331.6406 265,332.7148 L265,333.8672 Q265,335.1563 266.0547,336.0156 Q267.1094,336.875 268.9844,336.875 Q270.0977,336.875 270.8789,336.6211 Q271.3281,336.4844 271.8359,336.0352 Q272.168,335.7813 272.3438,335.7031 Q272.5195,335.625 272.7344,335.625 Q273.1445,335.625 273.4375,335.957 Q273.75,336.2695 273.75,336.7188 Q273.75,337.1484 273.3203,337.6563 Q272.6953,338.3984 271.6992,338.8086 Q270.3906,339.375 268.7891,339.375 Q266.9141,339.375 265.4102,338.6328 Q264.1992,338.0469 263.3398,336.7773 Q262.5,335.5078 262.5,334.0039 L262.5,332.6367 Q262.5,331.0742 263.2422,329.707 Q264.0039,328.3398 265.3125,327.6172 Q266.6406,326.875 268.125,326.875 Q269.0234,326.875 269.8047,327.1875 Q270.5859,327.5 271.25,328.125 Z " fill="#000000"/><text fill="#000000" font-family="sans-serif" font-size="15" lengthAdjust="spacing" textLength="65" x="286.25" y="338.6377">Farmacia</text><line style="stroke:#A80036;stroke-width:1.875;" x1="251.25" x2="353.75" y1="352.5" y2="352.5"/><text fill="#000000" font-family="sans-serif" font-size="13.75" lengthAdjust="spacing" textLength="23.75" x="257.5" y="371.7737">-NIF</text><text fill="#000000" font-family="sans-serif" font-size="13.75" lengthAdjust="spacing" textLength="35" x="257.5" y="389.0686">-email</text><!--MD5=[055d9a59c94791d1e5417ead9eff8d01]
link Encomenda to EstadoEncomenda--><path codeLine="81" d="M695.8875,349.275 C737.25,346.225 792.55,342.15 838.3125,338.7875 " fill="none" id="Encomenda-EstadoEncomenda" style="stroke:#A80036;stroke-width:1.25;"/><polygon fill="#000000" points="767.4831,331.0107,755.9375,328.1773,756.4771,335.5048,767.4831,331.0107" style="stroke:#000000;stroke-width:1.25;"/><text fill="#000000" font-family="sans-serif" font-size="16.25" lengthAdjust="spacing" textLength="27.5" x="772.5" y="338.1189">tem</text><text fill="#000000" font-family="sans-serif" font-size="16.25" lengthAdjust="spacing" textLength="8.75" x="705.6565" y="366.9712">1</text><text fill="#000000" font-family="sans-serif" font-size="16.25" lengthAdjust="spacing" textLength="8.75" x="820.1717" y="357.3799">1</text><!--MD5=[39609d66ce6d06d1779a14455c909f6f]
link Entrega to Encomenda--><path codeLine="82" d="M350.95,213.6875 C394.6125,219.6375 460.4625,232.1875 512.5,257.5 C533.15,267.55 553.475,281.7 571.35,296.075 " fill="none" id="Entrega-Encomenda" style="stroke:#A80036;stroke-width:1.25;"/><polygon fill="#000000" points="431.4793,213.6581,422.175,206.2582,419.6024,213.1404,431.4793,213.6581" style="stroke:#000000;stroke-width:1.25;"/><text fill="#000000" font-family="sans-serif" font-size="16.25" lengthAdjust="spacing" textLength="47.5" x="436.875" y="218.1189">possui</text><text fill="#000000" font-family="sans-serif" font-size="16.25" lengthAdjust="spacing" textLength="8.75" x="360.6896" y="233.3114">1</text><text fill="#000000" font-family="sans-serif" font-size="16.25" lengthAdjust="spacing" textLength="6.25" x="555.476" y="305.9574">*</text><!--MD5=[328dae9b2f192140d45e51cd90ecd75a]
link Estafeta to Entrega--><path codeLine="83" d="M75.05,645.975 C105.7125,577.4375 178.55,418.3125 250,290 C253.975,282.8625 258.3125,275.475 262.7125,268.2 " fill="none" id="Estafeta-Entrega" style="stroke:#A80036;stroke-width:1.25;"/><polygon fill="#000000" points="155.2806,347.1223,146.9604,355.6138,153.5406,358.8825,155.2806,347.1223" style="stroke:#000000;stroke-width:1.25;"/><text fill="#000000" font-family="sans-serif" font-size="16.25" lengthAdjust="spacing" textLength="47.5" x="163.75" y="359.3689">realiza</text><text fill="#000000" font-family="sans-serif" font-size="16.25" lengthAdjust="spacing" textLength="8.75" x="69.0577" y="632.7376">1</text><text fill="#000000" font-family="sans-serif" font-size="16.25" lengthAdjust="spacing" textLength="6.25" x="250.1597" y="295.2701">*</text><!--MD5=[43a7c1a046aa41d1c9842e3954366be4]
link Cliente to Endereco--><path codeLine="84" d="M346.925,576.925 C389.425,581.375 455.975,585.25 512.5,575 C535.4875,570.8375 559.8,562.5125 580.5,554.15 " fill="none" id="Cliente-Endereco" style="stroke:#A80036;stroke-width:1.25;"/><polygon fill="#000000" points="441.8455,563.3632,430.236,560.8041,430.949,568.1167,441.8455,563.3632" style="stroke:#000000;stroke-width:1.25;"/><text fill="#000000" font-family="sans-serif" font-size="16.25" lengthAdjust="spacing" textLength="27.5" x="446.875" y="570.6189">tem</text><text fill="#000000" font-family="sans-serif" font-size="16.25" lengthAdjust="spacing" textLength="8.75" x="356.99" y="597.0933">1</text><text fill="#000000" font-family="sans-serif" font-size="16.25" lengthAdjust="spacing" textLength="8.75" x="561.8457" y="576.8893">1</text><!--MD5=[beec9e5f2ed2709028dd31c1dc478e7b]
link Cliente to Encomenda--><path codeLine="85" d="M347.2875,558.7125 C400.125,542.9625 485.5375,515.65 512.5,496.25 C534.3375,480.5375 532.85,469.4625 550,448.75 C557.25,440 564.95,430.8875 572.6375,421.9125 " fill="none" id="Cliente-Encomenda" style="stroke:#A80036;stroke-width:1.25;"/><polygon fill="#000000" points="404.0926,481.9765,392.5214,484.7033,396.3341,490.9839,404.0926,481.9765" style="stroke:#000000;stroke-width:1.25;"/><text fill="#000000" font-family="sans-serif" font-size="16.25" lengthAdjust="spacing" textLength="101.25" x="410" y="491.8689">realiza e paga</text><text fill="#000000" font-family="sans-serif" font-size="16.25" lengthAdjust="spacing" textLength="8.75" x="356.9664" y="575.1453">1</text><text fill="#000000" font-family="sans-serif" font-size="16.25" lengthAdjust="spacing" textLength="6.25" x="558.1571" y="448.8097">*</text><!--MD5=[cd2aeefe8c457d184a69396a9f9cb06a]
link Entrega to Veiculo--><path codeLine="86" d="M351.0125,195.3375 C364.375,191.7625 378.9625,188.0375 392.5,185 C449.525,172.2 514.8125,160.475 562.8875,152.4 " fill="none" id="Entrega-Veiculo" style="stroke:#A80036;stroke-width:1.25;"/><polygon fill="#000000" points="419.4995,152.7111,431.3103,154.0659,429.851,146.865,419.4995,152.7111" style="stroke:#000000;stroke-width:1.25;"/><text fill="#000000" font-family="sans-serif" font-size="16.25" lengthAdjust="spacing" textLength="47.5" x="436.875" y="158.1189">realiza</text><text fill="#000000" font-family="sans-serif" font-size="16.25" lengthAdjust="spacing" textLength="6.25" x="360.5332" y="187.8906">*</text><text fill="#000000" font-family="sans-serif" font-size="16.25" lengthAdjust="spacing" textLength="8.75" x="544.4977" y="172.0319">1</text><!--MD5=[60097591193c89dbde5dfd99b98b5263]
link Encomenda to Produto--><path codeLine="87" d="M695.8875,380.1125 C750.325,403.675 828.8875,437.6875 878.0875,458.9875 " fill="none" id="Encomenda-Produto" style="stroke:#A80036;stroke-width:1.25;"/><polygon fill="#000000" points="766.9856,401.4527,758.0692,393.5896,755.1503,400.3323,766.9856,401.4527" style="stroke:#000000;stroke-width:1.25;"/><text fill="#000000" font-family="sans-serif" font-size="16.25" lengthAdjust="spacing" textLength="27.5" x="772.5" y="405.6189">tem</text><text fill="#000000" font-family="sans-serif" font-size="16.25" lengthAdjust="spacing" textLength="8.75" x="705.6565" y="402.3379">1</text><text fill="#000000" font-family="sans-serif" font-size="16.25" lengthAdjust="spacing" textLength="6.25" x="861.9864" y="473.9354">*</text><!--MD5=[aa5a8ec5fd097e3d415964f18fa48efb]
link Estafeta to Utilizador--><path codeLine="88" d="M108.8125,682.6625 C206.8375,688.0125 428.5625,700.1125 549.7,706.725 " fill="none" id="Estafeta-Utilizador" style="stroke:#A80036;stroke-width:1.25;"/><polygon fill="#000000" points="267.4907,679.3103,256.4014,675.026,256.001,682.3624,267.4907,679.3103" style="stroke:#000000;stroke-width:1.25;"/><text fill="#000000" font-family="sans-serif" font-size="16.25" lengthAdjust="spacing" textLength="76.25" x="272.5" y="685.6189">atua como</text><text fill="#000000" font-family="sans-serif" font-size="16.25" lengthAdjust="spacing" textLength="8.75" x="118.8494" y="701.9255">1</text><text fill="#000000" font-family="sans-serif" font-size="16.25" lengthAdjust="spacing" textLength="8.75" x="531.2785" y="724.2045">1</text><!--MD5=[00a2b7b20e7d7828fa181bc7c0dc6998]
link Cliente to Utilizador--><path codeLine="89" d="M347.2875,592.75 C361.6125,599.6375 377.6625,607.1875 392.5,613.75 C444.325,636.6625 503.275,660.6375 549.7875,679.0875 " fill="none" id="Cliente-Utilizador" style="stroke:#A80036;stroke-width:1.25;"/><polygon fill="#000000" points="416.9993,605.171,408.0396,597.3573,405.158,604.116,416.9993,605.171" style="stroke:#000000;stroke-width:1.25;"/><text fill="#000000" font-family="sans-serif" font-size="16.25" lengthAdjust="spacing" textLength="76.25" x="422.5" y="609.3689">atua como</text><text fill="#000000" font-family="sans-serif" font-size="16.25" lengthAdjust="spacing" textLength="8.75" x="356.9664" y="615.8839">1</text><text fill="#000000" font-family="sans-serif" font-size="16.25" lengthAdjust="spacing" textLength="8.75" x="531.3756" y="693.5441">1</text><!--MD5=[460034a14c91c8062cdb3d6e7324968c]
link Veiculo to Drone--><path codeLine="90" d="M704.525,146.3625 C758.1,150.3125 830.6625,155.65 877.35,159.0875 " fill="none" id="Veiculo-Drone" style="stroke:#A80036;stroke-width:1.25;"/><polygon fill="#000000" points="764.3919,139.7608,775.3979,144.2548,775.9375,136.9273,764.3919,139.7608" style="stroke:#000000;stroke-width:1.25;"/><text fill="#000000" font-family="sans-serif" font-size="16.25" lengthAdjust="spacing" textLength="8.75" x="781.875" y="146.8689">é</text><text fill="#000000" font-family="sans-serif" font-size="16.25" lengthAdjust="spacing" textLength="8.75" x="714.1536" y="165.2209">1</text><text fill="#000000" font-family="sans-serif" font-size="16.25" lengthAdjust="spacing" textLength="8.75" x="858.6827" y="177.2931">1</text><!--MD5=[0fa340c3d135fb564aedca6a2c40d6f7]
link Veiculo to Scooter--><path codeLine="91" d="M704.525,117.475 C758.6,98.975 832.025,73.875 878.65,57.925 " fill="none" id="Veiculo-Scooter" style="stroke:#A80036;stroke-width:1.25;"/><polygon fill="#000000" points="764.7113,77.2422,776.5981,77.0595,774.2205,70.1075,764.7113,77.2422" style="stroke:#000000;stroke-width:1.25;"/><text fill="#000000" font-family="sans-serif" font-size="16.25" lengthAdjust="spacing" textLength="8.75" x="781.875" y="81.8689">é</text><text fill="#000000" font-family="sans-serif" font-size="16.25" lengthAdjust="spacing" textLength="8.75" x="714.1536" y="132.6322">1</text><text fill="#000000" font-family="sans-serif" font-size="16.25" lengthAdjust="spacing" textLength="8.75" x="859.9135" y="79.8629">1</text><!--MD5=[5a27d3a82ae5518cc3aa88a6b9414b77]
link Farmacia to Encomenda--><path codeLine="92" d="M355.3625,356.7 C367.5375,357.0375 380.475,357.325 392.5,357.5 C445.825,358.25 459.175,358.3375 512.5,357.5 C531.675,357.2 552.5625,356.6375 571.4625,356.025 " fill="none" id="Farmacia-Encomenda" style="stroke:#A80036;stroke-width:1.25;"/><polygon fill="#000000" points="441.875,346.4502,430.5572,342.8119,430.5801,350.1592,441.875,346.4502" style="stroke:#000000;stroke-width:1.25;"/><text fill="#000000" font-family="sans-serif" font-size="16.25" lengthAdjust="spacing" textLength="27.5" x="446.875" y="353.1189">tem</text><text fill="#000000" font-family="sans-serif" font-size="16.25" lengthAdjust="spacing" textLength="8.75" x="364.8425" y="375.5771">1</text><text fill="#000000" font-family="sans-serif" font-size="16.25" lengthAdjust="spacing" textLength="6.25" x="555.605" y="374.7126">*</text><!--MD5=[79d5a61b37419f60a30a60f3bc0e499f]
link Farmacia to Veiculo--><path codeLine="93" d="M355.1,340.7 C412.5125,324.45 499.2375,299.0125 512.5,290 C533.9,275.45 553.4125,255.9625 570.175,235.8875 " fill="none" id="Farmacia-Veiculo" style="stroke:#A80036;stroke-width:1.25;"/><polygon fill="#000000" points="431.2434,276.2317,419.4703,277.8824,422.689,284.4872,431.2434,276.2317" style="stroke:#000000;stroke-width:1.25;"/><text fill="#000000" font-family="sans-serif" font-size="16.25" lengthAdjust="spacing" textLength="47.5" x="436.875" y="285.6189">possui</text><text fill="#000000" font-family="sans-serif" font-size="16.25" lengthAdjust="spacing" textLength="8.75" x="364.8926" y="333.4653">1</text><text fill="#000000" font-family="sans-serif" font-size="16.25" lengthAdjust="spacing" textLength="6.25" x="557.9845" y="262.1126">*</text><!--MD5=[e9cb6b9ea8421b6538fc03abcb01a9a8]
link Farmacia to Endereco--><path codeLine="94" d="M355.1125,382.3375 C416.5125,415.025 518.6875,469.4125 580.4125,502.275 " fill="none" id="Farmacia-Endereco" style="stroke:#A80036;stroke-width:1.25;"/><polygon fill="#000000" points="441.142,399.4067,432.888,390.8509,429.4354,397.3365,441.142,399.4067" style="stroke:#000000;stroke-width:1.25;"/><text fill="#000000" font-family="sans-serif" font-size="16.25" lengthAdjust="spacing" textLength="27.5" x="446.875" y="403.1189">tem</text><text fill="#000000" font-family="sans-serif" font-size="16.25" lengthAdjust="spacing" textLength="8.75" x="364.9072" y="405.6968">1</text><text fill="#000000" font-family="sans-serif" font-size="16.25" lengthAdjust="spacing" textLength="8.75" x="561.7432" y="516.0983">1</text><!--MD5=[dd1f02b55c28db5373378864b3c022ef]
@startuml
skinparam classAttributeIconSize 0
hide methods
left to right direction

class Entrega {
  -idEntrega
  -dataInicio
  -dataFim
  -pesoEntrega
}

class Encomenda {
  -idEncomenda
  -dataPedida
  -preco
  -pesoEncomenda
  -taxa
}

class Estafeta {
  -pesoEstafeta
}

class Endereco {
  -morada
  -latitude
  -longitude
  -altitude
}

class Scooter {
  -idScooter
}

class Cliente {
  -creditos
}


class EstadoEncomenda {
  -idEstadoEncomenda
  -designacao
}

class Produto {
  -idProduto
  -designacao
  -peso
  -precoBase
}

class Utilizador {
  -NIF
  -nome
  -email
  -numeroSegurancaSocial
  -password
}

class Veiculo {
  -idveiculo
  -descricao
  -capacidade
  -percentagemBateria
  -pesoMaximo
  -pesoVeiculo
  -potencia
  -areaFrontal
}

class Drone {
  -idDrone
  -hoverPower
}

class Farmacia {
  -NIF
  -email
}

Encomenda "1" - - "1" EstadoEncomenda : tem >
Entrega "1" - - "*" Encomenda : possui >
Estafeta "1" - - "*" Entrega: realiza >
Cliente "1" - - "1" Endereco: tem >
Cliente "1" - - "*" Encomenda: realiza e paga >
Entrega "*" - - "1" Veiculo: realiza <
Encomenda "1" - - "*" Produto: tem >
Estafeta "1" - - "1" Utilizador: atua como >
Cliente "1" - - "1" Utilizador: atua como >
Veiculo "1" - - "1" Drone: é <
Veiculo "1" - - "1" Scooter: é <
Farmacia "1" - - "*" Encomenda: tem >
Farmacia "1" - - "*" Veiculo: possui >
Farmacia "1" - - "1" Endereco: tem >

@enduml

PlantUML version 1.2021.00(Sun Jan 10 10:25:05 GMT 2021)
(GPL source distribution)
Java Runtime: OpenJDK Runtime Environment
JVM: OpenJDK 64-Bit Server VM
Default Encoding: Cp1252
Language: pt
Country: PT
--></g></svg>