<?xml version="1.0" encoding="UTF-8" standalone="no"?><svg xmlns="http://www.w3.org/2000/svg" xmlns:xlink="http://www.w3.org/1999/xlink" contentScriptType="application/ecmascript" contentStyleType="text/css" height="377px" preserveAspectRatio="none" style="width:509px;height:377px;" version="1.1" viewBox="0 0 509 377" width="509px" zoomAndPan="magnify"><defs><filter height="300%" id="f43ajfq44d7w7" width="300%" x="-1" y="-1"><feGaussianBlur result="blurOut" stdDeviation="2.0"/><feColorMatrix in="blurOut" result="blurOut2" type="matrix" values="0 0 0 0 0 0 0 0 0 0 0 0 0 0 0 0 0 0 .4 0"/><feOffset dx="4.0" dy="4.0" in="blurOut2" result="blurOut3"/><feBlend in="SourceGraphic" in2="blurOut3" mode="normal"/></filter></defs><g><rect fill="#FFFFFF" filter="url(#f43ajfq44d7w7)" height="174.1094" style="stroke:#A80036;stroke-width:1.0;" width="10" x="29" y="99.6094"/><rect fill="#FFFFFF" filter="url(#f43ajfq44d7w7)" height="30.3516" style="stroke:#A80036;stroke-width:1.0;" width="10" x="458" y="121.9609"/><rect fill="#FFFFFF" filter="url(#f43ajfq44d7w7)" height="30.3516" style="stroke:#A80036;stroke-width:1.0;" width="10" x="458" y="182.6641"/><rect fill="#FFFFFF" filter="url(#f43ajfq44d7w7)" height="30.3516" style="stroke:#A80036;stroke-width:1.0;" width="10" x="458" y="243.3672"/><line style="stroke:#A80036;stroke-width:1.0;stroke-dasharray:5.0,5.0;" x1="34" x2="34" y1="89.6094" y2="291.7188"/><line style="stroke:#A80036;stroke-width:1.0;stroke-dasharray:5.0,5.0;" x1="463" x2="463" y1="89.6094" y2="291.7188"/><text fill="#000000" font-family="sans-serif" font-size="14" lengthAdjust="spacing" textLength="52" x="5" y="86.5332">Estafeta</text><ellipse cx="34" cy="15" fill="#FEFECE" filter="url(#f43ajfq44d7w7)" rx="8" ry="8" style="stroke:#A80036;stroke-width:2.0;"/><path d="M34,23 L34,50 M21,31 L47,31 M34,50 L21,65 M34,50 L47,65 " fill="none" filter="url(#f43ajfq44d7w7)" style="stroke:#A80036;stroke-width:2.0;"/><text fill="#000000" font-family="sans-serif" font-size="14" lengthAdjust="spacing" textLength="52" x="5" y="305.252">Estafeta</text><ellipse cx="34" cy="318.3281" fill="#FEFECE" filter="url(#f43ajfq44d7w7)" rx="8" ry="8" style="stroke:#A80036;stroke-width:2.0;"/><path d="M34,326.3281 L34,353.3281 M21,334.3281 L47,334.3281 M34,353.3281 L21,368.3281 M34,353.3281 L47,368.3281 " fill="none" filter="url(#f43ajfq44d7w7)" style="stroke:#A80036;stroke-width:2.0;"/><rect fill="#FEFECE" filter="url(#f43ajfq44d7w7)" height="31.6094" style="stroke:#A80036;stroke-width:1.5;" width="68" x="427" y="53"/><text fill="#000000" font-family="sans-serif" font-size="14" lengthAdjust="spacing" textLength="54" x="434" y="74.5332">:Sistema</text><rect fill="#FEFECE" filter="url(#f43ajfq44d7w7)" height="31.6094" style="stroke:#A80036;stroke-width:1.5;" width="68" x="427" y="290.7188"/><text fill="#000000" font-family="sans-serif" font-size="14" lengthAdjust="spacing" textLength="54" x="434" y="312.252">:Sistema</text><rect fill="#FFFFFF" filter="url(#f43ajfq44d7w7)" height="174.1094" style="stroke:#A80036;stroke-width:1.0;" width="10" x="29" y="99.6094"/><rect fill="#FFFFFF" filter="url(#f43ajfq44d7w7)" height="30.3516" style="stroke:#A80036;stroke-width:1.0;" width="10" x="458" y="121.9609"/><rect fill="#FFFFFF" filter="url(#f43ajfq44d7w7)" height="30.3516" style="stroke:#A80036;stroke-width:1.0;" width="10" x="458" y="182.6641"/><rect fill="#FFFFFF" filter="url(#f43ajfq44d7w7)" height="30.3516" style="stroke:#A80036;stroke-width:1.0;" width="10" x="458" y="243.3672"/><polygon fill="#A80036" points="446,117.9609,456,121.9609,446,125.9609,450,121.9609" style="stroke:#A80036;stroke-width:1.0;"/><line style="stroke:#A80036;stroke-width:1.0;" x1="39" x2="452" y1="121.9609" y2="121.9609"/><text fill="#000000" font-family="sans-serif" font-size="13" font-weight="bold" lengthAdjust="spacing" textLength="7" x="46" y="117.1045">1</text><text fill="#000000" font-family="sans-serif" font-size="13" lengthAdjust="spacing" textLength="77" x="57" y="117.1045">inicia entrega</text><polygon fill="#A80036" points="50,148.3125,40,152.3125,50,156.3125,46,152.3125" style="stroke:#A80036;stroke-width:1.0;"/><line style="stroke:#A80036;stroke-width:1.0;stroke-dasharray:2.0,2.0;" x1="44" x2="462" y1="152.3125" y2="152.3125"/><text fill="#000000" font-family="sans-serif" font-size="13" font-weight="bold" lengthAdjust="spacing" textLength="7" x="56" y="147.4561">2</text><text fill="#000000" font-family="sans-serif" font-size="13" lengthAdjust="spacing" textLength="384" x="67" y="147.4561">mostra uma lista de farmacia e solicita a escolha de uma farmacia</text><polygon fill="#A80036" points="446,178.6641,456,182.6641,446,186.6641,450,182.6641" style="stroke:#A80036;stroke-width:1.0;"/><line style="stroke:#A80036;stroke-width:1.0;" x1="39" x2="452" y1="182.6641" y2="182.6641"/><text fill="#000000" font-family="sans-serif" font-size="13" font-weight="bold" lengthAdjust="spacing" textLength="7" x="46" y="177.8076">3</text><text fill="#000000" font-family="sans-serif" font-size="13" lengthAdjust="spacing" textLength="151" x="57" y="177.8076">introduz dados solicitados</text><polygon fill="#A80036" points="50,209.0156,40,213.0156,50,217.0156,46,213.0156" style="stroke:#A80036;stroke-width:1.0;"/><line style="stroke:#A80036;stroke-width:1.0;stroke-dasharray:2.0,2.0;" x1="44" x2="462" y1="213.0156" y2="213.0156"/><text fill="#000000" font-family="sans-serif" font-size="13" font-weight="bold" lengthAdjust="spacing" textLength="7" x="56" y="208.1592">4</text><text fill="#000000" font-family="sans-serif" font-size="13" lengthAdjust="spacing" textLength="226" x="67" y="208.1592">apresenta dados e solicita confirmação</text><polygon fill="#A80036" points="446,239.3672,456,243.3672,446,247.3672,450,243.3672" style="stroke:#A80036;stroke-width:1.0;"/><line style="stroke:#A80036;stroke-width:1.0;" x1="39" x2="452" y1="243.3672" y2="243.3672"/><text fill="#000000" font-family="sans-serif" font-size="13" font-weight="bold" lengthAdjust="spacing" textLength="7" x="46" y="238.5107">5</text><text fill="#000000" font-family="sans-serif" font-size="13" lengthAdjust="spacing" textLength="106" x="57" y="238.5107">confirma os dados</text><polygon fill="#A80036" points="45,269.7188,35,273.7188,45,277.7188,41,273.7188" style="stroke:#A80036;stroke-width:1.0;"/><line style="stroke:#A80036;stroke-width:1.0;stroke-dasharray:2.0,2.0;" x1="39" x2="462" y1="273.7188" y2="273.7188"/><text fill="#000000" font-family="sans-serif" font-size="13" font-weight="bold" lengthAdjust="spacing" textLength="7" x="51" y="268.8623">6</text><text fill="#000000" font-family="sans-serif" font-size="13" lengthAdjust="spacing" textLength="184" x="62" y="268.8623">informa operação bem sucedida</text><!--MD5=[d67d210c6a6830df2a8dbee9c6e23a69]
@startuml
autonumber
actor "Estafeta" as EST

activate EST
EST -> ":Sistema" : inicia entrega
activate ":Sistema"
":Sistema" - -> EST : mostra uma lista de farmacia e solicita a escolha de uma farmacia
deactivate ":Sistema"

EST -> ":Sistema" : introduz dados solicitados
activate ":Sistema"
":Sistema" - -> EST : apresenta dados e solicita confirmação
deactivate ":Sistema"

EST -> ":Sistema" : confirma os dados
activate ":Sistema"
":Sistema" - -> EST : informa operação bem sucedida
deactivate ":Sistema"

deactivate EST
@enduml

PlantUML version 1.2021.00(Sun Jan 10 10:25:05 GMT 2021)
(GPL source distribution)
Java Runtime: OpenJDK Runtime Environment
JVM: OpenJDK 64-Bit Server VM
Default Encoding: Cp1252
Language: pt
Country: PT
--></g></svg>