<?xml version="1.0" encoding="UTF-8" standalone="no"?><svg xmlns="http://www.w3.org/2000/svg" xmlns:xlink="http://www.w3.org/1999/xlink" contentScriptType="application/ecmascript" contentStyleType="text/css" height="517px" preserveAspectRatio="none" style="width:991px;height:517px;" version="1.1" viewBox="0 0 991 517" width="991px" zoomAndPan="magnify"><defs><filter height="300%" id="f1l5rvqg712bmf" width="300%" x="-1" y="-1"><feGaussianBlur result="blurOut" stdDeviation="2.0"/><feColorMatrix in="blurOut" result="blurOut2" type="matrix" values="0 0 0 0 0 0 0 0 0 0 0 0 0 0 0 0 0 0 .4 0"/><feOffset dx="4.0" dy="4.0" in="blurOut2" result="blurOut3"/><feBlend in="SourceGraphic" in2="blurOut3" mode="normal"/></filter></defs><g><!--MD5=[3179f819b5ca0f9c8a1bd58e9144681b]
class Entrega--><rect codeLine="5" fill="#FEFECE" filter="url(#f1l5rvqg712bmf)" height="78.4141" id="Entrega" style="stroke:#A80036;stroke-width:1.5;" width="78" x="317.5" y="387"/><ellipse cx="332.5" cy="403" fill="#ADD1B2" rx="11" ry="11" style="stroke:#A80036;stroke-width:1.0;"/><path d="M334.8438,398.6719 C333.9063,398.2344 333.3125,398.0938 332.4375,398.0938 C329.8125,398.0938 327.8125,400.1719 327.8125,402.8906 L327.8125,404.0156 C327.8125,406.5938 329.9219,408.4844 332.8125,408.4844 C334.0313,408.4844 335.1875,408.1875 335.9375,407.6406 C336.5156,407.2344 336.8438,406.7813 336.8438,406.3906 C336.8438,405.9375 336.4531,405.5469 335.9844,405.5469 C335.7656,405.5469 335.5625,405.625 335.375,405.8125 C334.9219,406.2969 334.9219,406.2969 334.7344,406.3906 C334.3125,406.6563 333.625,406.7813 332.8594,406.7813 C330.8125,406.7813 329.5156,405.6875 329.5156,403.9844 L329.5156,402.8906 C329.5156,401.1094 330.7656,399.7969 332.5,399.7969 C333.0781,399.7969 333.6875,399.9531 334.1563,400.2031 C334.6406,400.4844 334.8125,400.7031 334.9063,401.1094 C334.9688,401.5156 335,401.6406 335.1406,401.7656 C335.2813,401.9063 335.5156,402.0156 335.7344,402.0156 C336,402.0156 336.2656,401.875 336.4375,401.6563 C336.5469,401.5 336.5781,401.3125 336.5781,400.8906 L336.5781,399.4688 C336.5781,399.0313 336.5625,398.9063 336.4688,398.75 C336.3125,398.4844 336.0313,398.3438 335.7344,398.3438 C335.4375,398.3438 335.2344,398.4375 335.0156,398.75 L334.8438,398.6719 Z " fill="#000000"/><text fill="#000000" font-family="sans-serif" font-size="12" lengthAdjust="spacing" textLength="46" x="346.5" y="407.1543">Entrega</text><line style="stroke:#A80036;stroke-width:1.5;" x1="318.5" x2="394.5" y1="419" y2="419"/><text fill="#000000" font-family="sans-serif" font-size="11" lengthAdjust="spacing" textLength="58" x="323.5" y="433.2104">-idEntrega</text><text fill="#000000" font-family="sans-serif" font-size="11" lengthAdjust="spacing" textLength="58" x="323.5" y="446.0151">-dataInicio</text><text fill="#000000" font-family="sans-serif" font-size="11" lengthAdjust="spacing" textLength="49" x="323.5" y="458.8198">-dataFim</text><!--MD5=[c55f92ccbf0646788158d42f3399cc78]
class Encomenda--><rect codeLine="11" fill="#FEFECE" filter="url(#f1l5rvqg712bmf)" height="104.0234" id="Encomenda" style="stroke:#A80036;stroke-width:1.5;" width="111" x="610.5" y="247"/><ellipse cx="629.55" cy="263" fill="#ADD1B2" rx="11" ry="11" style="stroke:#A80036;stroke-width:1.0;"/><path d="M631.8938,258.6719 C630.9563,258.2344 630.3625,258.0938 629.4875,258.0938 C626.8625,258.0938 624.8625,260.1719 624.8625,262.8906 L624.8625,264.0156 C624.8625,266.5938 626.9719,268.4844 629.8625,268.4844 C631.0813,268.4844 632.2375,268.1875 632.9875,267.6406 C633.5656,267.2344 633.8938,266.7813 633.8938,266.3906 C633.8938,265.9375 633.5031,265.5469 633.0344,265.5469 C632.8156,265.5469 632.6125,265.625 632.425,265.8125 C631.9719,266.2969 631.9719,266.2969 631.7844,266.3906 C631.3625,266.6563 630.675,266.7813 629.9094,266.7813 C627.8625,266.7813 626.5656,265.6875 626.5656,263.9844 L626.5656,262.8906 C626.5656,261.1094 627.8156,259.7969 629.55,259.7969 C630.1281,259.7969 630.7375,259.9531 631.2063,260.2031 C631.6906,260.4844 631.8625,260.7031 631.9563,261.1094 C632.0188,261.5156 632.05,261.6406 632.1906,261.7656 C632.3313,261.9063 632.5656,262.0156 632.7844,262.0156 C633.05,262.0156 633.3156,261.875 633.4875,261.6563 C633.5969,261.5 633.6281,261.3125 633.6281,260.8906 L633.6281,259.4688 C633.6281,259.0313 633.6125,258.9063 633.5188,258.75 C633.3625,258.4844 633.0813,258.3438 632.7844,258.3438 C632.4875,258.3438 632.2844,258.4375 632.0656,258.75 L631.8938,258.6719 Z " fill="#000000"/><text fill="#000000" font-family="sans-serif" font-size="12" lengthAdjust="spacing" textLength="70" x="644.45" y="267.1543">Encomenda</text><line style="stroke:#A80036;stroke-width:1.5;" x1="611.5" x2="720.5" y1="279" y2="279"/><text fill="#000000" font-family="sans-serif" font-size="11" lengthAdjust="spacing" textLength="81" x="616.5" y="293.2104">-idEncomenda</text><text fill="#000000" font-family="sans-serif" font-size="11" lengthAdjust="spacing" textLength="67" x="616.5" y="306.0151">-dataPedida</text><text fill="#000000" font-family="sans-serif" font-size="11" lengthAdjust="spacing" textLength="36" x="616.5" y="318.8198">-preco</text><text fill="#000000" font-family="sans-serif" font-size="11" lengthAdjust="spacing" textLength="99" x="616.5" y="331.6245">-pesoEncomenda</text><text fill="#000000" font-family="sans-serif" font-size="11" lengthAdjust="spacing" textLength="29" x="616.5" y="344.4292">-taxa</text><!--MD5=[3f1202280bfe3359d2f91fb9b6e32986]
class Estafeta--><rect codeLine="20" fill="#FEFECE" filter="url(#f1l5rvqg712bmf)" height="116.8281" id="Estafeta" style="stroke:#A80036;stroke-width:1.5;" width="155" x="7" y="367.5"/><ellipse cx="56.25" cy="383.5" fill="#ADD1B2" rx="11" ry="11" style="stroke:#A80036;stroke-width:1.0;"/><path d="M58.5938,379.1719 C57.6563,378.7344 57.0625,378.5938 56.1875,378.5938 C53.5625,378.5938 51.5625,380.6719 51.5625,383.3906 L51.5625,384.5156 C51.5625,387.0938 53.6719,388.9844 56.5625,388.9844 C57.7813,388.9844 58.9375,388.6875 59.6875,388.1406 C60.2656,387.7344 60.5938,387.2813 60.5938,386.8906 C60.5938,386.4375 60.2031,386.0469 59.7344,386.0469 C59.5156,386.0469 59.3125,386.125 59.125,386.3125 C58.6719,386.7969 58.6719,386.7969 58.4844,386.8906 C58.0625,387.1563 57.375,387.2813 56.6094,387.2813 C54.5625,387.2813 53.2656,386.1875 53.2656,384.4844 L53.2656,383.3906 C53.2656,381.6094 54.5156,380.2969 56.25,380.2969 C56.8281,380.2969 57.4375,380.4531 57.9063,380.7031 C58.3906,380.9844 58.5625,381.2031 58.6563,381.6094 C58.7188,382.0156 58.75,382.1406 58.8906,382.2656 C59.0313,382.4063 59.2656,382.5156 59.4844,382.5156 C59.75,382.5156 60.0156,382.375 60.1875,382.1563 C60.2969,382 60.3281,381.8125 60.3281,381.3906 L60.3281,379.9688 C60.3281,379.5313 60.3125,379.4063 60.2188,379.25 C60.0625,378.9844 59.7813,378.8438 59.4844,378.8438 C59.1875,378.8438 58.9844,378.9375 58.7656,379.25 L58.5938,379.1719 Z " fill="#000000"/><text fill="#000000" font-family="sans-serif" font-size="12" lengthAdjust="spacing" textLength="48" x="76.75" y="387.6543">Estafeta</text><line style="stroke:#A80036;stroke-width:1.5;" x1="8" x2="161" y1="399.5" y2="399.5"/><text fill="#000000" font-family="sans-serif" font-size="11" lengthAdjust="spacing" textLength="21" x="13" y="413.7104">-NIF</text><text fill="#000000" font-family="sans-serif" font-size="11" lengthAdjust="spacing" textLength="37" x="13" y="426.5151">-nome</text><text fill="#000000" font-family="sans-serif" font-size="11" lengthAdjust="spacing" textLength="36" x="13" y="439.3198">-email</text><text fill="#000000" font-family="sans-serif" font-size="11" lengthAdjust="spacing" textLength="143" x="13" y="452.1245">-numeroSegurancaSocial</text><text fill="#000000" font-family="sans-serif" font-size="11" lengthAdjust="spacing" textLength="57" x="13" y="464.9292">-password</text><text fill="#000000" font-family="sans-serif" font-size="11" lengthAdjust="spacing" textLength="79" x="13" y="477.7339">-pesoEstafeta</text><!--MD5=[36c1942e8942a3e4f47e6de3733e3d18]
class Endereco--><rect codeLine="29" fill="#FEFECE" filter="url(#f1l5rvqg712bmf)" height="91.2188" id="Endereco" style="stroke:#A80036;stroke-width:1.5;" width="90" x="621" y="120.5"/><ellipse cx="636" cy="136.5" fill="#ADD1B2" rx="11" ry="11" style="stroke:#A80036;stroke-width:1.0;"/><path d="M638.3438,132.1719 C637.4063,131.7344 636.8125,131.5938 635.9375,131.5938 C633.3125,131.5938 631.3125,133.6719 631.3125,136.3906 L631.3125,137.5156 C631.3125,140.0938 633.4219,141.9844 636.3125,141.9844 C637.5313,141.9844 638.6875,141.6875 639.4375,141.1406 C640.0156,140.7344 640.3438,140.2813 640.3438,139.8906 C640.3438,139.4375 639.9531,139.0469 639.4844,139.0469 C639.2656,139.0469 639.0625,139.125 638.875,139.3125 C638.4219,139.7969 638.4219,139.7969 638.2344,139.8906 C637.8125,140.1563 637.125,140.2813 636.3594,140.2813 C634.3125,140.2813 633.0156,139.1875 633.0156,137.4844 L633.0156,136.3906 C633.0156,134.6094 634.2656,133.2969 636,133.2969 C636.5781,133.2969 637.1875,133.4531 637.6563,133.7031 C638.1406,133.9844 638.3125,134.2031 638.4063,134.6094 C638.4688,135.0156 638.5,135.1406 638.6406,135.2656 C638.7813,135.4063 639.0156,135.5156 639.2344,135.5156 C639.5,135.5156 639.7656,135.375 639.9375,135.1563 C640.0469,135 640.0781,134.8125 640.0781,134.3906 L640.0781,132.9688 C640.0781,132.5313 640.0625,132.4063 639.9688,132.25 C639.8125,131.9844 639.5313,131.8438 639.2344,131.8438 C638.9375,131.8438 638.7344,131.9375 638.5156,132.25 L638.3438,132.1719 Z " fill="#000000"/><text fill="#000000" font-family="sans-serif" font-size="12" lengthAdjust="spacing" textLength="58" x="650" y="140.6543">Endereco</text><line style="stroke:#A80036;stroke-width:1.5;" x1="622" x2="710" y1="152.5" y2="152.5"/><text fill="#000000" font-family="sans-serif" font-size="11" lengthAdjust="spacing" textLength="47" x="627" y="166.7104">-morada</text><text fill="#000000" font-family="sans-serif" font-size="11" lengthAdjust="spacing" textLength="47" x="627" y="179.5151">-latitude</text><text fill="#000000" font-family="sans-serif" font-size="11" lengthAdjust="spacing" textLength="57" x="627" y="192.3198">-longitude</text><text fill="#000000" font-family="sans-serif" font-size="11" lengthAdjust="spacing" textLength="47" x="627" y="205.1245">-altitude</text><!--MD5=[f4402668d5d5bb8485350c0fdb60ac8e]
class Scooter--><rect codeLine="36" fill="#FEFECE" filter="url(#f1l5rvqg712bmf)" height="116.8281" id="Scooter" style="stroke:#A80036;stroke-width:1.5;" width="134" x="599" y="386.5"/><ellipse cx="638.3" cy="402.5" fill="#ADD1B2" rx="11" ry="11" style="stroke:#A80036;stroke-width:1.0;"/><path d="M640.6438,398.1719 C639.7063,397.7344 639.1125,397.5938 638.2375,397.5938 C635.6125,397.5938 633.6125,399.6719 633.6125,402.3906 L633.6125,403.5156 C633.6125,406.0938 635.7219,407.9844 638.6125,407.9844 C639.8313,407.9844 640.9875,407.6875 641.7375,407.1406 C642.3156,406.7344 642.6438,406.2813 642.6438,405.8906 C642.6438,405.4375 642.2531,405.0469 641.7844,405.0469 C641.5656,405.0469 641.3625,405.125 641.175,405.3125 C640.7219,405.7969 640.7219,405.7969 640.5344,405.8906 C640.1125,406.1563 639.425,406.2813 638.6594,406.2813 C636.6125,406.2813 635.3156,405.1875 635.3156,403.4844 L635.3156,402.3906 C635.3156,400.6094 636.5656,399.2969 638.3,399.2969 C638.8781,399.2969 639.4875,399.4531 639.9563,399.7031 C640.4406,399.9844 640.6125,400.2031 640.7063,400.6094 C640.7688,401.0156 640.8,401.1406 640.9406,401.2656 C641.0813,401.4063 641.3156,401.5156 641.5344,401.5156 C641.8,401.5156 642.0656,401.375 642.2375,401.1563 C642.3469,401 642.3781,400.8125 642.3781,400.3906 L642.3781,398.9688 C642.3781,398.5313 642.3625,398.4063 642.2688,398.25 C642.1125,397.9844 641.8313,397.8438 641.5344,397.8438 C641.2375,397.8438 641.0344,397.9375 640.8156,398.25 L640.6438,398.1719 Z " fill="#000000"/><text fill="#000000" font-family="sans-serif" font-size="12" lengthAdjust="spacing" textLength="48" x="657.7" y="406.6543">Scooter</text><line style="stroke:#A80036;stroke-width:1.5;" x1="600" x2="732" y1="418.5" y2="418.5"/><text fill="#000000" font-family="sans-serif" font-size="11" lengthAdjust="spacing" textLength="58" x="605" y="432.7104">-idScooter</text><text fill="#000000" font-family="sans-serif" font-size="11" lengthAdjust="spacing" textLength="122" x="605" y="445.5151">-percentagemBateria</text><text fill="#000000" font-family="sans-serif" font-size="11" lengthAdjust="spacing" textLength="76" x="605" y="458.3198">-pesoMaximo</text><text fill="#000000" font-family="sans-serif" font-size="11" lengthAdjust="spacing" textLength="76" x="605" y="471.1245">-pesoScooter</text><text fill="#000000" font-family="sans-serif" font-size="11" lengthAdjust="spacing" textLength="53" x="605" y="483.9292">-potencia</text><text fill="#000000" font-family="sans-serif" font-size="11" lengthAdjust="spacing" textLength="68" x="605" y="496.7339">-areaFrontal</text><!--MD5=[1a083dbe42a284ae0ea7f6f701783206]
class Parque--><rect codeLine="45" fill="#FEFECE" filter="url(#f1l5rvqg712bmf)" height="52.8047" id="Parque" style="stroke:#A80036;stroke-width:1.5;" width="104" x="304.5" y="279.5"/><ellipse cx="333.45" cy="295.5" fill="#ADD1B2" rx="11" ry="11" style="stroke:#A80036;stroke-width:1.0;"/><path d="M335.7938,291.1719 C334.8563,290.7344 334.2625,290.5938 333.3875,290.5938 C330.7625,290.5938 328.7625,292.6719 328.7625,295.3906 L328.7625,296.5156 C328.7625,299.0938 330.8719,300.9844 333.7625,300.9844 C334.9813,300.9844 336.1375,300.6875 336.8875,300.1406 C337.4656,299.7344 337.7938,299.2813 337.7938,298.8906 C337.7938,298.4375 337.4031,298.0469 336.9344,298.0469 C336.7156,298.0469 336.5125,298.125 336.325,298.3125 C335.8719,298.7969 335.8719,298.7969 335.6844,298.8906 C335.2625,299.1563 334.575,299.2813 333.8094,299.2813 C331.7625,299.2813 330.4656,298.1875 330.4656,296.4844 L330.4656,295.3906 C330.4656,293.6094 331.7156,292.2969 333.45,292.2969 C334.0281,292.2969 334.6375,292.4531 335.1063,292.7031 C335.5906,292.9844 335.7625,293.2031 335.8563,293.6094 C335.9188,294.0156 335.95,294.1406 336.0906,294.2656 C336.2313,294.4063 336.4656,294.5156 336.6844,294.5156 C336.95,294.5156 337.2156,294.375 337.3875,294.1563 C337.4969,294 337.5281,293.8125 337.5281,293.3906 L337.5281,291.9688 C337.5281,291.5313 337.5125,291.4063 337.4188,291.25 C337.2625,290.9844 336.9813,290.8438 336.6844,290.8438 C336.3875,290.8438 336.1844,290.9375 335.9656,291.25 L335.7938,291.1719 Z " fill="#000000"/><text fill="#000000" font-family="sans-serif" font-size="12" lengthAdjust="spacing" textLength="41" x="350.55" y="299.6543">Parque</text><line style="stroke:#A80036;stroke-width:1.5;" x1="305.5" x2="407.5" y1="311.5" y2="311.5"/><text fill="#000000" font-family="sans-serif" font-size="11" lengthAdjust="spacing" textLength="92" x="310.5" y="325.7104">-numeroMaximo</text><!--MD5=[20a748d5ee336a9a91751b0a3d4f0beb]
class Cliente--><rect codeLine="49" fill="#FEFECE" filter="url(#f1l5rvqg712bmf)" height="116.8281" id="Cliente" style="stroke:#A80036;stroke-width:1.5;" width="155" x="279" y="101.5"/><ellipse cx="331.75" cy="117.5" fill="#ADD1B2" rx="11" ry="11" style="stroke:#A80036;stroke-width:1.0;"/><path d="M334.0938,113.1719 C333.1563,112.7344 332.5625,112.5938 331.6875,112.5938 C329.0625,112.5938 327.0625,114.6719 327.0625,117.3906 L327.0625,118.5156 C327.0625,121.0938 329.1719,122.9844 332.0625,122.9844 C333.2813,122.9844 334.4375,122.6875 335.1875,122.1406 C335.7656,121.7344 336.0938,121.2813 336.0938,120.8906 C336.0938,120.4375 335.7031,120.0469 335.2344,120.0469 C335.0156,120.0469 334.8125,120.125 334.625,120.3125 C334.1719,120.7969 334.1719,120.7969 333.9844,120.8906 C333.5625,121.1563 332.875,121.2813 332.1094,121.2813 C330.0625,121.2813 328.7656,120.1875 328.7656,118.4844 L328.7656,117.3906 C328.7656,115.6094 330.0156,114.2969 331.75,114.2969 C332.3281,114.2969 332.9375,114.4531 333.4063,114.7031 C333.8906,114.9844 334.0625,115.2031 334.1563,115.6094 C334.2188,116.0156 334.25,116.1406 334.3906,116.2656 C334.5313,116.4063 334.7656,116.5156 334.9844,116.5156 C335.25,116.5156 335.5156,116.375 335.6875,116.1563 C335.7969,116 335.8281,115.8125 335.8281,115.3906 L335.8281,113.9688 C335.8281,113.5313 335.8125,113.4063 335.7188,113.25 C335.5625,112.9844 335.2813,112.8438 334.9844,112.8438 C334.6875,112.8438 334.4844,112.9375 334.2656,113.25 L334.0938,113.1719 Z " fill="#000000"/><text fill="#000000" font-family="sans-serif" font-size="12" lengthAdjust="spacing" textLength="41" x="352.25" y="121.6543">Cliente</text><line style="stroke:#A80036;stroke-width:1.5;" x1="280" x2="433" y1="133.5" y2="133.5"/><text fill="#000000" font-family="sans-serif" font-size="11" lengthAdjust="spacing" textLength="21" x="285" y="147.7104">-NIF</text><text fill="#000000" font-family="sans-serif" font-size="11" lengthAdjust="spacing" textLength="37" x="285" y="160.5151">-nome</text><text fill="#000000" font-family="sans-serif" font-size="11" lengthAdjust="spacing" textLength="36" x="285" y="173.3198">-email</text><text fill="#000000" font-family="sans-serif" font-size="11" lengthAdjust="spacing" textLength="143" x="285" y="186.1245">-numeroSegurancaSocial</text><text fill="#000000" font-family="sans-serif" font-size="11" lengthAdjust="spacing" textLength="57" x="285" y="198.9292">-password</text><text fill="#000000" font-family="sans-serif" font-size="11" lengthAdjust="spacing" textLength="49" x="285" y="211.7339">-creditos</text><!--MD5=[a13ca1da61a66d544daddca6fa0a1a30]
class Cartao--><rect codeLine="58" fill="#FEFECE" filter="url(#f1l5rvqg712bmf)" height="78.4141" id="Cartao" style="stroke:#A80036;stroke-width:1.5;" width="108" x="612" y="7"/><ellipse cx="643.65" cy="23" fill="#ADD1B2" rx="11" ry="11" style="stroke:#A80036;stroke-width:1.0;"/><path d="M645.9938,18.6719 C645.0563,18.2344 644.4625,18.0938 643.5875,18.0938 C640.9625,18.0938 638.9625,20.1719 638.9625,22.8906 L638.9625,24.0156 C638.9625,26.5938 641.0719,28.4844 643.9625,28.4844 C645.1813,28.4844 646.3375,28.1875 647.0875,27.6406 C647.6656,27.2344 647.9938,26.7813 647.9938,26.3906 C647.9938,25.9375 647.6031,25.5469 647.1344,25.5469 C646.9156,25.5469 646.7125,25.625 646.525,25.8125 C646.0719,26.2969 646.0719,26.2969 645.8844,26.3906 C645.4625,26.6563 644.775,26.7813 644.0094,26.7813 C641.9625,26.7813 640.6656,25.6875 640.6656,23.9844 L640.6656,22.8906 C640.6656,21.1094 641.9156,19.7969 643.65,19.7969 C644.2281,19.7969 644.8375,19.9531 645.3063,20.2031 C645.7906,20.4844 645.9625,20.7031 646.0563,21.1094 C646.1188,21.5156 646.15,21.6406 646.2906,21.7656 C646.4313,21.9063 646.6656,22.0156 646.8844,22.0156 C647.15,22.0156 647.4156,21.875 647.5875,21.6563 C647.6969,21.5 647.7281,21.3125 647.7281,20.8906 L647.7281,19.4688 C647.7281,19.0313 647.7125,18.9063 647.6188,18.75 C647.4625,18.4844 647.1813,18.3438 646.8844,18.3438 C646.5875,18.3438 646.3844,18.4375 646.1656,18.75 L645.9938,18.6719 Z " fill="#000000"/><text fill="#000000" font-family="sans-serif" font-size="12" lengthAdjust="spacing" textLength="39" x="661.35" y="27.1543">Cartao</text><line style="stroke:#A80036;stroke-width:1.5;" x1="613" x2="719" y1="39" y2="39"/><text fill="#000000" font-family="sans-serif" font-size="11" lengthAdjust="spacing" textLength="85" x="618" y="53.2104">-numeroCartao</text><text fill="#000000" font-family="sans-serif" font-size="11" lengthAdjust="spacing" textLength="96" x="618" y="66.0151">-dataDeValidade</text><text fill="#000000" font-family="sans-serif" font-size="11" lengthAdjust="spacing" textLength="28" x="618" y="78.8198">-CCV</text><!--MD5=[533e824b6b94274ee39bf5a43d7cce2a]
class EstadoEncomenda--><rect codeLine="64" fill="#FEFECE" filter="url(#f1l5rvqg712bmf)" height="65.6094" id="EstadoEncomenda" style="stroke:#A80036;stroke-width:1.5;" width="143" x="834" y="209"/><ellipse cx="849" cy="225" fill="#ADD1B2" rx="11" ry="11" style="stroke:#A80036;stroke-width:1.0;"/><path d="M851.3438,220.6719 C850.4063,220.2344 849.8125,220.0938 848.9375,220.0938 C846.3125,220.0938 844.3125,222.1719 844.3125,224.8906 L844.3125,226.0156 C844.3125,228.5938 846.4219,230.4844 849.3125,230.4844 C850.5313,230.4844 851.6875,230.1875 852.4375,229.6406 C853.0156,229.2344 853.3438,228.7813 853.3438,228.3906 C853.3438,227.9375 852.9531,227.5469 852.4844,227.5469 C852.2656,227.5469 852.0625,227.625 851.875,227.8125 C851.4219,228.2969 851.4219,228.2969 851.2344,228.3906 C850.8125,228.6563 850.125,228.7813 849.3594,228.7813 C847.3125,228.7813 846.0156,227.6875 846.0156,225.9844 L846.0156,224.8906 C846.0156,223.1094 847.2656,221.7969 849,221.7969 C849.5781,221.7969 850.1875,221.9531 850.6563,222.2031 C851.1406,222.4844 851.3125,222.7031 851.4063,223.1094 C851.4688,223.5156 851.5,223.6406 851.6406,223.7656 C851.7813,223.9063 852.0156,224.0156 852.2344,224.0156 C852.5,224.0156 852.7656,223.875 852.9375,223.6563 C853.0469,223.5 853.0781,223.3125 853.0781,222.8906 L853.0781,221.4688 C853.0781,221.0313 853.0625,220.9063 852.9688,220.75 C852.8125,220.4844 852.5313,220.3438 852.2344,220.3438 C851.9375,220.3438 851.7344,220.4375 851.5156,220.75 L851.3438,220.6719 Z " fill="#000000"/><text fill="#000000" font-family="sans-serif" font-size="12" lengthAdjust="spacing" textLength="111" x="863" y="229.1543">EstadoEncomenda</text><line style="stroke:#A80036;stroke-width:1.5;" x1="835" x2="976" y1="241" y2="241"/><text fill="#000000" font-family="sans-serif" font-size="11" lengthAdjust="spacing" textLength="119" x="840" y="255.2104">-idEstadoEncomenda</text><text fill="#000000" font-family="sans-serif" font-size="11" lengthAdjust="spacing" textLength="69" x="840" y="268.0151">-designacao</text><!--MD5=[d4dacc50d49878ba7c621dfc80a2e1ce]
class Produto--><rect codeLine="69" fill="#FEFECE" filter="url(#f1l5rvqg712bmf)" height="91.2188" id="Produto" style="stroke:#A80036;stroke-width:1.5;" width="81" x="865" y="310.5"/><ellipse cx="881.35" cy="326.5" fill="#ADD1B2" rx="11" ry="11" style="stroke:#A80036;stroke-width:1.0;"/><path d="M883.6938,322.1719 C882.7563,321.7344 882.1625,321.5938 881.2875,321.5938 C878.6625,321.5938 876.6625,323.6719 876.6625,326.3906 L876.6625,327.5156 C876.6625,330.0938 878.7719,331.9844 881.6625,331.9844 C882.8813,331.9844 884.0375,331.6875 884.7875,331.1406 C885.3656,330.7344 885.6938,330.2813 885.6938,329.8906 C885.6938,329.4375 885.3031,329.0469 884.8344,329.0469 C884.6156,329.0469 884.4125,329.125 884.225,329.3125 C883.7719,329.7969 883.7719,329.7969 883.5844,329.8906 C883.1625,330.1563 882.475,330.2813 881.7094,330.2813 C879.6625,330.2813 878.3656,329.1875 878.3656,327.4844 L878.3656,326.3906 C878.3656,324.6094 879.6156,323.2969 881.35,323.2969 C881.9281,323.2969 882.5375,323.4531 883.0063,323.7031 C883.4906,323.9844 883.6625,324.2031 883.7563,324.6094 C883.8188,325.0156 883.85,325.1406 883.9906,325.2656 C884.1313,325.4063 884.3656,325.5156 884.5844,325.5156 C884.85,325.5156 885.1156,325.375 885.2875,325.1563 C885.3969,325 885.4281,324.8125 885.4281,324.3906 L885.4281,322.9688 C885.4281,322.5313 885.4125,322.4063 885.3188,322.25 C885.1625,321.9844 884.8813,321.8438 884.5844,321.8438 C884.2875,321.8438 884.0844,321.9375 883.8656,322.25 L883.6938,322.1719 Z " fill="#000000"/><text fill="#000000" font-family="sans-serif" font-size="12" lengthAdjust="spacing" textLength="46" x="895.65" y="330.6543">Produto</text><line style="stroke:#A80036;stroke-width:1.5;" x1="866" x2="945" y1="342.5" y2="342.5"/><text fill="#000000" font-family="sans-serif" font-size="11" lengthAdjust="spacing" textLength="56" x="871" y="356.7104">-idProduto</text><text fill="#000000" font-family="sans-serif" font-size="11" lengthAdjust="spacing" textLength="69" x="871" y="369.5151">-designacao</text><text fill="#000000" font-family="sans-serif" font-size="11" lengthAdjust="spacing" textLength="32" x="871" y="382.3198">-peso</text><text fill="#000000" font-family="sans-serif" font-size="11" lengthAdjust="spacing" textLength="65" x="871" y="395.1245">-precoBase</text><!--MD5=[055d9a59c94791d1e5417ead9eff8d01]
link Encomenda to EstadoEncomenda--><path codeLine="76" d="M721.786,285.851 C755.074,277.862 797.922,267.579 833.757,258.978 " fill="none" id="Encomenda-EstadoEncomenda" style="stroke:#A80036;stroke-width:1.0;"/><polygon fill="#000000" points="772.8619,257.3995,763.3807,256.6526,764.7525,262.3682,772.8619,257.3995" style="stroke:#000000;stroke-width:1.0;"/><text fill="#000000" font-family="sans-serif" font-size="13" lengthAdjust="spacing" textLength="26" x="777" y="263.0669">tem</text><text fill="#000000" font-family="sans-serif" font-size="13" lengthAdjust="spacing" textLength="8" x="729.4461" y="297.2011">1</text><text fill="#000000" font-family="sans-serif" font-size="13" lengthAdjust="spacing" textLength="8" x="817.946" y="273.5962">1</text><!--MD5=[0b9a64f88a8f68498a0520ea68e94a71]
link Cliente to Cartao--><path codeLine="77" d="M434.302,131.527 C489.626,111.017 562.858,83.867 611.831,65.711 " fill="none" id="Cliente-Cartao" style="stroke:#A80036;stroke-width:1.0;"/><polygon fill="#000000" points="505.6882,72.8283,496.1856,73.2169,498.2288,78.7282,505.6882,72.8283" style="stroke:#000000;stroke-width:1.0;"/><text fill="#000000" font-family="sans-serif" font-size="13" lengthAdjust="spacing" textLength="26" x="510" y="79.0669">tem</text><text fill="#000000" font-family="sans-serif" font-size="13" lengthAdjust="spacing" textLength="8" x="442.0988" y="141.6094">1</text><text fill="#000000" font-family="sans-serif" font-size="13" lengthAdjust="spacing" textLength="8" x="596.0145" y="81.4155">1</text><!--MD5=[39609d66ce6d06d1779a14455c909f6f]
link Entrega to Encomenda--><path codeLine="78" d="M395.866,426.3474 C439.912,425.2756 513.253,418.9025 569,391 C579.941,385.524 598.28,368.81 616.016,351.102 " fill="none" id="Entrega-Encomenda" style="stroke:#A80036;stroke-width:1.0;"/><polygon fill="#000000" points="498.2313,380.9493,488.7218,381.0937,490.6228,386.6556,498.2313,380.9493" style="stroke:#000000;stroke-width:1.0;"/><text fill="#000000" font-family="sans-serif" font-size="13" lengthAdjust="spacing" textLength="41" x="502.5" y="387.0669">possui</text><text fill="#000000" font-family="sans-serif" font-size="13" lengthAdjust="spacing" textLength="8" x="403.5906" y="439.7871">1</text><text fill="#000000" font-family="sans-serif" font-size="13" lengthAdjust="spacing" textLength="7" x="601.8291" y="371.1853">*</text><!--MD5=[328dae9b2f192140d45e51cd90ecd75a]
link Estafeta to Entrega--><path codeLine="79" d="M162.149,426 C212.818,426 277.068,426 317.241,426 " fill="none" id="Estafeta-Entrega" style="stroke:#A80036;stroke-width:1.0;"/><polygon fill="#000000" points="202,417.5664,192.9549,414.6275,192.9549,420.5053,202,417.5664" style="stroke:#000000;stroke-width:1.0;"/><text fill="#000000" font-family="sans-serif" font-size="13" lengthAdjust="spacing" textLength="42" x="206" y="422.0669">realiza</text><text fill="#000000" font-family="sans-serif" font-size="13" lengthAdjust="spacing" textLength="8" x="169.9312" y="438.7963">1</text><text fill="#000000" font-family="sans-serif" font-size="13" lengthAdjust="spacing" textLength="7" x="302.6246" y="439.3778">*</text><!--MD5=[43a7c1a046aa41d1c9842e3954366be4]
link Cliente to Endereco--><path codeLine="80" d="M434.302,161.499 C493.183,162.647 572.351,164.192 620.967,165.141 " fill="none" id="Cliente-Endereco" style="stroke:#A80036;stroke-width:1.0;"/><polygon fill="#000000" points="505.999,153.6639,497.013,150.5491,496.8984,156.4259,505.999,153.6639" style="stroke:#000000;stroke-width:1.0;"/><text fill="#000000" font-family="sans-serif" font-size="13" lengthAdjust="spacing" textLength="26" x="510" y="158.0669">tem</text><text fill="#000000" font-family="sans-serif" font-size="13" lengthAdjust="spacing" textLength="8" x="442.0988" y="174.4381">1</text><text fill="#000000" font-family="sans-serif" font-size="13" lengthAdjust="spacing" textLength="8" x="605.1524" y="178.2595">1</text><!--MD5=[beec9e5f2ed2709028dd31c1dc478e7b]
link Cliente to Encomenda--><path codeLine="81" d="M434.302,194.717 C489.092,219.484 561.447,252.191 610.407,274.322 " fill="none" id="Cliente-Encomenda" style="stroke:#A80036;stroke-width:1.0;"/><polygon fill="#000000" points="473.5561,201.6259,466.5246,195.2222,464.1035,200.5783,473.5561,201.6259" style="stroke:#000000;stroke-width:1.0;"/><text fill="#000000" font-family="sans-serif" font-size="13" lengthAdjust="spacing" textLength="90" x="478" y="204.0669">realiza e paga</text><text fill="#000000" font-family="sans-serif" font-size="13" lengthAdjust="spacing" textLength="8" x="442.0988" y="210.8222">1</text><text fill="#000000" font-family="sans-serif" font-size="13" lengthAdjust="spacing" textLength="7" x="595.4664" y="284.0879">*</text><!--MD5=[f440ac15537f19f21c80dc932ffd2bf8]
link Entrega to Scooter--><path codeLine="82" d="M395.657,435.8478 C415.824,440.5518 441.086,445.658 464,448 C510.425,452.745 522.339,448.7289 569,448 C578.67,447.8489 588.886,447.6123 598.905,447.3367 " fill="none" id="Entrega-Scooter" style="stroke:#A80036;stroke-width:1.0;"/><polygon fill="#000000" points="488.008,439.2842,496.8728,442.7289,497.2045,436.8605,488.008,439.2842" style="stroke:#000000;stroke-width:1.0;"/><text fill="#000000" font-family="sans-serif" font-size="13" lengthAdjust="spacing" textLength="42" x="502" y="444.0669">realiza</text><text fill="#000000" font-family="sans-serif" font-size="13" lengthAdjust="spacing" textLength="7" x="403.5219" y="451.0873">*</text><text fill="#000000" font-family="sans-serif" font-size="13" lengthAdjust="spacing" textLength="8" x="583.129" y="460.4961">1</text><!--MD5=[60097591193c89dbde5dfd99b98b5263]
link Encomenda to Produto--><path codeLine="83" d="M721.786,312.149 C765.486,322.637 825.659,337.078 864.814,346.475 " fill="none" id="Encomenda-Produto" style="stroke:#A80036;stroke-width:1.0;"/><polygon fill="#000000" points="772.8619,314.7332,764.7525,309.7646,763.3808,315.4802,772.8619,314.7332" style="stroke:#000000;stroke-width:1.0;"/><text fill="#000000" font-family="sans-serif" font-size="13" lengthAdjust="spacing" textLength="26" x="777" y="318.0669">tem</text><text fill="#000000" font-family="sans-serif" font-size="13" lengthAdjust="spacing" textLength="8" x="729.4461" y="326.8686">1</text><text fill="#000000" font-family="sans-serif" font-size="13" lengthAdjust="spacing" textLength="7" x="849.9434" y="358.1735">*</text><!--MD5=[1dbffbca5cb534c4a76478e59708cd36]
link Parque to Scooter--><path codeLine="84" d="M408.508,319.115 C461.648,333.188 540.991,355.471 569,370 C579.138,375.259 589.271,381.636 598.949,388.426 " fill="none" id="Parque-Scooter" style="stroke:#A80036;stroke-width:1.0;"/><polygon fill="#000000" points="498.1985,327.2764,490.704,321.4213,488.6937,326.9447,498.1985,327.2764" style="stroke:#000000;stroke-width:1.0;"/><text fill="#000000" font-family="sans-serif" font-size="13" lengthAdjust="spacing" textLength="41" x="502.5" y="330.0669">possui</text><text fill="#000000" font-family="sans-serif" font-size="13" lengthAdjust="spacing" textLength="8" x="416.3841" y="334.104">1</text><text fill="#000000" font-family="sans-serif" font-size="13" lengthAdjust="spacing" textLength="7" x="583.7915" y="394.8363">*</text><!--MD5=[65c0b4ced80642714d633a5480d06ed6]
link Parque to Endereco--><path codeLine="85" d="M408.677,311.303 C454.322,313.445 521.136,309.963 569,279 C590.44,265.13 583.042,249.934 599,230 C605.583,221.776 613.159,213.539 620.778,205.842 " fill="none" id="Parque-Endereco" style="stroke:#A80036;stroke-width:1.0;"/><polygon fill="#000000" points="505.4771,268.3403,496.0695,269.7358,498.6864,274.9989,505.4771,268.3403" style="stroke:#000000;stroke-width:1.0;"/><text fill="#000000" font-family="sans-serif" font-size="13" lengthAdjust="spacing" textLength="26" x="510" y="275.0669">tem</text><text fill="#000000" font-family="sans-serif" font-size="13" lengthAdjust="spacing" textLength="8" x="416.5769" y="325.1934">1</text><text fill="#000000" font-family="sans-serif" font-size="13" lengthAdjust="spacing" textLength="8" x="604.9332" y="225.4472">1</text><!--MD5=[e5fc471022defc9bdf85a453090b51b0]
@startuml
skinparam classAttributeIconSize 0
hide methods
left to right direction

class Entrega {
  -idEntrega
  -dataInicio
  -dataFim
}

class Encomenda {
  -idEncomenda
  -dataPedida
  -preco
  -pesoEncomenda
  -taxa
}


class Estafeta {
  -NIF
  -nome
  -email
  -numeroSegurancaSocial
  -password
  -pesoEstafeta
}

class Endereco {
  -morada
  -latitude
  -longitude
  -altitude
}

class Scooter {
  -idScooter
  -percentagemBateria
  -pesoMaximo
  -pesoScooter
  -potencia
  -areaFrontal
}

class Parque {
  -numeroMaximo
}

class Cliente {
  -NIF
  -nome
  -email
  -numeroSegurancaSocial
  -password
  -creditos
}

class Cartao {
  -numeroCartao
  -dataDeValidade
  -CCV
}

class EstadoEncomenda {
  -idEstadoEncomenda
  -designacao
}

class Produto {
  -idProduto
  -designacao
  -peso
  -precoBase
}

Encomenda "1" - - "1" EstadoEncomenda : tem >
Cliente "1" - - "1" Cartao : tem >
Entrega "1" - - "*" Encomenda : possui >
Estafeta "1" - - "*" Entrega: realiza >
Cliente "1" - - "1" Endereco: tem >
Cliente "1" - - "*" Encomenda: realiza e paga >
Entrega "*" - - "1" Scooter: realiza <
Encomenda "1" - - "*" Produto: tem >
Parque "1" - - "*" Scooter: possui >
Parque "1" - - "1" Endereco: tem >
@enduml

PlantUML version 1.2020.27beta8(Unknown compile time)
(GPL source distribution)
Java Runtime: Java(TM) SE Runtime Environment
JVM: Java HotSpot(TM) 64-Bit Server VM
Default Encoding: UTF-8
Language: en
Country: US
--></g></svg>