<?xml version="1.0" encoding="UTF-8" standalone="no"?><svg xmlns="http://www.w3.org/2000/svg" xmlns:xlink="http://www.w3.org/1999/xlink" contentScriptType="application/ecmascript" contentStyleType="text/css" height="1687.5px" preserveAspectRatio="none" style="width:1735px;height:1687px;" version="1.1" viewBox="0 0 1735 1687" width="1735px" zoomAndPan="magnify"><defs><filter height="300%" id="fmydgttyj5ck" width="300%" x="-1" y="-1"><feGaussianBlur result="blurOut" stdDeviation="2.5"/><feColorMatrix in="blurOut" result="blurOut2" type="matrix" values="0 0 0 0 0 0 0 0 0 0 0 0 0 0 0 0 0 0 .4 0"/><feOffset dx="5.0" dy="5.0" in="blurOut2" result="blurOut3"/><feBlend in="SourceGraphic" in2="blurOut3" mode="normal"/></filter></defs><g><!--MD5=[1e13576e8c070e32200b62ceaa1f39ec]
class SessaoUtilizador--><rect codeLine="3" fill="#FEFECE" filter="url(#fmydgttyj5ck)" height="111.8848" id="SessaoUtilizador" style="stroke:#A80036;stroke-width:1.875;" width="157.5" x="8.75" y="453.75"/><ellipse cx="27.5" cy="473.75" fill="#ADD1B2" rx="13.75" ry="13.75" style="stroke:#A80036;stroke-width:1.25;"/><path d="M30,469.375 Q30.2539,468.75 30.5469,468.4375 Q30.8398,468.125 31.1719,468.125 Q31.7578,468.125 32.1289,468.4766 Q32.5,468.8281 32.5,469.6484 L32.5,471.6016 Q32.5,472.4219 32.1484,472.7734 Q31.7969,473.125 31.25,473.125 Q30.7617,473.125 30.4492,472.9102 Q30.1367,472.6953 30,472.1289 Q29.9414,471.7383 29.7266,471.5234 Q29.3359,471.1133 28.6328,470.8789 Q27.9297,470.625 27.2266,470.625 Q26.3477,470.625 25.6055,470.9766 Q24.8828,471.3281 24.3164,472.1094 Q23.75,472.8906 23.75,473.9648 L23.75,475.1172 Q23.75,476.4063 24.8047,477.2656 Q25.8594,478.125 27.7344,478.125 Q28.8477,478.125 29.6289,477.8711 Q30.0781,477.7344 30.5859,477.2852 Q30.918,477.0313 31.0938,476.9531 Q31.2695,476.875 31.4844,476.875 Q31.8945,476.875 32.1875,477.207 Q32.5,477.5195 32.5,477.9688 Q32.5,478.3984 32.0703,478.9063 Q31.4453,479.6484 30.4492,480.0586 Q29.1406,480.625 27.5391,480.625 Q25.6641,480.625 24.1602,479.8828 Q22.9492,479.2969 22.0898,478.0273 Q21.25,476.7578 21.25,475.2539 L21.25,473.8867 Q21.25,472.3242 21.9922,470.957 Q22.7539,469.5898 24.0625,468.8672 Q25.3906,468.125 26.875,468.125 Q27.7734,468.125 28.5547,468.4375 Q29.3359,468.75 30,469.375 Z " fill="#000000"/><text fill="#000000" font-family="sans-serif" font-size="15" lengthAdjust="spacing" textLength="117.5" x="45" y="479.8877">SessaoUtilizador</text><line style="stroke:#A80036;stroke-width:1.875;" x1="10" x2="165" y1="493.75" y2="493.75"/><line style="stroke:#A80036;stroke-width:1.875;" x1="10" x2="165" y1="503.75" y2="503.75"/><text fill="#000000" font-family="sans-serif" font-size="13.75" lengthAdjust="spacing" textLength="52.5" x="16.25" y="523.0237">+getNif()</text><text fill="#000000" font-family="sans-serif" font-size="13.75" lengthAdjust="spacing" textLength="123.75" x="16.25" y="540.3186">+static getInstance()</text><text fill="#000000" font-family="sans-serif" font-size="13.75" lengthAdjust="spacing" textLength="113.75" x="16.25" y="557.6135">+getSessaoAtual()</text><!--MD5=[364aec0fc02518cb9ab31cd04b585b1a]
class FarmaciaDB--><rect codeLine="9" fill="#FEFECE" filter="url(#fmydgttyj5ck)" height="94.5898" id="FarmaciaDB" style="stroke:#A80036;stroke-width:1.875;" width="455" x="635" y="462.5"/><ellipse cx="814.0625" cy="482.5" fill="#ADD1B2" rx="13.75" ry="13.75" style="stroke:#A80036;stroke-width:1.25;"/><path d="M816.5625,478.125 Q816.8164,477.5 817.1094,477.1875 Q817.4023,476.875 817.7344,476.875 Q818.3203,476.875 818.6914,477.2266 Q819.0625,477.5781 819.0625,478.3984 L819.0625,480.3516 Q819.0625,481.1719 818.7109,481.5234 Q818.3594,481.875 817.8125,481.875 Q817.3242,481.875 817.0117,481.6602 Q816.6992,481.4453 816.5625,480.8789 Q816.5039,480.4883 816.2891,480.2734 Q815.8984,479.8633 815.1953,479.6289 Q814.4922,479.375 813.7891,479.375 Q812.9102,479.375 812.168,479.7266 Q811.4453,480.0781 810.8789,480.8594 Q810.3125,481.6406 810.3125,482.7148 L810.3125,483.8672 Q810.3125,485.1563 811.3672,486.0156 Q812.4219,486.875 814.2969,486.875 Q815.4102,486.875 816.1914,486.6211 Q816.6406,486.4844 817.1484,486.0352 Q817.4805,485.7813 817.6563,485.7031 Q817.832,485.625 818.0469,485.625 Q818.457,485.625 818.75,485.957 Q819.0625,486.2695 819.0625,486.7188 Q819.0625,487.1484 818.6328,487.6563 Q818.0078,488.3984 817.0117,488.8086 Q815.7031,489.375 814.1016,489.375 Q812.2266,489.375 810.7227,488.6328 Q809.5117,488.0469 808.6523,486.7773 Q807.8125,485.5078 807.8125,484.0039 L807.8125,482.6367 Q807.8125,481.0742 808.5547,479.707 Q809.3164,478.3398 810.625,477.6172 Q811.9531,476.875 813.4375,476.875 Q814.3359,476.875 815.1172,477.1875 Q815.8984,477.5 816.5625,478.125 Z " fill="#000000"/><text fill="#000000" font-family="sans-serif" font-size="15" lengthAdjust="spacing" textLength="86.25" x="839.6875" y="488.6377">FarmaciaDB</text><line style="stroke:#A80036;stroke-width:1.875;" x1="636.25" x2="1088.75" y1="502.5" y2="502.5"/><line style="stroke:#A80036;stroke-width:1.875;" x1="636.25" x2="1088.75" y1="512.5" y2="512.5"/><text fill="#000000" font-family="sans-serif" font-size="13.75" lengthAdjust="spacing" textLength="117.5" x="642.5" y="531.7737">+getLstFarmacias()</text><text fill="#000000" font-family="sans-serif" font-size="13.75" lengthAdjust="spacing" textLength="440" x="642.5" y="549.0686">+generateGrafo(graphDistanciaScooter, listEnderecosScooter,Terrestre)</text><!--MD5=[fdc0efc5253b4b251338dbb2cf88d917]
class VeiculoDB--><rect codeLine="14" fill="#FEFECE" filter="url(#fmydgttyj5ck)" height="77.2949" id="VeiculoDB" style="stroke:#A80036;stroke-width:1.875;" width="370" x="1347.5" y="886.25"/><ellipse cx="1491.5625" cy="906.25" fill="#ADD1B2" rx="13.75" ry="13.75" style="stroke:#A80036;stroke-width:1.25;"/><path d="M1494.0625,901.875 Q1494.3164,901.25 1494.6094,900.9375 Q1494.9023,900.625 1495.2344,900.625 Q1495.8203,900.625 1496.1914,900.9766 Q1496.5625,901.3281 1496.5625,902.1484 L1496.5625,904.1016 Q1496.5625,904.9219 1496.2109,905.2734 Q1495.8594,905.625 1495.3125,905.625 Q1494.8242,905.625 1494.5117,905.4102 Q1494.1992,905.1953 1494.0625,904.6289 Q1494.0039,904.2383 1493.7891,904.0234 Q1493.3984,903.6133 1492.6953,903.3789 Q1491.9922,903.125 1491.2891,903.125 Q1490.4102,903.125 1489.668,903.4766 Q1488.9453,903.8281 1488.3789,904.6094 Q1487.8125,905.3906 1487.8125,906.4648 L1487.8125,907.6172 Q1487.8125,908.9063 1488.8672,909.7656 Q1489.9219,910.625 1491.7969,910.625 Q1492.9102,910.625 1493.6914,910.3711 Q1494.1406,910.2344 1494.6484,909.7852 Q1494.9805,909.5313 1495.1563,909.4531 Q1495.332,909.375 1495.5469,909.375 Q1495.957,909.375 1496.25,909.707 Q1496.5625,910.0195 1496.5625,910.4688 Q1496.5625,910.8984 1496.1328,911.4063 Q1495.5078,912.1484 1494.5117,912.5586 Q1493.2031,913.125 1491.6016,913.125 Q1489.7266,913.125 1488.2227,912.3828 Q1487.0117,911.7969 1486.1523,910.5273 Q1485.3125,909.2578 1485.3125,907.7539 L1485.3125,906.3867 Q1485.3125,904.8242 1486.0547,903.457 Q1486.8164,902.0898 1488.125,901.3672 Q1489.4531,900.625 1490.9375,900.625 Q1491.8359,900.625 1492.6172,900.9375 Q1493.3984,901.25 1494.0625,901.875 Z " fill="#000000"/><text fill="#000000" font-family="sans-serif" font-size="15" lengthAdjust="spacing" textLength="71.25" x="1517.1875" y="912.3877">VeiculoDB</text><line style="stroke:#A80036;stroke-width:1.875;" x1="1348.75" x2="1716.25" y1="926.25" y2="926.25"/><line style="stroke:#A80036;stroke-width:1.875;" x1="1348.75" x2="1716.25" y1="936.25" y2="936.25"/><text fill="#000000" font-family="sans-serif" font-size="13.75" lengthAdjust="spacing" textLength="355" x="1355" y="955.5237">+getListaVeiculoEntrega(pesoMaximoEntrega, nifFarmacia)</text><!--MD5=[a8381305e32feabadf74eb10f0c047ba]
class EnderecoDB--><rect codeLine="18" fill="#FEFECE" filter="url(#fmydgttyj5ck)" height="111.8848" id="EnderecoDB" style="stroke:#A80036;stroke-width:1.875;" width="221.25" x="261.875" y="603.75"/><ellipse cx="323.4375" cy="623.75" fill="#ADD1B2" rx="13.75" ry="13.75" style="stroke:#A80036;stroke-width:1.25;"/><path d="M325.9375,619.375 Q326.1914,618.75 326.4844,618.4375 Q326.7773,618.125 327.1094,618.125 Q327.6953,618.125 328.0664,618.4766 Q328.4375,618.8281 328.4375,619.6484 L328.4375,621.6016 Q328.4375,622.4219 328.0859,622.7734 Q327.7344,623.125 327.1875,623.125 Q326.6992,623.125 326.3867,622.9102 Q326.0742,622.6953 325.9375,622.1289 Q325.8789,621.7383 325.6641,621.5234 Q325.2734,621.1133 324.5703,620.8789 Q323.8672,620.625 323.1641,620.625 Q322.2852,620.625 321.543,620.9766 Q320.8203,621.3281 320.2539,622.1094 Q319.6875,622.8906 319.6875,623.9648 L319.6875,625.1172 Q319.6875,626.4063 320.7422,627.2656 Q321.7969,628.125 323.6719,628.125 Q324.7852,628.125 325.5664,627.8711 Q326.0156,627.7344 326.5234,627.2852 Q326.8555,627.0313 327.0313,626.9531 Q327.207,626.875 327.4219,626.875 Q327.832,626.875 328.125,627.207 Q328.4375,627.5195 328.4375,627.9688 Q328.4375,628.3984 328.0078,628.9063 Q327.3828,629.6484 326.3867,630.0586 Q325.0781,630.625 323.4766,630.625 Q321.6016,630.625 320.0977,629.8828 Q318.8867,629.2969 318.0273,628.0273 Q317.1875,626.7578 317.1875,625.2539 L317.1875,623.8867 Q317.1875,622.3242 317.9297,620.957 Q318.6914,619.5898 320,618.8672 Q321.3281,618.125 322.8125,618.125 Q323.7109,618.125 324.4922,618.4375 Q325.2734,618.75 325.9375,619.375 Z " fill="#000000"/><text fill="#000000" font-family="sans-serif" font-size="15" lengthAdjust="spacing" textLength="87.5" x="349.0625" y="629.8877">EnderecoDB</text><line style="stroke:#A80036;stroke-width:1.875;" x1="263.125" x2="481.875" y1="643.75" y2="643.75"/><line style="stroke:#A80036;stroke-width:1.875;" x1="263.125" x2="481.875" y1="653.75" y2="653.75"/><text fill="#000000" font-family="sans-serif" font-size="13.75" lengthAdjust="spacing" textLength="181.25" x="269.375" y="673.0237">+getEnderecoByNifCliente(nif)</text><text fill="#000000" font-family="sans-serif" font-size="13.75" lengthAdjust="spacing" textLength="206.25" x="269.375" y="690.3186">+getEnderecoOrigem(nifFarmacia)</text><text fill="#000000" font-family="sans-serif" font-size="13.75" lengthAdjust="spacing" textLength="167.5" x="269.375" y="707.6135">+getLstEnderecosScooter()</text><!--MD5=[eedb9d86e2ada2a30e84607ee2eb675b]
class EncomendaDB--><rect codeLine="24" fill="#FEFECE" filter="url(#fmydgttyj5ck)" height="77.2949" id="EncomendaDB" style="stroke:#A80036;stroke-width:1.875;" width="220" x="10" y="886.25"/><ellipse cx="62.5" cy="906.25" fill="#ADD1B2" rx="13.75" ry="13.75" style="stroke:#A80036;stroke-width:1.25;"/><path d="M65,901.875 Q65.2539,901.25 65.5469,900.9375 Q65.8398,900.625 66.1719,900.625 Q66.7578,900.625 67.1289,900.9766 Q67.5,901.3281 67.5,902.1484 L67.5,904.1016 Q67.5,904.9219 67.1484,905.2734 Q66.7969,905.625 66.25,905.625 Q65.7617,905.625 65.4492,905.4102 Q65.1367,905.1953 65,904.6289 Q64.9414,904.2383 64.7266,904.0234 Q64.3359,903.6133 63.6328,903.3789 Q62.9297,903.125 62.2266,903.125 Q61.3477,903.125 60.6055,903.4766 Q59.8828,903.8281 59.3164,904.6094 Q58.75,905.3906 58.75,906.4648 L58.75,907.6172 Q58.75,908.9063 59.8047,909.7656 Q60.8594,910.625 62.7344,910.625 Q63.8477,910.625 64.6289,910.3711 Q65.0781,910.2344 65.5859,909.7852 Q65.918,909.5313 66.0938,909.4531 Q66.2695,909.375 66.4844,909.375 Q66.8945,909.375 67.1875,909.707 Q67.5,910.0195 67.5,910.4688 Q67.5,910.8984 67.0703,911.4063 Q66.4453,912.1484 65.4492,912.5586 Q64.1406,913.125 62.5391,913.125 Q60.6641,913.125 59.1602,912.3828 Q57.9492,911.7969 57.0898,910.5273 Q56.25,909.2578 56.25,907.7539 L56.25,906.3867 Q56.25,904.8242 56.9922,903.457 Q57.7539,902.0898 59.0625,901.3672 Q60.3906,900.625 61.875,900.625 Q62.7734,900.625 63.5547,900.9375 Q64.3359,901.25 65,901.875 Z " fill="#000000"/><text fill="#000000" font-family="sans-serif" font-size="15" lengthAdjust="spacing" textLength="105" x="87.5" y="912.3877">EncomendaDB</text><line style="stroke:#A80036;stroke-width:1.875;" x1="11.25" x2="228.75" y1="926.25" y2="926.25"/><line style="stroke:#A80036;stroke-width:1.875;" x1="11.25" x2="228.75" y1="936.25" y2="936.25"/><text fill="#000000" font-family="sans-serif" font-size="13.75" lengthAdjust="spacing" textLength="205" x="17.5" y="955.5237">+getListaEncomenda(nifFarmacia)</text><!--MD5=[3179f819b5ca0f9c8a1bd58e9144681b]
class Entrega--><rect codeLine="28" fill="#FEFECE" filter="url(#fmydgttyj5ck)" height="129.1797" id="Entrega" style="stroke:#A80036;stroke-width:1.875;" width="141.25" x="1079.375" y="1010"/><ellipse cx="1119.5" cy="1030" fill="#ADD1B2" rx="13.75" ry="13.75" style="stroke:#A80036;stroke-width:1.25;"/><path d="M1122,1025.625 Q1122.2539,1025 1122.5469,1024.6875 Q1122.8398,1024.375 1123.1719,1024.375 Q1123.7578,1024.375 1124.1289,1024.7266 Q1124.5,1025.0781 1124.5,1025.8984 L1124.5,1027.8516 Q1124.5,1028.6719 1124.1484,1029.0234 Q1123.7969,1029.375 1123.25,1029.375 Q1122.7617,1029.375 1122.4492,1029.1602 Q1122.1367,1028.9453 1122,1028.3789 Q1121.9414,1027.9883 1121.7266,1027.7734 Q1121.3359,1027.3633 1120.6328,1027.1289 Q1119.9297,1026.875 1119.2266,1026.875 Q1118.3477,1026.875 1117.6055,1027.2266 Q1116.8828,1027.5781 1116.3164,1028.3594 Q1115.75,1029.1406 1115.75,1030.2148 L1115.75,1031.3672 Q1115.75,1032.6563 1116.8047,1033.5156 Q1117.8594,1034.375 1119.7344,1034.375 Q1120.8477,1034.375 1121.6289,1034.1211 Q1122.0781,1033.9844 1122.5859,1033.5352 Q1122.918,1033.2813 1123.0938,1033.2031 Q1123.2695,1033.125 1123.4844,1033.125 Q1123.8945,1033.125 1124.1875,1033.457 Q1124.5,1033.7695 1124.5,1034.2188 Q1124.5,1034.6484 1124.0703,1035.1563 Q1123.4453,1035.8984 1122.4492,1036.3086 Q1121.1406,1036.875 1119.5391,1036.875 Q1117.6641,1036.875 1116.1602,1036.1328 Q1114.9492,1035.5469 1114.0898,1034.2773 Q1113.25,1033.0078 1113.25,1031.5039 L1113.25,1030.1367 Q1113.25,1028.5742 1113.9922,1027.207 Q1114.7539,1025.8398 1116.0625,1025.1172 Q1117.3906,1024.375 1118.875,1024.375 Q1119.7734,1024.375 1120.5547,1024.6875 Q1121.3359,1025 1122,1025.625 Z " fill="#000000"/><text fill="#000000" font-family="sans-serif" font-size="15" lengthAdjust="spacing" textLength="53.75" x="1141.75" y="1036.1377">Entrega</text><line style="stroke:#A80036;stroke-width:1.875;" x1="1080.625" x2="1219.375" y1="1050" y2="1050"/><text fill="#000000" font-family="sans-serif" font-size="13.75" lengthAdjust="spacing" textLength="106.25" x="1086.875" y="1069.2737">-Integer idEntrega</text><text fill="#000000" font-family="sans-serif" font-size="13.75" lengthAdjust="spacing" textLength="100" x="1086.875" y="1086.5686">-String dataInicio</text><text fill="#000000" font-family="sans-serif" font-size="13.75" lengthAdjust="spacing" textLength="90" x="1086.875" y="1103.8635">-String dataFim</text><text fill="#000000" font-family="sans-serif" font-size="13.75" lengthAdjust="spacing" textLength="126.25" x="1086.875" y="1121.1584">-Double pesoEntrega</text><line style="stroke:#A80036;stroke-width:1.875;" x1="1080.625" x2="1219.375" y1="1129.1797" y2="1129.1797"/><!--MD5=[598a246086efa0137d5aa96a640f0789]
class EntregaDB--><rect codeLine="35" fill="#FEFECE" filter="url(#fmydgttyj5ck)" height="94.5898" id="EntregaDB" style="stroke:#A80036;stroke-width:1.875;" width="701.25" x="810.625" y="612.5"/><ellipse cx="1118.4375" cy="632.5" fill="#ADD1B2" rx="13.75" ry="13.75" style="stroke:#A80036;stroke-width:1.25;"/><path d="M1120.9375,628.125 Q1121.1914,627.5 1121.4844,627.1875 Q1121.7773,626.875 1122.1094,626.875 Q1122.6953,626.875 1123.0664,627.2266 Q1123.4375,627.5781 1123.4375,628.3984 L1123.4375,630.3516 Q1123.4375,631.1719 1123.0859,631.5234 Q1122.7344,631.875 1122.1875,631.875 Q1121.6992,631.875 1121.3867,631.6602 Q1121.0742,631.4453 1120.9375,630.8789 Q1120.8789,630.4883 1120.6641,630.2734 Q1120.2734,629.8633 1119.5703,629.6289 Q1118.8672,629.375 1118.1641,629.375 Q1117.2852,629.375 1116.543,629.7266 Q1115.8203,630.0781 1115.2539,630.8594 Q1114.6875,631.6406 1114.6875,632.7148 L1114.6875,633.8672 Q1114.6875,635.1563 1115.7422,636.0156 Q1116.7969,636.875 1118.6719,636.875 Q1119.7852,636.875 1120.5664,636.6211 Q1121.0156,636.4844 1121.5234,636.0352 Q1121.8555,635.7813 1122.0313,635.7031 Q1122.207,635.625 1122.4219,635.625 Q1122.832,635.625 1123.125,635.957 Q1123.4375,636.2695 1123.4375,636.7188 Q1123.4375,637.1484 1123.0078,637.6563 Q1122.3828,638.3984 1121.3867,638.8086 Q1120.0781,639.375 1118.4766,639.375 Q1116.6016,639.375 1115.0977,638.6328 Q1113.8867,638.0469 1113.0273,636.7773 Q1112.1875,635.5078 1112.1875,634.0039 L1112.1875,632.6367 Q1112.1875,631.0742 1112.9297,629.707 Q1113.6914,628.3398 1115,627.6172 Q1116.3281,626.875 1117.8125,626.875 Q1118.7109,626.875 1119.4922,627.1875 Q1120.2734,627.5 1120.9375,628.125 Z " fill="#000000"/><text fill="#000000" font-family="sans-serif" font-size="15" lengthAdjust="spacing" textLength="75" x="1144.0625" y="638.6377">EntregaDB</text><line style="stroke:#A80036;stroke-width:1.875;" x1="811.875" x2="1510.625" y1="652.5" y2="652.5"/><line style="stroke:#A80036;stroke-width:1.875;" x1="811.875" x2="1510.625" y1="662.5" y2="662.5"/><text fill="#000000" font-family="sans-serif" font-size="13.75" lengthAdjust="spacing" textLength="533.75" x="818.125" y="681.7737">+generateGraphScooter(listEnderecosScooter, listEnderecos, est, veiculo, pesoEntrega)</text><text fill="#000000" font-family="sans-serif" font-size="13.75" lengthAdjust="spacing" textLength="686.25" x="818.125" y="699.0686">+getPath(graphScooter, graphDistanciaScooter, listEnderecos, finalShortPathScooter, endereco, 0, veiculo, 0, list)</text><!--MD5=[4ac2c1498d2c03198090a24b8c54d335]
class EstafetaDB--><rect codeLine="40" fill="#FEFECE" filter="url(#fmydgttyj5ck)" height="77.2949" id="EstafetaDB" style="stroke:#A80036;stroke-width:1.875;" width="151.25" x="439.375" y="471.25"/><ellipse cx="473.3125" cy="491.25" fill="#ADD1B2" rx="13.75" ry="13.75" style="stroke:#A80036;stroke-width:1.25;"/><path d="M475.8125,486.875 Q476.0664,486.25 476.3594,485.9375 Q476.6523,485.625 476.9844,485.625 Q477.5703,485.625 477.9414,485.9766 Q478.3125,486.3281 478.3125,487.1484 L478.3125,489.1016 Q478.3125,489.9219 477.9609,490.2734 Q477.6094,490.625 477.0625,490.625 Q476.5742,490.625 476.2617,490.4102 Q475.9492,490.1953 475.8125,489.6289 Q475.7539,489.2383 475.5391,489.0234 Q475.1484,488.6133 474.4453,488.3789 Q473.7422,488.125 473.0391,488.125 Q472.1602,488.125 471.418,488.4766 Q470.6953,488.8281 470.1289,489.6094 Q469.5625,490.3906 469.5625,491.4648 L469.5625,492.6172 Q469.5625,493.9063 470.6172,494.7656 Q471.6719,495.625 473.5469,495.625 Q474.6602,495.625 475.4414,495.3711 Q475.8906,495.2344 476.3984,494.7852 Q476.7305,494.5313 476.9063,494.4531 Q477.082,494.375 477.2969,494.375 Q477.707,494.375 478,494.707 Q478.3125,495.0195 478.3125,495.4688 Q478.3125,495.8984 477.8828,496.4063 Q477.2578,497.1484 476.2617,497.5586 Q474.9531,498.125 473.3516,498.125 Q471.4766,498.125 469.9727,497.3828 Q468.7617,496.7969 467.9023,495.5273 Q467.0625,494.2578 467.0625,492.7539 L467.0625,491.3867 Q467.0625,489.8242 467.8047,488.457 Q468.5664,487.0898 469.875,486.3672 Q471.2031,485.625 472.6875,485.625 Q473.5859,485.625 474.3672,485.9375 Q475.1484,486.25 475.8125,486.875 Z " fill="#000000"/><text fill="#000000" font-family="sans-serif" font-size="15" lengthAdjust="spacing" textLength="77.5" x="494.1875" y="497.3877">EstafetaDB</text><line style="stroke:#A80036;stroke-width:1.875;" x1="440.625" x2="589.375" y1="511.25" y2="511.25"/><line style="stroke:#A80036;stroke-width:1.875;" x1="440.625" x2="589.375" y1="521.25" y2="521.25"/><text fill="#000000" font-family="sans-serif" font-size="13.75" lengthAdjust="spacing" textLength="136.25" x="446.875" y="540.5237">+getEstafetaByNIF(nif)</text><!--MD5=[0b96431f48c75c7948e638dd0365dea1]
class RegistarEntregaController--><rect codeLine="44" fill="#FEFECE" filter="url(#fmydgttyj5ck)" height="232.9492" id="RegistarEntregaController" style="stroke:#A80036;stroke-width:1.875;" width="701.25" x="164.375" y="145"/><ellipse cx="419.6875" cy="165" fill="#ADD1B2" rx="13.75" ry="13.75" style="stroke:#A80036;stroke-width:1.25;"/><path d="M422.1875,160.625 Q422.4414,160 422.7344,159.6875 Q423.0273,159.375 423.3594,159.375 Q423.9453,159.375 424.3164,159.7266 Q424.6875,160.0781 424.6875,160.8984 L424.6875,162.8516 Q424.6875,163.6719 424.3359,164.0234 Q423.9844,164.375 423.4375,164.375 Q422.9492,164.375 422.6367,164.1602 Q422.3242,163.9453 422.1875,163.3789 Q422.1289,162.9883 421.9141,162.7734 Q421.5234,162.3633 420.8203,162.1289 Q420.1172,161.875 419.4141,161.875 Q418.5352,161.875 417.793,162.2266 Q417.0703,162.5781 416.5039,163.3594 Q415.9375,164.1406 415.9375,165.2148 L415.9375,166.3672 Q415.9375,167.6563 416.9922,168.5156 Q418.0469,169.375 419.9219,169.375 Q421.0352,169.375 421.8164,169.1211 Q422.2656,168.9844 422.7734,168.5352 Q423.1055,168.2813 423.2813,168.2031 Q423.457,168.125 423.6719,168.125 Q424.082,168.125 424.375,168.457 Q424.6875,168.7695 424.6875,169.2188 Q424.6875,169.6484 424.2578,170.1563 Q423.6328,170.8984 422.6367,171.3086 Q421.3281,171.875 419.7266,171.875 Q417.8516,171.875 416.3477,171.1328 Q415.1367,170.5469 414.2773,169.2773 Q413.4375,168.0078 413.4375,166.5039 L413.4375,165.1367 Q413.4375,163.5742 414.1797,162.207 Q414.9414,160.8398 416.25,160.1172 Q417.5781,159.375 419.0625,159.375 Q419.9609,159.375 420.7422,159.6875 Q421.5234,160 422.1875,160.625 Z " fill="#000000"/><text fill="#000000" font-family="sans-serif" font-size="15" lengthAdjust="spacing" textLength="180" x="445.3125" y="171.1377">RegistarEntregaController</text><line style="stroke:#A80036;stroke-width:1.875;" x1="165.625" x2="864.375" y1="185" y2="185"/><line style="stroke:#A80036;stroke-width:1.875;" x1="165.625" x2="864.375" y1="195" y2="195"/><text fill="#000000" font-family="sans-serif" font-size="13.75" lengthAdjust="spacing" textLength="86.25" x="171.875" y="214.2737">+getEstafeta()</text><text fill="#000000" font-family="sans-serif" font-size="13.75" lengthAdjust="spacing" textLength="117.5" x="171.875" y="231.5686">+getLstFarmacias()</text><text fill="#000000" font-family="sans-serif" font-size="13.75" lengthAdjust="spacing" textLength="205" x="171.875" y="248.8635">+getListaEncomenda(nifFarmacia)</text><text fill="#000000" font-family="sans-serif" font-size="13.75" lengthAdjust="spacing" textLength="181.25" x="171.875" y="266.1584">+getEnderecoByNifCliente(nif)</text><text fill="#000000" font-family="sans-serif" font-size="13.75" lengthAdjust="spacing" textLength="206.25" x="171.875" y="283.4534">+getEnderecoOrigem(nifFarmacia)</text><text fill="#000000" font-family="sans-serif" font-size="13.75" lengthAdjust="spacing" textLength="167.5" x="171.875" y="300.7483">+getLstEnderecosScooter()</text><text fill="#000000" font-family="sans-serif" font-size="13.75" lengthAdjust="spacing" textLength="355" x="171.875" y="318.0432">+getListaVeiculoEntrega(pesoMaximoEntrega, nifFarmacia)</text><text fill="#000000" font-family="sans-serif" font-size="13.75" lengthAdjust="spacing" textLength="440" x="171.875" y="335.3381">+generateGrafo(graphDistanciaScooter, listEnderecosScooter,Terrestre)</text><text fill="#000000" font-family="sans-serif" font-size="13.75" lengthAdjust="spacing" textLength="533.75" x="171.875" y="352.6331">+generateGraphScooter(listEnderecosScooter, listEnderecos, est, veiculo, pesoEntrega)</text><text fill="#000000" font-family="sans-serif" font-size="13.75" lengthAdjust="spacing" textLength="686.25" x="171.875" y="369.928">+getPath(graphScooter, graphDistanciaScooter, listEnderecos, finalShortPathScooter, endereco, 0, veiculo, 0, list)</text><!--MD5=[7a561ec8a1cf4ba3fadee4d155dd8051]
class RegistarEntregaUI--><rect codeLine="57" fill="#FEFECE" filter="url(#fmydgttyj5ck)" height="60" id="RegistarEntregaUI" style="stroke:#A80036;stroke-width:1.875;" width="167.5" x="431.25" y="8.75"/><ellipse cx="450" cy="28.75" fill="#ADD1B2" rx="13.75" ry="13.75" style="stroke:#A80036;stroke-width:1.25;"/><path d="M452.5,24.375 Q452.7539,23.75 453.0469,23.4375 Q453.3398,23.125 453.6719,23.125 Q454.2578,23.125 454.6289,23.4766 Q455,23.8281 455,24.6484 L455,26.6016 Q455,27.4219 454.6484,27.7734 Q454.2969,28.125 453.75,28.125 Q453.2617,28.125 452.9492,27.9102 Q452.6367,27.6953 452.5,27.1289 Q452.4414,26.7383 452.2266,26.5234 Q451.8359,26.1133 451.1328,25.8789 Q450.4297,25.625 449.7266,25.625 Q448.8477,25.625 448.1055,25.9766 Q447.3828,26.3281 446.8164,27.1094 Q446.25,27.8906 446.25,28.9648 L446.25,30.1172 Q446.25,31.4063 447.3047,32.2656 Q448.3594,33.125 450.2344,33.125 Q451.3477,33.125 452.1289,32.8711 Q452.5781,32.7344 453.0859,32.2852 Q453.418,32.0313 453.5938,31.9531 Q453.7695,31.875 453.9844,31.875 Q454.3945,31.875 454.6875,32.207 Q455,32.5195 455,32.9688 Q455,33.3984 454.5703,33.9063 Q453.9453,34.6484 452.9492,35.0586 Q451.6406,35.625 450.0391,35.625 Q448.1641,35.625 446.6602,34.8828 Q445.4492,34.2969 444.5898,33.0273 Q443.75,31.7578 443.75,30.2539 L443.75,28.8867 Q443.75,27.3242 444.4922,25.957 Q445.2539,24.5898 446.5625,23.8672 Q447.8906,23.125 449.375,23.125 Q450.2734,23.125 451.0547,23.4375 Q451.8359,23.75 452.5,24.375 Z " fill="#000000"/><text fill="#000000" font-family="sans-serif" font-size="15" lengthAdjust="spacing" textLength="127.5" x="467.5" y="34.8877">RegistarEntregaUI</text><line style="stroke:#A80036;stroke-width:1.875;" x1="432.5" x2="597.5" y1="48.75" y2="48.75"/><line style="stroke:#A80036;stroke-width:1.875;" x1="432.5" x2="597.5" y1="58.75" y2="58.75"/><!--MD5=[c55f92ccbf0646788158d42f3399cc78]
class Encomenda--><rect codeLine="60" fill="#FEFECE" filter="url(#fmydgttyj5ck)" height="146.4746" id="Encomenda" style="stroke:#A80036;stroke-width:1.875;" width="165" x="455" y="1271.25"/><ellipse cx="492.3125" cy="1291.25" fill="#ADD1B2" rx="13.75" ry="13.75" style="stroke:#A80036;stroke-width:1.25;"/><path d="M494.8125,1286.875 Q495.0664,1286.25 495.3594,1285.9375 Q495.6523,1285.625 495.9844,1285.625 Q496.5703,1285.625 496.9414,1285.9766 Q497.3125,1286.3281 497.3125,1287.1484 L497.3125,1289.1016 Q497.3125,1289.9219 496.9609,1290.2734 Q496.6094,1290.625 496.0625,1290.625 Q495.5742,1290.625 495.2617,1290.4102 Q494.9492,1290.1953 494.8125,1289.6289 Q494.7539,1289.2383 494.5391,1289.0234 Q494.1484,1288.6133 493.4453,1288.3789 Q492.7422,1288.125 492.0391,1288.125 Q491.1602,1288.125 490.418,1288.4766 Q489.6953,1288.8281 489.1289,1289.6094 Q488.5625,1290.3906 488.5625,1291.4648 L488.5625,1292.6172 Q488.5625,1293.9063 489.6172,1294.7656 Q490.6719,1295.625 492.5469,1295.625 Q493.6602,1295.625 494.4414,1295.3711 Q494.8906,1295.2344 495.3984,1294.7852 Q495.7305,1294.5313 495.9063,1294.4531 Q496.082,1294.375 496.2969,1294.375 Q496.707,1294.375 497,1294.707 Q497.3125,1295.0195 497.3125,1295.4688 Q497.3125,1295.8984 496.8828,1296.4063 Q496.2578,1297.1484 495.2617,1297.5586 Q493.9531,1298.125 492.3516,1298.125 Q490.4766,1298.125 488.9727,1297.3828 Q487.7617,1296.7969 486.9023,1295.5273 Q486.0625,1294.2578 486.0625,1292.7539 L486.0625,1291.3867 Q486.0625,1289.8242 486.8047,1288.457 Q487.5664,1287.0898 488.875,1286.3672 Q490.2031,1285.625 491.6875,1285.625 Q492.5859,1285.625 493.3672,1285.9375 Q494.1484,1286.25 494.8125,1286.875 Z " fill="#000000"/><text fill="#000000" font-family="sans-serif" font-size="15" lengthAdjust="spacing" textLength="83.75" x="513.9375" y="1297.3877">Encomenda</text><line style="stroke:#A80036;stroke-width:1.875;" x1="456.25" x2="618.75" y1="1311.25" y2="1311.25"/><text fill="#000000" font-family="sans-serif" font-size="13.75" lengthAdjust="spacing" textLength="130" x="462.5" y="1330.5237">-Integer idEncomenda</text><text fill="#000000" font-family="sans-serif" font-size="13.75" lengthAdjust="spacing" textLength="110" x="462.5" y="1347.8186">-String dataPedida</text><text fill="#000000" font-family="sans-serif" font-size="13.75" lengthAdjust="spacing" textLength="85" x="462.5" y="1365.1135">-Double preco</text><text fill="#000000" font-family="sans-serif" font-size="13.75" lengthAdjust="spacing" textLength="150" x="462.5" y="1382.4084">-Double pesoEncomenda</text><text fill="#000000" font-family="sans-serif" font-size="13.75" lengthAdjust="spacing" textLength="76.25" x="462.5" y="1399.7034">-Double taxa</text><line style="stroke:#A80036;stroke-width:1.875;" x1="456.25" x2="618.75" y1="1407.7246" y2="1407.7246"/><!--MD5=[3f1202280bfe3359d2f91fb9b6e32986]
class Estafeta--><rect codeLine="68" fill="#FEFECE" filter="url(#fmydgttyj5ck)" height="77.2949" id="Estafeta" style="stroke:#A80036;stroke-width:1.875;" width="145" x="730" y="762.5"/><ellipse cx="770.6875" cy="782.5" fill="#ADD1B2" rx="13.75" ry="13.75" style="stroke:#A80036;stroke-width:1.25;"/><path d="M773.1875,778.125 Q773.4414,777.5 773.7344,777.1875 Q774.0273,776.875 774.3594,776.875 Q774.9453,776.875 775.3164,777.2266 Q775.6875,777.5781 775.6875,778.3984 L775.6875,780.3516 Q775.6875,781.1719 775.3359,781.5234 Q774.9844,781.875 774.4375,781.875 Q773.9492,781.875 773.6367,781.6602 Q773.3242,781.4453 773.1875,780.8789 Q773.1289,780.4883 772.9141,780.2734 Q772.5234,779.8633 771.8203,779.6289 Q771.1172,779.375 770.4141,779.375 Q769.5352,779.375 768.793,779.7266 Q768.0703,780.0781 767.5039,780.8594 Q766.9375,781.6406 766.9375,782.7148 L766.9375,783.8672 Q766.9375,785.1563 767.9922,786.0156 Q769.0469,786.875 770.9219,786.875 Q772.0352,786.875 772.8164,786.6211 Q773.2656,786.4844 773.7734,786.0352 Q774.1055,785.7813 774.2813,785.7031 Q774.457,785.625 774.6719,785.625 Q775.082,785.625 775.375,785.957 Q775.6875,786.2695 775.6875,786.7188 Q775.6875,787.1484 775.2578,787.6563 Q774.6328,788.3984 773.6367,788.8086 Q772.3281,789.375 770.7266,789.375 Q768.8516,789.375 767.3477,788.6328 Q766.1367,788.0469 765.2773,786.7773 Q764.4375,785.5078 764.4375,784.0039 L764.4375,782.6367 Q764.4375,781.0742 765.1797,779.707 Q765.9414,778.3398 767.25,777.6172 Q768.5781,776.875 770.0625,776.875 Q770.9609,776.875 771.7422,777.1875 Q772.5234,777.5 773.1875,778.125 Z " fill="#000000"/><text fill="#000000" font-family="sans-serif" font-size="15" lengthAdjust="spacing" textLength="56.25" x="793.0625" y="788.6377">Estafeta</text><line style="stroke:#A80036;stroke-width:1.875;" x1="731.25" x2="873.75" y1="802.5" y2="802.5"/><text fill="#000000" font-family="sans-serif" font-size="13.75" lengthAdjust="spacing" textLength="130" x="737.5" y="821.7737">-Double pesoEstafeta</text><line style="stroke:#A80036;stroke-width:1.875;" x1="731.25" x2="873.75" y1="829.7949" y2="829.7949"/><!--MD5=[f4402668d5d5bb8485350c0fdb60ac8e]
class Scooter--><rect codeLine="72" fill="#FEFECE" filter="url(#fmydgttyj5ck)" height="77.2949" id="Scooter" style="stroke:#A80036;stroke-width:1.875;" width="122.5" x="1160" y="1566.875"/><ellipse cx="1192.25" cy="1586.875" fill="#ADD1B2" rx="13.75" ry="13.75" style="stroke:#A80036;stroke-width:1.25;"/><path d="M1194.75,1582.5 Q1195.0039,1581.875 1195.2969,1581.5625 Q1195.5898,1581.25 1195.9219,1581.25 Q1196.5078,1581.25 1196.8789,1581.6016 Q1197.25,1581.9531 1197.25,1582.7734 L1197.25,1584.7266 Q1197.25,1585.5469 1196.8984,1585.8984 Q1196.5469,1586.25 1196,1586.25 Q1195.5117,1586.25 1195.1992,1586.0352 Q1194.8867,1585.8203 1194.75,1585.2539 Q1194.6914,1584.8633 1194.4766,1584.6484 Q1194.0859,1584.2383 1193.3828,1584.0039 Q1192.6797,1583.75 1191.9766,1583.75 Q1191.0977,1583.75 1190.3555,1584.1016 Q1189.6328,1584.4531 1189.0664,1585.2344 Q1188.5,1586.0156 1188.5,1587.0898 L1188.5,1588.2422 Q1188.5,1589.5313 1189.5547,1590.3906 Q1190.6094,1591.25 1192.4844,1591.25 Q1193.5977,1591.25 1194.3789,1590.9961 Q1194.8281,1590.8594 1195.3359,1590.4102 Q1195.668,1590.1563 1195.8438,1590.0781 Q1196.0195,1590 1196.2344,1590 Q1196.6445,1590 1196.9375,1590.332 Q1197.25,1590.6445 1197.25,1591.0938 Q1197.25,1591.5234 1196.8203,1592.0313 Q1196.1953,1592.7734 1195.1992,1593.1836 Q1193.8906,1593.75 1192.2891,1593.75 Q1190.4141,1593.75 1188.9102,1593.0078 Q1187.6992,1592.4219 1186.8398,1591.1523 Q1186,1589.8828 1186,1588.3789 L1186,1587.0117 Q1186,1585.4492 1186.7422,1584.082 Q1187.5039,1582.7148 1188.8125,1581.9922 Q1190.1406,1581.25 1191.625,1581.25 Q1192.5234,1581.25 1193.3047,1581.5625 Q1194.0859,1581.875 1194.75,1582.5 Z " fill="#000000"/><text fill="#000000" font-family="sans-serif" font-size="15" lengthAdjust="spacing" textLength="52.5" x="1212.75" y="1593.0127">Scooter</text><line style="stroke:#A80036;stroke-width:1.875;" x1="1161.25" x2="1281.25" y1="1606.875" y2="1606.875"/><text fill="#000000" font-family="sans-serif" font-size="13.75" lengthAdjust="spacing" textLength="107.5" x="1167.5" y="1626.1487">-Integer idScooter</text><line style="stroke:#A80036;stroke-width:1.875;" x1="1161.25" x2="1281.25" y1="1634.1699" y2="1634.1699"/><!--MD5=[36c1942e8942a3e4f47e6de3733e3d18]
class Endereco--><rect codeLine="76" fill="#FEFECE" filter="url(#fmydgttyj5ck)" height="129.1797" id="Endereco" style="stroke:#A80036;stroke-width:1.875;" width="118.75" x="708.125" y="1010"/><ellipse cx="732.5" cy="1030" fill="#ADD1B2" rx="13.75" ry="13.75" style="stroke:#A80036;stroke-width:1.25;"/><path d="M735,1025.625 Q735.2539,1025 735.5469,1024.6875 Q735.8398,1024.375 736.1719,1024.375 Q736.7578,1024.375 737.1289,1024.7266 Q737.5,1025.0781 737.5,1025.8984 L737.5,1027.8516 Q737.5,1028.6719 737.1484,1029.0234 Q736.7969,1029.375 736.25,1029.375 Q735.7617,1029.375 735.4492,1029.1602 Q735.1367,1028.9453 735,1028.3789 Q734.9414,1027.9883 734.7266,1027.7734 Q734.3359,1027.3633 733.6328,1027.1289 Q732.9297,1026.875 732.2266,1026.875 Q731.3477,1026.875 730.6055,1027.2266 Q729.8828,1027.5781 729.3164,1028.3594 Q728.75,1029.1406 728.75,1030.2148 L728.75,1031.3672 Q728.75,1032.6563 729.8047,1033.5156 Q730.8594,1034.375 732.7344,1034.375 Q733.8477,1034.375 734.6289,1034.1211 Q735.0781,1033.9844 735.5859,1033.5352 Q735.918,1033.2813 736.0938,1033.2031 Q736.2695,1033.125 736.4844,1033.125 Q736.8945,1033.125 737.1875,1033.457 Q737.5,1033.7695 737.5,1034.2188 Q737.5,1034.6484 737.0703,1035.1563 Q736.4453,1035.8984 735.4492,1036.3086 Q734.1406,1036.875 732.5391,1036.875 Q730.6641,1036.875 729.1602,1036.1328 Q727.9492,1035.5469 727.0898,1034.2773 Q726.25,1033.0078 726.25,1031.5039 L726.25,1030.1367 Q726.25,1028.5742 726.9922,1027.207 Q727.7539,1025.8398 729.0625,1025.1172 Q730.3906,1024.375 731.875,1024.375 Q732.7734,1024.375 733.5547,1024.6875 Q734.3359,1025 735,1025.625 Z " fill="#000000"/><text fill="#000000" font-family="sans-serif" font-size="15" lengthAdjust="spacing" textLength="66.25" x="751.25" y="1036.1377">Endereco</text><line style="stroke:#A80036;stroke-width:1.875;" x1="709.375" x2="825.625" y1="1050" y2="1050"/><text fill="#000000" font-family="sans-serif" font-size="13.75" lengthAdjust="spacing" textLength="88.75" x="715.625" y="1069.2737">-String morada</text><text fill="#000000" font-family="sans-serif" font-size="13.75" lengthAdjust="spacing" textLength="92.5" x="715.625" y="1086.5686">-Double latitude</text><text fill="#000000" font-family="sans-serif" font-size="13.75" lengthAdjust="spacing" textLength="103.75" x="715.625" y="1103.8635">-Double longitude</text><text fill="#000000" font-family="sans-serif" font-size="13.75" lengthAdjust="spacing" textLength="92.5" x="715.625" y="1121.1584">-Double altitude</text><line style="stroke:#A80036;stroke-width:1.875;" x1="709.375" x2="825.625" y1="1129.1797" y2="1129.1797"/><!--MD5=[20a748d5ee336a9a91751b0a3d4f0beb]
class Cliente--><rect codeLine="83" fill="#FEFECE" filter="url(#fmydgttyj5ck)" height="77.2949" id="Cliente" style="stroke:#A80036;stroke-width:1.875;" width="113.75" x="303.125" y="762.5"/><ellipse cx="333.125" cy="782.5" fill="#ADD1B2" rx="13.75" ry="13.75" style="stroke:#A80036;stroke-width:1.25;"/><path d="M335.625,778.125 Q335.8789,777.5 336.1719,777.1875 Q336.4648,776.875 336.7969,776.875 Q337.3828,776.875 337.7539,777.2266 Q338.125,777.5781 338.125,778.3984 L338.125,780.3516 Q338.125,781.1719 337.7734,781.5234 Q337.4219,781.875 336.875,781.875 Q336.3867,781.875 336.0742,781.6602 Q335.7617,781.4453 335.625,780.8789 Q335.5664,780.4883 335.3516,780.2734 Q334.9609,779.8633 334.2578,779.6289 Q333.5547,779.375 332.8516,779.375 Q331.9727,779.375 331.2305,779.7266 Q330.5078,780.0781 329.9414,780.8594 Q329.375,781.6406 329.375,782.7148 L329.375,783.8672 Q329.375,785.1563 330.4297,786.0156 Q331.4844,786.875 333.3594,786.875 Q334.4727,786.875 335.2539,786.6211 Q335.7031,786.4844 336.2109,786.0352 Q336.543,785.7813 336.7188,785.7031 Q336.8945,785.625 337.1094,785.625 Q337.5195,785.625 337.8125,785.957 Q338.125,786.2695 338.125,786.7188 Q338.125,787.1484 337.6953,787.6563 Q337.0703,788.3984 336.0742,788.8086 Q334.7656,789.375 333.1641,789.375 Q331.2891,789.375 329.7852,788.6328 Q328.5742,788.0469 327.7148,786.7773 Q326.875,785.5078 326.875,784.0039 L326.875,782.6367 Q326.875,781.0742 327.6172,779.707 Q328.3789,778.3398 329.6875,777.6172 Q331.0156,776.875 332.5,776.875 Q333.3984,776.875 334.1797,777.1875 Q334.9609,777.5 335.625,778.125 Z " fill="#000000"/><text fill="#000000" font-family="sans-serif" font-size="15" lengthAdjust="spacing" textLength="48.75" x="353.125" y="788.6377">Cliente</text><line style="stroke:#A80036;stroke-width:1.875;" x1="304.375" x2="415.625" y1="802.5" y2="802.5"/><text fill="#000000" font-family="sans-serif" font-size="13.75" lengthAdjust="spacing" textLength="98.75" x="310.625" y="821.7737">-Integer creditos</text><line style="stroke:#A80036;stroke-width:1.875;" x1="304.375" x2="415.625" y1="829.7949" y2="829.7949"/><!--MD5=[533e824b6b94274ee39bf5a43d7cce2a]
class EstadoEncomenda--><rect codeLine="87" fill="#FEFECE" filter="url(#fmydgttyj5ck)" height="94.5898" id="EstadoEncomenda" style="stroke:#A80036;stroke-width:1.875;" width="186.25" x="418.125" y="1558.125"/><ellipse cx="443.0625" cy="1578.125" fill="#ADD1B2" rx="13.75" ry="13.75" style="stroke:#A80036;stroke-width:1.25;"/><path d="M445.5625,1573.75 Q445.8164,1573.125 446.1094,1572.8125 Q446.4023,1572.5 446.7344,1572.5 Q447.3203,1572.5 447.6914,1572.8516 Q448.0625,1573.2031 448.0625,1574.0234 L448.0625,1575.9766 Q448.0625,1576.7969 447.7109,1577.1484 Q447.3594,1577.5 446.8125,1577.5 Q446.3242,1577.5 446.0117,1577.2852 Q445.6992,1577.0703 445.5625,1576.5039 Q445.5039,1576.1133 445.2891,1575.8984 Q444.8984,1575.4883 444.1953,1575.2539 Q443.4922,1575 442.7891,1575 Q441.9102,1575 441.168,1575.3516 Q440.4453,1575.7031 439.8789,1576.4844 Q439.3125,1577.2656 439.3125,1578.3398 L439.3125,1579.4922 Q439.3125,1580.7813 440.3672,1581.6406 Q441.4219,1582.5 443.2969,1582.5 Q444.4102,1582.5 445.1914,1582.2461 Q445.6406,1582.1094 446.1484,1581.6602 Q446.4805,1581.4063 446.6563,1581.3281 Q446.832,1581.25 447.0469,1581.25 Q447.457,1581.25 447.75,1581.582 Q448.0625,1581.8945 448.0625,1582.3438 Q448.0625,1582.7734 447.6328,1583.2813 Q447.0078,1584.0234 446.0117,1584.4336 Q444.7031,1585 443.1016,1585 Q441.2266,1585 439.7227,1584.2578 Q438.5117,1583.6719 437.6523,1582.4023 Q436.8125,1581.1328 436.8125,1579.6289 L436.8125,1578.2617 Q436.8125,1576.6992 437.5547,1575.332 Q438.3164,1573.9648 439.625,1573.2422 Q440.9531,1572.5 442.4375,1572.5 Q443.3359,1572.5 444.1172,1572.8125 Q444.8984,1573.125 445.5625,1573.75 Z " fill="#000000"/><text fill="#000000" font-family="sans-serif" font-size="15" lengthAdjust="spacing" textLength="132.5" x="461.9375" y="1584.2627">EstadoEncomenda</text><line style="stroke:#A80036;stroke-width:1.875;" x1="419.375" x2="603.125" y1="1598.125" y2="1598.125"/><text fill="#000000" font-family="sans-serif" font-size="13.75" lengthAdjust="spacing" textLength="171.25" x="425.625" y="1617.3987">-Integer idEstadoEncomenda</text><text fill="#000000" font-family="sans-serif" font-size="13.75" lengthAdjust="spacing" textLength="113.75" x="425.625" y="1634.6936">-String designacao</text><line style="stroke:#A80036;stroke-width:1.875;" x1="419.375" x2="603.125" y1="1642.7148" y2="1642.7148"/><!--MD5=[d4dacc50d49878ba7c621dfc80a2e1ce]
class Produto--><rect codeLine="92" fill="#FEFECE" filter="url(#fmydgttyj5ck)" height="129.1797" id="Produto" style="stroke:#A80036;stroke-width:1.875;" width="131.25" x="648.125" y="1541.25"/><ellipse cx="683.75" cy="1561.25" fill="#ADD1B2" rx="13.75" ry="13.75" style="stroke:#A80036;stroke-width:1.25;"/><path d="M686.25,1556.875 Q686.5039,1556.25 686.7969,1555.9375 Q687.0898,1555.625 687.4219,1555.625 Q688.0078,1555.625 688.3789,1555.9766 Q688.75,1556.3281 688.75,1557.1484 L688.75,1559.1016 Q688.75,1559.9219 688.3984,1560.2734 Q688.0469,1560.625 687.5,1560.625 Q687.0117,1560.625 686.6992,1560.4102 Q686.3867,1560.1953 686.25,1559.6289 Q686.1914,1559.2383 685.9766,1559.0234 Q685.5859,1558.6133 684.8828,1558.3789 Q684.1797,1558.125 683.4766,1558.125 Q682.5977,1558.125 681.8555,1558.4766 Q681.1328,1558.8281 680.5664,1559.6094 Q680,1560.3906 680,1561.4648 L680,1562.6172 Q680,1563.9063 681.0547,1564.7656 Q682.1094,1565.625 683.9844,1565.625 Q685.0977,1565.625 685.8789,1565.3711 Q686.3281,1565.2344 686.8359,1564.7852 Q687.168,1564.5313 687.3438,1564.4531 Q687.5195,1564.375 687.7344,1564.375 Q688.1445,1564.375 688.4375,1564.707 Q688.75,1565.0195 688.75,1565.4688 Q688.75,1565.8984 688.3203,1566.4063 Q687.6953,1567.1484 686.6992,1567.5586 Q685.3906,1568.125 683.7891,1568.125 Q681.9141,1568.125 680.4102,1567.3828 Q679.1992,1566.7969 678.3398,1565.5273 Q677.5,1564.2578 677.5,1562.7539 L677.5,1561.3867 Q677.5,1559.8242 678.2422,1558.457 Q679.0039,1557.0898 680.3125,1556.3672 Q681.6406,1555.625 683.125,1555.625 Q684.0234,1555.625 684.8047,1555.9375 Q685.5859,1556.25 686.25,1556.875 Z " fill="#000000"/><text fill="#000000" font-family="sans-serif" font-size="15" lengthAdjust="spacing" textLength="53.75" x="705" y="1567.3877">Produto</text><line style="stroke:#A80036;stroke-width:1.875;" x1="649.375" x2="778.125" y1="1581.25" y2="1581.25"/><text fill="#000000" font-family="sans-serif" font-size="13.75" lengthAdjust="spacing" textLength="106.25" x="655.625" y="1600.5237">-Integer idProduto</text><text fill="#000000" font-family="sans-serif" font-size="13.75" lengthAdjust="spacing" textLength="113.75" x="655.625" y="1617.8186">-String designacao</text><text fill="#000000" font-family="sans-serif" font-size="13.75" lengthAdjust="spacing" textLength="80" x="655.625" y="1635.1135">-Double peso</text><text fill="#000000" font-family="sans-serif" font-size="13.75" lengthAdjust="spacing" textLength="116.25" x="655.625" y="1652.4084">-Double precoBase</text><line style="stroke:#A80036;stroke-width:1.875;" x1="649.375" x2="778.125" y1="1660.4297" y2="1660.4297"/><!--MD5=[5dd1d6732c071e710b9290b531f2fa3b]
class Utilizador--><rect codeLine="99" fill="#FEFECE" filter="url(#fmydgttyj5ck)" height="146.4746" id="Utilizador" style="stroke:#A80036;stroke-width:1.875;" width="212.5" x="451.25" y="1001.25"/><ellipse cx="520.3125" cy="1021.25" fill="#ADD1B2" rx="13.75" ry="13.75" style="stroke:#A80036;stroke-width:1.25;"/><path d="M522.8125,1016.875 Q523.0664,1016.25 523.3594,1015.9375 Q523.6523,1015.625 523.9844,1015.625 Q524.5703,1015.625 524.9414,1015.9766 Q525.3125,1016.3281 525.3125,1017.1484 L525.3125,1019.1016 Q525.3125,1019.9219 524.9609,1020.2734 Q524.6094,1020.625 524.0625,1020.625 Q523.5742,1020.625 523.2617,1020.4102 Q522.9492,1020.1953 522.8125,1019.6289 Q522.7539,1019.2383 522.5391,1019.0234 Q522.1484,1018.6133 521.4453,1018.3789 Q520.7422,1018.125 520.0391,1018.125 Q519.1602,1018.125 518.418,1018.4766 Q517.6953,1018.8281 517.1289,1019.6094 Q516.5625,1020.3906 516.5625,1021.4648 L516.5625,1022.6172 Q516.5625,1023.9063 517.6172,1024.7656 Q518.6719,1025.625 520.5469,1025.625 Q521.6602,1025.625 522.4414,1025.3711 Q522.8906,1025.2344 523.3984,1024.7852 Q523.7305,1024.5313 523.9063,1024.4531 Q524.082,1024.375 524.2969,1024.375 Q524.707,1024.375 525,1024.707 Q525.3125,1025.0195 525.3125,1025.4688 Q525.3125,1025.8984 524.8828,1026.4063 Q524.2578,1027.1484 523.2617,1027.5586 Q521.9531,1028.125 520.3516,1028.125 Q518.4766,1028.125 516.9727,1027.3828 Q515.7617,1026.7969 514.9023,1025.5273 Q514.0625,1024.2578 514.0625,1022.7539 L514.0625,1021.3867 Q514.0625,1019.8242 514.8047,1018.457 Q515.5664,1017.0898 516.875,1016.3672 Q518.2031,1015.625 519.6875,1015.625 Q520.5859,1015.625 521.3672,1015.9375 Q522.1484,1016.25 522.8125,1016.875 Z " fill="#000000"/><text fill="#000000" font-family="sans-serif" font-size="15" lengthAdjust="spacing" textLength="63.75" x="545.9375" y="1027.3877">Utilizador</text><line style="stroke:#A80036;stroke-width:1.875;" x1="452.5" x2="662.5" y1="1041.25" y2="1041.25"/><text fill="#000000" font-family="sans-serif" font-size="13.75" lengthAdjust="spacing" textLength="68.75" x="458.75" y="1060.5237">-Integer NIF</text><text fill="#000000" font-family="sans-serif" font-size="13.75" lengthAdjust="spacing" textLength="76.25" x="458.75" y="1077.8186">-String nome</text><text fill="#000000" font-family="sans-serif" font-size="13.75" lengthAdjust="spacing" textLength="73.75" x="458.75" y="1095.1135">-String email</text><text fill="#000000" font-family="sans-serif" font-size="13.75" lengthAdjust="spacing" textLength="197.5" x="458.75" y="1112.4084">-Integer numeroSegurancaSocial</text><text fill="#000000" font-family="sans-serif" font-size="13.75" lengthAdjust="spacing" textLength="106.25" x="458.75" y="1129.7034">-String password</text><line style="stroke:#A80036;stroke-width:1.875;" x1="452.5" x2="662.5" y1="1137.7246" y2="1137.7246"/><!--MD5=[8505c5852735283b5a8424161266bb9f]
class Veiculo--><rect codeLine="107" fill="#FEFECE" filter="url(#fmydgttyj5ck)" height="198.3594" id="Veiculo" style="stroke:#A80036;stroke-width:1.875;" width="186.25" x="1215.625" y="1245"/><ellipse cx="1278.4375" cy="1265" fill="#ADD1B2" rx="13.75" ry="13.75" style="stroke:#A80036;stroke-width:1.25;"/><path d="M1280.9375,1260.625 Q1281.1914,1260 1281.4844,1259.6875 Q1281.7773,1259.375 1282.1094,1259.375 Q1282.6953,1259.375 1283.0664,1259.7266 Q1283.4375,1260.0781 1283.4375,1260.8984 L1283.4375,1262.8516 Q1283.4375,1263.6719 1283.0859,1264.0234 Q1282.7344,1264.375 1282.1875,1264.375 Q1281.6992,1264.375 1281.3867,1264.1602 Q1281.0742,1263.9453 1280.9375,1263.3789 Q1280.8789,1262.9883 1280.6641,1262.7734 Q1280.2734,1262.3633 1279.5703,1262.1289 Q1278.8672,1261.875 1278.1641,1261.875 Q1277.2852,1261.875 1276.543,1262.2266 Q1275.8203,1262.5781 1275.2539,1263.3594 Q1274.6875,1264.1406 1274.6875,1265.2148 L1274.6875,1266.3672 Q1274.6875,1267.6563 1275.7422,1268.5156 Q1276.7969,1269.375 1278.6719,1269.375 Q1279.7852,1269.375 1280.5664,1269.1211 Q1281.0156,1268.9844 1281.5234,1268.5352 Q1281.8555,1268.2813 1282.0313,1268.2031 Q1282.207,1268.125 1282.4219,1268.125 Q1282.832,1268.125 1283.125,1268.457 Q1283.4375,1268.7695 1283.4375,1269.2188 Q1283.4375,1269.6484 1283.0078,1270.1563 Q1282.3828,1270.8984 1281.3867,1271.3086 Q1280.0781,1271.875 1278.4766,1271.875 Q1276.6016,1271.875 1275.0977,1271.1328 Q1273.8867,1270.5469 1273.0273,1269.2773 Q1272.1875,1268.0078 1272.1875,1266.5039 L1272.1875,1265.1367 Q1272.1875,1263.5742 1272.9297,1262.207 Q1273.6914,1260.8398 1275,1260.1172 Q1276.3281,1259.375 1277.8125,1259.375 Q1278.7109,1259.375 1279.4922,1259.6875 Q1280.2734,1260 1280.9375,1260.625 Z " fill="#000000"/><text fill="#000000" font-family="sans-serif" font-size="15" lengthAdjust="spacing" textLength="50" x="1304.0625" y="1271.1377">Veiculo</text><line style="stroke:#A80036;stroke-width:1.875;" x1="1216.875" x2="1400.625" y1="1285" y2="1285"/><text fill="#000000" font-family="sans-serif" font-size="13.75" lengthAdjust="spacing" textLength="102.5" x="1223.125" y="1304.2737">-Integer idveiculo</text><text fill="#000000" font-family="sans-serif" font-size="13.75" lengthAdjust="spacing" textLength="103.75" x="1223.125" y="1321.5686">-String descricao</text><text fill="#000000" font-family="sans-serif" font-size="13.75" lengthAdjust="spacing" textLength="120" x="1223.125" y="1338.8635">-Double capacidade</text><text fill="#000000" font-family="sans-serif" font-size="13.75" lengthAdjust="spacing" textLength="171.25" x="1223.125" y="1356.1584">-Double percentagemBateria</text><text fill="#000000" font-family="sans-serif" font-size="13.75" lengthAdjust="spacing" textLength="125" x="1223.125" y="1373.4534">-Double pesoMaximo</text><text fill="#000000" font-family="sans-serif" font-size="13.75" lengthAdjust="spacing" textLength="125" x="1223.125" y="1390.7483">-Double pesoVeiculo</text><text fill="#000000" font-family="sans-serif" font-size="13.75" lengthAdjust="spacing" textLength="101.25" x="1223.125" y="1408.0432">-Double potencia</text><text fill="#000000" font-family="sans-serif" font-size="13.75" lengthAdjust="spacing" textLength="118.75" x="1223.125" y="1425.3381">-Double areaFrontal</text><line style="stroke:#A80036;stroke-width:1.875;" x1="1216.875" x2="1400.625" y1="1433.3594" y2="1433.3594"/><!--MD5=[2e3f1e60e74253ff42e47f8bfdb04ee2]
class Drone--><rect codeLine="118" fill="#FEFECE" filter="url(#fmydgttyj5ck)" height="94.5898" id="Drone" style="stroke:#A80036;stroke-width:1.875;" width="140" x="1326.25" y="1558.125"/><ellipse cx="1370.875" cy="1578.125" fill="#ADD1B2" rx="13.75" ry="13.75" style="stroke:#A80036;stroke-width:1.25;"/><path d="M1373.375,1573.75 Q1373.6289,1573.125 1373.9219,1572.8125 Q1374.2148,1572.5 1374.5469,1572.5 Q1375.1328,1572.5 1375.5039,1572.8516 Q1375.875,1573.2031 1375.875,1574.0234 L1375.875,1575.9766 Q1375.875,1576.7969 1375.5234,1577.1484 Q1375.1719,1577.5 1374.625,1577.5 Q1374.1367,1577.5 1373.8242,1577.2852 Q1373.5117,1577.0703 1373.375,1576.5039 Q1373.3164,1576.1133 1373.1016,1575.8984 Q1372.7109,1575.4883 1372.0078,1575.2539 Q1371.3047,1575 1370.6016,1575 Q1369.7227,1575 1368.9805,1575.3516 Q1368.2578,1575.7031 1367.6914,1576.4844 Q1367.125,1577.2656 1367.125,1578.3398 L1367.125,1579.4922 Q1367.125,1580.7813 1368.1797,1581.6406 Q1369.2344,1582.5 1371.1094,1582.5 Q1372.2227,1582.5 1373.0039,1582.2461 Q1373.4531,1582.1094 1373.9609,1581.6602 Q1374.293,1581.4063 1374.4688,1581.3281 Q1374.6445,1581.25 1374.8594,1581.25 Q1375.2695,1581.25 1375.5625,1581.582 Q1375.875,1581.8945 1375.875,1582.3438 Q1375.875,1582.7734 1375.4453,1583.2813 Q1374.8203,1584.0234 1373.8242,1584.4336 Q1372.5156,1585 1370.9141,1585 Q1369.0391,1585 1367.5352,1584.2578 Q1366.3242,1583.6719 1365.4648,1582.4023 Q1364.625,1581.1328 1364.625,1579.6289 L1364.625,1578.2617 Q1364.625,1576.6992 1365.3672,1575.332 Q1366.1289,1573.9648 1367.4375,1573.2422 Q1368.7656,1572.5 1370.25,1572.5 Q1371.1484,1572.5 1371.9297,1572.8125 Q1372.7109,1573.125 1373.375,1573.75 Z " fill="#000000"/><text fill="#000000" font-family="sans-serif" font-size="15" lengthAdjust="spacing" textLength="42.5" x="1394.125" y="1584.2627">Drone</text><line style="stroke:#A80036;stroke-width:1.875;" x1="1327.5" x2="1465" y1="1598.125" y2="1598.125"/><text fill="#000000" font-family="sans-serif" font-size="13.75" lengthAdjust="spacing" textLength="96.25" x="1333.75" y="1617.3987">-Integer idDrone</text><text fill="#000000" font-family="sans-serif" font-size="13.75" lengthAdjust="spacing" textLength="125" x="1333.75" y="1634.6936">-Double hoverPower</text><line style="stroke:#A80036;stroke-width:1.875;" x1="1327.5" x2="1465" y1="1642.7148" y2="1642.7148"/><!--MD5=[6613c9cd406ef433ff06f5e98b28abd9]
class Farmacia--><rect codeLine="123" fill="#FEFECE" filter="url(#fmydgttyj5ck)" height="94.5898" id="Farmacia" style="stroke:#A80036;stroke-width:1.875;" width="105" x="925" y="753.75"/><ellipse cx="943.75" cy="773.75" fill="#ADD1B2" rx="13.75" ry="13.75" style="stroke:#A80036;stroke-width:1.25;"/><path d="M946.25,769.375 Q946.5039,768.75 946.7969,768.4375 Q947.0898,768.125 947.4219,768.125 Q948.0078,768.125 948.3789,768.4766 Q948.75,768.8281 948.75,769.6484 L948.75,771.6016 Q948.75,772.4219 948.3984,772.7734 Q948.0469,773.125 947.5,773.125 Q947.0117,773.125 946.6992,772.9102 Q946.3867,772.6953 946.25,772.1289 Q946.1914,771.7383 945.9766,771.5234 Q945.5859,771.1133 944.8828,770.8789 Q944.1797,770.625 943.4766,770.625 Q942.5977,770.625 941.8555,770.9766 Q941.1328,771.3281 940.5664,772.1094 Q940,772.8906 940,773.9648 L940,775.1172 Q940,776.4063 941.0547,777.2656 Q942.1094,778.125 943.9844,778.125 Q945.0977,778.125 945.8789,777.8711 Q946.3281,777.7344 946.8359,777.2852 Q947.168,777.0313 947.3438,776.9531 Q947.5195,776.875 947.7344,776.875 Q948.1445,776.875 948.4375,777.207 Q948.75,777.5195 948.75,777.9688 Q948.75,778.3984 948.3203,778.9063 Q947.6953,779.6484 946.6992,780.0586 Q945.3906,780.625 943.7891,780.625 Q941.9141,780.625 940.4102,779.8828 Q939.1992,779.2969 938.3398,778.0273 Q937.5,776.7578 937.5,775.2539 L937.5,773.8867 Q937.5,772.3242 938.2422,770.957 Q939.0039,769.5898 940.3125,768.8672 Q941.6406,768.125 943.125,768.125 Q944.0234,768.125 944.8047,768.4375 Q945.5859,768.75 946.25,769.375 Z " fill="#000000"/><text fill="#000000" font-family="sans-serif" font-size="15" lengthAdjust="spacing" textLength="65" x="961.25" y="779.8877">Farmacia</text><line style="stroke:#A80036;stroke-width:1.875;" x1="926.25" x2="1028.75" y1="793.75" y2="793.75"/><text fill="#000000" font-family="sans-serif" font-size="13.75" lengthAdjust="spacing" textLength="68.75" x="932.5" y="813.0237">-Integer NIF</text><text fill="#000000" font-family="sans-serif" font-size="13.75" lengthAdjust="spacing" textLength="73.75" x="932.5" y="830.3186">-String email</text><line style="stroke:#A80036;stroke-width:1.875;" x1="926.25" x2="1028.75" y1="838.3398" y2="838.3398"/><!--MD5=[1593fa6ac82b73031c98001dcbb43056]
link RegistarEntregaUI to RegistarEntregaController--><path codeLine="128" d="M515,68.7625 C515,87.0875 515,112.225 515,138.2375 " fill="none" id="RegistarEntregaUI-to-RegistarEntregaController" style="stroke:#A80036;stroke-width:1.25;stroke-dasharray:7.0,7.0;"/><polygon fill="#A80036" points="515,144.5125,520,133.2625,515,138.2625,510,133.2625,515,144.5125" style="stroke:#A80036;stroke-width:1.25;"/><!--MD5=[f3f72dc95338026d83cf258b0336abf9]
link RegistarEntregaController to EstafetaDB--><path codeLine="130" d="M515,377.7 C515,408.5875 515,440.15 515,464.55 " fill="none" id="RegistarEntregaController-to-EstafetaDB" style="stroke:#A80036;stroke-width:1.25;stroke-dasharray:7.0,7.0;"/><polygon fill="#A80036" points="515,471.2375,520,459.9875,515,464.9875,510,459.9875,515,471.2375" style="stroke:#A80036;stroke-width:1.25;"/><!--MD5=[c4ee7c2502e62de156616eca66236bb0]
link RegistarEntregaController to EnderecoDB--><path codeLine="131" d="M450.3125,377.725 C438.2125,402.3 426.55,428.4875 417.5,453.75 C400.7125,500.6375 389.025,555.9 381.775,597.225 " fill="none" id="RegistarEntregaController-to-EnderecoDB" style="stroke:#A80036;stroke-width:1.25;stroke-dasharray:7.0,7.0;"/><polygon fill="#A80036" points="380.65,603.7375,387.5036,593.5106,381.7209,597.5799,377.6515,591.7972,380.65,603.7375" style="stroke:#A80036;stroke-width:1.25;"/><!--MD5=[f320307c57c5190d0fa79ae2b4d97c8e]
link RegistarEntregaController to FarmaciaDB--><path codeLine="132" d="M677.5625,377.7 C717.6375,406.0875 758.5,435.05 791.6,458.5 " fill="none" id="RegistarEntregaController-to-FarmaciaDB" style="stroke:#A80036;stroke-width:1.25;stroke-dasharray:7.0,7.0;"/><polygon fill="#A80036" points="796.8375,462.225,790.5504,451.6403,791.7384,458.6109,784.7678,459.7989,796.8375,462.225" style="stroke:#A80036;stroke-width:1.25;"/><!--MD5=[51c8078cdce16ec2931503df013aa567]
link RegistarEntregaController to EntregaDB--><path codeLine="133" d="M865.85,310.8875 C956.9125,339.125 1047.55,383.6375 1112.5,453.75 C1150.5375,494.8 1160.525,560 1162.4,605.8125 " fill="none" id="RegistarEntregaController-to-EntregaDB" style="stroke:#A80036;stroke-width:1.25;stroke-dasharray:7.0,7.0;"/><polygon fill="#A80036" points="1162.6125,612.425,1167.2241,601.0103,1162.3983,606.1787,1157.2299,601.3529,1162.6125,612.425" style="stroke:#A80036;stroke-width:1.25;"/><!--MD5=[d9064612604f914b9782a6af88293211]
link RegistarEntregaController to EncomendaDB--><path codeLine="134" d="M418.625,377.5125 C367.65,441.6125 306.225,524.325 260,603.75 C205.3375,697.675 158.6,816.925 135.475,880.0125 " fill="none" id="RegistarEntregaController-to-EncomendaDB" style="stroke:#A80036;stroke-width:1.25;stroke-dasharray:7.0,7.0;"/><polygon fill="#A80036" points="133.3125,885.9375,141.8647,877.0819,135.4541,880.0659,132.4701,873.6553,133.3125,885.9375" style="stroke:#A80036;stroke-width:1.25;"/><!--MD5=[e3047c0947376f82d5af689ab4f30ae6]
link RegistarEntregaController to VeiculoDB--><path codeLine="135" d="M865.625,335.65 C1122.15,397.275 1438.05,492.9875 1513.75,603.75 C1570.7875,687.2 1556.325,813.3375 1543.1125,879.5625 " fill="none" id="RegistarEntregaController-to-VeiculoDB" style="stroke:#A80036;stroke-width:1.25;stroke-dasharray:7.0,7.0;"/><polygon fill="#A80036" points="1541.8375,885.775,1548.9861,875.752,1543.0873,879.6512,1539.188,873.7524,1541.8375,885.775" style="stroke:#A80036;stroke-width:1.25;"/><!--MD5=[13e18cca587fedea4b01b5758c9bdbf6]
link RegistarEntregaController to SessaoUtilizador--><path codeLine="136" d="M263.05,377.55 C241.3375,389.525 220.0375,402.075 200,415 C184.2625,425.15 168.2625,437.225 153.4625,449.275 " fill="none" id="RegistarEntregaController-to-SessaoUtilizador" style="stroke:#A80036;stroke-width:1.25;stroke-dasharray:7.0,7.0;"/><polygon fill="#A80036" points="148.4875,453.35,160.3528,450.0672,153.3152,449.3806,154.0018,442.3429,148.4875,453.35" style="stroke:#A80036;stroke-width:1.25;"/><!--MD5=[4c7211caded616e3e77a70a7b669ae10]
link EntregaDB to Entrega--><path codeLine="138" d="M1159.9875,707.7 C1158.0125,779.7625 1154.2125,918.9875 1151.9125,1003.2375 " fill="none" id="EntregaDB-to-Entrega" style="stroke:#A80036;stroke-width:1.25;"/><polygon fill="#A80036" points="1151.7375,1009.7125,1157.0568,998.6099,1151.916,1003.465,1147.0608,998.3243,1151.7375,1009.7125" style="stroke:#A80036;stroke-width:1.25;"/><text fill="#000000" font-family="sans-serif" font-size="16.25" lengthAdjust="spacing" textLength="107.5" x="1158.75" y="808.1189">tem registadas</text><text fill="#000000" font-family="sans-serif" font-size="16.25" lengthAdjust="spacing" textLength="8.75" x="1150.339" y="733.8325">1</text><text fill="#000000" font-family="sans-serif" font-size="16.25" lengthAdjust="spacing" textLength="6.25" x="1145.3011" y="996.5493">*</text><!--MD5=[a3e63c72779e49a48819b249af53bae4]
link EstafetaDB to Estafeta--><path codeLine="139" d="M507.375,548.875 C500.525,594.325 496.9375,670.3875 537.5,716.25 C585.525,770.5625 627.4625,730.8625 696.25,753.75 C705.0875,756.6875 714.2125,760.0875 723.2125,763.6625 " fill="none" id="EstafetaDB-to-Estafeta" style="stroke:#A80036;stroke-width:1.25;"/><polygon fill="#A80036" points="729.425,766.175,720.86,757.3317,723.6282,763.8384,717.1215,766.6066,729.425,766.175" style="stroke:#A80036;stroke-width:1.25;"/><text fill="#000000" font-family="sans-serif" font-size="16.25" lengthAdjust="spacing" textLength="107.5" x="538.75" y="666.8689">tem registadas</text><text fill="#000000" font-family="sans-serif" font-size="16.25" lengthAdjust="spacing" textLength="8.75" x="496.2625" y="575.4296">1</text><text fill="#000000" font-family="sans-serif" font-size="16.25" lengthAdjust="spacing" textLength="6.25" x="713.8881" y="757.5897">*</text><!--MD5=[7177515c401312a3f4890a50ab42ecc9]
link EncomendaDB to Encomenda--><path codeLine="140" d="M109.375,964.15 C98.55,1011.1875 87.925,1091.975 123.75,1147.5 C195.725,1259.05 350,1308.325 448.475,1329.0875 " fill="none" id="EncomendaDB-to-Encomenda" style="stroke:#A80036;stroke-width:1.25;"/><polygon fill="#A80036" points="454.8875,1330.4125,444.8887,1323.2301,448.768,1329.1421,442.856,1333.0213,454.8875,1330.4125" style="stroke:#A80036;stroke-width:1.25;"/><text fill="#000000" font-family="sans-serif" font-size="16.25" lengthAdjust="spacing" textLength="107.5" x="125" y="1081.2439">tem registadas</text><text fill="#000000" font-family="sans-serif" font-size="16.25" lengthAdjust="spacing" textLength="8.75" x="97.7656" y="990.4495">1</text><text fill="#000000" font-family="sans-serif" font-size="16.25" lengthAdjust="spacing" textLength="6.25" x="438.7241" y="1324.5232">*</text><!--MD5=[c023e2c3fa599b931e4bde319636976a]
link EnderecoDB to Endereco--><path codeLine="141" d="M428.075,716.275 C471.625,757.075 535.275,811.775 598.75,848.75 C639.3125,872.375 664.375,852.975 697.5,886.25 C728.825,917.7125 746.325,964.5 756,1003.3875 " fill="none" id="EnderecoDB-to-Endereco" style="stroke:#A80036;stroke-width:1.25;"/><polygon fill="#A80036" points="757.4875,1009.5625,759.7186,997.4553,756.0262,1003.4857,749.9958,999.7933,757.4875,1009.5625" style="stroke:#A80036;stroke-width:1.25;"/><text fill="#000000" font-family="sans-serif" font-size="16.25" lengthAdjust="spacing" textLength="107.5" x="600" y="808.1189">tem registadas</text><text fill="#000000" font-family="sans-serif" font-size="16.25" lengthAdjust="spacing" textLength="8.75" x="426.525" y="742.538">1</text><text fill="#000000" font-family="sans-serif" font-size="16.25" lengthAdjust="spacing" textLength="6.25" x="749.4721" y="996.3791">*</text><!--MD5=[3c539b0dd2212e8322efef71ee8cdfc2]
link FarmaciaDB to Farmacia--><path codeLine="142" d="M725.875,557.625 C707.1375,569.75 690.3625,584.9 678.75,603.75 C652.525,646.3125 646.525,678.025 678.75,716.25 C742.3375,791.6625 804.7375,720.2125 897.5,753.75 C904.6875,756.35 911.975,759.5875 919.075,763.125 " fill="none" id="FarmaciaDB-to-Farmacia" style="stroke:#A80036;stroke-width:1.25;"/><polygon fill="#A80036" points="924.975,766.175,917.2586,756.5823,919.4174,763.3158,912.6839,765.4745,924.975,766.175" style="stroke:#A80036;stroke-width:1.25;"/><text fill="#000000" font-family="sans-serif" font-size="16.25" lengthAdjust="spacing" textLength="107.5" x="680" y="666.8689">tem registadas</text><text fill="#000000" font-family="sans-serif" font-size="16.25" lengthAdjust="spacing" textLength="8.75" x="693.7719" y="584.1084">1</text><text fill="#000000" font-family="sans-serif" font-size="16.25" lengthAdjust="spacing" textLength="6.25" x="908.8123" y="755.0906">*</text><!--MD5=[6355171bb87232b3a58c2e48ef243e25]
link VeiculoDB to Veiculo--><path codeLine="143" d="M1512.25,963.975 C1479.25,1025.4625 1412.7375,1149.375 1364.725,1238.8375 " fill="none" id="VeiculoDB-to-Veiculo" style="stroke:#A80036;stroke-width:1.25;"/><polygon fill="#A80036" points="1361.5875,1244.675,1371.3162,1237.1308,1364.5453,1239.1692,1362.5069,1232.3983,1361.5875,1244.675" style="stroke:#A80036;stroke-width:1.25;"/><text fill="#000000" font-family="sans-serif" font-size="16.25" lengthAdjust="spacing" textLength="107.5" x="1492.5" y="1081.2439">tem registadas</text><text fill="#000000" font-family="sans-serif" font-size="16.25" lengthAdjust="spacing" textLength="8.75" x="1498.652" y="990.5493">1</text><text fill="#000000" font-family="sans-serif" font-size="16.25" lengthAdjust="spacing" textLength="6.25" x="1359.9204" y="1231.4692">*</text><!--MD5=[aa5a8ec5fd097e3d415964f18fa48efb]
link Estafeta to Utilizador--><path codeLine="145" d="M729.725,830.7 C701.775,844.2625 671.225,862.75 648.75,886.25 C617.8,918.6 595.425,963.4625 580.5875,1001.1125 " fill="none" id="Estafeta-Utilizador" style="stroke:#A80036;stroke-width:1.25;"/><polygon fill="#000000" points="650.8839,929.923,661.0945,923.8341,655.5655,918.9954,650.8839,929.923" style="stroke:#000000;stroke-width:1.25;"/><text fill="#000000" font-family="sans-serif" font-size="16.25" lengthAdjust="spacing" textLength="76.25" x="666.25" y="931.8689">atua como</text><text fill="#000000" font-family="sans-serif" font-size="16.25" lengthAdjust="spacing" textLength="8.75" x="711.0902" y="830.1022">1</text><text fill="#000000" font-family="sans-serif" font-size="16.25" lengthAdjust="spacing" textLength="8.75" x="574.1181" y="987.8469">1</text><!--MD5=[00a2b7b20e7d7828fa181bc7c0dc6998]
link Cliente to Utilizador--><path codeLine="146" d="M348.425,840.2375 C340.1625,874.875 334,926.325 356.25,963.75 C359.325,968.925 404.45,993.6375 451.1875,1018.2625 " fill="none" id="Cliente-Utilizador" style="stroke:#A80036;stroke-width:1.25;"/><polygon fill="#000000" points="365.6245,930.6327,363.1538,919.004,356.7906,922.6771,365.6245,930.6327" style="stroke:#000000;stroke-width:1.25;"/><text fill="#000000" font-family="sans-serif" font-size="16.25" lengthAdjust="spacing" textLength="76.25" x="373.75" y="931.8689">atua como</text><text fill="#000000" font-family="sans-serif" font-size="16.25" lengthAdjust="spacing" textLength="8.75" x="347.0075" y="866.8143">1</text><text fill="#000000" font-family="sans-serif" font-size="16.25" lengthAdjust="spacing" textLength="8.75" x="432.5794" y="1009.2528">1</text><!--MD5=[460034a14c91c8062cdb3d6e7324968c]
link Veiculo to Drone--><path codeLine="147" d="M1341.95,1443.8125 C1355.2,1482.9875 1369.825,1526.2125 1380.55,1557.9375 " fill="none" id="Veiculo-Drone" style="stroke:#A80036;stroke-width:1.25;"/><polygon fill="#000000" points="1364.2475,1486.7992,1364.39,1498.6866,1371.35,1496.3325,1364.2475,1486.7992" style="stroke:#000000;stroke-width:1.25;"/><text fill="#000000" font-family="sans-serif" font-size="16.25" lengthAdjust="spacing" textLength="8.75" x="1377.5" y="1499.3689"></text><text fill="#000000" font-family="sans-serif" font-size="16.25" lengthAdjust="spacing" textLength="8.75" x="1335.6771" y="1470.1218">1</text><text fill="#000000" font-family="sans-serif" font-size="16.25" lengthAdjust="spacing" textLength="8.75" x="1368.2241" y="1544.6065">1</text><!--MD5=[0fa340c3d135fb564aedca6a2c40d6f7]
link Veiculo to Scooter--><path codeLine="148" d="M1275.55,1443.8125 C1261.0375,1486.7 1244.8875,1534.4625 1234.0125,1566.65 " fill="none" id="Veiculo-Scooter" style="stroke:#A80036;stroke-width:1.25;"/><polygon fill="#000000" points="1269.5021,1486.7991,1262.4002,1496.3329,1269.3604,1498.6864,1269.5021,1486.7991" style="stroke:#000000;stroke-width:1.25;"/><text fill="#000000" font-family="sans-serif" font-size="16.25" lengthAdjust="spacing" textLength="8.75" x="1278.75" y="1499.3689"></text><text fill="#000000" font-family="sans-serif" font-size="16.25" lengthAdjust="spacing" textLength="8.75" x="1263.5709" y="1470.1218">1</text><text fill="#000000" font-family="sans-serif" font-size="16.25" lengthAdjust="spacing" textLength="8.75" x="1226.9924" y="1553.4843">1</text><!--MD5=[cd2aeefe8c457d184a69396a9f9cb06a]
link Entrega to Veiculo--><path codeLine="149" d="M1175.7125,1138.9875 C1185.5125,1161.15 1197.3875,1185.8875 1210,1207.5 C1217.1875,1219.825 1225.25,1232.4 1233.575,1244.6875 " fill="none" id="Entrega-Veiculo" style="stroke:#A80036;stroke-width:1.25;"/><polygon fill="#000000" points="1213.2489,1190.9874,1215.4556,1202.669,1221.9004,1199.141,1213.2489,1190.9874" style="stroke:#000000;stroke-width:1.25;"/><text fill="#000000" font-family="sans-serif" font-size="16.25" lengthAdjust="spacing" textLength="47.5" x="1227.5" y="1203.1189">realiza</text><text fill="#000000" font-family="sans-serif" font-size="16.25" lengthAdjust="spacing" textLength="6.25" x="1172.4977" y="1165.8831">*</text><text fill="#000000" font-family="sans-serif" font-size="16.25" lengthAdjust="spacing" textLength="8.75" x="1217.4915" y="1231.4828">1</text><!--MD5=[60097591193c89dbde5dfd99b98b5263]
link Encomenda to Produto--><path codeLine="150" d="M586.6,1417.7 C612.975,1456.425 645.2,1503.75 670.6125,1541.05 " fill="none" id="Encomenda-Produto" style="stroke:#A80036;stroke-width:1.25;"/><polygon fill="#000000" points="652.2683,1497.8854,648.9399,1486.4726,642.8673,1490.6086,652.2683,1497.8854" style="stroke:#000000;stroke-width:1.25;"/><text fill="#000000" font-family="sans-serif" font-size="16.25" lengthAdjust="spacing" textLength="27.5" x="660" y="1499.3689">tem</text><text fill="#000000" font-family="sans-serif" font-size="16.25" lengthAdjust="spacing" textLength="8.75" x="583.3009" y="1444.7372">1</text><text fill="#000000" font-family="sans-serif" font-size="16.25" lengthAdjust="spacing" textLength="6.25" x="658.146" y="1527.8985">*</text><!--MD5=[39609d66ce6d06d1779a14455c909f6f]
link Entrega to Encomenda--><path codeLine="151" d="M1100.7625,1138.875 C1078.7875,1163.4 1051.1125,1189.7875 1021.25,1207.5 C893.15,1283.475 720.725,1318.4375 620.0875,1333.3 " fill="none" id="Entrega-Encomenda" style="stroke:#A80036;stroke-width:1.25;"/><polygon fill="#000000" points="1049.206,1198.8133,1061.0649,1197.9794,1058.3099,1191.1681,1049.206,1198.8133" style="stroke:#000000;stroke-width:1.25;"/><text fill="#000000" font-family="sans-serif" font-size="16.25" lengthAdjust="spacing" textLength="47.5" x="1066.25" y="1203.1189">possui</text><text fill="#000000" font-family="sans-serif" font-size="16.25" lengthAdjust="spacing" textLength="8.75" x="1084.4732" y="1166.2211">1</text><text fill="#000000" font-family="sans-serif" font-size="16.25" lengthAdjust="spacing" textLength="6.25" x="629.998" y="1327.7445">*</text><!--MD5=[328dae9b2f192140d45e51cd90ecd75a]
link Estafeta to Entrega--><path codeLine="152" d="M785.3625,840.1875 C771.8375,876.275 759.625,930.0625 788.75,963.75 C826.3875,1007.2875 991.4,980.2875 1045,1001.25 C1056.525,1005.75 1068.025,1011.725 1078.975,1018.3125 " fill="none" id="Estafeta-Entrega" style="stroke:#A80036;stroke-width:1.25;"/><polygon fill="#000000" points="800.3435,928.4615,792.5824,919.4562,788.7715,925.738,800.3435,928.4615" style="stroke:#000000;stroke-width:1.25;"/><text fill="#000000" font-family="sans-serif" font-size="16.25" lengthAdjust="spacing" textLength="47.5" x="806.25" y="931.8689">realiza</text><text fill="#000000" font-family="sans-serif" font-size="16.25" lengthAdjust="spacing" textLength="8.75" x="772.3772" y="866.7544">1</text><text fill="#000000" font-family="sans-serif" font-size="16.25" lengthAdjust="spacing" textLength="6.25" x="1063.2245" y="1006.7178">*</text><!--MD5=[43a7c1a046aa41d1c9842e3954366be4]
link Cliente to Endereco--><path codeLine="153" d="M403.725,840.2875 C420.2375,854.625 439.1625,871.1375 456.25,886.25 C494.8625,920.3875 497.1125,939.3375 542.5,963.75 C600.65,995.0375 627.9875,970.1875 686.25,1001.25 C693.5625,1005.15 700.7625,1009.825 707.675,1014.9125 " fill="none" id="Cliente-Endereco" style="stroke:#A80036;stroke-width:1.25;"/><polygon fill="#000000" points="554.1693,928.3332,546.1958,919.5155,542.5356,925.8862,554.1693,928.3332" style="stroke:#000000;stroke-width:1.25;"/><text fill="#000000" font-family="sans-serif" font-size="16.25" lengthAdjust="spacing" textLength="27.5" x="560" y="931.8689">tem</text><text fill="#000000" font-family="sans-serif" font-size="16.25" lengthAdjust="spacing" textLength="8.75" x="402.4761" y="866.5656">1</text><text fill="#000000" font-family="sans-serif" font-size="16.25" lengthAdjust="spacing" textLength="8.75" x="689.4956" y="1001.5798">1</text><!--MD5=[beec9e5f2ed2709028dd31c1dc478e7b]
link Cliente to Encomenda--><path codeLine="154" d="M341.225,840.1875 C311.35,905.775 261,1043.825 308.75,1147.5 C338.7,1212.525 402.1125,1263.975 454.5875,1297.7625 " fill="none" id="Cliente-Encomenda" style="stroke:#A80036;stroke-width:1.25;"/><polygon fill="#000000" points="316.503,1080.6613,317.3499,1068.8033,310.2182,1070.5702,316.503,1080.6613" style="stroke:#000000;stroke-width:1.25;"/><text fill="#000000" font-family="sans-serif" font-size="16.25" lengthAdjust="spacing" textLength="101.25" x="326.25" y="1081.2439">realiza e paga</text><text fill="#000000" font-family="sans-serif" font-size="16.25" lengthAdjust="spacing" textLength="8.75" x="327.9173" y="866.7544">1</text><text fill="#000000" font-family="sans-serif" font-size="16.25" lengthAdjust="spacing" textLength="6.25" x="438.9271" y="1288.4512">*</text><!--MD5=[5a27d3a82ae5518cc3aa88a6b9414b77]
link Farmacia to Encomenda--><path codeLine="155" d="M978.2625,848.825 C977.5,881.7 973.825,926.425 961.25,963.75 C930.6875,1054.5 916.0625,1079.3875 848.75,1147.5 C781.9,1215.1375 687.425,1270.3125 620.1375,1304.6125 " fill="none" id="Farmacia-Encomenda" style="stroke:#A80036;stroke-width:1.25;"/><polygon fill="#000000" points="949.8886,1079.5092,959.7626,1072.8885,953.9853,1068.3492,949.8886,1079.5092" style="stroke:#000000;stroke-width:1.25;"/><text fill="#000000" font-family="sans-serif" font-size="16.25" lengthAdjust="spacing" textLength="27.5" x="965" y="1081.2439">tem</text><text fill="#000000" font-family="sans-serif" font-size="16.25" lengthAdjust="spacing" textLength="8.75" x="968.9142" y="875.3001">1</text><text fill="#000000" font-family="sans-serif" font-size="16.25" lengthAdjust="spacing" textLength="6.25" x="630.0538" y="1295.74">*</text><!--MD5=[79d5a61b37419f60a30a60f3bc0e499f]
link Farmacia to Veiculo--><path codeLine="156" d="M1030.4125,827.3625 C1091.5,858.9375 1190.25,919.3 1242.5,1001.25 C1288.975,1074.15 1304.2,1172.275 1308.5875,1244.7125 " fill="none" id="Farmacia-Veiculo" style="stroke:#A80036;stroke-width:1.25;"/><polygon fill="#000000" points="1304.7164,1079.7954,1301.5025,1068.3498,1295.3888,1072.4248,1304.7164,1079.7954" style="stroke:#000000;stroke-width:1.25;"/><text fill="#000000" font-family="sans-serif" font-size="16.25" lengthAdjust="spacing" textLength="47.5" x="1312.5" y="1081.2439">possui</text><text fill="#000000" font-family="sans-serif" font-size="16.25" lengthAdjust="spacing" textLength="8.75" x="1039.9007" y="826.9704">1</text><text fill="#000000" font-family="sans-serif" font-size="16.25" lengthAdjust="spacing" textLength="6.25" x="1302.0344" y="1231.5101">*</text><!--MD5=[e9cb6b9ea8421b6538fc03abcb01a9a8]
link Farmacia to Endereco--><path codeLine="157" d="M938.0125,848.925 C928.475,860.825 918.5625,873.7875 910,886.25 C887.4375,919.075 888.375,931.5 865,963.75 C853.5125,979.6125 840.1125,995.825 826.9875,1010.75 " fill="none" id="Farmacia-Endereco" style="stroke:#A80036;stroke-width:1.25;"/><polygon fill="#000000" points="912.7142,930.3734,922.1398,923.1286,916.0813,918.972,912.7142,930.3734" style="stroke:#000000;stroke-width:1.25;"/><text fill="#000000" font-family="sans-serif" font-size="16.25" lengthAdjust="spacing" textLength="27.5" x="927.5" y="931.8689">tem</text><text fill="#000000" font-family="sans-serif" font-size="16.25" lengthAdjust="spacing" textLength="8.75" x="922.2719" y="875.0536">1</text><text fill="#000000" font-family="sans-serif" font-size="16.25" lengthAdjust="spacing" textLength="8.75" x="836.7664" y="996.3458">1</text><!--MD5=[055d9a59c94791d1e5417ead9eff8d01]
link Encomenda to EstadoEncomenda--><path codeLine="158" d="M530.1875,1417.7 C525.6375,1462.5625 519.9125,1518.9375 515.9625,1557.9375 " fill="none" id="Encomenda-EstadoEncomenda" style="stroke:#A80036;stroke-width:1.25;"/><polygon fill="#000000" points="529.3693,1498.9378,534.1652,1488.0599,526.8554,1487.3184,529.3693,1498.9378" style="stroke:#000000;stroke-width:1.25;"/><text fill="#000000" font-family="sans-serif" font-size="16.25" lengthAdjust="spacing" textLength="27.5" x="541.25" y="1499.3689">tem</text><text fill="#000000" font-family="sans-serif" font-size="16.25" lengthAdjust="spacing" textLength="8.75" x="520.0131" y="1444.7372">1</text><text fill="#000000" font-family="sans-serif" font-size="16.25" lengthAdjust="spacing" textLength="8.75" x="507.2726" y="1544.6065">1</text><!--MD5=[ed9dffbec23358d05760a732294c738e]
@startuml
skinparam classAttributeIconSize 0

class SessaoUtilizador{
  +getNif()
  +static getInstance()
  +getSessaoAtual()
}

class FarmaciaDB{
  +getLstFarmacias()
  +generateGrafo(graphDistanciaScooter, listEnderecosScooter,Terrestre)
}

class VeiculoDB{
  +getListaVeiculoEntrega(pesoMaximoEntrega, nifFarmacia)
}

class EnderecoDB {
  +getEnderecoByNifCliente(nif)
  +getEnderecoOrigem(nifFarmacia)
  +getLstEnderecosScooter()
}

class EncomendaDB {
  +getListaEncomenda(nifFarmacia)
}

class Entrega {
  -Integer idEntrega
  -String dataInicio
  -String dataFim
  -Double pesoEntrega
}

class EntregaDB {
  +generateGraphScooter(listEnderecosScooter, listEnderecos, est, veiculo, pesoEntrega)
  +getPath(graphScooter, graphDistanciaScooter, listEnderecos, finalShortPathScooter, endereco, 0, veiculo, 0, list)
}

class EstafetaDB {
  +getEstafetaByNIF(nif)
}

class RegistarEntregaController {
  +getEstafeta()
  +getLstFarmacias()
  +getListaEncomenda(nifFarmacia)
  +getEnderecoByNifCliente(nif)
  +getEnderecoOrigem(nifFarmacia)
  +getLstEnderecosScooter()
  +getListaVeiculoEntrega(pesoMaximoEntrega, nifFarmacia)
  +generateGrafo(graphDistanciaScooter, listEnderecosScooter,Terrestre)
  +generateGraphScooter(listEnderecosScooter, listEnderecos, est, veiculo, pesoEntrega)
  +getPath(graphScooter, graphDistanciaScooter, listEnderecos, finalShortPathScooter, endereco, 0, veiculo, 0, list)
}

class RegistarEntregaUI {
}

class Encomenda {
  -Integer idEncomenda
  -String dataPedida
  -Double preco
  -Double pesoEncomenda
  -Double taxa
}

class Estafeta {
  -Double pesoEstafeta
}

class Scooter {
  -Integer idScooter
}

class Endereco {
  -String morada
  -Double latitude
  -Double longitude
  -Double altitude
}

class Cliente {
  -Integer creditos
}

class EstadoEncomenda {
  -Integer idEstadoEncomenda
  -String designacao
}

class Produto {
  -Integer idProduto
  -String designacao
  -Double peso
  -Double precoBase
}

class Utilizador {
  -Integer NIF
  -String nome
  -String email
  -Integer numeroSegurancaSocial
  -String password
}

class Veiculo {
  -Integer idveiculo
  -String descricao
  -Double capacidade
  -Double percentagemBateria
  -Double pesoMaximo
  -Double pesoVeiculo
  -Double potencia
  -Double areaFrontal
}

class Drone {
  -Integer idDrone
  -Double hoverPower
}

class Farmacia {
  -Integer NIF
  -String email
}

RegistarEntregaUI ..> RegistarEntregaController

RegistarEntregaController ..> EstafetaDB
RegistarEntregaController ..> EnderecoDB
RegistarEntregaController ..> FarmaciaDB
RegistarEntregaController ..> EntregaDB
RegistarEntregaController ..> EncomendaDB
RegistarEntregaController ..> VeiculoDB
RegistarEntregaController ..> SessaoUtilizador

EntregaDB "1" - -> "*" Entrega : tem registadas
EstafetaDB "1" - -> "*" Estafeta : tem registadas
EncomendaDB "1" - -> "*" Encomenda : tem registadas
EnderecoDB "1" - -> "*" Endereco : tem registadas
FarmaciaDB "1" - -> "*" Farmacia : tem registadas
VeiculoDB "1" - -> "*" Veiculo : tem registadas

Estafeta "1" - - "1" Utilizador: atua como >
Cliente "1" - - "1" Utilizador: atua como >
Veiculo "1" - - "1" Drone:  <
Veiculo "1" - - "1" Scooter:  <
Entrega "*" - - "1" Veiculo: realiza <
Encomenda "1" - - "*" Produto: tem >
Entrega "1" - - "*" Encomenda : possui >
Estafeta "1" - - "*" Entrega: realiza >
Cliente "1" - - "1" Endereco: tem >
Cliente "1" - - "*" Encomenda: realiza e paga >
Farmacia "1" - - "*" Encomenda: tem >
Farmacia "1" - - "*" Veiculo: possui >
Farmacia "1" - - "1" Endereco: tem >
Encomenda "1" - - "1" EstadoEncomenda : tem >

@enduml

PlantUML version 1.2021.00(Sun Jan 10 10:25:05 GMT 2021)
(GPL source distribution)
Java Runtime: OpenJDK Runtime Environment
JVM: OpenJDK 64-Bit Server VM
Default Encoding: Cp1252
Language: pt
Country: PT
--></g></svg>