<?xml version="1.0" encoding="UTF-8" standalone="no"?><svg xmlns="http://www.w3.org/2000/svg" xmlns:xlink="http://www.w3.org/1999/xlink" contentScriptType="application/ecmascript" contentStyleType="text/css" height="440px" preserveAspectRatio="none" style="width:1246px;height:440px;" version="1.1" viewBox="0 0 1246 440" width="1246.25px" zoomAndPan="magnify"><defs><filter height="300%" id="f1gsp4f9bz919a" width="300%" x="-1" y="-1"><feGaussianBlur result="blurOut" stdDeviation="2.5"/><feColorMatrix in="blurOut" result="blurOut2" type="matrix" values="0 0 0 0 0 0 0 0 0 0 0 0 0 0 0 0 0 0 .4 0"/><feOffset dx="5.0" dy="5.0" in="blurOut2" result="blurOut3"/><feBlend in="SourceGraphic" in2="blurOut3" mode="normal"/></filter></defs><g><!--MD5=[3179f819b5ca0f9c8a1bd58e9144681b]
class Entrega--><rect codeLine="6" fill="#FEFECE" filter="url(#f1gsp4f9bz919a)" height="119.1797" id="Entrega" style="stroke:#A80036;stroke-width:1.875;" width="96.25" x="556.25" y="278.125"/><ellipse cx="576.125" cy="298.125" fill="#ADD1B2" rx="13.75" ry="13.75" style="stroke:#A80036;stroke-width:1.25;"/><path d="M578.625,293.75 Q578.8789,293.125 579.1719,292.8125 Q579.4648,292.5 579.7969,292.5 Q580.3828,292.5 580.7539,292.8516 Q581.125,293.2031 581.125,294.0234 L581.125,295.9766 Q581.125,296.7969 580.7734,297.1484 Q580.4219,297.5 579.875,297.5 Q579.3867,297.5 579.0742,297.2852 Q578.7617,297.0703 578.625,296.5039 Q578.5664,296.1133 578.3516,295.8984 Q577.9609,295.4883 577.2578,295.2539 Q576.5547,295 575.8516,295 Q574.9727,295 574.2305,295.3516 Q573.5078,295.7031 572.9414,296.4844 Q572.375,297.2656 572.375,298.3398 L572.375,299.4922 Q572.375,300.7813 573.4297,301.6406 Q574.4844,302.5 576.3594,302.5 Q577.4727,302.5 578.2539,302.2461 Q578.7031,302.1094 579.2109,301.6602 Q579.543,301.4063 579.7188,301.3281 Q579.8945,301.25 580.1094,301.25 Q580.5195,301.25 580.8125,301.582 Q581.125,301.8945 581.125,302.3438 Q581.125,302.7734 580.6953,303.2813 Q580.0703,304.0234 579.0742,304.4336 Q577.7656,305 576.1641,305 Q574.2891,305 572.7852,304.2578 Q571.5742,303.6719 570.7148,302.4023 Q569.875,301.1328 569.875,299.6289 L569.875,298.2617 Q569.875,296.6992 570.6172,295.332 Q571.3789,293.9648 572.6875,293.2422 Q574.0156,292.5 575.5,292.5 Q576.3984,292.5 577.1797,292.8125 Q577.9609,293.125 578.625,293.75 Z " fill="#000000"/><text fill="#000000" font-family="sans-serif" font-size="15" lengthAdjust="spacing" textLength="53.75" x="593.875" y="304.2627">Entrega</text><line style="stroke:#A80036;stroke-width:1.875;" x1="557.5" x2="651.25" y1="318.125" y2="318.125"/><text fill="#000000" font-family="sans-serif" font-size="13.75" lengthAdjust="spacing" textLength="61.25" x="563.75" y="337.3987">-idEntrega</text><text fill="#000000" font-family="sans-serif" font-size="13.75" lengthAdjust="spacing" textLength="61.25" x="563.75" y="354.6936">-dataInicio</text><text fill="#000000" font-family="sans-serif" font-size="13.75" lengthAdjust="spacing" textLength="51.25" x="563.75" y="371.9885">-dataFim</text><text fill="#000000" font-family="sans-serif" font-size="13.75" lengthAdjust="spacing" textLength="81.25" x="563.75" y="389.2834">-pesoEntrega</text><!--MD5=[c55f92ccbf0646788158d42f3399cc78]
class Encomenda--><rect codeLine="13" fill="#FEFECE" filter="url(#f1gsp4f9bz919a)" height="136.4746" id="Encomenda" style="stroke:#A80036;stroke-width:1.875;" width="123.75" x="802.5" y="55.625"/><ellipse cx="821.25" cy="75.625" fill="#ADD1B2" rx="13.75" ry="13.75" style="stroke:#A80036;stroke-width:1.25;"/><path d="M823.75,71.25 Q824.0039,70.625 824.2969,70.3125 Q824.5898,70 824.9219,70 Q825.5078,70 825.8789,70.3516 Q826.25,70.7031 826.25,71.5234 L826.25,73.4766 Q826.25,74.2969 825.8984,74.6484 Q825.5469,75 825,75 Q824.5117,75 824.1992,74.7852 Q823.8867,74.5703 823.75,74.0039 Q823.6914,73.6133 823.4766,73.3984 Q823.0859,72.9883 822.3828,72.7539 Q821.6797,72.5 820.9766,72.5 Q820.0977,72.5 819.3555,72.8516 Q818.6328,73.2031 818.0664,73.9844 Q817.5,74.7656 817.5,75.8398 L817.5,76.9922 Q817.5,78.2813 818.5547,79.1406 Q819.6094,80 821.4844,80 Q822.5977,80 823.3789,79.7461 Q823.8281,79.6094 824.3359,79.1602 Q824.668,78.9063 824.8438,78.8281 Q825.0195,78.75 825.2344,78.75 Q825.6445,78.75 825.9375,79.082 Q826.25,79.3945 826.25,79.8438 Q826.25,80.2734 825.8203,80.7813 Q825.1953,81.5234 824.1992,81.9336 Q822.8906,82.5 821.2891,82.5 Q819.4141,82.5 817.9102,81.7578 Q816.6992,81.1719 815.8398,79.9023 Q815,78.6328 815,77.1289 L815,75.7617 Q815,74.1992 815.7422,72.832 Q816.5039,71.4648 817.8125,70.7422 Q819.1406,70 820.625,70 Q821.5234,70 822.3047,70.3125 Q823.0859,70.625 823.75,71.25 Z " fill="#000000"/><text fill="#000000" font-family="sans-serif" font-size="15" lengthAdjust="spacing" textLength="83.75" x="838.75" y="81.7627">Encomenda</text><line style="stroke:#A80036;stroke-width:1.875;" x1="803.75" x2="925" y1="95.625" y2="95.625"/><text fill="#000000" font-family="sans-serif" font-size="13.75" lengthAdjust="spacing" textLength="85" x="810" y="114.8987">-idEncomenda</text><text fill="#000000" font-family="sans-serif" font-size="13.75" lengthAdjust="spacing" textLength="71.25" x="810" y="132.1936">-dataPedida</text><text fill="#000000" font-family="sans-serif" font-size="13.75" lengthAdjust="spacing" textLength="40" x="810" y="149.4885">-preco</text><text fill="#000000" font-family="sans-serif" font-size="13.75" lengthAdjust="spacing" textLength="105" x="810" y="166.7834">-pesoEncomenda</text><text fill="#000000" font-family="sans-serif" font-size="13.75" lengthAdjust="spacing" textLength="31.25" x="810" y="184.0784">-taxa</text><!--MD5=[533e824b6b94274ee39bf5a43d7cce2a]
class EstadoEncomenda--><rect codeLine="21" fill="#FEFECE" filter="url(#f1gsp4f9bz919a)" height="84.5898" id="EstadoEncomenda" style="stroke:#A80036;stroke-width:1.875;" width="172.5" x="1056.25" y="8.75"/><ellipse cx="1075" cy="28.75" fill="#ADD1B2" rx="13.75" ry="13.75" style="stroke:#A80036;stroke-width:1.25;"/><path d="M1077.5,24.375 Q1077.7539,23.75 1078.0469,23.4375 Q1078.3398,23.125 1078.6719,23.125 Q1079.2578,23.125 1079.6289,23.4766 Q1080,23.8281 1080,24.6484 L1080,26.6016 Q1080,27.4219 1079.6484,27.7734 Q1079.2969,28.125 1078.75,28.125 Q1078.2617,28.125 1077.9492,27.9102 Q1077.6367,27.6953 1077.5,27.1289 Q1077.4414,26.7383 1077.2266,26.5234 Q1076.8359,26.1133 1076.1328,25.8789 Q1075.4297,25.625 1074.7266,25.625 Q1073.8477,25.625 1073.1055,25.9766 Q1072.3828,26.3281 1071.8164,27.1094 Q1071.25,27.8906 1071.25,28.9648 L1071.25,30.1172 Q1071.25,31.4063 1072.3047,32.2656 Q1073.3594,33.125 1075.2344,33.125 Q1076.3477,33.125 1077.1289,32.8711 Q1077.5781,32.7344 1078.0859,32.2852 Q1078.418,32.0313 1078.5938,31.9531 Q1078.7695,31.875 1078.9844,31.875 Q1079.3945,31.875 1079.6875,32.207 Q1080,32.5195 1080,32.9688 Q1080,33.3984 1079.5703,33.9063 Q1078.9453,34.6484 1077.9492,35.0586 Q1076.6406,35.625 1075.0391,35.625 Q1073.1641,35.625 1071.6602,34.8828 Q1070.4492,34.2969 1069.5898,33.0273 Q1068.75,31.7578 1068.75,30.2539 L1068.75,28.8867 Q1068.75,27.3242 1069.4922,25.957 Q1070.2539,24.5898 1071.5625,23.8672 Q1072.8906,23.125 1074.375,23.125 Q1075.2734,23.125 1076.0547,23.4375 Q1076.8359,23.75 1077.5,24.375 Z " fill="#000000"/><text fill="#000000" font-family="sans-serif" font-size="15" lengthAdjust="spacing" textLength="132.5" x="1092.5" y="34.8877">EstadoEncomenda</text><line style="stroke:#A80036;stroke-width:1.875;" x1="1057.5" x2="1227.5" y1="48.75" y2="48.75"/><text fill="#000000" font-family="sans-serif" font-size="13.75" lengthAdjust="spacing" textLength="141.25" x="1063.75" y="68.0237">-id_estado_encomenda</text><text fill="#000000" font-family="sans-serif" font-size="13.75" lengthAdjust="spacing" textLength="75" x="1063.75" y="85.3186">-designacao</text><!--MD5=[d4dacc50d49878ba7c621dfc80a2e1ce]
class Produto--><rect codeLine="26" fill="#FEFECE" filter="url(#f1gsp4f9bz919a)" height="119.1797" id="Produto" style="stroke:#A80036;stroke-width:1.875;" width="93.75" x="1095.625" y="138.125"/><ellipse cx="1114.375" cy="158.125" fill="#ADD1B2" rx="13.75" ry="13.75" style="stroke:#A80036;stroke-width:1.25;"/><path d="M1116.875,153.75 Q1117.1289,153.125 1117.4219,152.8125 Q1117.7148,152.5 1118.0469,152.5 Q1118.6328,152.5 1119.0039,152.8516 Q1119.375,153.2031 1119.375,154.0234 L1119.375,155.9766 Q1119.375,156.7969 1119.0234,157.1484 Q1118.6719,157.5 1118.125,157.5 Q1117.6367,157.5 1117.3242,157.2852 Q1117.0117,157.0703 1116.875,156.5039 Q1116.8164,156.1133 1116.6016,155.8984 Q1116.2109,155.4883 1115.5078,155.2539 Q1114.8047,155 1114.1016,155 Q1113.2227,155 1112.4805,155.3516 Q1111.7578,155.7031 1111.1914,156.4844 Q1110.625,157.2656 1110.625,158.3398 L1110.625,159.4922 Q1110.625,160.7813 1111.6797,161.6406 Q1112.7344,162.5 1114.6094,162.5 Q1115.7227,162.5 1116.5039,162.2461 Q1116.9531,162.1094 1117.4609,161.6602 Q1117.793,161.4063 1117.9688,161.3281 Q1118.1445,161.25 1118.3594,161.25 Q1118.7695,161.25 1119.0625,161.582 Q1119.375,161.8945 1119.375,162.3438 Q1119.375,162.7734 1118.9453,163.2813 Q1118.3203,164.0234 1117.3242,164.4336 Q1116.0156,165 1114.4141,165 Q1112.5391,165 1111.0352,164.2578 Q1109.8242,163.6719 1108.9648,162.4023 Q1108.125,161.1328 1108.125,159.6289 L1108.125,158.2617 Q1108.125,156.6992 1108.8672,155.332 Q1109.6289,153.9648 1110.9375,153.2422 Q1112.2656,152.5 1113.75,152.5 Q1114.6484,152.5 1115.4297,152.8125 Q1116.2109,153.125 1116.875,153.75 Z " fill="#000000"/><text fill="#000000" font-family="sans-serif" font-size="15" lengthAdjust="spacing" textLength="53.75" x="1131.875" y="164.2627">Produto</text><line style="stroke:#A80036;stroke-width:1.875;" x1="1096.875" x2="1188.125" y1="178.125" y2="178.125"/><text fill="#000000" font-family="sans-serif" font-size="13.75" lengthAdjust="spacing" textLength="61.25" x="1103.125" y="197.3987">-idProduto</text><text fill="#000000" font-family="sans-serif" font-size="13.75" lengthAdjust="spacing" textLength="75" x="1103.125" y="214.6936">-designacao</text><text fill="#000000" font-family="sans-serif" font-size="13.75" lengthAdjust="spacing" textLength="35" x="1103.125" y="231.9885">-peso</text><text fill="#000000" font-family="sans-serif" font-size="13.75" lengthAdjust="spacing" textLength="71.25" x="1103.125" y="249.2834">-precoBase</text><!--MD5=[3f1202280bfe3359d2f91fb9b6e32986]
class Estafeta--><rect codeLine="33" fill="#FEFECE" filter="url(#f1gsp4f9bz919a)" height="67.2949" id="Estafeta" style="stroke:#A80036;stroke-width:1.875;" width="100" x="258.125" y="345"/><ellipse cx="278.5625" cy="365" fill="#ADD1B2" rx="13.75" ry="13.75" style="stroke:#A80036;stroke-width:1.25;"/><path d="M281.0625,360.625 Q281.3164,360 281.6094,359.6875 Q281.9023,359.375 282.2344,359.375 Q282.8203,359.375 283.1914,359.7266 Q283.5625,360.0781 283.5625,360.8984 L283.5625,362.8516 Q283.5625,363.6719 283.2109,364.0234 Q282.8594,364.375 282.3125,364.375 Q281.8242,364.375 281.5117,364.1602 Q281.1992,363.9453 281.0625,363.3789 Q281.0039,362.9883 280.7891,362.7734 Q280.3984,362.3633 279.6953,362.1289 Q278.9922,361.875 278.2891,361.875 Q277.4102,361.875 276.668,362.2266 Q275.9453,362.5781 275.3789,363.3594 Q274.8125,364.1406 274.8125,365.2148 L274.8125,366.3672 Q274.8125,367.6563 275.8672,368.5156 Q276.9219,369.375 278.7969,369.375 Q279.9102,369.375 280.6914,369.1211 Q281.1406,368.9844 281.6484,368.5352 Q281.9805,368.2813 282.1563,368.2031 Q282.332,368.125 282.5469,368.125 Q282.957,368.125 283.25,368.457 Q283.5625,368.7695 283.5625,369.2188 Q283.5625,369.6484 283.1328,370.1563 Q282.5078,370.8984 281.5117,371.3086 Q280.2031,371.875 278.6016,371.875 Q276.7266,371.875 275.2227,371.1328 Q274.0117,370.5469 273.1523,369.2773 Q272.3125,368.0078 272.3125,366.5039 L272.3125,365.1367 Q272.3125,363.5742 273.0547,362.207 Q273.8164,360.8398 275.125,360.1172 Q276.4531,359.375 277.9375,359.375 Q278.8359,359.375 279.6172,359.6875 Q280.3984,360 281.0625,360.625 Z " fill="#000000"/><text fill="#000000" font-family="sans-serif" font-size="15" lengthAdjust="spacing" textLength="56.25" x="296.4375" y="371.1377">Estafeta</text><line style="stroke:#A80036;stroke-width:1.875;" x1="259.375" x2="356.875" y1="385" y2="385"/><text fill="#000000" font-family="sans-serif" font-size="13.75" lengthAdjust="spacing" textLength="85" x="265.625" y="404.2737">-pesoEstafeta</text><!--MD5=[36c1942e8942a3e4f47e6de3733e3d18]
class Endereco--><rect codeLine="38" fill="#FEFECE" filter="url(#f1gsp4f9bz919a)" height="119.1797" id="Endereco" style="stroke:#A80036;stroke-width:1.875;" width="106.25" x="255" y="181.875"/><ellipse cx="273.75" cy="201.875" fill="#ADD1B2" rx="13.75" ry="13.75" style="stroke:#A80036;stroke-width:1.25;"/><path d="M276.25,197.5 Q276.5039,196.875 276.7969,196.5625 Q277.0898,196.25 277.4219,196.25 Q278.0078,196.25 278.3789,196.6016 Q278.75,196.9531 278.75,197.7734 L278.75,199.7266 Q278.75,200.5469 278.3984,200.8984 Q278.0469,201.25 277.5,201.25 Q277.0117,201.25 276.6992,201.0352 Q276.3867,200.8203 276.25,200.2539 Q276.1914,199.8633 275.9766,199.6484 Q275.5859,199.2383 274.8828,199.0039 Q274.1797,198.75 273.4766,198.75 Q272.5977,198.75 271.8555,199.1016 Q271.1328,199.4531 270.5664,200.2344 Q270,201.0156 270,202.0898 L270,203.2422 Q270,204.5313 271.0547,205.3906 Q272.1094,206.25 273.9844,206.25 Q275.0977,206.25 275.8789,205.9961 Q276.3281,205.8594 276.8359,205.4102 Q277.168,205.1563 277.3438,205.0781 Q277.5195,205 277.7344,205 Q278.1445,205 278.4375,205.332 Q278.75,205.6445 278.75,206.0938 Q278.75,206.5234 278.3203,207.0313 Q277.6953,207.7734 276.6992,208.1836 Q275.3906,208.75 273.7891,208.75 Q271.9141,208.75 270.4102,208.0078 Q269.1992,207.4219 268.3398,206.1523 Q267.5,204.8828 267.5,203.3789 L267.5,202.0117 Q267.5,200.4492 268.2422,199.082 Q269.0039,197.7148 270.3125,196.9922 Q271.6406,196.25 273.125,196.25 Q274.0234,196.25 274.8047,196.5625 Q275.5859,196.875 276.25,197.5 Z " fill="#000000"/><text fill="#000000" font-family="sans-serif" font-size="15" lengthAdjust="spacing" textLength="66.25" x="291.25" y="208.0127">Endereco</text><line style="stroke:#A80036;stroke-width:1.875;" x1="256.25" x2="360" y1="221.875" y2="221.875"/><text fill="#000000" font-family="sans-serif" font-size="13.75" lengthAdjust="spacing" textLength="50" x="262.5" y="241.1487">-morada</text><text fill="#000000" font-family="sans-serif" font-size="13.75" lengthAdjust="spacing" textLength="47.5" x="262.5" y="258.4436">-latitude</text><text fill="#000000" font-family="sans-serif" font-size="13.75" lengthAdjust="spacing" textLength="58.75" x="262.5" y="275.7385">-longitude</text><text fill="#000000" font-family="sans-serif" font-size="13.75" lengthAdjust="spacing" textLength="47.5" x="262.5" y="293.0334">-altitude</text><!--MD5=[8505c5852735283b5a8424161266bb9f]
class Veiculo--><rect codeLine="45" fill="#FEFECE" filter="url(#f1gsp4f9bz919a)" height="171.0645" id="Veiculo" style="stroke:#A80036;stroke-width:1.875;" width="141.25" x="793.75" y="251.875"/><ellipse cx="835.5625" cy="271.875" fill="#ADD1B2" rx="13.75" ry="13.75" style="stroke:#A80036;stroke-width:1.25;"/><path d="M838.0625,267.5 Q838.3164,266.875 838.6094,266.5625 Q838.9023,266.25 839.2344,266.25 Q839.8203,266.25 840.1914,266.6016 Q840.5625,266.9531 840.5625,267.7734 L840.5625,269.7266 Q840.5625,270.5469 840.2109,270.8984 Q839.8594,271.25 839.3125,271.25 Q838.8242,271.25 838.5117,271.0352 Q838.1992,270.8203 838.0625,270.2539 Q838.0039,269.8633 837.7891,269.6484 Q837.3984,269.2383 836.6953,269.0039 Q835.9922,268.75 835.2891,268.75 Q834.4102,268.75 833.668,269.1016 Q832.9453,269.4531 832.3789,270.2344 Q831.8125,271.0156 831.8125,272.0898 L831.8125,273.2422 Q831.8125,274.5313 832.8672,275.3906 Q833.9219,276.25 835.7969,276.25 Q836.9102,276.25 837.6914,275.9961 Q838.1406,275.8594 838.6484,275.4102 Q838.9805,275.1563 839.1563,275.0781 Q839.332,275 839.5469,275 Q839.957,275 840.25,275.332 Q840.5625,275.6445 840.5625,276.0938 Q840.5625,276.5234 840.1328,277.0313 Q839.5078,277.7734 838.5117,278.1836 Q837.2031,278.75 835.6016,278.75 Q833.7266,278.75 832.2227,278.0078 Q831.0117,277.4219 830.1523,276.1523 Q829.3125,274.8828 829.3125,273.3789 L829.3125,272.0117 Q829.3125,270.4492 830.0547,269.082 Q830.8164,267.7148 832.125,266.9922 Q833.4531,266.25 834.9375,266.25 Q835.8359,266.25 836.6172,266.5625 Q837.3984,266.875 838.0625,267.5 Z " fill="#000000"/><text fill="#000000" font-family="sans-serif" font-size="15" lengthAdjust="spacing" textLength="50" x="858.1875" y="278.0127">Veiculo</text><line style="stroke:#A80036;stroke-width:1.875;" x1="795" x2="933.75" y1="291.875" y2="291.875"/><text fill="#000000" font-family="sans-serif" font-size="13.75" lengthAdjust="spacing" textLength="60" x="801.25" y="311.1487">-idVeiculo</text><text fill="#000000" font-family="sans-serif" font-size="13.75" lengthAdjust="spacing" textLength="65" x="801.25" y="328.4436">-descricao</text><text fill="#000000" font-family="sans-serif" font-size="13.75" lengthAdjust="spacing" textLength="126.25" x="801.25" y="345.7385">-percentagemBateria</text><text fill="#000000" font-family="sans-serif" font-size="13.75" lengthAdjust="spacing" textLength="80" x="801.25" y="363.0334">-pesoMaximo</text><text fill="#000000" font-family="sans-serif" font-size="13.75" lengthAdjust="spacing" textLength="80" x="801.25" y="380.3284">-pesoVeiculo</text><text fill="#000000" font-family="sans-serif" font-size="13.75" lengthAdjust="spacing" textLength="56.25" x="801.25" y="397.6233">-potencia</text><text fill="#000000" font-family="sans-serif" font-size="13.75" lengthAdjust="spacing" textLength="73.75" x="801.25" y="414.9182">-areaFrontal</text><!--MD5=[20a748d5ee336a9a91751b0a3d4f0beb]
class Cliente--><rect codeLine="55" fill="#FEFECE" filter="url(#f1gsp4f9bz919a)" height="67.2949" id="Cliente" style="stroke:#A80036;stroke-width:1.875;" width="88.75" x="16.875" y="128.75"/><ellipse cx="35.625" cy="148.75" fill="#ADD1B2" rx="13.75" ry="13.75" style="stroke:#A80036;stroke-width:1.25;"/><path d="M38.125,144.375 Q38.3789,143.75 38.6719,143.4375 Q38.9648,143.125 39.2969,143.125 Q39.8828,143.125 40.2539,143.4766 Q40.625,143.8281 40.625,144.6484 L40.625,146.6016 Q40.625,147.4219 40.2734,147.7734 Q39.9219,148.125 39.375,148.125 Q38.8867,148.125 38.5742,147.9102 Q38.2617,147.6953 38.125,147.1289 Q38.0664,146.7383 37.8516,146.5234 Q37.4609,146.1133 36.7578,145.8789 Q36.0547,145.625 35.3516,145.625 Q34.4727,145.625 33.7305,145.9766 Q33.0078,146.3281 32.4414,147.1094 Q31.875,147.8906 31.875,148.9648 L31.875,150.1172 Q31.875,151.4063 32.9297,152.2656 Q33.9844,153.125 35.8594,153.125 Q36.9727,153.125 37.7539,152.8711 Q38.2031,152.7344 38.7109,152.2852 Q39.043,152.0313 39.2188,151.9531 Q39.3945,151.875 39.6094,151.875 Q40.0195,151.875 40.3125,152.207 Q40.625,152.5195 40.625,152.9688 Q40.625,153.3984 40.1953,153.9063 Q39.5703,154.6484 38.5742,155.0586 Q37.2656,155.625 35.6641,155.625 Q33.7891,155.625 32.2852,154.8828 Q31.0742,154.2969 30.2148,153.0273 Q29.375,151.7578 29.375,150.2539 L29.375,148.8867 Q29.375,147.3242 30.1172,145.957 Q30.8789,144.5898 32.1875,143.8672 Q33.5156,143.125 35,143.125 Q35.8984,143.125 36.6797,143.4375 Q37.4609,143.75 38.125,144.375 Z " fill="#000000"/><text fill="#000000" font-family="sans-serif" font-size="15" lengthAdjust="spacing" textLength="48.75" x="53.125" y="154.8877">Cliente</text><line style="stroke:#A80036;stroke-width:1.875;" x1="18.125" x2="104.375" y1="168.75" y2="168.75"/><text fill="#000000" font-family="sans-serif" font-size="13.75" lengthAdjust="spacing" textLength="53.75" x="24.375" y="188.0237">-creditos</text><!--MD5=[6613c9cd406ef433ff06f5e98b28abd9]
class Farmacia--><rect codeLine="59" fill="#FEFECE" filter="url(#f1gsp4f9bz919a)" height="84.5898" id="Farmacia" style="stroke:#A80036;stroke-width:1.875;" width="105" x="8.75" y="252.5"/><ellipse cx="27.5" cy="272.5" fill="#ADD1B2" rx="13.75" ry="13.75" style="stroke:#A80036;stroke-width:1.25;"/><path d="M30,268.125 Q30.2539,267.5 30.5469,267.1875 Q30.8398,266.875 31.1719,266.875 Q31.7578,266.875 32.1289,267.2266 Q32.5,267.5781 32.5,268.3984 L32.5,270.3516 Q32.5,271.1719 32.1484,271.5234 Q31.7969,271.875 31.25,271.875 Q30.7617,271.875 30.4492,271.6602 Q30.1367,271.4453 30,270.8789 Q29.9414,270.4883 29.7266,270.2734 Q29.3359,269.8633 28.6328,269.6289 Q27.9297,269.375 27.2266,269.375 Q26.3477,269.375 25.6055,269.7266 Q24.8828,270.0781 24.3164,270.8594 Q23.75,271.6406 23.75,272.7148 L23.75,273.8672 Q23.75,275.1563 24.8047,276.0156 Q25.8594,276.875 27.7344,276.875 Q28.8477,276.875 29.6289,276.6211 Q30.0781,276.4844 30.5859,276.0352 Q30.918,275.7813 31.0938,275.7031 Q31.2695,275.625 31.4844,275.625 Q31.8945,275.625 32.1875,275.957 Q32.5,276.2695 32.5,276.7188 Q32.5,277.1484 32.0703,277.6563 Q31.4453,278.3984 30.4492,278.8086 Q29.1406,279.375 27.5391,279.375 Q25.6641,279.375 24.1602,278.6328 Q22.9492,278.0469 22.0898,276.7773 Q21.25,275.5078 21.25,274.0039 L21.25,272.6367 Q21.25,271.0742 21.9922,269.707 Q22.7539,268.3398 24.0625,267.6172 Q25.3906,266.875 26.875,266.875 Q27.7734,266.875 28.5547,267.1875 Q29.3359,267.5 30,268.125 Z " fill="#000000"/><text fill="#000000" font-family="sans-serif" font-size="15" lengthAdjust="spacing" textLength="65" x="45" y="278.6377">Farmacia</text><line style="stroke:#A80036;stroke-width:1.875;" x1="10" x2="112.5" y1="292.5" y2="292.5"/><text fill="#000000" font-family="sans-serif" font-size="13.75" lengthAdjust="spacing" textLength="23.75" x="16.25" y="311.7737">-NIF</text><text fill="#000000" font-family="sans-serif" font-size="13.75" lengthAdjust="spacing" textLength="35" x="16.25" y="329.0686">-email</text><!--MD5=[055d9a59c94791d1e5417ead9eff8d01]
link Encomenda to EstadoEncomenda--><path codeLine="64" d="M926.45,107.75 C964.5,97.7375 1014.075,84.7 1056.0125,73.675 " fill="none" id="Encomenda-EstadoEncomenda" style="stroke:#A80036;stroke-width:1.25;"/><polygon fill="#000000" points="984.7944,73.63,972.9255,72.953,974.7943,80.0587,984.7944,73.63" style="stroke:#000000;stroke-width:1.25;"/><text fill="#000000" font-family="sans-serif" font-size="16.25" lengthAdjust="spacing" textLength="27.5" x="990" y="81.8689">tem</text><text fill="#000000" font-family="sans-serif" font-size="16.25" lengthAdjust="spacing" textLength="8.75" x="936.2098" y="123.7534">1</text><text fill="#000000" font-family="sans-serif" font-size="16.25" lengthAdjust="spacing" textLength="8.75" x="1037.3244" y="94.1368">1</text><!--MD5=[39609d66ce6d06d1779a14455c909f6f]
link Entrega to Encomenda--><path codeLine="65" d="M652.85,298.3 C694.8125,263.4625 756.4,212.3375 802.0875,174.4125 " fill="none" id="Entrega-Encomenda" style="stroke:#A80036;stroke-width:1.25;"/><polygon fill="#000000" points="701.0589,203.7277,690.013,208.1228,694.706,213.776,701.0589,203.7277" style="stroke:#000000;stroke-width:1.25;"/><text fill="#000000" font-family="sans-serif" font-size="16.25" lengthAdjust="spacing" textLength="47.5" x="707.5" y="214.3689">possui</text><text fill="#000000" font-family="sans-serif" font-size="16.25" lengthAdjust="spacing" textLength="8.75" x="662.5942" y="309.786">1</text><text fill="#000000" font-family="sans-serif" font-size="16.25" lengthAdjust="spacing" textLength="6.25" x="786.23" y="200.207">*</text><!--MD5=[328dae9b2f192140d45e51cd90ecd75a]
link Estafeta to Entrega--><path codeLine="66" d="M358.2125,371.8875 C413.1875,364.175 501.9,351.7125 556.1125,344.1 " fill="none" id="Estafeta-Entrega" style="stroke:#A80036;stroke-width:1.25;"/><polygon fill="#000000" points="438.0643,336.8507,426.3569,334.7848,427.3786,342.0608,438.0643,336.8507" style="stroke:#000000;stroke-width:1.25;"/><text fill="#000000" font-family="sans-serif" font-size="16.25" lengthAdjust="spacing" textLength="47.5" x="443.125" y="344.3689">realiza</text><text fill="#000000" font-family="sans-serif" font-size="16.25" lengthAdjust="spacing" textLength="8.75" x="368.254" y="389.3943">1</text><text fill="#000000" font-family="sans-serif" font-size="16.25" lengthAdjust="spacing" textLength="6.25" x="540.0668" y="364.1342">*</text><!--MD5=[43a7c1a046aa41d1c9842e3954366be4]
link Cliente to Endereco--><path codeLine="67" d="M105.625,176.4 C147.2875,189.825 210.425,210.1625 254.8375,224.4875 " fill="none" id="Cliente-Endereco" style="stroke:#A80036;stroke-width:1.25;"/><polygon fill="#000000" points="173.4487,184.6368,163.8142,177.6722,161.5605,184.6653,173.4487,184.6368" style="stroke:#000000;stroke-width:1.25;"/><text fill="#000000" font-family="sans-serif" font-size="16.25" lengthAdjust="spacing" textLength="27.5" x="178.75" y="189.3689">tem</text><text fill="#000000" font-family="sans-serif" font-size="16.25" lengthAdjust="spacing" textLength="8.75" x="115.6797" y="198.2647">1</text><text fill="#000000" font-family="sans-serif" font-size="16.25" lengthAdjust="spacing" textLength="8.75" x="236.1768" y="240.1949">1</text><!--MD5=[beec9e5f2ed2709028dd31c1dc478e7b]
link Cliente to Encomenda--><path codeLine="68" d="M106.1125,160.3875 C240.225,153.9 646.825,134.2125 802.025,126.7125 " fill="none" id="Cliente-Encomenda" style="stroke:#A80036;stroke-width:1.25;"/><polygon fill="#000000" points="411.2427,129.9176,399.772,126.7948,400.1271,134.1335,411.2427,129.9176" style="stroke:#000000;stroke-width:1.25;"/><text fill="#000000" font-family="sans-serif" font-size="16.25" lengthAdjust="spacing" textLength="101.25" x="416.25" y="136.8689">realiza e paga</text><text fill="#000000" font-family="sans-serif" font-size="16.25" lengthAdjust="spacing" textLength="8.75" x="115.4984" y="178.8214">1</text><text fill="#000000" font-family="sans-serif" font-size="16.25" lengthAdjust="spacing" textLength="6.25" x="786.1584" y="145.501">*</text><!--MD5=[cd2aeefe8c457d184a69396a9f9cb06a]
link Entrega to Veiculo--><path codeLine="69" d="M652.85,337.5 C692.2,337.5 748.8,337.5 793.375,337.5 " fill="none" id="Entrega-Veiculo" style="stroke:#A80036;stroke-width:1.25;"/><polygon fill="#000000" points="690,326.4697,701.3064,330.1434,701.3064,322.7961,690,326.4697" style="stroke:#000000;stroke-width:1.25;"/><text fill="#000000" font-family="sans-serif" font-size="16.25" lengthAdjust="spacing" textLength="47.5" x="707.5" y="333.1189">realiza</text><text fill="#000000" font-family="sans-serif" font-size="16.25" lengthAdjust="spacing" textLength="6.25" x="662.3638" y="356.2135">*</text><text fill="#000000" font-family="sans-serif" font-size="16.25" lengthAdjust="spacing" textLength="8.75" x="774.9676" y="355.6902">1</text><!--MD5=[60097591193c89dbde5dfd99b98b5263]
link Encomenda to Produto--><path codeLine="70" d="M926.45,140.025 C977.5,153.6875 1049.3,172.9 1095.55,185.275 " fill="none" id="Encomenda-Produto" style="stroke:#A80036;stroke-width:1.25;"/><polygon fill="#000000" points="984.7876,145.5853,974.8151,139.1139,972.9159,146.2115,984.7876,145.5853" style="stroke:#000000;stroke-width:1.25;"/><text fill="#000000" font-family="sans-serif" font-size="16.25" lengthAdjust="spacing" textLength="27.5" x="990" y="150.6189">tem</text><text fill="#000000" font-family="sans-serif" font-size="16.25" lengthAdjust="spacing" textLength="8.75" x="936.2098" y="160.7688">1</text><text fill="#000000" font-family="sans-serif" font-size="16.25" lengthAdjust="spacing" textLength="6.25" x="1079.4415" y="201.7068">*</text><!--MD5=[06143d4fc5f7e61d4193d2b4f541983b]
link Farmacia to Estafeta--><path codeLine="71" d="M114.325,312.7625 C156.775,327.3125 216.425,347.75 258.0375,362.0125 " fill="none" id="Farmacia-Estafeta" style="stroke:#A80036;stroke-width:1.25;"/><polygon fill="#000000" points="173.4125,317.2459,163.9077,310.1053,161.5258,317.0558,173.4125,317.2459" style="stroke:#000000;stroke-width:1.25;"/><text fill="#000000" font-family="sans-serif" font-size="16.25" lengthAdjust="spacing" textLength="27.5" x="178.75" y="321.8689">tem</text><text fill="#000000" font-family="sans-serif" font-size="16.25" lengthAdjust="spacing" textLength="8.75" x="123.8402" y="334.2999">1</text><text fill="#000000" font-family="sans-serif" font-size="16.25" lengthAdjust="spacing" textLength="6.25" x="241.9764" y="377.6986">*</text><!--MD5=[e9cb6b9ea8421b6538fc03abcb01a9a8]
link Farmacia to Endereco--><path codeLine="72" d="M114.325,283.6 C155.6625,274.5125 213.2875,261.8375 254.7,252.725 " fill="none" id="Farmacia-Endereco" style="stroke:#A80036;stroke-width:1.25;"/><polygon fill="#000000" points="163.6041,250.1272,151.7725,248.968,153.3508,256.1438,163.6041,250.1272" style="stroke:#000000;stroke-width:1.25;"/><text fill="#000000" font-family="sans-serif" font-size="16.25" lengthAdjust="spacing" textLength="47.5" x="168.75" y="258.1189">possui</text><text fill="#000000" font-family="sans-serif" font-size="16.25" lengthAdjust="spacing" textLength="8.75" x="123.8402" y="300.3074">1</text><text fill="#000000" font-family="sans-serif" font-size="16.25" lengthAdjust="spacing" textLength="8.75" x="236.3769" y="273.1515">1</text><!--MD5=[e71e0c975f1259b87a34a97f0a97ba8c]
@startuml
skinparam classAttributeIconSize 0
hide methods
left to right direction


class Entrega {
  -idEntrega
  -dataInicio
  -dataFim
  -pesoEntrega
}

class Encomenda {
  -idEncomenda
  -dataPedida
  -preco
  -pesoEncomenda
  -taxa
}

class EstadoEncomenda {
  -id_estado_encomenda
  -designacao
}

class Produto {
  -idProduto
  -designacao
  -peso
  -precoBase
}

class Estafeta {
  -pesoEstafeta
}


class Endereco {
  -morada
  -latitude
  -longitude
  -altitude
}

class Veiculo {
  -idVeiculo
  -descricao
  -percentagemBateria
  -pesoMaximo
  -pesoVeiculo
  -potencia
  -areaFrontal
}

class Cliente {
  -creditos
}

class Farmacia {
  -NIF
  -email
}

Encomenda "1" - - "1" EstadoEncomenda : tem >
Entrega "1" - - "*" Encomenda : possui >
Estafeta "1" - - "*" Entrega: realiza >
Cliente "1" - - "1" Endereco: tem >
Cliente "1" - - "*" Encomenda: realiza e paga >
Entrega "*" - - "1" Veiculo: realiza <
Encomenda "1" - - "*" Produto: tem >
Farmacia "1" - - "*" Estafeta: tem >
Farmacia "1" - - "1" Endereco: possui >

@enduml

PlantUML version 1.2021.00(Sun Jan 10 10:25:05 GMT 2021)
(GPL source distribution)
Java Runtime: OpenJDK Runtime Environment
JVM: OpenJDK 64-Bit Server VM
Default Encoding: Cp1252
Language: pt
Country: PT
--></g></svg>